M48
;GenerationSoftware,Autodesk,EAGLE,8.6.0*%
;CreationDate,2018-01-26T22:38:57Z*%
FMAT,2
ICI,OFF
METRIC,TZ,000.000
T10C0.381
T9C0.813
T8C0.889
T7C0.900
T6C0.914
T5C1.000
T4C1.016
T3C2.007
T2C2.032
T1C5.588
%
G90
M71
T1
X24384Y60452
X101854Y60452
T2
X38100Y16383
X88900Y16383
T3
X94996Y50800
X94996Y55245
T4
X70485Y13589
X67945Y13589
X65405Y13589
X62865Y13589
X60325Y13589
X57785Y13589
X55245Y13589
X52705Y13589
T5
X41489Y6746
X36489Y6746
X90765Y6746
X85765Y6746
T6
X112319Y60452
X118821Y60452
T7
X48727Y5842
X53127Y5842
X74000Y5842
X78400Y5842
T8
X5080Y19812
X102616Y19558
X102616Y9398
X121666Y19558
X121666Y9398
X5080Y9652
X24130Y19812
X24130Y9652
T9
X96520Y39370
X96520Y36830
X96520Y41910
T10
X8458Y48616
X33376Y21641
X37490Y21641
X39624Y23774
X42291Y26899
X51054Y29413
X19355Y38100
X29566Y25451
X32766Y22250
X42901Y23393
X57988Y32233
X12878Y63779
X33985Y23470
X41453Y31547
X44425Y33299
X16002Y57607
X112624Y43434
X7315Y39319
X117653Y37643
X115519Y41834
X48539Y8915
X73304Y9601
X118491Y46482
X74066Y33299
X79172Y23165
X87173Y20193
X80010Y22022
X96469Y33528
X44653Y20422
X31013Y35738
X33376Y33376
X69342Y23241
X74447Y27356
X77038Y24765
X77876Y33147
X77876Y30785
X62865Y24308
X64618Y22631
X66599Y27127
X74219Y20574
X76733Y18059
X67208Y26518
X78029Y27432
X87401Y29261
X67970Y29947
X67970Y31623
X41453Y35357
X38252Y32004
X17526Y52654
X54712Y36500
X47549Y32690
X30709Y57988
X91059Y30251
X83896Y37414
X74752Y37414
X60503Y32842
X57379Y32842
X28346Y53111
X32461Y36957
X48768Y35585
X84811Y14859
X70104Y16002
X68885Y27432
X72009Y33223
X55321Y27737
X28346Y55626
X32461Y61493
X49454Y25984
X91059Y29413
X87630Y32842
X69799Y31623
X61951Y31013
X28346Y54788
X42062Y33833
X48997Y27889
X93040Y30328
X71704Y35204
X54254Y32233
X27508Y53111
X93650Y27813
X80239Y37719
X73914Y37414
X55550Y36119
X50749Y31318
X27508Y51435
X26518Y50444
X49454Y19202
X21717Y41758
X25984Y37033
X69799Y35509
X66751Y35509
X62027Y33299
X50978Y27280
X31090Y47625
X35509Y33680
X44348Y27737
X87173Y25756
X79629Y35052
X69799Y34138
X66446Y33757
X47549Y26594
X28346Y51435
X28346Y48616
X28346Y45949
X30175Y35738
X81839Y16840
X44958Y7391
X31166Y28956
X80620Y16459
X38405Y13411
X59207Y15850
X64008Y7087
X63856Y4039
X109499Y28499
X37338Y24994
X15545Y58522
X30709Y60427
X72009Y24079
X72009Y22631
X69647Y6248
X50825Y4572
X38024Y9906
X16078Y64694
X17755Y64465
X25375Y65456
X14097Y45110
X18440Y47701
X25984Y46406
X71095Y28727
X60655Y33833
X31318Y53188
X18593Y60274
X69190Y29337
X63246Y29718
X46787Y19202
X23241Y34138
X17374Y55931
X63551Y28346
X48844Y22098
X48006Y17983
X41605Y17983
X33223Y18517
X95936Y12802
X93802Y10668
X34823Y9144
X121920Y23546
X96469Y43053
X21717Y44044
X24155Y47092
X19050Y47092
X15392Y45034
X26594Y47854
X71171Y32766
X59969Y37109
X42291Y35357
X39472Y30785
X27203Y36424
X23546Y40462
X17145Y45034
X19126Y45644
X92507Y37719
X94640Y36957
X42901Y24232
X44501Y21412
X67056Y11735
X62865Y10973
X62865Y25146
X66065Y18059
X94259Y45568
X102870Y65151
X70485Y6325
X28346Y28270
X93269Y24994
X117805Y58445
X99822Y32614
X11201Y55016
X25679Y49606
X11125Y56693
X28346Y63322
X30709Y61265
X23927Y35966
X21031Y44577
X31699Y30785
X16307Y42901
X111557Y39472
X108128Y41986
X50978Y21412
X74828Y32614
X79629Y29947
X80467Y35204
X50978Y35204
X79858Y25298
X94031Y37567
X46939Y13640
X120167Y43586
X120244Y37871
X105842Y27051
X108585Y47473
X115214Y45187
X7925Y36957
X34595Y19126
X40996Y18593
X13106Y46787
X31547Y31623
X40843Y30175
X47930Y28118
X118186Y27280
M30