G75*
%MOIN*%
%OFA0B0*%
%FSLAX25Y25*%
%IPPOS*%
%LPD*%
%AMOC8*
5,1,8,0,0,1.08239X$1,22.5*
%
%ADD10R,0.04331X0.03937*%
%ADD11R,0.05118X0.05906*%
%ADD12OC8,0.08500*%
%ADD13R,0.02756X0.03543*%
%ADD14R,0.03543X0.02756*%
%ADD15R,0.03200X0.03200*%
%ADD16R,0.00984X0.02756*%
%ADD17R,0.02756X0.00984*%
%ADD18R,0.20472X0.12598*%
%ADD19R,0.00886X0.01673*%
%ADD20R,0.04724X0.04724*%
%ADD21C,0.04724*%
%ADD22R,0.07677X0.07677*%
%ADD23R,0.04724X0.03937*%
%ADD24R,0.03543X0.06299*%
%ADD25C,0.00600*%
%ADD26C,0.02700*%
D10*
X0022954Y0131074D03*
X0029646Y0131074D03*
D11*
X0020040Y0026074D03*
X0012560Y0026074D03*
D12*
X0011300Y0086074D03*
D13*
X0028741Y0076074D03*
X0033859Y0076074D03*
X0063741Y0071074D03*
X0068859Y0071074D03*
X0068859Y0058574D03*
X0063741Y0058574D03*
X0063741Y0043574D03*
X0068859Y0043574D03*
X0068859Y0028574D03*
X0063741Y0028574D03*
X0063741Y0016074D03*
X0068859Y0016074D03*
X0038859Y0041074D03*
X0033741Y0041074D03*
X0063741Y0086074D03*
X0068859Y0086074D03*
X0068859Y0101074D03*
X0063741Y0101074D03*
X0063741Y0113574D03*
X0068859Y0113574D03*
X0068859Y0126074D03*
X0063741Y0126074D03*
X0046359Y0128574D03*
X0041241Y0128574D03*
D14*
X0011300Y0073633D03*
X0011300Y0068515D03*
D15*
X0011300Y0061074D03*
X0011300Y0056074D03*
X0011300Y0051074D03*
X0011300Y0046074D03*
X0011300Y0041074D03*
X0011300Y0096074D03*
X0011300Y0131074D03*
X0156300Y0126074D03*
X0156300Y0116074D03*
X0156300Y0106074D03*
X0156300Y0096074D03*
X0156300Y0086074D03*
X0156300Y0076074D03*
X0156300Y0066074D03*
X0156300Y0056074D03*
X0156300Y0046074D03*
X0156300Y0036074D03*
X0156300Y0026074D03*
X0156300Y0016074D03*
D16*
X0045627Y0099125D03*
X0043658Y0099125D03*
X0041690Y0099125D03*
X0039721Y0099125D03*
X0037753Y0099125D03*
X0035784Y0099125D03*
X0033816Y0099125D03*
X0031847Y0099125D03*
X0029879Y0099125D03*
X0027910Y0099125D03*
X0025942Y0099125D03*
X0023973Y0099125D03*
X0023973Y0118023D03*
X0025942Y0118023D03*
X0027910Y0118023D03*
X0029879Y0118023D03*
X0031847Y0118023D03*
X0033816Y0118023D03*
X0035784Y0118023D03*
X0037753Y0118023D03*
X0039721Y0118023D03*
X0041690Y0118023D03*
X0043658Y0118023D03*
X0045627Y0118023D03*
D17*
X0048186Y0114480D03*
X0048186Y0112511D03*
X0048186Y0110543D03*
X0048186Y0108574D03*
X0048186Y0106606D03*
X0048186Y0104637D03*
X0048186Y0102669D03*
X0021414Y0102669D03*
X0021414Y0104637D03*
X0021414Y0106606D03*
X0021414Y0108574D03*
X0021414Y0110543D03*
X0021414Y0112511D03*
X0021414Y0114480D03*
D18*
X0034800Y0108574D03*
D19*
X0021956Y0100060D03*
D20*
X0123800Y0023574D03*
D21*
X0123800Y0031448D03*
X0123800Y0039322D03*
X0123800Y0047196D03*
X0123800Y0055070D03*
X0123800Y0062944D03*
X0123800Y0070818D03*
X0123800Y0078692D03*
X0123800Y0086566D03*
X0123800Y0094440D03*
X0123800Y0102314D03*
X0123800Y0110188D03*
X0123800Y0118062D03*
X0123800Y0125936D03*
D22*
X0134824Y0133810D03*
X0112776Y0133810D03*
X0112776Y0015700D03*
X0134824Y0015700D03*
D23*
X0095749Y0017865D03*
X0095749Y0029480D03*
X0095749Y0052865D03*
X0095749Y0064480D03*
X0095749Y0085365D03*
X0095749Y0096980D03*
X0095749Y0117865D03*
X0095749Y0129480D03*
X0045749Y0064480D03*
X0045749Y0052865D03*
X0050749Y0029480D03*
X0050749Y0017865D03*
D24*
X0031851Y0017865D03*
X0031851Y0029480D03*
X0026851Y0052865D03*
X0026851Y0064480D03*
X0076851Y0064480D03*
X0076851Y0052865D03*
X0076851Y0029480D03*
X0076851Y0017865D03*
X0076851Y0085365D03*
X0076851Y0096980D03*
X0076851Y0117865D03*
X0076851Y0129480D03*
D25*
X0002200Y0141074D02*
X0002200Y0006974D01*
X0061535Y0006974D01*
X0061342Y0007167D01*
X0051342Y0007167D01*
X0050518Y0007991D01*
X0042592Y0015917D01*
X0040868Y0015917D01*
X0040192Y0015241D01*
X0039289Y0014867D01*
X0038311Y0014867D01*
X0037408Y0015241D01*
X0036717Y0015932D01*
X0036343Y0016835D01*
X0036343Y0017813D01*
X0036717Y0018716D01*
X0037408Y0019407D01*
X0038311Y0019781D01*
X0039289Y0019781D01*
X0040192Y0019407D01*
X0040868Y0018731D01*
X0043758Y0018731D01*
X0052508Y0009981D01*
X0061028Y0009981D01*
X0055092Y0015917D01*
X0054218Y0015917D01*
X0054218Y0015438D01*
X0053570Y0014790D01*
X0047928Y0014790D01*
X0047280Y0015438D01*
X0047280Y0020292D01*
X0047928Y0020941D01*
X0053570Y0020941D01*
X0054218Y0020292D01*
X0054218Y0018731D01*
X0056258Y0018731D01*
X0064383Y0010606D01*
X0080343Y0010606D01*
X0080093Y0011210D01*
X0080093Y0012188D01*
X0080467Y0013091D01*
X0081158Y0013782D01*
X0082061Y0014156D01*
X0083039Y0014156D01*
X0083942Y0013782D01*
X0084618Y0013106D01*
X0098842Y0013106D01*
X0116768Y0031032D01*
X0117592Y0031856D01*
X0120331Y0031856D01*
X0120331Y0032138D01*
X0120859Y0033413D01*
X0121835Y0034389D01*
X0123110Y0034917D01*
X0124490Y0034917D01*
X0125765Y0034389D01*
X0126741Y0033413D01*
X0127269Y0032138D01*
X0127269Y0030758D01*
X0126741Y0029483D01*
X0125765Y0028507D01*
X0124490Y0027979D01*
X0123110Y0027979D01*
X0121835Y0028507D01*
X0121300Y0029042D01*
X0118758Y0029042D01*
X0110362Y0020646D01*
X0117074Y0020646D01*
X0117722Y0019997D01*
X0117722Y0011403D01*
X0117074Y0010754D01*
X0108479Y0010754D01*
X0107831Y0011403D01*
X0107831Y0018115D01*
X0100322Y0010606D01*
X0117592Y0010606D01*
X0153593Y0046607D01*
X0153593Y0048133D01*
X0154241Y0048781D01*
X0154728Y0048781D01*
X0148071Y0055438D01*
X0147758Y0054682D01*
X0147067Y0053991D01*
X0146164Y0053617D01*
X0145208Y0053617D01*
X0133133Y0041542D01*
X0126486Y0041542D01*
X0126741Y0041287D01*
X0127269Y0040012D01*
X0127269Y0038632D01*
X0126741Y0037357D01*
X0125765Y0036381D01*
X0124490Y0035853D01*
X0123110Y0035853D01*
X0121835Y0036381D01*
X0120859Y0037357D01*
X0120331Y0038632D01*
X0120331Y0039990D01*
X0099218Y0018877D01*
X0099218Y0015438D01*
X0098570Y0014790D01*
X0092928Y0014790D01*
X0092280Y0015438D01*
X0092280Y0020292D01*
X0092928Y0020941D01*
X0097302Y0020941D01*
X0099778Y0023417D01*
X0091967Y0023417D01*
X0091767Y0023617D01*
X0090811Y0023617D01*
X0089908Y0023991D01*
X0089217Y0024682D01*
X0088843Y0025585D01*
X0088843Y0026563D01*
X0089217Y0027466D01*
X0089908Y0028157D01*
X0090811Y0028531D01*
X0091789Y0028531D01*
X0092280Y0028328D01*
X0092280Y0031907D01*
X0092928Y0032555D01*
X0094893Y0032555D01*
X0094893Y0037617D01*
X0094289Y0037367D01*
X0093333Y0037367D01*
X0086257Y0030291D01*
X0086257Y0029335D01*
X0085883Y0028432D01*
X0085192Y0027741D01*
X0084289Y0027367D01*
X0083311Y0027367D01*
X0082408Y0027741D01*
X0081717Y0028432D01*
X0081343Y0029335D01*
X0081343Y0030313D01*
X0081717Y0031216D01*
X0082408Y0031907D01*
X0083311Y0032281D01*
X0084267Y0032281D01*
X0086914Y0034928D01*
X0086158Y0035241D01*
X0085482Y0035917D01*
X0078368Y0035917D01*
X0077692Y0035241D01*
X0076936Y0034928D01*
X0077707Y0034157D01*
X0077707Y0033736D01*
X0079081Y0033736D01*
X0079730Y0033088D01*
X0079730Y0025871D01*
X0079081Y0025223D01*
X0074621Y0025223D01*
X0073972Y0025871D01*
X0073972Y0033088D01*
X0074384Y0033500D01*
X0071767Y0036117D01*
X0070811Y0036117D01*
X0070207Y0036367D01*
X0070207Y0031453D01*
X0070696Y0031453D01*
X0071344Y0030804D01*
X0071344Y0026344D01*
X0070696Y0025695D01*
X0070207Y0025695D01*
X0070207Y0018953D01*
X0070696Y0018953D01*
X0071344Y0018304D01*
X0071344Y0017481D01*
X0073972Y0017481D01*
X0073972Y0021474D01*
X0074621Y0022122D01*
X0079081Y0022122D01*
X0079730Y0021474D01*
X0079730Y0019356D01*
X0081732Y0019356D01*
X0082408Y0020032D01*
X0083311Y0020406D01*
X0084289Y0020406D01*
X0085192Y0020032D01*
X0085883Y0019341D01*
X0086257Y0018438D01*
X0086257Y0017460D01*
X0085883Y0016557D01*
X0085192Y0015866D01*
X0084289Y0015492D01*
X0083311Y0015492D01*
X0082408Y0015866D01*
X0081732Y0016542D01*
X0079730Y0016542D01*
X0079730Y0014257D01*
X0079081Y0013609D01*
X0074621Y0013609D01*
X0073972Y0014257D01*
X0073972Y0014667D01*
X0071344Y0014667D01*
X0071344Y0013844D01*
X0070696Y0013195D01*
X0067023Y0013195D01*
X0066374Y0013844D01*
X0066374Y0018304D01*
X0067023Y0018953D01*
X0067393Y0018953D01*
X0067393Y0019241D01*
X0063217Y0023417D01*
X0059132Y0023417D01*
X0059382Y0022813D01*
X0059382Y0021857D01*
X0062286Y0018953D01*
X0065577Y0018953D01*
X0066226Y0018304D01*
X0066226Y0013844D01*
X0065577Y0013195D01*
X0061904Y0013195D01*
X0061256Y0013844D01*
X0061256Y0016003D01*
X0057392Y0019867D01*
X0056436Y0019867D01*
X0055533Y0020241D01*
X0054842Y0020932D01*
X0054468Y0021835D01*
X0054468Y0022813D01*
X0054718Y0023417D01*
X0048842Y0023417D01*
X0048018Y0024241D01*
X0046342Y0025917D01*
X0043368Y0025917D01*
X0042692Y0025241D01*
X0041789Y0024867D01*
X0040833Y0024867D01*
X0034730Y0018764D01*
X0034730Y0014257D01*
X0034081Y0013609D01*
X0029621Y0013609D01*
X0028972Y0014257D01*
X0028972Y0016542D01*
X0025092Y0016542D01*
X0024268Y0017366D01*
X0019620Y0022014D01*
X0017023Y0022014D01*
X0016374Y0022663D01*
X0016374Y0029485D01*
X0017023Y0030134D01*
X0020245Y0030134D01*
X0031185Y0041074D01*
X0026342Y0045917D01*
X0025518Y0046741D01*
X0025518Y0048609D01*
X0024621Y0048609D01*
X0023972Y0049257D01*
X0023972Y0052662D01*
X0021143Y0055491D01*
X0021143Y0068113D01*
X0020533Y0068366D01*
X0020207Y0068692D01*
X0020207Y0051116D01*
X0014582Y0045491D01*
X0014007Y0044916D01*
X0014007Y0044015D01*
X0013566Y0043574D01*
X0014007Y0043133D01*
X0014007Y0039015D01*
X0013740Y0038749D01*
X0013957Y0038532D01*
X0013957Y0030134D01*
X0015577Y0030134D01*
X0016226Y0029485D01*
X0016226Y0022663D01*
X0015577Y0022014D01*
X0009542Y0022014D01*
X0008894Y0022663D01*
X0008894Y0029485D01*
X0009542Y0030134D01*
X0011143Y0030134D01*
X0011143Y0037366D01*
X0010142Y0038367D01*
X0009241Y0038367D01*
X0008593Y0039015D01*
X0008593Y0039916D01*
X0008018Y0040491D01*
X0004893Y0043616D01*
X0004893Y0071032D01*
X0005717Y0071856D01*
X0008421Y0074560D01*
X0008421Y0075088D01*
X0003018Y0080491D01*
X0003018Y0096657D01*
X0003842Y0097481D01*
X0014268Y0107907D01*
X0014268Y0132282D01*
X0015092Y0133106D01*
X0019467Y0137481D01*
X0025008Y0137481D01*
X0025832Y0136657D01*
X0025832Y0136657D01*
X0028339Y0134150D01*
X0032270Y0134150D01*
X0032919Y0133501D01*
X0032919Y0128647D01*
X0032270Y0127998D01*
X0030832Y0127998D01*
X0030832Y0120505D01*
X0030863Y0120474D01*
X0030897Y0120508D01*
X0032798Y0120508D01*
X0032831Y0120474D01*
X0032865Y0120508D01*
X0034766Y0120508D01*
X0034800Y0120474D01*
X0034834Y0120508D01*
X0036735Y0120508D01*
X0036769Y0120474D01*
X0036802Y0120508D01*
X0038703Y0120508D01*
X0038737Y0120474D01*
X0038771Y0120508D01*
X0040672Y0120508D01*
X0040706Y0120474D01*
X0040739Y0120508D01*
X0042640Y0120508D01*
X0042674Y0120474D01*
X0042708Y0120508D01*
X0044609Y0120508D01*
X0044643Y0120474D01*
X0044676Y0120508D01*
X0044893Y0120508D01*
X0044893Y0121992D01*
X0044289Y0121742D01*
X0043311Y0121742D01*
X0042408Y0122116D01*
X0041717Y0122807D01*
X0041343Y0123710D01*
X0041343Y0124666D01*
X0040717Y0125292D01*
X0040314Y0125695D01*
X0039404Y0125695D01*
X0038756Y0126344D01*
X0038756Y0130804D01*
X0039404Y0131453D01*
X0042189Y0131453D01*
X0045092Y0134356D01*
X0049383Y0134356D01*
X0050207Y0133532D01*
X0052508Y0131231D01*
X0073972Y0131231D01*
X0073972Y0133088D01*
X0074621Y0133736D01*
X0079081Y0133736D01*
X0079730Y0133088D01*
X0079730Y0125871D01*
X0079081Y0125223D01*
X0074621Y0125223D01*
X0073972Y0125871D01*
X0073972Y0128417D01*
X0071231Y0128417D01*
X0071344Y0128304D01*
X0071344Y0123844D01*
X0070696Y0123195D01*
X0070207Y0123195D01*
X0070207Y0119356D01*
X0073972Y0119356D01*
X0073972Y0121474D01*
X0074621Y0122122D01*
X0079081Y0122122D01*
X0079730Y0121474D01*
X0079730Y0118731D01*
X0081107Y0118731D01*
X0081783Y0119407D01*
X0082686Y0119781D01*
X0083664Y0119781D01*
X0084567Y0119407D01*
X0085258Y0118716D01*
X0085632Y0117813D01*
X0085632Y0116835D01*
X0085258Y0115932D01*
X0084567Y0115241D01*
X0083664Y0114867D01*
X0082686Y0114867D01*
X0081783Y0115241D01*
X0081107Y0115917D01*
X0079730Y0115917D01*
X0079730Y0114257D01*
X0079081Y0113609D01*
X0074621Y0113609D01*
X0073972Y0114257D01*
X0073972Y0116542D01*
X0070207Y0116542D01*
X0070207Y0116453D01*
X0070696Y0116453D01*
X0071344Y0115804D01*
X0071344Y0111344D01*
X0070696Y0110695D01*
X0070207Y0110695D01*
X0070207Y0103953D01*
X0070696Y0103953D01*
X0071344Y0103304D01*
X0071344Y0099743D01*
X0071436Y0099781D01*
X0072414Y0099781D01*
X0073317Y0099407D01*
X0073972Y0098751D01*
X0073972Y0100588D01*
X0074621Y0101236D01*
X0079081Y0101236D01*
X0079730Y0100588D01*
X0079730Y0093371D01*
X0079081Y0092723D01*
X0074621Y0092723D01*
X0073972Y0093371D01*
X0073972Y0095897D01*
X0073317Y0095241D01*
X0072414Y0094867D01*
X0071436Y0094867D01*
X0070533Y0095241D01*
X0070207Y0095567D01*
X0070207Y0088953D01*
X0070696Y0088953D01*
X0071344Y0088304D01*
X0071344Y0087481D01*
X0073972Y0087481D01*
X0073972Y0088974D01*
X0074621Y0089622D01*
X0079081Y0089622D01*
X0079730Y0088974D01*
X0079730Y0086856D01*
X0081732Y0086856D01*
X0082408Y0087532D01*
X0083311Y0087906D01*
X0084289Y0087906D01*
X0085192Y0087532D01*
X0085883Y0086841D01*
X0086257Y0085938D01*
X0086257Y0084960D01*
X0085883Y0084057D01*
X0085192Y0083366D01*
X0084289Y0082992D01*
X0083311Y0082992D01*
X0082408Y0083366D01*
X0081732Y0084042D01*
X0079730Y0084042D01*
X0079730Y0081757D01*
X0079081Y0081109D01*
X0074621Y0081109D01*
X0073972Y0081757D01*
X0073972Y0084667D01*
X0071344Y0084667D01*
X0071344Y0083844D01*
X0070696Y0083195D01*
X0070207Y0083195D01*
X0070207Y0073953D01*
X0070696Y0073953D01*
X0071344Y0073304D01*
X0071344Y0068844D01*
X0070696Y0068195D01*
X0070207Y0068195D01*
X0070207Y0061453D01*
X0070696Y0061453D01*
X0071344Y0060804D01*
X0071344Y0058645D01*
X0073972Y0056016D01*
X0073972Y0056474D01*
X0074621Y0057122D01*
X0079081Y0057122D01*
X0079730Y0056474D01*
X0079730Y0054356D01*
X0081732Y0054356D01*
X0082408Y0055032D01*
X0083311Y0055406D01*
X0084289Y0055406D01*
X0085192Y0055032D01*
X0085883Y0054341D01*
X0086257Y0053438D01*
X0086257Y0052460D01*
X0085883Y0051557D01*
X0085192Y0050866D01*
X0084289Y0050492D01*
X0083311Y0050492D01*
X0082408Y0050866D01*
X0081732Y0051542D01*
X0079730Y0051542D01*
X0079730Y0049257D01*
X0079081Y0048609D01*
X0074621Y0048609D01*
X0074598Y0048632D01*
X0071344Y0045378D01*
X0071344Y0041344D01*
X0071031Y0041031D01*
X0071789Y0041031D01*
X0072692Y0040657D01*
X0073383Y0039966D01*
X0073757Y0039063D01*
X0073757Y0038107D01*
X0073904Y0037960D01*
X0074217Y0038716D01*
X0074908Y0039407D01*
X0075811Y0039781D01*
X0076789Y0039781D01*
X0077692Y0039407D01*
X0078368Y0038731D01*
X0085482Y0038731D01*
X0086158Y0039407D01*
X0087061Y0039781D01*
X0088039Y0039781D01*
X0088942Y0039407D01*
X0089633Y0038716D01*
X0089946Y0037960D01*
X0091343Y0039357D01*
X0091343Y0040313D01*
X0091717Y0041216D01*
X0092408Y0041907D01*
X0093311Y0042281D01*
X0094289Y0042281D01*
X0094893Y0042031D01*
X0094893Y0043532D01*
X0120670Y0069309D01*
X0120331Y0070128D01*
X0120331Y0070615D01*
X0101258Y0051542D01*
X0099218Y0051542D01*
X0099218Y0050438D01*
X0098570Y0049790D01*
X0092928Y0049790D01*
X0092280Y0050438D01*
X0092280Y0055292D01*
X0092928Y0055941D01*
X0098570Y0055941D01*
X0099218Y0055292D01*
X0099218Y0054356D01*
X0100092Y0054356D01*
X0121143Y0075407D01*
X0121661Y0075925D01*
X0120859Y0076727D01*
X0120331Y0078002D01*
X0120331Y0079382D01*
X0120859Y0080657D01*
X0121835Y0081633D01*
X0123110Y0082161D01*
X0124490Y0082161D01*
X0125765Y0081633D01*
X0126741Y0080657D01*
X0127269Y0079382D01*
X0127269Y0078002D01*
X0126741Y0076727D01*
X0126245Y0076231D01*
X0143842Y0076231D01*
X0153593Y0085982D01*
X0153593Y0088133D01*
X0154241Y0088781D01*
X0158359Y0088781D01*
X0158938Y0088202D01*
X0159467Y0088731D01*
X0160321Y0088731D01*
X0160321Y0141074D01*
X0002200Y0141074D01*
X0002200Y0140702D02*
X0160321Y0140702D01*
X0160321Y0140103D02*
X0002200Y0140103D01*
X0002200Y0139505D02*
X0160321Y0139505D01*
X0160321Y0138906D02*
X0002200Y0138906D01*
X0002200Y0138308D02*
X0108031Y0138308D01*
X0107831Y0138107D02*
X0107831Y0130606D01*
X0099218Y0130606D01*
X0099218Y0131907D01*
X0098570Y0132555D01*
X0092928Y0132555D01*
X0092280Y0131907D01*
X0092280Y0127052D01*
X0092928Y0126404D01*
X0098570Y0126404D01*
X0099218Y0127052D01*
X0099218Y0127792D01*
X0106967Y0127792D01*
X0116768Y0117991D01*
X0117592Y0117167D01*
X0120416Y0117167D01*
X0120859Y0116097D01*
X0121835Y0115121D01*
X0123110Y0114593D01*
X0124490Y0114593D01*
X0125765Y0115121D01*
X0126741Y0116097D01*
X0127269Y0117372D01*
X0127269Y0118752D01*
X0126741Y0120027D01*
X0125765Y0121003D01*
X0124490Y0121531D01*
X0123110Y0121531D01*
X0121835Y0121003D01*
X0120859Y0120027D01*
X0120840Y0119981D01*
X0118758Y0119981D01*
X0109874Y0128865D01*
X0117074Y0128865D01*
X0117722Y0129513D01*
X0117722Y0138107D01*
X0117074Y0138756D01*
X0108479Y0138756D01*
X0107831Y0138107D01*
X0107831Y0137709D02*
X0002200Y0137709D01*
X0002200Y0137111D02*
X0019097Y0137111D01*
X0018498Y0136512D02*
X0002200Y0136512D01*
X0002200Y0135914D02*
X0017900Y0135914D01*
X0017301Y0135315D02*
X0002200Y0135315D01*
X0002200Y0134717D02*
X0016703Y0134717D01*
X0016104Y0134118D02*
X0002200Y0134118D01*
X0002200Y0133520D02*
X0008980Y0133520D01*
X0009241Y0133781D02*
X0008593Y0133133D01*
X0008593Y0129015D01*
X0009241Y0128367D01*
X0013359Y0128367D01*
X0014007Y0129015D01*
X0014007Y0133133D01*
X0013359Y0133781D01*
X0009241Y0133781D01*
X0008593Y0132921D02*
X0002200Y0132921D01*
X0002200Y0132323D02*
X0008593Y0132323D01*
X0008593Y0131724D02*
X0002200Y0131724D01*
X0002200Y0131126D02*
X0008593Y0131126D01*
X0008593Y0130527D02*
X0002200Y0130527D01*
X0002200Y0129929D02*
X0008593Y0129929D01*
X0008593Y0129330D02*
X0002200Y0129330D01*
X0002200Y0128732D02*
X0008877Y0128732D01*
X0013723Y0128732D02*
X0014268Y0128732D01*
X0014268Y0129330D02*
X0014007Y0129330D01*
X0014007Y0129929D02*
X0014268Y0129929D01*
X0014268Y0130527D02*
X0014007Y0130527D01*
X0014007Y0131126D02*
X0014268Y0131126D01*
X0014268Y0131724D02*
X0014007Y0131724D01*
X0014007Y0132323D02*
X0014309Y0132323D01*
X0014007Y0132921D02*
X0014907Y0132921D01*
X0015506Y0133520D02*
X0013620Y0133520D01*
X0015675Y0131699D02*
X0015675Y0107324D01*
X0004425Y0096074D01*
X0004425Y0081074D01*
X0011300Y0074199D01*
X0011300Y0073633D01*
X0011300Y0073574D01*
X0009425Y0073574D01*
X0006300Y0070449D01*
X0006300Y0044199D01*
X0009425Y0041074D01*
X0012550Y0037949D01*
X0012550Y0026074D01*
X0012560Y0026074D01*
X0016226Y0025788D02*
X0016374Y0025788D01*
X0016374Y0026386D02*
X0016226Y0026386D01*
X0016226Y0026985D02*
X0016374Y0026985D01*
X0016374Y0027583D02*
X0016226Y0027583D01*
X0016226Y0028182D02*
X0016374Y0028182D01*
X0016374Y0028780D02*
X0016226Y0028780D01*
X0016226Y0029379D02*
X0016374Y0029379D01*
X0016866Y0029977D02*
X0015734Y0029977D01*
X0013957Y0030576D02*
X0020687Y0030576D01*
X0021285Y0031174D02*
X0013957Y0031174D01*
X0013957Y0031773D02*
X0021884Y0031773D01*
X0022482Y0032371D02*
X0013957Y0032371D01*
X0013957Y0032970D02*
X0023081Y0032970D01*
X0023679Y0033568D02*
X0013957Y0033568D01*
X0013957Y0034167D02*
X0024278Y0034167D01*
X0024876Y0034765D02*
X0013957Y0034765D01*
X0013957Y0035364D02*
X0025475Y0035364D01*
X0026073Y0035962D02*
X0013957Y0035962D01*
X0013957Y0036561D02*
X0026672Y0036561D01*
X0027270Y0037159D02*
X0013957Y0037159D01*
X0013957Y0037758D02*
X0027869Y0037758D01*
X0028467Y0038356D02*
X0013957Y0038356D01*
X0013947Y0038955D02*
X0029066Y0038955D01*
X0029665Y0039553D02*
X0014007Y0039553D01*
X0014007Y0040152D02*
X0030263Y0040152D01*
X0030862Y0040750D02*
X0014007Y0040750D01*
X0014007Y0041349D02*
X0030910Y0041349D01*
X0030312Y0041947D02*
X0014007Y0041947D01*
X0014007Y0042546D02*
X0029713Y0042546D01*
X0029115Y0043145D02*
X0013995Y0043145D01*
X0013735Y0043743D02*
X0028516Y0043743D01*
X0027918Y0044342D02*
X0014007Y0044342D01*
X0014031Y0044940D02*
X0027319Y0044940D01*
X0026721Y0045539D02*
X0014629Y0045539D01*
X0015228Y0046137D02*
X0026122Y0046137D01*
X0025524Y0046736D02*
X0015826Y0046736D01*
X0016425Y0047334D02*
X0025518Y0047334D01*
X0025518Y0047933D02*
X0017023Y0047933D01*
X0017622Y0048531D02*
X0025518Y0048531D01*
X0024100Y0049130D02*
X0018221Y0049130D01*
X0018819Y0049728D02*
X0023972Y0049728D01*
X0023972Y0050327D02*
X0019418Y0050327D01*
X0020016Y0050925D02*
X0023972Y0050925D01*
X0023972Y0051524D02*
X0020207Y0051524D01*
X0020207Y0052122D02*
X0023972Y0052122D01*
X0023913Y0052721D02*
X0020207Y0052721D01*
X0020207Y0053319D02*
X0023315Y0053319D01*
X0022716Y0053918D02*
X0020207Y0053918D01*
X0020207Y0054516D02*
X0022118Y0054516D01*
X0021519Y0055115D02*
X0020207Y0055115D01*
X0020207Y0055713D02*
X0021143Y0055713D01*
X0021143Y0056312D02*
X0020207Y0056312D01*
X0020207Y0056910D02*
X0021143Y0056910D01*
X0021143Y0057509D02*
X0020207Y0057509D01*
X0020207Y0058107D02*
X0021143Y0058107D01*
X0021143Y0058706D02*
X0020207Y0058706D01*
X0020207Y0059304D02*
X0021143Y0059304D01*
X0021143Y0059903D02*
X0020207Y0059903D01*
X0020207Y0060501D02*
X0021143Y0060501D01*
X0021143Y0061100D02*
X0020207Y0061100D01*
X0020207Y0061698D02*
X0021143Y0061698D01*
X0021143Y0062297D02*
X0020207Y0062297D01*
X0020207Y0062895D02*
X0021143Y0062895D01*
X0021143Y0063494D02*
X0020207Y0063494D01*
X0020207Y0064092D02*
X0021143Y0064092D01*
X0021143Y0064691D02*
X0020207Y0064691D01*
X0020207Y0065289D02*
X0021143Y0065289D01*
X0021143Y0065888D02*
X0020207Y0065888D01*
X0020207Y0066486D02*
X0021143Y0066486D01*
X0021143Y0067085D02*
X0020207Y0067085D01*
X0020207Y0067683D02*
X0021143Y0067683D01*
X0020736Y0068282D02*
X0020207Y0068282D01*
X0021925Y0070449D02*
X0022550Y0070449D01*
X0022550Y0056074D01*
X0026300Y0052324D01*
X0026851Y0052865D01*
X0026925Y0052324D01*
X0026925Y0047324D01*
X0033175Y0041074D01*
X0033741Y0041074D01*
X0033175Y0041074D02*
X0020050Y0027949D01*
X0020050Y0026074D01*
X0020040Y0026074D01*
X0020050Y0026074D02*
X0020050Y0023574D01*
X0025675Y0017949D01*
X0031300Y0017949D01*
X0031851Y0017865D01*
X0031925Y0017949D01*
X0041300Y0027324D01*
X0046925Y0027324D01*
X0049425Y0024824D01*
X0063800Y0024824D01*
X0068800Y0019824D01*
X0068800Y0028574D01*
X0068859Y0028574D01*
X0068800Y0028574D02*
X0068800Y0043574D01*
X0068859Y0043574D01*
X0069425Y0043574D01*
X0069425Y0045449D01*
X0076300Y0052324D01*
X0076851Y0052865D01*
X0076925Y0052949D01*
X0083800Y0052949D01*
X0085251Y0050925D02*
X0092280Y0050925D01*
X0092280Y0051524D02*
X0085849Y0051524D01*
X0086117Y0052122D02*
X0092280Y0052122D01*
X0092280Y0052721D02*
X0086257Y0052721D01*
X0086257Y0053319D02*
X0092280Y0053319D01*
X0092280Y0053918D02*
X0086058Y0053918D01*
X0085708Y0054516D02*
X0092280Y0054516D01*
X0092280Y0055115D02*
X0084992Y0055115D01*
X0082608Y0055115D02*
X0079730Y0055115D01*
X0079730Y0055713D02*
X0092700Y0055713D01*
X0095749Y0052865D02*
X0096300Y0052949D01*
X0100675Y0052949D01*
X0122550Y0074824D01*
X0144425Y0074824D01*
X0155675Y0086074D01*
X0156300Y0086074D01*
X0158508Y0088631D02*
X0159367Y0088631D01*
X0160321Y0089230D02*
X0126043Y0089230D01*
X0125765Y0089507D02*
X0124490Y0090035D01*
X0123110Y0090035D01*
X0121835Y0089507D01*
X0120859Y0088531D01*
X0120331Y0087256D01*
X0120331Y0087095D01*
X0119893Y0086657D01*
X0099467Y0066231D01*
X0099218Y0066231D01*
X0099218Y0066907D01*
X0098570Y0067555D01*
X0092928Y0067555D01*
X0092280Y0066907D01*
X0092280Y0062052D01*
X0092928Y0061404D01*
X0098570Y0061404D01*
X0099218Y0062052D01*
X0099218Y0063417D01*
X0100633Y0063417D01*
X0121338Y0084122D01*
X0121835Y0083625D01*
X0123110Y0083097D01*
X0124490Y0083097D01*
X0125765Y0083625D01*
X0126741Y0084601D01*
X0127269Y0085876D01*
X0127269Y0087256D01*
X0126741Y0088531D01*
X0125765Y0089507D01*
X0124990Y0089828D02*
X0160321Y0089828D01*
X0160321Y0090427D02*
X0116393Y0090427D01*
X0116991Y0091025D02*
X0122978Y0091025D01*
X0123110Y0090971D02*
X0124490Y0090971D01*
X0125765Y0091499D01*
X0126741Y0092475D01*
X0127269Y0093750D01*
X0127269Y0095130D01*
X0126741Y0096405D01*
X0126605Y0096542D01*
X0148133Y0096542D01*
X0154958Y0103367D01*
X0158359Y0103367D01*
X0159007Y0104015D01*
X0159007Y0108133D01*
X0158359Y0108781D01*
X0154241Y0108781D01*
X0153593Y0108133D01*
X0153593Y0105982D01*
X0146967Y0099356D01*
X0125724Y0099356D01*
X0125765Y0099373D01*
X0126741Y0100349D01*
X0127269Y0101624D01*
X0127269Y0103004D01*
X0126741Y0104279D01*
X0125765Y0105255D01*
X0125677Y0105292D01*
X0136883Y0105292D01*
X0154958Y0123367D01*
X0158359Y0123367D01*
X0159007Y0124015D01*
X0159007Y0128133D01*
X0158359Y0128781D01*
X0154241Y0128781D01*
X0153593Y0128133D01*
X0153593Y0125982D01*
X0135717Y0108106D01*
X0126624Y0108106D01*
X0126741Y0108223D01*
X0127269Y0109498D01*
X0127269Y0110878D01*
X0126741Y0112153D01*
X0125765Y0113129D01*
X0124490Y0113657D01*
X0123110Y0113657D01*
X0121835Y0113129D01*
X0121535Y0112829D01*
X0110008Y0124356D01*
X0094383Y0124356D01*
X0090007Y0128732D01*
X0090007Y0129688D01*
X0089633Y0130591D01*
X0088942Y0131282D01*
X0088039Y0131656D01*
X0087061Y0131656D01*
X0086158Y0131282D01*
X0085467Y0130591D01*
X0085093Y0129688D01*
X0085093Y0128710D01*
X0085467Y0127807D01*
X0086158Y0127116D01*
X0087061Y0126742D01*
X0088017Y0126742D01*
X0092393Y0122366D01*
X0093217Y0121542D01*
X0108842Y0121542D01*
X0111653Y0118731D01*
X0099218Y0118731D01*
X0099218Y0120292D01*
X0098570Y0120941D01*
X0092928Y0120941D01*
X0092280Y0120292D01*
X0092280Y0115438D01*
X0092928Y0114790D01*
X0098570Y0114790D01*
X0099218Y0115438D01*
X0099218Y0115917D01*
X0110717Y0115917D01*
X0120518Y0106116D01*
X0121342Y0105292D01*
X0121923Y0105292D01*
X0121835Y0105255D01*
X0120859Y0104279D01*
X0120331Y0103004D01*
X0120331Y0101624D01*
X0120376Y0101515D01*
X0117592Y0098731D01*
X0099218Y0098731D01*
X0099218Y0099407D01*
X0098570Y0100055D01*
X0092928Y0100055D01*
X0092280Y0099407D01*
X0092280Y0094552D01*
X0092928Y0093904D01*
X0098570Y0093904D01*
X0099218Y0094552D01*
X0099218Y0095917D01*
X0117903Y0095917D01*
X0108842Y0086856D01*
X0099218Y0086856D01*
X0099218Y0087792D01*
X0098570Y0088441D01*
X0092928Y0088441D01*
X0092280Y0087792D01*
X0092280Y0082938D01*
X0092928Y0082290D01*
X0098570Y0082290D01*
X0099218Y0082938D01*
X0099218Y0084042D01*
X0110008Y0084042D01*
X0120331Y0094365D01*
X0120331Y0093750D01*
X0120859Y0092475D01*
X0121835Y0091499D01*
X0123110Y0090971D01*
X0122610Y0089828D02*
X0115794Y0089828D01*
X0115196Y0089230D02*
X0121557Y0089230D01*
X0120959Y0088631D02*
X0114597Y0088631D01*
X0113999Y0088033D02*
X0120652Y0088033D01*
X0120404Y0087434D02*
X0113400Y0087434D01*
X0112802Y0086836D02*
X0120072Y0086836D01*
X0119473Y0086237D02*
X0112203Y0086237D01*
X0111605Y0085639D02*
X0118875Y0085639D01*
X0118276Y0085040D02*
X0111006Y0085040D01*
X0110408Y0084442D02*
X0117678Y0084442D01*
X0117079Y0083843D02*
X0099218Y0083843D01*
X0099218Y0083245D02*
X0116481Y0083245D01*
X0115882Y0082646D02*
X0098926Y0082646D01*
X0096300Y0085449D02*
X0095749Y0085365D01*
X0096300Y0085449D02*
X0109425Y0085449D01*
X0121925Y0097949D01*
X0147550Y0097949D01*
X0155675Y0106074D01*
X0156300Y0106074D01*
X0159007Y0105988D02*
X0160321Y0105988D01*
X0160321Y0105390D02*
X0159007Y0105390D01*
X0159007Y0104791D02*
X0160321Y0104791D01*
X0160321Y0104193D02*
X0159007Y0104193D01*
X0158586Y0103594D02*
X0160321Y0103594D01*
X0160321Y0102996D02*
X0154587Y0102996D01*
X0153988Y0102397D02*
X0160321Y0102397D01*
X0160321Y0101799D02*
X0153389Y0101799D01*
X0152791Y0101200D02*
X0160321Y0101200D01*
X0160321Y0100602D02*
X0152192Y0100602D01*
X0151594Y0100003D02*
X0160321Y0100003D01*
X0160321Y0099405D02*
X0150995Y0099405D01*
X0150397Y0098806D02*
X0160321Y0098806D01*
X0160321Y0098208D02*
X0158932Y0098208D01*
X0159007Y0098133D02*
X0158359Y0098781D01*
X0154241Y0098781D01*
X0153593Y0098133D01*
X0153593Y0094015D01*
X0154241Y0093367D01*
X0158359Y0093367D01*
X0159007Y0094015D01*
X0159007Y0098133D01*
X0159007Y0097609D02*
X0160321Y0097609D01*
X0160321Y0097011D02*
X0159007Y0097011D01*
X0159007Y0096412D02*
X0160321Y0096412D01*
X0160321Y0095813D02*
X0159007Y0095813D01*
X0159007Y0095215D02*
X0160321Y0095215D01*
X0160321Y0094616D02*
X0159007Y0094616D01*
X0159007Y0094018D02*
X0160321Y0094018D01*
X0160321Y0093419D02*
X0158411Y0093419D01*
X0160321Y0092821D02*
X0126884Y0092821D01*
X0127132Y0093419D02*
X0154189Y0093419D01*
X0153593Y0094018D02*
X0127269Y0094018D01*
X0127269Y0094616D02*
X0153593Y0094616D01*
X0153593Y0095215D02*
X0127234Y0095215D01*
X0126986Y0095813D02*
X0153593Y0095813D01*
X0153593Y0096412D02*
X0126734Y0096412D01*
X0125797Y0099405D02*
X0147016Y0099405D01*
X0147614Y0100003D02*
X0126395Y0100003D01*
X0126846Y0100602D02*
X0148213Y0100602D01*
X0148811Y0101200D02*
X0127094Y0101200D01*
X0127269Y0101799D02*
X0149410Y0101799D01*
X0150008Y0102397D02*
X0127269Y0102397D01*
X0127269Y0102996D02*
X0150607Y0102996D01*
X0151205Y0103594D02*
X0127025Y0103594D01*
X0126777Y0104193D02*
X0151804Y0104193D01*
X0152402Y0104791D02*
X0126229Y0104791D01*
X0123800Y0102314D02*
X0123800Y0101699D01*
X0122550Y0101699D01*
X0118175Y0097324D01*
X0096300Y0097324D01*
X0095749Y0096980D01*
X0092280Y0097011D02*
X0079730Y0097011D01*
X0079730Y0097609D02*
X0092280Y0097609D01*
X0092280Y0098208D02*
X0079730Y0098208D01*
X0079730Y0098806D02*
X0092280Y0098806D01*
X0092280Y0099405D02*
X0079730Y0099405D01*
X0079730Y0100003D02*
X0092876Y0100003D01*
X0092280Y0096412D02*
X0079730Y0096412D01*
X0079730Y0095813D02*
X0092280Y0095813D01*
X0092280Y0095215D02*
X0079730Y0095215D01*
X0079730Y0094616D02*
X0092280Y0094616D01*
X0092814Y0094018D02*
X0079730Y0094018D01*
X0079730Y0093419D02*
X0115406Y0093419D01*
X0116004Y0094018D02*
X0098684Y0094018D01*
X0099218Y0094616D02*
X0116603Y0094616D01*
X0117201Y0095215D02*
X0099218Y0095215D01*
X0099218Y0095813D02*
X0117800Y0095813D01*
X0119984Y0094018D02*
X0120331Y0094018D01*
X0120468Y0093419D02*
X0119385Y0093419D01*
X0118787Y0092821D02*
X0120716Y0092821D01*
X0121111Y0092222D02*
X0118188Y0092222D01*
X0117590Y0091624D02*
X0121710Y0091624D01*
X0124622Y0091025D02*
X0160321Y0091025D01*
X0160321Y0091624D02*
X0125890Y0091624D01*
X0126489Y0092222D02*
X0160321Y0092222D01*
X0160050Y0087324D02*
X0160050Y0081699D01*
X0156300Y0077949D01*
X0156300Y0076074D01*
X0150257Y0082646D02*
X0119862Y0082646D01*
X0119264Y0082048D02*
X0122835Y0082048D01*
X0122753Y0083245D02*
X0120461Y0083245D01*
X0121059Y0083843D02*
X0121617Y0083843D01*
X0121300Y0086074D02*
X0123800Y0086074D01*
X0123800Y0086566D01*
X0126641Y0088631D02*
X0154092Y0088631D01*
X0153593Y0088033D02*
X0126948Y0088033D01*
X0127196Y0087434D02*
X0153593Y0087434D01*
X0153593Y0086836D02*
X0127269Y0086836D01*
X0127269Y0086237D02*
X0153593Y0086237D01*
X0153250Y0085639D02*
X0127171Y0085639D01*
X0126923Y0085040D02*
X0152651Y0085040D01*
X0152053Y0084442D02*
X0126582Y0084442D01*
X0125983Y0083843D02*
X0151454Y0083843D01*
X0150856Y0083245D02*
X0124847Y0083245D01*
X0124765Y0082048D02*
X0149659Y0082048D01*
X0149060Y0081449D02*
X0125949Y0081449D01*
X0126548Y0080851D02*
X0148462Y0080851D01*
X0147863Y0080252D02*
X0126909Y0080252D01*
X0127157Y0079654D02*
X0147265Y0079654D01*
X0146666Y0079055D02*
X0127269Y0079055D01*
X0127269Y0078457D02*
X0146068Y0078457D01*
X0145469Y0077858D02*
X0127210Y0077858D01*
X0126962Y0077260D02*
X0144871Y0077260D01*
X0144272Y0076661D02*
X0126675Y0076661D01*
X0121523Y0076063D02*
X0113279Y0076063D01*
X0113877Y0076661D02*
X0120925Y0076661D01*
X0120638Y0077260D02*
X0114476Y0077260D01*
X0115074Y0077858D02*
X0120390Y0077858D01*
X0120331Y0078457D02*
X0115673Y0078457D01*
X0116271Y0079055D02*
X0120331Y0079055D01*
X0120443Y0079654D02*
X0116870Y0079654D01*
X0117468Y0080252D02*
X0120691Y0080252D01*
X0121052Y0080851D02*
X0118067Y0080851D01*
X0118665Y0081449D02*
X0121651Y0081449D01*
X0115284Y0082048D02*
X0079730Y0082048D01*
X0079730Y0082646D02*
X0092572Y0082646D01*
X0092280Y0083245D02*
X0084899Y0083245D01*
X0085669Y0083843D02*
X0092280Y0083843D01*
X0092280Y0084442D02*
X0086042Y0084442D01*
X0086257Y0085040D02*
X0092280Y0085040D01*
X0092280Y0085639D02*
X0086257Y0085639D01*
X0086133Y0086237D02*
X0092280Y0086237D01*
X0092280Y0086836D02*
X0085885Y0086836D01*
X0085290Y0087434D02*
X0092280Y0087434D01*
X0092520Y0088033D02*
X0079730Y0088033D01*
X0079730Y0088631D02*
X0110617Y0088631D01*
X0110019Y0088033D02*
X0098978Y0088033D01*
X0099218Y0087434D02*
X0109420Y0087434D01*
X0111216Y0089230D02*
X0079474Y0089230D01*
X0079730Y0087434D02*
X0082310Y0087434D01*
X0083800Y0085449D02*
X0076925Y0085449D01*
X0076851Y0085365D01*
X0076300Y0085449D01*
X0075675Y0086074D01*
X0068859Y0086074D01*
X0068800Y0086074D01*
X0068800Y0071074D01*
X0068859Y0071074D01*
X0068800Y0071074D02*
X0068800Y0058574D01*
X0068859Y0058574D01*
X0069425Y0058574D01*
X0075050Y0052949D01*
X0076300Y0052949D01*
X0076851Y0052865D01*
X0079730Y0051524D02*
X0081751Y0051524D01*
X0082349Y0050925D02*
X0079730Y0050925D01*
X0079730Y0050327D02*
X0092391Y0050327D01*
X0097498Y0046137D02*
X0072103Y0046137D01*
X0071504Y0045539D02*
X0096900Y0045539D01*
X0096301Y0044940D02*
X0071344Y0044940D01*
X0071344Y0044342D02*
X0095703Y0044342D01*
X0095104Y0043743D02*
X0071344Y0043743D01*
X0071344Y0043145D02*
X0094893Y0043145D01*
X0094893Y0042546D02*
X0071344Y0042546D01*
X0071344Y0041947D02*
X0092506Y0041947D01*
X0091850Y0041349D02*
X0071344Y0041349D01*
X0072466Y0040750D02*
X0091524Y0040750D01*
X0091343Y0040152D02*
X0073197Y0040152D01*
X0073554Y0039553D02*
X0075262Y0039553D01*
X0074456Y0038955D02*
X0073757Y0038955D01*
X0073757Y0038356D02*
X0074068Y0038356D01*
X0076300Y0037324D02*
X0087550Y0037324D01*
X0089782Y0038356D02*
X0090342Y0038356D01*
X0090941Y0038955D02*
X0089394Y0038955D01*
X0088588Y0039553D02*
X0091343Y0039553D01*
X0093800Y0039824D02*
X0083800Y0029824D01*
X0084811Y0027583D02*
X0089334Y0027583D01*
X0089018Y0026985D02*
X0079730Y0026985D01*
X0079730Y0027583D02*
X0082789Y0027583D01*
X0081967Y0028182D02*
X0079730Y0028182D01*
X0079730Y0028780D02*
X0081573Y0028780D01*
X0081343Y0029379D02*
X0079730Y0029379D01*
X0079730Y0029977D02*
X0081343Y0029977D01*
X0081452Y0030576D02*
X0079730Y0030576D01*
X0079730Y0031174D02*
X0081700Y0031174D01*
X0082274Y0031773D02*
X0079730Y0031773D01*
X0079730Y0032371D02*
X0084357Y0032371D01*
X0084956Y0032970D02*
X0079730Y0032970D01*
X0079249Y0033568D02*
X0085554Y0033568D01*
X0086153Y0034167D02*
X0077697Y0034167D01*
X0077099Y0034765D02*
X0086751Y0034765D01*
X0086035Y0035364D02*
X0077815Y0035364D01*
X0076300Y0033574D02*
X0071300Y0038574D01*
X0071922Y0035962D02*
X0070207Y0035962D01*
X0070207Y0035364D02*
X0072520Y0035364D01*
X0073119Y0034765D02*
X0070207Y0034765D01*
X0070207Y0034167D02*
X0073717Y0034167D01*
X0074316Y0033568D02*
X0070207Y0033568D01*
X0070207Y0032970D02*
X0073972Y0032970D01*
X0073972Y0032371D02*
X0070207Y0032371D01*
X0070207Y0031773D02*
X0073972Y0031773D01*
X0073972Y0031174D02*
X0070974Y0031174D01*
X0071344Y0030576D02*
X0073972Y0030576D01*
X0073972Y0029977D02*
X0071344Y0029977D01*
X0071344Y0029379D02*
X0073972Y0029379D01*
X0073972Y0028780D02*
X0071344Y0028780D01*
X0071344Y0028182D02*
X0073972Y0028182D01*
X0073972Y0027583D02*
X0071344Y0027583D01*
X0071344Y0026985D02*
X0073972Y0026985D01*
X0073972Y0026386D02*
X0071344Y0026386D01*
X0070788Y0025788D02*
X0074056Y0025788D01*
X0074097Y0021598D02*
X0070207Y0021598D01*
X0070207Y0021000D02*
X0073972Y0021000D01*
X0073972Y0020401D02*
X0070207Y0020401D01*
X0070207Y0019803D02*
X0073972Y0019803D01*
X0073972Y0019204D02*
X0070207Y0019204D01*
X0071043Y0018606D02*
X0073972Y0018606D01*
X0073972Y0018007D02*
X0071344Y0018007D01*
X0068800Y0019824D02*
X0068800Y0016074D01*
X0068859Y0016074D01*
X0075050Y0016074D01*
X0076300Y0017324D01*
X0076851Y0017865D01*
X0076925Y0017949D01*
X0083800Y0017949D01*
X0085537Y0016211D02*
X0092280Y0016211D01*
X0092280Y0015613D02*
X0084581Y0015613D01*
X0083019Y0015613D02*
X0079730Y0015613D01*
X0079730Y0016211D02*
X0082063Y0016211D01*
X0079730Y0015014D02*
X0092703Y0015014D01*
X0092280Y0016810D02*
X0085988Y0016810D01*
X0086236Y0017409D02*
X0092280Y0017409D01*
X0092280Y0018007D02*
X0086257Y0018007D01*
X0086188Y0018606D02*
X0092280Y0018606D01*
X0092280Y0019204D02*
X0085940Y0019204D01*
X0085421Y0019803D02*
X0092280Y0019803D01*
X0092388Y0020401D02*
X0084301Y0020401D01*
X0083299Y0020401D02*
X0079730Y0020401D01*
X0079730Y0019803D02*
X0082179Y0019803D01*
X0079730Y0021000D02*
X0097361Y0021000D01*
X0097959Y0021598D02*
X0079605Y0021598D01*
X0079646Y0025788D02*
X0088843Y0025788D01*
X0088843Y0026386D02*
X0079730Y0026386D01*
X0076851Y0029480D02*
X0076300Y0029824D01*
X0076300Y0033574D01*
X0078144Y0038955D02*
X0085706Y0038955D01*
X0086512Y0039553D02*
X0077338Y0039553D01*
X0072701Y0046736D02*
X0098097Y0046736D01*
X0098695Y0047334D02*
X0073300Y0047334D01*
X0073898Y0047933D02*
X0099294Y0047933D01*
X0099892Y0048531D02*
X0074497Y0048531D01*
X0079602Y0049130D02*
X0100491Y0049130D01*
X0101089Y0049728D02*
X0079730Y0049728D01*
X0079730Y0054516D02*
X0081892Y0054516D01*
X0079730Y0056312D02*
X0102048Y0056312D01*
X0102646Y0056910D02*
X0079293Y0056910D01*
X0079081Y0060223D02*
X0074621Y0060223D01*
X0073972Y0060871D01*
X0073972Y0068088D01*
X0074621Y0068736D01*
X0074893Y0068736D01*
X0074893Y0069631D01*
X0074217Y0070307D01*
X0073843Y0071210D01*
X0073843Y0072188D01*
X0074217Y0073091D01*
X0074908Y0073782D01*
X0075811Y0074156D01*
X0076789Y0074156D01*
X0077692Y0073782D01*
X0078383Y0073091D01*
X0078757Y0072188D01*
X0078757Y0071210D01*
X0078383Y0070307D01*
X0077707Y0069631D01*
X0077707Y0068736D01*
X0079081Y0068736D01*
X0079730Y0068088D01*
X0079730Y0060871D01*
X0079081Y0060223D01*
X0079360Y0060501D02*
X0106237Y0060501D01*
X0105639Y0059903D02*
X0071344Y0059903D01*
X0071344Y0060501D02*
X0074342Y0060501D01*
X0073972Y0061100D02*
X0071048Y0061100D01*
X0070207Y0061698D02*
X0073972Y0061698D01*
X0073972Y0062297D02*
X0070207Y0062297D01*
X0070207Y0062895D02*
X0073972Y0062895D01*
X0073972Y0063494D02*
X0070207Y0063494D01*
X0070207Y0064092D02*
X0073972Y0064092D01*
X0073972Y0064691D02*
X0070207Y0064691D01*
X0070207Y0065289D02*
X0073972Y0065289D01*
X0073972Y0065888D02*
X0070207Y0065888D01*
X0070207Y0066486D02*
X0073972Y0066486D01*
X0073972Y0067085D02*
X0070207Y0067085D01*
X0070207Y0067683D02*
X0073972Y0067683D01*
X0074167Y0068282D02*
X0070782Y0068282D01*
X0071344Y0068880D02*
X0074893Y0068880D01*
X0074893Y0069479D02*
X0071344Y0069479D01*
X0071344Y0070078D02*
X0074447Y0070078D01*
X0074064Y0070676D02*
X0071344Y0070676D01*
X0071344Y0071275D02*
X0073843Y0071275D01*
X0073843Y0071873D02*
X0071344Y0071873D01*
X0071344Y0072472D02*
X0073960Y0072472D01*
X0074208Y0073070D02*
X0071344Y0073070D01*
X0070980Y0073669D02*
X0074795Y0073669D01*
X0076300Y0071699D02*
X0076300Y0064824D01*
X0076851Y0064480D01*
X0079730Y0064691D02*
X0092280Y0064691D01*
X0092280Y0065289D02*
X0079730Y0065289D01*
X0079730Y0065888D02*
X0092280Y0065888D01*
X0092280Y0066486D02*
X0079730Y0066486D01*
X0079730Y0067085D02*
X0092458Y0067085D01*
X0092280Y0064092D02*
X0079730Y0064092D01*
X0079730Y0063494D02*
X0092280Y0063494D01*
X0092280Y0062895D02*
X0079730Y0062895D01*
X0079730Y0062297D02*
X0092280Y0062297D01*
X0092634Y0061698D02*
X0079730Y0061698D01*
X0079730Y0061100D02*
X0106836Y0061100D01*
X0107434Y0061698D02*
X0098864Y0061698D01*
X0099218Y0062297D02*
X0108033Y0062297D01*
X0108631Y0062895D02*
X0099218Y0062895D01*
X0100710Y0063494D02*
X0109230Y0063494D01*
X0109828Y0064092D02*
X0101308Y0064092D01*
X0101907Y0064691D02*
X0110427Y0064691D01*
X0111025Y0065289D02*
X0102505Y0065289D01*
X0103104Y0065888D02*
X0111624Y0065888D01*
X0112223Y0066486D02*
X0103702Y0066486D01*
X0104301Y0067085D02*
X0112821Y0067085D01*
X0113420Y0067683D02*
X0104899Y0067683D01*
X0105498Y0068282D02*
X0114018Y0068282D01*
X0114617Y0068880D02*
X0106096Y0068880D01*
X0106695Y0069479D02*
X0115215Y0069479D01*
X0115814Y0070078D02*
X0107293Y0070078D01*
X0107892Y0070676D02*
X0116412Y0070676D01*
X0117011Y0071275D02*
X0108490Y0071275D01*
X0109089Y0071873D02*
X0117609Y0071873D01*
X0118208Y0072472D02*
X0109687Y0072472D01*
X0110286Y0073070D02*
X0118806Y0073070D01*
X0119405Y0073669D02*
X0110884Y0073669D01*
X0111483Y0074267D02*
X0120003Y0074267D01*
X0120602Y0074866D02*
X0112081Y0074866D01*
X0112680Y0075464D02*
X0121200Y0075464D01*
X0123800Y0070818D02*
X0123800Y0070449D01*
X0096300Y0042949D01*
X0096300Y0029824D01*
X0095749Y0029480D01*
X0092280Y0029379D02*
X0086257Y0029379D01*
X0086257Y0029977D02*
X0092280Y0029977D01*
X0092280Y0030576D02*
X0086542Y0030576D01*
X0087140Y0031174D02*
X0092280Y0031174D01*
X0092280Y0031773D02*
X0087739Y0031773D01*
X0088337Y0032371D02*
X0092744Y0032371D01*
X0094893Y0032970D02*
X0088936Y0032970D01*
X0089534Y0033568D02*
X0094893Y0033568D01*
X0094893Y0034167D02*
X0090133Y0034167D01*
X0090731Y0034765D02*
X0094893Y0034765D01*
X0094893Y0035364D02*
X0091330Y0035364D01*
X0091928Y0035962D02*
X0094893Y0035962D01*
X0094893Y0036561D02*
X0092527Y0036561D01*
X0093125Y0037159D02*
X0094893Y0037159D01*
X0092280Y0028780D02*
X0086027Y0028780D01*
X0085633Y0028182D02*
X0089968Y0028182D01*
X0091300Y0026074D02*
X0092550Y0024824D01*
X0099425Y0024824D01*
X0121300Y0046699D01*
X0123800Y0046699D01*
X0123800Y0047196D01*
X0121300Y0042949D02*
X0132550Y0042949D01*
X0145675Y0056074D01*
X0147937Y0055115D02*
X0148394Y0055115D01*
X0148993Y0054516D02*
X0147592Y0054516D01*
X0146890Y0053918D02*
X0149591Y0053918D01*
X0150190Y0053319D02*
X0144910Y0053319D01*
X0144312Y0052721D02*
X0150788Y0052721D01*
X0151387Y0052122D02*
X0143713Y0052122D01*
X0143115Y0051524D02*
X0151985Y0051524D01*
X0152584Y0050925D02*
X0142516Y0050925D01*
X0141918Y0050327D02*
X0153182Y0050327D01*
X0153781Y0049728D02*
X0141319Y0049728D01*
X0140721Y0049130D02*
X0154379Y0049130D01*
X0153991Y0048531D02*
X0140122Y0048531D01*
X0139523Y0047933D02*
X0153593Y0047933D01*
X0153593Y0047334D02*
X0138925Y0047334D01*
X0138326Y0046736D02*
X0153593Y0046736D01*
X0153123Y0046137D02*
X0137728Y0046137D01*
X0137129Y0045539D02*
X0152525Y0045539D01*
X0151926Y0044940D02*
X0136531Y0044940D01*
X0135932Y0044342D02*
X0151328Y0044342D01*
X0150729Y0043743D02*
X0135334Y0043743D01*
X0134735Y0043145D02*
X0150131Y0043145D01*
X0149532Y0042546D02*
X0134137Y0042546D01*
X0133538Y0041947D02*
X0148934Y0041947D01*
X0148335Y0041349D02*
X0126679Y0041349D01*
X0126963Y0040750D02*
X0147737Y0040750D01*
X0147138Y0040152D02*
X0127211Y0040152D01*
X0127269Y0039553D02*
X0146540Y0039553D01*
X0145941Y0038955D02*
X0127269Y0038955D01*
X0127155Y0038356D02*
X0145342Y0038356D01*
X0144744Y0037758D02*
X0126907Y0037758D01*
X0126544Y0037159D02*
X0144145Y0037159D01*
X0143547Y0036561D02*
X0125945Y0036561D01*
X0124755Y0035962D02*
X0142948Y0035962D01*
X0142350Y0035364D02*
X0115705Y0035364D01*
X0116303Y0035962D02*
X0122845Y0035962D01*
X0122743Y0034765D02*
X0115106Y0034765D01*
X0114508Y0034167D02*
X0121612Y0034167D01*
X0121014Y0033568D02*
X0113909Y0033568D01*
X0113311Y0032970D02*
X0120675Y0032970D01*
X0120427Y0032371D02*
X0112712Y0032371D01*
X0112114Y0031773D02*
X0117509Y0031773D01*
X0116910Y0031174D02*
X0111515Y0031174D01*
X0110917Y0030576D02*
X0116312Y0030576D01*
X0115713Y0029977D02*
X0110318Y0029977D01*
X0109720Y0029379D02*
X0115115Y0029379D01*
X0114516Y0028780D02*
X0109121Y0028780D01*
X0108523Y0028182D02*
X0113918Y0028182D01*
X0113319Y0027583D02*
X0107924Y0027583D01*
X0107326Y0026985D02*
X0112721Y0026985D01*
X0112122Y0026386D02*
X0106727Y0026386D01*
X0106129Y0025788D02*
X0111524Y0025788D01*
X0110925Y0025189D02*
X0105530Y0025189D01*
X0104932Y0024591D02*
X0110327Y0024591D01*
X0109728Y0023992D02*
X0104333Y0023992D01*
X0103735Y0023394D02*
X0109130Y0023394D01*
X0108531Y0022795D02*
X0103136Y0022795D01*
X0102537Y0022197D02*
X0107933Y0022197D01*
X0107334Y0021598D02*
X0101939Y0021598D01*
X0101340Y0021000D02*
X0106736Y0021000D01*
X0106137Y0020401D02*
X0100742Y0020401D01*
X0100143Y0019803D02*
X0105539Y0019803D01*
X0104940Y0019204D02*
X0099545Y0019204D01*
X0099218Y0018606D02*
X0104342Y0018606D01*
X0103743Y0018007D02*
X0099218Y0018007D01*
X0099218Y0017409D02*
X0103145Y0017409D01*
X0102546Y0016810D02*
X0099218Y0016810D01*
X0099218Y0016211D02*
X0101948Y0016211D01*
X0101349Y0015613D02*
X0099218Y0015613D01*
X0098794Y0015014D02*
X0100751Y0015014D01*
X0100152Y0014416D02*
X0079730Y0014416D01*
X0079290Y0013817D02*
X0081244Y0013817D01*
X0080595Y0013219D02*
X0070719Y0013219D01*
X0071318Y0013817D02*
X0074412Y0013817D01*
X0073972Y0014416D02*
X0071344Y0014416D01*
X0066999Y0013219D02*
X0065601Y0013219D01*
X0066200Y0013817D02*
X0066400Y0013817D01*
X0066374Y0014416D02*
X0066226Y0014416D01*
X0066226Y0015014D02*
X0066374Y0015014D01*
X0066374Y0015613D02*
X0066226Y0015613D01*
X0066226Y0016211D02*
X0066374Y0016211D01*
X0066374Y0016810D02*
X0066226Y0016810D01*
X0066226Y0017409D02*
X0066374Y0017409D01*
X0066374Y0018007D02*
X0066226Y0018007D01*
X0065925Y0018606D02*
X0066675Y0018606D01*
X0067393Y0019204D02*
X0062035Y0019204D01*
X0061436Y0019803D02*
X0066832Y0019803D01*
X0066233Y0020401D02*
X0060838Y0020401D01*
X0060239Y0021000D02*
X0065635Y0021000D01*
X0065036Y0021598D02*
X0059641Y0021598D01*
X0059382Y0022197D02*
X0064437Y0022197D01*
X0063839Y0022795D02*
X0059382Y0022795D01*
X0059141Y0023394D02*
X0063240Y0023394D01*
X0063741Y0028574D02*
X0063800Y0028574D01*
X0063800Y0030449D01*
X0059425Y0034824D01*
X0059425Y0046074D01*
X0043175Y0029824D01*
X0031925Y0029824D01*
X0031851Y0029480D01*
X0026925Y0031699D02*
X0026925Y0020449D01*
X0024226Y0017409D02*
X0002200Y0017409D01*
X0002200Y0018007D02*
X0023627Y0018007D01*
X0023029Y0018606D02*
X0002200Y0018606D01*
X0002200Y0019204D02*
X0022430Y0019204D01*
X0021832Y0019803D02*
X0002200Y0019803D01*
X0002200Y0020401D02*
X0021233Y0020401D01*
X0020635Y0021000D02*
X0002200Y0021000D01*
X0002200Y0021598D02*
X0020036Y0021598D01*
X0016840Y0022197D02*
X0015760Y0022197D01*
X0016226Y0022795D02*
X0016374Y0022795D01*
X0016374Y0023394D02*
X0016226Y0023394D01*
X0016226Y0023992D02*
X0016374Y0023992D01*
X0016374Y0024591D02*
X0016226Y0024591D01*
X0016226Y0025189D02*
X0016374Y0025189D01*
X0008894Y0025189D02*
X0002200Y0025189D01*
X0002200Y0024591D02*
X0008894Y0024591D01*
X0008894Y0023992D02*
X0002200Y0023992D01*
X0002200Y0023394D02*
X0008894Y0023394D01*
X0008894Y0022795D02*
X0002200Y0022795D01*
X0002200Y0022197D02*
X0009360Y0022197D01*
X0008894Y0025788D02*
X0002200Y0025788D01*
X0002200Y0026386D02*
X0008894Y0026386D01*
X0008894Y0026985D02*
X0002200Y0026985D01*
X0002200Y0027583D02*
X0008894Y0027583D01*
X0008894Y0028182D02*
X0002200Y0028182D01*
X0002200Y0028780D02*
X0008894Y0028780D01*
X0008894Y0029379D02*
X0002200Y0029379D01*
X0002200Y0029977D02*
X0009386Y0029977D01*
X0011143Y0030576D02*
X0002200Y0030576D01*
X0002200Y0031174D02*
X0011143Y0031174D01*
X0011143Y0031773D02*
X0002200Y0031773D01*
X0002200Y0032371D02*
X0011143Y0032371D01*
X0011143Y0032970D02*
X0002200Y0032970D01*
X0002200Y0033568D02*
X0011143Y0033568D01*
X0011143Y0034167D02*
X0002200Y0034167D01*
X0002200Y0034765D02*
X0011143Y0034765D01*
X0011143Y0035364D02*
X0002200Y0035364D01*
X0002200Y0035962D02*
X0011143Y0035962D01*
X0011143Y0036561D02*
X0002200Y0036561D01*
X0002200Y0037159D02*
X0011143Y0037159D01*
X0010751Y0037758D02*
X0002200Y0037758D01*
X0002200Y0038356D02*
X0010153Y0038356D01*
X0008653Y0038955D02*
X0002200Y0038955D01*
X0002200Y0039553D02*
X0008593Y0039553D01*
X0008357Y0040152D02*
X0002200Y0040152D01*
X0002200Y0040750D02*
X0007759Y0040750D01*
X0007160Y0041349D02*
X0002200Y0041349D01*
X0002200Y0041947D02*
X0006562Y0041947D01*
X0005963Y0042546D02*
X0002200Y0042546D01*
X0002200Y0043145D02*
X0005365Y0043145D01*
X0004893Y0043743D02*
X0002200Y0043743D01*
X0002200Y0044342D02*
X0004893Y0044342D01*
X0004893Y0044940D02*
X0002200Y0044940D01*
X0002200Y0045539D02*
X0004893Y0045539D01*
X0004893Y0046137D02*
X0002200Y0046137D01*
X0002200Y0046736D02*
X0004893Y0046736D01*
X0004893Y0047334D02*
X0002200Y0047334D01*
X0002200Y0047933D02*
X0004893Y0047933D01*
X0004893Y0048531D02*
X0002200Y0048531D01*
X0002200Y0049130D02*
X0004893Y0049130D01*
X0004893Y0049728D02*
X0002200Y0049728D01*
X0002200Y0050327D02*
X0004893Y0050327D01*
X0004893Y0050925D02*
X0002200Y0050925D01*
X0002200Y0051524D02*
X0004893Y0051524D01*
X0004893Y0052122D02*
X0002200Y0052122D01*
X0002200Y0052721D02*
X0004893Y0052721D01*
X0004893Y0053319D02*
X0002200Y0053319D01*
X0002200Y0053918D02*
X0004893Y0053918D01*
X0004893Y0054516D02*
X0002200Y0054516D01*
X0002200Y0055115D02*
X0004893Y0055115D01*
X0004893Y0055713D02*
X0002200Y0055713D01*
X0002200Y0056312D02*
X0004893Y0056312D01*
X0004893Y0056910D02*
X0002200Y0056910D01*
X0002200Y0057509D02*
X0004893Y0057509D01*
X0004893Y0058107D02*
X0002200Y0058107D01*
X0002200Y0058706D02*
X0004893Y0058706D01*
X0004893Y0059304D02*
X0002200Y0059304D01*
X0002200Y0059903D02*
X0004893Y0059903D01*
X0004893Y0060501D02*
X0002200Y0060501D01*
X0002200Y0061100D02*
X0004893Y0061100D01*
X0004893Y0061698D02*
X0002200Y0061698D01*
X0002200Y0062297D02*
X0004893Y0062297D01*
X0004893Y0062895D02*
X0002200Y0062895D01*
X0002200Y0063494D02*
X0004893Y0063494D01*
X0004893Y0064092D02*
X0002200Y0064092D01*
X0002200Y0064691D02*
X0004893Y0064691D01*
X0004893Y0065289D02*
X0002200Y0065289D01*
X0002200Y0065888D02*
X0004893Y0065888D01*
X0004893Y0066486D02*
X0002200Y0066486D01*
X0002200Y0067085D02*
X0004893Y0067085D01*
X0004893Y0067683D02*
X0002200Y0067683D01*
X0002200Y0068282D02*
X0004893Y0068282D01*
X0004893Y0068880D02*
X0002200Y0068880D01*
X0002200Y0069479D02*
X0004893Y0069479D01*
X0004893Y0070078D02*
X0002200Y0070078D01*
X0002200Y0070676D02*
X0004893Y0070676D01*
X0005136Y0071275D02*
X0002200Y0071275D01*
X0002200Y0071873D02*
X0005734Y0071873D01*
X0006333Y0072472D02*
X0002200Y0072472D01*
X0002200Y0073070D02*
X0006931Y0073070D01*
X0007530Y0073669D02*
X0002200Y0073669D01*
X0002200Y0074267D02*
X0008128Y0074267D01*
X0008421Y0074866D02*
X0002200Y0074866D01*
X0002200Y0075464D02*
X0008045Y0075464D01*
X0007446Y0076063D02*
X0002200Y0076063D01*
X0002200Y0076661D02*
X0006848Y0076661D01*
X0006249Y0077260D02*
X0002200Y0077260D01*
X0002200Y0077858D02*
X0005651Y0077858D01*
X0005052Y0078457D02*
X0002200Y0078457D01*
X0002200Y0079055D02*
X0004454Y0079055D01*
X0003855Y0079654D02*
X0002200Y0079654D01*
X0002200Y0080252D02*
X0003257Y0080252D01*
X0003018Y0080851D02*
X0002200Y0080851D01*
X0002200Y0081449D02*
X0003018Y0081449D01*
X0003018Y0082048D02*
X0002200Y0082048D01*
X0002200Y0082646D02*
X0003018Y0082646D01*
X0003018Y0083245D02*
X0002200Y0083245D01*
X0002200Y0083843D02*
X0003018Y0083843D01*
X0003018Y0084442D02*
X0002200Y0084442D01*
X0002200Y0085040D02*
X0003018Y0085040D01*
X0003018Y0085639D02*
X0002200Y0085639D01*
X0002200Y0086237D02*
X0003018Y0086237D01*
X0003018Y0086836D02*
X0002200Y0086836D01*
X0002200Y0087434D02*
X0003018Y0087434D01*
X0003018Y0088033D02*
X0002200Y0088033D01*
X0002200Y0088631D02*
X0003018Y0088631D01*
X0003018Y0089230D02*
X0002200Y0089230D01*
X0002200Y0089828D02*
X0003018Y0089828D01*
X0003018Y0090427D02*
X0002200Y0090427D01*
X0002200Y0091025D02*
X0003018Y0091025D01*
X0003018Y0091624D02*
X0002200Y0091624D01*
X0002200Y0092222D02*
X0003018Y0092222D01*
X0003018Y0092821D02*
X0002200Y0092821D01*
X0002200Y0093419D02*
X0003018Y0093419D01*
X0003018Y0094018D02*
X0002200Y0094018D01*
X0002200Y0094616D02*
X0003018Y0094616D01*
X0003018Y0095215D02*
X0002200Y0095215D01*
X0002200Y0095813D02*
X0003018Y0095813D01*
X0003018Y0096412D02*
X0002200Y0096412D01*
X0002200Y0097011D02*
X0003372Y0097011D01*
X0003970Y0097609D02*
X0002200Y0097609D01*
X0002200Y0098208D02*
X0004569Y0098208D01*
X0005167Y0098806D02*
X0002200Y0098806D01*
X0002200Y0099405D02*
X0005766Y0099405D01*
X0006364Y0100003D02*
X0002200Y0100003D01*
X0002200Y0100602D02*
X0006963Y0100602D01*
X0007561Y0101200D02*
X0002200Y0101200D01*
X0002200Y0101799D02*
X0008160Y0101799D01*
X0008758Y0102397D02*
X0002200Y0102397D01*
X0002200Y0102996D02*
X0009357Y0102996D01*
X0009955Y0103594D02*
X0002200Y0103594D01*
X0002200Y0104193D02*
X0010554Y0104193D01*
X0011152Y0104791D02*
X0002200Y0104791D01*
X0002200Y0105390D02*
X0011751Y0105390D01*
X0012349Y0105988D02*
X0002200Y0105988D01*
X0002200Y0106587D02*
X0012948Y0106587D01*
X0013546Y0107185D02*
X0002200Y0107185D01*
X0002200Y0107784D02*
X0014145Y0107784D01*
X0014268Y0108382D02*
X0002200Y0108382D01*
X0002200Y0108981D02*
X0014268Y0108981D01*
X0014268Y0109579D02*
X0002200Y0109579D01*
X0002200Y0110178D02*
X0014268Y0110178D01*
X0014268Y0110776D02*
X0002200Y0110776D01*
X0002200Y0111375D02*
X0014268Y0111375D01*
X0014268Y0111973D02*
X0002200Y0111973D01*
X0002200Y0112572D02*
X0014268Y0112572D01*
X0014268Y0113170D02*
X0002200Y0113170D01*
X0002200Y0113769D02*
X0014268Y0113769D01*
X0014268Y0114367D02*
X0002200Y0114367D01*
X0002200Y0114966D02*
X0014268Y0114966D01*
X0014268Y0115564D02*
X0002200Y0115564D01*
X0002200Y0116163D02*
X0014268Y0116163D01*
X0014268Y0116761D02*
X0002200Y0116761D01*
X0002200Y0117360D02*
X0014268Y0117360D01*
X0014268Y0117958D02*
X0002200Y0117958D01*
X0002200Y0118557D02*
X0014268Y0118557D01*
X0014268Y0119155D02*
X0002200Y0119155D01*
X0002200Y0119754D02*
X0014268Y0119754D01*
X0014268Y0120352D02*
X0002200Y0120352D01*
X0002200Y0120951D02*
X0014268Y0120951D01*
X0014268Y0121549D02*
X0002200Y0121549D01*
X0002200Y0122148D02*
X0014268Y0122148D01*
X0014268Y0122747D02*
X0002200Y0122747D01*
X0002200Y0123345D02*
X0014268Y0123345D01*
X0014268Y0123944D02*
X0002200Y0123944D01*
X0002200Y0124542D02*
X0014268Y0124542D01*
X0014268Y0125141D02*
X0002200Y0125141D01*
X0002200Y0125739D02*
X0014268Y0125739D01*
X0014268Y0126338D02*
X0002200Y0126338D01*
X0002200Y0126936D02*
X0014268Y0126936D01*
X0014268Y0127535D02*
X0002200Y0127535D01*
X0002200Y0128133D02*
X0014268Y0128133D01*
X0015675Y0131699D02*
X0020050Y0136074D01*
X0024425Y0136074D01*
X0029425Y0131074D01*
X0029646Y0131074D01*
X0029425Y0131074D02*
X0029425Y0118574D01*
X0029879Y0118023D01*
X0029425Y0117949D01*
X0028175Y0117949D01*
X0027910Y0118023D01*
X0025942Y0118023D02*
X0025675Y0117949D01*
X0024425Y0117949D01*
X0023973Y0118023D01*
X0024425Y0118574D01*
X0023175Y0119824D01*
X0023175Y0131074D01*
X0022954Y0131074D01*
X0027174Y0135315D02*
X0107831Y0135315D01*
X0107831Y0134717D02*
X0027772Y0134717D01*
X0026575Y0135914D02*
X0107831Y0135914D01*
X0107831Y0136512D02*
X0025977Y0136512D01*
X0025378Y0137111D02*
X0107831Y0137111D01*
X0107831Y0134118D02*
X0049621Y0134118D01*
X0050219Y0133520D02*
X0074404Y0133520D01*
X0073972Y0132921D02*
X0050818Y0132921D01*
X0051416Y0132323D02*
X0073972Y0132323D01*
X0073972Y0131724D02*
X0052015Y0131724D01*
X0051925Y0129824D02*
X0048800Y0132949D01*
X0045675Y0132949D01*
X0041300Y0128574D01*
X0041241Y0128574D01*
X0041300Y0128574D02*
X0041300Y0126699D01*
X0043800Y0124199D01*
X0041494Y0123345D02*
X0030832Y0123345D01*
X0030832Y0122747D02*
X0041778Y0122747D01*
X0042376Y0122148D02*
X0030832Y0122148D01*
X0030832Y0121549D02*
X0044893Y0121549D01*
X0044893Y0120951D02*
X0030832Y0120951D01*
X0030832Y0123944D02*
X0041343Y0123944D01*
X0041343Y0124542D02*
X0030832Y0124542D01*
X0030832Y0125141D02*
X0040869Y0125141D01*
X0039361Y0125739D02*
X0030832Y0125739D01*
X0030832Y0126338D02*
X0038762Y0126338D01*
X0038756Y0126936D02*
X0030832Y0126936D01*
X0030832Y0127535D02*
X0038756Y0127535D01*
X0038756Y0128133D02*
X0032405Y0128133D01*
X0032919Y0128732D02*
X0038756Y0128732D01*
X0038756Y0129330D02*
X0032919Y0129330D01*
X0032919Y0129929D02*
X0038756Y0129929D01*
X0038756Y0130527D02*
X0032919Y0130527D01*
X0032919Y0131126D02*
X0039077Y0131126D01*
X0042460Y0131724D02*
X0032919Y0131724D01*
X0032919Y0132323D02*
X0043059Y0132323D01*
X0043657Y0132921D02*
X0032919Y0132921D01*
X0032900Y0133520D02*
X0044256Y0133520D01*
X0044854Y0134118D02*
X0032302Y0134118D01*
X0046300Y0128574D02*
X0046300Y0121699D01*
X0068800Y0121699D01*
X0068800Y0126074D01*
X0068859Y0126074D01*
X0071344Y0126338D02*
X0073972Y0126338D01*
X0073972Y0126936D02*
X0071344Y0126936D01*
X0071344Y0127535D02*
X0073972Y0127535D01*
X0073972Y0128133D02*
X0071344Y0128133D01*
X0071344Y0125739D02*
X0074105Y0125739D01*
X0071344Y0125141D02*
X0089619Y0125141D01*
X0090217Y0124542D02*
X0071344Y0124542D01*
X0071344Y0123944D02*
X0090816Y0123944D01*
X0091414Y0123345D02*
X0070845Y0123345D01*
X0070207Y0122747D02*
X0092013Y0122747D01*
X0092611Y0122148D02*
X0070207Y0122148D01*
X0070207Y0121549D02*
X0074048Y0121549D01*
X0073972Y0120951D02*
X0070207Y0120951D01*
X0070207Y0120352D02*
X0073972Y0120352D01*
X0073972Y0119754D02*
X0070207Y0119754D01*
X0068800Y0117949D02*
X0076300Y0117949D01*
X0076851Y0117865D01*
X0076925Y0117324D01*
X0083175Y0117324D01*
X0084890Y0115564D02*
X0092280Y0115564D01*
X0092280Y0116163D02*
X0085354Y0116163D01*
X0085601Y0116761D02*
X0092280Y0116761D01*
X0092280Y0117360D02*
X0085632Y0117360D01*
X0085572Y0117958D02*
X0092280Y0117958D01*
X0092280Y0118557D02*
X0085324Y0118557D01*
X0084818Y0119155D02*
X0092280Y0119155D01*
X0092280Y0119754D02*
X0083729Y0119754D01*
X0082621Y0119754D02*
X0079730Y0119754D01*
X0079730Y0120352D02*
X0092340Y0120352D01*
X0093210Y0121549D02*
X0079654Y0121549D01*
X0079730Y0120951D02*
X0109433Y0120951D01*
X0110032Y0120352D02*
X0099158Y0120352D01*
X0099218Y0119754D02*
X0110630Y0119754D01*
X0111229Y0119155D02*
X0099218Y0119155D01*
X0096300Y0117324D02*
X0095749Y0117865D01*
X0096300Y0117324D02*
X0111300Y0117324D01*
X0121925Y0106699D01*
X0136300Y0106699D01*
X0155675Y0126074D01*
X0156300Y0126074D01*
X0159007Y0126338D02*
X0160321Y0126338D01*
X0160321Y0126936D02*
X0159007Y0126936D01*
X0159007Y0127535D02*
X0160321Y0127535D01*
X0160321Y0128133D02*
X0159007Y0128133D01*
X0158408Y0128732D02*
X0160321Y0128732D01*
X0160321Y0129330D02*
X0139586Y0129330D01*
X0139769Y0129513D02*
X0139121Y0128865D01*
X0130526Y0128865D01*
X0129878Y0129513D01*
X0129878Y0138107D01*
X0130526Y0138756D01*
X0139121Y0138756D01*
X0139769Y0138107D01*
X0139769Y0129513D01*
X0139769Y0129929D02*
X0160321Y0129929D01*
X0160321Y0130527D02*
X0139769Y0130527D01*
X0139769Y0131126D02*
X0160321Y0131126D01*
X0160321Y0131724D02*
X0139769Y0131724D01*
X0139769Y0132323D02*
X0160321Y0132323D01*
X0160321Y0132921D02*
X0139769Y0132921D01*
X0139769Y0133520D02*
X0160321Y0133520D01*
X0160321Y0134118D02*
X0139769Y0134118D01*
X0139769Y0134717D02*
X0160321Y0134717D01*
X0160321Y0135315D02*
X0139769Y0135315D01*
X0139769Y0135914D02*
X0160321Y0135914D01*
X0160321Y0136512D02*
X0139769Y0136512D01*
X0139769Y0137111D02*
X0160321Y0137111D01*
X0160321Y0137709D02*
X0139769Y0137709D01*
X0139569Y0138308D02*
X0160321Y0138308D01*
X0154192Y0128732D02*
X0125911Y0128732D01*
X0125765Y0128877D02*
X0124490Y0129405D01*
X0123110Y0129405D01*
X0121835Y0128877D01*
X0120859Y0127901D01*
X0120331Y0126626D01*
X0120331Y0125246D01*
X0120859Y0123971D01*
X0121835Y0122995D01*
X0123110Y0122467D01*
X0124490Y0122467D01*
X0125765Y0122995D01*
X0126741Y0123971D01*
X0127269Y0125246D01*
X0127269Y0126626D01*
X0126741Y0127901D01*
X0125765Y0128877D01*
X0126509Y0128133D02*
X0153593Y0128133D01*
X0153593Y0127535D02*
X0126893Y0127535D01*
X0127141Y0126936D02*
X0153593Y0126936D01*
X0153593Y0126338D02*
X0127269Y0126338D01*
X0127269Y0125739D02*
X0153350Y0125739D01*
X0152752Y0125141D02*
X0127226Y0125141D01*
X0126978Y0124542D02*
X0152153Y0124542D01*
X0151555Y0123944D02*
X0126714Y0123944D01*
X0126115Y0123345D02*
X0150956Y0123345D01*
X0150358Y0122747D02*
X0125165Y0122747D01*
X0125818Y0120951D02*
X0148562Y0120951D01*
X0147964Y0120352D02*
X0126416Y0120352D01*
X0126854Y0119754D02*
X0147365Y0119754D01*
X0146767Y0119155D02*
X0127102Y0119155D01*
X0127269Y0118557D02*
X0146168Y0118557D01*
X0145569Y0117958D02*
X0127269Y0117958D01*
X0127264Y0117360D02*
X0144971Y0117360D01*
X0144372Y0116761D02*
X0127016Y0116761D01*
X0126768Y0116163D02*
X0143774Y0116163D01*
X0143175Y0115564D02*
X0126208Y0115564D01*
X0125390Y0114966D02*
X0142577Y0114966D01*
X0141978Y0114367D02*
X0119997Y0114367D01*
X0120595Y0113769D02*
X0141380Y0113769D01*
X0140781Y0113170D02*
X0125666Y0113170D01*
X0126323Y0112572D02*
X0140183Y0112572D01*
X0139584Y0111973D02*
X0126816Y0111973D01*
X0127064Y0111375D02*
X0138986Y0111375D01*
X0138387Y0110776D02*
X0127269Y0110776D01*
X0127269Y0110178D02*
X0137789Y0110178D01*
X0137190Y0109579D02*
X0127269Y0109579D01*
X0127055Y0108981D02*
X0136592Y0108981D01*
X0135993Y0108382D02*
X0126807Y0108382D01*
X0123800Y0110188D02*
X0123800Y0110449D01*
X0121925Y0110449D01*
X0109425Y0122949D01*
X0093800Y0122949D01*
X0087550Y0129199D01*
X0085740Y0127535D02*
X0079730Y0127535D01*
X0079730Y0128133D02*
X0085332Y0128133D01*
X0085093Y0128732D02*
X0079730Y0128732D01*
X0079730Y0129330D02*
X0085093Y0129330D01*
X0085193Y0129929D02*
X0079730Y0129929D01*
X0079730Y0130527D02*
X0085441Y0130527D01*
X0086002Y0131126D02*
X0079730Y0131126D01*
X0079730Y0131724D02*
X0092280Y0131724D01*
X0092280Y0131126D02*
X0089098Y0131126D01*
X0089659Y0130527D02*
X0092280Y0130527D01*
X0092280Y0129929D02*
X0089907Y0129929D01*
X0090007Y0129330D02*
X0092280Y0129330D01*
X0092280Y0128732D02*
X0090007Y0128732D01*
X0090606Y0128133D02*
X0092280Y0128133D01*
X0092280Y0127535D02*
X0091204Y0127535D01*
X0091803Y0126936D02*
X0092396Y0126936D01*
X0092401Y0126338D02*
X0108422Y0126338D01*
X0109020Y0125739D02*
X0093000Y0125739D01*
X0093598Y0125141D02*
X0109619Y0125141D01*
X0110217Y0124542D02*
X0094197Y0124542D01*
X0089020Y0125739D02*
X0079598Y0125739D01*
X0079730Y0126338D02*
X0088422Y0126338D01*
X0086593Y0126936D02*
X0079730Y0126936D01*
X0076851Y0129480D02*
X0076300Y0129824D01*
X0051925Y0129824D01*
X0046359Y0128574D02*
X0046300Y0128574D01*
X0053800Y0124199D02*
X0058800Y0124199D01*
X0060050Y0125449D01*
X0058800Y0124199D02*
X0061925Y0124199D01*
X0063800Y0126074D01*
X0063741Y0126074D01*
X0068800Y0121699D02*
X0068800Y0117949D01*
X0068800Y0113574D01*
X0068859Y0113574D01*
X0068800Y0113574D02*
X0068800Y0101074D01*
X0068859Y0101074D01*
X0068800Y0101074D02*
X0068800Y0086074D01*
X0071344Y0084442D02*
X0073972Y0084442D01*
X0073972Y0083843D02*
X0071344Y0083843D01*
X0070745Y0083245D02*
X0073972Y0083245D01*
X0073972Y0082646D02*
X0070207Y0082646D01*
X0070207Y0082048D02*
X0073972Y0082048D01*
X0074280Y0081449D02*
X0070207Y0081449D01*
X0070207Y0080851D02*
X0114087Y0080851D01*
X0114685Y0081449D02*
X0079422Y0081449D01*
X0079730Y0083245D02*
X0082701Y0083245D01*
X0081931Y0083843D02*
X0079730Y0083843D01*
X0073972Y0088033D02*
X0071344Y0088033D01*
X0071017Y0088631D02*
X0073972Y0088631D01*
X0074229Y0089230D02*
X0070207Y0089230D01*
X0070207Y0089828D02*
X0111814Y0089828D01*
X0112413Y0090427D02*
X0070207Y0090427D01*
X0070207Y0091025D02*
X0113011Y0091025D01*
X0113610Y0091624D02*
X0070207Y0091624D01*
X0070207Y0092222D02*
X0114209Y0092222D01*
X0114807Y0092821D02*
X0079180Y0092821D01*
X0074523Y0092821D02*
X0070207Y0092821D01*
X0070207Y0093419D02*
X0073972Y0093419D01*
X0073972Y0094018D02*
X0070207Y0094018D01*
X0070207Y0094616D02*
X0073972Y0094616D01*
X0073972Y0095215D02*
X0073254Y0095215D01*
X0073889Y0095813D02*
X0073972Y0095813D01*
X0071925Y0097324D02*
X0076300Y0097324D01*
X0076851Y0096980D01*
X0073972Y0098806D02*
X0073918Y0098806D01*
X0073972Y0099405D02*
X0073319Y0099405D01*
X0073972Y0100003D02*
X0071344Y0100003D01*
X0071344Y0100602D02*
X0073986Y0100602D01*
X0074585Y0101200D02*
X0071344Y0101200D01*
X0071344Y0101799D02*
X0120331Y0101799D01*
X0120331Y0102397D02*
X0071344Y0102397D01*
X0071344Y0102996D02*
X0120331Y0102996D01*
X0120575Y0103594D02*
X0071054Y0103594D01*
X0070207Y0104193D02*
X0120823Y0104193D01*
X0121371Y0104791D02*
X0070207Y0104791D01*
X0070207Y0105390D02*
X0121244Y0105390D01*
X0120646Y0105988D02*
X0070207Y0105988D01*
X0070207Y0106587D02*
X0120047Y0106587D01*
X0119449Y0107185D02*
X0070207Y0107185D01*
X0070207Y0107784D02*
X0118850Y0107784D01*
X0118252Y0108382D02*
X0070207Y0108382D01*
X0070207Y0108981D02*
X0117653Y0108981D01*
X0117055Y0109579D02*
X0070207Y0109579D01*
X0070207Y0110178D02*
X0116456Y0110178D01*
X0115858Y0110776D02*
X0070777Y0110776D01*
X0071344Y0111375D02*
X0115259Y0111375D01*
X0114661Y0111973D02*
X0071344Y0111973D01*
X0071344Y0112572D02*
X0114062Y0112572D01*
X0113464Y0113170D02*
X0071344Y0113170D01*
X0071344Y0113769D02*
X0074461Y0113769D01*
X0073972Y0114367D02*
X0071344Y0114367D01*
X0071344Y0114966D02*
X0073972Y0114966D01*
X0073972Y0115564D02*
X0071344Y0115564D01*
X0070985Y0116163D02*
X0073972Y0116163D01*
X0079242Y0113769D02*
X0112865Y0113769D01*
X0112267Y0114367D02*
X0079730Y0114367D01*
X0079730Y0114966D02*
X0082447Y0114966D01*
X0081460Y0115564D02*
X0079730Y0115564D01*
X0079730Y0119155D02*
X0081532Y0119155D01*
X0083903Y0114966D02*
X0092752Y0114966D01*
X0098746Y0114966D02*
X0111668Y0114966D01*
X0111070Y0115564D02*
X0099218Y0115564D01*
X0110420Y0123944D02*
X0110816Y0123944D01*
X0111019Y0123345D02*
X0111414Y0123345D01*
X0111617Y0122747D02*
X0112013Y0122747D01*
X0112216Y0122148D02*
X0112611Y0122148D01*
X0112814Y0121549D02*
X0113210Y0121549D01*
X0113413Y0120951D02*
X0113808Y0120951D01*
X0114011Y0120352D02*
X0114407Y0120352D01*
X0114610Y0119754D02*
X0115005Y0119754D01*
X0115208Y0119155D02*
X0115604Y0119155D01*
X0115807Y0118557D02*
X0116202Y0118557D01*
X0116405Y0117958D02*
X0116801Y0117958D01*
X0116768Y0117991D02*
X0116768Y0117991D01*
X0117004Y0117360D02*
X0117399Y0117360D01*
X0117603Y0116761D02*
X0120584Y0116761D01*
X0120832Y0116163D02*
X0118201Y0116163D01*
X0118800Y0115564D02*
X0121391Y0115564D01*
X0122210Y0114966D02*
X0119398Y0114966D01*
X0121194Y0113170D02*
X0121934Y0113170D01*
X0123800Y0118062D02*
X0123800Y0118574D01*
X0118175Y0118574D01*
X0107550Y0129199D01*
X0096300Y0129199D01*
X0095749Y0129480D01*
X0099218Y0131126D02*
X0107831Y0131126D01*
X0107831Y0131724D02*
X0099218Y0131724D01*
X0098802Y0132323D02*
X0107831Y0132323D01*
X0107831Y0132921D02*
X0079730Y0132921D01*
X0079730Y0132323D02*
X0092696Y0132323D01*
X0099218Y0127535D02*
X0107225Y0127535D01*
X0107823Y0126936D02*
X0099102Y0126936D01*
X0107831Y0133520D02*
X0079298Y0133520D01*
X0063741Y0113574D02*
X0063175Y0113574D01*
X0060050Y0110449D01*
X0059425Y0110449D01*
X0059425Y0109824D01*
X0059425Y0110449D02*
X0048800Y0110449D01*
X0048186Y0110543D01*
X0048800Y0112324D02*
X0048186Y0112511D01*
X0048800Y0112324D02*
X0050050Y0112324D01*
X0053800Y0116074D01*
X0048800Y0114824D02*
X0048186Y0114480D01*
X0048800Y0114824D02*
X0048800Y0119199D01*
X0046300Y0119824D02*
X0046300Y0121699D01*
X0046300Y0119824D02*
X0044425Y0117949D01*
X0045675Y0117949D01*
X0045627Y0118023D01*
X0044425Y0117949D02*
X0043800Y0117949D01*
X0043658Y0118023D01*
X0043175Y0117949D01*
X0041925Y0117949D01*
X0041690Y0118023D01*
X0041300Y0117949D01*
X0040050Y0117949D01*
X0039721Y0118023D01*
X0037753Y0118023D02*
X0037550Y0117949D01*
X0035675Y0117949D01*
X0035784Y0118023D01*
X0033816Y0118023D02*
X0033800Y0117949D01*
X0031925Y0117949D01*
X0031847Y0118023D01*
X0023973Y0118023D02*
X0023800Y0117949D01*
X0023800Y0116699D01*
X0022550Y0115449D01*
X0020675Y0117324D01*
X0022550Y0115449D02*
X0021925Y0114824D01*
X0021414Y0114480D01*
X0021300Y0114199D01*
X0021300Y0112949D01*
X0021414Y0112511D01*
X0021300Y0112324D01*
X0021300Y0110449D01*
X0021414Y0110543D01*
X0021300Y0110449D02*
X0021300Y0108574D01*
X0021414Y0108574D01*
X0021300Y0106699D02*
X0021414Y0106606D01*
X0021300Y0106699D02*
X0019425Y0106699D01*
X0016925Y0104199D01*
X0016925Y0059824D01*
X0013175Y0056074D01*
X0011300Y0056074D01*
X0008175Y0054199D02*
X0011300Y0051074D01*
X0008175Y0054199D02*
X0008175Y0062949D01*
X0011300Y0066074D01*
X0011300Y0068515D01*
X0018800Y0072949D02*
X0018800Y0051699D01*
X0013175Y0046074D01*
X0011300Y0046074D01*
X0011300Y0041074D02*
X0009425Y0041074D01*
X0026925Y0031699D02*
X0030675Y0035449D01*
X0040050Y0035449D01*
X0045675Y0041074D01*
X0045675Y0052324D01*
X0045749Y0052865D01*
X0038800Y0054199D02*
X0028800Y0064199D01*
X0026925Y0064199D01*
X0026851Y0064480D01*
X0028800Y0064199D02*
X0040050Y0075449D01*
X0040050Y0098574D01*
X0039721Y0099125D01*
X0041690Y0099125D02*
X0041925Y0098574D01*
X0041925Y0068574D01*
X0040675Y0067324D01*
X0040675Y0046074D01*
X0043175Y0043574D01*
X0038859Y0041074D02*
X0038800Y0041074D01*
X0038800Y0054199D01*
X0045749Y0064480D02*
X0046300Y0064199D01*
X0056925Y0053574D01*
X0059425Y0057324D02*
X0059425Y0046074D01*
X0063800Y0046074D02*
X0063800Y0043574D01*
X0063741Y0043574D01*
X0063800Y0046074D02*
X0068800Y0051074D01*
X0062550Y0049199D02*
X0062550Y0059199D01*
X0063741Y0058574D01*
X0063175Y0058574D01*
X0062550Y0059199D01*
X0057550Y0064199D01*
X0057550Y0091074D01*
X0048800Y0099824D01*
X0048800Y0102324D01*
X0048186Y0102669D01*
X0048186Y0104637D02*
X0048800Y0104824D01*
X0050050Y0104824D01*
X0059425Y0095449D01*
X0059425Y0074824D01*
X0063175Y0071074D01*
X0063741Y0071074D01*
X0063800Y0071074D01*
X0063800Y0069199D01*
X0066300Y0066699D01*
X0070207Y0074267D02*
X0107503Y0074267D01*
X0106905Y0073669D02*
X0077805Y0073669D01*
X0078392Y0073070D02*
X0106306Y0073070D01*
X0105708Y0072472D02*
X0078640Y0072472D01*
X0078757Y0071873D02*
X0105109Y0071873D01*
X0104511Y0071275D02*
X0078757Y0071275D01*
X0078536Y0070676D02*
X0103912Y0070676D01*
X0103314Y0070078D02*
X0078153Y0070078D01*
X0077707Y0069479D02*
X0102715Y0069479D01*
X0102117Y0068880D02*
X0077707Y0068880D01*
X0079536Y0068282D02*
X0101518Y0068282D01*
X0100920Y0067683D02*
X0079730Y0067683D01*
X0071344Y0059304D02*
X0105040Y0059304D01*
X0104442Y0058706D02*
X0071344Y0058706D01*
X0071882Y0058107D02*
X0103843Y0058107D01*
X0103245Y0057509D02*
X0072480Y0057509D01*
X0073079Y0056910D02*
X0074409Y0056910D01*
X0073972Y0056312D02*
X0073677Y0056312D01*
X0059425Y0057324D02*
X0043800Y0072949D01*
X0043800Y0098574D01*
X0043658Y0099125D01*
X0045627Y0099125D02*
X0045675Y0098574D01*
X0055050Y0089199D01*
X0063741Y0086074D02*
X0063800Y0086074D01*
X0063800Y0084199D01*
X0066300Y0081699D01*
X0070207Y0080252D02*
X0113488Y0080252D01*
X0112890Y0079654D02*
X0070207Y0079654D01*
X0070207Y0079055D02*
X0112291Y0079055D01*
X0111693Y0078457D02*
X0070207Y0078457D01*
X0070207Y0077858D02*
X0111094Y0077858D01*
X0110496Y0077260D02*
X0070207Y0077260D01*
X0070207Y0076661D02*
X0109897Y0076661D01*
X0109299Y0076063D02*
X0070207Y0076063D01*
X0070207Y0075464D02*
X0108700Y0075464D01*
X0108102Y0074866D02*
X0070207Y0074866D01*
X0063800Y0086074D02*
X0063800Y0093574D01*
X0050675Y0106699D01*
X0048800Y0106699D01*
X0048186Y0106606D01*
X0048186Y0108574D02*
X0055675Y0108574D01*
X0063175Y0101074D01*
X0063741Y0101074D01*
X0063800Y0101074D01*
X0063800Y0099199D01*
X0066300Y0096699D01*
X0070207Y0095215D02*
X0070596Y0095215D01*
X0079118Y0101200D02*
X0120061Y0101200D01*
X0119463Y0100602D02*
X0079716Y0100602D01*
X0098622Y0100003D02*
X0118864Y0100003D01*
X0118266Y0099405D02*
X0099218Y0099405D01*
X0099218Y0098806D02*
X0117667Y0098806D01*
X0121300Y0086074D02*
X0100050Y0064824D01*
X0096300Y0064824D01*
X0095749Y0064480D01*
X0099218Y0066486D02*
X0099723Y0066486D01*
X0100321Y0067085D02*
X0099040Y0067085D01*
X0107823Y0058107D02*
X0109468Y0058107D01*
X0108870Y0057509D02*
X0107225Y0057509D01*
X0106626Y0056910D02*
X0108271Y0056910D01*
X0107673Y0056312D02*
X0106028Y0056312D01*
X0105429Y0055713D02*
X0107074Y0055713D01*
X0106476Y0055115D02*
X0104831Y0055115D01*
X0104232Y0054516D02*
X0105877Y0054516D01*
X0105279Y0053918D02*
X0103634Y0053918D01*
X0103035Y0053319D02*
X0104680Y0053319D01*
X0104082Y0052721D02*
X0102437Y0052721D01*
X0101838Y0052122D02*
X0103483Y0052122D01*
X0102885Y0051524D02*
X0099218Y0051524D01*
X0099218Y0050925D02*
X0102286Y0050925D01*
X0101688Y0050327D02*
X0099106Y0050327D01*
X0099218Y0054516D02*
X0100252Y0054516D01*
X0100851Y0055115D02*
X0099218Y0055115D01*
X0098797Y0055713D02*
X0101449Y0055713D01*
X0108422Y0058706D02*
X0110067Y0058706D01*
X0110665Y0059304D02*
X0109020Y0059304D01*
X0109619Y0059903D02*
X0111264Y0059903D01*
X0111862Y0060501D02*
X0110217Y0060501D01*
X0110816Y0061100D02*
X0112461Y0061100D01*
X0113059Y0061698D02*
X0111414Y0061698D01*
X0112013Y0062297D02*
X0113658Y0062297D01*
X0114256Y0062895D02*
X0112611Y0062895D01*
X0113210Y0063494D02*
X0114855Y0063494D01*
X0115453Y0064092D02*
X0113808Y0064092D01*
X0114407Y0064691D02*
X0116052Y0064691D01*
X0116651Y0065289D02*
X0115005Y0065289D01*
X0115604Y0065888D02*
X0117249Y0065888D01*
X0117848Y0066486D02*
X0116202Y0066486D01*
X0116801Y0067085D02*
X0118446Y0067085D01*
X0119045Y0067683D02*
X0117399Y0067683D01*
X0117998Y0068282D02*
X0119643Y0068282D01*
X0120242Y0068880D02*
X0118596Y0068880D01*
X0119195Y0069479D02*
X0120600Y0069479D01*
X0120352Y0070078D02*
X0119793Y0070078D01*
X0135675Y0069824D02*
X0156300Y0049199D01*
X0158175Y0049199D01*
X0160050Y0047324D01*
X0160050Y0021699D01*
X0156300Y0017949D01*
X0156300Y0016074D01*
X0151925Y0022949D02*
X0151925Y0031074D01*
X0156300Y0035449D01*
X0156300Y0036074D01*
X0156300Y0046074D02*
X0155050Y0046074D01*
X0118175Y0009199D01*
X0063800Y0009199D01*
X0055675Y0017324D01*
X0051300Y0017324D01*
X0050749Y0017865D01*
X0047280Y0018007D02*
X0044482Y0018007D01*
X0045080Y0017409D02*
X0047280Y0017409D01*
X0047280Y0016810D02*
X0045679Y0016810D01*
X0046277Y0016211D02*
X0047280Y0016211D01*
X0047280Y0015613D02*
X0046876Y0015613D01*
X0047474Y0015014D02*
X0047703Y0015014D01*
X0048073Y0014416D02*
X0056593Y0014416D01*
X0055995Y0015014D02*
X0053794Y0015014D01*
X0054218Y0015613D02*
X0055396Y0015613D01*
X0057192Y0013817D02*
X0048671Y0013817D01*
X0049270Y0013219D02*
X0057790Y0013219D01*
X0058389Y0012620D02*
X0049868Y0012620D01*
X0050467Y0012022D02*
X0058987Y0012022D01*
X0059586Y0011423D02*
X0051066Y0011423D01*
X0051664Y0010825D02*
X0060184Y0010825D01*
X0060783Y0010226D02*
X0052263Y0010226D01*
X0049480Y0009029D02*
X0002200Y0009029D01*
X0002200Y0008431D02*
X0050078Y0008431D01*
X0050677Y0007832D02*
X0002200Y0007832D01*
X0002200Y0007234D02*
X0051275Y0007234D01*
X0051925Y0008574D02*
X0061925Y0008574D01*
X0063175Y0007324D01*
X0136300Y0007324D01*
X0151925Y0022949D01*
X0141153Y0034167D02*
X0125988Y0034167D01*
X0126586Y0033568D02*
X0140554Y0033568D01*
X0139956Y0032970D02*
X0126925Y0032970D01*
X0127173Y0032371D02*
X0139357Y0032371D01*
X0138759Y0031773D02*
X0127269Y0031773D01*
X0127269Y0031174D02*
X0138160Y0031174D01*
X0137562Y0030576D02*
X0127194Y0030576D01*
X0126946Y0029977D02*
X0136963Y0029977D01*
X0136365Y0029379D02*
X0126637Y0029379D01*
X0126039Y0028780D02*
X0135766Y0028780D01*
X0135168Y0028182D02*
X0124980Y0028182D01*
X0126621Y0027043D02*
X0120979Y0027043D01*
X0120331Y0026395D01*
X0120331Y0020753D01*
X0120979Y0020105D01*
X0126621Y0020105D01*
X0127269Y0020753D01*
X0127269Y0026395D01*
X0126621Y0027043D01*
X0126679Y0026985D02*
X0133971Y0026985D01*
X0134569Y0027583D02*
X0117299Y0027583D01*
X0116701Y0026985D02*
X0120921Y0026985D01*
X0120331Y0026386D02*
X0116102Y0026386D01*
X0115504Y0025788D02*
X0120331Y0025788D01*
X0120331Y0025189D02*
X0114905Y0025189D01*
X0114307Y0024591D02*
X0120331Y0024591D01*
X0120331Y0023992D02*
X0113708Y0023992D01*
X0113110Y0023394D02*
X0120331Y0023394D01*
X0120331Y0022795D02*
X0112511Y0022795D01*
X0111912Y0022197D02*
X0120331Y0022197D01*
X0120331Y0021598D02*
X0111314Y0021598D01*
X0110715Y0021000D02*
X0120331Y0021000D01*
X0120683Y0020401D02*
X0117318Y0020401D01*
X0117722Y0019803D02*
X0126789Y0019803D01*
X0126917Y0020401D02*
X0127387Y0020401D01*
X0127269Y0021000D02*
X0127986Y0021000D01*
X0128584Y0021598D02*
X0127269Y0021598D01*
X0127269Y0022197D02*
X0129183Y0022197D01*
X0129781Y0022795D02*
X0127269Y0022795D01*
X0127269Y0023394D02*
X0130380Y0023394D01*
X0130978Y0023992D02*
X0127269Y0023992D01*
X0127269Y0024591D02*
X0131577Y0024591D01*
X0132175Y0025189D02*
X0127269Y0025189D01*
X0127269Y0025788D02*
X0132774Y0025788D01*
X0133372Y0026386D02*
X0127269Y0026386D01*
X0122620Y0028182D02*
X0117898Y0028182D01*
X0118496Y0028780D02*
X0121561Y0028780D01*
X0123175Y0030449D02*
X0123800Y0031074D01*
X0123800Y0031448D01*
X0123175Y0030449D02*
X0118175Y0030449D01*
X0099425Y0011699D01*
X0082550Y0011699D01*
X0084505Y0013219D02*
X0098955Y0013219D01*
X0099554Y0013817D02*
X0083856Y0013817D01*
X0080272Y0012620D02*
X0062368Y0012620D01*
X0061881Y0013219D02*
X0061770Y0013219D01*
X0061282Y0013817D02*
X0061171Y0013817D01*
X0061256Y0014416D02*
X0060573Y0014416D01*
X0059974Y0015014D02*
X0061256Y0015014D01*
X0061256Y0015613D02*
X0059376Y0015613D01*
X0058777Y0016211D02*
X0061048Y0016211D01*
X0060449Y0016810D02*
X0058179Y0016810D01*
X0057580Y0017409D02*
X0059851Y0017409D01*
X0059252Y0018007D02*
X0056982Y0018007D01*
X0056383Y0018606D02*
X0058654Y0018606D01*
X0058055Y0019204D02*
X0054218Y0019204D01*
X0054218Y0019803D02*
X0057457Y0019803D01*
X0055373Y0020401D02*
X0054109Y0020401D01*
X0054814Y0021000D02*
X0036965Y0021000D01*
X0036367Y0020401D02*
X0047388Y0020401D01*
X0047280Y0019803D02*
X0035768Y0019803D01*
X0035170Y0019204D02*
X0037205Y0019204D01*
X0036671Y0018606D02*
X0034730Y0018606D01*
X0034730Y0018007D02*
X0036423Y0018007D01*
X0036343Y0017409D02*
X0034730Y0017409D01*
X0034730Y0016810D02*
X0036353Y0016810D01*
X0036601Y0016211D02*
X0034730Y0016211D01*
X0034730Y0015613D02*
X0037036Y0015613D01*
X0037955Y0015014D02*
X0034730Y0015014D01*
X0034730Y0014416D02*
X0044093Y0014416D01*
X0043495Y0015014D02*
X0039645Y0015014D01*
X0040564Y0015613D02*
X0042896Y0015613D01*
X0044692Y0013817D02*
X0034290Y0013817D01*
X0029412Y0013817D02*
X0002200Y0013817D01*
X0002200Y0013219D02*
X0045290Y0013219D01*
X0045889Y0012620D02*
X0002200Y0012620D01*
X0002200Y0012022D02*
X0046487Y0012022D01*
X0047086Y0011423D02*
X0002200Y0011423D01*
X0002200Y0010825D02*
X0047684Y0010825D01*
X0048283Y0010226D02*
X0002200Y0010226D01*
X0002200Y0009628D02*
X0048881Y0009628D01*
X0051925Y0008574D02*
X0043175Y0017324D01*
X0038800Y0017324D01*
X0040395Y0019204D02*
X0047280Y0019204D01*
X0047280Y0018606D02*
X0043883Y0018606D01*
X0038761Y0022795D02*
X0054468Y0022795D01*
X0054468Y0022197D02*
X0038163Y0022197D01*
X0037564Y0021598D02*
X0054566Y0021598D01*
X0054709Y0023394D02*
X0039360Y0023394D01*
X0039958Y0023992D02*
X0048267Y0023992D01*
X0047668Y0024591D02*
X0040557Y0024591D01*
X0042567Y0025189D02*
X0047070Y0025189D01*
X0046471Y0025788D02*
X0043238Y0025788D01*
X0050749Y0029480D02*
X0051300Y0029824D01*
X0060050Y0029824D01*
X0056925Y0022324D02*
X0063175Y0016074D01*
X0063741Y0016074D01*
X0062967Y0012022D02*
X0080093Y0012022D01*
X0080093Y0011423D02*
X0063566Y0011423D01*
X0064164Y0010825D02*
X0080253Y0010825D01*
X0070207Y0022197D02*
X0098558Y0022197D01*
X0099156Y0022795D02*
X0070207Y0022795D01*
X0070207Y0023394D02*
X0099755Y0023394D01*
X0096300Y0017949D02*
X0095749Y0017865D01*
X0096300Y0017949D02*
X0121300Y0042949D01*
X0120331Y0039553D02*
X0119894Y0039553D01*
X0120331Y0038955D02*
X0119296Y0038955D01*
X0118697Y0038356D02*
X0120445Y0038356D01*
X0120693Y0037758D02*
X0118099Y0037758D01*
X0117500Y0037159D02*
X0121056Y0037159D01*
X0121655Y0036561D02*
X0116902Y0036561D01*
X0124857Y0034765D02*
X0141751Y0034765D01*
X0126190Y0019204D02*
X0117722Y0019204D01*
X0117722Y0018606D02*
X0125592Y0018606D01*
X0124993Y0018007D02*
X0117722Y0018007D01*
X0117722Y0017409D02*
X0124395Y0017409D01*
X0123796Y0016810D02*
X0117722Y0016810D01*
X0117722Y0016211D02*
X0123198Y0016211D01*
X0122599Y0015613D02*
X0117722Y0015613D01*
X0117722Y0015014D02*
X0122001Y0015014D01*
X0121402Y0014416D02*
X0117722Y0014416D01*
X0117722Y0013817D02*
X0120804Y0013817D01*
X0120205Y0013219D02*
X0117722Y0013219D01*
X0117722Y0012620D02*
X0119606Y0012620D01*
X0119008Y0012022D02*
X0117722Y0012022D01*
X0117722Y0011423D02*
X0118409Y0011423D01*
X0117811Y0010825D02*
X0117144Y0010825D01*
X0108409Y0010825D02*
X0100541Y0010825D01*
X0101139Y0011423D02*
X0107831Y0011423D01*
X0107831Y0012022D02*
X0101738Y0012022D01*
X0102336Y0012620D02*
X0107831Y0012620D01*
X0107831Y0013219D02*
X0102935Y0013219D01*
X0103533Y0013817D02*
X0107831Y0013817D01*
X0107831Y0014416D02*
X0104132Y0014416D01*
X0104730Y0015014D02*
X0107831Y0015014D01*
X0107831Y0015613D02*
X0105329Y0015613D01*
X0105927Y0016211D02*
X0107831Y0016211D01*
X0107831Y0016810D02*
X0106526Y0016810D01*
X0107124Y0017409D02*
X0107831Y0017409D01*
X0107831Y0018007D02*
X0107723Y0018007D01*
X0089907Y0023992D02*
X0070207Y0023992D01*
X0070207Y0024591D02*
X0089309Y0024591D01*
X0089007Y0025189D02*
X0070207Y0025189D01*
X0028972Y0016211D02*
X0002200Y0016211D01*
X0002200Y0015613D02*
X0028972Y0015613D01*
X0028972Y0015014D02*
X0002200Y0015014D01*
X0002200Y0014416D02*
X0028972Y0014416D01*
X0024824Y0016810D02*
X0002200Y0016810D01*
X0022550Y0070449D02*
X0028175Y0076074D01*
X0028741Y0076074D01*
X0028800Y0076074D01*
X0028800Y0091074D01*
X0031925Y0094199D01*
X0031925Y0095449D01*
X0033800Y0097324D01*
X0033800Y0098574D01*
X0033816Y0099125D01*
X0033800Y0099199D01*
X0035675Y0099199D01*
X0035784Y0099125D01*
X0037550Y0098574D02*
X0037753Y0099125D01*
X0037550Y0098574D02*
X0037550Y0079199D01*
X0035050Y0076699D01*
X0033859Y0076074D01*
X0034425Y0076074D01*
X0035050Y0076699D01*
X0037550Y0076699D01*
X0025675Y0079824D02*
X0018800Y0072949D01*
X0025675Y0079824D02*
X0025675Y0098574D01*
X0025942Y0099125D01*
X0027910Y0099125D02*
X0028175Y0098574D01*
X0028175Y0094199D01*
X0030050Y0097324D02*
X0031925Y0095449D01*
X0030050Y0097324D02*
X0030050Y0098574D01*
X0029879Y0099125D01*
X0023973Y0099125D02*
X0023800Y0098574D01*
X0019425Y0094199D01*
X0023800Y0099199D02*
X0023973Y0099125D01*
X0023800Y0099199D02*
X0023800Y0101074D01*
X0021925Y0102949D01*
X0021414Y0102669D01*
X0021300Y0102949D01*
X0021300Y0104199D01*
X0021414Y0104637D01*
X0011300Y0096074D02*
X0011300Y0086074D01*
X0110007Y0128732D02*
X0121689Y0128732D01*
X0121091Y0128133D02*
X0110606Y0128133D01*
X0111204Y0127535D02*
X0120707Y0127535D01*
X0120459Y0126936D02*
X0111803Y0126936D01*
X0112401Y0126338D02*
X0120331Y0126338D01*
X0120331Y0125739D02*
X0113000Y0125739D01*
X0113598Y0125141D02*
X0120374Y0125141D01*
X0120622Y0124542D02*
X0114197Y0124542D01*
X0114795Y0123944D02*
X0120886Y0123944D01*
X0121485Y0123345D02*
X0115394Y0123345D01*
X0115992Y0122747D02*
X0122435Y0122747D01*
X0121782Y0120951D02*
X0117788Y0120951D01*
X0118386Y0120352D02*
X0121184Y0120352D01*
X0117189Y0121549D02*
X0149161Y0121549D01*
X0149759Y0122148D02*
X0116591Y0122148D01*
X0117539Y0129330D02*
X0122928Y0129330D01*
X0124672Y0129330D02*
X0130061Y0129330D01*
X0129878Y0129929D02*
X0117722Y0129929D01*
X0117722Y0130527D02*
X0129878Y0130527D01*
X0129878Y0131126D02*
X0117722Y0131126D01*
X0117722Y0131724D02*
X0129878Y0131724D01*
X0129878Y0132323D02*
X0117722Y0132323D01*
X0117722Y0132921D02*
X0129878Y0132921D01*
X0129878Y0133520D02*
X0117722Y0133520D01*
X0117722Y0134118D02*
X0129878Y0134118D01*
X0129878Y0134717D02*
X0117722Y0134717D01*
X0117722Y0135315D02*
X0129878Y0135315D01*
X0129878Y0135914D02*
X0117722Y0135914D01*
X0117722Y0136512D02*
X0129878Y0136512D01*
X0129878Y0137111D02*
X0117722Y0137111D01*
X0117722Y0137709D02*
X0129878Y0137709D01*
X0130078Y0138308D02*
X0117522Y0138308D01*
X0145360Y0113769D02*
X0153840Y0113769D01*
X0153593Y0114015D02*
X0154241Y0113367D01*
X0158359Y0113367D01*
X0159007Y0114015D01*
X0159007Y0118133D01*
X0158359Y0118781D01*
X0154241Y0118781D01*
X0153593Y0118133D01*
X0153593Y0114015D01*
X0153593Y0114367D02*
X0145958Y0114367D01*
X0146557Y0114966D02*
X0153593Y0114966D01*
X0153593Y0115564D02*
X0147155Y0115564D01*
X0147754Y0116163D02*
X0153593Y0116163D01*
X0153593Y0116761D02*
X0148352Y0116761D01*
X0148951Y0117360D02*
X0153593Y0117360D01*
X0153593Y0117958D02*
X0149549Y0117958D01*
X0150148Y0118557D02*
X0154017Y0118557D01*
X0151345Y0119754D02*
X0160321Y0119754D01*
X0160321Y0120352D02*
X0151943Y0120352D01*
X0152542Y0120951D02*
X0160321Y0120951D01*
X0160321Y0121549D02*
X0153140Y0121549D01*
X0153739Y0122148D02*
X0160321Y0122148D01*
X0160321Y0122747D02*
X0154337Y0122747D01*
X0154936Y0123345D02*
X0160321Y0123345D01*
X0160321Y0123944D02*
X0158935Y0123944D01*
X0159007Y0124542D02*
X0160321Y0124542D01*
X0160321Y0125141D02*
X0159007Y0125141D01*
X0159007Y0125739D02*
X0160321Y0125739D01*
X0160321Y0119155D02*
X0150746Y0119155D01*
X0158583Y0118557D02*
X0160321Y0118557D01*
X0160321Y0117958D02*
X0159007Y0117958D01*
X0159007Y0117360D02*
X0160321Y0117360D01*
X0160321Y0116761D02*
X0159007Y0116761D01*
X0159007Y0116163D02*
X0160321Y0116163D01*
X0160321Y0115564D02*
X0159007Y0115564D01*
X0159007Y0114966D02*
X0160321Y0114966D01*
X0160321Y0114367D02*
X0159007Y0114367D01*
X0158760Y0113769D02*
X0160321Y0113769D01*
X0160321Y0113170D02*
X0144761Y0113170D01*
X0144163Y0112572D02*
X0160321Y0112572D01*
X0160321Y0111973D02*
X0143564Y0111973D01*
X0142966Y0111375D02*
X0160321Y0111375D01*
X0160321Y0110776D02*
X0142367Y0110776D01*
X0141769Y0110178D02*
X0160321Y0110178D01*
X0160321Y0109579D02*
X0141170Y0109579D01*
X0140572Y0108981D02*
X0160321Y0108981D01*
X0160321Y0108382D02*
X0158757Y0108382D01*
X0159007Y0107784D02*
X0160321Y0107784D01*
X0160321Y0107185D02*
X0159007Y0107185D01*
X0159007Y0106587D02*
X0160321Y0106587D01*
X0153843Y0108382D02*
X0139973Y0108382D01*
X0139375Y0107784D02*
X0153593Y0107784D01*
X0153593Y0107185D02*
X0138776Y0107185D01*
X0138178Y0106587D02*
X0153593Y0106587D01*
X0153593Y0105988D02*
X0137579Y0105988D01*
X0136981Y0105390D02*
X0153001Y0105390D01*
X0153668Y0098208D02*
X0149798Y0098208D01*
X0149200Y0097609D02*
X0153593Y0097609D01*
X0153593Y0097011D02*
X0148601Y0097011D01*
D26*
X0135675Y0069824D03*
X0145675Y0056074D03*
X0093800Y0039824D03*
X0087550Y0037324D03*
X0083800Y0029824D03*
X0091300Y0026074D03*
X0083800Y0017949D03*
X0082550Y0011699D03*
X0060050Y0029824D03*
X0056925Y0022324D03*
X0041300Y0027324D03*
X0038800Y0017324D03*
X0026925Y0020449D03*
X0043175Y0043574D03*
X0056925Y0053574D03*
X0062550Y0049199D03*
X0068800Y0051074D03*
X0071300Y0038574D03*
X0076300Y0037324D03*
X0083800Y0052949D03*
X0066300Y0066699D03*
X0076300Y0071699D03*
X0066300Y0081699D03*
X0055050Y0089199D03*
X0066300Y0096699D03*
X0071925Y0097324D03*
X0083800Y0085449D03*
X0059425Y0109824D03*
X0053800Y0116074D03*
X0048800Y0119199D03*
X0043800Y0124199D03*
X0053800Y0124199D03*
X0060050Y0125449D03*
X0043175Y0134824D03*
X0020675Y0117324D03*
X0019425Y0094199D03*
X0028175Y0094199D03*
X0037550Y0076699D03*
X0021925Y0070449D03*
X0083175Y0117324D03*
X0087550Y0129199D03*
M02*
