%
M48
M72
T01C0.01500
T02C0.02000
T03C0.03150
T04C0.04400
T05C0.05118
%
T01
X37363Y31300
X18613Y49425
X18613Y56300
X21113Y66925
X30488Y76300
X65488Y74425
X67988Y77550
X73613Y77550
X83613Y68175
X74238Y56300
X67988Y57550
X67363Y47550
X83613Y38800
X61113Y31925
X64863Y21300
X61738Y15675
X81113Y6300
X119863Y68175
X66738Y103800
X67988Y126925
X92363Y131300
X109238Y120675
X16738Y109425
T02
X12988Y93800
X12988Y128800
X12988Y58800
X12988Y53800
X12988Y48800
X12988Y43800
X12988Y38800
X157988Y33800
X157988Y23800
X157988Y13800
X157988Y43800
X157988Y53800
X157988Y63800
X157988Y73800
X157988Y83800
X157988Y93800
X157988Y103800
X157988Y113800
X157988Y123800
T03
X125488Y123662
X125488Y115788
X125488Y107914
X125488Y100040
X125488Y92166
X125488Y84292
X125488Y76418
X125488Y68544
X125488Y60670
X125488Y52796
X125488Y44922
X125488Y37048
X125488Y29174
X125488Y21300
T04
X12988Y83800
T05
X114465Y131536
X136512Y131536
X136512Y13426
X114465Y13426
M30
