G75*
%MOIN*%
%OFA0B0*%
%FSLAX25Y25*%
%IPPOS*%
%LPD*%
%AMOC8*
5,1,8,0,0,1.08239X$1,22.5*
%
%ADD10OC8,0.08500*%
%ADD11C,0.05250*%
%ADD12R,0.00787X0.03937*%
%ADD13R,0.03937X0.00787*%
%ADD14R,0.05118X0.05906*%
%ADD15C,0.00600*%
D10*
X0041300Y0061300D03*
D11*
X0028800Y0061300D03*
X0011300Y0061300D03*
X0011300Y0051300D03*
X0011300Y0041300D03*
X0011300Y0031300D03*
X0011300Y0021300D03*
X0061300Y0061300D03*
X0076300Y0061300D03*
X0076300Y0051300D03*
X0076300Y0041300D03*
X0076300Y0031300D03*
X0076300Y0021300D03*
X0076300Y0011300D03*
X0091300Y0011300D03*
X0091300Y0021300D03*
X0091300Y0031300D03*
X0091300Y0041300D03*
X0091300Y0051300D03*
X0091300Y0061300D03*
D12*
X0057127Y0043032D03*
X0055158Y0043032D03*
X0053190Y0043032D03*
X0051221Y0043032D03*
X0049253Y0043032D03*
X0047284Y0043032D03*
X0045316Y0043032D03*
X0043347Y0043032D03*
X0041379Y0043032D03*
X0039410Y0043032D03*
X0037442Y0043032D03*
X0035473Y0043032D03*
X0035473Y0009568D03*
X0037442Y0009568D03*
X0039410Y0009568D03*
X0041379Y0009568D03*
X0043347Y0009568D03*
X0045316Y0009568D03*
X0047284Y0009568D03*
X0049253Y0009568D03*
X0051221Y0009568D03*
X0053190Y0009568D03*
X0055158Y0009568D03*
X0057127Y0009568D03*
D13*
X0063032Y0015473D03*
X0063032Y0017442D03*
X0063032Y0019410D03*
X0063032Y0021379D03*
X0063032Y0023347D03*
X0063032Y0025316D03*
X0063032Y0027284D03*
X0063032Y0029253D03*
X0063032Y0031221D03*
X0063032Y0033190D03*
X0063032Y0035158D03*
X0063032Y0037127D03*
X0029568Y0037127D03*
X0029568Y0035158D03*
X0029568Y0033190D03*
X0029568Y0031221D03*
X0029568Y0029253D03*
X0029568Y0027284D03*
X0029568Y0025316D03*
X0029568Y0023347D03*
X0029568Y0021379D03*
X0029568Y0019410D03*
X0029568Y0017442D03*
X0029568Y0015473D03*
D14*
X0020040Y0011300D03*
X0012560Y0011300D03*
D15*
X0002200Y0002200D02*
X0002200Y0071601D01*
X0100321Y0071601D01*
X0100321Y0070801D01*
X0097525Y0070801D01*
X0097432Y0070708D01*
X0097339Y0070801D01*
X0094574Y0070801D01*
X0094017Y0070244D01*
X0094017Y0068456D01*
X0094574Y0067900D01*
X0095361Y0067900D01*
X0095706Y0068245D01*
X0095802Y0068150D01*
X0096052Y0067900D01*
X0098812Y0067900D01*
X0098905Y0067993D01*
X0098998Y0067900D01*
X0100321Y0067900D01*
X0100321Y0063670D01*
X0100190Y0063801D01*
X0099403Y0063801D01*
X0099185Y0063583D01*
X0098973Y0063795D01*
X0098967Y0063801D01*
X0098578Y0063801D01*
X0098180Y0063801D01*
X0095956Y0063801D01*
X0095400Y0063245D01*
X0095400Y0062458D01*
X0095900Y0061957D01*
X0095900Y0060956D01*
X0096457Y0060400D01*
X0097244Y0060400D01*
X0097337Y0060493D01*
X0097430Y0060400D01*
X0098217Y0060400D01*
X0098560Y0060743D01*
X0098903Y0060400D01*
X0100321Y0060400D01*
X0100321Y0053801D01*
X0099940Y0053801D01*
X0099940Y0053801D01*
X0099801Y0053801D01*
X0099654Y0053801D01*
X0099153Y0053801D01*
X0099060Y0053708D01*
X0098973Y0053795D01*
X0098967Y0053801D01*
X0098578Y0053801D01*
X0098180Y0053801D01*
X0095956Y0053801D01*
X0095400Y0053245D01*
X0095400Y0052458D01*
X0095900Y0051957D01*
X0095900Y0050956D01*
X0096457Y0050400D01*
X0097244Y0050400D01*
X0097337Y0050493D01*
X0097430Y0050400D01*
X0098217Y0050400D01*
X0098685Y0050868D01*
X0099153Y0050400D01*
X0100321Y0050400D01*
X0100321Y0043801D01*
X0098578Y0043801D01*
X0098180Y0043801D01*
X0095956Y0043801D01*
X0095400Y0043245D01*
X0095400Y0042458D01*
X0095900Y0041957D01*
X0095900Y0040956D01*
X0096457Y0040400D01*
X0097244Y0040400D01*
X0097337Y0040493D01*
X0097430Y0040400D01*
X0098217Y0040400D01*
X0098685Y0040868D01*
X0099153Y0040400D01*
X0100321Y0040400D01*
X0100321Y0033801D01*
X0098433Y0033801D01*
X0098180Y0033801D01*
X0095956Y0033801D01*
X0095400Y0033245D01*
X0095400Y0032458D01*
X0095900Y0031957D01*
X0095900Y0030956D01*
X0096457Y0030400D01*
X0097244Y0030400D01*
X0097337Y0030493D01*
X0097430Y0030400D01*
X0098217Y0030400D01*
X0098560Y0030743D01*
X0098903Y0030400D01*
X0099690Y0030400D01*
X0100246Y0030956D01*
X0100246Y0031207D01*
X0100321Y0031281D01*
X0100321Y0023801D01*
X0099940Y0023801D01*
X0099940Y0023801D01*
X0099793Y0023801D01*
X0099654Y0023801D01*
X0099153Y0023801D01*
X0099147Y0023795D01*
X0099060Y0023708D01*
X0098973Y0023795D01*
X0098967Y0023801D01*
X0098578Y0023801D01*
X0098180Y0023801D01*
X0095956Y0023801D01*
X0095400Y0023245D01*
X0095400Y0022458D01*
X0095900Y0021957D01*
X0095900Y0020956D01*
X0096457Y0020400D01*
X0097244Y0020400D01*
X0097337Y0020493D01*
X0097430Y0020400D01*
X0098217Y0020400D01*
X0098685Y0020868D01*
X0099153Y0020400D01*
X0100321Y0020400D01*
X0100321Y0013670D01*
X0100190Y0013801D01*
X0099403Y0013801D01*
X0099185Y0013583D01*
X0098973Y0013795D01*
X0098967Y0013801D01*
X0098578Y0013801D01*
X0098180Y0013801D01*
X0095956Y0013801D01*
X0095400Y0013245D01*
X0095400Y0012458D01*
X0095900Y0011957D01*
X0095900Y0010956D01*
X0096457Y0010400D01*
X0097244Y0010400D01*
X0097337Y0010493D01*
X0097430Y0010400D01*
X0098217Y0010400D01*
X0098560Y0010743D01*
X0098903Y0010400D01*
X0100321Y0010400D01*
X0100321Y0002200D01*
X0002200Y0002200D01*
X0002200Y0002497D02*
X0100321Y0002497D01*
X0100321Y0003096D02*
X0002200Y0003096D01*
X0002200Y0003694D02*
X0100321Y0003694D01*
X0100321Y0004293D02*
X0024575Y0004293D01*
X0024396Y0004114D02*
X0025220Y0004938D01*
X0034367Y0014084D01*
X0034367Y0018768D01*
X0033542Y0019592D01*
X0032712Y0020422D01*
X0032748Y0020483D01*
X0032836Y0020814D01*
X0032836Y0021379D01*
X0032836Y0021944D01*
X0032748Y0022274D01*
X0032629Y0022480D01*
X0032643Y0022495D01*
X0032643Y0024200D01*
X0032511Y0024331D01*
X0032643Y0024463D01*
X0032643Y0026168D01*
X0032511Y0026300D01*
X0032643Y0026432D01*
X0032643Y0028137D01*
X0032629Y0028151D01*
X0032748Y0028357D01*
X0032836Y0028688D01*
X0032836Y0029253D01*
X0032836Y0029818D01*
X0032748Y0030148D01*
X0032629Y0030354D01*
X0032643Y0030369D01*
X0032643Y0032074D01*
X0032511Y0032206D01*
X0032643Y0032337D01*
X0032643Y0034042D01*
X0032511Y0034174D01*
X0032643Y0034306D01*
X0032643Y0036011D01*
X0032511Y0036143D01*
X0032643Y0036274D01*
X0032643Y0037689D01*
X0034367Y0039412D01*
X0035894Y0037884D01*
X0038467Y0037884D01*
X0039291Y0038709D01*
X0040116Y0037884D01*
X0042688Y0037884D01*
X0043513Y0038709D01*
X0044337Y0037884D01*
X0046206Y0037884D01*
X0047030Y0038709D01*
X0047855Y0037884D01*
X0050427Y0037884D01*
X0051252Y0038709D01*
X0055594Y0034367D01*
X0058287Y0034367D01*
X0058287Y0018768D01*
X0053362Y0013843D01*
X0052538Y0014667D01*
X0049965Y0014667D01*
X0048558Y0013260D01*
X0047941Y0012643D01*
X0046432Y0012643D01*
X0046300Y0012511D01*
X0046168Y0012643D01*
X0044463Y0012643D01*
X0044331Y0012511D01*
X0044200Y0012643D01*
X0042495Y0012643D01*
X0042363Y0012511D01*
X0042231Y0012643D01*
X0040526Y0012643D01*
X0040394Y0012511D01*
X0040263Y0012643D01*
X0038558Y0012643D01*
X0038426Y0012511D01*
X0038294Y0012643D01*
X0036589Y0012643D01*
X0036457Y0012511D01*
X0036325Y0012643D01*
X0034621Y0012643D01*
X0033972Y0011995D01*
X0033972Y0007141D01*
X0034621Y0006492D01*
X0036325Y0006492D01*
X0036328Y0006495D01*
X0037181Y0005642D01*
X0038005Y0004818D01*
X0049020Y0004818D01*
X0049844Y0005642D01*
X0050196Y0005994D01*
X0050548Y0005642D01*
X0051372Y0004818D01*
X0071534Y0004818D01*
X0074657Y0007941D01*
X0075558Y0007568D01*
X0077042Y0007568D01*
X0078414Y0008136D01*
X0079464Y0009186D01*
X0080032Y0010558D01*
X0080032Y0012042D01*
X0079464Y0013414D01*
X0078914Y0013964D01*
X0086549Y0013964D01*
X0086712Y0013801D01*
X0086413Y0013801D01*
X0086266Y0013801D01*
X0086127Y0013801D01*
X0085626Y0013801D01*
X0085621Y0013795D01*
X0085408Y0013583D01*
X0085190Y0013801D01*
X0084403Y0013801D01*
X0084185Y0013583D01*
X0083973Y0013795D01*
X0083967Y0013801D01*
X0083578Y0013801D01*
X0083180Y0013801D01*
X0080956Y0013801D01*
X0080400Y0013245D01*
X0080400Y0012458D01*
X0080900Y0011957D01*
X0080900Y0010956D01*
X0081457Y0010400D01*
X0082244Y0010400D01*
X0082337Y0010493D01*
X0082430Y0010400D01*
X0083217Y0010400D01*
X0083560Y0010743D01*
X0083903Y0010400D01*
X0087164Y0010400D01*
X0087568Y0010804D01*
X0087568Y0010558D01*
X0088136Y0009186D01*
X0089186Y0008136D01*
X0090558Y0007568D01*
X0092042Y0007568D01*
X0093414Y0008136D01*
X0094464Y0009186D01*
X0095032Y0010558D01*
X0095032Y0012042D01*
X0094464Y0013414D01*
X0093414Y0014464D01*
X0092042Y0015032D01*
X0090558Y0015032D01*
X0089782Y0014711D01*
X0087715Y0016778D01*
X0066108Y0016778D01*
X0066108Y0018185D01*
X0074137Y0018185D01*
X0074186Y0018136D01*
X0075558Y0017568D01*
X0077042Y0017568D01*
X0078414Y0018136D01*
X0079464Y0019186D01*
X0080032Y0020558D01*
X0080032Y0022042D01*
X0079464Y0023414D01*
X0079065Y0023813D01*
X0086549Y0023813D01*
X0086562Y0023801D01*
X0086413Y0023801D01*
X0086274Y0023801D01*
X0086127Y0023801D01*
X0085626Y0023801D01*
X0085408Y0023583D01*
X0085190Y0023801D01*
X0084403Y0023801D01*
X0084185Y0023583D01*
X0083973Y0023795D01*
X0083967Y0023801D01*
X0083578Y0023801D01*
X0083180Y0023801D01*
X0080956Y0023801D01*
X0080400Y0023245D01*
X0080400Y0022458D01*
X0080900Y0021957D01*
X0080900Y0020956D01*
X0081457Y0020400D01*
X0082244Y0020400D01*
X0082337Y0020493D01*
X0082430Y0020400D01*
X0083217Y0020400D01*
X0083560Y0020743D01*
X0083903Y0020400D01*
X0086914Y0020400D01*
X0087470Y0020956D01*
X0087568Y0021054D01*
X0087568Y0020558D01*
X0088136Y0019186D01*
X0089186Y0018136D01*
X0090558Y0017568D01*
X0092042Y0017568D01*
X0093414Y0018136D01*
X0094464Y0019186D01*
X0095032Y0020558D01*
X0095032Y0022042D01*
X0094464Y0023414D01*
X0093414Y0024464D01*
X0092042Y0025032D01*
X0090558Y0025032D01*
X0089676Y0024667D01*
X0087715Y0026628D01*
X0073886Y0026628D01*
X0073061Y0025803D01*
X0071775Y0024517D01*
X0066108Y0024517D01*
X0066108Y0025924D01*
X0072941Y0025924D01*
X0073765Y0026748D01*
X0073765Y0026748D01*
X0074870Y0027853D01*
X0075558Y0027568D01*
X0077042Y0027568D01*
X0078414Y0028136D01*
X0079464Y0029186D01*
X0080032Y0030558D01*
X0080032Y0032042D01*
X0079464Y0033414D01*
X0079215Y0033663D01*
X0080818Y0033663D01*
X0080400Y0033245D01*
X0080400Y0032458D01*
X0080900Y0031957D01*
X0080900Y0030956D01*
X0081457Y0030400D01*
X0082244Y0030400D01*
X0082337Y0030493D01*
X0082430Y0030400D01*
X0083217Y0030400D01*
X0083685Y0030868D01*
X0083903Y0030650D01*
X0084153Y0030400D01*
X0085441Y0030400D01*
X0085997Y0030956D01*
X0086247Y0031207D01*
X0086247Y0031858D01*
X0086247Y0032244D01*
X0086247Y0032609D01*
X0086247Y0032995D01*
X0085997Y0033245D01*
X0085579Y0033663D01*
X0086549Y0033663D01*
X0087744Y0032468D01*
X0087568Y0032042D01*
X0087568Y0030558D01*
X0088136Y0029186D01*
X0089186Y0028136D01*
X0090558Y0027568D01*
X0092042Y0027568D01*
X0093414Y0028136D01*
X0094464Y0029186D01*
X0095032Y0030558D01*
X0095032Y0032042D01*
X0094464Y0033414D01*
X0093414Y0034464D01*
X0092042Y0035032D01*
X0090558Y0035032D01*
X0089569Y0034623D01*
X0087715Y0036477D01*
X0073886Y0036477D01*
X0073061Y0035653D01*
X0070368Y0032959D01*
X0066108Y0032959D01*
X0066108Y0033663D01*
X0070830Y0033663D01*
X0074976Y0037809D01*
X0075558Y0037568D01*
X0077042Y0037568D01*
X0078414Y0038136D01*
X0079464Y0039186D01*
X0080032Y0040558D01*
X0080032Y0042042D01*
X0079464Y0043414D01*
X0078414Y0044464D01*
X0077314Y0044920D01*
X0085142Y0044920D01*
X0087700Y0042362D01*
X0087568Y0042042D01*
X0087568Y0040558D01*
X0088136Y0039186D01*
X0089186Y0038136D01*
X0090558Y0037568D01*
X0092042Y0037568D01*
X0093414Y0038136D01*
X0094464Y0039186D01*
X0095032Y0040558D01*
X0095032Y0042042D01*
X0094464Y0043414D01*
X0093414Y0044464D01*
X0092042Y0045032D01*
X0090558Y0045032D01*
X0089463Y0044579D01*
X0086308Y0047734D01*
X0077443Y0047734D01*
X0078414Y0048136D01*
X0079464Y0049186D01*
X0080032Y0050558D01*
X0080032Y0052042D01*
X0079464Y0053414D01*
X0078812Y0054066D01*
X0086549Y0054066D01*
X0087862Y0052753D01*
X0087568Y0052042D01*
X0087568Y0050558D01*
X0088136Y0049186D01*
X0089186Y0048136D01*
X0090558Y0047568D01*
X0092042Y0047568D01*
X0093414Y0048136D01*
X0094464Y0049186D01*
X0095032Y0050558D01*
X0095032Y0052042D01*
X0094464Y0053414D01*
X0093414Y0054464D01*
X0092042Y0055032D01*
X0090558Y0055032D01*
X0089854Y0054741D01*
X0087715Y0056880D01*
X0073644Y0056880D01*
X0074691Y0057927D01*
X0075558Y0057568D01*
X0077042Y0057568D01*
X0078414Y0058136D01*
X0079464Y0059186D01*
X0080032Y0060558D01*
X0080032Y0062042D01*
X0079464Y0063414D01*
X0078963Y0063915D01*
X0086549Y0063915D01*
X0087818Y0062647D01*
X0087568Y0062042D01*
X0087568Y0060558D01*
X0088136Y0059186D01*
X0089186Y0058136D01*
X0090558Y0057568D01*
X0092042Y0057568D01*
X0093414Y0058136D01*
X0094464Y0059186D01*
X0095032Y0060558D01*
X0095032Y0062042D01*
X0094464Y0063414D01*
X0093414Y0064464D01*
X0092042Y0065032D01*
X0090558Y0065032D01*
X0089748Y0064697D01*
X0087715Y0066730D01*
X0063747Y0066730D01*
X0063747Y0067494D01*
X0063341Y0067900D01*
X0064363Y0067900D01*
X0064863Y0067400D01*
X0065650Y0067400D01*
X0066151Y0067900D01*
X0068856Y0067900D01*
X0068949Y0067993D01*
X0069042Y0067900D01*
X0071803Y0067900D01*
X0072359Y0068456D01*
X0072359Y0068707D01*
X0072610Y0068957D01*
X0072610Y0069994D01*
X0072053Y0070551D01*
X0071803Y0070801D01*
X0069042Y0070801D01*
X0068949Y0070708D01*
X0068856Y0070801D01*
X0067930Y0070801D01*
X0067930Y0070995D01*
X0067374Y0071551D01*
X0066587Y0071551D01*
X0066030Y0070995D01*
X0066030Y0070801D01*
X0065678Y0070801D01*
X0065178Y0071301D01*
X0064391Y0071301D01*
X0063890Y0070801D01*
X0063640Y0070801D01*
X0063547Y0070708D01*
X0063454Y0070801D01*
X0061259Y0070801D01*
X0060758Y0071301D01*
X0059971Y0071301D01*
X0059864Y0071194D01*
X0059757Y0071301D01*
X0058970Y0071301D01*
X0058414Y0070745D01*
X0058414Y0068759D01*
X0057900Y0068245D01*
X0057900Y0067458D01*
X0058400Y0066957D01*
X0058400Y0066730D01*
X0056297Y0066730D01*
X0055473Y0065905D01*
X0035774Y0046206D01*
X0035774Y0046108D01*
X0034621Y0046108D01*
X0033972Y0045459D01*
X0033972Y0042998D01*
X0033784Y0042809D01*
X0032959Y0041985D01*
X0029602Y0038628D01*
X0027331Y0038628D01*
X0027331Y0057704D01*
X0027448Y0057821D01*
X0028058Y0057568D01*
X0029542Y0057568D01*
X0030914Y0058136D01*
X0031964Y0059186D01*
X0032466Y0060398D01*
X0035943Y0060398D01*
X0035943Y0059081D01*
X0039081Y0055943D01*
X0043519Y0055943D01*
X0046657Y0059081D01*
X0046657Y0063519D01*
X0043519Y0066657D01*
X0039081Y0066657D01*
X0035943Y0063519D01*
X0035943Y0063212D01*
X0032048Y0063212D01*
X0031964Y0063414D01*
X0030914Y0064464D01*
X0029542Y0065032D01*
X0028058Y0065032D01*
X0026686Y0064464D01*
X0025636Y0063414D01*
X0025068Y0062042D01*
X0025068Y0060558D01*
X0025401Y0059754D01*
X0024517Y0058870D01*
X0024517Y0033784D01*
X0025341Y0032959D01*
X0026492Y0031809D01*
X0026492Y0030369D01*
X0026507Y0030354D01*
X0026430Y0030222D01*
X0016778Y0039874D01*
X0016778Y0058166D01*
X0014843Y0060101D01*
X0015032Y0060558D01*
X0015032Y0062042D01*
X0014464Y0063414D01*
X0013414Y0064464D01*
X0012042Y0065032D01*
X0010558Y0065032D01*
X0009186Y0064464D01*
X0008232Y0063510D01*
X0007941Y0063801D01*
X0007440Y0063801D01*
X0007440Y0063801D01*
X0007293Y0063801D01*
X0007154Y0063801D01*
X0006653Y0063801D01*
X0006647Y0063795D01*
X0006560Y0063708D01*
X0006467Y0063801D01*
X0005967Y0063801D01*
X0005967Y0063801D01*
X0005820Y0063801D01*
X0005680Y0063801D01*
X0004457Y0063801D01*
X0004350Y0063694D01*
X0004244Y0063801D01*
X0003456Y0063801D01*
X0002900Y0063245D01*
X0002900Y0061457D01*
X0003949Y0060408D01*
X0003957Y0060400D01*
X0004744Y0060400D01*
X0004962Y0060618D01*
X0005180Y0060400D01*
X0006467Y0060400D01*
X0006560Y0060493D01*
X0006653Y0060400D01*
X0007633Y0060400D01*
X0008136Y0059186D01*
X0009186Y0058136D01*
X0010558Y0057568D01*
X0012042Y0057568D01*
X0013000Y0057965D01*
X0013964Y0057001D01*
X0013964Y0053914D01*
X0013414Y0054464D01*
X0012042Y0055032D01*
X0010558Y0055032D01*
X0009186Y0054464D01*
X0008232Y0053510D01*
X0007947Y0053795D01*
X0007941Y0053801D01*
X0007941Y0053801D01*
X0007551Y0053801D01*
X0007154Y0053801D01*
X0006403Y0053801D01*
X0006060Y0053458D01*
X0005717Y0053801D01*
X0004494Y0053801D01*
X0004346Y0053801D01*
X0004207Y0053801D01*
X0003707Y0053801D01*
X0003701Y0053795D01*
X0003150Y0053245D01*
X0003150Y0053245D01*
X0002900Y0052995D01*
X0002900Y0052995D01*
X0002900Y0052995D01*
X0002900Y0052605D01*
X0002900Y0051207D01*
X0003150Y0050956D01*
X0003707Y0050400D01*
X0007190Y0050400D01*
X0007297Y0050507D01*
X0007404Y0050400D01*
X0007633Y0050400D01*
X0007831Y0049923D01*
X0002707Y0044799D01*
X0002707Y0009863D01*
X0003531Y0009039D01*
X0008456Y0004114D01*
X0024396Y0004114D01*
X0025173Y0004891D02*
X0037932Y0004891D01*
X0037333Y0005490D02*
X0025772Y0005490D01*
X0026370Y0006088D02*
X0036735Y0006088D01*
X0037181Y0007632D02*
X0038588Y0006225D01*
X0040698Y0006225D01*
X0044216Y0006225D01*
X0048437Y0006225D01*
X0049141Y0006928D01*
X0049141Y0009039D01*
X0049253Y0009568D01*
X0049141Y0009743D01*
X0049141Y0011853D01*
X0050548Y0013260D01*
X0051955Y0013260D01*
X0053362Y0011853D01*
X0059694Y0018185D01*
X0059694Y0020296D01*
X0059694Y0024517D01*
X0059694Y0028035D01*
X0059694Y0032256D01*
X0059694Y0035774D01*
X0056176Y0035774D01*
X0051252Y0040698D01*
X0049844Y0039291D01*
X0048437Y0039291D01*
X0047030Y0040698D01*
X0045623Y0039291D01*
X0044920Y0039291D01*
X0043513Y0040698D01*
X0042106Y0039291D01*
X0040698Y0039291D01*
X0039291Y0040698D01*
X0037884Y0039291D01*
X0036477Y0039291D01*
X0034367Y0041402D01*
X0030145Y0037181D01*
X0029568Y0037127D01*
X0029981Y0039006D02*
X0027331Y0039006D01*
X0027331Y0039605D02*
X0030579Y0039605D01*
X0031178Y0040203D02*
X0027331Y0040203D01*
X0027331Y0040802D02*
X0031776Y0040802D01*
X0032375Y0041400D02*
X0027331Y0041400D01*
X0027331Y0041999D02*
X0032973Y0041999D01*
X0033572Y0042597D02*
X0027331Y0042597D01*
X0027331Y0043196D02*
X0033972Y0043196D01*
X0033972Y0043794D02*
X0027331Y0043794D01*
X0027331Y0044393D02*
X0033972Y0044393D01*
X0033972Y0044991D02*
X0027331Y0044991D01*
X0027331Y0045590D02*
X0034103Y0045590D01*
X0035774Y0046188D02*
X0027331Y0046188D01*
X0027331Y0046787D02*
X0036354Y0046787D01*
X0036953Y0047385D02*
X0027331Y0047385D01*
X0027331Y0047984D02*
X0037551Y0047984D01*
X0038150Y0048582D02*
X0027331Y0048582D01*
X0027331Y0049181D02*
X0038748Y0049181D01*
X0039347Y0049779D02*
X0027331Y0049779D01*
X0027331Y0050378D02*
X0039946Y0050378D01*
X0040544Y0050976D02*
X0027331Y0050976D01*
X0027331Y0051575D02*
X0041143Y0051575D01*
X0041741Y0052173D02*
X0027331Y0052173D01*
X0027331Y0052772D02*
X0042340Y0052772D01*
X0042938Y0053370D02*
X0027331Y0053370D01*
X0027331Y0053969D02*
X0043537Y0053969D01*
X0044135Y0054568D02*
X0027331Y0054568D01*
X0027331Y0055166D02*
X0044734Y0055166D01*
X0045332Y0055765D02*
X0027331Y0055765D01*
X0027331Y0056363D02*
X0038661Y0056363D01*
X0038062Y0056962D02*
X0027331Y0056962D01*
X0027331Y0057560D02*
X0037464Y0057560D01*
X0036865Y0058159D02*
X0030937Y0058159D01*
X0031535Y0058757D02*
X0036267Y0058757D01*
X0035943Y0059356D02*
X0032034Y0059356D01*
X0032282Y0059954D02*
X0035943Y0059954D01*
X0035969Y0063545D02*
X0031833Y0063545D01*
X0031234Y0064144D02*
X0036568Y0064144D01*
X0037166Y0064742D02*
X0030242Y0064742D01*
X0030190Y0065650D02*
X0030747Y0066207D01*
X0031247Y0066707D01*
X0031247Y0067494D01*
X0030691Y0068051D01*
X0030691Y0068051D01*
X0030190Y0068551D01*
X0029403Y0068551D01*
X0029311Y0068458D01*
X0028967Y0068801D01*
X0028467Y0068801D01*
X0028467Y0068801D01*
X0028320Y0068801D01*
X0028180Y0068801D01*
X0025956Y0068801D01*
X0025400Y0068245D01*
X0025400Y0067458D01*
X0025900Y0066957D01*
X0025900Y0065956D01*
X0026457Y0065400D01*
X0027244Y0065400D01*
X0027462Y0065618D01*
X0027680Y0065400D01*
X0028967Y0065400D01*
X0029311Y0065743D01*
X0029403Y0065650D01*
X0030190Y0065650D01*
X0030479Y0065939D02*
X0038363Y0065939D01*
X0037765Y0065341D02*
X0002200Y0065341D01*
X0002200Y0065939D02*
X0025918Y0065939D01*
X0025900Y0066538D02*
X0002200Y0066538D01*
X0002200Y0067136D02*
X0025722Y0067136D01*
X0025400Y0067735D02*
X0002200Y0067735D01*
X0002200Y0068333D02*
X0025488Y0068333D01*
X0028180Y0068801D02*
X0028180Y0068801D01*
X0030408Y0068333D02*
X0038524Y0068333D01*
X0038400Y0068456D02*
X0038400Y0069457D01*
X0037900Y0069958D01*
X0037900Y0070745D01*
X0038456Y0071301D01*
X0040680Y0071301D01*
X0040680Y0071301D01*
X0040820Y0071301D01*
X0040967Y0071301D01*
X0040967Y0071301D01*
X0041467Y0071301D01*
X0041811Y0070958D01*
X0041903Y0071051D01*
X0042690Y0071051D01*
X0043191Y0070551D01*
X0043191Y0070551D01*
X0043747Y0069994D01*
X0043747Y0069207D01*
X0043191Y0068651D01*
X0043191Y0068651D01*
X0042690Y0068150D01*
X0041903Y0068150D01*
X0041811Y0068243D01*
X0041467Y0067900D01*
X0040180Y0067900D01*
X0039962Y0068118D01*
X0039744Y0067900D01*
X0038957Y0067900D01*
X0038400Y0068456D01*
X0038400Y0068932D02*
X0002200Y0068932D01*
X0002200Y0069530D02*
X0038327Y0069530D01*
X0037900Y0070129D02*
X0002200Y0070129D01*
X0002200Y0070727D02*
X0037900Y0070727D01*
X0038962Y0066538D02*
X0031078Y0066538D01*
X0031247Y0067136D02*
X0058222Y0067136D01*
X0057900Y0067735D02*
X0054445Y0067735D01*
X0054610Y0067900D02*
X0054860Y0067900D01*
X0054953Y0067993D01*
X0055046Y0067900D01*
X0057056Y0067900D01*
X0057613Y0068456D01*
X0057613Y0068901D01*
X0057807Y0068901D01*
X0058363Y0069457D01*
X0058363Y0070244D01*
X0057807Y0070801D01*
X0055046Y0070801D01*
X0054953Y0070708D01*
X0054860Y0070801D01*
X0051191Y0070801D01*
X0050691Y0071301D01*
X0048903Y0071301D01*
X0048347Y0070745D01*
X0048347Y0070551D01*
X0047744Y0070551D01*
X0047494Y0070801D01*
X0046207Y0070801D01*
X0045650Y0070244D01*
X0045400Y0069994D01*
X0045400Y0068707D01*
X0045956Y0068150D01*
X0046207Y0067900D01*
X0046994Y0067900D01*
X0047494Y0067900D01*
X0048051Y0068456D01*
X0048051Y0068651D01*
X0048847Y0068651D01*
X0048847Y0068456D01*
X0049403Y0067900D01*
X0050190Y0067900D01*
X0050408Y0068118D01*
X0050626Y0067900D01*
X0051349Y0067900D01*
X0051849Y0067400D01*
X0052637Y0067400D01*
X0052980Y0067743D01*
X0053323Y0067400D01*
X0054110Y0067400D01*
X0054610Y0067900D01*
X0052988Y0067735D02*
X0052972Y0067735D01*
X0051514Y0067735D02*
X0031007Y0067735D01*
X0027358Y0064742D02*
X0012742Y0064742D01*
X0013734Y0064144D02*
X0026366Y0064144D01*
X0025767Y0063545D02*
X0014333Y0063545D01*
X0014658Y0062947D02*
X0025442Y0062947D01*
X0025195Y0062348D02*
X0014905Y0062348D01*
X0015032Y0061750D02*
X0025068Y0061750D01*
X0025068Y0061151D02*
X0015032Y0061151D01*
X0015030Y0060553D02*
X0025070Y0060553D01*
X0025318Y0059954D02*
X0014990Y0059954D01*
X0015589Y0059356D02*
X0025003Y0059356D01*
X0024517Y0058757D02*
X0016187Y0058757D01*
X0016778Y0058159D02*
X0024517Y0058159D01*
X0024517Y0057560D02*
X0016778Y0057560D01*
X0016778Y0056962D02*
X0024517Y0056962D01*
X0024517Y0056363D02*
X0016778Y0056363D01*
X0016778Y0055765D02*
X0024517Y0055765D01*
X0024517Y0055166D02*
X0016778Y0055166D01*
X0016778Y0054568D02*
X0024517Y0054568D01*
X0024517Y0053969D02*
X0016778Y0053969D01*
X0016778Y0053370D02*
X0024517Y0053370D01*
X0024517Y0052772D02*
X0016778Y0052772D01*
X0016778Y0052173D02*
X0024517Y0052173D01*
X0024517Y0051575D02*
X0016778Y0051575D01*
X0016778Y0050976D02*
X0024517Y0050976D01*
X0024517Y0050378D02*
X0016778Y0050378D01*
X0016778Y0049779D02*
X0024517Y0049779D01*
X0024517Y0049181D02*
X0016778Y0049181D01*
X0016778Y0048582D02*
X0024517Y0048582D01*
X0024517Y0047984D02*
X0016778Y0047984D01*
X0016778Y0047385D02*
X0024517Y0047385D01*
X0024517Y0046787D02*
X0016778Y0046787D01*
X0016778Y0046188D02*
X0024517Y0046188D01*
X0024517Y0045590D02*
X0016778Y0045590D01*
X0016778Y0044991D02*
X0024517Y0044991D01*
X0024517Y0044393D02*
X0016778Y0044393D01*
X0016778Y0043794D02*
X0024517Y0043794D01*
X0024517Y0043196D02*
X0016778Y0043196D01*
X0016778Y0042597D02*
X0024517Y0042597D01*
X0024517Y0041999D02*
X0016778Y0041999D01*
X0016778Y0041400D02*
X0024517Y0041400D01*
X0024517Y0040802D02*
X0016778Y0040802D01*
X0016778Y0040203D02*
X0024517Y0040203D01*
X0024517Y0039605D02*
X0017047Y0039605D01*
X0017646Y0039006D02*
X0024517Y0039006D01*
X0024517Y0038408D02*
X0018244Y0038408D01*
X0018843Y0037809D02*
X0024517Y0037809D01*
X0024517Y0037211D02*
X0019441Y0037211D01*
X0020040Y0036612D02*
X0024517Y0036612D01*
X0024517Y0036014D02*
X0020638Y0036014D01*
X0021237Y0035415D02*
X0024517Y0035415D01*
X0024517Y0034817D02*
X0021835Y0034817D01*
X0022434Y0034218D02*
X0024517Y0034218D01*
X0024681Y0033620D02*
X0023032Y0033620D01*
X0023631Y0033021D02*
X0025280Y0033021D01*
X0025878Y0032423D02*
X0024230Y0032423D01*
X0024828Y0031824D02*
X0026477Y0031824D01*
X0026492Y0031226D02*
X0025427Y0031226D01*
X0026025Y0030627D02*
X0026492Y0030627D01*
X0029568Y0029253D02*
X0030145Y0029442D01*
X0031552Y0029442D01*
X0032959Y0028035D01*
X0032959Y0022406D01*
X0032256Y0021703D01*
X0030145Y0021703D01*
X0029568Y0021379D01*
X0032836Y0021379D01*
X0029568Y0021379D01*
X0029568Y0021379D01*
X0029442Y0020999D01*
X0026628Y0020999D01*
X0025924Y0020296D01*
X0025924Y0016778D01*
X0012557Y0016778D01*
X0012557Y0011853D01*
X0012560Y0011300D01*
X0012260Y0011475D02*
X0007186Y0011475D01*
X0006928Y0011732D02*
X0006928Y0020400D01*
X0007477Y0020400D01*
X0007526Y0020155D01*
X0007822Y0019441D01*
X0008251Y0018798D01*
X0008798Y0018251D01*
X0009441Y0017822D01*
X0010155Y0017526D01*
X0010913Y0017375D01*
X0011000Y0017375D01*
X0011000Y0021000D01*
X0011600Y0021000D01*
X0011600Y0021600D01*
X0011600Y0024891D01*
X0010567Y0025924D01*
X0009160Y0025924D01*
X0006928Y0028155D01*
X0006928Y0023801D01*
X0007154Y0023801D01*
X0007154Y0023801D01*
X0007543Y0023801D01*
X0007941Y0023801D01*
X0008127Y0023615D01*
X0008251Y0023802D01*
X0008798Y0024349D01*
X0009441Y0024778D01*
X0010155Y0025074D01*
X0010913Y0025225D01*
X0011000Y0025225D01*
X0011000Y0021600D01*
X0011600Y0021600D01*
X0015225Y0021600D01*
X0015225Y0021687D01*
X0015222Y0021703D01*
X0026299Y0021703D01*
X0026299Y0021379D01*
X0029568Y0021379D01*
X0029568Y0021379D01*
X0026299Y0021379D01*
X0026299Y0020814D01*
X0026388Y0020483D01*
X0026507Y0020277D01*
X0026492Y0020263D01*
X0026492Y0018558D01*
X0026624Y0018426D01*
X0026492Y0018294D01*
X0026492Y0016589D01*
X0026507Y0016575D01*
X0026388Y0016369D01*
X0026299Y0016038D01*
X0026299Y0015473D01*
X0026299Y0014908D01*
X0026388Y0014578D01*
X0026559Y0014281D01*
X0026801Y0014039D01*
X0027097Y0013868D01*
X0027428Y0013780D01*
X0029568Y0013780D01*
X0030082Y0013780D01*
X0023231Y0006928D01*
X0017361Y0006928D01*
X0017673Y0007240D01*
X0023058Y0007240D01*
X0023706Y0007889D01*
X0023706Y0014711D01*
X0023058Y0015360D01*
X0017023Y0015360D01*
X0016374Y0014711D01*
X0016374Y0014591D01*
X0016330Y0014755D01*
X0016159Y0015051D01*
X0015917Y0015293D01*
X0015621Y0015464D01*
X0015290Y0015553D01*
X0012860Y0015553D01*
X0012860Y0011600D01*
X0012260Y0011600D01*
X0012260Y0015553D01*
X0009830Y0015553D01*
X0009499Y0015464D01*
X0009203Y0015293D01*
X0008961Y0015051D01*
X0008789Y0014755D01*
X0008701Y0014424D01*
X0008701Y0011600D01*
X0012260Y0011600D01*
X0012260Y0011000D01*
X0008701Y0011000D01*
X0008701Y0009960D01*
X0006928Y0011732D01*
X0006928Y0012073D02*
X0008701Y0012073D01*
X0008701Y0012672D02*
X0006928Y0012672D01*
X0006928Y0013270D02*
X0008701Y0013270D01*
X0008701Y0013869D02*
X0006928Y0013869D01*
X0006928Y0014467D02*
X0008712Y0014467D01*
X0008975Y0015066D02*
X0006928Y0015066D01*
X0006928Y0015664D02*
X0026299Y0015664D01*
X0026299Y0015473D02*
X0029568Y0015473D01*
X0029568Y0013780D01*
X0029568Y0015473D01*
X0029568Y0015473D01*
X0029442Y0015371D01*
X0027331Y0015371D01*
X0025924Y0016778D01*
X0026492Y0016861D02*
X0006928Y0016861D01*
X0006928Y0016263D02*
X0026359Y0016263D01*
X0026299Y0015473D02*
X0029568Y0015473D01*
X0029568Y0015473D01*
X0029568Y0015066D02*
X0029568Y0015066D01*
X0029568Y0014467D02*
X0029568Y0014467D01*
X0029568Y0013869D02*
X0029568Y0013869D01*
X0029572Y0013270D02*
X0023706Y0013270D01*
X0023706Y0012672D02*
X0028974Y0012672D01*
X0028375Y0012073D02*
X0023706Y0012073D01*
X0023706Y0011475D02*
X0027777Y0011475D01*
X0027178Y0010876D02*
X0023706Y0010876D01*
X0023706Y0010278D02*
X0026580Y0010278D01*
X0025981Y0009679D02*
X0023706Y0009679D01*
X0023706Y0009081D02*
X0025383Y0009081D01*
X0024784Y0008482D02*
X0023706Y0008482D01*
X0023701Y0007884D02*
X0024186Y0007884D01*
X0023587Y0007285D02*
X0023103Y0007285D01*
X0023813Y0005521D02*
X0009039Y0005521D01*
X0004114Y0010446D01*
X0004114Y0044216D01*
X0011150Y0051252D01*
X0011300Y0051300D01*
X0013909Y0053969D02*
X0013964Y0053969D01*
X0013964Y0054568D02*
X0013164Y0054568D01*
X0013964Y0055166D02*
X0002200Y0055166D01*
X0002200Y0054568D02*
X0009436Y0054568D01*
X0008691Y0053969D02*
X0002200Y0053969D01*
X0002200Y0053370D02*
X0003276Y0053370D01*
X0003707Y0053801D02*
X0003707Y0053801D01*
X0004207Y0053801D02*
X0004207Y0053801D01*
X0004494Y0053801D02*
X0004494Y0053801D01*
X0002900Y0052772D02*
X0002200Y0052772D01*
X0002200Y0052173D02*
X0002900Y0052173D01*
X0002900Y0051575D02*
X0002200Y0051575D01*
X0002200Y0050976D02*
X0003130Y0050976D01*
X0002200Y0050378D02*
X0007642Y0050378D01*
X0007688Y0049779D02*
X0002200Y0049779D01*
X0002200Y0049181D02*
X0007089Y0049181D01*
X0006491Y0048582D02*
X0002200Y0048582D01*
X0002200Y0047984D02*
X0005892Y0047984D01*
X0005294Y0047385D02*
X0002200Y0047385D01*
X0002200Y0046787D02*
X0004695Y0046787D01*
X0004096Y0046188D02*
X0002200Y0046188D01*
X0002200Y0045590D02*
X0003498Y0045590D01*
X0002899Y0044991D02*
X0002200Y0044991D01*
X0002200Y0044393D02*
X0002707Y0044393D01*
X0002707Y0043794D02*
X0002200Y0043794D01*
X0002200Y0043196D02*
X0002707Y0043196D01*
X0002707Y0042597D02*
X0002200Y0042597D01*
X0002200Y0041999D02*
X0002707Y0041999D01*
X0002707Y0041400D02*
X0002200Y0041400D01*
X0002200Y0040802D02*
X0002707Y0040802D01*
X0002707Y0040203D02*
X0002200Y0040203D01*
X0002200Y0039605D02*
X0002707Y0039605D01*
X0002707Y0039006D02*
X0002200Y0039006D01*
X0002200Y0038408D02*
X0002707Y0038408D01*
X0002707Y0037809D02*
X0002200Y0037809D01*
X0002200Y0037211D02*
X0002707Y0037211D01*
X0002707Y0036612D02*
X0002200Y0036612D01*
X0002200Y0036014D02*
X0002707Y0036014D01*
X0002707Y0035415D02*
X0002200Y0035415D01*
X0002200Y0034817D02*
X0002707Y0034817D01*
X0002707Y0034218D02*
X0002200Y0034218D01*
X0002200Y0033620D02*
X0002707Y0033620D01*
X0002707Y0033021D02*
X0002200Y0033021D01*
X0002200Y0032423D02*
X0002707Y0032423D01*
X0002707Y0031824D02*
X0002200Y0031824D01*
X0002200Y0031226D02*
X0002707Y0031226D01*
X0002707Y0030627D02*
X0002200Y0030627D01*
X0002200Y0030029D02*
X0002707Y0030029D01*
X0002707Y0029430D02*
X0002200Y0029430D01*
X0002200Y0028832D02*
X0002707Y0028832D01*
X0002707Y0028233D02*
X0002200Y0028233D01*
X0002200Y0027634D02*
X0002707Y0027634D01*
X0002707Y0027036D02*
X0002200Y0027036D01*
X0002200Y0026437D02*
X0002707Y0026437D01*
X0002707Y0025839D02*
X0002200Y0025839D01*
X0002200Y0025240D02*
X0002707Y0025240D01*
X0002707Y0024642D02*
X0002200Y0024642D01*
X0002200Y0024043D02*
X0002707Y0024043D01*
X0002707Y0023445D02*
X0002200Y0023445D01*
X0002200Y0022846D02*
X0002707Y0022846D01*
X0002707Y0022248D02*
X0002200Y0022248D01*
X0002200Y0021649D02*
X0002707Y0021649D01*
X0002707Y0021051D02*
X0002200Y0021051D01*
X0002200Y0020452D02*
X0002707Y0020452D01*
X0002707Y0019854D02*
X0002200Y0019854D01*
X0002200Y0019255D02*
X0002707Y0019255D01*
X0002707Y0018657D02*
X0002200Y0018657D01*
X0002200Y0018058D02*
X0002707Y0018058D01*
X0002707Y0017460D02*
X0002200Y0017460D01*
X0002200Y0016861D02*
X0002707Y0016861D01*
X0002707Y0016263D02*
X0002200Y0016263D01*
X0002200Y0015664D02*
X0002707Y0015664D01*
X0002707Y0015066D02*
X0002200Y0015066D01*
X0002200Y0014467D02*
X0002707Y0014467D01*
X0002707Y0013869D02*
X0002200Y0013869D01*
X0002200Y0013270D02*
X0002707Y0013270D01*
X0002707Y0012672D02*
X0002200Y0012672D01*
X0002200Y0012073D02*
X0002707Y0012073D01*
X0002707Y0011475D02*
X0002200Y0011475D01*
X0002200Y0010876D02*
X0002707Y0010876D01*
X0002707Y0010278D02*
X0002200Y0010278D01*
X0002200Y0009679D02*
X0002891Y0009679D01*
X0003490Y0009081D02*
X0002200Y0009081D01*
X0002200Y0008482D02*
X0004088Y0008482D01*
X0004687Y0007884D02*
X0002200Y0007884D01*
X0002200Y0007285D02*
X0005285Y0007285D01*
X0005884Y0006687D02*
X0002200Y0006687D01*
X0002200Y0006088D02*
X0006482Y0006088D01*
X0007081Y0005490D02*
X0002200Y0005490D01*
X0002200Y0004891D02*
X0007679Y0004891D01*
X0008278Y0004293D02*
X0002200Y0004293D01*
X0005521Y0011150D02*
X0009743Y0006928D01*
X0015371Y0006928D01*
X0019592Y0011150D01*
X0020040Y0011300D01*
X0023706Y0013869D02*
X0027096Y0013869D01*
X0026452Y0014467D02*
X0023706Y0014467D01*
X0023352Y0015066D02*
X0026299Y0015066D01*
X0026492Y0017460D02*
X0012113Y0017460D01*
X0012445Y0017526D02*
X0011687Y0017375D01*
X0011600Y0017375D01*
X0011600Y0021000D01*
X0015225Y0021000D01*
X0015225Y0020913D01*
X0015074Y0020155D01*
X0014778Y0019441D01*
X0014349Y0018798D01*
X0013802Y0018251D01*
X0013159Y0017822D01*
X0012445Y0017526D01*
X0012557Y0016778D02*
X0012557Y0020296D01*
X0011853Y0020999D01*
X0011300Y0021300D01*
X0011600Y0021051D02*
X0026299Y0021051D01*
X0026299Y0021649D02*
X0015225Y0021649D01*
X0015133Y0020452D02*
X0026406Y0020452D01*
X0026492Y0019854D02*
X0014949Y0019854D01*
X0014654Y0019255D02*
X0026492Y0019255D01*
X0026492Y0018657D02*
X0014208Y0018657D01*
X0013513Y0018058D02*
X0026492Y0018058D01*
X0029568Y0019410D02*
X0030145Y0019592D01*
X0031552Y0019592D01*
X0032959Y0018185D01*
X0032959Y0014667D01*
X0023813Y0005521D01*
X0026969Y0006687D02*
X0034426Y0006687D01*
X0033972Y0007285D02*
X0027567Y0007285D01*
X0028166Y0007884D02*
X0033972Y0007884D01*
X0033972Y0008482D02*
X0028764Y0008482D01*
X0029363Y0009081D02*
X0033972Y0009081D01*
X0033972Y0009679D02*
X0029961Y0009679D01*
X0030560Y0010278D02*
X0033972Y0010278D01*
X0033972Y0010876D02*
X0031158Y0010876D01*
X0031757Y0011475D02*
X0033972Y0011475D01*
X0034051Y0012073D02*
X0032355Y0012073D01*
X0032954Y0012672D02*
X0047970Y0012672D01*
X0048568Y0013270D02*
X0033552Y0013270D01*
X0034151Y0013869D02*
X0049167Y0013869D01*
X0049765Y0014467D02*
X0034367Y0014467D01*
X0034367Y0015066D02*
X0054585Y0015066D01*
X0055183Y0015664D02*
X0034367Y0015664D01*
X0034367Y0016263D02*
X0055782Y0016263D01*
X0056380Y0016861D02*
X0034367Y0016861D01*
X0034367Y0017460D02*
X0056979Y0017460D01*
X0057577Y0018058D02*
X0034367Y0018058D01*
X0034367Y0018657D02*
X0058176Y0018657D01*
X0058287Y0019255D02*
X0033879Y0019255D01*
X0033281Y0019854D02*
X0058287Y0019854D01*
X0058287Y0020452D02*
X0032730Y0020452D01*
X0032836Y0021051D02*
X0058287Y0021051D01*
X0058287Y0021649D02*
X0032836Y0021649D01*
X0032755Y0022248D02*
X0058287Y0022248D01*
X0058287Y0022846D02*
X0032643Y0022846D01*
X0032643Y0023445D02*
X0058287Y0023445D01*
X0058287Y0024043D02*
X0032643Y0024043D01*
X0032643Y0024642D02*
X0058287Y0024642D01*
X0058287Y0025240D02*
X0032643Y0025240D01*
X0032643Y0025839D02*
X0058287Y0025839D01*
X0058287Y0026437D02*
X0032643Y0026437D01*
X0032643Y0027036D02*
X0058287Y0027036D01*
X0058287Y0027634D02*
X0032643Y0027634D01*
X0032676Y0028233D02*
X0058287Y0028233D01*
X0058287Y0028832D02*
X0032836Y0028832D01*
X0032836Y0029253D02*
X0029568Y0029253D01*
X0032836Y0029253D01*
X0032836Y0029430D02*
X0058287Y0029430D01*
X0058287Y0030029D02*
X0032780Y0030029D01*
X0032643Y0030627D02*
X0058287Y0030627D01*
X0058287Y0031226D02*
X0032643Y0031226D01*
X0032643Y0031824D02*
X0058287Y0031824D01*
X0058287Y0032423D02*
X0032643Y0032423D01*
X0032643Y0033021D02*
X0058287Y0033021D01*
X0058287Y0033620D02*
X0032643Y0033620D01*
X0032555Y0034218D02*
X0058287Y0034218D01*
X0059694Y0035774D02*
X0061101Y0037181D01*
X0062508Y0037181D01*
X0063032Y0037127D01*
X0063032Y0035158D02*
X0063212Y0035070D01*
X0070247Y0035070D01*
X0075876Y0040698D01*
X0076300Y0041300D01*
X0080032Y0041400D02*
X0080900Y0041400D01*
X0080900Y0040956D02*
X0080900Y0041957D01*
X0080400Y0042458D01*
X0080400Y0043245D01*
X0080956Y0043801D01*
X0083180Y0043801D01*
X0083180Y0043801D01*
X0083578Y0043801D01*
X0083967Y0043801D01*
X0083967Y0043801D01*
X0083973Y0043795D01*
X0084311Y0043458D01*
X0084403Y0043551D01*
X0084573Y0043551D01*
X0085224Y0043877D01*
X0085971Y0043628D01*
X0086323Y0042924D01*
X0086134Y0042357D01*
X0086247Y0042244D01*
X0086247Y0042244D01*
X0086247Y0042244D01*
X0086247Y0041846D01*
X0086247Y0041207D01*
X0085691Y0040650D01*
X0085441Y0040400D01*
X0084153Y0040400D01*
X0083685Y0040868D01*
X0083217Y0040400D01*
X0082430Y0040400D01*
X0082337Y0040493D01*
X0082244Y0040400D01*
X0081457Y0040400D01*
X0080900Y0040956D01*
X0081055Y0040802D02*
X0080032Y0040802D01*
X0079885Y0040203D02*
X0087715Y0040203D01*
X0087568Y0040802D02*
X0085842Y0040802D01*
X0086247Y0041400D02*
X0087568Y0041400D01*
X0087568Y0041999D02*
X0086247Y0041999D01*
X0086214Y0042597D02*
X0087465Y0042597D01*
X0086866Y0043196D02*
X0086187Y0043196D01*
X0086268Y0043794D02*
X0085472Y0043794D01*
X0085059Y0043794D02*
X0083974Y0043794D01*
X0085669Y0044393D02*
X0078485Y0044393D01*
X0079084Y0043794D02*
X0080950Y0043794D01*
X0080400Y0043196D02*
X0079554Y0043196D01*
X0079802Y0042597D02*
X0080400Y0042597D01*
X0080032Y0041999D02*
X0080859Y0041999D01*
X0083618Y0040802D02*
X0083751Y0040802D01*
X0079637Y0039605D02*
X0087963Y0039605D01*
X0088316Y0039006D02*
X0079284Y0039006D01*
X0078686Y0038408D02*
X0088914Y0038408D01*
X0089975Y0037809D02*
X0077625Y0037809D01*
X0074378Y0037211D02*
X0100321Y0037211D01*
X0100321Y0037809D02*
X0092625Y0037809D01*
X0093686Y0038408D02*
X0100321Y0038408D01*
X0100321Y0039006D02*
X0094284Y0039006D01*
X0094637Y0039605D02*
X0100321Y0039605D01*
X0100321Y0040203D02*
X0094885Y0040203D01*
X0095032Y0040802D02*
X0096055Y0040802D01*
X0095900Y0041400D02*
X0095032Y0041400D01*
X0095032Y0041999D02*
X0095859Y0041999D01*
X0095400Y0042597D02*
X0094802Y0042597D01*
X0094554Y0043196D02*
X0095400Y0043196D01*
X0095950Y0043794D02*
X0094084Y0043794D01*
X0093485Y0044393D02*
X0100321Y0044393D01*
X0100321Y0044991D02*
X0092141Y0044991D01*
X0090459Y0044991D02*
X0089051Y0044991D01*
X0088452Y0045590D02*
X0100321Y0045590D01*
X0100321Y0046188D02*
X0087854Y0046188D01*
X0087255Y0046787D02*
X0100321Y0046787D01*
X0100321Y0047385D02*
X0086656Y0047385D01*
X0085725Y0046327D02*
X0090650Y0041402D01*
X0091300Y0041300D01*
X0088179Y0036014D02*
X0100321Y0036014D01*
X0100321Y0036612D02*
X0073779Y0036612D01*
X0073422Y0036014D02*
X0073181Y0036014D01*
X0072824Y0035415D02*
X0072582Y0035415D01*
X0072225Y0034817D02*
X0071984Y0034817D01*
X0071627Y0034218D02*
X0071385Y0034218D01*
X0071028Y0033620D02*
X0066108Y0033620D01*
X0066108Y0033021D02*
X0070430Y0033021D01*
X0070951Y0031552D02*
X0074469Y0035070D01*
X0087132Y0035070D01*
X0090650Y0031552D01*
X0091300Y0031300D01*
X0095032Y0031226D02*
X0095900Y0031226D01*
X0095900Y0031824D02*
X0095032Y0031824D01*
X0094875Y0032423D02*
X0095435Y0032423D01*
X0095400Y0033021D02*
X0094627Y0033021D01*
X0094258Y0033620D02*
X0095775Y0033620D01*
X0098180Y0033801D02*
X0098180Y0033801D01*
X0100321Y0034218D02*
X0093660Y0034218D01*
X0092562Y0034817D02*
X0100321Y0034817D01*
X0100321Y0035415D02*
X0088777Y0035415D01*
X0089376Y0034817D02*
X0090038Y0034817D01*
X0087725Y0032423D02*
X0086247Y0032423D01*
X0086247Y0032244D02*
X0086247Y0032244D01*
X0086247Y0031824D02*
X0087568Y0031824D01*
X0087568Y0031226D02*
X0086247Y0031226D01*
X0085668Y0030627D02*
X0087568Y0030627D01*
X0087787Y0030029D02*
X0079813Y0030029D01*
X0080032Y0030627D02*
X0081230Y0030627D01*
X0080900Y0031226D02*
X0080032Y0031226D01*
X0080032Y0031824D02*
X0080900Y0031824D01*
X0080435Y0032423D02*
X0079875Y0032423D01*
X0079627Y0033021D02*
X0080400Y0033021D01*
X0080775Y0033620D02*
X0079258Y0033620D01*
X0076300Y0031300D02*
X0075876Y0030849D01*
X0072358Y0027331D01*
X0063212Y0027331D01*
X0063032Y0027284D01*
X0063032Y0029253D02*
X0062508Y0029442D01*
X0061101Y0029442D01*
X0059694Y0028035D01*
X0060398Y0025220D02*
X0059694Y0024517D01*
X0060398Y0025220D02*
X0062508Y0025220D01*
X0063032Y0025316D01*
X0063032Y0023347D02*
X0063212Y0023110D01*
X0072358Y0023110D01*
X0074469Y0025220D01*
X0087132Y0025220D01*
X0090650Y0021703D01*
X0091300Y0021300D01*
X0088665Y0018657D02*
X0078935Y0018657D01*
X0079493Y0019255D02*
X0088107Y0019255D01*
X0087859Y0019854D02*
X0079741Y0019854D01*
X0079988Y0020452D02*
X0081405Y0020452D01*
X0080900Y0021051D02*
X0080032Y0021051D01*
X0080032Y0021649D02*
X0080900Y0021649D01*
X0080610Y0022248D02*
X0079947Y0022248D01*
X0079699Y0022846D02*
X0080400Y0022846D01*
X0080600Y0023445D02*
X0079433Y0023445D01*
X0083180Y0023801D02*
X0083180Y0023801D01*
X0083967Y0023801D02*
X0083967Y0023801D01*
X0086127Y0023801D02*
X0086127Y0023801D01*
X0086413Y0023801D02*
X0086413Y0023801D01*
X0088504Y0025839D02*
X0100321Y0025839D01*
X0100321Y0026437D02*
X0087905Y0026437D01*
X0089102Y0025240D02*
X0100321Y0025240D01*
X0100321Y0024642D02*
X0092984Y0024642D01*
X0093835Y0024043D02*
X0100321Y0024043D01*
X0099654Y0023801D02*
X0099654Y0023801D01*
X0099153Y0023801D02*
X0099153Y0023801D01*
X0098967Y0023801D02*
X0098967Y0023801D01*
X0098180Y0023801D02*
X0098180Y0023801D01*
X0095600Y0023445D02*
X0094433Y0023445D01*
X0094699Y0022846D02*
X0095400Y0022846D01*
X0095610Y0022248D02*
X0094947Y0022248D01*
X0095032Y0021649D02*
X0095900Y0021649D01*
X0095900Y0021051D02*
X0095032Y0021051D01*
X0094988Y0020452D02*
X0096405Y0020452D01*
X0097296Y0020452D02*
X0097377Y0020452D01*
X0098269Y0020452D02*
X0099101Y0020452D01*
X0100321Y0019854D02*
X0094741Y0019854D01*
X0094493Y0019255D02*
X0100321Y0019255D01*
X0100321Y0018657D02*
X0093935Y0018657D01*
X0093226Y0018058D02*
X0100321Y0018058D01*
X0100321Y0017460D02*
X0066108Y0017460D01*
X0066108Y0018058D02*
X0074374Y0018058D01*
X0074469Y0019592D02*
X0075876Y0020999D01*
X0076300Y0021300D01*
X0074469Y0019592D02*
X0063212Y0019592D01*
X0063032Y0019410D01*
X0062508Y0020999D02*
X0063032Y0021379D01*
X0062508Y0020999D02*
X0060398Y0020999D01*
X0059694Y0020296D01*
X0059694Y0018185D02*
X0060398Y0017481D01*
X0062508Y0017481D01*
X0063032Y0017442D01*
X0063032Y0015473D02*
X0063212Y0015371D01*
X0087132Y0015371D01*
X0090650Y0011853D01*
X0091300Y0011300D01*
X0094771Y0012672D02*
X0095400Y0012672D01*
X0095425Y0013270D02*
X0094523Y0013270D01*
X0094009Y0013869D02*
X0100321Y0013869D01*
X0100321Y0014467D02*
X0093406Y0014467D01*
X0095019Y0012073D02*
X0095785Y0012073D01*
X0095900Y0011475D02*
X0095032Y0011475D01*
X0095032Y0010876D02*
X0095981Y0010876D01*
X0094916Y0010278D02*
X0100321Y0010278D01*
X0100321Y0009679D02*
X0094668Y0009679D01*
X0094359Y0009081D02*
X0100321Y0009081D01*
X0100321Y0008482D02*
X0093760Y0008482D01*
X0092805Y0007884D02*
X0100321Y0007884D01*
X0100321Y0007285D02*
X0074001Y0007285D01*
X0073402Y0006687D02*
X0100321Y0006687D01*
X0100321Y0006088D02*
X0072804Y0006088D01*
X0072205Y0005490D02*
X0100321Y0005490D01*
X0100321Y0004891D02*
X0071607Y0004891D01*
X0070951Y0006225D02*
X0075876Y0011150D01*
X0076300Y0011300D01*
X0079771Y0012672D02*
X0080400Y0012672D01*
X0080425Y0013270D02*
X0079523Y0013270D01*
X0079009Y0013869D02*
X0086644Y0013869D01*
X0086413Y0013801D02*
X0086413Y0013801D01*
X0086127Y0013801D02*
X0086127Y0013801D01*
X0085626Y0013801D02*
X0085626Y0013801D01*
X0083967Y0013801D02*
X0083967Y0013801D01*
X0083180Y0013801D02*
X0083180Y0013801D01*
X0080785Y0012073D02*
X0080019Y0012073D01*
X0080032Y0011475D02*
X0080900Y0011475D01*
X0080981Y0010876D02*
X0080032Y0010876D01*
X0079916Y0010278D02*
X0087684Y0010278D01*
X0087932Y0009679D02*
X0079668Y0009679D01*
X0079359Y0009081D02*
X0088241Y0009081D01*
X0088840Y0008482D02*
X0078760Y0008482D01*
X0077805Y0007884D02*
X0089795Y0007884D01*
X0098180Y0013801D02*
X0098180Y0013801D01*
X0098967Y0013801D02*
X0098967Y0013801D01*
X0098967Y0013801D01*
X0100321Y0015066D02*
X0089427Y0015066D01*
X0088829Y0015664D02*
X0100321Y0015664D01*
X0100321Y0016263D02*
X0088230Y0016263D01*
X0089374Y0018058D02*
X0078226Y0018058D01*
X0082296Y0020452D02*
X0082377Y0020452D01*
X0083269Y0020452D02*
X0083851Y0020452D01*
X0086966Y0020452D02*
X0087612Y0020452D01*
X0087565Y0021051D02*
X0087568Y0021051D01*
X0090397Y0027634D02*
X0077203Y0027634D01*
X0078511Y0028233D02*
X0089089Y0028233D01*
X0088491Y0028832D02*
X0079109Y0028832D01*
X0079565Y0029430D02*
X0088035Y0029430D01*
X0083926Y0030627D02*
X0083444Y0030627D01*
X0085997Y0033245D02*
X0085997Y0033245D01*
X0086221Y0033021D02*
X0087191Y0033021D01*
X0086593Y0033620D02*
X0085622Y0033620D01*
X0086247Y0032995D02*
X0086247Y0032995D01*
X0086247Y0032995D01*
X0092203Y0027634D02*
X0100321Y0027634D01*
X0100321Y0027036D02*
X0074053Y0027036D01*
X0073696Y0026437D02*
X0073454Y0026437D01*
X0073097Y0025839D02*
X0066108Y0025839D01*
X0066108Y0025240D02*
X0072499Y0025240D01*
X0071900Y0024642D02*
X0066108Y0024642D01*
X0063032Y0031221D02*
X0063212Y0031552D01*
X0070951Y0031552D01*
X0074651Y0027634D02*
X0075397Y0027634D01*
X0063032Y0033190D02*
X0062508Y0032959D01*
X0060398Y0032959D01*
X0059694Y0032256D01*
X0055143Y0034817D02*
X0032643Y0034817D01*
X0032643Y0035415D02*
X0054545Y0035415D01*
X0053946Y0036014D02*
X0032640Y0036014D01*
X0032643Y0036612D02*
X0053348Y0036612D01*
X0052749Y0037211D02*
X0032643Y0037211D01*
X0032764Y0037809D02*
X0052151Y0037809D01*
X0051552Y0038408D02*
X0050951Y0038408D01*
X0051252Y0038709D02*
X0051252Y0038709D01*
X0051252Y0040698D02*
X0051252Y0042809D01*
X0051221Y0043032D01*
X0053190Y0043032D02*
X0053362Y0043513D01*
X0053362Y0045623D01*
X0054066Y0046327D01*
X0085725Y0046327D01*
X0088141Y0049181D02*
X0079459Y0049181D01*
X0079710Y0049779D02*
X0087890Y0049779D01*
X0087642Y0050378D02*
X0079958Y0050378D01*
X0080032Y0050976D02*
X0080900Y0050976D01*
X0080900Y0050956D02*
X0080900Y0051957D01*
X0080400Y0052458D01*
X0080400Y0053245D01*
X0080956Y0053801D01*
X0083180Y0053801D01*
X0083180Y0053801D01*
X0083578Y0053801D01*
X0083967Y0053801D01*
X0083967Y0053801D01*
X0083973Y0053795D01*
X0084311Y0053458D01*
X0084654Y0053801D01*
X0085441Y0053801D01*
X0085997Y0053245D01*
X0085997Y0052744D01*
X0086247Y0052494D01*
X0086247Y0051707D01*
X0085997Y0051457D01*
X0085997Y0050956D01*
X0085441Y0050400D01*
X0084654Y0050400D01*
X0084097Y0050956D01*
X0084097Y0051030D01*
X0083967Y0050900D01*
X0083717Y0050900D01*
X0083217Y0050400D01*
X0082430Y0050400D01*
X0082337Y0050493D01*
X0082244Y0050400D01*
X0081457Y0050400D01*
X0080900Y0050956D01*
X0080900Y0051575D02*
X0080032Y0051575D01*
X0079978Y0052173D02*
X0080684Y0052173D01*
X0080400Y0052772D02*
X0079730Y0052772D01*
X0079482Y0053370D02*
X0080526Y0053370D01*
X0078909Y0053969D02*
X0086646Y0053969D01*
X0087245Y0053370D02*
X0085871Y0053370D01*
X0085997Y0052772D02*
X0087843Y0052772D01*
X0087622Y0052173D02*
X0086247Y0052173D01*
X0086115Y0051575D02*
X0087568Y0051575D01*
X0087568Y0050976D02*
X0085997Y0050976D01*
X0084097Y0050976D02*
X0084043Y0050976D01*
X0088740Y0048582D02*
X0078860Y0048582D01*
X0078047Y0047984D02*
X0089553Y0047984D01*
X0093047Y0047984D02*
X0100321Y0047984D01*
X0100321Y0048582D02*
X0093860Y0048582D01*
X0094459Y0049181D02*
X0100321Y0049181D01*
X0100321Y0049779D02*
X0094710Y0049779D01*
X0094958Y0050378D02*
X0100321Y0050378D01*
X0099654Y0053801D02*
X0099654Y0053801D01*
X0098967Y0053801D02*
X0098967Y0053801D01*
X0098180Y0053801D02*
X0098180Y0053801D01*
X0100321Y0053969D02*
X0093909Y0053969D01*
X0094482Y0053370D02*
X0095526Y0053370D01*
X0095400Y0052772D02*
X0094730Y0052772D01*
X0094978Y0052173D02*
X0095684Y0052173D01*
X0095900Y0051575D02*
X0095032Y0051575D01*
X0095032Y0050976D02*
X0095900Y0050976D01*
X0093164Y0054568D02*
X0100321Y0054568D01*
X0100321Y0055166D02*
X0089429Y0055166D01*
X0088830Y0055765D02*
X0100321Y0055765D01*
X0100321Y0056363D02*
X0088232Y0056363D01*
X0087132Y0055473D02*
X0090650Y0051955D01*
X0091300Y0051300D01*
X0087132Y0055473D02*
X0055473Y0055473D01*
X0045623Y0045623D01*
X0045623Y0043513D01*
X0045316Y0043032D01*
X0047030Y0042809D02*
X0047030Y0040698D01*
X0047030Y0042809D02*
X0047284Y0043032D01*
X0049141Y0043513D02*
X0049253Y0043032D01*
X0049141Y0043513D02*
X0049141Y0044920D01*
X0055473Y0051252D01*
X0075876Y0051252D01*
X0076300Y0051300D01*
X0073726Y0056962D02*
X0100321Y0056962D01*
X0100321Y0057560D02*
X0074324Y0057560D01*
X0071654Y0056880D02*
X0075876Y0061101D01*
X0076300Y0061300D01*
X0079782Y0059954D02*
X0087818Y0059954D01*
X0088066Y0059356D02*
X0079534Y0059356D01*
X0079035Y0058757D02*
X0088565Y0058757D01*
X0089163Y0058159D02*
X0078437Y0058159D01*
X0080030Y0060553D02*
X0081304Y0060553D01*
X0081457Y0060400D02*
X0082244Y0060400D01*
X0082337Y0060493D01*
X0082430Y0060400D01*
X0083217Y0060400D01*
X0083560Y0060743D01*
X0083903Y0060400D01*
X0085691Y0060400D01*
X0086247Y0060956D01*
X0086247Y0061744D01*
X0086140Y0061850D01*
X0086247Y0061957D01*
X0086247Y0062738D01*
X0086247Y0062995D01*
X0085997Y0063245D01*
X0085441Y0063801D01*
X0084940Y0063801D01*
X0084940Y0063801D01*
X0084793Y0063801D01*
X0084654Y0063801D01*
X0084153Y0063801D01*
X0084147Y0063795D01*
X0084060Y0063708D01*
X0083973Y0063795D01*
X0083967Y0063801D01*
X0083578Y0063801D01*
X0083180Y0063801D01*
X0080956Y0063801D01*
X0080400Y0063245D01*
X0080400Y0062458D01*
X0080900Y0061957D01*
X0080900Y0060956D01*
X0081457Y0060400D01*
X0080900Y0061151D02*
X0080032Y0061151D01*
X0080032Y0061750D02*
X0080900Y0061750D01*
X0080510Y0062348D02*
X0079905Y0062348D01*
X0079658Y0062947D02*
X0080400Y0062947D01*
X0080700Y0063545D02*
X0079333Y0063545D01*
X0083180Y0063801D02*
X0083180Y0063801D01*
X0083967Y0063801D02*
X0083967Y0063801D01*
X0084153Y0063801D02*
X0084153Y0063801D01*
X0084654Y0063801D02*
X0084654Y0063801D01*
X0085697Y0063545D02*
X0086920Y0063545D01*
X0087518Y0062947D02*
X0086247Y0062947D01*
X0086247Y0062995D02*
X0086247Y0062995D01*
X0086247Y0062995D01*
X0085997Y0063245D02*
X0085997Y0063245D01*
X0086247Y0062348D02*
X0087695Y0062348D01*
X0087568Y0061750D02*
X0086241Y0061750D01*
X0086247Y0061151D02*
X0087568Y0061151D01*
X0087570Y0060553D02*
X0085843Y0060553D01*
X0083750Y0060553D02*
X0083369Y0060553D01*
X0087132Y0065322D02*
X0090650Y0061805D01*
X0091300Y0061300D01*
X0094782Y0059954D02*
X0100321Y0059954D01*
X0100321Y0059356D02*
X0094534Y0059356D01*
X0094035Y0058757D02*
X0100321Y0058757D01*
X0100321Y0058159D02*
X0093437Y0058159D01*
X0095030Y0060553D02*
X0096304Y0060553D01*
X0095900Y0061151D02*
X0095032Y0061151D01*
X0095032Y0061750D02*
X0095900Y0061750D01*
X0095510Y0062348D02*
X0094905Y0062348D01*
X0094658Y0062947D02*
X0095400Y0062947D01*
X0095700Y0063545D02*
X0094333Y0063545D01*
X0093734Y0064144D02*
X0100321Y0064144D01*
X0100321Y0064742D02*
X0092742Y0064742D01*
X0089858Y0064742D02*
X0089702Y0064742D01*
X0089104Y0065341D02*
X0100321Y0065341D01*
X0100321Y0065939D02*
X0088505Y0065939D01*
X0087907Y0066538D02*
X0100321Y0066538D01*
X0100321Y0067136D02*
X0063747Y0067136D01*
X0063507Y0067735D02*
X0064528Y0067735D01*
X0065985Y0067735D02*
X0087864Y0067735D01*
X0087699Y0067900D02*
X0088199Y0067400D01*
X0089236Y0067400D01*
X0089487Y0067650D01*
X0089737Y0067900D01*
X0089959Y0067900D01*
X0090066Y0068007D01*
X0090173Y0067900D01*
X0090960Y0067900D01*
X0091053Y0067993D01*
X0091146Y0067900D01*
X0093165Y0067900D01*
X0093415Y0068150D01*
X0093972Y0068707D01*
X0093972Y0070244D01*
X0093415Y0070801D01*
X0091933Y0070801D01*
X0091682Y0071051D01*
X0090895Y0071051D01*
X0090645Y0070801D01*
X0090459Y0070801D01*
X0089959Y0071301D01*
X0089172Y0071301D01*
X0088671Y0070801D01*
X0088310Y0070801D01*
X0088310Y0070995D01*
X0087754Y0071551D01*
X0086967Y0071551D01*
X0086410Y0070995D01*
X0086410Y0070801D01*
X0085489Y0070801D01*
X0084932Y0070244D01*
X0084932Y0068456D01*
X0085489Y0067900D01*
X0086276Y0067900D01*
X0086496Y0068120D01*
X0086716Y0067900D01*
X0087699Y0067900D01*
X0089571Y0067735D02*
X0100321Y0067735D01*
X0100321Y0071326D02*
X0087979Y0071326D01*
X0086741Y0071326D02*
X0067599Y0071326D01*
X0066361Y0071326D02*
X0002200Y0071326D01*
X0002200Y0064742D02*
X0009858Y0064742D01*
X0008866Y0064144D02*
X0002200Y0064144D01*
X0002200Y0063545D02*
X0003200Y0063545D01*
X0002900Y0062947D02*
X0002200Y0062947D01*
X0002200Y0062348D02*
X0002900Y0062348D01*
X0002900Y0061750D02*
X0002200Y0061750D01*
X0002200Y0061151D02*
X0003206Y0061151D01*
X0003804Y0060553D02*
X0002200Y0060553D01*
X0002200Y0059954D02*
X0007818Y0059954D01*
X0008066Y0059356D02*
X0002200Y0059356D01*
X0002200Y0058757D02*
X0008565Y0058757D01*
X0009163Y0058159D02*
X0002200Y0058159D01*
X0002200Y0057560D02*
X0013404Y0057560D01*
X0013964Y0056962D02*
X0002200Y0056962D01*
X0002200Y0056363D02*
X0013964Y0056363D01*
X0013964Y0055765D02*
X0002200Y0055765D01*
X0007154Y0053801D02*
X0007154Y0053801D01*
X0005027Y0060553D02*
X0004897Y0060553D01*
X0005680Y0063801D02*
X0005680Y0063801D01*
X0006653Y0063801D02*
X0006653Y0063801D01*
X0007154Y0063801D02*
X0007154Y0063801D01*
X0008197Y0063545D02*
X0008267Y0063545D01*
X0011300Y0061300D02*
X0011853Y0061101D01*
X0015371Y0057583D01*
X0015371Y0045623D01*
X0009743Y0045623D01*
X0005521Y0041402D01*
X0005521Y0011150D01*
X0007785Y0010876D02*
X0008701Y0010876D01*
X0008701Y0010278D02*
X0008383Y0010278D01*
X0012260Y0012073D02*
X0012860Y0012073D01*
X0012860Y0012672D02*
X0012260Y0012672D01*
X0012260Y0013270D02*
X0012860Y0013270D01*
X0012860Y0013869D02*
X0012260Y0013869D01*
X0012260Y0014467D02*
X0012860Y0014467D01*
X0012860Y0015066D02*
X0012260Y0015066D01*
X0011600Y0017460D02*
X0011000Y0017460D01*
X0010487Y0017460D02*
X0006928Y0017460D01*
X0006928Y0018058D02*
X0009087Y0018058D01*
X0008392Y0018657D02*
X0006928Y0018657D01*
X0006928Y0019255D02*
X0007946Y0019255D01*
X0007651Y0019854D02*
X0006928Y0019854D01*
X0011000Y0019854D02*
X0011600Y0019854D01*
X0011600Y0020452D02*
X0011000Y0020452D01*
X0011000Y0019255D02*
X0011600Y0019255D01*
X0011600Y0018657D02*
X0011000Y0018657D01*
X0011000Y0018058D02*
X0011600Y0018058D01*
X0016144Y0015066D02*
X0016728Y0015066D01*
X0011600Y0021649D02*
X0011000Y0021649D01*
X0011000Y0022248D02*
X0011600Y0022248D01*
X0011600Y0022846D02*
X0011000Y0022846D01*
X0011000Y0023445D02*
X0011600Y0023445D01*
X0011600Y0024043D02*
X0011000Y0024043D01*
X0011000Y0024642D02*
X0011600Y0024642D01*
X0011250Y0025240D02*
X0006928Y0025240D01*
X0006928Y0024642D02*
X0009237Y0024642D01*
X0008493Y0024043D02*
X0006928Y0024043D01*
X0006928Y0025839D02*
X0010652Y0025839D01*
X0011150Y0027331D02*
X0009743Y0027331D01*
X0006928Y0030145D01*
X0006928Y0036477D01*
X0011150Y0040698D01*
X0011300Y0041300D01*
X0015371Y0039291D02*
X0015371Y0045623D01*
X0015371Y0039291D02*
X0027331Y0027331D01*
X0029442Y0027331D01*
X0029568Y0027284D01*
X0029568Y0029253D02*
X0029568Y0029253D01*
X0029442Y0032959D02*
X0027331Y0032959D01*
X0025924Y0034367D01*
X0025924Y0058287D01*
X0028738Y0061101D01*
X0028800Y0061300D01*
X0029442Y0061805D01*
X0040698Y0061805D01*
X0041300Y0061300D01*
X0045735Y0058159D02*
X0047726Y0058159D01*
X0048325Y0058757D02*
X0046333Y0058757D01*
X0046657Y0059356D02*
X0048923Y0059356D01*
X0049522Y0059954D02*
X0046657Y0059954D01*
X0046657Y0060553D02*
X0050120Y0060553D01*
X0050719Y0061151D02*
X0046657Y0061151D01*
X0046657Y0061750D02*
X0051317Y0061750D01*
X0051916Y0062348D02*
X0046657Y0062348D01*
X0046657Y0062947D02*
X0052514Y0062947D01*
X0053113Y0063545D02*
X0046631Y0063545D01*
X0046032Y0064144D02*
X0053711Y0064144D01*
X0054310Y0064742D02*
X0045434Y0064742D01*
X0044835Y0065341D02*
X0054908Y0065341D01*
X0055473Y0065905D02*
X0055473Y0065905D01*
X0055507Y0065939D02*
X0044237Y0065939D01*
X0043638Y0066538D02*
X0056105Y0066538D01*
X0056880Y0065322D02*
X0087132Y0065322D01*
X0085056Y0068333D02*
X0084754Y0068333D01*
X0084877Y0068456D02*
X0084877Y0069244D01*
X0084627Y0069494D01*
X0084627Y0070745D01*
X0084071Y0071301D01*
X0082051Y0071301D01*
X0081958Y0071208D01*
X0081865Y0071301D01*
X0081078Y0071301D01*
X0080860Y0071083D01*
X0080648Y0071295D01*
X0080642Y0071301D01*
X0080142Y0071301D01*
X0080142Y0071301D01*
X0080003Y0071301D01*
X0079855Y0071301D01*
X0079355Y0071301D01*
X0078798Y0070745D01*
X0078798Y0070745D01*
X0078548Y0070495D01*
X0078548Y0070495D01*
X0078548Y0070097D01*
X0078548Y0068707D01*
X0079355Y0067900D01*
X0081365Y0067900D01*
X0081472Y0068007D01*
X0081579Y0067900D01*
X0084321Y0067900D01*
X0084877Y0068456D01*
X0084877Y0068932D02*
X0084932Y0068932D01*
X0084932Y0069530D02*
X0084627Y0069530D01*
X0084627Y0070129D02*
X0084932Y0070129D01*
X0084627Y0070727D02*
X0085415Y0070727D01*
X0080642Y0071301D02*
X0080642Y0071301D01*
X0079855Y0071301D02*
X0079855Y0071301D01*
X0078781Y0070727D02*
X0078002Y0070727D01*
X0078002Y0070745D02*
X0077446Y0071301D01*
X0076659Y0071301D01*
X0076441Y0071083D01*
X0076228Y0071295D01*
X0076223Y0071301D01*
X0076223Y0071301D01*
X0075722Y0071301D01*
X0075722Y0071301D01*
X0075583Y0071301D01*
X0075436Y0071301D01*
X0074935Y0071301D01*
X0074842Y0071208D01*
X0074755Y0071295D01*
X0074749Y0071301D01*
X0074360Y0071301D01*
X0073962Y0071301D01*
X0073212Y0071301D01*
X0072655Y0070745D01*
X0072655Y0068957D01*
X0072655Y0068456D01*
X0073212Y0067900D01*
X0073999Y0067900D01*
X0074106Y0068007D01*
X0074213Y0067900D01*
X0077946Y0067900D01*
X0078503Y0068456D01*
X0078503Y0069244D01*
X0078002Y0069744D01*
X0078002Y0070745D01*
X0078548Y0070495D02*
X0078548Y0070495D01*
X0078548Y0070129D02*
X0078002Y0070129D01*
X0078216Y0069530D02*
X0078548Y0069530D01*
X0078548Y0068932D02*
X0078503Y0068932D01*
X0078379Y0068333D02*
X0078922Y0068333D01*
X0075436Y0071301D02*
X0075436Y0071301D01*
X0074749Y0071301D02*
X0074749Y0071301D01*
X0073962Y0071301D02*
X0073962Y0071301D01*
X0072655Y0070727D02*
X0071876Y0070727D01*
X0072475Y0070129D02*
X0072655Y0070129D01*
X0072655Y0069530D02*
X0072610Y0069530D01*
X0072584Y0068932D02*
X0072655Y0068932D01*
X0072778Y0068333D02*
X0072236Y0068333D01*
X0068969Y0070727D02*
X0068930Y0070727D01*
X0063567Y0070727D02*
X0063528Y0070727D01*
X0058414Y0070727D02*
X0057880Y0070727D01*
X0058363Y0070129D02*
X0058414Y0070129D01*
X0058414Y0069530D02*
X0058363Y0069530D01*
X0058414Y0068932D02*
X0057838Y0068932D01*
X0057988Y0068333D02*
X0057490Y0068333D01*
X0056880Y0065322D02*
X0037181Y0045623D01*
X0037181Y0043513D01*
X0037442Y0043032D01*
X0035774Y0042809D02*
X0035473Y0043032D01*
X0035774Y0042809D02*
X0034367Y0041402D01*
X0034772Y0039006D02*
X0033961Y0039006D01*
X0033362Y0038408D02*
X0035371Y0038408D01*
X0038991Y0038408D02*
X0039592Y0038408D01*
X0039291Y0038709D02*
X0039291Y0038709D01*
X0039291Y0040698D02*
X0039291Y0042809D01*
X0039410Y0043032D01*
X0039291Y0043513D01*
X0039291Y0045623D01*
X0054769Y0061101D01*
X0061101Y0061101D01*
X0061300Y0061300D01*
X0052659Y0056880D02*
X0071654Y0056880D01*
X0054973Y0070727D02*
X0054934Y0070727D01*
X0048970Y0068333D02*
X0047927Y0068333D01*
X0045773Y0068333D02*
X0042873Y0068333D01*
X0043472Y0068932D02*
X0045400Y0068932D01*
X0045400Y0069530D02*
X0043747Y0069530D01*
X0043613Y0070129D02*
X0045535Y0070129D01*
X0046133Y0070727D02*
X0043014Y0070727D01*
X0047568Y0070727D02*
X0048347Y0070727D01*
X0047128Y0057560D02*
X0045136Y0057560D01*
X0044538Y0056962D02*
X0046529Y0056962D01*
X0045931Y0056363D02*
X0043939Y0056363D01*
X0052659Y0056880D02*
X0041402Y0045623D01*
X0041402Y0043513D01*
X0041379Y0043032D01*
X0043347Y0043032D02*
X0043513Y0042809D01*
X0043513Y0040698D01*
X0043513Y0038709D02*
X0043513Y0038709D01*
X0043813Y0038408D02*
X0043212Y0038408D01*
X0046730Y0038408D02*
X0047331Y0038408D01*
X0047030Y0038709D02*
X0047030Y0038709D01*
X0029568Y0033190D02*
X0029442Y0032959D01*
X0029568Y0025316D02*
X0029442Y0025220D01*
X0017481Y0025220D01*
X0011853Y0030849D01*
X0011300Y0031300D01*
X0011150Y0027331D02*
X0015371Y0023110D01*
X0029442Y0023110D01*
X0029568Y0023347D01*
X0037442Y0009568D02*
X0037181Y0009039D01*
X0037181Y0007632D01*
X0040698Y0006225D02*
X0041402Y0006928D01*
X0041402Y0009039D01*
X0041379Y0009568D01*
X0045316Y0009568D02*
X0045623Y0009039D01*
X0045623Y0007632D01*
X0044216Y0006225D01*
X0049094Y0004891D02*
X0051299Y0004891D01*
X0050700Y0005490D02*
X0049692Y0005490D01*
X0051252Y0006928D02*
X0051955Y0006225D01*
X0070951Y0006225D01*
X0074600Y0007884D02*
X0074795Y0007884D01*
X0066108Y0016861D02*
X0100321Y0016861D01*
X0100321Y0028233D02*
X0093511Y0028233D01*
X0094109Y0028832D02*
X0100321Y0028832D01*
X0100321Y0029430D02*
X0094565Y0029430D01*
X0094813Y0030029D02*
X0100321Y0030029D01*
X0100321Y0030627D02*
X0099917Y0030627D01*
X0100265Y0031226D02*
X0100321Y0031226D01*
X0098676Y0030627D02*
X0098444Y0030627D01*
X0096230Y0030627D02*
X0095032Y0030627D01*
X0098618Y0040802D02*
X0098751Y0040802D01*
X0098180Y0043801D02*
X0098180Y0043801D01*
X0098369Y0060553D02*
X0098750Y0060553D01*
X0098967Y0063801D02*
X0098967Y0063801D01*
X0098180Y0063801D02*
X0098180Y0063801D01*
X0094141Y0068333D02*
X0093598Y0068333D01*
X0093972Y0068932D02*
X0094017Y0068932D01*
X0094017Y0069530D02*
X0093972Y0069530D01*
X0093972Y0070129D02*
X0094017Y0070129D01*
X0094500Y0070727D02*
X0093489Y0070727D01*
X0097413Y0070727D02*
X0097452Y0070727D01*
X0053986Y0014467D02*
X0052738Y0014467D01*
X0053337Y0013869D02*
X0053388Y0013869D01*
X0053362Y0013843D02*
X0053362Y0013843D01*
X0053362Y0011853D02*
X0053362Y0009743D01*
X0053190Y0009568D01*
X0051221Y0009568D02*
X0051252Y0009039D01*
X0051252Y0006928D01*
X0008646Y0026437D02*
X0006928Y0026437D01*
X0006928Y0027036D02*
X0008048Y0027036D01*
X0007449Y0027634D02*
X0006928Y0027634D01*
M02*
