G75*
%MOIN*%
%OFA0B0*%
%FSLAX25Y25*%
%IPPOS*%
%LPD*%
%AMOC8*
5,1,8,0,0,1.08239X$1,22.5*
%
%ADD10C,0.00000*%
%ADD11C,0.00100*%
%ADD12C,0.00600*%
%ADD13C,0.01000*%
%ADD14C,0.00400*%
D10*
X0001300Y0001300D02*
X0001300Y0072501D01*
X0101221Y0072501D01*
X0101221Y0001300D01*
X0001300Y0001300D01*
D11*
X0004100Y0021350D02*
X0004601Y0021350D01*
X0004851Y0021600D01*
X0004851Y0022101D01*
X0004350Y0022101D01*
X0003850Y0022601D02*
X0003850Y0021600D01*
X0004100Y0021350D01*
X0005323Y0021350D02*
X0005323Y0022851D01*
X0006324Y0021350D01*
X0006324Y0022851D01*
X0006797Y0022851D02*
X0006797Y0021350D01*
X0007547Y0021350D01*
X0007797Y0021600D01*
X0007797Y0022601D01*
X0007547Y0022851D01*
X0006797Y0022851D01*
X0004851Y0022601D02*
X0004601Y0022851D01*
X0004100Y0022851D01*
X0003850Y0022601D01*
X0003850Y0031350D02*
X0004601Y0031350D01*
X0004851Y0031600D01*
X0004851Y0032601D01*
X0004601Y0032851D01*
X0003850Y0032851D01*
X0003850Y0031350D01*
X0005323Y0031350D02*
X0005824Y0031350D01*
X0005573Y0031350D02*
X0005573Y0032851D01*
X0005323Y0032851D02*
X0005824Y0032851D01*
X0006305Y0032851D02*
X0007306Y0031350D01*
X0007306Y0032851D01*
X0006305Y0032851D02*
X0006305Y0031350D01*
X0006324Y0041350D02*
X0005323Y0041350D01*
X0005323Y0042851D01*
X0004851Y0042601D02*
X0004601Y0042851D01*
X0004100Y0042851D01*
X0003850Y0042601D01*
X0003850Y0041600D01*
X0004100Y0041350D01*
X0004601Y0041350D01*
X0004851Y0041600D01*
X0006797Y0041350D02*
X0006797Y0042851D01*
X0007047Y0042101D02*
X0007797Y0041350D01*
X0006797Y0041850D02*
X0007797Y0042851D01*
X0007797Y0051350D02*
X0007297Y0051850D01*
X0007547Y0051850D02*
X0006797Y0051850D01*
X0006797Y0051350D02*
X0006797Y0052851D01*
X0007547Y0052851D01*
X0007797Y0052601D01*
X0007797Y0052101D01*
X0007547Y0051850D01*
X0006324Y0051350D02*
X0005323Y0051350D01*
X0005323Y0052851D01*
X0004851Y0052601D02*
X0004601Y0052851D01*
X0004100Y0052851D01*
X0003850Y0052601D01*
X0003850Y0051600D01*
X0004100Y0051350D01*
X0004601Y0051350D01*
X0004851Y0051600D01*
X0004350Y0061350D02*
X0004851Y0061850D01*
X0004851Y0062851D01*
X0005323Y0062601D02*
X0005323Y0061600D01*
X0005573Y0061350D01*
X0006074Y0061350D01*
X0006324Y0061600D01*
X0006797Y0061600D02*
X0006797Y0062601D01*
X0007047Y0062851D01*
X0007547Y0062851D01*
X0007797Y0062601D01*
X0007797Y0061600D02*
X0007547Y0061350D01*
X0007047Y0061350D01*
X0006797Y0061600D01*
X0006324Y0062601D02*
X0006074Y0062851D01*
X0005573Y0062851D01*
X0005323Y0062601D01*
X0003850Y0062851D02*
X0003850Y0061850D01*
X0004350Y0061350D01*
X0026350Y0067851D02*
X0027351Y0067851D01*
X0026850Y0067851D02*
X0026850Y0066350D01*
X0027823Y0066600D02*
X0028073Y0066350D01*
X0028574Y0066350D01*
X0028824Y0066600D01*
X0028824Y0066850D01*
X0028574Y0067101D01*
X0028073Y0067101D01*
X0027823Y0067351D01*
X0027823Y0067601D01*
X0028073Y0067851D01*
X0028574Y0067851D01*
X0028824Y0067601D01*
X0029297Y0067101D02*
X0030297Y0067101D01*
X0029797Y0067601D02*
X0029797Y0066600D01*
X0038850Y0070351D02*
X0039851Y0070351D01*
X0039350Y0070351D02*
X0039350Y0068850D01*
X0040323Y0069100D02*
X0040573Y0068850D01*
X0041074Y0068850D01*
X0041324Y0069100D01*
X0041324Y0069350D01*
X0041074Y0069601D01*
X0040573Y0069601D01*
X0040323Y0069851D01*
X0040323Y0070101D01*
X0040573Y0070351D01*
X0041074Y0070351D01*
X0041324Y0070101D01*
X0041797Y0069601D02*
X0042797Y0069601D01*
X0042297Y0070101D02*
X0042297Y0069100D01*
X0046350Y0069100D02*
X0046350Y0069601D01*
X0046600Y0069851D01*
X0047101Y0069851D01*
X0047351Y0069601D01*
X0047351Y0069350D01*
X0046350Y0069350D01*
X0046350Y0069100D02*
X0046600Y0068850D01*
X0047101Y0068850D01*
X0047823Y0069601D02*
X0048824Y0069601D01*
X0049297Y0070351D02*
X0050297Y0070351D01*
X0049797Y0070351D02*
X0049797Y0068850D01*
X0050770Y0069100D02*
X0051020Y0069350D01*
X0051771Y0069350D01*
X0051771Y0069601D02*
X0051771Y0068850D01*
X0051020Y0068850D01*
X0050770Y0069100D01*
X0051020Y0069851D02*
X0051520Y0069851D01*
X0051771Y0069601D01*
X0052243Y0069851D02*
X0052994Y0069851D01*
X0053244Y0069601D01*
X0053244Y0069100D01*
X0052994Y0068850D01*
X0052243Y0068850D01*
X0052243Y0068350D02*
X0052243Y0069851D01*
X0053716Y0069851D02*
X0053716Y0068350D01*
X0053716Y0068850D02*
X0054467Y0068850D01*
X0054717Y0069100D01*
X0054717Y0069601D01*
X0054467Y0069851D01*
X0053716Y0069851D01*
X0055190Y0069601D02*
X0055440Y0069851D01*
X0055940Y0069851D01*
X0056190Y0069601D01*
X0056190Y0069350D01*
X0055190Y0069350D01*
X0055190Y0069100D02*
X0055190Y0069601D01*
X0055190Y0069100D02*
X0055440Y0068850D01*
X0055940Y0068850D01*
X0056663Y0068850D02*
X0056663Y0069851D01*
X0057163Y0069851D02*
X0057413Y0069851D01*
X0057163Y0069851D02*
X0056663Y0069350D01*
X0058850Y0067851D02*
X0059851Y0067851D01*
X0059350Y0067851D02*
X0059350Y0066350D01*
X0060323Y0066600D02*
X0060573Y0066350D01*
X0061074Y0066350D01*
X0061324Y0066600D01*
X0061324Y0066850D01*
X0061074Y0067101D01*
X0060573Y0067101D01*
X0060323Y0067351D01*
X0060323Y0067601D01*
X0060573Y0067851D01*
X0061074Y0067851D01*
X0061324Y0067601D01*
X0061797Y0067101D02*
X0062797Y0067101D01*
X0065257Y0068350D02*
X0065257Y0069851D01*
X0066007Y0069851D01*
X0066258Y0069601D01*
X0066258Y0069100D01*
X0066007Y0068850D01*
X0065257Y0068850D01*
X0064784Y0068850D02*
X0064034Y0068850D01*
X0063783Y0069100D01*
X0063783Y0069601D01*
X0064034Y0069851D01*
X0064784Y0069851D01*
X0064784Y0070351D02*
X0064784Y0068850D01*
X0063311Y0068850D02*
X0063311Y0069601D01*
X0063061Y0069851D01*
X0062310Y0069851D01*
X0062310Y0068850D01*
X0061838Y0068850D02*
X0061087Y0068850D01*
X0060837Y0069100D01*
X0061087Y0069350D01*
X0061838Y0069350D01*
X0061838Y0069601D02*
X0061838Y0068850D01*
X0061838Y0069601D02*
X0061588Y0069851D01*
X0061087Y0069851D01*
X0060365Y0069601D02*
X0059364Y0069601D01*
X0059364Y0070351D02*
X0059364Y0068850D01*
X0060365Y0068850D02*
X0060365Y0070351D01*
X0066730Y0069851D02*
X0066980Y0069851D01*
X0066980Y0068850D01*
X0066730Y0068850D02*
X0067230Y0068850D01*
X0067712Y0069100D02*
X0067712Y0069601D01*
X0067962Y0069851D01*
X0068463Y0069851D01*
X0068713Y0069601D01*
X0068713Y0069350D01*
X0067712Y0069350D01*
X0067712Y0069100D02*
X0067962Y0068850D01*
X0068463Y0068850D01*
X0069185Y0069100D02*
X0069436Y0068850D01*
X0070186Y0068850D01*
X0070659Y0069100D02*
X0070659Y0069601D01*
X0070909Y0069851D01*
X0071409Y0069851D01*
X0071660Y0069601D01*
X0071660Y0069350D01*
X0070659Y0069350D01*
X0070659Y0069100D02*
X0070909Y0068850D01*
X0071409Y0068850D01*
X0070186Y0069851D02*
X0069436Y0069851D01*
X0069185Y0069601D01*
X0069185Y0069100D01*
X0066980Y0070351D02*
X0066980Y0070601D01*
X0073605Y0070351D02*
X0073605Y0068850D01*
X0073605Y0069350D02*
X0074356Y0069350D01*
X0074606Y0069601D01*
X0074606Y0070101D01*
X0074356Y0070351D01*
X0073605Y0070351D01*
X0074106Y0069350D02*
X0074606Y0068850D01*
X0075078Y0069100D02*
X0075329Y0068850D01*
X0075829Y0068850D01*
X0076079Y0069100D01*
X0076079Y0069350D01*
X0075829Y0069601D01*
X0075579Y0069601D01*
X0075829Y0069601D02*
X0076079Y0069851D01*
X0076079Y0070101D01*
X0075829Y0070351D01*
X0075329Y0070351D01*
X0075078Y0070101D01*
X0076552Y0069851D02*
X0077052Y0070351D01*
X0077052Y0068850D01*
X0076552Y0068850D02*
X0077553Y0068850D01*
X0079498Y0069100D02*
X0079498Y0070101D01*
X0079748Y0070351D01*
X0080249Y0070351D01*
X0080499Y0070101D01*
X0080499Y0069601D01*
X0080249Y0069350D01*
X0080249Y0069851D01*
X0079748Y0069851D01*
X0079748Y0069350D01*
X0080249Y0069350D01*
X0080499Y0069100D02*
X0080249Y0068850D01*
X0079748Y0068850D01*
X0079498Y0069100D01*
X0080971Y0068850D02*
X0080971Y0069851D01*
X0081472Y0070351D01*
X0081972Y0069851D01*
X0081972Y0068850D01*
X0082445Y0068850D02*
X0082945Y0068850D01*
X0082695Y0068850D02*
X0082695Y0070351D01*
X0082445Y0070351D01*
X0081972Y0069601D02*
X0080971Y0069601D01*
X0083427Y0070351D02*
X0083677Y0070351D01*
X0083677Y0068850D01*
X0083427Y0068850D02*
X0083927Y0068850D01*
X0085882Y0068850D02*
X0085882Y0069851D01*
X0085882Y0069350D02*
X0086383Y0069851D01*
X0086633Y0069851D01*
X0087110Y0069851D02*
X0087360Y0069851D01*
X0087360Y0068850D01*
X0087110Y0068850D02*
X0087610Y0068850D01*
X0088092Y0069100D02*
X0088342Y0068850D01*
X0089093Y0068850D01*
X0089093Y0068600D02*
X0089093Y0069851D01*
X0088342Y0069851D01*
X0088092Y0069601D01*
X0088092Y0069100D01*
X0088593Y0068350D02*
X0088843Y0068350D01*
X0089093Y0068600D01*
X0089565Y0068850D02*
X0089565Y0070351D01*
X0089816Y0069851D02*
X0090316Y0069851D01*
X0090566Y0069601D01*
X0090566Y0068850D01*
X0091289Y0069100D02*
X0091539Y0068850D01*
X0091289Y0069100D02*
X0091289Y0070101D01*
X0091039Y0069851D02*
X0091539Y0069851D01*
X0092021Y0069601D02*
X0092271Y0069851D01*
X0093022Y0069851D01*
X0092771Y0069350D02*
X0092271Y0069350D01*
X0092021Y0069601D01*
X0092021Y0068850D02*
X0092771Y0068850D01*
X0093022Y0069100D01*
X0092771Y0069350D01*
X0094967Y0069350D02*
X0095468Y0069851D01*
X0095718Y0069851D01*
X0096195Y0069601D02*
X0096445Y0069851D01*
X0096946Y0069851D01*
X0097196Y0069601D01*
X0097196Y0069350D01*
X0096195Y0069350D01*
X0096195Y0069100D02*
X0096195Y0069601D01*
X0096195Y0069100D02*
X0096445Y0068850D01*
X0096946Y0068850D01*
X0097668Y0068850D02*
X0098419Y0068850D01*
X0098669Y0069100D01*
X0098419Y0069350D01*
X0097919Y0069350D01*
X0097668Y0069601D01*
X0097919Y0069851D01*
X0098669Y0069851D01*
X0099142Y0069601D02*
X0099392Y0069851D01*
X0099892Y0069851D01*
X0100142Y0069601D01*
X0100142Y0069350D01*
X0099142Y0069350D01*
X0099142Y0069100D02*
X0099142Y0069601D01*
X0099142Y0069100D02*
X0099392Y0068850D01*
X0099892Y0068850D01*
X0100615Y0068850D02*
X0100615Y0069851D01*
X0101115Y0069851D02*
X0101365Y0069851D01*
X0101115Y0069851D02*
X0100615Y0069350D01*
X0101843Y0069851D02*
X0102343Y0068850D01*
X0102843Y0069851D01*
X0103316Y0069601D02*
X0103566Y0069851D01*
X0104066Y0069851D01*
X0104317Y0069601D01*
X0104317Y0069350D01*
X0103316Y0069350D01*
X0103316Y0069100D02*
X0103316Y0069601D01*
X0103316Y0069100D02*
X0103566Y0068850D01*
X0104066Y0068850D01*
X0104789Y0069100D02*
X0104789Y0069601D01*
X0105039Y0069851D01*
X0105790Y0069851D01*
X0105790Y0070351D02*
X0105790Y0068850D01*
X0105039Y0068850D01*
X0104789Y0069100D01*
X0099797Y0062851D02*
X0099797Y0061350D01*
X0099297Y0061350D02*
X0100297Y0061350D01*
X0099297Y0062351D02*
X0099797Y0062851D01*
X0098824Y0062601D02*
X0098824Y0062101D01*
X0098574Y0061850D01*
X0097823Y0061850D01*
X0097823Y0061350D02*
X0097823Y0062851D01*
X0098574Y0062851D01*
X0098824Y0062601D01*
X0097351Y0062851D02*
X0096350Y0062851D01*
X0096850Y0062851D02*
X0096850Y0061350D01*
X0094967Y0068850D02*
X0094967Y0069851D01*
X0089816Y0069851D02*
X0089565Y0069601D01*
X0087360Y0070351D02*
X0087360Y0070601D01*
X0085047Y0062851D02*
X0084547Y0062851D01*
X0084297Y0062601D01*
X0083824Y0062601D02*
X0083824Y0062101D01*
X0083574Y0061850D01*
X0082823Y0061850D01*
X0082823Y0061350D02*
X0082823Y0062851D01*
X0083574Y0062851D01*
X0083824Y0062601D01*
X0085047Y0062851D02*
X0085297Y0062601D01*
X0085297Y0062351D01*
X0084297Y0061350D01*
X0085297Y0061350D01*
X0082351Y0062851D02*
X0081350Y0062851D01*
X0081850Y0062851D02*
X0081850Y0061350D01*
X0081850Y0052851D02*
X0081850Y0051350D01*
X0082823Y0051350D02*
X0082823Y0052851D01*
X0083574Y0052851D01*
X0083824Y0052601D01*
X0083824Y0052101D01*
X0083574Y0051850D01*
X0082823Y0051850D01*
X0082351Y0052851D02*
X0081350Y0052851D01*
X0084297Y0052101D02*
X0085297Y0052101D01*
X0085047Y0052851D02*
X0084297Y0052101D01*
X0085047Y0052851D02*
X0085047Y0051350D01*
X0085297Y0042851D02*
X0084797Y0042601D01*
X0084297Y0042101D01*
X0085047Y0042101D01*
X0085297Y0041850D01*
X0085297Y0041600D01*
X0085047Y0041350D01*
X0084547Y0041350D01*
X0084297Y0041600D01*
X0084297Y0042101D01*
X0083824Y0042101D02*
X0083574Y0041850D01*
X0082823Y0041850D01*
X0082823Y0041350D02*
X0082823Y0042851D01*
X0083574Y0042851D01*
X0083824Y0042601D01*
X0083824Y0042101D01*
X0082351Y0042851D02*
X0081350Y0042851D01*
X0081850Y0042851D02*
X0081850Y0041350D01*
X0081850Y0032851D02*
X0081850Y0031350D01*
X0082823Y0031350D02*
X0082823Y0032851D01*
X0083574Y0032851D01*
X0083824Y0032601D01*
X0083824Y0032101D01*
X0083574Y0031850D01*
X0082823Y0031850D01*
X0082351Y0032851D02*
X0081350Y0032851D01*
X0084297Y0032601D02*
X0084297Y0032351D01*
X0084547Y0032101D01*
X0085047Y0032101D01*
X0085297Y0031850D01*
X0085297Y0031600D01*
X0085047Y0031350D01*
X0084547Y0031350D01*
X0084297Y0031600D01*
X0084297Y0031850D01*
X0084547Y0032101D01*
X0085047Y0032101D02*
X0085297Y0032351D01*
X0085297Y0032601D01*
X0085047Y0032851D01*
X0084547Y0032851D01*
X0084297Y0032601D01*
X0096350Y0032851D02*
X0097351Y0032851D01*
X0097823Y0032851D02*
X0098574Y0032851D01*
X0098824Y0032601D01*
X0098824Y0032101D01*
X0098574Y0031850D01*
X0097823Y0031850D01*
X0097823Y0031350D02*
X0097823Y0032851D01*
X0096850Y0032851D02*
X0096850Y0031350D01*
X0099297Y0031350D02*
X0099297Y0031600D01*
X0100297Y0032601D01*
X0100297Y0032851D01*
X0099297Y0032851D01*
X0099547Y0041350D02*
X0099297Y0041600D01*
X0099547Y0041350D02*
X0100047Y0041350D01*
X0100297Y0041600D01*
X0100297Y0042101D01*
X0100047Y0042351D01*
X0099797Y0042351D01*
X0099297Y0042101D01*
X0099297Y0042851D01*
X0100297Y0042851D01*
X0098824Y0042601D02*
X0098824Y0042101D01*
X0098574Y0041850D01*
X0097823Y0041850D01*
X0097823Y0041350D02*
X0097823Y0042851D01*
X0098574Y0042851D01*
X0098824Y0042601D01*
X0097351Y0042851D02*
X0096350Y0042851D01*
X0096850Y0042851D02*
X0096850Y0041350D01*
X0096850Y0051350D02*
X0096850Y0052851D01*
X0096350Y0052851D02*
X0097351Y0052851D01*
X0097823Y0052851D02*
X0098574Y0052851D01*
X0098824Y0052601D01*
X0098824Y0052101D01*
X0098574Y0051850D01*
X0097823Y0051850D01*
X0097823Y0051350D02*
X0097823Y0052851D01*
X0099297Y0052601D02*
X0099547Y0052851D01*
X0100047Y0052851D01*
X0100297Y0052601D01*
X0100297Y0052351D01*
X0100047Y0052101D01*
X0100297Y0051850D01*
X0100297Y0051600D01*
X0100047Y0051350D01*
X0099547Y0051350D01*
X0099297Y0051600D01*
X0099797Y0052101D02*
X0100047Y0052101D01*
X0100047Y0022851D02*
X0099547Y0022851D01*
X0099297Y0022601D01*
X0099297Y0022351D01*
X0099547Y0022101D01*
X0100297Y0022101D01*
X0100297Y0022601D02*
X0100047Y0022851D01*
X0100297Y0022601D02*
X0100297Y0021600D01*
X0100047Y0021350D01*
X0099547Y0021350D01*
X0099297Y0021600D01*
X0098824Y0022101D02*
X0098574Y0021850D01*
X0097823Y0021850D01*
X0097823Y0021350D02*
X0097823Y0022851D01*
X0098574Y0022851D01*
X0098824Y0022601D01*
X0098824Y0022101D01*
X0097351Y0022851D02*
X0096350Y0022851D01*
X0096850Y0022851D02*
X0096850Y0021350D01*
X0096850Y0012851D02*
X0096850Y0011350D01*
X0097823Y0011350D02*
X0097823Y0012851D01*
X0098574Y0012851D01*
X0098824Y0012601D01*
X0098824Y0012101D01*
X0098574Y0011850D01*
X0097823Y0011850D01*
X0097351Y0012851D02*
X0096350Y0012851D01*
X0099297Y0012351D02*
X0099797Y0012851D01*
X0099797Y0011350D01*
X0099297Y0011350D02*
X0100297Y0011350D01*
X0100770Y0011350D02*
X0101771Y0011350D01*
X0101270Y0011350D02*
X0101270Y0012851D01*
X0100770Y0012351D01*
X0086771Y0012351D02*
X0085770Y0011350D01*
X0086771Y0011350D01*
X0086771Y0012351D02*
X0086771Y0012601D01*
X0086520Y0012851D01*
X0086020Y0012851D01*
X0085770Y0012601D01*
X0084797Y0012851D02*
X0084797Y0011350D01*
X0084297Y0011350D02*
X0085297Y0011350D01*
X0084297Y0012351D02*
X0084797Y0012851D01*
X0083824Y0012601D02*
X0083824Y0012101D01*
X0083574Y0011850D01*
X0082823Y0011850D01*
X0082823Y0011350D02*
X0082823Y0012851D01*
X0083574Y0012851D01*
X0083824Y0012601D01*
X0082351Y0012851D02*
X0081350Y0012851D01*
X0081850Y0012851D02*
X0081850Y0011350D01*
X0081850Y0021350D02*
X0081850Y0022851D01*
X0081350Y0022851D02*
X0082351Y0022851D01*
X0082823Y0022851D02*
X0083574Y0022851D01*
X0083824Y0022601D01*
X0083824Y0022101D01*
X0083574Y0021850D01*
X0082823Y0021850D01*
X0082823Y0021350D02*
X0082823Y0022851D01*
X0084297Y0022351D02*
X0084797Y0022851D01*
X0084797Y0021350D01*
X0084297Y0021350D02*
X0085297Y0021350D01*
X0085770Y0021600D02*
X0086771Y0022601D01*
X0086771Y0021600D01*
X0086520Y0021350D01*
X0086020Y0021350D01*
X0085770Y0021600D01*
X0085770Y0022601D01*
X0086020Y0022851D01*
X0086520Y0022851D01*
X0086771Y0022601D01*
D12*
X0046800Y0059300D02*
X0043300Y0055800D01*
X0039300Y0055800D01*
X0035800Y0059300D01*
X0035800Y0063300D01*
X0039300Y0066800D01*
X0043300Y0066800D01*
X0046800Y0063300D01*
X0046800Y0059300D01*
D13*
X0058505Y0039587D02*
X0034095Y0039587D01*
X0033013Y0038505D01*
X0033013Y0014095D01*
X0034095Y0013013D01*
X0058505Y0013013D01*
X0059587Y0014095D01*
X0059587Y0038505D01*
X0058505Y0039587D01*
X0051812Y0034174D02*
X0051814Y0034271D01*
X0051820Y0034368D01*
X0051830Y0034464D01*
X0051844Y0034560D01*
X0051862Y0034656D01*
X0051883Y0034750D01*
X0051909Y0034844D01*
X0051938Y0034936D01*
X0051972Y0035027D01*
X0052008Y0035117D01*
X0052049Y0035205D01*
X0052093Y0035291D01*
X0052141Y0035376D01*
X0052192Y0035458D01*
X0052246Y0035539D01*
X0052304Y0035617D01*
X0052365Y0035692D01*
X0052428Y0035765D01*
X0052495Y0035836D01*
X0052565Y0035903D01*
X0052637Y0035968D01*
X0052712Y0036029D01*
X0052790Y0036088D01*
X0052869Y0036143D01*
X0052951Y0036195D01*
X0053035Y0036243D01*
X0053121Y0036288D01*
X0053209Y0036330D01*
X0053298Y0036368D01*
X0053389Y0036402D01*
X0053481Y0036432D01*
X0053574Y0036459D01*
X0053669Y0036481D01*
X0053764Y0036500D01*
X0053860Y0036515D01*
X0053956Y0036526D01*
X0054053Y0036533D01*
X0054150Y0036536D01*
X0054247Y0036535D01*
X0054344Y0036530D01*
X0054440Y0036521D01*
X0054536Y0036508D01*
X0054632Y0036491D01*
X0054727Y0036470D01*
X0054820Y0036446D01*
X0054913Y0036417D01*
X0055005Y0036385D01*
X0055095Y0036349D01*
X0055183Y0036310D01*
X0055270Y0036266D01*
X0055355Y0036220D01*
X0055438Y0036169D01*
X0055519Y0036116D01*
X0055597Y0036059D01*
X0055674Y0035999D01*
X0055747Y0035936D01*
X0055818Y0035870D01*
X0055886Y0035801D01*
X0055952Y0035729D01*
X0056014Y0035655D01*
X0056073Y0035578D01*
X0056129Y0035499D01*
X0056182Y0035417D01*
X0056232Y0035334D01*
X0056277Y0035248D01*
X0056320Y0035161D01*
X0056359Y0035072D01*
X0056394Y0034982D01*
X0056425Y0034890D01*
X0056452Y0034797D01*
X0056476Y0034703D01*
X0056496Y0034608D01*
X0056512Y0034512D01*
X0056524Y0034416D01*
X0056532Y0034319D01*
X0056536Y0034222D01*
X0056536Y0034126D01*
X0056532Y0034029D01*
X0056524Y0033932D01*
X0056512Y0033836D01*
X0056496Y0033740D01*
X0056476Y0033645D01*
X0056452Y0033551D01*
X0056425Y0033458D01*
X0056394Y0033366D01*
X0056359Y0033276D01*
X0056320Y0033187D01*
X0056277Y0033100D01*
X0056232Y0033014D01*
X0056182Y0032931D01*
X0056129Y0032849D01*
X0056073Y0032770D01*
X0056014Y0032693D01*
X0055952Y0032619D01*
X0055886Y0032547D01*
X0055818Y0032478D01*
X0055747Y0032412D01*
X0055674Y0032349D01*
X0055597Y0032289D01*
X0055519Y0032232D01*
X0055438Y0032179D01*
X0055355Y0032128D01*
X0055270Y0032082D01*
X0055183Y0032038D01*
X0055095Y0031999D01*
X0055005Y0031963D01*
X0054913Y0031931D01*
X0054820Y0031902D01*
X0054727Y0031878D01*
X0054632Y0031857D01*
X0054536Y0031840D01*
X0054440Y0031827D01*
X0054344Y0031818D01*
X0054247Y0031813D01*
X0054150Y0031812D01*
X0054053Y0031815D01*
X0053956Y0031822D01*
X0053860Y0031833D01*
X0053764Y0031848D01*
X0053669Y0031867D01*
X0053574Y0031889D01*
X0053481Y0031916D01*
X0053389Y0031946D01*
X0053298Y0031980D01*
X0053209Y0032018D01*
X0053121Y0032060D01*
X0053035Y0032105D01*
X0052951Y0032153D01*
X0052869Y0032205D01*
X0052790Y0032260D01*
X0052712Y0032319D01*
X0052637Y0032380D01*
X0052565Y0032445D01*
X0052495Y0032512D01*
X0052428Y0032583D01*
X0052365Y0032656D01*
X0052304Y0032731D01*
X0052246Y0032809D01*
X0052192Y0032890D01*
X0052141Y0032972D01*
X0052093Y0033057D01*
X0052049Y0033143D01*
X0052008Y0033231D01*
X0051972Y0033321D01*
X0051938Y0033412D01*
X0051909Y0033504D01*
X0051883Y0033598D01*
X0051862Y0033692D01*
X0051844Y0033788D01*
X0051830Y0033884D01*
X0051820Y0033980D01*
X0051814Y0034077D01*
X0051812Y0034174D01*
D14*
X0050361Y0021104D02*
X0050361Y0017267D01*
X0049594Y0016500D01*
X0048059Y0016500D01*
X0047292Y0017267D01*
X0047292Y0021104D01*
X0051896Y0019569D02*
X0053431Y0021104D01*
X0053431Y0016500D01*
X0054965Y0016500D02*
X0051896Y0016500D01*
X0029965Y0006500D02*
X0026896Y0006500D01*
X0028431Y0006500D02*
X0028431Y0011104D01*
X0026896Y0009569D01*
X0025361Y0010337D02*
X0024594Y0011104D01*
X0023059Y0011104D01*
X0022292Y0010337D01*
X0022292Y0007267D01*
X0023059Y0006500D01*
X0024594Y0006500D01*
X0025361Y0007267D01*
M02*
