G75*
%MOIN*%
%OFA0B0*%
%FSLAX25Y25*%
%IPPOS*%
%LPD*%
%AMOC8*
5,1,8,0,0,1.08239X$1,22.5*
%
%ADD10OC8,0.08500*%
%ADD11R,0.03200X0.03200*%
%ADD12C,0.00600*%
%ADD13C,0.02700*%
D10*
X0041300Y0061300D03*
D11*
X0061300Y0061300D03*
X0076300Y0061300D03*
X0076300Y0051300D03*
X0076300Y0041300D03*
X0076300Y0031300D03*
X0076300Y0021300D03*
X0076300Y0011300D03*
X0091300Y0011300D03*
X0091300Y0021300D03*
X0091300Y0031300D03*
X0091300Y0041300D03*
X0091300Y0051300D03*
X0091300Y0061300D03*
X0021300Y0061300D03*
X0011300Y0061300D03*
X0011300Y0051300D03*
X0011300Y0041300D03*
X0011300Y0031300D03*
X0011300Y0021300D03*
D12*
X0002200Y0002200D02*
X0002200Y0071300D01*
X0100321Y0071300D01*
X0100321Y0002200D01*
X0002200Y0002200D01*
X0002200Y0002497D02*
X0100321Y0002497D01*
X0100321Y0003096D02*
X0002200Y0003096D01*
X0002200Y0003694D02*
X0100321Y0003694D01*
X0100321Y0004293D02*
X0002200Y0004293D01*
X0002200Y0004891D02*
X0100321Y0004891D01*
X0100321Y0005490D02*
X0002200Y0005490D01*
X0002200Y0006088D02*
X0100321Y0006088D01*
X0100321Y0006687D02*
X0002200Y0006687D01*
X0002200Y0007285D02*
X0100321Y0007285D01*
X0100321Y0007884D02*
X0002200Y0007884D01*
X0002200Y0008482D02*
X0100321Y0008482D01*
X0100321Y0009081D02*
X0093846Y0009081D01*
X0094007Y0009241D02*
X0093359Y0008593D01*
X0089241Y0008593D01*
X0088593Y0009241D01*
X0088593Y0013359D01*
X0089241Y0014007D01*
X0093359Y0014007D01*
X0094007Y0013359D01*
X0094007Y0009241D01*
X0094007Y0009679D02*
X0100321Y0009679D01*
X0100321Y0010278D02*
X0094007Y0010278D01*
X0094007Y0010876D02*
X0100321Y0010876D01*
X0100321Y0011475D02*
X0094007Y0011475D01*
X0094007Y0012073D02*
X0100321Y0012073D01*
X0100321Y0012672D02*
X0094007Y0012672D01*
X0094007Y0013270D02*
X0100321Y0013270D01*
X0100321Y0013869D02*
X0093497Y0013869D01*
X0089103Y0013869D02*
X0078497Y0013869D01*
X0078359Y0014007D02*
X0074241Y0014007D01*
X0073593Y0013359D01*
X0073593Y0009241D01*
X0074241Y0008593D01*
X0078359Y0008593D01*
X0079007Y0009241D01*
X0079007Y0013359D01*
X0078359Y0014007D01*
X0079007Y0013270D02*
X0088593Y0013270D01*
X0088593Y0012672D02*
X0079007Y0012672D01*
X0079007Y0012073D02*
X0088593Y0012073D01*
X0088593Y0011475D02*
X0079007Y0011475D01*
X0079007Y0010876D02*
X0088593Y0010876D01*
X0088593Y0010278D02*
X0079007Y0010278D01*
X0079007Y0009679D02*
X0088593Y0009679D01*
X0088754Y0009081D02*
X0078846Y0009081D01*
X0073754Y0009081D02*
X0002200Y0009081D01*
X0002200Y0009679D02*
X0073593Y0009679D01*
X0073593Y0010278D02*
X0002200Y0010278D01*
X0002200Y0010876D02*
X0073593Y0010876D01*
X0073593Y0011475D02*
X0002200Y0011475D01*
X0002200Y0012073D02*
X0073593Y0012073D01*
X0073593Y0012672D02*
X0002200Y0012672D01*
X0002200Y0013270D02*
X0073593Y0013270D01*
X0074103Y0013869D02*
X0002200Y0013869D01*
X0002200Y0014467D02*
X0100321Y0014467D01*
X0100321Y0015066D02*
X0002200Y0015066D01*
X0002200Y0015664D02*
X0100321Y0015664D01*
X0100321Y0016263D02*
X0002200Y0016263D01*
X0002200Y0016861D02*
X0100321Y0016861D01*
X0100321Y0017460D02*
X0002200Y0017460D01*
X0002200Y0018058D02*
X0100321Y0018058D01*
X0100321Y0018657D02*
X0093422Y0018657D01*
X0093359Y0018593D02*
X0094007Y0019241D01*
X0094007Y0023359D01*
X0093359Y0024007D01*
X0089241Y0024007D01*
X0088593Y0023359D01*
X0088593Y0019241D01*
X0089241Y0018593D01*
X0093359Y0018593D01*
X0094007Y0019255D02*
X0100321Y0019255D01*
X0100321Y0019854D02*
X0094007Y0019854D01*
X0094007Y0020452D02*
X0100321Y0020452D01*
X0100321Y0021051D02*
X0094007Y0021051D01*
X0094007Y0021649D02*
X0100321Y0021649D01*
X0100321Y0022248D02*
X0094007Y0022248D01*
X0094007Y0022846D02*
X0100321Y0022846D01*
X0100321Y0023445D02*
X0093921Y0023445D01*
X0100321Y0024043D02*
X0013520Y0024043D01*
X0013402Y0024111D02*
X0013071Y0024200D01*
X0011500Y0024200D01*
X0011500Y0021500D01*
X0011100Y0021500D01*
X0011100Y0024200D01*
X0009529Y0024200D01*
X0009198Y0024111D01*
X0008902Y0023940D01*
X0008660Y0023698D01*
X0008489Y0023402D01*
X0008400Y0023071D01*
X0008400Y0021500D01*
X0011100Y0021500D01*
X0011100Y0021100D01*
X0011500Y0021100D01*
X0011500Y0021500D01*
X0014200Y0021500D01*
X0014200Y0023071D01*
X0014111Y0023402D01*
X0013940Y0023698D01*
X0013698Y0023940D01*
X0013402Y0024111D01*
X0014086Y0023445D02*
X0073679Y0023445D01*
X0073593Y0023359D02*
X0073593Y0019241D01*
X0074241Y0018593D01*
X0078359Y0018593D01*
X0079007Y0019241D01*
X0079007Y0023359D01*
X0078359Y0024007D01*
X0074241Y0024007D01*
X0073593Y0023359D01*
X0073593Y0022846D02*
X0014200Y0022846D01*
X0014200Y0022248D02*
X0073593Y0022248D01*
X0073593Y0021649D02*
X0014200Y0021649D01*
X0014200Y0021100D02*
X0014200Y0019529D01*
X0014111Y0019198D01*
X0013940Y0018902D01*
X0013698Y0018660D01*
X0013402Y0018489D01*
X0013071Y0018400D01*
X0011500Y0018400D01*
X0011500Y0021100D01*
X0014200Y0021100D01*
X0014200Y0021051D02*
X0073593Y0021051D01*
X0073593Y0020452D02*
X0014200Y0020452D01*
X0014200Y0019854D02*
X0073593Y0019854D01*
X0073593Y0019255D02*
X0014127Y0019255D01*
X0013693Y0018657D02*
X0074178Y0018657D01*
X0078422Y0018657D02*
X0089178Y0018657D01*
X0088593Y0019255D02*
X0079007Y0019255D01*
X0079007Y0019854D02*
X0088593Y0019854D01*
X0088593Y0020452D02*
X0079007Y0020452D01*
X0079007Y0021051D02*
X0088593Y0021051D01*
X0088593Y0021649D02*
X0079007Y0021649D01*
X0079007Y0022248D02*
X0088593Y0022248D01*
X0088593Y0022846D02*
X0079007Y0022846D01*
X0078921Y0023445D02*
X0088679Y0023445D01*
X0089241Y0028593D02*
X0088593Y0029241D01*
X0088593Y0033359D01*
X0089241Y0034007D01*
X0093359Y0034007D01*
X0094007Y0033359D01*
X0094007Y0029241D01*
X0093359Y0028593D01*
X0089241Y0028593D01*
X0089003Y0028832D02*
X0078597Y0028832D01*
X0078359Y0028593D02*
X0079007Y0029241D01*
X0079007Y0033359D01*
X0078359Y0034007D01*
X0074241Y0034007D01*
X0073593Y0033359D01*
X0073593Y0029241D01*
X0074241Y0028593D01*
X0078359Y0028593D01*
X0079007Y0029430D02*
X0088593Y0029430D01*
X0088593Y0030029D02*
X0079007Y0030029D01*
X0079007Y0030627D02*
X0088593Y0030627D01*
X0088593Y0031226D02*
X0079007Y0031226D01*
X0079007Y0031824D02*
X0088593Y0031824D01*
X0088593Y0032423D02*
X0079007Y0032423D01*
X0079007Y0033021D02*
X0088593Y0033021D01*
X0088854Y0033620D02*
X0078746Y0033620D01*
X0073854Y0033620D02*
X0013746Y0033620D01*
X0014007Y0033359D02*
X0013359Y0034007D01*
X0009241Y0034007D01*
X0008593Y0033359D01*
X0008593Y0029241D01*
X0009241Y0028593D01*
X0013359Y0028593D01*
X0014007Y0029241D01*
X0014007Y0033359D01*
X0014007Y0033021D02*
X0073593Y0033021D01*
X0073593Y0032423D02*
X0014007Y0032423D01*
X0014007Y0031824D02*
X0073593Y0031824D01*
X0073593Y0031226D02*
X0014007Y0031226D01*
X0014007Y0030627D02*
X0073593Y0030627D01*
X0073593Y0030029D02*
X0014007Y0030029D01*
X0014007Y0029430D02*
X0073593Y0029430D01*
X0074003Y0028832D02*
X0013597Y0028832D01*
X0009003Y0028832D02*
X0002200Y0028832D01*
X0002200Y0029430D02*
X0008593Y0029430D01*
X0008593Y0030029D02*
X0002200Y0030029D01*
X0002200Y0030627D02*
X0008593Y0030627D01*
X0008593Y0031226D02*
X0002200Y0031226D01*
X0002200Y0031824D02*
X0008593Y0031824D01*
X0008593Y0032423D02*
X0002200Y0032423D01*
X0002200Y0033021D02*
X0008593Y0033021D01*
X0008854Y0033620D02*
X0002200Y0033620D01*
X0002200Y0034218D02*
X0100321Y0034218D01*
X0100321Y0033620D02*
X0093746Y0033620D01*
X0094007Y0033021D02*
X0100321Y0033021D01*
X0100321Y0032423D02*
X0094007Y0032423D01*
X0094007Y0031824D02*
X0100321Y0031824D01*
X0100321Y0031226D02*
X0094007Y0031226D01*
X0094007Y0030627D02*
X0100321Y0030627D01*
X0100321Y0030029D02*
X0094007Y0030029D01*
X0094007Y0029430D02*
X0100321Y0029430D01*
X0100321Y0028832D02*
X0093597Y0028832D01*
X0100321Y0028233D02*
X0002200Y0028233D01*
X0002200Y0027634D02*
X0100321Y0027634D01*
X0100321Y0027036D02*
X0002200Y0027036D01*
X0002200Y0026437D02*
X0100321Y0026437D01*
X0100321Y0025839D02*
X0002200Y0025839D01*
X0002200Y0025240D02*
X0100321Y0025240D01*
X0100321Y0024642D02*
X0002200Y0024642D01*
X0002200Y0024043D02*
X0009080Y0024043D01*
X0008514Y0023445D02*
X0002200Y0023445D01*
X0002200Y0022846D02*
X0008400Y0022846D01*
X0008400Y0022248D02*
X0002200Y0022248D01*
X0002200Y0021649D02*
X0008400Y0021649D01*
X0008400Y0021100D02*
X0008400Y0019529D01*
X0008489Y0019198D01*
X0008660Y0018902D01*
X0008902Y0018660D01*
X0009198Y0018489D01*
X0009529Y0018400D01*
X0011100Y0018400D01*
X0011100Y0021100D01*
X0008400Y0021100D01*
X0008400Y0021051D02*
X0002200Y0021051D01*
X0002200Y0020452D02*
X0008400Y0020452D01*
X0008400Y0019854D02*
X0002200Y0019854D01*
X0002200Y0019255D02*
X0008473Y0019255D01*
X0008907Y0018657D02*
X0002200Y0018657D01*
X0011100Y0018657D02*
X0011500Y0018657D01*
X0011500Y0019255D02*
X0011100Y0019255D01*
X0011100Y0019854D02*
X0011500Y0019854D01*
X0011500Y0020452D02*
X0011100Y0020452D01*
X0011100Y0021051D02*
X0011500Y0021051D01*
X0011500Y0021649D02*
X0011100Y0021649D01*
X0011100Y0022248D02*
X0011500Y0022248D01*
X0011500Y0022846D02*
X0011100Y0022846D01*
X0011100Y0023445D02*
X0011500Y0023445D01*
X0011500Y0024043D02*
X0011100Y0024043D01*
X0002200Y0034817D02*
X0100321Y0034817D01*
X0100321Y0035415D02*
X0002200Y0035415D01*
X0002200Y0036014D02*
X0100321Y0036014D01*
X0100321Y0036612D02*
X0002200Y0036612D01*
X0002200Y0037211D02*
X0100321Y0037211D01*
X0100321Y0037809D02*
X0002200Y0037809D01*
X0002200Y0038408D02*
X0100321Y0038408D01*
X0100321Y0039006D02*
X0093772Y0039006D01*
X0094007Y0039241D02*
X0093359Y0038593D01*
X0089241Y0038593D01*
X0088593Y0039241D01*
X0088593Y0043359D01*
X0089241Y0044007D01*
X0093359Y0044007D01*
X0094007Y0043359D01*
X0094007Y0039241D01*
X0094007Y0039605D02*
X0100321Y0039605D01*
X0100321Y0040203D02*
X0094007Y0040203D01*
X0094007Y0040802D02*
X0100321Y0040802D01*
X0100321Y0041400D02*
X0094007Y0041400D01*
X0094007Y0041999D02*
X0100321Y0041999D01*
X0100321Y0042597D02*
X0094007Y0042597D01*
X0094007Y0043196D02*
X0100321Y0043196D01*
X0100321Y0043794D02*
X0093571Y0043794D01*
X0089029Y0043794D02*
X0078571Y0043794D01*
X0078359Y0044007D02*
X0074241Y0044007D01*
X0073593Y0043359D01*
X0073593Y0039241D01*
X0074241Y0038593D01*
X0078359Y0038593D01*
X0079007Y0039241D01*
X0079007Y0043359D01*
X0078359Y0044007D01*
X0079007Y0043196D02*
X0088593Y0043196D01*
X0088593Y0042597D02*
X0079007Y0042597D01*
X0079007Y0041999D02*
X0088593Y0041999D01*
X0088593Y0041400D02*
X0079007Y0041400D01*
X0079007Y0040802D02*
X0088593Y0040802D01*
X0088593Y0040203D02*
X0079007Y0040203D01*
X0079007Y0039605D02*
X0088593Y0039605D01*
X0088828Y0039006D02*
X0078772Y0039006D01*
X0073828Y0039006D02*
X0013772Y0039006D01*
X0014007Y0039241D02*
X0013359Y0038593D01*
X0009241Y0038593D01*
X0008593Y0039241D01*
X0008593Y0043359D01*
X0009241Y0044007D01*
X0013359Y0044007D01*
X0014007Y0043359D01*
X0014007Y0039241D01*
X0014007Y0039605D02*
X0073593Y0039605D01*
X0073593Y0040203D02*
X0014007Y0040203D01*
X0014007Y0040802D02*
X0073593Y0040802D01*
X0073593Y0041400D02*
X0014007Y0041400D01*
X0014007Y0041999D02*
X0073593Y0041999D01*
X0073593Y0042597D02*
X0014007Y0042597D01*
X0014007Y0043196D02*
X0073593Y0043196D01*
X0074029Y0043794D02*
X0013571Y0043794D01*
X0009029Y0043794D02*
X0002200Y0043794D01*
X0002200Y0043196D02*
X0008593Y0043196D01*
X0008593Y0042597D02*
X0002200Y0042597D01*
X0002200Y0041999D02*
X0008593Y0041999D01*
X0008593Y0041400D02*
X0002200Y0041400D01*
X0002200Y0040802D02*
X0008593Y0040802D01*
X0008593Y0040203D02*
X0002200Y0040203D01*
X0002200Y0039605D02*
X0008593Y0039605D01*
X0008828Y0039006D02*
X0002200Y0039006D01*
X0002200Y0044393D02*
X0100321Y0044393D01*
X0100321Y0044991D02*
X0002200Y0044991D01*
X0002200Y0045590D02*
X0100321Y0045590D01*
X0100321Y0046188D02*
X0002200Y0046188D01*
X0002200Y0046787D02*
X0100321Y0046787D01*
X0100321Y0047385D02*
X0002200Y0047385D01*
X0002200Y0047984D02*
X0100321Y0047984D01*
X0100321Y0048582D02*
X0002200Y0048582D01*
X0002200Y0049181D02*
X0008653Y0049181D01*
X0008593Y0049241D02*
X0009241Y0048593D01*
X0013359Y0048593D01*
X0014007Y0049241D01*
X0014007Y0053359D01*
X0013359Y0054007D01*
X0009241Y0054007D01*
X0008593Y0053359D01*
X0008593Y0049241D01*
X0008593Y0049779D02*
X0002200Y0049779D01*
X0002200Y0050378D02*
X0008593Y0050378D01*
X0008593Y0050976D02*
X0002200Y0050976D01*
X0002200Y0051575D02*
X0008593Y0051575D01*
X0008593Y0052173D02*
X0002200Y0052173D01*
X0002200Y0052772D02*
X0008593Y0052772D01*
X0008605Y0053370D02*
X0002200Y0053370D01*
X0002200Y0053969D02*
X0009203Y0053969D01*
X0013397Y0053969D02*
X0063939Y0053969D01*
X0063341Y0053370D02*
X0037782Y0053370D01*
X0037869Y0053335D02*
X0036966Y0053709D01*
X0035988Y0053709D01*
X0035085Y0053335D01*
X0034394Y0052643D01*
X0034020Y0051740D01*
X0034020Y0050763D01*
X0034394Y0049860D01*
X0035085Y0049169D01*
X0035988Y0048794D01*
X0036966Y0048794D01*
X0037869Y0049169D01*
X0038545Y0049844D01*
X0062629Y0049844D01*
X0063795Y0049844D01*
X0073593Y0059643D01*
X0073593Y0059241D01*
X0074241Y0058593D01*
X0078359Y0058593D01*
X0079007Y0059241D01*
X0079007Y0063359D01*
X0078359Y0064007D01*
X0074241Y0064007D01*
X0073593Y0063359D01*
X0073593Y0062508D01*
X0072479Y0062508D01*
X0071654Y0061684D01*
X0062629Y0052659D01*
X0038545Y0052659D01*
X0037869Y0053335D01*
X0038432Y0052772D02*
X0062742Y0052772D01*
X0063212Y0051252D02*
X0073061Y0061101D01*
X0075876Y0061101D01*
X0076300Y0061300D01*
X0079007Y0061151D02*
X0088593Y0061151D01*
X0088593Y0060553D02*
X0079007Y0060553D01*
X0079007Y0059954D02*
X0088593Y0059954D01*
X0088593Y0059356D02*
X0079007Y0059356D01*
X0078523Y0058757D02*
X0089077Y0058757D01*
X0089241Y0058593D02*
X0093359Y0058593D01*
X0094007Y0059241D01*
X0094007Y0063359D01*
X0093359Y0064007D01*
X0089241Y0064007D01*
X0088593Y0063359D01*
X0088593Y0059241D01*
X0089241Y0058593D01*
X0088593Y0061750D02*
X0079007Y0061750D01*
X0079007Y0062348D02*
X0088593Y0062348D01*
X0088593Y0062947D02*
X0079007Y0062947D01*
X0078820Y0063545D02*
X0088780Y0063545D01*
X0093820Y0063545D02*
X0100321Y0063545D01*
X0100321Y0062947D02*
X0094007Y0062947D01*
X0094007Y0062348D02*
X0100321Y0062348D01*
X0100321Y0061750D02*
X0094007Y0061750D01*
X0094007Y0061151D02*
X0100321Y0061151D01*
X0100321Y0060553D02*
X0094007Y0060553D01*
X0094007Y0059954D02*
X0100321Y0059954D01*
X0100321Y0059356D02*
X0094007Y0059356D01*
X0093523Y0058757D02*
X0100321Y0058757D01*
X0100321Y0058159D02*
X0072109Y0058159D01*
X0072707Y0058757D02*
X0074077Y0058757D01*
X0073593Y0059356D02*
X0073306Y0059356D01*
X0071121Y0061151D02*
X0064007Y0061151D01*
X0064007Y0060553D02*
X0070523Y0060553D01*
X0069924Y0059954D02*
X0064007Y0059954D01*
X0064007Y0059356D02*
X0069326Y0059356D01*
X0068727Y0058757D02*
X0063523Y0058757D01*
X0063359Y0058593D02*
X0064007Y0059241D01*
X0064007Y0063359D01*
X0063359Y0064007D01*
X0059241Y0064007D01*
X0058593Y0063359D01*
X0058593Y0059241D01*
X0059241Y0058593D01*
X0063359Y0058593D01*
X0064007Y0061750D02*
X0071720Y0061750D01*
X0072318Y0062348D02*
X0064007Y0062348D01*
X0064007Y0062947D02*
X0073593Y0062947D01*
X0073780Y0063545D02*
X0063820Y0063545D01*
X0058780Y0063545D02*
X0046631Y0063545D01*
X0046657Y0063519D02*
X0043519Y0066657D01*
X0039081Y0066657D01*
X0035943Y0063519D01*
X0035943Y0062508D01*
X0024007Y0062508D01*
X0024007Y0063359D01*
X0023359Y0064007D01*
X0019241Y0064007D01*
X0018593Y0063359D01*
X0018593Y0059241D01*
X0019241Y0058593D01*
X0023359Y0058593D01*
X0024007Y0059241D01*
X0024007Y0059694D01*
X0035943Y0059694D01*
X0035943Y0059081D01*
X0039081Y0055943D01*
X0043519Y0055943D01*
X0046657Y0059081D01*
X0046657Y0063519D01*
X0046657Y0062947D02*
X0058593Y0062947D01*
X0058593Y0062348D02*
X0046657Y0062348D01*
X0046657Y0061750D02*
X0058593Y0061750D01*
X0058593Y0061151D02*
X0046657Y0061151D01*
X0046657Y0060553D02*
X0058593Y0060553D01*
X0058593Y0059954D02*
X0046657Y0059954D01*
X0046657Y0059356D02*
X0058593Y0059356D01*
X0059077Y0058757D02*
X0046333Y0058757D01*
X0045735Y0058159D02*
X0068129Y0058159D01*
X0067530Y0057560D02*
X0045136Y0057560D01*
X0044538Y0056962D02*
X0066932Y0056962D01*
X0066333Y0056363D02*
X0043939Y0056363D01*
X0038661Y0056363D02*
X0002200Y0056363D01*
X0002200Y0055765D02*
X0065735Y0055765D01*
X0065136Y0055166D02*
X0002200Y0055166D01*
X0002200Y0054568D02*
X0064538Y0054568D01*
X0066722Y0052772D02*
X0073593Y0052772D01*
X0073593Y0053359D02*
X0073593Y0049241D01*
X0074241Y0048593D01*
X0078359Y0048593D01*
X0079007Y0049241D01*
X0079007Y0053359D01*
X0078359Y0054007D01*
X0074241Y0054007D01*
X0073593Y0053359D01*
X0073605Y0053370D02*
X0067321Y0053370D01*
X0067919Y0053969D02*
X0074203Y0053969D01*
X0073593Y0052173D02*
X0066124Y0052173D01*
X0065525Y0051575D02*
X0073593Y0051575D01*
X0073593Y0050976D02*
X0064927Y0050976D01*
X0064328Y0050378D02*
X0073593Y0050378D01*
X0073593Y0049779D02*
X0038480Y0049779D01*
X0037881Y0049181D02*
X0073653Y0049181D01*
X0078947Y0049181D02*
X0088653Y0049181D01*
X0088593Y0049241D02*
X0089241Y0048593D01*
X0093359Y0048593D01*
X0094007Y0049241D01*
X0094007Y0053359D01*
X0093359Y0054007D01*
X0089241Y0054007D01*
X0088593Y0053359D01*
X0088593Y0049241D01*
X0088593Y0049779D02*
X0079007Y0049779D01*
X0079007Y0050378D02*
X0088593Y0050378D01*
X0088593Y0050976D02*
X0079007Y0050976D01*
X0079007Y0051575D02*
X0088593Y0051575D01*
X0088593Y0052173D02*
X0079007Y0052173D01*
X0079007Y0052772D02*
X0088593Y0052772D01*
X0088605Y0053370D02*
X0078995Y0053370D01*
X0078397Y0053969D02*
X0089203Y0053969D01*
X0093397Y0053969D02*
X0100321Y0053969D01*
X0100321Y0054568D02*
X0068518Y0054568D01*
X0069116Y0055166D02*
X0100321Y0055166D01*
X0100321Y0055765D02*
X0069715Y0055765D01*
X0070313Y0056363D02*
X0100321Y0056363D01*
X0100321Y0056962D02*
X0070912Y0056962D01*
X0071510Y0057560D02*
X0100321Y0057560D01*
X0100321Y0053370D02*
X0093995Y0053370D01*
X0094007Y0052772D02*
X0100321Y0052772D01*
X0100321Y0052173D02*
X0094007Y0052173D01*
X0094007Y0051575D02*
X0100321Y0051575D01*
X0100321Y0050976D02*
X0094007Y0050976D01*
X0094007Y0050378D02*
X0100321Y0050378D01*
X0100321Y0049779D02*
X0094007Y0049779D01*
X0093947Y0049181D02*
X0100321Y0049181D01*
X0100321Y0064144D02*
X0046032Y0064144D01*
X0045434Y0064742D02*
X0100321Y0064742D01*
X0100321Y0065341D02*
X0044835Y0065341D01*
X0044237Y0065939D02*
X0100321Y0065939D01*
X0100321Y0066538D02*
X0043638Y0066538D01*
X0038962Y0066538D02*
X0002200Y0066538D01*
X0002200Y0067136D02*
X0100321Y0067136D01*
X0100321Y0067735D02*
X0002200Y0067735D01*
X0002200Y0068333D02*
X0100321Y0068333D01*
X0100321Y0068932D02*
X0002200Y0068932D01*
X0002200Y0069530D02*
X0100321Y0069530D01*
X0100321Y0070129D02*
X0002200Y0070129D01*
X0002200Y0070727D02*
X0100321Y0070727D01*
X0063212Y0051252D02*
X0036477Y0051252D01*
X0035172Y0053370D02*
X0013995Y0053370D01*
X0014007Y0052772D02*
X0034523Y0052772D01*
X0034199Y0052173D02*
X0014007Y0052173D01*
X0014007Y0051575D02*
X0034020Y0051575D01*
X0034020Y0050976D02*
X0014007Y0050976D01*
X0014007Y0050378D02*
X0034180Y0050378D01*
X0034474Y0049779D02*
X0014007Y0049779D01*
X0013947Y0049181D02*
X0035073Y0049181D01*
X0038062Y0056962D02*
X0002200Y0056962D01*
X0002200Y0057560D02*
X0037464Y0057560D01*
X0036865Y0058159D02*
X0002200Y0058159D01*
X0002200Y0058757D02*
X0009077Y0058757D01*
X0009241Y0058593D02*
X0013359Y0058593D01*
X0014007Y0059241D01*
X0014007Y0063359D01*
X0013359Y0064007D01*
X0009241Y0064007D01*
X0008593Y0063359D01*
X0008593Y0059241D01*
X0009241Y0058593D01*
X0008593Y0059356D02*
X0002200Y0059356D01*
X0002200Y0059954D02*
X0008593Y0059954D01*
X0008593Y0060553D02*
X0002200Y0060553D01*
X0002200Y0061151D02*
X0008593Y0061151D01*
X0008593Y0061750D02*
X0002200Y0061750D01*
X0002200Y0062348D02*
X0008593Y0062348D01*
X0008593Y0062947D02*
X0002200Y0062947D01*
X0002200Y0063545D02*
X0008780Y0063545D01*
X0013820Y0063545D02*
X0018780Y0063545D01*
X0018593Y0062947D02*
X0014007Y0062947D01*
X0014007Y0062348D02*
X0018593Y0062348D01*
X0018593Y0061750D02*
X0014007Y0061750D01*
X0014007Y0061151D02*
X0018593Y0061151D01*
X0018593Y0060553D02*
X0014007Y0060553D01*
X0014007Y0059954D02*
X0018593Y0059954D01*
X0018593Y0059356D02*
X0014007Y0059356D01*
X0013523Y0058757D02*
X0019077Y0058757D01*
X0021300Y0061300D02*
X0021703Y0061101D01*
X0040698Y0061101D01*
X0041300Y0061300D01*
X0037765Y0065341D02*
X0002200Y0065341D01*
X0002200Y0065939D02*
X0038363Y0065939D01*
X0037166Y0064742D02*
X0002200Y0064742D01*
X0002200Y0064144D02*
X0036568Y0064144D01*
X0035969Y0063545D02*
X0023820Y0063545D01*
X0024007Y0062947D02*
X0035943Y0062947D01*
X0035943Y0059356D02*
X0024007Y0059356D01*
X0023523Y0058757D02*
X0036267Y0058757D01*
D13*
X0036477Y0051252D03*
M02*
