G75*
%MOIN*%
%OFA0B0*%
%FSLAX25Y25*%
%IPPOS*%
%LPD*%
%AMOC8*
5,1,8,0,0,1.08239X$1,22.5*
%
%ADD10R,0.05131X0.04737*%
%ADD11R,0.05918X0.06706*%
%ADD12OC8,0.09300*%
%ADD13R,0.03556X0.04343*%
%ADD14R,0.04343X0.03556*%
%ADD15R,0.04000X0.04000*%
%ADD16R,0.01378X0.03150*%
%ADD17R,0.20866X0.13091*%
%ADD18R,0.03150X0.01378*%
%ADD19R,0.05524X0.05524*%
%ADD20C,0.05524*%
%ADD21R,0.08477X0.08477*%
%ADD22R,0.05524X0.04737*%
%ADD23R,0.04343X0.07099*%
%ADD24C,0.03500*%
D10*
X0022142Y0126300D03*
X0028835Y0126300D03*
D11*
X0014248Y0023800D03*
X0021728Y0023800D03*
D12*
X0012988Y0083800D03*
D13*
X0030429Y0058800D03*
X0035547Y0058800D03*
X0035547Y0043800D03*
X0030429Y0043800D03*
X0065429Y0041300D03*
X0070547Y0041300D03*
X0070547Y0053800D03*
X0065429Y0053800D03*
X0065429Y0068800D03*
X0070547Y0068800D03*
X0070547Y0081300D03*
X0065429Y0081300D03*
X0065429Y0096300D03*
X0070547Y0096300D03*
X0070547Y0108800D03*
X0065429Y0108800D03*
X0065429Y0121300D03*
X0070547Y0121300D03*
X0048047Y0126300D03*
X0042929Y0126300D03*
X0065429Y0026300D03*
X0070547Y0026300D03*
X0070547Y0013800D03*
X0065429Y0013800D03*
D14*
X0012988Y0066241D03*
X0012988Y0071359D03*
D15*
X0012988Y0058800D03*
X0012988Y0053800D03*
X0012988Y0048800D03*
X0012988Y0043800D03*
X0012988Y0038800D03*
X0012988Y0093800D03*
X0012988Y0128800D03*
X0157988Y0123800D03*
X0157988Y0113800D03*
X0157988Y0103800D03*
X0157988Y0093800D03*
X0157988Y0083800D03*
X0157988Y0073800D03*
X0157988Y0063800D03*
X0157988Y0053800D03*
X0157988Y0043800D03*
X0157988Y0033800D03*
X0157988Y0023800D03*
X0157988Y0013800D03*
D16*
X0044815Y0099351D03*
X0042847Y0099351D03*
X0040878Y0099351D03*
X0038910Y0099351D03*
X0036941Y0099351D03*
X0034973Y0099351D03*
X0033004Y0099351D03*
X0031036Y0099351D03*
X0029067Y0099351D03*
X0027099Y0099351D03*
X0025130Y0099351D03*
X0023162Y0099351D03*
X0023162Y0118249D03*
X0025130Y0118249D03*
X0027099Y0118249D03*
X0029067Y0118249D03*
X0031036Y0118249D03*
X0033004Y0118249D03*
X0034973Y0118249D03*
X0036941Y0118249D03*
X0038910Y0118249D03*
X0040878Y0118249D03*
X0042847Y0118249D03*
X0044815Y0118249D03*
D17*
X0033988Y0108751D03*
D18*
X0047374Y0108800D03*
X0047374Y0106831D03*
X0047374Y0104863D03*
X0047374Y0102894D03*
X0047374Y0110769D03*
X0047374Y0112737D03*
X0047374Y0114706D03*
X0020602Y0114706D03*
X0020602Y0112737D03*
X0020602Y0110769D03*
X0020602Y0108800D03*
X0020602Y0106831D03*
X0020602Y0104863D03*
X0020602Y0102894D03*
D19*
X0125488Y0021300D03*
D20*
X0125488Y0029174D03*
X0125488Y0037048D03*
X0125488Y0044922D03*
X0125488Y0052796D03*
X0125488Y0060670D03*
X0125488Y0068544D03*
X0125488Y0076418D03*
X0125488Y0084292D03*
X0125488Y0092166D03*
X0125488Y0100040D03*
X0125488Y0107914D03*
X0125488Y0115788D03*
X0125488Y0123662D03*
D21*
X0136512Y0131536D03*
X0114465Y0131536D03*
X0114465Y0013426D03*
X0136512Y0013426D03*
D22*
X0097437Y0013091D03*
X0097437Y0024706D03*
X0097437Y0040591D03*
X0097437Y0052206D03*
X0097437Y0068091D03*
X0097437Y0079706D03*
X0097437Y0095591D03*
X0097437Y0107206D03*
X0097437Y0120591D03*
X0097437Y0132206D03*
X0049937Y0029706D03*
X0049937Y0018091D03*
D23*
X0031039Y0018091D03*
X0031039Y0029706D03*
X0078539Y0024706D03*
X0078539Y0013091D03*
X0078539Y0040591D03*
X0078539Y0052206D03*
X0078539Y0068091D03*
X0078539Y0079706D03*
X0078539Y0095591D03*
X0078539Y0107206D03*
X0078539Y0120591D03*
X0078539Y0132206D03*
D24*
X0067988Y0126925D03*
X0092363Y0131300D03*
X0109238Y0120675D03*
X0066738Y0103800D03*
X0067988Y0077550D03*
X0065488Y0074425D03*
X0073613Y0077550D03*
X0083613Y0068175D03*
X0074238Y0056300D03*
X0067988Y0057550D03*
X0067363Y0047550D03*
X0083613Y0038800D03*
X0061113Y0031925D03*
X0064863Y0021300D03*
X0061738Y0015675D03*
X0081113Y0006300D03*
X0037363Y0031300D03*
X0018613Y0049425D03*
X0018613Y0056300D03*
X0021113Y0066925D03*
X0030488Y0076300D03*
X0016738Y0109425D03*
X0119863Y0068175D03*
M02*
