%
M48
M72
T01C0.01500
T02C0.02000
T03C0.04400
%
T01
X36477Y51252
T02
X11300Y21300
X11300Y31300
X11300Y41300
X11300Y51300
X11300Y61300
X21300Y61300
X61300Y61300
X76300Y61300
X76300Y51300
X76300Y41300
X76300Y31300
X76300Y21300
X76300Y11300
X91300Y11300
X91300Y21300
X91300Y31300
X91300Y41300
X91300Y51300
X91300Y61300
T03
X41300Y61300
M30
