G75*
%MOIN*%
%OFA0B0*%
%FSLAX25Y25*%
%IPPOS*%
%LPD*%
%AMOC8*
5,1,8,0,0,1.08239X$1,22.5*
%
%ADD10OC8,0.09300*%
%ADD11R,0.04000X0.04000*%
%ADD12R,0.05524X0.05524*%
%ADD13C,0.05524*%
%ADD14R,0.08477X0.08477*%
%ADD15R,0.05524X0.04737*%
%ADD16R,0.04343X0.07099*%
%ADD17C,0.03500*%
D10*
X0011300Y0086074D03*
D11*
X0011300Y0096074D03*
X0011300Y0131074D03*
X0011300Y0061074D03*
X0011300Y0056074D03*
X0011300Y0051074D03*
X0011300Y0046074D03*
X0011300Y0041074D03*
X0156300Y0036074D03*
X0156300Y0026074D03*
X0156300Y0016074D03*
X0156300Y0046074D03*
X0156300Y0056074D03*
X0156300Y0066074D03*
X0156300Y0076074D03*
X0156300Y0086074D03*
X0156300Y0096074D03*
X0156300Y0106074D03*
X0156300Y0116074D03*
X0156300Y0126074D03*
D12*
X0123800Y0023574D03*
D13*
X0123800Y0031448D03*
X0123800Y0039322D03*
X0123800Y0047196D03*
X0123800Y0055070D03*
X0123800Y0062944D03*
X0123800Y0070818D03*
X0123800Y0078692D03*
X0123800Y0086566D03*
X0123800Y0094440D03*
X0123800Y0102314D03*
X0123800Y0110188D03*
X0123800Y0118062D03*
X0123800Y0125936D03*
D14*
X0134824Y0133810D03*
X0112776Y0133810D03*
X0112776Y0015700D03*
X0134824Y0015700D03*
D15*
X0076851Y0017865D03*
X0076851Y0029480D03*
X0076851Y0052865D03*
X0076851Y0064480D03*
X0076851Y0085365D03*
X0076851Y0096980D03*
X0076851Y0117865D03*
X0076851Y0129480D03*
X0026851Y0064480D03*
X0026851Y0052865D03*
X0031851Y0029480D03*
X0031851Y0017865D03*
D16*
X0050749Y0017865D03*
X0050749Y0029480D03*
X0045749Y0052865D03*
X0045749Y0064480D03*
X0095749Y0064480D03*
X0095749Y0052865D03*
X0095749Y0029480D03*
X0095749Y0017865D03*
X0095749Y0085365D03*
X0095749Y0096980D03*
X0095749Y0117865D03*
X0095749Y0129480D03*
D17*
X0026925Y0020449D03*
X0038800Y0017324D03*
X0041300Y0027324D03*
X0056925Y0022324D03*
X0060050Y0029824D03*
X0071300Y0038574D03*
X0076300Y0037324D03*
X0083800Y0029824D03*
X0091300Y0026074D03*
X0083800Y0017949D03*
X0082550Y0011699D03*
X0087550Y0037324D03*
X0093800Y0039824D03*
X0083800Y0052949D03*
X0068800Y0051074D03*
X0062550Y0049199D03*
X0056925Y0053574D03*
X0043175Y0043574D03*
X0066300Y0066699D03*
X0076300Y0071699D03*
X0066300Y0081699D03*
X0055050Y0089199D03*
X0066300Y0096699D03*
X0071925Y0097324D03*
X0083800Y0085449D03*
X0059425Y0109824D03*
X0053800Y0116074D03*
X0048800Y0119199D03*
X0043800Y0124199D03*
X0053800Y0124199D03*
X0060050Y0125449D03*
X0043175Y0134824D03*
X0020675Y0117324D03*
X0019425Y0094199D03*
X0028175Y0094199D03*
X0037550Y0076699D03*
X0021925Y0070449D03*
X0083175Y0117324D03*
X0087550Y0129199D03*
X0135675Y0069824D03*
X0145675Y0056074D03*
M02*
