%
M48
M72
T01C0.01500
T02C0.02000
T03C0.03150
T04C0.04400
T05C0.05118
%
T01
X26925Y20449
X38800Y17324
X41300Y27324
X56925Y22324
X60050Y29824
X71300Y38574
X76300Y37324
X83800Y29824
X91300Y26074
X83800Y17949
X82550Y11699
X87550Y37324
X93800Y39824
X83800Y52949
X68800Y51074
X62550Y49199
X56925Y53574
X43175Y43574
X66300Y66699
X76300Y71699
X66300Y81699
X55050Y89199
X66300Y96699
X71925Y97324
X83800Y85449
X59425Y109824
X53800Y116074
X48800Y119199
X43800Y124199
X53800Y124199
X60050Y125449
X43175Y134824
X20675Y117324
X19425Y94199
X28175Y94199
X37550Y76699
X21925Y70449
X83175Y117324
X87550Y129199
X135675Y69824
X145675Y56074
T02
X156300Y56074
X156300Y46074
X156300Y36074
X156300Y26074
X156300Y16074
X156300Y66074
X156300Y76074
X156300Y86074
X156300Y96074
X156300Y106074
X156300Y116074
X156300Y126074
X11300Y131074
X11300Y96074
X11300Y61074
X11300Y56074
X11300Y51074
X11300Y46074
X11300Y41074
T03
X123800Y39322
X123800Y47196
X123800Y55070
X123800Y62944
X123800Y70818
X123800Y78692
X123800Y86566
X123800Y94440
X123800Y102314
X123800Y110188
X123800Y118062
X123800Y125936
X123800Y31448
X123800Y23574
T04
X11300Y86074
T05
X112776Y133810
X134824Y133810
X134824Y15700
X112776Y15700
M30
