G75*
%MOIN*%
%OFA0B0*%
%FSLAX25Y25*%
%IPPOS*%
%LPD*%
%AMOC8*
5,1,8,0,0,1.08239X$1,22.5*
%
%ADD10OC8,0.08500*%
%ADD11C,0.05250*%
%ADD12C,0.00600*%
%ADD13C,0.02700*%
D10*
X0048800Y0061300D03*
D11*
X0036300Y0061300D03*
X0023800Y0061300D03*
X0011300Y0061300D03*
X0011300Y0051300D03*
X0011300Y0041300D03*
X0011300Y0031300D03*
X0063800Y0061300D03*
X0076300Y0061300D03*
X0076300Y0051300D03*
X0076300Y0041300D03*
X0076300Y0031300D03*
X0076300Y0021300D03*
X0076300Y0011300D03*
X0091300Y0011300D03*
X0091300Y0021300D03*
X0091300Y0031300D03*
X0091300Y0041300D03*
X0091300Y0051300D03*
X0091300Y0061300D03*
D12*
X0002200Y0071300D02*
X0002200Y0002200D01*
X0100321Y0002200D01*
X0100321Y0071300D01*
X0002200Y0071300D01*
X0002200Y0070727D02*
X0100321Y0070727D01*
X0100321Y0070129D02*
X0002200Y0070129D01*
X0002200Y0069530D02*
X0100321Y0069530D01*
X0100321Y0068932D02*
X0002200Y0068932D01*
X0002200Y0068333D02*
X0100321Y0068333D01*
X0100321Y0067735D02*
X0002200Y0067735D01*
X0002200Y0067136D02*
X0100321Y0067136D01*
X0100321Y0066538D02*
X0051138Y0066538D01*
X0051019Y0066657D02*
X0046581Y0066657D01*
X0043443Y0063519D01*
X0043443Y0059081D01*
X0046581Y0055943D01*
X0051019Y0055943D01*
X0054157Y0059081D01*
X0054157Y0063519D01*
X0051019Y0066657D01*
X0051737Y0065939D02*
X0100321Y0065939D01*
X0100321Y0065341D02*
X0052335Y0065341D01*
X0052934Y0064742D02*
X0062358Y0064742D01*
X0061686Y0064464D02*
X0060636Y0063414D01*
X0060068Y0062042D01*
X0060068Y0060558D01*
X0060636Y0059186D01*
X0061686Y0058136D01*
X0063058Y0057568D01*
X0064542Y0057568D01*
X0065914Y0058136D01*
X0066964Y0059186D01*
X0067532Y0060558D01*
X0067532Y0062042D01*
X0066964Y0063414D01*
X0065914Y0064464D01*
X0064542Y0065032D01*
X0063058Y0065032D01*
X0061686Y0064464D01*
X0061366Y0064144D02*
X0053532Y0064144D01*
X0054131Y0063545D02*
X0060767Y0063545D01*
X0060442Y0062947D02*
X0054157Y0062947D01*
X0054157Y0062348D02*
X0060195Y0062348D01*
X0060068Y0061750D02*
X0054157Y0061750D01*
X0054157Y0061151D02*
X0060068Y0061151D01*
X0060070Y0060553D02*
X0054157Y0060553D01*
X0054157Y0059954D02*
X0060318Y0059954D01*
X0060566Y0059356D02*
X0054157Y0059356D01*
X0053833Y0058757D02*
X0061065Y0058757D01*
X0061663Y0058159D02*
X0053235Y0058159D01*
X0052636Y0057560D02*
X0070345Y0057560D01*
X0070943Y0058159D02*
X0065937Y0058159D01*
X0066535Y0058757D02*
X0071542Y0058757D01*
X0072140Y0059356D02*
X0067034Y0059356D01*
X0067282Y0059954D02*
X0072739Y0059954D01*
X0072795Y0060010D02*
X0064036Y0051252D01*
X0050505Y0051252D01*
X0049829Y0051927D01*
X0048926Y0052302D01*
X0047949Y0052302D01*
X0047046Y0051927D01*
X0046354Y0051236D01*
X0045980Y0050333D01*
X0045980Y0049356D01*
X0046354Y0048453D01*
X0047046Y0047761D01*
X0047949Y0047387D01*
X0048926Y0047387D01*
X0049829Y0047761D01*
X0050505Y0048437D01*
X0064036Y0048437D01*
X0065202Y0048437D01*
X0074691Y0057927D01*
X0075558Y0057568D01*
X0077042Y0057568D01*
X0078414Y0058136D01*
X0079464Y0059186D01*
X0080032Y0060558D01*
X0080032Y0062042D01*
X0079464Y0063414D01*
X0078414Y0064464D01*
X0077042Y0065032D01*
X0075558Y0065032D01*
X0074186Y0064464D01*
X0073136Y0063414D01*
X0072568Y0062042D01*
X0072568Y0060558D01*
X0072795Y0060010D01*
X0072570Y0060553D02*
X0067530Y0060553D01*
X0067532Y0061151D02*
X0072568Y0061151D01*
X0072568Y0061750D02*
X0067532Y0061750D01*
X0067405Y0062348D02*
X0072695Y0062348D01*
X0072942Y0062947D02*
X0067158Y0062947D01*
X0066833Y0063545D02*
X0073267Y0063545D01*
X0073866Y0064144D02*
X0066234Y0064144D01*
X0065242Y0064742D02*
X0074858Y0064742D01*
X0077742Y0064742D02*
X0089858Y0064742D01*
X0089186Y0064464D02*
X0088136Y0063414D01*
X0087568Y0062042D01*
X0087568Y0060558D01*
X0088136Y0059186D01*
X0089186Y0058136D01*
X0090558Y0057568D01*
X0092042Y0057568D01*
X0093414Y0058136D01*
X0094464Y0059186D01*
X0095032Y0060558D01*
X0095032Y0062042D01*
X0094464Y0063414D01*
X0093414Y0064464D01*
X0092042Y0065032D01*
X0090558Y0065032D01*
X0089186Y0064464D01*
X0088866Y0064144D02*
X0078734Y0064144D01*
X0079333Y0063545D02*
X0088267Y0063545D01*
X0087942Y0062947D02*
X0079658Y0062947D01*
X0079905Y0062348D02*
X0087695Y0062348D01*
X0087568Y0061750D02*
X0080032Y0061750D01*
X0080032Y0061151D02*
X0087568Y0061151D01*
X0087570Y0060553D02*
X0080030Y0060553D01*
X0079782Y0059954D02*
X0087818Y0059954D01*
X0088066Y0059356D02*
X0079534Y0059356D01*
X0079035Y0058757D02*
X0088565Y0058757D01*
X0089163Y0058159D02*
X0078437Y0058159D01*
X0076300Y0061300D02*
X0075876Y0061101D01*
X0064619Y0049844D01*
X0048437Y0049844D01*
X0046823Y0047984D02*
X0020296Y0047984D01*
X0020296Y0048582D02*
X0046301Y0048582D01*
X0046053Y0049181D02*
X0020296Y0049181D01*
X0020296Y0049779D02*
X0045980Y0049779D01*
X0045999Y0050378D02*
X0020296Y0050378D01*
X0020296Y0050976D02*
X0046247Y0050976D01*
X0046693Y0051575D02*
X0020296Y0051575D01*
X0020296Y0052173D02*
X0047639Y0052173D01*
X0049235Y0052173D02*
X0064958Y0052173D01*
X0064359Y0051575D02*
X0050182Y0051575D01*
X0050052Y0047984D02*
X0074553Y0047984D01*
X0074186Y0048136D02*
X0075558Y0047568D01*
X0077042Y0047568D01*
X0078414Y0048136D01*
X0079464Y0049186D01*
X0080032Y0050558D01*
X0080032Y0052042D01*
X0079464Y0053414D01*
X0078414Y0054464D01*
X0077042Y0055032D01*
X0075558Y0055032D01*
X0074186Y0054464D01*
X0073136Y0053414D01*
X0072568Y0052042D01*
X0072568Y0050558D01*
X0073136Y0049186D01*
X0074186Y0048136D01*
X0073740Y0048582D02*
X0065347Y0048582D01*
X0065945Y0049181D02*
X0073141Y0049181D01*
X0072890Y0049779D02*
X0066544Y0049779D01*
X0067142Y0050378D02*
X0072642Y0050378D01*
X0072568Y0050976D02*
X0067741Y0050976D01*
X0068339Y0051575D02*
X0072568Y0051575D01*
X0072622Y0052173D02*
X0068938Y0052173D01*
X0069536Y0052772D02*
X0072870Y0052772D01*
X0073118Y0053370D02*
X0070135Y0053370D01*
X0070733Y0053969D02*
X0073691Y0053969D01*
X0074436Y0054568D02*
X0071332Y0054568D01*
X0071930Y0055166D02*
X0100321Y0055166D01*
X0100321Y0054568D02*
X0093164Y0054568D01*
X0093414Y0054464D02*
X0092042Y0055032D01*
X0090558Y0055032D01*
X0089186Y0054464D01*
X0088136Y0053414D01*
X0087568Y0052042D01*
X0087568Y0050558D01*
X0088136Y0049186D01*
X0089186Y0048136D01*
X0090558Y0047568D01*
X0092042Y0047568D01*
X0093414Y0048136D01*
X0094464Y0049186D01*
X0095032Y0050558D01*
X0095032Y0052042D01*
X0094464Y0053414D01*
X0093414Y0054464D01*
X0093909Y0053969D02*
X0100321Y0053969D01*
X0100321Y0053370D02*
X0094482Y0053370D01*
X0094730Y0052772D02*
X0100321Y0052772D01*
X0100321Y0052173D02*
X0094978Y0052173D01*
X0095032Y0051575D02*
X0100321Y0051575D01*
X0100321Y0050976D02*
X0095032Y0050976D01*
X0094958Y0050378D02*
X0100321Y0050378D01*
X0100321Y0049779D02*
X0094710Y0049779D01*
X0094459Y0049181D02*
X0100321Y0049181D01*
X0100321Y0048582D02*
X0093860Y0048582D01*
X0093047Y0047984D02*
X0100321Y0047984D01*
X0100321Y0047385D02*
X0020296Y0047385D01*
X0020296Y0046787D02*
X0100321Y0046787D01*
X0100321Y0046188D02*
X0020296Y0046188D01*
X0020296Y0045590D02*
X0100321Y0045590D01*
X0100321Y0044991D02*
X0092141Y0044991D01*
X0092042Y0045032D02*
X0093414Y0044464D01*
X0094464Y0043414D01*
X0095032Y0042042D01*
X0095032Y0040558D01*
X0094464Y0039186D01*
X0093414Y0038136D01*
X0092042Y0037568D01*
X0090558Y0037568D01*
X0089186Y0038136D01*
X0088136Y0039186D01*
X0087568Y0040558D01*
X0087568Y0042042D01*
X0088136Y0043414D01*
X0089186Y0044464D01*
X0090558Y0045032D01*
X0092042Y0045032D01*
X0093485Y0044393D02*
X0100321Y0044393D01*
X0100321Y0043794D02*
X0094084Y0043794D01*
X0094554Y0043196D02*
X0100321Y0043196D01*
X0100321Y0042597D02*
X0094802Y0042597D01*
X0095032Y0041999D02*
X0100321Y0041999D01*
X0100321Y0041400D02*
X0095032Y0041400D01*
X0095032Y0040802D02*
X0100321Y0040802D01*
X0100321Y0040203D02*
X0094885Y0040203D01*
X0094637Y0039605D02*
X0100321Y0039605D01*
X0100321Y0039006D02*
X0094284Y0039006D01*
X0093686Y0038408D02*
X0100321Y0038408D01*
X0100321Y0037809D02*
X0092625Y0037809D01*
X0089975Y0037809D02*
X0077625Y0037809D01*
X0077042Y0037568D02*
X0078414Y0038136D01*
X0079464Y0039186D01*
X0080032Y0040558D01*
X0080032Y0042042D01*
X0079464Y0043414D01*
X0078414Y0044464D01*
X0077042Y0045032D01*
X0075558Y0045032D01*
X0074186Y0044464D01*
X0073136Y0043414D01*
X0072568Y0042042D01*
X0072568Y0040558D01*
X0073136Y0039186D01*
X0074186Y0038136D01*
X0075558Y0037568D01*
X0077042Y0037568D01*
X0078686Y0038408D02*
X0088914Y0038408D01*
X0088316Y0039006D02*
X0079284Y0039006D01*
X0079637Y0039605D02*
X0087963Y0039605D01*
X0087715Y0040203D02*
X0079885Y0040203D01*
X0080032Y0040802D02*
X0087568Y0040802D01*
X0087568Y0041400D02*
X0080032Y0041400D01*
X0080032Y0041999D02*
X0087568Y0041999D01*
X0087798Y0042597D02*
X0079802Y0042597D01*
X0079554Y0043196D02*
X0088046Y0043196D01*
X0088516Y0043794D02*
X0079084Y0043794D01*
X0078485Y0044393D02*
X0089115Y0044393D01*
X0090459Y0044991D02*
X0077141Y0044991D01*
X0075459Y0044991D02*
X0020296Y0044991D01*
X0020296Y0044393D02*
X0074115Y0044393D01*
X0073516Y0043794D02*
X0020296Y0043794D01*
X0020296Y0043196D02*
X0073046Y0043196D01*
X0072798Y0042597D02*
X0020296Y0042597D01*
X0020296Y0041999D02*
X0072568Y0041999D01*
X0072568Y0041400D02*
X0020296Y0041400D01*
X0020296Y0040802D02*
X0072568Y0040802D01*
X0072715Y0040203D02*
X0020296Y0040203D01*
X0020296Y0039605D02*
X0072963Y0039605D01*
X0073316Y0039006D02*
X0020296Y0039006D01*
X0020296Y0038408D02*
X0073914Y0038408D01*
X0074975Y0037809D02*
X0020296Y0037809D01*
X0020296Y0037211D02*
X0100321Y0037211D01*
X0100321Y0036612D02*
X0020296Y0036612D01*
X0020296Y0036014D02*
X0100321Y0036014D01*
X0100321Y0035415D02*
X0020296Y0035415D01*
X0020296Y0034817D02*
X0075038Y0034817D01*
X0075558Y0035032D02*
X0074186Y0034464D01*
X0073136Y0033414D01*
X0072568Y0032042D01*
X0072568Y0030558D01*
X0073136Y0029186D01*
X0074186Y0028136D01*
X0075558Y0027568D01*
X0077042Y0027568D01*
X0078414Y0028136D01*
X0079464Y0029186D01*
X0080032Y0030558D01*
X0080032Y0032042D01*
X0079464Y0033414D01*
X0078414Y0034464D01*
X0077042Y0035032D01*
X0075558Y0035032D01*
X0073940Y0034218D02*
X0020296Y0034218D01*
X0020296Y0033620D02*
X0073342Y0033620D01*
X0072973Y0033021D02*
X0020296Y0033021D01*
X0020296Y0032423D02*
X0072725Y0032423D01*
X0072568Y0031824D02*
X0020296Y0031824D01*
X0020296Y0031226D02*
X0072568Y0031226D01*
X0072568Y0030627D02*
X0020296Y0030627D01*
X0020296Y0030029D02*
X0072787Y0030029D01*
X0073035Y0029430D02*
X0020296Y0029430D01*
X0020296Y0028832D02*
X0073491Y0028832D01*
X0074089Y0028233D02*
X0020758Y0028233D01*
X0020972Y0028019D02*
X0020296Y0028695D01*
X0020296Y0056297D01*
X0022003Y0058005D01*
X0023058Y0057568D01*
X0024542Y0057568D01*
X0025914Y0058136D01*
X0026964Y0059186D01*
X0027532Y0060558D01*
X0027532Y0062042D01*
X0026964Y0063414D01*
X0025914Y0064464D01*
X0024542Y0065032D01*
X0023058Y0065032D01*
X0021686Y0064464D01*
X0020636Y0063414D01*
X0020068Y0062042D01*
X0020068Y0060558D01*
X0020217Y0060198D01*
X0017481Y0057463D01*
X0017481Y0028695D01*
X0016806Y0028019D01*
X0016431Y0027116D01*
X0016431Y0026139D01*
X0016806Y0025236D01*
X0017497Y0024545D01*
X0018400Y0024170D01*
X0019377Y0024170D01*
X0020280Y0024545D01*
X0020972Y0025236D01*
X0021346Y0026139D01*
X0021346Y0027116D01*
X0020972Y0028019D01*
X0021131Y0027634D02*
X0075397Y0027634D01*
X0077203Y0027634D02*
X0090397Y0027634D01*
X0090558Y0027568D02*
X0089186Y0028136D01*
X0088136Y0029186D01*
X0087568Y0030558D01*
X0087568Y0032042D01*
X0088136Y0033414D01*
X0089186Y0034464D01*
X0090558Y0035032D01*
X0092042Y0035032D01*
X0093414Y0034464D01*
X0094464Y0033414D01*
X0095032Y0032042D01*
X0095032Y0030558D01*
X0094464Y0029186D01*
X0093414Y0028136D01*
X0092042Y0027568D01*
X0090558Y0027568D01*
X0089089Y0028233D02*
X0078511Y0028233D01*
X0079109Y0028832D02*
X0088491Y0028832D01*
X0088035Y0029430D02*
X0079565Y0029430D01*
X0079813Y0030029D02*
X0087787Y0030029D01*
X0087568Y0030627D02*
X0080032Y0030627D01*
X0080032Y0031226D02*
X0087568Y0031226D01*
X0087568Y0031824D02*
X0080032Y0031824D01*
X0079875Y0032423D02*
X0087725Y0032423D01*
X0087973Y0033021D02*
X0079627Y0033021D01*
X0079258Y0033620D02*
X0088342Y0033620D01*
X0088940Y0034218D02*
X0078660Y0034218D01*
X0077562Y0034817D02*
X0090038Y0034817D01*
X0092562Y0034817D02*
X0100321Y0034817D01*
X0100321Y0034218D02*
X0093660Y0034218D01*
X0094258Y0033620D02*
X0100321Y0033620D01*
X0100321Y0033021D02*
X0094627Y0033021D01*
X0094875Y0032423D02*
X0100321Y0032423D01*
X0100321Y0031824D02*
X0095032Y0031824D01*
X0095032Y0031226D02*
X0100321Y0031226D01*
X0100321Y0030627D02*
X0095032Y0030627D01*
X0094813Y0030029D02*
X0100321Y0030029D01*
X0100321Y0029430D02*
X0094565Y0029430D01*
X0094109Y0028832D02*
X0100321Y0028832D01*
X0100321Y0028233D02*
X0093511Y0028233D01*
X0092203Y0027634D02*
X0100321Y0027634D01*
X0100321Y0027036D02*
X0021346Y0027036D01*
X0021346Y0026437D02*
X0100321Y0026437D01*
X0100321Y0025839D02*
X0021221Y0025839D01*
X0020974Y0025240D02*
X0100321Y0025240D01*
X0100321Y0024642D02*
X0092984Y0024642D01*
X0093414Y0024464D02*
X0092042Y0025032D01*
X0090558Y0025032D01*
X0089186Y0024464D01*
X0088136Y0023414D01*
X0087568Y0022042D01*
X0087568Y0020558D01*
X0088136Y0019186D01*
X0089186Y0018136D01*
X0090558Y0017568D01*
X0092042Y0017568D01*
X0093414Y0018136D01*
X0094464Y0019186D01*
X0095032Y0020558D01*
X0095032Y0022042D01*
X0094464Y0023414D01*
X0093414Y0024464D01*
X0093835Y0024043D02*
X0100321Y0024043D01*
X0100321Y0023445D02*
X0094433Y0023445D01*
X0094699Y0022846D02*
X0100321Y0022846D01*
X0100321Y0022248D02*
X0094947Y0022248D01*
X0095032Y0021649D02*
X0100321Y0021649D01*
X0100321Y0021051D02*
X0095032Y0021051D01*
X0094988Y0020452D02*
X0100321Y0020452D01*
X0100321Y0019854D02*
X0094741Y0019854D01*
X0094493Y0019255D02*
X0100321Y0019255D01*
X0100321Y0018657D02*
X0093935Y0018657D01*
X0093226Y0018058D02*
X0100321Y0018058D01*
X0100321Y0017460D02*
X0002200Y0017460D01*
X0002200Y0018058D02*
X0074374Y0018058D01*
X0074186Y0018136D02*
X0075558Y0017568D01*
X0077042Y0017568D01*
X0078414Y0018136D01*
X0079464Y0019186D01*
X0080032Y0020558D01*
X0080032Y0022042D01*
X0079464Y0023414D01*
X0078414Y0024464D01*
X0077042Y0025032D01*
X0075558Y0025032D01*
X0074186Y0024464D01*
X0073136Y0023414D01*
X0072568Y0022042D01*
X0072568Y0020558D01*
X0073136Y0019186D01*
X0074186Y0018136D01*
X0073665Y0018657D02*
X0002200Y0018657D01*
X0002200Y0019255D02*
X0073107Y0019255D01*
X0072859Y0019854D02*
X0002200Y0019854D01*
X0002200Y0020452D02*
X0072612Y0020452D01*
X0072568Y0021051D02*
X0002200Y0021051D01*
X0002200Y0021649D02*
X0072568Y0021649D01*
X0072653Y0022248D02*
X0002200Y0022248D01*
X0002200Y0022846D02*
X0072901Y0022846D01*
X0073167Y0023445D02*
X0002200Y0023445D01*
X0002200Y0024043D02*
X0073765Y0024043D01*
X0074616Y0024642D02*
X0020378Y0024642D01*
X0018889Y0026628D02*
X0018889Y0056880D01*
X0023110Y0061101D01*
X0023800Y0061300D01*
X0027282Y0059954D02*
X0032818Y0059954D01*
X0033066Y0059356D02*
X0027034Y0059356D01*
X0026535Y0058757D02*
X0033565Y0058757D01*
X0033136Y0059186D02*
X0034186Y0058136D01*
X0035558Y0057568D01*
X0037042Y0057568D01*
X0038414Y0058136D01*
X0039464Y0059186D01*
X0040032Y0060558D01*
X0040032Y0062042D01*
X0039464Y0063414D01*
X0038414Y0064464D01*
X0037042Y0065032D01*
X0035558Y0065032D01*
X0034186Y0064464D01*
X0033136Y0063414D01*
X0032568Y0062042D01*
X0032568Y0060558D01*
X0033136Y0059186D01*
X0034163Y0058159D02*
X0025937Y0058159D01*
X0027530Y0060553D02*
X0032570Y0060553D01*
X0032568Y0061151D02*
X0027532Y0061151D01*
X0027532Y0061750D02*
X0032568Y0061750D01*
X0032695Y0062348D02*
X0027405Y0062348D01*
X0027158Y0062947D02*
X0032942Y0062947D01*
X0033267Y0063545D02*
X0026833Y0063545D01*
X0026234Y0064144D02*
X0033866Y0064144D01*
X0034858Y0064742D02*
X0025242Y0064742D01*
X0022358Y0064742D02*
X0012742Y0064742D01*
X0013414Y0064464D02*
X0012042Y0065032D01*
X0010558Y0065032D01*
X0009186Y0064464D01*
X0008136Y0063414D01*
X0007568Y0062042D01*
X0007568Y0060558D01*
X0008136Y0059186D01*
X0009186Y0058136D01*
X0010558Y0057568D01*
X0012042Y0057568D01*
X0013414Y0058136D01*
X0014464Y0059186D01*
X0015032Y0060558D01*
X0015032Y0062042D01*
X0014464Y0063414D01*
X0013414Y0064464D01*
X0013734Y0064144D02*
X0021366Y0064144D01*
X0020767Y0063545D02*
X0014333Y0063545D01*
X0014658Y0062947D02*
X0020442Y0062947D01*
X0020195Y0062348D02*
X0014905Y0062348D01*
X0015032Y0061750D02*
X0020068Y0061750D01*
X0020068Y0061151D02*
X0015032Y0061151D01*
X0015030Y0060553D02*
X0020070Y0060553D01*
X0019973Y0059954D02*
X0014782Y0059954D01*
X0014534Y0059356D02*
X0019374Y0059356D01*
X0018776Y0058757D02*
X0014035Y0058757D01*
X0013437Y0058159D02*
X0018177Y0058159D01*
X0017579Y0057560D02*
X0002200Y0057560D01*
X0002200Y0056962D02*
X0017481Y0056962D01*
X0017481Y0056363D02*
X0002200Y0056363D01*
X0002200Y0055765D02*
X0017481Y0055765D01*
X0017481Y0055166D02*
X0002200Y0055166D01*
X0002200Y0054568D02*
X0009436Y0054568D01*
X0009186Y0054464D02*
X0008136Y0053414D01*
X0007568Y0052042D01*
X0007568Y0050558D01*
X0008136Y0049186D01*
X0009186Y0048136D01*
X0010558Y0047568D01*
X0012042Y0047568D01*
X0013414Y0048136D01*
X0014464Y0049186D01*
X0015032Y0050558D01*
X0015032Y0052042D01*
X0014464Y0053414D01*
X0013414Y0054464D01*
X0012042Y0055032D01*
X0010558Y0055032D01*
X0009186Y0054464D01*
X0008691Y0053969D02*
X0002200Y0053969D01*
X0002200Y0053370D02*
X0008118Y0053370D01*
X0007870Y0052772D02*
X0002200Y0052772D01*
X0002200Y0052173D02*
X0007622Y0052173D01*
X0007568Y0051575D02*
X0002200Y0051575D01*
X0002200Y0050976D02*
X0007568Y0050976D01*
X0007642Y0050378D02*
X0002200Y0050378D01*
X0002200Y0049779D02*
X0007890Y0049779D01*
X0008141Y0049181D02*
X0002200Y0049181D01*
X0002200Y0048582D02*
X0008740Y0048582D01*
X0009553Y0047984D02*
X0002200Y0047984D01*
X0002200Y0047385D02*
X0017481Y0047385D01*
X0017481Y0046787D02*
X0002200Y0046787D01*
X0002200Y0046188D02*
X0017481Y0046188D01*
X0017481Y0045590D02*
X0002200Y0045590D01*
X0002200Y0044991D02*
X0010459Y0044991D01*
X0010558Y0045032D02*
X0009186Y0044464D01*
X0008136Y0043414D01*
X0007568Y0042042D01*
X0007568Y0040558D01*
X0008136Y0039186D01*
X0009186Y0038136D01*
X0010558Y0037568D01*
X0012042Y0037568D01*
X0013414Y0038136D01*
X0014464Y0039186D01*
X0015032Y0040558D01*
X0015032Y0042042D01*
X0014464Y0043414D01*
X0013414Y0044464D01*
X0012042Y0045032D01*
X0010558Y0045032D01*
X0009115Y0044393D02*
X0002200Y0044393D01*
X0002200Y0043794D02*
X0008516Y0043794D01*
X0008046Y0043196D02*
X0002200Y0043196D01*
X0002200Y0042597D02*
X0007798Y0042597D01*
X0007568Y0041999D02*
X0002200Y0041999D01*
X0002200Y0041400D02*
X0007568Y0041400D01*
X0007568Y0040802D02*
X0002200Y0040802D01*
X0002200Y0040203D02*
X0007715Y0040203D01*
X0007963Y0039605D02*
X0002200Y0039605D01*
X0002200Y0039006D02*
X0008316Y0039006D01*
X0008914Y0038408D02*
X0002200Y0038408D01*
X0002200Y0037809D02*
X0009975Y0037809D01*
X0012625Y0037809D02*
X0017481Y0037809D01*
X0017481Y0037211D02*
X0002200Y0037211D01*
X0002200Y0036612D02*
X0017481Y0036612D01*
X0017481Y0036014D02*
X0002200Y0036014D01*
X0002200Y0035415D02*
X0017481Y0035415D01*
X0017481Y0034817D02*
X0013067Y0034817D01*
X0013159Y0034778D02*
X0012445Y0035074D01*
X0011687Y0035225D01*
X0011600Y0035225D01*
X0011600Y0031600D01*
X0011000Y0031600D01*
X0011000Y0035225D01*
X0010913Y0035225D01*
X0010155Y0035074D01*
X0009441Y0034778D01*
X0008798Y0034349D01*
X0008251Y0033802D01*
X0007822Y0033159D01*
X0007526Y0032445D01*
X0007375Y0031687D01*
X0007375Y0031600D01*
X0011000Y0031600D01*
X0011000Y0031000D01*
X0007375Y0031000D01*
X0007375Y0030913D01*
X0007526Y0030155D01*
X0007822Y0029441D01*
X0008251Y0028798D01*
X0008798Y0028251D01*
X0009441Y0027822D01*
X0010155Y0027526D01*
X0010913Y0027375D01*
X0011000Y0027375D01*
X0011000Y0031000D01*
X0011600Y0031000D01*
X0011600Y0031600D01*
X0015225Y0031600D01*
X0015225Y0031687D01*
X0015074Y0032445D01*
X0014778Y0033159D01*
X0014349Y0033802D01*
X0013802Y0034349D01*
X0013159Y0034778D01*
X0013933Y0034218D02*
X0017481Y0034218D01*
X0017481Y0033620D02*
X0014471Y0033620D01*
X0014835Y0033021D02*
X0017481Y0033021D01*
X0017481Y0032423D02*
X0015079Y0032423D01*
X0015198Y0031824D02*
X0017481Y0031824D01*
X0017481Y0031226D02*
X0011600Y0031226D01*
X0011600Y0031000D02*
X0015225Y0031000D01*
X0015225Y0030913D01*
X0015074Y0030155D01*
X0014778Y0029441D01*
X0014349Y0028798D01*
X0013802Y0028251D01*
X0013159Y0027822D01*
X0012445Y0027526D01*
X0011687Y0027375D01*
X0011600Y0027375D01*
X0011600Y0031000D01*
X0011600Y0030627D02*
X0011000Y0030627D01*
X0011000Y0030029D02*
X0011600Y0030029D01*
X0011600Y0029430D02*
X0011000Y0029430D01*
X0011000Y0028832D02*
X0011600Y0028832D01*
X0011600Y0028233D02*
X0011000Y0028233D01*
X0011000Y0027634D02*
X0011600Y0027634D01*
X0012707Y0027634D02*
X0016646Y0027634D01*
X0016431Y0027036D02*
X0002200Y0027036D01*
X0002200Y0027634D02*
X0009893Y0027634D01*
X0008825Y0028233D02*
X0002200Y0028233D01*
X0002200Y0028832D02*
X0008229Y0028832D01*
X0007829Y0029430D02*
X0002200Y0029430D01*
X0002200Y0030029D02*
X0007578Y0030029D01*
X0007432Y0030627D02*
X0002200Y0030627D01*
X0002200Y0031226D02*
X0011000Y0031226D01*
X0011000Y0031824D02*
X0011600Y0031824D01*
X0011600Y0032423D02*
X0011000Y0032423D01*
X0011000Y0033021D02*
X0011600Y0033021D01*
X0011600Y0033620D02*
X0011000Y0033620D01*
X0011000Y0034218D02*
X0011600Y0034218D01*
X0011600Y0034817D02*
X0011000Y0034817D01*
X0009533Y0034817D02*
X0002200Y0034817D01*
X0002200Y0034218D02*
X0008667Y0034218D01*
X0008129Y0033620D02*
X0002200Y0033620D01*
X0002200Y0033021D02*
X0007765Y0033021D01*
X0007521Y0032423D02*
X0002200Y0032423D01*
X0002200Y0031824D02*
X0007402Y0031824D01*
X0013775Y0028233D02*
X0017019Y0028233D01*
X0017481Y0028832D02*
X0014371Y0028832D01*
X0014771Y0029430D02*
X0017481Y0029430D01*
X0017481Y0030029D02*
X0015022Y0030029D01*
X0015168Y0030627D02*
X0017481Y0030627D01*
X0016431Y0026437D02*
X0002200Y0026437D01*
X0002200Y0025839D02*
X0016556Y0025839D01*
X0016804Y0025240D02*
X0002200Y0025240D01*
X0002200Y0024642D02*
X0017399Y0024642D01*
X0002200Y0016861D02*
X0100321Y0016861D01*
X0100321Y0016263D02*
X0002200Y0016263D01*
X0002200Y0015664D02*
X0100321Y0015664D01*
X0100321Y0015066D02*
X0002200Y0015066D01*
X0002200Y0014467D02*
X0074194Y0014467D01*
X0074186Y0014464D02*
X0073136Y0013414D01*
X0072568Y0012042D01*
X0072568Y0010558D01*
X0073136Y0009186D01*
X0074186Y0008136D01*
X0075558Y0007568D01*
X0077042Y0007568D01*
X0078414Y0008136D01*
X0079464Y0009186D01*
X0080032Y0010558D01*
X0080032Y0012042D01*
X0079464Y0013414D01*
X0078414Y0014464D01*
X0077042Y0015032D01*
X0075558Y0015032D01*
X0074186Y0014464D01*
X0073591Y0013869D02*
X0002200Y0013869D01*
X0002200Y0013270D02*
X0073077Y0013270D01*
X0072829Y0012672D02*
X0002200Y0012672D01*
X0002200Y0012073D02*
X0072581Y0012073D01*
X0072568Y0011475D02*
X0002200Y0011475D01*
X0002200Y0010876D02*
X0072568Y0010876D01*
X0072684Y0010278D02*
X0002200Y0010278D01*
X0002200Y0009679D02*
X0072932Y0009679D01*
X0073241Y0009081D02*
X0002200Y0009081D01*
X0002200Y0008482D02*
X0073840Y0008482D01*
X0074795Y0007884D02*
X0002200Y0007884D01*
X0002200Y0007285D02*
X0100321Y0007285D01*
X0100321Y0006687D02*
X0002200Y0006687D01*
X0002200Y0006088D02*
X0100321Y0006088D01*
X0100321Y0005490D02*
X0002200Y0005490D01*
X0002200Y0004891D02*
X0100321Y0004891D01*
X0100321Y0004293D02*
X0002200Y0004293D01*
X0002200Y0003694D02*
X0100321Y0003694D01*
X0100321Y0003096D02*
X0002200Y0003096D01*
X0002200Y0002497D02*
X0100321Y0002497D01*
X0100321Y0007884D02*
X0092805Y0007884D01*
X0093414Y0008136D02*
X0094464Y0009186D01*
X0095032Y0010558D01*
X0095032Y0012042D01*
X0094464Y0013414D01*
X0093414Y0014464D01*
X0092042Y0015032D01*
X0090558Y0015032D01*
X0089186Y0014464D01*
X0088136Y0013414D01*
X0087568Y0012042D01*
X0087568Y0010558D01*
X0088136Y0009186D01*
X0089186Y0008136D01*
X0090558Y0007568D01*
X0092042Y0007568D01*
X0093414Y0008136D01*
X0093760Y0008482D02*
X0100321Y0008482D01*
X0100321Y0009081D02*
X0094359Y0009081D01*
X0094668Y0009679D02*
X0100321Y0009679D01*
X0100321Y0010278D02*
X0094916Y0010278D01*
X0095032Y0010876D02*
X0100321Y0010876D01*
X0100321Y0011475D02*
X0095032Y0011475D01*
X0095019Y0012073D02*
X0100321Y0012073D01*
X0100321Y0012672D02*
X0094771Y0012672D01*
X0094523Y0013270D02*
X0100321Y0013270D01*
X0100321Y0013869D02*
X0094009Y0013869D01*
X0093406Y0014467D02*
X0100321Y0014467D01*
X0089194Y0014467D02*
X0078406Y0014467D01*
X0079009Y0013869D02*
X0088591Y0013869D01*
X0088077Y0013270D02*
X0079523Y0013270D01*
X0079771Y0012672D02*
X0087829Y0012672D01*
X0087581Y0012073D02*
X0080019Y0012073D01*
X0080032Y0011475D02*
X0087568Y0011475D01*
X0087568Y0010876D02*
X0080032Y0010876D01*
X0079916Y0010278D02*
X0087684Y0010278D01*
X0087932Y0009679D02*
X0079668Y0009679D01*
X0079359Y0009081D02*
X0088241Y0009081D01*
X0088840Y0008482D02*
X0078760Y0008482D01*
X0077805Y0007884D02*
X0089795Y0007884D01*
X0089374Y0018058D02*
X0078226Y0018058D01*
X0078935Y0018657D02*
X0088665Y0018657D01*
X0088107Y0019255D02*
X0079493Y0019255D01*
X0079741Y0019854D02*
X0087859Y0019854D01*
X0087612Y0020452D02*
X0079988Y0020452D01*
X0080032Y0021051D02*
X0087568Y0021051D01*
X0087568Y0021649D02*
X0080032Y0021649D01*
X0079947Y0022248D02*
X0087653Y0022248D01*
X0087901Y0022846D02*
X0079699Y0022846D01*
X0079433Y0023445D02*
X0088167Y0023445D01*
X0088765Y0024043D02*
X0078835Y0024043D01*
X0077984Y0024642D02*
X0089616Y0024642D01*
X0089553Y0047984D02*
X0078047Y0047984D01*
X0078860Y0048582D02*
X0088740Y0048582D01*
X0088141Y0049181D02*
X0079459Y0049181D01*
X0079710Y0049779D02*
X0087890Y0049779D01*
X0087642Y0050378D02*
X0079958Y0050378D01*
X0080032Y0050976D02*
X0087568Y0050976D01*
X0087568Y0051575D02*
X0080032Y0051575D01*
X0079978Y0052173D02*
X0087622Y0052173D01*
X0087870Y0052772D02*
X0079730Y0052772D01*
X0079482Y0053370D02*
X0088118Y0053370D01*
X0088691Y0053969D02*
X0078909Y0053969D01*
X0078164Y0054568D02*
X0089436Y0054568D01*
X0093437Y0058159D02*
X0100321Y0058159D01*
X0100321Y0058757D02*
X0094035Y0058757D01*
X0094534Y0059356D02*
X0100321Y0059356D01*
X0100321Y0059954D02*
X0094782Y0059954D01*
X0095030Y0060553D02*
X0100321Y0060553D01*
X0100321Y0061151D02*
X0095032Y0061151D01*
X0095032Y0061750D02*
X0100321Y0061750D01*
X0100321Y0062348D02*
X0094905Y0062348D01*
X0094658Y0062947D02*
X0100321Y0062947D01*
X0100321Y0063545D02*
X0094333Y0063545D01*
X0093734Y0064144D02*
X0100321Y0064144D01*
X0100321Y0064742D02*
X0092742Y0064742D01*
X0100321Y0057560D02*
X0074324Y0057560D01*
X0073726Y0056962D02*
X0100321Y0056962D01*
X0100321Y0056363D02*
X0073127Y0056363D01*
X0072529Y0055765D02*
X0100321Y0055765D01*
X0069746Y0056962D02*
X0052038Y0056962D01*
X0051439Y0056363D02*
X0069148Y0056363D01*
X0068549Y0055765D02*
X0020296Y0055765D01*
X0020296Y0055166D02*
X0067951Y0055166D01*
X0067352Y0054568D02*
X0020296Y0054568D01*
X0020296Y0053969D02*
X0066754Y0053969D01*
X0066155Y0053370D02*
X0020296Y0053370D01*
X0020296Y0052772D02*
X0065556Y0052772D01*
X0046161Y0056363D02*
X0020362Y0056363D01*
X0020960Y0056962D02*
X0045562Y0056962D01*
X0044964Y0057560D02*
X0021559Y0057560D01*
X0017481Y0054568D02*
X0013164Y0054568D01*
X0013909Y0053969D02*
X0017481Y0053969D01*
X0017481Y0053370D02*
X0014482Y0053370D01*
X0014730Y0052772D02*
X0017481Y0052772D01*
X0017481Y0052173D02*
X0014978Y0052173D01*
X0015032Y0051575D02*
X0017481Y0051575D01*
X0017481Y0050976D02*
X0015032Y0050976D01*
X0014958Y0050378D02*
X0017481Y0050378D01*
X0017481Y0049779D02*
X0014710Y0049779D01*
X0014459Y0049181D02*
X0017481Y0049181D01*
X0017481Y0048582D02*
X0013860Y0048582D01*
X0013047Y0047984D02*
X0017481Y0047984D01*
X0017481Y0044991D02*
X0012141Y0044991D01*
X0013485Y0044393D02*
X0017481Y0044393D01*
X0017481Y0043794D02*
X0014084Y0043794D01*
X0014554Y0043196D02*
X0017481Y0043196D01*
X0017481Y0042597D02*
X0014802Y0042597D01*
X0015032Y0041999D02*
X0017481Y0041999D01*
X0017481Y0041400D02*
X0015032Y0041400D01*
X0015032Y0040802D02*
X0017481Y0040802D01*
X0017481Y0040203D02*
X0014885Y0040203D01*
X0014637Y0039605D02*
X0017481Y0039605D01*
X0017481Y0039006D02*
X0014284Y0039006D01*
X0013686Y0038408D02*
X0017481Y0038408D01*
X0009163Y0058159D02*
X0002200Y0058159D01*
X0002200Y0058757D02*
X0008565Y0058757D01*
X0008066Y0059356D02*
X0002200Y0059356D01*
X0002200Y0059954D02*
X0007818Y0059954D01*
X0007570Y0060553D02*
X0002200Y0060553D01*
X0002200Y0061151D02*
X0007568Y0061151D01*
X0007568Y0061750D02*
X0002200Y0061750D01*
X0002200Y0062348D02*
X0007695Y0062348D01*
X0007942Y0062947D02*
X0002200Y0062947D01*
X0002200Y0063545D02*
X0008267Y0063545D01*
X0008866Y0064144D02*
X0002200Y0064144D01*
X0002200Y0064742D02*
X0009858Y0064742D01*
X0002200Y0065341D02*
X0045265Y0065341D01*
X0045863Y0065939D02*
X0002200Y0065939D01*
X0002200Y0066538D02*
X0046462Y0066538D01*
X0044666Y0064742D02*
X0037742Y0064742D01*
X0038734Y0064144D02*
X0044068Y0064144D01*
X0043469Y0063545D02*
X0039333Y0063545D01*
X0039658Y0062947D02*
X0043443Y0062947D01*
X0043443Y0062348D02*
X0039905Y0062348D01*
X0040032Y0061750D02*
X0043443Y0061750D01*
X0043443Y0061151D02*
X0040032Y0061151D01*
X0040030Y0060553D02*
X0043443Y0060553D01*
X0043443Y0059954D02*
X0039782Y0059954D01*
X0039534Y0059356D02*
X0043443Y0059356D01*
X0043767Y0058757D02*
X0039035Y0058757D01*
X0038437Y0058159D02*
X0044365Y0058159D01*
D13*
X0048437Y0049844D03*
X0018889Y0026628D03*
M02*
