G75*
%MOIN*%
%OFA0B0*%
%FSLAX25Y25*%
%IPPOS*%
%LPD*%
%AMOC8*
5,1,8,0,0,1.08239X$1,22.5*
%
%ADD10OC8,0.08500*%
%ADD11C,0.05250*%
%ADD12C,0.00600*%
D10*
X0041300Y0061300D03*
D11*
X0028800Y0061300D03*
X0011300Y0061300D03*
X0011300Y0051300D03*
X0011300Y0041300D03*
X0011300Y0031300D03*
X0011300Y0021300D03*
X0061300Y0061300D03*
X0076300Y0061300D03*
X0076300Y0051300D03*
X0076300Y0041300D03*
X0076300Y0031300D03*
X0076300Y0021300D03*
X0076300Y0011300D03*
X0091300Y0011300D03*
X0091300Y0021300D03*
X0091300Y0031300D03*
X0091300Y0041300D03*
X0091300Y0051300D03*
X0091300Y0061300D03*
D12*
X0002200Y0071601D02*
X0002200Y0002200D01*
X0100321Y0002200D01*
X0100321Y0010400D01*
X0098903Y0010400D01*
X0098560Y0010743D01*
X0098217Y0010400D01*
X0097430Y0010400D01*
X0097337Y0010493D01*
X0097244Y0010400D01*
X0096457Y0010400D01*
X0095900Y0010956D01*
X0095900Y0011957D01*
X0095400Y0012458D01*
X0095400Y0013245D01*
X0095956Y0013801D01*
X0098180Y0013801D01*
X0098180Y0013801D01*
X0098578Y0013801D01*
X0098967Y0013801D01*
X0098967Y0013801D01*
X0098967Y0013801D01*
X0098973Y0013795D01*
X0099185Y0013583D01*
X0099403Y0013801D01*
X0100190Y0013801D01*
X0100321Y0013670D01*
X0100321Y0020400D01*
X0099153Y0020400D01*
X0098685Y0020868D01*
X0098217Y0020400D01*
X0097430Y0020400D01*
X0097337Y0020493D01*
X0097244Y0020400D01*
X0096457Y0020400D01*
X0095900Y0020956D01*
X0095900Y0021957D01*
X0095400Y0022458D01*
X0095400Y0023245D01*
X0095956Y0023801D01*
X0098180Y0023801D01*
X0098180Y0023801D01*
X0098578Y0023801D01*
X0098967Y0023801D01*
X0098967Y0023801D01*
X0098973Y0023795D01*
X0099060Y0023708D01*
X0099147Y0023795D01*
X0099153Y0023801D01*
X0099153Y0023801D01*
X0099654Y0023801D01*
X0099654Y0023801D01*
X0099793Y0023801D01*
X0099940Y0023801D01*
X0099940Y0023801D01*
X0100321Y0023801D01*
X0100321Y0031281D01*
X0100246Y0031207D01*
X0100246Y0030956D01*
X0099690Y0030400D01*
X0098903Y0030400D01*
X0098560Y0030743D01*
X0098217Y0030400D01*
X0097430Y0030400D01*
X0097337Y0030493D01*
X0097244Y0030400D01*
X0096457Y0030400D01*
X0095900Y0030956D01*
X0095900Y0031957D01*
X0095400Y0032458D01*
X0095400Y0033245D01*
X0095956Y0033801D01*
X0098180Y0033801D01*
X0098180Y0033801D01*
X0098433Y0033801D01*
X0100321Y0033801D01*
X0100321Y0040400D01*
X0099153Y0040400D01*
X0098685Y0040868D01*
X0098217Y0040400D01*
X0097430Y0040400D01*
X0097337Y0040493D01*
X0097244Y0040400D01*
X0096457Y0040400D01*
X0095900Y0040956D01*
X0095900Y0041957D01*
X0095400Y0042458D01*
X0095400Y0043245D01*
X0095956Y0043801D01*
X0098180Y0043801D01*
X0098180Y0043801D01*
X0098578Y0043801D01*
X0100321Y0043801D01*
X0100321Y0050400D01*
X0099153Y0050400D01*
X0098685Y0050868D01*
X0098217Y0050400D01*
X0097430Y0050400D01*
X0097337Y0050493D01*
X0097244Y0050400D01*
X0096457Y0050400D01*
X0095900Y0050956D01*
X0095900Y0051957D01*
X0095400Y0052458D01*
X0095400Y0053245D01*
X0095956Y0053801D01*
X0098180Y0053801D01*
X0098180Y0053801D01*
X0098578Y0053801D01*
X0098967Y0053801D01*
X0098967Y0053801D01*
X0098973Y0053795D01*
X0099060Y0053708D01*
X0099153Y0053801D01*
X0099654Y0053801D01*
X0099654Y0053801D01*
X0099801Y0053801D01*
X0099940Y0053801D01*
X0099940Y0053801D01*
X0100321Y0053801D01*
X0100321Y0060400D01*
X0098903Y0060400D01*
X0098560Y0060743D01*
X0098217Y0060400D01*
X0097430Y0060400D01*
X0097337Y0060493D01*
X0097244Y0060400D01*
X0096457Y0060400D01*
X0095900Y0060956D01*
X0095900Y0061957D01*
X0095400Y0062458D01*
X0095400Y0063245D01*
X0095956Y0063801D01*
X0098180Y0063801D01*
X0098180Y0063801D01*
X0098578Y0063801D01*
X0098967Y0063801D01*
X0098967Y0063801D01*
X0098973Y0063795D01*
X0099185Y0063583D01*
X0099403Y0063801D01*
X0100190Y0063801D01*
X0100321Y0063670D01*
X0100321Y0067900D01*
X0098998Y0067900D01*
X0098905Y0067993D01*
X0098812Y0067900D01*
X0096052Y0067900D01*
X0095802Y0068150D01*
X0095706Y0068245D01*
X0095361Y0067900D01*
X0094574Y0067900D01*
X0094017Y0068456D01*
X0094017Y0070244D01*
X0094574Y0070801D01*
X0097339Y0070801D01*
X0097432Y0070708D01*
X0097525Y0070801D01*
X0100321Y0070801D01*
X0100321Y0071601D01*
X0002200Y0071601D01*
X0002200Y0071326D02*
X0066361Y0071326D01*
X0066587Y0071551D02*
X0066030Y0070995D01*
X0066030Y0070801D01*
X0065678Y0070801D01*
X0065178Y0071301D01*
X0064391Y0071301D01*
X0063890Y0070801D01*
X0063640Y0070801D01*
X0063547Y0070708D01*
X0063454Y0070801D01*
X0061259Y0070801D01*
X0060758Y0071301D01*
X0059971Y0071301D01*
X0059864Y0071194D01*
X0059757Y0071301D01*
X0058970Y0071301D01*
X0058414Y0070745D01*
X0058414Y0068759D01*
X0057900Y0068245D01*
X0057900Y0067458D01*
X0058400Y0066957D01*
X0058400Y0065956D01*
X0058957Y0065400D01*
X0059744Y0065400D01*
X0059962Y0065618D01*
X0060180Y0065400D01*
X0061467Y0065400D01*
X0062024Y0065956D01*
X0062218Y0066151D01*
X0063191Y0066151D01*
X0063747Y0066707D01*
X0063747Y0067494D01*
X0063341Y0067900D01*
X0064363Y0067900D01*
X0064863Y0067400D01*
X0065650Y0067400D01*
X0066151Y0067900D01*
X0068856Y0067900D01*
X0068949Y0067993D01*
X0069042Y0067900D01*
X0071803Y0067900D01*
X0072359Y0068456D01*
X0072359Y0068707D01*
X0072610Y0068957D01*
X0072610Y0069994D01*
X0072053Y0070551D01*
X0071803Y0070801D01*
X0069042Y0070801D01*
X0068949Y0070708D01*
X0068856Y0070801D01*
X0067930Y0070801D01*
X0067930Y0070995D01*
X0067374Y0071551D01*
X0066587Y0071551D01*
X0067599Y0071326D02*
X0086741Y0071326D01*
X0086967Y0071551D02*
X0086410Y0070995D01*
X0086410Y0070801D01*
X0085489Y0070801D01*
X0084932Y0070244D01*
X0084932Y0068456D01*
X0085489Y0067900D01*
X0086276Y0067900D01*
X0086496Y0068120D01*
X0086716Y0067900D01*
X0087699Y0067900D01*
X0088199Y0067400D01*
X0089236Y0067400D01*
X0089487Y0067650D01*
X0089737Y0067900D01*
X0089959Y0067900D01*
X0090066Y0068007D01*
X0090173Y0067900D01*
X0090960Y0067900D01*
X0091053Y0067993D01*
X0091146Y0067900D01*
X0093165Y0067900D01*
X0093415Y0068150D01*
X0093972Y0068707D01*
X0093972Y0070244D01*
X0093415Y0070801D01*
X0091933Y0070801D01*
X0091682Y0071051D01*
X0090895Y0071051D01*
X0090645Y0070801D01*
X0090459Y0070801D01*
X0089959Y0071301D01*
X0089172Y0071301D01*
X0088671Y0070801D01*
X0088310Y0070801D01*
X0088310Y0070995D01*
X0087754Y0071551D01*
X0086967Y0071551D01*
X0087979Y0071326D02*
X0100321Y0071326D01*
X0097452Y0070727D02*
X0097413Y0070727D01*
X0094500Y0070727D02*
X0093489Y0070727D01*
X0093972Y0070129D02*
X0094017Y0070129D01*
X0094017Y0069530D02*
X0093972Y0069530D01*
X0093972Y0068932D02*
X0094017Y0068932D01*
X0094141Y0068333D02*
X0093598Y0068333D01*
X0092042Y0065032D02*
X0090558Y0065032D01*
X0089186Y0064464D01*
X0088136Y0063414D01*
X0087568Y0062042D01*
X0087568Y0060558D01*
X0088136Y0059186D01*
X0089186Y0058136D01*
X0090558Y0057568D01*
X0092042Y0057568D01*
X0093414Y0058136D01*
X0094464Y0059186D01*
X0095032Y0060558D01*
X0095032Y0062042D01*
X0094464Y0063414D01*
X0093414Y0064464D01*
X0092042Y0065032D01*
X0092742Y0064742D02*
X0100321Y0064742D01*
X0100321Y0064144D02*
X0093734Y0064144D01*
X0094333Y0063545D02*
X0095700Y0063545D01*
X0095400Y0062947D02*
X0094658Y0062947D01*
X0094905Y0062348D02*
X0095510Y0062348D01*
X0095900Y0061750D02*
X0095032Y0061750D01*
X0095032Y0061151D02*
X0095900Y0061151D01*
X0096304Y0060553D02*
X0095030Y0060553D01*
X0094782Y0059954D02*
X0100321Y0059954D01*
X0100321Y0059356D02*
X0094534Y0059356D01*
X0094035Y0058757D02*
X0100321Y0058757D01*
X0100321Y0058159D02*
X0093437Y0058159D01*
X0089163Y0058159D02*
X0078437Y0058159D01*
X0078414Y0058136D02*
X0079464Y0059186D01*
X0080032Y0060558D01*
X0080032Y0062042D01*
X0079464Y0063414D01*
X0078414Y0064464D01*
X0077042Y0065032D01*
X0075558Y0065032D01*
X0074186Y0064464D01*
X0073136Y0063414D01*
X0072568Y0062042D01*
X0072568Y0060558D01*
X0073136Y0059186D01*
X0074186Y0058136D01*
X0075558Y0057568D01*
X0077042Y0057568D01*
X0078414Y0058136D01*
X0079035Y0058757D02*
X0088565Y0058757D01*
X0088066Y0059356D02*
X0079534Y0059356D01*
X0079782Y0059954D02*
X0087818Y0059954D01*
X0087570Y0060553D02*
X0085843Y0060553D01*
X0085691Y0060400D02*
X0086247Y0060956D01*
X0086247Y0061744D01*
X0086140Y0061850D01*
X0086247Y0061957D01*
X0086247Y0062738D01*
X0086247Y0062995D01*
X0085997Y0063245D01*
X0085441Y0063801D01*
X0084940Y0063801D01*
X0084940Y0063801D01*
X0084793Y0063801D01*
X0084654Y0063801D01*
X0084153Y0063801D01*
X0084147Y0063795D01*
X0084060Y0063708D01*
X0083973Y0063795D01*
X0083967Y0063801D01*
X0083578Y0063801D01*
X0083180Y0063801D01*
X0080956Y0063801D01*
X0080400Y0063245D01*
X0080400Y0062458D01*
X0080900Y0061957D01*
X0080900Y0060956D01*
X0081457Y0060400D01*
X0082244Y0060400D01*
X0082337Y0060493D01*
X0082430Y0060400D01*
X0083217Y0060400D01*
X0083560Y0060743D01*
X0083903Y0060400D01*
X0085691Y0060400D01*
X0086247Y0061151D02*
X0087568Y0061151D01*
X0087568Y0061750D02*
X0086241Y0061750D01*
X0086247Y0062348D02*
X0087695Y0062348D01*
X0087942Y0062947D02*
X0086247Y0062947D01*
X0086247Y0062995D02*
X0086247Y0062995D01*
X0086247Y0062995D01*
X0085997Y0063245D02*
X0085997Y0063245D01*
X0085697Y0063545D02*
X0088267Y0063545D01*
X0088866Y0064144D02*
X0078734Y0064144D01*
X0079333Y0063545D02*
X0080700Y0063545D01*
X0080400Y0062947D02*
X0079658Y0062947D01*
X0079905Y0062348D02*
X0080510Y0062348D01*
X0080900Y0061750D02*
X0080032Y0061750D01*
X0080032Y0061151D02*
X0080900Y0061151D01*
X0081304Y0060553D02*
X0080030Y0060553D01*
X0083369Y0060553D02*
X0083750Y0060553D01*
X0083967Y0063801D02*
X0083967Y0063801D01*
X0084153Y0063801D02*
X0084153Y0063801D01*
X0084654Y0063801D02*
X0084654Y0063801D01*
X0083180Y0063801D02*
X0083180Y0063801D01*
X0084321Y0067900D02*
X0081579Y0067900D01*
X0081472Y0068007D01*
X0081365Y0067900D01*
X0079355Y0067900D01*
X0078548Y0068707D01*
X0078548Y0070097D01*
X0078548Y0070495D01*
X0078548Y0070495D01*
X0078798Y0070745D01*
X0078798Y0070745D01*
X0079355Y0071301D01*
X0079855Y0071301D01*
X0079855Y0071301D01*
X0080003Y0071301D01*
X0080142Y0071301D01*
X0080142Y0071301D01*
X0080642Y0071301D01*
X0080642Y0071301D01*
X0080648Y0071295D01*
X0080860Y0071083D01*
X0081078Y0071301D01*
X0081865Y0071301D01*
X0081958Y0071208D01*
X0082051Y0071301D01*
X0084071Y0071301D01*
X0084627Y0070745D01*
X0084627Y0069494D01*
X0084877Y0069244D01*
X0084877Y0068456D01*
X0084321Y0067900D01*
X0084754Y0068333D02*
X0085056Y0068333D01*
X0084932Y0068932D02*
X0084877Y0068932D01*
X0084932Y0069530D02*
X0084627Y0069530D01*
X0084627Y0070129D02*
X0084932Y0070129D01*
X0084627Y0070727D02*
X0085415Y0070727D01*
X0087864Y0067735D02*
X0065985Y0067735D01*
X0064528Y0067735D02*
X0063507Y0067735D01*
X0063747Y0067136D02*
X0100321Y0067136D01*
X0100321Y0066538D02*
X0063578Y0066538D01*
X0062007Y0065939D02*
X0100321Y0065939D01*
X0100321Y0065341D02*
X0044835Y0065341D01*
X0044237Y0065939D02*
X0058418Y0065939D01*
X0058400Y0066538D02*
X0043638Y0066538D01*
X0043519Y0066657D02*
X0039081Y0066657D01*
X0035943Y0063519D01*
X0035943Y0059081D01*
X0039081Y0055943D01*
X0043519Y0055943D01*
X0046657Y0059081D01*
X0046657Y0063519D01*
X0043519Y0066657D01*
X0042690Y0068150D02*
X0043191Y0068651D01*
X0043747Y0069207D01*
X0043747Y0069994D01*
X0043191Y0070551D01*
X0043191Y0070551D01*
X0042690Y0071051D01*
X0041903Y0071051D01*
X0041811Y0070958D01*
X0041467Y0071301D01*
X0040967Y0071301D01*
X0040967Y0071301D01*
X0040820Y0071301D01*
X0040680Y0071301D01*
X0038456Y0071301D01*
X0037900Y0070745D01*
X0037900Y0069958D01*
X0038400Y0069457D01*
X0038400Y0068456D01*
X0038957Y0067900D01*
X0039744Y0067900D01*
X0039962Y0068118D01*
X0040180Y0067900D01*
X0041467Y0067900D01*
X0041811Y0068243D01*
X0041903Y0068150D01*
X0042690Y0068150D01*
X0042873Y0068333D02*
X0045773Y0068333D01*
X0045956Y0068150D02*
X0046207Y0067900D01*
X0046994Y0067900D01*
X0047494Y0067900D01*
X0048051Y0068456D01*
X0048051Y0068651D01*
X0048847Y0068651D01*
X0048847Y0068456D01*
X0049403Y0067900D01*
X0050190Y0067900D01*
X0050408Y0068118D01*
X0050626Y0067900D01*
X0051349Y0067900D01*
X0051849Y0067400D01*
X0052637Y0067400D01*
X0052980Y0067743D01*
X0053323Y0067400D01*
X0054110Y0067400D01*
X0054610Y0067900D01*
X0054860Y0067900D01*
X0054953Y0067993D01*
X0055046Y0067900D01*
X0057056Y0067900D01*
X0057613Y0068456D01*
X0057613Y0068901D01*
X0057807Y0068901D01*
X0058363Y0069457D01*
X0058363Y0070244D01*
X0057807Y0070801D01*
X0055046Y0070801D01*
X0054953Y0070708D01*
X0054860Y0070801D01*
X0051191Y0070801D01*
X0050691Y0071301D01*
X0048903Y0071301D01*
X0048347Y0070745D01*
X0048347Y0070551D01*
X0047744Y0070551D01*
X0047494Y0070801D01*
X0046207Y0070801D01*
X0045650Y0070244D01*
X0045400Y0069994D01*
X0045400Y0068707D01*
X0045956Y0068150D01*
X0045400Y0068932D02*
X0043472Y0068932D01*
X0043191Y0068651D02*
X0043191Y0068651D01*
X0043747Y0069530D02*
X0045400Y0069530D01*
X0045535Y0070129D02*
X0043613Y0070129D01*
X0043014Y0070727D02*
X0046133Y0070727D01*
X0047568Y0070727D02*
X0048347Y0070727D01*
X0047927Y0068333D02*
X0048970Y0068333D01*
X0051514Y0067735D02*
X0031007Y0067735D01*
X0031247Y0067494D02*
X0030691Y0068051D01*
X0030691Y0068051D01*
X0030190Y0068551D01*
X0029403Y0068551D01*
X0029311Y0068458D01*
X0028967Y0068801D01*
X0028467Y0068801D01*
X0028467Y0068801D01*
X0028320Y0068801D01*
X0028180Y0068801D01*
X0025956Y0068801D01*
X0025400Y0068245D01*
X0025400Y0067458D01*
X0025900Y0066957D01*
X0025900Y0065956D01*
X0026457Y0065400D01*
X0027244Y0065400D01*
X0027462Y0065618D01*
X0027680Y0065400D01*
X0028967Y0065400D01*
X0029311Y0065743D01*
X0029403Y0065650D01*
X0030190Y0065650D01*
X0030747Y0066207D01*
X0031247Y0066707D01*
X0031247Y0067494D01*
X0031247Y0067136D02*
X0058222Y0067136D01*
X0057900Y0067735D02*
X0054445Y0067735D01*
X0052988Y0067735D02*
X0052972Y0067735D01*
X0054934Y0070727D02*
X0054973Y0070727D01*
X0057880Y0070727D02*
X0058414Y0070727D01*
X0058414Y0070129D02*
X0058363Y0070129D01*
X0058363Y0069530D02*
X0058414Y0069530D01*
X0058414Y0068932D02*
X0057838Y0068932D01*
X0057988Y0068333D02*
X0057490Y0068333D01*
X0059186Y0064464D02*
X0060558Y0065032D01*
X0062042Y0065032D01*
X0063414Y0064464D01*
X0064464Y0063414D01*
X0065032Y0062042D01*
X0065032Y0060558D01*
X0064464Y0059186D01*
X0063414Y0058136D01*
X0062042Y0057568D01*
X0060558Y0057568D01*
X0059186Y0058136D01*
X0058136Y0059186D01*
X0057568Y0060558D01*
X0057568Y0062042D01*
X0058136Y0063414D01*
X0059186Y0064464D01*
X0058866Y0064144D02*
X0046032Y0064144D01*
X0045434Y0064742D02*
X0059858Y0064742D01*
X0058267Y0063545D02*
X0046631Y0063545D01*
X0046657Y0062947D02*
X0057942Y0062947D01*
X0057695Y0062348D02*
X0046657Y0062348D01*
X0046657Y0061750D02*
X0057568Y0061750D01*
X0057568Y0061151D02*
X0046657Y0061151D01*
X0046657Y0060553D02*
X0057570Y0060553D01*
X0057818Y0059954D02*
X0046657Y0059954D01*
X0046657Y0059356D02*
X0058066Y0059356D01*
X0058565Y0058757D02*
X0046333Y0058757D01*
X0045735Y0058159D02*
X0059163Y0058159D01*
X0063437Y0058159D02*
X0074163Y0058159D01*
X0073565Y0058757D02*
X0064035Y0058757D01*
X0064534Y0059356D02*
X0073066Y0059356D01*
X0072818Y0059954D02*
X0064782Y0059954D01*
X0065030Y0060553D02*
X0072570Y0060553D01*
X0072568Y0061151D02*
X0065032Y0061151D01*
X0065032Y0061750D02*
X0072568Y0061750D01*
X0072695Y0062348D02*
X0064905Y0062348D01*
X0064658Y0062947D02*
X0072942Y0062947D01*
X0073267Y0063545D02*
X0064333Y0063545D01*
X0063734Y0064144D02*
X0073866Y0064144D01*
X0074858Y0064742D02*
X0062742Y0064742D01*
X0063528Y0070727D02*
X0063567Y0070727D01*
X0068930Y0070727D02*
X0068969Y0070727D01*
X0071876Y0070727D02*
X0072655Y0070727D01*
X0072655Y0070745D02*
X0072655Y0068957D01*
X0072655Y0068456D01*
X0073212Y0067900D01*
X0073999Y0067900D01*
X0074106Y0068007D01*
X0074213Y0067900D01*
X0077946Y0067900D01*
X0078503Y0068456D01*
X0078503Y0069244D01*
X0078002Y0069744D01*
X0078002Y0070745D01*
X0077446Y0071301D01*
X0076659Y0071301D01*
X0076441Y0071083D01*
X0076228Y0071295D01*
X0076223Y0071301D01*
X0076223Y0071301D01*
X0075722Y0071301D01*
X0075722Y0071301D01*
X0075583Y0071301D01*
X0075436Y0071301D01*
X0074935Y0071301D01*
X0074842Y0071208D01*
X0074755Y0071295D01*
X0074749Y0071301D01*
X0074360Y0071301D01*
X0073962Y0071301D01*
X0073212Y0071301D01*
X0072655Y0070745D01*
X0072655Y0070129D02*
X0072475Y0070129D01*
X0072610Y0069530D02*
X0072655Y0069530D01*
X0072655Y0068932D02*
X0072584Y0068932D01*
X0072778Y0068333D02*
X0072236Y0068333D01*
X0073962Y0071301D02*
X0073962Y0071301D01*
X0074749Y0071301D02*
X0074749Y0071301D01*
X0075436Y0071301D02*
X0075436Y0071301D01*
X0078002Y0070727D02*
X0078781Y0070727D01*
X0078548Y0070495D02*
X0078548Y0070495D01*
X0078548Y0070129D02*
X0078002Y0070129D01*
X0078216Y0069530D02*
X0078548Y0069530D01*
X0078548Y0068932D02*
X0078503Y0068932D01*
X0078379Y0068333D02*
X0078922Y0068333D01*
X0077742Y0064742D02*
X0089858Y0064742D01*
X0089571Y0067735D02*
X0100321Y0067735D01*
X0098750Y0060553D02*
X0098369Y0060553D01*
X0100321Y0057560D02*
X0045136Y0057560D01*
X0044538Y0056962D02*
X0100321Y0056962D01*
X0100321Y0056363D02*
X0043939Y0056363D01*
X0038661Y0056363D02*
X0002200Y0056363D01*
X0002200Y0055765D02*
X0100321Y0055765D01*
X0100321Y0055166D02*
X0002200Y0055166D01*
X0002200Y0054568D02*
X0009436Y0054568D01*
X0009186Y0054464D02*
X0008232Y0053510D01*
X0007947Y0053795D01*
X0007941Y0053801D01*
X0007941Y0053801D01*
X0007551Y0053801D01*
X0007154Y0053801D01*
X0006403Y0053801D01*
X0006060Y0053458D01*
X0005717Y0053801D01*
X0004930Y0053801D01*
X0004597Y0053801D01*
X0004494Y0053801D01*
X0004346Y0053801D01*
X0004207Y0053801D01*
X0003707Y0053801D01*
X0003701Y0053795D01*
X0003150Y0053245D01*
X0003150Y0053245D01*
X0002900Y0052995D01*
X0002900Y0052995D01*
X0002900Y0052995D01*
X0002900Y0052605D01*
X0002900Y0051207D01*
X0003150Y0050956D01*
X0003707Y0050400D01*
X0007190Y0050400D01*
X0007297Y0050507D01*
X0007404Y0050400D01*
X0007633Y0050400D01*
X0008136Y0049186D01*
X0009186Y0048136D01*
X0010558Y0047568D01*
X0012042Y0047568D01*
X0013414Y0048136D01*
X0014464Y0049186D01*
X0015032Y0050558D01*
X0015032Y0052042D01*
X0014464Y0053414D01*
X0013414Y0054464D01*
X0012042Y0055032D01*
X0010558Y0055032D01*
X0009186Y0054464D01*
X0008691Y0053969D02*
X0002200Y0053969D01*
X0002200Y0053370D02*
X0003276Y0053370D01*
X0003707Y0053801D02*
X0003707Y0053801D01*
X0004207Y0053801D02*
X0004207Y0053801D01*
X0004494Y0053801D02*
X0004494Y0053801D01*
X0002900Y0052772D02*
X0002200Y0052772D01*
X0002200Y0052173D02*
X0002900Y0052173D01*
X0002900Y0051575D02*
X0002200Y0051575D01*
X0002200Y0050976D02*
X0003130Y0050976D01*
X0002200Y0050378D02*
X0007642Y0050378D01*
X0007890Y0049779D02*
X0002200Y0049779D01*
X0002200Y0049181D02*
X0008141Y0049181D01*
X0008740Y0048582D02*
X0002200Y0048582D01*
X0002200Y0047984D02*
X0009553Y0047984D01*
X0010558Y0045032D02*
X0009186Y0044464D01*
X0008357Y0043635D01*
X0008191Y0043801D01*
X0007404Y0043801D01*
X0007297Y0043694D01*
X0007190Y0043801D01*
X0006403Y0043801D01*
X0006060Y0043458D01*
X0005717Y0043801D01*
X0004930Y0043801D01*
X0004597Y0043801D01*
X0004494Y0043801D01*
X0004346Y0043801D01*
X0004207Y0043801D01*
X0003707Y0043801D01*
X0003701Y0043795D01*
X0003150Y0043245D01*
X0003150Y0043245D01*
X0002900Y0042995D01*
X0002900Y0042995D01*
X0002900Y0042995D01*
X0002900Y0042605D01*
X0002900Y0041207D01*
X0003150Y0040956D01*
X0003707Y0040400D01*
X0007190Y0040400D01*
X0007297Y0040507D01*
X0007404Y0040400D01*
X0007633Y0040400D01*
X0008136Y0039186D01*
X0009186Y0038136D01*
X0010558Y0037568D01*
X0012042Y0037568D01*
X0013414Y0038136D01*
X0014464Y0039186D01*
X0015032Y0040558D01*
X0015032Y0042042D01*
X0014464Y0043414D01*
X0013414Y0044464D01*
X0012042Y0045032D01*
X0010558Y0045032D01*
X0010459Y0044991D02*
X0002200Y0044991D01*
X0002200Y0044393D02*
X0009115Y0044393D01*
X0008516Y0043794D02*
X0008198Y0043794D01*
X0007397Y0043794D02*
X0007197Y0043794D01*
X0006396Y0043794D02*
X0005724Y0043794D01*
X0004494Y0043801D02*
X0004494Y0043801D01*
X0004207Y0043801D02*
X0004207Y0043801D01*
X0003707Y0043801D02*
X0003707Y0043801D01*
X0003700Y0043794D02*
X0002200Y0043794D01*
X0002200Y0043196D02*
X0003101Y0043196D01*
X0002900Y0042597D02*
X0002200Y0042597D01*
X0002200Y0041999D02*
X0002900Y0041999D01*
X0002900Y0041400D02*
X0002200Y0041400D01*
X0002200Y0040802D02*
X0003305Y0040802D01*
X0002200Y0040203D02*
X0007715Y0040203D01*
X0007963Y0039605D02*
X0002200Y0039605D01*
X0002200Y0039006D02*
X0008316Y0039006D01*
X0008914Y0038408D02*
X0002200Y0038408D01*
X0002200Y0037809D02*
X0009975Y0037809D01*
X0012625Y0037809D02*
X0074975Y0037809D01*
X0075558Y0037568D02*
X0074186Y0038136D01*
X0073136Y0039186D01*
X0072568Y0040558D01*
X0072568Y0042042D01*
X0073136Y0043414D01*
X0074186Y0044464D01*
X0075558Y0045032D01*
X0077042Y0045032D01*
X0078414Y0044464D01*
X0079464Y0043414D01*
X0080032Y0042042D01*
X0080032Y0040558D01*
X0079464Y0039186D01*
X0078414Y0038136D01*
X0077042Y0037568D01*
X0075558Y0037568D01*
X0073914Y0038408D02*
X0013686Y0038408D01*
X0014284Y0039006D02*
X0073316Y0039006D01*
X0072963Y0039605D02*
X0014637Y0039605D01*
X0014885Y0040203D02*
X0072715Y0040203D01*
X0072568Y0040802D02*
X0015032Y0040802D01*
X0015032Y0041400D02*
X0072568Y0041400D01*
X0072568Y0041999D02*
X0015032Y0041999D01*
X0014802Y0042597D02*
X0072798Y0042597D01*
X0073046Y0043196D02*
X0014554Y0043196D01*
X0014084Y0043794D02*
X0073516Y0043794D01*
X0074115Y0044393D02*
X0013485Y0044393D01*
X0012141Y0044991D02*
X0075459Y0044991D01*
X0077141Y0044991D02*
X0090459Y0044991D01*
X0090558Y0045032D02*
X0089186Y0044464D01*
X0088136Y0043414D01*
X0087568Y0042042D01*
X0087568Y0040558D01*
X0088136Y0039186D01*
X0089186Y0038136D01*
X0090558Y0037568D01*
X0092042Y0037568D01*
X0093414Y0038136D01*
X0094464Y0039186D01*
X0095032Y0040558D01*
X0095032Y0042042D01*
X0094464Y0043414D01*
X0093414Y0044464D01*
X0092042Y0045032D01*
X0090558Y0045032D01*
X0089115Y0044393D02*
X0078485Y0044393D01*
X0079084Y0043794D02*
X0080950Y0043794D01*
X0080956Y0043801D02*
X0080400Y0043245D01*
X0080400Y0042458D01*
X0080900Y0041957D01*
X0080900Y0040956D01*
X0081457Y0040400D01*
X0082244Y0040400D01*
X0082337Y0040493D01*
X0082430Y0040400D01*
X0083217Y0040400D01*
X0083685Y0040868D01*
X0084153Y0040400D01*
X0085441Y0040400D01*
X0085691Y0040650D01*
X0086247Y0041207D01*
X0086247Y0041846D01*
X0086247Y0042244D01*
X0086134Y0042357D01*
X0086323Y0042924D01*
X0085971Y0043628D01*
X0085224Y0043877D01*
X0084573Y0043551D01*
X0084403Y0043551D01*
X0084311Y0043458D01*
X0083973Y0043795D01*
X0083967Y0043801D01*
X0083578Y0043801D01*
X0083180Y0043801D01*
X0080956Y0043801D01*
X0080400Y0043196D02*
X0079554Y0043196D01*
X0079802Y0042597D02*
X0080400Y0042597D01*
X0080032Y0041999D02*
X0080859Y0041999D01*
X0080900Y0041400D02*
X0080032Y0041400D01*
X0080032Y0040802D02*
X0081055Y0040802D01*
X0079885Y0040203D02*
X0087715Y0040203D01*
X0087568Y0040802D02*
X0085842Y0040802D01*
X0086247Y0041400D02*
X0087568Y0041400D01*
X0087568Y0041999D02*
X0086247Y0041999D01*
X0086247Y0042244D02*
X0086247Y0042244D01*
X0086247Y0042244D01*
X0086214Y0042597D02*
X0087798Y0042597D01*
X0088046Y0043196D02*
X0086187Y0043196D01*
X0085472Y0043794D02*
X0088516Y0043794D01*
X0085059Y0043794D02*
X0083974Y0043794D01*
X0083967Y0043801D02*
X0083967Y0043801D01*
X0083180Y0043801D02*
X0083180Y0043801D01*
X0083618Y0040802D02*
X0083751Y0040802D01*
X0079637Y0039605D02*
X0087963Y0039605D01*
X0088316Y0039006D02*
X0079284Y0039006D01*
X0078686Y0038408D02*
X0088914Y0038408D01*
X0089975Y0037809D02*
X0077625Y0037809D01*
X0077042Y0035032D02*
X0075558Y0035032D01*
X0074186Y0034464D01*
X0073136Y0033414D01*
X0072568Y0032042D01*
X0072568Y0030558D01*
X0073136Y0029186D01*
X0074186Y0028136D01*
X0075558Y0027568D01*
X0077042Y0027568D01*
X0078414Y0028136D01*
X0079464Y0029186D01*
X0080032Y0030558D01*
X0080032Y0032042D01*
X0079464Y0033414D01*
X0078414Y0034464D01*
X0077042Y0035032D01*
X0077562Y0034817D02*
X0090038Y0034817D01*
X0090558Y0035032D02*
X0089186Y0034464D01*
X0088136Y0033414D01*
X0087568Y0032042D01*
X0087568Y0030558D01*
X0088136Y0029186D01*
X0089186Y0028136D01*
X0090558Y0027568D01*
X0092042Y0027568D01*
X0093414Y0028136D01*
X0094464Y0029186D01*
X0095032Y0030558D01*
X0095032Y0032042D01*
X0094464Y0033414D01*
X0093414Y0034464D01*
X0092042Y0035032D01*
X0090558Y0035032D01*
X0088940Y0034218D02*
X0078660Y0034218D01*
X0079258Y0033620D02*
X0080775Y0033620D01*
X0080956Y0033801D02*
X0080400Y0033245D01*
X0080400Y0032458D01*
X0080900Y0031957D01*
X0080900Y0030956D01*
X0081457Y0030400D01*
X0082244Y0030400D01*
X0082337Y0030493D01*
X0082430Y0030400D01*
X0083217Y0030400D01*
X0083685Y0030868D01*
X0083903Y0030650D01*
X0084153Y0030400D01*
X0085441Y0030400D01*
X0085997Y0030956D01*
X0086247Y0031207D01*
X0086247Y0031858D01*
X0086247Y0032244D01*
X0086247Y0032609D01*
X0086247Y0032995D01*
X0085997Y0033245D01*
X0085447Y0033795D01*
X0085441Y0033801D01*
X0085441Y0033801D01*
X0084940Y0033801D01*
X0084940Y0033801D01*
X0084801Y0033801D01*
X0084654Y0033801D01*
X0084153Y0033801D01*
X0084060Y0033708D01*
X0083973Y0033795D01*
X0083967Y0033801D01*
X0083578Y0033801D01*
X0083180Y0033801D01*
X0080956Y0033801D01*
X0080400Y0033021D02*
X0079627Y0033021D01*
X0079875Y0032423D02*
X0080435Y0032423D01*
X0080032Y0031824D02*
X0080900Y0031824D01*
X0080900Y0031226D02*
X0080032Y0031226D01*
X0080032Y0030627D02*
X0081230Y0030627D01*
X0079813Y0030029D02*
X0087787Y0030029D01*
X0087568Y0030627D02*
X0085668Y0030627D01*
X0086247Y0031226D02*
X0087568Y0031226D01*
X0087568Y0031824D02*
X0086247Y0031824D01*
X0086247Y0032244D02*
X0086247Y0032244D01*
X0086247Y0032423D02*
X0087725Y0032423D01*
X0087973Y0033021D02*
X0086221Y0033021D01*
X0086247Y0032995D02*
X0086247Y0032995D01*
X0086247Y0032995D01*
X0085997Y0033245D02*
X0085997Y0033245D01*
X0085622Y0033620D02*
X0088342Y0033620D01*
X0084654Y0033801D02*
X0084654Y0033801D01*
X0083967Y0033801D02*
X0083967Y0033801D01*
X0083180Y0033801D02*
X0083180Y0033801D01*
X0083444Y0030627D02*
X0083926Y0030627D01*
X0088035Y0029430D02*
X0079565Y0029430D01*
X0079109Y0028832D02*
X0088491Y0028832D01*
X0089089Y0028233D02*
X0078511Y0028233D01*
X0077203Y0027634D02*
X0090397Y0027634D01*
X0092203Y0027634D02*
X0100321Y0027634D01*
X0100321Y0027036D02*
X0002200Y0027036D01*
X0002200Y0027634D02*
X0010397Y0027634D01*
X0010558Y0027568D02*
X0012042Y0027568D01*
X0013414Y0028136D01*
X0014464Y0029186D01*
X0015032Y0030558D01*
X0015032Y0032042D01*
X0014464Y0033414D01*
X0013414Y0034464D01*
X0012042Y0035032D01*
X0010558Y0035032D01*
X0009186Y0034464D01*
X0008136Y0033414D01*
X0008122Y0033379D01*
X0007700Y0033801D01*
X0006913Y0033801D01*
X0006827Y0033716D01*
X0006774Y0033726D01*
X0006699Y0033801D01*
X0006399Y0033801D01*
X0006106Y0033860D01*
X0006018Y0033801D01*
X0004597Y0033801D01*
X0004207Y0033801D01*
X0003456Y0033801D01*
X0002900Y0033245D01*
X0002900Y0032458D01*
X0002900Y0031744D01*
X0002900Y0030956D01*
X0003456Y0030400D01*
X0006699Y0030400D01*
X0006784Y0030486D01*
X0006838Y0030475D01*
X0006913Y0030400D01*
X0007212Y0030400D01*
X0007506Y0030341D01*
X0007594Y0030400D01*
X0007633Y0030400D01*
X0008136Y0029186D01*
X0009186Y0028136D01*
X0010558Y0027568D01*
X0009089Y0028233D02*
X0002200Y0028233D01*
X0002200Y0028832D02*
X0008491Y0028832D01*
X0008035Y0029430D02*
X0002200Y0029430D01*
X0002200Y0030029D02*
X0007787Y0030029D01*
X0007881Y0033620D02*
X0008342Y0033620D01*
X0008940Y0034218D02*
X0002200Y0034218D01*
X0002200Y0033620D02*
X0003275Y0033620D01*
X0002900Y0033021D02*
X0002200Y0033021D01*
X0002200Y0032423D02*
X0002900Y0032423D01*
X0002900Y0031824D02*
X0002200Y0031824D01*
X0002200Y0031226D02*
X0002900Y0031226D01*
X0003229Y0030627D02*
X0002200Y0030627D01*
X0004207Y0033801D02*
X0004207Y0033801D01*
X0002200Y0034817D02*
X0010038Y0034817D01*
X0012562Y0034817D02*
X0075038Y0034817D01*
X0073940Y0034218D02*
X0013660Y0034218D01*
X0014258Y0033620D02*
X0073342Y0033620D01*
X0072973Y0033021D02*
X0014627Y0033021D01*
X0014875Y0032423D02*
X0072725Y0032423D01*
X0072568Y0031824D02*
X0015032Y0031824D01*
X0015032Y0031226D02*
X0072568Y0031226D01*
X0072568Y0030627D02*
X0015032Y0030627D01*
X0014813Y0030029D02*
X0072787Y0030029D01*
X0073035Y0029430D02*
X0014565Y0029430D01*
X0014109Y0028832D02*
X0073491Y0028832D01*
X0074089Y0028233D02*
X0013511Y0028233D01*
X0012203Y0027634D02*
X0075397Y0027634D01*
X0075558Y0025032D02*
X0074186Y0024464D01*
X0073136Y0023414D01*
X0072568Y0022042D01*
X0072568Y0020558D01*
X0073136Y0019186D01*
X0074186Y0018136D01*
X0075558Y0017568D01*
X0077042Y0017568D01*
X0078414Y0018136D01*
X0079464Y0019186D01*
X0080032Y0020558D01*
X0080032Y0022042D01*
X0079464Y0023414D01*
X0078414Y0024464D01*
X0077042Y0025032D01*
X0075558Y0025032D01*
X0074616Y0024642D02*
X0013363Y0024642D01*
X0013159Y0024778D02*
X0013802Y0024349D01*
X0014349Y0023802D01*
X0014778Y0023159D01*
X0015074Y0022445D01*
X0015225Y0021687D01*
X0015225Y0021600D01*
X0011600Y0021600D01*
X0011000Y0021600D01*
X0011000Y0025225D01*
X0010913Y0025225D01*
X0010155Y0025074D01*
X0009441Y0024778D01*
X0008798Y0024349D01*
X0008251Y0023802D01*
X0008127Y0023615D01*
X0007941Y0023801D01*
X0007543Y0023801D01*
X0007154Y0023801D01*
X0005931Y0023801D01*
X0005845Y0023716D01*
X0005792Y0023726D01*
X0005717Y0023801D01*
X0005417Y0023801D01*
X0005124Y0023860D01*
X0005036Y0023801D01*
X0004930Y0023801D01*
X0004597Y0023801D01*
X0004494Y0023801D01*
X0004346Y0023801D01*
X0004207Y0023801D01*
X0003707Y0023801D01*
X0003701Y0023795D01*
X0003150Y0023245D01*
X0003150Y0023245D01*
X0002900Y0022995D01*
X0002900Y0022995D01*
X0002900Y0022995D01*
X0002900Y0022605D01*
X0002900Y0021207D01*
X0003150Y0020956D01*
X0003707Y0020400D01*
X0005717Y0020400D01*
X0005802Y0020486D01*
X0005856Y0020475D01*
X0005931Y0020400D01*
X0006230Y0020400D01*
X0006524Y0020341D01*
X0006612Y0020400D01*
X0007477Y0020400D01*
X0007526Y0020155D01*
X0007822Y0019441D01*
X0008251Y0018798D01*
X0008798Y0018251D01*
X0009441Y0017822D01*
X0010155Y0017526D01*
X0010913Y0017375D01*
X0011000Y0017375D01*
X0011000Y0021000D01*
X0011600Y0021000D01*
X0011600Y0021600D01*
X0011600Y0025225D01*
X0011687Y0025225D01*
X0012445Y0025074D01*
X0013159Y0024778D01*
X0014107Y0024043D02*
X0073765Y0024043D01*
X0073167Y0023445D02*
X0014587Y0023445D01*
X0014908Y0022846D02*
X0072901Y0022846D01*
X0072653Y0022248D02*
X0015113Y0022248D01*
X0015225Y0021649D02*
X0072568Y0021649D01*
X0072568Y0021051D02*
X0011600Y0021051D01*
X0011600Y0021000D02*
X0015225Y0021000D01*
X0015225Y0020913D01*
X0015074Y0020155D01*
X0014778Y0019441D01*
X0014349Y0018798D01*
X0013802Y0018251D01*
X0013159Y0017822D01*
X0012445Y0017526D01*
X0011687Y0017375D01*
X0011600Y0017375D01*
X0011600Y0021000D01*
X0011600Y0020452D02*
X0011000Y0020452D01*
X0011000Y0019854D02*
X0011600Y0019854D01*
X0011600Y0019255D02*
X0011000Y0019255D01*
X0011000Y0018657D02*
X0011600Y0018657D01*
X0011600Y0018058D02*
X0011000Y0018058D01*
X0011000Y0017460D02*
X0011600Y0017460D01*
X0012113Y0017460D02*
X0100321Y0017460D01*
X0100321Y0018058D02*
X0093226Y0018058D01*
X0093414Y0018136D02*
X0094464Y0019186D01*
X0095032Y0020558D01*
X0095032Y0022042D01*
X0094464Y0023414D01*
X0093414Y0024464D01*
X0092042Y0025032D01*
X0090558Y0025032D01*
X0089186Y0024464D01*
X0088136Y0023414D01*
X0087721Y0022411D01*
X0087721Y0022621D01*
X0087721Y0022995D01*
X0087470Y0023245D01*
X0086920Y0023795D01*
X0086914Y0023801D01*
X0086914Y0023801D01*
X0086413Y0023801D01*
X0086274Y0023801D01*
X0086127Y0023801D01*
X0085626Y0023801D01*
X0085408Y0023583D01*
X0085190Y0023801D01*
X0084403Y0023801D01*
X0084185Y0023583D01*
X0083973Y0023795D01*
X0083967Y0023801D01*
X0083578Y0023801D01*
X0083180Y0023801D01*
X0080956Y0023801D01*
X0080400Y0023245D01*
X0080400Y0022458D01*
X0080900Y0021957D01*
X0080900Y0020956D01*
X0081457Y0020400D01*
X0082244Y0020400D01*
X0082337Y0020493D01*
X0082430Y0020400D01*
X0083217Y0020400D01*
X0083560Y0020743D01*
X0083903Y0020400D01*
X0086914Y0020400D01*
X0087470Y0020956D01*
X0087568Y0021054D01*
X0087568Y0020558D01*
X0088136Y0019186D01*
X0089186Y0018136D01*
X0090558Y0017568D01*
X0092042Y0017568D01*
X0093414Y0018136D01*
X0093935Y0018657D02*
X0100321Y0018657D01*
X0100321Y0019255D02*
X0094493Y0019255D01*
X0094741Y0019854D02*
X0100321Y0019854D01*
X0099101Y0020452D02*
X0098269Y0020452D01*
X0097377Y0020452D02*
X0097296Y0020452D01*
X0096405Y0020452D02*
X0094988Y0020452D01*
X0095032Y0021051D02*
X0095900Y0021051D01*
X0095900Y0021649D02*
X0095032Y0021649D01*
X0094947Y0022248D02*
X0095610Y0022248D01*
X0095400Y0022846D02*
X0094699Y0022846D01*
X0094433Y0023445D02*
X0095600Y0023445D01*
X0093835Y0024043D02*
X0100321Y0024043D01*
X0100321Y0024642D02*
X0092984Y0024642D01*
X0089616Y0024642D02*
X0077984Y0024642D01*
X0078835Y0024043D02*
X0088765Y0024043D01*
X0088167Y0023445D02*
X0087270Y0023445D01*
X0087470Y0023245D02*
X0087470Y0023245D01*
X0087721Y0022995D02*
X0087721Y0022995D01*
X0087721Y0022995D01*
X0087721Y0022846D02*
X0087901Y0022846D01*
X0086413Y0023801D02*
X0086413Y0023801D01*
X0086127Y0023801D02*
X0086127Y0023801D01*
X0083967Y0023801D02*
X0083967Y0023801D01*
X0083180Y0023801D02*
X0083180Y0023801D01*
X0080610Y0022248D02*
X0079947Y0022248D01*
X0080032Y0021649D02*
X0080900Y0021649D01*
X0080900Y0021051D02*
X0080032Y0021051D01*
X0079988Y0020452D02*
X0081405Y0020452D01*
X0082296Y0020452D02*
X0082377Y0020452D01*
X0083269Y0020452D02*
X0083851Y0020452D01*
X0086966Y0020452D02*
X0087612Y0020452D01*
X0087565Y0021051D02*
X0087568Y0021051D01*
X0087859Y0019854D02*
X0079741Y0019854D01*
X0079493Y0019255D02*
X0088107Y0019255D01*
X0088665Y0018657D02*
X0078935Y0018657D01*
X0078226Y0018058D02*
X0089374Y0018058D01*
X0090558Y0015032D02*
X0089186Y0014464D01*
X0088136Y0013414D01*
X0087721Y0012411D01*
X0087721Y0012597D01*
X0087721Y0012995D01*
X0087470Y0013245D01*
X0086914Y0013801D01*
X0086413Y0013801D01*
X0086266Y0013801D01*
X0086127Y0013801D01*
X0085626Y0013801D01*
X0085621Y0013795D01*
X0085408Y0013583D01*
X0085190Y0013801D01*
X0084403Y0013801D01*
X0084185Y0013583D01*
X0083973Y0013795D01*
X0083967Y0013801D01*
X0083578Y0013801D01*
X0083180Y0013801D01*
X0080956Y0013801D01*
X0080400Y0013245D01*
X0080400Y0012458D01*
X0080900Y0011957D01*
X0080900Y0010956D01*
X0081457Y0010400D01*
X0082244Y0010400D01*
X0082337Y0010493D01*
X0082430Y0010400D01*
X0083217Y0010400D01*
X0083560Y0010743D01*
X0083903Y0010400D01*
X0087164Y0010400D01*
X0087568Y0010804D01*
X0087568Y0010558D01*
X0088136Y0009186D01*
X0089186Y0008136D01*
X0090558Y0007568D01*
X0092042Y0007568D01*
X0093414Y0008136D01*
X0094464Y0009186D01*
X0095032Y0010558D01*
X0095032Y0012042D01*
X0094464Y0013414D01*
X0093414Y0014464D01*
X0092042Y0015032D01*
X0090558Y0015032D01*
X0089194Y0014467D02*
X0078406Y0014467D01*
X0078414Y0014464D02*
X0077042Y0015032D01*
X0075558Y0015032D01*
X0074186Y0014464D01*
X0073136Y0013414D01*
X0072568Y0012042D01*
X0072568Y0010558D01*
X0073136Y0009186D01*
X0074186Y0008136D01*
X0075558Y0007568D01*
X0077042Y0007568D01*
X0078414Y0008136D01*
X0079464Y0009186D01*
X0080032Y0010558D01*
X0080032Y0012042D01*
X0079464Y0013414D01*
X0078414Y0014464D01*
X0079009Y0013869D02*
X0088591Y0013869D01*
X0088077Y0013270D02*
X0087445Y0013270D01*
X0087470Y0013245D02*
X0087470Y0013245D01*
X0087721Y0012995D02*
X0087721Y0012995D01*
X0087721Y0012995D01*
X0087721Y0012672D02*
X0087829Y0012672D01*
X0086413Y0013801D02*
X0086413Y0013801D01*
X0086127Y0013801D02*
X0086127Y0013801D01*
X0085626Y0013801D02*
X0085626Y0013801D01*
X0083967Y0013801D02*
X0083967Y0013801D01*
X0083180Y0013801D02*
X0083180Y0013801D01*
X0080425Y0013270D02*
X0079523Y0013270D01*
X0079771Y0012672D02*
X0080400Y0012672D01*
X0080019Y0012073D02*
X0080785Y0012073D01*
X0080900Y0011475D02*
X0080032Y0011475D01*
X0080032Y0010876D02*
X0080981Y0010876D01*
X0079916Y0010278D02*
X0087684Y0010278D01*
X0087932Y0009679D02*
X0079668Y0009679D01*
X0079359Y0009081D02*
X0088241Y0009081D01*
X0088840Y0008482D02*
X0078760Y0008482D01*
X0077805Y0007884D02*
X0089795Y0007884D01*
X0092805Y0007884D02*
X0100321Y0007884D01*
X0100321Y0008482D02*
X0093760Y0008482D01*
X0094359Y0009081D02*
X0100321Y0009081D01*
X0100321Y0009679D02*
X0094668Y0009679D01*
X0094916Y0010278D02*
X0100321Y0010278D01*
X0100321Y0007285D02*
X0002200Y0007285D01*
X0002200Y0006687D02*
X0100321Y0006687D01*
X0100321Y0006088D02*
X0002200Y0006088D01*
X0002200Y0005490D02*
X0100321Y0005490D01*
X0100321Y0004891D02*
X0002200Y0004891D01*
X0002200Y0004293D02*
X0100321Y0004293D01*
X0100321Y0003694D02*
X0002200Y0003694D01*
X0002200Y0003096D02*
X0100321Y0003096D01*
X0100321Y0002497D02*
X0002200Y0002497D01*
X0002200Y0007884D02*
X0074795Y0007884D01*
X0073840Y0008482D02*
X0002200Y0008482D01*
X0002200Y0009081D02*
X0073241Y0009081D01*
X0072932Y0009679D02*
X0002200Y0009679D01*
X0002200Y0010278D02*
X0072684Y0010278D01*
X0072568Y0010876D02*
X0002200Y0010876D01*
X0002200Y0011475D02*
X0072568Y0011475D01*
X0072581Y0012073D02*
X0002200Y0012073D01*
X0002200Y0012672D02*
X0072829Y0012672D01*
X0073077Y0013270D02*
X0002200Y0013270D01*
X0002200Y0013869D02*
X0073591Y0013869D01*
X0074194Y0014467D02*
X0002200Y0014467D01*
X0002200Y0015066D02*
X0100321Y0015066D01*
X0100321Y0015664D02*
X0002200Y0015664D01*
X0002200Y0016263D02*
X0100321Y0016263D01*
X0100321Y0016861D02*
X0002200Y0016861D01*
X0002200Y0017460D02*
X0010487Y0017460D01*
X0009087Y0018058D02*
X0002200Y0018058D01*
X0002200Y0018657D02*
X0008392Y0018657D01*
X0007946Y0019255D02*
X0002200Y0019255D01*
X0002200Y0019854D02*
X0007651Y0019854D01*
X0005878Y0020452D02*
X0005769Y0020452D01*
X0003654Y0020452D02*
X0002200Y0020452D01*
X0002200Y0021051D02*
X0003056Y0021051D01*
X0002900Y0021649D02*
X0002200Y0021649D01*
X0002200Y0022248D02*
X0002900Y0022248D01*
X0002900Y0022846D02*
X0002200Y0022846D01*
X0002200Y0023445D02*
X0003350Y0023445D01*
X0003707Y0023801D02*
X0003707Y0023801D01*
X0004207Y0023801D02*
X0004207Y0023801D01*
X0004494Y0023801D02*
X0004494Y0023801D01*
X0002200Y0024043D02*
X0008493Y0024043D01*
X0009237Y0024642D02*
X0002200Y0024642D01*
X0002200Y0025240D02*
X0100321Y0025240D01*
X0100321Y0025839D02*
X0002200Y0025839D01*
X0002200Y0026437D02*
X0100321Y0026437D01*
X0100321Y0028233D02*
X0093511Y0028233D01*
X0094109Y0028832D02*
X0100321Y0028832D01*
X0100321Y0029430D02*
X0094565Y0029430D01*
X0094813Y0030029D02*
X0100321Y0030029D01*
X0100321Y0030627D02*
X0099917Y0030627D01*
X0100265Y0031226D02*
X0100321Y0031226D01*
X0098676Y0030627D02*
X0098444Y0030627D01*
X0096230Y0030627D02*
X0095032Y0030627D01*
X0095032Y0031226D02*
X0095900Y0031226D01*
X0095900Y0031824D02*
X0095032Y0031824D01*
X0094875Y0032423D02*
X0095435Y0032423D01*
X0095400Y0033021D02*
X0094627Y0033021D01*
X0094258Y0033620D02*
X0095775Y0033620D01*
X0093660Y0034218D02*
X0100321Y0034218D01*
X0100321Y0034817D02*
X0092562Y0034817D01*
X0092625Y0037809D02*
X0100321Y0037809D01*
X0100321Y0037211D02*
X0002200Y0037211D01*
X0002200Y0036612D02*
X0100321Y0036612D01*
X0100321Y0036014D02*
X0002200Y0036014D01*
X0002200Y0035415D02*
X0100321Y0035415D01*
X0100321Y0038408D02*
X0093686Y0038408D01*
X0094284Y0039006D02*
X0100321Y0039006D01*
X0100321Y0039605D02*
X0094637Y0039605D01*
X0094885Y0040203D02*
X0100321Y0040203D01*
X0098751Y0040802D02*
X0098618Y0040802D01*
X0096055Y0040802D02*
X0095032Y0040802D01*
X0095032Y0041400D02*
X0095900Y0041400D01*
X0095859Y0041999D02*
X0095032Y0041999D01*
X0094802Y0042597D02*
X0095400Y0042597D01*
X0095400Y0043196D02*
X0094554Y0043196D01*
X0094084Y0043794D02*
X0095950Y0043794D01*
X0093485Y0044393D02*
X0100321Y0044393D01*
X0100321Y0044991D02*
X0092141Y0044991D01*
X0092042Y0047568D02*
X0093414Y0048136D01*
X0094464Y0049186D01*
X0095032Y0050558D01*
X0095032Y0052042D01*
X0094464Y0053414D01*
X0093414Y0054464D01*
X0092042Y0055032D01*
X0090558Y0055032D01*
X0089186Y0054464D01*
X0088136Y0053414D01*
X0087568Y0052042D01*
X0087568Y0050558D01*
X0088136Y0049186D01*
X0089186Y0048136D01*
X0090558Y0047568D01*
X0092042Y0047568D01*
X0093047Y0047984D02*
X0100321Y0047984D01*
X0100321Y0048582D02*
X0093860Y0048582D01*
X0094459Y0049181D02*
X0100321Y0049181D01*
X0100321Y0049779D02*
X0094710Y0049779D01*
X0094958Y0050378D02*
X0100321Y0050378D01*
X0100321Y0047385D02*
X0002200Y0047385D01*
X0002200Y0046787D02*
X0100321Y0046787D01*
X0100321Y0046188D02*
X0002200Y0046188D01*
X0002200Y0045590D02*
X0100321Y0045590D01*
X0095900Y0050976D02*
X0095032Y0050976D01*
X0095032Y0051575D02*
X0095900Y0051575D01*
X0095684Y0052173D02*
X0094978Y0052173D01*
X0094730Y0052772D02*
X0095400Y0052772D01*
X0095526Y0053370D02*
X0094482Y0053370D01*
X0093909Y0053969D02*
X0100321Y0053969D01*
X0100321Y0054568D02*
X0093164Y0054568D01*
X0089436Y0054568D02*
X0078164Y0054568D01*
X0078414Y0054464D02*
X0077042Y0055032D01*
X0075558Y0055032D01*
X0074186Y0054464D01*
X0073136Y0053414D01*
X0072568Y0052042D01*
X0072568Y0050558D01*
X0073136Y0049186D01*
X0074186Y0048136D01*
X0075558Y0047568D01*
X0077042Y0047568D01*
X0078414Y0048136D01*
X0079464Y0049186D01*
X0080032Y0050558D01*
X0080032Y0052042D01*
X0079464Y0053414D01*
X0078414Y0054464D01*
X0078909Y0053969D02*
X0088691Y0053969D01*
X0088118Y0053370D02*
X0085871Y0053370D01*
X0085997Y0053245D02*
X0085441Y0053801D01*
X0084654Y0053801D01*
X0084311Y0053458D01*
X0083973Y0053795D01*
X0083967Y0053801D01*
X0083578Y0053801D01*
X0083180Y0053801D01*
X0080956Y0053801D01*
X0080400Y0053245D01*
X0080400Y0052458D01*
X0080900Y0051957D01*
X0080900Y0050956D01*
X0081457Y0050400D01*
X0082244Y0050400D01*
X0082337Y0050493D01*
X0082430Y0050400D01*
X0083217Y0050400D01*
X0083717Y0050900D01*
X0083967Y0050900D01*
X0084097Y0051030D01*
X0084097Y0050956D01*
X0084654Y0050400D01*
X0085441Y0050400D01*
X0085997Y0050956D01*
X0085997Y0051457D01*
X0086247Y0051707D01*
X0086247Y0052494D01*
X0085997Y0052744D01*
X0085997Y0053245D01*
X0085997Y0052772D02*
X0087870Y0052772D01*
X0087622Y0052173D02*
X0086247Y0052173D01*
X0086115Y0051575D02*
X0087568Y0051575D01*
X0087568Y0050976D02*
X0085997Y0050976D01*
X0087642Y0050378D02*
X0079958Y0050378D01*
X0080032Y0050976D02*
X0080900Y0050976D01*
X0080900Y0051575D02*
X0080032Y0051575D01*
X0079978Y0052173D02*
X0080684Y0052173D01*
X0080400Y0052772D02*
X0079730Y0052772D01*
X0079482Y0053370D02*
X0080526Y0053370D01*
X0083180Y0053801D02*
X0083180Y0053801D01*
X0083967Y0053801D02*
X0083967Y0053801D01*
X0084043Y0050976D02*
X0084097Y0050976D01*
X0087890Y0049779D02*
X0079710Y0049779D01*
X0079459Y0049181D02*
X0088141Y0049181D01*
X0088740Y0048582D02*
X0078860Y0048582D01*
X0078047Y0047984D02*
X0089553Y0047984D01*
X0074553Y0047984D02*
X0013047Y0047984D01*
X0013860Y0048582D02*
X0073740Y0048582D01*
X0073141Y0049181D02*
X0014459Y0049181D01*
X0014710Y0049779D02*
X0072890Y0049779D01*
X0072642Y0050378D02*
X0014958Y0050378D01*
X0015032Y0050976D02*
X0072568Y0050976D01*
X0072568Y0051575D02*
X0015032Y0051575D01*
X0014978Y0052173D02*
X0072622Y0052173D01*
X0072870Y0052772D02*
X0014730Y0052772D01*
X0014482Y0053370D02*
X0073118Y0053370D01*
X0073691Y0053969D02*
X0013909Y0053969D01*
X0013164Y0054568D02*
X0074436Y0054568D01*
X0040680Y0071301D02*
X0040680Y0071301D01*
X0037900Y0070727D02*
X0002200Y0070727D01*
X0002200Y0070129D02*
X0037900Y0070129D01*
X0038327Y0069530D02*
X0002200Y0069530D01*
X0002200Y0068932D02*
X0038400Y0068932D01*
X0038524Y0068333D02*
X0030408Y0068333D01*
X0031078Y0066538D02*
X0038962Y0066538D01*
X0038363Y0065939D02*
X0030479Y0065939D01*
X0030242Y0064742D02*
X0037166Y0064742D01*
X0036568Y0064144D02*
X0031234Y0064144D01*
X0030914Y0064464D02*
X0029542Y0065032D01*
X0028058Y0065032D01*
X0026686Y0064464D01*
X0025636Y0063414D01*
X0025068Y0062042D01*
X0025068Y0060558D01*
X0025636Y0059186D01*
X0026686Y0058136D01*
X0028058Y0057568D01*
X0029542Y0057568D01*
X0030914Y0058136D01*
X0031964Y0059186D01*
X0032532Y0060558D01*
X0032532Y0062042D01*
X0031964Y0063414D01*
X0030914Y0064464D01*
X0031833Y0063545D02*
X0035969Y0063545D01*
X0035943Y0062947D02*
X0032158Y0062947D01*
X0032405Y0062348D02*
X0035943Y0062348D01*
X0035943Y0061750D02*
X0032532Y0061750D01*
X0032532Y0061151D02*
X0035943Y0061151D01*
X0035943Y0060553D02*
X0032530Y0060553D01*
X0032282Y0059954D02*
X0035943Y0059954D01*
X0035943Y0059356D02*
X0032034Y0059356D01*
X0031535Y0058757D02*
X0036267Y0058757D01*
X0036865Y0058159D02*
X0030937Y0058159D01*
X0026663Y0058159D02*
X0013437Y0058159D01*
X0013414Y0058136D02*
X0014464Y0059186D01*
X0015032Y0060558D01*
X0015032Y0062042D01*
X0014464Y0063414D01*
X0013414Y0064464D01*
X0012042Y0065032D01*
X0010558Y0065032D01*
X0009186Y0064464D01*
X0008232Y0063510D01*
X0007941Y0063801D01*
X0007440Y0063801D01*
X0007440Y0063801D01*
X0007293Y0063801D01*
X0007154Y0063801D01*
X0006653Y0063801D01*
X0006647Y0063795D01*
X0006560Y0063708D01*
X0006467Y0063801D01*
X0005967Y0063801D01*
X0005967Y0063801D01*
X0005820Y0063801D01*
X0005680Y0063801D01*
X0004457Y0063801D01*
X0004350Y0063694D01*
X0004244Y0063801D01*
X0003456Y0063801D01*
X0002900Y0063245D01*
X0002900Y0061457D01*
X0003949Y0060408D01*
X0003957Y0060400D01*
X0004744Y0060400D01*
X0004962Y0060618D01*
X0005180Y0060400D01*
X0006467Y0060400D01*
X0006560Y0060493D01*
X0006653Y0060400D01*
X0007633Y0060400D01*
X0008136Y0059186D01*
X0009186Y0058136D01*
X0010558Y0057568D01*
X0012042Y0057568D01*
X0013414Y0058136D01*
X0014035Y0058757D02*
X0026065Y0058757D01*
X0025566Y0059356D02*
X0014534Y0059356D01*
X0014782Y0059954D02*
X0025318Y0059954D01*
X0025070Y0060553D02*
X0015030Y0060553D01*
X0015032Y0061151D02*
X0025068Y0061151D01*
X0025068Y0061750D02*
X0015032Y0061750D01*
X0014905Y0062348D02*
X0025195Y0062348D01*
X0025442Y0062947D02*
X0014658Y0062947D01*
X0014333Y0063545D02*
X0025767Y0063545D01*
X0026366Y0064144D02*
X0013734Y0064144D01*
X0012742Y0064742D02*
X0027358Y0064742D01*
X0025918Y0065939D02*
X0002200Y0065939D01*
X0002200Y0065341D02*
X0037765Y0065341D01*
X0028180Y0068801D02*
X0028180Y0068801D01*
X0025488Y0068333D02*
X0002200Y0068333D01*
X0002200Y0067735D02*
X0025400Y0067735D01*
X0025722Y0067136D02*
X0002200Y0067136D01*
X0002200Y0066538D02*
X0025900Y0066538D01*
X0037464Y0057560D02*
X0002200Y0057560D01*
X0002200Y0056962D02*
X0038062Y0056962D01*
X0009163Y0058159D02*
X0002200Y0058159D01*
X0002200Y0058757D02*
X0008565Y0058757D01*
X0008066Y0059356D02*
X0002200Y0059356D01*
X0002200Y0059954D02*
X0007818Y0059954D01*
X0005027Y0060553D02*
X0004897Y0060553D01*
X0003804Y0060553D02*
X0002200Y0060553D01*
X0002200Y0061151D02*
X0003206Y0061151D01*
X0002900Y0061750D02*
X0002200Y0061750D01*
X0002200Y0062348D02*
X0002900Y0062348D01*
X0002900Y0062947D02*
X0002200Y0062947D01*
X0002200Y0063545D02*
X0003200Y0063545D01*
X0002200Y0064144D02*
X0008866Y0064144D01*
X0008267Y0063545D02*
X0008197Y0063545D01*
X0007154Y0063801D02*
X0007154Y0063801D01*
X0006653Y0063801D02*
X0006653Y0063801D01*
X0005680Y0063801D02*
X0005680Y0063801D01*
X0002200Y0064742D02*
X0009858Y0064742D01*
X0007154Y0053801D02*
X0007154Y0053801D01*
X0011000Y0024642D02*
X0011600Y0024642D01*
X0011600Y0024043D02*
X0011000Y0024043D01*
X0011000Y0023445D02*
X0011600Y0023445D01*
X0011600Y0022846D02*
X0011000Y0022846D01*
X0011000Y0022248D02*
X0011600Y0022248D01*
X0011600Y0021649D02*
X0011000Y0021649D01*
X0014654Y0019255D02*
X0073107Y0019255D01*
X0072859Y0019854D02*
X0014949Y0019854D01*
X0015133Y0020452D02*
X0072612Y0020452D01*
X0073665Y0018657D02*
X0014208Y0018657D01*
X0013513Y0018058D02*
X0074374Y0018058D01*
X0079699Y0022846D02*
X0080400Y0022846D01*
X0080600Y0023445D02*
X0079433Y0023445D01*
X0093406Y0014467D02*
X0100321Y0014467D01*
X0100321Y0013869D02*
X0094009Y0013869D01*
X0094523Y0013270D02*
X0095425Y0013270D01*
X0095400Y0012672D02*
X0094771Y0012672D01*
X0095019Y0012073D02*
X0095785Y0012073D01*
X0095900Y0011475D02*
X0095032Y0011475D01*
X0095032Y0010876D02*
X0095981Y0010876D01*
X0007154Y0023801D02*
X0007154Y0023801D01*
M02*
