%
M48
M72
T01C0.01500
T02C0.03150
T03C0.03200
T04C0.03500
T05C0.03600
T06C0.03937
T07C0.04000
T08C0.07900
T09C0.08000
T10C0.20000
%
T01
X127500Y96886
X134100Y104686
X140400Y111886
X145200Y110386
X162300Y111586
X165600Y114286
X158400Y121486
X155400Y123886
X153300Y126886
X156300Y138886
X143100Y145486
X139800Y145486
X131100Y141286
X127200Y153286
X123300Y152386
X123300Y158086
X126300Y163486
X123000Y166786
X129300Y173086
X138600Y176086
X144600Y180586
X136200Y192886
X133800Y195286
X144300Y205786
X131100Y213586
X133800Y219586
X136200Y223786
X119700Y223186
X118500Y227086
X115200Y227686
X112800Y232486
X105000Y226486
X94200Y222586
X78600Y237586
X84000Y240886
X84000Y251686
X84000Y263986
X109500Y267886
X121500Y262786
X121500Y258886
X121500Y243586
X121500Y215686
X115200Y207586
X117600Y205186
X105000Y200986
X101700Y200986
X98100Y193786
X90900Y191686
X93000Y185986
X105600Y187786
X99600Y176086
X110400Y164386
X110100Y155686
X112200Y143686
X92100Y147286
X63300Y147286
X43200Y155686
X42300Y164986
X58800Y164986
X72300Y174886
X77700Y172186
X64500Y185086
X64500Y188686
X71700Y192586
X80100Y200986
X39300Y206686
X51000Y231586
X50100Y238786
X62700Y242986
X66000Y242386
X19200Y172486
X87000Y130186
X106800Y110386
X164700Y105586
X167700Y103786
X176400Y103486
X178800Y101086
X183600Y105886
X184200Y95686
X204000Y97486
X204000Y89686
X201000Y75586
X213600Y50386
X248100Y69586
X255000Y71686
X285000Y50386
X282000Y39886
X315000Y58786
X324600Y58786
X326700Y76786
X321600Y80686
X324000Y97786
X335700Y107986
X310200Y111286
X305700Y100486
X285300Y95986
X273300Y106786
X281400Y117586
X279300Y120286
X275400Y125686
X267900Y123286
X259200Y118486
X271500Y131686
X275400Y135886
X282000Y130786
X290100Y131086
X301800Y133786
X307500Y136186
X312000Y141286
X311700Y144586
X313200Y151486
X311400Y161986
X319800Y162586
X325500Y160186
X301800Y153886
X291300Y156886
X287700Y159886
X277500Y156286
X271500Y153886
X269700Y158686
X266700Y164986
X258000Y159886
X258000Y156586
X259200Y149086
X258600Y143986
X267900Y144286
X270300Y147586
X275100Y140986
X290100Y143986
X290100Y147286
X290100Y150586
X298800Y123586
X345600Y141286
X357600Y132586
X364500Y134986
X371100Y134986
X375000Y132886
X381600Y129886
X378300Y136486
X365700Y145786
X368700Y149386
X361800Y160186
X367200Y165586
X381000Y175786
X400800Y170986
X407400Y179086
X401100Y185386
X398700Y193186
X404700Y193186
X417000Y190186
X426000Y181786
X438000Y183886
X445800Y194986
X468300Y200386
X477600Y194986
X445500Y223186
X405900Y220486
X394200Y202486
X411600Y158086
X406200Y149986
X399000Y146686
X393900Y151786
X422400Y147286
X438000Y149986
X434700Y126586
X410100Y122086
X404700Y122086
X385500Y117886
X379200Y114886
X375900Y114886
X371100Y119386
X360300Y96886
X371700Y80386
X318900Y33286
X265200Y95686
X259500Y93286
X249000Y97486
X234600Y109486
X232200Y111886
X226200Y103786
X215700Y121486
X198600Y129286
X192900Y127486
X180600Y125686
X180600Y134086
X178200Y139486
X180600Y145486
X192600Y146986
X193800Y141586
X196200Y139186
X210600Y143986
X210900Y153886
X220200Y153886
X241800Y163186
X244500Y136186
X241800Y131686
X182100Y159886
X180900Y165286
X141000Y158086
X383400Y253186
T02
X374348Y66361
X348167Y48250
X338718Y53762
X376513Y36046
X358600Y23054
X178513Y36046
X160600Y23054
X150167Y48250
X140718Y53762
X176348Y66361
T03
X386600Y188786
X394100Y193786
X386600Y198786
T04
X26600Y53786
X26600Y93786
X101600Y93786
X101600Y53786
X410600Y52786
X410600Y92786
X485600Y92786
X485600Y52786
T05
X474400Y253786
X448800Y253786
T06
X328970Y44872
X300230Y44872
X300230Y25975
X328970Y25975
X218470Y25975
X189730Y25975
X189730Y44872
X218470Y44872
T07
X222100Y63286
X232100Y63286
X242100Y63286
X252100Y63286
X262100Y63286
X272100Y63286
X282100Y63286
X292100Y63286
T08
X380600Y215786
X380600Y233286
T09
X356600Y81286
X156600Y81286
T10
X121600Y49786
X391600Y49786
X411600Y248786
X101600Y248786
M30
