G75*
%MOIN*%
%OFA0B0*%
%FSLAX25Y25*%
%IPPOS*%
%LPD*%
%AMOC8*
5,1,8,0,0,1.08239X$1,22.5*
%
%ADD10C,0.00000*%
%ADD11C,0.00600*%
%ADD12C,0.00400*%
%ADD13C,0.00200*%
%ADD14C,0.00500*%
%ADD15C,0.00800*%
D10*
X0001828Y0014786D02*
X0001828Y0283487D01*
X0501749Y0283487D01*
X0501749Y0014786D01*
X0396828Y0014786D01*
X0376828Y0014786D02*
X0126828Y0014786D01*
X0106828Y0014786D02*
X0001828Y0014786D01*
X0084328Y0247286D02*
X0084332Y0247593D01*
X0084343Y0247899D01*
X0084362Y0248206D01*
X0084388Y0248511D01*
X0084422Y0248816D01*
X0084463Y0249120D01*
X0084512Y0249423D01*
X0084568Y0249725D01*
X0084632Y0250025D01*
X0084703Y0250323D01*
X0084781Y0250620D01*
X0084866Y0250915D01*
X0084959Y0251207D01*
X0085059Y0251497D01*
X0085166Y0251785D01*
X0085280Y0252070D01*
X0085400Y0252352D01*
X0085528Y0252630D01*
X0085663Y0252906D01*
X0085804Y0253178D01*
X0085952Y0253447D01*
X0086106Y0253712D01*
X0086267Y0253973D01*
X0086435Y0254231D01*
X0086608Y0254484D01*
X0086788Y0254732D01*
X0086974Y0254976D01*
X0087165Y0255216D01*
X0087363Y0255451D01*
X0087566Y0255680D01*
X0087775Y0255905D01*
X0087989Y0256125D01*
X0088209Y0256339D01*
X0088434Y0256548D01*
X0088663Y0256751D01*
X0088898Y0256949D01*
X0089138Y0257140D01*
X0089382Y0257326D01*
X0089630Y0257506D01*
X0089883Y0257679D01*
X0090141Y0257847D01*
X0090402Y0258008D01*
X0090667Y0258162D01*
X0090936Y0258310D01*
X0091208Y0258451D01*
X0091484Y0258586D01*
X0091762Y0258714D01*
X0092044Y0258834D01*
X0092329Y0258948D01*
X0092617Y0259055D01*
X0092907Y0259155D01*
X0093199Y0259248D01*
X0093494Y0259333D01*
X0093791Y0259411D01*
X0094089Y0259482D01*
X0094389Y0259546D01*
X0094691Y0259602D01*
X0094994Y0259651D01*
X0095298Y0259692D01*
X0095603Y0259726D01*
X0095908Y0259752D01*
X0096215Y0259771D01*
X0096521Y0259782D01*
X0096828Y0259786D01*
X0097135Y0259782D01*
X0097441Y0259771D01*
X0097748Y0259752D01*
X0098053Y0259726D01*
X0098358Y0259692D01*
X0098662Y0259651D01*
X0098965Y0259602D01*
X0099267Y0259546D01*
X0099567Y0259482D01*
X0099865Y0259411D01*
X0100162Y0259333D01*
X0100457Y0259248D01*
X0100749Y0259155D01*
X0101039Y0259055D01*
X0101327Y0258948D01*
X0101612Y0258834D01*
X0101894Y0258714D01*
X0102172Y0258586D01*
X0102448Y0258451D01*
X0102720Y0258310D01*
X0102989Y0258162D01*
X0103254Y0258008D01*
X0103515Y0257847D01*
X0103773Y0257679D01*
X0104026Y0257506D01*
X0104274Y0257326D01*
X0104518Y0257140D01*
X0104758Y0256949D01*
X0104993Y0256751D01*
X0105222Y0256548D01*
X0105447Y0256339D01*
X0105667Y0256125D01*
X0105881Y0255905D01*
X0106090Y0255680D01*
X0106293Y0255451D01*
X0106491Y0255216D01*
X0106682Y0254976D01*
X0106868Y0254732D01*
X0107048Y0254484D01*
X0107221Y0254231D01*
X0107389Y0253973D01*
X0107550Y0253712D01*
X0107704Y0253447D01*
X0107852Y0253178D01*
X0107993Y0252906D01*
X0108128Y0252630D01*
X0108256Y0252352D01*
X0108376Y0252070D01*
X0108490Y0251785D01*
X0108597Y0251497D01*
X0108697Y0251207D01*
X0108790Y0250915D01*
X0108875Y0250620D01*
X0108953Y0250323D01*
X0109024Y0250025D01*
X0109088Y0249725D01*
X0109144Y0249423D01*
X0109193Y0249120D01*
X0109234Y0248816D01*
X0109268Y0248511D01*
X0109294Y0248206D01*
X0109313Y0247899D01*
X0109324Y0247593D01*
X0109328Y0247286D01*
X0109324Y0246979D01*
X0109313Y0246673D01*
X0109294Y0246366D01*
X0109268Y0246061D01*
X0109234Y0245756D01*
X0109193Y0245452D01*
X0109144Y0245149D01*
X0109088Y0244847D01*
X0109024Y0244547D01*
X0108953Y0244249D01*
X0108875Y0243952D01*
X0108790Y0243657D01*
X0108697Y0243365D01*
X0108597Y0243075D01*
X0108490Y0242787D01*
X0108376Y0242502D01*
X0108256Y0242220D01*
X0108128Y0241942D01*
X0107993Y0241666D01*
X0107852Y0241394D01*
X0107704Y0241125D01*
X0107550Y0240860D01*
X0107389Y0240599D01*
X0107221Y0240341D01*
X0107048Y0240088D01*
X0106868Y0239840D01*
X0106682Y0239596D01*
X0106491Y0239356D01*
X0106293Y0239121D01*
X0106090Y0238892D01*
X0105881Y0238667D01*
X0105667Y0238447D01*
X0105447Y0238233D01*
X0105222Y0238024D01*
X0104993Y0237821D01*
X0104758Y0237623D01*
X0104518Y0237432D01*
X0104274Y0237246D01*
X0104026Y0237066D01*
X0103773Y0236893D01*
X0103515Y0236725D01*
X0103254Y0236564D01*
X0102989Y0236410D01*
X0102720Y0236262D01*
X0102448Y0236121D01*
X0102172Y0235986D01*
X0101894Y0235858D01*
X0101612Y0235738D01*
X0101327Y0235624D01*
X0101039Y0235517D01*
X0100749Y0235417D01*
X0100457Y0235324D01*
X0100162Y0235239D01*
X0099865Y0235161D01*
X0099567Y0235090D01*
X0099267Y0235026D01*
X0098965Y0234970D01*
X0098662Y0234921D01*
X0098358Y0234880D01*
X0098053Y0234846D01*
X0097748Y0234820D01*
X0097441Y0234801D01*
X0097135Y0234790D01*
X0096828Y0234786D01*
X0096521Y0234790D01*
X0096215Y0234801D01*
X0095908Y0234820D01*
X0095603Y0234846D01*
X0095298Y0234880D01*
X0094994Y0234921D01*
X0094691Y0234970D01*
X0094389Y0235026D01*
X0094089Y0235090D01*
X0093791Y0235161D01*
X0093494Y0235239D01*
X0093199Y0235324D01*
X0092907Y0235417D01*
X0092617Y0235517D01*
X0092329Y0235624D01*
X0092044Y0235738D01*
X0091762Y0235858D01*
X0091484Y0235986D01*
X0091208Y0236121D01*
X0090936Y0236262D01*
X0090667Y0236410D01*
X0090402Y0236564D01*
X0090141Y0236725D01*
X0089883Y0236893D01*
X0089630Y0237066D01*
X0089382Y0237246D01*
X0089138Y0237432D01*
X0088898Y0237623D01*
X0088663Y0237821D01*
X0088434Y0238024D01*
X0088209Y0238233D01*
X0087989Y0238447D01*
X0087775Y0238667D01*
X0087566Y0238892D01*
X0087363Y0239121D01*
X0087165Y0239356D01*
X0086974Y0239596D01*
X0086788Y0239840D01*
X0086608Y0240088D01*
X0086435Y0240341D01*
X0086267Y0240599D01*
X0086106Y0240860D01*
X0085952Y0241125D01*
X0085804Y0241394D01*
X0085663Y0241666D01*
X0085528Y0241942D01*
X0085400Y0242220D01*
X0085280Y0242502D01*
X0085166Y0242787D01*
X0085059Y0243075D01*
X0084959Y0243365D01*
X0084866Y0243657D01*
X0084781Y0243952D01*
X0084703Y0244249D01*
X0084632Y0244547D01*
X0084568Y0244847D01*
X0084512Y0245149D01*
X0084463Y0245452D01*
X0084422Y0245756D01*
X0084388Y0246061D01*
X0084362Y0246366D01*
X0084343Y0246673D01*
X0084332Y0246979D01*
X0084328Y0247286D01*
X0389328Y0247286D02*
X0389332Y0247593D01*
X0389343Y0247899D01*
X0389362Y0248206D01*
X0389388Y0248511D01*
X0389422Y0248816D01*
X0389463Y0249120D01*
X0389512Y0249423D01*
X0389568Y0249725D01*
X0389632Y0250025D01*
X0389703Y0250323D01*
X0389781Y0250620D01*
X0389866Y0250915D01*
X0389959Y0251207D01*
X0390059Y0251497D01*
X0390166Y0251785D01*
X0390280Y0252070D01*
X0390400Y0252352D01*
X0390528Y0252630D01*
X0390663Y0252906D01*
X0390804Y0253178D01*
X0390952Y0253447D01*
X0391106Y0253712D01*
X0391267Y0253973D01*
X0391435Y0254231D01*
X0391608Y0254484D01*
X0391788Y0254732D01*
X0391974Y0254976D01*
X0392165Y0255216D01*
X0392363Y0255451D01*
X0392566Y0255680D01*
X0392775Y0255905D01*
X0392989Y0256125D01*
X0393209Y0256339D01*
X0393434Y0256548D01*
X0393663Y0256751D01*
X0393898Y0256949D01*
X0394138Y0257140D01*
X0394382Y0257326D01*
X0394630Y0257506D01*
X0394883Y0257679D01*
X0395141Y0257847D01*
X0395402Y0258008D01*
X0395667Y0258162D01*
X0395936Y0258310D01*
X0396208Y0258451D01*
X0396484Y0258586D01*
X0396762Y0258714D01*
X0397044Y0258834D01*
X0397329Y0258948D01*
X0397617Y0259055D01*
X0397907Y0259155D01*
X0398199Y0259248D01*
X0398494Y0259333D01*
X0398791Y0259411D01*
X0399089Y0259482D01*
X0399389Y0259546D01*
X0399691Y0259602D01*
X0399994Y0259651D01*
X0400298Y0259692D01*
X0400603Y0259726D01*
X0400908Y0259752D01*
X0401215Y0259771D01*
X0401521Y0259782D01*
X0401828Y0259786D01*
X0402135Y0259782D01*
X0402441Y0259771D01*
X0402748Y0259752D01*
X0403053Y0259726D01*
X0403358Y0259692D01*
X0403662Y0259651D01*
X0403965Y0259602D01*
X0404267Y0259546D01*
X0404567Y0259482D01*
X0404865Y0259411D01*
X0405162Y0259333D01*
X0405457Y0259248D01*
X0405749Y0259155D01*
X0406039Y0259055D01*
X0406327Y0258948D01*
X0406612Y0258834D01*
X0406894Y0258714D01*
X0407172Y0258586D01*
X0407448Y0258451D01*
X0407720Y0258310D01*
X0407989Y0258162D01*
X0408254Y0258008D01*
X0408515Y0257847D01*
X0408773Y0257679D01*
X0409026Y0257506D01*
X0409274Y0257326D01*
X0409518Y0257140D01*
X0409758Y0256949D01*
X0409993Y0256751D01*
X0410222Y0256548D01*
X0410447Y0256339D01*
X0410667Y0256125D01*
X0410881Y0255905D01*
X0411090Y0255680D01*
X0411293Y0255451D01*
X0411491Y0255216D01*
X0411682Y0254976D01*
X0411868Y0254732D01*
X0412048Y0254484D01*
X0412221Y0254231D01*
X0412389Y0253973D01*
X0412550Y0253712D01*
X0412704Y0253447D01*
X0412852Y0253178D01*
X0412993Y0252906D01*
X0413128Y0252630D01*
X0413256Y0252352D01*
X0413376Y0252070D01*
X0413490Y0251785D01*
X0413597Y0251497D01*
X0413697Y0251207D01*
X0413790Y0250915D01*
X0413875Y0250620D01*
X0413953Y0250323D01*
X0414024Y0250025D01*
X0414088Y0249725D01*
X0414144Y0249423D01*
X0414193Y0249120D01*
X0414234Y0248816D01*
X0414268Y0248511D01*
X0414294Y0248206D01*
X0414313Y0247899D01*
X0414324Y0247593D01*
X0414328Y0247286D01*
X0414324Y0246979D01*
X0414313Y0246673D01*
X0414294Y0246366D01*
X0414268Y0246061D01*
X0414234Y0245756D01*
X0414193Y0245452D01*
X0414144Y0245149D01*
X0414088Y0244847D01*
X0414024Y0244547D01*
X0413953Y0244249D01*
X0413875Y0243952D01*
X0413790Y0243657D01*
X0413697Y0243365D01*
X0413597Y0243075D01*
X0413490Y0242787D01*
X0413376Y0242502D01*
X0413256Y0242220D01*
X0413128Y0241942D01*
X0412993Y0241666D01*
X0412852Y0241394D01*
X0412704Y0241125D01*
X0412550Y0240860D01*
X0412389Y0240599D01*
X0412221Y0240341D01*
X0412048Y0240088D01*
X0411868Y0239840D01*
X0411682Y0239596D01*
X0411491Y0239356D01*
X0411293Y0239121D01*
X0411090Y0238892D01*
X0410881Y0238667D01*
X0410667Y0238447D01*
X0410447Y0238233D01*
X0410222Y0238024D01*
X0409993Y0237821D01*
X0409758Y0237623D01*
X0409518Y0237432D01*
X0409274Y0237246D01*
X0409026Y0237066D01*
X0408773Y0236893D01*
X0408515Y0236725D01*
X0408254Y0236564D01*
X0407989Y0236410D01*
X0407720Y0236262D01*
X0407448Y0236121D01*
X0407172Y0235986D01*
X0406894Y0235858D01*
X0406612Y0235738D01*
X0406327Y0235624D01*
X0406039Y0235517D01*
X0405749Y0235417D01*
X0405457Y0235324D01*
X0405162Y0235239D01*
X0404865Y0235161D01*
X0404567Y0235090D01*
X0404267Y0235026D01*
X0403965Y0234970D01*
X0403662Y0234921D01*
X0403358Y0234880D01*
X0403053Y0234846D01*
X0402748Y0234820D01*
X0402441Y0234801D01*
X0402135Y0234790D01*
X0401828Y0234786D01*
X0401521Y0234790D01*
X0401215Y0234801D01*
X0400908Y0234820D01*
X0400603Y0234846D01*
X0400298Y0234880D01*
X0399994Y0234921D01*
X0399691Y0234970D01*
X0399389Y0235026D01*
X0399089Y0235090D01*
X0398791Y0235161D01*
X0398494Y0235239D01*
X0398199Y0235324D01*
X0397907Y0235417D01*
X0397617Y0235517D01*
X0397329Y0235624D01*
X0397044Y0235738D01*
X0396762Y0235858D01*
X0396484Y0235986D01*
X0396208Y0236121D01*
X0395936Y0236262D01*
X0395667Y0236410D01*
X0395402Y0236564D01*
X0395141Y0236725D01*
X0394883Y0236893D01*
X0394630Y0237066D01*
X0394382Y0237246D01*
X0394138Y0237432D01*
X0393898Y0237623D01*
X0393663Y0237821D01*
X0393434Y0238024D01*
X0393209Y0238233D01*
X0392989Y0238447D01*
X0392775Y0238667D01*
X0392566Y0238892D01*
X0392363Y0239121D01*
X0392165Y0239356D01*
X0391974Y0239596D01*
X0391788Y0239840D01*
X0391608Y0240088D01*
X0391435Y0240341D01*
X0391267Y0240599D01*
X0391106Y0240860D01*
X0390952Y0241125D01*
X0390804Y0241394D01*
X0390663Y0241666D01*
X0390528Y0241942D01*
X0390400Y0242220D01*
X0390280Y0242502D01*
X0390166Y0242787D01*
X0390059Y0243075D01*
X0389959Y0243365D01*
X0389866Y0243657D01*
X0389781Y0243952D01*
X0389703Y0244249D01*
X0389632Y0244547D01*
X0389568Y0244847D01*
X0389512Y0245149D01*
X0389463Y0245452D01*
X0389422Y0245756D01*
X0389388Y0246061D01*
X0389362Y0246366D01*
X0389343Y0246673D01*
X0389332Y0246979D01*
X0389328Y0247286D01*
D11*
X0414828Y0225786D02*
X0414828Y0221786D01*
X0414828Y0212286D01*
X0414828Y0208786D01*
X0422828Y0205286D02*
X0423828Y0205286D01*
X0423828Y0204286D01*
X0429828Y0204286D01*
X0429828Y0205286D01*
X0430828Y0205286D01*
X0438828Y0208786D02*
X0438828Y0212286D01*
X0438828Y0222286D01*
X0438828Y0225786D01*
X0430828Y0229286D02*
X0429828Y0229286D01*
X0429828Y0230286D01*
X0423828Y0230286D01*
X0423828Y0229286D01*
X0422828Y0229286D01*
X0425828Y0217286D02*
X0425830Y0217349D01*
X0425836Y0217411D01*
X0425846Y0217473D01*
X0425859Y0217535D01*
X0425877Y0217595D01*
X0425898Y0217654D01*
X0425923Y0217712D01*
X0425952Y0217768D01*
X0425984Y0217822D01*
X0426019Y0217874D01*
X0426057Y0217923D01*
X0426099Y0217971D01*
X0426143Y0218015D01*
X0426191Y0218057D01*
X0426240Y0218095D01*
X0426292Y0218130D01*
X0426346Y0218162D01*
X0426402Y0218191D01*
X0426460Y0218216D01*
X0426519Y0218237D01*
X0426579Y0218255D01*
X0426641Y0218268D01*
X0426703Y0218278D01*
X0426765Y0218284D01*
X0426828Y0218286D01*
X0426891Y0218284D01*
X0426953Y0218278D01*
X0427015Y0218268D01*
X0427077Y0218255D01*
X0427137Y0218237D01*
X0427196Y0218216D01*
X0427254Y0218191D01*
X0427310Y0218162D01*
X0427364Y0218130D01*
X0427416Y0218095D01*
X0427465Y0218057D01*
X0427513Y0218015D01*
X0427557Y0217971D01*
X0427599Y0217923D01*
X0427637Y0217874D01*
X0427672Y0217822D01*
X0427704Y0217768D01*
X0427733Y0217712D01*
X0427758Y0217654D01*
X0427779Y0217595D01*
X0427797Y0217535D01*
X0427810Y0217473D01*
X0427820Y0217411D01*
X0427826Y0217349D01*
X0427828Y0217286D01*
X0427826Y0217223D01*
X0427820Y0217161D01*
X0427810Y0217099D01*
X0427797Y0217037D01*
X0427779Y0216977D01*
X0427758Y0216918D01*
X0427733Y0216860D01*
X0427704Y0216804D01*
X0427672Y0216750D01*
X0427637Y0216698D01*
X0427599Y0216649D01*
X0427557Y0216601D01*
X0427513Y0216557D01*
X0427465Y0216515D01*
X0427416Y0216477D01*
X0427364Y0216442D01*
X0427310Y0216410D01*
X0427254Y0216381D01*
X0427196Y0216356D01*
X0427137Y0216335D01*
X0427077Y0216317D01*
X0427015Y0216304D01*
X0426953Y0216294D01*
X0426891Y0216288D01*
X0426828Y0216286D01*
X0426765Y0216288D01*
X0426703Y0216294D01*
X0426641Y0216304D01*
X0426579Y0216317D01*
X0426519Y0216335D01*
X0426460Y0216356D01*
X0426402Y0216381D01*
X0426346Y0216410D01*
X0426292Y0216442D01*
X0426240Y0216477D01*
X0426191Y0216515D01*
X0426143Y0216557D01*
X0426099Y0216601D01*
X0426057Y0216649D01*
X0426019Y0216698D01*
X0425984Y0216750D01*
X0425952Y0216804D01*
X0425923Y0216860D01*
X0425898Y0216918D01*
X0425877Y0216977D01*
X0425859Y0217037D01*
X0425846Y0217099D01*
X0425836Y0217161D01*
X0425830Y0217223D01*
X0425828Y0217286D01*
X0419828Y0217286D02*
X0419830Y0217458D01*
X0419836Y0217629D01*
X0419847Y0217801D01*
X0419862Y0217972D01*
X0419881Y0218143D01*
X0419904Y0218313D01*
X0419931Y0218483D01*
X0419963Y0218652D01*
X0419998Y0218820D01*
X0420038Y0218987D01*
X0420082Y0219153D01*
X0420129Y0219318D01*
X0420181Y0219482D01*
X0420237Y0219644D01*
X0420297Y0219805D01*
X0420361Y0219965D01*
X0420429Y0220123D01*
X0420500Y0220279D01*
X0420575Y0220433D01*
X0420655Y0220586D01*
X0420737Y0220736D01*
X0420824Y0220885D01*
X0420914Y0221031D01*
X0421008Y0221175D01*
X0421105Y0221317D01*
X0421206Y0221456D01*
X0421310Y0221593D01*
X0421417Y0221727D01*
X0421528Y0221858D01*
X0421641Y0221987D01*
X0421758Y0222113D01*
X0421878Y0222236D01*
X0422001Y0222356D01*
X0422127Y0222473D01*
X0422256Y0222586D01*
X0422387Y0222697D01*
X0422521Y0222804D01*
X0422658Y0222908D01*
X0422797Y0223009D01*
X0422939Y0223106D01*
X0423083Y0223200D01*
X0423229Y0223290D01*
X0423378Y0223377D01*
X0423528Y0223459D01*
X0423681Y0223539D01*
X0423835Y0223614D01*
X0423991Y0223685D01*
X0424149Y0223753D01*
X0424309Y0223817D01*
X0424470Y0223877D01*
X0424632Y0223933D01*
X0424796Y0223985D01*
X0424961Y0224032D01*
X0425127Y0224076D01*
X0425294Y0224116D01*
X0425462Y0224151D01*
X0425631Y0224183D01*
X0425801Y0224210D01*
X0425971Y0224233D01*
X0426142Y0224252D01*
X0426313Y0224267D01*
X0426485Y0224278D01*
X0426656Y0224284D01*
X0426828Y0224286D01*
X0427000Y0224284D01*
X0427171Y0224278D01*
X0427343Y0224267D01*
X0427514Y0224252D01*
X0427685Y0224233D01*
X0427855Y0224210D01*
X0428025Y0224183D01*
X0428194Y0224151D01*
X0428362Y0224116D01*
X0428529Y0224076D01*
X0428695Y0224032D01*
X0428860Y0223985D01*
X0429024Y0223933D01*
X0429186Y0223877D01*
X0429347Y0223817D01*
X0429507Y0223753D01*
X0429665Y0223685D01*
X0429821Y0223614D01*
X0429975Y0223539D01*
X0430128Y0223459D01*
X0430278Y0223377D01*
X0430427Y0223290D01*
X0430573Y0223200D01*
X0430717Y0223106D01*
X0430859Y0223009D01*
X0430998Y0222908D01*
X0431135Y0222804D01*
X0431269Y0222697D01*
X0431400Y0222586D01*
X0431529Y0222473D01*
X0431655Y0222356D01*
X0431778Y0222236D01*
X0431898Y0222113D01*
X0432015Y0221987D01*
X0432128Y0221858D01*
X0432239Y0221727D01*
X0432346Y0221593D01*
X0432450Y0221456D01*
X0432551Y0221317D01*
X0432648Y0221175D01*
X0432742Y0221031D01*
X0432832Y0220885D01*
X0432919Y0220736D01*
X0433001Y0220586D01*
X0433081Y0220433D01*
X0433156Y0220279D01*
X0433227Y0220123D01*
X0433295Y0219965D01*
X0433359Y0219805D01*
X0433419Y0219644D01*
X0433475Y0219482D01*
X0433527Y0219318D01*
X0433574Y0219153D01*
X0433618Y0218987D01*
X0433658Y0218820D01*
X0433693Y0218652D01*
X0433725Y0218483D01*
X0433752Y0218313D01*
X0433775Y0218143D01*
X0433794Y0217972D01*
X0433809Y0217801D01*
X0433820Y0217629D01*
X0433826Y0217458D01*
X0433828Y0217286D01*
X0433826Y0217114D01*
X0433820Y0216943D01*
X0433809Y0216771D01*
X0433794Y0216600D01*
X0433775Y0216429D01*
X0433752Y0216259D01*
X0433725Y0216089D01*
X0433693Y0215920D01*
X0433658Y0215752D01*
X0433618Y0215585D01*
X0433574Y0215419D01*
X0433527Y0215254D01*
X0433475Y0215090D01*
X0433419Y0214928D01*
X0433359Y0214767D01*
X0433295Y0214607D01*
X0433227Y0214449D01*
X0433156Y0214293D01*
X0433081Y0214139D01*
X0433001Y0213986D01*
X0432919Y0213836D01*
X0432832Y0213687D01*
X0432742Y0213541D01*
X0432648Y0213397D01*
X0432551Y0213255D01*
X0432450Y0213116D01*
X0432346Y0212979D01*
X0432239Y0212845D01*
X0432128Y0212714D01*
X0432015Y0212585D01*
X0431898Y0212459D01*
X0431778Y0212336D01*
X0431655Y0212216D01*
X0431529Y0212099D01*
X0431400Y0211986D01*
X0431269Y0211875D01*
X0431135Y0211768D01*
X0430998Y0211664D01*
X0430859Y0211563D01*
X0430717Y0211466D01*
X0430573Y0211372D01*
X0430427Y0211282D01*
X0430278Y0211195D01*
X0430128Y0211113D01*
X0429975Y0211033D01*
X0429821Y0210958D01*
X0429665Y0210887D01*
X0429507Y0210819D01*
X0429347Y0210755D01*
X0429186Y0210695D01*
X0429024Y0210639D01*
X0428860Y0210587D01*
X0428695Y0210540D01*
X0428529Y0210496D01*
X0428362Y0210456D01*
X0428194Y0210421D01*
X0428025Y0210389D01*
X0427855Y0210362D01*
X0427685Y0210339D01*
X0427514Y0210320D01*
X0427343Y0210305D01*
X0427171Y0210294D01*
X0427000Y0210288D01*
X0426828Y0210286D01*
X0426656Y0210288D01*
X0426485Y0210294D01*
X0426313Y0210305D01*
X0426142Y0210320D01*
X0425971Y0210339D01*
X0425801Y0210362D01*
X0425631Y0210389D01*
X0425462Y0210421D01*
X0425294Y0210456D01*
X0425127Y0210496D01*
X0424961Y0210540D01*
X0424796Y0210587D01*
X0424632Y0210639D01*
X0424470Y0210695D01*
X0424309Y0210755D01*
X0424149Y0210819D01*
X0423991Y0210887D01*
X0423835Y0210958D01*
X0423681Y0211033D01*
X0423528Y0211113D01*
X0423378Y0211195D01*
X0423229Y0211282D01*
X0423083Y0211372D01*
X0422939Y0211466D01*
X0422797Y0211563D01*
X0422658Y0211664D01*
X0422521Y0211768D01*
X0422387Y0211875D01*
X0422256Y0211986D01*
X0422127Y0212099D01*
X0422001Y0212216D01*
X0421878Y0212336D01*
X0421758Y0212459D01*
X0421641Y0212585D01*
X0421528Y0212714D01*
X0421417Y0212845D01*
X0421310Y0212979D01*
X0421206Y0213116D01*
X0421105Y0213255D01*
X0421008Y0213397D01*
X0420914Y0213541D01*
X0420824Y0213687D01*
X0420737Y0213836D01*
X0420655Y0213986D01*
X0420575Y0214139D01*
X0420500Y0214293D01*
X0420429Y0214449D01*
X0420361Y0214607D01*
X0420297Y0214767D01*
X0420237Y0214928D01*
X0420181Y0215090D01*
X0420129Y0215254D01*
X0420082Y0215419D01*
X0420038Y0215585D01*
X0419998Y0215752D01*
X0419963Y0215920D01*
X0419931Y0216089D01*
X0419904Y0216259D01*
X0419881Y0216429D01*
X0419862Y0216600D01*
X0419847Y0216771D01*
X0419836Y0216943D01*
X0419830Y0217114D01*
X0419828Y0217286D01*
X0361828Y0174786D02*
X0361828Y0282286D01*
X0146828Y0282286D01*
X0146828Y0174786D01*
X0361828Y0174786D01*
X0414828Y0160786D02*
X0414828Y0156786D01*
X0414828Y0147286D01*
X0414828Y0143786D01*
X0422828Y0140286D02*
X0423828Y0140286D01*
X0423828Y0139286D01*
X0429828Y0139286D01*
X0429828Y0140286D01*
X0430828Y0140286D01*
X0438828Y0143786D02*
X0438828Y0147286D01*
X0438828Y0157286D01*
X0438828Y0160786D01*
X0430828Y0164286D02*
X0429828Y0164286D01*
X0429828Y0165286D01*
X0423828Y0165286D01*
X0423828Y0164286D01*
X0422828Y0164286D01*
X0425828Y0152286D02*
X0425830Y0152349D01*
X0425836Y0152411D01*
X0425846Y0152473D01*
X0425859Y0152535D01*
X0425877Y0152595D01*
X0425898Y0152654D01*
X0425923Y0152712D01*
X0425952Y0152768D01*
X0425984Y0152822D01*
X0426019Y0152874D01*
X0426057Y0152923D01*
X0426099Y0152971D01*
X0426143Y0153015D01*
X0426191Y0153057D01*
X0426240Y0153095D01*
X0426292Y0153130D01*
X0426346Y0153162D01*
X0426402Y0153191D01*
X0426460Y0153216D01*
X0426519Y0153237D01*
X0426579Y0153255D01*
X0426641Y0153268D01*
X0426703Y0153278D01*
X0426765Y0153284D01*
X0426828Y0153286D01*
X0426891Y0153284D01*
X0426953Y0153278D01*
X0427015Y0153268D01*
X0427077Y0153255D01*
X0427137Y0153237D01*
X0427196Y0153216D01*
X0427254Y0153191D01*
X0427310Y0153162D01*
X0427364Y0153130D01*
X0427416Y0153095D01*
X0427465Y0153057D01*
X0427513Y0153015D01*
X0427557Y0152971D01*
X0427599Y0152923D01*
X0427637Y0152874D01*
X0427672Y0152822D01*
X0427704Y0152768D01*
X0427733Y0152712D01*
X0427758Y0152654D01*
X0427779Y0152595D01*
X0427797Y0152535D01*
X0427810Y0152473D01*
X0427820Y0152411D01*
X0427826Y0152349D01*
X0427828Y0152286D01*
X0427826Y0152223D01*
X0427820Y0152161D01*
X0427810Y0152099D01*
X0427797Y0152037D01*
X0427779Y0151977D01*
X0427758Y0151918D01*
X0427733Y0151860D01*
X0427704Y0151804D01*
X0427672Y0151750D01*
X0427637Y0151698D01*
X0427599Y0151649D01*
X0427557Y0151601D01*
X0427513Y0151557D01*
X0427465Y0151515D01*
X0427416Y0151477D01*
X0427364Y0151442D01*
X0427310Y0151410D01*
X0427254Y0151381D01*
X0427196Y0151356D01*
X0427137Y0151335D01*
X0427077Y0151317D01*
X0427015Y0151304D01*
X0426953Y0151294D01*
X0426891Y0151288D01*
X0426828Y0151286D01*
X0426765Y0151288D01*
X0426703Y0151294D01*
X0426641Y0151304D01*
X0426579Y0151317D01*
X0426519Y0151335D01*
X0426460Y0151356D01*
X0426402Y0151381D01*
X0426346Y0151410D01*
X0426292Y0151442D01*
X0426240Y0151477D01*
X0426191Y0151515D01*
X0426143Y0151557D01*
X0426099Y0151601D01*
X0426057Y0151649D01*
X0426019Y0151698D01*
X0425984Y0151750D01*
X0425952Y0151804D01*
X0425923Y0151860D01*
X0425898Y0151918D01*
X0425877Y0151977D01*
X0425859Y0152037D01*
X0425846Y0152099D01*
X0425836Y0152161D01*
X0425830Y0152223D01*
X0425828Y0152286D01*
X0419828Y0152286D02*
X0419830Y0152458D01*
X0419836Y0152629D01*
X0419847Y0152801D01*
X0419862Y0152972D01*
X0419881Y0153143D01*
X0419904Y0153313D01*
X0419931Y0153483D01*
X0419963Y0153652D01*
X0419998Y0153820D01*
X0420038Y0153987D01*
X0420082Y0154153D01*
X0420129Y0154318D01*
X0420181Y0154482D01*
X0420237Y0154644D01*
X0420297Y0154805D01*
X0420361Y0154965D01*
X0420429Y0155123D01*
X0420500Y0155279D01*
X0420575Y0155433D01*
X0420655Y0155586D01*
X0420737Y0155736D01*
X0420824Y0155885D01*
X0420914Y0156031D01*
X0421008Y0156175D01*
X0421105Y0156317D01*
X0421206Y0156456D01*
X0421310Y0156593D01*
X0421417Y0156727D01*
X0421528Y0156858D01*
X0421641Y0156987D01*
X0421758Y0157113D01*
X0421878Y0157236D01*
X0422001Y0157356D01*
X0422127Y0157473D01*
X0422256Y0157586D01*
X0422387Y0157697D01*
X0422521Y0157804D01*
X0422658Y0157908D01*
X0422797Y0158009D01*
X0422939Y0158106D01*
X0423083Y0158200D01*
X0423229Y0158290D01*
X0423378Y0158377D01*
X0423528Y0158459D01*
X0423681Y0158539D01*
X0423835Y0158614D01*
X0423991Y0158685D01*
X0424149Y0158753D01*
X0424309Y0158817D01*
X0424470Y0158877D01*
X0424632Y0158933D01*
X0424796Y0158985D01*
X0424961Y0159032D01*
X0425127Y0159076D01*
X0425294Y0159116D01*
X0425462Y0159151D01*
X0425631Y0159183D01*
X0425801Y0159210D01*
X0425971Y0159233D01*
X0426142Y0159252D01*
X0426313Y0159267D01*
X0426485Y0159278D01*
X0426656Y0159284D01*
X0426828Y0159286D01*
X0427000Y0159284D01*
X0427171Y0159278D01*
X0427343Y0159267D01*
X0427514Y0159252D01*
X0427685Y0159233D01*
X0427855Y0159210D01*
X0428025Y0159183D01*
X0428194Y0159151D01*
X0428362Y0159116D01*
X0428529Y0159076D01*
X0428695Y0159032D01*
X0428860Y0158985D01*
X0429024Y0158933D01*
X0429186Y0158877D01*
X0429347Y0158817D01*
X0429507Y0158753D01*
X0429665Y0158685D01*
X0429821Y0158614D01*
X0429975Y0158539D01*
X0430128Y0158459D01*
X0430278Y0158377D01*
X0430427Y0158290D01*
X0430573Y0158200D01*
X0430717Y0158106D01*
X0430859Y0158009D01*
X0430998Y0157908D01*
X0431135Y0157804D01*
X0431269Y0157697D01*
X0431400Y0157586D01*
X0431529Y0157473D01*
X0431655Y0157356D01*
X0431778Y0157236D01*
X0431898Y0157113D01*
X0432015Y0156987D01*
X0432128Y0156858D01*
X0432239Y0156727D01*
X0432346Y0156593D01*
X0432450Y0156456D01*
X0432551Y0156317D01*
X0432648Y0156175D01*
X0432742Y0156031D01*
X0432832Y0155885D01*
X0432919Y0155736D01*
X0433001Y0155586D01*
X0433081Y0155433D01*
X0433156Y0155279D01*
X0433227Y0155123D01*
X0433295Y0154965D01*
X0433359Y0154805D01*
X0433419Y0154644D01*
X0433475Y0154482D01*
X0433527Y0154318D01*
X0433574Y0154153D01*
X0433618Y0153987D01*
X0433658Y0153820D01*
X0433693Y0153652D01*
X0433725Y0153483D01*
X0433752Y0153313D01*
X0433775Y0153143D01*
X0433794Y0152972D01*
X0433809Y0152801D01*
X0433820Y0152629D01*
X0433826Y0152458D01*
X0433828Y0152286D01*
X0433826Y0152114D01*
X0433820Y0151943D01*
X0433809Y0151771D01*
X0433794Y0151600D01*
X0433775Y0151429D01*
X0433752Y0151259D01*
X0433725Y0151089D01*
X0433693Y0150920D01*
X0433658Y0150752D01*
X0433618Y0150585D01*
X0433574Y0150419D01*
X0433527Y0150254D01*
X0433475Y0150090D01*
X0433419Y0149928D01*
X0433359Y0149767D01*
X0433295Y0149607D01*
X0433227Y0149449D01*
X0433156Y0149293D01*
X0433081Y0149139D01*
X0433001Y0148986D01*
X0432919Y0148836D01*
X0432832Y0148687D01*
X0432742Y0148541D01*
X0432648Y0148397D01*
X0432551Y0148255D01*
X0432450Y0148116D01*
X0432346Y0147979D01*
X0432239Y0147845D01*
X0432128Y0147714D01*
X0432015Y0147585D01*
X0431898Y0147459D01*
X0431778Y0147336D01*
X0431655Y0147216D01*
X0431529Y0147099D01*
X0431400Y0146986D01*
X0431269Y0146875D01*
X0431135Y0146768D01*
X0430998Y0146664D01*
X0430859Y0146563D01*
X0430717Y0146466D01*
X0430573Y0146372D01*
X0430427Y0146282D01*
X0430278Y0146195D01*
X0430128Y0146113D01*
X0429975Y0146033D01*
X0429821Y0145958D01*
X0429665Y0145887D01*
X0429507Y0145819D01*
X0429347Y0145755D01*
X0429186Y0145695D01*
X0429024Y0145639D01*
X0428860Y0145587D01*
X0428695Y0145540D01*
X0428529Y0145496D01*
X0428362Y0145456D01*
X0428194Y0145421D01*
X0428025Y0145389D01*
X0427855Y0145362D01*
X0427685Y0145339D01*
X0427514Y0145320D01*
X0427343Y0145305D01*
X0427171Y0145294D01*
X0427000Y0145288D01*
X0426828Y0145286D01*
X0426656Y0145288D01*
X0426485Y0145294D01*
X0426313Y0145305D01*
X0426142Y0145320D01*
X0425971Y0145339D01*
X0425801Y0145362D01*
X0425631Y0145389D01*
X0425462Y0145421D01*
X0425294Y0145456D01*
X0425127Y0145496D01*
X0424961Y0145540D01*
X0424796Y0145587D01*
X0424632Y0145639D01*
X0424470Y0145695D01*
X0424309Y0145755D01*
X0424149Y0145819D01*
X0423991Y0145887D01*
X0423835Y0145958D01*
X0423681Y0146033D01*
X0423528Y0146113D01*
X0423378Y0146195D01*
X0423229Y0146282D01*
X0423083Y0146372D01*
X0422939Y0146466D01*
X0422797Y0146563D01*
X0422658Y0146664D01*
X0422521Y0146768D01*
X0422387Y0146875D01*
X0422256Y0146986D01*
X0422127Y0147099D01*
X0422001Y0147216D01*
X0421878Y0147336D01*
X0421758Y0147459D01*
X0421641Y0147585D01*
X0421528Y0147714D01*
X0421417Y0147845D01*
X0421310Y0147979D01*
X0421206Y0148116D01*
X0421105Y0148255D01*
X0421008Y0148397D01*
X0420914Y0148541D01*
X0420824Y0148687D01*
X0420737Y0148836D01*
X0420655Y0148986D01*
X0420575Y0149139D01*
X0420500Y0149293D01*
X0420429Y0149449D01*
X0420361Y0149607D01*
X0420297Y0149767D01*
X0420237Y0149928D01*
X0420181Y0150090D01*
X0420129Y0150254D01*
X0420082Y0150419D01*
X0420038Y0150585D01*
X0419998Y0150752D01*
X0419963Y0150920D01*
X0419931Y0151089D01*
X0419904Y0151259D01*
X0419881Y0151429D01*
X0419862Y0151600D01*
X0419847Y0151771D01*
X0419836Y0151943D01*
X0419830Y0152114D01*
X0419828Y0152286D01*
X0421828Y0099786D02*
X0421828Y0034786D01*
X0486828Y0034786D01*
X0486828Y0099786D01*
X0421828Y0099786D01*
X0391828Y0049786D02*
X0381828Y0049786D01*
X0376828Y0044786D01*
X0376828Y0014786D01*
X0396828Y0014786D01*
X0396828Y0044786D01*
X0391828Y0049786D01*
X0333828Y0083786D02*
X0333828Y0087286D01*
X0333828Y0097286D01*
X0333828Y0100786D01*
X0325828Y0104286D02*
X0324828Y0104286D01*
X0324828Y0105286D01*
X0318828Y0105286D01*
X0318828Y0104286D01*
X0317828Y0104286D01*
X0309828Y0100786D02*
X0309828Y0096786D01*
X0309828Y0087286D01*
X0309828Y0083786D01*
X0317828Y0080286D02*
X0318828Y0080286D01*
X0318828Y0079286D01*
X0324828Y0079286D01*
X0324828Y0080286D01*
X0325828Y0080286D01*
X0320828Y0092286D02*
X0320830Y0092349D01*
X0320836Y0092411D01*
X0320846Y0092473D01*
X0320859Y0092535D01*
X0320877Y0092595D01*
X0320898Y0092654D01*
X0320923Y0092712D01*
X0320952Y0092768D01*
X0320984Y0092822D01*
X0321019Y0092874D01*
X0321057Y0092923D01*
X0321099Y0092971D01*
X0321143Y0093015D01*
X0321191Y0093057D01*
X0321240Y0093095D01*
X0321292Y0093130D01*
X0321346Y0093162D01*
X0321402Y0093191D01*
X0321460Y0093216D01*
X0321519Y0093237D01*
X0321579Y0093255D01*
X0321641Y0093268D01*
X0321703Y0093278D01*
X0321765Y0093284D01*
X0321828Y0093286D01*
X0321891Y0093284D01*
X0321953Y0093278D01*
X0322015Y0093268D01*
X0322077Y0093255D01*
X0322137Y0093237D01*
X0322196Y0093216D01*
X0322254Y0093191D01*
X0322310Y0093162D01*
X0322364Y0093130D01*
X0322416Y0093095D01*
X0322465Y0093057D01*
X0322513Y0093015D01*
X0322557Y0092971D01*
X0322599Y0092923D01*
X0322637Y0092874D01*
X0322672Y0092822D01*
X0322704Y0092768D01*
X0322733Y0092712D01*
X0322758Y0092654D01*
X0322779Y0092595D01*
X0322797Y0092535D01*
X0322810Y0092473D01*
X0322820Y0092411D01*
X0322826Y0092349D01*
X0322828Y0092286D01*
X0322826Y0092223D01*
X0322820Y0092161D01*
X0322810Y0092099D01*
X0322797Y0092037D01*
X0322779Y0091977D01*
X0322758Y0091918D01*
X0322733Y0091860D01*
X0322704Y0091804D01*
X0322672Y0091750D01*
X0322637Y0091698D01*
X0322599Y0091649D01*
X0322557Y0091601D01*
X0322513Y0091557D01*
X0322465Y0091515D01*
X0322416Y0091477D01*
X0322364Y0091442D01*
X0322310Y0091410D01*
X0322254Y0091381D01*
X0322196Y0091356D01*
X0322137Y0091335D01*
X0322077Y0091317D01*
X0322015Y0091304D01*
X0321953Y0091294D01*
X0321891Y0091288D01*
X0321828Y0091286D01*
X0321765Y0091288D01*
X0321703Y0091294D01*
X0321641Y0091304D01*
X0321579Y0091317D01*
X0321519Y0091335D01*
X0321460Y0091356D01*
X0321402Y0091381D01*
X0321346Y0091410D01*
X0321292Y0091442D01*
X0321240Y0091477D01*
X0321191Y0091515D01*
X0321143Y0091557D01*
X0321099Y0091601D01*
X0321057Y0091649D01*
X0321019Y0091698D01*
X0320984Y0091750D01*
X0320952Y0091804D01*
X0320923Y0091860D01*
X0320898Y0091918D01*
X0320877Y0091977D01*
X0320859Y0092037D01*
X0320846Y0092099D01*
X0320836Y0092161D01*
X0320830Y0092223D01*
X0320828Y0092286D01*
X0314828Y0092286D02*
X0314830Y0092458D01*
X0314836Y0092629D01*
X0314847Y0092801D01*
X0314862Y0092972D01*
X0314881Y0093143D01*
X0314904Y0093313D01*
X0314931Y0093483D01*
X0314963Y0093652D01*
X0314998Y0093820D01*
X0315038Y0093987D01*
X0315082Y0094153D01*
X0315129Y0094318D01*
X0315181Y0094482D01*
X0315237Y0094644D01*
X0315297Y0094805D01*
X0315361Y0094965D01*
X0315429Y0095123D01*
X0315500Y0095279D01*
X0315575Y0095433D01*
X0315655Y0095586D01*
X0315737Y0095736D01*
X0315824Y0095885D01*
X0315914Y0096031D01*
X0316008Y0096175D01*
X0316105Y0096317D01*
X0316206Y0096456D01*
X0316310Y0096593D01*
X0316417Y0096727D01*
X0316528Y0096858D01*
X0316641Y0096987D01*
X0316758Y0097113D01*
X0316878Y0097236D01*
X0317001Y0097356D01*
X0317127Y0097473D01*
X0317256Y0097586D01*
X0317387Y0097697D01*
X0317521Y0097804D01*
X0317658Y0097908D01*
X0317797Y0098009D01*
X0317939Y0098106D01*
X0318083Y0098200D01*
X0318229Y0098290D01*
X0318378Y0098377D01*
X0318528Y0098459D01*
X0318681Y0098539D01*
X0318835Y0098614D01*
X0318991Y0098685D01*
X0319149Y0098753D01*
X0319309Y0098817D01*
X0319470Y0098877D01*
X0319632Y0098933D01*
X0319796Y0098985D01*
X0319961Y0099032D01*
X0320127Y0099076D01*
X0320294Y0099116D01*
X0320462Y0099151D01*
X0320631Y0099183D01*
X0320801Y0099210D01*
X0320971Y0099233D01*
X0321142Y0099252D01*
X0321313Y0099267D01*
X0321485Y0099278D01*
X0321656Y0099284D01*
X0321828Y0099286D01*
X0322000Y0099284D01*
X0322171Y0099278D01*
X0322343Y0099267D01*
X0322514Y0099252D01*
X0322685Y0099233D01*
X0322855Y0099210D01*
X0323025Y0099183D01*
X0323194Y0099151D01*
X0323362Y0099116D01*
X0323529Y0099076D01*
X0323695Y0099032D01*
X0323860Y0098985D01*
X0324024Y0098933D01*
X0324186Y0098877D01*
X0324347Y0098817D01*
X0324507Y0098753D01*
X0324665Y0098685D01*
X0324821Y0098614D01*
X0324975Y0098539D01*
X0325128Y0098459D01*
X0325278Y0098377D01*
X0325427Y0098290D01*
X0325573Y0098200D01*
X0325717Y0098106D01*
X0325859Y0098009D01*
X0325998Y0097908D01*
X0326135Y0097804D01*
X0326269Y0097697D01*
X0326400Y0097586D01*
X0326529Y0097473D01*
X0326655Y0097356D01*
X0326778Y0097236D01*
X0326898Y0097113D01*
X0327015Y0096987D01*
X0327128Y0096858D01*
X0327239Y0096727D01*
X0327346Y0096593D01*
X0327450Y0096456D01*
X0327551Y0096317D01*
X0327648Y0096175D01*
X0327742Y0096031D01*
X0327832Y0095885D01*
X0327919Y0095736D01*
X0328001Y0095586D01*
X0328081Y0095433D01*
X0328156Y0095279D01*
X0328227Y0095123D01*
X0328295Y0094965D01*
X0328359Y0094805D01*
X0328419Y0094644D01*
X0328475Y0094482D01*
X0328527Y0094318D01*
X0328574Y0094153D01*
X0328618Y0093987D01*
X0328658Y0093820D01*
X0328693Y0093652D01*
X0328725Y0093483D01*
X0328752Y0093313D01*
X0328775Y0093143D01*
X0328794Y0092972D01*
X0328809Y0092801D01*
X0328820Y0092629D01*
X0328826Y0092458D01*
X0328828Y0092286D01*
X0328826Y0092114D01*
X0328820Y0091943D01*
X0328809Y0091771D01*
X0328794Y0091600D01*
X0328775Y0091429D01*
X0328752Y0091259D01*
X0328725Y0091089D01*
X0328693Y0090920D01*
X0328658Y0090752D01*
X0328618Y0090585D01*
X0328574Y0090419D01*
X0328527Y0090254D01*
X0328475Y0090090D01*
X0328419Y0089928D01*
X0328359Y0089767D01*
X0328295Y0089607D01*
X0328227Y0089449D01*
X0328156Y0089293D01*
X0328081Y0089139D01*
X0328001Y0088986D01*
X0327919Y0088836D01*
X0327832Y0088687D01*
X0327742Y0088541D01*
X0327648Y0088397D01*
X0327551Y0088255D01*
X0327450Y0088116D01*
X0327346Y0087979D01*
X0327239Y0087845D01*
X0327128Y0087714D01*
X0327015Y0087585D01*
X0326898Y0087459D01*
X0326778Y0087336D01*
X0326655Y0087216D01*
X0326529Y0087099D01*
X0326400Y0086986D01*
X0326269Y0086875D01*
X0326135Y0086768D01*
X0325998Y0086664D01*
X0325859Y0086563D01*
X0325717Y0086466D01*
X0325573Y0086372D01*
X0325427Y0086282D01*
X0325278Y0086195D01*
X0325128Y0086113D01*
X0324975Y0086033D01*
X0324821Y0085958D01*
X0324665Y0085887D01*
X0324507Y0085819D01*
X0324347Y0085755D01*
X0324186Y0085695D01*
X0324024Y0085639D01*
X0323860Y0085587D01*
X0323695Y0085540D01*
X0323529Y0085496D01*
X0323362Y0085456D01*
X0323194Y0085421D01*
X0323025Y0085389D01*
X0322855Y0085362D01*
X0322685Y0085339D01*
X0322514Y0085320D01*
X0322343Y0085305D01*
X0322171Y0085294D01*
X0322000Y0085288D01*
X0321828Y0085286D01*
X0321656Y0085288D01*
X0321485Y0085294D01*
X0321313Y0085305D01*
X0321142Y0085320D01*
X0320971Y0085339D01*
X0320801Y0085362D01*
X0320631Y0085389D01*
X0320462Y0085421D01*
X0320294Y0085456D01*
X0320127Y0085496D01*
X0319961Y0085540D01*
X0319796Y0085587D01*
X0319632Y0085639D01*
X0319470Y0085695D01*
X0319309Y0085755D01*
X0319149Y0085819D01*
X0318991Y0085887D01*
X0318835Y0085958D01*
X0318681Y0086033D01*
X0318528Y0086113D01*
X0318378Y0086195D01*
X0318229Y0086282D01*
X0318083Y0086372D01*
X0317939Y0086466D01*
X0317797Y0086563D01*
X0317658Y0086664D01*
X0317521Y0086768D01*
X0317387Y0086875D01*
X0317256Y0086986D01*
X0317127Y0087099D01*
X0317001Y0087216D01*
X0316878Y0087336D01*
X0316758Y0087459D01*
X0316641Y0087585D01*
X0316528Y0087714D01*
X0316417Y0087845D01*
X0316310Y0087979D01*
X0316206Y0088116D01*
X0316105Y0088255D01*
X0316008Y0088397D01*
X0315914Y0088541D01*
X0315824Y0088687D01*
X0315737Y0088836D01*
X0315655Y0088986D01*
X0315575Y0089139D01*
X0315500Y0089293D01*
X0315429Y0089449D01*
X0315361Y0089607D01*
X0315297Y0089767D01*
X0315237Y0089928D01*
X0315181Y0090090D01*
X0315129Y0090254D01*
X0315082Y0090419D01*
X0315038Y0090585D01*
X0314998Y0090752D01*
X0314963Y0090920D01*
X0314931Y0091089D01*
X0314904Y0091259D01*
X0314881Y0091429D01*
X0314862Y0091600D01*
X0314847Y0091771D01*
X0314836Y0091943D01*
X0314830Y0092114D01*
X0314828Y0092286D01*
X0286328Y0097286D02*
X0286328Y0087286D01*
X0286328Y0083786D01*
X0278328Y0080286D02*
X0277328Y0080286D01*
X0277328Y0079286D01*
X0271328Y0079286D01*
X0271328Y0080286D01*
X0270328Y0080286D01*
X0262328Y0083786D02*
X0262328Y0087286D01*
X0262328Y0096786D01*
X0262328Y0100786D01*
X0270328Y0104286D02*
X0271328Y0104286D01*
X0271328Y0105286D01*
X0277328Y0105286D01*
X0277328Y0104286D01*
X0278328Y0104286D01*
X0286328Y0100786D02*
X0286328Y0097286D01*
X0273328Y0092286D02*
X0273330Y0092349D01*
X0273336Y0092411D01*
X0273346Y0092473D01*
X0273359Y0092535D01*
X0273377Y0092595D01*
X0273398Y0092654D01*
X0273423Y0092712D01*
X0273452Y0092768D01*
X0273484Y0092822D01*
X0273519Y0092874D01*
X0273557Y0092923D01*
X0273599Y0092971D01*
X0273643Y0093015D01*
X0273691Y0093057D01*
X0273740Y0093095D01*
X0273792Y0093130D01*
X0273846Y0093162D01*
X0273902Y0093191D01*
X0273960Y0093216D01*
X0274019Y0093237D01*
X0274079Y0093255D01*
X0274141Y0093268D01*
X0274203Y0093278D01*
X0274265Y0093284D01*
X0274328Y0093286D01*
X0274391Y0093284D01*
X0274453Y0093278D01*
X0274515Y0093268D01*
X0274577Y0093255D01*
X0274637Y0093237D01*
X0274696Y0093216D01*
X0274754Y0093191D01*
X0274810Y0093162D01*
X0274864Y0093130D01*
X0274916Y0093095D01*
X0274965Y0093057D01*
X0275013Y0093015D01*
X0275057Y0092971D01*
X0275099Y0092923D01*
X0275137Y0092874D01*
X0275172Y0092822D01*
X0275204Y0092768D01*
X0275233Y0092712D01*
X0275258Y0092654D01*
X0275279Y0092595D01*
X0275297Y0092535D01*
X0275310Y0092473D01*
X0275320Y0092411D01*
X0275326Y0092349D01*
X0275328Y0092286D01*
X0275326Y0092223D01*
X0275320Y0092161D01*
X0275310Y0092099D01*
X0275297Y0092037D01*
X0275279Y0091977D01*
X0275258Y0091918D01*
X0275233Y0091860D01*
X0275204Y0091804D01*
X0275172Y0091750D01*
X0275137Y0091698D01*
X0275099Y0091649D01*
X0275057Y0091601D01*
X0275013Y0091557D01*
X0274965Y0091515D01*
X0274916Y0091477D01*
X0274864Y0091442D01*
X0274810Y0091410D01*
X0274754Y0091381D01*
X0274696Y0091356D01*
X0274637Y0091335D01*
X0274577Y0091317D01*
X0274515Y0091304D01*
X0274453Y0091294D01*
X0274391Y0091288D01*
X0274328Y0091286D01*
X0274265Y0091288D01*
X0274203Y0091294D01*
X0274141Y0091304D01*
X0274079Y0091317D01*
X0274019Y0091335D01*
X0273960Y0091356D01*
X0273902Y0091381D01*
X0273846Y0091410D01*
X0273792Y0091442D01*
X0273740Y0091477D01*
X0273691Y0091515D01*
X0273643Y0091557D01*
X0273599Y0091601D01*
X0273557Y0091649D01*
X0273519Y0091698D01*
X0273484Y0091750D01*
X0273452Y0091804D01*
X0273423Y0091860D01*
X0273398Y0091918D01*
X0273377Y0091977D01*
X0273359Y0092037D01*
X0273346Y0092099D01*
X0273336Y0092161D01*
X0273330Y0092223D01*
X0273328Y0092286D01*
X0267328Y0092286D02*
X0267330Y0092458D01*
X0267336Y0092629D01*
X0267347Y0092801D01*
X0267362Y0092972D01*
X0267381Y0093143D01*
X0267404Y0093313D01*
X0267431Y0093483D01*
X0267463Y0093652D01*
X0267498Y0093820D01*
X0267538Y0093987D01*
X0267582Y0094153D01*
X0267629Y0094318D01*
X0267681Y0094482D01*
X0267737Y0094644D01*
X0267797Y0094805D01*
X0267861Y0094965D01*
X0267929Y0095123D01*
X0268000Y0095279D01*
X0268075Y0095433D01*
X0268155Y0095586D01*
X0268237Y0095736D01*
X0268324Y0095885D01*
X0268414Y0096031D01*
X0268508Y0096175D01*
X0268605Y0096317D01*
X0268706Y0096456D01*
X0268810Y0096593D01*
X0268917Y0096727D01*
X0269028Y0096858D01*
X0269141Y0096987D01*
X0269258Y0097113D01*
X0269378Y0097236D01*
X0269501Y0097356D01*
X0269627Y0097473D01*
X0269756Y0097586D01*
X0269887Y0097697D01*
X0270021Y0097804D01*
X0270158Y0097908D01*
X0270297Y0098009D01*
X0270439Y0098106D01*
X0270583Y0098200D01*
X0270729Y0098290D01*
X0270878Y0098377D01*
X0271028Y0098459D01*
X0271181Y0098539D01*
X0271335Y0098614D01*
X0271491Y0098685D01*
X0271649Y0098753D01*
X0271809Y0098817D01*
X0271970Y0098877D01*
X0272132Y0098933D01*
X0272296Y0098985D01*
X0272461Y0099032D01*
X0272627Y0099076D01*
X0272794Y0099116D01*
X0272962Y0099151D01*
X0273131Y0099183D01*
X0273301Y0099210D01*
X0273471Y0099233D01*
X0273642Y0099252D01*
X0273813Y0099267D01*
X0273985Y0099278D01*
X0274156Y0099284D01*
X0274328Y0099286D01*
X0274500Y0099284D01*
X0274671Y0099278D01*
X0274843Y0099267D01*
X0275014Y0099252D01*
X0275185Y0099233D01*
X0275355Y0099210D01*
X0275525Y0099183D01*
X0275694Y0099151D01*
X0275862Y0099116D01*
X0276029Y0099076D01*
X0276195Y0099032D01*
X0276360Y0098985D01*
X0276524Y0098933D01*
X0276686Y0098877D01*
X0276847Y0098817D01*
X0277007Y0098753D01*
X0277165Y0098685D01*
X0277321Y0098614D01*
X0277475Y0098539D01*
X0277628Y0098459D01*
X0277778Y0098377D01*
X0277927Y0098290D01*
X0278073Y0098200D01*
X0278217Y0098106D01*
X0278359Y0098009D01*
X0278498Y0097908D01*
X0278635Y0097804D01*
X0278769Y0097697D01*
X0278900Y0097586D01*
X0279029Y0097473D01*
X0279155Y0097356D01*
X0279278Y0097236D01*
X0279398Y0097113D01*
X0279515Y0096987D01*
X0279628Y0096858D01*
X0279739Y0096727D01*
X0279846Y0096593D01*
X0279950Y0096456D01*
X0280051Y0096317D01*
X0280148Y0096175D01*
X0280242Y0096031D01*
X0280332Y0095885D01*
X0280419Y0095736D01*
X0280501Y0095586D01*
X0280581Y0095433D01*
X0280656Y0095279D01*
X0280727Y0095123D01*
X0280795Y0094965D01*
X0280859Y0094805D01*
X0280919Y0094644D01*
X0280975Y0094482D01*
X0281027Y0094318D01*
X0281074Y0094153D01*
X0281118Y0093987D01*
X0281158Y0093820D01*
X0281193Y0093652D01*
X0281225Y0093483D01*
X0281252Y0093313D01*
X0281275Y0093143D01*
X0281294Y0092972D01*
X0281309Y0092801D01*
X0281320Y0092629D01*
X0281326Y0092458D01*
X0281328Y0092286D01*
X0281326Y0092114D01*
X0281320Y0091943D01*
X0281309Y0091771D01*
X0281294Y0091600D01*
X0281275Y0091429D01*
X0281252Y0091259D01*
X0281225Y0091089D01*
X0281193Y0090920D01*
X0281158Y0090752D01*
X0281118Y0090585D01*
X0281074Y0090419D01*
X0281027Y0090254D01*
X0280975Y0090090D01*
X0280919Y0089928D01*
X0280859Y0089767D01*
X0280795Y0089607D01*
X0280727Y0089449D01*
X0280656Y0089293D01*
X0280581Y0089139D01*
X0280501Y0088986D01*
X0280419Y0088836D01*
X0280332Y0088687D01*
X0280242Y0088541D01*
X0280148Y0088397D01*
X0280051Y0088255D01*
X0279950Y0088116D01*
X0279846Y0087979D01*
X0279739Y0087845D01*
X0279628Y0087714D01*
X0279515Y0087585D01*
X0279398Y0087459D01*
X0279278Y0087336D01*
X0279155Y0087216D01*
X0279029Y0087099D01*
X0278900Y0086986D01*
X0278769Y0086875D01*
X0278635Y0086768D01*
X0278498Y0086664D01*
X0278359Y0086563D01*
X0278217Y0086466D01*
X0278073Y0086372D01*
X0277927Y0086282D01*
X0277778Y0086195D01*
X0277628Y0086113D01*
X0277475Y0086033D01*
X0277321Y0085958D01*
X0277165Y0085887D01*
X0277007Y0085819D01*
X0276847Y0085755D01*
X0276686Y0085695D01*
X0276524Y0085639D01*
X0276360Y0085587D01*
X0276195Y0085540D01*
X0276029Y0085496D01*
X0275862Y0085456D01*
X0275694Y0085421D01*
X0275525Y0085389D01*
X0275355Y0085362D01*
X0275185Y0085339D01*
X0275014Y0085320D01*
X0274843Y0085305D01*
X0274671Y0085294D01*
X0274500Y0085288D01*
X0274328Y0085286D01*
X0274156Y0085288D01*
X0273985Y0085294D01*
X0273813Y0085305D01*
X0273642Y0085320D01*
X0273471Y0085339D01*
X0273301Y0085362D01*
X0273131Y0085389D01*
X0272962Y0085421D01*
X0272794Y0085456D01*
X0272627Y0085496D01*
X0272461Y0085540D01*
X0272296Y0085587D01*
X0272132Y0085639D01*
X0271970Y0085695D01*
X0271809Y0085755D01*
X0271649Y0085819D01*
X0271491Y0085887D01*
X0271335Y0085958D01*
X0271181Y0086033D01*
X0271028Y0086113D01*
X0270878Y0086195D01*
X0270729Y0086282D01*
X0270583Y0086372D01*
X0270439Y0086466D01*
X0270297Y0086563D01*
X0270158Y0086664D01*
X0270021Y0086768D01*
X0269887Y0086875D01*
X0269756Y0086986D01*
X0269627Y0087099D01*
X0269501Y0087216D01*
X0269378Y0087336D01*
X0269258Y0087459D01*
X0269141Y0087585D01*
X0269028Y0087714D01*
X0268917Y0087845D01*
X0268810Y0087979D01*
X0268706Y0088116D01*
X0268605Y0088255D01*
X0268508Y0088397D01*
X0268414Y0088541D01*
X0268324Y0088687D01*
X0268237Y0088836D01*
X0268155Y0088986D01*
X0268075Y0089139D01*
X0268000Y0089293D01*
X0267929Y0089449D01*
X0267861Y0089607D01*
X0267797Y0089767D01*
X0267737Y0089928D01*
X0267681Y0090090D01*
X0267629Y0090254D01*
X0267582Y0090419D01*
X0267538Y0090585D01*
X0267498Y0090752D01*
X0267463Y0090920D01*
X0267431Y0091089D01*
X0267404Y0091259D01*
X0267381Y0091429D01*
X0267362Y0091600D01*
X0267347Y0091771D01*
X0267336Y0091943D01*
X0267330Y0092114D01*
X0267328Y0092286D01*
X0208828Y0097286D02*
X0208828Y0087286D01*
X0208828Y0083786D01*
X0200828Y0080286D02*
X0199828Y0080286D01*
X0199828Y0079286D01*
X0193828Y0079286D01*
X0193828Y0080286D01*
X0192828Y0080286D01*
X0184828Y0083786D02*
X0184828Y0087286D01*
X0184828Y0096786D01*
X0184828Y0100786D01*
X0192828Y0104286D02*
X0193828Y0104286D01*
X0193828Y0105286D01*
X0199828Y0105286D01*
X0199828Y0104286D01*
X0200828Y0104286D01*
X0208828Y0100786D02*
X0208828Y0097286D01*
X0195828Y0092286D02*
X0195830Y0092349D01*
X0195836Y0092411D01*
X0195846Y0092473D01*
X0195859Y0092535D01*
X0195877Y0092595D01*
X0195898Y0092654D01*
X0195923Y0092712D01*
X0195952Y0092768D01*
X0195984Y0092822D01*
X0196019Y0092874D01*
X0196057Y0092923D01*
X0196099Y0092971D01*
X0196143Y0093015D01*
X0196191Y0093057D01*
X0196240Y0093095D01*
X0196292Y0093130D01*
X0196346Y0093162D01*
X0196402Y0093191D01*
X0196460Y0093216D01*
X0196519Y0093237D01*
X0196579Y0093255D01*
X0196641Y0093268D01*
X0196703Y0093278D01*
X0196765Y0093284D01*
X0196828Y0093286D01*
X0196891Y0093284D01*
X0196953Y0093278D01*
X0197015Y0093268D01*
X0197077Y0093255D01*
X0197137Y0093237D01*
X0197196Y0093216D01*
X0197254Y0093191D01*
X0197310Y0093162D01*
X0197364Y0093130D01*
X0197416Y0093095D01*
X0197465Y0093057D01*
X0197513Y0093015D01*
X0197557Y0092971D01*
X0197599Y0092923D01*
X0197637Y0092874D01*
X0197672Y0092822D01*
X0197704Y0092768D01*
X0197733Y0092712D01*
X0197758Y0092654D01*
X0197779Y0092595D01*
X0197797Y0092535D01*
X0197810Y0092473D01*
X0197820Y0092411D01*
X0197826Y0092349D01*
X0197828Y0092286D01*
X0197826Y0092223D01*
X0197820Y0092161D01*
X0197810Y0092099D01*
X0197797Y0092037D01*
X0197779Y0091977D01*
X0197758Y0091918D01*
X0197733Y0091860D01*
X0197704Y0091804D01*
X0197672Y0091750D01*
X0197637Y0091698D01*
X0197599Y0091649D01*
X0197557Y0091601D01*
X0197513Y0091557D01*
X0197465Y0091515D01*
X0197416Y0091477D01*
X0197364Y0091442D01*
X0197310Y0091410D01*
X0197254Y0091381D01*
X0197196Y0091356D01*
X0197137Y0091335D01*
X0197077Y0091317D01*
X0197015Y0091304D01*
X0196953Y0091294D01*
X0196891Y0091288D01*
X0196828Y0091286D01*
X0196765Y0091288D01*
X0196703Y0091294D01*
X0196641Y0091304D01*
X0196579Y0091317D01*
X0196519Y0091335D01*
X0196460Y0091356D01*
X0196402Y0091381D01*
X0196346Y0091410D01*
X0196292Y0091442D01*
X0196240Y0091477D01*
X0196191Y0091515D01*
X0196143Y0091557D01*
X0196099Y0091601D01*
X0196057Y0091649D01*
X0196019Y0091698D01*
X0195984Y0091750D01*
X0195952Y0091804D01*
X0195923Y0091860D01*
X0195898Y0091918D01*
X0195877Y0091977D01*
X0195859Y0092037D01*
X0195846Y0092099D01*
X0195836Y0092161D01*
X0195830Y0092223D01*
X0195828Y0092286D01*
X0189828Y0092286D02*
X0189830Y0092458D01*
X0189836Y0092629D01*
X0189847Y0092801D01*
X0189862Y0092972D01*
X0189881Y0093143D01*
X0189904Y0093313D01*
X0189931Y0093483D01*
X0189963Y0093652D01*
X0189998Y0093820D01*
X0190038Y0093987D01*
X0190082Y0094153D01*
X0190129Y0094318D01*
X0190181Y0094482D01*
X0190237Y0094644D01*
X0190297Y0094805D01*
X0190361Y0094965D01*
X0190429Y0095123D01*
X0190500Y0095279D01*
X0190575Y0095433D01*
X0190655Y0095586D01*
X0190737Y0095736D01*
X0190824Y0095885D01*
X0190914Y0096031D01*
X0191008Y0096175D01*
X0191105Y0096317D01*
X0191206Y0096456D01*
X0191310Y0096593D01*
X0191417Y0096727D01*
X0191528Y0096858D01*
X0191641Y0096987D01*
X0191758Y0097113D01*
X0191878Y0097236D01*
X0192001Y0097356D01*
X0192127Y0097473D01*
X0192256Y0097586D01*
X0192387Y0097697D01*
X0192521Y0097804D01*
X0192658Y0097908D01*
X0192797Y0098009D01*
X0192939Y0098106D01*
X0193083Y0098200D01*
X0193229Y0098290D01*
X0193378Y0098377D01*
X0193528Y0098459D01*
X0193681Y0098539D01*
X0193835Y0098614D01*
X0193991Y0098685D01*
X0194149Y0098753D01*
X0194309Y0098817D01*
X0194470Y0098877D01*
X0194632Y0098933D01*
X0194796Y0098985D01*
X0194961Y0099032D01*
X0195127Y0099076D01*
X0195294Y0099116D01*
X0195462Y0099151D01*
X0195631Y0099183D01*
X0195801Y0099210D01*
X0195971Y0099233D01*
X0196142Y0099252D01*
X0196313Y0099267D01*
X0196485Y0099278D01*
X0196656Y0099284D01*
X0196828Y0099286D01*
X0197000Y0099284D01*
X0197171Y0099278D01*
X0197343Y0099267D01*
X0197514Y0099252D01*
X0197685Y0099233D01*
X0197855Y0099210D01*
X0198025Y0099183D01*
X0198194Y0099151D01*
X0198362Y0099116D01*
X0198529Y0099076D01*
X0198695Y0099032D01*
X0198860Y0098985D01*
X0199024Y0098933D01*
X0199186Y0098877D01*
X0199347Y0098817D01*
X0199507Y0098753D01*
X0199665Y0098685D01*
X0199821Y0098614D01*
X0199975Y0098539D01*
X0200128Y0098459D01*
X0200278Y0098377D01*
X0200427Y0098290D01*
X0200573Y0098200D01*
X0200717Y0098106D01*
X0200859Y0098009D01*
X0200998Y0097908D01*
X0201135Y0097804D01*
X0201269Y0097697D01*
X0201400Y0097586D01*
X0201529Y0097473D01*
X0201655Y0097356D01*
X0201778Y0097236D01*
X0201898Y0097113D01*
X0202015Y0096987D01*
X0202128Y0096858D01*
X0202239Y0096727D01*
X0202346Y0096593D01*
X0202450Y0096456D01*
X0202551Y0096317D01*
X0202648Y0096175D01*
X0202742Y0096031D01*
X0202832Y0095885D01*
X0202919Y0095736D01*
X0203001Y0095586D01*
X0203081Y0095433D01*
X0203156Y0095279D01*
X0203227Y0095123D01*
X0203295Y0094965D01*
X0203359Y0094805D01*
X0203419Y0094644D01*
X0203475Y0094482D01*
X0203527Y0094318D01*
X0203574Y0094153D01*
X0203618Y0093987D01*
X0203658Y0093820D01*
X0203693Y0093652D01*
X0203725Y0093483D01*
X0203752Y0093313D01*
X0203775Y0093143D01*
X0203794Y0092972D01*
X0203809Y0092801D01*
X0203820Y0092629D01*
X0203826Y0092458D01*
X0203828Y0092286D01*
X0203826Y0092114D01*
X0203820Y0091943D01*
X0203809Y0091771D01*
X0203794Y0091600D01*
X0203775Y0091429D01*
X0203752Y0091259D01*
X0203725Y0091089D01*
X0203693Y0090920D01*
X0203658Y0090752D01*
X0203618Y0090585D01*
X0203574Y0090419D01*
X0203527Y0090254D01*
X0203475Y0090090D01*
X0203419Y0089928D01*
X0203359Y0089767D01*
X0203295Y0089607D01*
X0203227Y0089449D01*
X0203156Y0089293D01*
X0203081Y0089139D01*
X0203001Y0088986D01*
X0202919Y0088836D01*
X0202832Y0088687D01*
X0202742Y0088541D01*
X0202648Y0088397D01*
X0202551Y0088255D01*
X0202450Y0088116D01*
X0202346Y0087979D01*
X0202239Y0087845D01*
X0202128Y0087714D01*
X0202015Y0087585D01*
X0201898Y0087459D01*
X0201778Y0087336D01*
X0201655Y0087216D01*
X0201529Y0087099D01*
X0201400Y0086986D01*
X0201269Y0086875D01*
X0201135Y0086768D01*
X0200998Y0086664D01*
X0200859Y0086563D01*
X0200717Y0086466D01*
X0200573Y0086372D01*
X0200427Y0086282D01*
X0200278Y0086195D01*
X0200128Y0086113D01*
X0199975Y0086033D01*
X0199821Y0085958D01*
X0199665Y0085887D01*
X0199507Y0085819D01*
X0199347Y0085755D01*
X0199186Y0085695D01*
X0199024Y0085639D01*
X0198860Y0085587D01*
X0198695Y0085540D01*
X0198529Y0085496D01*
X0198362Y0085456D01*
X0198194Y0085421D01*
X0198025Y0085389D01*
X0197855Y0085362D01*
X0197685Y0085339D01*
X0197514Y0085320D01*
X0197343Y0085305D01*
X0197171Y0085294D01*
X0197000Y0085288D01*
X0196828Y0085286D01*
X0196656Y0085288D01*
X0196485Y0085294D01*
X0196313Y0085305D01*
X0196142Y0085320D01*
X0195971Y0085339D01*
X0195801Y0085362D01*
X0195631Y0085389D01*
X0195462Y0085421D01*
X0195294Y0085456D01*
X0195127Y0085496D01*
X0194961Y0085540D01*
X0194796Y0085587D01*
X0194632Y0085639D01*
X0194470Y0085695D01*
X0194309Y0085755D01*
X0194149Y0085819D01*
X0193991Y0085887D01*
X0193835Y0085958D01*
X0193681Y0086033D01*
X0193528Y0086113D01*
X0193378Y0086195D01*
X0193229Y0086282D01*
X0193083Y0086372D01*
X0192939Y0086466D01*
X0192797Y0086563D01*
X0192658Y0086664D01*
X0192521Y0086768D01*
X0192387Y0086875D01*
X0192256Y0086986D01*
X0192127Y0087099D01*
X0192001Y0087216D01*
X0191878Y0087336D01*
X0191758Y0087459D01*
X0191641Y0087585D01*
X0191528Y0087714D01*
X0191417Y0087845D01*
X0191310Y0087979D01*
X0191206Y0088116D01*
X0191105Y0088255D01*
X0191008Y0088397D01*
X0190914Y0088541D01*
X0190824Y0088687D01*
X0190737Y0088836D01*
X0190655Y0088986D01*
X0190575Y0089139D01*
X0190500Y0089293D01*
X0190429Y0089449D01*
X0190361Y0089607D01*
X0190297Y0089767D01*
X0190237Y0089928D01*
X0190181Y0090090D01*
X0190129Y0090254D01*
X0190082Y0090419D01*
X0190038Y0090585D01*
X0189998Y0090752D01*
X0189963Y0090920D01*
X0189931Y0091089D01*
X0189904Y0091259D01*
X0189881Y0091429D01*
X0189862Y0091600D01*
X0189847Y0091771D01*
X0189836Y0091943D01*
X0189830Y0092114D01*
X0189828Y0092286D01*
X0126828Y0044786D02*
X0121828Y0049786D01*
X0111828Y0049786D01*
X0106828Y0044786D01*
X0106828Y0014786D01*
X0126828Y0014786D01*
X0126828Y0044786D01*
X0081828Y0034786D02*
X0021828Y0034786D01*
X0021828Y0099786D01*
X0081828Y0099786D01*
X0081828Y0034786D01*
X0077328Y0141786D02*
X0071328Y0141786D01*
X0071328Y0142786D01*
X0070328Y0142786D01*
X0062328Y0146286D02*
X0062328Y0149786D01*
X0062328Y0159286D01*
X0062328Y0163286D01*
X0070328Y0166786D02*
X0071328Y0166786D01*
X0071328Y0167786D01*
X0077328Y0167786D01*
X0077328Y0166786D01*
X0078328Y0166786D01*
X0086328Y0163286D02*
X0086328Y0159786D01*
X0086328Y0149786D01*
X0086328Y0146286D01*
X0078328Y0142786D02*
X0077328Y0142786D01*
X0077328Y0141786D01*
X0073328Y0154786D02*
X0073330Y0154849D01*
X0073336Y0154911D01*
X0073346Y0154973D01*
X0073359Y0155035D01*
X0073377Y0155095D01*
X0073398Y0155154D01*
X0073423Y0155212D01*
X0073452Y0155268D01*
X0073484Y0155322D01*
X0073519Y0155374D01*
X0073557Y0155423D01*
X0073599Y0155471D01*
X0073643Y0155515D01*
X0073691Y0155557D01*
X0073740Y0155595D01*
X0073792Y0155630D01*
X0073846Y0155662D01*
X0073902Y0155691D01*
X0073960Y0155716D01*
X0074019Y0155737D01*
X0074079Y0155755D01*
X0074141Y0155768D01*
X0074203Y0155778D01*
X0074265Y0155784D01*
X0074328Y0155786D01*
X0074391Y0155784D01*
X0074453Y0155778D01*
X0074515Y0155768D01*
X0074577Y0155755D01*
X0074637Y0155737D01*
X0074696Y0155716D01*
X0074754Y0155691D01*
X0074810Y0155662D01*
X0074864Y0155630D01*
X0074916Y0155595D01*
X0074965Y0155557D01*
X0075013Y0155515D01*
X0075057Y0155471D01*
X0075099Y0155423D01*
X0075137Y0155374D01*
X0075172Y0155322D01*
X0075204Y0155268D01*
X0075233Y0155212D01*
X0075258Y0155154D01*
X0075279Y0155095D01*
X0075297Y0155035D01*
X0075310Y0154973D01*
X0075320Y0154911D01*
X0075326Y0154849D01*
X0075328Y0154786D01*
X0075326Y0154723D01*
X0075320Y0154661D01*
X0075310Y0154599D01*
X0075297Y0154537D01*
X0075279Y0154477D01*
X0075258Y0154418D01*
X0075233Y0154360D01*
X0075204Y0154304D01*
X0075172Y0154250D01*
X0075137Y0154198D01*
X0075099Y0154149D01*
X0075057Y0154101D01*
X0075013Y0154057D01*
X0074965Y0154015D01*
X0074916Y0153977D01*
X0074864Y0153942D01*
X0074810Y0153910D01*
X0074754Y0153881D01*
X0074696Y0153856D01*
X0074637Y0153835D01*
X0074577Y0153817D01*
X0074515Y0153804D01*
X0074453Y0153794D01*
X0074391Y0153788D01*
X0074328Y0153786D01*
X0074265Y0153788D01*
X0074203Y0153794D01*
X0074141Y0153804D01*
X0074079Y0153817D01*
X0074019Y0153835D01*
X0073960Y0153856D01*
X0073902Y0153881D01*
X0073846Y0153910D01*
X0073792Y0153942D01*
X0073740Y0153977D01*
X0073691Y0154015D01*
X0073643Y0154057D01*
X0073599Y0154101D01*
X0073557Y0154149D01*
X0073519Y0154198D01*
X0073484Y0154250D01*
X0073452Y0154304D01*
X0073423Y0154360D01*
X0073398Y0154418D01*
X0073377Y0154477D01*
X0073359Y0154537D01*
X0073346Y0154599D01*
X0073336Y0154661D01*
X0073330Y0154723D01*
X0073328Y0154786D01*
X0067328Y0154786D02*
X0067330Y0154958D01*
X0067336Y0155129D01*
X0067347Y0155301D01*
X0067362Y0155472D01*
X0067381Y0155643D01*
X0067404Y0155813D01*
X0067431Y0155983D01*
X0067463Y0156152D01*
X0067498Y0156320D01*
X0067538Y0156487D01*
X0067582Y0156653D01*
X0067629Y0156818D01*
X0067681Y0156982D01*
X0067737Y0157144D01*
X0067797Y0157305D01*
X0067861Y0157465D01*
X0067929Y0157623D01*
X0068000Y0157779D01*
X0068075Y0157933D01*
X0068155Y0158086D01*
X0068237Y0158236D01*
X0068324Y0158385D01*
X0068414Y0158531D01*
X0068508Y0158675D01*
X0068605Y0158817D01*
X0068706Y0158956D01*
X0068810Y0159093D01*
X0068917Y0159227D01*
X0069028Y0159358D01*
X0069141Y0159487D01*
X0069258Y0159613D01*
X0069378Y0159736D01*
X0069501Y0159856D01*
X0069627Y0159973D01*
X0069756Y0160086D01*
X0069887Y0160197D01*
X0070021Y0160304D01*
X0070158Y0160408D01*
X0070297Y0160509D01*
X0070439Y0160606D01*
X0070583Y0160700D01*
X0070729Y0160790D01*
X0070878Y0160877D01*
X0071028Y0160959D01*
X0071181Y0161039D01*
X0071335Y0161114D01*
X0071491Y0161185D01*
X0071649Y0161253D01*
X0071809Y0161317D01*
X0071970Y0161377D01*
X0072132Y0161433D01*
X0072296Y0161485D01*
X0072461Y0161532D01*
X0072627Y0161576D01*
X0072794Y0161616D01*
X0072962Y0161651D01*
X0073131Y0161683D01*
X0073301Y0161710D01*
X0073471Y0161733D01*
X0073642Y0161752D01*
X0073813Y0161767D01*
X0073985Y0161778D01*
X0074156Y0161784D01*
X0074328Y0161786D01*
X0074500Y0161784D01*
X0074671Y0161778D01*
X0074843Y0161767D01*
X0075014Y0161752D01*
X0075185Y0161733D01*
X0075355Y0161710D01*
X0075525Y0161683D01*
X0075694Y0161651D01*
X0075862Y0161616D01*
X0076029Y0161576D01*
X0076195Y0161532D01*
X0076360Y0161485D01*
X0076524Y0161433D01*
X0076686Y0161377D01*
X0076847Y0161317D01*
X0077007Y0161253D01*
X0077165Y0161185D01*
X0077321Y0161114D01*
X0077475Y0161039D01*
X0077628Y0160959D01*
X0077778Y0160877D01*
X0077927Y0160790D01*
X0078073Y0160700D01*
X0078217Y0160606D01*
X0078359Y0160509D01*
X0078498Y0160408D01*
X0078635Y0160304D01*
X0078769Y0160197D01*
X0078900Y0160086D01*
X0079029Y0159973D01*
X0079155Y0159856D01*
X0079278Y0159736D01*
X0079398Y0159613D01*
X0079515Y0159487D01*
X0079628Y0159358D01*
X0079739Y0159227D01*
X0079846Y0159093D01*
X0079950Y0158956D01*
X0080051Y0158817D01*
X0080148Y0158675D01*
X0080242Y0158531D01*
X0080332Y0158385D01*
X0080419Y0158236D01*
X0080501Y0158086D01*
X0080581Y0157933D01*
X0080656Y0157779D01*
X0080727Y0157623D01*
X0080795Y0157465D01*
X0080859Y0157305D01*
X0080919Y0157144D01*
X0080975Y0156982D01*
X0081027Y0156818D01*
X0081074Y0156653D01*
X0081118Y0156487D01*
X0081158Y0156320D01*
X0081193Y0156152D01*
X0081225Y0155983D01*
X0081252Y0155813D01*
X0081275Y0155643D01*
X0081294Y0155472D01*
X0081309Y0155301D01*
X0081320Y0155129D01*
X0081326Y0154958D01*
X0081328Y0154786D01*
X0081326Y0154614D01*
X0081320Y0154443D01*
X0081309Y0154271D01*
X0081294Y0154100D01*
X0081275Y0153929D01*
X0081252Y0153759D01*
X0081225Y0153589D01*
X0081193Y0153420D01*
X0081158Y0153252D01*
X0081118Y0153085D01*
X0081074Y0152919D01*
X0081027Y0152754D01*
X0080975Y0152590D01*
X0080919Y0152428D01*
X0080859Y0152267D01*
X0080795Y0152107D01*
X0080727Y0151949D01*
X0080656Y0151793D01*
X0080581Y0151639D01*
X0080501Y0151486D01*
X0080419Y0151336D01*
X0080332Y0151187D01*
X0080242Y0151041D01*
X0080148Y0150897D01*
X0080051Y0150755D01*
X0079950Y0150616D01*
X0079846Y0150479D01*
X0079739Y0150345D01*
X0079628Y0150214D01*
X0079515Y0150085D01*
X0079398Y0149959D01*
X0079278Y0149836D01*
X0079155Y0149716D01*
X0079029Y0149599D01*
X0078900Y0149486D01*
X0078769Y0149375D01*
X0078635Y0149268D01*
X0078498Y0149164D01*
X0078359Y0149063D01*
X0078217Y0148966D01*
X0078073Y0148872D01*
X0077927Y0148782D01*
X0077778Y0148695D01*
X0077628Y0148613D01*
X0077475Y0148533D01*
X0077321Y0148458D01*
X0077165Y0148387D01*
X0077007Y0148319D01*
X0076847Y0148255D01*
X0076686Y0148195D01*
X0076524Y0148139D01*
X0076360Y0148087D01*
X0076195Y0148040D01*
X0076029Y0147996D01*
X0075862Y0147956D01*
X0075694Y0147921D01*
X0075525Y0147889D01*
X0075355Y0147862D01*
X0075185Y0147839D01*
X0075014Y0147820D01*
X0074843Y0147805D01*
X0074671Y0147794D01*
X0074500Y0147788D01*
X0074328Y0147786D01*
X0074156Y0147788D01*
X0073985Y0147794D01*
X0073813Y0147805D01*
X0073642Y0147820D01*
X0073471Y0147839D01*
X0073301Y0147862D01*
X0073131Y0147889D01*
X0072962Y0147921D01*
X0072794Y0147956D01*
X0072627Y0147996D01*
X0072461Y0148040D01*
X0072296Y0148087D01*
X0072132Y0148139D01*
X0071970Y0148195D01*
X0071809Y0148255D01*
X0071649Y0148319D01*
X0071491Y0148387D01*
X0071335Y0148458D01*
X0071181Y0148533D01*
X0071028Y0148613D01*
X0070878Y0148695D01*
X0070729Y0148782D01*
X0070583Y0148872D01*
X0070439Y0148966D01*
X0070297Y0149063D01*
X0070158Y0149164D01*
X0070021Y0149268D01*
X0069887Y0149375D01*
X0069756Y0149486D01*
X0069627Y0149599D01*
X0069501Y0149716D01*
X0069378Y0149836D01*
X0069258Y0149959D01*
X0069141Y0150085D01*
X0069028Y0150214D01*
X0068917Y0150345D01*
X0068810Y0150479D01*
X0068706Y0150616D01*
X0068605Y0150755D01*
X0068508Y0150897D01*
X0068414Y0151041D01*
X0068324Y0151187D01*
X0068237Y0151336D01*
X0068155Y0151486D01*
X0068075Y0151639D01*
X0068000Y0151793D01*
X0067929Y0151949D01*
X0067861Y0152107D01*
X0067797Y0152267D01*
X0067737Y0152428D01*
X0067681Y0152590D01*
X0067629Y0152754D01*
X0067582Y0152919D01*
X0067538Y0153085D01*
X0067498Y0153252D01*
X0067463Y0153420D01*
X0067431Y0153589D01*
X0067404Y0153759D01*
X0067381Y0153929D01*
X0067362Y0154100D01*
X0067347Y0154271D01*
X0067336Y0154443D01*
X0067330Y0154614D01*
X0067328Y0154786D01*
X0088728Y0200786D02*
X0088728Y0203786D01*
X0100128Y0203786D01*
X0100128Y0200786D01*
X0088728Y0200786D01*
X0078328Y0205286D02*
X0077328Y0205286D01*
X0077328Y0204286D01*
X0071328Y0204286D01*
X0071328Y0205286D01*
X0070328Y0205286D01*
X0062328Y0208786D02*
X0062328Y0212286D01*
X0062328Y0221786D01*
X0062328Y0225786D01*
X0070328Y0229286D02*
X0071328Y0229286D01*
X0071328Y0230286D01*
X0077328Y0230286D01*
X0077328Y0229286D01*
X0078328Y0229286D01*
X0086328Y0225786D02*
X0086328Y0222286D01*
X0086328Y0212286D01*
X0086328Y0208786D01*
X0088728Y0215786D02*
X0088728Y0218786D01*
X0100128Y0218786D01*
X0100128Y0215786D01*
X0088728Y0215786D01*
X0073328Y0217286D02*
X0073330Y0217349D01*
X0073336Y0217411D01*
X0073346Y0217473D01*
X0073359Y0217535D01*
X0073377Y0217595D01*
X0073398Y0217654D01*
X0073423Y0217712D01*
X0073452Y0217768D01*
X0073484Y0217822D01*
X0073519Y0217874D01*
X0073557Y0217923D01*
X0073599Y0217971D01*
X0073643Y0218015D01*
X0073691Y0218057D01*
X0073740Y0218095D01*
X0073792Y0218130D01*
X0073846Y0218162D01*
X0073902Y0218191D01*
X0073960Y0218216D01*
X0074019Y0218237D01*
X0074079Y0218255D01*
X0074141Y0218268D01*
X0074203Y0218278D01*
X0074265Y0218284D01*
X0074328Y0218286D01*
X0074391Y0218284D01*
X0074453Y0218278D01*
X0074515Y0218268D01*
X0074577Y0218255D01*
X0074637Y0218237D01*
X0074696Y0218216D01*
X0074754Y0218191D01*
X0074810Y0218162D01*
X0074864Y0218130D01*
X0074916Y0218095D01*
X0074965Y0218057D01*
X0075013Y0218015D01*
X0075057Y0217971D01*
X0075099Y0217923D01*
X0075137Y0217874D01*
X0075172Y0217822D01*
X0075204Y0217768D01*
X0075233Y0217712D01*
X0075258Y0217654D01*
X0075279Y0217595D01*
X0075297Y0217535D01*
X0075310Y0217473D01*
X0075320Y0217411D01*
X0075326Y0217349D01*
X0075328Y0217286D01*
X0075326Y0217223D01*
X0075320Y0217161D01*
X0075310Y0217099D01*
X0075297Y0217037D01*
X0075279Y0216977D01*
X0075258Y0216918D01*
X0075233Y0216860D01*
X0075204Y0216804D01*
X0075172Y0216750D01*
X0075137Y0216698D01*
X0075099Y0216649D01*
X0075057Y0216601D01*
X0075013Y0216557D01*
X0074965Y0216515D01*
X0074916Y0216477D01*
X0074864Y0216442D01*
X0074810Y0216410D01*
X0074754Y0216381D01*
X0074696Y0216356D01*
X0074637Y0216335D01*
X0074577Y0216317D01*
X0074515Y0216304D01*
X0074453Y0216294D01*
X0074391Y0216288D01*
X0074328Y0216286D01*
X0074265Y0216288D01*
X0074203Y0216294D01*
X0074141Y0216304D01*
X0074079Y0216317D01*
X0074019Y0216335D01*
X0073960Y0216356D01*
X0073902Y0216381D01*
X0073846Y0216410D01*
X0073792Y0216442D01*
X0073740Y0216477D01*
X0073691Y0216515D01*
X0073643Y0216557D01*
X0073599Y0216601D01*
X0073557Y0216649D01*
X0073519Y0216698D01*
X0073484Y0216750D01*
X0073452Y0216804D01*
X0073423Y0216860D01*
X0073398Y0216918D01*
X0073377Y0216977D01*
X0073359Y0217037D01*
X0073346Y0217099D01*
X0073336Y0217161D01*
X0073330Y0217223D01*
X0073328Y0217286D01*
X0067328Y0217286D02*
X0067330Y0217458D01*
X0067336Y0217629D01*
X0067347Y0217801D01*
X0067362Y0217972D01*
X0067381Y0218143D01*
X0067404Y0218313D01*
X0067431Y0218483D01*
X0067463Y0218652D01*
X0067498Y0218820D01*
X0067538Y0218987D01*
X0067582Y0219153D01*
X0067629Y0219318D01*
X0067681Y0219482D01*
X0067737Y0219644D01*
X0067797Y0219805D01*
X0067861Y0219965D01*
X0067929Y0220123D01*
X0068000Y0220279D01*
X0068075Y0220433D01*
X0068155Y0220586D01*
X0068237Y0220736D01*
X0068324Y0220885D01*
X0068414Y0221031D01*
X0068508Y0221175D01*
X0068605Y0221317D01*
X0068706Y0221456D01*
X0068810Y0221593D01*
X0068917Y0221727D01*
X0069028Y0221858D01*
X0069141Y0221987D01*
X0069258Y0222113D01*
X0069378Y0222236D01*
X0069501Y0222356D01*
X0069627Y0222473D01*
X0069756Y0222586D01*
X0069887Y0222697D01*
X0070021Y0222804D01*
X0070158Y0222908D01*
X0070297Y0223009D01*
X0070439Y0223106D01*
X0070583Y0223200D01*
X0070729Y0223290D01*
X0070878Y0223377D01*
X0071028Y0223459D01*
X0071181Y0223539D01*
X0071335Y0223614D01*
X0071491Y0223685D01*
X0071649Y0223753D01*
X0071809Y0223817D01*
X0071970Y0223877D01*
X0072132Y0223933D01*
X0072296Y0223985D01*
X0072461Y0224032D01*
X0072627Y0224076D01*
X0072794Y0224116D01*
X0072962Y0224151D01*
X0073131Y0224183D01*
X0073301Y0224210D01*
X0073471Y0224233D01*
X0073642Y0224252D01*
X0073813Y0224267D01*
X0073985Y0224278D01*
X0074156Y0224284D01*
X0074328Y0224286D01*
X0074500Y0224284D01*
X0074671Y0224278D01*
X0074843Y0224267D01*
X0075014Y0224252D01*
X0075185Y0224233D01*
X0075355Y0224210D01*
X0075525Y0224183D01*
X0075694Y0224151D01*
X0075862Y0224116D01*
X0076029Y0224076D01*
X0076195Y0224032D01*
X0076360Y0223985D01*
X0076524Y0223933D01*
X0076686Y0223877D01*
X0076847Y0223817D01*
X0077007Y0223753D01*
X0077165Y0223685D01*
X0077321Y0223614D01*
X0077475Y0223539D01*
X0077628Y0223459D01*
X0077778Y0223377D01*
X0077927Y0223290D01*
X0078073Y0223200D01*
X0078217Y0223106D01*
X0078359Y0223009D01*
X0078498Y0222908D01*
X0078635Y0222804D01*
X0078769Y0222697D01*
X0078900Y0222586D01*
X0079029Y0222473D01*
X0079155Y0222356D01*
X0079278Y0222236D01*
X0079398Y0222113D01*
X0079515Y0221987D01*
X0079628Y0221858D01*
X0079739Y0221727D01*
X0079846Y0221593D01*
X0079950Y0221456D01*
X0080051Y0221317D01*
X0080148Y0221175D01*
X0080242Y0221031D01*
X0080332Y0220885D01*
X0080419Y0220736D01*
X0080501Y0220586D01*
X0080581Y0220433D01*
X0080656Y0220279D01*
X0080727Y0220123D01*
X0080795Y0219965D01*
X0080859Y0219805D01*
X0080919Y0219644D01*
X0080975Y0219482D01*
X0081027Y0219318D01*
X0081074Y0219153D01*
X0081118Y0218987D01*
X0081158Y0218820D01*
X0081193Y0218652D01*
X0081225Y0218483D01*
X0081252Y0218313D01*
X0081275Y0218143D01*
X0081294Y0217972D01*
X0081309Y0217801D01*
X0081320Y0217629D01*
X0081326Y0217458D01*
X0081328Y0217286D01*
X0081326Y0217114D01*
X0081320Y0216943D01*
X0081309Y0216771D01*
X0081294Y0216600D01*
X0081275Y0216429D01*
X0081252Y0216259D01*
X0081225Y0216089D01*
X0081193Y0215920D01*
X0081158Y0215752D01*
X0081118Y0215585D01*
X0081074Y0215419D01*
X0081027Y0215254D01*
X0080975Y0215090D01*
X0080919Y0214928D01*
X0080859Y0214767D01*
X0080795Y0214607D01*
X0080727Y0214449D01*
X0080656Y0214293D01*
X0080581Y0214139D01*
X0080501Y0213986D01*
X0080419Y0213836D01*
X0080332Y0213687D01*
X0080242Y0213541D01*
X0080148Y0213397D01*
X0080051Y0213255D01*
X0079950Y0213116D01*
X0079846Y0212979D01*
X0079739Y0212845D01*
X0079628Y0212714D01*
X0079515Y0212585D01*
X0079398Y0212459D01*
X0079278Y0212336D01*
X0079155Y0212216D01*
X0079029Y0212099D01*
X0078900Y0211986D01*
X0078769Y0211875D01*
X0078635Y0211768D01*
X0078498Y0211664D01*
X0078359Y0211563D01*
X0078217Y0211466D01*
X0078073Y0211372D01*
X0077927Y0211282D01*
X0077778Y0211195D01*
X0077628Y0211113D01*
X0077475Y0211033D01*
X0077321Y0210958D01*
X0077165Y0210887D01*
X0077007Y0210819D01*
X0076847Y0210755D01*
X0076686Y0210695D01*
X0076524Y0210639D01*
X0076360Y0210587D01*
X0076195Y0210540D01*
X0076029Y0210496D01*
X0075862Y0210456D01*
X0075694Y0210421D01*
X0075525Y0210389D01*
X0075355Y0210362D01*
X0075185Y0210339D01*
X0075014Y0210320D01*
X0074843Y0210305D01*
X0074671Y0210294D01*
X0074500Y0210288D01*
X0074328Y0210286D01*
X0074156Y0210288D01*
X0073985Y0210294D01*
X0073813Y0210305D01*
X0073642Y0210320D01*
X0073471Y0210339D01*
X0073301Y0210362D01*
X0073131Y0210389D01*
X0072962Y0210421D01*
X0072794Y0210456D01*
X0072627Y0210496D01*
X0072461Y0210540D01*
X0072296Y0210587D01*
X0072132Y0210639D01*
X0071970Y0210695D01*
X0071809Y0210755D01*
X0071649Y0210819D01*
X0071491Y0210887D01*
X0071335Y0210958D01*
X0071181Y0211033D01*
X0071028Y0211113D01*
X0070878Y0211195D01*
X0070729Y0211282D01*
X0070583Y0211372D01*
X0070439Y0211466D01*
X0070297Y0211563D01*
X0070158Y0211664D01*
X0070021Y0211768D01*
X0069887Y0211875D01*
X0069756Y0211986D01*
X0069627Y0212099D01*
X0069501Y0212216D01*
X0069378Y0212336D01*
X0069258Y0212459D01*
X0069141Y0212585D01*
X0069028Y0212714D01*
X0068917Y0212845D01*
X0068810Y0212979D01*
X0068706Y0213116D01*
X0068605Y0213255D01*
X0068508Y0213397D01*
X0068414Y0213541D01*
X0068324Y0213687D01*
X0068237Y0213836D01*
X0068155Y0213986D01*
X0068075Y0214139D01*
X0068000Y0214293D01*
X0067929Y0214449D01*
X0067861Y0214607D01*
X0067797Y0214767D01*
X0067737Y0214928D01*
X0067681Y0215090D01*
X0067629Y0215254D01*
X0067582Y0215419D01*
X0067538Y0215585D01*
X0067498Y0215752D01*
X0067463Y0215920D01*
X0067431Y0216089D01*
X0067404Y0216259D01*
X0067381Y0216429D01*
X0067362Y0216600D01*
X0067347Y0216771D01*
X0067336Y0216943D01*
X0067330Y0217114D01*
X0067328Y0217286D01*
D12*
X0101379Y0224986D02*
X0100101Y0229586D01*
X0102657Y0229586D01*
X0102657Y0229075D01*
X0105623Y0229586D02*
X0107157Y0229586D01*
X0105623Y0229586D02*
X0105560Y0229584D01*
X0105497Y0229578D01*
X0105435Y0229569D01*
X0105374Y0229555D01*
X0105313Y0229538D01*
X0105254Y0229517D01*
X0105196Y0229492D01*
X0105139Y0229464D01*
X0105085Y0229433D01*
X0105033Y0229398D01*
X0104982Y0229360D01*
X0104934Y0229319D01*
X0104889Y0229275D01*
X0104847Y0229229D01*
X0104807Y0229180D01*
X0104771Y0229129D01*
X0104738Y0229075D01*
X0104708Y0229020D01*
X0104682Y0228962D01*
X0104659Y0228904D01*
X0104640Y0228844D01*
X0104625Y0228783D01*
X0104613Y0228721D01*
X0104605Y0228658D01*
X0104601Y0228595D01*
X0104601Y0228533D01*
X0104605Y0228470D01*
X0104613Y0228407D01*
X0104625Y0228345D01*
X0104640Y0228284D01*
X0104659Y0228224D01*
X0104682Y0228166D01*
X0104708Y0228108D01*
X0104738Y0228053D01*
X0104771Y0227999D01*
X0104807Y0227948D01*
X0104847Y0227899D01*
X0104889Y0227853D01*
X0104934Y0227809D01*
X0104982Y0227768D01*
X0105033Y0227730D01*
X0105085Y0227695D01*
X0105139Y0227664D01*
X0105196Y0227636D01*
X0105254Y0227611D01*
X0105313Y0227590D01*
X0105374Y0227573D01*
X0105435Y0227559D01*
X0105497Y0227550D01*
X0105560Y0227544D01*
X0105623Y0227542D01*
X0105623Y0227541D02*
X0106646Y0227541D01*
X0105879Y0227542D02*
X0105809Y0227540D01*
X0105738Y0227534D01*
X0105669Y0227525D01*
X0105600Y0227511D01*
X0105531Y0227494D01*
X0105464Y0227473D01*
X0105398Y0227448D01*
X0105334Y0227420D01*
X0105271Y0227388D01*
X0105210Y0227353D01*
X0105151Y0227314D01*
X0105094Y0227273D01*
X0105040Y0227228D01*
X0104988Y0227180D01*
X0104939Y0227130D01*
X0104892Y0227076D01*
X0104849Y0227021D01*
X0104809Y0226963D01*
X0104772Y0226903D01*
X0104739Y0226841D01*
X0104709Y0226777D01*
X0104682Y0226712D01*
X0104659Y0226646D01*
X0104640Y0226578D01*
X0104625Y0226509D01*
X0104613Y0226440D01*
X0104605Y0226370D01*
X0104601Y0226299D01*
X0104601Y0226229D01*
X0104605Y0226158D01*
X0104613Y0226088D01*
X0104625Y0226019D01*
X0104640Y0225950D01*
X0104659Y0225882D01*
X0104682Y0225816D01*
X0104709Y0225751D01*
X0104739Y0225687D01*
X0104772Y0225625D01*
X0104809Y0225565D01*
X0104849Y0225507D01*
X0104892Y0225452D01*
X0104939Y0225398D01*
X0104988Y0225348D01*
X0105040Y0225300D01*
X0105094Y0225255D01*
X0105151Y0225214D01*
X0105210Y0225175D01*
X0105271Y0225140D01*
X0105334Y0225108D01*
X0105398Y0225080D01*
X0105464Y0225055D01*
X0105531Y0225034D01*
X0105600Y0225017D01*
X0105669Y0225003D01*
X0105738Y0224994D01*
X0105809Y0224988D01*
X0105879Y0224986D01*
X0107157Y0224986D01*
X0109072Y0224986D02*
X0110094Y0227030D01*
X0110350Y0227030D02*
X0111628Y0227030D01*
X0110350Y0227030D02*
X0110280Y0227032D01*
X0110209Y0227038D01*
X0110140Y0227047D01*
X0110071Y0227061D01*
X0110002Y0227078D01*
X0109935Y0227099D01*
X0109869Y0227124D01*
X0109805Y0227152D01*
X0109742Y0227184D01*
X0109681Y0227219D01*
X0109622Y0227258D01*
X0109565Y0227299D01*
X0109511Y0227344D01*
X0109459Y0227392D01*
X0109410Y0227442D01*
X0109363Y0227496D01*
X0109320Y0227551D01*
X0109280Y0227609D01*
X0109243Y0227669D01*
X0109210Y0227731D01*
X0109180Y0227795D01*
X0109153Y0227860D01*
X0109130Y0227926D01*
X0109111Y0227994D01*
X0109096Y0228063D01*
X0109084Y0228132D01*
X0109076Y0228202D01*
X0109072Y0228273D01*
X0109072Y0228343D01*
X0109076Y0228414D01*
X0109084Y0228484D01*
X0109096Y0228553D01*
X0109111Y0228622D01*
X0109130Y0228690D01*
X0109153Y0228756D01*
X0109180Y0228821D01*
X0109210Y0228885D01*
X0109243Y0228947D01*
X0109280Y0229007D01*
X0109320Y0229065D01*
X0109363Y0229120D01*
X0109410Y0229174D01*
X0109459Y0229224D01*
X0109511Y0229272D01*
X0109565Y0229317D01*
X0109622Y0229358D01*
X0109681Y0229397D01*
X0109742Y0229432D01*
X0109805Y0229464D01*
X0109869Y0229492D01*
X0109935Y0229517D01*
X0110002Y0229538D01*
X0110071Y0229555D01*
X0110140Y0229569D01*
X0110209Y0229578D01*
X0110280Y0229584D01*
X0110350Y0229586D01*
X0111628Y0229586D01*
X0111628Y0224986D01*
X0061128Y0240986D02*
X0061128Y0245586D01*
X0059850Y0245586D01*
X0059780Y0245584D01*
X0059709Y0245578D01*
X0059640Y0245569D01*
X0059571Y0245555D01*
X0059502Y0245538D01*
X0059435Y0245517D01*
X0059369Y0245492D01*
X0059305Y0245464D01*
X0059242Y0245432D01*
X0059181Y0245397D01*
X0059122Y0245358D01*
X0059065Y0245317D01*
X0059011Y0245272D01*
X0058959Y0245224D01*
X0058910Y0245174D01*
X0058863Y0245120D01*
X0058820Y0245065D01*
X0058780Y0245007D01*
X0058743Y0244947D01*
X0058710Y0244885D01*
X0058680Y0244821D01*
X0058653Y0244756D01*
X0058630Y0244690D01*
X0058611Y0244622D01*
X0058596Y0244553D01*
X0058584Y0244484D01*
X0058576Y0244414D01*
X0058572Y0244343D01*
X0058572Y0244273D01*
X0058576Y0244202D01*
X0058584Y0244132D01*
X0058596Y0244063D01*
X0058611Y0243994D01*
X0058630Y0243926D01*
X0058653Y0243860D01*
X0058680Y0243795D01*
X0058710Y0243731D01*
X0058743Y0243669D01*
X0058780Y0243609D01*
X0058820Y0243551D01*
X0058863Y0243496D01*
X0058910Y0243442D01*
X0058959Y0243392D01*
X0059011Y0243344D01*
X0059065Y0243299D01*
X0059122Y0243258D01*
X0059181Y0243219D01*
X0059242Y0243184D01*
X0059305Y0243152D01*
X0059369Y0243124D01*
X0059435Y0243099D01*
X0059502Y0243078D01*
X0059571Y0243061D01*
X0059640Y0243047D01*
X0059709Y0243038D01*
X0059780Y0243032D01*
X0059850Y0243030D01*
X0061128Y0243030D01*
X0059594Y0243030D02*
X0058572Y0240986D01*
X0056657Y0240986D02*
X0054101Y0240986D01*
X0055379Y0240986D02*
X0055379Y0245586D01*
X0056657Y0244564D01*
X0057157Y0247486D02*
X0055623Y0247486D01*
X0055561Y0247488D01*
X0055500Y0247493D01*
X0055439Y0247503D01*
X0055378Y0247516D01*
X0055319Y0247532D01*
X0055261Y0247552D01*
X0055204Y0247576D01*
X0055148Y0247603D01*
X0055094Y0247633D01*
X0055042Y0247667D01*
X0054993Y0247703D01*
X0054945Y0247743D01*
X0054900Y0247785D01*
X0054858Y0247830D01*
X0054818Y0247878D01*
X0054782Y0247927D01*
X0054748Y0247979D01*
X0054718Y0248033D01*
X0054691Y0248089D01*
X0054667Y0248146D01*
X0054647Y0248204D01*
X0054631Y0248263D01*
X0054618Y0248324D01*
X0054608Y0248385D01*
X0054603Y0248446D01*
X0054601Y0248508D01*
X0054601Y0249019D01*
X0054603Y0249081D01*
X0054608Y0249142D01*
X0054618Y0249203D01*
X0054631Y0249264D01*
X0054647Y0249323D01*
X0054667Y0249381D01*
X0054691Y0249438D01*
X0054718Y0249494D01*
X0054748Y0249548D01*
X0054782Y0249600D01*
X0054818Y0249649D01*
X0054858Y0249697D01*
X0054900Y0249742D01*
X0054945Y0249784D01*
X0054993Y0249824D01*
X0055042Y0249860D01*
X0055094Y0249894D01*
X0055148Y0249924D01*
X0055204Y0249951D01*
X0055261Y0249975D01*
X0055319Y0249995D01*
X0055378Y0250011D01*
X0055439Y0250024D01*
X0055500Y0250034D01*
X0055561Y0250039D01*
X0055623Y0250041D01*
X0057157Y0250041D01*
X0057157Y0252086D01*
X0054601Y0252086D01*
X0050101Y0249786D02*
X0050103Y0249671D01*
X0050108Y0249557D01*
X0050117Y0249443D01*
X0050129Y0249329D01*
X0050144Y0249215D01*
X0050163Y0249102D01*
X0050186Y0248990D01*
X0050211Y0248878D01*
X0050241Y0248767D01*
X0050273Y0248657D01*
X0050309Y0248548D01*
X0050348Y0248440D01*
X0050390Y0248334D01*
X0050436Y0248229D01*
X0050484Y0248125D01*
X0051379Y0247485D02*
X0051438Y0247487D01*
X0051496Y0247492D01*
X0051554Y0247501D01*
X0051611Y0247514D01*
X0051668Y0247530D01*
X0051723Y0247550D01*
X0051777Y0247573D01*
X0051829Y0247599D01*
X0051880Y0247629D01*
X0051929Y0247661D01*
X0051976Y0247697D01*
X0052020Y0247735D01*
X0052062Y0247776D01*
X0052101Y0247820D01*
X0052138Y0247866D01*
X0052171Y0247914D01*
X0052202Y0247964D01*
X0052229Y0248016D01*
X0052253Y0248069D01*
X0052274Y0248124D01*
X0052401Y0248508D02*
X0050357Y0251064D01*
X0050484Y0251447D02*
X0050505Y0251502D01*
X0050529Y0251555D01*
X0050556Y0251607D01*
X0050587Y0251657D01*
X0050620Y0251705D01*
X0050657Y0251751D01*
X0050696Y0251795D01*
X0050738Y0251836D01*
X0050782Y0251874D01*
X0050829Y0251910D01*
X0050878Y0251942D01*
X0050929Y0251972D01*
X0050981Y0251998D01*
X0051035Y0252021D01*
X0051090Y0252041D01*
X0051147Y0252057D01*
X0051204Y0252070D01*
X0051262Y0252079D01*
X0051320Y0252084D01*
X0051379Y0252086D01*
X0051438Y0252084D01*
X0051496Y0252079D01*
X0051554Y0252070D01*
X0051611Y0252057D01*
X0051668Y0252041D01*
X0051723Y0252021D01*
X0051777Y0251998D01*
X0051829Y0251972D01*
X0051880Y0251942D01*
X0051929Y0251910D01*
X0051976Y0251874D01*
X0052020Y0251836D01*
X0052062Y0251795D01*
X0052101Y0251751D01*
X0052138Y0251705D01*
X0052171Y0251657D01*
X0052202Y0251607D01*
X0052229Y0251555D01*
X0052253Y0251502D01*
X0052274Y0251447D01*
X0050484Y0251447D02*
X0050436Y0251343D01*
X0050390Y0251238D01*
X0050348Y0251132D01*
X0050309Y0251024D01*
X0050273Y0250915D01*
X0050241Y0250805D01*
X0050211Y0250694D01*
X0050186Y0250582D01*
X0050163Y0250470D01*
X0050144Y0250357D01*
X0050129Y0250243D01*
X0050117Y0250129D01*
X0050108Y0250015D01*
X0050103Y0249901D01*
X0050101Y0249786D01*
X0052657Y0249786D02*
X0052655Y0249901D01*
X0052650Y0250015D01*
X0052641Y0250129D01*
X0052629Y0250243D01*
X0052614Y0250357D01*
X0052595Y0250470D01*
X0052572Y0250582D01*
X0052547Y0250694D01*
X0052517Y0250805D01*
X0052485Y0250915D01*
X0052449Y0251024D01*
X0052410Y0251132D01*
X0052368Y0251238D01*
X0052322Y0251343D01*
X0052274Y0251447D01*
X0050484Y0248124D02*
X0050505Y0248069D01*
X0050529Y0248016D01*
X0050556Y0247964D01*
X0050587Y0247914D01*
X0050620Y0247866D01*
X0050657Y0247820D01*
X0050696Y0247776D01*
X0050738Y0247735D01*
X0050783Y0247697D01*
X0050829Y0247661D01*
X0050878Y0247629D01*
X0050929Y0247599D01*
X0050981Y0247573D01*
X0051035Y0247550D01*
X0051090Y0247530D01*
X0051147Y0247514D01*
X0051204Y0247501D01*
X0051262Y0247492D01*
X0051320Y0247487D01*
X0051379Y0247485D01*
X0051901Y0244564D02*
X0051899Y0244501D01*
X0051893Y0244438D01*
X0051884Y0244376D01*
X0051870Y0244315D01*
X0051853Y0244254D01*
X0051832Y0244195D01*
X0051807Y0244137D01*
X0051779Y0244080D01*
X0051748Y0244026D01*
X0051713Y0243974D01*
X0051675Y0243923D01*
X0051634Y0243875D01*
X0051590Y0243830D01*
X0051544Y0243788D01*
X0051495Y0243748D01*
X0051444Y0243712D01*
X0051390Y0243679D01*
X0051335Y0243649D01*
X0051277Y0243623D01*
X0051219Y0243600D01*
X0051159Y0243581D01*
X0051098Y0243566D01*
X0051036Y0243554D01*
X0050973Y0243546D01*
X0050910Y0243542D01*
X0050848Y0243542D01*
X0050785Y0243546D01*
X0050722Y0243554D01*
X0050660Y0243566D01*
X0050599Y0243581D01*
X0050539Y0243600D01*
X0050481Y0243623D01*
X0050423Y0243649D01*
X0050368Y0243679D01*
X0050314Y0243712D01*
X0050263Y0243748D01*
X0050214Y0243788D01*
X0050168Y0243830D01*
X0050124Y0243875D01*
X0050083Y0243923D01*
X0050045Y0243974D01*
X0050010Y0244026D01*
X0049979Y0244080D01*
X0049951Y0244137D01*
X0049926Y0244195D01*
X0049905Y0244254D01*
X0049888Y0244315D01*
X0049874Y0244376D01*
X0049865Y0244438D01*
X0049859Y0244501D01*
X0049857Y0244564D01*
X0049859Y0244627D01*
X0049865Y0244690D01*
X0049874Y0244752D01*
X0049888Y0244813D01*
X0049905Y0244874D01*
X0049926Y0244933D01*
X0049951Y0244991D01*
X0049979Y0245048D01*
X0050010Y0245102D01*
X0050045Y0245154D01*
X0050083Y0245205D01*
X0050124Y0245253D01*
X0050168Y0245298D01*
X0050214Y0245340D01*
X0050263Y0245380D01*
X0050314Y0245416D01*
X0050368Y0245449D01*
X0050423Y0245479D01*
X0050481Y0245505D01*
X0050539Y0245528D01*
X0050599Y0245547D01*
X0050660Y0245562D01*
X0050722Y0245574D01*
X0050785Y0245582D01*
X0050848Y0245586D01*
X0050910Y0245586D01*
X0050973Y0245582D01*
X0051036Y0245574D01*
X0051098Y0245562D01*
X0051159Y0245547D01*
X0051219Y0245528D01*
X0051277Y0245505D01*
X0051335Y0245479D01*
X0051390Y0245449D01*
X0051444Y0245416D01*
X0051495Y0245380D01*
X0051544Y0245340D01*
X0051590Y0245298D01*
X0051634Y0245253D01*
X0051675Y0245205D01*
X0051713Y0245154D01*
X0051748Y0245102D01*
X0051779Y0245048D01*
X0051807Y0244991D01*
X0051832Y0244933D01*
X0051853Y0244874D01*
X0051870Y0244813D01*
X0051884Y0244752D01*
X0051893Y0244690D01*
X0051899Y0244627D01*
X0051901Y0244564D01*
X0052157Y0242264D02*
X0052155Y0242194D01*
X0052149Y0242123D01*
X0052140Y0242054D01*
X0052126Y0241985D01*
X0052109Y0241916D01*
X0052088Y0241849D01*
X0052063Y0241783D01*
X0052035Y0241719D01*
X0052003Y0241656D01*
X0051968Y0241595D01*
X0051929Y0241536D01*
X0051888Y0241479D01*
X0051843Y0241425D01*
X0051795Y0241373D01*
X0051745Y0241324D01*
X0051691Y0241277D01*
X0051636Y0241234D01*
X0051578Y0241194D01*
X0051518Y0241157D01*
X0051456Y0241124D01*
X0051392Y0241094D01*
X0051327Y0241067D01*
X0051261Y0241044D01*
X0051193Y0241025D01*
X0051124Y0241010D01*
X0051055Y0240998D01*
X0050985Y0240990D01*
X0050914Y0240986D01*
X0050844Y0240986D01*
X0050773Y0240990D01*
X0050703Y0240998D01*
X0050634Y0241010D01*
X0050565Y0241025D01*
X0050497Y0241044D01*
X0050431Y0241067D01*
X0050366Y0241094D01*
X0050302Y0241124D01*
X0050240Y0241157D01*
X0050180Y0241194D01*
X0050122Y0241234D01*
X0050067Y0241277D01*
X0050013Y0241324D01*
X0049963Y0241373D01*
X0049915Y0241425D01*
X0049870Y0241479D01*
X0049829Y0241536D01*
X0049790Y0241595D01*
X0049755Y0241656D01*
X0049723Y0241719D01*
X0049695Y0241783D01*
X0049670Y0241849D01*
X0049649Y0241916D01*
X0049632Y0241985D01*
X0049618Y0242054D01*
X0049609Y0242123D01*
X0049603Y0242194D01*
X0049601Y0242264D01*
X0049603Y0242334D01*
X0049609Y0242405D01*
X0049618Y0242474D01*
X0049632Y0242543D01*
X0049649Y0242612D01*
X0049670Y0242679D01*
X0049695Y0242745D01*
X0049723Y0242809D01*
X0049755Y0242872D01*
X0049790Y0242933D01*
X0049829Y0242992D01*
X0049870Y0243049D01*
X0049915Y0243103D01*
X0049963Y0243155D01*
X0050013Y0243204D01*
X0050067Y0243251D01*
X0050122Y0243294D01*
X0050180Y0243334D01*
X0050240Y0243371D01*
X0050302Y0243404D01*
X0050366Y0243434D01*
X0050431Y0243461D01*
X0050497Y0243484D01*
X0050565Y0243503D01*
X0050634Y0243518D01*
X0050703Y0243530D01*
X0050773Y0243538D01*
X0050844Y0243542D01*
X0050914Y0243542D01*
X0050985Y0243538D01*
X0051055Y0243530D01*
X0051124Y0243518D01*
X0051193Y0243503D01*
X0051261Y0243484D01*
X0051327Y0243461D01*
X0051392Y0243434D01*
X0051456Y0243404D01*
X0051518Y0243371D01*
X0051578Y0243334D01*
X0051636Y0243294D01*
X0051691Y0243251D01*
X0051745Y0243204D01*
X0051795Y0243155D01*
X0051843Y0243103D01*
X0051888Y0243049D01*
X0051929Y0242992D01*
X0051968Y0242933D01*
X0052003Y0242872D01*
X0052035Y0242809D01*
X0052063Y0242745D01*
X0052088Y0242679D01*
X0052109Y0242612D01*
X0052126Y0242543D01*
X0052140Y0242474D01*
X0052149Y0242405D01*
X0052155Y0242334D01*
X0052157Y0242264D01*
X0059072Y0247486D02*
X0060094Y0249530D01*
X0060350Y0249530D02*
X0061628Y0249530D01*
X0060350Y0249530D02*
X0060280Y0249532D01*
X0060209Y0249538D01*
X0060140Y0249547D01*
X0060071Y0249561D01*
X0060002Y0249578D01*
X0059935Y0249599D01*
X0059869Y0249624D01*
X0059805Y0249652D01*
X0059742Y0249684D01*
X0059681Y0249719D01*
X0059622Y0249758D01*
X0059565Y0249799D01*
X0059511Y0249844D01*
X0059459Y0249892D01*
X0059410Y0249942D01*
X0059363Y0249996D01*
X0059320Y0250051D01*
X0059280Y0250109D01*
X0059243Y0250169D01*
X0059210Y0250231D01*
X0059180Y0250295D01*
X0059153Y0250360D01*
X0059130Y0250426D01*
X0059111Y0250494D01*
X0059096Y0250563D01*
X0059084Y0250632D01*
X0059076Y0250702D01*
X0059072Y0250773D01*
X0059072Y0250843D01*
X0059076Y0250914D01*
X0059084Y0250984D01*
X0059096Y0251053D01*
X0059111Y0251122D01*
X0059130Y0251190D01*
X0059153Y0251256D01*
X0059180Y0251321D01*
X0059210Y0251385D01*
X0059243Y0251447D01*
X0059280Y0251507D01*
X0059320Y0251565D01*
X0059363Y0251620D01*
X0059410Y0251674D01*
X0059459Y0251724D01*
X0059511Y0251772D01*
X0059565Y0251817D01*
X0059622Y0251858D01*
X0059681Y0251897D01*
X0059742Y0251932D01*
X0059805Y0251964D01*
X0059869Y0251992D01*
X0059935Y0252017D01*
X0060002Y0252038D01*
X0060071Y0252055D01*
X0060140Y0252069D01*
X0060209Y0252078D01*
X0060280Y0252084D01*
X0060350Y0252086D01*
X0061628Y0252086D01*
X0061628Y0247486D01*
X0061628Y0254986D02*
X0061628Y0259586D01*
X0060350Y0259586D01*
X0060280Y0259584D01*
X0060209Y0259578D01*
X0060140Y0259569D01*
X0060071Y0259555D01*
X0060002Y0259538D01*
X0059935Y0259517D01*
X0059869Y0259492D01*
X0059805Y0259464D01*
X0059742Y0259432D01*
X0059681Y0259397D01*
X0059622Y0259358D01*
X0059565Y0259317D01*
X0059511Y0259272D01*
X0059459Y0259224D01*
X0059410Y0259174D01*
X0059363Y0259120D01*
X0059320Y0259065D01*
X0059280Y0259007D01*
X0059243Y0258947D01*
X0059210Y0258885D01*
X0059180Y0258821D01*
X0059153Y0258756D01*
X0059130Y0258690D01*
X0059111Y0258622D01*
X0059096Y0258553D01*
X0059084Y0258484D01*
X0059076Y0258414D01*
X0059072Y0258343D01*
X0059072Y0258273D01*
X0059076Y0258202D01*
X0059084Y0258132D01*
X0059096Y0258063D01*
X0059111Y0257994D01*
X0059130Y0257926D01*
X0059153Y0257860D01*
X0059180Y0257795D01*
X0059210Y0257731D01*
X0059243Y0257669D01*
X0059280Y0257609D01*
X0059320Y0257551D01*
X0059363Y0257496D01*
X0059410Y0257442D01*
X0059459Y0257392D01*
X0059511Y0257344D01*
X0059565Y0257299D01*
X0059622Y0257258D01*
X0059681Y0257219D01*
X0059742Y0257184D01*
X0059805Y0257152D01*
X0059869Y0257124D01*
X0059935Y0257099D01*
X0060002Y0257078D01*
X0060071Y0257061D01*
X0060140Y0257047D01*
X0060209Y0257038D01*
X0060280Y0257032D01*
X0060350Y0257030D01*
X0061628Y0257030D01*
X0060094Y0257030D02*
X0059072Y0254986D01*
X0057157Y0256008D02*
X0054601Y0256008D01*
X0055368Y0257030D02*
X0055368Y0254986D01*
X0057157Y0256008D02*
X0056135Y0259586D01*
X0055368Y0262486D02*
X0055368Y0264530D01*
X0054601Y0263508D02*
X0057157Y0263508D01*
X0056135Y0267086D01*
X0055368Y0269986D02*
X0055368Y0272030D01*
X0054601Y0271008D02*
X0057157Y0271008D01*
X0056135Y0274586D01*
X0052657Y0274586D02*
X0050101Y0274586D01*
X0051379Y0269986D01*
X0050357Y0266064D02*
X0050359Y0266001D01*
X0050365Y0265938D01*
X0050374Y0265876D01*
X0050388Y0265815D01*
X0050405Y0265754D01*
X0050426Y0265695D01*
X0050451Y0265637D01*
X0050479Y0265580D01*
X0050510Y0265526D01*
X0050545Y0265474D01*
X0050583Y0265423D01*
X0050624Y0265375D01*
X0050668Y0265330D01*
X0050714Y0265288D01*
X0050763Y0265248D01*
X0050814Y0265212D01*
X0050868Y0265179D01*
X0050923Y0265149D01*
X0050981Y0265123D01*
X0051039Y0265100D01*
X0051099Y0265081D01*
X0051160Y0265066D01*
X0051222Y0265054D01*
X0051285Y0265046D01*
X0051348Y0265042D01*
X0051410Y0265042D01*
X0051473Y0265046D01*
X0051536Y0265054D01*
X0051598Y0265066D01*
X0051659Y0265081D01*
X0051719Y0265100D01*
X0051777Y0265123D01*
X0051835Y0265149D01*
X0051890Y0265179D01*
X0051944Y0265212D01*
X0051995Y0265248D01*
X0052044Y0265288D01*
X0052090Y0265330D01*
X0052134Y0265375D01*
X0052175Y0265423D01*
X0052213Y0265474D01*
X0052248Y0265526D01*
X0052279Y0265580D01*
X0052307Y0265637D01*
X0052332Y0265695D01*
X0052353Y0265754D01*
X0052370Y0265815D01*
X0052384Y0265876D01*
X0052393Y0265938D01*
X0052399Y0266001D01*
X0052401Y0266064D01*
X0052399Y0266127D01*
X0052393Y0266190D01*
X0052384Y0266252D01*
X0052370Y0266313D01*
X0052353Y0266374D01*
X0052332Y0266433D01*
X0052307Y0266491D01*
X0052279Y0266548D01*
X0052248Y0266602D01*
X0052213Y0266654D01*
X0052175Y0266705D01*
X0052134Y0266753D01*
X0052090Y0266798D01*
X0052044Y0266840D01*
X0051995Y0266880D01*
X0051944Y0266916D01*
X0051890Y0266949D01*
X0051835Y0266979D01*
X0051777Y0267005D01*
X0051719Y0267028D01*
X0051659Y0267047D01*
X0051598Y0267062D01*
X0051536Y0267074D01*
X0051473Y0267082D01*
X0051410Y0267086D01*
X0051348Y0267086D01*
X0051285Y0267082D01*
X0051222Y0267074D01*
X0051160Y0267062D01*
X0051099Y0267047D01*
X0051039Y0267028D01*
X0050981Y0267005D01*
X0050923Y0266979D01*
X0050868Y0266949D01*
X0050814Y0266916D01*
X0050763Y0266880D01*
X0050714Y0266840D01*
X0050668Y0266798D01*
X0050624Y0266753D01*
X0050583Y0266705D01*
X0050545Y0266654D01*
X0050510Y0266602D01*
X0050479Y0266548D01*
X0050451Y0266491D01*
X0050426Y0266433D01*
X0050405Y0266374D01*
X0050388Y0266313D01*
X0050374Y0266252D01*
X0050365Y0266190D01*
X0050359Y0266127D01*
X0050357Y0266064D01*
X0050101Y0263764D02*
X0050103Y0263694D01*
X0050109Y0263623D01*
X0050118Y0263554D01*
X0050132Y0263485D01*
X0050149Y0263416D01*
X0050170Y0263349D01*
X0050195Y0263283D01*
X0050223Y0263219D01*
X0050255Y0263156D01*
X0050290Y0263095D01*
X0050329Y0263036D01*
X0050370Y0262979D01*
X0050415Y0262925D01*
X0050463Y0262873D01*
X0050513Y0262824D01*
X0050567Y0262777D01*
X0050622Y0262734D01*
X0050680Y0262694D01*
X0050740Y0262657D01*
X0050802Y0262624D01*
X0050866Y0262594D01*
X0050931Y0262567D01*
X0050997Y0262544D01*
X0051065Y0262525D01*
X0051134Y0262510D01*
X0051203Y0262498D01*
X0051273Y0262490D01*
X0051344Y0262486D01*
X0051414Y0262486D01*
X0051485Y0262490D01*
X0051555Y0262498D01*
X0051624Y0262510D01*
X0051693Y0262525D01*
X0051761Y0262544D01*
X0051827Y0262567D01*
X0051892Y0262594D01*
X0051956Y0262624D01*
X0052018Y0262657D01*
X0052078Y0262694D01*
X0052136Y0262734D01*
X0052191Y0262777D01*
X0052245Y0262824D01*
X0052295Y0262873D01*
X0052343Y0262925D01*
X0052388Y0262979D01*
X0052429Y0263036D01*
X0052468Y0263095D01*
X0052503Y0263156D01*
X0052535Y0263219D01*
X0052563Y0263283D01*
X0052588Y0263349D01*
X0052609Y0263416D01*
X0052626Y0263485D01*
X0052640Y0263554D01*
X0052649Y0263623D01*
X0052655Y0263694D01*
X0052657Y0263764D01*
X0052655Y0263834D01*
X0052649Y0263905D01*
X0052640Y0263974D01*
X0052626Y0264043D01*
X0052609Y0264112D01*
X0052588Y0264179D01*
X0052563Y0264245D01*
X0052535Y0264309D01*
X0052503Y0264372D01*
X0052468Y0264433D01*
X0052429Y0264492D01*
X0052388Y0264549D01*
X0052343Y0264603D01*
X0052295Y0264655D01*
X0052245Y0264704D01*
X0052191Y0264751D01*
X0052136Y0264794D01*
X0052078Y0264834D01*
X0052018Y0264871D01*
X0051956Y0264904D01*
X0051892Y0264934D01*
X0051827Y0264961D01*
X0051761Y0264984D01*
X0051693Y0265003D01*
X0051624Y0265018D01*
X0051555Y0265030D01*
X0051485Y0265038D01*
X0051414Y0265042D01*
X0051344Y0265042D01*
X0051273Y0265038D01*
X0051203Y0265030D01*
X0051134Y0265018D01*
X0051065Y0265003D01*
X0050997Y0264984D01*
X0050931Y0264961D01*
X0050866Y0264934D01*
X0050802Y0264904D01*
X0050740Y0264871D01*
X0050680Y0264834D01*
X0050622Y0264794D01*
X0050567Y0264751D01*
X0050513Y0264704D01*
X0050463Y0264655D01*
X0050415Y0264603D01*
X0050370Y0264549D01*
X0050329Y0264492D01*
X0050290Y0264433D01*
X0050255Y0264372D01*
X0050223Y0264309D01*
X0050195Y0264245D01*
X0050170Y0264179D01*
X0050149Y0264112D01*
X0050132Y0264043D01*
X0050118Y0263974D01*
X0050109Y0263905D01*
X0050103Y0263834D01*
X0050101Y0263764D01*
X0050101Y0258308D02*
X0050101Y0257030D01*
X0051635Y0257030D01*
X0050102Y0257030D02*
X0050104Y0256941D01*
X0050110Y0256852D01*
X0050119Y0256763D01*
X0050133Y0256675D01*
X0050150Y0256588D01*
X0050172Y0256501D01*
X0050197Y0256415D01*
X0050225Y0256331D01*
X0050258Y0256248D01*
X0050294Y0256166D01*
X0050333Y0256086D01*
X0050376Y0256008D01*
X0050422Y0255932D01*
X0050472Y0255858D01*
X0050524Y0255786D01*
X0050580Y0255716D01*
X0050639Y0255649D01*
X0050701Y0255585D01*
X0050765Y0255523D01*
X0050832Y0255464D01*
X0050902Y0255408D01*
X0050974Y0255356D01*
X0051048Y0255306D01*
X0051124Y0255260D01*
X0051202Y0255217D01*
X0051282Y0255178D01*
X0051364Y0255142D01*
X0051447Y0255109D01*
X0051531Y0255081D01*
X0051617Y0255056D01*
X0051704Y0255034D01*
X0051791Y0255017D01*
X0051879Y0255003D01*
X0051968Y0254994D01*
X0052057Y0254988D01*
X0052146Y0254986D01*
X0052657Y0258052D02*
X0052657Y0258308D01*
X0052657Y0258052D02*
X0052655Y0257990D01*
X0052650Y0257929D01*
X0052640Y0257868D01*
X0052627Y0257807D01*
X0052611Y0257748D01*
X0052591Y0257690D01*
X0052567Y0257633D01*
X0052540Y0257577D01*
X0052510Y0257523D01*
X0052476Y0257471D01*
X0052440Y0257422D01*
X0052400Y0257374D01*
X0052358Y0257329D01*
X0052313Y0257287D01*
X0052265Y0257247D01*
X0052216Y0257211D01*
X0052164Y0257177D01*
X0052110Y0257147D01*
X0052054Y0257120D01*
X0051997Y0257096D01*
X0051939Y0257076D01*
X0051880Y0257060D01*
X0051819Y0257047D01*
X0051758Y0257037D01*
X0051697Y0257032D01*
X0051635Y0257030D01*
X0052657Y0258308D02*
X0052655Y0258378D01*
X0052649Y0258449D01*
X0052640Y0258518D01*
X0052626Y0258587D01*
X0052609Y0258656D01*
X0052588Y0258723D01*
X0052563Y0258789D01*
X0052535Y0258853D01*
X0052503Y0258916D01*
X0052468Y0258977D01*
X0052429Y0259036D01*
X0052388Y0259093D01*
X0052343Y0259147D01*
X0052295Y0259199D01*
X0052245Y0259248D01*
X0052191Y0259295D01*
X0052136Y0259338D01*
X0052078Y0259378D01*
X0052018Y0259415D01*
X0051956Y0259448D01*
X0051892Y0259478D01*
X0051827Y0259505D01*
X0051761Y0259528D01*
X0051693Y0259547D01*
X0051624Y0259562D01*
X0051555Y0259574D01*
X0051485Y0259582D01*
X0051414Y0259586D01*
X0051344Y0259586D01*
X0051273Y0259582D01*
X0051203Y0259574D01*
X0051134Y0259562D01*
X0051065Y0259547D01*
X0050997Y0259528D01*
X0050931Y0259505D01*
X0050866Y0259478D01*
X0050802Y0259448D01*
X0050740Y0259415D01*
X0050680Y0259378D01*
X0050622Y0259338D01*
X0050567Y0259295D01*
X0050513Y0259248D01*
X0050463Y0259199D01*
X0050415Y0259147D01*
X0050370Y0259093D01*
X0050329Y0259036D01*
X0050290Y0258977D01*
X0050255Y0258916D01*
X0050223Y0258853D01*
X0050195Y0258789D01*
X0050170Y0258723D01*
X0050149Y0258656D01*
X0050132Y0258587D01*
X0050118Y0258518D01*
X0050109Y0258449D01*
X0050103Y0258378D01*
X0050101Y0258308D01*
X0059072Y0262486D02*
X0060094Y0264530D01*
X0060350Y0264530D02*
X0061628Y0264530D01*
X0060350Y0264530D02*
X0060280Y0264532D01*
X0060209Y0264538D01*
X0060140Y0264547D01*
X0060071Y0264561D01*
X0060002Y0264578D01*
X0059935Y0264599D01*
X0059869Y0264624D01*
X0059805Y0264652D01*
X0059742Y0264684D01*
X0059681Y0264719D01*
X0059622Y0264758D01*
X0059565Y0264799D01*
X0059511Y0264844D01*
X0059459Y0264892D01*
X0059410Y0264942D01*
X0059363Y0264996D01*
X0059320Y0265051D01*
X0059280Y0265109D01*
X0059243Y0265169D01*
X0059210Y0265231D01*
X0059180Y0265295D01*
X0059153Y0265360D01*
X0059130Y0265426D01*
X0059111Y0265494D01*
X0059096Y0265563D01*
X0059084Y0265632D01*
X0059076Y0265702D01*
X0059072Y0265773D01*
X0059072Y0265843D01*
X0059076Y0265914D01*
X0059084Y0265984D01*
X0059096Y0266053D01*
X0059111Y0266122D01*
X0059130Y0266190D01*
X0059153Y0266256D01*
X0059180Y0266321D01*
X0059210Y0266385D01*
X0059243Y0266447D01*
X0059280Y0266507D01*
X0059320Y0266565D01*
X0059363Y0266620D01*
X0059410Y0266674D01*
X0059459Y0266724D01*
X0059511Y0266772D01*
X0059565Y0266817D01*
X0059622Y0266858D01*
X0059681Y0266897D01*
X0059742Y0266932D01*
X0059805Y0266964D01*
X0059869Y0266992D01*
X0059935Y0267017D01*
X0060002Y0267038D01*
X0060071Y0267055D01*
X0060140Y0267069D01*
X0060209Y0267078D01*
X0060280Y0267084D01*
X0060350Y0267086D01*
X0061628Y0267086D01*
X0061628Y0262486D01*
X0061628Y0269986D02*
X0061628Y0274586D01*
X0060350Y0274586D01*
X0060280Y0274584D01*
X0060209Y0274578D01*
X0060140Y0274569D01*
X0060071Y0274555D01*
X0060002Y0274538D01*
X0059935Y0274517D01*
X0059869Y0274492D01*
X0059805Y0274464D01*
X0059742Y0274432D01*
X0059681Y0274397D01*
X0059622Y0274358D01*
X0059565Y0274317D01*
X0059511Y0274272D01*
X0059459Y0274224D01*
X0059410Y0274174D01*
X0059363Y0274120D01*
X0059320Y0274065D01*
X0059280Y0274007D01*
X0059243Y0273947D01*
X0059210Y0273885D01*
X0059180Y0273821D01*
X0059153Y0273756D01*
X0059130Y0273690D01*
X0059111Y0273622D01*
X0059096Y0273553D01*
X0059084Y0273484D01*
X0059076Y0273414D01*
X0059072Y0273343D01*
X0059072Y0273273D01*
X0059076Y0273202D01*
X0059084Y0273132D01*
X0059096Y0273063D01*
X0059111Y0272994D01*
X0059130Y0272926D01*
X0059153Y0272860D01*
X0059180Y0272795D01*
X0059210Y0272731D01*
X0059243Y0272669D01*
X0059280Y0272609D01*
X0059320Y0272551D01*
X0059363Y0272496D01*
X0059410Y0272442D01*
X0059459Y0272392D01*
X0059511Y0272344D01*
X0059565Y0272299D01*
X0059622Y0272258D01*
X0059681Y0272219D01*
X0059742Y0272184D01*
X0059805Y0272152D01*
X0059869Y0272124D01*
X0059935Y0272099D01*
X0060002Y0272078D01*
X0060071Y0272061D01*
X0060140Y0272047D01*
X0060209Y0272038D01*
X0060280Y0272032D01*
X0060350Y0272030D01*
X0061628Y0272030D01*
X0060094Y0272030D02*
X0059072Y0269986D01*
X0052657Y0274075D02*
X0052657Y0274586D01*
X0052657Y0249786D02*
X0052655Y0249671D01*
X0052650Y0249557D01*
X0052641Y0249443D01*
X0052629Y0249329D01*
X0052614Y0249215D01*
X0052595Y0249102D01*
X0052572Y0248990D01*
X0052547Y0248878D01*
X0052517Y0248767D01*
X0052485Y0248657D01*
X0052449Y0248548D01*
X0052410Y0248440D01*
X0052368Y0248334D01*
X0052322Y0248229D01*
X0052274Y0248125D01*
X0104163Y0266364D02*
X0106719Y0266364D01*
X0105441Y0266364D02*
X0105441Y0270964D01*
X0106719Y0269942D01*
X0108408Y0270964D02*
X0111474Y0266364D01*
X0108408Y0266364D02*
X0111474Y0270964D01*
X0111554Y0193086D02*
X0110277Y0193086D01*
X0111554Y0193086D02*
X0111554Y0188486D01*
X0111554Y0190530D02*
X0110277Y0190530D01*
X0110021Y0190530D02*
X0108999Y0188486D01*
X0107083Y0188486D02*
X0105805Y0188486D01*
X0105735Y0188488D01*
X0105664Y0188494D01*
X0105595Y0188503D01*
X0105526Y0188517D01*
X0105457Y0188534D01*
X0105390Y0188555D01*
X0105324Y0188580D01*
X0105260Y0188608D01*
X0105197Y0188640D01*
X0105136Y0188675D01*
X0105077Y0188714D01*
X0105020Y0188755D01*
X0104966Y0188800D01*
X0104914Y0188848D01*
X0104865Y0188898D01*
X0104818Y0188952D01*
X0104775Y0189007D01*
X0104735Y0189065D01*
X0104698Y0189125D01*
X0104665Y0189187D01*
X0104635Y0189251D01*
X0104608Y0189316D01*
X0104585Y0189382D01*
X0104566Y0189450D01*
X0104551Y0189519D01*
X0104539Y0189588D01*
X0104531Y0189658D01*
X0104527Y0189729D01*
X0104527Y0189799D01*
X0104531Y0189870D01*
X0104539Y0189940D01*
X0104551Y0190009D01*
X0104566Y0190078D01*
X0104585Y0190146D01*
X0104608Y0190212D01*
X0104635Y0190277D01*
X0104665Y0190341D01*
X0104698Y0190403D01*
X0104735Y0190463D01*
X0104775Y0190521D01*
X0104818Y0190576D01*
X0104865Y0190630D01*
X0104914Y0190680D01*
X0104966Y0190728D01*
X0105020Y0190773D01*
X0105077Y0190814D01*
X0105136Y0190853D01*
X0105197Y0190888D01*
X0105260Y0190920D01*
X0105324Y0190948D01*
X0105390Y0190973D01*
X0105457Y0190994D01*
X0105526Y0191011D01*
X0105595Y0191025D01*
X0105664Y0191034D01*
X0105735Y0191040D01*
X0105805Y0191042D01*
X0105550Y0191041D02*
X0106572Y0191041D01*
X0105550Y0191042D02*
X0105487Y0191044D01*
X0105424Y0191050D01*
X0105362Y0191059D01*
X0105301Y0191073D01*
X0105240Y0191090D01*
X0105181Y0191111D01*
X0105123Y0191136D01*
X0105066Y0191164D01*
X0105012Y0191195D01*
X0104960Y0191230D01*
X0104909Y0191268D01*
X0104861Y0191309D01*
X0104816Y0191353D01*
X0104774Y0191399D01*
X0104734Y0191448D01*
X0104698Y0191499D01*
X0104665Y0191553D01*
X0104635Y0191608D01*
X0104609Y0191666D01*
X0104586Y0191724D01*
X0104567Y0191784D01*
X0104552Y0191845D01*
X0104540Y0191907D01*
X0104532Y0191970D01*
X0104528Y0192033D01*
X0104528Y0192095D01*
X0104532Y0192158D01*
X0104540Y0192221D01*
X0104552Y0192283D01*
X0104567Y0192344D01*
X0104586Y0192404D01*
X0104609Y0192462D01*
X0104635Y0192520D01*
X0104665Y0192575D01*
X0104698Y0192629D01*
X0104734Y0192680D01*
X0104774Y0192729D01*
X0104816Y0192775D01*
X0104861Y0192819D01*
X0104909Y0192860D01*
X0104960Y0192898D01*
X0105012Y0192933D01*
X0105066Y0192964D01*
X0105123Y0192992D01*
X0105181Y0193017D01*
X0105240Y0193038D01*
X0105301Y0193055D01*
X0105362Y0193069D01*
X0105424Y0193078D01*
X0105487Y0193084D01*
X0105550Y0193086D01*
X0107083Y0193086D01*
X0110277Y0193086D02*
X0110207Y0193084D01*
X0110136Y0193078D01*
X0110067Y0193069D01*
X0109998Y0193055D01*
X0109929Y0193038D01*
X0109862Y0193017D01*
X0109796Y0192992D01*
X0109732Y0192964D01*
X0109669Y0192932D01*
X0109608Y0192897D01*
X0109549Y0192858D01*
X0109492Y0192817D01*
X0109438Y0192772D01*
X0109386Y0192724D01*
X0109337Y0192674D01*
X0109290Y0192620D01*
X0109247Y0192565D01*
X0109207Y0192507D01*
X0109170Y0192447D01*
X0109137Y0192385D01*
X0109107Y0192321D01*
X0109080Y0192256D01*
X0109057Y0192190D01*
X0109038Y0192122D01*
X0109023Y0192053D01*
X0109011Y0191984D01*
X0109003Y0191914D01*
X0108999Y0191843D01*
X0108999Y0191773D01*
X0109003Y0191702D01*
X0109011Y0191632D01*
X0109023Y0191563D01*
X0109038Y0191494D01*
X0109057Y0191426D01*
X0109080Y0191360D01*
X0109107Y0191295D01*
X0109137Y0191231D01*
X0109170Y0191169D01*
X0109207Y0191109D01*
X0109247Y0191051D01*
X0109290Y0190996D01*
X0109337Y0190942D01*
X0109386Y0190892D01*
X0109438Y0190844D01*
X0109492Y0190799D01*
X0109549Y0190758D01*
X0109608Y0190719D01*
X0109669Y0190684D01*
X0109732Y0190652D01*
X0109796Y0190624D01*
X0109862Y0190599D01*
X0109929Y0190578D01*
X0109998Y0190561D01*
X0110067Y0190547D01*
X0110136Y0190538D01*
X0110207Y0190532D01*
X0110277Y0190530D01*
X0102583Y0191552D02*
X0102583Y0191808D01*
X0102583Y0191552D02*
X0102581Y0191490D01*
X0102576Y0191429D01*
X0102566Y0191368D01*
X0102553Y0191307D01*
X0102537Y0191248D01*
X0102517Y0191190D01*
X0102493Y0191133D01*
X0102466Y0191077D01*
X0102436Y0191023D01*
X0102402Y0190971D01*
X0102366Y0190922D01*
X0102326Y0190874D01*
X0102284Y0190829D01*
X0102239Y0190787D01*
X0102191Y0190747D01*
X0102142Y0190711D01*
X0102090Y0190677D01*
X0102036Y0190647D01*
X0101980Y0190620D01*
X0101923Y0190596D01*
X0101865Y0190576D01*
X0101806Y0190560D01*
X0101745Y0190547D01*
X0101684Y0190537D01*
X0101623Y0190532D01*
X0101561Y0190530D01*
X0100028Y0190530D01*
X0100028Y0191808D01*
X0100027Y0191808D02*
X0100029Y0191878D01*
X0100035Y0191949D01*
X0100044Y0192018D01*
X0100058Y0192087D01*
X0100075Y0192156D01*
X0100096Y0192223D01*
X0100121Y0192289D01*
X0100149Y0192353D01*
X0100181Y0192416D01*
X0100216Y0192477D01*
X0100255Y0192536D01*
X0100296Y0192593D01*
X0100341Y0192647D01*
X0100389Y0192699D01*
X0100439Y0192748D01*
X0100493Y0192795D01*
X0100548Y0192838D01*
X0100606Y0192878D01*
X0100666Y0192915D01*
X0100728Y0192948D01*
X0100792Y0192978D01*
X0100857Y0193005D01*
X0100923Y0193028D01*
X0100991Y0193047D01*
X0101060Y0193062D01*
X0101129Y0193074D01*
X0101199Y0193082D01*
X0101270Y0193086D01*
X0101340Y0193086D01*
X0101411Y0193082D01*
X0101481Y0193074D01*
X0101550Y0193062D01*
X0101619Y0193047D01*
X0101687Y0193028D01*
X0101753Y0193005D01*
X0101818Y0192978D01*
X0101882Y0192948D01*
X0101944Y0192915D01*
X0102004Y0192878D01*
X0102062Y0192838D01*
X0102117Y0192795D01*
X0102171Y0192748D01*
X0102221Y0192699D01*
X0102269Y0192647D01*
X0102314Y0192593D01*
X0102355Y0192536D01*
X0102394Y0192477D01*
X0102429Y0192416D01*
X0102461Y0192353D01*
X0102489Y0192289D01*
X0102514Y0192223D01*
X0102535Y0192156D01*
X0102552Y0192087D01*
X0102566Y0192018D01*
X0102575Y0191949D01*
X0102581Y0191878D01*
X0102583Y0191808D01*
X0100028Y0190530D02*
X0100030Y0190441D01*
X0100036Y0190352D01*
X0100045Y0190263D01*
X0100059Y0190175D01*
X0100076Y0190088D01*
X0100098Y0190001D01*
X0100123Y0189915D01*
X0100151Y0189831D01*
X0100184Y0189748D01*
X0100220Y0189666D01*
X0100259Y0189586D01*
X0100302Y0189508D01*
X0100348Y0189432D01*
X0100398Y0189358D01*
X0100450Y0189286D01*
X0100506Y0189216D01*
X0100565Y0189149D01*
X0100627Y0189085D01*
X0100691Y0189023D01*
X0100758Y0188964D01*
X0100828Y0188908D01*
X0100900Y0188856D01*
X0100974Y0188806D01*
X0101050Y0188760D01*
X0101128Y0188717D01*
X0101208Y0188678D01*
X0101290Y0188642D01*
X0101373Y0188609D01*
X0101457Y0188581D01*
X0101543Y0188556D01*
X0101630Y0188534D01*
X0101717Y0188517D01*
X0101805Y0188503D01*
X0101894Y0188494D01*
X0101983Y0188488D01*
X0102072Y0188486D01*
X0101306Y0183086D02*
X0101365Y0183084D01*
X0101423Y0183079D01*
X0101481Y0183070D01*
X0101538Y0183057D01*
X0101595Y0183041D01*
X0101650Y0183021D01*
X0101704Y0182998D01*
X0101756Y0182972D01*
X0101807Y0182942D01*
X0101856Y0182910D01*
X0101903Y0182874D01*
X0101947Y0182836D01*
X0101989Y0182795D01*
X0102028Y0182751D01*
X0102065Y0182705D01*
X0102098Y0182657D01*
X0102129Y0182607D01*
X0102156Y0182555D01*
X0102180Y0182502D01*
X0102201Y0182447D01*
X0101306Y0183086D02*
X0101247Y0183084D01*
X0101189Y0183079D01*
X0101131Y0183070D01*
X0101074Y0183057D01*
X0101017Y0183041D01*
X0100962Y0183021D01*
X0100908Y0182998D01*
X0100856Y0182972D01*
X0100805Y0182942D01*
X0100756Y0182910D01*
X0100709Y0182874D01*
X0100665Y0182836D01*
X0100623Y0182795D01*
X0100584Y0182751D01*
X0100547Y0182705D01*
X0100514Y0182657D01*
X0100483Y0182607D01*
X0100456Y0182555D01*
X0100432Y0182502D01*
X0100411Y0182447D01*
X0100283Y0182064D02*
X0102328Y0179508D01*
X0101306Y0178485D02*
X0101247Y0178487D01*
X0101189Y0178492D01*
X0101131Y0178501D01*
X0101074Y0178514D01*
X0101017Y0178530D01*
X0100962Y0178550D01*
X0100908Y0178573D01*
X0100856Y0178599D01*
X0100805Y0178629D01*
X0100756Y0178661D01*
X0100710Y0178697D01*
X0100665Y0178735D01*
X0100623Y0178776D01*
X0100584Y0178820D01*
X0100547Y0178866D01*
X0100514Y0178914D01*
X0100483Y0178964D01*
X0100456Y0179016D01*
X0100432Y0179069D01*
X0100411Y0179124D01*
X0101306Y0178485D02*
X0101365Y0178487D01*
X0101423Y0178492D01*
X0101481Y0178501D01*
X0101538Y0178514D01*
X0101595Y0178530D01*
X0101650Y0178550D01*
X0101704Y0178573D01*
X0101756Y0178599D01*
X0101807Y0178629D01*
X0101856Y0178661D01*
X0101903Y0178697D01*
X0101947Y0178735D01*
X0101989Y0178776D01*
X0102028Y0178820D01*
X0102065Y0178866D01*
X0102098Y0178914D01*
X0102129Y0178964D01*
X0102156Y0179016D01*
X0102180Y0179069D01*
X0102201Y0179124D01*
X0100027Y0180786D02*
X0100029Y0180901D01*
X0100034Y0181015D01*
X0100043Y0181129D01*
X0100055Y0181243D01*
X0100070Y0181357D01*
X0100089Y0181470D01*
X0100112Y0181582D01*
X0100137Y0181694D01*
X0100167Y0181805D01*
X0100199Y0181915D01*
X0100235Y0182024D01*
X0100274Y0182132D01*
X0100316Y0182238D01*
X0100362Y0182343D01*
X0100410Y0182447D01*
X0102201Y0182447D02*
X0102249Y0182343D01*
X0102295Y0182238D01*
X0102337Y0182132D01*
X0102376Y0182024D01*
X0102412Y0181915D01*
X0102444Y0181805D01*
X0102474Y0181694D01*
X0102499Y0181582D01*
X0102522Y0181470D01*
X0102541Y0181357D01*
X0102556Y0181243D01*
X0102568Y0181129D01*
X0102577Y0181015D01*
X0102582Y0180901D01*
X0102584Y0180786D01*
X0100028Y0180786D02*
X0100030Y0180671D01*
X0100035Y0180557D01*
X0100044Y0180443D01*
X0100056Y0180329D01*
X0100071Y0180215D01*
X0100090Y0180102D01*
X0100113Y0179990D01*
X0100138Y0179878D01*
X0100168Y0179767D01*
X0100200Y0179657D01*
X0100236Y0179548D01*
X0100275Y0179440D01*
X0100317Y0179334D01*
X0100363Y0179229D01*
X0100411Y0179125D01*
X0102200Y0179125D02*
X0102248Y0179229D01*
X0102294Y0179334D01*
X0102336Y0179440D01*
X0102375Y0179548D01*
X0102411Y0179657D01*
X0102443Y0179767D01*
X0102473Y0179878D01*
X0102498Y0179990D01*
X0102521Y0180102D01*
X0102540Y0180215D01*
X0102555Y0180329D01*
X0102567Y0180443D01*
X0102576Y0180557D01*
X0102581Y0180671D01*
X0102583Y0180786D01*
X0104528Y0179508D02*
X0107083Y0179508D01*
X0106061Y0183086D01*
X0105294Y0180530D02*
X0105294Y0178486D01*
X0108999Y0178486D02*
X0110021Y0180530D01*
X0110277Y0180530D02*
X0111554Y0180530D01*
X0110277Y0180530D02*
X0110207Y0180532D01*
X0110136Y0180538D01*
X0110067Y0180547D01*
X0109998Y0180561D01*
X0109929Y0180578D01*
X0109862Y0180599D01*
X0109796Y0180624D01*
X0109732Y0180652D01*
X0109669Y0180684D01*
X0109608Y0180719D01*
X0109549Y0180758D01*
X0109492Y0180799D01*
X0109438Y0180844D01*
X0109386Y0180892D01*
X0109337Y0180942D01*
X0109290Y0180996D01*
X0109247Y0181051D01*
X0109207Y0181109D01*
X0109170Y0181169D01*
X0109137Y0181231D01*
X0109107Y0181295D01*
X0109080Y0181360D01*
X0109057Y0181426D01*
X0109038Y0181494D01*
X0109023Y0181563D01*
X0109011Y0181632D01*
X0109003Y0181702D01*
X0108999Y0181773D01*
X0108999Y0181843D01*
X0109003Y0181914D01*
X0109011Y0181984D01*
X0109023Y0182053D01*
X0109038Y0182122D01*
X0109057Y0182190D01*
X0109080Y0182256D01*
X0109107Y0182321D01*
X0109137Y0182385D01*
X0109170Y0182447D01*
X0109207Y0182507D01*
X0109247Y0182565D01*
X0109290Y0182620D01*
X0109337Y0182674D01*
X0109386Y0182724D01*
X0109438Y0182772D01*
X0109492Y0182817D01*
X0109549Y0182858D01*
X0109608Y0182897D01*
X0109669Y0182932D01*
X0109732Y0182964D01*
X0109796Y0182992D01*
X0109862Y0183017D01*
X0109929Y0183038D01*
X0109998Y0183055D01*
X0110067Y0183069D01*
X0110136Y0183078D01*
X0110207Y0183084D01*
X0110277Y0183086D01*
X0111554Y0183086D01*
X0111554Y0178486D01*
D13*
X0086328Y0159786D02*
X0085328Y0159786D01*
X0085328Y0149786D01*
X0086328Y0149786D01*
X0063328Y0149786D02*
X0062328Y0149786D01*
X0063328Y0149786D02*
X0063328Y0159286D01*
X0062328Y0159286D01*
X0062328Y0212286D02*
X0063328Y0212286D01*
X0063328Y0221786D01*
X0062328Y0221786D01*
X0085328Y0222286D02*
X0085328Y0212286D01*
X0086328Y0212286D01*
X0086328Y0222286D02*
X0085328Y0222286D01*
X0184828Y0096786D02*
X0185828Y0096786D01*
X0185828Y0087286D01*
X0184828Y0087286D01*
X0207828Y0087286D02*
X0207828Y0097286D01*
X0208828Y0097286D01*
X0208828Y0087286D02*
X0207828Y0087286D01*
X0262328Y0087286D02*
X0263328Y0087286D01*
X0263328Y0096786D01*
X0262328Y0096786D01*
X0285328Y0097286D02*
X0285328Y0087286D01*
X0286328Y0087286D01*
X0286328Y0097286D02*
X0285328Y0097286D01*
X0309828Y0096786D02*
X0310828Y0096786D01*
X0310828Y0087286D01*
X0309828Y0087286D01*
X0332828Y0087286D02*
X0332828Y0097286D01*
X0333828Y0097286D01*
X0333828Y0087286D02*
X0332828Y0087286D01*
X0414828Y0147286D02*
X0415828Y0147286D01*
X0415828Y0156786D01*
X0414828Y0156786D01*
X0437828Y0157286D02*
X0437828Y0147286D01*
X0438828Y0147286D01*
X0438828Y0157286D02*
X0437828Y0157286D01*
X0437828Y0212286D02*
X0437828Y0222286D01*
X0438828Y0222286D01*
X0438828Y0212286D02*
X0437828Y0212286D01*
X0415828Y0212286D02*
X0414828Y0212286D01*
X0415828Y0212286D02*
X0415828Y0221786D01*
X0414828Y0221786D01*
D14*
X0442728Y0219036D02*
X0444228Y0219036D01*
X0442728Y0219036D02*
X0442666Y0219034D01*
X0442605Y0219028D01*
X0442544Y0219019D01*
X0442484Y0219006D01*
X0442425Y0218989D01*
X0442367Y0218968D01*
X0442310Y0218944D01*
X0442255Y0218917D01*
X0442202Y0218886D01*
X0442150Y0218852D01*
X0442101Y0218815D01*
X0442054Y0218775D01*
X0442010Y0218732D01*
X0441969Y0218687D01*
X0441930Y0218639D01*
X0441894Y0218588D01*
X0441862Y0218536D01*
X0441833Y0218482D01*
X0441807Y0218426D01*
X0441785Y0218368D01*
X0441766Y0218310D01*
X0441751Y0218250D01*
X0441740Y0218189D01*
X0441732Y0218128D01*
X0441728Y0218067D01*
X0441728Y0218005D01*
X0441732Y0217944D01*
X0441740Y0217883D01*
X0441751Y0217822D01*
X0441766Y0217762D01*
X0441785Y0217704D01*
X0441807Y0217646D01*
X0441833Y0217590D01*
X0441862Y0217536D01*
X0441894Y0217484D01*
X0441930Y0217433D01*
X0441969Y0217385D01*
X0442010Y0217340D01*
X0442054Y0217297D01*
X0442101Y0217257D01*
X0442150Y0217220D01*
X0442202Y0217186D01*
X0442255Y0217155D01*
X0442310Y0217128D01*
X0442367Y0217104D01*
X0442425Y0217083D01*
X0442484Y0217066D01*
X0442544Y0217053D01*
X0442605Y0217044D01*
X0442666Y0217038D01*
X0442728Y0217036D01*
X0443728Y0217036D01*
X0442978Y0217036D02*
X0442909Y0217034D01*
X0442840Y0217028D01*
X0442772Y0217019D01*
X0442705Y0217006D01*
X0442638Y0216989D01*
X0442572Y0216968D01*
X0442508Y0216944D01*
X0442445Y0216916D01*
X0442383Y0216885D01*
X0442323Y0216851D01*
X0442266Y0216813D01*
X0442210Y0216772D01*
X0442157Y0216729D01*
X0442106Y0216682D01*
X0442058Y0216633D01*
X0442013Y0216581D01*
X0441971Y0216526D01*
X0441932Y0216470D01*
X0441895Y0216411D01*
X0441863Y0216350D01*
X0441833Y0216288D01*
X0441807Y0216224D01*
X0441785Y0216159D01*
X0441766Y0216093D01*
X0441751Y0216026D01*
X0441740Y0215958D01*
X0441732Y0215889D01*
X0441728Y0215820D01*
X0441728Y0215752D01*
X0441732Y0215683D01*
X0441740Y0215614D01*
X0441751Y0215546D01*
X0441766Y0215479D01*
X0441785Y0215413D01*
X0441807Y0215348D01*
X0441833Y0215284D01*
X0441863Y0215222D01*
X0441895Y0215161D01*
X0441932Y0215102D01*
X0441971Y0215046D01*
X0442013Y0214991D01*
X0442058Y0214939D01*
X0442106Y0214890D01*
X0442157Y0214843D01*
X0442210Y0214800D01*
X0442266Y0214759D01*
X0442323Y0214721D01*
X0442383Y0214687D01*
X0442445Y0214656D01*
X0442508Y0214628D01*
X0442572Y0214604D01*
X0442638Y0214583D01*
X0442705Y0214566D01*
X0442772Y0214553D01*
X0442840Y0214544D01*
X0442909Y0214538D01*
X0442978Y0214536D01*
X0444228Y0214536D01*
X0446578Y0216411D02*
X0447953Y0217161D01*
X0447453Y0219036D02*
X0447373Y0219034D01*
X0447292Y0219029D01*
X0447212Y0219020D01*
X0447133Y0219008D01*
X0447054Y0218993D01*
X0446976Y0218974D01*
X0446898Y0218952D01*
X0446822Y0218927D01*
X0446747Y0218898D01*
X0446673Y0218866D01*
X0446601Y0218831D01*
X0446530Y0218793D01*
X0446461Y0218752D01*
X0446393Y0218708D01*
X0446328Y0218661D01*
X0447953Y0217161D02*
X0448005Y0217194D01*
X0448056Y0217230D01*
X0448104Y0217269D01*
X0448149Y0217311D01*
X0448192Y0217356D01*
X0448232Y0217404D01*
X0448269Y0217453D01*
X0448303Y0217505D01*
X0448334Y0217559D01*
X0448362Y0217615D01*
X0448386Y0217672D01*
X0448406Y0217731D01*
X0448423Y0217790D01*
X0448436Y0217851D01*
X0448445Y0217912D01*
X0448451Y0217974D01*
X0448453Y0218036D01*
X0448451Y0218096D01*
X0448446Y0218157D01*
X0448437Y0218216D01*
X0448424Y0218275D01*
X0448408Y0218334D01*
X0448388Y0218391D01*
X0448365Y0218446D01*
X0448338Y0218501D01*
X0448309Y0218553D01*
X0448276Y0218604D01*
X0448240Y0218653D01*
X0448202Y0218699D01*
X0448160Y0218743D01*
X0448116Y0218785D01*
X0448070Y0218823D01*
X0448021Y0218859D01*
X0447970Y0218892D01*
X0447918Y0218921D01*
X0447863Y0218948D01*
X0447808Y0218971D01*
X0447751Y0218991D01*
X0447692Y0219007D01*
X0447633Y0219020D01*
X0447574Y0219029D01*
X0447513Y0219034D01*
X0447453Y0219036D01*
X0448578Y0215160D02*
X0448515Y0215099D01*
X0448450Y0215041D01*
X0448382Y0214985D01*
X0448311Y0214932D01*
X0448239Y0214883D01*
X0448165Y0214836D01*
X0448089Y0214792D01*
X0448011Y0214752D01*
X0447931Y0214715D01*
X0447850Y0214681D01*
X0447768Y0214651D01*
X0447684Y0214624D01*
X0447599Y0214600D01*
X0447514Y0214580D01*
X0447428Y0214564D01*
X0447341Y0214551D01*
X0447253Y0214542D01*
X0447166Y0214537D01*
X0447078Y0214535D01*
X0447078Y0214536D02*
X0447018Y0214538D01*
X0446957Y0214543D01*
X0446898Y0214552D01*
X0446839Y0214565D01*
X0446780Y0214581D01*
X0446723Y0214601D01*
X0446668Y0214624D01*
X0446613Y0214651D01*
X0446561Y0214680D01*
X0446510Y0214713D01*
X0446461Y0214749D01*
X0446415Y0214787D01*
X0446371Y0214829D01*
X0446329Y0214873D01*
X0446291Y0214919D01*
X0446255Y0214968D01*
X0446222Y0215019D01*
X0446193Y0215071D01*
X0446166Y0215126D01*
X0446143Y0215181D01*
X0446123Y0215238D01*
X0446107Y0215297D01*
X0446094Y0215356D01*
X0446085Y0215415D01*
X0446080Y0215476D01*
X0446078Y0215536D01*
X0446077Y0215536D02*
X0446079Y0215598D01*
X0446085Y0215660D01*
X0446094Y0215721D01*
X0446107Y0215782D01*
X0446124Y0215841D01*
X0446144Y0215900D01*
X0446168Y0215957D01*
X0446196Y0216013D01*
X0446227Y0216067D01*
X0446261Y0216119D01*
X0446298Y0216168D01*
X0446338Y0216216D01*
X0446381Y0216261D01*
X0446426Y0216303D01*
X0446474Y0216342D01*
X0446525Y0216378D01*
X0446577Y0216411D01*
X0444228Y0151536D02*
X0441728Y0151536D01*
X0442728Y0149536D02*
X0444228Y0149536D01*
X0444228Y0151536D01*
X0442728Y0149536D02*
X0442668Y0149534D01*
X0442607Y0149529D01*
X0442548Y0149520D01*
X0442489Y0149507D01*
X0442430Y0149491D01*
X0442373Y0149471D01*
X0442318Y0149448D01*
X0442263Y0149421D01*
X0442211Y0149392D01*
X0442160Y0149359D01*
X0442111Y0149323D01*
X0442065Y0149285D01*
X0442021Y0149243D01*
X0441979Y0149199D01*
X0441941Y0149153D01*
X0441905Y0149104D01*
X0441872Y0149053D01*
X0441843Y0149001D01*
X0441816Y0148946D01*
X0441793Y0148891D01*
X0441773Y0148834D01*
X0441757Y0148775D01*
X0441744Y0148716D01*
X0441735Y0148657D01*
X0441730Y0148596D01*
X0441728Y0148536D01*
X0441728Y0148036D01*
X0441730Y0147976D01*
X0441735Y0147915D01*
X0441744Y0147856D01*
X0441757Y0147797D01*
X0441773Y0147738D01*
X0441793Y0147681D01*
X0441816Y0147626D01*
X0441843Y0147571D01*
X0441872Y0147519D01*
X0441905Y0147468D01*
X0441941Y0147419D01*
X0441979Y0147373D01*
X0442021Y0147329D01*
X0442065Y0147287D01*
X0442111Y0147249D01*
X0442160Y0147213D01*
X0442211Y0147180D01*
X0442263Y0147151D01*
X0442318Y0147124D01*
X0442373Y0147101D01*
X0442430Y0147081D01*
X0442489Y0147065D01*
X0442548Y0147052D01*
X0442607Y0147043D01*
X0442668Y0147038D01*
X0442728Y0147036D01*
X0444228Y0147036D01*
X0446578Y0148911D02*
X0447953Y0149661D01*
X0447453Y0151536D02*
X0447373Y0151534D01*
X0447292Y0151529D01*
X0447212Y0151520D01*
X0447133Y0151508D01*
X0447054Y0151493D01*
X0446976Y0151474D01*
X0446898Y0151452D01*
X0446822Y0151427D01*
X0446747Y0151398D01*
X0446673Y0151366D01*
X0446601Y0151331D01*
X0446530Y0151293D01*
X0446461Y0151252D01*
X0446393Y0151208D01*
X0446328Y0151161D01*
X0447953Y0149661D02*
X0448005Y0149694D01*
X0448056Y0149730D01*
X0448104Y0149769D01*
X0448149Y0149811D01*
X0448192Y0149856D01*
X0448232Y0149904D01*
X0448269Y0149953D01*
X0448303Y0150005D01*
X0448334Y0150059D01*
X0448362Y0150115D01*
X0448386Y0150172D01*
X0448406Y0150231D01*
X0448423Y0150290D01*
X0448436Y0150351D01*
X0448445Y0150412D01*
X0448451Y0150474D01*
X0448453Y0150536D01*
X0448451Y0150596D01*
X0448446Y0150657D01*
X0448437Y0150716D01*
X0448424Y0150775D01*
X0448408Y0150834D01*
X0448388Y0150891D01*
X0448365Y0150946D01*
X0448338Y0151001D01*
X0448309Y0151053D01*
X0448276Y0151104D01*
X0448240Y0151153D01*
X0448202Y0151199D01*
X0448160Y0151243D01*
X0448116Y0151285D01*
X0448070Y0151323D01*
X0448021Y0151359D01*
X0447970Y0151392D01*
X0447918Y0151421D01*
X0447863Y0151448D01*
X0447808Y0151471D01*
X0447751Y0151491D01*
X0447692Y0151507D01*
X0447633Y0151520D01*
X0447574Y0151529D01*
X0447513Y0151534D01*
X0447453Y0151536D01*
X0448578Y0147660D02*
X0448515Y0147599D01*
X0448450Y0147541D01*
X0448382Y0147485D01*
X0448311Y0147432D01*
X0448239Y0147383D01*
X0448165Y0147336D01*
X0448089Y0147292D01*
X0448011Y0147252D01*
X0447931Y0147215D01*
X0447850Y0147181D01*
X0447768Y0147151D01*
X0447684Y0147124D01*
X0447599Y0147100D01*
X0447514Y0147080D01*
X0447428Y0147064D01*
X0447341Y0147051D01*
X0447253Y0147042D01*
X0447166Y0147037D01*
X0447078Y0147035D01*
X0447078Y0147036D02*
X0447018Y0147038D01*
X0446957Y0147043D01*
X0446898Y0147052D01*
X0446839Y0147065D01*
X0446780Y0147081D01*
X0446723Y0147101D01*
X0446668Y0147124D01*
X0446613Y0147151D01*
X0446561Y0147180D01*
X0446510Y0147213D01*
X0446461Y0147249D01*
X0446415Y0147287D01*
X0446371Y0147329D01*
X0446329Y0147373D01*
X0446291Y0147419D01*
X0446255Y0147468D01*
X0446222Y0147519D01*
X0446193Y0147571D01*
X0446166Y0147626D01*
X0446143Y0147681D01*
X0446123Y0147738D01*
X0446107Y0147797D01*
X0446094Y0147856D01*
X0446085Y0147915D01*
X0446080Y0147976D01*
X0446078Y0148036D01*
X0446077Y0148036D02*
X0446079Y0148098D01*
X0446085Y0148160D01*
X0446094Y0148221D01*
X0446107Y0148282D01*
X0446124Y0148341D01*
X0446144Y0148400D01*
X0446168Y0148457D01*
X0446196Y0148513D01*
X0446227Y0148567D01*
X0446261Y0148619D01*
X0446298Y0148668D01*
X0446338Y0148716D01*
X0446381Y0148761D01*
X0446426Y0148803D01*
X0446474Y0148842D01*
X0446525Y0148878D01*
X0446577Y0148911D01*
X0342953Y0089661D02*
X0341578Y0088911D01*
X0342078Y0087035D02*
X0342166Y0087037D01*
X0342253Y0087042D01*
X0342341Y0087051D01*
X0342428Y0087064D01*
X0342514Y0087080D01*
X0342599Y0087100D01*
X0342684Y0087124D01*
X0342768Y0087151D01*
X0342850Y0087181D01*
X0342931Y0087215D01*
X0343011Y0087252D01*
X0343089Y0087292D01*
X0343165Y0087336D01*
X0343239Y0087383D01*
X0343311Y0087432D01*
X0343382Y0087485D01*
X0343450Y0087541D01*
X0343515Y0087599D01*
X0343578Y0087660D01*
X0341577Y0088911D02*
X0341525Y0088878D01*
X0341474Y0088842D01*
X0341426Y0088803D01*
X0341381Y0088761D01*
X0341338Y0088716D01*
X0341298Y0088668D01*
X0341261Y0088619D01*
X0341227Y0088567D01*
X0341196Y0088513D01*
X0341168Y0088457D01*
X0341144Y0088400D01*
X0341124Y0088341D01*
X0341107Y0088282D01*
X0341094Y0088221D01*
X0341085Y0088160D01*
X0341079Y0088098D01*
X0341077Y0088036D01*
X0341078Y0088036D02*
X0341080Y0087976D01*
X0341085Y0087915D01*
X0341094Y0087856D01*
X0341107Y0087797D01*
X0341123Y0087738D01*
X0341143Y0087681D01*
X0341166Y0087626D01*
X0341193Y0087571D01*
X0341222Y0087519D01*
X0341255Y0087468D01*
X0341291Y0087419D01*
X0341329Y0087373D01*
X0341371Y0087329D01*
X0341415Y0087287D01*
X0341461Y0087249D01*
X0341510Y0087213D01*
X0341561Y0087180D01*
X0341613Y0087151D01*
X0341668Y0087124D01*
X0341723Y0087101D01*
X0341780Y0087081D01*
X0341839Y0087065D01*
X0341898Y0087052D01*
X0341957Y0087043D01*
X0342018Y0087038D01*
X0342078Y0087036D01*
X0341328Y0091161D02*
X0341393Y0091208D01*
X0341461Y0091252D01*
X0341530Y0091293D01*
X0341601Y0091331D01*
X0341673Y0091366D01*
X0341747Y0091398D01*
X0341822Y0091427D01*
X0341898Y0091452D01*
X0341976Y0091474D01*
X0342054Y0091493D01*
X0342133Y0091508D01*
X0342212Y0091520D01*
X0342292Y0091529D01*
X0342373Y0091534D01*
X0342453Y0091536D01*
X0342513Y0091534D01*
X0342574Y0091529D01*
X0342633Y0091520D01*
X0342692Y0091507D01*
X0342751Y0091491D01*
X0342808Y0091471D01*
X0342863Y0091448D01*
X0342918Y0091421D01*
X0342970Y0091392D01*
X0343021Y0091359D01*
X0343070Y0091323D01*
X0343116Y0091285D01*
X0343160Y0091243D01*
X0343202Y0091199D01*
X0343240Y0091153D01*
X0343276Y0091104D01*
X0343309Y0091053D01*
X0343338Y0091001D01*
X0343365Y0090946D01*
X0343388Y0090891D01*
X0343408Y0090834D01*
X0343424Y0090775D01*
X0343437Y0090716D01*
X0343446Y0090657D01*
X0343451Y0090596D01*
X0343453Y0090536D01*
X0343451Y0090474D01*
X0343445Y0090412D01*
X0343436Y0090351D01*
X0343423Y0090290D01*
X0343406Y0090231D01*
X0343386Y0090172D01*
X0343362Y0090115D01*
X0343334Y0090059D01*
X0343303Y0090005D01*
X0343269Y0089953D01*
X0343232Y0089904D01*
X0343192Y0089856D01*
X0343149Y0089811D01*
X0343104Y0089769D01*
X0343056Y0089730D01*
X0343005Y0089694D01*
X0342953Y0089661D01*
X0339228Y0087036D02*
X0336728Y0087036D01*
X0339228Y0087036D02*
X0337103Y0089536D01*
X0337853Y0091536D02*
X0337926Y0091534D01*
X0337998Y0091529D01*
X0338070Y0091520D01*
X0338142Y0091507D01*
X0338213Y0091491D01*
X0338283Y0091471D01*
X0338351Y0091447D01*
X0338419Y0091421D01*
X0338485Y0091390D01*
X0338550Y0091357D01*
X0338612Y0091320D01*
X0338673Y0091281D01*
X0338732Y0091238D01*
X0338789Y0091192D01*
X0338843Y0091144D01*
X0338894Y0091093D01*
X0338944Y0091039D01*
X0338990Y0090983D01*
X0339033Y0090925D01*
X0339074Y0090864D01*
X0339111Y0090802D01*
X0339145Y0090738D01*
X0339176Y0090672D01*
X0339204Y0090605D01*
X0339228Y0090536D01*
X0337103Y0089536D02*
X0337057Y0089582D01*
X0337013Y0089631D01*
X0336973Y0089682D01*
X0336935Y0089735D01*
X0336900Y0089790D01*
X0336868Y0089847D01*
X0336839Y0089905D01*
X0336813Y0089965D01*
X0336791Y0090027D01*
X0336772Y0090089D01*
X0336756Y0090152D01*
X0336744Y0090216D01*
X0336735Y0090281D01*
X0336730Y0090346D01*
X0336728Y0090411D01*
X0336730Y0090476D01*
X0336736Y0090542D01*
X0336745Y0090606D01*
X0336758Y0090670D01*
X0336775Y0090734D01*
X0336796Y0090796D01*
X0336820Y0090857D01*
X0336848Y0090916D01*
X0336879Y0090974D01*
X0336913Y0091029D01*
X0336951Y0091083D01*
X0336991Y0091134D01*
X0337035Y0091183D01*
X0337081Y0091229D01*
X0337130Y0091273D01*
X0337181Y0091313D01*
X0337235Y0091351D01*
X0337291Y0091385D01*
X0337348Y0091416D01*
X0337407Y0091444D01*
X0337468Y0091468D01*
X0337530Y0091489D01*
X0337594Y0091506D01*
X0337658Y0091519D01*
X0337722Y0091528D01*
X0337788Y0091534D01*
X0337853Y0091536D01*
X0297953Y0089661D02*
X0296578Y0088911D01*
X0297078Y0087035D02*
X0297166Y0087037D01*
X0297253Y0087042D01*
X0297341Y0087051D01*
X0297428Y0087064D01*
X0297514Y0087080D01*
X0297599Y0087100D01*
X0297684Y0087124D01*
X0297768Y0087151D01*
X0297850Y0087181D01*
X0297931Y0087215D01*
X0298011Y0087252D01*
X0298089Y0087292D01*
X0298165Y0087336D01*
X0298239Y0087383D01*
X0298311Y0087432D01*
X0298382Y0087485D01*
X0298450Y0087541D01*
X0298515Y0087599D01*
X0298578Y0087660D01*
X0296577Y0088911D02*
X0296525Y0088878D01*
X0296474Y0088842D01*
X0296426Y0088803D01*
X0296381Y0088761D01*
X0296338Y0088716D01*
X0296298Y0088668D01*
X0296261Y0088619D01*
X0296227Y0088567D01*
X0296196Y0088513D01*
X0296168Y0088457D01*
X0296144Y0088400D01*
X0296124Y0088341D01*
X0296107Y0088282D01*
X0296094Y0088221D01*
X0296085Y0088160D01*
X0296079Y0088098D01*
X0296077Y0088036D01*
X0296078Y0088036D02*
X0296080Y0087976D01*
X0296085Y0087915D01*
X0296094Y0087856D01*
X0296107Y0087797D01*
X0296123Y0087738D01*
X0296143Y0087681D01*
X0296166Y0087626D01*
X0296193Y0087571D01*
X0296222Y0087519D01*
X0296255Y0087468D01*
X0296291Y0087419D01*
X0296329Y0087373D01*
X0296371Y0087329D01*
X0296415Y0087287D01*
X0296461Y0087249D01*
X0296510Y0087213D01*
X0296561Y0087180D01*
X0296613Y0087151D01*
X0296668Y0087124D01*
X0296723Y0087101D01*
X0296780Y0087081D01*
X0296839Y0087065D01*
X0296898Y0087052D01*
X0296957Y0087043D01*
X0297018Y0087038D01*
X0297078Y0087036D01*
X0296328Y0091161D02*
X0296393Y0091208D01*
X0296461Y0091252D01*
X0296530Y0091293D01*
X0296601Y0091331D01*
X0296673Y0091366D01*
X0296747Y0091398D01*
X0296822Y0091427D01*
X0296898Y0091452D01*
X0296976Y0091474D01*
X0297054Y0091493D01*
X0297133Y0091508D01*
X0297212Y0091520D01*
X0297292Y0091529D01*
X0297373Y0091534D01*
X0297453Y0091536D01*
X0297513Y0091534D01*
X0297574Y0091529D01*
X0297633Y0091520D01*
X0297692Y0091507D01*
X0297751Y0091491D01*
X0297808Y0091471D01*
X0297863Y0091448D01*
X0297918Y0091421D01*
X0297970Y0091392D01*
X0298021Y0091359D01*
X0298070Y0091323D01*
X0298116Y0091285D01*
X0298160Y0091243D01*
X0298202Y0091199D01*
X0298240Y0091153D01*
X0298276Y0091104D01*
X0298309Y0091053D01*
X0298338Y0091001D01*
X0298365Y0090946D01*
X0298388Y0090891D01*
X0298408Y0090834D01*
X0298424Y0090775D01*
X0298437Y0090716D01*
X0298446Y0090657D01*
X0298451Y0090596D01*
X0298453Y0090536D01*
X0298451Y0090474D01*
X0298445Y0090412D01*
X0298436Y0090351D01*
X0298423Y0090290D01*
X0298406Y0090231D01*
X0298386Y0090172D01*
X0298362Y0090115D01*
X0298334Y0090059D01*
X0298303Y0090005D01*
X0298269Y0089953D01*
X0298232Y0089904D01*
X0298192Y0089856D01*
X0298149Y0089811D01*
X0298104Y0089769D01*
X0298056Y0089730D01*
X0298005Y0089694D01*
X0297953Y0089661D01*
X0294228Y0090536D02*
X0292978Y0091536D01*
X0292978Y0087036D01*
X0294228Y0087036D02*
X0291728Y0087036D01*
X0220453Y0089661D02*
X0219078Y0088911D01*
X0219578Y0087035D02*
X0219666Y0087037D01*
X0219753Y0087042D01*
X0219841Y0087051D01*
X0219928Y0087064D01*
X0220014Y0087080D01*
X0220099Y0087100D01*
X0220184Y0087124D01*
X0220268Y0087151D01*
X0220350Y0087181D01*
X0220431Y0087215D01*
X0220511Y0087252D01*
X0220589Y0087292D01*
X0220665Y0087336D01*
X0220739Y0087383D01*
X0220811Y0087432D01*
X0220882Y0087485D01*
X0220950Y0087541D01*
X0221015Y0087599D01*
X0221078Y0087660D01*
X0219077Y0088911D02*
X0219025Y0088878D01*
X0218974Y0088842D01*
X0218926Y0088803D01*
X0218881Y0088761D01*
X0218838Y0088716D01*
X0218798Y0088668D01*
X0218761Y0088619D01*
X0218727Y0088567D01*
X0218696Y0088513D01*
X0218668Y0088457D01*
X0218644Y0088400D01*
X0218624Y0088341D01*
X0218607Y0088282D01*
X0218594Y0088221D01*
X0218585Y0088160D01*
X0218579Y0088098D01*
X0218577Y0088036D01*
X0218578Y0088036D02*
X0218580Y0087976D01*
X0218585Y0087915D01*
X0218594Y0087856D01*
X0218607Y0087797D01*
X0218623Y0087738D01*
X0218643Y0087681D01*
X0218666Y0087626D01*
X0218693Y0087571D01*
X0218722Y0087519D01*
X0218755Y0087468D01*
X0218791Y0087419D01*
X0218829Y0087373D01*
X0218871Y0087329D01*
X0218915Y0087287D01*
X0218961Y0087249D01*
X0219010Y0087213D01*
X0219061Y0087180D01*
X0219113Y0087151D01*
X0219168Y0087124D01*
X0219223Y0087101D01*
X0219280Y0087081D01*
X0219339Y0087065D01*
X0219398Y0087052D01*
X0219457Y0087043D01*
X0219518Y0087038D01*
X0219578Y0087036D01*
X0218828Y0091161D02*
X0218893Y0091208D01*
X0218961Y0091252D01*
X0219030Y0091293D01*
X0219101Y0091331D01*
X0219173Y0091366D01*
X0219247Y0091398D01*
X0219322Y0091427D01*
X0219398Y0091452D01*
X0219476Y0091474D01*
X0219554Y0091493D01*
X0219633Y0091508D01*
X0219712Y0091520D01*
X0219792Y0091529D01*
X0219873Y0091534D01*
X0219953Y0091536D01*
X0220013Y0091534D01*
X0220074Y0091529D01*
X0220133Y0091520D01*
X0220192Y0091507D01*
X0220251Y0091491D01*
X0220308Y0091471D01*
X0220363Y0091448D01*
X0220418Y0091421D01*
X0220470Y0091392D01*
X0220521Y0091359D01*
X0220570Y0091323D01*
X0220616Y0091285D01*
X0220660Y0091243D01*
X0220702Y0091199D01*
X0220740Y0091153D01*
X0220776Y0091104D01*
X0220809Y0091053D01*
X0220838Y0091001D01*
X0220865Y0090946D01*
X0220888Y0090891D01*
X0220908Y0090834D01*
X0220924Y0090775D01*
X0220937Y0090716D01*
X0220946Y0090657D01*
X0220951Y0090596D01*
X0220953Y0090536D01*
X0220951Y0090474D01*
X0220945Y0090412D01*
X0220936Y0090351D01*
X0220923Y0090290D01*
X0220906Y0090231D01*
X0220886Y0090172D01*
X0220862Y0090115D01*
X0220834Y0090059D01*
X0220803Y0090005D01*
X0220769Y0089953D01*
X0220732Y0089904D01*
X0220692Y0089856D01*
X0220649Y0089811D01*
X0220604Y0089769D01*
X0220556Y0089730D01*
X0220505Y0089694D01*
X0220453Y0089661D01*
X0216728Y0091036D02*
X0216728Y0091536D01*
X0214228Y0091536D01*
X0215478Y0087036D01*
X0094927Y0154911D02*
X0094875Y0154878D01*
X0094824Y0154842D01*
X0094776Y0154803D01*
X0094731Y0154761D01*
X0094688Y0154716D01*
X0094648Y0154668D01*
X0094611Y0154619D01*
X0094577Y0154567D01*
X0094546Y0154513D01*
X0094518Y0154457D01*
X0094494Y0154400D01*
X0094474Y0154341D01*
X0094457Y0154282D01*
X0094444Y0154221D01*
X0094435Y0154160D01*
X0094429Y0154098D01*
X0094427Y0154036D01*
X0094428Y0154036D02*
X0094430Y0153976D01*
X0094435Y0153915D01*
X0094444Y0153856D01*
X0094457Y0153797D01*
X0094473Y0153738D01*
X0094493Y0153681D01*
X0094516Y0153626D01*
X0094543Y0153571D01*
X0094572Y0153519D01*
X0094605Y0153468D01*
X0094641Y0153419D01*
X0094679Y0153373D01*
X0094721Y0153329D01*
X0094765Y0153287D01*
X0094811Y0153249D01*
X0094860Y0153213D01*
X0094911Y0153180D01*
X0094963Y0153151D01*
X0095018Y0153124D01*
X0095073Y0153101D01*
X0095130Y0153081D01*
X0095189Y0153065D01*
X0095248Y0153052D01*
X0095307Y0153043D01*
X0095368Y0153038D01*
X0095428Y0153036D01*
X0094928Y0154911D02*
X0096303Y0155661D01*
X0095803Y0157536D02*
X0095723Y0157534D01*
X0095642Y0157529D01*
X0095562Y0157520D01*
X0095483Y0157508D01*
X0095404Y0157493D01*
X0095326Y0157474D01*
X0095248Y0157452D01*
X0095172Y0157427D01*
X0095097Y0157398D01*
X0095023Y0157366D01*
X0094951Y0157331D01*
X0094880Y0157293D01*
X0094811Y0157252D01*
X0094743Y0157208D01*
X0094678Y0157161D01*
X0096303Y0155661D02*
X0096355Y0155694D01*
X0096406Y0155730D01*
X0096454Y0155769D01*
X0096499Y0155811D01*
X0096542Y0155856D01*
X0096582Y0155904D01*
X0096619Y0155953D01*
X0096653Y0156005D01*
X0096684Y0156059D01*
X0096712Y0156115D01*
X0096736Y0156172D01*
X0096756Y0156231D01*
X0096773Y0156290D01*
X0096786Y0156351D01*
X0096795Y0156412D01*
X0096801Y0156474D01*
X0096803Y0156536D01*
X0096801Y0156596D01*
X0096796Y0156657D01*
X0096787Y0156716D01*
X0096774Y0156775D01*
X0096758Y0156834D01*
X0096738Y0156891D01*
X0096715Y0156946D01*
X0096688Y0157001D01*
X0096659Y0157053D01*
X0096626Y0157104D01*
X0096590Y0157153D01*
X0096552Y0157199D01*
X0096510Y0157243D01*
X0096466Y0157285D01*
X0096420Y0157323D01*
X0096371Y0157359D01*
X0096320Y0157392D01*
X0096268Y0157421D01*
X0096213Y0157448D01*
X0096158Y0157471D01*
X0096101Y0157491D01*
X0096042Y0157507D01*
X0095983Y0157520D01*
X0095924Y0157529D01*
X0095863Y0157534D01*
X0095803Y0157536D01*
X0096928Y0153660D02*
X0096865Y0153599D01*
X0096800Y0153541D01*
X0096732Y0153485D01*
X0096661Y0153432D01*
X0096589Y0153383D01*
X0096515Y0153336D01*
X0096439Y0153292D01*
X0096361Y0153252D01*
X0096281Y0153215D01*
X0096200Y0153181D01*
X0096118Y0153151D01*
X0096034Y0153124D01*
X0095949Y0153100D01*
X0095864Y0153080D01*
X0095778Y0153064D01*
X0095691Y0153051D01*
X0095603Y0153042D01*
X0095516Y0153037D01*
X0095428Y0153035D01*
X0092578Y0154286D02*
X0092578Y0155536D01*
X0091078Y0155536D01*
X0092578Y0155536D02*
X0092576Y0155623D01*
X0092570Y0155710D01*
X0092561Y0155797D01*
X0092548Y0155883D01*
X0092531Y0155969D01*
X0092510Y0156054D01*
X0092485Y0156137D01*
X0092457Y0156220D01*
X0092426Y0156301D01*
X0092391Y0156381D01*
X0092352Y0156459D01*
X0092310Y0156536D01*
X0092265Y0156611D01*
X0092216Y0156683D01*
X0092165Y0156754D01*
X0092110Y0156822D01*
X0092053Y0156887D01*
X0091992Y0156950D01*
X0091929Y0157011D01*
X0091864Y0157068D01*
X0091796Y0157123D01*
X0091725Y0157174D01*
X0091653Y0157223D01*
X0091578Y0157268D01*
X0091501Y0157310D01*
X0091423Y0157349D01*
X0091343Y0157384D01*
X0091262Y0157415D01*
X0091179Y0157443D01*
X0091096Y0157468D01*
X0091011Y0157489D01*
X0090925Y0157506D01*
X0090839Y0157519D01*
X0090752Y0157528D01*
X0090665Y0157534D01*
X0090578Y0157536D01*
X0091078Y0155536D02*
X0091018Y0155534D01*
X0090957Y0155529D01*
X0090898Y0155520D01*
X0090839Y0155507D01*
X0090780Y0155491D01*
X0090723Y0155471D01*
X0090668Y0155448D01*
X0090613Y0155421D01*
X0090561Y0155392D01*
X0090510Y0155359D01*
X0090461Y0155323D01*
X0090415Y0155285D01*
X0090371Y0155243D01*
X0090329Y0155199D01*
X0090291Y0155153D01*
X0090255Y0155104D01*
X0090222Y0155053D01*
X0090193Y0155001D01*
X0090166Y0154946D01*
X0090143Y0154891D01*
X0090123Y0154834D01*
X0090107Y0154775D01*
X0090094Y0154716D01*
X0090085Y0154657D01*
X0090080Y0154596D01*
X0090078Y0154536D01*
X0090078Y0154286D01*
X0090080Y0154217D01*
X0090086Y0154148D01*
X0090095Y0154080D01*
X0090108Y0154013D01*
X0090125Y0153946D01*
X0090146Y0153880D01*
X0090170Y0153816D01*
X0090198Y0153753D01*
X0090229Y0153691D01*
X0090263Y0153631D01*
X0090301Y0153574D01*
X0090342Y0153518D01*
X0090385Y0153465D01*
X0090432Y0153414D01*
X0090481Y0153366D01*
X0090533Y0153321D01*
X0090588Y0153279D01*
X0090644Y0153240D01*
X0090703Y0153203D01*
X0090764Y0153171D01*
X0090826Y0153141D01*
X0090890Y0153115D01*
X0090955Y0153093D01*
X0091021Y0153074D01*
X0091088Y0153059D01*
X0091156Y0153048D01*
X0091225Y0153040D01*
X0091294Y0153036D01*
X0091362Y0153036D01*
X0091431Y0153040D01*
X0091500Y0153048D01*
X0091568Y0153059D01*
X0091635Y0153074D01*
X0091701Y0153093D01*
X0091766Y0153115D01*
X0091830Y0153141D01*
X0091892Y0153171D01*
X0091953Y0153203D01*
X0092012Y0153240D01*
X0092068Y0153279D01*
X0092123Y0153321D01*
X0092175Y0153366D01*
X0092224Y0153414D01*
X0092271Y0153465D01*
X0092314Y0153518D01*
X0092355Y0153574D01*
X0092393Y0153631D01*
X0092427Y0153691D01*
X0092458Y0153753D01*
X0092486Y0153816D01*
X0092510Y0153880D01*
X0092531Y0153946D01*
X0092548Y0154013D01*
X0092561Y0154080D01*
X0092570Y0154148D01*
X0092576Y0154217D01*
X0092578Y0154286D01*
X0102828Y0199536D02*
X0104078Y0199536D01*
X0102828Y0199536D02*
X0102759Y0199538D01*
X0102690Y0199544D01*
X0102622Y0199553D01*
X0102555Y0199566D01*
X0102488Y0199583D01*
X0102422Y0199604D01*
X0102358Y0199628D01*
X0102295Y0199656D01*
X0102233Y0199687D01*
X0102173Y0199721D01*
X0102116Y0199759D01*
X0102060Y0199800D01*
X0102007Y0199843D01*
X0101956Y0199890D01*
X0101908Y0199939D01*
X0101863Y0199991D01*
X0101821Y0200046D01*
X0101782Y0200102D01*
X0101745Y0200161D01*
X0101713Y0200222D01*
X0101683Y0200284D01*
X0101657Y0200348D01*
X0101635Y0200413D01*
X0101616Y0200479D01*
X0101601Y0200546D01*
X0101590Y0200614D01*
X0101582Y0200683D01*
X0101578Y0200752D01*
X0101578Y0200820D01*
X0101582Y0200889D01*
X0101590Y0200958D01*
X0101601Y0201026D01*
X0101616Y0201093D01*
X0101635Y0201159D01*
X0101657Y0201224D01*
X0101683Y0201288D01*
X0101713Y0201350D01*
X0101745Y0201411D01*
X0101782Y0201470D01*
X0101821Y0201526D01*
X0101863Y0201581D01*
X0101908Y0201633D01*
X0101956Y0201682D01*
X0102007Y0201729D01*
X0102060Y0201772D01*
X0102116Y0201813D01*
X0102173Y0201851D01*
X0102233Y0201885D01*
X0102295Y0201916D01*
X0102358Y0201944D01*
X0102422Y0201968D01*
X0102488Y0201989D01*
X0102555Y0202006D01*
X0102622Y0202019D01*
X0102690Y0202028D01*
X0102759Y0202034D01*
X0102828Y0202036D01*
X0102578Y0202036D02*
X0103578Y0202036D01*
X0102578Y0202036D02*
X0102516Y0202038D01*
X0102455Y0202044D01*
X0102394Y0202053D01*
X0102334Y0202066D01*
X0102275Y0202083D01*
X0102217Y0202104D01*
X0102160Y0202128D01*
X0102105Y0202155D01*
X0102052Y0202186D01*
X0102000Y0202220D01*
X0101951Y0202257D01*
X0101904Y0202297D01*
X0101860Y0202340D01*
X0101819Y0202385D01*
X0101780Y0202433D01*
X0101744Y0202484D01*
X0101712Y0202536D01*
X0101683Y0202590D01*
X0101657Y0202646D01*
X0101635Y0202704D01*
X0101616Y0202762D01*
X0101601Y0202822D01*
X0101590Y0202883D01*
X0101582Y0202944D01*
X0101578Y0203005D01*
X0101578Y0203067D01*
X0101582Y0203128D01*
X0101590Y0203189D01*
X0101601Y0203250D01*
X0101616Y0203310D01*
X0101635Y0203368D01*
X0101657Y0203426D01*
X0101683Y0203482D01*
X0101712Y0203536D01*
X0101744Y0203588D01*
X0101780Y0203639D01*
X0101819Y0203687D01*
X0101860Y0203732D01*
X0101904Y0203775D01*
X0101951Y0203815D01*
X0102000Y0203852D01*
X0102052Y0203886D01*
X0102105Y0203917D01*
X0102160Y0203944D01*
X0102217Y0203968D01*
X0102275Y0203989D01*
X0102334Y0204006D01*
X0102394Y0204019D01*
X0102455Y0204028D01*
X0102516Y0204034D01*
X0102578Y0204036D01*
X0104078Y0204036D01*
X0107328Y0204036D02*
X0107328Y0199536D01*
X0108578Y0199536D02*
X0106078Y0199536D01*
X0108578Y0203036D02*
X0107328Y0204036D01*
X0110278Y0204036D02*
X0112778Y0204036D01*
X0111528Y0204036D02*
X0111528Y0199536D01*
X0111528Y0212036D02*
X0111528Y0216536D01*
X0112778Y0216536D02*
X0110278Y0216536D01*
X0108578Y0215536D02*
X0107328Y0216536D01*
X0107328Y0212036D01*
X0108578Y0212036D02*
X0106078Y0212036D01*
X0104078Y0212036D02*
X0101578Y0212036D01*
X0104078Y0212036D02*
X0101953Y0214536D01*
X0102703Y0216536D02*
X0102776Y0216534D01*
X0102848Y0216529D01*
X0102920Y0216520D01*
X0102992Y0216507D01*
X0103063Y0216491D01*
X0103133Y0216471D01*
X0103201Y0216447D01*
X0103269Y0216421D01*
X0103335Y0216390D01*
X0103400Y0216357D01*
X0103462Y0216320D01*
X0103523Y0216281D01*
X0103582Y0216238D01*
X0103639Y0216192D01*
X0103693Y0216144D01*
X0103744Y0216093D01*
X0103794Y0216039D01*
X0103840Y0215983D01*
X0103883Y0215925D01*
X0103924Y0215864D01*
X0103961Y0215802D01*
X0103995Y0215738D01*
X0104026Y0215672D01*
X0104054Y0215605D01*
X0104078Y0215536D01*
X0101953Y0214536D02*
X0101907Y0214582D01*
X0101863Y0214631D01*
X0101823Y0214682D01*
X0101785Y0214735D01*
X0101750Y0214790D01*
X0101718Y0214847D01*
X0101689Y0214905D01*
X0101663Y0214965D01*
X0101641Y0215027D01*
X0101622Y0215089D01*
X0101606Y0215152D01*
X0101594Y0215216D01*
X0101585Y0215281D01*
X0101580Y0215346D01*
X0101578Y0215411D01*
X0101580Y0215476D01*
X0101586Y0215542D01*
X0101595Y0215606D01*
X0101608Y0215670D01*
X0101625Y0215734D01*
X0101646Y0215796D01*
X0101670Y0215857D01*
X0101698Y0215916D01*
X0101729Y0215974D01*
X0101763Y0216029D01*
X0101801Y0216083D01*
X0101841Y0216134D01*
X0101885Y0216183D01*
X0101931Y0216229D01*
X0101980Y0216273D01*
X0102031Y0216313D01*
X0102085Y0216351D01*
X0102141Y0216385D01*
X0102198Y0216416D01*
X0102257Y0216444D01*
X0102318Y0216468D01*
X0102380Y0216489D01*
X0102444Y0216506D01*
X0102508Y0216519D01*
X0102572Y0216528D01*
X0102638Y0216534D01*
X0102703Y0216536D01*
X0093578Y0210886D02*
X0090078Y0209886D01*
X0090078Y0212386D01*
X0091078Y0211636D02*
X0089078Y0211636D01*
X0090953Y0207536D02*
X0091703Y0206161D01*
X0093578Y0206661D02*
X0093576Y0206741D01*
X0093571Y0206822D01*
X0093562Y0206902D01*
X0093550Y0206981D01*
X0093535Y0207060D01*
X0093516Y0207138D01*
X0093494Y0207216D01*
X0093469Y0207292D01*
X0093440Y0207367D01*
X0093408Y0207441D01*
X0093373Y0207513D01*
X0093335Y0207584D01*
X0093294Y0207653D01*
X0093250Y0207721D01*
X0093203Y0207786D01*
X0091703Y0206160D02*
X0091736Y0206108D01*
X0091772Y0206057D01*
X0091811Y0206009D01*
X0091853Y0205964D01*
X0091898Y0205921D01*
X0091946Y0205881D01*
X0091995Y0205844D01*
X0092047Y0205810D01*
X0092101Y0205779D01*
X0092157Y0205751D01*
X0092214Y0205727D01*
X0092273Y0205707D01*
X0092332Y0205690D01*
X0092393Y0205677D01*
X0092454Y0205668D01*
X0092516Y0205662D01*
X0092578Y0205660D01*
X0092578Y0205661D02*
X0092638Y0205663D01*
X0092699Y0205668D01*
X0092758Y0205677D01*
X0092817Y0205690D01*
X0092876Y0205706D01*
X0092933Y0205726D01*
X0092988Y0205749D01*
X0093043Y0205776D01*
X0093095Y0205805D01*
X0093146Y0205838D01*
X0093195Y0205874D01*
X0093241Y0205912D01*
X0093285Y0205954D01*
X0093327Y0205998D01*
X0093365Y0206044D01*
X0093401Y0206093D01*
X0093434Y0206144D01*
X0093463Y0206196D01*
X0093490Y0206251D01*
X0093513Y0206306D01*
X0093533Y0206363D01*
X0093549Y0206422D01*
X0093562Y0206481D01*
X0093571Y0206540D01*
X0093576Y0206601D01*
X0093578Y0206661D01*
X0089702Y0205536D02*
X0089641Y0205599D01*
X0089583Y0205664D01*
X0089527Y0205732D01*
X0089474Y0205803D01*
X0089425Y0205875D01*
X0089378Y0205949D01*
X0089334Y0206025D01*
X0089294Y0206103D01*
X0089257Y0206183D01*
X0089223Y0206264D01*
X0089193Y0206346D01*
X0089166Y0206430D01*
X0089142Y0206515D01*
X0089122Y0206600D01*
X0089106Y0206686D01*
X0089093Y0206773D01*
X0089084Y0206861D01*
X0089079Y0206948D01*
X0089077Y0207036D01*
X0089078Y0207036D02*
X0089080Y0207096D01*
X0089085Y0207157D01*
X0089094Y0207216D01*
X0089107Y0207275D01*
X0089123Y0207334D01*
X0089143Y0207391D01*
X0089166Y0207446D01*
X0089193Y0207501D01*
X0089222Y0207553D01*
X0089255Y0207604D01*
X0089291Y0207653D01*
X0089329Y0207699D01*
X0089371Y0207743D01*
X0089415Y0207785D01*
X0089461Y0207823D01*
X0089510Y0207859D01*
X0089561Y0207892D01*
X0089613Y0207921D01*
X0089668Y0207948D01*
X0089723Y0207971D01*
X0089780Y0207991D01*
X0089839Y0208007D01*
X0089898Y0208020D01*
X0089957Y0208029D01*
X0090018Y0208034D01*
X0090078Y0208036D01*
X0090140Y0208034D01*
X0090202Y0208028D01*
X0090263Y0208019D01*
X0090324Y0208006D01*
X0090383Y0207989D01*
X0090442Y0207969D01*
X0090499Y0207945D01*
X0090555Y0207917D01*
X0090609Y0207886D01*
X0090661Y0207852D01*
X0090710Y0207815D01*
X0090758Y0207775D01*
X0090803Y0207732D01*
X0090845Y0207687D01*
X0090884Y0207639D01*
X0090920Y0207588D01*
X0090953Y0207536D01*
D15*
X0119485Y0179884D02*
X0119485Y0175160D01*
X0123422Y0175160D01*
X0135233Y0175160D02*
X0136808Y0175160D01*
X0136808Y0176341D01*
X0136808Y0273979D01*
X0137989Y0273979D01*
X0137989Y0275160D01*
X0140745Y0275160D01*
X0140745Y0175160D01*
X0137989Y0175160D01*
X0137989Y0176341D01*
X0136808Y0176341D01*
X0137989Y0267680D02*
X0137989Y0269254D01*
X0139564Y0268467D01*
X0137989Y0267680D01*
X0137989Y0267914D02*
X0138458Y0267914D01*
X0137989Y0268712D02*
X0139073Y0268712D01*
X0136808Y0273979D02*
X0136808Y0275160D01*
X0135233Y0275160D01*
X0123422Y0275160D02*
X0119485Y0275160D01*
X0119485Y0270435D01*
M02*
