G75*
%MOIN*%
%OFA0B0*%
%FSLAX25Y25*%
%IPPOS*%
%LPD*%
%AMOC8*
5,1,8,0,0,1.08239X$1,22.5*
%
%ADD10C,0.20800*%
%ADD11C,0.08800*%
%ADD12R,0.06050X0.06050*%
%ADD13OC8,0.05800*%
%ADD14R,0.03556X0.04343*%
%ADD15R,0.10800X0.05800*%
%ADD16R,0.05800X0.10800*%
%ADD17OC8,0.09300*%
%ADD18C,0.06800*%
%ADD19R,0.03900X0.04300*%
%ADD20R,0.05512X0.01575*%
%ADD21R,0.09252X0.07480*%
%ADD22C,0.05524*%
%ADD23C,0.06706*%
%ADD24C,0.03500*%
D10*
X0131300Y0038786D03*
X0396300Y0038786D03*
X0411300Y0243786D03*
X0106300Y0243786D03*
D11*
X0166300Y0078786D03*
X0361300Y0078786D03*
D12*
X0036300Y0053786D03*
X0036300Y0093786D03*
X0111300Y0093786D03*
X0111300Y0053786D03*
X0415300Y0052786D03*
X0415300Y0092786D03*
X0490300Y0092786D03*
X0490300Y0052786D03*
D13*
X0391300Y0188786D03*
X0398800Y0193786D03*
X0391300Y0198786D03*
D14*
X0106859Y0189786D03*
X0101741Y0189786D03*
X0101741Y0179786D03*
X0106859Y0179786D03*
X0106359Y0226286D03*
X0101241Y0226286D03*
X0083359Y0242286D03*
X0078241Y0242286D03*
X0078741Y0248786D03*
X0083859Y0248786D03*
X0083859Y0256286D03*
X0078741Y0256286D03*
X0078741Y0263786D03*
X0083859Y0263786D03*
X0083859Y0271286D03*
X0078741Y0271286D03*
D15*
X0193500Y0100186D03*
X0219100Y0100186D03*
X0219100Y0082386D03*
X0194100Y0082386D03*
X0271600Y0082386D03*
X0296600Y0082386D03*
X0319100Y0082386D03*
X0344100Y0082386D03*
X0344100Y0100186D03*
X0318500Y0100186D03*
X0296600Y0100186D03*
X0271000Y0100186D03*
D16*
X0427400Y0138486D03*
X0445200Y0138486D03*
X0445200Y0164086D03*
X0427400Y0163486D03*
X0427400Y0203486D03*
X0445200Y0203486D03*
X0445200Y0229086D03*
X0427400Y0228486D03*
X0092700Y0229086D03*
X0074900Y0228486D03*
X0074900Y0203486D03*
X0092700Y0203486D03*
X0092700Y0166586D03*
X0074900Y0165986D03*
X0074900Y0140986D03*
X0092700Y0140986D03*
D17*
X0380300Y0215786D03*
X0380300Y0230786D03*
X0453500Y0253786D03*
X0479100Y0253786D03*
D18*
X0296800Y0066286D02*
X0296800Y0060286D01*
X0286800Y0060286D02*
X0286800Y0066286D01*
X0276800Y0066286D02*
X0276800Y0060286D01*
X0266800Y0060286D02*
X0266800Y0066286D01*
X0256800Y0066286D02*
X0256800Y0060286D01*
X0246800Y0060286D02*
X0246800Y0066286D01*
X0236800Y0066286D02*
X0236800Y0060286D01*
X0226800Y0060286D02*
X0226800Y0066286D01*
D19*
X0107700Y0197286D03*
X0100100Y0197286D03*
X0103900Y0205286D03*
X0100100Y0212286D03*
X0107700Y0212286D03*
X0103900Y0220286D03*
D20*
X0131005Y0221160D03*
X0131005Y0223128D03*
X0131005Y0225097D03*
X0131005Y0227065D03*
X0131005Y0229034D03*
X0131005Y0231002D03*
X0131005Y0232971D03*
X0131005Y0234939D03*
X0131005Y0236908D03*
X0131005Y0238876D03*
X0131005Y0240845D03*
X0131005Y0242813D03*
X0131005Y0244782D03*
X0131005Y0246750D03*
X0131005Y0248719D03*
X0131005Y0250687D03*
X0131005Y0252656D03*
X0131005Y0254624D03*
X0131005Y0256593D03*
X0131005Y0258561D03*
X0131005Y0260530D03*
X0131005Y0262498D03*
X0131005Y0264467D03*
X0131005Y0219191D03*
X0131005Y0217223D03*
X0131005Y0215254D03*
X0131005Y0213286D03*
X0131005Y0211317D03*
X0131005Y0209349D03*
X0131005Y0207380D03*
X0131005Y0205412D03*
X0131005Y0203443D03*
X0131005Y0201475D03*
X0131005Y0199506D03*
X0131005Y0197538D03*
X0131005Y0195569D03*
X0131005Y0193601D03*
X0131005Y0191632D03*
X0131005Y0189664D03*
X0131005Y0187695D03*
X0131005Y0185727D03*
X0131005Y0183758D03*
X0131005Y0181790D03*
X0131005Y0179821D03*
X0131005Y0177853D03*
D21*
X0143800Y0170372D03*
X0143800Y0271947D03*
D22*
X0178686Y0066361D02*
X0183410Y0066361D01*
X0154867Y0050613D02*
X0154867Y0045888D01*
X0145418Y0051400D02*
X0145418Y0056124D01*
X0183213Y0038408D02*
X0183213Y0033683D01*
X0167662Y0023054D02*
X0162938Y0023054D01*
X0343418Y0051400D02*
X0343418Y0056124D01*
X0352867Y0050613D02*
X0352867Y0045888D01*
X0381213Y0038408D02*
X0381213Y0033683D01*
X0365662Y0023054D02*
X0360938Y0023054D01*
X0376686Y0066361D02*
X0381410Y0066361D01*
D23*
X0333670Y0047825D02*
X0333670Y0041920D01*
X0333670Y0028928D02*
X0333670Y0023022D01*
X0304930Y0023022D02*
X0304930Y0028928D01*
X0304930Y0041920D02*
X0304930Y0047825D01*
X0223170Y0047825D02*
X0223170Y0041920D01*
X0223170Y0028928D02*
X0223170Y0023022D01*
X0194430Y0023022D02*
X0194430Y0028928D01*
X0194430Y0041920D02*
X0194430Y0047825D01*
D24*
X0199425Y0050036D03*
X0206300Y0041286D03*
X0211300Y0058161D03*
X0258175Y0040036D03*
X0292550Y0048786D03*
X0310050Y0052536D03*
X0309425Y0037536D03*
X0313800Y0075661D03*
X0336925Y0075661D03*
X0365675Y0095036D03*
X0389425Y0110661D03*
X0390050Y0120036D03*
X0390050Y0125036D03*
X0389425Y0130661D03*
X0392550Y0143786D03*
X0398175Y0148786D03*
X0412550Y0141911D03*
X0382550Y0154411D03*
X0377550Y0158161D03*
X0380675Y0164411D03*
X0391300Y0167536D03*
X0399425Y0170036D03*
X0394425Y0174411D03*
X0405050Y0187536D03*
X0415050Y0193786D03*
X0431300Y0185036D03*
X0436300Y0192536D03*
X0448800Y0187536D03*
X0461300Y0185036D03*
X0472550Y0181911D03*
X0489425Y0195036D03*
X0496300Y0197536D03*
X0493800Y0215036D03*
X0487550Y0228786D03*
X0463800Y0230661D03*
X0450675Y0213786D03*
X0406300Y0220036D03*
X0391925Y0223161D03*
X0383175Y0195036D03*
X0436300Y0178786D03*
X0440675Y0168786D03*
X0453175Y0163786D03*
X0448800Y0156911D03*
X0450050Y0134411D03*
X0397550Y0160661D03*
X0366300Y0160661D03*
X0363800Y0151911D03*
X0350050Y0140661D03*
X0340050Y0134411D03*
X0350050Y0131911D03*
X0328800Y0143786D03*
X0335050Y0151911D03*
X0331300Y0165036D03*
X0304425Y0151911D03*
X0301925Y0156911D03*
X0294425Y0145661D03*
X0289425Y0145661D03*
X0283175Y0145661D03*
X0283175Y0151911D03*
X0273175Y0143161D03*
X0264425Y0145661D03*
X0264425Y0140661D03*
X0260675Y0139411D03*
X0256925Y0139411D03*
X0241300Y0141911D03*
X0237550Y0139411D03*
X0238175Y0135661D03*
X0237550Y0125036D03*
X0238800Y0121286D03*
X0237550Y0113161D03*
X0236925Y0106911D03*
X0226925Y0096286D03*
X0261925Y0090036D03*
X0278800Y0090036D03*
X0289425Y0095661D03*
X0292550Y0105661D03*
X0284425Y0107536D03*
X0280675Y0111911D03*
X0284425Y0118161D03*
X0291925Y0120661D03*
X0294425Y0125661D03*
X0303175Y0124411D03*
X0305675Y0129411D03*
X0313800Y0126911D03*
X0313800Y0120661D03*
X0319425Y0116911D03*
X0305675Y0118161D03*
X0303175Y0120661D03*
X0289425Y0110661D03*
X0273175Y0120661D03*
X0264425Y0118161D03*
X0259425Y0111911D03*
X0256925Y0128161D03*
X0273175Y0131286D03*
X0303175Y0134411D03*
X0303800Y0140661D03*
X0305675Y0143786D03*
X0323800Y0124411D03*
X0350050Y0115036D03*
X0325675Y0100036D03*
X0256925Y0151911D03*
X0251925Y0153161D03*
X0251925Y0156911D03*
X0237550Y0151911D03*
X0220675Y0139411D03*
X0204425Y0143161D03*
X0197550Y0145661D03*
X0181925Y0141286D03*
X0158175Y0127536D03*
X0148800Y0127536D03*
X0136925Y0125036D03*
X0126300Y0127536D03*
X0128800Y0133786D03*
X0136925Y0133786D03*
X0143175Y0144411D03*
X0146925Y0143161D03*
X0129425Y0145661D03*
X0120675Y0140036D03*
X0116300Y0131286D03*
X0112550Y0125036D03*
X0106300Y0128786D03*
X0098800Y0131286D03*
X0095050Y0131286D03*
X0078175Y0133786D03*
X0068800Y0135036D03*
X0066925Y0125661D03*
X0080675Y0141911D03*
X0073175Y0152536D03*
X0048800Y0155661D03*
X0043175Y0155661D03*
X0026300Y0173161D03*
X0056300Y0179411D03*
X0061300Y0180036D03*
X0054425Y0192536D03*
X0041925Y0191286D03*
X0043800Y0207536D03*
X0055675Y0219411D03*
X0079425Y0223786D03*
X0081925Y0217536D03*
X0093175Y0218786D03*
X0100050Y0222536D03*
X0116925Y0218161D03*
X0119425Y0220661D03*
X0120675Y0226911D03*
X0135675Y0225036D03*
X0138175Y0218786D03*
X0141925Y0228786D03*
X0135675Y0231286D03*
X0135675Y0235036D03*
X0123175Y0238161D03*
X0126300Y0253161D03*
X0120675Y0255036D03*
X0135675Y0253161D03*
X0128800Y0269411D03*
X0105675Y0264411D03*
X0074425Y0242536D03*
X0083800Y0235036D03*
X0107550Y0205036D03*
X0112550Y0200036D03*
X0126300Y0196911D03*
X0116300Y0185036D03*
X0111300Y0180036D03*
X0090675Y0189411D03*
X0069425Y0191911D03*
X0134425Y0153786D03*
X0140675Y0176286D03*
X0148800Y0180661D03*
X0120675Y0122536D03*
X0125675Y0115036D03*
X0131300Y0113161D03*
X0158175Y0096286D03*
X0147550Y0087536D03*
X0280675Y0161911D03*
X0473175Y0259411D03*
M02*
