G75*
%MOIN*%
%OFA0B0*%
%FSLAX25Y25*%
%IPPOS*%
%LPD*%
%AMOC8*
5,1,8,0,0,1.08239X$1,22.5*
%
%ADD10C,0.22800*%
%ADD11C,0.08800*%
%ADD12R,0.06050X0.06050*%
%ADD13OC8,0.05800*%
%ADD14R,0.03556X0.04343*%
%ADD15R,0.10800X0.05800*%
%ADD16R,0.05800X0.10800*%
%ADD17OC8,0.09300*%
%ADD18C,0.06800*%
%ADD19R,0.03900X0.04300*%
%ADD20OC8,0.13200*%
%ADD21R,0.05512X0.01575*%
%ADD22R,0.09252X0.07480*%
%ADD23C,0.04343*%
%ADD24OC8,0.09650*%
%ADD25C,0.09650*%
%ADD26C,0.03500*%
D10*
X0189858Y0382739D03*
X0499858Y0382739D03*
D11*
X0444858Y0215239D03*
X0244858Y0215239D03*
D12*
X0189858Y0227739D03*
X0189858Y0187739D03*
X0114858Y0187739D03*
X0114858Y0227739D03*
X0498858Y0226739D03*
X0498858Y0186739D03*
X0573858Y0186739D03*
X0573858Y0226739D03*
D13*
X0474858Y0322739D03*
X0482358Y0327739D03*
X0474858Y0332739D03*
D14*
X0190417Y0323739D03*
X0185299Y0323739D03*
X0185299Y0313739D03*
X0190417Y0313739D03*
X0189917Y0360239D03*
X0184799Y0360239D03*
X0166917Y0376239D03*
X0161799Y0376239D03*
X0162299Y0382739D03*
X0167417Y0382739D03*
X0167417Y0390239D03*
X0162299Y0390239D03*
X0162299Y0397739D03*
X0167417Y0397739D03*
X0167417Y0405239D03*
X0162299Y0405239D03*
D15*
X0277058Y0234139D03*
X0277658Y0216339D03*
X0302658Y0216339D03*
X0302658Y0234139D03*
X0354558Y0234139D03*
X0355158Y0216339D03*
X0380158Y0216339D03*
X0380158Y0234139D03*
X0402058Y0234139D03*
X0402658Y0216339D03*
X0427658Y0216339D03*
X0427658Y0234139D03*
D16*
X0515958Y0272439D03*
X0533758Y0272439D03*
X0533758Y0298039D03*
X0515958Y0297439D03*
X0515958Y0337439D03*
X0533758Y0337439D03*
X0533758Y0363039D03*
X0515958Y0362439D03*
X0176258Y0363039D03*
X0158458Y0362439D03*
X0158458Y0337439D03*
X0176258Y0337439D03*
X0176258Y0300539D03*
X0158458Y0299939D03*
X0158458Y0274939D03*
X0176258Y0274939D03*
D17*
X0537058Y0387739D03*
X0562658Y0387739D03*
D18*
X0380358Y0204239D02*
X0380358Y0198239D01*
X0370358Y0198239D02*
X0370358Y0204239D01*
X0360358Y0204239D02*
X0360358Y0198239D01*
X0350358Y0198239D02*
X0350358Y0204239D01*
X0340358Y0204239D02*
X0340358Y0198239D01*
X0330358Y0198239D02*
X0330358Y0204239D01*
X0320358Y0204239D02*
X0320358Y0198239D01*
X0310358Y0198239D02*
X0310358Y0204239D01*
D19*
X0191258Y0331239D03*
X0183658Y0331239D03*
X0187458Y0339239D03*
X0183658Y0346239D03*
X0191258Y0346239D03*
X0187458Y0354239D03*
D20*
X0468858Y0349739D03*
X0468858Y0367239D03*
D21*
X0209563Y0366924D03*
X0209563Y0368892D03*
X0209563Y0370861D03*
X0209563Y0372829D03*
X0209563Y0374798D03*
X0209563Y0376766D03*
X0209563Y0378735D03*
X0209563Y0380703D03*
X0209563Y0382672D03*
X0209563Y0384640D03*
X0209563Y0386609D03*
X0209563Y0388577D03*
X0209563Y0390546D03*
X0209563Y0392514D03*
X0209563Y0394483D03*
X0209563Y0396451D03*
X0209563Y0398420D03*
X0209563Y0364955D03*
X0209563Y0362987D03*
X0209563Y0361018D03*
X0209563Y0359050D03*
X0209563Y0357081D03*
X0209563Y0355113D03*
X0209563Y0353144D03*
X0209563Y0351176D03*
X0209563Y0349207D03*
X0209563Y0347239D03*
X0209563Y0345270D03*
X0209563Y0343302D03*
X0209563Y0341333D03*
X0209563Y0339365D03*
X0209563Y0337396D03*
X0209563Y0335428D03*
X0209563Y0333459D03*
X0209563Y0331491D03*
X0209563Y0329522D03*
X0209563Y0327554D03*
X0209563Y0325585D03*
X0209563Y0323617D03*
X0209563Y0321648D03*
X0209563Y0319680D03*
X0209563Y0317711D03*
X0209563Y0315743D03*
X0209563Y0313774D03*
X0209563Y0311806D03*
D22*
X0222358Y0304325D03*
X0222358Y0405900D03*
D23*
X0283697Y0172739D03*
X0301020Y0172739D03*
X0382697Y0173739D03*
X0400020Y0173739D03*
D24*
X0246658Y0159039D03*
X0265158Y0171839D03*
X0263058Y0201339D03*
X0440658Y0160039D03*
X0459158Y0172839D03*
X0457058Y0202339D03*
D25*
X0430458Y0185439D03*
X0420558Y0190939D03*
X0236458Y0184439D03*
X0226558Y0189939D03*
D26*
X0233758Y0219339D03*
X0253858Y0234339D03*
X0246958Y0237639D03*
X0249358Y0240039D03*
X0253858Y0240039D03*
X0260458Y0240039D03*
X0264358Y0240039D03*
X0269458Y0237039D03*
X0270358Y0244539D03*
X0258058Y0258339D03*
X0261358Y0260739D03*
X0263458Y0265539D03*
X0257158Y0265839D03*
X0251458Y0268239D03*
X0245758Y0270639D03*
X0231058Y0260139D03*
X0215158Y0265539D03*
X0211258Y0265839D03*
X0207958Y0262539D03*
X0199558Y0263739D03*
X0194158Y0263739D03*
X0194158Y0274539D03*
X0196558Y0284139D03*
X0203158Y0287439D03*
X0207058Y0283539D03*
X0208258Y0277839D03*
X0211258Y0272739D03*
X0229558Y0279639D03*
X0220558Y0291339D03*
X0215158Y0294039D03*
X0200158Y0297939D03*
X0190558Y0297939D03*
X0190558Y0301239D03*
X0195958Y0306639D03*
X0203758Y0311739D03*
X0220558Y0309939D03*
X0220558Y0331539D03*
X0204058Y0330939D03*
X0202558Y0334239D03*
X0204958Y0340239D03*
X0200158Y0343239D03*
X0200158Y0348639D03*
X0194758Y0347439D03*
X0191758Y0350439D03*
X0188458Y0350439D03*
X0192358Y0356439D03*
X0196258Y0358539D03*
X0201058Y0359139D03*
X0196858Y0364539D03*
X0180958Y0361239D03*
X0170158Y0370239D03*
X0158458Y0376539D03*
X0151258Y0385839D03*
X0155158Y0388539D03*
X0158758Y0392139D03*
X0165058Y0386439D03*
X0170758Y0388839D03*
X0158758Y0405939D03*
X0138058Y0385839D03*
X0131758Y0378339D03*
X0137758Y0372339D03*
X0139258Y0365439D03*
X0120958Y0377139D03*
X0118558Y0381339D03*
X0126958Y0401739D03*
X0193558Y0405039D03*
X0212458Y0402339D03*
X0214258Y0397239D03*
X0214258Y0390639D03*
X0216058Y0382539D03*
X0218758Y0379839D03*
X0221458Y0383439D03*
X0214258Y0376539D03*
X0214258Y0358839D03*
X0195958Y0339039D03*
X0193258Y0335139D03*
X0189958Y0335139D03*
X0181858Y0325539D03*
X0168358Y0337839D03*
X0168358Y0341139D03*
X0180058Y0344739D03*
X0163558Y0331239D03*
X0158758Y0326439D03*
X0130558Y0322239D03*
X0128158Y0318039D03*
X0130558Y0306639D03*
X0120058Y0304839D03*
X0135958Y0279939D03*
X0138058Y0266739D03*
X0160558Y0260439D03*
X0171358Y0264039D03*
X0170158Y0268839D03*
X0170158Y0275439D03*
X0177958Y0282039D03*
X0183058Y0282939D03*
X0173758Y0292239D03*
X0162958Y0298239D03*
X0163558Y0302139D03*
X0253858Y0290439D03*
X0270658Y0290439D03*
X0275758Y0275739D03*
X0275458Y0272139D03*
X0288658Y0283239D03*
X0297958Y0278439D03*
X0301258Y0278139D03*
X0314458Y0273339D03*
X0320158Y0265239D03*
X0326758Y0258339D03*
X0314458Y0248739D03*
X0321658Y0246339D03*
X0337558Y0236739D03*
X0343558Y0231939D03*
X0348358Y0228039D03*
X0354958Y0238839D03*
X0345958Y0240939D03*
X0335158Y0230139D03*
X0321358Y0221439D03*
X0315958Y0219039D03*
X0308758Y0221139D03*
X0300958Y0222339D03*
X0292858Y0232839D03*
X0296758Y0238539D03*
X0294058Y0242739D03*
X0288058Y0255639D03*
X0294058Y0258339D03*
X0297358Y0268239D03*
X0314458Y0283239D03*
X0320458Y0285639D03*
X0323758Y0292839D03*
X0336358Y0278139D03*
X0342058Y0280539D03*
X0357658Y0285639D03*
X0363958Y0287739D03*
X0363058Y0280239D03*
X0363058Y0276939D03*
X0365458Y0272739D03*
X0357058Y0267639D03*
X0375058Y0262839D03*
X0378358Y0262839D03*
X0386758Y0259839D03*
X0389158Y0257439D03*
X0395158Y0259839D03*
X0402058Y0249639D03*
X0398458Y0247239D03*
X0386458Y0246339D03*
X0377158Y0240039D03*
X0372358Y0247239D03*
X0369958Y0242439D03*
X0377158Y0222639D03*
X0372958Y0218439D03*
X0388858Y0216039D03*
X0388858Y0222639D03*
X0400258Y0227439D03*
X0412258Y0242739D03*
X0426058Y0241839D03*
X0433258Y0269139D03*
X0453058Y0269439D03*
X0461758Y0273339D03*
X0455458Y0279639D03*
X0468358Y0291039D03*
X0475558Y0298239D03*
X0472258Y0299139D03*
X0461758Y0300339D03*
X0474058Y0308739D03*
X0489058Y0304839D03*
X0494458Y0308439D03*
X0504958Y0311439D03*
X0500158Y0319539D03*
X0489358Y0319539D03*
X0465958Y0331539D03*
X0468358Y0337539D03*
X0476458Y0342039D03*
X0476158Y0345339D03*
X0489358Y0341739D03*
X0476758Y0363339D03*
X0474058Y0386439D03*
X0529258Y0366939D03*
X0538258Y0358539D03*
X0569158Y0348339D03*
X0561358Y0335739D03*
X0558658Y0329139D03*
X0572158Y0329139D03*
X0539458Y0318039D03*
X0538258Y0297939D03*
X0513358Y0264639D03*
X0516358Y0261039D03*
X0473158Y0285039D03*
X0491158Y0292239D03*
X0463558Y0244239D03*
X0466558Y0239139D03*
X0408958Y0211239D03*
X0392158Y0204639D03*
X0385558Y0197739D03*
X0387358Y0193839D03*
X0392158Y0195039D03*
X0381958Y0187539D03*
X0365758Y0190239D03*
X0354958Y0195639D03*
X0363658Y0180339D03*
X0343558Y0172239D03*
X0341158Y0176439D03*
X0336058Y0167139D03*
X0325558Y0186639D03*
X0317758Y0187839D03*
X0286858Y0192939D03*
X0283558Y0192939D03*
X0264958Y0185439D03*
X0271558Y0175539D03*
X0208858Y0222939D03*
X0378358Y0278439D03*
X0386458Y0287439D03*
X0399058Y0292239D03*
X0407758Y0294639D03*
X0400858Y0277839D03*
X0418858Y0181539D03*
M02*
