%
M48
M72
T01C0.01500
T02C0.03200
T03C0.03500
T04C0.03543
T05C0.03600
T06C0.03937
T07C0.04000
T08C0.07900
T09C0.08000
T10C0.22000
%
T01
X282958Y173339
X304558Y180539
X318658Y185339
X326758Y199439
X316258Y201839
X319558Y208439
X332758Y224939
X330358Y229739
X343858Y229739
X346258Y218939
X354358Y212939
X366958Y219839
X370858Y203639
X373258Y201239
X345658Y198539
X381358Y173939
X404758Y186239
X409558Y210839
X394858Y225539
X405658Y238439
X402658Y246239
X410158Y254639
X401458Y264239
X401458Y269039
X401458Y273839
X387358Y269339
X377758Y271739
X371158Y272039
X371158Y275339
X376258Y280439
X378358Y285839
X357958Y282539
X357358Y264239
X360658Y264239
X371158Y253739
X368458Y251039
X362758Y248639
X368158Y238139
X373258Y235739
X374758Y245639
X378358Y263939
X420958Y264239
X438658Y257039
X430858Y247739
X440458Y229139
X437158Y227639
X438658Y220139
X453358Y215039
X484258Y223439
X488458Y212339
X486058Y199739
X516658Y246539
X516658Y249839
X525358Y259139
X507058Y262139
X517258Y293039
X531958Y295139
X529558Y305039
X538258Y309239
X552958Y305039
X559858Y298139
X544858Y290039
X546358Y285239
X561358Y318239
X548758Y324239
X538558Y346739
X529258Y354839
X558658Y357839
X578758Y351539
X496258Y331139
X496258Y326339
X499858Y296039
X444058Y285839
X441058Y280439
X441058Y277139
X462658Y255539
X463558Y252239
X561358Y244439
X474058Y376439
X334558Y266639
X332158Y269039
X316858Y266939
X317458Y274139
X315058Y276539
X307858Y269339
X308458Y261839
X310558Y254039
X307858Y249239
X293758Y248039
X290758Y254339
X290158Y261839
X295558Y266039
X287458Y268439
X282058Y270539
X282058Y262439
X269458Y265739
X269758Y269039
X264658Y274439
X258658Y287939
X246958Y273839
X245758Y261539
X239158Y254339
X243358Y251939
X228058Y242939
X220558Y248339
X218758Y251339
X213058Y253739
X218158Y245339
X225658Y255539
X210658Y264839
X212758Y268739
X212758Y272039
X207658Y271139
X203158Y279839
X201058Y283739
X203758Y289439
X208558Y291839
X213058Y284639
X195658Y279839
X195058Y286139
X188458Y279839
X183058Y281039
X179758Y280439
X175858Y280439
X174358Y272339
X171058Y272339
X166858Y279839
X166258Y286739
X168058Y294539
X162058Y296939
X151558Y311339
X158758Y318539
X153958Y320939
X169258Y313439
X180358Y316139
X189958Y323639
X194758Y326039
X199858Y320939
X196858Y319139
X194158Y316439
X204658Y310439
X205258Y303539
X210058Y300539
X198658Y304439
X187558Y297539
X196858Y293039
X222358Y301439
X205858Y321239
X217558Y327239
X215158Y339239
X221758Y343439
X215158Y353339
X215158Y359039
X205858Y363239
X205858Y354839
X203158Y350939
X199858Y350939
X183958Y343139
X171658Y346439
X168958Y353939
X166258Y358139
X168958Y360539
X172258Y380039
X177658Y389039
X205858Y380039
X215158Y382139
X215158Y377339
X215158Y374039
X215158Y370139
X217558Y364739
X215158Y388739
X147658Y361439
X131758Y357539
X131758Y347339
X135658Y347339
X146458Y342539
X149758Y341639
X171658Y334139
X132358Y320939
X128158Y329639
X117658Y329339
X103858Y293939
X117658Y288839
X136558Y284339
X139858Y289139
X183958Y269939
X189658Y253739
X195058Y248339
X218158Y230939
X228658Y232139
X231958Y230639
X228658Y224039
X244258Y233939
X246658Y236339
X257758Y245639
X261658Y238439
X269458Y248039
X282058Y243239
X284458Y245639
X284458Y240839
X295558Y238439
X295558Y222839
X278458Y218039
X269758Y212639
X269758Y204539
X272758Y197339
X266158Y224939
X272458Y228539
X258658Y222239
X217858Y270239
X146158Y246539
X325558Y156239
X345658Y155039
T02
X474858Y283239
X474858Y293239
X474858Y303239
T03
X498858Y215239
X498858Y175239
X573858Y175239
X573858Y215239
X189858Y216239
X189858Y176239
X114858Y176239
X114858Y216239
T04
X283697Y161239
X301020Y161239
X382197Y162239
X399520Y162239
T05
X537058Y376239
X562658Y376239
T06
X236016Y168798
X255701Y168798
X431016Y168798
X450701Y168798
T07
X372358Y191739
X362358Y191739
X352358Y191739
X342358Y191739
X332358Y191739
X322358Y191739
X312358Y191739
X302358Y191739
T08
X468858Y338239
X468858Y355739
T09
X444858Y202739
X244858Y202739
T10
X188858Y371239
X497858Y371239
M30
