G75*
%MOIN*%
%OFA0B0*%
%FSLAX25Y25*%
%IPPOS*%
%LPD*%
%AMOC8*
5,1,8,0,0,1.08239X$1,22.5*
%
%ADD10C,0.22800*%
%ADD11C,0.08800*%
%ADD12R,0.05918X0.06706*%
%ADD13R,0.07099X0.07887*%
%ADD14R,0.06706X0.05918*%
%ADD15R,0.07887X0.07099*%
%ADD16R,0.03950X0.03162*%
%ADD17R,0.06050X0.06050*%
%ADD18R,0.07099X0.04737*%
%ADD19R,0.25209X0.22060*%
%ADD20R,0.09461X0.03162*%
%ADD21R,0.22060X0.25209*%
%ADD22R,0.04737X0.07099*%
%ADD23R,0.04737X0.02178*%
%ADD24R,0.03162X0.09461*%
%ADD25R,0.10249X0.06312*%
%ADD26R,0.06312X0.03556*%
%ADD27R,0.04737X0.05131*%
%ADD28R,0.05131X0.04737*%
%ADD29OC8,0.09300*%
%ADD30C,0.06800*%
%ADD31R,0.04300X0.03900*%
%ADD32R,0.03900X0.04300*%
%ADD33OC8,0.13200*%
%ADD34R,0.08674X0.10643*%
%ADD35R,0.08674X0.13792*%
%ADD36R,0.02769X0.13005*%
%ADD37C,0.04343*%
%ADD38R,0.05000X0.09400*%
%ADD39R,0.09400X0.05000*%
%ADD40OC8,0.05600*%
%ADD41R,0.10643X0.08674*%
%ADD42R,0.10643X0.06706*%
%ADD43C,0.04737*%
%ADD44C,0.03500*%
D10*
X0188858Y0371239D03*
X0497858Y0371239D03*
D11*
X0444858Y0202739D03*
X0244858Y0202739D03*
D12*
X0221098Y0214239D03*
X0213618Y0214239D03*
X0148598Y0281239D03*
X0141118Y0281239D03*
X0330118Y0179239D03*
X0337598Y0179239D03*
X0345118Y0179239D03*
X0352598Y0179239D03*
X0406118Y0261239D03*
X0413598Y0261239D03*
X0413598Y0271239D03*
X0406118Y0271239D03*
X0496118Y0321239D03*
X0503598Y0321239D03*
X0503598Y0336239D03*
X0496118Y0336239D03*
D13*
X0481370Y0322739D03*
X0470346Y0322739D03*
X0551846Y0291239D03*
X0562870Y0291239D03*
X0562870Y0281239D03*
X0551846Y0281239D03*
X0490370Y0391239D03*
X0479346Y0391239D03*
X0264870Y0217239D03*
X0253846Y0217239D03*
X0223370Y0232739D03*
X0212346Y0232739D03*
D14*
X0412358Y0242498D03*
X0412358Y0249979D03*
D15*
X0111858Y0315727D03*
X0111858Y0326750D03*
D16*
X0154437Y0252739D03*
X0164280Y0252739D03*
X0324937Y0148239D03*
X0334780Y0148239D03*
X0343937Y0148239D03*
X0353780Y0148239D03*
X0510937Y0249739D03*
X0520780Y0249739D03*
X0479780Y0311239D03*
X0469937Y0311239D03*
D17*
X0498858Y0215239D03*
X0498858Y0175239D03*
X0573858Y0175239D03*
X0573858Y0215239D03*
X0189858Y0216239D03*
X0189858Y0176239D03*
X0114858Y0176239D03*
X0114858Y0216239D03*
D18*
X0146256Y0252262D03*
X0146256Y0270215D03*
X0545961Y0270215D03*
X0545961Y0252262D03*
D19*
X0574701Y0261239D03*
X0117516Y0261239D03*
D20*
X0275748Y0261739D03*
X0275748Y0256739D03*
X0275748Y0251739D03*
X0275748Y0246739D03*
X0275748Y0241739D03*
X0275748Y0236739D03*
X0275748Y0231739D03*
X0301968Y0231739D03*
X0301968Y0236739D03*
X0301968Y0241739D03*
X0301968Y0246739D03*
X0301968Y0251739D03*
X0301968Y0256739D03*
X0301968Y0261739D03*
X0301968Y0266739D03*
X0301968Y0271739D03*
X0301968Y0276739D03*
X0275748Y0276739D03*
X0275748Y0271739D03*
X0275748Y0266739D03*
X0331622Y0168739D03*
X0331622Y0163739D03*
X0331622Y0158739D03*
X0331622Y0153739D03*
X0352094Y0153739D03*
X0352094Y0158739D03*
X0352094Y0163739D03*
X0352094Y0168739D03*
X0446748Y0217739D03*
X0446748Y0222739D03*
X0446748Y0227739D03*
X0446748Y0232739D03*
X0446748Y0237739D03*
X0446748Y0242739D03*
X0446748Y0247739D03*
X0446748Y0252739D03*
X0446748Y0257739D03*
X0446748Y0262739D03*
X0472968Y0262739D03*
X0472968Y0257739D03*
X0472968Y0252739D03*
X0472968Y0247739D03*
X0472968Y0242739D03*
X0472968Y0237739D03*
X0472968Y0232739D03*
X0472968Y0227739D03*
X0472968Y0222739D03*
X0472968Y0217739D03*
D21*
X0552358Y0338581D03*
D22*
X0543382Y0309841D03*
X0561335Y0309841D03*
D23*
X0382516Y0276770D03*
X0382516Y0274211D03*
X0382516Y0271652D03*
X0382516Y0269093D03*
X0382516Y0266534D03*
X0382516Y0263975D03*
X0382516Y0261416D03*
X0382516Y0258857D03*
X0382516Y0256298D03*
X0382516Y0253739D03*
X0382516Y0251180D03*
X0382516Y0248620D03*
X0382516Y0246061D03*
X0382516Y0243502D03*
X0382516Y0240943D03*
X0382516Y0238384D03*
X0382516Y0235825D03*
X0382516Y0233266D03*
X0382516Y0230707D03*
X0352201Y0230707D03*
X0352201Y0233266D03*
X0352201Y0235825D03*
X0352201Y0238384D03*
X0352201Y0240943D03*
X0352201Y0243502D03*
X0352201Y0246061D03*
X0352201Y0248620D03*
X0352201Y0251180D03*
X0352201Y0253739D03*
X0352201Y0256298D03*
X0352201Y0258857D03*
X0352201Y0261416D03*
X0352201Y0263975D03*
X0352201Y0266534D03*
X0352201Y0269093D03*
X0352201Y0271652D03*
X0352201Y0274211D03*
X0352201Y0276770D03*
D24*
X0569858Y0281002D03*
X0574858Y0281002D03*
X0579858Y0281002D03*
X0584858Y0281002D03*
X0584858Y0301475D03*
X0579858Y0301475D03*
X0574858Y0301475D03*
X0569858Y0301475D03*
X0122358Y0301475D03*
X0117358Y0301475D03*
X0112358Y0301475D03*
X0107358Y0301475D03*
X0107358Y0281002D03*
X0112358Y0281002D03*
X0117358Y0281002D03*
X0122358Y0281002D03*
D25*
X0519858Y0371514D03*
X0519858Y0380963D03*
D26*
X0402358Y0249585D03*
X0402358Y0242892D03*
D27*
X0486512Y0306239D03*
X0493205Y0306239D03*
X0501512Y0306239D03*
X0508205Y0306239D03*
X0485705Y0331239D03*
X0479012Y0331239D03*
X0496512Y0346239D03*
X0503205Y0346239D03*
X0480705Y0380739D03*
X0474012Y0380739D03*
X0571512Y0341239D03*
X0578205Y0341239D03*
X0578205Y0333739D03*
X0571512Y0333739D03*
X0571512Y0323739D03*
X0578205Y0323739D03*
X0578205Y0313739D03*
X0571512Y0313739D03*
X0536705Y0249739D03*
X0530012Y0249739D03*
X0190705Y0293739D03*
X0184012Y0293739D03*
X0176205Y0301239D03*
X0169512Y0301239D03*
X0161205Y0301239D03*
X0154512Y0301239D03*
X0155512Y0311239D03*
X0162205Y0311239D03*
X0145705Y0311239D03*
X0139012Y0311239D03*
X0128705Y0317239D03*
X0122012Y0317239D03*
X0121012Y0325239D03*
X0127705Y0325239D03*
X0128205Y0334239D03*
X0121512Y0334239D03*
X0121512Y0342239D03*
X0128205Y0342239D03*
X0128205Y0351739D03*
X0121512Y0351739D03*
X0139012Y0336239D03*
X0145705Y0336239D03*
X0144012Y0291239D03*
X0150705Y0291239D03*
X0135705Y0291239D03*
X0129012Y0291239D03*
X0157512Y0263739D03*
X0164205Y0263739D03*
X0145705Y0394239D03*
X0139012Y0394239D03*
D28*
X0214858Y0264585D03*
X0214858Y0257892D03*
X0205358Y0199585D03*
X0205358Y0192892D03*
X0321858Y0173585D03*
X0321858Y0166892D03*
X0321858Y0159585D03*
X0321858Y0152892D03*
X0360858Y0152892D03*
X0360858Y0159585D03*
X0360858Y0166892D03*
X0360858Y0173585D03*
X0402358Y0227892D03*
X0402358Y0234585D03*
X0483858Y0219085D03*
X0483858Y0212392D03*
X0483358Y0195585D03*
X0483358Y0188892D03*
X0484858Y0236892D03*
X0484858Y0243585D03*
X0484858Y0250892D03*
X0484858Y0257585D03*
X0484858Y0264892D03*
X0484858Y0271585D03*
X0533858Y0307892D03*
X0533858Y0314585D03*
D29*
X0537058Y0376239D03*
X0562658Y0376239D03*
D30*
X0372358Y0194739D02*
X0372358Y0188739D01*
X0362358Y0188739D02*
X0362358Y0194739D01*
X0352358Y0194739D02*
X0352358Y0188739D01*
X0342358Y0188739D02*
X0342358Y0194739D01*
X0332358Y0194739D02*
X0332358Y0188739D01*
X0322358Y0188739D02*
X0322358Y0194739D01*
X0312358Y0194739D02*
X0312358Y0188739D01*
X0302358Y0188739D02*
X0302358Y0194739D01*
D31*
X0486358Y0342339D03*
X0478358Y0346139D03*
X0486358Y0349939D03*
X0127858Y0358339D03*
X0119858Y0362139D03*
X0127858Y0365939D03*
D32*
X0138658Y0365239D03*
X0146258Y0365239D03*
X0142458Y0357239D03*
X0139158Y0350239D03*
X0146758Y0350239D03*
X0142958Y0342239D03*
X0141758Y0326739D03*
X0137958Y0318739D03*
X0145558Y0318739D03*
X0141758Y0305739D03*
X0137958Y0297739D03*
X0145558Y0297739D03*
X0169958Y0308239D03*
X0177558Y0308239D03*
X0173758Y0316239D03*
X0142458Y0377239D03*
X0138658Y0385239D03*
X0146258Y0385239D03*
X0473958Y0366739D03*
X0481558Y0366739D03*
X0477758Y0374739D03*
X0516158Y0315239D03*
X0523758Y0315239D03*
X0519958Y0307239D03*
X0524758Y0300239D03*
X0520958Y0292239D03*
X0528558Y0292239D03*
X0536158Y0300239D03*
X0543758Y0300239D03*
X0539958Y0292239D03*
X0574958Y0347239D03*
X0571158Y0355239D03*
X0578758Y0355239D03*
D33*
X0468858Y0355739D03*
X0468858Y0338239D03*
D34*
X0408378Y0150428D03*
X0373339Y0150428D03*
X0309878Y0149428D03*
X0274839Y0149428D03*
D35*
X0274839Y0172656D03*
X0309878Y0172656D03*
X0373339Y0173656D03*
X0408378Y0173656D03*
D36*
X0397157Y0174050D03*
X0394008Y0174050D03*
X0390858Y0174050D03*
X0387709Y0174050D03*
X0384559Y0174050D03*
X0298657Y0173050D03*
X0295508Y0173050D03*
X0292358Y0173050D03*
X0289209Y0173050D03*
X0286059Y0173050D03*
D37*
X0283697Y0161239D03*
X0301020Y0161239D03*
X0382197Y0162239D03*
X0399520Y0162239D03*
D38*
X0517453Y0282187D03*
X0529067Y0282187D03*
X0188764Y0265790D03*
X0177150Y0265790D03*
D39*
X0177150Y0284687D03*
X0188764Y0284687D03*
X0517453Y0263290D03*
X0529067Y0263290D03*
D40*
X0474858Y0283239D03*
X0474858Y0293239D03*
X0474858Y0303239D03*
D41*
X0231094Y0148719D03*
X0260622Y0148719D03*
X0426094Y0148719D03*
X0455622Y0148719D03*
D42*
X0455622Y0183561D03*
X0426094Y0183561D03*
X0260622Y0183561D03*
X0231094Y0183561D03*
D43*
X0236016Y0168798D03*
X0255701Y0168798D03*
X0431016Y0168798D03*
X0450701Y0168798D03*
D44*
X0486058Y0199739D03*
X0488458Y0212339D03*
X0484258Y0223439D03*
X0453358Y0215039D03*
X0438658Y0220139D03*
X0437158Y0227639D03*
X0440458Y0229139D03*
X0430858Y0247739D03*
X0438658Y0257039D03*
X0420958Y0264239D03*
X0410158Y0254639D03*
X0402658Y0246239D03*
X0405658Y0238439D03*
X0394858Y0225539D03*
X0409558Y0210839D03*
X0404758Y0186239D03*
X0381358Y0173939D03*
X0345658Y0155039D03*
X0325558Y0156239D03*
X0304558Y0180539D03*
X0318658Y0185339D03*
X0326758Y0199439D03*
X0316258Y0201839D03*
X0319558Y0208439D03*
X0332758Y0224939D03*
X0330358Y0229739D03*
X0343858Y0229739D03*
X0346258Y0218939D03*
X0354358Y0212939D03*
X0366958Y0219839D03*
X0370858Y0203639D03*
X0373258Y0201239D03*
X0345658Y0198539D03*
X0295558Y0222839D03*
X0278458Y0218039D03*
X0269758Y0212639D03*
X0269758Y0204539D03*
X0272758Y0197339D03*
X0282958Y0173339D03*
X0266158Y0224939D03*
X0272458Y0228539D03*
X0258658Y0222239D03*
X0246658Y0236339D03*
X0244258Y0233939D03*
X0231958Y0230639D03*
X0228658Y0232139D03*
X0228658Y0224039D03*
X0218158Y0230939D03*
X0218158Y0245339D03*
X0220558Y0248339D03*
X0218758Y0251339D03*
X0213058Y0253739D03*
X0225658Y0255539D03*
X0210658Y0264839D03*
X0212758Y0268739D03*
X0212758Y0272039D03*
X0207658Y0271139D03*
X0203158Y0279839D03*
X0201058Y0283739D03*
X0203758Y0289439D03*
X0208558Y0291839D03*
X0213058Y0284639D03*
X0195658Y0279839D03*
X0195058Y0286139D03*
X0188458Y0279839D03*
X0183058Y0281039D03*
X0179758Y0280439D03*
X0175858Y0280439D03*
X0174358Y0272339D03*
X0171058Y0272339D03*
X0166858Y0279839D03*
X0166258Y0286739D03*
X0168058Y0294539D03*
X0162058Y0296939D03*
X0151558Y0311339D03*
X0158758Y0318539D03*
X0153958Y0320939D03*
X0169258Y0313439D03*
X0180358Y0316139D03*
X0189958Y0323639D03*
X0194758Y0326039D03*
X0199858Y0320939D03*
X0196858Y0319139D03*
X0194158Y0316439D03*
X0204658Y0310439D03*
X0205258Y0303539D03*
X0210058Y0300539D03*
X0198658Y0304439D03*
X0187558Y0297539D03*
X0196858Y0293039D03*
X0222358Y0301439D03*
X0205858Y0321239D03*
X0217558Y0327239D03*
X0215158Y0339239D03*
X0221758Y0343439D03*
X0215158Y0353339D03*
X0215158Y0359039D03*
X0205858Y0363239D03*
X0205858Y0354839D03*
X0203158Y0350939D03*
X0199858Y0350939D03*
X0183958Y0343139D03*
X0171658Y0346439D03*
X0168958Y0353939D03*
X0166258Y0358139D03*
X0168958Y0360539D03*
X0172258Y0380039D03*
X0177658Y0389039D03*
X0205858Y0380039D03*
X0215158Y0382139D03*
X0215158Y0377339D03*
X0215158Y0374039D03*
X0215158Y0370139D03*
X0217558Y0364739D03*
X0215158Y0388739D03*
X0147658Y0361439D03*
X0131758Y0357539D03*
X0131758Y0347339D03*
X0135658Y0347339D03*
X0146458Y0342539D03*
X0149758Y0341639D03*
X0171658Y0334139D03*
X0132358Y0320939D03*
X0128158Y0329639D03*
X0117658Y0329339D03*
X0103858Y0293939D03*
X0117658Y0288839D03*
X0136558Y0284339D03*
X0139858Y0289139D03*
X0183958Y0269939D03*
X0189658Y0253739D03*
X0195058Y0248339D03*
X0217858Y0270239D03*
X0239158Y0254339D03*
X0243358Y0251939D03*
X0245758Y0261539D03*
X0246958Y0273839D03*
X0264658Y0274439D03*
X0269758Y0269039D03*
X0269458Y0265739D03*
X0282058Y0262439D03*
X0287458Y0268439D03*
X0282058Y0270539D03*
X0295558Y0266039D03*
X0290158Y0261839D03*
X0290758Y0254339D03*
X0293758Y0248039D03*
X0284458Y0245639D03*
X0282058Y0243239D03*
X0284458Y0240839D03*
X0295558Y0238439D03*
X0307858Y0249239D03*
X0310558Y0254039D03*
X0308458Y0261839D03*
X0307858Y0269339D03*
X0316858Y0266939D03*
X0317458Y0274139D03*
X0315058Y0276539D03*
X0332158Y0269039D03*
X0334558Y0266639D03*
X0357358Y0264239D03*
X0360658Y0264239D03*
X0371158Y0272039D03*
X0371158Y0275339D03*
X0376258Y0280439D03*
X0378358Y0285839D03*
X0377758Y0271739D03*
X0387358Y0269339D03*
X0378358Y0263939D03*
X0371158Y0253739D03*
X0368458Y0251039D03*
X0362758Y0248639D03*
X0368158Y0238139D03*
X0373258Y0235739D03*
X0374758Y0245639D03*
X0401458Y0264239D03*
X0401458Y0269039D03*
X0401458Y0273839D03*
X0441058Y0277139D03*
X0441058Y0280439D03*
X0444058Y0285839D03*
X0462658Y0255539D03*
X0463558Y0252239D03*
X0507058Y0262139D03*
X0516658Y0249839D03*
X0516658Y0246539D03*
X0525358Y0259139D03*
X0546358Y0285239D03*
X0544858Y0290039D03*
X0559858Y0298139D03*
X0552958Y0305039D03*
X0538258Y0309239D03*
X0529558Y0305039D03*
X0531958Y0295139D03*
X0517258Y0293039D03*
X0499858Y0296039D03*
X0496258Y0326339D03*
X0496258Y0331139D03*
X0529258Y0354839D03*
X0538558Y0346739D03*
X0558658Y0357839D03*
X0578758Y0351539D03*
X0548758Y0324239D03*
X0561358Y0318239D03*
X0474058Y0376439D03*
X0357958Y0282539D03*
X0269458Y0248039D03*
X0257758Y0245639D03*
X0261658Y0238439D03*
X0228058Y0242939D03*
X0258658Y0287939D03*
X0146158Y0246539D03*
X0561358Y0244439D03*
M02*
