%
M48
M72
T01C0.01500
T02C0.03150
T03C0.03200
T04C0.03500
T05C0.03600
T06C0.03937
T07C0.04000
T08C0.07900
T09C0.08000
T10C0.22000
%
T01
X130864Y65686
X136564Y67186
X127264Y82186
X105664Y94186
X103264Y98086
X97864Y111586
X106864Y119086
X110464Y116686
X106864Y125386
X126364Y125386
X132364Y123886
X126964Y119086
X146464Y133786
X144364Y136786
X152764Y136186
X158764Y136186
X161164Y140386
X165664Y141586
X170164Y137986
X172564Y141586
X175864Y144886
X187864Y143386
X203164Y152086
X187864Y154486
X227164Y139786
X234964Y134386
X239464Y128986
X227164Y129886
X229564Y122386
X261364Y102886
X279964Y94186
X261364Y84886
X268864Y78586
X300964Y85186
X318064Y86386
X309664Y69586
X318664Y55786
X348364Y67786
X383464Y89986
X393064Y88786
X380464Y105886
X372964Y118786
X380164Y123286
X365764Y129286
X363364Y125086
X352864Y132886
X335464Y131386
X333064Y133786
X328564Y132286
X330664Y142786
X324964Y145186
X310564Y131686
X297664Y141886
X305164Y144286
X293164Y149686
X281464Y155686
X274264Y158086
X268264Y154186
X262864Y152086
X264064Y146686
X274264Y151786
X263464Y158086
X250864Y152086
X245764Y141886
X241264Y142486
X264964Y126586
X262864Y123886
X280264Y115486
X280264Y112186
X293164Y121486
X293164Y126886
X293164Y134086
X284764Y139486
X282364Y142186
X277864Y144286
X275464Y139486
X312064Y158086
X350164Y155686
X355864Y153286
X369664Y143986
X369964Y139186
X370564Y135286
X384364Y147886
X364564Y163486
X391864Y172186
X395764Y168886
X422164Y172786
X420964Y180886
X433564Y180586
X438664Y172786
X435964Y166786
X444964Y157486
X449164Y164086
X463864Y152986
X447364Y143686
X442564Y143686
X448564Y137686
X427864Y149986
X417964Y131386
X415564Y128686
X423064Y125086
X434164Y125086
X402664Y128686
X357064Y113386
X355864Y95386
X326164Y120586
X305164Y113986
X305164Y109486
X233464Y83986
X224764Y83986
X224164Y92986
X224164Y96286
X197464Y88186
X205864Y75886
X204364Y65986
X189664Y48886
X238864Y50686
X286564Y46786
X177964Y103486
X165364Y97786
X166264Y92986
X164164Y104686
X159964Y118786
X165664Y121186
X187864Y121786
X188464Y113986
X132664Y136786
X130264Y139186
X125164Y147586
X111364Y147886
X107164Y148186
X78364Y142786
X75964Y152986
X65464Y153286
X48664Y151786
X48364Y163786
X64564Y173386
X67864Y172786
X70864Y170986
X52264Y182386
X60064Y183586
X66664Y190786
X75364Y189886
X73564Y196486
X69964Y194086
X72364Y199786
X86164Y192886
X88564Y187186
X96664Y199186
X103564Y197386
X108364Y195286
X111664Y195286
X121264Y200386
X128764Y204586
X128764Y207886
X126064Y209986
X123664Y216886
X111664Y224386
X111064Y229486
X106264Y229486
X120964Y237286
X120964Y240586
X126664Y242686
X121864Y247486
X122164Y253486
X94564Y265786
X79864Y255886
X77464Y252886
X61864Y240586
X45364Y236986
X40264Y243886
X31864Y237286
X17764Y237886
X45964Y229486
X78364Y230686
X87664Y227386
X78364Y214786
X87664Y206686
X98464Y202486
X100864Y206686
X104464Y204586
X108064Y204286
X106864Y207586
X127564Y185086
X126064Y173986
X97564Y173086
X44764Y197986
X38764Y196786
X34264Y204586
X51364Y207586
X129064Y232486
X71464Y265786
X74164Y273286
X51664Y265486
X81064Y122986
X84964Y119086
X79564Y115786
X69064Y119686
X130564Y102586
X130564Y99286
X380464Y244186
X435964Y230686
X435964Y225586
X436264Y207586
X444964Y199486
X468064Y196186
X478864Y183286
X473164Y176686
X474964Y169186
X478864Y162586
X417964Y197086
X409264Y201886
X405364Y201886
X414664Y192586
T02
X366812Y66361
X340631Y48250
X331182Y53762
X368977Y36046
X351064Y23054
X173477Y36046
X155564Y23054
X145131Y48250
X135682Y53762
X171312Y66361
T03
X381564Y186786
X389064Y191786
X381564Y196786
T04
X21564Y51786
X21564Y91786
X96564Y91786
X96564Y51786
X405564Y50786
X405564Y90786
X480564Y90786
X480564Y50786
T05
X469364Y251786
X443764Y251786
T06
X321434Y43872
X292694Y43872
X292694Y24975
X321434Y24975
X213434Y24975
X184694Y24975
X184694Y43872
X213434Y43872
T07
X217064Y61286
X227064Y61286
X237064Y61286
X247064Y61286
X257064Y61286
X267064Y61286
X277064Y61286
X287064Y61286
T08
X375564Y213786
X375564Y231286
T09
X351564Y79286
X151564Y79286
T10
X116564Y47786
X386564Y47786
X406564Y246786
X96564Y246786
M30
