G75*
%MOIN*%
%OFA0B0*%
%FSLAX25Y25*%
%IPPOS*%
%LPD*%
%AMOC8*
5,1,8,0,0,1.08239X$1,22.5*
%
%ADD10R,0.60000X0.65000*%
%ADD11R,0.65000X0.65000*%
%ADD12R,0.20000X0.35000*%
%ADD13R,2.25000X1.10000*%
%ADD14R,0.05118X0.05906*%
%ADD15R,0.05906X0.05118*%
%ADD16R,0.03150X0.02362*%
%ADD17R,0.05500X0.05500*%
%ADD18R,0.06299X0.03937*%
%ADD19R,0.24409X0.21260*%
%ADD20R,0.08000X0.02600*%
%ADD21R,0.21260X0.24409*%
%ADD22R,0.03937X0.06299*%
%ADD23OC8,0.05200*%
%ADD24R,0.03937X0.01378*%
%ADD25R,0.02362X0.08661*%
%ADD26C,0.06000*%
%ADD27R,0.09449X0.05512*%
%ADD28R,0.05512X0.02756*%
%ADD29R,0.02756X0.03543*%
%ADD30R,0.03543X0.02756*%
%ADD31C,0.05200*%
%ADD32OC8,0.08500*%
%ADD33R,0.03500X0.03100*%
%ADD34R,0.03100X0.03500*%
%ADD35C,0.02362*%
%ADD36C,0.05150*%
%ADD37C,0.05937*%
%ADD38R,0.01969X0.12205*%
%ADD39C,0.00600*%
%ADD40C,0.03100*%
%ADD41C,0.01200*%
D10*
X0051000Y0089204D03*
D11*
X0453500Y0089204D03*
D12*
X0386000Y0054204D03*
X0116000Y0054204D03*
D13*
X0253500Y0251704D03*
D14*
X0292260Y0176704D03*
X0299740Y0176704D03*
X0299740Y0161704D03*
X0292260Y0161704D03*
X0254740Y0121704D03*
X0247260Y0121704D03*
X0247260Y0106704D03*
X0254740Y0106704D03*
X0254740Y0091704D03*
X0247260Y0091704D03*
X0247260Y0076704D03*
X0254740Y0076704D03*
X0254740Y0061704D03*
X0247260Y0061704D03*
X0247260Y0046704D03*
X0254740Y0046704D03*
X0164740Y0126704D03*
X0157260Y0126704D03*
X0074740Y0146704D03*
X0067260Y0146704D03*
X0054740Y0181704D03*
X0047260Y0181704D03*
X0377260Y0291704D03*
X0384740Y0291704D03*
X0397260Y0236704D03*
X0404740Y0236704D03*
X0404740Y0221704D03*
X0397260Y0221704D03*
X0422260Y0199204D03*
X0429740Y0199204D03*
X0404740Y0186704D03*
X0397260Y0186704D03*
X0457260Y0191704D03*
X0464740Y0191704D03*
X0464740Y0181704D03*
X0457260Y0181704D03*
X0447240Y0146704D03*
X0439760Y0146704D03*
X0427240Y0146704D03*
X0419760Y0146704D03*
D15*
X0301000Y0142964D03*
X0301000Y0150444D03*
X0073500Y0160464D03*
X0073500Y0167944D03*
D16*
X0030921Y0146704D03*
X0021079Y0146704D03*
X0456079Y0201704D03*
X0465921Y0201704D03*
X0476079Y0146704D03*
X0485921Y0146704D03*
D17*
X0491000Y0111704D03*
X0491000Y0071704D03*
X0416000Y0071704D03*
X0416000Y0111704D03*
X0086000Y0111704D03*
X0086000Y0071704D03*
X0011000Y0071704D03*
X0011000Y0111704D03*
D18*
X0049898Y0152728D03*
X0049898Y0170680D03*
X0452102Y0170680D03*
X0452102Y0152728D03*
D19*
X0480843Y0161704D03*
X0021157Y0161704D03*
D20*
X0166200Y0164204D03*
X0166200Y0169204D03*
X0166200Y0174204D03*
X0166200Y0179204D03*
X0166200Y0184204D03*
X0166200Y0159204D03*
X0166200Y0154204D03*
X0166200Y0149204D03*
X0166200Y0144204D03*
X0166200Y0139204D03*
X0205800Y0139204D03*
X0205800Y0144204D03*
X0205800Y0149204D03*
X0205800Y0154204D03*
X0205800Y0159204D03*
X0205800Y0164204D03*
X0205800Y0169204D03*
X0205800Y0174204D03*
X0205800Y0179204D03*
X0205800Y0184204D03*
X0316200Y0184204D03*
X0316200Y0179204D03*
X0316200Y0174204D03*
X0316200Y0169204D03*
X0316200Y0164204D03*
X0316200Y0159204D03*
X0316200Y0154204D03*
X0316200Y0149204D03*
X0316200Y0144204D03*
X0316200Y0139204D03*
X0355800Y0139204D03*
X0355800Y0144204D03*
X0355800Y0149204D03*
X0355800Y0154204D03*
X0355800Y0159204D03*
X0355800Y0164204D03*
X0355800Y0169204D03*
X0355800Y0174204D03*
X0355800Y0179204D03*
X0355800Y0184204D03*
D21*
X0451000Y0241546D03*
D22*
X0442024Y0212806D03*
X0459976Y0212806D03*
D23*
X0388500Y0216704D03*
X0381000Y0221704D03*
X0381000Y0211704D03*
D24*
X0278657Y0184735D03*
X0278657Y0182176D03*
X0278657Y0179617D03*
X0278657Y0177058D03*
X0278657Y0174499D03*
X0278657Y0171940D03*
X0278657Y0169381D03*
X0278657Y0166822D03*
X0278657Y0164263D03*
X0278657Y0161704D03*
X0278657Y0159145D03*
X0278657Y0156586D03*
X0278657Y0154027D03*
X0278657Y0151468D03*
X0278657Y0148909D03*
X0278657Y0146350D03*
X0278657Y0143791D03*
X0278657Y0141231D03*
X0278657Y0138672D03*
X0248343Y0138672D03*
X0248343Y0141231D03*
X0248343Y0143791D03*
X0248343Y0146350D03*
X0248343Y0148909D03*
X0248343Y0151468D03*
X0248343Y0154027D03*
X0248343Y0156586D03*
X0248343Y0159145D03*
X0248343Y0161704D03*
X0248343Y0164263D03*
X0248343Y0166822D03*
X0248343Y0169381D03*
X0248343Y0171940D03*
X0248343Y0174499D03*
X0248343Y0177058D03*
X0248343Y0179617D03*
X0248343Y0182176D03*
X0248343Y0184735D03*
D25*
X0028500Y0181468D03*
X0023500Y0181468D03*
X0018500Y0181468D03*
X0013500Y0181468D03*
X0013500Y0201940D03*
X0018500Y0201940D03*
X0023500Y0201940D03*
X0028500Y0201940D03*
X0473500Y0201940D03*
X0478500Y0201940D03*
X0483500Y0201940D03*
X0488500Y0201940D03*
X0488500Y0181468D03*
X0483500Y0181468D03*
X0478500Y0181468D03*
X0473500Y0181468D03*
D26*
X0434900Y0184004D02*
X0434900Y0190004D01*
X0417100Y0190004D02*
X0417100Y0184004D01*
X0409000Y0166704D02*
X0403000Y0166704D01*
X0417100Y0164404D02*
X0417100Y0158404D01*
X0434900Y0158404D02*
X0434900Y0164404D01*
X0409000Y0146704D02*
X0403000Y0146704D01*
X0379000Y0146704D02*
X0373000Y0146704D01*
X0373000Y0126704D02*
X0379000Y0126704D01*
X0403000Y0126704D02*
X0409000Y0126704D01*
X0409000Y0096704D02*
X0403000Y0096704D01*
X0379000Y0096704D02*
X0373000Y0096704D01*
X0329900Y0098404D02*
X0329900Y0104404D01*
X0312100Y0104404D02*
X0312100Y0098404D01*
X0282400Y0098404D02*
X0282400Y0104404D01*
X0264600Y0104404D02*
X0264600Y0098404D01*
X0264600Y0124004D02*
X0264600Y0130004D01*
X0282400Y0130004D02*
X0282400Y0124004D01*
X0312100Y0124004D02*
X0312100Y0130004D01*
X0329900Y0130004D02*
X0329900Y0124004D01*
X0373000Y0166704D02*
X0379000Y0166704D01*
X0417100Y0223404D02*
X0417100Y0229404D01*
X0434900Y0229404D02*
X0434900Y0223404D01*
X0434900Y0249004D02*
X0434900Y0255004D01*
X0417100Y0255004D02*
X0417100Y0249004D01*
X0204900Y0130004D02*
X0204900Y0124004D01*
X0187100Y0124004D02*
X0187100Y0130004D01*
X0187100Y0104404D02*
X0187100Y0098404D01*
X0204900Y0098404D02*
X0204900Y0104404D01*
X0129000Y0096704D02*
X0123000Y0096704D01*
X0099000Y0096704D02*
X0093000Y0096704D01*
X0093000Y0126704D02*
X0099000Y0126704D01*
X0123000Y0126704D02*
X0129000Y0126704D01*
X0129000Y0146704D02*
X0123000Y0146704D01*
X0099000Y0146704D02*
X0093000Y0146704D01*
X0082400Y0160904D02*
X0082400Y0166904D01*
X0093000Y0166704D02*
X0099000Y0166704D01*
X0123000Y0166704D02*
X0129000Y0166704D01*
X0082400Y0186504D02*
X0082400Y0192504D01*
X0064600Y0192504D02*
X0064600Y0186504D01*
X0064600Y0166904D02*
X0064600Y0160904D01*
X0019000Y0216704D02*
X0013000Y0216704D01*
X0013000Y0226704D02*
X0019000Y0226704D01*
X0019000Y0236704D02*
X0013000Y0236704D01*
X0013000Y0246704D02*
X0019000Y0246704D01*
X0019000Y0256704D02*
X0013000Y0256704D01*
X0013000Y0266704D02*
X0019000Y0266704D01*
X0019000Y0276704D02*
X0013000Y0276704D01*
X0013000Y0286704D02*
X0019000Y0286704D01*
X0064600Y0255004D02*
X0064600Y0249004D01*
X0082400Y0249004D02*
X0082400Y0255004D01*
X0082400Y0229404D02*
X0082400Y0223404D01*
X0064600Y0223404D02*
X0064600Y0229404D01*
D27*
X0426000Y0271980D03*
X0426000Y0281428D03*
D28*
X0291000Y0155050D03*
X0291000Y0148357D03*
D29*
X0378441Y0176704D03*
X0383559Y0176704D03*
X0383559Y0186704D03*
X0378441Y0186704D03*
X0398441Y0176704D03*
X0403559Y0176704D03*
X0383559Y0201704D03*
X0378441Y0201704D03*
X0398441Y0211704D03*
X0403559Y0211704D03*
X0383559Y0231704D03*
X0378441Y0231704D03*
X0398441Y0246704D03*
X0403559Y0246704D03*
X0378559Y0276704D03*
X0373441Y0276704D03*
X0468441Y0241704D03*
X0473559Y0241704D03*
X0473559Y0231704D03*
X0468441Y0231704D03*
X0468441Y0221704D03*
X0473559Y0221704D03*
X0473559Y0211704D03*
X0468441Y0211704D03*
X0448559Y0196704D03*
X0443441Y0196704D03*
X0393559Y0126704D03*
X0388441Y0126704D03*
X0168559Y0096704D03*
X0163441Y0096704D03*
X0143559Y0126704D03*
X0138441Y0126704D03*
X0138441Y0136704D03*
X0143559Y0136704D03*
X0143559Y0146704D03*
X0138441Y0146704D03*
X0138441Y0156704D03*
X0143559Y0156704D03*
X0143559Y0166704D03*
X0138441Y0166704D03*
X0113559Y0126704D03*
X0108441Y0126704D03*
X0058559Y0146704D03*
X0053441Y0146704D03*
X0053559Y0191704D03*
X0048441Y0191704D03*
X0038559Y0191704D03*
X0033441Y0191704D03*
X0033441Y0201704D03*
X0038559Y0201704D03*
X0048441Y0201704D03*
X0053559Y0201704D03*
X0033559Y0216704D03*
X0028441Y0216704D03*
X0028441Y0236704D03*
X0033559Y0236704D03*
X0048441Y0236704D03*
X0053559Y0236704D03*
X0053559Y0286704D03*
X0048441Y0286704D03*
D30*
X0031000Y0284263D03*
X0031000Y0279145D03*
X0031000Y0269263D03*
X0031000Y0264145D03*
X0046000Y0229263D03*
X0046000Y0224145D03*
X0056000Y0224145D03*
X0056000Y0229263D03*
X0291000Y0139263D03*
X0291000Y0134145D03*
X0353500Y0126763D03*
X0353500Y0121645D03*
X0353500Y0104263D03*
X0353500Y0099145D03*
X0443500Y0161645D03*
X0443500Y0166763D03*
D31*
X0166000Y0114304D02*
X0166000Y0109104D01*
X0156000Y0109104D02*
X0156000Y0114304D01*
X0146000Y0114304D02*
X0146000Y0109104D01*
D32*
X0443200Y0276704D03*
X0468800Y0276704D03*
D33*
X0385000Y0250404D03*
X0377000Y0246604D03*
X0385000Y0242804D03*
X0055000Y0215404D03*
X0047000Y0211604D03*
X0055000Y0207804D03*
X0035000Y0222804D03*
X0027000Y0226604D03*
X0035000Y0230404D03*
D34*
X0031100Y0247704D03*
X0027300Y0255704D03*
X0034900Y0255704D03*
X0047300Y0255704D03*
X0054900Y0255704D03*
X0051100Y0247704D03*
X0051100Y0267704D03*
X0047300Y0275704D03*
X0054900Y0275704D03*
X0374600Y0262704D03*
X0382200Y0262704D03*
X0378400Y0270704D03*
X0422300Y0215704D03*
X0429900Y0215704D03*
X0426100Y0207704D03*
X0404700Y0197704D03*
X0397100Y0197704D03*
X0400900Y0205704D03*
X0442300Y0190704D03*
X0449900Y0190704D03*
X0446100Y0182704D03*
X0476100Y0247704D03*
X0472300Y0255704D03*
X0479900Y0255704D03*
D35*
X0371000Y0256704D03*
X0371000Y0241704D03*
D36*
X0369323Y0088279D02*
X0364173Y0088279D01*
X0340567Y0072743D02*
X0340567Y0067594D01*
X0331118Y0073106D02*
X0331118Y0078255D01*
X0368913Y0060539D02*
X0368913Y0055389D01*
X0353575Y0044972D02*
X0348425Y0044972D01*
X0168913Y0055389D02*
X0168913Y0060539D01*
X0153575Y0044972D02*
X0148425Y0044972D01*
X0140567Y0067594D02*
X0140567Y0072743D01*
X0131118Y0073106D02*
X0131118Y0078255D01*
X0164173Y0088279D02*
X0169323Y0088279D01*
D37*
X0179130Y0071759D02*
X0179130Y0065822D01*
X0179130Y0052861D02*
X0179130Y0046924D01*
X0207870Y0046924D02*
X0207870Y0052861D01*
X0207870Y0065822D02*
X0207870Y0071759D01*
X0291630Y0071759D02*
X0291630Y0065822D01*
X0291630Y0052861D02*
X0291630Y0046924D01*
X0320370Y0046924D02*
X0320370Y0052861D01*
X0320370Y0065822D02*
X0320370Y0071759D01*
D38*
X0312299Y0073515D03*
X0309150Y0073515D03*
X0306000Y0073515D03*
X0302850Y0073515D03*
X0299701Y0073515D03*
X0199799Y0073515D03*
X0196650Y0073515D03*
X0193500Y0073515D03*
X0190350Y0073515D03*
X0187201Y0073515D03*
D39*
X0190350Y0073515D02*
X0190600Y0073304D01*
X0190600Y0067904D01*
X0200500Y0058004D01*
X0240100Y0058004D01*
X0242800Y0055304D01*
X0288400Y0055304D01*
X0299500Y0066404D01*
X0303100Y0066404D01*
X0303250Y0066554D01*
X0307300Y0062504D01*
X0309700Y0062504D01*
X0314200Y0067004D01*
X0314200Y0071204D01*
X0317800Y0074804D01*
X0317800Y0130004D01*
X0311200Y0136604D01*
X0311200Y0159104D01*
X0301000Y0169304D01*
X0278800Y0169304D01*
X0278657Y0169381D01*
X0278657Y0166822D02*
X0278800Y0166604D01*
X0301900Y0166604D01*
X0306700Y0161804D01*
X0306700Y0085604D01*
X0236800Y0085604D01*
X0234100Y0084704D02*
X0234100Y0087404D01*
X0210400Y0111104D01*
X0184300Y0111104D01*
X0190300Y0112304D02*
X0211300Y0112304D01*
X0211300Y0117104D01*
X0211300Y0112304D02*
X0226600Y0112304D01*
X0247000Y0091904D01*
X0247260Y0091704D01*
X0246700Y0092504D01*
X0251200Y0097004D01*
X0251800Y0101504D02*
X0243100Y0101504D01*
X0227500Y0117104D01*
X0231400Y0117104D02*
X0241600Y0106904D01*
X0247000Y0106904D01*
X0247260Y0106704D01*
X0251800Y0117704D02*
X0273100Y0117704D01*
X0282400Y0127004D01*
X0274900Y0126404D02*
X0274900Y0125804D01*
X0274900Y0126404D02*
X0252700Y0148604D01*
X0252700Y0151304D01*
X0250000Y0154004D01*
X0248500Y0154004D01*
X0248343Y0154027D01*
X0248200Y0154304D01*
X0246400Y0154304D01*
X0243700Y0157004D01*
X0199600Y0157004D01*
X0200800Y0159404D02*
X0198700Y0161504D01*
X0191500Y0161504D01*
X0198700Y0162704D02*
X0189400Y0172004D01*
X0189400Y0176204D01*
X0208900Y0195704D01*
X0375100Y0195704D01*
X0378850Y0199454D01*
X0378700Y0199604D01*
X0378700Y0201704D01*
X0378441Y0201704D01*
X0378850Y0199454D02*
X0383500Y0194804D01*
X0385300Y0194804D01*
X0399400Y0208904D01*
X0400600Y0208904D01*
X0403300Y0211604D01*
X0403559Y0211704D01*
X0406600Y0210104D02*
X0406600Y0216104D01*
X0406600Y0210104D02*
X0402400Y0205904D01*
X0400900Y0205904D01*
X0400900Y0205704D01*
X0397100Y0197704D02*
X0397300Y0197504D01*
X0397300Y0193604D01*
X0400900Y0190004D01*
X0400900Y0179204D01*
X0398500Y0176804D01*
X0398441Y0176704D01*
X0402700Y0176504D02*
X0385600Y0159404D01*
X0355900Y0159404D01*
X0355800Y0159204D01*
X0355600Y0154304D02*
X0350800Y0154304D01*
X0336700Y0168404D01*
X0339400Y0169304D02*
X0329800Y0178904D01*
X0325900Y0189104D02*
X0340600Y0174404D01*
X0355600Y0174404D01*
X0355800Y0174204D01*
X0355600Y0169304D02*
X0355800Y0169204D01*
X0355600Y0169304D02*
X0339400Y0169304D01*
X0330700Y0166304D02*
X0317800Y0179204D01*
X0316200Y0179204D01*
X0314200Y0176204D02*
X0310000Y0176204D01*
X0314200Y0176204D02*
X0316200Y0174204D01*
X0321700Y0166904D02*
X0309100Y0166904D01*
X0304900Y0171104D01*
X0302200Y0172004D02*
X0314200Y0184004D01*
X0316000Y0184004D01*
X0316200Y0184204D01*
X0325900Y0189104D02*
X0252700Y0189104D01*
X0248500Y0184904D01*
X0248343Y0184735D01*
X0248200Y0184904D01*
X0223300Y0184904D01*
X0221800Y0186404D01*
X0201400Y0186404D01*
X0196900Y0181904D01*
X0196900Y0179204D01*
X0197050Y0179054D01*
X0192700Y0174704D01*
X0192100Y0174704D01*
X0199000Y0170804D02*
X0199600Y0171404D01*
X0209800Y0171404D01*
X0211900Y0173504D01*
X0213700Y0173504D01*
X0214000Y0173204D01*
X0218500Y0173204D01*
X0220300Y0175004D01*
X0220300Y0176804D01*
X0217600Y0179504D01*
X0217600Y0183404D01*
X0219400Y0185204D01*
X0221200Y0185204D01*
X0223000Y0183404D01*
X0223000Y0182204D01*
X0231100Y0174104D01*
X0239800Y0174104D01*
X0240100Y0174404D01*
X0248200Y0174404D01*
X0248343Y0174499D01*
X0248200Y0176804D02*
X0248343Y0177058D01*
X0248200Y0176804D02*
X0239200Y0176804D01*
X0240100Y0170804D02*
X0212800Y0170804D01*
X0206800Y0168104D02*
X0205900Y0169004D01*
X0205800Y0169204D01*
X0206800Y0168104D02*
X0239200Y0168104D01*
X0241300Y0169604D02*
X0240100Y0170804D01*
X0241300Y0169604D02*
X0248200Y0169604D01*
X0248343Y0169381D01*
X0248343Y0166822D02*
X0248500Y0166604D01*
X0252700Y0166604D01*
X0248343Y0164263D02*
X0248200Y0164504D01*
X0228400Y0164504D01*
X0227200Y0165704D01*
X0214000Y0165704D01*
X0210100Y0161804D01*
X0200200Y0161804D01*
X0199300Y0162704D01*
X0198700Y0162704D01*
X0199600Y0165404D02*
X0204400Y0165404D01*
X0205600Y0164204D01*
X0205800Y0164204D01*
X0205600Y0159404D02*
X0205800Y0159204D01*
X0205600Y0159404D02*
X0200800Y0159404D01*
X0205600Y0154304D02*
X0205800Y0154204D01*
X0205900Y0154304D01*
X0225400Y0154304D01*
X0226600Y0151904D02*
X0226300Y0151604D01*
X0200800Y0151604D01*
X0196900Y0147704D01*
X0199300Y0146504D02*
X0197800Y0145004D01*
X0194800Y0145004D01*
X0186100Y0153704D01*
X0175300Y0153704D01*
X0171100Y0157904D01*
X0171100Y0166004D01*
X0170200Y0166904D01*
X0161800Y0166904D01*
X0140500Y0188204D01*
X0140500Y0193004D01*
X0131800Y0201704D01*
X0131800Y0211304D01*
X0125800Y0218804D02*
X0116800Y0227804D01*
X0116800Y0247604D01*
X0110800Y0253604D01*
X0110800Y0254804D01*
X0107200Y0250904D02*
X0110800Y0247304D01*
X0108400Y0244304D02*
X0104500Y0248204D01*
X0103600Y0250904D02*
X0097600Y0244904D01*
X0080800Y0244904D01*
X0079000Y0246704D01*
X0073900Y0246704D01*
X0067900Y0240404D02*
X0078400Y0229904D01*
X0078400Y0221204D01*
X0088300Y0211304D01*
X0088300Y0202004D01*
X0092500Y0197804D01*
X0097300Y0197804D01*
X0100300Y0194804D01*
X0096400Y0195104D02*
X0091000Y0195104D01*
X0073900Y0212204D01*
X0073900Y0232604D01*
X0067300Y0239204D01*
X0057100Y0239204D01*
X0053800Y0236504D02*
X0053559Y0236704D01*
X0053800Y0236504D02*
X0068200Y0236504D01*
X0072700Y0232004D01*
X0072700Y0211604D01*
X0092500Y0191804D01*
X0120400Y0191804D01*
X0125800Y0186404D01*
X0125800Y0182804D01*
X0128500Y0181904D02*
X0123400Y0176804D01*
X0114100Y0176804D01*
X0109450Y0172154D01*
X0117100Y0164504D01*
X0112600Y0161804D02*
X0135400Y0161804D01*
X0132700Y0159104D02*
X0131800Y0160004D01*
X0112600Y0160004D01*
X0101800Y0170804D01*
X0088900Y0170804D01*
X0078400Y0181304D01*
X0062200Y0181304D01*
X0059500Y0184004D01*
X0059500Y0190304D01*
X0053800Y0196004D01*
X0053800Y0201704D01*
X0053559Y0201704D01*
X0049000Y0201704D02*
X0048441Y0201704D01*
X0049000Y0201704D02*
X0055000Y0207704D01*
X0055000Y0207804D01*
X0055300Y0210404D02*
X0057100Y0210404D01*
X0060700Y0206804D01*
X0060700Y0184604D01*
X0062800Y0182504D01*
X0079000Y0182504D01*
X0089500Y0172004D01*
X0102400Y0172004D01*
X0112600Y0161804D01*
X0111400Y0159404D02*
X0112000Y0158804D01*
X0122500Y0158804D01*
X0136000Y0145304D01*
X0136000Y0124604D01*
X0136600Y0124004D01*
X0140800Y0124004D01*
X0143500Y0126704D01*
X0143559Y0126704D01*
X0143800Y0126704D01*
X0152500Y0118004D01*
X0161800Y0119804D02*
X0182800Y0119804D01*
X0190300Y0112304D01*
X0184600Y0119804D02*
X0171700Y0132704D01*
X0166900Y0135404D02*
X0188200Y0135404D01*
X0191500Y0138704D01*
X0194200Y0143804D02*
X0205300Y0143804D01*
X0205600Y0144104D01*
X0205800Y0144204D01*
X0210400Y0141404D02*
X0227500Y0124304D01*
X0232300Y0119804D02*
X0184600Y0119804D01*
X0168400Y0109304D02*
X0166000Y0111704D01*
X0168400Y0109304D02*
X0168400Y0096704D01*
X0168559Y0096704D01*
X0168400Y0091904D02*
X0163600Y0096704D01*
X0163441Y0096704D01*
X0168400Y0091904D02*
X0170800Y0091904D01*
X0172900Y0089804D01*
X0172900Y0057104D01*
X0173800Y0057104D01*
X0172900Y0057104D02*
X0172900Y0054404D01*
X0170200Y0051704D01*
X0167500Y0051704D01*
X0163000Y0056204D01*
X0163000Y0062804D01*
X0134200Y0091604D01*
X0101200Y0091604D01*
X0096100Y0096704D01*
X0096000Y0096704D01*
X0104500Y0100604D02*
X0131200Y0100604D01*
X0134800Y0097004D01*
X0144400Y0097004D01*
X0144400Y0092804D02*
X0121300Y0092804D01*
X0117100Y0097004D01*
X0111700Y0097004D01*
X0114400Y0088904D02*
X0135100Y0088904D01*
X0160300Y0063704D01*
X0160300Y0056504D01*
X0168700Y0058004D02*
X0168913Y0057964D01*
X0168700Y0058004D02*
X0168700Y0069104D01*
X0147100Y0090704D01*
X0147100Y0103004D01*
X0133000Y0117104D01*
X0133000Y0139604D01*
X0126100Y0146504D01*
X0126000Y0146704D01*
X0118900Y0145004D02*
X0124900Y0139004D01*
X0124900Y0135104D01*
X0127600Y0132404D02*
X0129400Y0134204D01*
X0127600Y0132404D02*
X0076300Y0132404D01*
X0068200Y0135104D02*
X0107200Y0135104D01*
X0106600Y0139004D02*
X0112600Y0145004D01*
X0112000Y0149504D02*
X0101800Y0149504D01*
X0100600Y0150704D01*
X0071800Y0150704D01*
X0070900Y0149804D01*
X0070900Y0143504D01*
X0070000Y0142604D01*
X0064300Y0142604D01*
X0061000Y0145904D01*
X0061000Y0149804D01*
X0045700Y0165104D01*
X0045700Y0172604D01*
X0043900Y0174404D01*
X0040450Y0174854D02*
X0040300Y0175004D01*
X0018100Y0175004D01*
X0013600Y0179504D01*
X0013600Y0181304D01*
X0013500Y0181468D01*
X0009700Y0190004D02*
X0007900Y0190004D01*
X0006100Y0191804D01*
X0006100Y0285404D01*
X0017800Y0297104D01*
X0107200Y0297104D01*
X0124600Y0279704D01*
X0124600Y0273404D01*
X0121900Y0270704D01*
X0120700Y0268304D02*
X0119200Y0269804D01*
X0119200Y0273104D01*
X0123400Y0277304D01*
X0123400Y0279104D01*
X0114700Y0287804D01*
X0107800Y0287804D01*
X0118000Y0275504D02*
X0120700Y0278204D01*
X0118000Y0275504D02*
X0118000Y0245804D01*
X0123100Y0240704D01*
X0123100Y0239204D01*
X0129100Y0242204D02*
X0120700Y0250604D01*
X0120700Y0254504D02*
X0134500Y0240704D01*
X0136900Y0230504D02*
X0120700Y0246704D01*
X0107200Y0250904D02*
X0103600Y0250904D01*
X0120700Y0259004D02*
X0120700Y0268304D01*
X0085000Y0239204D02*
X0074500Y0239204D01*
X0067900Y0240404D02*
X0067600Y0240404D01*
X0065500Y0242504D01*
X0066100Y0233504D02*
X0063100Y0233504D01*
X0058900Y0229304D01*
X0058900Y0219704D01*
X0058000Y0218804D01*
X0055900Y0220904D02*
X0052300Y0217304D01*
X0052300Y0213404D01*
X0055300Y0210404D01*
X0047000Y0211604D02*
X0046900Y0211604D01*
X0046900Y0204704D01*
X0038800Y0196604D01*
X0038800Y0191804D01*
X0038559Y0191704D01*
X0040300Y0188804D02*
X0036400Y0188804D01*
X0033700Y0191504D01*
X0033441Y0191704D01*
X0033400Y0191804D01*
X0033400Y0201704D01*
X0033441Y0201704D01*
X0033400Y0201704D02*
X0033400Y0204104D01*
X0036100Y0206804D01*
X0036100Y0216704D01*
X0043300Y0223904D01*
X0046000Y0223904D01*
X0046000Y0224145D01*
X0046000Y0229263D02*
X0046000Y0229304D01*
X0051100Y0234404D01*
X0051100Y0247704D01*
X0055000Y0244904D02*
X0055000Y0255704D01*
X0054900Y0255704D01*
X0051100Y0267704D02*
X0042100Y0267704D01*
X0029800Y0255404D01*
X0029800Y0251204D01*
X0025300Y0246704D01*
X0025300Y0231404D01*
X0022900Y0229004D01*
X0022900Y0213404D01*
X0016300Y0206804D01*
X0016300Y0195704D01*
X0028300Y0183704D01*
X0028300Y0181604D01*
X0028500Y0181468D01*
X0033400Y0184904D02*
X0022900Y0195404D01*
X0018700Y0202004D02*
X0018500Y0201940D01*
X0018700Y0202004D02*
X0018700Y0204104D01*
X0023200Y0208604D01*
X0028600Y0208604D01*
X0028750Y0208754D01*
X0028600Y0208904D01*
X0028600Y0216704D01*
X0028441Y0216704D01*
X0029200Y0219404D02*
X0030400Y0219404D01*
X0031000Y0218804D01*
X0031000Y0210104D01*
X0033400Y0207704D01*
X0033400Y0204104D02*
X0028750Y0208754D01*
X0038559Y0201704D02*
X0038800Y0201704D01*
X0038800Y0215804D01*
X0033559Y0216704D02*
X0033400Y0216704D01*
X0032200Y0217904D01*
X0032200Y0223604D01*
X0031000Y0224804D01*
X0031000Y0247604D01*
X0031100Y0247704D01*
X0022900Y0253604D02*
X0016000Y0246704D01*
X0007300Y0247904D02*
X0016000Y0256604D01*
X0016000Y0256704D01*
X0016000Y0256904D01*
X0009100Y0263804D01*
X0009100Y0278504D01*
X0011200Y0280604D01*
X0018700Y0280604D01*
X0022300Y0284204D01*
X0031000Y0284204D01*
X0031000Y0284263D01*
X0048441Y0286704D02*
X0048700Y0286904D01*
X0054400Y0292604D01*
X0053559Y0286704D02*
X0053800Y0286604D01*
X0054700Y0285704D01*
X0054700Y0275804D01*
X0054900Y0275704D01*
X0031000Y0264145D02*
X0031000Y0264104D01*
X0022900Y0256004D01*
X0022900Y0253604D01*
X0034900Y0255704D02*
X0034900Y0238004D01*
X0033700Y0236804D01*
X0033559Y0236704D01*
X0028441Y0236704D02*
X0028300Y0236504D01*
X0028300Y0232604D01*
X0024100Y0228404D01*
X0024100Y0224504D01*
X0029200Y0219404D01*
X0029500Y0222704D02*
X0027100Y0225104D01*
X0027100Y0226604D01*
X0027000Y0226604D01*
X0035000Y0222804D02*
X0048700Y0236504D01*
X0048441Y0236704D01*
X0052900Y0232604D02*
X0056200Y0229304D01*
X0056000Y0229263D01*
X0056000Y0224145D02*
X0055900Y0223904D01*
X0055900Y0220904D01*
X0070000Y0227204D02*
X0070000Y0212504D01*
X0074800Y0207704D01*
X0074800Y0188504D01*
X0086200Y0177104D01*
X0099100Y0177104D01*
X0109900Y0166304D01*
X0111700Y0166304D01*
X0109450Y0172154D02*
X0103300Y0178304D01*
X0097300Y0178304D01*
X0088900Y0186704D01*
X0090100Y0189404D02*
X0082600Y0189404D01*
X0082400Y0189504D01*
X0090100Y0189404D02*
X0098500Y0181004D01*
X0101800Y0181004D01*
X0109600Y0175904D02*
X0119200Y0185504D01*
X0123100Y0185504D01*
X0128500Y0187904D02*
X0128500Y0181904D01*
X0128500Y0187904D02*
X0100600Y0215804D01*
X0095800Y0215804D01*
X0103000Y0217604D02*
X0087100Y0233504D01*
X0085000Y0239204D02*
X0105700Y0218504D01*
X0105700Y0216104D01*
X0138100Y0183704D01*
X0138700Y0183704D01*
X0137800Y0187604D02*
X0137800Y0188204D01*
X0105700Y0220304D01*
X0105700Y0228404D01*
X0076900Y0219104D02*
X0076900Y0212804D01*
X0076900Y0219104D02*
X0076600Y0219404D01*
X0070000Y0231104D02*
X0068500Y0231104D01*
X0066100Y0233504D01*
X0094900Y0202904D02*
X0099400Y0207404D01*
X0105400Y0207404D01*
X0094900Y0202904D02*
X0091000Y0202904D01*
X0077500Y0178604D02*
X0061600Y0178604D01*
X0058300Y0178304D02*
X0061600Y0175004D01*
X0079900Y0175004D01*
X0088900Y0166004D01*
X0088900Y0165104D01*
X0094600Y0159404D01*
X0111400Y0159404D01*
X0110500Y0156704D02*
X0067900Y0156704D01*
X0063100Y0151304D02*
X0049600Y0164804D01*
X0045700Y0163004D02*
X0045700Y0146804D01*
X0049900Y0152504D02*
X0053200Y0149204D01*
X0053200Y0146804D01*
X0053441Y0146704D01*
X0058559Y0146704D02*
X0058600Y0146504D01*
X0058600Y0144704D01*
X0062200Y0141104D01*
X0067600Y0138404D02*
X0050500Y0138404D01*
X0036250Y0152654D01*
X0031000Y0147404D01*
X0031000Y0146804D01*
X0030921Y0146704D01*
X0030700Y0146504D01*
X0019900Y0135704D01*
X0019900Y0113804D01*
X0011200Y0105104D01*
X0011200Y0071804D01*
X0011000Y0071704D01*
X0011200Y0111704D02*
X0011000Y0111704D01*
X0011200Y0111704D02*
X0011200Y0136904D01*
X0020800Y0146504D01*
X0021079Y0146704D01*
X0021100Y0146804D01*
X0021100Y0161504D01*
X0021157Y0161704D01*
X0036250Y0152654D02*
X0040300Y0156704D01*
X0040300Y0174704D01*
X0040450Y0174854D01*
X0047200Y0181604D01*
X0047260Y0181704D01*
X0047500Y0181604D01*
X0055300Y0173804D01*
X0066100Y0173804D01*
X0071800Y0168104D01*
X0073300Y0168104D01*
X0073500Y0167944D01*
X0058300Y0178304D02*
X0058300Y0185504D01*
X0056800Y0187004D01*
X0053800Y0182804D02*
X0054700Y0181904D01*
X0054740Y0181704D01*
X0053800Y0182804D02*
X0053800Y0191504D01*
X0053559Y0191704D01*
X0053500Y0191804D01*
X0052900Y0191804D01*
X0050200Y0194504D01*
X0046000Y0194504D01*
X0040300Y0188804D01*
X0048400Y0191504D02*
X0048441Y0191704D01*
X0048400Y0191504D02*
X0048400Y0182804D01*
X0047500Y0181904D01*
X0047260Y0181704D01*
X0043000Y0168404D02*
X0043000Y0165704D01*
X0045700Y0163004D01*
X0043000Y0162104D02*
X0043000Y0151304D01*
X0049900Y0152504D02*
X0049898Y0152728D01*
X0067600Y0138404D02*
X0074500Y0145304D01*
X0074500Y0146504D01*
X0074740Y0146704D01*
X0094000Y0126704D02*
X0096000Y0126704D01*
X0108441Y0126704D01*
X0113500Y0126704D02*
X0113559Y0126704D01*
X0126000Y0126704D01*
X0130300Y0118004D02*
X0121600Y0118004D01*
X0112600Y0121904D02*
X0134800Y0099704D01*
X0135700Y0099704D01*
X0149800Y0093704D02*
X0162100Y0106004D01*
X0149800Y0093704D02*
X0149800Y0091604D01*
X0119800Y0079304D02*
X0117100Y0079304D01*
X0119800Y0079304D02*
X0148600Y0050504D01*
X0170800Y0050504D01*
X0186250Y0065954D01*
X0184600Y0067604D01*
X0184600Y0082904D01*
X0186400Y0084704D01*
X0196900Y0084704D01*
X0210100Y0097904D01*
X0195400Y0082004D02*
X0193600Y0080204D01*
X0193600Y0073604D01*
X0193500Y0073515D01*
X0186250Y0065954D02*
X0195400Y0056804D01*
X0237100Y0056804D01*
X0247000Y0046904D01*
X0247260Y0046704D01*
X0242500Y0059204D02*
X0246100Y0062804D01*
X0247260Y0061704D01*
X0247300Y0061904D01*
X0242200Y0067004D01*
X0242200Y0070304D01*
X0239500Y0067904D02*
X0239500Y0073004D01*
X0241900Y0076904D02*
X0247000Y0076904D01*
X0247260Y0076704D01*
X0241900Y0076904D02*
X0234100Y0084704D01*
X0239500Y0092504D02*
X0244300Y0087704D01*
X0259600Y0087704D01*
X0286300Y0114404D01*
X0286300Y0137804D01*
X0280600Y0143504D01*
X0278800Y0143504D01*
X0278657Y0143791D01*
X0278657Y0138672D02*
X0278500Y0138404D01*
X0273700Y0133604D01*
X0273700Y0132104D01*
X0261100Y0136604D02*
X0253600Y0129104D01*
X0251800Y0129104D01*
X0251650Y0129254D01*
X0250000Y0127604D01*
X0251650Y0129254D02*
X0250000Y0130904D01*
X0250000Y0136304D01*
X0251500Y0137804D01*
X0251500Y0139604D01*
X0250000Y0141104D01*
X0248500Y0141104D01*
X0248343Y0141231D01*
X0248200Y0141104D01*
X0219100Y0141104D01*
X0210400Y0141404D02*
X0185800Y0141404D01*
X0170800Y0156404D01*
X0162400Y0156404D01*
X0144700Y0174104D01*
X0115300Y0174104D01*
X0118900Y0156104D02*
X0118900Y0145004D01*
X0115300Y0150704D02*
X0113200Y0150704D01*
X0112000Y0149504D01*
X0141400Y0141704D02*
X0143500Y0139604D01*
X0143500Y0136904D01*
X0143559Y0136704D01*
X0147700Y0139004D02*
X0147700Y0133904D01*
X0147700Y0139004D02*
X0143800Y0142904D01*
X0143800Y0146504D01*
X0143559Y0146704D01*
X0143559Y0156704D02*
X0143800Y0156704D01*
X0156700Y0143804D01*
X0181000Y0158804D02*
X0181000Y0166604D01*
X0179200Y0168404D01*
X0179200Y0173804D01*
X0185500Y0180104D01*
X0181900Y0172904D02*
X0181900Y0167504D01*
X0195100Y0154304D01*
X0205600Y0154304D01*
X0205800Y0149204D02*
X0232900Y0149204D01*
X0228400Y0151904D02*
X0226600Y0151904D01*
X0226600Y0146504D02*
X0199300Y0146504D01*
X0194200Y0143804D02*
X0192700Y0145304D01*
X0190900Y0145304D01*
X0223600Y0159704D02*
X0243700Y0159704D01*
X0246700Y0156704D01*
X0248200Y0156704D01*
X0248343Y0156586D01*
X0248500Y0156404D01*
X0250000Y0156404D01*
X0256600Y0149804D01*
X0256600Y0148604D01*
X0252700Y0143504D02*
X0252700Y0131804D01*
X0247300Y0135704D02*
X0247300Y0121904D01*
X0247260Y0121704D01*
X0247300Y0121604D01*
X0247900Y0121604D01*
X0251800Y0117704D01*
X0237400Y0118304D02*
X0233800Y0118304D01*
X0232300Y0119804D01*
X0234700Y0138404D02*
X0248200Y0138404D01*
X0248343Y0138672D01*
X0248343Y0143791D02*
X0248200Y0143804D01*
X0243700Y0143804D01*
X0240100Y0143804D02*
X0231100Y0143804D01*
X0240100Y0143804D02*
X0245200Y0148904D01*
X0248200Y0148904D01*
X0248343Y0148909D01*
X0248200Y0151304D02*
X0244000Y0151304D01*
X0248200Y0151304D02*
X0248343Y0151468D01*
X0248343Y0146350D02*
X0248500Y0146204D01*
X0250000Y0146204D01*
X0252700Y0143504D01*
X0264700Y0144404D02*
X0250000Y0159104D01*
X0248500Y0159104D01*
X0248343Y0159145D01*
X0248343Y0161704D02*
X0248200Y0161804D01*
X0227500Y0161804D01*
X0226600Y0162704D01*
X0230800Y0172004D02*
X0220300Y0182504D01*
X0229300Y0179504D02*
X0248200Y0179504D01*
X0248343Y0179617D01*
X0248500Y0181904D02*
X0248343Y0182176D01*
X0248500Y0181904D02*
X0266800Y0181904D01*
X0270400Y0181904D02*
X0257800Y0169304D01*
X0248343Y0171940D02*
X0248200Y0172004D01*
X0230800Y0172004D01*
X0205800Y0174204D02*
X0205600Y0174404D01*
X0201700Y0174404D01*
X0197050Y0179054D01*
X0199600Y0180104D02*
X0204700Y0180104D01*
X0205600Y0179204D01*
X0205800Y0179204D01*
X0174100Y0177404D02*
X0171100Y0177404D01*
X0168100Y0174404D01*
X0166300Y0174404D01*
X0166200Y0174204D01*
X0166000Y0174404D01*
X0159100Y0174404D01*
X0161800Y0179204D02*
X0166200Y0179204D01*
X0167500Y0182804D02*
X0166300Y0184004D01*
X0166200Y0184204D01*
X0167500Y0182804D02*
X0172600Y0182804D01*
X0164500Y0189104D02*
X0160900Y0185504D01*
X0159100Y0185504D01*
X0153700Y0183404D02*
X0145900Y0191204D01*
X0149800Y0191204D02*
X0161800Y0179204D01*
X0148600Y0166604D02*
X0143800Y0166604D01*
X0143559Y0166704D01*
X0113500Y0126704D02*
X0098500Y0111704D01*
X0086000Y0111704D01*
X0082300Y0115004D02*
X0082300Y0108404D01*
X0085900Y0104804D01*
X0085900Y0071804D01*
X0086000Y0071704D01*
X0082300Y0115004D02*
X0094000Y0126704D01*
X0011500Y0191804D02*
X0009700Y0190004D01*
X0011500Y0191804D02*
X0011500Y0193604D01*
X0011200Y0193904D01*
X0011200Y0206504D01*
X0013300Y0208604D01*
X0008800Y0222404D02*
X0008800Y0192704D01*
X0008800Y0222404D02*
X0007300Y0223904D01*
X0007300Y0247904D01*
X0253600Y0159104D02*
X0274000Y0179504D01*
X0278500Y0179504D01*
X0278657Y0179617D01*
X0278800Y0179504D01*
X0280300Y0179504D01*
X0281200Y0178604D01*
X0283000Y0178604D01*
X0286900Y0174704D02*
X0288700Y0176504D01*
X0292000Y0176504D01*
X0292260Y0176704D01*
X0302200Y0172004D02*
X0278800Y0172004D01*
X0278657Y0171940D01*
X0271300Y0171104D02*
X0271300Y0165404D01*
X0268600Y0162704D01*
X0268600Y0160304D01*
X0269950Y0158954D01*
X0268300Y0157304D01*
X0268300Y0150704D01*
X0272200Y0146804D01*
X0272200Y0145004D01*
X0268000Y0144404D02*
X0264700Y0144404D01*
X0278657Y0148909D02*
X0278800Y0148904D01*
X0290500Y0148904D01*
X0290800Y0148604D01*
X0291000Y0148357D01*
X0291100Y0148304D01*
X0296200Y0143204D01*
X0301000Y0143204D01*
X0301000Y0142964D01*
X0293800Y0136304D02*
X0291100Y0139004D01*
X0291000Y0139263D01*
X0290800Y0139304D01*
X0288400Y0139304D01*
X0284500Y0143204D01*
X0293800Y0136304D02*
X0293800Y0104204D01*
X0278200Y0088604D01*
X0278200Y0082904D02*
X0259600Y0064304D01*
X0242500Y0064904D02*
X0242500Y0063104D01*
X0242500Y0064904D02*
X0239500Y0067904D01*
X0179200Y0041204D02*
X0173800Y0046604D01*
X0179200Y0041204D02*
X0355000Y0041204D01*
X0357100Y0043304D01*
X0357100Y0070904D01*
X0376000Y0089804D01*
X0376000Y0096704D01*
X0367300Y0108404D02*
X0367300Y0132104D01*
X0376000Y0140804D01*
X0376000Y0146704D01*
X0380800Y0150704D02*
X0369100Y0150704D01*
X0360400Y0142004D01*
X0343900Y0142004D01*
X0339400Y0146504D01*
X0336700Y0149204D02*
X0355800Y0149204D01*
X0351700Y0151604D02*
X0360100Y0151604D01*
X0360700Y0151004D01*
X0360700Y0147404D01*
X0357700Y0144404D01*
X0355900Y0144404D01*
X0355800Y0144204D01*
X0346900Y0137804D02*
X0338800Y0137804D01*
X0335200Y0141404D01*
X0328600Y0141404D01*
X0322600Y0147404D01*
X0322600Y0162404D01*
X0325300Y0163004D02*
X0325300Y0163304D01*
X0321700Y0166904D01*
X0330700Y0166304D02*
X0330700Y0161204D01*
X0330700Y0157604D02*
X0325300Y0163004D01*
X0330700Y0157604D02*
X0330700Y0150104D01*
X0343000Y0158504D02*
X0344800Y0158504D01*
X0351700Y0151604D01*
X0355600Y0154304D02*
X0355800Y0154204D01*
X0361900Y0156704D02*
X0384700Y0156704D01*
X0398800Y0170804D01*
X0409600Y0170804D01*
X0435400Y0196604D01*
X0443200Y0196604D01*
X0443441Y0196704D01*
X0448559Y0196704D02*
X0448600Y0196604D01*
X0449800Y0195404D01*
X0449800Y0190904D01*
X0449900Y0190704D01*
X0449500Y0182504D02*
X0446200Y0182504D01*
X0446100Y0182704D01*
X0449500Y0182504D02*
X0455800Y0176204D01*
X0485200Y0176204D01*
X0488500Y0179504D01*
X0488500Y0181468D01*
X0490300Y0186704D02*
X0494200Y0182804D01*
X0494200Y0150704D01*
X0487900Y0144404D01*
X0484000Y0144404D01*
X0481900Y0146504D01*
X0476200Y0146504D01*
X0476079Y0146704D01*
X0475900Y0146504D01*
X0469600Y0140204D01*
X0438100Y0140204D01*
X0420100Y0122204D01*
X0420100Y0109004D01*
X0416200Y0105104D01*
X0416200Y0071804D01*
X0416000Y0071704D01*
X0399100Y0111104D02*
X0369100Y0081104D01*
X0369100Y0058004D01*
X0368913Y0057964D01*
X0351100Y0045104D02*
X0351000Y0044972D01*
X0351100Y0045104D02*
X0351100Y0092204D01*
X0367300Y0108404D01*
X0353500Y0099404D02*
X0353500Y0099145D01*
X0353500Y0099404D02*
X0340600Y0099404D01*
X0323200Y0116804D01*
X0353500Y0121645D02*
X0353500Y0121904D01*
X0358150Y0126554D01*
X0346900Y0137804D01*
X0358150Y0126554D02*
X0373000Y0141404D01*
X0381400Y0150104D02*
X0380800Y0150704D01*
X0381400Y0150104D02*
X0382900Y0150104D01*
X0393700Y0143204D02*
X0401200Y0150704D01*
X0410800Y0150704D01*
X0412900Y0148604D01*
X0412900Y0133604D01*
X0406000Y0126704D01*
X0416200Y0120104D02*
X0437500Y0141404D01*
X0466600Y0141404D01*
X0474100Y0148904D01*
X0485800Y0148904D01*
X0485800Y0146804D01*
X0485921Y0146704D01*
X0485800Y0148904D02*
X0485800Y0156704D01*
X0481000Y0161504D01*
X0480843Y0161704D01*
X0452102Y0170680D02*
X0451900Y0170504D01*
X0448300Y0166904D01*
X0443500Y0166904D01*
X0443500Y0166763D01*
X0443500Y0161645D02*
X0443500Y0161504D01*
X0439000Y0157004D01*
X0439000Y0156704D01*
X0435100Y0152804D01*
X0362500Y0152804D01*
X0370300Y0162104D02*
X0381400Y0162104D01*
X0391600Y0172304D01*
X0383800Y0176804D02*
X0383559Y0176704D01*
X0383800Y0176804D02*
X0391300Y0184304D01*
X0391300Y0192404D01*
X0392500Y0193604D01*
X0392500Y0195404D01*
X0386800Y0189704D02*
X0383800Y0186704D01*
X0383559Y0186704D01*
X0378441Y0186704D02*
X0364900Y0186704D01*
X0357400Y0179204D01*
X0355800Y0179204D01*
X0369700Y0176504D02*
X0357400Y0164204D01*
X0355800Y0164204D01*
X0369700Y0176504D02*
X0378400Y0176504D01*
X0378441Y0176704D01*
X0402700Y0176504D02*
X0403300Y0176504D01*
X0403559Y0176704D01*
X0386500Y0205004D02*
X0385000Y0206504D01*
X0385000Y0222704D01*
X0378700Y0229004D01*
X0378700Y0231704D01*
X0378441Y0231704D01*
X0383559Y0231704D02*
X0383800Y0231704D01*
X0385000Y0232904D01*
X0385000Y0242804D01*
X0377200Y0246704D02*
X0377000Y0246604D01*
X0377200Y0246704D02*
X0398441Y0246704D01*
X0403559Y0246704D02*
X0403600Y0246704D01*
X0403600Y0237704D01*
X0404500Y0236804D01*
X0404740Y0236704D01*
X0404800Y0236504D01*
X0433600Y0236504D01*
X0439300Y0230804D01*
X0439300Y0229004D01*
X0439900Y0228404D01*
X0473500Y0228404D01*
X0473500Y0221804D01*
X0473559Y0221704D01*
X0473500Y0221504D01*
X0473500Y0211904D01*
X0473559Y0211704D01*
X0473800Y0211604D01*
X0478300Y0207104D01*
X0478300Y0202004D01*
X0478500Y0201940D01*
X0476200Y0206204D02*
X0476200Y0186404D01*
X0476350Y0186254D01*
X0476800Y0186704D01*
X0490300Y0186704D01*
X0476350Y0186254D02*
X0473500Y0183404D01*
X0473500Y0181904D01*
X0464800Y0181904D01*
X0464740Y0181704D01*
X0473500Y0181604D02*
X0473500Y0181468D01*
X0473500Y0181904D01*
X0476200Y0206204D02*
X0475000Y0207404D01*
X0472900Y0207404D01*
X0468700Y0211604D01*
X0468441Y0211704D01*
X0468400Y0211904D01*
X0465400Y0214904D01*
X0468441Y0221704D02*
X0468400Y0221804D01*
X0463600Y0226604D01*
X0449200Y0226604D01*
X0439000Y0216404D01*
X0439000Y0214004D01*
X0432700Y0207704D01*
X0426100Y0207704D01*
X0436300Y0214904D02*
X0436300Y0215804D01*
X0418600Y0233504D01*
X0415600Y0233504D01*
X0414700Y0232604D01*
X0397300Y0232604D01*
X0397300Y0221804D01*
X0397260Y0221704D01*
X0397300Y0232604D02*
X0397300Y0236504D01*
X0397260Y0236704D01*
X0424600Y0250304D02*
X0433900Y0259604D01*
X0480700Y0259604D01*
X0482500Y0257804D01*
X0482500Y0253604D01*
X0479500Y0250604D01*
X0472900Y0250604D01*
X0466000Y0243704D01*
X0466000Y0234104D01*
X0468400Y0231704D01*
X0468441Y0231704D01*
X0473500Y0231704D02*
X0473500Y0228404D01*
X0473500Y0231704D02*
X0473559Y0231704D01*
X0473500Y0231704D02*
X0473500Y0241604D01*
X0473559Y0241704D01*
X0468700Y0241904D02*
X0468441Y0241704D01*
X0468700Y0241904D02*
X0474400Y0247604D01*
X0475900Y0247604D01*
X0476100Y0247704D01*
X0477100Y0255704D02*
X0474400Y0258404D01*
X0443500Y0258404D01*
X0439000Y0253904D01*
X0439000Y0247304D01*
X0436600Y0244904D01*
X0431500Y0244904D01*
X0426000Y0271980D02*
X0426100Y0272204D01*
X0430600Y0276704D01*
X0443200Y0276704D01*
X0426000Y0271980D02*
X0425800Y0272204D01*
X0412000Y0286004D01*
X0393700Y0286004D01*
X0378400Y0270704D01*
X0374800Y0273104D02*
X0378400Y0276704D01*
X0378559Y0276704D01*
X0376600Y0280904D02*
X0373600Y0277904D01*
X0373600Y0276704D01*
X0373441Y0276704D01*
X0374800Y0273104D02*
X0374800Y0262904D01*
X0374600Y0262704D01*
X0426100Y0215504D02*
X0429700Y0215504D01*
X0429900Y0215704D01*
X0477100Y0255704D02*
X0479900Y0255704D01*
X0447240Y0146704D02*
X0447100Y0146504D01*
X0446500Y0146504D01*
X0442600Y0142604D01*
X0431800Y0142604D01*
X0419800Y0146504D02*
X0419760Y0146704D01*
X0419800Y0146504D02*
X0415600Y0142304D01*
X0406000Y0146504D02*
X0406000Y0146704D01*
X0406000Y0146504D02*
X0399100Y0139604D01*
X0399100Y0111104D01*
X0416000Y0111704D02*
X0416200Y0111704D01*
X0416200Y0120104D01*
X0393700Y0126704D02*
X0393559Y0126704D01*
X0393700Y0126704D02*
X0393700Y0143204D01*
X0388441Y0126704D02*
X0376000Y0126704D01*
X0306700Y0085604D02*
X0306700Y0074204D01*
X0306100Y0073604D01*
X0306000Y0073515D01*
X0303100Y0073304D02*
X0302850Y0073515D01*
X0303100Y0073304D02*
X0303100Y0066704D01*
X0303250Y0066554D01*
X0287500Y0151604D02*
X0278800Y0151604D01*
X0278657Y0151468D01*
X0278657Y0154027D02*
X0278500Y0154304D01*
X0277000Y0154304D01*
X0272200Y0159104D01*
X0270100Y0159104D01*
X0269950Y0158954D01*
X0271300Y0161804D02*
X0276400Y0156704D01*
X0278500Y0156704D01*
X0278657Y0156586D01*
X0278800Y0159104D02*
X0278657Y0159145D01*
X0278800Y0159104D02*
X0281200Y0159104D01*
X0283000Y0157304D01*
X0283000Y0161204D02*
X0282700Y0161504D01*
X0278800Y0161504D01*
X0278657Y0161704D01*
X0278800Y0164204D02*
X0278657Y0164263D01*
X0278800Y0164204D02*
X0283600Y0164204D01*
X0286900Y0160904D01*
X0292000Y0161504D02*
X0292260Y0161704D01*
X0292000Y0161504D02*
X0292000Y0156104D01*
X0291100Y0155204D01*
X0291000Y0155050D01*
X0290800Y0154904D01*
X0287500Y0151604D01*
X0278500Y0181904D02*
X0270400Y0181904D01*
X0263200Y0184604D02*
X0278500Y0184604D01*
X0278657Y0184735D01*
X0278657Y0182176D02*
X0278500Y0181904D01*
X0263200Y0184604D02*
X0256900Y0184604D01*
D40*
X0256900Y0184604D03*
X0253000Y0184604D03*
X0263200Y0184604D03*
X0266800Y0181904D03*
X0283000Y0178604D03*
X0286900Y0174704D03*
X0271300Y0171104D03*
X0274300Y0164204D03*
X0271300Y0161804D03*
X0271000Y0156404D03*
X0256600Y0148604D03*
X0252700Y0148604D03*
X0244000Y0151304D03*
X0232900Y0149204D03*
X0228400Y0151904D03*
X0225400Y0154304D03*
X0223600Y0159704D03*
X0226600Y0162704D03*
X0239200Y0168104D03*
X0239200Y0176804D03*
X0229300Y0179504D03*
X0220300Y0182504D03*
X0217600Y0175904D03*
X0212800Y0170804D03*
X0199000Y0170804D03*
X0192100Y0174704D03*
X0185500Y0180104D03*
X0181900Y0172904D03*
X0174100Y0177404D03*
X0172600Y0182804D03*
X0164500Y0189104D03*
X0159100Y0185504D03*
X0153700Y0183404D03*
X0149800Y0191204D03*
X0145900Y0191204D03*
X0137800Y0187604D03*
X0138700Y0183704D03*
X0125800Y0182804D03*
X0123100Y0185504D03*
X0109600Y0175904D03*
X0115300Y0174104D03*
X0111700Y0166304D03*
X0117100Y0164504D03*
X0118900Y0156104D03*
X0110500Y0156704D03*
X0111100Y0152204D03*
X0115300Y0150704D03*
X0112600Y0145004D03*
X0106600Y0139004D03*
X0107200Y0135104D03*
X0124900Y0135104D03*
X0129400Y0134204D03*
X0133300Y0142904D03*
X0141400Y0141704D03*
X0147700Y0133904D03*
X0156700Y0143804D03*
X0166900Y0135404D03*
X0171700Y0132704D03*
X0176200Y0147104D03*
X0176200Y0156404D03*
X0181000Y0158804D03*
X0191500Y0161504D03*
X0199600Y0165404D03*
X0199600Y0157004D03*
X0196900Y0147704D03*
X0190900Y0145304D03*
X0191500Y0138704D03*
X0219100Y0141104D03*
X0226600Y0146504D03*
X0231100Y0143804D03*
X0234700Y0138404D03*
X0243700Y0143804D03*
X0247300Y0135704D03*
X0252700Y0131804D03*
X0250000Y0127604D03*
X0261100Y0136604D03*
X0268000Y0144404D03*
X0272200Y0145004D03*
X0284500Y0143204D03*
X0289900Y0142904D03*
X0273700Y0132104D03*
X0274900Y0125804D03*
X0272500Y0120704D03*
X0289000Y0116204D03*
X0320500Y0114104D03*
X0323200Y0116804D03*
X0329500Y0144104D03*
X0330700Y0150104D03*
X0336700Y0149204D03*
X0339400Y0146504D03*
X0343000Y0158504D03*
X0336700Y0168404D03*
X0330700Y0161204D03*
X0322600Y0162404D03*
X0304900Y0171104D03*
X0310000Y0176204D03*
X0329800Y0178904D03*
X0361900Y0156704D03*
X0362500Y0152804D03*
X0370300Y0162104D03*
X0382900Y0150104D03*
X0387700Y0149204D03*
X0373000Y0141404D03*
X0370000Y0119804D03*
X0415600Y0142304D03*
X0431800Y0142604D03*
X0391600Y0172304D03*
X0387700Y0172304D03*
X0386800Y0189704D03*
X0394900Y0192404D03*
X0392500Y0195404D03*
X0384400Y0197504D03*
X0386500Y0205004D03*
X0406600Y0216104D03*
X0415600Y0216104D03*
X0426100Y0215504D03*
X0436300Y0214904D03*
X0460000Y0223904D03*
X0465400Y0214904D03*
X0460900Y0186704D03*
X0431500Y0244904D03*
X0424600Y0250304D03*
X0379300Y0256604D03*
X0376600Y0280904D03*
X0257800Y0169304D03*
X0252700Y0166604D03*
X0253600Y0159104D03*
X0283000Y0157304D03*
X0283000Y0161204D03*
X0286900Y0160904D03*
X0227500Y0124304D03*
X0227500Y0117104D03*
X0231400Y0117104D03*
X0237400Y0118304D03*
X0255700Y0115004D03*
X0251800Y0101504D03*
X0251200Y0097004D03*
X0239500Y0092504D03*
X0236800Y0085604D03*
X0239500Y0073004D03*
X0242200Y0070304D03*
X0242500Y0063104D03*
X0242500Y0059204D03*
X0254800Y0052604D03*
X0259600Y0058004D03*
X0259600Y0064304D03*
X0238600Y0051704D03*
X0230200Y0054104D03*
X0195400Y0082004D03*
X0187300Y0082004D03*
X0210100Y0097904D03*
X0184300Y0111104D03*
X0162100Y0106004D03*
X0161800Y0119804D03*
X0152500Y0118004D03*
X0130300Y0118004D03*
X0121600Y0118004D03*
X0112600Y0121904D03*
X0104500Y0100604D03*
X0111700Y0097004D03*
X0114400Y0088904D03*
X0117100Y0079304D03*
X0144400Y0092804D03*
X0144400Y0097004D03*
X0135700Y0099704D03*
X0149800Y0091604D03*
X0155800Y0064604D03*
X0160300Y0056504D03*
X0173800Y0057104D03*
X0173800Y0046604D03*
X0278200Y0082904D03*
X0278200Y0088604D03*
X0303400Y0082904D03*
X0308200Y0065204D03*
X0211300Y0117104D03*
X0148600Y0166604D03*
X0159100Y0174404D03*
X0135400Y0161804D03*
X0132700Y0159104D03*
X0101800Y0181004D03*
X0102400Y0189104D03*
X0100300Y0194804D03*
X0096400Y0195104D03*
X0097300Y0201704D03*
X0091000Y0202904D03*
X0105100Y0203504D03*
X0105400Y0207404D03*
X0103000Y0217604D03*
X0095800Y0215804D03*
X0110800Y0223304D03*
X0105700Y0228404D03*
X0108400Y0235004D03*
X0097300Y0233804D03*
X0087100Y0233504D03*
X0091000Y0242204D03*
X0104500Y0248204D03*
X0108400Y0244304D03*
X0110800Y0247304D03*
X0110800Y0254804D03*
X0120700Y0254504D03*
X0120700Y0250604D03*
X0120700Y0246704D03*
X0129100Y0242204D03*
X0134500Y0240704D03*
X0123100Y0239204D03*
X0136900Y0230504D03*
X0125800Y0218804D03*
X0131800Y0211304D03*
X0088900Y0186704D03*
X0077500Y0178604D03*
X0061600Y0178604D03*
X0056800Y0187004D03*
X0072100Y0196304D03*
X0078700Y0196304D03*
X0076900Y0212804D03*
X0076600Y0219404D03*
X0070000Y0227204D03*
X0070000Y0231104D03*
X0074500Y0239204D03*
X0065500Y0242504D03*
X0057100Y0239204D03*
X0055000Y0244904D03*
X0052900Y0232604D03*
X0058000Y0218804D03*
X0038800Y0215804D03*
X0029500Y0222704D03*
X0033400Y0207704D03*
X0022900Y0195404D03*
X0008800Y0192704D03*
X0013300Y0208604D03*
X0033400Y0184904D03*
X0043900Y0174404D03*
X0043000Y0168404D03*
X0049600Y0164804D03*
X0043000Y0162104D03*
X0043000Y0151304D03*
X0045700Y0146804D03*
X0062200Y0141104D03*
X0068200Y0135104D03*
X0076300Y0132404D03*
X0063100Y0151304D03*
X0067900Y0156704D03*
X0061300Y0171104D03*
X0073900Y0246704D03*
X0120700Y0259004D03*
X0121900Y0270704D03*
X0120700Y0278204D03*
X0110800Y0284504D03*
X0107800Y0287804D03*
X0054400Y0292604D03*
X0186700Y0191804D03*
X0199600Y0180104D03*
D41*
X0087700Y0055304D02*
X0020200Y0055304D01*
X0007000Y0068504D01*
X0007000Y0182204D01*
X0013300Y0188504D01*
X0013300Y0201704D01*
X0013500Y0201940D01*
X0016000Y0216704D02*
X0016000Y0217604D01*
X0008800Y0224804D01*
X0008800Y0238604D01*
X0012700Y0242504D01*
X0020800Y0242504D01*
X0023800Y0245504D01*
X0023800Y0252104D01*
X0027100Y0255404D01*
X0027300Y0255704D01*
X0027400Y0255704D01*
X0033100Y0261404D01*
X0033400Y0261404D01*
X0047500Y0275504D01*
X0047300Y0275704D01*
X0047800Y0275204D01*
X0048700Y0275204D01*
X0054100Y0269804D01*
X0054100Y0258704D01*
X0052900Y0258704D01*
X0050200Y0256004D01*
X0047800Y0256004D01*
X0047300Y0255704D01*
X0047200Y0255704D01*
X0047200Y0245204D01*
X0035200Y0233204D01*
X0035200Y0230504D01*
X0035000Y0230404D01*
X0055000Y0215404D02*
X0055000Y0215204D01*
X0070900Y0199304D01*
X0070900Y0196604D01*
X0072100Y0196304D01*
X0071200Y0196304D01*
X0064600Y0189704D01*
X0064600Y0189504D01*
X0078700Y0196304D02*
X0080200Y0196304D01*
X0080800Y0196904D01*
X0085000Y0196904D01*
X0092800Y0189104D01*
X0102400Y0189104D01*
X0097300Y0201704D02*
X0099100Y0203504D01*
X0105100Y0203504D01*
X0118300Y0215804D02*
X0110800Y0223304D01*
X0110800Y0233504D01*
X0113800Y0236504D01*
X0113800Y0248204D01*
X0110200Y0251804D01*
X0109900Y0251804D01*
X0107800Y0253904D01*
X0107800Y0256604D01*
X0113200Y0262004D01*
X0113200Y0282104D01*
X0110800Y0284504D01*
X0110500Y0284804D01*
X0106900Y0284804D01*
X0096100Y0295604D01*
X0052300Y0295604D01*
X0036100Y0279404D01*
X0031300Y0279404D01*
X0031000Y0279145D01*
X0031000Y0276704D01*
X0016000Y0276704D01*
X0031000Y0276704D02*
X0031000Y0269263D01*
X0054100Y0258704D02*
X0058000Y0258704D01*
X0064300Y0252404D01*
X0064600Y0252004D01*
X0064600Y0251804D01*
X0074200Y0242204D01*
X0091000Y0242204D01*
X0097300Y0235904D01*
X0097300Y0233804D01*
X0097600Y0235004D01*
X0108400Y0235004D01*
X0118300Y0215804D02*
X0131200Y0215804D01*
X0134800Y0212204D01*
X0134800Y0201104D01*
X0140500Y0195404D01*
X0163900Y0195404D01*
X0177100Y0182204D01*
X0186700Y0191804D01*
X0177100Y0182204D02*
X0177100Y0176504D01*
X0176200Y0175604D01*
X0176200Y0156404D01*
X0176200Y0147104D02*
X0168700Y0139604D01*
X0166600Y0139604D01*
X0166200Y0139204D01*
X0163900Y0136904D01*
X0163900Y0134504D01*
X0164500Y0133904D01*
X0164500Y0130904D01*
X0138400Y0130904D01*
X0138400Y0126704D01*
X0138441Y0126704D01*
X0138400Y0130904D02*
X0138400Y0136604D01*
X0138441Y0136704D01*
X0138400Y0137204D01*
X0138400Y0146504D01*
X0138441Y0146704D01*
X0138400Y0147104D01*
X0138400Y0156704D01*
X0138441Y0156704D01*
X0138400Y0157004D01*
X0138400Y0166604D01*
X0138441Y0166704D01*
X0111100Y0152204D02*
X0067000Y0152204D01*
X0067000Y0146804D01*
X0067260Y0146704D01*
X0067000Y0152204D02*
X0067000Y0152504D01*
X0055600Y0163904D01*
X0062050Y0170354D01*
X0061300Y0171104D01*
X0062050Y0170354D02*
X0062800Y0171104D01*
X0066400Y0171104D01*
X0068800Y0168704D01*
X0068800Y0165104D01*
X0073300Y0160604D01*
X0073500Y0160464D01*
X0055600Y0163904D02*
X0049900Y0169604D01*
X0049900Y0170504D01*
X0049898Y0170680D01*
X0133300Y0142904D02*
X0133300Y0141704D01*
X0134500Y0140504D01*
X0134500Y0123704D01*
X0139900Y0118304D01*
X0148300Y0118304D01*
X0151600Y0115004D01*
X0156700Y0115004D01*
X0156000Y0111704D01*
X0156100Y0111704D01*
X0157000Y0112604D01*
X0157000Y0126704D01*
X0157260Y0126704D01*
X0158800Y0121004D02*
X0164200Y0126404D01*
X0164740Y0126704D01*
X0164500Y0126704D01*
X0164500Y0130904D01*
X0158800Y0121004D02*
X0158800Y0118904D01*
X0160900Y0116804D01*
X0162700Y0116804D01*
X0164200Y0118304D01*
X0167500Y0118304D01*
X0169900Y0115904D01*
X0169900Y0109604D01*
X0185500Y0094004D01*
X0188800Y0094004D01*
X0191500Y0096704D01*
X0191500Y0097004D01*
X0203200Y0108704D01*
X0206800Y0108704D01*
X0213100Y0102404D01*
X0213100Y0095804D01*
X0196900Y0079604D01*
X0196900Y0073604D01*
X0196650Y0073515D01*
X0199799Y0073515D02*
X0199900Y0073604D01*
X0203800Y0073604D01*
X0206200Y0076004D01*
X0240400Y0076004D01*
X0244000Y0072404D01*
X0254800Y0072404D01*
X0254800Y0076604D01*
X0254740Y0076704D01*
X0254800Y0072404D02*
X0254800Y0062204D01*
X0254740Y0061704D01*
X0254800Y0061604D01*
X0258400Y0058004D01*
X0259600Y0058004D01*
X0254800Y0052604D02*
X0254800Y0046904D01*
X0254740Y0046704D01*
X0238600Y0051704D02*
X0236200Y0054104D01*
X0230200Y0054104D01*
X0187300Y0073604D02*
X0187201Y0073515D01*
X0187300Y0073604D02*
X0187300Y0082004D01*
X0155800Y0064604D02*
X0138100Y0082304D01*
X0114700Y0082304D01*
X0087700Y0055304D01*
X0187100Y0127004D02*
X0187300Y0127004D01*
X0199300Y0139004D01*
X0205600Y0139004D01*
X0205800Y0139204D01*
X0206200Y0139004D01*
X0223900Y0121304D01*
X0240400Y0121304D01*
X0251200Y0110504D01*
X0255700Y0115004D01*
X0251200Y0110504D02*
X0254500Y0107204D01*
X0254740Y0106704D01*
X0254800Y0106604D01*
X0254800Y0091904D01*
X0254740Y0091704D01*
X0289000Y0116204D02*
X0290800Y0118004D01*
X0290800Y0133904D01*
X0291000Y0134145D01*
X0282100Y0137504D02*
X0282100Y0139604D01*
X0280600Y0141104D01*
X0278800Y0141104D01*
X0278657Y0141231D01*
X0278200Y0141404D01*
X0276400Y0141404D01*
X0275200Y0142604D01*
X0275200Y0146204D01*
X0271000Y0150404D01*
X0271000Y0156404D01*
X0274300Y0164204D02*
X0274300Y0174704D01*
X0276400Y0176804D01*
X0278500Y0176804D01*
X0278657Y0177058D01*
X0278800Y0174704D02*
X0278657Y0174499D01*
X0278800Y0174704D02*
X0283000Y0174704D01*
X0288100Y0179804D01*
X0280300Y0187604D01*
X0256000Y0187604D01*
X0253000Y0184604D01*
X0288100Y0179804D02*
X0289300Y0181004D01*
X0295300Y0181004D01*
X0299500Y0176804D01*
X0299740Y0176704D01*
X0300100Y0177104D01*
X0309700Y0186704D01*
X0320800Y0186704D01*
X0321400Y0186104D01*
X0321400Y0183404D01*
X0325900Y0178904D01*
X0328900Y0181904D01*
X0330700Y0181904D01*
X0340900Y0171704D01*
X0362500Y0171704D01*
X0374500Y0183704D01*
X0385600Y0183704D01*
X0389800Y0187904D01*
X0389800Y0190604D01*
X0386800Y0193604D01*
X0386500Y0193304D01*
X0369100Y0193304D01*
X0360100Y0184304D01*
X0355900Y0184304D01*
X0355800Y0184204D01*
X0333700Y0171104D02*
X0325900Y0178904D01*
X0333700Y0171104D02*
X0333700Y0148304D01*
X0329500Y0144104D01*
X0335200Y0139004D02*
X0350500Y0123704D01*
X0353500Y0126704D01*
X0353500Y0126763D01*
X0350500Y0123704D02*
X0350500Y0119504D01*
X0353500Y0116504D01*
X0353500Y0104263D01*
X0370000Y0119804D02*
X0370000Y0123704D01*
X0368800Y0124904D01*
X0368800Y0130304D01*
X0387700Y0149204D01*
X0387700Y0172304D02*
X0387700Y0177404D01*
X0396700Y0186404D01*
X0397260Y0186704D01*
X0397000Y0186704D01*
X0397000Y0190304D01*
X0394900Y0192404D01*
X0386800Y0193604D02*
X0394000Y0200804D01*
X0401200Y0200804D01*
X0409600Y0209204D01*
X0409600Y0219104D01*
X0416500Y0219104D01*
X0419800Y0215804D01*
X0422200Y0215804D01*
X0422300Y0215704D01*
X0415600Y0216104D02*
X0415600Y0205904D01*
X0422200Y0199304D01*
X0422260Y0199204D01*
X0422500Y0199604D01*
X0426400Y0203504D01*
X0432700Y0203504D01*
X0434500Y0201704D01*
X0456079Y0201704D01*
X0450400Y0199904D02*
X0430900Y0199904D01*
X0430300Y0199304D01*
X0429740Y0199204D01*
X0429700Y0199004D01*
X0417700Y0187004D01*
X0417100Y0187004D01*
X0405100Y0187004D01*
X0404740Y0186704D01*
X0404800Y0186704D01*
X0404800Y0197504D01*
X0404700Y0197704D01*
X0404200Y0197804D01*
X0401200Y0200804D01*
X0398441Y0211704D02*
X0397900Y0211904D01*
X0393100Y0216704D01*
X0388500Y0216704D01*
X0381000Y0211704D02*
X0383500Y0209204D01*
X0383500Y0201704D01*
X0383559Y0201704D01*
X0384100Y0201404D01*
X0384400Y0201104D01*
X0384400Y0197504D01*
X0398441Y0211704D02*
X0398500Y0211904D01*
X0406300Y0219704D01*
X0404740Y0221704D01*
X0404800Y0221504D01*
X0407200Y0219104D01*
X0409600Y0219104D01*
X0427000Y0241904D02*
X0417400Y0251504D01*
X0417100Y0252004D01*
X0417100Y0251804D01*
X0386200Y0251804D01*
X0385300Y0250904D01*
X0385000Y0250404D01*
X0385000Y0250304D01*
X0382300Y0250304D01*
X0382300Y0259604D01*
X0372700Y0259604D01*
X0370600Y0261704D01*
X0370600Y0278804D01*
X0375700Y0283904D01*
X0376900Y0283904D01*
X0384700Y0291704D01*
X0384740Y0291704D01*
X0381700Y0295904D02*
X0377500Y0291704D01*
X0377260Y0291704D01*
X0381700Y0295904D02*
X0411400Y0295904D01*
X0425800Y0281504D01*
X0426000Y0281428D01*
X0426400Y0281804D01*
X0440500Y0281804D01*
X0441100Y0282404D01*
X0463000Y0282404D01*
X0468700Y0276704D01*
X0468800Y0276704D01*
X0472300Y0255704D02*
X0465100Y0255704D01*
X0451000Y0241604D01*
X0451000Y0241546D01*
X0450700Y0241904D01*
X0427000Y0241904D01*
X0460000Y0223904D02*
X0460000Y0213104D01*
X0459976Y0212806D01*
X0452800Y0212804D02*
X0464500Y0201104D01*
X0465921Y0201704D01*
X0465400Y0201404D01*
X0464800Y0200804D01*
X0464800Y0191804D01*
X0464740Y0191704D01*
X0464500Y0191204D01*
X0464500Y0190304D01*
X0460900Y0186704D01*
X0457000Y0183704D02*
X0453100Y0187604D01*
X0457000Y0191504D01*
X0457260Y0191704D01*
X0457000Y0192104D01*
X0457000Y0193304D01*
X0450400Y0199904D01*
X0445000Y0190604D02*
X0448000Y0187604D01*
X0453100Y0187604D01*
X0457000Y0183704D02*
X0457000Y0181904D01*
X0457260Y0181704D01*
X0450100Y0179504D02*
X0444100Y0179504D01*
X0443200Y0180404D01*
X0443200Y0190304D01*
X0442300Y0190704D01*
X0442300Y0190604D01*
X0445000Y0190604D01*
X0450100Y0179504D02*
X0456700Y0172904D01*
X0456700Y0168404D01*
X0452500Y0164204D01*
X0452500Y0153104D01*
X0452102Y0152728D01*
X0451900Y0152504D01*
X0445600Y0152504D01*
X0440200Y0147104D01*
X0439760Y0146704D01*
X0439600Y0146804D01*
X0427300Y0146804D01*
X0427240Y0146704D01*
X0355800Y0139204D02*
X0355600Y0139304D01*
X0342700Y0139304D01*
X0333700Y0148304D01*
X0335200Y0139004D02*
X0320200Y0139004D01*
X0320200Y0114404D01*
X0320500Y0114104D01*
X0316300Y0122804D02*
X0312100Y0127004D01*
X0316300Y0122804D02*
X0316300Y0096404D01*
X0312100Y0092204D01*
X0312100Y0074204D01*
X0312299Y0073515D01*
X0312100Y0073604D01*
X0309400Y0073604D01*
X0309150Y0073515D01*
X0309100Y0073004D01*
X0308200Y0072104D01*
X0308200Y0065204D01*
X0299800Y0073604D02*
X0299701Y0073515D01*
X0299800Y0073604D02*
X0299800Y0079304D01*
X0303400Y0082904D01*
X0273700Y0120704D02*
X0278200Y0125204D01*
X0278200Y0133604D01*
X0282100Y0137504D01*
X0289900Y0142904D02*
X0290200Y0143204D01*
X0287200Y0146204D01*
X0278800Y0146204D01*
X0278657Y0146350D01*
X0290200Y0143204D02*
X0291400Y0142004D01*
X0294700Y0142004D01*
X0297700Y0139004D01*
X0304300Y0139004D01*
X0305200Y0139904D01*
X0305200Y0146204D01*
X0301000Y0150404D01*
X0301000Y0150444D01*
X0301000Y0151004D01*
X0299800Y0152204D01*
X0299800Y0161504D01*
X0299740Y0161704D01*
X0316200Y0139204D02*
X0316300Y0139004D01*
X0320200Y0139004D01*
X0273700Y0120704D02*
X0272500Y0120704D01*
X0264600Y0127004D02*
X0264400Y0127004D01*
X0259300Y0121904D01*
X0254800Y0121904D01*
X0254740Y0121704D01*
X0217600Y0175904D02*
X0209500Y0184004D01*
X0205900Y0184004D01*
X0205800Y0184204D01*
X0371000Y0241704D02*
X0371200Y0241904D01*
X0371200Y0245804D01*
X0375700Y0250304D01*
X0382300Y0250304D01*
X0379300Y0256604D02*
X0371200Y0256604D01*
X0371000Y0256704D01*
X0382300Y0259604D02*
X0382300Y0262604D01*
X0382200Y0262704D01*
X0442024Y0212806D02*
X0442300Y0212804D01*
X0452800Y0212804D01*
X0465921Y0201704D02*
X0473500Y0201704D01*
X0473500Y0201940D01*
M02*
