%
M48
M72
T01C0.01500
T02C0.03150
T03C0.03200
T04C0.03500
T05C0.03600
T06C0.03937
T07C0.04000
T08C0.25000
%
T01
X147028Y79886
X153928Y84086
X165028Y81686
X188428Y95786
X199528Y93386
X207328Y93386
X200128Y86186
X201928Y72386
X192928Y72386
X213328Y54986
X203728Y51686
X197428Y43286
X188428Y43286
X174328Y34886
X172228Y26786
X167128Y44486
X231628Y30686
X251128Y30686
X262828Y23186
X268228Y20786
X301828Y43286
X279628Y61586
X251128Y59786
X230128Y73886
X234928Y78686
X242428Y78086
X233128Y84086
X227728Y89486
X214528Y100586
X222028Y111386
X230428Y114986
X239728Y111686
X232228Y124886
X243628Y132386
X246928Y132386
X240628Y137786
X232528Y142586
X224428Y147686
X231628Y152786
X217828Y154286
X212728Y152786
X216028Y144986
X218128Y140186
X215728Y137786
X212428Y129986
X199228Y124886
X194428Y117086
X184828Y114386
X159328Y113786
X140428Y127886
X144628Y128486
X144628Y131786
X150028Y128786
X153328Y129386
X148828Y137186
X152728Y141986
X151228Y152786
X160828Y155186
X173128Y152786
X179428Y153386
X179428Y150086
X190228Y147386
X198928Y147686
X198328Y143786
X200428Y152486
X192028Y157286
X195328Y162386
X195328Y165686
X205228Y165686
X220528Y160586
X234328Y169286
X259528Y159986
X262828Y166886
X271828Y159386
X288328Y152186
X276928Y147386
X273628Y147686
X288328Y142586
X282328Y132086
X274828Y124586
X262828Y121886
X253828Y125186
X262828Y128486
X258028Y134786
X260428Y137186
X258028Y139586
X262828Y141986
X250828Y139586
X291328Y123086
X307828Y132386
X325528Y131486
X342328Y131786
X344128Y139586
X344128Y142886
X350728Y139586
X349828Y150086
X353428Y154886
X344128Y152486
X351328Y167786
X369628Y167786
X393628Y160586
X397828Y171386
X379228Y186086
X375328Y190586
X373828Y202586
X367528Y202886
X407728Y191186
X422728Y197486
X423328Y183386
X435328Y178586
X440428Y179786
X459328Y185786
X484228Y196586
X481828Y216386
X414928Y222986
X375628Y231086
X373228Y244586
X366928Y258686
X311728Y170786
X303628Y154886
X322828Y113786
X338728Y107786
X345328Y105086
X338728Y98486
X333928Y93986
X340228Y91586
X364528Y87986
X381928Y90386
X378928Y109886
X389728Y108686
X394828Y111086
X386128Y125186
X394228Y132386
X386128Y140486
X423928Y159086
X356728Y108386
X297628Y109886
X297628Y104486
X289228Y98186
X291928Y93986
X287428Y87986
X297628Y85286
X257728Y98486
X255328Y96086
X273628Y109886
X192628Y132986
X190228Y135386
X173128Y132986
X133828Y116186
X128128Y118586
X130228Y111086
X118528Y108686
X110728Y95486
X84328Y111086
X79228Y108686
X72628Y118586
X91228Y120986
X92728Y116186
X105928Y131186
X132328Y157286
X131428Y164786
X129028Y168686
X140428Y175886
X143428Y165986
X149428Y165986
X164428Y168386
X170128Y165986
X131428Y204086
X125128Y207086
X123028Y215786
X125728Y217886
X129028Y221186
X129028Y225086
X111928Y232886
X121228Y236186
X131428Y245486
X123328Y250286
X121228Y247586
X121228Y254786
X123628Y257186
X110428Y262286
X108628Y272186
X86428Y269186
X83128Y264686
X78328Y249986
X64528Y243686
X60628Y249686
X49228Y249086
X34828Y224786
X30028Y226286
X9928Y241586
X34528Y207686
X51928Y193586
X66628Y194186
X63328Y184286
X71428Y179486
X56128Y177086
X70528Y167186
X38428Y156986
X28528Y165986
X8728Y179186
X24028Y191486
X34828Y180986
X89728Y187286
X99928Y194186
X98128Y202586
X105628Y207386
X102328Y207686
X89728Y205886
X84928Y215786
X101128Y221186
X137428Y209486
X234028Y47186
T02
X169741Y36046
X151828Y23054
X141395Y48250
X131946Y53762
X167576Y66361
X331946Y53762
X341395Y48250
X369741Y36046
X351828Y23054
X367576Y66361
T03
X166828Y89786
X156828Y89786
X146828Y89786
X381828Y189786
X389328Y194786
X381828Y199786
T04
X11828Y49786
X11828Y89786
X86828Y89786
X86828Y49786
X416828Y49786
X416828Y89786
X491828Y89786
X491828Y49786
T05
X469628Y254786
X444028Y254786
T06
X321198Y46872
X292458Y46872
X292458Y27975
X321198Y27975
X208698Y27975
X179958Y27975
X179958Y46872
X208698Y46872
T07
X205728Y79486
X187928Y79486
X187928Y105086
X205728Y105086
X265428Y105086
X283228Y105086
X312928Y105086
X330728Y105086
X374328Y104786
X404328Y104786
X404328Y124786
X417928Y139486
X404328Y144786
X374328Y144786
X374328Y124786
X435728Y139486
X435728Y165086
X417928Y165086
X417928Y204486
X435728Y204486
X435728Y230086
X417928Y230086
X330728Y79486
X312928Y79486
X283228Y79486
X265428Y79486
X374328Y74786
X404328Y74786
X129328Y74786
X99328Y74786
X99328Y104786
X129328Y104786
X129328Y124786
X99328Y124786
X83228Y141986
X99328Y144786
X129328Y144786
X83228Y167586
X65428Y167586
X65428Y141986
X16828Y194786
X16828Y204786
X16828Y214786
X16828Y224786
X16828Y234786
X16828Y244786
X16828Y254786
X16828Y264786
X65428Y230086
X83228Y230086
X83228Y204486
X65428Y204486
T08
X96828Y247286
X401828Y247286
M30
