G75*
%MOIN*%
%OFA0B0*%
%FSLAX25Y25*%
%IPPOS*%
%LPD*%
%AMOC8*
5,1,8,0,0,1.08239X$1,22.5*
%
%ADD10C,0.22800*%
%ADD11C,0.08800*%
%ADD12R,0.05918X0.06706*%
%ADD13R,0.07099X0.07887*%
%ADD14R,0.06706X0.05918*%
%ADD15R,0.07887X0.07099*%
%ADD16R,0.03950X0.03162*%
%ADD17R,0.06050X0.06050*%
%ADD18R,0.07099X0.04737*%
%ADD19R,0.25209X0.22060*%
%ADD20R,0.09461X0.03162*%
%ADD21R,0.22060X0.25209*%
%ADD22R,0.04737X0.07099*%
%ADD23R,0.04737X0.02178*%
%ADD24R,0.03162X0.09461*%
%ADD25R,0.10249X0.06312*%
%ADD26R,0.06312X0.03556*%
%ADD27R,0.04737X0.05131*%
%ADD28R,0.05131X0.04737*%
%ADD29OC8,0.09300*%
%ADD30C,0.06800*%
%ADD31R,0.04300X0.03900*%
%ADD32R,0.03900X0.04300*%
%ADD33OC8,0.13200*%
%ADD34R,0.08674X0.10643*%
%ADD35R,0.08674X0.13792*%
%ADD36R,0.02769X0.13005*%
%ADD37C,0.04343*%
%ADD38OC8,0.05600*%
%ADD39R,0.10643X0.08674*%
%ADD40R,0.10643X0.06706*%
%ADD41C,0.04737*%
%ADD42C,0.03500*%
D10*
X0190858Y0376239D03*
X0495858Y0376239D03*
D11*
X0444858Y0202739D03*
X0244858Y0202739D03*
D12*
X0221098Y0214239D03*
X0213618Y0214239D03*
X0148598Y0281239D03*
X0141118Y0281239D03*
X0406118Y0271239D03*
X0413598Y0271239D03*
X0413598Y0261239D03*
X0406118Y0261239D03*
X0496118Y0321239D03*
X0503598Y0321239D03*
X0503598Y0336239D03*
X0496118Y0336239D03*
D13*
X0481370Y0322739D03*
X0470346Y0322739D03*
X0551846Y0291239D03*
X0562870Y0291239D03*
X0562870Y0281239D03*
X0551846Y0281239D03*
X0520370Y0391239D03*
X0509346Y0391239D03*
X0264870Y0217239D03*
X0253846Y0217239D03*
X0223370Y0232739D03*
X0212346Y0232739D03*
D14*
X0412358Y0242498D03*
X0412358Y0249979D03*
D15*
X0111858Y0315727D03*
X0111858Y0326750D03*
D16*
X0154437Y0252739D03*
X0164280Y0252739D03*
X0469937Y0311239D03*
X0479780Y0311239D03*
X0510937Y0249739D03*
X0520780Y0249739D03*
D17*
X0498858Y0215239D03*
X0498858Y0175239D03*
X0573858Y0175239D03*
X0573858Y0215239D03*
X0189858Y0216239D03*
X0189858Y0176239D03*
X0114858Y0176239D03*
X0114858Y0216239D03*
D18*
X0146256Y0252262D03*
X0146256Y0270215D03*
X0545961Y0270215D03*
X0545961Y0252262D03*
D19*
X0574701Y0261239D03*
X0117516Y0261239D03*
D20*
X0275748Y0261739D03*
X0275748Y0256739D03*
X0275748Y0251739D03*
X0275748Y0246739D03*
X0275748Y0241739D03*
X0275748Y0236739D03*
X0275748Y0231739D03*
X0301968Y0231739D03*
X0301968Y0236739D03*
X0301968Y0241739D03*
X0301968Y0246739D03*
X0301968Y0251739D03*
X0301968Y0256739D03*
X0301968Y0261739D03*
X0301968Y0266739D03*
X0301968Y0271739D03*
X0301968Y0276739D03*
X0275748Y0276739D03*
X0275748Y0271739D03*
X0275748Y0266739D03*
X0333622Y0167739D03*
X0333622Y0162739D03*
X0333622Y0157739D03*
X0333622Y0152739D03*
X0354094Y0152739D03*
X0354094Y0157739D03*
X0354094Y0162739D03*
X0354094Y0167739D03*
X0446748Y0217739D03*
X0446748Y0222739D03*
X0446748Y0227739D03*
X0446748Y0232739D03*
X0446748Y0237739D03*
X0446748Y0242739D03*
X0446748Y0247739D03*
X0446748Y0252739D03*
X0446748Y0257739D03*
X0446748Y0262739D03*
X0472968Y0262739D03*
X0472968Y0257739D03*
X0472968Y0252739D03*
X0472968Y0247739D03*
X0472968Y0242739D03*
X0472968Y0237739D03*
X0472968Y0232739D03*
X0472968Y0227739D03*
X0472968Y0222739D03*
X0472968Y0217739D03*
D21*
X0552358Y0338581D03*
D22*
X0543382Y0309841D03*
X0561335Y0309841D03*
D23*
X0382516Y0276770D03*
X0382516Y0274211D03*
X0382516Y0271652D03*
X0382516Y0269093D03*
X0382516Y0266534D03*
X0382516Y0263975D03*
X0382516Y0261416D03*
X0382516Y0258857D03*
X0382516Y0256298D03*
X0382516Y0253739D03*
X0382516Y0251180D03*
X0382516Y0248620D03*
X0382516Y0246061D03*
X0382516Y0243502D03*
X0382516Y0240943D03*
X0382516Y0238384D03*
X0382516Y0235825D03*
X0382516Y0233266D03*
X0382516Y0230707D03*
X0352201Y0230707D03*
X0352201Y0233266D03*
X0352201Y0235825D03*
X0352201Y0238384D03*
X0352201Y0240943D03*
X0352201Y0243502D03*
X0352201Y0246061D03*
X0352201Y0248620D03*
X0352201Y0251180D03*
X0352201Y0253739D03*
X0352201Y0256298D03*
X0352201Y0258857D03*
X0352201Y0261416D03*
X0352201Y0263975D03*
X0352201Y0266534D03*
X0352201Y0269093D03*
X0352201Y0271652D03*
X0352201Y0274211D03*
X0352201Y0276770D03*
D24*
X0569858Y0281002D03*
X0574858Y0281002D03*
X0579858Y0281002D03*
X0584858Y0281002D03*
X0584858Y0301475D03*
X0579858Y0301475D03*
X0574858Y0301475D03*
X0569858Y0301475D03*
X0122358Y0301475D03*
X0117358Y0301475D03*
X0112358Y0301475D03*
X0107358Y0301475D03*
X0107358Y0281002D03*
X0112358Y0281002D03*
X0117358Y0281002D03*
X0122358Y0281002D03*
D25*
X0519858Y0366514D03*
X0519858Y0375963D03*
D26*
X0402358Y0249585D03*
X0402358Y0242892D03*
D27*
X0486512Y0306239D03*
X0493205Y0306239D03*
X0501512Y0306239D03*
X0508205Y0306239D03*
X0485705Y0336239D03*
X0479012Y0336239D03*
X0496512Y0351239D03*
X0503205Y0351239D03*
X0495705Y0395739D03*
X0489012Y0395739D03*
X0571512Y0345239D03*
X0578205Y0345239D03*
X0578205Y0334739D03*
X0571512Y0334739D03*
X0571512Y0323739D03*
X0578205Y0323739D03*
X0578205Y0313739D03*
X0571512Y0313739D03*
X0536705Y0249739D03*
X0530012Y0249739D03*
X0190705Y0293739D03*
X0184012Y0293739D03*
X0176205Y0301239D03*
X0169512Y0301239D03*
X0161205Y0301239D03*
X0154512Y0301239D03*
X0155512Y0311239D03*
X0162205Y0311239D03*
X0145705Y0311239D03*
X0139012Y0311239D03*
X0128705Y0317239D03*
X0122012Y0317239D03*
X0121012Y0325239D03*
X0127705Y0325239D03*
X0128205Y0334239D03*
X0121512Y0334239D03*
X0121512Y0342239D03*
X0128205Y0342239D03*
X0128205Y0351739D03*
X0121512Y0351739D03*
X0139012Y0336239D03*
X0145705Y0336239D03*
X0144012Y0291239D03*
X0150705Y0291239D03*
X0135705Y0291239D03*
X0129012Y0291239D03*
X0157512Y0263739D03*
X0164205Y0263739D03*
X0145705Y0394239D03*
X0139012Y0394239D03*
D28*
X0214858Y0264585D03*
X0214858Y0257892D03*
X0205358Y0199585D03*
X0205358Y0192892D03*
X0323858Y0168585D03*
X0323858Y0161892D03*
X0323858Y0153585D03*
X0323858Y0146892D03*
X0364858Y0147892D03*
X0364858Y0154585D03*
X0364858Y0161892D03*
X0364858Y0168585D03*
X0402358Y0227892D03*
X0402358Y0234585D03*
X0484858Y0236892D03*
X0484858Y0243585D03*
X0485858Y0255892D03*
X0485858Y0262585D03*
X0494858Y0269892D03*
X0494858Y0276585D03*
X0533858Y0307892D03*
X0533858Y0314585D03*
X0483858Y0219085D03*
X0483858Y0212392D03*
X0483358Y0195585D03*
X0483358Y0188892D03*
D29*
X0537058Y0376239D03*
X0562658Y0376239D03*
D30*
X0372358Y0194739D02*
X0372358Y0188739D01*
X0362358Y0188739D02*
X0362358Y0194739D01*
X0352358Y0194739D02*
X0352358Y0188739D01*
X0342358Y0188739D02*
X0342358Y0194739D01*
X0332358Y0194739D02*
X0332358Y0188739D01*
X0322358Y0188739D02*
X0322358Y0194739D01*
X0312358Y0194739D02*
X0312358Y0188739D01*
X0302358Y0188739D02*
X0302358Y0194739D01*
D31*
X0486358Y0347339D03*
X0478358Y0351139D03*
X0486358Y0354939D03*
X0127858Y0358339D03*
X0127858Y0365939D03*
X0119858Y0362139D03*
D32*
X0138658Y0365239D03*
X0146258Y0365239D03*
X0142458Y0357239D03*
X0139158Y0350239D03*
X0146758Y0350239D03*
X0142958Y0342239D03*
X0141758Y0326739D03*
X0137958Y0318739D03*
X0145558Y0318739D03*
X0141758Y0305739D03*
X0137958Y0297739D03*
X0145558Y0297739D03*
X0169958Y0308239D03*
X0177558Y0308239D03*
X0173758Y0316239D03*
X0142458Y0377239D03*
X0138658Y0385239D03*
X0146258Y0385239D03*
X0468958Y0386739D03*
X0476558Y0386739D03*
X0472758Y0394739D03*
X0576158Y0363239D03*
X0583758Y0363239D03*
X0579958Y0355239D03*
X0523758Y0315239D03*
X0516158Y0315239D03*
X0519958Y0307239D03*
X0524758Y0300239D03*
X0536158Y0300239D03*
X0543758Y0300239D03*
X0539958Y0292239D03*
X0528558Y0292239D03*
X0520958Y0292239D03*
D33*
X0468858Y0338239D03*
X0468858Y0355739D03*
D34*
X0412378Y0149428D03*
X0377339Y0149428D03*
X0312878Y0149428D03*
X0277839Y0149428D03*
D35*
X0277839Y0172656D03*
X0312878Y0172656D03*
X0377339Y0172656D03*
X0412378Y0172656D03*
D36*
X0401157Y0173050D03*
X0398008Y0173050D03*
X0394858Y0173050D03*
X0391709Y0173050D03*
X0388559Y0173050D03*
X0301657Y0173050D03*
X0298508Y0173050D03*
X0295358Y0173050D03*
X0292209Y0173050D03*
X0289059Y0173050D03*
D37*
X0286697Y0161239D03*
X0304020Y0161239D03*
X0386197Y0161239D03*
X0403520Y0161239D03*
D38*
X0474858Y0283239D03*
X0474858Y0293239D03*
X0474858Y0303239D03*
D39*
X0233594Y0144719D03*
X0263122Y0144719D03*
X0427594Y0144719D03*
X0457122Y0144719D03*
D40*
X0457122Y0179561D03*
X0427594Y0179561D03*
X0263122Y0179561D03*
X0233594Y0179561D03*
D41*
X0238516Y0164798D03*
X0258201Y0164798D03*
X0432516Y0164798D03*
X0452201Y0164798D03*
D42*
X0464158Y0180239D03*
X0472558Y0188639D03*
X0440458Y0216539D03*
X0440458Y0232739D03*
X0440458Y0243839D03*
X0456658Y0248339D03*
X0462958Y0250739D03*
X0466558Y0245639D03*
X0466558Y0242339D03*
X0478858Y0255239D03*
X0471958Y0267839D03*
X0471958Y0277739D03*
X0462358Y0264839D03*
X0464158Y0259739D03*
X0455758Y0261539D03*
X0440158Y0263939D03*
X0428758Y0263939D03*
X0424858Y0263939D03*
X0421558Y0263939D03*
X0418258Y0263939D03*
X0411658Y0277139D03*
X0406258Y0282539D03*
X0406258Y0285839D03*
X0401458Y0284339D03*
X0399058Y0281939D03*
X0397258Y0273839D03*
X0401158Y0266639D03*
X0387058Y0273839D03*
X0384958Y0281939D03*
X0376558Y0276839D03*
X0373258Y0276239D03*
X0369958Y0276239D03*
X0370258Y0269039D03*
X0366358Y0266339D03*
X0377758Y0261539D03*
X0369058Y0253739D03*
X0361858Y0251339D03*
X0357058Y0256139D03*
X0356158Y0246239D03*
X0364858Y0243539D03*
X0374158Y0238439D03*
X0376558Y0244139D03*
X0387058Y0245939D03*
X0388858Y0248939D03*
X0401158Y0257939D03*
X0401758Y0238739D03*
X0398158Y0234839D03*
X0374158Y0217739D03*
X0357658Y0228539D03*
X0345958Y0226139D03*
X0332758Y0236939D03*
X0342358Y0237839D03*
X0348058Y0247139D03*
X0330958Y0259139D03*
X0335158Y0266639D03*
X0329758Y0267839D03*
X0330958Y0271439D03*
X0328858Y0274139D03*
X0319258Y0267839D03*
X0315958Y0267839D03*
X0312058Y0267839D03*
X0308758Y0268439D03*
X0308458Y0263039D03*
X0312358Y0253739D03*
X0312358Y0247139D03*
X0312358Y0239339D03*
X0295558Y0231539D03*
X0292258Y0228839D03*
X0282058Y0232739D03*
X0269458Y0235739D03*
X0269458Y0241139D03*
X0269758Y0249239D03*
X0261958Y0253139D03*
X0258358Y0252839D03*
X0256258Y0255539D03*
X0255658Y0261539D03*
X0248158Y0255539D03*
X0243358Y0260339D03*
X0250858Y0266339D03*
X0248458Y0271139D03*
X0254758Y0271739D03*
X0256858Y0266339D03*
X0261058Y0268739D03*
X0269458Y0262139D03*
X0282058Y0264539D03*
X0288358Y0259739D03*
X0284158Y0256739D03*
X0286858Y0250139D03*
X0282058Y0248639D03*
X0284458Y0244439D03*
X0293758Y0247139D03*
X0294058Y0266339D03*
X0294658Y0273839D03*
X0308758Y0276539D03*
X0313558Y0279539D03*
X0333658Y0284639D03*
X0262558Y0233039D03*
X0256858Y0238739D03*
X0252058Y0248039D03*
X0244258Y0249239D03*
X0233758Y0255539D03*
X0219058Y0260339D03*
X0235558Y0266339D03*
X0216058Y0279539D03*
X0222058Y0287339D03*
X0198358Y0293339D03*
X0180958Y0283139D03*
X0170458Y0284639D03*
X0160258Y0278339D03*
X0156958Y0278639D03*
X0155458Y0273539D03*
X0185458Y0269339D03*
X0196558Y0280439D03*
X0172858Y0305039D03*
X0177358Y0312839D03*
X0181258Y0308339D03*
X0179758Y0319139D03*
X0189958Y0323639D03*
X0191158Y0326939D03*
X0193858Y0330839D03*
X0196258Y0328439D03*
X0202858Y0331139D03*
X0198058Y0335939D03*
X0200458Y0338339D03*
X0203758Y0344939D03*
X0204658Y0352139D03*
X0215758Y0341639D03*
X0218458Y0344039D03*
X0218458Y0347339D03*
X0222058Y0347639D03*
X0215758Y0335939D03*
X0218458Y0333539D03*
X0205258Y0319139D03*
X0179158Y0339539D03*
X0191458Y0340739D03*
X0191458Y0344039D03*
X0169258Y0354539D03*
X0171658Y0367739D03*
X0157858Y0365039D03*
X0138658Y0361439D03*
X0139258Y0353939D03*
X0152458Y0336839D03*
X0150058Y0334439D03*
X0135058Y0334439D03*
X0116158Y0332039D03*
X0128758Y0305939D03*
X0124558Y0287939D03*
X0159958Y0315539D03*
X0164458Y0320039D03*
X0166858Y0336839D03*
X0215758Y0363839D03*
X0219058Y0363839D03*
X0222658Y0363539D03*
X0222658Y0366839D03*
X0216058Y0371339D03*
X0215758Y0379439D03*
X0206458Y0387239D03*
X0205258Y0394139D03*
X0175558Y0391739D03*
X0172558Y0387239D03*
X0165358Y0392639D03*
X0145558Y0389339D03*
X0231058Y0241139D03*
X0235258Y0234839D03*
X0221158Y0227039D03*
X0221158Y0220739D03*
X0207058Y0230639D03*
X0204058Y0224039D03*
X0199258Y0222839D03*
X0264958Y0222839D03*
X0268858Y0222839D03*
X0274258Y0218039D03*
X0270358Y0209039D03*
X0304858Y0200339D03*
X0289258Y0181139D03*
X0347758Y0157739D03*
X0367258Y0176039D03*
X0357058Y0178439D03*
X0385558Y0176339D03*
X0416158Y0208739D03*
X0488458Y0217139D03*
X0523858Y0242639D03*
X0522358Y0245939D03*
X0542758Y0248339D03*
X0538258Y0288239D03*
X0521158Y0302639D03*
X0517558Y0295739D03*
X0507958Y0301739D03*
X0503758Y0301439D03*
X0482458Y0308339D03*
X0465958Y0317639D03*
X0482458Y0290639D03*
X0538258Y0309239D03*
X0549058Y0308939D03*
X0559858Y0298139D03*
X0561358Y0320039D03*
X0545458Y0323639D03*
X0476458Y0377039D03*
X0480058Y0386339D03*
X0418858Y0284339D03*
X0421258Y0281939D03*
X0325258Y0226139D03*
M02*
