G75*
%MOIN*%
%OFA0B0*%
%FSLAX25Y25*%
%IPPOS*%
%LPD*%
%AMOC8*
5,1,8,0,0,1.08239X$1,22.5*
%
%ADD10R,0.65000X0.65000*%
%ADD11R,0.60000X0.65000*%
%ADD12R,0.20000X0.35000*%
%ADD13R,2.25000X1.10000*%
%ADD14R,0.05500X0.05500*%
%ADD15OC8,0.05200*%
%ADD16C,0.06000*%
%ADD17R,0.03543X0.02756*%
%ADD18R,0.02756X0.03543*%
%ADD19C,0.05200*%
%ADD20OC8,0.08500*%
%ADD21R,0.03100X0.03500*%
%ADD22R,0.05118X0.01181*%
%ADD23R,0.08661X0.07087*%
%ADD24C,0.05150*%
%ADD25C,0.05937*%
%ADD26C,0.00600*%
%ADD27C,0.03100*%
D10*
X0453500Y0089204D03*
D11*
X0051000Y0089204D03*
D12*
X0116000Y0054204D03*
X0386000Y0054204D03*
D13*
X0253500Y0251704D03*
D14*
X0011000Y0071704D03*
X0011000Y0111704D03*
X0086000Y0111704D03*
X0086000Y0071704D03*
X0416000Y0071704D03*
X0416000Y0111704D03*
X0491000Y0111704D03*
X0491000Y0071704D03*
D15*
X0381000Y0211704D03*
X0388500Y0216704D03*
X0381000Y0221704D03*
D16*
X0417100Y0223404D02*
X0417100Y0229404D01*
X0434900Y0229404D02*
X0434900Y0223404D01*
X0434900Y0249004D02*
X0434900Y0255004D01*
X0417100Y0255004D02*
X0417100Y0249004D01*
X0417100Y0190004D02*
X0417100Y0184004D01*
X0434900Y0184004D02*
X0434900Y0190004D01*
X0409000Y0166704D02*
X0403000Y0166704D01*
X0417100Y0164404D02*
X0417100Y0158404D01*
X0434900Y0158404D02*
X0434900Y0164404D01*
X0409000Y0146704D02*
X0403000Y0146704D01*
X0379000Y0146704D02*
X0373000Y0146704D01*
X0373000Y0126704D02*
X0379000Y0126704D01*
X0403000Y0126704D02*
X0409000Y0126704D01*
X0409000Y0096704D02*
X0403000Y0096704D01*
X0379000Y0096704D02*
X0373000Y0096704D01*
X0329900Y0098404D02*
X0329900Y0104404D01*
X0312100Y0104404D02*
X0312100Y0098404D01*
X0282400Y0098404D02*
X0282400Y0104404D01*
X0264600Y0104404D02*
X0264600Y0098404D01*
X0264600Y0124004D02*
X0264600Y0130004D01*
X0282400Y0130004D02*
X0282400Y0124004D01*
X0312100Y0124004D02*
X0312100Y0130004D01*
X0329900Y0130004D02*
X0329900Y0124004D01*
X0373000Y0166704D02*
X0379000Y0166704D01*
X0204900Y0130004D02*
X0204900Y0124004D01*
X0187100Y0124004D02*
X0187100Y0130004D01*
X0187100Y0104404D02*
X0187100Y0098404D01*
X0204900Y0098404D02*
X0204900Y0104404D01*
X0129000Y0096704D02*
X0123000Y0096704D01*
X0099000Y0096704D02*
X0093000Y0096704D01*
X0093000Y0126704D02*
X0099000Y0126704D01*
X0123000Y0126704D02*
X0129000Y0126704D01*
X0129000Y0146704D02*
X0123000Y0146704D01*
X0099000Y0146704D02*
X0093000Y0146704D01*
X0082400Y0160904D02*
X0082400Y0166904D01*
X0093000Y0166704D02*
X0099000Y0166704D01*
X0123000Y0166704D02*
X0129000Y0166704D01*
X0082400Y0186504D02*
X0082400Y0192504D01*
X0064600Y0192504D02*
X0064600Y0186504D01*
X0064600Y0166904D02*
X0064600Y0160904D01*
X0019000Y0216704D02*
X0013000Y0216704D01*
X0013000Y0226704D02*
X0019000Y0226704D01*
X0019000Y0236704D02*
X0013000Y0236704D01*
X0013000Y0246704D02*
X0019000Y0246704D01*
X0019000Y0256704D02*
X0013000Y0256704D01*
X0013000Y0266704D02*
X0019000Y0266704D01*
X0019000Y0276704D02*
X0013000Y0276704D01*
X0013000Y0286704D02*
X0019000Y0286704D01*
X0064600Y0255004D02*
X0064600Y0249004D01*
X0082400Y0249004D02*
X0082400Y0255004D01*
X0082400Y0229404D02*
X0082400Y0223404D01*
X0064600Y0223404D02*
X0064600Y0229404D01*
D17*
X0066000Y0216763D03*
X0066000Y0211645D03*
X0066000Y0204263D03*
X0066000Y0199145D03*
X0081000Y0209145D03*
X0081000Y0214263D03*
X0101000Y0204263D03*
X0101000Y0199145D03*
X0101000Y0236645D03*
X0101000Y0241763D03*
D18*
X0098559Y0249204D03*
X0093441Y0249204D03*
X0093559Y0211704D03*
X0088441Y0211704D03*
X0088441Y0191704D03*
X0093559Y0191704D03*
D19*
X0146000Y0114304D02*
X0146000Y0109104D01*
X0156000Y0109104D02*
X0156000Y0114304D01*
X0166000Y0114304D02*
X0166000Y0109104D01*
D20*
X0443200Y0276704D03*
X0468800Y0276704D03*
D21*
X0097200Y0228204D03*
X0089600Y0228204D03*
X0090900Y0235204D03*
X0087100Y0243204D03*
X0094700Y0243204D03*
X0093400Y0220204D03*
X0076100Y0208204D03*
X0072300Y0200204D03*
X0079900Y0200204D03*
X0087100Y0205704D03*
X0094700Y0205704D03*
X0090900Y0197704D03*
D22*
X0115705Y0203771D03*
X0115705Y0205739D03*
X0115705Y0207708D03*
X0115705Y0209676D03*
X0115705Y0211645D03*
X0115705Y0213613D03*
X0115705Y0215582D03*
X0115705Y0217550D03*
X0115705Y0219519D03*
X0115705Y0221487D03*
X0115705Y0223456D03*
X0115705Y0225424D03*
X0115705Y0227393D03*
X0115705Y0229361D03*
X0115705Y0231330D03*
X0115705Y0233298D03*
X0115705Y0235267D03*
X0115705Y0237235D03*
X0115705Y0239204D03*
X0115705Y0241172D03*
X0115705Y0243141D03*
X0115705Y0245109D03*
X0115705Y0247078D03*
X0115705Y0249046D03*
X0115705Y0251015D03*
X0115705Y0252983D03*
X0115705Y0254952D03*
X0115705Y0256920D03*
X0115705Y0258889D03*
X0115705Y0260857D03*
X0115705Y0262826D03*
X0115705Y0264794D03*
X0115705Y0266763D03*
X0115705Y0268731D03*
X0115705Y0270700D03*
X0115705Y0272669D03*
X0115705Y0274637D03*
X0115705Y0276606D03*
X0115705Y0278574D03*
X0115705Y0280543D03*
X0115705Y0282511D03*
X0115705Y0284480D03*
X0115705Y0286448D03*
X0115705Y0288417D03*
X0115705Y0290385D03*
D23*
X0128500Y0297865D03*
X0128500Y0196291D03*
D24*
X0164173Y0088279D02*
X0169323Y0088279D01*
X0140567Y0072743D02*
X0140567Y0067594D01*
X0131118Y0073106D02*
X0131118Y0078255D01*
X0168913Y0060539D02*
X0168913Y0055389D01*
X0153575Y0044972D02*
X0148425Y0044972D01*
X0331118Y0073106D02*
X0331118Y0078255D01*
X0340567Y0072743D02*
X0340567Y0067594D01*
X0368913Y0060539D02*
X0368913Y0055389D01*
X0353575Y0044972D02*
X0348425Y0044972D01*
X0364173Y0088279D02*
X0369323Y0088279D01*
D25*
X0320370Y0071759D02*
X0320370Y0065822D01*
X0320370Y0052861D02*
X0320370Y0046924D01*
X0291630Y0046924D02*
X0291630Y0052861D01*
X0291630Y0065822D02*
X0291630Y0071759D01*
X0207870Y0071759D02*
X0207870Y0065822D01*
X0207870Y0052861D02*
X0207870Y0046924D01*
X0179130Y0046924D02*
X0179130Y0052861D01*
X0179130Y0065822D02*
X0179130Y0071759D01*
D26*
X0185200Y0075704D02*
X0171400Y0075704D01*
X0159400Y0087704D01*
X0164200Y0091904D02*
X0179800Y0091904D01*
X0196000Y0075704D01*
X0233200Y0075704D01*
X0236200Y0072704D01*
X0257200Y0072704D01*
X0264400Y0079904D01*
X0264400Y0081104D01*
X0260200Y0085304D01*
X0260200Y0114104D01*
X0325600Y0114104D01*
X0334000Y0122504D01*
X0334000Y0135104D01*
X0379000Y0180104D01*
X0406600Y0180104D01*
X0407200Y0177104D02*
X0413200Y0183104D01*
X0413200Y0199304D01*
X0413800Y0199904D01*
X0413800Y0204704D01*
X0407200Y0211304D01*
X0388600Y0211304D01*
X0385000Y0214904D01*
X0385000Y0222704D01*
X0374800Y0232904D01*
X0374800Y0252704D01*
X0370600Y0263504D02*
X0370600Y0199904D01*
X0365200Y0194504D01*
X0278200Y0194504D01*
X0277600Y0191504D02*
X0274600Y0194504D01*
X0227200Y0194504D01*
X0214000Y0181304D01*
X0210400Y0181304D01*
X0200200Y0171104D01*
X0176200Y0171104D01*
X0173200Y0174104D01*
X0172600Y0174704D01*
X0152200Y0174704D01*
X0143800Y0183104D01*
X0136600Y0183104D01*
X0134200Y0185504D01*
X0134200Y0205304D01*
X0121600Y0217904D01*
X0121600Y0247904D01*
X0118600Y0250904D01*
X0116200Y0250904D01*
X0115705Y0251015D01*
X0116200Y0252704D02*
X0115705Y0252983D01*
X0116200Y0252704D02*
X0118600Y0252704D01*
X0124000Y0247304D01*
X0124000Y0237104D01*
X0135400Y0225704D01*
X0135400Y0222104D01*
X0138400Y0225704D02*
X0130000Y0234104D01*
X0130000Y0262904D01*
X0120400Y0272504D01*
X0116200Y0272504D01*
X0115705Y0272669D01*
X0116200Y0274304D02*
X0115705Y0274637D01*
X0116200Y0274304D02*
X0120400Y0274304D01*
X0136000Y0258704D01*
X0136000Y0234704D01*
X0133000Y0232904D02*
X0139600Y0226304D01*
X0139600Y0192704D01*
X0146200Y0186104D01*
X0145600Y0183104D02*
X0138400Y0190304D01*
X0138400Y0225704D01*
X0133000Y0232904D02*
X0133000Y0237104D01*
X0127000Y0237704D02*
X0127000Y0250304D01*
X0118600Y0258704D01*
X0116200Y0258704D01*
X0115705Y0258889D01*
X0115600Y0260504D02*
X0115705Y0260857D01*
X0115600Y0261104D01*
X0115600Y0262304D01*
X0115705Y0262826D01*
X0115600Y0262904D01*
X0115600Y0264704D01*
X0115705Y0264794D01*
X0115600Y0265304D01*
X0115600Y0266504D01*
X0115705Y0266763D01*
X0115600Y0267104D01*
X0115600Y0268304D01*
X0115705Y0268731D01*
X0115705Y0270700D02*
X0116200Y0270704D01*
X0118600Y0270704D01*
X0121000Y0268304D01*
X0115705Y0276606D02*
X0115600Y0276704D01*
X0112600Y0276704D01*
X0103000Y0286304D01*
X0089200Y0286304D01*
X0083200Y0280304D01*
X0079000Y0280304D01*
X0075400Y0280904D02*
X0073000Y0283304D01*
X0049600Y0283304D01*
X0027400Y0261104D01*
X0011800Y0261104D01*
X0008800Y0258104D01*
X0008800Y0250304D01*
X0016000Y0256304D02*
X0016000Y0256704D01*
X0016000Y0256304D02*
X0025000Y0247304D01*
X0025000Y0219104D01*
X0047800Y0196304D01*
X0047800Y0189704D01*
X0080800Y0156704D01*
X0091600Y0156704D01*
X0093400Y0158504D01*
X0096400Y0156704D02*
X0105400Y0147704D01*
X0105400Y0142904D01*
X0117400Y0130904D01*
X0136000Y0130904D01*
X0147400Y0119504D01*
X0160000Y0119504D01*
X0157600Y0118304D02*
X0159400Y0116504D01*
X0163000Y0116504D01*
X0164800Y0118304D01*
X0173200Y0118304D01*
X0171400Y0112904D02*
X0182800Y0124304D01*
X0182800Y0138104D01*
X0185200Y0140504D01*
X0186400Y0140504D01*
X0188200Y0138704D01*
X0190000Y0138704D01*
X0185800Y0137504D02*
X0203200Y0120104D01*
X0214600Y0120104D01*
X0214600Y0114704D02*
X0182200Y0114704D01*
X0171400Y0103904D01*
X0162400Y0103904D01*
X0161800Y0104504D01*
X0158200Y0104504D01*
X0156400Y0101504D02*
X0146200Y0111704D01*
X0146000Y0111704D01*
X0137200Y0115304D02*
X0137200Y0102104D01*
X0196600Y0042704D01*
X0209800Y0042704D01*
X0213400Y0046304D01*
X0203800Y0057104D02*
X0241000Y0057104D01*
X0247600Y0050504D01*
X0281800Y0050504D01*
X0310600Y0079304D01*
X0310600Y0082304D01*
X0310000Y0085304D02*
X0356200Y0085304D01*
X0363400Y0092504D01*
X0380800Y0092504D01*
X0391000Y0102704D01*
X0397000Y0096704D01*
X0406000Y0096704D01*
X0391000Y0102704D02*
X0368800Y0124904D01*
X0368800Y0159104D01*
X0376000Y0166304D01*
X0376000Y0166704D01*
X0376000Y0166904D01*
X0380200Y0171104D01*
X0410200Y0171104D01*
X0421000Y0181904D01*
X0421000Y0182504D01*
X0460000Y0221504D01*
X0460000Y0268304D01*
X0468400Y0276704D01*
X0468800Y0276704D01*
X0434900Y0252004D02*
X0434800Y0251504D01*
X0434800Y0235304D01*
X0419800Y0220304D01*
X0419800Y0196904D01*
X0408400Y0196904D02*
X0396400Y0196904D01*
X0380800Y0181304D01*
X0375400Y0181304D01*
X0314200Y0120104D01*
X0280600Y0120104D01*
X0271000Y0129704D01*
X0271600Y0133904D02*
X0265000Y0127304D01*
X0264600Y0127004D01*
X0265000Y0126704D01*
X0267400Y0124304D01*
X0267400Y0117104D01*
X0260200Y0114104D02*
X0260200Y0127304D01*
X0256000Y0131504D01*
X0256000Y0137504D01*
X0256000Y0138104D01*
X0256000Y0137504D02*
X0266200Y0147704D01*
X0274000Y0148904D02*
X0274000Y0140504D01*
X0278200Y0136304D01*
X0313600Y0136304D01*
X0324400Y0147104D01*
X0322600Y0147104D01*
X0324400Y0147104D02*
X0371800Y0194504D01*
X0371800Y0207704D01*
X0380800Y0216704D01*
X0380800Y0221504D01*
X0381000Y0221704D01*
X0388500Y0216704D02*
X0388600Y0216704D01*
X0390400Y0214904D01*
X0395200Y0214904D01*
X0400600Y0220304D01*
X0416800Y0204104D01*
X0416800Y0187304D01*
X0417100Y0187004D01*
X0407200Y0177104D02*
X0377800Y0177104D01*
X0337000Y0136304D01*
X0337000Y0130904D01*
X0329900Y0127004D02*
X0329800Y0126704D01*
X0322600Y0126704D01*
X0313000Y0117104D01*
X0286600Y0117104D01*
X0290800Y0127304D02*
X0284200Y0133904D01*
X0271600Y0133904D01*
X0268600Y0140504D02*
X0263800Y0140504D01*
X0268600Y0140504D02*
X0271000Y0142904D01*
X0274000Y0148904D02*
X0283000Y0157904D01*
X0283000Y0177104D01*
X0283000Y0180704D02*
X0277000Y0174704D01*
X0266800Y0174704D01*
X0256600Y0164504D01*
X0254800Y0164504D01*
X0253000Y0168704D02*
X0243400Y0159104D01*
X0241600Y0159104D01*
X0250000Y0156104D02*
X0224800Y0156104D01*
X0227200Y0154904D02*
X0219400Y0147104D01*
X0199000Y0147104D01*
X0195400Y0150704D01*
X0190600Y0150704D01*
X0189400Y0149504D01*
X0194800Y0147704D02*
X0199000Y0143504D01*
X0231400Y0143504D01*
X0229600Y0141704D02*
X0230800Y0140504D01*
X0238000Y0140504D01*
X0244000Y0146504D01*
X0248800Y0144104D02*
X0236800Y0132104D01*
X0226600Y0132104D01*
X0224800Y0127304D02*
X0224800Y0108104D01*
X0242200Y0090704D01*
X0242200Y0084104D01*
X0225400Y0080504D02*
X0222400Y0083504D01*
X0218200Y0079304D01*
X0194200Y0079304D01*
X0172000Y0101504D01*
X0156400Y0101504D01*
X0152800Y0103304D02*
X0164200Y0091904D01*
X0174400Y0088304D02*
X0200800Y0061904D01*
X0209800Y0061904D01*
X0217600Y0069704D01*
X0256000Y0069704D01*
X0271600Y0085304D01*
X0275200Y0085304D01*
X0302200Y0112304D01*
X0343600Y0112304D01*
X0359200Y0096704D01*
X0376000Y0096704D01*
X0347200Y0103904D02*
X0341200Y0103904D01*
X0325000Y0087704D01*
X0281200Y0087704D01*
X0260800Y0067304D01*
X0219400Y0067304D01*
X0218800Y0066704D01*
X0203800Y0057104D02*
X0185200Y0075704D01*
X0196600Y0082304D02*
X0175000Y0103904D01*
X0167200Y0105104D02*
X0163000Y0105104D01*
X0156400Y0111704D01*
X0156000Y0111704D01*
X0157600Y0118304D02*
X0125800Y0118304D01*
X0104200Y0139904D01*
X0104200Y0147104D01*
X0100600Y0150704D01*
X0068800Y0150704D01*
X0046600Y0172904D01*
X0046600Y0195704D01*
X0016000Y0226304D01*
X0016000Y0226704D01*
X0016000Y0235304D02*
X0006400Y0225704D01*
X0006400Y0192104D01*
X0050800Y0147704D01*
X0064600Y0147704D01*
X0103000Y0109304D01*
X0122200Y0109304D01*
X0119200Y0112304D02*
X0101800Y0112304D01*
X0021400Y0192704D01*
X0009400Y0192704D01*
X0028000Y0217904D02*
X0049000Y0196904D01*
X0049000Y0192704D01*
X0069400Y0172304D01*
X0082600Y0172304D01*
X0091000Y0172304D02*
X0099400Y0172304D01*
X0108400Y0163304D01*
X0108400Y0143504D01*
X0112000Y0146504D02*
X0113800Y0146504D01*
X0128200Y0132104D01*
X0148600Y0132104D01*
X0149200Y0131504D01*
X0153400Y0131504D02*
X0168400Y0131504D01*
X0170200Y0129704D01*
X0175600Y0134504D02*
X0185800Y0144704D01*
X0184600Y0141704D02*
X0217600Y0141704D01*
X0217600Y0099104D01*
X0219400Y0097304D01*
X0219400Y0084104D01*
X0222400Y0083504D02*
X0222400Y0096104D01*
X0218800Y0099704D01*
X0218800Y0127904D01*
X0229000Y0138104D01*
X0239200Y0138104D01*
X0243400Y0133304D02*
X0227800Y0117704D01*
X0227800Y0108704D01*
X0230800Y0117104D02*
X0244000Y0130304D01*
X0253600Y0130304D01*
X0247600Y0127304D02*
X0244600Y0127304D01*
X0242200Y0124904D01*
X0244600Y0120104D02*
X0238600Y0120104D01*
X0244600Y0120104D02*
X0248200Y0116504D01*
X0233800Y0127304D02*
X0224800Y0127304D01*
X0221800Y0127304D01*
X0233800Y0127304D02*
X0247600Y0141104D01*
X0253000Y0141104D01*
X0248800Y0144104D02*
X0259000Y0144104D01*
X0274000Y0159104D01*
X0274000Y0162104D01*
X0266800Y0159104D02*
X0265000Y0159104D01*
X0260800Y0163304D01*
X0265000Y0171104D02*
X0250000Y0156104D01*
X0266200Y0154904D02*
X0227200Y0154904D01*
X0223000Y0166304D02*
X0213400Y0156704D01*
X0196600Y0156704D01*
X0196000Y0159704D02*
X0172000Y0135704D01*
X0128200Y0135704D01*
X0115000Y0148904D01*
X0115000Y0165104D01*
X0106600Y0173504D01*
X0106600Y0177704D01*
X0104200Y0180104D01*
X0065200Y0180104D01*
X0058000Y0187304D01*
X0058000Y0265904D01*
X0072400Y0280304D01*
X0075400Y0280904D02*
X0075400Y0265904D01*
X0082000Y0259304D01*
X0082000Y0252104D01*
X0082400Y0252004D01*
X0087400Y0243704D02*
X0087100Y0243204D01*
X0087400Y0243704D02*
X0093400Y0249704D01*
X0093441Y0249204D01*
X0092800Y0246104D02*
X0095200Y0246104D01*
X0098200Y0249104D01*
X0098559Y0249204D01*
X0098800Y0244304D02*
X0103000Y0244304D01*
X0103000Y0252104D01*
X0111400Y0260504D01*
X0115600Y0260504D01*
X0115705Y0256920D02*
X0115600Y0256904D01*
X0111400Y0256904D01*
X0106000Y0251504D01*
X0107800Y0249704D02*
X0107800Y0245504D01*
X0105400Y0244304D02*
X0110200Y0239504D01*
X0115600Y0239504D01*
X0115705Y0239204D01*
X0115600Y0238904D01*
X0115600Y0237704D01*
X0115705Y0237235D01*
X0115600Y0237104D01*
X0115600Y0235304D01*
X0115705Y0235267D01*
X0115600Y0234704D01*
X0115600Y0233504D01*
X0115705Y0233298D01*
X0115600Y0232904D01*
X0115600Y0231704D01*
X0115705Y0231330D01*
X0115600Y0231104D01*
X0115600Y0229904D01*
X0115705Y0229361D01*
X0115600Y0229304D01*
X0115600Y0227504D01*
X0115705Y0227393D01*
X0115600Y0226904D01*
X0115600Y0225704D01*
X0115705Y0225424D01*
X0112600Y0222104D02*
X0113200Y0221504D01*
X0115600Y0221504D01*
X0115705Y0221487D01*
X0116200Y0221504D01*
X0118600Y0221504D01*
X0119200Y0220904D01*
X0119200Y0191504D01*
X0138400Y0172304D01*
X0137800Y0169304D02*
X0116200Y0190904D01*
X0116200Y0200504D01*
X0115600Y0203504D02*
X0112000Y0203504D01*
X0110800Y0202304D01*
X0107200Y0204104D02*
X0110800Y0207704D01*
X0110800Y0213704D01*
X0112600Y0215504D01*
X0115600Y0215504D01*
X0115705Y0215582D01*
X0115600Y0213704D02*
X0113200Y0213704D01*
X0112000Y0212504D01*
X0112000Y0207104D01*
X0106600Y0201704D01*
X0086200Y0201704D01*
X0081400Y0206504D01*
X0081400Y0208904D01*
X0081000Y0209145D01*
X0076100Y0208204D02*
X0067600Y0216704D01*
X0066400Y0216704D01*
X0066000Y0216763D01*
X0064000Y0214304D02*
X0068200Y0214304D01*
X0073600Y0208904D01*
X0073600Y0205904D01*
X0076600Y0202904D01*
X0082000Y0202904D01*
X0088000Y0196904D01*
X0088000Y0192104D01*
X0088441Y0191704D01*
X0091000Y0193904D02*
X0091000Y0189104D01*
X0084400Y0182504D01*
X0079600Y0182504D01*
X0071200Y0190904D01*
X0071200Y0196304D01*
X0068800Y0198704D01*
X0068800Y0201104D01*
X0068200Y0201704D01*
X0064000Y0201704D01*
X0059200Y0206504D01*
X0059200Y0262904D01*
X0072400Y0276104D01*
X0050200Y0271904D02*
X0050200Y0193304D01*
X0065200Y0178304D01*
X0102400Y0178304D01*
X0103600Y0177104D01*
X0106600Y0181304D02*
X0107800Y0180104D01*
X0107800Y0174104D01*
X0140200Y0141704D01*
X0141400Y0141704D01*
X0140200Y0139304D02*
X0140800Y0138704D01*
X0151000Y0138704D01*
X0158800Y0146504D01*
X0181000Y0146504D01*
X0197200Y0162704D01*
X0212200Y0162704D01*
X0212800Y0159704D02*
X0196000Y0159704D01*
X0190600Y0162704D02*
X0193600Y0165704D01*
X0214600Y0165704D01*
X0218800Y0165704D02*
X0212800Y0159704D01*
X0214000Y0153704D02*
X0199600Y0153704D01*
X0186400Y0156704D02*
X0157000Y0156704D01*
X0152200Y0161504D01*
X0128800Y0161504D01*
X0124000Y0162704D02*
X0121000Y0162704D01*
X0109600Y0174104D01*
X0109600Y0181904D01*
X0097000Y0194504D01*
X0091600Y0194504D01*
X0091000Y0193904D01*
X0093559Y0191704D02*
X0093400Y0191504D01*
X0093400Y0189704D01*
X0090400Y0186704D01*
X0091600Y0185504D01*
X0090400Y0186704D02*
X0085000Y0181304D01*
X0079000Y0181304D01*
X0070000Y0190304D01*
X0070000Y0192704D01*
X0066400Y0196304D01*
X0066400Y0198704D01*
X0066000Y0199145D01*
X0072300Y0200204D02*
X0072400Y0199904D01*
X0072400Y0193304D01*
X0074200Y0191504D01*
X0075400Y0193904D02*
X0077200Y0192104D01*
X0077200Y0188504D01*
X0075400Y0193904D02*
X0075400Y0195704D01*
X0076600Y0200504D02*
X0073000Y0204104D01*
X0066400Y0204104D01*
X0066000Y0204263D01*
X0066000Y0211645D02*
X0065800Y0211904D01*
X0064600Y0211904D01*
X0060400Y0216104D01*
X0060400Y0231104D01*
X0062800Y0233504D01*
X0079000Y0233504D01*
X0086800Y0231104D02*
X0073000Y0244904D01*
X0062800Y0244904D01*
X0060400Y0247304D01*
X0060400Y0256904D01*
X0062800Y0259304D01*
X0066400Y0259304D01*
X0085600Y0240104D01*
X0088600Y0240104D01*
X0092200Y0243704D01*
X0092200Y0245504D01*
X0092800Y0246104D01*
X0094600Y0243704D02*
X0094700Y0243204D01*
X0095200Y0243704D01*
X0098200Y0243704D01*
X0098800Y0244304D01*
X0101000Y0241763D02*
X0100600Y0241304D01*
X0094600Y0235304D01*
X0091000Y0235304D01*
X0090900Y0235204D01*
X0088000Y0235904D02*
X0088000Y0233504D01*
X0089200Y0232304D01*
X0092200Y0232304D01*
X0095800Y0228704D01*
X0097000Y0228704D01*
X0097200Y0228204D01*
X0097600Y0228104D01*
X0097600Y0211304D01*
X0095200Y0208904D01*
X0095200Y0207104D01*
X0094700Y0205704D01*
X0094600Y0205304D01*
X0094000Y0204704D01*
X0091000Y0204704D01*
X0087400Y0205904D02*
X0087100Y0205704D01*
X0087400Y0205904D02*
X0087400Y0210704D01*
X0088000Y0211304D01*
X0088441Y0211704D01*
X0093559Y0211704D02*
X0094000Y0211904D01*
X0094000Y0216104D01*
X0093400Y0216104D01*
X0094000Y0216104D02*
X0096400Y0218504D01*
X0096400Y0223904D01*
X0092200Y0228104D01*
X0092200Y0230504D01*
X0091600Y0231104D01*
X0086800Y0231104D01*
X0089200Y0228104D02*
X0089600Y0228204D01*
X0089200Y0228104D02*
X0089200Y0224504D01*
X0083800Y0219104D01*
X0063400Y0219104D01*
X0062800Y0218504D01*
X0062800Y0215504D01*
X0064000Y0214304D01*
X0081000Y0214263D02*
X0081400Y0214304D01*
X0086800Y0219704D01*
X0093400Y0219704D01*
X0093400Y0220204D01*
X0100000Y0219704D02*
X0100000Y0231104D01*
X0098200Y0232904D01*
X0101000Y0236645D02*
X0101200Y0236504D01*
X0101200Y0225704D01*
X0107800Y0219104D01*
X0115000Y0219104D01*
X0115600Y0219704D01*
X0115705Y0219519D01*
X0115600Y0217904D02*
X0115705Y0217550D01*
X0115600Y0217904D02*
X0107200Y0217904D01*
X0106000Y0219104D01*
X0104200Y0219104D01*
X0103600Y0216104D02*
X0100000Y0219704D01*
X0103600Y0216104D02*
X0103600Y0214904D01*
X0106600Y0207104D02*
X0095200Y0207104D01*
X0095200Y0205904D01*
X0094700Y0205704D01*
X0101000Y0204263D02*
X0101200Y0204104D01*
X0107200Y0204104D01*
X0101000Y0199145D02*
X0100600Y0198704D01*
X0100000Y0198104D01*
X0091000Y0198104D01*
X0090900Y0197704D01*
X0102400Y0195104D02*
X0110200Y0195104D01*
X0141400Y0163904D01*
X0188200Y0163904D01*
X0191200Y0166904D01*
X0190600Y0162704D02*
X0139000Y0162704D01*
X0120400Y0181304D01*
X0137200Y0186104D02*
X0137200Y0216704D01*
X0127000Y0226904D01*
X0127000Y0230504D01*
X0124600Y0225704D02*
X0133000Y0217304D01*
X0124600Y0211304D02*
X0130000Y0205904D01*
X0115705Y0203771D02*
X0115600Y0203504D01*
X0120400Y0195104D02*
X0120400Y0247304D01*
X0118600Y0249104D01*
X0116200Y0249104D01*
X0115705Y0249046D01*
X0115600Y0247304D02*
X0115705Y0247078D01*
X0115600Y0247304D02*
X0112000Y0247304D01*
X0110800Y0248504D01*
X0107800Y0249704D02*
X0112600Y0254504D01*
X0115600Y0254504D01*
X0115705Y0254952D01*
X0115705Y0245109D02*
X0115600Y0244904D01*
X0112600Y0244904D01*
X0110800Y0243104D01*
X0115600Y0243104D02*
X0115600Y0241304D01*
X0115705Y0241172D01*
X0115600Y0240704D01*
X0115600Y0239504D01*
X0115600Y0243104D02*
X0115705Y0243141D01*
X0105400Y0244304D02*
X0103000Y0244304D01*
X0094600Y0243704D02*
X0088000Y0237104D01*
X0088000Y0235904D01*
X0072400Y0251504D01*
X0064600Y0251504D01*
X0064600Y0252004D01*
X0041200Y0267704D02*
X0041200Y0226904D01*
X0041800Y0226304D01*
X0028000Y0230504D02*
X0028000Y0217904D01*
X0016000Y0235304D02*
X0016000Y0236704D01*
X0016000Y0266704D02*
X0016000Y0267104D01*
X0008800Y0274304D01*
X0008800Y0278504D01*
X0012400Y0282104D01*
X0035800Y0282104D01*
X0035200Y0286304D02*
X0041200Y0280304D01*
X0044800Y0283904D02*
X0051400Y0290504D01*
X0115600Y0290504D01*
X0115705Y0290385D01*
X0116200Y0290504D01*
X0118600Y0290504D01*
X0119200Y0289904D01*
X0119200Y0285104D01*
X0118600Y0284504D01*
X0116200Y0284504D01*
X0115705Y0284480D01*
X0115600Y0283904D01*
X0115600Y0282704D01*
X0115705Y0282511D01*
X0115600Y0282104D01*
X0115600Y0280904D01*
X0115705Y0280543D01*
X0115705Y0278574D02*
X0115600Y0278504D01*
X0113200Y0278504D01*
X0110800Y0280904D01*
X0110800Y0283304D01*
X0115705Y0286448D02*
X0115600Y0286904D01*
X0115600Y0287504D01*
X0052000Y0287504D01*
X0041200Y0276704D01*
X0016000Y0276704D01*
X0016000Y0286304D02*
X0016000Y0286704D01*
X0016000Y0286304D02*
X0035200Y0286304D01*
X0115600Y0287504D02*
X0115600Y0288104D01*
X0115705Y0288417D01*
X0112600Y0222104D02*
X0108400Y0222104D01*
X0115600Y0213704D02*
X0115705Y0213613D01*
X0120400Y0195104D02*
X0142600Y0172904D01*
X0143800Y0170504D02*
X0142600Y0169304D01*
X0137800Y0169304D01*
X0143800Y0170504D02*
X0158800Y0170504D01*
X0151600Y0173504D02*
X0170200Y0173504D01*
X0173800Y0169904D01*
X0174400Y0166904D02*
X0148600Y0166904D01*
X0151600Y0173504D02*
X0145000Y0180104D01*
X0143200Y0180104D01*
X0145600Y0183104D02*
X0146800Y0183104D01*
X0154000Y0190304D01*
X0215200Y0190304D01*
X0212800Y0187304D02*
X0199600Y0174104D01*
X0196600Y0180704D02*
X0191200Y0175304D01*
X0192400Y0181304D02*
X0162400Y0181304D01*
X0158800Y0177704D01*
X0174400Y0166904D02*
X0177400Y0169904D01*
X0213400Y0169904D01*
X0223000Y0179504D01*
X0225400Y0176504D02*
X0227800Y0174104D01*
X0230200Y0174104D01*
X0233200Y0172904D02*
X0214000Y0153704D01*
X0212200Y0150104D02*
X0233800Y0171704D01*
X0254200Y0171704D01*
X0260200Y0177704D01*
X0268600Y0177704D01*
X0269800Y0177704D01*
X0274000Y0181904D01*
X0283000Y0181904D01*
X0287200Y0186104D01*
X0305800Y0186104D01*
X0324400Y0167504D01*
X0340600Y0167504D01*
X0343600Y0172904D02*
X0320800Y0172904D01*
X0306400Y0187304D01*
X0284800Y0187304D01*
X0283000Y0185504D01*
X0278800Y0188504D02*
X0272200Y0181904D01*
X0268600Y0181904D01*
X0262600Y0181904D01*
X0253600Y0172904D01*
X0233200Y0172904D01*
X0222400Y0184304D02*
X0220600Y0184304D01*
X0222400Y0184304D02*
X0226600Y0188504D01*
X0275200Y0188504D01*
X0277000Y0190304D02*
X0275800Y0191504D01*
X0268600Y0191504D01*
X0271600Y0184904D02*
X0264400Y0184904D01*
X0262000Y0187304D01*
X0227200Y0187304D01*
X0212800Y0172904D01*
X0172600Y0149504D02*
X0159400Y0149504D01*
X0152200Y0142304D01*
X0144400Y0142304D01*
X0124000Y0162704D01*
X0113800Y0159704D02*
X0113800Y0148304D01*
X0127600Y0134504D01*
X0175600Y0134504D01*
X0181600Y0137504D02*
X0181600Y0138704D01*
X0184600Y0141704D01*
X0181600Y0137504D02*
X0167800Y0123704D01*
X0146800Y0123704D01*
X0154600Y0138704D02*
X0156400Y0138704D01*
X0160000Y0142304D01*
X0151600Y0145304D02*
X0151600Y0158504D01*
X0140200Y0139304D02*
X0130000Y0139304D01*
X0106000Y0129104D02*
X0146200Y0088904D01*
X0146200Y0087704D01*
X0151000Y0086504D02*
X0096400Y0141104D01*
X0096400Y0146504D01*
X0096000Y0146704D01*
X0096400Y0156704D02*
X0096400Y0166304D01*
X0096000Y0166704D01*
X0098200Y0175304D02*
X0113800Y0159704D01*
X0098200Y0175304D02*
X0070000Y0175304D01*
X0076600Y0200504D02*
X0079600Y0200504D01*
X0079900Y0200204D01*
X0062200Y0144704D02*
X0103000Y0103904D01*
X0100600Y0100904D02*
X0096400Y0096704D01*
X0096000Y0096704D01*
X0100600Y0100904D02*
X0130600Y0100904D01*
X0134800Y0096704D01*
X0151000Y0103304D02*
X0152800Y0103304D01*
X0167200Y0105104D02*
X0187000Y0124904D01*
X0187000Y0126704D01*
X0187100Y0127004D01*
X0217600Y0141704D02*
X0229600Y0141704D01*
X0262000Y0135104D02*
X0313000Y0135104D01*
X0317200Y0130904D01*
X0319000Y0130904D01*
X0362200Y0174104D01*
X0374800Y0161504D02*
X0382000Y0154304D01*
X0436600Y0154304D01*
X0440200Y0157904D01*
X0444400Y0157904D01*
X0480400Y0130904D02*
X0380200Y0130904D01*
X0376000Y0126704D01*
X0406000Y0126704D02*
X0482800Y0126704D01*
X0490600Y0118904D01*
X0490600Y0111704D01*
X0491000Y0111704D01*
X0494800Y0108704D02*
X0494800Y0116504D01*
X0480400Y0130904D01*
X0494800Y0108704D02*
X0491200Y0105104D01*
X0491200Y0072104D01*
X0491000Y0071704D01*
X0343000Y0109304D02*
X0301000Y0109304D01*
X0274000Y0082304D01*
X0272200Y0082304D01*
X0261400Y0080504D02*
X0225400Y0080504D01*
X0248200Y0053504D02*
X0260800Y0066104D01*
X0262600Y0066104D01*
X0265000Y0068504D01*
X0282400Y0068504D01*
X0290800Y0076904D01*
X0296200Y0076904D01*
X0301600Y0076904D01*
X0310000Y0085304D01*
X0315400Y0082304D02*
X0317800Y0082304D01*
X0315400Y0082304D02*
X0274600Y0041504D01*
X0177400Y0041504D01*
X0163600Y0055304D01*
X0151000Y0044972D02*
X0151000Y0086504D01*
X0106000Y0129104D02*
X0104800Y0129104D01*
X0254800Y0056504D02*
X0263800Y0065504D01*
X0280000Y0065504D01*
X0283600Y0071504D02*
X0271600Y0071504D01*
X0283600Y0071504D02*
X0298600Y0086504D01*
X0327400Y0086504D01*
X0337000Y0096104D01*
X0312100Y0127004D02*
X0311800Y0127304D01*
X0297400Y0127304D01*
X0290800Y0127304D01*
X0290200Y0139304D02*
X0286000Y0143504D01*
X0283000Y0142904D02*
X0283000Y0154304D01*
X0292000Y0163304D01*
X0292000Y0181904D01*
X0291400Y0184904D02*
X0287200Y0180704D01*
X0283000Y0180704D01*
X0291400Y0184904D02*
X0305200Y0184904D01*
X0329800Y0160304D01*
X0334000Y0160304D01*
X0338800Y0155504D02*
X0340000Y0155504D01*
X0379600Y0195104D01*
X0392800Y0195104D01*
X0395200Y0197504D01*
X0395200Y0208304D01*
X0385600Y0208304D01*
X0380800Y0211304D02*
X0381000Y0211704D01*
X0380800Y0211304D02*
X0380800Y0201704D01*
X0384400Y0198104D01*
X0392200Y0198104D01*
X0395200Y0208304D02*
X0406600Y0208304D01*
X0400600Y0220304D02*
X0416800Y0236504D01*
X0416800Y0251504D01*
X0417100Y0252004D01*
X0426400Y0219104D02*
X0446800Y0219104D01*
X0380800Y0201704D02*
X0317800Y0138704D01*
X0317800Y0133904D01*
X0309400Y0139304D02*
X0290200Y0139304D01*
X0286600Y0139304D02*
X0283000Y0142904D01*
X0274000Y0171104D02*
X0265000Y0171104D01*
X0256600Y0179504D02*
X0261400Y0184304D01*
X0277000Y0190304D02*
X0328600Y0190304D01*
X0340000Y0178904D01*
X0341800Y0178904D01*
X0338800Y0176504D02*
X0319000Y0176504D01*
X0307000Y0188504D01*
X0278800Y0188504D01*
X0277600Y0191504D02*
X0331000Y0191504D01*
X0262000Y0060104D02*
X0266800Y0055304D01*
X0266800Y0054104D01*
D27*
X0266800Y0054104D03*
X0262000Y0060104D03*
X0254800Y0056504D03*
X0248200Y0053504D03*
X0236200Y0072704D03*
X0242200Y0084104D03*
X0261400Y0080504D03*
X0272200Y0082304D03*
X0271600Y0071504D03*
X0280000Y0065504D03*
X0296200Y0076904D03*
X0310600Y0082304D03*
X0317800Y0082304D03*
X0337000Y0096104D03*
X0347200Y0103904D03*
X0343000Y0109304D03*
X0337000Y0130904D03*
X0317800Y0133904D03*
X0309400Y0139304D03*
X0322600Y0147104D03*
X0338800Y0155504D03*
X0334000Y0160304D03*
X0340600Y0167504D03*
X0343600Y0172904D03*
X0338800Y0176504D03*
X0341800Y0178904D03*
X0331000Y0191504D03*
X0362200Y0174104D03*
X0374800Y0161504D03*
X0406600Y0180104D03*
X0408400Y0196904D03*
X0413800Y0199904D03*
X0419800Y0196904D03*
X0406600Y0208304D03*
X0395200Y0214904D03*
X0385600Y0208304D03*
X0392200Y0198104D03*
X0426400Y0219104D03*
X0446800Y0219104D03*
X0460000Y0221504D03*
X0374800Y0252704D03*
X0370600Y0263504D03*
X0278200Y0194504D03*
X0275200Y0188504D03*
X0271600Y0184904D03*
X0268600Y0181904D03*
X0261400Y0184304D03*
X0256600Y0179504D03*
X0268600Y0177704D03*
X0274000Y0171104D03*
X0283000Y0177104D03*
X0292000Y0181904D03*
X0283000Y0185504D03*
X0268600Y0191504D03*
X0253000Y0168704D03*
X0254800Y0164504D03*
X0260800Y0163304D03*
X0266800Y0159104D03*
X0266200Y0154904D03*
X0266200Y0147704D03*
X0271000Y0142904D03*
X0274000Y0140504D03*
X0263800Y0140504D03*
X0256000Y0138104D03*
X0253000Y0141104D03*
X0244000Y0146504D03*
X0231400Y0143504D03*
X0239200Y0138104D03*
X0243400Y0133304D03*
X0247600Y0127304D03*
X0242200Y0124904D03*
X0238600Y0120104D03*
X0230800Y0117104D03*
X0227800Y0108704D03*
X0214600Y0114704D03*
X0214600Y0120104D03*
X0221800Y0127304D03*
X0226600Y0132104D03*
X0248200Y0116504D03*
X0267400Y0117104D03*
X0271000Y0129704D03*
X0262000Y0135104D03*
X0253600Y0130304D03*
X0286000Y0143504D03*
X0286600Y0139304D03*
X0297400Y0127304D03*
X0286600Y0117104D03*
X0283000Y0154304D03*
X0274000Y0162104D03*
X0241600Y0159104D03*
X0224800Y0156104D03*
X0212200Y0150104D03*
X0199600Y0153704D03*
X0196600Y0156704D03*
X0194800Y0147704D03*
X0189400Y0149504D03*
X0185800Y0144704D03*
X0190000Y0138704D03*
X0185800Y0137504D03*
X0170200Y0129704D03*
X0153400Y0131504D03*
X0149200Y0131504D03*
X0146800Y0123704D03*
X0160000Y0119504D03*
X0171400Y0112904D03*
X0173200Y0118304D03*
X0175000Y0103904D03*
X0158200Y0104504D03*
X0151000Y0103304D03*
X0134800Y0096704D03*
X0146200Y0087704D03*
X0159400Y0087704D03*
X0174400Y0088304D03*
X0196600Y0082304D03*
X0219400Y0084104D03*
X0218800Y0066704D03*
X0213400Y0046304D03*
X0163600Y0055304D03*
X0103000Y0103904D03*
X0119200Y0112304D03*
X0122200Y0109304D03*
X0137200Y0115304D03*
X0104800Y0129104D03*
X0108400Y0143504D03*
X0112000Y0146504D03*
X0130000Y0139304D03*
X0141400Y0141704D03*
X0151600Y0145304D03*
X0160000Y0142304D03*
X0154600Y0138704D03*
X0172600Y0149504D03*
X0186400Y0156704D03*
X0191200Y0166904D03*
X0191200Y0175304D03*
X0199600Y0174104D03*
X0196600Y0180704D03*
X0192400Y0181304D03*
X0173200Y0174104D03*
X0173800Y0169904D03*
X0158800Y0170504D03*
X0158800Y0177704D03*
X0148600Y0166904D03*
X0142600Y0172904D03*
X0138400Y0172304D03*
X0143200Y0180104D03*
X0146200Y0186104D03*
X0137200Y0186104D03*
X0120400Y0181304D03*
X0106600Y0181304D03*
X0103600Y0177104D03*
X0091000Y0172304D03*
X0082600Y0172304D03*
X0070000Y0175304D03*
X0077200Y0188504D03*
X0074200Y0191504D03*
X0075400Y0195704D03*
X0091000Y0204704D03*
X0102400Y0195104D03*
X0110800Y0202304D03*
X0116200Y0200504D03*
X0106600Y0207104D03*
X0103600Y0214904D03*
X0104200Y0219104D03*
X0108400Y0222104D03*
X0098200Y0232904D03*
X0107800Y0245504D03*
X0110800Y0243104D03*
X0110800Y0248504D03*
X0106000Y0251504D03*
X0127000Y0237704D03*
X0133000Y0237104D03*
X0136000Y0234704D03*
X0127000Y0230504D03*
X0124600Y0225704D03*
X0135400Y0222104D03*
X0133000Y0217304D03*
X0124600Y0211304D03*
X0130000Y0205904D03*
X0093400Y0216104D03*
X0079000Y0233504D03*
X0041800Y0226304D03*
X0028000Y0230504D03*
X0008800Y0250304D03*
X0041200Y0267704D03*
X0050200Y0271904D03*
X0041200Y0280304D03*
X0044800Y0283904D03*
X0035800Y0282104D03*
X0072400Y0280304D03*
X0079000Y0280304D03*
X0072400Y0276104D03*
X0110800Y0283304D03*
X0121000Y0268304D03*
X0009400Y0192704D03*
X0062200Y0144704D03*
X0093400Y0158504D03*
X0128800Y0161504D03*
X0151600Y0158504D03*
X0212200Y0162704D03*
X0214600Y0165704D03*
X0218800Y0165704D03*
X0223000Y0166304D03*
X0230200Y0174104D03*
X0225400Y0176504D03*
X0223000Y0179504D03*
X0220600Y0184304D03*
X0214000Y0181304D03*
X0212800Y0187304D03*
X0215200Y0190304D03*
X0212800Y0172904D03*
X0091600Y0185504D03*
X0444400Y0157904D03*
M02*
