G75*
%MOIN*%
%OFA0B0*%
%FSLAX25Y25*%
%IPPOS*%
%LPD*%
%AMOC8*
5,1,8,0,0,1.08239X$1,22.5*
%
%ADD10C,0.25800*%
%ADD11R,0.05918X0.06706*%
%ADD12R,0.06706X0.05918*%
%ADD13R,0.03950X0.03162*%
%ADD14R,0.06300X0.06300*%
%ADD15R,0.07099X0.04737*%
%ADD16R,0.25209X0.22060*%
%ADD17R,0.08800X0.03400*%
%ADD18R,0.22060X0.25209*%
%ADD19R,0.04737X0.07099*%
%ADD20OC8,0.06000*%
%ADD21R,0.04737X0.02178*%
%ADD22R,0.03162X0.09461*%
%ADD23C,0.06800*%
%ADD24R,0.10249X0.06312*%
%ADD25R,0.06312X0.03556*%
%ADD26R,0.03556X0.04343*%
%ADD27R,0.04343X0.03556*%
%ADD28C,0.06000*%
%ADD29OC8,0.09300*%
%ADD30R,0.04300X0.03900*%
%ADD31R,0.03900X0.04300*%
%ADD32C,0.03162*%
%ADD33C,0.05950*%
%ADD34C,0.06737*%
%ADD35R,0.02769X0.13005*%
%ADD36C,0.03900*%
D10*
X0096000Y0269204D03*
X0401000Y0269204D03*
D11*
X0384740Y0291704D03*
X0377260Y0291704D03*
X0397260Y0236704D03*
X0404740Y0236704D03*
X0404740Y0221704D03*
X0397260Y0221704D03*
X0422260Y0199204D03*
X0429740Y0199204D03*
X0404740Y0186704D03*
X0397260Y0186704D03*
X0457260Y0191704D03*
X0464740Y0191704D03*
X0464740Y0181704D03*
X0457260Y0181704D03*
X0447240Y0146704D03*
X0439760Y0146704D03*
X0427240Y0146704D03*
X0419760Y0146704D03*
X0299740Y0161704D03*
X0292260Y0161704D03*
X0292260Y0176704D03*
X0299740Y0176704D03*
X0254740Y0121704D03*
X0247260Y0121704D03*
X0247260Y0106704D03*
X0254740Y0106704D03*
X0254740Y0091704D03*
X0247260Y0091704D03*
X0247260Y0076704D03*
X0254740Y0076704D03*
X0254740Y0061704D03*
X0247260Y0061704D03*
X0247260Y0046704D03*
X0254740Y0046704D03*
X0164740Y0126704D03*
X0157260Y0126704D03*
X0074740Y0146704D03*
X0067260Y0146704D03*
X0054740Y0181704D03*
X0047260Y0181704D03*
D12*
X0073500Y0167944D03*
X0073500Y0160464D03*
X0301000Y0150444D03*
X0301000Y0142964D03*
D13*
X0456079Y0201704D03*
X0465921Y0201704D03*
X0476079Y0146704D03*
X0485921Y0146704D03*
X0030921Y0146704D03*
X0021079Y0146704D03*
D14*
X0011000Y0071704D03*
X0011000Y0111704D03*
X0086000Y0111704D03*
X0086000Y0071704D03*
X0416000Y0071704D03*
X0416000Y0111704D03*
X0491000Y0111704D03*
X0491000Y0071704D03*
D15*
X0452102Y0152728D03*
X0452102Y0170680D03*
X0049898Y0170680D03*
X0049898Y0152728D03*
D16*
X0021157Y0161704D03*
X0480843Y0161704D03*
D17*
X0355800Y0164204D03*
X0355800Y0169204D03*
X0355800Y0174204D03*
X0355800Y0179204D03*
X0355800Y0184204D03*
X0355800Y0159204D03*
X0355800Y0154204D03*
X0355800Y0149204D03*
X0355800Y0144204D03*
X0355800Y0139204D03*
X0316200Y0139204D03*
X0316200Y0144204D03*
X0316200Y0149204D03*
X0316200Y0154204D03*
X0316200Y0159204D03*
X0316200Y0164204D03*
X0316200Y0169204D03*
X0316200Y0174204D03*
X0316200Y0179204D03*
X0316200Y0184204D03*
X0205800Y0184204D03*
X0205800Y0179204D03*
X0205800Y0174204D03*
X0205800Y0169204D03*
X0205800Y0164204D03*
X0205800Y0159204D03*
X0205800Y0154204D03*
X0205800Y0149204D03*
X0205800Y0144204D03*
X0205800Y0139204D03*
X0166200Y0139204D03*
X0166200Y0144204D03*
X0166200Y0149204D03*
X0166200Y0154204D03*
X0166200Y0159204D03*
X0166200Y0164204D03*
X0166200Y0169204D03*
X0166200Y0174204D03*
X0166200Y0179204D03*
X0166200Y0184204D03*
D18*
X0451000Y0241546D03*
D19*
X0442024Y0212806D03*
X0459976Y0212806D03*
D20*
X0388500Y0216704D03*
X0381000Y0221704D03*
X0381000Y0211704D03*
D21*
X0278657Y0184735D03*
X0278657Y0182176D03*
X0278657Y0179617D03*
X0278657Y0177058D03*
X0278657Y0174499D03*
X0278657Y0171940D03*
X0278657Y0169381D03*
X0278657Y0166822D03*
X0278657Y0164263D03*
X0278657Y0161704D03*
X0278657Y0159145D03*
X0278657Y0156586D03*
X0278657Y0154027D03*
X0278657Y0151468D03*
X0278657Y0148909D03*
X0278657Y0146350D03*
X0278657Y0143791D03*
X0278657Y0141231D03*
X0278657Y0138672D03*
X0248343Y0138672D03*
X0248343Y0141231D03*
X0248343Y0143791D03*
X0248343Y0146350D03*
X0248343Y0148909D03*
X0248343Y0151468D03*
X0248343Y0154027D03*
X0248343Y0156586D03*
X0248343Y0159145D03*
X0248343Y0161704D03*
X0248343Y0164263D03*
X0248343Y0166822D03*
X0248343Y0169381D03*
X0248343Y0171940D03*
X0248343Y0174499D03*
X0248343Y0177058D03*
X0248343Y0179617D03*
X0248343Y0182176D03*
X0248343Y0184735D03*
D22*
X0028500Y0181468D03*
X0023500Y0181468D03*
X0018500Y0181468D03*
X0013500Y0181468D03*
X0013500Y0201940D03*
X0018500Y0201940D03*
X0023500Y0201940D03*
X0028500Y0201940D03*
X0473500Y0201940D03*
X0478500Y0201940D03*
X0483500Y0201940D03*
X0488500Y0201940D03*
X0488500Y0181468D03*
X0483500Y0181468D03*
X0478500Y0181468D03*
X0473500Y0181468D03*
D23*
X0434900Y0184004D02*
X0434900Y0190004D01*
X0417100Y0190004D02*
X0417100Y0184004D01*
X0409000Y0166704D02*
X0403000Y0166704D01*
X0417100Y0164404D02*
X0417100Y0158404D01*
X0434900Y0158404D02*
X0434900Y0164404D01*
X0409000Y0146704D02*
X0403000Y0146704D01*
X0379000Y0146704D02*
X0373000Y0146704D01*
X0373000Y0126704D02*
X0379000Y0126704D01*
X0403000Y0126704D02*
X0409000Y0126704D01*
X0409000Y0096704D02*
X0403000Y0096704D01*
X0379000Y0096704D02*
X0373000Y0096704D01*
X0329900Y0098404D02*
X0329900Y0104404D01*
X0312100Y0104404D02*
X0312100Y0098404D01*
X0282400Y0098404D02*
X0282400Y0104404D01*
X0264600Y0104404D02*
X0264600Y0098404D01*
X0264600Y0124004D02*
X0264600Y0130004D01*
X0282400Y0130004D02*
X0282400Y0124004D01*
X0312100Y0124004D02*
X0312100Y0130004D01*
X0329900Y0130004D02*
X0329900Y0124004D01*
X0373000Y0166704D02*
X0379000Y0166704D01*
X0417100Y0223404D02*
X0417100Y0229404D01*
X0434900Y0229404D02*
X0434900Y0223404D01*
X0434900Y0249004D02*
X0434900Y0255004D01*
X0417100Y0255004D02*
X0417100Y0249004D01*
X0204900Y0130004D02*
X0204900Y0124004D01*
X0187100Y0124004D02*
X0187100Y0130004D01*
X0187100Y0104404D02*
X0187100Y0098404D01*
X0204900Y0098404D02*
X0204900Y0104404D01*
X0129000Y0096704D02*
X0123000Y0096704D01*
X0099000Y0096704D02*
X0093000Y0096704D01*
X0093000Y0126704D02*
X0099000Y0126704D01*
X0123000Y0126704D02*
X0129000Y0126704D01*
X0129000Y0146704D02*
X0123000Y0146704D01*
X0099000Y0146704D02*
X0093000Y0146704D01*
X0082400Y0160904D02*
X0082400Y0166904D01*
X0093000Y0166704D02*
X0099000Y0166704D01*
X0123000Y0166704D02*
X0129000Y0166704D01*
X0082400Y0186504D02*
X0082400Y0192504D01*
X0064600Y0192504D02*
X0064600Y0186504D01*
X0064600Y0166904D02*
X0064600Y0160904D01*
X0019000Y0216704D02*
X0013000Y0216704D01*
X0013000Y0226704D02*
X0019000Y0226704D01*
X0019000Y0236704D02*
X0013000Y0236704D01*
X0013000Y0246704D02*
X0019000Y0246704D01*
X0019000Y0256704D02*
X0013000Y0256704D01*
X0013000Y0266704D02*
X0019000Y0266704D01*
X0019000Y0276704D02*
X0013000Y0276704D01*
X0013000Y0286704D02*
X0019000Y0286704D01*
X0064600Y0255004D02*
X0064600Y0249004D01*
X0082400Y0249004D02*
X0082400Y0255004D01*
X0082400Y0229404D02*
X0082400Y0223404D01*
X0064600Y0223404D02*
X0064600Y0229404D01*
D24*
X0426000Y0271980D03*
X0426000Y0281428D03*
D25*
X0291000Y0155050D03*
X0291000Y0148357D03*
D26*
X0378441Y0176704D03*
X0383559Y0176704D03*
X0383559Y0186704D03*
X0378441Y0186704D03*
X0398441Y0176704D03*
X0403559Y0176704D03*
X0383559Y0201704D03*
X0378441Y0201704D03*
X0398441Y0211704D03*
X0403559Y0211704D03*
X0383559Y0231704D03*
X0378441Y0231704D03*
X0398441Y0246704D03*
X0403559Y0246704D03*
X0378559Y0276704D03*
X0373441Y0276704D03*
X0468441Y0241704D03*
X0473559Y0241704D03*
X0473559Y0231704D03*
X0468441Y0231704D03*
X0468441Y0221704D03*
X0473559Y0221704D03*
X0473559Y0211704D03*
X0468441Y0211704D03*
X0448559Y0196704D03*
X0443441Y0196704D03*
X0393559Y0126704D03*
X0388441Y0126704D03*
X0168559Y0096704D03*
X0163441Y0096704D03*
X0143559Y0126704D03*
X0138441Y0126704D03*
X0138441Y0136704D03*
X0143559Y0136704D03*
X0143559Y0146704D03*
X0138441Y0146704D03*
X0138441Y0156704D03*
X0143559Y0156704D03*
X0143559Y0166704D03*
X0138441Y0166704D03*
X0113559Y0126704D03*
X0108441Y0126704D03*
X0058559Y0146704D03*
X0053441Y0146704D03*
X0053559Y0191704D03*
X0048441Y0191704D03*
X0038559Y0191704D03*
X0033441Y0191704D03*
X0033441Y0201704D03*
X0038559Y0201704D03*
X0048441Y0201704D03*
X0053559Y0201704D03*
X0033559Y0216704D03*
X0028441Y0216704D03*
X0028441Y0236704D03*
X0033559Y0236704D03*
X0048441Y0236704D03*
X0053559Y0236704D03*
X0053559Y0286704D03*
X0048441Y0286704D03*
D27*
X0031000Y0284263D03*
X0031000Y0279145D03*
X0031000Y0269263D03*
X0031000Y0264145D03*
X0046000Y0229263D03*
X0046000Y0224145D03*
X0056000Y0224145D03*
X0056000Y0229263D03*
X0291000Y0139263D03*
X0291000Y0134145D03*
X0353500Y0126763D03*
X0353500Y0121645D03*
X0353500Y0104263D03*
X0353500Y0099145D03*
X0443500Y0161645D03*
X0443500Y0166763D03*
D28*
X0166000Y0114304D02*
X0166000Y0109104D01*
X0156000Y0109104D02*
X0156000Y0114304D01*
X0146000Y0114304D02*
X0146000Y0109104D01*
D29*
X0443200Y0276704D03*
X0468800Y0276704D03*
D30*
X0385000Y0250404D03*
X0377000Y0246604D03*
X0385000Y0242804D03*
X0055000Y0215404D03*
X0047000Y0211604D03*
X0055000Y0207804D03*
X0035000Y0222804D03*
X0027000Y0226604D03*
X0035000Y0230404D03*
D31*
X0031100Y0247704D03*
X0027300Y0255704D03*
X0034900Y0255704D03*
X0047300Y0255704D03*
X0054900Y0255704D03*
X0051100Y0247704D03*
X0051100Y0267704D03*
X0047300Y0275704D03*
X0054900Y0275704D03*
X0374600Y0262704D03*
X0382200Y0262704D03*
X0378400Y0270704D03*
X0422300Y0215704D03*
X0429900Y0215704D03*
X0426100Y0207704D03*
X0404700Y0197704D03*
X0397100Y0197704D03*
X0400900Y0205704D03*
X0442300Y0190704D03*
X0449900Y0190704D03*
X0446100Y0182704D03*
X0476100Y0247704D03*
X0472300Y0255704D03*
X0479900Y0255704D03*
D32*
X0371000Y0256704D03*
X0371000Y0241704D03*
D33*
X0369323Y0088279D02*
X0364173Y0088279D01*
X0340567Y0072743D02*
X0340567Y0067594D01*
X0331118Y0073106D02*
X0331118Y0078255D01*
X0368913Y0060539D02*
X0368913Y0055389D01*
X0353575Y0044972D02*
X0348425Y0044972D01*
X0168913Y0055389D02*
X0168913Y0060539D01*
X0153575Y0044972D02*
X0148425Y0044972D01*
X0140567Y0067594D02*
X0140567Y0072743D01*
X0131118Y0073106D02*
X0131118Y0078255D01*
X0164173Y0088279D02*
X0169323Y0088279D01*
D34*
X0179130Y0071759D02*
X0179130Y0065822D01*
X0179130Y0052861D02*
X0179130Y0046924D01*
X0207870Y0046924D02*
X0207870Y0052861D01*
X0207870Y0065822D02*
X0207870Y0071759D01*
X0291630Y0071759D02*
X0291630Y0065822D01*
X0291630Y0052861D02*
X0291630Y0046924D01*
X0320370Y0046924D02*
X0320370Y0052861D01*
X0320370Y0065822D02*
X0320370Y0071759D01*
D35*
X0312299Y0073515D03*
X0309150Y0073515D03*
X0306000Y0073515D03*
X0302850Y0073515D03*
X0299701Y0073515D03*
X0199799Y0073515D03*
X0196650Y0073515D03*
X0193500Y0073515D03*
X0190350Y0073515D03*
X0187201Y0073515D03*
D36*
X0187300Y0082004D03*
X0195400Y0082004D03*
X0210100Y0097904D03*
X0184300Y0111104D03*
X0162100Y0106004D03*
X0161800Y0119804D03*
X0152500Y0118004D03*
X0147700Y0133904D03*
X0141400Y0141704D03*
X0133300Y0142904D03*
X0129400Y0134204D03*
X0124900Y0135104D03*
X0107200Y0135104D03*
X0106600Y0139004D03*
X0112600Y0145004D03*
X0115300Y0150704D03*
X0111100Y0152204D03*
X0110500Y0156704D03*
X0118900Y0156104D03*
X0117100Y0164504D03*
X0111700Y0166304D03*
X0115300Y0174104D03*
X0109600Y0175904D03*
X0101800Y0181004D03*
X0102400Y0189104D03*
X0100300Y0194804D03*
X0096400Y0195104D03*
X0097300Y0201704D03*
X0091000Y0202904D03*
X0105100Y0203504D03*
X0105400Y0207404D03*
X0103000Y0217604D03*
X0095800Y0215804D03*
X0110800Y0223304D03*
X0105700Y0228404D03*
X0108400Y0235004D03*
X0097300Y0233804D03*
X0087100Y0233504D03*
X0091000Y0242204D03*
X0104500Y0248204D03*
X0108400Y0244304D03*
X0110800Y0247304D03*
X0110800Y0254804D03*
X0120700Y0254504D03*
X0120700Y0250604D03*
X0120700Y0246704D03*
X0129100Y0242204D03*
X0134500Y0240704D03*
X0123100Y0239204D03*
X0136900Y0230504D03*
X0125800Y0218804D03*
X0131800Y0211304D03*
X0145900Y0191204D03*
X0149800Y0191204D03*
X0159100Y0185504D03*
X0153700Y0183404D03*
X0164500Y0189104D03*
X0172600Y0182804D03*
X0174100Y0177404D03*
X0181900Y0172904D03*
X0185500Y0180104D03*
X0192100Y0174704D03*
X0199000Y0170804D03*
X0199600Y0165404D03*
X0191500Y0161504D03*
X0199600Y0157004D03*
X0196900Y0147704D03*
X0190900Y0145304D03*
X0191500Y0138704D03*
X0176200Y0147104D03*
X0176200Y0156404D03*
X0181000Y0158804D03*
X0159100Y0174404D03*
X0148600Y0166604D03*
X0135400Y0161804D03*
X0132700Y0159104D03*
X0156700Y0143804D03*
X0166900Y0135404D03*
X0171700Y0132704D03*
X0211300Y0117104D03*
X0227500Y0117104D03*
X0231400Y0117104D03*
X0237400Y0118304D03*
X0227500Y0124304D03*
X0234700Y0138404D03*
X0231100Y0143804D03*
X0226600Y0146504D03*
X0232900Y0149204D03*
X0228400Y0151904D03*
X0225400Y0154304D03*
X0223600Y0159704D03*
X0226600Y0162704D03*
X0239200Y0168104D03*
X0239200Y0176804D03*
X0229300Y0179504D03*
X0220300Y0182504D03*
X0217600Y0175904D03*
X0212800Y0170804D03*
X0199600Y0180104D03*
X0186700Y0191804D03*
X0138700Y0183704D03*
X0137800Y0187604D03*
X0125800Y0182804D03*
X0123100Y0185504D03*
X0088900Y0186704D03*
X0077500Y0178604D03*
X0061600Y0178604D03*
X0056800Y0187004D03*
X0072100Y0196304D03*
X0078700Y0196304D03*
X0076900Y0212804D03*
X0076600Y0219404D03*
X0070000Y0227204D03*
X0070000Y0231104D03*
X0074500Y0239204D03*
X0065500Y0242504D03*
X0057100Y0239204D03*
X0055000Y0244904D03*
X0052900Y0232604D03*
X0058000Y0218804D03*
X0038800Y0215804D03*
X0029500Y0222704D03*
X0033400Y0207704D03*
X0022900Y0195404D03*
X0008800Y0192704D03*
X0013300Y0208604D03*
X0033400Y0184904D03*
X0043900Y0174404D03*
X0043000Y0168404D03*
X0049600Y0164804D03*
X0043000Y0162104D03*
X0043000Y0151304D03*
X0045700Y0146804D03*
X0062200Y0141104D03*
X0068200Y0135104D03*
X0076300Y0132404D03*
X0063100Y0151304D03*
X0067900Y0156704D03*
X0061300Y0171104D03*
X0112600Y0121904D03*
X0121600Y0118004D03*
X0130300Y0118004D03*
X0135700Y0099704D03*
X0144400Y0097004D03*
X0144400Y0092804D03*
X0149800Y0091604D03*
X0117100Y0079304D03*
X0114400Y0088904D03*
X0111700Y0097004D03*
X0104500Y0100604D03*
X0155800Y0064604D03*
X0160300Y0056504D03*
X0173800Y0057104D03*
X0173800Y0046604D03*
X0230200Y0054104D03*
X0238600Y0051704D03*
X0242500Y0059204D03*
X0242500Y0063104D03*
X0242200Y0070304D03*
X0239500Y0073004D03*
X0236800Y0085604D03*
X0239500Y0092504D03*
X0251200Y0097004D03*
X0251800Y0101504D03*
X0255700Y0115004D03*
X0250000Y0127604D03*
X0252700Y0131804D03*
X0247300Y0135704D03*
X0243700Y0143804D03*
X0252700Y0148604D03*
X0256600Y0148604D03*
X0268000Y0144404D03*
X0272200Y0145004D03*
X0284500Y0143204D03*
X0289900Y0142904D03*
X0273700Y0132104D03*
X0274900Y0125804D03*
X0272500Y0120704D03*
X0289000Y0116204D03*
X0320500Y0114104D03*
X0323200Y0116804D03*
X0329500Y0144104D03*
X0330700Y0150104D03*
X0336700Y0149204D03*
X0339400Y0146504D03*
X0343000Y0158504D03*
X0336700Y0168404D03*
X0330700Y0161204D03*
X0322600Y0162404D03*
X0304900Y0171104D03*
X0310000Y0176204D03*
X0329800Y0178904D03*
X0361900Y0156704D03*
X0362500Y0152804D03*
X0370300Y0162104D03*
X0382900Y0150104D03*
X0387700Y0149204D03*
X0373000Y0141404D03*
X0370000Y0119804D03*
X0415600Y0142304D03*
X0431800Y0142604D03*
X0391600Y0172304D03*
X0387700Y0172304D03*
X0386800Y0189704D03*
X0394900Y0192404D03*
X0392500Y0195404D03*
X0384400Y0197504D03*
X0386500Y0205004D03*
X0406600Y0216104D03*
X0415600Y0216104D03*
X0426100Y0215504D03*
X0436300Y0214904D03*
X0460000Y0223904D03*
X0465400Y0214904D03*
X0460900Y0186704D03*
X0431500Y0244904D03*
X0424600Y0250304D03*
X0379300Y0256604D03*
X0376600Y0280904D03*
X0266800Y0181904D03*
X0263200Y0184604D03*
X0256900Y0184604D03*
X0253000Y0184604D03*
X0257800Y0169304D03*
X0252700Y0166604D03*
X0253600Y0159104D03*
X0244000Y0151304D03*
X0261100Y0136604D03*
X0271000Y0156404D03*
X0271300Y0161804D03*
X0274300Y0164204D03*
X0271300Y0171104D03*
X0283000Y0178604D03*
X0286900Y0174704D03*
X0286900Y0160904D03*
X0283000Y0161204D03*
X0283000Y0157304D03*
X0219100Y0141104D03*
X0278200Y0088604D03*
X0278200Y0082904D03*
X0303400Y0082904D03*
X0308200Y0065204D03*
X0259600Y0064304D03*
X0259600Y0058004D03*
X0254800Y0052604D03*
X0073900Y0246704D03*
X0120700Y0259004D03*
X0121900Y0270704D03*
X0120700Y0278204D03*
X0110800Y0284504D03*
X0107800Y0287804D03*
X0054400Y0292604D03*
M02*
