%
M48
M72
T01C0.01500
T02C0.03150
T03C0.03200
T04C0.03500
T05C0.03600
T06C0.03937
T07C0.04000
T08C0.25000
%
T01
X146200Y87704
X159400Y87704
X174400Y88304
X175000Y103904
X171400Y112904
X173200Y118304
X160000Y119504
X146800Y123704
X149200Y131504
X153400Y131504
X154600Y138704
X160000Y142304
X151600Y145304
X141400Y141704
X130000Y139304
X112000Y146504
X108400Y143504
X104800Y129104
X119200Y112304
X122200Y109304
X137200Y115304
X151000Y103304
X158200Y104504
X134800Y96704
X103000Y103904
X170200Y129704
X185800Y137504
X190000Y138704
X185800Y144704
X189400Y149504
X194800Y147704
X199600Y153704
X196600Y156704
X186400Y156704
X172600Y149504
X151600Y158504
X148600Y166904
X142600Y172904
X138400Y172304
X143200Y180104
X146200Y186104
X137200Y186104
X120400Y181304
X106600Y181304
X103600Y177104
X91000Y172304
X82600Y172304
X70000Y175304
X77200Y188504
X74200Y191504
X75400Y195704
X91000Y204704
X102400Y195104
X110800Y202304
X116200Y200504
X106600Y207104
X103600Y214904
X104200Y219104
X108400Y222104
X98200Y232904
X107800Y245504
X110800Y243104
X110800Y248504
X106000Y251504
X127000Y237704
X133000Y237104
X136000Y234704
X127000Y230504
X124600Y225704
X135400Y222104
X133000Y217304
X124600Y211304
X130000Y205904
X93400Y216104
X79000Y233504
X41800Y226304
X28000Y230504
X8800Y250304
X41200Y267704
X50200Y271904
X41200Y280304
X44800Y283904
X35800Y282104
X72400Y280304
X79000Y280304
X72400Y276104
X110800Y283304
X121000Y268304
X9400Y192704
X62200Y144704
X93400Y158504
X128800Y161504
X158800Y170504
X158800Y177704
X173200Y174104
X173800Y169904
X191200Y166904
X191200Y175304
X199600Y174104
X196600Y180704
X192400Y181304
X212800Y187304
X215200Y190304
X220600Y184304
X223000Y179504
X225400Y176504
X230200Y174104
X223000Y166304
X218800Y165704
X214600Y165704
X212200Y162704
X224800Y156104
X212200Y150104
X231400Y143504
X239200Y138104
X243400Y133304
X247600Y127304
X242200Y124904
X238600Y120104
X230800Y117104
X227800Y108704
X214600Y114704
X214600Y120104
X221800Y127304
X226600Y132104
X244000Y146504
X253000Y141104
X256000Y138104
X262000Y135104
X271000Y129704
X274000Y140504
X271000Y142904
X263800Y140504
X266200Y147704
X266200Y154904
X266800Y159104
X274000Y162104
X283000Y154304
X286000Y143504
X286600Y139304
X297400Y127304
X286600Y117104
X267400Y117104
X253600Y130304
X248200Y116504
X242200Y84104
X236200Y72704
X218800Y66704
X196600Y82304
X219400Y84104
X261400Y80504
X272200Y82304
X271600Y71504
X280000Y65504
X262000Y60104
X266800Y54104
X254800Y56504
X248200Y53504
X213400Y46304
X163600Y55304
X296200Y76904
X310600Y82304
X317800Y82304
X337000Y96104
X347200Y103904
X343000Y109304
X337000Y130904
X317800Y133904
X309400Y139304
X322600Y147104
X338800Y155504
X334000Y160304
X340600Y167504
X343600Y172904
X338800Y176504
X341800Y178904
X331000Y191504
X362200Y174104
X374800Y161504
X406600Y180104
X408400Y196904
X413800Y199904
X419800Y196904
X406600Y208304
X395200Y214904
X385600Y208304
X392200Y198104
X426400Y219104
X446800Y219104
X460000Y221504
X374800Y252704
X370600Y263504
X278200Y194504
X275200Y188504
X271600Y184904
X268600Y181904
X261400Y184304
X256600Y179504
X268600Y177704
X274000Y171104
X283000Y177104
X292000Y181904
X283000Y185504
X268600Y191504
X253000Y168704
X254800Y164504
X260800Y163304
X241600Y159104
X212800Y172904
X214000Y181304
X91600Y185504
X444400Y157904
T02
X366748Y88279
X340567Y70169
X331118Y75680
X368913Y57964
X351000Y44972
X168913Y57964
X151000Y44972
X140567Y70169
X131118Y75680
X166748Y88279
T03
X166000Y111704
X156000Y111704
X146000Y111704
X381000Y211704
X388500Y216704
X381000Y221704
T04
X11000Y71704
X11000Y111704
X86000Y111704
X86000Y71704
X416000Y71704
X416000Y111704
X491000Y111704
X491000Y71704
T05
X468800Y276704
X443200Y276704
T06
X320370Y68791
X291630Y68791
X291630Y49893
X320370Y49893
X207870Y49893
X207870Y68791
X179130Y68791
X179130Y49893
T07
X126000Y96704
X96000Y96704
X96000Y126704
X96000Y146704
X82400Y163904
X96000Y166704
X126000Y166704
X126000Y146704
X126000Y126704
X187100Y127004
X204900Y127004
X204900Y101404
X187100Y101404
X264600Y101404
X282400Y101404
X312100Y101404
X329900Y101404
X329900Y127004
X312100Y127004
X282400Y127004
X264600Y127004
X376000Y126704
X376000Y146704
X406000Y146704
X417100Y161404
X406000Y166704
X417100Y187004
X434900Y187004
X434900Y161404
X406000Y126704
X406000Y96704
X376000Y96704
X376000Y166704
X417100Y226404
X434900Y226404
X434900Y252004
X417100Y252004
X82400Y252004
X64600Y252004
X64600Y226404
X82400Y226404
X82400Y189504
X64600Y189504
X64600Y163904
X16000Y216704
X16000Y226704
X16000Y236704
X16000Y246704
X16000Y256704
X16000Y266704
X16000Y276704
X16000Y286704
T08
X96000Y269204
X401000Y269204
M30
