%
M48
M72
T01C0.01500
T02C0.03200
T03C0.03500
T04C0.03543
T05C0.03600
T06C0.04000
T07C0.05900
T08C0.07900
T09C0.08000
T10C0.22000
%
T01
X264958Y185439
X271558Y175539
X283558Y192939
X286858Y192939
X317758Y187839
X325558Y186639
X341158Y176439
X343558Y172239
X336058Y167139
X363658Y180339
X365758Y190239
X354958Y195639
X381958Y187539
X387358Y193839
X385558Y197739
X392158Y195039
X392158Y204639
X388858Y216039
X388858Y222639
X377158Y222639
X372958Y218439
X348358Y228039
X343558Y231939
X337558Y236739
X345958Y240939
X354958Y238839
X369958Y242439
X372358Y247239
X377158Y240039
X386458Y246339
X398458Y247239
X402058Y249639
X395158Y259839
X389158Y257439
X386758Y259839
X378358Y262839
X375058Y262839
X365458Y272739
X363058Y276939
X363058Y280239
X357658Y285639
X363958Y287739
X378358Y278439
X386458Y287439
X399058Y292239
X407758Y294639
X400858Y277839
X433258Y269139
X453058Y269439
X461758Y273339
X455458Y279639
X468358Y291039
X475558Y298239
X472258Y299139
X461758Y300339
X474058Y308739
X489058Y304839
X494458Y308439
X504958Y311439
X500158Y319539
X489358Y319539
X465958Y331539
X468358Y337539
X476458Y342039
X476158Y345339
X489358Y341739
X476758Y363339
X474058Y386439
X529258Y366939
X538258Y358539
X569158Y348339
X561358Y335739
X558658Y329139
X572158Y329139
X539458Y318039
X538258Y297939
X513358Y264639
X516358Y261039
X473158Y285039
X491158Y292239
X463558Y244239
X466558Y239139
X426058Y241839
X412258Y242739
X400258Y227439
X408958Y211239
X418858Y181539
X335158Y230139
X321358Y221439
X315958Y219039
X308758Y221139
X300958Y222339
X292858Y232839
X296758Y238539
X294058Y242739
X288058Y255639
X294058Y258339
X297358Y268239
X297958Y278439
X301258Y278139
X288658Y283239
X275758Y275739
X275458Y272139
X263458Y265539
X257158Y265839
X251458Y268239
X245758Y270639
X258058Y258339
X261358Y260739
X270358Y244539
X264358Y240039
X260458Y240039
X253858Y240039
X249358Y240039
X246958Y237639
X253858Y234339
X269458Y237039
X233758Y219339
X208858Y222939
X231058Y260139
X215158Y265539
X211258Y265839
X207958Y262539
X199558Y263739
X194158Y263739
X194158Y274539
X196558Y284139
X203158Y287439
X207058Y283539
X208258Y277839
X211258Y272739
X229558Y279639
X220558Y291339
X215158Y294039
X200158Y297939
X190558Y297939
X190558Y301239
X195958Y306639
X203758Y311739
X220558Y309939
X220558Y331539
X204058Y330939
X202558Y334239
X204958Y340239
X200158Y343239
X200158Y348639
X194758Y347439
X191758Y350439
X188458Y350439
X192358Y356439
X196258Y358539
X201058Y359139
X196858Y364539
X180958Y361239
X170158Y370239
X158458Y376539
X151258Y385839
X155158Y388539
X158758Y392139
X165058Y386439
X170758Y388839
X158758Y405939
X138058Y385839
X131758Y378339
X137758Y372339
X139258Y365439
X120958Y377139
X118558Y381339
X126958Y401739
X193558Y405039
X212458Y402339
X214258Y397239
X214258Y390639
X216058Y382539
X218758Y379839
X221458Y383439
X214258Y376539
X214258Y358839
X195958Y339039
X193258Y335139
X189958Y335139
X181858Y325539
X168358Y337839
X168358Y341139
X180058Y344739
X163558Y331239
X158758Y326439
X130558Y322239
X128158Y318039
X130558Y306639
X120058Y304839
X135958Y279939
X138058Y266739
X160558Y260439
X171358Y264039
X170158Y268839
X170158Y275439
X177958Y282039
X183058Y282939
X173758Y292239
X162958Y298239
X163558Y302139
X253858Y290439
X270658Y290439
X314458Y283239
X320458Y285639
X323758Y292839
X336358Y278139
X342058Y280539
X357058Y267639
X326758Y258339
X320158Y265239
X314458Y273339
X314458Y248739
X321658Y246339
T02
X474858Y322739
X482358Y327739
X474858Y332739
T03
X498858Y226739
X498858Y186739
X573858Y186739
X573858Y226739
X189858Y227739
X189858Y187739
X114858Y187739
X114858Y227739
T04
X283697Y172739
X301020Y172739
X382697Y173739
X400020Y173739
T05
X537058Y387739
X562658Y387739
T06
X380358Y201239
X370358Y201239
X360358Y201239
X350358Y201239
X340358Y201239
X330358Y201239
X320358Y201239
X310358Y201239
T07
X246658Y159039
X265158Y171839
X236458Y184439
X226558Y189939
X263058Y201339
X420558Y190939
X430458Y185439
X459158Y172839
X440658Y160039
X457058Y202339
T08
X468858Y349739
X468858Y367239
T09
X444858Y215239
X244858Y215239
T10
X189858Y382739
X499858Y382739
M30
