%
M48
M72
T01C0.01500
T02C0.03200
T03C0.03500
T04C0.03543
T05C0.03600
T06C0.04000
T07C0.05900
T08C0.07900
T09C0.08000
T10C0.22000
%
T01
X282958Y188139
X301858Y186339
X315358Y195939
X342658Y185739
X355858Y184239
X357358Y189039
X359158Y193839
X362458Y193839
X367858Y192639
X368458Y196539
X367858Y185739
X381958Y186939
X391258Y193839
X381058Y198939
X378658Y202839
X376258Y209439
X391258Y210339
X391258Y228639
X388858Y231039
X386458Y228639
X374758Y228639
X364558Y237339
X361558Y242439
X356158Y242439
X359158Y251139
X356158Y256839
X366058Y257739
X371758Y261939
X375958Y257739
X378358Y260139
X386458Y260139
X388858Y257439
X391258Y259839
X386458Y264939
X377758Y273039
X387958Y280839
X393058Y285639
X395458Y288039
X405058Y291639
X411658Y296439
X420658Y290739
X425458Y295539
X401758Y278739
X387058Y288339
X378058Y285639
X369658Y287139
X369658Y282939
X364858Y280539
X361258Y285339
X363658Y287739
X357658Y290139
X356158Y277239
X348058Y271239
X356158Y267639
X366658Y265239
X377158Y249939
X374458Y247239
X399058Y248139
X402058Y250539
X417958Y268539
X427258Y256839
X432358Y256839
X434758Y261939
X438058Y270039
X454858Y263139
X461458Y265539
X460858Y279939
X467158Y282939
X462058Y297339
X459658Y299739
X455458Y295539
X469258Y309339
X472858Y304539
X489058Y303639
X489358Y319239
X500758Y320739
X508558Y317139
X526558Y306339
X538258Y299739
X560758Y315939
X572158Y306039
X572158Y298539
X538258Y320439
X537658Y325539
X529558Y343539
X493858Y340539
X490858Y334839
X481858Y336639
X476158Y361239
X473758Y380139
X578758Y356739
X489058Y283239
X490858Y274539
X478858Y261639
X483658Y245739
X488158Y239439
X516358Y261039
X514858Y280839
X419158Y231639
X450658Y203739
X363358Y167739
X350458Y162039
X338158Y168639
X344158Y172839
X339058Y218139
X331258Y221439
X338758Y228939
X338758Y232239
X346258Y228939
X354358Y220839
X335758Y240039
X335758Y250539
X346258Y261039
X319258Y258339
X313558Y255939
X313558Y263439
X308458Y263739
X316258Y270939
X309058Y275739
X308458Y279039
X320758Y282039
X328258Y282939
X330658Y280539
X311458Y290739
X295558Y283839
X293458Y278439
X291658Y270939
X281758Y270939
X265858Y267039
X265558Y262239
X267958Y259839
X259858Y255039
X257458Y257439
X253258Y250239
X263158Y243639
X266458Y243639
X269458Y241839
X263458Y238239
X264958Y234939
X270058Y229839
X274858Y227439
X286558Y233139
X286558Y241239
X293158Y239739
X295558Y243639
X303358Y238839
X321958Y238839
X325858Y233439
X319558Y223839
X295558Y252939
X282958Y255339
X258658Y273039
X257458Y280239
X249658Y277539
X246958Y275439
X250558Y268239
X248458Y262839
X244858Y263139
X240958Y263139
X213958Y285639
X217858Y291339
X220258Y295539
X222658Y288939
X202558Y300339
X200158Y297939
X197758Y300339
X182758Y296139
X169258Y294639
X160558Y308739
X155158Y308739
X153658Y317439
X160558Y318939
X165358Y312639
X173458Y318639
X181858Y323739
X177358Y324939
X179758Y330339
X189958Y335139
X193558Y342339
X197758Y338139
X200158Y335739
X202558Y333339
X204958Y330939
X200158Y342339
X198358Y349239
X204958Y355239
X202558Y357639
X204958Y360039
X203158Y364839
X214558Y357039
X215458Y363639
X214258Y376539
X214258Y382839
X214258Y386739
X219658Y384639
X202858Y399339
X199558Y400839
X191458Y406239
X170758Y388839
X165058Y393939
X158758Y387639
X158758Y383139
X157558Y373539
X160858Y372339
X171658Y366039
X167758Y335139
X159058Y326439
X150658Y324939
X127558Y340539
X126358Y349539
X123958Y369639
X142558Y397239
X216958Y348039
X140158Y301239
X136558Y296439
X116758Y298839
X225658Y224439
X228058Y229839
X259558Y229839
X259258Y206739
X371158Y291939
X380458Y297039
T02
X474858Y322739
X482358Y327739
X474858Y332739
T03
X498858Y226739
X498858Y186739
X573858Y186739
X573858Y226739
X189858Y227739
X189858Y187739
X114858Y187739
X114858Y227739
T04
X283697Y172739
X301020Y172739
X382697Y173739
X400020Y173739
T05
X537058Y387739
X562658Y387739
T06
X372358Y203239
X362358Y203239
X352358Y203239
X342358Y203239
X332358Y203239
X322358Y203239
X312358Y203239
X302358Y203239
T07
X246658Y159039
X265158Y171839
X236458Y184439
X226558Y189939
X263058Y201339
X420558Y190939
X430458Y185439
X459158Y172839
X440658Y160039
X457058Y202339
T08
X468858Y349739
X468858Y367239
T09
X444858Y215239
X244858Y215239
T10
X189858Y382739
X499858Y382739
M30
