G75*
%MOIN*%
%OFA0B0*%
%FSLAX25Y25*%
%IPPOS*%
%LPD*%
%AMOC8*
5,1,8,0,0,1.08239X$1,22.5*
%
%ADD10C,0.00000*%
%ADD11C,0.00600*%
%ADD12C,0.00400*%
%ADD13C,0.00200*%
%ADD14C,0.00500*%
%ADD15C,0.00800*%
D10*
X0001564Y0050786D02*
X0001564Y0241786D01*
X0001564Y0242786D01*
X0085564Y0246786D02*
X0085567Y0247056D01*
X0085577Y0247326D01*
X0085594Y0247595D01*
X0085617Y0247864D01*
X0085647Y0248133D01*
X0085683Y0248400D01*
X0085726Y0248667D01*
X0085775Y0248932D01*
X0085831Y0249196D01*
X0085894Y0249459D01*
X0085962Y0249720D01*
X0086038Y0249979D01*
X0086119Y0250236D01*
X0086207Y0250492D01*
X0086301Y0250745D01*
X0086401Y0250996D01*
X0086508Y0251244D01*
X0086620Y0251489D01*
X0086739Y0251732D01*
X0086863Y0251971D01*
X0086993Y0252208D01*
X0087129Y0252441D01*
X0087271Y0252671D01*
X0087418Y0252897D01*
X0087571Y0253120D01*
X0087729Y0253339D01*
X0087892Y0253554D01*
X0088061Y0253764D01*
X0088235Y0253971D01*
X0088414Y0254173D01*
X0088597Y0254371D01*
X0088786Y0254564D01*
X0088979Y0254753D01*
X0089177Y0254936D01*
X0089379Y0255115D01*
X0089586Y0255289D01*
X0089796Y0255458D01*
X0090011Y0255621D01*
X0090230Y0255779D01*
X0090453Y0255932D01*
X0090679Y0256079D01*
X0090909Y0256221D01*
X0091142Y0256357D01*
X0091379Y0256487D01*
X0091618Y0256611D01*
X0091861Y0256730D01*
X0092106Y0256842D01*
X0092354Y0256949D01*
X0092605Y0257049D01*
X0092858Y0257143D01*
X0093114Y0257231D01*
X0093371Y0257312D01*
X0093630Y0257388D01*
X0093891Y0257456D01*
X0094154Y0257519D01*
X0094418Y0257575D01*
X0094683Y0257624D01*
X0094950Y0257667D01*
X0095217Y0257703D01*
X0095486Y0257733D01*
X0095755Y0257756D01*
X0096024Y0257773D01*
X0096294Y0257783D01*
X0096564Y0257786D01*
X0096834Y0257783D01*
X0097104Y0257773D01*
X0097373Y0257756D01*
X0097642Y0257733D01*
X0097911Y0257703D01*
X0098178Y0257667D01*
X0098445Y0257624D01*
X0098710Y0257575D01*
X0098974Y0257519D01*
X0099237Y0257456D01*
X0099498Y0257388D01*
X0099757Y0257312D01*
X0100014Y0257231D01*
X0100270Y0257143D01*
X0100523Y0257049D01*
X0100774Y0256949D01*
X0101022Y0256842D01*
X0101267Y0256730D01*
X0101510Y0256611D01*
X0101749Y0256487D01*
X0101986Y0256357D01*
X0102219Y0256221D01*
X0102449Y0256079D01*
X0102675Y0255932D01*
X0102898Y0255779D01*
X0103117Y0255621D01*
X0103332Y0255458D01*
X0103542Y0255289D01*
X0103749Y0255115D01*
X0103951Y0254936D01*
X0104149Y0254753D01*
X0104342Y0254564D01*
X0104531Y0254371D01*
X0104714Y0254173D01*
X0104893Y0253971D01*
X0105067Y0253764D01*
X0105236Y0253554D01*
X0105399Y0253339D01*
X0105557Y0253120D01*
X0105710Y0252897D01*
X0105857Y0252671D01*
X0105999Y0252441D01*
X0106135Y0252208D01*
X0106265Y0251971D01*
X0106389Y0251732D01*
X0106508Y0251489D01*
X0106620Y0251244D01*
X0106727Y0250996D01*
X0106827Y0250745D01*
X0106921Y0250492D01*
X0107009Y0250236D01*
X0107090Y0249979D01*
X0107166Y0249720D01*
X0107234Y0249459D01*
X0107297Y0249196D01*
X0107353Y0248932D01*
X0107402Y0248667D01*
X0107445Y0248400D01*
X0107481Y0248133D01*
X0107511Y0247864D01*
X0107534Y0247595D01*
X0107551Y0247326D01*
X0107561Y0247056D01*
X0107564Y0246786D01*
X0107561Y0246516D01*
X0107551Y0246246D01*
X0107534Y0245977D01*
X0107511Y0245708D01*
X0107481Y0245439D01*
X0107445Y0245172D01*
X0107402Y0244905D01*
X0107353Y0244640D01*
X0107297Y0244376D01*
X0107234Y0244113D01*
X0107166Y0243852D01*
X0107090Y0243593D01*
X0107009Y0243336D01*
X0106921Y0243080D01*
X0106827Y0242827D01*
X0106727Y0242576D01*
X0106620Y0242328D01*
X0106508Y0242083D01*
X0106389Y0241840D01*
X0106265Y0241601D01*
X0106135Y0241364D01*
X0105999Y0241131D01*
X0105857Y0240901D01*
X0105710Y0240675D01*
X0105557Y0240452D01*
X0105399Y0240233D01*
X0105236Y0240018D01*
X0105067Y0239808D01*
X0104893Y0239601D01*
X0104714Y0239399D01*
X0104531Y0239201D01*
X0104342Y0239008D01*
X0104149Y0238819D01*
X0103951Y0238636D01*
X0103749Y0238457D01*
X0103542Y0238283D01*
X0103332Y0238114D01*
X0103117Y0237951D01*
X0102898Y0237793D01*
X0102675Y0237640D01*
X0102449Y0237493D01*
X0102219Y0237351D01*
X0101986Y0237215D01*
X0101749Y0237085D01*
X0101510Y0236961D01*
X0101267Y0236842D01*
X0101022Y0236730D01*
X0100774Y0236623D01*
X0100523Y0236523D01*
X0100270Y0236429D01*
X0100014Y0236341D01*
X0099757Y0236260D01*
X0099498Y0236184D01*
X0099237Y0236116D01*
X0098974Y0236053D01*
X0098710Y0235997D01*
X0098445Y0235948D01*
X0098178Y0235905D01*
X0097911Y0235869D01*
X0097642Y0235839D01*
X0097373Y0235816D01*
X0097104Y0235799D01*
X0096834Y0235789D01*
X0096564Y0235786D01*
X0096294Y0235789D01*
X0096024Y0235799D01*
X0095755Y0235816D01*
X0095486Y0235839D01*
X0095217Y0235869D01*
X0094950Y0235905D01*
X0094683Y0235948D01*
X0094418Y0235997D01*
X0094154Y0236053D01*
X0093891Y0236116D01*
X0093630Y0236184D01*
X0093371Y0236260D01*
X0093114Y0236341D01*
X0092858Y0236429D01*
X0092605Y0236523D01*
X0092354Y0236623D01*
X0092106Y0236730D01*
X0091861Y0236842D01*
X0091618Y0236961D01*
X0091379Y0237085D01*
X0091142Y0237215D01*
X0090909Y0237351D01*
X0090679Y0237493D01*
X0090453Y0237640D01*
X0090230Y0237793D01*
X0090011Y0237951D01*
X0089796Y0238114D01*
X0089586Y0238283D01*
X0089379Y0238457D01*
X0089177Y0238636D01*
X0088979Y0238819D01*
X0088786Y0239008D01*
X0088597Y0239201D01*
X0088414Y0239399D01*
X0088235Y0239601D01*
X0088061Y0239808D01*
X0087892Y0240018D01*
X0087729Y0240233D01*
X0087571Y0240452D01*
X0087418Y0240675D01*
X0087271Y0240901D01*
X0087129Y0241131D01*
X0086993Y0241364D01*
X0086863Y0241601D01*
X0086739Y0241840D01*
X0086620Y0242083D01*
X0086508Y0242328D01*
X0086401Y0242576D01*
X0086301Y0242827D01*
X0086207Y0243080D01*
X0086119Y0243336D01*
X0086038Y0243593D01*
X0085962Y0243852D01*
X0085894Y0244113D01*
X0085831Y0244376D01*
X0085775Y0244640D01*
X0085726Y0244905D01*
X0085683Y0245172D01*
X0085647Y0245439D01*
X0085617Y0245708D01*
X0085594Y0245977D01*
X0085577Y0246246D01*
X0085567Y0246516D01*
X0085564Y0246786D01*
X0147564Y0079286D02*
X0147566Y0079412D01*
X0147572Y0079538D01*
X0147582Y0079664D01*
X0147596Y0079790D01*
X0147614Y0079915D01*
X0147636Y0080039D01*
X0147661Y0080163D01*
X0147691Y0080286D01*
X0147724Y0080407D01*
X0147762Y0080528D01*
X0147803Y0080647D01*
X0147848Y0080766D01*
X0147896Y0080882D01*
X0147948Y0080997D01*
X0148004Y0081110D01*
X0148064Y0081222D01*
X0148127Y0081331D01*
X0148193Y0081439D01*
X0148262Y0081544D01*
X0148335Y0081647D01*
X0148412Y0081748D01*
X0148491Y0081846D01*
X0148573Y0081942D01*
X0148659Y0082035D01*
X0148747Y0082126D01*
X0148838Y0082213D01*
X0148932Y0082298D01*
X0149028Y0082379D01*
X0149127Y0082458D01*
X0149228Y0082533D01*
X0149332Y0082605D01*
X0149438Y0082674D01*
X0149546Y0082740D01*
X0149656Y0082802D01*
X0149768Y0082860D01*
X0149881Y0082915D01*
X0149997Y0082966D01*
X0150114Y0083014D01*
X0150232Y0083058D01*
X0150352Y0083098D01*
X0150473Y0083134D01*
X0150595Y0083167D01*
X0150718Y0083196D01*
X0150842Y0083220D01*
X0150966Y0083241D01*
X0151091Y0083258D01*
X0151217Y0083271D01*
X0151343Y0083280D01*
X0151469Y0083285D01*
X0151596Y0083286D01*
X0151722Y0083283D01*
X0151848Y0083276D01*
X0151974Y0083265D01*
X0152099Y0083250D01*
X0152224Y0083231D01*
X0152348Y0083208D01*
X0152472Y0083182D01*
X0152594Y0083151D01*
X0152716Y0083117D01*
X0152836Y0083078D01*
X0152955Y0083036D01*
X0153073Y0082991D01*
X0153189Y0082941D01*
X0153304Y0082888D01*
X0153416Y0082831D01*
X0153527Y0082771D01*
X0153636Y0082707D01*
X0153743Y0082640D01*
X0153848Y0082570D01*
X0153951Y0082496D01*
X0154051Y0082419D01*
X0154149Y0082339D01*
X0154244Y0082256D01*
X0154336Y0082170D01*
X0154426Y0082081D01*
X0154513Y0081989D01*
X0154596Y0081895D01*
X0154677Y0081798D01*
X0154755Y0081698D01*
X0154830Y0081596D01*
X0154901Y0081492D01*
X0154969Y0081385D01*
X0155033Y0081277D01*
X0155094Y0081166D01*
X0155152Y0081054D01*
X0155206Y0080940D01*
X0155256Y0080824D01*
X0155303Y0080707D01*
X0155346Y0080588D01*
X0155385Y0080468D01*
X0155421Y0080347D01*
X0155452Y0080224D01*
X0155480Y0080101D01*
X0155504Y0079977D01*
X0155524Y0079852D01*
X0155540Y0079727D01*
X0155552Y0079601D01*
X0155560Y0079475D01*
X0155564Y0079349D01*
X0155564Y0079223D01*
X0155560Y0079097D01*
X0155552Y0078971D01*
X0155540Y0078845D01*
X0155524Y0078720D01*
X0155504Y0078595D01*
X0155480Y0078471D01*
X0155452Y0078348D01*
X0155421Y0078225D01*
X0155385Y0078104D01*
X0155346Y0077984D01*
X0155303Y0077865D01*
X0155256Y0077748D01*
X0155206Y0077632D01*
X0155152Y0077518D01*
X0155094Y0077406D01*
X0155033Y0077295D01*
X0154969Y0077187D01*
X0154901Y0077080D01*
X0154830Y0076976D01*
X0154755Y0076874D01*
X0154677Y0076774D01*
X0154596Y0076677D01*
X0154513Y0076583D01*
X0154426Y0076491D01*
X0154336Y0076402D01*
X0154244Y0076316D01*
X0154149Y0076233D01*
X0154051Y0076153D01*
X0153951Y0076076D01*
X0153848Y0076002D01*
X0153743Y0075932D01*
X0153636Y0075865D01*
X0153527Y0075801D01*
X0153416Y0075741D01*
X0153304Y0075684D01*
X0153189Y0075631D01*
X0153073Y0075581D01*
X0152955Y0075536D01*
X0152836Y0075494D01*
X0152716Y0075455D01*
X0152594Y0075421D01*
X0152472Y0075390D01*
X0152348Y0075364D01*
X0152224Y0075341D01*
X0152099Y0075322D01*
X0151974Y0075307D01*
X0151848Y0075296D01*
X0151722Y0075289D01*
X0151596Y0075286D01*
X0151469Y0075287D01*
X0151343Y0075292D01*
X0151217Y0075301D01*
X0151091Y0075314D01*
X0150966Y0075331D01*
X0150842Y0075352D01*
X0150718Y0075376D01*
X0150595Y0075405D01*
X0150473Y0075438D01*
X0150352Y0075474D01*
X0150232Y0075514D01*
X0150114Y0075558D01*
X0149997Y0075606D01*
X0149881Y0075657D01*
X0149768Y0075712D01*
X0149656Y0075770D01*
X0149546Y0075832D01*
X0149438Y0075898D01*
X0149332Y0075967D01*
X0149228Y0076039D01*
X0149127Y0076114D01*
X0149028Y0076193D01*
X0148932Y0076274D01*
X0148838Y0076359D01*
X0148747Y0076446D01*
X0148659Y0076537D01*
X0148573Y0076630D01*
X0148491Y0076726D01*
X0148412Y0076824D01*
X0148335Y0076925D01*
X0148262Y0077028D01*
X0148193Y0077133D01*
X0148127Y0077241D01*
X0148064Y0077350D01*
X0148004Y0077462D01*
X0147948Y0077575D01*
X0147896Y0077690D01*
X0147848Y0077806D01*
X0147803Y0077925D01*
X0147762Y0078044D01*
X0147724Y0078165D01*
X0147691Y0078286D01*
X0147661Y0078409D01*
X0147636Y0078533D01*
X0147614Y0078657D01*
X0147596Y0078782D01*
X0147582Y0078908D01*
X0147572Y0079034D01*
X0147566Y0079160D01*
X0147564Y0079286D01*
X0105564Y0047786D02*
X0105567Y0048056D01*
X0105577Y0048326D01*
X0105594Y0048595D01*
X0105617Y0048864D01*
X0105647Y0049133D01*
X0105683Y0049400D01*
X0105726Y0049667D01*
X0105775Y0049932D01*
X0105831Y0050196D01*
X0105894Y0050459D01*
X0105962Y0050720D01*
X0106038Y0050979D01*
X0106119Y0051236D01*
X0106207Y0051492D01*
X0106301Y0051745D01*
X0106401Y0051996D01*
X0106508Y0052244D01*
X0106620Y0052489D01*
X0106739Y0052732D01*
X0106863Y0052971D01*
X0106993Y0053208D01*
X0107129Y0053441D01*
X0107271Y0053671D01*
X0107418Y0053897D01*
X0107571Y0054120D01*
X0107729Y0054339D01*
X0107892Y0054554D01*
X0108061Y0054764D01*
X0108235Y0054971D01*
X0108414Y0055173D01*
X0108597Y0055371D01*
X0108786Y0055564D01*
X0108979Y0055753D01*
X0109177Y0055936D01*
X0109379Y0056115D01*
X0109586Y0056289D01*
X0109796Y0056458D01*
X0110011Y0056621D01*
X0110230Y0056779D01*
X0110453Y0056932D01*
X0110679Y0057079D01*
X0110909Y0057221D01*
X0111142Y0057357D01*
X0111379Y0057487D01*
X0111618Y0057611D01*
X0111861Y0057730D01*
X0112106Y0057842D01*
X0112354Y0057949D01*
X0112605Y0058049D01*
X0112858Y0058143D01*
X0113114Y0058231D01*
X0113371Y0058312D01*
X0113630Y0058388D01*
X0113891Y0058456D01*
X0114154Y0058519D01*
X0114418Y0058575D01*
X0114683Y0058624D01*
X0114950Y0058667D01*
X0115217Y0058703D01*
X0115486Y0058733D01*
X0115755Y0058756D01*
X0116024Y0058773D01*
X0116294Y0058783D01*
X0116564Y0058786D01*
X0116834Y0058783D01*
X0117104Y0058773D01*
X0117373Y0058756D01*
X0117642Y0058733D01*
X0117911Y0058703D01*
X0118178Y0058667D01*
X0118445Y0058624D01*
X0118710Y0058575D01*
X0118974Y0058519D01*
X0119237Y0058456D01*
X0119498Y0058388D01*
X0119757Y0058312D01*
X0120014Y0058231D01*
X0120270Y0058143D01*
X0120523Y0058049D01*
X0120774Y0057949D01*
X0121022Y0057842D01*
X0121267Y0057730D01*
X0121510Y0057611D01*
X0121749Y0057487D01*
X0121986Y0057357D01*
X0122219Y0057221D01*
X0122449Y0057079D01*
X0122675Y0056932D01*
X0122898Y0056779D01*
X0123117Y0056621D01*
X0123332Y0056458D01*
X0123542Y0056289D01*
X0123749Y0056115D01*
X0123951Y0055936D01*
X0124149Y0055753D01*
X0124342Y0055564D01*
X0124531Y0055371D01*
X0124714Y0055173D01*
X0124893Y0054971D01*
X0125067Y0054764D01*
X0125236Y0054554D01*
X0125399Y0054339D01*
X0125557Y0054120D01*
X0125710Y0053897D01*
X0125857Y0053671D01*
X0125999Y0053441D01*
X0126135Y0053208D01*
X0126265Y0052971D01*
X0126389Y0052732D01*
X0126508Y0052489D01*
X0126620Y0052244D01*
X0126727Y0051996D01*
X0126827Y0051745D01*
X0126921Y0051492D01*
X0127009Y0051236D01*
X0127090Y0050979D01*
X0127166Y0050720D01*
X0127234Y0050459D01*
X0127297Y0050196D01*
X0127353Y0049932D01*
X0127402Y0049667D01*
X0127445Y0049400D01*
X0127481Y0049133D01*
X0127511Y0048864D01*
X0127534Y0048595D01*
X0127551Y0048326D01*
X0127561Y0048056D01*
X0127564Y0047786D01*
X0127561Y0047516D01*
X0127551Y0047246D01*
X0127534Y0046977D01*
X0127511Y0046708D01*
X0127481Y0046439D01*
X0127445Y0046172D01*
X0127402Y0045905D01*
X0127353Y0045640D01*
X0127297Y0045376D01*
X0127234Y0045113D01*
X0127166Y0044852D01*
X0127090Y0044593D01*
X0127009Y0044336D01*
X0126921Y0044080D01*
X0126827Y0043827D01*
X0126727Y0043576D01*
X0126620Y0043328D01*
X0126508Y0043083D01*
X0126389Y0042840D01*
X0126265Y0042601D01*
X0126135Y0042364D01*
X0125999Y0042131D01*
X0125857Y0041901D01*
X0125710Y0041675D01*
X0125557Y0041452D01*
X0125399Y0041233D01*
X0125236Y0041018D01*
X0125067Y0040808D01*
X0124893Y0040601D01*
X0124714Y0040399D01*
X0124531Y0040201D01*
X0124342Y0040008D01*
X0124149Y0039819D01*
X0123951Y0039636D01*
X0123749Y0039457D01*
X0123542Y0039283D01*
X0123332Y0039114D01*
X0123117Y0038951D01*
X0122898Y0038793D01*
X0122675Y0038640D01*
X0122449Y0038493D01*
X0122219Y0038351D01*
X0121986Y0038215D01*
X0121749Y0038085D01*
X0121510Y0037961D01*
X0121267Y0037842D01*
X0121022Y0037730D01*
X0120774Y0037623D01*
X0120523Y0037523D01*
X0120270Y0037429D01*
X0120014Y0037341D01*
X0119757Y0037260D01*
X0119498Y0037184D01*
X0119237Y0037116D01*
X0118974Y0037053D01*
X0118710Y0036997D01*
X0118445Y0036948D01*
X0118178Y0036905D01*
X0117911Y0036869D01*
X0117642Y0036839D01*
X0117373Y0036816D01*
X0117104Y0036799D01*
X0116834Y0036789D01*
X0116564Y0036786D01*
X0116294Y0036789D01*
X0116024Y0036799D01*
X0115755Y0036816D01*
X0115486Y0036839D01*
X0115217Y0036869D01*
X0114950Y0036905D01*
X0114683Y0036948D01*
X0114418Y0036997D01*
X0114154Y0037053D01*
X0113891Y0037116D01*
X0113630Y0037184D01*
X0113371Y0037260D01*
X0113114Y0037341D01*
X0112858Y0037429D01*
X0112605Y0037523D01*
X0112354Y0037623D01*
X0112106Y0037730D01*
X0111861Y0037842D01*
X0111618Y0037961D01*
X0111379Y0038085D01*
X0111142Y0038215D01*
X0110909Y0038351D01*
X0110679Y0038493D01*
X0110453Y0038640D01*
X0110230Y0038793D01*
X0110011Y0038951D01*
X0109796Y0039114D01*
X0109586Y0039283D01*
X0109379Y0039457D01*
X0109177Y0039636D01*
X0108979Y0039819D01*
X0108786Y0040008D01*
X0108597Y0040201D01*
X0108414Y0040399D01*
X0108235Y0040601D01*
X0108061Y0040808D01*
X0107892Y0041018D01*
X0107729Y0041233D01*
X0107571Y0041452D01*
X0107418Y0041675D01*
X0107271Y0041901D01*
X0107129Y0042131D01*
X0106993Y0042364D01*
X0106863Y0042601D01*
X0106739Y0042840D01*
X0106620Y0043083D01*
X0106508Y0043328D01*
X0106401Y0043576D01*
X0106301Y0043827D01*
X0106207Y0044080D01*
X0106119Y0044336D01*
X0106038Y0044593D01*
X0105962Y0044852D01*
X0105894Y0045113D01*
X0105831Y0045376D01*
X0105775Y0045640D01*
X0105726Y0045905D01*
X0105683Y0046172D01*
X0105647Y0046439D01*
X0105617Y0046708D01*
X0105594Y0046977D01*
X0105577Y0047246D01*
X0105567Y0047516D01*
X0105564Y0047786D01*
X0347564Y0079286D02*
X0347566Y0079412D01*
X0347572Y0079538D01*
X0347582Y0079664D01*
X0347596Y0079790D01*
X0347614Y0079915D01*
X0347636Y0080039D01*
X0347661Y0080163D01*
X0347691Y0080286D01*
X0347724Y0080407D01*
X0347762Y0080528D01*
X0347803Y0080647D01*
X0347848Y0080766D01*
X0347896Y0080882D01*
X0347948Y0080997D01*
X0348004Y0081110D01*
X0348064Y0081222D01*
X0348127Y0081331D01*
X0348193Y0081439D01*
X0348262Y0081544D01*
X0348335Y0081647D01*
X0348412Y0081748D01*
X0348491Y0081846D01*
X0348573Y0081942D01*
X0348659Y0082035D01*
X0348747Y0082126D01*
X0348838Y0082213D01*
X0348932Y0082298D01*
X0349028Y0082379D01*
X0349127Y0082458D01*
X0349228Y0082533D01*
X0349332Y0082605D01*
X0349438Y0082674D01*
X0349546Y0082740D01*
X0349656Y0082802D01*
X0349768Y0082860D01*
X0349881Y0082915D01*
X0349997Y0082966D01*
X0350114Y0083014D01*
X0350232Y0083058D01*
X0350352Y0083098D01*
X0350473Y0083134D01*
X0350595Y0083167D01*
X0350718Y0083196D01*
X0350842Y0083220D01*
X0350966Y0083241D01*
X0351091Y0083258D01*
X0351217Y0083271D01*
X0351343Y0083280D01*
X0351469Y0083285D01*
X0351596Y0083286D01*
X0351722Y0083283D01*
X0351848Y0083276D01*
X0351974Y0083265D01*
X0352099Y0083250D01*
X0352224Y0083231D01*
X0352348Y0083208D01*
X0352472Y0083182D01*
X0352594Y0083151D01*
X0352716Y0083117D01*
X0352836Y0083078D01*
X0352955Y0083036D01*
X0353073Y0082991D01*
X0353189Y0082941D01*
X0353304Y0082888D01*
X0353416Y0082831D01*
X0353527Y0082771D01*
X0353636Y0082707D01*
X0353743Y0082640D01*
X0353848Y0082570D01*
X0353951Y0082496D01*
X0354051Y0082419D01*
X0354149Y0082339D01*
X0354244Y0082256D01*
X0354336Y0082170D01*
X0354426Y0082081D01*
X0354513Y0081989D01*
X0354596Y0081895D01*
X0354677Y0081798D01*
X0354755Y0081698D01*
X0354830Y0081596D01*
X0354901Y0081492D01*
X0354969Y0081385D01*
X0355033Y0081277D01*
X0355094Y0081166D01*
X0355152Y0081054D01*
X0355206Y0080940D01*
X0355256Y0080824D01*
X0355303Y0080707D01*
X0355346Y0080588D01*
X0355385Y0080468D01*
X0355421Y0080347D01*
X0355452Y0080224D01*
X0355480Y0080101D01*
X0355504Y0079977D01*
X0355524Y0079852D01*
X0355540Y0079727D01*
X0355552Y0079601D01*
X0355560Y0079475D01*
X0355564Y0079349D01*
X0355564Y0079223D01*
X0355560Y0079097D01*
X0355552Y0078971D01*
X0355540Y0078845D01*
X0355524Y0078720D01*
X0355504Y0078595D01*
X0355480Y0078471D01*
X0355452Y0078348D01*
X0355421Y0078225D01*
X0355385Y0078104D01*
X0355346Y0077984D01*
X0355303Y0077865D01*
X0355256Y0077748D01*
X0355206Y0077632D01*
X0355152Y0077518D01*
X0355094Y0077406D01*
X0355033Y0077295D01*
X0354969Y0077187D01*
X0354901Y0077080D01*
X0354830Y0076976D01*
X0354755Y0076874D01*
X0354677Y0076774D01*
X0354596Y0076677D01*
X0354513Y0076583D01*
X0354426Y0076491D01*
X0354336Y0076402D01*
X0354244Y0076316D01*
X0354149Y0076233D01*
X0354051Y0076153D01*
X0353951Y0076076D01*
X0353848Y0076002D01*
X0353743Y0075932D01*
X0353636Y0075865D01*
X0353527Y0075801D01*
X0353416Y0075741D01*
X0353304Y0075684D01*
X0353189Y0075631D01*
X0353073Y0075581D01*
X0352955Y0075536D01*
X0352836Y0075494D01*
X0352716Y0075455D01*
X0352594Y0075421D01*
X0352472Y0075390D01*
X0352348Y0075364D01*
X0352224Y0075341D01*
X0352099Y0075322D01*
X0351974Y0075307D01*
X0351848Y0075296D01*
X0351722Y0075289D01*
X0351596Y0075286D01*
X0351469Y0075287D01*
X0351343Y0075292D01*
X0351217Y0075301D01*
X0351091Y0075314D01*
X0350966Y0075331D01*
X0350842Y0075352D01*
X0350718Y0075376D01*
X0350595Y0075405D01*
X0350473Y0075438D01*
X0350352Y0075474D01*
X0350232Y0075514D01*
X0350114Y0075558D01*
X0349997Y0075606D01*
X0349881Y0075657D01*
X0349768Y0075712D01*
X0349656Y0075770D01*
X0349546Y0075832D01*
X0349438Y0075898D01*
X0349332Y0075967D01*
X0349228Y0076039D01*
X0349127Y0076114D01*
X0349028Y0076193D01*
X0348932Y0076274D01*
X0348838Y0076359D01*
X0348747Y0076446D01*
X0348659Y0076537D01*
X0348573Y0076630D01*
X0348491Y0076726D01*
X0348412Y0076824D01*
X0348335Y0076925D01*
X0348262Y0077028D01*
X0348193Y0077133D01*
X0348127Y0077241D01*
X0348064Y0077350D01*
X0348004Y0077462D01*
X0347948Y0077575D01*
X0347896Y0077690D01*
X0347848Y0077806D01*
X0347803Y0077925D01*
X0347762Y0078044D01*
X0347724Y0078165D01*
X0347691Y0078286D01*
X0347661Y0078409D01*
X0347636Y0078533D01*
X0347614Y0078657D01*
X0347596Y0078782D01*
X0347582Y0078908D01*
X0347572Y0079034D01*
X0347566Y0079160D01*
X0347564Y0079286D01*
X0375564Y0047786D02*
X0375567Y0048056D01*
X0375577Y0048326D01*
X0375594Y0048595D01*
X0375617Y0048864D01*
X0375647Y0049133D01*
X0375683Y0049400D01*
X0375726Y0049667D01*
X0375775Y0049932D01*
X0375831Y0050196D01*
X0375894Y0050459D01*
X0375962Y0050720D01*
X0376038Y0050979D01*
X0376119Y0051236D01*
X0376207Y0051492D01*
X0376301Y0051745D01*
X0376401Y0051996D01*
X0376508Y0052244D01*
X0376620Y0052489D01*
X0376739Y0052732D01*
X0376863Y0052971D01*
X0376993Y0053208D01*
X0377129Y0053441D01*
X0377271Y0053671D01*
X0377418Y0053897D01*
X0377571Y0054120D01*
X0377729Y0054339D01*
X0377892Y0054554D01*
X0378061Y0054764D01*
X0378235Y0054971D01*
X0378414Y0055173D01*
X0378597Y0055371D01*
X0378786Y0055564D01*
X0378979Y0055753D01*
X0379177Y0055936D01*
X0379379Y0056115D01*
X0379586Y0056289D01*
X0379796Y0056458D01*
X0380011Y0056621D01*
X0380230Y0056779D01*
X0380453Y0056932D01*
X0380679Y0057079D01*
X0380909Y0057221D01*
X0381142Y0057357D01*
X0381379Y0057487D01*
X0381618Y0057611D01*
X0381861Y0057730D01*
X0382106Y0057842D01*
X0382354Y0057949D01*
X0382605Y0058049D01*
X0382858Y0058143D01*
X0383114Y0058231D01*
X0383371Y0058312D01*
X0383630Y0058388D01*
X0383891Y0058456D01*
X0384154Y0058519D01*
X0384418Y0058575D01*
X0384683Y0058624D01*
X0384950Y0058667D01*
X0385217Y0058703D01*
X0385486Y0058733D01*
X0385755Y0058756D01*
X0386024Y0058773D01*
X0386294Y0058783D01*
X0386564Y0058786D01*
X0386834Y0058783D01*
X0387104Y0058773D01*
X0387373Y0058756D01*
X0387642Y0058733D01*
X0387911Y0058703D01*
X0388178Y0058667D01*
X0388445Y0058624D01*
X0388710Y0058575D01*
X0388974Y0058519D01*
X0389237Y0058456D01*
X0389498Y0058388D01*
X0389757Y0058312D01*
X0390014Y0058231D01*
X0390270Y0058143D01*
X0390523Y0058049D01*
X0390774Y0057949D01*
X0391022Y0057842D01*
X0391267Y0057730D01*
X0391510Y0057611D01*
X0391749Y0057487D01*
X0391986Y0057357D01*
X0392219Y0057221D01*
X0392449Y0057079D01*
X0392675Y0056932D01*
X0392898Y0056779D01*
X0393117Y0056621D01*
X0393332Y0056458D01*
X0393542Y0056289D01*
X0393749Y0056115D01*
X0393951Y0055936D01*
X0394149Y0055753D01*
X0394342Y0055564D01*
X0394531Y0055371D01*
X0394714Y0055173D01*
X0394893Y0054971D01*
X0395067Y0054764D01*
X0395236Y0054554D01*
X0395399Y0054339D01*
X0395557Y0054120D01*
X0395710Y0053897D01*
X0395857Y0053671D01*
X0395999Y0053441D01*
X0396135Y0053208D01*
X0396265Y0052971D01*
X0396389Y0052732D01*
X0396508Y0052489D01*
X0396620Y0052244D01*
X0396727Y0051996D01*
X0396827Y0051745D01*
X0396921Y0051492D01*
X0397009Y0051236D01*
X0397090Y0050979D01*
X0397166Y0050720D01*
X0397234Y0050459D01*
X0397297Y0050196D01*
X0397353Y0049932D01*
X0397402Y0049667D01*
X0397445Y0049400D01*
X0397481Y0049133D01*
X0397511Y0048864D01*
X0397534Y0048595D01*
X0397551Y0048326D01*
X0397561Y0048056D01*
X0397564Y0047786D01*
X0397561Y0047516D01*
X0397551Y0047246D01*
X0397534Y0046977D01*
X0397511Y0046708D01*
X0397481Y0046439D01*
X0397445Y0046172D01*
X0397402Y0045905D01*
X0397353Y0045640D01*
X0397297Y0045376D01*
X0397234Y0045113D01*
X0397166Y0044852D01*
X0397090Y0044593D01*
X0397009Y0044336D01*
X0396921Y0044080D01*
X0396827Y0043827D01*
X0396727Y0043576D01*
X0396620Y0043328D01*
X0396508Y0043083D01*
X0396389Y0042840D01*
X0396265Y0042601D01*
X0396135Y0042364D01*
X0395999Y0042131D01*
X0395857Y0041901D01*
X0395710Y0041675D01*
X0395557Y0041452D01*
X0395399Y0041233D01*
X0395236Y0041018D01*
X0395067Y0040808D01*
X0394893Y0040601D01*
X0394714Y0040399D01*
X0394531Y0040201D01*
X0394342Y0040008D01*
X0394149Y0039819D01*
X0393951Y0039636D01*
X0393749Y0039457D01*
X0393542Y0039283D01*
X0393332Y0039114D01*
X0393117Y0038951D01*
X0392898Y0038793D01*
X0392675Y0038640D01*
X0392449Y0038493D01*
X0392219Y0038351D01*
X0391986Y0038215D01*
X0391749Y0038085D01*
X0391510Y0037961D01*
X0391267Y0037842D01*
X0391022Y0037730D01*
X0390774Y0037623D01*
X0390523Y0037523D01*
X0390270Y0037429D01*
X0390014Y0037341D01*
X0389757Y0037260D01*
X0389498Y0037184D01*
X0389237Y0037116D01*
X0388974Y0037053D01*
X0388710Y0036997D01*
X0388445Y0036948D01*
X0388178Y0036905D01*
X0387911Y0036869D01*
X0387642Y0036839D01*
X0387373Y0036816D01*
X0387104Y0036799D01*
X0386834Y0036789D01*
X0386564Y0036786D01*
X0386294Y0036789D01*
X0386024Y0036799D01*
X0385755Y0036816D01*
X0385486Y0036839D01*
X0385217Y0036869D01*
X0384950Y0036905D01*
X0384683Y0036948D01*
X0384418Y0036997D01*
X0384154Y0037053D01*
X0383891Y0037116D01*
X0383630Y0037184D01*
X0383371Y0037260D01*
X0383114Y0037341D01*
X0382858Y0037429D01*
X0382605Y0037523D01*
X0382354Y0037623D01*
X0382106Y0037730D01*
X0381861Y0037842D01*
X0381618Y0037961D01*
X0381379Y0038085D01*
X0381142Y0038215D01*
X0380909Y0038351D01*
X0380679Y0038493D01*
X0380453Y0038640D01*
X0380230Y0038793D01*
X0380011Y0038951D01*
X0379796Y0039114D01*
X0379586Y0039283D01*
X0379379Y0039457D01*
X0379177Y0039636D01*
X0378979Y0039819D01*
X0378786Y0040008D01*
X0378597Y0040201D01*
X0378414Y0040399D01*
X0378235Y0040601D01*
X0378061Y0040808D01*
X0377892Y0041018D01*
X0377729Y0041233D01*
X0377571Y0041452D01*
X0377418Y0041675D01*
X0377271Y0041901D01*
X0377129Y0042131D01*
X0376993Y0042364D01*
X0376863Y0042601D01*
X0376739Y0042840D01*
X0376620Y0043083D01*
X0376508Y0043328D01*
X0376401Y0043576D01*
X0376301Y0043827D01*
X0376207Y0044080D01*
X0376119Y0044336D01*
X0376038Y0044593D01*
X0375962Y0044852D01*
X0375894Y0045113D01*
X0375831Y0045376D01*
X0375775Y0045640D01*
X0375726Y0045905D01*
X0375683Y0046172D01*
X0375647Y0046439D01*
X0375617Y0046708D01*
X0375594Y0046977D01*
X0375577Y0047246D01*
X0375567Y0047516D01*
X0375564Y0047786D01*
X0395564Y0246786D02*
X0395567Y0247056D01*
X0395577Y0247326D01*
X0395594Y0247595D01*
X0395617Y0247864D01*
X0395647Y0248133D01*
X0395683Y0248400D01*
X0395726Y0248667D01*
X0395775Y0248932D01*
X0395831Y0249196D01*
X0395894Y0249459D01*
X0395962Y0249720D01*
X0396038Y0249979D01*
X0396119Y0250236D01*
X0396207Y0250492D01*
X0396301Y0250745D01*
X0396401Y0250996D01*
X0396508Y0251244D01*
X0396620Y0251489D01*
X0396739Y0251732D01*
X0396863Y0251971D01*
X0396993Y0252208D01*
X0397129Y0252441D01*
X0397271Y0252671D01*
X0397418Y0252897D01*
X0397571Y0253120D01*
X0397729Y0253339D01*
X0397892Y0253554D01*
X0398061Y0253764D01*
X0398235Y0253971D01*
X0398414Y0254173D01*
X0398597Y0254371D01*
X0398786Y0254564D01*
X0398979Y0254753D01*
X0399177Y0254936D01*
X0399379Y0255115D01*
X0399586Y0255289D01*
X0399796Y0255458D01*
X0400011Y0255621D01*
X0400230Y0255779D01*
X0400453Y0255932D01*
X0400679Y0256079D01*
X0400909Y0256221D01*
X0401142Y0256357D01*
X0401379Y0256487D01*
X0401618Y0256611D01*
X0401861Y0256730D01*
X0402106Y0256842D01*
X0402354Y0256949D01*
X0402605Y0257049D01*
X0402858Y0257143D01*
X0403114Y0257231D01*
X0403371Y0257312D01*
X0403630Y0257388D01*
X0403891Y0257456D01*
X0404154Y0257519D01*
X0404418Y0257575D01*
X0404683Y0257624D01*
X0404950Y0257667D01*
X0405217Y0257703D01*
X0405486Y0257733D01*
X0405755Y0257756D01*
X0406024Y0257773D01*
X0406294Y0257783D01*
X0406564Y0257786D01*
X0406834Y0257783D01*
X0407104Y0257773D01*
X0407373Y0257756D01*
X0407642Y0257733D01*
X0407911Y0257703D01*
X0408178Y0257667D01*
X0408445Y0257624D01*
X0408710Y0257575D01*
X0408974Y0257519D01*
X0409237Y0257456D01*
X0409498Y0257388D01*
X0409757Y0257312D01*
X0410014Y0257231D01*
X0410270Y0257143D01*
X0410523Y0257049D01*
X0410774Y0256949D01*
X0411022Y0256842D01*
X0411267Y0256730D01*
X0411510Y0256611D01*
X0411749Y0256487D01*
X0411986Y0256357D01*
X0412219Y0256221D01*
X0412449Y0256079D01*
X0412675Y0255932D01*
X0412898Y0255779D01*
X0413117Y0255621D01*
X0413332Y0255458D01*
X0413542Y0255289D01*
X0413749Y0255115D01*
X0413951Y0254936D01*
X0414149Y0254753D01*
X0414342Y0254564D01*
X0414531Y0254371D01*
X0414714Y0254173D01*
X0414893Y0253971D01*
X0415067Y0253764D01*
X0415236Y0253554D01*
X0415399Y0253339D01*
X0415557Y0253120D01*
X0415710Y0252897D01*
X0415857Y0252671D01*
X0415999Y0252441D01*
X0416135Y0252208D01*
X0416265Y0251971D01*
X0416389Y0251732D01*
X0416508Y0251489D01*
X0416620Y0251244D01*
X0416727Y0250996D01*
X0416827Y0250745D01*
X0416921Y0250492D01*
X0417009Y0250236D01*
X0417090Y0249979D01*
X0417166Y0249720D01*
X0417234Y0249459D01*
X0417297Y0249196D01*
X0417353Y0248932D01*
X0417402Y0248667D01*
X0417445Y0248400D01*
X0417481Y0248133D01*
X0417511Y0247864D01*
X0417534Y0247595D01*
X0417551Y0247326D01*
X0417561Y0247056D01*
X0417564Y0246786D01*
X0417561Y0246516D01*
X0417551Y0246246D01*
X0417534Y0245977D01*
X0417511Y0245708D01*
X0417481Y0245439D01*
X0417445Y0245172D01*
X0417402Y0244905D01*
X0417353Y0244640D01*
X0417297Y0244376D01*
X0417234Y0244113D01*
X0417166Y0243852D01*
X0417090Y0243593D01*
X0417009Y0243336D01*
X0416921Y0243080D01*
X0416827Y0242827D01*
X0416727Y0242576D01*
X0416620Y0242328D01*
X0416508Y0242083D01*
X0416389Y0241840D01*
X0416265Y0241601D01*
X0416135Y0241364D01*
X0415999Y0241131D01*
X0415857Y0240901D01*
X0415710Y0240675D01*
X0415557Y0240452D01*
X0415399Y0240233D01*
X0415236Y0240018D01*
X0415067Y0239808D01*
X0414893Y0239601D01*
X0414714Y0239399D01*
X0414531Y0239201D01*
X0414342Y0239008D01*
X0414149Y0238819D01*
X0413951Y0238636D01*
X0413749Y0238457D01*
X0413542Y0238283D01*
X0413332Y0238114D01*
X0413117Y0237951D01*
X0412898Y0237793D01*
X0412675Y0237640D01*
X0412449Y0237493D01*
X0412219Y0237351D01*
X0411986Y0237215D01*
X0411749Y0237085D01*
X0411510Y0236961D01*
X0411267Y0236842D01*
X0411022Y0236730D01*
X0410774Y0236623D01*
X0410523Y0236523D01*
X0410270Y0236429D01*
X0410014Y0236341D01*
X0409757Y0236260D01*
X0409498Y0236184D01*
X0409237Y0236116D01*
X0408974Y0236053D01*
X0408710Y0235997D01*
X0408445Y0235948D01*
X0408178Y0235905D01*
X0407911Y0235869D01*
X0407642Y0235839D01*
X0407373Y0235816D01*
X0407104Y0235799D01*
X0406834Y0235789D01*
X0406564Y0235786D01*
X0406294Y0235789D01*
X0406024Y0235799D01*
X0405755Y0235816D01*
X0405486Y0235839D01*
X0405217Y0235869D01*
X0404950Y0235905D01*
X0404683Y0235948D01*
X0404418Y0235997D01*
X0404154Y0236053D01*
X0403891Y0236116D01*
X0403630Y0236184D01*
X0403371Y0236260D01*
X0403114Y0236341D01*
X0402858Y0236429D01*
X0402605Y0236523D01*
X0402354Y0236623D01*
X0402106Y0236730D01*
X0401861Y0236842D01*
X0401618Y0236961D01*
X0401379Y0237085D01*
X0401142Y0237215D01*
X0400909Y0237351D01*
X0400679Y0237493D01*
X0400453Y0237640D01*
X0400230Y0237793D01*
X0400011Y0237951D01*
X0399796Y0238114D01*
X0399586Y0238283D01*
X0399379Y0238457D01*
X0399177Y0238636D01*
X0398979Y0238819D01*
X0398786Y0239008D01*
X0398597Y0239201D01*
X0398414Y0239399D01*
X0398235Y0239601D01*
X0398061Y0239808D01*
X0397892Y0240018D01*
X0397729Y0240233D01*
X0397571Y0240452D01*
X0397418Y0240675D01*
X0397271Y0240901D01*
X0397129Y0241131D01*
X0396993Y0241364D01*
X0396863Y0241601D01*
X0396739Y0241840D01*
X0396620Y0242083D01*
X0396508Y0242328D01*
X0396401Y0242576D01*
X0396301Y0242827D01*
X0396207Y0243080D01*
X0396119Y0243336D01*
X0396038Y0243593D01*
X0395962Y0243852D01*
X0395894Y0244113D01*
X0395831Y0244376D01*
X0395775Y0244640D01*
X0395726Y0244905D01*
X0395683Y0245172D01*
X0395647Y0245439D01*
X0395617Y0245708D01*
X0395594Y0245977D01*
X0395577Y0246246D01*
X0395567Y0246516D01*
X0395564Y0246786D01*
D11*
X0104564Y0013786D02*
X0040564Y0013786D01*
X0028564Y0032786D02*
X0028564Y0107786D01*
X0089564Y0107786D01*
X0089564Y0032786D01*
X0028564Y0032786D01*
X0040564Y0013786D02*
X0039763Y0013651D01*
X0038960Y0013536D01*
X0038153Y0013441D01*
X0037345Y0013365D01*
X0036535Y0013310D01*
X0035723Y0013273D01*
X0034912Y0013257D01*
X0034100Y0013260D01*
X0033288Y0013284D01*
X0032477Y0013327D01*
X0031668Y0013389D01*
X0030860Y0013472D01*
X0030054Y0013574D01*
X0029251Y0013695D01*
X0028452Y0013836D01*
X0027656Y0013997D01*
X0026864Y0014177D01*
X0026077Y0014376D01*
X0025295Y0014594D01*
X0024518Y0014831D01*
X0023747Y0015087D01*
X0022983Y0015362D01*
X0022226Y0015655D01*
X0021476Y0015966D01*
X0020734Y0016296D01*
X0020000Y0016644D01*
X0019275Y0017009D01*
X0018559Y0017392D01*
X0017853Y0017793D01*
X0017156Y0018210D01*
X0016470Y0018644D01*
X0015795Y0019095D01*
X0015131Y0019562D01*
X0014478Y0020046D01*
X0013838Y0020545D01*
X0013209Y0021059D01*
X0012594Y0021588D01*
X0011991Y0022133D01*
X0011402Y0022692D01*
X0010827Y0023265D01*
X0010266Y0023852D01*
X0009719Y0024452D01*
X0009187Y0025065D01*
X0008670Y0025692D01*
X0008169Y0026330D01*
X0007683Y0026981D01*
X0007213Y0027643D01*
X0006760Y0028317D01*
X0006323Y0029001D01*
X0005903Y0029696D01*
X0005500Y0030401D01*
X0005114Y0031116D01*
X0004746Y0031839D01*
X0004395Y0032572D01*
X0004062Y0033312D01*
X0003748Y0034061D01*
X0003452Y0034817D01*
X0003174Y0035580D01*
X0002915Y0036350D01*
X0002675Y0037125D01*
X0002453Y0037907D01*
X0002251Y0038693D01*
X0002068Y0039484D01*
X0001905Y0040279D01*
X0001760Y0041079D01*
X0001636Y0041881D01*
X0001531Y0042686D01*
X0001445Y0043494D01*
X0001379Y0044303D01*
X0001333Y0045114D01*
X0001307Y0045925D01*
X0001300Y0046737D01*
X0001313Y0047549D01*
X0001346Y0048360D01*
X0001399Y0049171D01*
X0001472Y0049979D01*
X0001564Y0050786D01*
X0001564Y0242786D01*
X0001563Y0241786D02*
X0001528Y0242709D01*
X0001516Y0243632D01*
X0001526Y0244555D01*
X0001558Y0245478D01*
X0001613Y0246400D01*
X0001690Y0247320D01*
X0001789Y0248239D01*
X0001910Y0249154D01*
X0002054Y0250066D01*
X0002220Y0250975D01*
X0002407Y0251879D01*
X0002616Y0252778D01*
X0002847Y0253673D01*
X0003100Y0254561D01*
X0003374Y0255443D01*
X0003669Y0256318D01*
X0003986Y0257185D01*
X0004323Y0258045D01*
X0004681Y0258896D01*
X0005059Y0259739D01*
X0005458Y0260572D01*
X0005877Y0261395D01*
X0006316Y0262207D01*
X0006774Y0263009D01*
X0007251Y0263800D01*
X0007748Y0264578D01*
X0008263Y0265345D01*
X0008796Y0266098D01*
X0009348Y0266839D01*
X0009917Y0267566D01*
X0010504Y0268279D01*
X0011108Y0268978D01*
X0011729Y0269662D01*
X0012366Y0270330D01*
X0013019Y0270983D01*
X0013687Y0271620D01*
X0014371Y0272241D01*
X0015070Y0272845D01*
X0015783Y0273432D01*
X0016510Y0274001D01*
X0017251Y0274553D01*
X0018004Y0275086D01*
X0018771Y0275601D01*
X0019549Y0276098D01*
X0020340Y0276575D01*
X0021142Y0277033D01*
X0021954Y0277472D01*
X0022777Y0277891D01*
X0023610Y0278290D01*
X0024453Y0278668D01*
X0025304Y0279026D01*
X0026164Y0279363D01*
X0027031Y0279680D01*
X0027906Y0279975D01*
X0028788Y0280249D01*
X0029676Y0280502D01*
X0030571Y0280733D01*
X0031470Y0280942D01*
X0032374Y0281129D01*
X0033283Y0281295D01*
X0034195Y0281439D01*
X0035110Y0281560D01*
X0036029Y0281659D01*
X0036949Y0281736D01*
X0037871Y0281791D01*
X0038794Y0281823D01*
X0039717Y0281833D01*
X0040640Y0281821D01*
X0041563Y0281786D01*
X0041564Y0281786D02*
X0137564Y0281786D01*
X0137564Y0151786D01*
X0152564Y0151786D01*
X0152564Y0171786D01*
X0364564Y0171786D01*
X0364564Y0281786D01*
X0462564Y0281786D01*
X0462563Y0281786D02*
X0463545Y0281740D01*
X0464525Y0281671D01*
X0465504Y0281577D01*
X0466479Y0281461D01*
X0467452Y0281320D01*
X0468421Y0281156D01*
X0469386Y0280969D01*
X0470346Y0280759D01*
X0471300Y0280525D01*
X0472249Y0280268D01*
X0473191Y0279989D01*
X0474126Y0279687D01*
X0475054Y0279362D01*
X0475973Y0279015D01*
X0476884Y0278646D01*
X0477785Y0278255D01*
X0478677Y0277842D01*
X0479559Y0277407D01*
X0480430Y0276952D01*
X0481289Y0276476D01*
X0482137Y0275979D01*
X0482973Y0275461D01*
X0483795Y0274924D01*
X0484605Y0274367D01*
X0485401Y0273790D01*
X0486182Y0273195D01*
X0486949Y0272580D01*
X0487701Y0271947D01*
X0488438Y0271297D01*
X0489158Y0270628D01*
X0489862Y0269943D01*
X0490550Y0269240D01*
X0491220Y0268522D01*
X0491872Y0267787D01*
X0492507Y0267036D01*
X0493123Y0266271D01*
X0493721Y0265491D01*
X0494299Y0264696D01*
X0494859Y0263888D01*
X0495398Y0263067D01*
X0495918Y0262232D01*
X0496417Y0261386D01*
X0496895Y0260527D01*
X0497353Y0259658D01*
X0497789Y0258777D01*
X0498204Y0257886D01*
X0498598Y0256986D01*
X0498969Y0256076D01*
X0499318Y0255157D01*
X0499645Y0254231D01*
X0499950Y0253296D01*
X0500232Y0252355D01*
X0500491Y0251407D01*
X0500727Y0250453D01*
X0500940Y0249494D01*
X0501129Y0248529D01*
X0501296Y0247561D01*
X0501438Y0246588D01*
X0501558Y0245613D01*
X0501653Y0244635D01*
X0501725Y0243655D01*
X0501773Y0242673D01*
X0501798Y0241691D01*
X0501798Y0240708D01*
X0501775Y0239725D01*
X0501728Y0238744D01*
X0501658Y0237764D01*
X0501564Y0236785D01*
X0501564Y0236786D02*
X0501564Y0053786D01*
X0501689Y0052939D01*
X0501792Y0052089D01*
X0501875Y0051237D01*
X0501937Y0050383D01*
X0501978Y0049528D01*
X0501998Y0048672D01*
X0501997Y0047816D01*
X0501975Y0046960D01*
X0501932Y0046105D01*
X0501868Y0045251D01*
X0501783Y0044399D01*
X0501677Y0043550D01*
X0501551Y0042703D01*
X0501404Y0041860D01*
X0501236Y0041020D01*
X0501048Y0040185D01*
X0500839Y0039355D01*
X0500610Y0038530D01*
X0500361Y0037711D01*
X0500092Y0036898D01*
X0499803Y0036092D01*
X0499494Y0035294D01*
X0499166Y0034503D01*
X0498819Y0033720D01*
X0498452Y0032947D01*
X0498067Y0032182D01*
X0497663Y0031427D01*
X0497241Y0030682D01*
X0496800Y0029948D01*
X0496342Y0029225D01*
X0495866Y0028513D01*
X0495373Y0027814D01*
X0494863Y0027126D01*
X0494336Y0026451D01*
X0493793Y0025790D01*
X0493234Y0025141D01*
X0492659Y0024507D01*
X0492068Y0023887D01*
X0491463Y0023282D01*
X0490843Y0022691D01*
X0490209Y0022116D01*
X0489560Y0021557D01*
X0488899Y0021014D01*
X0488224Y0020487D01*
X0487536Y0019977D01*
X0486837Y0019484D01*
X0486125Y0019008D01*
X0485402Y0018550D01*
X0484668Y0018109D01*
X0483923Y0017687D01*
X0483168Y0017283D01*
X0482403Y0016898D01*
X0481630Y0016531D01*
X0480847Y0016184D01*
X0480056Y0015856D01*
X0479258Y0015547D01*
X0478452Y0015258D01*
X0477639Y0014989D01*
X0476820Y0014740D01*
X0475995Y0014511D01*
X0475165Y0014302D01*
X0474330Y0014114D01*
X0473490Y0013946D01*
X0472647Y0013799D01*
X0471800Y0013673D01*
X0470951Y0013567D01*
X0470099Y0013482D01*
X0469245Y0013418D01*
X0468390Y0013375D01*
X0467534Y0013353D01*
X0466678Y0013352D01*
X0465822Y0013372D01*
X0464967Y0013413D01*
X0464113Y0013475D01*
X0463261Y0013558D01*
X0462411Y0013661D01*
X0461564Y0013786D01*
X0397564Y0013786D01*
X0397564Y0047786D01*
X0375564Y0047786D01*
X0375564Y0013786D01*
X0127564Y0013786D01*
X0127564Y0047786D01*
X0105564Y0047786D01*
X0105564Y0015786D01*
X0104564Y0013786D01*
X0188064Y0077286D02*
X0192064Y0077286D01*
X0201564Y0077286D01*
X0205064Y0077286D01*
X0208564Y0085286D02*
X0208564Y0086286D01*
X0209564Y0086286D01*
X0209564Y0092286D01*
X0208564Y0092286D01*
X0208564Y0093286D01*
X0205064Y0101286D02*
X0201564Y0101286D01*
X0191564Y0101286D01*
X0188064Y0101286D01*
X0184564Y0093286D02*
X0184564Y0092286D01*
X0183564Y0092286D01*
X0183564Y0086286D01*
X0184564Y0086286D01*
X0184564Y0085286D01*
X0195564Y0089286D02*
X0195566Y0089349D01*
X0195572Y0089411D01*
X0195582Y0089473D01*
X0195595Y0089535D01*
X0195613Y0089595D01*
X0195634Y0089654D01*
X0195659Y0089712D01*
X0195688Y0089768D01*
X0195720Y0089822D01*
X0195755Y0089874D01*
X0195793Y0089923D01*
X0195835Y0089971D01*
X0195879Y0090015D01*
X0195927Y0090057D01*
X0195976Y0090095D01*
X0196028Y0090130D01*
X0196082Y0090162D01*
X0196138Y0090191D01*
X0196196Y0090216D01*
X0196255Y0090237D01*
X0196315Y0090255D01*
X0196377Y0090268D01*
X0196439Y0090278D01*
X0196501Y0090284D01*
X0196564Y0090286D01*
X0196627Y0090284D01*
X0196689Y0090278D01*
X0196751Y0090268D01*
X0196813Y0090255D01*
X0196873Y0090237D01*
X0196932Y0090216D01*
X0196990Y0090191D01*
X0197046Y0090162D01*
X0197100Y0090130D01*
X0197152Y0090095D01*
X0197201Y0090057D01*
X0197249Y0090015D01*
X0197293Y0089971D01*
X0197335Y0089923D01*
X0197373Y0089874D01*
X0197408Y0089822D01*
X0197440Y0089768D01*
X0197469Y0089712D01*
X0197494Y0089654D01*
X0197515Y0089595D01*
X0197533Y0089535D01*
X0197546Y0089473D01*
X0197556Y0089411D01*
X0197562Y0089349D01*
X0197564Y0089286D01*
X0197562Y0089223D01*
X0197556Y0089161D01*
X0197546Y0089099D01*
X0197533Y0089037D01*
X0197515Y0088977D01*
X0197494Y0088918D01*
X0197469Y0088860D01*
X0197440Y0088804D01*
X0197408Y0088750D01*
X0197373Y0088698D01*
X0197335Y0088649D01*
X0197293Y0088601D01*
X0197249Y0088557D01*
X0197201Y0088515D01*
X0197152Y0088477D01*
X0197100Y0088442D01*
X0197046Y0088410D01*
X0196990Y0088381D01*
X0196932Y0088356D01*
X0196873Y0088335D01*
X0196813Y0088317D01*
X0196751Y0088304D01*
X0196689Y0088294D01*
X0196627Y0088288D01*
X0196564Y0088286D01*
X0196501Y0088288D01*
X0196439Y0088294D01*
X0196377Y0088304D01*
X0196315Y0088317D01*
X0196255Y0088335D01*
X0196196Y0088356D01*
X0196138Y0088381D01*
X0196082Y0088410D01*
X0196028Y0088442D01*
X0195976Y0088477D01*
X0195927Y0088515D01*
X0195879Y0088557D01*
X0195835Y0088601D01*
X0195793Y0088649D01*
X0195755Y0088698D01*
X0195720Y0088750D01*
X0195688Y0088804D01*
X0195659Y0088860D01*
X0195634Y0088918D01*
X0195613Y0088977D01*
X0195595Y0089037D01*
X0195582Y0089099D01*
X0195572Y0089161D01*
X0195566Y0089223D01*
X0195564Y0089286D01*
X0189564Y0089286D02*
X0189566Y0089458D01*
X0189572Y0089629D01*
X0189583Y0089801D01*
X0189598Y0089972D01*
X0189617Y0090143D01*
X0189640Y0090313D01*
X0189667Y0090483D01*
X0189699Y0090652D01*
X0189734Y0090820D01*
X0189774Y0090987D01*
X0189818Y0091153D01*
X0189865Y0091318D01*
X0189917Y0091482D01*
X0189973Y0091644D01*
X0190033Y0091805D01*
X0190097Y0091965D01*
X0190165Y0092123D01*
X0190236Y0092279D01*
X0190311Y0092433D01*
X0190391Y0092586D01*
X0190473Y0092736D01*
X0190560Y0092885D01*
X0190650Y0093031D01*
X0190744Y0093175D01*
X0190841Y0093317D01*
X0190942Y0093456D01*
X0191046Y0093593D01*
X0191153Y0093727D01*
X0191264Y0093858D01*
X0191377Y0093987D01*
X0191494Y0094113D01*
X0191614Y0094236D01*
X0191737Y0094356D01*
X0191863Y0094473D01*
X0191992Y0094586D01*
X0192123Y0094697D01*
X0192257Y0094804D01*
X0192394Y0094908D01*
X0192533Y0095009D01*
X0192675Y0095106D01*
X0192819Y0095200D01*
X0192965Y0095290D01*
X0193114Y0095377D01*
X0193264Y0095459D01*
X0193417Y0095539D01*
X0193571Y0095614D01*
X0193727Y0095685D01*
X0193885Y0095753D01*
X0194045Y0095817D01*
X0194206Y0095877D01*
X0194368Y0095933D01*
X0194532Y0095985D01*
X0194697Y0096032D01*
X0194863Y0096076D01*
X0195030Y0096116D01*
X0195198Y0096151D01*
X0195367Y0096183D01*
X0195537Y0096210D01*
X0195707Y0096233D01*
X0195878Y0096252D01*
X0196049Y0096267D01*
X0196221Y0096278D01*
X0196392Y0096284D01*
X0196564Y0096286D01*
X0196736Y0096284D01*
X0196907Y0096278D01*
X0197079Y0096267D01*
X0197250Y0096252D01*
X0197421Y0096233D01*
X0197591Y0096210D01*
X0197761Y0096183D01*
X0197930Y0096151D01*
X0198098Y0096116D01*
X0198265Y0096076D01*
X0198431Y0096032D01*
X0198596Y0095985D01*
X0198760Y0095933D01*
X0198922Y0095877D01*
X0199083Y0095817D01*
X0199243Y0095753D01*
X0199401Y0095685D01*
X0199557Y0095614D01*
X0199711Y0095539D01*
X0199864Y0095459D01*
X0200014Y0095377D01*
X0200163Y0095290D01*
X0200309Y0095200D01*
X0200453Y0095106D01*
X0200595Y0095009D01*
X0200734Y0094908D01*
X0200871Y0094804D01*
X0201005Y0094697D01*
X0201136Y0094586D01*
X0201265Y0094473D01*
X0201391Y0094356D01*
X0201514Y0094236D01*
X0201634Y0094113D01*
X0201751Y0093987D01*
X0201864Y0093858D01*
X0201975Y0093727D01*
X0202082Y0093593D01*
X0202186Y0093456D01*
X0202287Y0093317D01*
X0202384Y0093175D01*
X0202478Y0093031D01*
X0202568Y0092885D01*
X0202655Y0092736D01*
X0202737Y0092586D01*
X0202817Y0092433D01*
X0202892Y0092279D01*
X0202963Y0092123D01*
X0203031Y0091965D01*
X0203095Y0091805D01*
X0203155Y0091644D01*
X0203211Y0091482D01*
X0203263Y0091318D01*
X0203310Y0091153D01*
X0203354Y0090987D01*
X0203394Y0090820D01*
X0203429Y0090652D01*
X0203461Y0090483D01*
X0203488Y0090313D01*
X0203511Y0090143D01*
X0203530Y0089972D01*
X0203545Y0089801D01*
X0203556Y0089629D01*
X0203562Y0089458D01*
X0203564Y0089286D01*
X0203562Y0089114D01*
X0203556Y0088943D01*
X0203545Y0088771D01*
X0203530Y0088600D01*
X0203511Y0088429D01*
X0203488Y0088259D01*
X0203461Y0088089D01*
X0203429Y0087920D01*
X0203394Y0087752D01*
X0203354Y0087585D01*
X0203310Y0087419D01*
X0203263Y0087254D01*
X0203211Y0087090D01*
X0203155Y0086928D01*
X0203095Y0086767D01*
X0203031Y0086607D01*
X0202963Y0086449D01*
X0202892Y0086293D01*
X0202817Y0086139D01*
X0202737Y0085986D01*
X0202655Y0085836D01*
X0202568Y0085687D01*
X0202478Y0085541D01*
X0202384Y0085397D01*
X0202287Y0085255D01*
X0202186Y0085116D01*
X0202082Y0084979D01*
X0201975Y0084845D01*
X0201864Y0084714D01*
X0201751Y0084585D01*
X0201634Y0084459D01*
X0201514Y0084336D01*
X0201391Y0084216D01*
X0201265Y0084099D01*
X0201136Y0083986D01*
X0201005Y0083875D01*
X0200871Y0083768D01*
X0200734Y0083664D01*
X0200595Y0083563D01*
X0200453Y0083466D01*
X0200309Y0083372D01*
X0200163Y0083282D01*
X0200014Y0083195D01*
X0199864Y0083113D01*
X0199711Y0083033D01*
X0199557Y0082958D01*
X0199401Y0082887D01*
X0199243Y0082819D01*
X0199083Y0082755D01*
X0198922Y0082695D01*
X0198760Y0082639D01*
X0198596Y0082587D01*
X0198431Y0082540D01*
X0198265Y0082496D01*
X0198098Y0082456D01*
X0197930Y0082421D01*
X0197761Y0082389D01*
X0197591Y0082362D01*
X0197421Y0082339D01*
X0197250Y0082320D01*
X0197079Y0082305D01*
X0196907Y0082294D01*
X0196736Y0082288D01*
X0196564Y0082286D01*
X0196392Y0082288D01*
X0196221Y0082294D01*
X0196049Y0082305D01*
X0195878Y0082320D01*
X0195707Y0082339D01*
X0195537Y0082362D01*
X0195367Y0082389D01*
X0195198Y0082421D01*
X0195030Y0082456D01*
X0194863Y0082496D01*
X0194697Y0082540D01*
X0194532Y0082587D01*
X0194368Y0082639D01*
X0194206Y0082695D01*
X0194045Y0082755D01*
X0193885Y0082819D01*
X0193727Y0082887D01*
X0193571Y0082958D01*
X0193417Y0083033D01*
X0193264Y0083113D01*
X0193114Y0083195D01*
X0192965Y0083282D01*
X0192819Y0083372D01*
X0192675Y0083466D01*
X0192533Y0083563D01*
X0192394Y0083664D01*
X0192257Y0083768D01*
X0192123Y0083875D01*
X0191992Y0083986D01*
X0191863Y0084099D01*
X0191737Y0084216D01*
X0191614Y0084336D01*
X0191494Y0084459D01*
X0191377Y0084585D01*
X0191264Y0084714D01*
X0191153Y0084845D01*
X0191046Y0084979D01*
X0190942Y0085116D01*
X0190841Y0085255D01*
X0190744Y0085397D01*
X0190650Y0085541D01*
X0190560Y0085687D01*
X0190473Y0085836D01*
X0190391Y0085986D01*
X0190311Y0086139D01*
X0190236Y0086293D01*
X0190165Y0086449D01*
X0190097Y0086607D01*
X0190033Y0086767D01*
X0189973Y0086928D01*
X0189917Y0087090D01*
X0189865Y0087254D01*
X0189818Y0087419D01*
X0189774Y0087585D01*
X0189734Y0087752D01*
X0189699Y0087920D01*
X0189667Y0088089D01*
X0189640Y0088259D01*
X0189617Y0088429D01*
X0189598Y0088600D01*
X0189583Y0088771D01*
X0189572Y0088943D01*
X0189566Y0089114D01*
X0189564Y0089286D01*
X0261064Y0086286D02*
X0261064Y0092286D01*
X0262064Y0092286D01*
X0262064Y0093286D01*
X0262064Y0086286D02*
X0262064Y0085286D01*
X0262064Y0086286D02*
X0261064Y0086286D01*
X0265564Y0077286D02*
X0269564Y0077286D01*
X0279064Y0077286D01*
X0282564Y0077286D01*
X0286064Y0085286D02*
X0286064Y0086286D01*
X0287064Y0086286D01*
X0287064Y0092286D01*
X0286064Y0092286D01*
X0286064Y0093286D01*
X0273064Y0089286D02*
X0273066Y0089349D01*
X0273072Y0089411D01*
X0273082Y0089473D01*
X0273095Y0089535D01*
X0273113Y0089595D01*
X0273134Y0089654D01*
X0273159Y0089712D01*
X0273188Y0089768D01*
X0273220Y0089822D01*
X0273255Y0089874D01*
X0273293Y0089923D01*
X0273335Y0089971D01*
X0273379Y0090015D01*
X0273427Y0090057D01*
X0273476Y0090095D01*
X0273528Y0090130D01*
X0273582Y0090162D01*
X0273638Y0090191D01*
X0273696Y0090216D01*
X0273755Y0090237D01*
X0273815Y0090255D01*
X0273877Y0090268D01*
X0273939Y0090278D01*
X0274001Y0090284D01*
X0274064Y0090286D01*
X0274127Y0090284D01*
X0274189Y0090278D01*
X0274251Y0090268D01*
X0274313Y0090255D01*
X0274373Y0090237D01*
X0274432Y0090216D01*
X0274490Y0090191D01*
X0274546Y0090162D01*
X0274600Y0090130D01*
X0274652Y0090095D01*
X0274701Y0090057D01*
X0274749Y0090015D01*
X0274793Y0089971D01*
X0274835Y0089923D01*
X0274873Y0089874D01*
X0274908Y0089822D01*
X0274940Y0089768D01*
X0274969Y0089712D01*
X0274994Y0089654D01*
X0275015Y0089595D01*
X0275033Y0089535D01*
X0275046Y0089473D01*
X0275056Y0089411D01*
X0275062Y0089349D01*
X0275064Y0089286D01*
X0275062Y0089223D01*
X0275056Y0089161D01*
X0275046Y0089099D01*
X0275033Y0089037D01*
X0275015Y0088977D01*
X0274994Y0088918D01*
X0274969Y0088860D01*
X0274940Y0088804D01*
X0274908Y0088750D01*
X0274873Y0088698D01*
X0274835Y0088649D01*
X0274793Y0088601D01*
X0274749Y0088557D01*
X0274701Y0088515D01*
X0274652Y0088477D01*
X0274600Y0088442D01*
X0274546Y0088410D01*
X0274490Y0088381D01*
X0274432Y0088356D01*
X0274373Y0088335D01*
X0274313Y0088317D01*
X0274251Y0088304D01*
X0274189Y0088294D01*
X0274127Y0088288D01*
X0274064Y0088286D01*
X0274001Y0088288D01*
X0273939Y0088294D01*
X0273877Y0088304D01*
X0273815Y0088317D01*
X0273755Y0088335D01*
X0273696Y0088356D01*
X0273638Y0088381D01*
X0273582Y0088410D01*
X0273528Y0088442D01*
X0273476Y0088477D01*
X0273427Y0088515D01*
X0273379Y0088557D01*
X0273335Y0088601D01*
X0273293Y0088649D01*
X0273255Y0088698D01*
X0273220Y0088750D01*
X0273188Y0088804D01*
X0273159Y0088860D01*
X0273134Y0088918D01*
X0273113Y0088977D01*
X0273095Y0089037D01*
X0273082Y0089099D01*
X0273072Y0089161D01*
X0273066Y0089223D01*
X0273064Y0089286D01*
X0267064Y0089286D02*
X0267066Y0089458D01*
X0267072Y0089629D01*
X0267083Y0089801D01*
X0267098Y0089972D01*
X0267117Y0090143D01*
X0267140Y0090313D01*
X0267167Y0090483D01*
X0267199Y0090652D01*
X0267234Y0090820D01*
X0267274Y0090987D01*
X0267318Y0091153D01*
X0267365Y0091318D01*
X0267417Y0091482D01*
X0267473Y0091644D01*
X0267533Y0091805D01*
X0267597Y0091965D01*
X0267665Y0092123D01*
X0267736Y0092279D01*
X0267811Y0092433D01*
X0267891Y0092586D01*
X0267973Y0092736D01*
X0268060Y0092885D01*
X0268150Y0093031D01*
X0268244Y0093175D01*
X0268341Y0093317D01*
X0268442Y0093456D01*
X0268546Y0093593D01*
X0268653Y0093727D01*
X0268764Y0093858D01*
X0268877Y0093987D01*
X0268994Y0094113D01*
X0269114Y0094236D01*
X0269237Y0094356D01*
X0269363Y0094473D01*
X0269492Y0094586D01*
X0269623Y0094697D01*
X0269757Y0094804D01*
X0269894Y0094908D01*
X0270033Y0095009D01*
X0270175Y0095106D01*
X0270319Y0095200D01*
X0270465Y0095290D01*
X0270614Y0095377D01*
X0270764Y0095459D01*
X0270917Y0095539D01*
X0271071Y0095614D01*
X0271227Y0095685D01*
X0271385Y0095753D01*
X0271545Y0095817D01*
X0271706Y0095877D01*
X0271868Y0095933D01*
X0272032Y0095985D01*
X0272197Y0096032D01*
X0272363Y0096076D01*
X0272530Y0096116D01*
X0272698Y0096151D01*
X0272867Y0096183D01*
X0273037Y0096210D01*
X0273207Y0096233D01*
X0273378Y0096252D01*
X0273549Y0096267D01*
X0273721Y0096278D01*
X0273892Y0096284D01*
X0274064Y0096286D01*
X0274236Y0096284D01*
X0274407Y0096278D01*
X0274579Y0096267D01*
X0274750Y0096252D01*
X0274921Y0096233D01*
X0275091Y0096210D01*
X0275261Y0096183D01*
X0275430Y0096151D01*
X0275598Y0096116D01*
X0275765Y0096076D01*
X0275931Y0096032D01*
X0276096Y0095985D01*
X0276260Y0095933D01*
X0276422Y0095877D01*
X0276583Y0095817D01*
X0276743Y0095753D01*
X0276901Y0095685D01*
X0277057Y0095614D01*
X0277211Y0095539D01*
X0277364Y0095459D01*
X0277514Y0095377D01*
X0277663Y0095290D01*
X0277809Y0095200D01*
X0277953Y0095106D01*
X0278095Y0095009D01*
X0278234Y0094908D01*
X0278371Y0094804D01*
X0278505Y0094697D01*
X0278636Y0094586D01*
X0278765Y0094473D01*
X0278891Y0094356D01*
X0279014Y0094236D01*
X0279134Y0094113D01*
X0279251Y0093987D01*
X0279364Y0093858D01*
X0279475Y0093727D01*
X0279582Y0093593D01*
X0279686Y0093456D01*
X0279787Y0093317D01*
X0279884Y0093175D01*
X0279978Y0093031D01*
X0280068Y0092885D01*
X0280155Y0092736D01*
X0280237Y0092586D01*
X0280317Y0092433D01*
X0280392Y0092279D01*
X0280463Y0092123D01*
X0280531Y0091965D01*
X0280595Y0091805D01*
X0280655Y0091644D01*
X0280711Y0091482D01*
X0280763Y0091318D01*
X0280810Y0091153D01*
X0280854Y0090987D01*
X0280894Y0090820D01*
X0280929Y0090652D01*
X0280961Y0090483D01*
X0280988Y0090313D01*
X0281011Y0090143D01*
X0281030Y0089972D01*
X0281045Y0089801D01*
X0281056Y0089629D01*
X0281062Y0089458D01*
X0281064Y0089286D01*
X0281062Y0089114D01*
X0281056Y0088943D01*
X0281045Y0088771D01*
X0281030Y0088600D01*
X0281011Y0088429D01*
X0280988Y0088259D01*
X0280961Y0088089D01*
X0280929Y0087920D01*
X0280894Y0087752D01*
X0280854Y0087585D01*
X0280810Y0087419D01*
X0280763Y0087254D01*
X0280711Y0087090D01*
X0280655Y0086928D01*
X0280595Y0086767D01*
X0280531Y0086607D01*
X0280463Y0086449D01*
X0280392Y0086293D01*
X0280317Y0086139D01*
X0280237Y0085986D01*
X0280155Y0085836D01*
X0280068Y0085687D01*
X0279978Y0085541D01*
X0279884Y0085397D01*
X0279787Y0085255D01*
X0279686Y0085116D01*
X0279582Y0084979D01*
X0279475Y0084845D01*
X0279364Y0084714D01*
X0279251Y0084585D01*
X0279134Y0084459D01*
X0279014Y0084336D01*
X0278891Y0084216D01*
X0278765Y0084099D01*
X0278636Y0083986D01*
X0278505Y0083875D01*
X0278371Y0083768D01*
X0278234Y0083664D01*
X0278095Y0083563D01*
X0277953Y0083466D01*
X0277809Y0083372D01*
X0277663Y0083282D01*
X0277514Y0083195D01*
X0277364Y0083113D01*
X0277211Y0083033D01*
X0277057Y0082958D01*
X0276901Y0082887D01*
X0276743Y0082819D01*
X0276583Y0082755D01*
X0276422Y0082695D01*
X0276260Y0082639D01*
X0276096Y0082587D01*
X0275931Y0082540D01*
X0275765Y0082496D01*
X0275598Y0082456D01*
X0275430Y0082421D01*
X0275261Y0082389D01*
X0275091Y0082362D01*
X0274921Y0082339D01*
X0274750Y0082320D01*
X0274579Y0082305D01*
X0274407Y0082294D01*
X0274236Y0082288D01*
X0274064Y0082286D01*
X0273892Y0082288D01*
X0273721Y0082294D01*
X0273549Y0082305D01*
X0273378Y0082320D01*
X0273207Y0082339D01*
X0273037Y0082362D01*
X0272867Y0082389D01*
X0272698Y0082421D01*
X0272530Y0082456D01*
X0272363Y0082496D01*
X0272197Y0082540D01*
X0272032Y0082587D01*
X0271868Y0082639D01*
X0271706Y0082695D01*
X0271545Y0082755D01*
X0271385Y0082819D01*
X0271227Y0082887D01*
X0271071Y0082958D01*
X0270917Y0083033D01*
X0270764Y0083113D01*
X0270614Y0083195D01*
X0270465Y0083282D01*
X0270319Y0083372D01*
X0270175Y0083466D01*
X0270033Y0083563D01*
X0269894Y0083664D01*
X0269757Y0083768D01*
X0269623Y0083875D01*
X0269492Y0083986D01*
X0269363Y0084099D01*
X0269237Y0084216D01*
X0269114Y0084336D01*
X0268994Y0084459D01*
X0268877Y0084585D01*
X0268764Y0084714D01*
X0268653Y0084845D01*
X0268546Y0084979D01*
X0268442Y0085116D01*
X0268341Y0085255D01*
X0268244Y0085397D01*
X0268150Y0085541D01*
X0268060Y0085687D01*
X0267973Y0085836D01*
X0267891Y0085986D01*
X0267811Y0086139D01*
X0267736Y0086293D01*
X0267665Y0086449D01*
X0267597Y0086607D01*
X0267533Y0086767D01*
X0267473Y0086928D01*
X0267417Y0087090D01*
X0267365Y0087254D01*
X0267318Y0087419D01*
X0267274Y0087585D01*
X0267234Y0087752D01*
X0267199Y0087920D01*
X0267167Y0088089D01*
X0267140Y0088259D01*
X0267117Y0088429D01*
X0267098Y0088600D01*
X0267083Y0088771D01*
X0267072Y0088943D01*
X0267066Y0089114D01*
X0267064Y0089286D01*
X0265564Y0101286D02*
X0269064Y0101286D01*
X0279064Y0101286D01*
X0282564Y0101286D01*
X0308564Y0092286D02*
X0308564Y0086286D01*
X0309564Y0086286D01*
X0309564Y0085286D01*
X0313064Y0077286D02*
X0317064Y0077286D01*
X0326564Y0077286D01*
X0330064Y0077286D01*
X0333564Y0085286D02*
X0333564Y0086286D01*
X0334564Y0086286D01*
X0334564Y0092286D01*
X0333564Y0092286D01*
X0333564Y0093286D01*
X0330064Y0101286D02*
X0326564Y0101286D01*
X0316564Y0101286D01*
X0313064Y0101286D01*
X0309564Y0093286D02*
X0309564Y0092286D01*
X0308564Y0092286D01*
X0320564Y0089286D02*
X0320566Y0089349D01*
X0320572Y0089411D01*
X0320582Y0089473D01*
X0320595Y0089535D01*
X0320613Y0089595D01*
X0320634Y0089654D01*
X0320659Y0089712D01*
X0320688Y0089768D01*
X0320720Y0089822D01*
X0320755Y0089874D01*
X0320793Y0089923D01*
X0320835Y0089971D01*
X0320879Y0090015D01*
X0320927Y0090057D01*
X0320976Y0090095D01*
X0321028Y0090130D01*
X0321082Y0090162D01*
X0321138Y0090191D01*
X0321196Y0090216D01*
X0321255Y0090237D01*
X0321315Y0090255D01*
X0321377Y0090268D01*
X0321439Y0090278D01*
X0321501Y0090284D01*
X0321564Y0090286D01*
X0321627Y0090284D01*
X0321689Y0090278D01*
X0321751Y0090268D01*
X0321813Y0090255D01*
X0321873Y0090237D01*
X0321932Y0090216D01*
X0321990Y0090191D01*
X0322046Y0090162D01*
X0322100Y0090130D01*
X0322152Y0090095D01*
X0322201Y0090057D01*
X0322249Y0090015D01*
X0322293Y0089971D01*
X0322335Y0089923D01*
X0322373Y0089874D01*
X0322408Y0089822D01*
X0322440Y0089768D01*
X0322469Y0089712D01*
X0322494Y0089654D01*
X0322515Y0089595D01*
X0322533Y0089535D01*
X0322546Y0089473D01*
X0322556Y0089411D01*
X0322562Y0089349D01*
X0322564Y0089286D01*
X0322562Y0089223D01*
X0322556Y0089161D01*
X0322546Y0089099D01*
X0322533Y0089037D01*
X0322515Y0088977D01*
X0322494Y0088918D01*
X0322469Y0088860D01*
X0322440Y0088804D01*
X0322408Y0088750D01*
X0322373Y0088698D01*
X0322335Y0088649D01*
X0322293Y0088601D01*
X0322249Y0088557D01*
X0322201Y0088515D01*
X0322152Y0088477D01*
X0322100Y0088442D01*
X0322046Y0088410D01*
X0321990Y0088381D01*
X0321932Y0088356D01*
X0321873Y0088335D01*
X0321813Y0088317D01*
X0321751Y0088304D01*
X0321689Y0088294D01*
X0321627Y0088288D01*
X0321564Y0088286D01*
X0321501Y0088288D01*
X0321439Y0088294D01*
X0321377Y0088304D01*
X0321315Y0088317D01*
X0321255Y0088335D01*
X0321196Y0088356D01*
X0321138Y0088381D01*
X0321082Y0088410D01*
X0321028Y0088442D01*
X0320976Y0088477D01*
X0320927Y0088515D01*
X0320879Y0088557D01*
X0320835Y0088601D01*
X0320793Y0088649D01*
X0320755Y0088698D01*
X0320720Y0088750D01*
X0320688Y0088804D01*
X0320659Y0088860D01*
X0320634Y0088918D01*
X0320613Y0088977D01*
X0320595Y0089037D01*
X0320582Y0089099D01*
X0320572Y0089161D01*
X0320566Y0089223D01*
X0320564Y0089286D01*
X0314564Y0089286D02*
X0314566Y0089458D01*
X0314572Y0089629D01*
X0314583Y0089801D01*
X0314598Y0089972D01*
X0314617Y0090143D01*
X0314640Y0090313D01*
X0314667Y0090483D01*
X0314699Y0090652D01*
X0314734Y0090820D01*
X0314774Y0090987D01*
X0314818Y0091153D01*
X0314865Y0091318D01*
X0314917Y0091482D01*
X0314973Y0091644D01*
X0315033Y0091805D01*
X0315097Y0091965D01*
X0315165Y0092123D01*
X0315236Y0092279D01*
X0315311Y0092433D01*
X0315391Y0092586D01*
X0315473Y0092736D01*
X0315560Y0092885D01*
X0315650Y0093031D01*
X0315744Y0093175D01*
X0315841Y0093317D01*
X0315942Y0093456D01*
X0316046Y0093593D01*
X0316153Y0093727D01*
X0316264Y0093858D01*
X0316377Y0093987D01*
X0316494Y0094113D01*
X0316614Y0094236D01*
X0316737Y0094356D01*
X0316863Y0094473D01*
X0316992Y0094586D01*
X0317123Y0094697D01*
X0317257Y0094804D01*
X0317394Y0094908D01*
X0317533Y0095009D01*
X0317675Y0095106D01*
X0317819Y0095200D01*
X0317965Y0095290D01*
X0318114Y0095377D01*
X0318264Y0095459D01*
X0318417Y0095539D01*
X0318571Y0095614D01*
X0318727Y0095685D01*
X0318885Y0095753D01*
X0319045Y0095817D01*
X0319206Y0095877D01*
X0319368Y0095933D01*
X0319532Y0095985D01*
X0319697Y0096032D01*
X0319863Y0096076D01*
X0320030Y0096116D01*
X0320198Y0096151D01*
X0320367Y0096183D01*
X0320537Y0096210D01*
X0320707Y0096233D01*
X0320878Y0096252D01*
X0321049Y0096267D01*
X0321221Y0096278D01*
X0321392Y0096284D01*
X0321564Y0096286D01*
X0321736Y0096284D01*
X0321907Y0096278D01*
X0322079Y0096267D01*
X0322250Y0096252D01*
X0322421Y0096233D01*
X0322591Y0096210D01*
X0322761Y0096183D01*
X0322930Y0096151D01*
X0323098Y0096116D01*
X0323265Y0096076D01*
X0323431Y0096032D01*
X0323596Y0095985D01*
X0323760Y0095933D01*
X0323922Y0095877D01*
X0324083Y0095817D01*
X0324243Y0095753D01*
X0324401Y0095685D01*
X0324557Y0095614D01*
X0324711Y0095539D01*
X0324864Y0095459D01*
X0325014Y0095377D01*
X0325163Y0095290D01*
X0325309Y0095200D01*
X0325453Y0095106D01*
X0325595Y0095009D01*
X0325734Y0094908D01*
X0325871Y0094804D01*
X0326005Y0094697D01*
X0326136Y0094586D01*
X0326265Y0094473D01*
X0326391Y0094356D01*
X0326514Y0094236D01*
X0326634Y0094113D01*
X0326751Y0093987D01*
X0326864Y0093858D01*
X0326975Y0093727D01*
X0327082Y0093593D01*
X0327186Y0093456D01*
X0327287Y0093317D01*
X0327384Y0093175D01*
X0327478Y0093031D01*
X0327568Y0092885D01*
X0327655Y0092736D01*
X0327737Y0092586D01*
X0327817Y0092433D01*
X0327892Y0092279D01*
X0327963Y0092123D01*
X0328031Y0091965D01*
X0328095Y0091805D01*
X0328155Y0091644D01*
X0328211Y0091482D01*
X0328263Y0091318D01*
X0328310Y0091153D01*
X0328354Y0090987D01*
X0328394Y0090820D01*
X0328429Y0090652D01*
X0328461Y0090483D01*
X0328488Y0090313D01*
X0328511Y0090143D01*
X0328530Y0089972D01*
X0328545Y0089801D01*
X0328556Y0089629D01*
X0328562Y0089458D01*
X0328564Y0089286D01*
X0328562Y0089114D01*
X0328556Y0088943D01*
X0328545Y0088771D01*
X0328530Y0088600D01*
X0328511Y0088429D01*
X0328488Y0088259D01*
X0328461Y0088089D01*
X0328429Y0087920D01*
X0328394Y0087752D01*
X0328354Y0087585D01*
X0328310Y0087419D01*
X0328263Y0087254D01*
X0328211Y0087090D01*
X0328155Y0086928D01*
X0328095Y0086767D01*
X0328031Y0086607D01*
X0327963Y0086449D01*
X0327892Y0086293D01*
X0327817Y0086139D01*
X0327737Y0085986D01*
X0327655Y0085836D01*
X0327568Y0085687D01*
X0327478Y0085541D01*
X0327384Y0085397D01*
X0327287Y0085255D01*
X0327186Y0085116D01*
X0327082Y0084979D01*
X0326975Y0084845D01*
X0326864Y0084714D01*
X0326751Y0084585D01*
X0326634Y0084459D01*
X0326514Y0084336D01*
X0326391Y0084216D01*
X0326265Y0084099D01*
X0326136Y0083986D01*
X0326005Y0083875D01*
X0325871Y0083768D01*
X0325734Y0083664D01*
X0325595Y0083563D01*
X0325453Y0083466D01*
X0325309Y0083372D01*
X0325163Y0083282D01*
X0325014Y0083195D01*
X0324864Y0083113D01*
X0324711Y0083033D01*
X0324557Y0082958D01*
X0324401Y0082887D01*
X0324243Y0082819D01*
X0324083Y0082755D01*
X0323922Y0082695D01*
X0323760Y0082639D01*
X0323596Y0082587D01*
X0323431Y0082540D01*
X0323265Y0082496D01*
X0323098Y0082456D01*
X0322930Y0082421D01*
X0322761Y0082389D01*
X0322591Y0082362D01*
X0322421Y0082339D01*
X0322250Y0082320D01*
X0322079Y0082305D01*
X0321907Y0082294D01*
X0321736Y0082288D01*
X0321564Y0082286D01*
X0321392Y0082288D01*
X0321221Y0082294D01*
X0321049Y0082305D01*
X0320878Y0082320D01*
X0320707Y0082339D01*
X0320537Y0082362D01*
X0320367Y0082389D01*
X0320198Y0082421D01*
X0320030Y0082456D01*
X0319863Y0082496D01*
X0319697Y0082540D01*
X0319532Y0082587D01*
X0319368Y0082639D01*
X0319206Y0082695D01*
X0319045Y0082755D01*
X0318885Y0082819D01*
X0318727Y0082887D01*
X0318571Y0082958D01*
X0318417Y0083033D01*
X0318264Y0083113D01*
X0318114Y0083195D01*
X0317965Y0083282D01*
X0317819Y0083372D01*
X0317675Y0083466D01*
X0317533Y0083563D01*
X0317394Y0083664D01*
X0317257Y0083768D01*
X0317123Y0083875D01*
X0316992Y0083986D01*
X0316863Y0084099D01*
X0316737Y0084216D01*
X0316614Y0084336D01*
X0316494Y0084459D01*
X0316377Y0084585D01*
X0316264Y0084714D01*
X0316153Y0084845D01*
X0316046Y0084979D01*
X0315942Y0085116D01*
X0315841Y0085255D01*
X0315744Y0085397D01*
X0315650Y0085541D01*
X0315560Y0085687D01*
X0315473Y0085836D01*
X0315391Y0085986D01*
X0315311Y0086139D01*
X0315236Y0086293D01*
X0315165Y0086449D01*
X0315097Y0086607D01*
X0315033Y0086767D01*
X0314973Y0086928D01*
X0314917Y0087090D01*
X0314865Y0087254D01*
X0314818Y0087419D01*
X0314774Y0087585D01*
X0314734Y0087752D01*
X0314699Y0087920D01*
X0314667Y0088089D01*
X0314640Y0088259D01*
X0314617Y0088429D01*
X0314598Y0088600D01*
X0314583Y0088771D01*
X0314572Y0088943D01*
X0314566Y0089114D01*
X0314564Y0089286D01*
X0412564Y0107786D02*
X0412564Y0032786D01*
X0473564Y0032786D01*
X0473564Y0107786D01*
X0412564Y0107786D01*
X0428564Y0136286D02*
X0428564Y0137286D01*
X0427564Y0137286D01*
X0428564Y0136286D02*
X0434564Y0136286D01*
X0434564Y0137286D01*
X0435564Y0137286D01*
X0443564Y0140786D02*
X0443564Y0144286D01*
X0443564Y0154286D01*
X0443564Y0157786D01*
X0435564Y0161286D02*
X0434564Y0161286D01*
X0434564Y0162286D01*
X0428564Y0162286D01*
X0428564Y0161286D01*
X0427564Y0161286D01*
X0419564Y0157786D02*
X0419564Y0153786D01*
X0419564Y0144286D01*
X0419564Y0140786D01*
X0430564Y0149286D02*
X0430566Y0149349D01*
X0430572Y0149411D01*
X0430582Y0149473D01*
X0430595Y0149535D01*
X0430613Y0149595D01*
X0430634Y0149654D01*
X0430659Y0149712D01*
X0430688Y0149768D01*
X0430720Y0149822D01*
X0430755Y0149874D01*
X0430793Y0149923D01*
X0430835Y0149971D01*
X0430879Y0150015D01*
X0430927Y0150057D01*
X0430976Y0150095D01*
X0431028Y0150130D01*
X0431082Y0150162D01*
X0431138Y0150191D01*
X0431196Y0150216D01*
X0431255Y0150237D01*
X0431315Y0150255D01*
X0431377Y0150268D01*
X0431439Y0150278D01*
X0431501Y0150284D01*
X0431564Y0150286D01*
X0431627Y0150284D01*
X0431689Y0150278D01*
X0431751Y0150268D01*
X0431813Y0150255D01*
X0431873Y0150237D01*
X0431932Y0150216D01*
X0431990Y0150191D01*
X0432046Y0150162D01*
X0432100Y0150130D01*
X0432152Y0150095D01*
X0432201Y0150057D01*
X0432249Y0150015D01*
X0432293Y0149971D01*
X0432335Y0149923D01*
X0432373Y0149874D01*
X0432408Y0149822D01*
X0432440Y0149768D01*
X0432469Y0149712D01*
X0432494Y0149654D01*
X0432515Y0149595D01*
X0432533Y0149535D01*
X0432546Y0149473D01*
X0432556Y0149411D01*
X0432562Y0149349D01*
X0432564Y0149286D01*
X0432562Y0149223D01*
X0432556Y0149161D01*
X0432546Y0149099D01*
X0432533Y0149037D01*
X0432515Y0148977D01*
X0432494Y0148918D01*
X0432469Y0148860D01*
X0432440Y0148804D01*
X0432408Y0148750D01*
X0432373Y0148698D01*
X0432335Y0148649D01*
X0432293Y0148601D01*
X0432249Y0148557D01*
X0432201Y0148515D01*
X0432152Y0148477D01*
X0432100Y0148442D01*
X0432046Y0148410D01*
X0431990Y0148381D01*
X0431932Y0148356D01*
X0431873Y0148335D01*
X0431813Y0148317D01*
X0431751Y0148304D01*
X0431689Y0148294D01*
X0431627Y0148288D01*
X0431564Y0148286D01*
X0431501Y0148288D01*
X0431439Y0148294D01*
X0431377Y0148304D01*
X0431315Y0148317D01*
X0431255Y0148335D01*
X0431196Y0148356D01*
X0431138Y0148381D01*
X0431082Y0148410D01*
X0431028Y0148442D01*
X0430976Y0148477D01*
X0430927Y0148515D01*
X0430879Y0148557D01*
X0430835Y0148601D01*
X0430793Y0148649D01*
X0430755Y0148698D01*
X0430720Y0148750D01*
X0430688Y0148804D01*
X0430659Y0148860D01*
X0430634Y0148918D01*
X0430613Y0148977D01*
X0430595Y0149037D01*
X0430582Y0149099D01*
X0430572Y0149161D01*
X0430566Y0149223D01*
X0430564Y0149286D01*
X0424564Y0149286D02*
X0424566Y0149458D01*
X0424572Y0149629D01*
X0424583Y0149801D01*
X0424598Y0149972D01*
X0424617Y0150143D01*
X0424640Y0150313D01*
X0424667Y0150483D01*
X0424699Y0150652D01*
X0424734Y0150820D01*
X0424774Y0150987D01*
X0424818Y0151153D01*
X0424865Y0151318D01*
X0424917Y0151482D01*
X0424973Y0151644D01*
X0425033Y0151805D01*
X0425097Y0151965D01*
X0425165Y0152123D01*
X0425236Y0152279D01*
X0425311Y0152433D01*
X0425391Y0152586D01*
X0425473Y0152736D01*
X0425560Y0152885D01*
X0425650Y0153031D01*
X0425744Y0153175D01*
X0425841Y0153317D01*
X0425942Y0153456D01*
X0426046Y0153593D01*
X0426153Y0153727D01*
X0426264Y0153858D01*
X0426377Y0153987D01*
X0426494Y0154113D01*
X0426614Y0154236D01*
X0426737Y0154356D01*
X0426863Y0154473D01*
X0426992Y0154586D01*
X0427123Y0154697D01*
X0427257Y0154804D01*
X0427394Y0154908D01*
X0427533Y0155009D01*
X0427675Y0155106D01*
X0427819Y0155200D01*
X0427965Y0155290D01*
X0428114Y0155377D01*
X0428264Y0155459D01*
X0428417Y0155539D01*
X0428571Y0155614D01*
X0428727Y0155685D01*
X0428885Y0155753D01*
X0429045Y0155817D01*
X0429206Y0155877D01*
X0429368Y0155933D01*
X0429532Y0155985D01*
X0429697Y0156032D01*
X0429863Y0156076D01*
X0430030Y0156116D01*
X0430198Y0156151D01*
X0430367Y0156183D01*
X0430537Y0156210D01*
X0430707Y0156233D01*
X0430878Y0156252D01*
X0431049Y0156267D01*
X0431221Y0156278D01*
X0431392Y0156284D01*
X0431564Y0156286D01*
X0431736Y0156284D01*
X0431907Y0156278D01*
X0432079Y0156267D01*
X0432250Y0156252D01*
X0432421Y0156233D01*
X0432591Y0156210D01*
X0432761Y0156183D01*
X0432930Y0156151D01*
X0433098Y0156116D01*
X0433265Y0156076D01*
X0433431Y0156032D01*
X0433596Y0155985D01*
X0433760Y0155933D01*
X0433922Y0155877D01*
X0434083Y0155817D01*
X0434243Y0155753D01*
X0434401Y0155685D01*
X0434557Y0155614D01*
X0434711Y0155539D01*
X0434864Y0155459D01*
X0435014Y0155377D01*
X0435163Y0155290D01*
X0435309Y0155200D01*
X0435453Y0155106D01*
X0435595Y0155009D01*
X0435734Y0154908D01*
X0435871Y0154804D01*
X0436005Y0154697D01*
X0436136Y0154586D01*
X0436265Y0154473D01*
X0436391Y0154356D01*
X0436514Y0154236D01*
X0436634Y0154113D01*
X0436751Y0153987D01*
X0436864Y0153858D01*
X0436975Y0153727D01*
X0437082Y0153593D01*
X0437186Y0153456D01*
X0437287Y0153317D01*
X0437384Y0153175D01*
X0437478Y0153031D01*
X0437568Y0152885D01*
X0437655Y0152736D01*
X0437737Y0152586D01*
X0437817Y0152433D01*
X0437892Y0152279D01*
X0437963Y0152123D01*
X0438031Y0151965D01*
X0438095Y0151805D01*
X0438155Y0151644D01*
X0438211Y0151482D01*
X0438263Y0151318D01*
X0438310Y0151153D01*
X0438354Y0150987D01*
X0438394Y0150820D01*
X0438429Y0150652D01*
X0438461Y0150483D01*
X0438488Y0150313D01*
X0438511Y0150143D01*
X0438530Y0149972D01*
X0438545Y0149801D01*
X0438556Y0149629D01*
X0438562Y0149458D01*
X0438564Y0149286D01*
X0438562Y0149114D01*
X0438556Y0148943D01*
X0438545Y0148771D01*
X0438530Y0148600D01*
X0438511Y0148429D01*
X0438488Y0148259D01*
X0438461Y0148089D01*
X0438429Y0147920D01*
X0438394Y0147752D01*
X0438354Y0147585D01*
X0438310Y0147419D01*
X0438263Y0147254D01*
X0438211Y0147090D01*
X0438155Y0146928D01*
X0438095Y0146767D01*
X0438031Y0146607D01*
X0437963Y0146449D01*
X0437892Y0146293D01*
X0437817Y0146139D01*
X0437737Y0145986D01*
X0437655Y0145836D01*
X0437568Y0145687D01*
X0437478Y0145541D01*
X0437384Y0145397D01*
X0437287Y0145255D01*
X0437186Y0145116D01*
X0437082Y0144979D01*
X0436975Y0144845D01*
X0436864Y0144714D01*
X0436751Y0144585D01*
X0436634Y0144459D01*
X0436514Y0144336D01*
X0436391Y0144216D01*
X0436265Y0144099D01*
X0436136Y0143986D01*
X0436005Y0143875D01*
X0435871Y0143768D01*
X0435734Y0143664D01*
X0435595Y0143563D01*
X0435453Y0143466D01*
X0435309Y0143372D01*
X0435163Y0143282D01*
X0435014Y0143195D01*
X0434864Y0143113D01*
X0434711Y0143033D01*
X0434557Y0142958D01*
X0434401Y0142887D01*
X0434243Y0142819D01*
X0434083Y0142755D01*
X0433922Y0142695D01*
X0433760Y0142639D01*
X0433596Y0142587D01*
X0433431Y0142540D01*
X0433265Y0142496D01*
X0433098Y0142456D01*
X0432930Y0142421D01*
X0432761Y0142389D01*
X0432591Y0142362D01*
X0432421Y0142339D01*
X0432250Y0142320D01*
X0432079Y0142305D01*
X0431907Y0142294D01*
X0431736Y0142288D01*
X0431564Y0142286D01*
X0431392Y0142288D01*
X0431221Y0142294D01*
X0431049Y0142305D01*
X0430878Y0142320D01*
X0430707Y0142339D01*
X0430537Y0142362D01*
X0430367Y0142389D01*
X0430198Y0142421D01*
X0430030Y0142456D01*
X0429863Y0142496D01*
X0429697Y0142540D01*
X0429532Y0142587D01*
X0429368Y0142639D01*
X0429206Y0142695D01*
X0429045Y0142755D01*
X0428885Y0142819D01*
X0428727Y0142887D01*
X0428571Y0142958D01*
X0428417Y0143033D01*
X0428264Y0143113D01*
X0428114Y0143195D01*
X0427965Y0143282D01*
X0427819Y0143372D01*
X0427675Y0143466D01*
X0427533Y0143563D01*
X0427394Y0143664D01*
X0427257Y0143768D01*
X0427123Y0143875D01*
X0426992Y0143986D01*
X0426863Y0144099D01*
X0426737Y0144216D01*
X0426614Y0144336D01*
X0426494Y0144459D01*
X0426377Y0144585D01*
X0426264Y0144714D01*
X0426153Y0144845D01*
X0426046Y0144979D01*
X0425942Y0145116D01*
X0425841Y0145255D01*
X0425744Y0145397D01*
X0425650Y0145541D01*
X0425560Y0145687D01*
X0425473Y0145836D01*
X0425391Y0145986D01*
X0425311Y0146139D01*
X0425236Y0146293D01*
X0425165Y0146449D01*
X0425097Y0146607D01*
X0425033Y0146767D01*
X0424973Y0146928D01*
X0424917Y0147090D01*
X0424865Y0147254D01*
X0424818Y0147419D01*
X0424774Y0147585D01*
X0424734Y0147752D01*
X0424699Y0147920D01*
X0424667Y0148089D01*
X0424640Y0148259D01*
X0424617Y0148429D01*
X0424598Y0148600D01*
X0424583Y0148771D01*
X0424572Y0148943D01*
X0424566Y0149114D01*
X0424564Y0149286D01*
X0428564Y0201286D02*
X0428564Y0202286D01*
X0427564Y0202286D01*
X0428564Y0201286D02*
X0434564Y0201286D01*
X0434564Y0202286D01*
X0435564Y0202286D01*
X0443564Y0205786D02*
X0443564Y0209286D01*
X0443564Y0219286D01*
X0443564Y0222786D01*
X0435564Y0226286D02*
X0434564Y0226286D01*
X0434564Y0227286D01*
X0428564Y0227286D01*
X0428564Y0226286D01*
X0427564Y0226286D01*
X0419564Y0222786D02*
X0419564Y0218786D01*
X0419564Y0209286D01*
X0419564Y0205786D01*
X0430564Y0214286D02*
X0430566Y0214349D01*
X0430572Y0214411D01*
X0430582Y0214473D01*
X0430595Y0214535D01*
X0430613Y0214595D01*
X0430634Y0214654D01*
X0430659Y0214712D01*
X0430688Y0214768D01*
X0430720Y0214822D01*
X0430755Y0214874D01*
X0430793Y0214923D01*
X0430835Y0214971D01*
X0430879Y0215015D01*
X0430927Y0215057D01*
X0430976Y0215095D01*
X0431028Y0215130D01*
X0431082Y0215162D01*
X0431138Y0215191D01*
X0431196Y0215216D01*
X0431255Y0215237D01*
X0431315Y0215255D01*
X0431377Y0215268D01*
X0431439Y0215278D01*
X0431501Y0215284D01*
X0431564Y0215286D01*
X0431627Y0215284D01*
X0431689Y0215278D01*
X0431751Y0215268D01*
X0431813Y0215255D01*
X0431873Y0215237D01*
X0431932Y0215216D01*
X0431990Y0215191D01*
X0432046Y0215162D01*
X0432100Y0215130D01*
X0432152Y0215095D01*
X0432201Y0215057D01*
X0432249Y0215015D01*
X0432293Y0214971D01*
X0432335Y0214923D01*
X0432373Y0214874D01*
X0432408Y0214822D01*
X0432440Y0214768D01*
X0432469Y0214712D01*
X0432494Y0214654D01*
X0432515Y0214595D01*
X0432533Y0214535D01*
X0432546Y0214473D01*
X0432556Y0214411D01*
X0432562Y0214349D01*
X0432564Y0214286D01*
X0432562Y0214223D01*
X0432556Y0214161D01*
X0432546Y0214099D01*
X0432533Y0214037D01*
X0432515Y0213977D01*
X0432494Y0213918D01*
X0432469Y0213860D01*
X0432440Y0213804D01*
X0432408Y0213750D01*
X0432373Y0213698D01*
X0432335Y0213649D01*
X0432293Y0213601D01*
X0432249Y0213557D01*
X0432201Y0213515D01*
X0432152Y0213477D01*
X0432100Y0213442D01*
X0432046Y0213410D01*
X0431990Y0213381D01*
X0431932Y0213356D01*
X0431873Y0213335D01*
X0431813Y0213317D01*
X0431751Y0213304D01*
X0431689Y0213294D01*
X0431627Y0213288D01*
X0431564Y0213286D01*
X0431501Y0213288D01*
X0431439Y0213294D01*
X0431377Y0213304D01*
X0431315Y0213317D01*
X0431255Y0213335D01*
X0431196Y0213356D01*
X0431138Y0213381D01*
X0431082Y0213410D01*
X0431028Y0213442D01*
X0430976Y0213477D01*
X0430927Y0213515D01*
X0430879Y0213557D01*
X0430835Y0213601D01*
X0430793Y0213649D01*
X0430755Y0213698D01*
X0430720Y0213750D01*
X0430688Y0213804D01*
X0430659Y0213860D01*
X0430634Y0213918D01*
X0430613Y0213977D01*
X0430595Y0214037D01*
X0430582Y0214099D01*
X0430572Y0214161D01*
X0430566Y0214223D01*
X0430564Y0214286D01*
X0424564Y0214286D02*
X0424566Y0214458D01*
X0424572Y0214629D01*
X0424583Y0214801D01*
X0424598Y0214972D01*
X0424617Y0215143D01*
X0424640Y0215313D01*
X0424667Y0215483D01*
X0424699Y0215652D01*
X0424734Y0215820D01*
X0424774Y0215987D01*
X0424818Y0216153D01*
X0424865Y0216318D01*
X0424917Y0216482D01*
X0424973Y0216644D01*
X0425033Y0216805D01*
X0425097Y0216965D01*
X0425165Y0217123D01*
X0425236Y0217279D01*
X0425311Y0217433D01*
X0425391Y0217586D01*
X0425473Y0217736D01*
X0425560Y0217885D01*
X0425650Y0218031D01*
X0425744Y0218175D01*
X0425841Y0218317D01*
X0425942Y0218456D01*
X0426046Y0218593D01*
X0426153Y0218727D01*
X0426264Y0218858D01*
X0426377Y0218987D01*
X0426494Y0219113D01*
X0426614Y0219236D01*
X0426737Y0219356D01*
X0426863Y0219473D01*
X0426992Y0219586D01*
X0427123Y0219697D01*
X0427257Y0219804D01*
X0427394Y0219908D01*
X0427533Y0220009D01*
X0427675Y0220106D01*
X0427819Y0220200D01*
X0427965Y0220290D01*
X0428114Y0220377D01*
X0428264Y0220459D01*
X0428417Y0220539D01*
X0428571Y0220614D01*
X0428727Y0220685D01*
X0428885Y0220753D01*
X0429045Y0220817D01*
X0429206Y0220877D01*
X0429368Y0220933D01*
X0429532Y0220985D01*
X0429697Y0221032D01*
X0429863Y0221076D01*
X0430030Y0221116D01*
X0430198Y0221151D01*
X0430367Y0221183D01*
X0430537Y0221210D01*
X0430707Y0221233D01*
X0430878Y0221252D01*
X0431049Y0221267D01*
X0431221Y0221278D01*
X0431392Y0221284D01*
X0431564Y0221286D01*
X0431736Y0221284D01*
X0431907Y0221278D01*
X0432079Y0221267D01*
X0432250Y0221252D01*
X0432421Y0221233D01*
X0432591Y0221210D01*
X0432761Y0221183D01*
X0432930Y0221151D01*
X0433098Y0221116D01*
X0433265Y0221076D01*
X0433431Y0221032D01*
X0433596Y0220985D01*
X0433760Y0220933D01*
X0433922Y0220877D01*
X0434083Y0220817D01*
X0434243Y0220753D01*
X0434401Y0220685D01*
X0434557Y0220614D01*
X0434711Y0220539D01*
X0434864Y0220459D01*
X0435014Y0220377D01*
X0435163Y0220290D01*
X0435309Y0220200D01*
X0435453Y0220106D01*
X0435595Y0220009D01*
X0435734Y0219908D01*
X0435871Y0219804D01*
X0436005Y0219697D01*
X0436136Y0219586D01*
X0436265Y0219473D01*
X0436391Y0219356D01*
X0436514Y0219236D01*
X0436634Y0219113D01*
X0436751Y0218987D01*
X0436864Y0218858D01*
X0436975Y0218727D01*
X0437082Y0218593D01*
X0437186Y0218456D01*
X0437287Y0218317D01*
X0437384Y0218175D01*
X0437478Y0218031D01*
X0437568Y0217885D01*
X0437655Y0217736D01*
X0437737Y0217586D01*
X0437817Y0217433D01*
X0437892Y0217279D01*
X0437963Y0217123D01*
X0438031Y0216965D01*
X0438095Y0216805D01*
X0438155Y0216644D01*
X0438211Y0216482D01*
X0438263Y0216318D01*
X0438310Y0216153D01*
X0438354Y0215987D01*
X0438394Y0215820D01*
X0438429Y0215652D01*
X0438461Y0215483D01*
X0438488Y0215313D01*
X0438511Y0215143D01*
X0438530Y0214972D01*
X0438545Y0214801D01*
X0438556Y0214629D01*
X0438562Y0214458D01*
X0438564Y0214286D01*
X0438562Y0214114D01*
X0438556Y0213943D01*
X0438545Y0213771D01*
X0438530Y0213600D01*
X0438511Y0213429D01*
X0438488Y0213259D01*
X0438461Y0213089D01*
X0438429Y0212920D01*
X0438394Y0212752D01*
X0438354Y0212585D01*
X0438310Y0212419D01*
X0438263Y0212254D01*
X0438211Y0212090D01*
X0438155Y0211928D01*
X0438095Y0211767D01*
X0438031Y0211607D01*
X0437963Y0211449D01*
X0437892Y0211293D01*
X0437817Y0211139D01*
X0437737Y0210986D01*
X0437655Y0210836D01*
X0437568Y0210687D01*
X0437478Y0210541D01*
X0437384Y0210397D01*
X0437287Y0210255D01*
X0437186Y0210116D01*
X0437082Y0209979D01*
X0436975Y0209845D01*
X0436864Y0209714D01*
X0436751Y0209585D01*
X0436634Y0209459D01*
X0436514Y0209336D01*
X0436391Y0209216D01*
X0436265Y0209099D01*
X0436136Y0208986D01*
X0436005Y0208875D01*
X0435871Y0208768D01*
X0435734Y0208664D01*
X0435595Y0208563D01*
X0435453Y0208466D01*
X0435309Y0208372D01*
X0435163Y0208282D01*
X0435014Y0208195D01*
X0434864Y0208113D01*
X0434711Y0208033D01*
X0434557Y0207958D01*
X0434401Y0207887D01*
X0434243Y0207819D01*
X0434083Y0207755D01*
X0433922Y0207695D01*
X0433760Y0207639D01*
X0433596Y0207587D01*
X0433431Y0207540D01*
X0433265Y0207496D01*
X0433098Y0207456D01*
X0432930Y0207421D01*
X0432761Y0207389D01*
X0432591Y0207362D01*
X0432421Y0207339D01*
X0432250Y0207320D01*
X0432079Y0207305D01*
X0431907Y0207294D01*
X0431736Y0207288D01*
X0431564Y0207286D01*
X0431392Y0207288D01*
X0431221Y0207294D01*
X0431049Y0207305D01*
X0430878Y0207320D01*
X0430707Y0207339D01*
X0430537Y0207362D01*
X0430367Y0207389D01*
X0430198Y0207421D01*
X0430030Y0207456D01*
X0429863Y0207496D01*
X0429697Y0207540D01*
X0429532Y0207587D01*
X0429368Y0207639D01*
X0429206Y0207695D01*
X0429045Y0207755D01*
X0428885Y0207819D01*
X0428727Y0207887D01*
X0428571Y0207958D01*
X0428417Y0208033D01*
X0428264Y0208113D01*
X0428114Y0208195D01*
X0427965Y0208282D01*
X0427819Y0208372D01*
X0427675Y0208466D01*
X0427533Y0208563D01*
X0427394Y0208664D01*
X0427257Y0208768D01*
X0427123Y0208875D01*
X0426992Y0208986D01*
X0426863Y0209099D01*
X0426737Y0209216D01*
X0426614Y0209336D01*
X0426494Y0209459D01*
X0426377Y0209585D01*
X0426264Y0209714D01*
X0426153Y0209845D01*
X0426046Y0209979D01*
X0425942Y0210116D01*
X0425841Y0210255D01*
X0425744Y0210397D01*
X0425650Y0210541D01*
X0425560Y0210687D01*
X0425473Y0210836D01*
X0425391Y0210986D01*
X0425311Y0211139D01*
X0425236Y0211293D01*
X0425165Y0211449D01*
X0425097Y0211607D01*
X0425033Y0211767D01*
X0424973Y0211928D01*
X0424917Y0212090D01*
X0424865Y0212254D01*
X0424818Y0212419D01*
X0424774Y0212585D01*
X0424734Y0212752D01*
X0424699Y0212920D01*
X0424667Y0213089D01*
X0424640Y0213259D01*
X0424617Y0213429D01*
X0424598Y0213600D01*
X0424583Y0213771D01*
X0424572Y0213943D01*
X0424566Y0214114D01*
X0424564Y0214286D01*
X0099864Y0212786D02*
X0099864Y0215786D01*
X0088464Y0215786D01*
X0088464Y0212786D01*
X0099864Y0212786D01*
X0086064Y0209286D02*
X0086064Y0205786D01*
X0086064Y0209286D02*
X0086064Y0219286D01*
X0086064Y0222786D01*
X0078064Y0226286D02*
X0077064Y0226286D01*
X0077064Y0227286D01*
X0071064Y0227286D01*
X0071064Y0226286D01*
X0070064Y0226286D01*
X0062064Y0222786D02*
X0062064Y0218786D01*
X0062064Y0209286D01*
X0062064Y0205786D01*
X0070064Y0202286D02*
X0071064Y0202286D01*
X0071064Y0201286D01*
X0077064Y0201286D01*
X0077064Y0202286D01*
X0078064Y0202286D01*
X0088464Y0200786D02*
X0088464Y0197786D01*
X0099864Y0197786D01*
X0099864Y0200786D01*
X0088464Y0200786D01*
X0073064Y0214286D02*
X0073066Y0214349D01*
X0073072Y0214411D01*
X0073082Y0214473D01*
X0073095Y0214535D01*
X0073113Y0214595D01*
X0073134Y0214654D01*
X0073159Y0214712D01*
X0073188Y0214768D01*
X0073220Y0214822D01*
X0073255Y0214874D01*
X0073293Y0214923D01*
X0073335Y0214971D01*
X0073379Y0215015D01*
X0073427Y0215057D01*
X0073476Y0215095D01*
X0073528Y0215130D01*
X0073582Y0215162D01*
X0073638Y0215191D01*
X0073696Y0215216D01*
X0073755Y0215237D01*
X0073815Y0215255D01*
X0073877Y0215268D01*
X0073939Y0215278D01*
X0074001Y0215284D01*
X0074064Y0215286D01*
X0074127Y0215284D01*
X0074189Y0215278D01*
X0074251Y0215268D01*
X0074313Y0215255D01*
X0074373Y0215237D01*
X0074432Y0215216D01*
X0074490Y0215191D01*
X0074546Y0215162D01*
X0074600Y0215130D01*
X0074652Y0215095D01*
X0074701Y0215057D01*
X0074749Y0215015D01*
X0074793Y0214971D01*
X0074835Y0214923D01*
X0074873Y0214874D01*
X0074908Y0214822D01*
X0074940Y0214768D01*
X0074969Y0214712D01*
X0074994Y0214654D01*
X0075015Y0214595D01*
X0075033Y0214535D01*
X0075046Y0214473D01*
X0075056Y0214411D01*
X0075062Y0214349D01*
X0075064Y0214286D01*
X0075062Y0214223D01*
X0075056Y0214161D01*
X0075046Y0214099D01*
X0075033Y0214037D01*
X0075015Y0213977D01*
X0074994Y0213918D01*
X0074969Y0213860D01*
X0074940Y0213804D01*
X0074908Y0213750D01*
X0074873Y0213698D01*
X0074835Y0213649D01*
X0074793Y0213601D01*
X0074749Y0213557D01*
X0074701Y0213515D01*
X0074652Y0213477D01*
X0074600Y0213442D01*
X0074546Y0213410D01*
X0074490Y0213381D01*
X0074432Y0213356D01*
X0074373Y0213335D01*
X0074313Y0213317D01*
X0074251Y0213304D01*
X0074189Y0213294D01*
X0074127Y0213288D01*
X0074064Y0213286D01*
X0074001Y0213288D01*
X0073939Y0213294D01*
X0073877Y0213304D01*
X0073815Y0213317D01*
X0073755Y0213335D01*
X0073696Y0213356D01*
X0073638Y0213381D01*
X0073582Y0213410D01*
X0073528Y0213442D01*
X0073476Y0213477D01*
X0073427Y0213515D01*
X0073379Y0213557D01*
X0073335Y0213601D01*
X0073293Y0213649D01*
X0073255Y0213698D01*
X0073220Y0213750D01*
X0073188Y0213804D01*
X0073159Y0213860D01*
X0073134Y0213918D01*
X0073113Y0213977D01*
X0073095Y0214037D01*
X0073082Y0214099D01*
X0073072Y0214161D01*
X0073066Y0214223D01*
X0073064Y0214286D01*
X0067064Y0214286D02*
X0067066Y0214458D01*
X0067072Y0214629D01*
X0067083Y0214801D01*
X0067098Y0214972D01*
X0067117Y0215143D01*
X0067140Y0215313D01*
X0067167Y0215483D01*
X0067199Y0215652D01*
X0067234Y0215820D01*
X0067274Y0215987D01*
X0067318Y0216153D01*
X0067365Y0216318D01*
X0067417Y0216482D01*
X0067473Y0216644D01*
X0067533Y0216805D01*
X0067597Y0216965D01*
X0067665Y0217123D01*
X0067736Y0217279D01*
X0067811Y0217433D01*
X0067891Y0217586D01*
X0067973Y0217736D01*
X0068060Y0217885D01*
X0068150Y0218031D01*
X0068244Y0218175D01*
X0068341Y0218317D01*
X0068442Y0218456D01*
X0068546Y0218593D01*
X0068653Y0218727D01*
X0068764Y0218858D01*
X0068877Y0218987D01*
X0068994Y0219113D01*
X0069114Y0219236D01*
X0069237Y0219356D01*
X0069363Y0219473D01*
X0069492Y0219586D01*
X0069623Y0219697D01*
X0069757Y0219804D01*
X0069894Y0219908D01*
X0070033Y0220009D01*
X0070175Y0220106D01*
X0070319Y0220200D01*
X0070465Y0220290D01*
X0070614Y0220377D01*
X0070764Y0220459D01*
X0070917Y0220539D01*
X0071071Y0220614D01*
X0071227Y0220685D01*
X0071385Y0220753D01*
X0071545Y0220817D01*
X0071706Y0220877D01*
X0071868Y0220933D01*
X0072032Y0220985D01*
X0072197Y0221032D01*
X0072363Y0221076D01*
X0072530Y0221116D01*
X0072698Y0221151D01*
X0072867Y0221183D01*
X0073037Y0221210D01*
X0073207Y0221233D01*
X0073378Y0221252D01*
X0073549Y0221267D01*
X0073721Y0221278D01*
X0073892Y0221284D01*
X0074064Y0221286D01*
X0074236Y0221284D01*
X0074407Y0221278D01*
X0074579Y0221267D01*
X0074750Y0221252D01*
X0074921Y0221233D01*
X0075091Y0221210D01*
X0075261Y0221183D01*
X0075430Y0221151D01*
X0075598Y0221116D01*
X0075765Y0221076D01*
X0075931Y0221032D01*
X0076096Y0220985D01*
X0076260Y0220933D01*
X0076422Y0220877D01*
X0076583Y0220817D01*
X0076743Y0220753D01*
X0076901Y0220685D01*
X0077057Y0220614D01*
X0077211Y0220539D01*
X0077364Y0220459D01*
X0077514Y0220377D01*
X0077663Y0220290D01*
X0077809Y0220200D01*
X0077953Y0220106D01*
X0078095Y0220009D01*
X0078234Y0219908D01*
X0078371Y0219804D01*
X0078505Y0219697D01*
X0078636Y0219586D01*
X0078765Y0219473D01*
X0078891Y0219356D01*
X0079014Y0219236D01*
X0079134Y0219113D01*
X0079251Y0218987D01*
X0079364Y0218858D01*
X0079475Y0218727D01*
X0079582Y0218593D01*
X0079686Y0218456D01*
X0079787Y0218317D01*
X0079884Y0218175D01*
X0079978Y0218031D01*
X0080068Y0217885D01*
X0080155Y0217736D01*
X0080237Y0217586D01*
X0080317Y0217433D01*
X0080392Y0217279D01*
X0080463Y0217123D01*
X0080531Y0216965D01*
X0080595Y0216805D01*
X0080655Y0216644D01*
X0080711Y0216482D01*
X0080763Y0216318D01*
X0080810Y0216153D01*
X0080854Y0215987D01*
X0080894Y0215820D01*
X0080929Y0215652D01*
X0080961Y0215483D01*
X0080988Y0215313D01*
X0081011Y0215143D01*
X0081030Y0214972D01*
X0081045Y0214801D01*
X0081056Y0214629D01*
X0081062Y0214458D01*
X0081064Y0214286D01*
X0081062Y0214114D01*
X0081056Y0213943D01*
X0081045Y0213771D01*
X0081030Y0213600D01*
X0081011Y0213429D01*
X0080988Y0213259D01*
X0080961Y0213089D01*
X0080929Y0212920D01*
X0080894Y0212752D01*
X0080854Y0212585D01*
X0080810Y0212419D01*
X0080763Y0212254D01*
X0080711Y0212090D01*
X0080655Y0211928D01*
X0080595Y0211767D01*
X0080531Y0211607D01*
X0080463Y0211449D01*
X0080392Y0211293D01*
X0080317Y0211139D01*
X0080237Y0210986D01*
X0080155Y0210836D01*
X0080068Y0210687D01*
X0079978Y0210541D01*
X0079884Y0210397D01*
X0079787Y0210255D01*
X0079686Y0210116D01*
X0079582Y0209979D01*
X0079475Y0209845D01*
X0079364Y0209714D01*
X0079251Y0209585D01*
X0079134Y0209459D01*
X0079014Y0209336D01*
X0078891Y0209216D01*
X0078765Y0209099D01*
X0078636Y0208986D01*
X0078505Y0208875D01*
X0078371Y0208768D01*
X0078234Y0208664D01*
X0078095Y0208563D01*
X0077953Y0208466D01*
X0077809Y0208372D01*
X0077663Y0208282D01*
X0077514Y0208195D01*
X0077364Y0208113D01*
X0077211Y0208033D01*
X0077057Y0207958D01*
X0076901Y0207887D01*
X0076743Y0207819D01*
X0076583Y0207755D01*
X0076422Y0207695D01*
X0076260Y0207639D01*
X0076096Y0207587D01*
X0075931Y0207540D01*
X0075765Y0207496D01*
X0075598Y0207456D01*
X0075430Y0207421D01*
X0075261Y0207389D01*
X0075091Y0207362D01*
X0074921Y0207339D01*
X0074750Y0207320D01*
X0074579Y0207305D01*
X0074407Y0207294D01*
X0074236Y0207288D01*
X0074064Y0207286D01*
X0073892Y0207288D01*
X0073721Y0207294D01*
X0073549Y0207305D01*
X0073378Y0207320D01*
X0073207Y0207339D01*
X0073037Y0207362D01*
X0072867Y0207389D01*
X0072698Y0207421D01*
X0072530Y0207456D01*
X0072363Y0207496D01*
X0072197Y0207540D01*
X0072032Y0207587D01*
X0071868Y0207639D01*
X0071706Y0207695D01*
X0071545Y0207755D01*
X0071385Y0207819D01*
X0071227Y0207887D01*
X0071071Y0207958D01*
X0070917Y0208033D01*
X0070764Y0208113D01*
X0070614Y0208195D01*
X0070465Y0208282D01*
X0070319Y0208372D01*
X0070175Y0208466D01*
X0070033Y0208563D01*
X0069894Y0208664D01*
X0069757Y0208768D01*
X0069623Y0208875D01*
X0069492Y0208986D01*
X0069363Y0209099D01*
X0069237Y0209216D01*
X0069114Y0209336D01*
X0068994Y0209459D01*
X0068877Y0209585D01*
X0068764Y0209714D01*
X0068653Y0209845D01*
X0068546Y0209979D01*
X0068442Y0210116D01*
X0068341Y0210255D01*
X0068244Y0210397D01*
X0068150Y0210541D01*
X0068060Y0210687D01*
X0067973Y0210836D01*
X0067891Y0210986D01*
X0067811Y0211139D01*
X0067736Y0211293D01*
X0067665Y0211449D01*
X0067597Y0211607D01*
X0067533Y0211767D01*
X0067473Y0211928D01*
X0067417Y0212090D01*
X0067365Y0212254D01*
X0067318Y0212419D01*
X0067274Y0212585D01*
X0067234Y0212752D01*
X0067199Y0212920D01*
X0067167Y0213089D01*
X0067140Y0213259D01*
X0067117Y0213429D01*
X0067098Y0213600D01*
X0067083Y0213771D01*
X0067072Y0213943D01*
X0067066Y0214114D01*
X0067064Y0214286D01*
X0071064Y0164786D02*
X0077064Y0164786D01*
X0077064Y0163786D01*
X0078064Y0163786D01*
X0071064Y0163786D02*
X0070064Y0163786D01*
X0071064Y0163786D02*
X0071064Y0164786D01*
X0062064Y0160286D02*
X0062064Y0156286D01*
X0062064Y0146786D01*
X0062064Y0143286D01*
X0070064Y0139786D02*
X0071064Y0139786D01*
X0071064Y0138786D01*
X0077064Y0138786D01*
X0077064Y0139786D01*
X0078064Y0139786D01*
X0086064Y0143286D02*
X0086064Y0146786D01*
X0086064Y0156786D01*
X0086064Y0160286D01*
X0073064Y0151786D02*
X0073066Y0151849D01*
X0073072Y0151911D01*
X0073082Y0151973D01*
X0073095Y0152035D01*
X0073113Y0152095D01*
X0073134Y0152154D01*
X0073159Y0152212D01*
X0073188Y0152268D01*
X0073220Y0152322D01*
X0073255Y0152374D01*
X0073293Y0152423D01*
X0073335Y0152471D01*
X0073379Y0152515D01*
X0073427Y0152557D01*
X0073476Y0152595D01*
X0073528Y0152630D01*
X0073582Y0152662D01*
X0073638Y0152691D01*
X0073696Y0152716D01*
X0073755Y0152737D01*
X0073815Y0152755D01*
X0073877Y0152768D01*
X0073939Y0152778D01*
X0074001Y0152784D01*
X0074064Y0152786D01*
X0074127Y0152784D01*
X0074189Y0152778D01*
X0074251Y0152768D01*
X0074313Y0152755D01*
X0074373Y0152737D01*
X0074432Y0152716D01*
X0074490Y0152691D01*
X0074546Y0152662D01*
X0074600Y0152630D01*
X0074652Y0152595D01*
X0074701Y0152557D01*
X0074749Y0152515D01*
X0074793Y0152471D01*
X0074835Y0152423D01*
X0074873Y0152374D01*
X0074908Y0152322D01*
X0074940Y0152268D01*
X0074969Y0152212D01*
X0074994Y0152154D01*
X0075015Y0152095D01*
X0075033Y0152035D01*
X0075046Y0151973D01*
X0075056Y0151911D01*
X0075062Y0151849D01*
X0075064Y0151786D01*
X0075062Y0151723D01*
X0075056Y0151661D01*
X0075046Y0151599D01*
X0075033Y0151537D01*
X0075015Y0151477D01*
X0074994Y0151418D01*
X0074969Y0151360D01*
X0074940Y0151304D01*
X0074908Y0151250D01*
X0074873Y0151198D01*
X0074835Y0151149D01*
X0074793Y0151101D01*
X0074749Y0151057D01*
X0074701Y0151015D01*
X0074652Y0150977D01*
X0074600Y0150942D01*
X0074546Y0150910D01*
X0074490Y0150881D01*
X0074432Y0150856D01*
X0074373Y0150835D01*
X0074313Y0150817D01*
X0074251Y0150804D01*
X0074189Y0150794D01*
X0074127Y0150788D01*
X0074064Y0150786D01*
X0074001Y0150788D01*
X0073939Y0150794D01*
X0073877Y0150804D01*
X0073815Y0150817D01*
X0073755Y0150835D01*
X0073696Y0150856D01*
X0073638Y0150881D01*
X0073582Y0150910D01*
X0073528Y0150942D01*
X0073476Y0150977D01*
X0073427Y0151015D01*
X0073379Y0151057D01*
X0073335Y0151101D01*
X0073293Y0151149D01*
X0073255Y0151198D01*
X0073220Y0151250D01*
X0073188Y0151304D01*
X0073159Y0151360D01*
X0073134Y0151418D01*
X0073113Y0151477D01*
X0073095Y0151537D01*
X0073082Y0151599D01*
X0073072Y0151661D01*
X0073066Y0151723D01*
X0073064Y0151786D01*
X0067064Y0151786D02*
X0067066Y0151958D01*
X0067072Y0152129D01*
X0067083Y0152301D01*
X0067098Y0152472D01*
X0067117Y0152643D01*
X0067140Y0152813D01*
X0067167Y0152983D01*
X0067199Y0153152D01*
X0067234Y0153320D01*
X0067274Y0153487D01*
X0067318Y0153653D01*
X0067365Y0153818D01*
X0067417Y0153982D01*
X0067473Y0154144D01*
X0067533Y0154305D01*
X0067597Y0154465D01*
X0067665Y0154623D01*
X0067736Y0154779D01*
X0067811Y0154933D01*
X0067891Y0155086D01*
X0067973Y0155236D01*
X0068060Y0155385D01*
X0068150Y0155531D01*
X0068244Y0155675D01*
X0068341Y0155817D01*
X0068442Y0155956D01*
X0068546Y0156093D01*
X0068653Y0156227D01*
X0068764Y0156358D01*
X0068877Y0156487D01*
X0068994Y0156613D01*
X0069114Y0156736D01*
X0069237Y0156856D01*
X0069363Y0156973D01*
X0069492Y0157086D01*
X0069623Y0157197D01*
X0069757Y0157304D01*
X0069894Y0157408D01*
X0070033Y0157509D01*
X0070175Y0157606D01*
X0070319Y0157700D01*
X0070465Y0157790D01*
X0070614Y0157877D01*
X0070764Y0157959D01*
X0070917Y0158039D01*
X0071071Y0158114D01*
X0071227Y0158185D01*
X0071385Y0158253D01*
X0071545Y0158317D01*
X0071706Y0158377D01*
X0071868Y0158433D01*
X0072032Y0158485D01*
X0072197Y0158532D01*
X0072363Y0158576D01*
X0072530Y0158616D01*
X0072698Y0158651D01*
X0072867Y0158683D01*
X0073037Y0158710D01*
X0073207Y0158733D01*
X0073378Y0158752D01*
X0073549Y0158767D01*
X0073721Y0158778D01*
X0073892Y0158784D01*
X0074064Y0158786D01*
X0074236Y0158784D01*
X0074407Y0158778D01*
X0074579Y0158767D01*
X0074750Y0158752D01*
X0074921Y0158733D01*
X0075091Y0158710D01*
X0075261Y0158683D01*
X0075430Y0158651D01*
X0075598Y0158616D01*
X0075765Y0158576D01*
X0075931Y0158532D01*
X0076096Y0158485D01*
X0076260Y0158433D01*
X0076422Y0158377D01*
X0076583Y0158317D01*
X0076743Y0158253D01*
X0076901Y0158185D01*
X0077057Y0158114D01*
X0077211Y0158039D01*
X0077364Y0157959D01*
X0077514Y0157877D01*
X0077663Y0157790D01*
X0077809Y0157700D01*
X0077953Y0157606D01*
X0078095Y0157509D01*
X0078234Y0157408D01*
X0078371Y0157304D01*
X0078505Y0157197D01*
X0078636Y0157086D01*
X0078765Y0156973D01*
X0078891Y0156856D01*
X0079014Y0156736D01*
X0079134Y0156613D01*
X0079251Y0156487D01*
X0079364Y0156358D01*
X0079475Y0156227D01*
X0079582Y0156093D01*
X0079686Y0155956D01*
X0079787Y0155817D01*
X0079884Y0155675D01*
X0079978Y0155531D01*
X0080068Y0155385D01*
X0080155Y0155236D01*
X0080237Y0155086D01*
X0080317Y0154933D01*
X0080392Y0154779D01*
X0080463Y0154623D01*
X0080531Y0154465D01*
X0080595Y0154305D01*
X0080655Y0154144D01*
X0080711Y0153982D01*
X0080763Y0153818D01*
X0080810Y0153653D01*
X0080854Y0153487D01*
X0080894Y0153320D01*
X0080929Y0153152D01*
X0080961Y0152983D01*
X0080988Y0152813D01*
X0081011Y0152643D01*
X0081030Y0152472D01*
X0081045Y0152301D01*
X0081056Y0152129D01*
X0081062Y0151958D01*
X0081064Y0151786D01*
X0081062Y0151614D01*
X0081056Y0151443D01*
X0081045Y0151271D01*
X0081030Y0151100D01*
X0081011Y0150929D01*
X0080988Y0150759D01*
X0080961Y0150589D01*
X0080929Y0150420D01*
X0080894Y0150252D01*
X0080854Y0150085D01*
X0080810Y0149919D01*
X0080763Y0149754D01*
X0080711Y0149590D01*
X0080655Y0149428D01*
X0080595Y0149267D01*
X0080531Y0149107D01*
X0080463Y0148949D01*
X0080392Y0148793D01*
X0080317Y0148639D01*
X0080237Y0148486D01*
X0080155Y0148336D01*
X0080068Y0148187D01*
X0079978Y0148041D01*
X0079884Y0147897D01*
X0079787Y0147755D01*
X0079686Y0147616D01*
X0079582Y0147479D01*
X0079475Y0147345D01*
X0079364Y0147214D01*
X0079251Y0147085D01*
X0079134Y0146959D01*
X0079014Y0146836D01*
X0078891Y0146716D01*
X0078765Y0146599D01*
X0078636Y0146486D01*
X0078505Y0146375D01*
X0078371Y0146268D01*
X0078234Y0146164D01*
X0078095Y0146063D01*
X0077953Y0145966D01*
X0077809Y0145872D01*
X0077663Y0145782D01*
X0077514Y0145695D01*
X0077364Y0145613D01*
X0077211Y0145533D01*
X0077057Y0145458D01*
X0076901Y0145387D01*
X0076743Y0145319D01*
X0076583Y0145255D01*
X0076422Y0145195D01*
X0076260Y0145139D01*
X0076096Y0145087D01*
X0075931Y0145040D01*
X0075765Y0144996D01*
X0075598Y0144956D01*
X0075430Y0144921D01*
X0075261Y0144889D01*
X0075091Y0144862D01*
X0074921Y0144839D01*
X0074750Y0144820D01*
X0074579Y0144805D01*
X0074407Y0144794D01*
X0074236Y0144788D01*
X0074064Y0144786D01*
X0073892Y0144788D01*
X0073721Y0144794D01*
X0073549Y0144805D01*
X0073378Y0144820D01*
X0073207Y0144839D01*
X0073037Y0144862D01*
X0072867Y0144889D01*
X0072698Y0144921D01*
X0072530Y0144956D01*
X0072363Y0144996D01*
X0072197Y0145040D01*
X0072032Y0145087D01*
X0071868Y0145139D01*
X0071706Y0145195D01*
X0071545Y0145255D01*
X0071385Y0145319D01*
X0071227Y0145387D01*
X0071071Y0145458D01*
X0070917Y0145533D01*
X0070764Y0145613D01*
X0070614Y0145695D01*
X0070465Y0145782D01*
X0070319Y0145872D01*
X0070175Y0145966D01*
X0070033Y0146063D01*
X0069894Y0146164D01*
X0069757Y0146268D01*
X0069623Y0146375D01*
X0069492Y0146486D01*
X0069363Y0146599D01*
X0069237Y0146716D01*
X0069114Y0146836D01*
X0068994Y0146959D01*
X0068877Y0147085D01*
X0068764Y0147214D01*
X0068653Y0147345D01*
X0068546Y0147479D01*
X0068442Y0147616D01*
X0068341Y0147755D01*
X0068244Y0147897D01*
X0068150Y0148041D01*
X0068060Y0148187D01*
X0067973Y0148336D01*
X0067891Y0148486D01*
X0067811Y0148639D01*
X0067736Y0148793D01*
X0067665Y0148949D01*
X0067597Y0149107D01*
X0067533Y0149267D01*
X0067473Y0149428D01*
X0067417Y0149590D01*
X0067365Y0149754D01*
X0067318Y0149919D01*
X0067274Y0150085D01*
X0067234Y0150252D01*
X0067199Y0150420D01*
X0067167Y0150589D01*
X0067140Y0150759D01*
X0067117Y0150929D01*
X0067098Y0151100D01*
X0067083Y0151271D01*
X0067072Y0151443D01*
X0067066Y0151614D01*
X0067064Y0151786D01*
D12*
X0080764Y0136541D02*
X0080764Y0133986D01*
X0080764Y0135264D02*
X0085364Y0135264D01*
X0084341Y0133986D01*
X0101041Y0175485D02*
X0101100Y0175487D01*
X0101158Y0175492D01*
X0101216Y0175501D01*
X0101273Y0175514D01*
X0101330Y0175530D01*
X0101385Y0175550D01*
X0101439Y0175573D01*
X0101491Y0175599D01*
X0101542Y0175629D01*
X0101591Y0175661D01*
X0101638Y0175697D01*
X0101682Y0175735D01*
X0101724Y0175776D01*
X0101763Y0175820D01*
X0101800Y0175866D01*
X0101833Y0175914D01*
X0101864Y0175964D01*
X0101891Y0176016D01*
X0101915Y0176069D01*
X0101936Y0176124D01*
X0102064Y0176508D02*
X0100019Y0179064D01*
X0100146Y0179447D02*
X0100167Y0179502D01*
X0100191Y0179555D01*
X0100218Y0179607D01*
X0100249Y0179657D01*
X0100282Y0179705D01*
X0100319Y0179751D01*
X0100358Y0179795D01*
X0100400Y0179836D01*
X0100444Y0179874D01*
X0100491Y0179910D01*
X0100540Y0179942D01*
X0100591Y0179972D01*
X0100643Y0179998D01*
X0100697Y0180021D01*
X0100752Y0180041D01*
X0100809Y0180057D01*
X0100866Y0180070D01*
X0100924Y0180079D01*
X0100982Y0180084D01*
X0101041Y0180086D01*
X0101100Y0180084D01*
X0101158Y0180079D01*
X0101216Y0180070D01*
X0101273Y0180057D01*
X0101330Y0180041D01*
X0101385Y0180021D01*
X0101439Y0179998D01*
X0101491Y0179972D01*
X0101542Y0179942D01*
X0101591Y0179910D01*
X0101638Y0179874D01*
X0101682Y0179836D01*
X0101724Y0179795D01*
X0101763Y0179751D01*
X0101800Y0179705D01*
X0101833Y0179657D01*
X0101864Y0179607D01*
X0101891Y0179555D01*
X0101915Y0179502D01*
X0101936Y0179447D01*
X0100146Y0179447D02*
X0100098Y0179343D01*
X0100052Y0179238D01*
X0100010Y0179132D01*
X0099971Y0179024D01*
X0099935Y0178915D01*
X0099903Y0178805D01*
X0099873Y0178694D01*
X0099848Y0178582D01*
X0099825Y0178470D01*
X0099806Y0178357D01*
X0099791Y0178243D01*
X0099779Y0178129D01*
X0099770Y0178015D01*
X0099765Y0177901D01*
X0099763Y0177786D01*
X0102319Y0177786D02*
X0102317Y0177901D01*
X0102312Y0178015D01*
X0102303Y0178129D01*
X0102291Y0178243D01*
X0102276Y0178357D01*
X0102257Y0178470D01*
X0102234Y0178582D01*
X0102209Y0178694D01*
X0102179Y0178805D01*
X0102147Y0178915D01*
X0102111Y0179024D01*
X0102072Y0179132D01*
X0102030Y0179238D01*
X0101984Y0179343D01*
X0101936Y0179447D01*
X0099763Y0177786D02*
X0099765Y0177671D01*
X0099770Y0177557D01*
X0099779Y0177443D01*
X0099791Y0177329D01*
X0099806Y0177215D01*
X0099825Y0177102D01*
X0099848Y0176990D01*
X0099873Y0176878D01*
X0099903Y0176767D01*
X0099935Y0176657D01*
X0099971Y0176548D01*
X0100010Y0176440D01*
X0100052Y0176334D01*
X0100098Y0176229D01*
X0100146Y0176125D01*
X0100146Y0176124D02*
X0100167Y0176069D01*
X0100191Y0176016D01*
X0100218Y0175964D01*
X0100249Y0175914D01*
X0100282Y0175866D01*
X0100319Y0175820D01*
X0100358Y0175776D01*
X0100400Y0175735D01*
X0100445Y0175697D01*
X0100491Y0175661D01*
X0100540Y0175629D01*
X0100591Y0175599D01*
X0100643Y0175573D01*
X0100697Y0175550D01*
X0100752Y0175530D01*
X0100809Y0175514D01*
X0100866Y0175501D01*
X0100924Y0175492D01*
X0100982Y0175487D01*
X0101041Y0175485D01*
X0104264Y0176508D02*
X0106819Y0176508D01*
X0105797Y0180086D01*
X0105030Y0177530D02*
X0105030Y0175486D01*
X0108735Y0175486D02*
X0109757Y0177530D01*
X0110012Y0177530D02*
X0111290Y0177530D01*
X0110012Y0177530D02*
X0109942Y0177532D01*
X0109871Y0177538D01*
X0109802Y0177547D01*
X0109733Y0177561D01*
X0109664Y0177578D01*
X0109597Y0177599D01*
X0109531Y0177624D01*
X0109467Y0177652D01*
X0109404Y0177684D01*
X0109343Y0177719D01*
X0109284Y0177758D01*
X0109227Y0177799D01*
X0109173Y0177844D01*
X0109121Y0177892D01*
X0109072Y0177942D01*
X0109025Y0177996D01*
X0108982Y0178051D01*
X0108942Y0178109D01*
X0108905Y0178169D01*
X0108872Y0178231D01*
X0108842Y0178295D01*
X0108815Y0178360D01*
X0108792Y0178426D01*
X0108773Y0178494D01*
X0108758Y0178563D01*
X0108746Y0178632D01*
X0108738Y0178702D01*
X0108734Y0178773D01*
X0108734Y0178843D01*
X0108738Y0178914D01*
X0108746Y0178984D01*
X0108758Y0179053D01*
X0108773Y0179122D01*
X0108792Y0179190D01*
X0108815Y0179256D01*
X0108842Y0179321D01*
X0108872Y0179385D01*
X0108905Y0179447D01*
X0108942Y0179507D01*
X0108982Y0179565D01*
X0109025Y0179620D01*
X0109072Y0179674D01*
X0109121Y0179724D01*
X0109173Y0179772D01*
X0109227Y0179817D01*
X0109284Y0179858D01*
X0109343Y0179897D01*
X0109404Y0179932D01*
X0109467Y0179964D01*
X0109531Y0179992D01*
X0109597Y0180017D01*
X0109664Y0180038D01*
X0109733Y0180055D01*
X0109802Y0180069D01*
X0109871Y0180078D01*
X0109942Y0180084D01*
X0110012Y0180086D01*
X0111290Y0180086D01*
X0111290Y0175486D01*
X0102319Y0177786D02*
X0102317Y0177671D01*
X0102312Y0177557D01*
X0102303Y0177443D01*
X0102291Y0177329D01*
X0102276Y0177215D01*
X0102257Y0177102D01*
X0102234Y0176990D01*
X0102209Y0176878D01*
X0102179Y0176767D01*
X0102147Y0176657D01*
X0102111Y0176548D01*
X0102072Y0176440D01*
X0102030Y0176334D01*
X0101984Y0176229D01*
X0101936Y0176125D01*
X0105541Y0185486D02*
X0106819Y0185486D01*
X0105541Y0185486D02*
X0105471Y0185488D01*
X0105400Y0185494D01*
X0105331Y0185503D01*
X0105262Y0185517D01*
X0105193Y0185534D01*
X0105126Y0185555D01*
X0105060Y0185580D01*
X0104996Y0185608D01*
X0104933Y0185640D01*
X0104872Y0185675D01*
X0104813Y0185714D01*
X0104756Y0185755D01*
X0104702Y0185800D01*
X0104650Y0185848D01*
X0104601Y0185898D01*
X0104554Y0185952D01*
X0104511Y0186007D01*
X0104471Y0186065D01*
X0104434Y0186125D01*
X0104401Y0186187D01*
X0104371Y0186251D01*
X0104344Y0186316D01*
X0104321Y0186382D01*
X0104302Y0186450D01*
X0104287Y0186519D01*
X0104275Y0186588D01*
X0104267Y0186658D01*
X0104263Y0186729D01*
X0104263Y0186799D01*
X0104267Y0186870D01*
X0104275Y0186940D01*
X0104287Y0187009D01*
X0104302Y0187078D01*
X0104321Y0187146D01*
X0104344Y0187212D01*
X0104371Y0187277D01*
X0104401Y0187341D01*
X0104434Y0187403D01*
X0104471Y0187463D01*
X0104511Y0187521D01*
X0104554Y0187576D01*
X0104601Y0187630D01*
X0104650Y0187680D01*
X0104702Y0187728D01*
X0104756Y0187773D01*
X0104813Y0187814D01*
X0104872Y0187853D01*
X0104933Y0187888D01*
X0104996Y0187920D01*
X0105060Y0187948D01*
X0105126Y0187973D01*
X0105193Y0187994D01*
X0105262Y0188011D01*
X0105331Y0188025D01*
X0105400Y0188034D01*
X0105471Y0188040D01*
X0105541Y0188042D01*
X0105286Y0188041D02*
X0106308Y0188041D01*
X0105286Y0188042D02*
X0105223Y0188044D01*
X0105160Y0188050D01*
X0105098Y0188059D01*
X0105037Y0188073D01*
X0104976Y0188090D01*
X0104917Y0188111D01*
X0104859Y0188136D01*
X0104802Y0188164D01*
X0104748Y0188195D01*
X0104696Y0188230D01*
X0104645Y0188268D01*
X0104597Y0188309D01*
X0104552Y0188353D01*
X0104510Y0188399D01*
X0104470Y0188448D01*
X0104434Y0188499D01*
X0104401Y0188553D01*
X0104371Y0188608D01*
X0104345Y0188666D01*
X0104322Y0188724D01*
X0104303Y0188784D01*
X0104288Y0188845D01*
X0104276Y0188907D01*
X0104268Y0188970D01*
X0104264Y0189033D01*
X0104264Y0189095D01*
X0104268Y0189158D01*
X0104276Y0189221D01*
X0104288Y0189283D01*
X0104303Y0189344D01*
X0104322Y0189404D01*
X0104345Y0189462D01*
X0104371Y0189520D01*
X0104401Y0189575D01*
X0104434Y0189629D01*
X0104470Y0189680D01*
X0104510Y0189729D01*
X0104552Y0189775D01*
X0104597Y0189819D01*
X0104645Y0189860D01*
X0104696Y0189898D01*
X0104748Y0189933D01*
X0104802Y0189964D01*
X0104859Y0189992D01*
X0104917Y0190017D01*
X0104976Y0190038D01*
X0105037Y0190055D01*
X0105098Y0190069D01*
X0105160Y0190078D01*
X0105223Y0190084D01*
X0105286Y0190086D01*
X0106819Y0190086D01*
X0110012Y0190086D02*
X0111290Y0190086D01*
X0111290Y0185486D01*
X0111290Y0187530D02*
X0110012Y0187530D01*
X0109757Y0187530D02*
X0108735Y0185486D01*
X0110012Y0187530D02*
X0109942Y0187532D01*
X0109871Y0187538D01*
X0109802Y0187547D01*
X0109733Y0187561D01*
X0109664Y0187578D01*
X0109597Y0187599D01*
X0109531Y0187624D01*
X0109467Y0187652D01*
X0109404Y0187684D01*
X0109343Y0187719D01*
X0109284Y0187758D01*
X0109227Y0187799D01*
X0109173Y0187844D01*
X0109121Y0187892D01*
X0109072Y0187942D01*
X0109025Y0187996D01*
X0108982Y0188051D01*
X0108942Y0188109D01*
X0108905Y0188169D01*
X0108872Y0188231D01*
X0108842Y0188295D01*
X0108815Y0188360D01*
X0108792Y0188426D01*
X0108773Y0188494D01*
X0108758Y0188563D01*
X0108746Y0188632D01*
X0108738Y0188702D01*
X0108734Y0188773D01*
X0108734Y0188843D01*
X0108738Y0188914D01*
X0108746Y0188984D01*
X0108758Y0189053D01*
X0108773Y0189122D01*
X0108792Y0189190D01*
X0108815Y0189256D01*
X0108842Y0189321D01*
X0108872Y0189385D01*
X0108905Y0189447D01*
X0108942Y0189507D01*
X0108982Y0189565D01*
X0109025Y0189620D01*
X0109072Y0189674D01*
X0109121Y0189724D01*
X0109173Y0189772D01*
X0109227Y0189817D01*
X0109284Y0189858D01*
X0109343Y0189897D01*
X0109404Y0189932D01*
X0109467Y0189964D01*
X0109531Y0189992D01*
X0109597Y0190017D01*
X0109664Y0190038D01*
X0109733Y0190055D01*
X0109802Y0190069D01*
X0109871Y0190078D01*
X0109942Y0190084D01*
X0110012Y0190086D01*
X0102319Y0188808D02*
X0102319Y0188552D01*
X0102317Y0188490D01*
X0102312Y0188429D01*
X0102302Y0188368D01*
X0102289Y0188307D01*
X0102273Y0188248D01*
X0102253Y0188190D01*
X0102229Y0188133D01*
X0102202Y0188077D01*
X0102172Y0188023D01*
X0102138Y0187971D01*
X0102102Y0187922D01*
X0102062Y0187874D01*
X0102020Y0187829D01*
X0101975Y0187787D01*
X0101927Y0187747D01*
X0101878Y0187711D01*
X0101826Y0187677D01*
X0101772Y0187647D01*
X0101716Y0187620D01*
X0101659Y0187596D01*
X0101601Y0187576D01*
X0101542Y0187560D01*
X0101481Y0187547D01*
X0101420Y0187537D01*
X0101359Y0187532D01*
X0101297Y0187530D01*
X0099764Y0187530D01*
X0099764Y0188808D01*
X0099763Y0188808D02*
X0099765Y0188878D01*
X0099771Y0188949D01*
X0099780Y0189018D01*
X0099794Y0189087D01*
X0099811Y0189156D01*
X0099832Y0189223D01*
X0099857Y0189289D01*
X0099885Y0189353D01*
X0099917Y0189416D01*
X0099952Y0189477D01*
X0099991Y0189536D01*
X0100032Y0189593D01*
X0100077Y0189647D01*
X0100125Y0189699D01*
X0100175Y0189748D01*
X0100229Y0189795D01*
X0100284Y0189838D01*
X0100342Y0189878D01*
X0100402Y0189915D01*
X0100464Y0189948D01*
X0100528Y0189978D01*
X0100593Y0190005D01*
X0100659Y0190028D01*
X0100727Y0190047D01*
X0100796Y0190062D01*
X0100865Y0190074D01*
X0100935Y0190082D01*
X0101006Y0190086D01*
X0101076Y0190086D01*
X0101147Y0190082D01*
X0101217Y0190074D01*
X0101286Y0190062D01*
X0101355Y0190047D01*
X0101423Y0190028D01*
X0101489Y0190005D01*
X0101554Y0189978D01*
X0101618Y0189948D01*
X0101680Y0189915D01*
X0101740Y0189878D01*
X0101798Y0189838D01*
X0101853Y0189795D01*
X0101907Y0189748D01*
X0101957Y0189699D01*
X0102005Y0189647D01*
X0102050Y0189593D01*
X0102091Y0189536D01*
X0102130Y0189477D01*
X0102165Y0189416D01*
X0102197Y0189353D01*
X0102225Y0189289D01*
X0102250Y0189223D01*
X0102271Y0189156D01*
X0102288Y0189087D01*
X0102302Y0189018D01*
X0102311Y0188949D01*
X0102317Y0188878D01*
X0102319Y0188808D01*
X0099764Y0187530D02*
X0099766Y0187441D01*
X0099772Y0187352D01*
X0099781Y0187263D01*
X0099795Y0187175D01*
X0099812Y0187088D01*
X0099834Y0187001D01*
X0099859Y0186915D01*
X0099887Y0186831D01*
X0099920Y0186748D01*
X0099956Y0186666D01*
X0099995Y0186586D01*
X0100038Y0186508D01*
X0100084Y0186432D01*
X0100134Y0186358D01*
X0100186Y0186286D01*
X0100242Y0186216D01*
X0100301Y0186149D01*
X0100363Y0186085D01*
X0100427Y0186023D01*
X0100494Y0185964D01*
X0100564Y0185908D01*
X0100636Y0185856D01*
X0100710Y0185806D01*
X0100786Y0185760D01*
X0100864Y0185717D01*
X0100944Y0185678D01*
X0101026Y0185642D01*
X0101109Y0185609D01*
X0101193Y0185581D01*
X0101279Y0185556D01*
X0101366Y0185534D01*
X0101453Y0185517D01*
X0101541Y0185503D01*
X0101630Y0185494D01*
X0101719Y0185488D01*
X0101808Y0185486D01*
X0085364Y0197764D02*
X0080764Y0197764D01*
X0080764Y0199041D02*
X0080764Y0196486D01*
X0084341Y0196486D02*
X0085364Y0197764D01*
X0101115Y0221986D02*
X0099837Y0226586D01*
X0102393Y0226586D01*
X0102393Y0226075D01*
X0105359Y0226586D02*
X0106893Y0226586D01*
X0105359Y0226586D02*
X0105296Y0226584D01*
X0105233Y0226578D01*
X0105171Y0226569D01*
X0105110Y0226555D01*
X0105049Y0226538D01*
X0104990Y0226517D01*
X0104932Y0226492D01*
X0104875Y0226464D01*
X0104821Y0226433D01*
X0104769Y0226398D01*
X0104718Y0226360D01*
X0104670Y0226319D01*
X0104625Y0226275D01*
X0104583Y0226229D01*
X0104543Y0226180D01*
X0104507Y0226129D01*
X0104474Y0226075D01*
X0104444Y0226020D01*
X0104418Y0225962D01*
X0104395Y0225904D01*
X0104376Y0225844D01*
X0104361Y0225783D01*
X0104349Y0225721D01*
X0104341Y0225658D01*
X0104337Y0225595D01*
X0104337Y0225533D01*
X0104341Y0225470D01*
X0104349Y0225407D01*
X0104361Y0225345D01*
X0104376Y0225284D01*
X0104395Y0225224D01*
X0104418Y0225166D01*
X0104444Y0225108D01*
X0104474Y0225053D01*
X0104507Y0224999D01*
X0104543Y0224948D01*
X0104583Y0224899D01*
X0104625Y0224853D01*
X0104670Y0224809D01*
X0104718Y0224768D01*
X0104769Y0224730D01*
X0104821Y0224695D01*
X0104875Y0224664D01*
X0104932Y0224636D01*
X0104990Y0224611D01*
X0105049Y0224590D01*
X0105110Y0224573D01*
X0105171Y0224559D01*
X0105233Y0224550D01*
X0105296Y0224544D01*
X0105359Y0224542D01*
X0105359Y0224541D02*
X0106382Y0224541D01*
X0105615Y0224542D02*
X0105545Y0224540D01*
X0105474Y0224534D01*
X0105405Y0224525D01*
X0105336Y0224511D01*
X0105267Y0224494D01*
X0105200Y0224473D01*
X0105134Y0224448D01*
X0105070Y0224420D01*
X0105007Y0224388D01*
X0104946Y0224353D01*
X0104887Y0224314D01*
X0104830Y0224273D01*
X0104776Y0224228D01*
X0104724Y0224180D01*
X0104675Y0224130D01*
X0104628Y0224076D01*
X0104585Y0224021D01*
X0104545Y0223963D01*
X0104508Y0223903D01*
X0104475Y0223841D01*
X0104445Y0223777D01*
X0104418Y0223712D01*
X0104395Y0223646D01*
X0104376Y0223578D01*
X0104361Y0223509D01*
X0104349Y0223440D01*
X0104341Y0223370D01*
X0104337Y0223299D01*
X0104337Y0223229D01*
X0104341Y0223158D01*
X0104349Y0223088D01*
X0104361Y0223019D01*
X0104376Y0222950D01*
X0104395Y0222882D01*
X0104418Y0222816D01*
X0104445Y0222751D01*
X0104475Y0222687D01*
X0104508Y0222625D01*
X0104545Y0222565D01*
X0104585Y0222507D01*
X0104628Y0222452D01*
X0104675Y0222398D01*
X0104724Y0222348D01*
X0104776Y0222300D01*
X0104830Y0222255D01*
X0104887Y0222214D01*
X0104946Y0222175D01*
X0105007Y0222140D01*
X0105070Y0222108D01*
X0105134Y0222080D01*
X0105200Y0222055D01*
X0105267Y0222034D01*
X0105336Y0222017D01*
X0105405Y0222003D01*
X0105474Y0221994D01*
X0105545Y0221988D01*
X0105615Y0221986D01*
X0106893Y0221986D01*
X0108808Y0221986D02*
X0109830Y0224030D01*
X0110086Y0224030D02*
X0111364Y0224030D01*
X0110086Y0224030D02*
X0110016Y0224032D01*
X0109945Y0224038D01*
X0109876Y0224047D01*
X0109807Y0224061D01*
X0109738Y0224078D01*
X0109671Y0224099D01*
X0109605Y0224124D01*
X0109541Y0224152D01*
X0109478Y0224184D01*
X0109417Y0224219D01*
X0109358Y0224258D01*
X0109301Y0224299D01*
X0109247Y0224344D01*
X0109195Y0224392D01*
X0109146Y0224442D01*
X0109099Y0224496D01*
X0109056Y0224551D01*
X0109016Y0224609D01*
X0108979Y0224669D01*
X0108946Y0224731D01*
X0108916Y0224795D01*
X0108889Y0224860D01*
X0108866Y0224926D01*
X0108847Y0224994D01*
X0108832Y0225063D01*
X0108820Y0225132D01*
X0108812Y0225202D01*
X0108808Y0225273D01*
X0108808Y0225343D01*
X0108812Y0225414D01*
X0108820Y0225484D01*
X0108832Y0225553D01*
X0108847Y0225622D01*
X0108866Y0225690D01*
X0108889Y0225756D01*
X0108916Y0225821D01*
X0108946Y0225885D01*
X0108979Y0225947D01*
X0109016Y0226007D01*
X0109056Y0226065D01*
X0109099Y0226120D01*
X0109146Y0226174D01*
X0109195Y0226224D01*
X0109247Y0226272D01*
X0109301Y0226317D01*
X0109358Y0226358D01*
X0109417Y0226397D01*
X0109478Y0226432D01*
X0109541Y0226464D01*
X0109605Y0226492D01*
X0109671Y0226517D01*
X0109738Y0226538D01*
X0109807Y0226555D01*
X0109876Y0226569D01*
X0109945Y0226578D01*
X0110016Y0226584D01*
X0110086Y0226586D01*
X0111364Y0226586D01*
X0111364Y0221986D01*
X0060864Y0237986D02*
X0060864Y0242586D01*
X0059586Y0242586D01*
X0059516Y0242584D01*
X0059445Y0242578D01*
X0059376Y0242569D01*
X0059307Y0242555D01*
X0059238Y0242538D01*
X0059171Y0242517D01*
X0059105Y0242492D01*
X0059041Y0242464D01*
X0058978Y0242432D01*
X0058917Y0242397D01*
X0058858Y0242358D01*
X0058801Y0242317D01*
X0058747Y0242272D01*
X0058695Y0242224D01*
X0058646Y0242174D01*
X0058599Y0242120D01*
X0058556Y0242065D01*
X0058516Y0242007D01*
X0058479Y0241947D01*
X0058446Y0241885D01*
X0058416Y0241821D01*
X0058389Y0241756D01*
X0058366Y0241690D01*
X0058347Y0241622D01*
X0058332Y0241553D01*
X0058320Y0241484D01*
X0058312Y0241414D01*
X0058308Y0241343D01*
X0058308Y0241273D01*
X0058312Y0241202D01*
X0058320Y0241132D01*
X0058332Y0241063D01*
X0058347Y0240994D01*
X0058366Y0240926D01*
X0058389Y0240860D01*
X0058416Y0240795D01*
X0058446Y0240731D01*
X0058479Y0240669D01*
X0058516Y0240609D01*
X0058556Y0240551D01*
X0058599Y0240496D01*
X0058646Y0240442D01*
X0058695Y0240392D01*
X0058747Y0240344D01*
X0058801Y0240299D01*
X0058858Y0240258D01*
X0058917Y0240219D01*
X0058978Y0240184D01*
X0059041Y0240152D01*
X0059105Y0240124D01*
X0059171Y0240099D01*
X0059238Y0240078D01*
X0059307Y0240061D01*
X0059376Y0240047D01*
X0059445Y0240038D01*
X0059516Y0240032D01*
X0059586Y0240030D01*
X0060864Y0240030D01*
X0059330Y0240030D02*
X0058308Y0237986D01*
X0056393Y0237986D02*
X0053837Y0237986D01*
X0055115Y0237986D02*
X0055115Y0242586D01*
X0056393Y0241564D01*
X0056893Y0244486D02*
X0055359Y0244486D01*
X0055297Y0244488D01*
X0055236Y0244493D01*
X0055175Y0244503D01*
X0055114Y0244516D01*
X0055055Y0244532D01*
X0054997Y0244552D01*
X0054940Y0244576D01*
X0054884Y0244603D01*
X0054830Y0244633D01*
X0054778Y0244667D01*
X0054729Y0244703D01*
X0054681Y0244743D01*
X0054636Y0244785D01*
X0054594Y0244830D01*
X0054554Y0244878D01*
X0054518Y0244927D01*
X0054484Y0244979D01*
X0054454Y0245033D01*
X0054427Y0245089D01*
X0054403Y0245146D01*
X0054383Y0245204D01*
X0054367Y0245263D01*
X0054354Y0245324D01*
X0054344Y0245385D01*
X0054339Y0245446D01*
X0054337Y0245508D01*
X0054337Y0246019D01*
X0054339Y0246081D01*
X0054344Y0246142D01*
X0054354Y0246203D01*
X0054367Y0246264D01*
X0054383Y0246323D01*
X0054403Y0246381D01*
X0054427Y0246438D01*
X0054454Y0246494D01*
X0054484Y0246548D01*
X0054518Y0246600D01*
X0054554Y0246649D01*
X0054594Y0246697D01*
X0054636Y0246742D01*
X0054681Y0246784D01*
X0054729Y0246824D01*
X0054778Y0246860D01*
X0054830Y0246894D01*
X0054884Y0246924D01*
X0054940Y0246951D01*
X0054997Y0246975D01*
X0055055Y0246995D01*
X0055114Y0247011D01*
X0055175Y0247024D01*
X0055236Y0247034D01*
X0055297Y0247039D01*
X0055359Y0247041D01*
X0056893Y0247041D01*
X0056893Y0249086D01*
X0054337Y0249086D01*
X0049837Y0246786D02*
X0049839Y0246671D01*
X0049844Y0246557D01*
X0049853Y0246443D01*
X0049865Y0246329D01*
X0049880Y0246215D01*
X0049899Y0246102D01*
X0049922Y0245990D01*
X0049947Y0245878D01*
X0049977Y0245767D01*
X0050009Y0245657D01*
X0050045Y0245548D01*
X0050084Y0245440D01*
X0050126Y0245334D01*
X0050172Y0245229D01*
X0050220Y0245125D01*
X0051115Y0244485D02*
X0051174Y0244487D01*
X0051232Y0244492D01*
X0051290Y0244501D01*
X0051347Y0244514D01*
X0051404Y0244530D01*
X0051459Y0244550D01*
X0051513Y0244573D01*
X0051565Y0244599D01*
X0051616Y0244629D01*
X0051665Y0244661D01*
X0051712Y0244697D01*
X0051756Y0244735D01*
X0051798Y0244776D01*
X0051837Y0244820D01*
X0051874Y0244866D01*
X0051907Y0244914D01*
X0051938Y0244964D01*
X0051965Y0245016D01*
X0051989Y0245069D01*
X0052010Y0245124D01*
X0052137Y0245508D02*
X0050093Y0248064D01*
X0050220Y0248447D02*
X0050241Y0248502D01*
X0050265Y0248555D01*
X0050292Y0248607D01*
X0050323Y0248657D01*
X0050356Y0248705D01*
X0050393Y0248751D01*
X0050432Y0248795D01*
X0050474Y0248836D01*
X0050518Y0248874D01*
X0050565Y0248910D01*
X0050614Y0248942D01*
X0050665Y0248972D01*
X0050717Y0248998D01*
X0050771Y0249021D01*
X0050826Y0249041D01*
X0050883Y0249057D01*
X0050940Y0249070D01*
X0050998Y0249079D01*
X0051056Y0249084D01*
X0051115Y0249086D01*
X0051174Y0249084D01*
X0051232Y0249079D01*
X0051290Y0249070D01*
X0051347Y0249057D01*
X0051404Y0249041D01*
X0051459Y0249021D01*
X0051513Y0248998D01*
X0051565Y0248972D01*
X0051616Y0248942D01*
X0051665Y0248910D01*
X0051712Y0248874D01*
X0051756Y0248836D01*
X0051798Y0248795D01*
X0051837Y0248751D01*
X0051874Y0248705D01*
X0051907Y0248657D01*
X0051938Y0248607D01*
X0051965Y0248555D01*
X0051989Y0248502D01*
X0052010Y0248447D01*
X0050220Y0248447D02*
X0050172Y0248343D01*
X0050126Y0248238D01*
X0050084Y0248132D01*
X0050045Y0248024D01*
X0050009Y0247915D01*
X0049977Y0247805D01*
X0049947Y0247694D01*
X0049922Y0247582D01*
X0049899Y0247470D01*
X0049880Y0247357D01*
X0049865Y0247243D01*
X0049853Y0247129D01*
X0049844Y0247015D01*
X0049839Y0246901D01*
X0049837Y0246786D01*
X0052393Y0246786D02*
X0052391Y0246901D01*
X0052386Y0247015D01*
X0052377Y0247129D01*
X0052365Y0247243D01*
X0052350Y0247357D01*
X0052331Y0247470D01*
X0052308Y0247582D01*
X0052283Y0247694D01*
X0052253Y0247805D01*
X0052221Y0247915D01*
X0052185Y0248024D01*
X0052146Y0248132D01*
X0052104Y0248238D01*
X0052058Y0248343D01*
X0052010Y0248447D01*
X0050220Y0245124D02*
X0050241Y0245069D01*
X0050265Y0245016D01*
X0050292Y0244964D01*
X0050323Y0244914D01*
X0050356Y0244866D01*
X0050393Y0244820D01*
X0050432Y0244776D01*
X0050474Y0244735D01*
X0050519Y0244697D01*
X0050565Y0244661D01*
X0050614Y0244629D01*
X0050665Y0244599D01*
X0050717Y0244573D01*
X0050771Y0244550D01*
X0050826Y0244530D01*
X0050883Y0244514D01*
X0050940Y0244501D01*
X0050998Y0244492D01*
X0051056Y0244487D01*
X0051115Y0244485D01*
X0051637Y0241564D02*
X0051635Y0241501D01*
X0051629Y0241438D01*
X0051620Y0241376D01*
X0051606Y0241315D01*
X0051589Y0241254D01*
X0051568Y0241195D01*
X0051543Y0241137D01*
X0051515Y0241080D01*
X0051484Y0241026D01*
X0051449Y0240974D01*
X0051411Y0240923D01*
X0051370Y0240875D01*
X0051326Y0240830D01*
X0051280Y0240788D01*
X0051231Y0240748D01*
X0051180Y0240712D01*
X0051126Y0240679D01*
X0051071Y0240649D01*
X0051013Y0240623D01*
X0050955Y0240600D01*
X0050895Y0240581D01*
X0050834Y0240566D01*
X0050772Y0240554D01*
X0050709Y0240546D01*
X0050646Y0240542D01*
X0050584Y0240542D01*
X0050521Y0240546D01*
X0050458Y0240554D01*
X0050396Y0240566D01*
X0050335Y0240581D01*
X0050275Y0240600D01*
X0050217Y0240623D01*
X0050159Y0240649D01*
X0050104Y0240679D01*
X0050050Y0240712D01*
X0049999Y0240748D01*
X0049950Y0240788D01*
X0049904Y0240830D01*
X0049860Y0240875D01*
X0049819Y0240923D01*
X0049781Y0240974D01*
X0049746Y0241026D01*
X0049715Y0241080D01*
X0049687Y0241137D01*
X0049662Y0241195D01*
X0049641Y0241254D01*
X0049624Y0241315D01*
X0049610Y0241376D01*
X0049601Y0241438D01*
X0049595Y0241501D01*
X0049593Y0241564D01*
X0049595Y0241627D01*
X0049601Y0241690D01*
X0049610Y0241752D01*
X0049624Y0241813D01*
X0049641Y0241874D01*
X0049662Y0241933D01*
X0049687Y0241991D01*
X0049715Y0242048D01*
X0049746Y0242102D01*
X0049781Y0242154D01*
X0049819Y0242205D01*
X0049860Y0242253D01*
X0049904Y0242298D01*
X0049950Y0242340D01*
X0049999Y0242380D01*
X0050050Y0242416D01*
X0050104Y0242449D01*
X0050159Y0242479D01*
X0050217Y0242505D01*
X0050275Y0242528D01*
X0050335Y0242547D01*
X0050396Y0242562D01*
X0050458Y0242574D01*
X0050521Y0242582D01*
X0050584Y0242586D01*
X0050646Y0242586D01*
X0050709Y0242582D01*
X0050772Y0242574D01*
X0050834Y0242562D01*
X0050895Y0242547D01*
X0050955Y0242528D01*
X0051013Y0242505D01*
X0051071Y0242479D01*
X0051126Y0242449D01*
X0051180Y0242416D01*
X0051231Y0242380D01*
X0051280Y0242340D01*
X0051326Y0242298D01*
X0051370Y0242253D01*
X0051411Y0242205D01*
X0051449Y0242154D01*
X0051484Y0242102D01*
X0051515Y0242048D01*
X0051543Y0241991D01*
X0051568Y0241933D01*
X0051589Y0241874D01*
X0051606Y0241813D01*
X0051620Y0241752D01*
X0051629Y0241690D01*
X0051635Y0241627D01*
X0051637Y0241564D01*
X0051893Y0239264D02*
X0051891Y0239194D01*
X0051885Y0239123D01*
X0051876Y0239054D01*
X0051862Y0238985D01*
X0051845Y0238916D01*
X0051824Y0238849D01*
X0051799Y0238783D01*
X0051771Y0238719D01*
X0051739Y0238656D01*
X0051704Y0238595D01*
X0051665Y0238536D01*
X0051624Y0238479D01*
X0051579Y0238425D01*
X0051531Y0238373D01*
X0051481Y0238324D01*
X0051427Y0238277D01*
X0051372Y0238234D01*
X0051314Y0238194D01*
X0051254Y0238157D01*
X0051192Y0238124D01*
X0051128Y0238094D01*
X0051063Y0238067D01*
X0050997Y0238044D01*
X0050929Y0238025D01*
X0050860Y0238010D01*
X0050791Y0237998D01*
X0050721Y0237990D01*
X0050650Y0237986D01*
X0050580Y0237986D01*
X0050509Y0237990D01*
X0050439Y0237998D01*
X0050370Y0238010D01*
X0050301Y0238025D01*
X0050233Y0238044D01*
X0050167Y0238067D01*
X0050102Y0238094D01*
X0050038Y0238124D01*
X0049976Y0238157D01*
X0049916Y0238194D01*
X0049858Y0238234D01*
X0049803Y0238277D01*
X0049749Y0238324D01*
X0049699Y0238373D01*
X0049651Y0238425D01*
X0049606Y0238479D01*
X0049565Y0238536D01*
X0049526Y0238595D01*
X0049491Y0238656D01*
X0049459Y0238719D01*
X0049431Y0238783D01*
X0049406Y0238849D01*
X0049385Y0238916D01*
X0049368Y0238985D01*
X0049354Y0239054D01*
X0049345Y0239123D01*
X0049339Y0239194D01*
X0049337Y0239264D01*
X0049339Y0239334D01*
X0049345Y0239405D01*
X0049354Y0239474D01*
X0049368Y0239543D01*
X0049385Y0239612D01*
X0049406Y0239679D01*
X0049431Y0239745D01*
X0049459Y0239809D01*
X0049491Y0239872D01*
X0049526Y0239933D01*
X0049565Y0239992D01*
X0049606Y0240049D01*
X0049651Y0240103D01*
X0049699Y0240155D01*
X0049749Y0240204D01*
X0049803Y0240251D01*
X0049858Y0240294D01*
X0049916Y0240334D01*
X0049976Y0240371D01*
X0050038Y0240404D01*
X0050102Y0240434D01*
X0050167Y0240461D01*
X0050233Y0240484D01*
X0050301Y0240503D01*
X0050370Y0240518D01*
X0050439Y0240530D01*
X0050509Y0240538D01*
X0050580Y0240542D01*
X0050650Y0240542D01*
X0050721Y0240538D01*
X0050791Y0240530D01*
X0050860Y0240518D01*
X0050929Y0240503D01*
X0050997Y0240484D01*
X0051063Y0240461D01*
X0051128Y0240434D01*
X0051192Y0240404D01*
X0051254Y0240371D01*
X0051314Y0240334D01*
X0051372Y0240294D01*
X0051427Y0240251D01*
X0051481Y0240204D01*
X0051531Y0240155D01*
X0051579Y0240103D01*
X0051624Y0240049D01*
X0051665Y0239992D01*
X0051704Y0239933D01*
X0051739Y0239872D01*
X0051771Y0239809D01*
X0051799Y0239745D01*
X0051824Y0239679D01*
X0051845Y0239612D01*
X0051862Y0239543D01*
X0051876Y0239474D01*
X0051885Y0239405D01*
X0051891Y0239334D01*
X0051893Y0239264D01*
X0058808Y0244486D02*
X0059830Y0246530D01*
X0060086Y0246530D02*
X0061364Y0246530D01*
X0060086Y0246530D02*
X0060016Y0246532D01*
X0059945Y0246538D01*
X0059876Y0246547D01*
X0059807Y0246561D01*
X0059738Y0246578D01*
X0059671Y0246599D01*
X0059605Y0246624D01*
X0059541Y0246652D01*
X0059478Y0246684D01*
X0059417Y0246719D01*
X0059358Y0246758D01*
X0059301Y0246799D01*
X0059247Y0246844D01*
X0059195Y0246892D01*
X0059146Y0246942D01*
X0059099Y0246996D01*
X0059056Y0247051D01*
X0059016Y0247109D01*
X0058979Y0247169D01*
X0058946Y0247231D01*
X0058916Y0247295D01*
X0058889Y0247360D01*
X0058866Y0247426D01*
X0058847Y0247494D01*
X0058832Y0247563D01*
X0058820Y0247632D01*
X0058812Y0247702D01*
X0058808Y0247773D01*
X0058808Y0247843D01*
X0058812Y0247914D01*
X0058820Y0247984D01*
X0058832Y0248053D01*
X0058847Y0248122D01*
X0058866Y0248190D01*
X0058889Y0248256D01*
X0058916Y0248321D01*
X0058946Y0248385D01*
X0058979Y0248447D01*
X0059016Y0248507D01*
X0059056Y0248565D01*
X0059099Y0248620D01*
X0059146Y0248674D01*
X0059195Y0248724D01*
X0059247Y0248772D01*
X0059301Y0248817D01*
X0059358Y0248858D01*
X0059417Y0248897D01*
X0059478Y0248932D01*
X0059541Y0248964D01*
X0059605Y0248992D01*
X0059671Y0249017D01*
X0059738Y0249038D01*
X0059807Y0249055D01*
X0059876Y0249069D01*
X0059945Y0249078D01*
X0060016Y0249084D01*
X0060086Y0249086D01*
X0061364Y0249086D01*
X0061364Y0244486D01*
X0061364Y0251986D02*
X0061364Y0256586D01*
X0060086Y0256586D01*
X0060016Y0256584D01*
X0059945Y0256578D01*
X0059876Y0256569D01*
X0059807Y0256555D01*
X0059738Y0256538D01*
X0059671Y0256517D01*
X0059605Y0256492D01*
X0059541Y0256464D01*
X0059478Y0256432D01*
X0059417Y0256397D01*
X0059358Y0256358D01*
X0059301Y0256317D01*
X0059247Y0256272D01*
X0059195Y0256224D01*
X0059146Y0256174D01*
X0059099Y0256120D01*
X0059056Y0256065D01*
X0059016Y0256007D01*
X0058979Y0255947D01*
X0058946Y0255885D01*
X0058916Y0255821D01*
X0058889Y0255756D01*
X0058866Y0255690D01*
X0058847Y0255622D01*
X0058832Y0255553D01*
X0058820Y0255484D01*
X0058812Y0255414D01*
X0058808Y0255343D01*
X0058808Y0255273D01*
X0058812Y0255202D01*
X0058820Y0255132D01*
X0058832Y0255063D01*
X0058847Y0254994D01*
X0058866Y0254926D01*
X0058889Y0254860D01*
X0058916Y0254795D01*
X0058946Y0254731D01*
X0058979Y0254669D01*
X0059016Y0254609D01*
X0059056Y0254551D01*
X0059099Y0254496D01*
X0059146Y0254442D01*
X0059195Y0254392D01*
X0059247Y0254344D01*
X0059301Y0254299D01*
X0059358Y0254258D01*
X0059417Y0254219D01*
X0059478Y0254184D01*
X0059541Y0254152D01*
X0059605Y0254124D01*
X0059671Y0254099D01*
X0059738Y0254078D01*
X0059807Y0254061D01*
X0059876Y0254047D01*
X0059945Y0254038D01*
X0060016Y0254032D01*
X0060086Y0254030D01*
X0061364Y0254030D01*
X0059830Y0254030D02*
X0058808Y0251986D01*
X0056893Y0253008D02*
X0054337Y0253008D01*
X0055104Y0254030D02*
X0055104Y0251986D01*
X0056893Y0253008D02*
X0055870Y0256586D01*
X0055104Y0259486D02*
X0055104Y0261530D01*
X0054337Y0260508D02*
X0056893Y0260508D01*
X0055870Y0264086D01*
X0055104Y0266986D02*
X0055104Y0269030D01*
X0054337Y0268008D02*
X0056893Y0268008D01*
X0055870Y0271586D01*
X0052393Y0271586D02*
X0049837Y0271586D01*
X0051115Y0266986D01*
X0050093Y0263064D02*
X0050095Y0263001D01*
X0050101Y0262938D01*
X0050110Y0262876D01*
X0050124Y0262815D01*
X0050141Y0262754D01*
X0050162Y0262695D01*
X0050187Y0262637D01*
X0050215Y0262580D01*
X0050246Y0262526D01*
X0050281Y0262474D01*
X0050319Y0262423D01*
X0050360Y0262375D01*
X0050404Y0262330D01*
X0050450Y0262288D01*
X0050499Y0262248D01*
X0050550Y0262212D01*
X0050604Y0262179D01*
X0050659Y0262149D01*
X0050717Y0262123D01*
X0050775Y0262100D01*
X0050835Y0262081D01*
X0050896Y0262066D01*
X0050958Y0262054D01*
X0051021Y0262046D01*
X0051084Y0262042D01*
X0051146Y0262042D01*
X0051209Y0262046D01*
X0051272Y0262054D01*
X0051334Y0262066D01*
X0051395Y0262081D01*
X0051455Y0262100D01*
X0051513Y0262123D01*
X0051571Y0262149D01*
X0051626Y0262179D01*
X0051680Y0262212D01*
X0051731Y0262248D01*
X0051780Y0262288D01*
X0051826Y0262330D01*
X0051870Y0262375D01*
X0051911Y0262423D01*
X0051949Y0262474D01*
X0051984Y0262526D01*
X0052015Y0262580D01*
X0052043Y0262637D01*
X0052068Y0262695D01*
X0052089Y0262754D01*
X0052106Y0262815D01*
X0052120Y0262876D01*
X0052129Y0262938D01*
X0052135Y0263001D01*
X0052137Y0263064D01*
X0052135Y0263127D01*
X0052129Y0263190D01*
X0052120Y0263252D01*
X0052106Y0263313D01*
X0052089Y0263374D01*
X0052068Y0263433D01*
X0052043Y0263491D01*
X0052015Y0263548D01*
X0051984Y0263602D01*
X0051949Y0263654D01*
X0051911Y0263705D01*
X0051870Y0263753D01*
X0051826Y0263798D01*
X0051780Y0263840D01*
X0051731Y0263880D01*
X0051680Y0263916D01*
X0051626Y0263949D01*
X0051571Y0263979D01*
X0051513Y0264005D01*
X0051455Y0264028D01*
X0051395Y0264047D01*
X0051334Y0264062D01*
X0051272Y0264074D01*
X0051209Y0264082D01*
X0051146Y0264086D01*
X0051084Y0264086D01*
X0051021Y0264082D01*
X0050958Y0264074D01*
X0050896Y0264062D01*
X0050835Y0264047D01*
X0050775Y0264028D01*
X0050717Y0264005D01*
X0050659Y0263979D01*
X0050604Y0263949D01*
X0050550Y0263916D01*
X0050499Y0263880D01*
X0050450Y0263840D01*
X0050404Y0263798D01*
X0050360Y0263753D01*
X0050319Y0263705D01*
X0050281Y0263654D01*
X0050246Y0263602D01*
X0050215Y0263548D01*
X0050187Y0263491D01*
X0050162Y0263433D01*
X0050141Y0263374D01*
X0050124Y0263313D01*
X0050110Y0263252D01*
X0050101Y0263190D01*
X0050095Y0263127D01*
X0050093Y0263064D01*
X0049837Y0260764D02*
X0049839Y0260694D01*
X0049845Y0260623D01*
X0049854Y0260554D01*
X0049868Y0260485D01*
X0049885Y0260416D01*
X0049906Y0260349D01*
X0049931Y0260283D01*
X0049959Y0260219D01*
X0049991Y0260156D01*
X0050026Y0260095D01*
X0050065Y0260036D01*
X0050106Y0259979D01*
X0050151Y0259925D01*
X0050199Y0259873D01*
X0050249Y0259824D01*
X0050303Y0259777D01*
X0050358Y0259734D01*
X0050416Y0259694D01*
X0050476Y0259657D01*
X0050538Y0259624D01*
X0050602Y0259594D01*
X0050667Y0259567D01*
X0050733Y0259544D01*
X0050801Y0259525D01*
X0050870Y0259510D01*
X0050939Y0259498D01*
X0051009Y0259490D01*
X0051080Y0259486D01*
X0051150Y0259486D01*
X0051221Y0259490D01*
X0051291Y0259498D01*
X0051360Y0259510D01*
X0051429Y0259525D01*
X0051497Y0259544D01*
X0051563Y0259567D01*
X0051628Y0259594D01*
X0051692Y0259624D01*
X0051754Y0259657D01*
X0051814Y0259694D01*
X0051872Y0259734D01*
X0051927Y0259777D01*
X0051981Y0259824D01*
X0052031Y0259873D01*
X0052079Y0259925D01*
X0052124Y0259979D01*
X0052165Y0260036D01*
X0052204Y0260095D01*
X0052239Y0260156D01*
X0052271Y0260219D01*
X0052299Y0260283D01*
X0052324Y0260349D01*
X0052345Y0260416D01*
X0052362Y0260485D01*
X0052376Y0260554D01*
X0052385Y0260623D01*
X0052391Y0260694D01*
X0052393Y0260764D01*
X0052391Y0260834D01*
X0052385Y0260905D01*
X0052376Y0260974D01*
X0052362Y0261043D01*
X0052345Y0261112D01*
X0052324Y0261179D01*
X0052299Y0261245D01*
X0052271Y0261309D01*
X0052239Y0261372D01*
X0052204Y0261433D01*
X0052165Y0261492D01*
X0052124Y0261549D01*
X0052079Y0261603D01*
X0052031Y0261655D01*
X0051981Y0261704D01*
X0051927Y0261751D01*
X0051872Y0261794D01*
X0051814Y0261834D01*
X0051754Y0261871D01*
X0051692Y0261904D01*
X0051628Y0261934D01*
X0051563Y0261961D01*
X0051497Y0261984D01*
X0051429Y0262003D01*
X0051360Y0262018D01*
X0051291Y0262030D01*
X0051221Y0262038D01*
X0051150Y0262042D01*
X0051080Y0262042D01*
X0051009Y0262038D01*
X0050939Y0262030D01*
X0050870Y0262018D01*
X0050801Y0262003D01*
X0050733Y0261984D01*
X0050667Y0261961D01*
X0050602Y0261934D01*
X0050538Y0261904D01*
X0050476Y0261871D01*
X0050416Y0261834D01*
X0050358Y0261794D01*
X0050303Y0261751D01*
X0050249Y0261704D01*
X0050199Y0261655D01*
X0050151Y0261603D01*
X0050106Y0261549D01*
X0050065Y0261492D01*
X0050026Y0261433D01*
X0049991Y0261372D01*
X0049959Y0261309D01*
X0049931Y0261245D01*
X0049906Y0261179D01*
X0049885Y0261112D01*
X0049868Y0261043D01*
X0049854Y0260974D01*
X0049845Y0260905D01*
X0049839Y0260834D01*
X0049837Y0260764D01*
X0049837Y0255308D02*
X0049837Y0254030D01*
X0051370Y0254030D01*
X0049838Y0254030D02*
X0049840Y0253941D01*
X0049846Y0253852D01*
X0049855Y0253763D01*
X0049869Y0253675D01*
X0049886Y0253588D01*
X0049908Y0253501D01*
X0049933Y0253415D01*
X0049961Y0253331D01*
X0049994Y0253248D01*
X0050030Y0253166D01*
X0050069Y0253086D01*
X0050112Y0253008D01*
X0050158Y0252932D01*
X0050208Y0252858D01*
X0050260Y0252786D01*
X0050316Y0252716D01*
X0050375Y0252649D01*
X0050437Y0252585D01*
X0050501Y0252523D01*
X0050568Y0252464D01*
X0050638Y0252408D01*
X0050710Y0252356D01*
X0050784Y0252306D01*
X0050860Y0252260D01*
X0050938Y0252217D01*
X0051018Y0252178D01*
X0051100Y0252142D01*
X0051183Y0252109D01*
X0051267Y0252081D01*
X0051353Y0252056D01*
X0051440Y0252034D01*
X0051527Y0252017D01*
X0051615Y0252003D01*
X0051704Y0251994D01*
X0051793Y0251988D01*
X0051882Y0251986D01*
X0052393Y0255052D02*
X0052393Y0255308D01*
X0052392Y0255052D02*
X0052390Y0254990D01*
X0052385Y0254929D01*
X0052375Y0254868D01*
X0052362Y0254807D01*
X0052346Y0254748D01*
X0052326Y0254690D01*
X0052302Y0254633D01*
X0052275Y0254577D01*
X0052245Y0254523D01*
X0052211Y0254471D01*
X0052175Y0254422D01*
X0052135Y0254374D01*
X0052093Y0254329D01*
X0052048Y0254287D01*
X0052000Y0254247D01*
X0051951Y0254211D01*
X0051899Y0254177D01*
X0051845Y0254147D01*
X0051789Y0254120D01*
X0051732Y0254096D01*
X0051674Y0254076D01*
X0051615Y0254060D01*
X0051554Y0254047D01*
X0051493Y0254037D01*
X0051432Y0254032D01*
X0051370Y0254030D01*
X0052393Y0255308D02*
X0052391Y0255378D01*
X0052385Y0255449D01*
X0052376Y0255518D01*
X0052362Y0255587D01*
X0052345Y0255656D01*
X0052324Y0255723D01*
X0052299Y0255789D01*
X0052271Y0255853D01*
X0052239Y0255916D01*
X0052204Y0255977D01*
X0052165Y0256036D01*
X0052124Y0256093D01*
X0052079Y0256147D01*
X0052031Y0256199D01*
X0051981Y0256248D01*
X0051927Y0256295D01*
X0051872Y0256338D01*
X0051814Y0256378D01*
X0051754Y0256415D01*
X0051692Y0256448D01*
X0051628Y0256478D01*
X0051563Y0256505D01*
X0051497Y0256528D01*
X0051429Y0256547D01*
X0051360Y0256562D01*
X0051291Y0256574D01*
X0051221Y0256582D01*
X0051150Y0256586D01*
X0051080Y0256586D01*
X0051009Y0256582D01*
X0050939Y0256574D01*
X0050870Y0256562D01*
X0050801Y0256547D01*
X0050733Y0256528D01*
X0050667Y0256505D01*
X0050602Y0256478D01*
X0050538Y0256448D01*
X0050476Y0256415D01*
X0050416Y0256378D01*
X0050358Y0256338D01*
X0050303Y0256295D01*
X0050249Y0256248D01*
X0050199Y0256199D01*
X0050151Y0256147D01*
X0050106Y0256093D01*
X0050065Y0256036D01*
X0050026Y0255977D01*
X0049991Y0255916D01*
X0049959Y0255853D01*
X0049931Y0255789D01*
X0049906Y0255723D01*
X0049885Y0255656D01*
X0049868Y0255587D01*
X0049854Y0255518D01*
X0049845Y0255449D01*
X0049839Y0255378D01*
X0049837Y0255308D01*
X0058808Y0259486D02*
X0059830Y0261530D01*
X0060086Y0261530D02*
X0061364Y0261530D01*
X0060086Y0261530D02*
X0060016Y0261532D01*
X0059945Y0261538D01*
X0059876Y0261547D01*
X0059807Y0261561D01*
X0059738Y0261578D01*
X0059671Y0261599D01*
X0059605Y0261624D01*
X0059541Y0261652D01*
X0059478Y0261684D01*
X0059417Y0261719D01*
X0059358Y0261758D01*
X0059301Y0261799D01*
X0059247Y0261844D01*
X0059195Y0261892D01*
X0059146Y0261942D01*
X0059099Y0261996D01*
X0059056Y0262051D01*
X0059016Y0262109D01*
X0058979Y0262169D01*
X0058946Y0262231D01*
X0058916Y0262295D01*
X0058889Y0262360D01*
X0058866Y0262426D01*
X0058847Y0262494D01*
X0058832Y0262563D01*
X0058820Y0262632D01*
X0058812Y0262702D01*
X0058808Y0262773D01*
X0058808Y0262843D01*
X0058812Y0262914D01*
X0058820Y0262984D01*
X0058832Y0263053D01*
X0058847Y0263122D01*
X0058866Y0263190D01*
X0058889Y0263256D01*
X0058916Y0263321D01*
X0058946Y0263385D01*
X0058979Y0263447D01*
X0059016Y0263507D01*
X0059056Y0263565D01*
X0059099Y0263620D01*
X0059146Y0263674D01*
X0059195Y0263724D01*
X0059247Y0263772D01*
X0059301Y0263817D01*
X0059358Y0263858D01*
X0059417Y0263897D01*
X0059478Y0263932D01*
X0059541Y0263964D01*
X0059605Y0263992D01*
X0059671Y0264017D01*
X0059738Y0264038D01*
X0059807Y0264055D01*
X0059876Y0264069D01*
X0059945Y0264078D01*
X0060016Y0264084D01*
X0060086Y0264086D01*
X0061364Y0264086D01*
X0061364Y0259486D01*
X0061364Y0266986D02*
X0061364Y0271586D01*
X0060086Y0271586D01*
X0060016Y0271584D01*
X0059945Y0271578D01*
X0059876Y0271569D01*
X0059807Y0271555D01*
X0059738Y0271538D01*
X0059671Y0271517D01*
X0059605Y0271492D01*
X0059541Y0271464D01*
X0059478Y0271432D01*
X0059417Y0271397D01*
X0059358Y0271358D01*
X0059301Y0271317D01*
X0059247Y0271272D01*
X0059195Y0271224D01*
X0059146Y0271174D01*
X0059099Y0271120D01*
X0059056Y0271065D01*
X0059016Y0271007D01*
X0058979Y0270947D01*
X0058946Y0270885D01*
X0058916Y0270821D01*
X0058889Y0270756D01*
X0058866Y0270690D01*
X0058847Y0270622D01*
X0058832Y0270553D01*
X0058820Y0270484D01*
X0058812Y0270414D01*
X0058808Y0270343D01*
X0058808Y0270273D01*
X0058812Y0270202D01*
X0058820Y0270132D01*
X0058832Y0270063D01*
X0058847Y0269994D01*
X0058866Y0269926D01*
X0058889Y0269860D01*
X0058916Y0269795D01*
X0058946Y0269731D01*
X0058979Y0269669D01*
X0059016Y0269609D01*
X0059056Y0269551D01*
X0059099Y0269496D01*
X0059146Y0269442D01*
X0059195Y0269392D01*
X0059247Y0269344D01*
X0059301Y0269299D01*
X0059358Y0269258D01*
X0059417Y0269219D01*
X0059478Y0269184D01*
X0059541Y0269152D01*
X0059605Y0269124D01*
X0059671Y0269099D01*
X0059738Y0269078D01*
X0059807Y0269061D01*
X0059876Y0269047D01*
X0059945Y0269038D01*
X0060016Y0269032D01*
X0060086Y0269030D01*
X0061364Y0269030D01*
X0059830Y0269030D02*
X0058808Y0266986D01*
X0052393Y0271075D02*
X0052393Y0271586D01*
X0052393Y0246786D02*
X0052391Y0246671D01*
X0052386Y0246557D01*
X0052377Y0246443D01*
X0052365Y0246329D01*
X0052350Y0246215D01*
X0052331Y0246102D01*
X0052308Y0245990D01*
X0052283Y0245878D01*
X0052253Y0245767D01*
X0052221Y0245657D01*
X0052185Y0245548D01*
X0052146Y0245440D01*
X0052104Y0245334D01*
X0052058Y0245229D01*
X0052010Y0245125D01*
X0103899Y0260364D02*
X0106455Y0260364D01*
X0105177Y0260364D02*
X0105177Y0264964D01*
X0106455Y0263942D01*
X0108144Y0264964D02*
X0111210Y0260364D01*
X0108144Y0260364D02*
X0111210Y0264964D01*
X0213086Y0100586D02*
X0213086Y0095986D01*
X0214364Y0095986D02*
X0211808Y0095986D01*
X0214364Y0099564D02*
X0213086Y0100586D01*
X0289308Y0095986D02*
X0291864Y0095986D01*
X0290586Y0095986D02*
X0290586Y0100586D01*
X0291864Y0099564D01*
X0336808Y0095986D02*
X0339364Y0095986D01*
X0338086Y0095986D02*
X0338086Y0100586D01*
X0339364Y0099564D01*
X0438264Y0131486D02*
X0438264Y0134041D01*
X0438264Y0132764D02*
X0442864Y0132764D01*
X0441841Y0131486D01*
X0441841Y0196486D02*
X0442864Y0197764D01*
X0438264Y0197764D01*
X0438264Y0199041D02*
X0438264Y0196486D01*
D13*
X0442564Y0209286D02*
X0442564Y0219286D01*
X0443564Y0219286D01*
X0443564Y0209286D02*
X0442564Y0209286D01*
X0420564Y0209286D02*
X0419564Y0209286D01*
X0420564Y0209286D02*
X0420564Y0218786D01*
X0419564Y0218786D01*
X0442564Y0154286D02*
X0443564Y0154286D01*
X0442564Y0154286D02*
X0442564Y0144286D01*
X0443564Y0144286D01*
X0420564Y0144286D02*
X0419564Y0144286D01*
X0420564Y0144286D02*
X0420564Y0153786D01*
X0419564Y0153786D01*
X0326564Y0101286D02*
X0326564Y0100286D01*
X0316564Y0100286D01*
X0316564Y0101286D01*
X0279064Y0101286D02*
X0279064Y0100286D01*
X0269064Y0100286D01*
X0269064Y0101286D01*
X0269564Y0078286D02*
X0269564Y0077286D01*
X0269564Y0078286D02*
X0279064Y0078286D01*
X0279064Y0077286D01*
X0317064Y0077286D02*
X0317064Y0078286D01*
X0326564Y0078286D01*
X0326564Y0077286D01*
X0201564Y0077286D02*
X0201564Y0078286D01*
X0192064Y0078286D01*
X0192064Y0077286D01*
X0191564Y0100286D02*
X0191564Y0101286D01*
X0191564Y0100286D02*
X0201564Y0100286D01*
X0201564Y0101286D01*
X0086064Y0146786D02*
X0085064Y0146786D01*
X0085064Y0156786D01*
X0086064Y0156786D01*
X0063064Y0156286D02*
X0063064Y0146786D01*
X0062064Y0146786D01*
X0062064Y0156286D02*
X0063064Y0156286D01*
X0063064Y0209286D02*
X0062064Y0209286D01*
X0063064Y0209286D02*
X0063064Y0218786D01*
X0062064Y0218786D01*
X0085064Y0219286D02*
X0085064Y0209286D01*
X0086064Y0209286D01*
X0086064Y0219286D02*
X0085064Y0219286D01*
D14*
X0101689Y0211536D02*
X0103814Y0209036D01*
X0101314Y0209036D01*
X0103814Y0212536D02*
X0103790Y0212605D01*
X0103762Y0212672D01*
X0103731Y0212738D01*
X0103697Y0212802D01*
X0103660Y0212864D01*
X0103619Y0212925D01*
X0103576Y0212983D01*
X0103530Y0213039D01*
X0103480Y0213093D01*
X0103429Y0213144D01*
X0103375Y0213192D01*
X0103318Y0213238D01*
X0103259Y0213281D01*
X0103198Y0213320D01*
X0103136Y0213357D01*
X0103071Y0213390D01*
X0103005Y0213421D01*
X0102937Y0213447D01*
X0102869Y0213471D01*
X0102799Y0213491D01*
X0102728Y0213507D01*
X0102656Y0213520D01*
X0102584Y0213529D01*
X0102512Y0213534D01*
X0102439Y0213536D01*
X0102374Y0213534D01*
X0102308Y0213528D01*
X0102244Y0213519D01*
X0102180Y0213506D01*
X0102116Y0213489D01*
X0102054Y0213468D01*
X0101993Y0213444D01*
X0101934Y0213416D01*
X0101877Y0213385D01*
X0101821Y0213351D01*
X0101767Y0213313D01*
X0101716Y0213273D01*
X0101667Y0213229D01*
X0101621Y0213183D01*
X0101577Y0213134D01*
X0101537Y0213083D01*
X0101499Y0213029D01*
X0101465Y0212974D01*
X0101434Y0212916D01*
X0101406Y0212857D01*
X0101382Y0212796D01*
X0101361Y0212734D01*
X0101344Y0212670D01*
X0101331Y0212606D01*
X0101322Y0212542D01*
X0101316Y0212476D01*
X0101314Y0212411D01*
X0101316Y0212346D01*
X0101321Y0212281D01*
X0101330Y0212216D01*
X0101342Y0212152D01*
X0101358Y0212089D01*
X0101377Y0212027D01*
X0101399Y0211965D01*
X0101425Y0211905D01*
X0101454Y0211847D01*
X0101486Y0211790D01*
X0101521Y0211735D01*
X0101559Y0211682D01*
X0101599Y0211631D01*
X0101643Y0211582D01*
X0101689Y0211536D01*
X0105814Y0209036D02*
X0108314Y0209036D01*
X0107064Y0209036D02*
X0107064Y0213536D01*
X0108314Y0212536D01*
X0110014Y0213536D02*
X0112514Y0213536D01*
X0111264Y0213536D02*
X0111264Y0209036D01*
X0111264Y0201036D02*
X0111264Y0196536D01*
X0108314Y0196536D02*
X0105814Y0196536D01*
X0107064Y0196536D02*
X0107064Y0201036D01*
X0108314Y0200036D01*
X0110014Y0201036D02*
X0112514Y0201036D01*
X0103814Y0201036D02*
X0102314Y0201036D01*
X0102252Y0201034D01*
X0102191Y0201028D01*
X0102130Y0201019D01*
X0102070Y0201006D01*
X0102011Y0200989D01*
X0101953Y0200968D01*
X0101896Y0200944D01*
X0101841Y0200917D01*
X0101788Y0200886D01*
X0101736Y0200852D01*
X0101687Y0200815D01*
X0101640Y0200775D01*
X0101596Y0200732D01*
X0101555Y0200687D01*
X0101516Y0200639D01*
X0101480Y0200588D01*
X0101448Y0200536D01*
X0101419Y0200482D01*
X0101393Y0200426D01*
X0101371Y0200368D01*
X0101352Y0200310D01*
X0101337Y0200250D01*
X0101326Y0200189D01*
X0101318Y0200128D01*
X0101314Y0200067D01*
X0101314Y0200005D01*
X0101318Y0199944D01*
X0101326Y0199883D01*
X0101337Y0199822D01*
X0101352Y0199762D01*
X0101371Y0199704D01*
X0101393Y0199646D01*
X0101419Y0199590D01*
X0101448Y0199536D01*
X0101480Y0199484D01*
X0101516Y0199433D01*
X0101555Y0199385D01*
X0101596Y0199340D01*
X0101640Y0199297D01*
X0101687Y0199257D01*
X0101736Y0199220D01*
X0101788Y0199186D01*
X0101841Y0199155D01*
X0101896Y0199128D01*
X0101953Y0199104D01*
X0102011Y0199083D01*
X0102070Y0199066D01*
X0102130Y0199053D01*
X0102191Y0199044D01*
X0102252Y0199038D01*
X0102314Y0199036D01*
X0103314Y0199036D01*
X0102564Y0199036D02*
X0102495Y0199034D01*
X0102426Y0199028D01*
X0102358Y0199019D01*
X0102291Y0199006D01*
X0102224Y0198989D01*
X0102158Y0198968D01*
X0102094Y0198944D01*
X0102031Y0198916D01*
X0101969Y0198885D01*
X0101909Y0198851D01*
X0101852Y0198813D01*
X0101796Y0198772D01*
X0101743Y0198729D01*
X0101692Y0198682D01*
X0101644Y0198633D01*
X0101599Y0198581D01*
X0101557Y0198526D01*
X0101518Y0198470D01*
X0101481Y0198411D01*
X0101449Y0198350D01*
X0101419Y0198288D01*
X0101393Y0198224D01*
X0101371Y0198159D01*
X0101352Y0198093D01*
X0101337Y0198026D01*
X0101326Y0197958D01*
X0101318Y0197889D01*
X0101314Y0197820D01*
X0101314Y0197752D01*
X0101318Y0197683D01*
X0101326Y0197614D01*
X0101337Y0197546D01*
X0101352Y0197479D01*
X0101371Y0197413D01*
X0101393Y0197348D01*
X0101419Y0197284D01*
X0101449Y0197222D01*
X0101481Y0197161D01*
X0101518Y0197102D01*
X0101557Y0197046D01*
X0101599Y0196991D01*
X0101644Y0196939D01*
X0101692Y0196890D01*
X0101743Y0196843D01*
X0101796Y0196800D01*
X0101852Y0196759D01*
X0101909Y0196721D01*
X0101969Y0196687D01*
X0102031Y0196656D01*
X0102094Y0196628D01*
X0102158Y0196604D01*
X0102224Y0196583D01*
X0102291Y0196566D01*
X0102358Y0196553D01*
X0102426Y0196544D01*
X0102495Y0196538D01*
X0102564Y0196536D01*
X0103814Y0196536D01*
X0059189Y0213661D02*
X0057814Y0212911D01*
X0058314Y0211035D02*
X0058402Y0211037D01*
X0058489Y0211042D01*
X0058577Y0211051D01*
X0058664Y0211064D01*
X0058750Y0211080D01*
X0058835Y0211100D01*
X0058920Y0211124D01*
X0059004Y0211151D01*
X0059086Y0211181D01*
X0059167Y0211215D01*
X0059247Y0211252D01*
X0059325Y0211292D01*
X0059401Y0211336D01*
X0059475Y0211383D01*
X0059547Y0211432D01*
X0059618Y0211485D01*
X0059686Y0211541D01*
X0059751Y0211599D01*
X0059814Y0211660D01*
X0057813Y0212911D02*
X0057761Y0212878D01*
X0057710Y0212842D01*
X0057662Y0212803D01*
X0057617Y0212761D01*
X0057574Y0212716D01*
X0057534Y0212668D01*
X0057497Y0212619D01*
X0057463Y0212567D01*
X0057432Y0212513D01*
X0057404Y0212457D01*
X0057380Y0212400D01*
X0057360Y0212341D01*
X0057343Y0212282D01*
X0057330Y0212221D01*
X0057321Y0212160D01*
X0057315Y0212098D01*
X0057313Y0212036D01*
X0057314Y0212036D02*
X0057316Y0211976D01*
X0057321Y0211915D01*
X0057330Y0211856D01*
X0057343Y0211797D01*
X0057359Y0211738D01*
X0057379Y0211681D01*
X0057402Y0211626D01*
X0057429Y0211571D01*
X0057458Y0211519D01*
X0057491Y0211468D01*
X0057527Y0211419D01*
X0057565Y0211373D01*
X0057607Y0211329D01*
X0057651Y0211287D01*
X0057697Y0211249D01*
X0057746Y0211213D01*
X0057797Y0211180D01*
X0057849Y0211151D01*
X0057904Y0211124D01*
X0057959Y0211101D01*
X0058016Y0211081D01*
X0058075Y0211065D01*
X0058134Y0211052D01*
X0058193Y0211043D01*
X0058254Y0211038D01*
X0058314Y0211036D01*
X0057564Y0215161D02*
X0057629Y0215208D01*
X0057697Y0215252D01*
X0057766Y0215293D01*
X0057837Y0215331D01*
X0057909Y0215366D01*
X0057983Y0215398D01*
X0058058Y0215427D01*
X0058134Y0215452D01*
X0058212Y0215474D01*
X0058290Y0215493D01*
X0058369Y0215508D01*
X0058448Y0215520D01*
X0058528Y0215529D01*
X0058609Y0215534D01*
X0058689Y0215536D01*
X0058749Y0215534D01*
X0058810Y0215529D01*
X0058869Y0215520D01*
X0058928Y0215507D01*
X0058987Y0215491D01*
X0059044Y0215471D01*
X0059099Y0215448D01*
X0059154Y0215421D01*
X0059206Y0215392D01*
X0059257Y0215359D01*
X0059306Y0215323D01*
X0059352Y0215285D01*
X0059396Y0215243D01*
X0059438Y0215199D01*
X0059476Y0215153D01*
X0059512Y0215104D01*
X0059545Y0215053D01*
X0059574Y0215001D01*
X0059601Y0214946D01*
X0059624Y0214891D01*
X0059644Y0214834D01*
X0059660Y0214775D01*
X0059673Y0214716D01*
X0059682Y0214657D01*
X0059687Y0214596D01*
X0059689Y0214536D01*
X0059687Y0214474D01*
X0059681Y0214412D01*
X0059672Y0214351D01*
X0059659Y0214290D01*
X0059642Y0214231D01*
X0059622Y0214172D01*
X0059598Y0214115D01*
X0059570Y0214059D01*
X0059539Y0214005D01*
X0059505Y0213953D01*
X0059468Y0213904D01*
X0059428Y0213856D01*
X0059385Y0213811D01*
X0059340Y0213769D01*
X0059292Y0213730D01*
X0059241Y0213694D01*
X0059189Y0213661D01*
X0055464Y0212036D02*
X0054464Y0215536D01*
X0053714Y0213036D02*
X0053714Y0211036D01*
X0052964Y0212036D02*
X0055464Y0212036D01*
X0090314Y0154536D02*
X0090401Y0154534D01*
X0090488Y0154528D01*
X0090575Y0154519D01*
X0090661Y0154506D01*
X0090747Y0154489D01*
X0090832Y0154468D01*
X0090915Y0154443D01*
X0090998Y0154415D01*
X0091079Y0154384D01*
X0091159Y0154349D01*
X0091237Y0154310D01*
X0091314Y0154268D01*
X0091389Y0154223D01*
X0091461Y0154174D01*
X0091532Y0154123D01*
X0091600Y0154068D01*
X0091665Y0154011D01*
X0091728Y0153950D01*
X0091789Y0153887D01*
X0091846Y0153822D01*
X0091901Y0153754D01*
X0091952Y0153683D01*
X0092001Y0153611D01*
X0092046Y0153536D01*
X0092088Y0153459D01*
X0092127Y0153381D01*
X0092162Y0153301D01*
X0092193Y0153220D01*
X0092221Y0153137D01*
X0092246Y0153054D01*
X0092267Y0152969D01*
X0092284Y0152883D01*
X0092297Y0152797D01*
X0092306Y0152710D01*
X0092312Y0152623D01*
X0092314Y0152536D01*
X0092314Y0151286D01*
X0092314Y0152536D02*
X0090814Y0152536D01*
X0090754Y0152534D01*
X0090693Y0152529D01*
X0090634Y0152520D01*
X0090575Y0152507D01*
X0090516Y0152491D01*
X0090459Y0152471D01*
X0090404Y0152448D01*
X0090349Y0152421D01*
X0090297Y0152392D01*
X0090246Y0152359D01*
X0090197Y0152323D01*
X0090151Y0152285D01*
X0090107Y0152243D01*
X0090065Y0152199D01*
X0090027Y0152153D01*
X0089991Y0152104D01*
X0089958Y0152053D01*
X0089929Y0152001D01*
X0089902Y0151946D01*
X0089879Y0151891D01*
X0089859Y0151834D01*
X0089843Y0151775D01*
X0089830Y0151716D01*
X0089821Y0151657D01*
X0089816Y0151596D01*
X0089814Y0151536D01*
X0089814Y0151286D01*
X0089816Y0151217D01*
X0089822Y0151148D01*
X0089831Y0151080D01*
X0089844Y0151013D01*
X0089861Y0150946D01*
X0089882Y0150880D01*
X0089906Y0150816D01*
X0089934Y0150753D01*
X0089965Y0150691D01*
X0089999Y0150631D01*
X0090037Y0150574D01*
X0090078Y0150518D01*
X0090121Y0150465D01*
X0090168Y0150414D01*
X0090217Y0150366D01*
X0090269Y0150321D01*
X0090324Y0150279D01*
X0090380Y0150240D01*
X0090439Y0150203D01*
X0090500Y0150171D01*
X0090562Y0150141D01*
X0090626Y0150115D01*
X0090691Y0150093D01*
X0090757Y0150074D01*
X0090824Y0150059D01*
X0090892Y0150048D01*
X0090961Y0150040D01*
X0091030Y0150036D01*
X0091098Y0150036D01*
X0091167Y0150040D01*
X0091236Y0150048D01*
X0091304Y0150059D01*
X0091371Y0150074D01*
X0091437Y0150093D01*
X0091502Y0150115D01*
X0091566Y0150141D01*
X0091628Y0150171D01*
X0091689Y0150203D01*
X0091748Y0150240D01*
X0091804Y0150279D01*
X0091859Y0150321D01*
X0091911Y0150366D01*
X0091960Y0150414D01*
X0092007Y0150465D01*
X0092050Y0150518D01*
X0092091Y0150574D01*
X0092129Y0150631D01*
X0092163Y0150691D01*
X0092194Y0150753D01*
X0092222Y0150816D01*
X0092246Y0150880D01*
X0092267Y0150946D01*
X0092284Y0151013D01*
X0092297Y0151080D01*
X0092306Y0151148D01*
X0092312Y0151217D01*
X0092314Y0151286D01*
X0094664Y0151911D02*
X0096039Y0152661D01*
X0095539Y0154536D02*
X0095459Y0154534D01*
X0095378Y0154529D01*
X0095298Y0154520D01*
X0095219Y0154508D01*
X0095140Y0154493D01*
X0095062Y0154474D01*
X0094984Y0154452D01*
X0094908Y0154427D01*
X0094833Y0154398D01*
X0094759Y0154366D01*
X0094687Y0154331D01*
X0094616Y0154293D01*
X0094547Y0154252D01*
X0094479Y0154208D01*
X0094414Y0154161D01*
X0096039Y0152661D02*
X0096091Y0152694D01*
X0096142Y0152730D01*
X0096190Y0152769D01*
X0096235Y0152811D01*
X0096278Y0152856D01*
X0096318Y0152904D01*
X0096355Y0152953D01*
X0096389Y0153005D01*
X0096420Y0153059D01*
X0096448Y0153115D01*
X0096472Y0153172D01*
X0096492Y0153231D01*
X0096509Y0153290D01*
X0096522Y0153351D01*
X0096531Y0153412D01*
X0096537Y0153474D01*
X0096539Y0153536D01*
X0096537Y0153596D01*
X0096532Y0153657D01*
X0096523Y0153716D01*
X0096510Y0153775D01*
X0096494Y0153834D01*
X0096474Y0153891D01*
X0096451Y0153946D01*
X0096424Y0154001D01*
X0096395Y0154053D01*
X0096362Y0154104D01*
X0096326Y0154153D01*
X0096288Y0154199D01*
X0096246Y0154243D01*
X0096202Y0154285D01*
X0096156Y0154323D01*
X0096107Y0154359D01*
X0096056Y0154392D01*
X0096004Y0154421D01*
X0095949Y0154448D01*
X0095894Y0154471D01*
X0095837Y0154491D01*
X0095778Y0154507D01*
X0095719Y0154520D01*
X0095660Y0154529D01*
X0095599Y0154534D01*
X0095539Y0154536D01*
X0096664Y0150660D02*
X0096601Y0150599D01*
X0096536Y0150541D01*
X0096468Y0150485D01*
X0096397Y0150432D01*
X0096325Y0150383D01*
X0096251Y0150336D01*
X0096175Y0150292D01*
X0096097Y0150252D01*
X0096017Y0150215D01*
X0095936Y0150181D01*
X0095854Y0150151D01*
X0095770Y0150124D01*
X0095685Y0150100D01*
X0095600Y0150080D01*
X0095514Y0150064D01*
X0095427Y0150051D01*
X0095339Y0150042D01*
X0095252Y0150037D01*
X0095164Y0150035D01*
X0095164Y0150036D02*
X0095104Y0150038D01*
X0095043Y0150043D01*
X0094984Y0150052D01*
X0094925Y0150065D01*
X0094866Y0150081D01*
X0094809Y0150101D01*
X0094754Y0150124D01*
X0094699Y0150151D01*
X0094647Y0150180D01*
X0094596Y0150213D01*
X0094547Y0150249D01*
X0094501Y0150287D01*
X0094457Y0150329D01*
X0094415Y0150373D01*
X0094377Y0150419D01*
X0094341Y0150468D01*
X0094308Y0150519D01*
X0094279Y0150571D01*
X0094252Y0150626D01*
X0094229Y0150681D01*
X0094209Y0150738D01*
X0094193Y0150797D01*
X0094180Y0150856D01*
X0094171Y0150915D01*
X0094166Y0150976D01*
X0094164Y0151036D01*
X0094163Y0151036D02*
X0094165Y0151098D01*
X0094171Y0151160D01*
X0094180Y0151221D01*
X0094193Y0151282D01*
X0094210Y0151341D01*
X0094230Y0151400D01*
X0094254Y0151457D01*
X0094282Y0151513D01*
X0094313Y0151567D01*
X0094347Y0151619D01*
X0094384Y0151668D01*
X0094424Y0151716D01*
X0094467Y0151761D01*
X0094512Y0151803D01*
X0094560Y0151842D01*
X0094611Y0151878D01*
X0094663Y0151911D01*
X0168814Y0092036D02*
X0170064Y0087536D01*
X0173664Y0089411D02*
X0175039Y0090161D01*
X0174539Y0092036D02*
X0174459Y0092034D01*
X0174378Y0092029D01*
X0174298Y0092020D01*
X0174219Y0092008D01*
X0174140Y0091993D01*
X0174062Y0091974D01*
X0173984Y0091952D01*
X0173908Y0091927D01*
X0173833Y0091898D01*
X0173759Y0091866D01*
X0173687Y0091831D01*
X0173616Y0091793D01*
X0173547Y0091752D01*
X0173479Y0091708D01*
X0173414Y0091661D01*
X0175039Y0090161D02*
X0175091Y0090194D01*
X0175142Y0090230D01*
X0175190Y0090269D01*
X0175235Y0090311D01*
X0175278Y0090356D01*
X0175318Y0090404D01*
X0175355Y0090453D01*
X0175389Y0090505D01*
X0175420Y0090559D01*
X0175448Y0090615D01*
X0175472Y0090672D01*
X0175492Y0090731D01*
X0175509Y0090790D01*
X0175522Y0090851D01*
X0175531Y0090912D01*
X0175537Y0090974D01*
X0175539Y0091036D01*
X0175537Y0091096D01*
X0175532Y0091157D01*
X0175523Y0091216D01*
X0175510Y0091275D01*
X0175494Y0091334D01*
X0175474Y0091391D01*
X0175451Y0091446D01*
X0175424Y0091501D01*
X0175395Y0091553D01*
X0175362Y0091604D01*
X0175326Y0091653D01*
X0175288Y0091699D01*
X0175246Y0091743D01*
X0175202Y0091785D01*
X0175156Y0091823D01*
X0175107Y0091859D01*
X0175056Y0091892D01*
X0175004Y0091921D01*
X0174949Y0091948D01*
X0174894Y0091971D01*
X0174837Y0091991D01*
X0174778Y0092007D01*
X0174719Y0092020D01*
X0174660Y0092029D01*
X0174599Y0092034D01*
X0174539Y0092036D01*
X0175664Y0088160D02*
X0175601Y0088099D01*
X0175536Y0088041D01*
X0175468Y0087985D01*
X0175397Y0087932D01*
X0175325Y0087883D01*
X0175251Y0087836D01*
X0175175Y0087792D01*
X0175097Y0087752D01*
X0175017Y0087715D01*
X0174936Y0087681D01*
X0174854Y0087651D01*
X0174770Y0087624D01*
X0174685Y0087600D01*
X0174600Y0087580D01*
X0174514Y0087564D01*
X0174427Y0087551D01*
X0174339Y0087542D01*
X0174252Y0087537D01*
X0174164Y0087535D01*
X0174164Y0087536D02*
X0174104Y0087538D01*
X0174043Y0087543D01*
X0173984Y0087552D01*
X0173925Y0087565D01*
X0173866Y0087581D01*
X0173809Y0087601D01*
X0173754Y0087624D01*
X0173699Y0087651D01*
X0173647Y0087680D01*
X0173596Y0087713D01*
X0173547Y0087749D01*
X0173501Y0087787D01*
X0173457Y0087829D01*
X0173415Y0087873D01*
X0173377Y0087919D01*
X0173341Y0087968D01*
X0173308Y0088019D01*
X0173279Y0088071D01*
X0173252Y0088126D01*
X0173229Y0088181D01*
X0173209Y0088238D01*
X0173193Y0088297D01*
X0173180Y0088356D01*
X0173171Y0088415D01*
X0173166Y0088476D01*
X0173164Y0088536D01*
X0173163Y0088536D02*
X0173165Y0088598D01*
X0173171Y0088660D01*
X0173180Y0088721D01*
X0173193Y0088782D01*
X0173210Y0088841D01*
X0173230Y0088900D01*
X0173254Y0088957D01*
X0173282Y0089013D01*
X0173313Y0089067D01*
X0173347Y0089119D01*
X0173384Y0089168D01*
X0173424Y0089216D01*
X0173467Y0089261D01*
X0173512Y0089303D01*
X0173560Y0089342D01*
X0173611Y0089378D01*
X0173663Y0089411D01*
X0171314Y0091536D02*
X0171314Y0092036D01*
X0168814Y0092036D01*
X0242814Y0088036D02*
X0245314Y0088036D01*
X0244064Y0088036D02*
X0244064Y0092536D01*
X0245314Y0091536D01*
X0247664Y0089911D02*
X0249039Y0090661D01*
X0248539Y0092536D02*
X0248459Y0092534D01*
X0248378Y0092529D01*
X0248298Y0092520D01*
X0248219Y0092508D01*
X0248140Y0092493D01*
X0248062Y0092474D01*
X0247984Y0092452D01*
X0247908Y0092427D01*
X0247833Y0092398D01*
X0247759Y0092366D01*
X0247687Y0092331D01*
X0247616Y0092293D01*
X0247547Y0092252D01*
X0247479Y0092208D01*
X0247414Y0092161D01*
X0249039Y0090661D02*
X0249091Y0090694D01*
X0249142Y0090730D01*
X0249190Y0090769D01*
X0249235Y0090811D01*
X0249278Y0090856D01*
X0249318Y0090904D01*
X0249355Y0090953D01*
X0249389Y0091005D01*
X0249420Y0091059D01*
X0249448Y0091115D01*
X0249472Y0091172D01*
X0249492Y0091231D01*
X0249509Y0091290D01*
X0249522Y0091351D01*
X0249531Y0091412D01*
X0249537Y0091474D01*
X0249539Y0091536D01*
X0249537Y0091596D01*
X0249532Y0091657D01*
X0249523Y0091716D01*
X0249510Y0091775D01*
X0249494Y0091834D01*
X0249474Y0091891D01*
X0249451Y0091946D01*
X0249424Y0092001D01*
X0249395Y0092053D01*
X0249362Y0092104D01*
X0249326Y0092153D01*
X0249288Y0092199D01*
X0249246Y0092243D01*
X0249202Y0092285D01*
X0249156Y0092323D01*
X0249107Y0092359D01*
X0249056Y0092392D01*
X0249004Y0092421D01*
X0248949Y0092448D01*
X0248894Y0092471D01*
X0248837Y0092491D01*
X0248778Y0092507D01*
X0248719Y0092520D01*
X0248660Y0092529D01*
X0248599Y0092534D01*
X0248539Y0092536D01*
X0249664Y0088660D02*
X0249601Y0088599D01*
X0249536Y0088541D01*
X0249468Y0088485D01*
X0249397Y0088432D01*
X0249325Y0088383D01*
X0249251Y0088336D01*
X0249175Y0088292D01*
X0249097Y0088252D01*
X0249017Y0088215D01*
X0248936Y0088181D01*
X0248854Y0088151D01*
X0248770Y0088124D01*
X0248685Y0088100D01*
X0248600Y0088080D01*
X0248514Y0088064D01*
X0248427Y0088051D01*
X0248339Y0088042D01*
X0248252Y0088037D01*
X0248164Y0088035D01*
X0248164Y0088036D02*
X0248104Y0088038D01*
X0248043Y0088043D01*
X0247984Y0088052D01*
X0247925Y0088065D01*
X0247866Y0088081D01*
X0247809Y0088101D01*
X0247754Y0088124D01*
X0247699Y0088151D01*
X0247647Y0088180D01*
X0247596Y0088213D01*
X0247547Y0088249D01*
X0247501Y0088287D01*
X0247457Y0088329D01*
X0247415Y0088373D01*
X0247377Y0088419D01*
X0247341Y0088468D01*
X0247308Y0088519D01*
X0247279Y0088571D01*
X0247252Y0088626D01*
X0247229Y0088681D01*
X0247209Y0088738D01*
X0247193Y0088797D01*
X0247180Y0088856D01*
X0247171Y0088915D01*
X0247166Y0088976D01*
X0247164Y0089036D01*
X0247163Y0089036D02*
X0247165Y0089098D01*
X0247171Y0089160D01*
X0247180Y0089221D01*
X0247193Y0089282D01*
X0247210Y0089341D01*
X0247230Y0089400D01*
X0247254Y0089457D01*
X0247282Y0089513D01*
X0247313Y0089567D01*
X0247347Y0089619D01*
X0247384Y0089668D01*
X0247424Y0089716D01*
X0247467Y0089761D01*
X0247512Y0089803D01*
X0247560Y0089842D01*
X0247611Y0089878D01*
X0247663Y0089911D01*
X0342314Y0086536D02*
X0344814Y0086536D01*
X0342689Y0089036D01*
X0343439Y0091036D02*
X0343512Y0091034D01*
X0343584Y0091029D01*
X0343656Y0091020D01*
X0343728Y0091007D01*
X0343799Y0090991D01*
X0343869Y0090971D01*
X0343937Y0090947D01*
X0344005Y0090921D01*
X0344071Y0090890D01*
X0344136Y0090857D01*
X0344198Y0090820D01*
X0344259Y0090781D01*
X0344318Y0090738D01*
X0344375Y0090692D01*
X0344429Y0090644D01*
X0344480Y0090593D01*
X0344530Y0090539D01*
X0344576Y0090483D01*
X0344619Y0090425D01*
X0344660Y0090364D01*
X0344697Y0090302D01*
X0344731Y0090238D01*
X0344762Y0090172D01*
X0344790Y0090105D01*
X0344814Y0090036D01*
X0342689Y0089036D02*
X0342643Y0089082D01*
X0342599Y0089131D01*
X0342559Y0089182D01*
X0342521Y0089235D01*
X0342486Y0089290D01*
X0342454Y0089347D01*
X0342425Y0089405D01*
X0342399Y0089465D01*
X0342377Y0089527D01*
X0342358Y0089589D01*
X0342342Y0089652D01*
X0342330Y0089716D01*
X0342321Y0089781D01*
X0342316Y0089846D01*
X0342314Y0089911D01*
X0342316Y0089976D01*
X0342322Y0090042D01*
X0342331Y0090106D01*
X0342344Y0090170D01*
X0342361Y0090234D01*
X0342382Y0090296D01*
X0342406Y0090357D01*
X0342434Y0090416D01*
X0342465Y0090474D01*
X0342499Y0090529D01*
X0342537Y0090583D01*
X0342577Y0090634D01*
X0342621Y0090683D01*
X0342667Y0090729D01*
X0342716Y0090773D01*
X0342767Y0090813D01*
X0342821Y0090851D01*
X0342877Y0090885D01*
X0342934Y0090916D01*
X0342993Y0090944D01*
X0343054Y0090968D01*
X0343116Y0090989D01*
X0343180Y0091006D01*
X0343244Y0091019D01*
X0343308Y0091028D01*
X0343374Y0091034D01*
X0343439Y0091036D01*
X0347164Y0088411D02*
X0348539Y0089161D01*
X0348039Y0091036D02*
X0347959Y0091034D01*
X0347878Y0091029D01*
X0347798Y0091020D01*
X0347719Y0091008D01*
X0347640Y0090993D01*
X0347562Y0090974D01*
X0347484Y0090952D01*
X0347408Y0090927D01*
X0347333Y0090898D01*
X0347259Y0090866D01*
X0347187Y0090831D01*
X0347116Y0090793D01*
X0347047Y0090752D01*
X0346979Y0090708D01*
X0346914Y0090661D01*
X0348539Y0089161D02*
X0348591Y0089194D01*
X0348642Y0089230D01*
X0348690Y0089269D01*
X0348735Y0089311D01*
X0348778Y0089356D01*
X0348818Y0089404D01*
X0348855Y0089453D01*
X0348889Y0089505D01*
X0348920Y0089559D01*
X0348948Y0089615D01*
X0348972Y0089672D01*
X0348992Y0089731D01*
X0349009Y0089790D01*
X0349022Y0089851D01*
X0349031Y0089912D01*
X0349037Y0089974D01*
X0349039Y0090036D01*
X0349037Y0090096D01*
X0349032Y0090157D01*
X0349023Y0090216D01*
X0349010Y0090275D01*
X0348994Y0090334D01*
X0348974Y0090391D01*
X0348951Y0090446D01*
X0348924Y0090501D01*
X0348895Y0090553D01*
X0348862Y0090604D01*
X0348826Y0090653D01*
X0348788Y0090699D01*
X0348746Y0090743D01*
X0348702Y0090785D01*
X0348656Y0090823D01*
X0348607Y0090859D01*
X0348556Y0090892D01*
X0348504Y0090921D01*
X0348449Y0090948D01*
X0348394Y0090971D01*
X0348337Y0090991D01*
X0348278Y0091007D01*
X0348219Y0091020D01*
X0348160Y0091029D01*
X0348099Y0091034D01*
X0348039Y0091036D01*
X0349164Y0087160D02*
X0349101Y0087099D01*
X0349036Y0087041D01*
X0348968Y0086985D01*
X0348897Y0086932D01*
X0348825Y0086883D01*
X0348751Y0086836D01*
X0348675Y0086792D01*
X0348597Y0086752D01*
X0348517Y0086715D01*
X0348436Y0086681D01*
X0348354Y0086651D01*
X0348270Y0086624D01*
X0348185Y0086600D01*
X0348100Y0086580D01*
X0348014Y0086564D01*
X0347927Y0086551D01*
X0347839Y0086542D01*
X0347752Y0086537D01*
X0347664Y0086535D01*
X0347664Y0086536D02*
X0347604Y0086538D01*
X0347543Y0086543D01*
X0347484Y0086552D01*
X0347425Y0086565D01*
X0347366Y0086581D01*
X0347309Y0086601D01*
X0347254Y0086624D01*
X0347199Y0086651D01*
X0347147Y0086680D01*
X0347096Y0086713D01*
X0347047Y0086749D01*
X0347001Y0086787D01*
X0346957Y0086829D01*
X0346915Y0086873D01*
X0346877Y0086919D01*
X0346841Y0086968D01*
X0346808Y0087019D01*
X0346779Y0087071D01*
X0346752Y0087126D01*
X0346729Y0087181D01*
X0346709Y0087238D01*
X0346693Y0087297D01*
X0346680Y0087356D01*
X0346671Y0087415D01*
X0346666Y0087476D01*
X0346664Y0087536D01*
X0346663Y0087536D02*
X0346665Y0087598D01*
X0346671Y0087660D01*
X0346680Y0087721D01*
X0346693Y0087782D01*
X0346710Y0087841D01*
X0346730Y0087900D01*
X0346754Y0087957D01*
X0346782Y0088013D01*
X0346813Y0088067D01*
X0346847Y0088119D01*
X0346884Y0088168D01*
X0346924Y0088216D01*
X0346967Y0088261D01*
X0347012Y0088303D01*
X0347060Y0088342D01*
X0347111Y0088378D01*
X0347163Y0088411D01*
X0446464Y0145036D02*
X0446464Y0145536D01*
X0446466Y0145596D01*
X0446471Y0145657D01*
X0446480Y0145716D01*
X0446493Y0145775D01*
X0446509Y0145834D01*
X0446529Y0145891D01*
X0446552Y0145946D01*
X0446579Y0146001D01*
X0446608Y0146053D01*
X0446641Y0146104D01*
X0446677Y0146153D01*
X0446715Y0146199D01*
X0446757Y0146243D01*
X0446801Y0146285D01*
X0446847Y0146323D01*
X0446896Y0146359D01*
X0446947Y0146392D01*
X0446999Y0146421D01*
X0447054Y0146448D01*
X0447109Y0146471D01*
X0447166Y0146491D01*
X0447225Y0146507D01*
X0447284Y0146520D01*
X0447343Y0146529D01*
X0447404Y0146534D01*
X0447464Y0146536D01*
X0448964Y0146536D01*
X0448964Y0148536D01*
X0446464Y0148536D01*
X0451314Y0145911D02*
X0452689Y0146661D01*
X0452189Y0148536D02*
X0452109Y0148534D01*
X0452028Y0148529D01*
X0451948Y0148520D01*
X0451869Y0148508D01*
X0451790Y0148493D01*
X0451712Y0148474D01*
X0451634Y0148452D01*
X0451558Y0148427D01*
X0451483Y0148398D01*
X0451409Y0148366D01*
X0451337Y0148331D01*
X0451266Y0148293D01*
X0451197Y0148252D01*
X0451129Y0148208D01*
X0451064Y0148161D01*
X0452689Y0146661D02*
X0452741Y0146694D01*
X0452792Y0146730D01*
X0452840Y0146769D01*
X0452885Y0146811D01*
X0452928Y0146856D01*
X0452968Y0146904D01*
X0453005Y0146953D01*
X0453039Y0147005D01*
X0453070Y0147059D01*
X0453098Y0147115D01*
X0453122Y0147172D01*
X0453142Y0147231D01*
X0453159Y0147290D01*
X0453172Y0147351D01*
X0453181Y0147412D01*
X0453187Y0147474D01*
X0453189Y0147536D01*
X0453187Y0147596D01*
X0453182Y0147657D01*
X0453173Y0147716D01*
X0453160Y0147775D01*
X0453144Y0147834D01*
X0453124Y0147891D01*
X0453101Y0147946D01*
X0453074Y0148001D01*
X0453045Y0148053D01*
X0453012Y0148104D01*
X0452976Y0148153D01*
X0452938Y0148199D01*
X0452896Y0148243D01*
X0452852Y0148285D01*
X0452806Y0148323D01*
X0452757Y0148359D01*
X0452706Y0148392D01*
X0452654Y0148421D01*
X0452599Y0148448D01*
X0452544Y0148471D01*
X0452487Y0148491D01*
X0452428Y0148507D01*
X0452369Y0148520D01*
X0452310Y0148529D01*
X0452249Y0148534D01*
X0452189Y0148536D01*
X0453314Y0144660D02*
X0453251Y0144599D01*
X0453186Y0144541D01*
X0453118Y0144485D01*
X0453047Y0144432D01*
X0452975Y0144383D01*
X0452901Y0144336D01*
X0452825Y0144292D01*
X0452747Y0144252D01*
X0452667Y0144215D01*
X0452586Y0144181D01*
X0452504Y0144151D01*
X0452420Y0144124D01*
X0452335Y0144100D01*
X0452250Y0144080D01*
X0452164Y0144064D01*
X0452077Y0144051D01*
X0451989Y0144042D01*
X0451902Y0144037D01*
X0451814Y0144035D01*
X0451814Y0144036D02*
X0451754Y0144038D01*
X0451693Y0144043D01*
X0451634Y0144052D01*
X0451575Y0144065D01*
X0451516Y0144081D01*
X0451459Y0144101D01*
X0451404Y0144124D01*
X0451349Y0144151D01*
X0451297Y0144180D01*
X0451246Y0144213D01*
X0451197Y0144249D01*
X0451151Y0144287D01*
X0451107Y0144329D01*
X0451065Y0144373D01*
X0451027Y0144419D01*
X0450991Y0144468D01*
X0450958Y0144519D01*
X0450929Y0144571D01*
X0450902Y0144626D01*
X0450879Y0144681D01*
X0450859Y0144738D01*
X0450843Y0144797D01*
X0450830Y0144856D01*
X0450821Y0144915D01*
X0450816Y0144976D01*
X0450814Y0145036D01*
X0450813Y0145036D02*
X0450815Y0145098D01*
X0450821Y0145160D01*
X0450830Y0145221D01*
X0450843Y0145282D01*
X0450860Y0145341D01*
X0450880Y0145400D01*
X0450904Y0145457D01*
X0450932Y0145513D01*
X0450963Y0145567D01*
X0450997Y0145619D01*
X0451034Y0145668D01*
X0451074Y0145716D01*
X0451117Y0145761D01*
X0451162Y0145803D01*
X0451210Y0145842D01*
X0451261Y0145878D01*
X0451313Y0145911D01*
X0448964Y0144036D02*
X0447464Y0144036D01*
X0447404Y0144038D01*
X0447343Y0144043D01*
X0447284Y0144052D01*
X0447225Y0144065D01*
X0447166Y0144081D01*
X0447109Y0144101D01*
X0447054Y0144124D01*
X0446999Y0144151D01*
X0446947Y0144180D01*
X0446896Y0144213D01*
X0446847Y0144249D01*
X0446801Y0144287D01*
X0446757Y0144329D01*
X0446715Y0144373D01*
X0446677Y0144419D01*
X0446641Y0144468D01*
X0446608Y0144519D01*
X0446579Y0144571D01*
X0446552Y0144626D01*
X0446529Y0144681D01*
X0446509Y0144738D01*
X0446493Y0144797D01*
X0446480Y0144856D01*
X0446471Y0144915D01*
X0446466Y0144976D01*
X0446464Y0145036D01*
X0447714Y0211536D02*
X0448964Y0211536D01*
X0447714Y0211536D02*
X0447645Y0211538D01*
X0447576Y0211544D01*
X0447508Y0211553D01*
X0447441Y0211566D01*
X0447374Y0211583D01*
X0447308Y0211604D01*
X0447244Y0211628D01*
X0447181Y0211656D01*
X0447119Y0211687D01*
X0447059Y0211721D01*
X0447002Y0211759D01*
X0446946Y0211800D01*
X0446893Y0211843D01*
X0446842Y0211890D01*
X0446794Y0211939D01*
X0446749Y0211991D01*
X0446707Y0212046D01*
X0446668Y0212102D01*
X0446631Y0212161D01*
X0446599Y0212222D01*
X0446569Y0212284D01*
X0446543Y0212348D01*
X0446521Y0212413D01*
X0446502Y0212479D01*
X0446487Y0212546D01*
X0446476Y0212614D01*
X0446468Y0212683D01*
X0446464Y0212752D01*
X0446464Y0212820D01*
X0446468Y0212889D01*
X0446476Y0212958D01*
X0446487Y0213026D01*
X0446502Y0213093D01*
X0446521Y0213159D01*
X0446543Y0213224D01*
X0446569Y0213288D01*
X0446599Y0213350D01*
X0446631Y0213411D01*
X0446668Y0213470D01*
X0446707Y0213526D01*
X0446749Y0213581D01*
X0446794Y0213633D01*
X0446842Y0213682D01*
X0446893Y0213729D01*
X0446946Y0213772D01*
X0447002Y0213813D01*
X0447059Y0213851D01*
X0447119Y0213885D01*
X0447181Y0213916D01*
X0447244Y0213944D01*
X0447308Y0213968D01*
X0447374Y0213989D01*
X0447441Y0214006D01*
X0447508Y0214019D01*
X0447576Y0214028D01*
X0447645Y0214034D01*
X0447714Y0214036D01*
X0447464Y0214036D02*
X0448464Y0214036D01*
X0447464Y0214036D02*
X0447402Y0214038D01*
X0447341Y0214044D01*
X0447280Y0214053D01*
X0447220Y0214066D01*
X0447161Y0214083D01*
X0447103Y0214104D01*
X0447046Y0214128D01*
X0446991Y0214155D01*
X0446938Y0214186D01*
X0446886Y0214220D01*
X0446837Y0214257D01*
X0446790Y0214297D01*
X0446746Y0214340D01*
X0446705Y0214385D01*
X0446666Y0214433D01*
X0446630Y0214484D01*
X0446598Y0214536D01*
X0446569Y0214590D01*
X0446543Y0214646D01*
X0446521Y0214704D01*
X0446502Y0214762D01*
X0446487Y0214822D01*
X0446476Y0214883D01*
X0446468Y0214944D01*
X0446464Y0215005D01*
X0446464Y0215067D01*
X0446468Y0215128D01*
X0446476Y0215189D01*
X0446487Y0215250D01*
X0446502Y0215310D01*
X0446521Y0215368D01*
X0446543Y0215426D01*
X0446569Y0215482D01*
X0446598Y0215536D01*
X0446630Y0215588D01*
X0446666Y0215639D01*
X0446705Y0215687D01*
X0446746Y0215732D01*
X0446790Y0215775D01*
X0446837Y0215815D01*
X0446886Y0215852D01*
X0446938Y0215886D01*
X0446991Y0215917D01*
X0447046Y0215944D01*
X0447103Y0215968D01*
X0447161Y0215989D01*
X0447220Y0216006D01*
X0447280Y0216019D01*
X0447341Y0216028D01*
X0447402Y0216034D01*
X0447464Y0216036D01*
X0448964Y0216036D01*
X0452689Y0214161D02*
X0452741Y0214194D01*
X0452792Y0214230D01*
X0452840Y0214269D01*
X0452885Y0214311D01*
X0452928Y0214356D01*
X0452968Y0214404D01*
X0453005Y0214453D01*
X0453039Y0214505D01*
X0453070Y0214559D01*
X0453098Y0214615D01*
X0453122Y0214672D01*
X0453142Y0214731D01*
X0453159Y0214790D01*
X0453172Y0214851D01*
X0453181Y0214912D01*
X0453187Y0214974D01*
X0453189Y0215036D01*
X0453187Y0215096D01*
X0453182Y0215157D01*
X0453173Y0215216D01*
X0453160Y0215275D01*
X0453144Y0215334D01*
X0453124Y0215391D01*
X0453101Y0215446D01*
X0453074Y0215501D01*
X0453045Y0215553D01*
X0453012Y0215604D01*
X0452976Y0215653D01*
X0452938Y0215699D01*
X0452896Y0215743D01*
X0452852Y0215785D01*
X0452806Y0215823D01*
X0452757Y0215859D01*
X0452706Y0215892D01*
X0452654Y0215921D01*
X0452599Y0215948D01*
X0452544Y0215971D01*
X0452487Y0215991D01*
X0452428Y0216007D01*
X0452369Y0216020D01*
X0452310Y0216029D01*
X0452249Y0216034D01*
X0452189Y0216036D01*
X0452109Y0216034D01*
X0452028Y0216029D01*
X0451948Y0216020D01*
X0451869Y0216008D01*
X0451790Y0215993D01*
X0451712Y0215974D01*
X0451634Y0215952D01*
X0451558Y0215927D01*
X0451483Y0215898D01*
X0451409Y0215866D01*
X0451337Y0215831D01*
X0451266Y0215793D01*
X0451197Y0215752D01*
X0451129Y0215708D01*
X0451064Y0215661D01*
X0453314Y0212160D02*
X0453251Y0212099D01*
X0453186Y0212041D01*
X0453118Y0211985D01*
X0453047Y0211932D01*
X0452975Y0211883D01*
X0452901Y0211836D01*
X0452825Y0211792D01*
X0452747Y0211752D01*
X0452667Y0211715D01*
X0452586Y0211681D01*
X0452504Y0211651D01*
X0452420Y0211624D01*
X0452335Y0211600D01*
X0452250Y0211580D01*
X0452164Y0211564D01*
X0452077Y0211551D01*
X0451989Y0211542D01*
X0451902Y0211537D01*
X0451814Y0211535D01*
X0451814Y0211536D02*
X0451754Y0211538D01*
X0451693Y0211543D01*
X0451634Y0211552D01*
X0451575Y0211565D01*
X0451516Y0211581D01*
X0451459Y0211601D01*
X0451404Y0211624D01*
X0451349Y0211651D01*
X0451297Y0211680D01*
X0451246Y0211713D01*
X0451197Y0211749D01*
X0451151Y0211787D01*
X0451107Y0211829D01*
X0451065Y0211873D01*
X0451027Y0211919D01*
X0450991Y0211968D01*
X0450958Y0212019D01*
X0450929Y0212071D01*
X0450902Y0212126D01*
X0450879Y0212181D01*
X0450859Y0212238D01*
X0450843Y0212297D01*
X0450830Y0212356D01*
X0450821Y0212415D01*
X0450816Y0212476D01*
X0450814Y0212536D01*
X0451314Y0213411D02*
X0452689Y0214161D01*
X0451313Y0213411D02*
X0451261Y0213378D01*
X0451210Y0213342D01*
X0451162Y0213303D01*
X0451117Y0213261D01*
X0451074Y0213216D01*
X0451034Y0213168D01*
X0450997Y0213119D01*
X0450963Y0213067D01*
X0450932Y0213013D01*
X0450904Y0212957D01*
X0450880Y0212900D01*
X0450860Y0212841D01*
X0450843Y0212782D01*
X0450830Y0212721D01*
X0450821Y0212660D01*
X0450815Y0212598D01*
X0450813Y0212536D01*
D15*
X0140481Y0169160D02*
X0140481Y0269160D01*
X0137725Y0269160D01*
X0137725Y0267979D01*
X0136544Y0267979D01*
X0136544Y0170341D01*
X0136544Y0169160D01*
X0134969Y0169160D01*
X0136544Y0170341D02*
X0137725Y0170341D01*
X0137725Y0169160D01*
X0140481Y0169160D01*
X0123158Y0169160D02*
X0119221Y0169160D01*
X0119221Y0173884D01*
X0137725Y0261680D02*
X0137725Y0263254D01*
X0139300Y0262467D01*
X0137725Y0261680D01*
X0137725Y0262123D02*
X0138612Y0262123D01*
X0138391Y0262921D02*
X0137725Y0262921D01*
X0136544Y0267979D02*
X0136544Y0269160D01*
X0134969Y0269160D01*
X0123158Y0269160D02*
X0119221Y0269160D01*
X0119221Y0264435D01*
M02*
