G75*
%MOIN*%
%OFA0B0*%
%FSLAX25Y25*%
%IPPOS*%
%LPD*%
%AMOC8*
5,1,8,0,0,1.08239X$1,22.5*
%
%ADD10R,0.65000X0.65000*%
%ADD11R,0.60000X0.65000*%
%ADD12R,0.20000X0.35000*%
%ADD13R,2.25000X1.10000*%
%ADD14R,0.05500X0.05500*%
%ADD15OC8,0.05200*%
%ADD16C,0.06000*%
%ADD17R,0.03543X0.02756*%
%ADD18R,0.02756X0.03543*%
%ADD19C,0.05200*%
%ADD20OC8,0.08500*%
%ADD21R,0.03100X0.03500*%
%ADD22R,0.05118X0.01181*%
%ADD23R,0.08661X0.07087*%
%ADD24C,0.05150*%
%ADD25C,0.05937*%
%ADD26C,0.00600*%
%ADD27C,0.03100*%
%ADD28C,0.01200*%
D10*
X0453500Y0089204D03*
D11*
X0051000Y0089204D03*
D12*
X0116000Y0054204D03*
X0386000Y0054204D03*
D13*
X0253500Y0251704D03*
D14*
X0011000Y0071704D03*
X0011000Y0111704D03*
X0086000Y0111704D03*
X0086000Y0071704D03*
X0416000Y0071704D03*
X0416000Y0111704D03*
X0491000Y0111704D03*
X0491000Y0071704D03*
D15*
X0381000Y0211704D03*
X0388500Y0216704D03*
X0381000Y0221704D03*
D16*
X0417100Y0223404D02*
X0417100Y0229404D01*
X0434900Y0229404D02*
X0434900Y0223404D01*
X0434900Y0249004D02*
X0434900Y0255004D01*
X0417100Y0255004D02*
X0417100Y0249004D01*
X0417100Y0190004D02*
X0417100Y0184004D01*
X0434900Y0184004D02*
X0434900Y0190004D01*
X0409000Y0166704D02*
X0403000Y0166704D01*
X0417100Y0164404D02*
X0417100Y0158404D01*
X0434900Y0158404D02*
X0434900Y0164404D01*
X0409000Y0146704D02*
X0403000Y0146704D01*
X0379000Y0146704D02*
X0373000Y0146704D01*
X0373000Y0126704D02*
X0379000Y0126704D01*
X0403000Y0126704D02*
X0409000Y0126704D01*
X0409000Y0096704D02*
X0403000Y0096704D01*
X0379000Y0096704D02*
X0373000Y0096704D01*
X0329900Y0098404D02*
X0329900Y0104404D01*
X0312100Y0104404D02*
X0312100Y0098404D01*
X0282400Y0098404D02*
X0282400Y0104404D01*
X0264600Y0104404D02*
X0264600Y0098404D01*
X0264600Y0124004D02*
X0264600Y0130004D01*
X0282400Y0130004D02*
X0282400Y0124004D01*
X0312100Y0124004D02*
X0312100Y0130004D01*
X0329900Y0130004D02*
X0329900Y0124004D01*
X0373000Y0166704D02*
X0379000Y0166704D01*
X0204900Y0130004D02*
X0204900Y0124004D01*
X0187100Y0124004D02*
X0187100Y0130004D01*
X0187100Y0104404D02*
X0187100Y0098404D01*
X0204900Y0098404D02*
X0204900Y0104404D01*
X0129000Y0096704D02*
X0123000Y0096704D01*
X0099000Y0096704D02*
X0093000Y0096704D01*
X0093000Y0126704D02*
X0099000Y0126704D01*
X0123000Y0126704D02*
X0129000Y0126704D01*
X0129000Y0146704D02*
X0123000Y0146704D01*
X0099000Y0146704D02*
X0093000Y0146704D01*
X0082400Y0160904D02*
X0082400Y0166904D01*
X0093000Y0166704D02*
X0099000Y0166704D01*
X0123000Y0166704D02*
X0129000Y0166704D01*
X0082400Y0186504D02*
X0082400Y0192504D01*
X0064600Y0192504D02*
X0064600Y0186504D01*
X0064600Y0166904D02*
X0064600Y0160904D01*
X0019000Y0216704D02*
X0013000Y0216704D01*
X0013000Y0226704D02*
X0019000Y0226704D01*
X0019000Y0236704D02*
X0013000Y0236704D01*
X0013000Y0246704D02*
X0019000Y0246704D01*
X0019000Y0256704D02*
X0013000Y0256704D01*
X0013000Y0266704D02*
X0019000Y0266704D01*
X0019000Y0276704D02*
X0013000Y0276704D01*
X0013000Y0286704D02*
X0019000Y0286704D01*
X0064600Y0255004D02*
X0064600Y0249004D01*
X0082400Y0249004D02*
X0082400Y0255004D01*
X0082400Y0229404D02*
X0082400Y0223404D01*
X0064600Y0223404D02*
X0064600Y0229404D01*
D17*
X0066000Y0216763D03*
X0066000Y0211645D03*
X0066000Y0204263D03*
X0066000Y0199145D03*
X0081000Y0209145D03*
X0081000Y0214263D03*
X0101000Y0204263D03*
X0101000Y0199145D03*
X0101000Y0236645D03*
X0101000Y0241763D03*
D18*
X0098559Y0249204D03*
X0093441Y0249204D03*
X0093559Y0211704D03*
X0088441Y0211704D03*
X0088441Y0191704D03*
X0093559Y0191704D03*
D19*
X0146000Y0114304D02*
X0146000Y0109104D01*
X0156000Y0109104D02*
X0156000Y0114304D01*
X0166000Y0114304D02*
X0166000Y0109104D01*
D20*
X0443200Y0276704D03*
X0468800Y0276704D03*
D21*
X0097200Y0228204D03*
X0089600Y0228204D03*
X0090900Y0235204D03*
X0087100Y0243204D03*
X0094700Y0243204D03*
X0093400Y0220204D03*
X0076100Y0208204D03*
X0072300Y0200204D03*
X0079900Y0200204D03*
X0087100Y0205704D03*
X0094700Y0205704D03*
X0090900Y0197704D03*
D22*
X0115705Y0203771D03*
X0115705Y0205739D03*
X0115705Y0207708D03*
X0115705Y0209676D03*
X0115705Y0211645D03*
X0115705Y0213613D03*
X0115705Y0215582D03*
X0115705Y0217550D03*
X0115705Y0219519D03*
X0115705Y0221487D03*
X0115705Y0223456D03*
X0115705Y0225424D03*
X0115705Y0227393D03*
X0115705Y0229361D03*
X0115705Y0231330D03*
X0115705Y0233298D03*
X0115705Y0235267D03*
X0115705Y0237235D03*
X0115705Y0239204D03*
X0115705Y0241172D03*
X0115705Y0243141D03*
X0115705Y0245109D03*
X0115705Y0247078D03*
X0115705Y0249046D03*
X0115705Y0251015D03*
X0115705Y0252983D03*
X0115705Y0254952D03*
X0115705Y0256920D03*
X0115705Y0258889D03*
X0115705Y0260857D03*
X0115705Y0262826D03*
X0115705Y0264794D03*
X0115705Y0266763D03*
X0115705Y0268731D03*
X0115705Y0270700D03*
X0115705Y0272669D03*
X0115705Y0274637D03*
X0115705Y0276606D03*
X0115705Y0278574D03*
X0115705Y0280543D03*
X0115705Y0282511D03*
X0115705Y0284480D03*
X0115705Y0286448D03*
X0115705Y0288417D03*
X0115705Y0290385D03*
D23*
X0128500Y0297865D03*
X0128500Y0196291D03*
D24*
X0164173Y0088279D02*
X0169323Y0088279D01*
X0140567Y0072743D02*
X0140567Y0067594D01*
X0131118Y0073106D02*
X0131118Y0078255D01*
X0168913Y0060539D02*
X0168913Y0055389D01*
X0153575Y0044972D02*
X0148425Y0044972D01*
X0331118Y0073106D02*
X0331118Y0078255D01*
X0340567Y0072743D02*
X0340567Y0067594D01*
X0368913Y0060539D02*
X0368913Y0055389D01*
X0353575Y0044972D02*
X0348425Y0044972D01*
X0364173Y0088279D02*
X0369323Y0088279D01*
D25*
X0320370Y0071759D02*
X0320370Y0065822D01*
X0320370Y0052861D02*
X0320370Y0046924D01*
X0291630Y0046924D02*
X0291630Y0052861D01*
X0291630Y0065822D02*
X0291630Y0071759D01*
X0207870Y0071759D02*
X0207870Y0065822D01*
X0207870Y0052861D02*
X0207870Y0046924D01*
X0179130Y0046924D02*
X0179130Y0052861D01*
X0179130Y0065822D02*
X0179130Y0071759D01*
D26*
X0175900Y0061904D02*
X0237700Y0061904D01*
X0241600Y0065804D01*
X0258100Y0065804D01*
X0259600Y0064304D01*
X0242500Y0063104D02*
X0242500Y0062804D01*
X0222700Y0043004D01*
X0173800Y0043004D01*
X0160300Y0056504D01*
X0173800Y0057104D02*
X0173800Y0046604D01*
X0151000Y0044972D02*
X0151000Y0082604D01*
X0135700Y0097904D01*
X0135700Y0099704D01*
X0144400Y0097004D02*
X0149800Y0091604D01*
X0145000Y0092804D02*
X0175900Y0061904D01*
X0195400Y0082004D02*
X0233200Y0082004D01*
X0236800Y0085604D01*
X0239500Y0088904D02*
X0242200Y0091604D01*
X0242200Y0119804D01*
X0250000Y0127604D01*
X0252700Y0131804D02*
X0252700Y0106004D01*
X0243400Y0096704D01*
X0243400Y0094304D01*
X0313600Y0094304D01*
X0316000Y0096704D01*
X0316000Y0098204D01*
X0370300Y0152504D01*
X0370300Y0162104D01*
X0365200Y0164504D02*
X0365200Y0151904D01*
X0321700Y0108404D01*
X0262600Y0108404D01*
X0251200Y0097004D01*
X0251800Y0101504D02*
X0251800Y0103304D01*
X0269800Y0121304D01*
X0269800Y0121604D01*
X0272650Y0124454D01*
X0278200Y0118904D01*
X0289900Y0118904D01*
X0292000Y0116804D01*
X0323200Y0116804D01*
X0313900Y0120104D02*
X0280600Y0120104D01*
X0274900Y0125804D01*
X0272650Y0124454D02*
X0272200Y0124904D01*
X0272200Y0130604D01*
X0273700Y0132104D01*
X0281500Y0136604D02*
X0261100Y0136604D01*
X0268000Y0144404D02*
X0276400Y0152804D01*
X0362500Y0152804D01*
X0361900Y0156704D02*
X0344800Y0156704D01*
X0343900Y0155804D01*
X0336100Y0155804D01*
X0330700Y0161204D01*
X0327700Y0163904D02*
X0323500Y0159704D01*
X0288100Y0159704D01*
X0286900Y0160904D01*
X0289000Y0162404D02*
X0287500Y0163904D01*
X0282100Y0163904D01*
X0269500Y0151304D01*
X0247600Y0151304D01*
X0234700Y0138404D01*
X0234700Y0136904D01*
X0206200Y0108404D01*
X0183400Y0108404D01*
X0177100Y0102104D01*
X0155800Y0102104D01*
X0146200Y0111704D01*
X0146000Y0111704D01*
X0145900Y0111704D01*
X0145900Y0117704D01*
X0129400Y0134204D01*
X0130000Y0131504D02*
X0128500Y0131504D01*
X0124900Y0135104D01*
X0130000Y0131504D02*
X0133000Y0128504D01*
X0133000Y0117104D01*
X0155800Y0094304D01*
X0212200Y0094304D01*
X0234100Y0116204D01*
X0234100Y0118604D01*
X0263800Y0148304D01*
X0268300Y0148304D01*
X0281200Y0161204D01*
X0283000Y0161204D01*
X0283000Y0157304D02*
X0279100Y0157304D01*
X0268900Y0147104D01*
X0264400Y0147104D01*
X0237400Y0120104D01*
X0237400Y0118304D01*
X0231400Y0117104D02*
X0231400Y0127304D01*
X0252700Y0148604D01*
X0256600Y0148604D02*
X0247300Y0139304D01*
X0247300Y0135704D01*
X0243700Y0143804D02*
X0226900Y0127004D01*
X0226600Y0127004D01*
X0210100Y0110504D01*
X0210100Y0097904D01*
X0197800Y0111104D02*
X0184300Y0111104D01*
X0176500Y0103304D01*
X0156700Y0103304D01*
X0152500Y0107504D01*
X0152500Y0118004D01*
X0161800Y0119804D02*
X0147700Y0133904D01*
X0147400Y0137804D02*
X0114400Y0137804D01*
X0104800Y0147404D01*
X0104800Y0166604D01*
X0095500Y0175904D01*
X0076600Y0175904D01*
X0068500Y0184004D01*
X0068500Y0194204D01*
X0066100Y0196604D01*
X0064000Y0196604D01*
X0060700Y0199904D01*
X0060700Y0232304D01*
X0073900Y0245504D01*
X0073900Y0246704D01*
X0074500Y0243704D02*
X0078400Y0247604D01*
X0078400Y0275504D01*
X0088900Y0286004D01*
X0103000Y0286004D01*
X0112000Y0277004D01*
X0112000Y0275804D01*
X0112900Y0274904D01*
X0115600Y0274904D01*
X0115705Y0274637D01*
X0115900Y0276404D02*
X0115705Y0276606D01*
X0115900Y0276404D02*
X0118600Y0276404D01*
X0119500Y0275504D01*
X0120700Y0275504D01*
X0131800Y0264404D01*
X0131800Y0211304D01*
X0134200Y0212504D02*
X0136300Y0210404D01*
X0136300Y0196304D01*
X0144100Y0188504D01*
X0156700Y0188504D01*
X0157600Y0189404D01*
X0160600Y0189404D01*
X0171400Y0178604D01*
X0171400Y0176504D01*
X0175000Y0172904D01*
X0181900Y0172904D01*
X0187600Y0170204D02*
X0175900Y0170204D01*
X0170200Y0175904D01*
X0170200Y0178004D01*
X0160000Y0188204D01*
X0158200Y0188204D01*
X0157300Y0187304D01*
X0143500Y0187304D01*
X0135100Y0195704D01*
X0135100Y0200804D01*
X0129100Y0206804D01*
X0129100Y0242204D01*
X0125200Y0244904D02*
X0125200Y0263804D01*
X0118600Y0270404D01*
X0115900Y0270404D01*
X0115705Y0270700D01*
X0115900Y0272504D02*
X0115705Y0272669D01*
X0115900Y0272504D02*
X0118600Y0272504D01*
X0120400Y0270704D01*
X0121900Y0270704D01*
X0120700Y0278204D02*
X0116200Y0278204D01*
X0115900Y0278504D01*
X0115705Y0278574D01*
X0107800Y0287804D02*
X0088900Y0287804D01*
X0068500Y0267404D01*
X0068500Y0241904D01*
X0037000Y0210404D01*
X0032500Y0210404D01*
X0030700Y0208604D01*
X0030700Y0180704D01*
X0043000Y0168404D01*
X0043000Y0164804D02*
X0049600Y0164804D01*
X0043000Y0164804D02*
X0026800Y0181004D01*
X0026800Y0234704D01*
X0016000Y0245504D01*
X0016000Y0246704D01*
X0016000Y0236704D02*
X0016000Y0235304D01*
X0006100Y0225404D01*
X0006100Y0191804D01*
X0065500Y0132404D01*
X0076300Y0132404D01*
X0068200Y0135104D02*
X0062200Y0141104D01*
X0067900Y0146204D02*
X0067900Y0156704D01*
X0044800Y0156704D01*
X0008800Y0192704D01*
X0022900Y0195404D02*
X0022900Y0199004D01*
X0013300Y0208604D01*
X0025600Y0215804D02*
X0025600Y0179504D01*
X0043000Y0162104D01*
X0043000Y0151304D02*
X0044800Y0151304D01*
X0072100Y0124004D01*
X0084700Y0124004D01*
X0111700Y0097004D01*
X0114400Y0097904D02*
X0114400Y0088904D01*
X0118900Y0081104D02*
X0127600Y0072404D01*
X0127600Y0060704D01*
X0147100Y0041204D01*
X0224500Y0041204D01*
X0242500Y0059204D01*
X0242200Y0070304D02*
X0243400Y0071504D01*
X0243400Y0094304D01*
X0239500Y0092504D02*
X0155800Y0092504D01*
X0130300Y0118004D01*
X0121600Y0118004D02*
X0121600Y0118304D01*
X0107200Y0132704D01*
X0107200Y0135104D01*
X0104500Y0136004D02*
X0104500Y0133604D01*
X0118900Y0119204D01*
X0118900Y0081104D01*
X0117100Y0079304D02*
X0117100Y0097004D01*
X0067900Y0146204D01*
X0063100Y0149204D02*
X0114400Y0097904D01*
X0104500Y0100604D02*
X0082300Y0122804D01*
X0071500Y0122804D01*
X0047500Y0146804D01*
X0045700Y0146804D01*
X0063100Y0149204D02*
X0063100Y0151304D01*
X0043900Y0174404D02*
X0033400Y0184904D01*
X0056800Y0187004D02*
X0058000Y0188204D01*
X0058000Y0218804D01*
X0063100Y0218504D02*
X0064000Y0219404D01*
X0066700Y0219404D01*
X0080800Y0233504D01*
X0087100Y0233504D01*
X0090900Y0235204D02*
X0091000Y0235304D01*
X0093400Y0235304D01*
X0099700Y0241604D01*
X0100900Y0241604D01*
X0101000Y0241763D01*
X0099100Y0239204D02*
X0103000Y0239204D01*
X0103900Y0240104D01*
X0103900Y0244004D01*
X0098800Y0249104D01*
X0098559Y0249204D01*
X0100600Y0252104D02*
X0091300Y0252104D01*
X0084400Y0245204D01*
X0084400Y0241604D01*
X0070000Y0227204D01*
X0070000Y0231104D02*
X0082300Y0243404D01*
X0082300Y0251804D01*
X0082400Y0252004D01*
X0087100Y0243404D02*
X0087100Y0243204D01*
X0087100Y0243404D02*
X0087700Y0243404D01*
X0093400Y0249104D01*
X0093441Y0249204D01*
X0100600Y0252104D02*
X0104500Y0248204D01*
X0105700Y0245804D02*
X0105700Y0228404D01*
X0101200Y0229304D02*
X0110800Y0219704D01*
X0115600Y0219704D01*
X0115705Y0219519D01*
X0115600Y0217604D02*
X0115705Y0217550D01*
X0115600Y0217604D02*
X0103000Y0217604D01*
X0096100Y0218204D02*
X0096100Y0224504D01*
X0094600Y0226004D01*
X0094600Y0234704D01*
X0099100Y0239204D01*
X0101000Y0236645D02*
X0101200Y0236504D01*
X0101200Y0229304D01*
X0089600Y0228204D02*
X0089500Y0228104D01*
X0089500Y0224804D01*
X0081400Y0216704D01*
X0077200Y0216704D01*
X0073600Y0213104D01*
X0073600Y0205904D01*
X0076600Y0202904D01*
X0082000Y0202904D01*
X0088300Y0196604D01*
X0088300Y0191804D01*
X0088441Y0191704D01*
X0088750Y0186854D02*
X0093400Y0191504D01*
X0093559Y0191704D01*
X0096400Y0195104D02*
X0096400Y0182804D01*
X0107800Y0171404D01*
X0107800Y0151904D01*
X0113650Y0146054D01*
X0112600Y0145004D01*
X0113650Y0146054D02*
X0119500Y0140204D01*
X0134200Y0140204D01*
X0135700Y0141704D01*
X0141400Y0141704D01*
X0145600Y0141104D02*
X0136000Y0150704D01*
X0115300Y0150704D01*
X0106600Y0147404D02*
X0115000Y0139004D01*
X0163300Y0139004D01*
X0166900Y0135404D01*
X0171700Y0134204D02*
X0164800Y0141104D01*
X0145600Y0141104D01*
X0147400Y0137804D02*
X0155200Y0130004D01*
X0172600Y0130004D01*
X0176500Y0133904D01*
X0201400Y0133904D01*
X0239200Y0171704D01*
X0239200Y0176804D01*
X0244000Y0169304D02*
X0229300Y0154604D01*
X0225700Y0154604D01*
X0225400Y0154304D01*
X0228400Y0151904D02*
X0243100Y0166604D01*
X0252700Y0166604D01*
X0257800Y0169304D02*
X0258700Y0168404D01*
X0336700Y0168404D01*
X0338500Y0163904D02*
X0327700Y0163904D01*
X0322600Y0162404D02*
X0289000Y0162404D01*
X0294100Y0171104D02*
X0286600Y0178604D01*
X0283000Y0178604D01*
X0285400Y0181904D02*
X0291100Y0176204D01*
X0310000Y0176204D01*
X0304900Y0171104D02*
X0294100Y0171104D01*
X0286900Y0174704D02*
X0274900Y0174704D01*
X0271300Y0171104D01*
X0271300Y0161804D02*
X0241900Y0161804D01*
X0226600Y0146504D01*
X0227500Y0143804D02*
X0232900Y0149204D01*
X0242800Y0159104D01*
X0253600Y0159104D01*
X0244000Y0151304D02*
X0211300Y0118604D01*
X0211300Y0117104D01*
X0205000Y0127004D02*
X0204900Y0127004D01*
X0205000Y0127004D02*
X0219100Y0141104D01*
X0213100Y0143804D02*
X0227500Y0143804D01*
X0230500Y0143804D02*
X0197800Y0111104D01*
X0174700Y0105404D02*
X0213100Y0143804D01*
X0202300Y0149504D02*
X0202300Y0162704D01*
X0199600Y0165404D01*
X0197200Y0170804D02*
X0191800Y0165404D01*
X0153400Y0165404D01*
X0139000Y0179804D01*
X0133600Y0179804D01*
X0127900Y0185504D01*
X0123100Y0185504D01*
X0125800Y0182804D02*
X0128800Y0182804D01*
X0150100Y0161504D01*
X0191500Y0161504D01*
X0192400Y0164204D02*
X0199600Y0157004D01*
X0192400Y0164204D02*
X0152800Y0164204D01*
X0150400Y0166604D01*
X0148600Y0166604D01*
X0154000Y0166604D02*
X0139600Y0181004D01*
X0134500Y0181004D01*
X0123100Y0192404D01*
X0123100Y0239204D01*
X0120400Y0240104D02*
X0125200Y0244904D01*
X0120700Y0246704D02*
X0118600Y0248804D01*
X0115900Y0248804D01*
X0115705Y0249046D01*
X0115600Y0247304D02*
X0115705Y0247078D01*
X0115600Y0247304D02*
X0110800Y0247304D01*
X0112900Y0244904D02*
X0115600Y0244904D01*
X0115705Y0245109D01*
X0112900Y0244904D02*
X0112300Y0244304D01*
X0108400Y0244304D01*
X0105700Y0245804D02*
X0110800Y0250904D01*
X0115600Y0250904D01*
X0115705Y0251015D01*
X0115900Y0252704D02*
X0115705Y0252983D01*
X0115900Y0252704D02*
X0118600Y0252704D01*
X0120700Y0250604D01*
X0120700Y0254504D02*
X0118300Y0256904D01*
X0115900Y0256904D01*
X0115705Y0256920D01*
X0115705Y0254952D02*
X0115600Y0254804D01*
X0110800Y0254804D01*
X0115705Y0258889D02*
X0115900Y0259004D01*
X0120700Y0259004D01*
X0139900Y0271604D02*
X0139900Y0196304D01*
X0142300Y0193904D01*
X0147100Y0193904D01*
X0149800Y0191204D01*
X0145900Y0191204D02*
X0143200Y0191204D01*
X0137500Y0196904D01*
X0137500Y0229904D01*
X0136900Y0230504D01*
X0134500Y0231704D02*
X0134200Y0231404D01*
X0134200Y0212504D01*
X0125800Y0208304D02*
X0133900Y0200204D01*
X0133900Y0195104D01*
X0142900Y0186104D01*
X0158500Y0186104D01*
X0159100Y0185504D01*
X0153700Y0183404D02*
X0168100Y0169004D01*
X0190000Y0169004D01*
X0196900Y0175904D01*
X0200800Y0175904D01*
X0203500Y0178604D01*
X0221800Y0178604D01*
X0222700Y0179504D01*
X0229300Y0179504D01*
X0228700Y0187304D02*
X0221200Y0179804D01*
X0202900Y0179804D01*
X0200500Y0177404D01*
X0174100Y0177404D01*
X0172600Y0182804D02*
X0200500Y0182804D01*
X0200800Y0182504D01*
X0220300Y0182504D01*
X0228700Y0187304D02*
X0257800Y0187304D01*
X0259600Y0185504D01*
X0259600Y0184604D01*
X0262300Y0181904D01*
X0266800Y0181904D01*
X0285400Y0181904D01*
X0284500Y0184604D02*
X0263200Y0184604D01*
X0258700Y0189104D01*
X0164500Y0189104D01*
X0185500Y0180104D02*
X0199600Y0180104D01*
X0197500Y0174704D02*
X0190600Y0167804D01*
X0154600Y0167804D01*
X0138700Y0183704D01*
X0139600Y0187604D02*
X0152800Y0174404D01*
X0159100Y0174404D01*
X0154000Y0166604D02*
X0191200Y0166604D01*
X0198100Y0173504D01*
X0199900Y0173504D01*
X0202600Y0170804D01*
X0212800Y0170804D01*
X0214600Y0174704D02*
X0197500Y0174704D01*
X0197200Y0170804D02*
X0199000Y0170804D01*
X0192100Y0174704D02*
X0187600Y0170204D01*
X0179500Y0160304D02*
X0181000Y0158804D01*
X0179500Y0160304D02*
X0149500Y0160304D01*
X0148000Y0161804D01*
X0135400Y0161804D01*
X0132700Y0159104D02*
X0177100Y0159104D01*
X0190900Y0145304D01*
X0191800Y0142604D02*
X0170500Y0142604D01*
X0156700Y0156404D01*
X0125200Y0156404D01*
X0117100Y0164504D01*
X0114400Y0163604D02*
X0114400Y0169604D01*
X0120400Y0175604D01*
X0120400Y0240104D01*
X0134500Y0240704D02*
X0134500Y0231704D01*
X0125800Y0218804D02*
X0125800Y0208304D01*
X0115600Y0213404D02*
X0115705Y0213613D01*
X0115600Y0213404D02*
X0112900Y0213404D01*
X0106900Y0207404D01*
X0105400Y0207404D01*
X0101200Y0206804D02*
X0109900Y0215504D01*
X0115600Y0215504D01*
X0115705Y0215582D01*
X0101200Y0206804D02*
X0101200Y0204404D01*
X0101000Y0204263D01*
X0101000Y0199145D02*
X0100900Y0199004D01*
X0099700Y0197804D01*
X0091000Y0197804D01*
X0090900Y0197704D01*
X0091000Y0202904D02*
X0085300Y0202904D01*
X0081100Y0207104D01*
X0081100Y0208904D01*
X0081000Y0209145D01*
X0076300Y0208304D02*
X0076300Y0212204D01*
X0076900Y0212804D01*
X0081000Y0214263D02*
X0081100Y0214304D01*
X0086800Y0220004D01*
X0093400Y0220004D01*
X0093400Y0220204D01*
X0096100Y0218204D02*
X0094750Y0216854D01*
X0095800Y0215804D01*
X0094750Y0216854D02*
X0093700Y0215804D01*
X0093700Y0211904D01*
X0093559Y0211704D01*
X0088441Y0211704D02*
X0088300Y0211604D01*
X0087100Y0210404D01*
X0087100Y0205704D01*
X0079900Y0200204D02*
X0076900Y0200204D01*
X0073000Y0204104D01*
X0066100Y0204104D01*
X0066000Y0204263D01*
X0066000Y0199145D02*
X0065800Y0199004D01*
X0069700Y0195104D01*
X0069700Y0193604D01*
X0080800Y0182504D01*
X0084400Y0182504D01*
X0088750Y0186854D01*
X0088900Y0186704D01*
X0094600Y0178604D02*
X0077500Y0178604D01*
X0061600Y0178604D02*
X0033400Y0206804D01*
X0033400Y0207704D01*
X0038800Y0215804D02*
X0031900Y0222704D01*
X0029500Y0222704D01*
X0025600Y0215804D02*
X0016000Y0225404D01*
X0016000Y0226704D01*
X0043300Y0239204D02*
X0016000Y0266504D01*
X0016000Y0266704D01*
X0016000Y0286604D02*
X0016000Y0286704D01*
X0016000Y0286604D02*
X0021400Y0286604D01*
X0065500Y0242504D01*
X0074500Y0243704D02*
X0074500Y0239204D01*
X0059800Y0238304D02*
X0059800Y0240104D01*
X0055000Y0244904D01*
X0057100Y0239204D02*
X0043300Y0239204D01*
X0052900Y0232604D02*
X0054100Y0232604D01*
X0059800Y0238304D01*
X0063100Y0218504D02*
X0063100Y0215204D01*
X0065800Y0212504D01*
X0065800Y0211904D01*
X0066000Y0211645D01*
X0066000Y0216763D02*
X0066100Y0217004D01*
X0068500Y0219404D01*
X0076600Y0219404D01*
X0076300Y0208304D02*
X0076100Y0208204D01*
X0100300Y0194804D02*
X0100300Y0190604D01*
X0099700Y0190004D01*
X0099700Y0188204D01*
X0109300Y0178604D01*
X0110800Y0178604D01*
X0115300Y0174104D01*
X0111700Y0171104D02*
X0111700Y0166304D01*
X0114400Y0163604D02*
X0118900Y0159104D01*
X0118900Y0156104D01*
X0110500Y0156704D02*
X0109000Y0158204D01*
X0109000Y0172004D01*
X0101800Y0179204D01*
X0101800Y0181004D01*
X0109600Y0175904D02*
X0109600Y0173204D01*
X0111700Y0171104D01*
X0106600Y0166604D02*
X0106600Y0147404D01*
X0106600Y0139004D02*
X0106600Y0138104D01*
X0104500Y0136004D01*
X0096100Y0140204D02*
X0096100Y0146504D01*
X0096000Y0146704D01*
X0096100Y0140204D02*
X0112600Y0123704D01*
X0112600Y0121904D01*
X0144400Y0092804D02*
X0145000Y0092804D01*
X0162100Y0106004D02*
X0163900Y0106004D01*
X0164500Y0105404D01*
X0174700Y0105404D01*
X0171700Y0132704D02*
X0171700Y0134204D01*
X0175300Y0136004D02*
X0199900Y0136004D01*
X0223600Y0159704D01*
X0226600Y0162704D02*
X0214600Y0174704D01*
X0239200Y0168104D02*
X0240400Y0168104D01*
X0256900Y0184604D01*
X0257800Y0169304D02*
X0244000Y0169304D01*
X0272200Y0145004D02*
X0274000Y0143204D01*
X0284500Y0143204D01*
X0287200Y0143804D02*
X0290200Y0146804D01*
X0330400Y0146804D01*
X0330700Y0146504D01*
X0339400Y0146504D01*
X0336700Y0149204D02*
X0331600Y0149204D01*
X0330700Y0150104D01*
X0343000Y0158504D02*
X0343000Y0159704D01*
X0386500Y0203204D01*
X0386500Y0205004D01*
X0384700Y0210104D02*
X0338500Y0163904D01*
X0329800Y0178904D02*
X0290200Y0178904D01*
X0284500Y0184604D01*
X0287200Y0143804D02*
X0287200Y0142304D01*
X0281500Y0136604D01*
X0313900Y0120104D02*
X0320800Y0127004D01*
X0329900Y0127004D01*
X0373000Y0141404D02*
X0414700Y0141404D01*
X0415600Y0142304D01*
X0416500Y0145004D02*
X0412900Y0145004D01*
X0410500Y0142604D01*
X0390400Y0142604D01*
X0382900Y0150104D01*
X0365200Y0164504D02*
X0377500Y0176804D01*
X0391000Y0176804D01*
X0428800Y0214604D01*
X0428800Y0229004D01*
X0434800Y0235004D01*
X0434800Y0251804D01*
X0434900Y0252004D01*
X0431500Y0244904D02*
X0431500Y0233504D01*
X0422800Y0224804D01*
X0422800Y0219704D01*
X0398500Y0195404D01*
X0392500Y0195404D01*
X0395800Y0189704D02*
X0386800Y0189704D01*
X0395800Y0189704D02*
X0421600Y0215504D01*
X0426100Y0215504D01*
X0436300Y0214904D02*
X0465400Y0214904D01*
X0434900Y0187004D02*
X0425800Y0187004D01*
X0411400Y0172604D01*
X0391900Y0172604D01*
X0391600Y0172304D01*
X0416500Y0145004D02*
X0418900Y0142604D01*
X0431800Y0142604D01*
X0406000Y0126704D02*
X0482500Y0126704D01*
X0490900Y0118304D01*
X0490900Y0111704D01*
X0491000Y0111704D01*
X0494800Y0108704D02*
X0494800Y0116204D01*
X0480400Y0130604D01*
X0379900Y0130604D01*
X0376000Y0126704D01*
X0278200Y0088604D02*
X0278200Y0082904D01*
X0239500Y0088904D02*
X0239500Y0073004D01*
X0227500Y0117104D02*
X0227500Y0124304D01*
X0230500Y0143804D02*
X0231100Y0143804D01*
X0202300Y0149504D02*
X0191500Y0138704D01*
X0191800Y0142604D02*
X0196900Y0147704D01*
X0175300Y0136004D02*
X0167500Y0143804D01*
X0156700Y0143804D01*
X0106600Y0166604D02*
X0094600Y0178604D01*
X0137800Y0187604D02*
X0139600Y0187604D01*
X0139900Y0271604D02*
X0118900Y0292604D01*
X0054400Y0292604D01*
X0376600Y0280904D02*
X0376600Y0231104D01*
X0384700Y0223004D01*
X0384700Y0210104D01*
X0406600Y0216104D02*
X0406600Y0232304D01*
X0424600Y0250304D01*
X0494800Y0108704D02*
X0491200Y0105104D01*
X0491200Y0071804D01*
X0491000Y0071704D01*
D27*
X0431800Y0142604D03*
X0415600Y0142304D03*
X0387700Y0149204D03*
X0382900Y0150104D03*
X0373000Y0141404D03*
X0362500Y0152804D03*
X0361900Y0156704D03*
X0370300Y0162104D03*
X0387700Y0172304D03*
X0391600Y0172304D03*
X0386800Y0189704D03*
X0394900Y0192404D03*
X0392500Y0195404D03*
X0384400Y0197504D03*
X0386500Y0205004D03*
X0406600Y0216104D03*
X0415600Y0216104D03*
X0426100Y0215504D03*
X0436300Y0214904D03*
X0460000Y0223904D03*
X0465400Y0214904D03*
X0460900Y0186704D03*
X0431500Y0244904D03*
X0424600Y0250304D03*
X0379300Y0256604D03*
X0376600Y0280904D03*
X0266800Y0181904D03*
X0263200Y0184604D03*
X0256900Y0184604D03*
X0253000Y0184604D03*
X0239200Y0176804D03*
X0229300Y0179504D03*
X0220300Y0182504D03*
X0217600Y0175904D03*
X0212800Y0170804D03*
X0199000Y0170804D03*
X0192100Y0174704D03*
X0185500Y0180104D03*
X0181900Y0172904D03*
X0174100Y0177404D03*
X0172600Y0182804D03*
X0164500Y0189104D03*
X0159100Y0185504D03*
X0153700Y0183404D03*
X0149800Y0191204D03*
X0145900Y0191204D03*
X0137800Y0187604D03*
X0138700Y0183704D03*
X0125800Y0182804D03*
X0123100Y0185504D03*
X0109600Y0175904D03*
X0115300Y0174104D03*
X0111700Y0166304D03*
X0117100Y0164504D03*
X0118900Y0156104D03*
X0110500Y0156704D03*
X0111100Y0152204D03*
X0115300Y0150704D03*
X0112600Y0145004D03*
X0106600Y0139004D03*
X0107200Y0135104D03*
X0124900Y0135104D03*
X0129400Y0134204D03*
X0133300Y0142904D03*
X0141400Y0141704D03*
X0147700Y0133904D03*
X0156700Y0143804D03*
X0166900Y0135404D03*
X0171700Y0132704D03*
X0176200Y0147104D03*
X0176200Y0156404D03*
X0181000Y0158804D03*
X0191500Y0161504D03*
X0199600Y0165404D03*
X0199600Y0157004D03*
X0196900Y0147704D03*
X0190900Y0145304D03*
X0191500Y0138704D03*
X0219100Y0141104D03*
X0226600Y0146504D03*
X0231100Y0143804D03*
X0232900Y0149204D03*
X0228400Y0151904D03*
X0225400Y0154304D03*
X0223600Y0159704D03*
X0226600Y0162704D03*
X0239200Y0168104D03*
X0252700Y0166604D03*
X0257800Y0169304D03*
X0271300Y0171104D03*
X0274300Y0164204D03*
X0271300Y0161804D03*
X0271000Y0156404D03*
X0256600Y0148604D03*
X0252700Y0148604D03*
X0244000Y0151304D03*
X0253600Y0159104D03*
X0272200Y0145004D03*
X0268000Y0144404D03*
X0261100Y0136604D03*
X0252700Y0131804D03*
X0250000Y0127604D03*
X0247300Y0135704D03*
X0243700Y0143804D03*
X0234700Y0138404D03*
X0227500Y0124304D03*
X0227500Y0117104D03*
X0231400Y0117104D03*
X0237400Y0118304D03*
X0255700Y0115004D03*
X0272500Y0120704D03*
X0274900Y0125804D03*
X0273700Y0132104D03*
X0284500Y0143204D03*
X0289900Y0142904D03*
X0283000Y0157304D03*
X0283000Y0161204D03*
X0286900Y0160904D03*
X0304900Y0171104D03*
X0310000Y0176204D03*
X0329800Y0178904D03*
X0336700Y0168404D03*
X0330700Y0161204D03*
X0322600Y0162404D03*
X0330700Y0150104D03*
X0336700Y0149204D03*
X0339400Y0146504D03*
X0329500Y0144104D03*
X0343000Y0158504D03*
X0286900Y0174704D03*
X0283000Y0178604D03*
X0199600Y0180104D03*
X0186700Y0191804D03*
X0159100Y0174404D03*
X0148600Y0166604D03*
X0135400Y0161804D03*
X0132700Y0159104D03*
X0101800Y0181004D03*
X0102400Y0189104D03*
X0100300Y0194804D03*
X0096400Y0195104D03*
X0097300Y0201704D03*
X0091000Y0202904D03*
X0105100Y0203504D03*
X0105400Y0207404D03*
X0103000Y0217604D03*
X0095800Y0215804D03*
X0110800Y0223304D03*
X0105700Y0228404D03*
X0108400Y0235004D03*
X0097300Y0233804D03*
X0087100Y0233504D03*
X0091000Y0242204D03*
X0104500Y0248204D03*
X0108400Y0244304D03*
X0110800Y0247304D03*
X0110800Y0254804D03*
X0120700Y0254504D03*
X0120700Y0250604D03*
X0120700Y0246704D03*
X0129100Y0242204D03*
X0134500Y0240704D03*
X0123100Y0239204D03*
X0136900Y0230504D03*
X0125800Y0218804D03*
X0131800Y0211304D03*
X0088900Y0186704D03*
X0077500Y0178604D03*
X0061600Y0178604D03*
X0056800Y0187004D03*
X0072100Y0196304D03*
X0078700Y0196304D03*
X0076900Y0212804D03*
X0076600Y0219404D03*
X0070000Y0227204D03*
X0070000Y0231104D03*
X0074500Y0239204D03*
X0065500Y0242504D03*
X0057100Y0239204D03*
X0055000Y0244904D03*
X0052900Y0232604D03*
X0058000Y0218804D03*
X0038800Y0215804D03*
X0029500Y0222704D03*
X0033400Y0207704D03*
X0022900Y0195404D03*
X0008800Y0192704D03*
X0013300Y0208604D03*
X0033400Y0184904D03*
X0043900Y0174404D03*
X0043000Y0168404D03*
X0049600Y0164804D03*
X0043000Y0162104D03*
X0043000Y0151304D03*
X0045700Y0146804D03*
X0062200Y0141104D03*
X0068200Y0135104D03*
X0076300Y0132404D03*
X0063100Y0151304D03*
X0067900Y0156704D03*
X0061300Y0171104D03*
X0112600Y0121904D03*
X0121600Y0118004D03*
X0130300Y0118004D03*
X0152500Y0118004D03*
X0161800Y0119804D03*
X0162100Y0106004D03*
X0144400Y0097004D03*
X0144400Y0092804D03*
X0149800Y0091604D03*
X0135700Y0099704D03*
X0114400Y0088904D03*
X0111700Y0097004D03*
X0104500Y0100604D03*
X0117100Y0079304D03*
X0155800Y0064604D03*
X0160300Y0056504D03*
X0173800Y0057104D03*
X0173800Y0046604D03*
X0187300Y0082004D03*
X0195400Y0082004D03*
X0210100Y0097904D03*
X0184300Y0111104D03*
X0211300Y0117104D03*
X0239500Y0092504D03*
X0236800Y0085604D03*
X0239500Y0073004D03*
X0242200Y0070304D03*
X0242500Y0063104D03*
X0242500Y0059204D03*
X0254800Y0052604D03*
X0259600Y0058004D03*
X0259600Y0064304D03*
X0238600Y0051704D03*
X0230200Y0054104D03*
X0278200Y0082904D03*
X0278200Y0088604D03*
X0303400Y0082904D03*
X0308200Y0065204D03*
X0251200Y0097004D03*
X0251800Y0101504D03*
X0289000Y0116204D03*
X0320500Y0114104D03*
X0323200Y0116804D03*
X0370000Y0119804D03*
X0120700Y0259004D03*
X0121900Y0270704D03*
X0120700Y0278204D03*
X0110800Y0284504D03*
X0107800Y0287804D03*
X0054400Y0292604D03*
X0073900Y0246704D03*
D28*
X0064600Y0252004D02*
X0064600Y0265904D01*
X0089500Y0290804D01*
X0115300Y0290804D01*
X0115705Y0290385D01*
X0115900Y0290504D01*
X0118600Y0290504D01*
X0119500Y0289604D01*
X0119500Y0285104D01*
X0118900Y0284504D01*
X0116200Y0284504D01*
X0115705Y0284480D01*
X0115600Y0284204D01*
X0115600Y0283004D01*
X0115705Y0282511D01*
X0115600Y0282404D01*
X0115600Y0280604D01*
X0115705Y0280543D01*
X0110800Y0284504D02*
X0112900Y0286604D01*
X0115600Y0286604D01*
X0115600Y0288404D01*
X0115705Y0288417D01*
X0115600Y0286604D02*
X0115705Y0286448D01*
X0115705Y0268731D02*
X0115600Y0268604D01*
X0115600Y0267104D01*
X0115705Y0266763D01*
X0115600Y0266504D01*
X0115600Y0265004D01*
X0115705Y0264794D01*
X0115900Y0264404D01*
X0115900Y0263204D01*
X0115705Y0262826D01*
X0116500Y0263204D01*
X0120400Y0263204D01*
X0123700Y0259904D01*
X0123700Y0245804D01*
X0121000Y0243104D01*
X0116200Y0243104D01*
X0115705Y0243141D01*
X0115600Y0243104D01*
X0115600Y0241604D01*
X0115705Y0241172D01*
X0115600Y0241004D01*
X0115600Y0239504D01*
X0115705Y0239204D01*
X0115600Y0239204D01*
X0115600Y0237704D01*
X0115705Y0237235D01*
X0115600Y0237104D01*
X0115600Y0235604D01*
X0115705Y0235267D01*
X0115000Y0235004D01*
X0108400Y0235004D01*
X0115600Y0235004D02*
X0115600Y0233504D01*
X0115705Y0233298D01*
X0115900Y0232904D01*
X0115900Y0231704D01*
X0115705Y0231330D01*
X0115600Y0231104D01*
X0115600Y0229604D01*
X0115705Y0229361D01*
X0115900Y0229004D01*
X0115900Y0227804D01*
X0115705Y0227393D01*
X0115600Y0227204D01*
X0115600Y0225704D01*
X0115705Y0225424D01*
X0112600Y0221504D02*
X0110800Y0223304D01*
X0112600Y0221504D02*
X0115600Y0221504D01*
X0115705Y0221487D01*
X0098800Y0226604D02*
X0098800Y0211904D01*
X0094900Y0208004D01*
X0094900Y0205904D01*
X0094700Y0205704D01*
X0094900Y0205304D01*
X0097300Y0202904D01*
X0097300Y0201704D01*
X0104800Y0203204D02*
X0105100Y0203504D01*
X0115600Y0203504D01*
X0115705Y0203771D01*
X0104800Y0203204D02*
X0104800Y0195404D01*
X0102400Y0193004D01*
X0102400Y0189104D01*
X0078700Y0196304D02*
X0072100Y0196304D01*
X0072100Y0200204D01*
X0072300Y0200204D01*
X0064600Y0189504D02*
X0064600Y0174404D01*
X0061300Y0171104D01*
X0096000Y0166704D02*
X0096100Y0166604D01*
X0096100Y0155804D01*
X0103300Y0148604D01*
X0103300Y0146204D01*
X0118600Y0130904D01*
X0118600Y0124904D01*
X0125800Y0117704D01*
X0125800Y0102704D01*
X0142600Y0102704D01*
X0163300Y0082004D01*
X0187300Y0082004D01*
X0187600Y0081704D01*
X0191800Y0081704D01*
X0197500Y0076004D01*
X0232600Y0076004D01*
X0241300Y0067304D01*
X0281200Y0067304D01*
X0296500Y0082604D01*
X0303100Y0082604D01*
X0303400Y0082904D01*
X0326800Y0082904D01*
X0368800Y0124904D01*
X0397000Y0096704D01*
X0406000Y0096704D01*
X0370000Y0119804D02*
X0367300Y0119804D01*
X0328600Y0081104D01*
X0320200Y0081104D01*
X0300400Y0061304D01*
X0259000Y0061304D01*
X0249400Y0051704D01*
X0238600Y0051704D01*
X0230200Y0054104D02*
X0227200Y0057104D01*
X0178300Y0057104D01*
X0170800Y0064604D01*
X0155800Y0064604D01*
X0126000Y0096704D02*
X0125800Y0096704D01*
X0125800Y0102704D01*
X0156000Y0111704D02*
X0157900Y0111704D01*
X0173200Y0127004D01*
X0187100Y0127004D01*
X0176200Y0147104D02*
X0176200Y0156404D01*
X0217600Y0175904D02*
X0234400Y0175904D01*
X0243100Y0184604D01*
X0253000Y0184604D01*
X0274300Y0164204D02*
X0275500Y0165404D01*
X0337600Y0165404D01*
X0342400Y0170204D01*
X0320800Y0191804D01*
X0186700Y0191804D01*
X0115600Y0235004D02*
X0115705Y0235267D01*
X0097300Y0233804D02*
X0097300Y0228704D01*
X0097200Y0228204D01*
X0098800Y0226604D01*
X0091000Y0242204D02*
X0091900Y0243104D01*
X0094600Y0243104D01*
X0094700Y0243204D01*
X0115705Y0260857D02*
X0115600Y0261104D01*
X0115600Y0262604D01*
X0115705Y0262826D01*
X0274300Y0164204D02*
X0274300Y0159704D01*
X0271000Y0156404D01*
X0289900Y0142904D02*
X0289900Y0141704D01*
X0283300Y0135104D01*
X0272800Y0135104D01*
X0264700Y0127004D01*
X0264600Y0127004D01*
X0264100Y0126704D01*
X0255700Y0118304D01*
X0255700Y0115004D01*
X0272500Y0120704D02*
X0277000Y0116204D01*
X0289000Y0116204D01*
X0291100Y0114104D01*
X0320500Y0114104D01*
X0312400Y0127004D02*
X0312100Y0127004D01*
X0291400Y0127004D01*
X0283300Y0135104D01*
X0312400Y0127004D02*
X0329500Y0144104D01*
X0368800Y0148604D02*
X0368800Y0124904D01*
X0368800Y0148604D02*
X0376000Y0155804D01*
X0376000Y0166704D01*
X0376300Y0167204D01*
X0384400Y0175304D01*
X0392800Y0175304D01*
X0441100Y0223604D01*
X0459700Y0223604D01*
X0460000Y0223904D01*
X0460000Y0268004D01*
X0468700Y0276704D01*
X0468800Y0276704D01*
X0427600Y0251204D02*
X0427600Y0232004D01*
X0421300Y0225704D01*
X0421300Y0221504D01*
X0415900Y0216104D01*
X0415600Y0216104D01*
X0388600Y0216704D02*
X0388500Y0216704D01*
X0388600Y0216704D02*
X0417100Y0245204D01*
X0417100Y0252004D01*
X0415300Y0259304D02*
X0408100Y0252104D01*
X0393700Y0252104D01*
X0389200Y0256604D01*
X0379300Y0256604D01*
X0415300Y0259304D02*
X0419500Y0259304D01*
X0427600Y0251204D01*
X0381000Y0221704D02*
X0380800Y0221504D01*
X0380800Y0217004D01*
X0367300Y0203504D01*
X0367300Y0195104D01*
X0342400Y0170204D01*
X0387700Y0169304D02*
X0387700Y0149204D01*
X0387700Y0169304D02*
X0392500Y0169304D01*
X0394300Y0171104D01*
X0428200Y0171104D01*
X0443800Y0186704D01*
X0460900Y0186704D01*
X0394900Y0192404D02*
X0389500Y0192404D01*
X0384400Y0197504D01*
X0387700Y0172304D02*
X0387700Y0169304D01*
X0308200Y0065204D02*
X0301300Y0058304D01*
X0259900Y0058304D01*
X0259600Y0058004D01*
X0254800Y0053204D01*
X0254800Y0052604D01*
X0133300Y0142904D02*
X0132700Y0142304D01*
X0119800Y0142304D01*
X0111100Y0151004D01*
X0111100Y0152204D01*
M02*
