%
M48
M72
T01C0.01500
T02C0.03150
T03C0.03200
T04C0.03500
T05C0.03600
T06C0.03937
T07C0.04000
T08C0.05200
T09C0.08000
T10C0.20000
%
T01
X147550Y87536
X158175Y96286
X131300Y113161
X125675Y115036
X120675Y122536
X126300Y127536
X128800Y133786
X136925Y133786
X148800Y127536
X158175Y127536
X136925Y125036
X116300Y131286
X112550Y125036
X106300Y128786
X98800Y131286
X95050Y131286
X78175Y133786
X68800Y135036
X66925Y125661
X80675Y141911
X73175Y152536
X48800Y155661
X43175Y155661
X26300Y173161
X56300Y179411
X61300Y180036
X54425Y192536
X41925Y191286
X43800Y207536
X55675Y219411
X79425Y223786
X81925Y217536
X93175Y218786
X100050Y222536
X116925Y218161
X119425Y220661
X120675Y226911
X135675Y225036
X138175Y218786
X141925Y228786
X135675Y231286
X135675Y235036
X123175Y238161
X126300Y253161
X120675Y255036
X135675Y253161
X128800Y269411
X105675Y264411
X74425Y242536
X83800Y235036
X107550Y205036
X112550Y200036
X126300Y196911
X116300Y185036
X111300Y180036
X90675Y189411
X69425Y191911
X134425Y153786
X129425Y145661
X120675Y140036
X143175Y144411
X146925Y143161
X181925Y141286
X197550Y145661
X204425Y143161
X220675Y139411
X237550Y139411
X241300Y141911
X238175Y135661
X237550Y125036
X238800Y121286
X237550Y113161
X236925Y106911
X226925Y96286
X261925Y90036
X278800Y90036
X289425Y95661
X292550Y105661
X284425Y107536
X280675Y111911
X284425Y118161
X291925Y120661
X294425Y125661
X303175Y124411
X305675Y129411
X313800Y126911
X313800Y120661
X319425Y116911
X305675Y118161
X303175Y120661
X289425Y110661
X273175Y120661
X264425Y118161
X259425Y111911
X256925Y128161
X273175Y131286
X264425Y140661
X260675Y139411
X256925Y139411
X264425Y145661
X273175Y143161
X283175Y145661
X283175Y151911
X289425Y145661
X294425Y145661
X303800Y140661
X305675Y143786
X304425Y151911
X301925Y156911
X280675Y161911
X256925Y151911
X251925Y153161
X251925Y156911
X237550Y151911
X303175Y134411
X323800Y124411
X340050Y134411
X350050Y131911
X350050Y140661
X363800Y151911
X366300Y160661
X377550Y158161
X382550Y154411
X397550Y160661
X391300Y167536
X399425Y170036
X394425Y174411
X405050Y187536
X415050Y193786
X431300Y185036
X436300Y192536
X448800Y187536
X461300Y185036
X472550Y181911
X489425Y195036
X496300Y197536
X493800Y215036
X487550Y228786
X463800Y230661
X450675Y213786
X406300Y220036
X391925Y223161
X383175Y195036
X436300Y178786
X440675Y168786
X453175Y163786
X448800Y156911
X412550Y141911
X398175Y148786
X392550Y143786
X389425Y130661
X390050Y125036
X390050Y120036
X389425Y110661
X365675Y95036
X336925Y75661
X313800Y75661
X310050Y52536
X292550Y48786
X309425Y37536
X258175Y40036
X211300Y58161
X199425Y50036
X206300Y41286
X325675Y100036
X350050Y115036
X328800Y143786
X335050Y151911
X331300Y165036
X380675Y164411
X450050Y134411
X473175Y259411
X148800Y180661
X140675Y176286
T02
X181048Y66361
X154867Y48250
X145418Y53762
X183213Y36046
X165300Y23054
X343418Y53762
X352867Y48250
X381213Y36046
X363300Y23054
X379048Y66361
T03
X391300Y188786
X398800Y193786
X391300Y198786
T04
X36300Y53786
X36300Y93786
X111300Y93786
X111300Y53786
X415300Y52786
X415300Y92786
X490300Y92786
X490300Y52786
T05
X479100Y253786
X453500Y253786
T06
X333670Y44872
X304930Y44872
X304930Y25975
X333670Y25975
X223170Y25975
X194430Y25975
X194430Y44872
X223170Y44872
T07
X226800Y63286
X236800Y63286
X246800Y63286
X256800Y63286
X266800Y63286
X276800Y63286
X286800Y63286
X296800Y63286
T08
X380300Y215786
X380300Y230786
T09
X361300Y78786
X166300Y78786
T10
X131300Y38786
X396300Y38786
X411300Y243786
X106300Y243786
M30
