G75*
%MOIN*%
%OFA0B0*%
%FSLAX25Y25*%
%IPPOS*%
%LPD*%
%AMOC8*
5,1,8,0,0,1.08239X$1,22.5*
%
%ADD10C,0.22800*%
%ADD11C,0.08800*%
%ADD12R,0.06050X0.06050*%
%ADD13OC8,0.05800*%
%ADD14R,0.03556X0.04343*%
%ADD15R,0.10800X0.05800*%
%ADD16R,0.05800X0.10800*%
%ADD17OC8,0.09300*%
%ADD18C,0.06800*%
%ADD19R,0.03900X0.04300*%
%ADD20OC8,0.13200*%
%ADD21R,0.05512X0.01575*%
%ADD22R,0.09252X0.07480*%
%ADD23C,0.05524*%
%ADD24C,0.06706*%
%ADD25C,0.03500*%
D10*
X0116564Y0047786D03*
X0386564Y0047786D03*
X0406564Y0246786D03*
X0096564Y0246786D03*
D11*
X0151564Y0079286D03*
X0351564Y0079286D03*
D12*
X0021564Y0051786D03*
X0021564Y0091786D03*
X0096564Y0091786D03*
X0096564Y0051786D03*
X0405564Y0050786D03*
X0405564Y0090786D03*
X0480564Y0090786D03*
X0480564Y0050786D03*
D13*
X0381564Y0186786D03*
X0389064Y0191786D03*
X0381564Y0196786D03*
D14*
X0097123Y0187786D03*
X0092005Y0187786D03*
X0092005Y0177786D03*
X0097123Y0177786D03*
X0096623Y0224286D03*
X0091505Y0224286D03*
X0073623Y0240286D03*
X0068505Y0240286D03*
X0069005Y0246786D03*
X0074123Y0246786D03*
X0074123Y0254286D03*
X0069005Y0254286D03*
X0069005Y0261786D03*
X0074123Y0261786D03*
X0074123Y0269286D03*
X0069005Y0269286D03*
D15*
X0183764Y0098186D03*
X0209364Y0098186D03*
X0209364Y0080386D03*
X0184364Y0080386D03*
X0261864Y0080386D03*
X0286864Y0080386D03*
X0309364Y0080386D03*
X0334364Y0080386D03*
X0334364Y0098186D03*
X0308764Y0098186D03*
X0286864Y0098186D03*
X0261264Y0098186D03*
D16*
X0422664Y0136486D03*
X0440464Y0136486D03*
X0440464Y0162086D03*
X0422664Y0161486D03*
X0422664Y0201486D03*
X0440464Y0201486D03*
X0440464Y0227086D03*
X0422664Y0226486D03*
X0082964Y0227086D03*
X0065164Y0226486D03*
X0065164Y0201486D03*
X0082964Y0201486D03*
X0082964Y0164586D03*
X0065164Y0163986D03*
X0065164Y0138986D03*
X0082964Y0138986D03*
D17*
X0443764Y0251786D03*
X0469364Y0251786D03*
D18*
X0287064Y0064286D02*
X0287064Y0058286D01*
X0277064Y0058286D02*
X0277064Y0064286D01*
X0267064Y0064286D02*
X0267064Y0058286D01*
X0257064Y0058286D02*
X0257064Y0064286D01*
X0247064Y0064286D02*
X0247064Y0058286D01*
X0237064Y0058286D02*
X0237064Y0064286D01*
X0227064Y0064286D02*
X0227064Y0058286D01*
X0217064Y0058286D02*
X0217064Y0064286D01*
D19*
X0097964Y0195286D03*
X0090364Y0195286D03*
X0094164Y0203286D03*
X0097964Y0210286D03*
X0090364Y0210286D03*
X0094164Y0218286D03*
D20*
X0375564Y0213786D03*
X0375564Y0231286D03*
D21*
X0116268Y0230971D03*
X0116268Y0232939D03*
X0116268Y0234908D03*
X0116268Y0236876D03*
X0116268Y0238845D03*
X0116268Y0240813D03*
X0116268Y0242782D03*
X0116268Y0244750D03*
X0116268Y0246719D03*
X0116268Y0248687D03*
X0116268Y0250656D03*
X0116268Y0252624D03*
X0116268Y0254593D03*
X0116268Y0256561D03*
X0116268Y0258530D03*
X0116268Y0260498D03*
X0116268Y0262467D03*
X0116268Y0229002D03*
X0116268Y0227034D03*
X0116268Y0225065D03*
X0116268Y0223097D03*
X0116268Y0221128D03*
X0116268Y0219160D03*
X0116268Y0217191D03*
X0116268Y0215223D03*
X0116268Y0213254D03*
X0116268Y0211286D03*
X0116268Y0209317D03*
X0116268Y0207349D03*
X0116268Y0205380D03*
X0116268Y0203412D03*
X0116268Y0201443D03*
X0116268Y0199475D03*
X0116268Y0197506D03*
X0116268Y0195538D03*
X0116268Y0193569D03*
X0116268Y0191601D03*
X0116268Y0189632D03*
X0116268Y0187664D03*
X0116268Y0185695D03*
X0116268Y0183727D03*
X0116268Y0181758D03*
X0116268Y0179790D03*
X0116268Y0177821D03*
X0116268Y0175853D03*
D22*
X0129064Y0168372D03*
X0129064Y0269947D03*
D23*
X0168949Y0066361D02*
X0173674Y0066361D01*
X0145131Y0050613D02*
X0145131Y0045888D01*
X0135682Y0051400D02*
X0135682Y0056124D01*
X0173477Y0038408D02*
X0173477Y0033683D01*
X0157926Y0023054D02*
X0153201Y0023054D01*
X0331182Y0051400D02*
X0331182Y0056124D01*
X0340631Y0050613D02*
X0340631Y0045888D01*
X0368977Y0038408D02*
X0368977Y0033683D01*
X0353426Y0023054D02*
X0348701Y0023054D01*
X0364449Y0066361D02*
X0369174Y0066361D01*
D24*
X0321434Y0046825D02*
X0321434Y0040920D01*
X0321434Y0027928D02*
X0321434Y0022022D01*
X0292694Y0022022D02*
X0292694Y0027928D01*
X0292694Y0040920D02*
X0292694Y0046825D01*
X0213434Y0046825D02*
X0213434Y0040920D01*
X0213434Y0027928D02*
X0213434Y0022022D01*
X0184694Y0022022D02*
X0184694Y0027928D01*
X0184694Y0040920D02*
X0184694Y0046825D01*
D25*
X0189664Y0048886D03*
X0204364Y0065986D03*
X0205864Y0075886D03*
X0197464Y0088186D03*
X0224164Y0092986D03*
X0224164Y0096286D03*
X0224764Y0083986D03*
X0233464Y0083986D03*
X0261364Y0084886D03*
X0268864Y0078586D03*
X0279964Y0094186D03*
X0261364Y0102886D03*
X0280264Y0112186D03*
X0280264Y0115486D03*
X0293164Y0121486D03*
X0293164Y0126886D03*
X0293164Y0134086D03*
X0297664Y0141886D03*
X0305164Y0144286D03*
X0293164Y0149686D03*
X0281464Y0155686D03*
X0274264Y0158086D03*
X0268264Y0154186D03*
X0262864Y0152086D03*
X0264064Y0146686D03*
X0274264Y0151786D03*
X0263464Y0158086D03*
X0250864Y0152086D03*
X0245764Y0141886D03*
X0241264Y0142486D03*
X0234964Y0134386D03*
X0239464Y0128986D03*
X0227164Y0129886D03*
X0229564Y0122386D03*
X0227164Y0139786D03*
X0203164Y0152086D03*
X0187864Y0154486D03*
X0187864Y0143386D03*
X0175864Y0144886D03*
X0172564Y0141586D03*
X0170164Y0137986D03*
X0165664Y0141586D03*
X0161164Y0140386D03*
X0158764Y0136186D03*
X0152764Y0136186D03*
X0146464Y0133786D03*
X0144364Y0136786D03*
X0132664Y0136786D03*
X0130264Y0139186D03*
X0125164Y0147586D03*
X0111364Y0147886D03*
X0107164Y0148186D03*
X0078364Y0142786D03*
X0075964Y0152986D03*
X0065464Y0153286D03*
X0048664Y0151786D03*
X0048364Y0163786D03*
X0064564Y0173386D03*
X0067864Y0172786D03*
X0070864Y0170986D03*
X0052264Y0182386D03*
X0060064Y0183586D03*
X0066664Y0190786D03*
X0075364Y0189886D03*
X0073564Y0196486D03*
X0069964Y0194086D03*
X0072364Y0199786D03*
X0086164Y0192886D03*
X0088564Y0187186D03*
X0096664Y0199186D03*
X0103564Y0197386D03*
X0108364Y0195286D03*
X0111664Y0195286D03*
X0121264Y0200386D03*
X0128764Y0204586D03*
X0128764Y0207886D03*
X0126064Y0209986D03*
X0123664Y0216886D03*
X0111664Y0224386D03*
X0111064Y0229486D03*
X0106264Y0229486D03*
X0120964Y0237286D03*
X0120964Y0240586D03*
X0126664Y0242686D03*
X0121864Y0247486D03*
X0122164Y0253486D03*
X0094564Y0265786D03*
X0079864Y0255886D03*
X0077464Y0252886D03*
X0061864Y0240586D03*
X0045364Y0236986D03*
X0040264Y0243886D03*
X0031864Y0237286D03*
X0017764Y0237886D03*
X0045964Y0229486D03*
X0078364Y0230686D03*
X0087664Y0227386D03*
X0078364Y0214786D03*
X0087664Y0206686D03*
X0098464Y0202486D03*
X0100864Y0206686D03*
X0104464Y0204586D03*
X0108064Y0204286D03*
X0106864Y0207586D03*
X0127564Y0185086D03*
X0126064Y0173986D03*
X0097564Y0173086D03*
X0044764Y0197986D03*
X0038764Y0196786D03*
X0034264Y0204586D03*
X0051364Y0207586D03*
X0129064Y0232486D03*
X0071464Y0265786D03*
X0074164Y0273286D03*
X0051664Y0265486D03*
X0277864Y0144286D03*
X0282364Y0142186D03*
X0284764Y0139486D03*
X0275464Y0139486D03*
X0264964Y0126586D03*
X0262864Y0123886D03*
X0305164Y0113986D03*
X0305164Y0109486D03*
X0326164Y0120586D03*
X0328564Y0132286D03*
X0333064Y0133786D03*
X0335464Y0131386D03*
X0352864Y0132886D03*
X0363364Y0125086D03*
X0365764Y0129286D03*
X0370564Y0135286D03*
X0369964Y0139186D03*
X0369664Y0143986D03*
X0384364Y0147886D03*
X0364564Y0163486D03*
X0350164Y0155686D03*
X0355864Y0153286D03*
X0330664Y0142786D03*
X0324964Y0145186D03*
X0310564Y0131686D03*
X0312064Y0158086D03*
X0372964Y0118786D03*
X0380164Y0123286D03*
X0402664Y0128686D03*
X0415564Y0128686D03*
X0417964Y0131386D03*
X0423064Y0125086D03*
X0434164Y0125086D03*
X0448564Y0137686D03*
X0447364Y0143686D03*
X0442564Y0143686D03*
X0427864Y0149986D03*
X0444964Y0157486D03*
X0449164Y0164086D03*
X0435964Y0166786D03*
X0438664Y0172786D03*
X0433564Y0180586D03*
X0420964Y0180886D03*
X0422164Y0172786D03*
X0395764Y0168886D03*
X0391864Y0172186D03*
X0414664Y0192586D03*
X0417964Y0197086D03*
X0409264Y0201886D03*
X0405364Y0201886D03*
X0436264Y0207586D03*
X0444964Y0199486D03*
X0468064Y0196186D03*
X0478864Y0183286D03*
X0473164Y0176686D03*
X0474964Y0169186D03*
X0478864Y0162586D03*
X0463864Y0152986D03*
X0380464Y0105886D03*
X0357064Y0113386D03*
X0355864Y0095386D03*
X0383464Y0089986D03*
X0393064Y0088786D03*
X0348364Y0067786D03*
X0318664Y0055786D03*
X0309664Y0069586D03*
X0300964Y0085186D03*
X0318064Y0086386D03*
X0286564Y0046786D03*
X0238864Y0050686D03*
X0166264Y0092986D03*
X0165364Y0097786D03*
X0164164Y0104686D03*
X0177964Y0103486D03*
X0188464Y0113986D03*
X0187864Y0121786D03*
X0165664Y0121186D03*
X0159964Y0118786D03*
X0132364Y0123886D03*
X0126364Y0125386D03*
X0126964Y0119086D03*
X0110464Y0116686D03*
X0106864Y0119086D03*
X0106864Y0125386D03*
X0097864Y0111586D03*
X0084964Y0119086D03*
X0079564Y0115786D03*
X0069064Y0119686D03*
X0081064Y0122986D03*
X0103264Y0098086D03*
X0105664Y0094186D03*
X0127264Y0082186D03*
X0130864Y0065686D03*
X0136564Y0067186D03*
X0130564Y0099286D03*
X0130564Y0102586D03*
X0380464Y0244186D03*
X0435964Y0230686D03*
X0435964Y0225586D03*
M02*
