G75*
%MOIN*%
%OFA0B0*%
%FSLAX25Y25*%
%IPPOS*%
%LPD*%
%AMOC8*
5,1,8,0,0,1.08239X$1,22.5*
%
%ADD10R,0.05250X0.05250*%
%ADD11OC8,0.05000*%
%ADD12R,0.02756X0.03543*%
%ADD13R,0.10000X0.05000*%
%ADD14R,0.05000X0.10000*%
%ADD15OC8,0.08500*%
%ADD16C,0.06000*%
%ADD17R,0.03100X0.03500*%
%ADD18OC8,0.12400*%
%ADD19R,0.05118X0.01181*%
%ADD20R,0.08661X0.07087*%
%ADD21C,0.04724*%
%ADD22C,0.05906*%
%ADD23C,0.00600*%
%ADD24C,0.02700*%
%ADD25C,0.01200*%
D10*
X0026300Y0053786D03*
X0026300Y0093786D03*
X0101300Y0093786D03*
X0101300Y0053786D03*
X0410300Y0052786D03*
X0410300Y0092786D03*
X0485300Y0092786D03*
X0485300Y0052786D03*
D11*
X0386300Y0188786D03*
X0393800Y0193786D03*
X0386300Y0198786D03*
D12*
X0101859Y0189786D03*
X0096741Y0189786D03*
X0096741Y0179786D03*
X0101859Y0179786D03*
X0101359Y0226286D03*
X0096241Y0226286D03*
X0078359Y0242286D03*
X0073241Y0242286D03*
X0073741Y0248786D03*
X0078859Y0248786D03*
X0078859Y0256286D03*
X0073741Y0256286D03*
X0073741Y0263786D03*
X0078859Y0263786D03*
X0078859Y0271286D03*
X0073741Y0271286D03*
D13*
X0188500Y0100186D03*
X0214100Y0100186D03*
X0214100Y0082386D03*
X0189100Y0082386D03*
X0266000Y0100186D03*
X0291600Y0100186D03*
X0313500Y0100186D03*
X0339100Y0100186D03*
X0339100Y0082386D03*
X0314100Y0082386D03*
X0291600Y0082386D03*
X0266600Y0082386D03*
D14*
X0422400Y0138486D03*
X0440200Y0138486D03*
X0440200Y0164086D03*
X0422400Y0163486D03*
X0422400Y0203486D03*
X0440200Y0203486D03*
X0440200Y0229086D03*
X0422400Y0228486D03*
X0087700Y0229086D03*
X0069900Y0228486D03*
X0069900Y0203486D03*
X0087700Y0203486D03*
X0087700Y0166586D03*
X0069900Y0165986D03*
X0069900Y0140986D03*
X0087700Y0140986D03*
D15*
X0448500Y0253786D03*
X0474100Y0253786D03*
D16*
X0291800Y0066286D02*
X0291800Y0060286D01*
X0281800Y0060286D02*
X0281800Y0066286D01*
X0271800Y0066286D02*
X0271800Y0060286D01*
X0261800Y0060286D02*
X0261800Y0066286D01*
X0251800Y0066286D02*
X0251800Y0060286D01*
X0241800Y0060286D02*
X0241800Y0066286D01*
X0231800Y0066286D02*
X0231800Y0060286D01*
X0221800Y0060286D02*
X0221800Y0066286D01*
D17*
X0102700Y0197286D03*
X0095100Y0197286D03*
X0098900Y0205286D03*
X0095100Y0212286D03*
X0102700Y0212286D03*
X0098900Y0220286D03*
D18*
X0380300Y0215786D03*
X0380300Y0233286D03*
D19*
X0121005Y0232971D03*
X0121005Y0234939D03*
X0121005Y0236908D03*
X0121005Y0238876D03*
X0121005Y0240845D03*
X0121005Y0242813D03*
X0121005Y0244782D03*
X0121005Y0246750D03*
X0121005Y0248719D03*
X0121005Y0250687D03*
X0121005Y0252656D03*
X0121005Y0254624D03*
X0121005Y0256593D03*
X0121005Y0258561D03*
X0121005Y0260530D03*
X0121005Y0262498D03*
X0121005Y0264467D03*
X0121005Y0231002D03*
X0121005Y0229034D03*
X0121005Y0227065D03*
X0121005Y0225097D03*
X0121005Y0223128D03*
X0121005Y0221160D03*
X0121005Y0219191D03*
X0121005Y0217223D03*
X0121005Y0215254D03*
X0121005Y0213286D03*
X0121005Y0211317D03*
X0121005Y0209349D03*
X0121005Y0207380D03*
X0121005Y0205412D03*
X0121005Y0203443D03*
X0121005Y0201475D03*
X0121005Y0199506D03*
X0121005Y0197538D03*
X0121005Y0195569D03*
X0121005Y0193601D03*
X0121005Y0191632D03*
X0121005Y0189664D03*
X0121005Y0187695D03*
X0121005Y0185727D03*
X0121005Y0183758D03*
X0121005Y0181790D03*
X0121005Y0179821D03*
X0121005Y0177853D03*
D20*
X0133800Y0170372D03*
X0133800Y0271947D03*
D21*
X0173686Y0066361D02*
X0178410Y0066361D01*
X0149867Y0050613D02*
X0149867Y0045888D01*
X0140418Y0051400D02*
X0140418Y0056124D01*
X0178213Y0038408D02*
X0178213Y0033683D01*
X0162662Y0023054D02*
X0157938Y0023054D01*
X0335918Y0051400D02*
X0335918Y0056124D01*
X0345367Y0050613D02*
X0345367Y0045888D01*
X0373713Y0038408D02*
X0373713Y0033683D01*
X0358162Y0023054D02*
X0353438Y0023054D01*
X0369186Y0066361D02*
X0373910Y0066361D01*
D22*
X0326170Y0048825D02*
X0326170Y0042920D01*
X0326170Y0029928D02*
X0326170Y0024022D01*
X0297430Y0024022D02*
X0297430Y0029928D01*
X0297430Y0042920D02*
X0297430Y0048825D01*
X0218170Y0048825D02*
X0218170Y0042920D01*
X0218170Y0029928D02*
X0218170Y0024022D01*
X0189430Y0024022D02*
X0189430Y0029928D01*
X0189430Y0042920D02*
X0189430Y0048825D01*
D23*
X0205500Y0055186D02*
X0205500Y0060586D01*
X0205500Y0055186D02*
X0166800Y0055186D01*
X0105000Y0116986D01*
X0104700Y0114586D02*
X0103200Y0114586D01*
X0085200Y0132586D01*
X0083700Y0132586D01*
X0073500Y0142786D01*
X0073500Y0146386D01*
X0072300Y0147586D01*
X0066000Y0147586D01*
X0067200Y0151186D02*
X0052650Y0165736D01*
X0052800Y0165886D01*
X0052800Y0167086D01*
X0052650Y0165736D02*
X0048000Y0161086D01*
X0048553Y0163336D02*
X0047068Y0163336D01*
X0046800Y0163068D01*
X0046800Y0247289D01*
X0067950Y0268439D01*
X0067950Y0267854D01*
X0069268Y0266536D01*
X0069553Y0266536D01*
X0066600Y0263583D01*
X0066600Y0246783D01*
X0051000Y0231183D01*
X0051000Y0174389D01*
X0051703Y0173686D01*
X0073003Y0152386D01*
X0067697Y0152386D01*
X0054490Y0165593D01*
X0055050Y0166154D01*
X0055050Y0168018D01*
X0053732Y0169336D01*
X0051868Y0169336D01*
X0050550Y0168018D01*
X0050550Y0166154D01*
X0050960Y0165743D01*
X0048553Y0163336D01*
X0048631Y0163414D02*
X0046800Y0163414D01*
X0046800Y0164012D02*
X0049229Y0164012D01*
X0049828Y0164611D02*
X0046800Y0164611D01*
X0046800Y0165209D02*
X0050426Y0165209D01*
X0050896Y0165808D02*
X0046800Y0165808D01*
X0046800Y0166406D02*
X0050550Y0166406D01*
X0050550Y0167005D02*
X0046800Y0167005D01*
X0046800Y0167603D02*
X0050550Y0167603D01*
X0050734Y0168202D02*
X0046800Y0168202D01*
X0046800Y0168800D02*
X0051332Y0168800D01*
X0054268Y0168800D02*
X0056589Y0168800D01*
X0057187Y0168202D02*
X0054866Y0168202D01*
X0055050Y0167603D02*
X0057786Y0167603D01*
X0058384Y0167005D02*
X0055050Y0167005D01*
X0055050Y0166406D02*
X0058983Y0166406D01*
X0059581Y0165808D02*
X0054704Y0165808D01*
X0054874Y0165209D02*
X0060180Y0165209D01*
X0060778Y0164611D02*
X0055472Y0164611D01*
X0056071Y0164012D02*
X0061377Y0164012D01*
X0061975Y0163414D02*
X0056669Y0163414D01*
X0057268Y0162815D02*
X0062574Y0162815D01*
X0063172Y0162217D02*
X0057866Y0162217D01*
X0058465Y0161618D02*
X0063771Y0161618D01*
X0064369Y0161020D02*
X0059063Y0161020D01*
X0059662Y0160421D02*
X0064968Y0160421D01*
X0065566Y0159823D02*
X0060260Y0159823D01*
X0060859Y0159224D02*
X0066165Y0159224D01*
X0066763Y0158626D02*
X0061457Y0158626D01*
X0062056Y0158027D02*
X0067362Y0158027D01*
X0067960Y0157429D02*
X0062654Y0157429D01*
X0063253Y0156830D02*
X0068559Y0156830D01*
X0069157Y0156232D02*
X0063851Y0156232D01*
X0064450Y0155633D02*
X0069756Y0155633D01*
X0070354Y0155034D02*
X0065048Y0155034D01*
X0065647Y0154436D02*
X0070953Y0154436D01*
X0071551Y0153837D02*
X0066245Y0153837D01*
X0066844Y0153239D02*
X0072150Y0153239D01*
X0072748Y0152640D02*
X0067442Y0152640D01*
X0067200Y0151186D02*
X0086400Y0151186D01*
X0109800Y0127786D01*
X0109800Y0124186D01*
X0108600Y0118486D02*
X0092100Y0134986D01*
X0084900Y0134986D01*
X0079200Y0140686D01*
X0079200Y0148486D01*
X0077700Y0149986D01*
X0055800Y0149986D01*
X0045600Y0160186D01*
X0045600Y0247786D01*
X0072000Y0274186D01*
X0075300Y0274186D01*
X0076500Y0272986D01*
X0076500Y0267286D01*
X0078600Y0265186D01*
X0078600Y0263986D01*
X0078859Y0263786D01*
X0078900Y0263686D01*
X0091500Y0263686D01*
X0089793Y0265161D02*
X0085057Y0265161D01*
X0084782Y0264886D02*
X0085650Y0265754D01*
X0085650Y0267618D01*
X0084332Y0268936D01*
X0082847Y0268936D01*
X0081137Y0270646D01*
X0081137Y0273430D01*
X0080610Y0273957D01*
X0077225Y0273957D01*
X0076997Y0274186D01*
X0115003Y0274186D01*
X0122831Y0266357D01*
X0121005Y0266357D01*
X0121005Y0264467D01*
X0121005Y0264467D01*
X0121005Y0266357D01*
X0118275Y0266357D01*
X0117944Y0266269D01*
X0117647Y0266098D01*
X0117405Y0265856D01*
X0117234Y0265559D01*
X0117146Y0265229D01*
X0117146Y0264467D01*
X0121005Y0264467D01*
X0121005Y0264467D01*
X0117146Y0264467D01*
X0117146Y0263986D01*
X0113721Y0263986D01*
X0108450Y0269257D01*
X0108450Y0270318D01*
X0107132Y0271636D01*
X0105268Y0271636D01*
X0103950Y0270318D01*
X0103950Y0270033D01*
X0103697Y0270286D01*
X0100903Y0270286D01*
X0100200Y0269583D01*
X0093750Y0263133D01*
X0093750Y0264618D01*
X0092432Y0265936D01*
X0090568Y0265936D01*
X0089518Y0264886D01*
X0084782Y0264886D01*
X0085650Y0265759D02*
X0090391Y0265759D01*
X0092609Y0265759D02*
X0096376Y0265759D01*
X0095778Y0265161D02*
X0093207Y0265161D01*
X0093750Y0264562D02*
X0095179Y0264562D01*
X0094581Y0263964D02*
X0093750Y0263964D01*
X0093750Y0263365D02*
X0093982Y0263365D01*
X0093300Y0260986D02*
X0101400Y0269086D01*
X0103200Y0269086D01*
X0117300Y0254986D01*
X0117300Y0253786D01*
X0118200Y0252886D01*
X0120900Y0252886D01*
X0121005Y0252656D01*
X0121200Y0250786D02*
X0121005Y0250687D01*
X0121200Y0250786D02*
X0123600Y0250786D01*
X0124500Y0251686D01*
X0124500Y0251986D01*
X0125700Y0253186D01*
X0127950Y0253190D02*
X0135998Y0253190D01*
X0136200Y0252989D02*
X0136200Y0227707D01*
X0135300Y0228607D01*
X0135300Y0238904D01*
X0136050Y0239654D01*
X0136050Y0241518D01*
X0134732Y0242836D01*
X0132868Y0242836D01*
X0131550Y0241518D01*
X0131550Y0239654D01*
X0132300Y0238904D01*
X0132300Y0228607D01*
X0132300Y0227364D01*
X0134400Y0225264D01*
X0134400Y0208207D01*
X0124837Y0198644D01*
X0124864Y0198745D01*
X0124864Y0199506D01*
X0121005Y0199506D01*
X0121005Y0199506D01*
X0124864Y0199506D01*
X0124864Y0200268D01*
X0124804Y0200491D01*
X0124864Y0200713D01*
X0124864Y0201475D01*
X0124864Y0202237D01*
X0124804Y0202459D01*
X0124864Y0202682D01*
X0124864Y0203443D01*
X0121005Y0203443D01*
X0121005Y0203443D01*
X0121005Y0201475D01*
X0124864Y0201475D01*
X0121005Y0201475D01*
X0121005Y0201475D01*
X0121005Y0201475D01*
X0121005Y0203365D01*
X0121005Y0203443D01*
X0121005Y0203443D01*
X0124864Y0203443D01*
X0124864Y0204205D01*
X0124804Y0204428D01*
X0124864Y0204650D01*
X0124864Y0205412D01*
X0124864Y0206174D01*
X0124804Y0206396D01*
X0124864Y0206619D01*
X0124864Y0207380D01*
X0121005Y0207380D01*
X0121005Y0207380D01*
X0121005Y0205412D01*
X0124864Y0205412D01*
X0121005Y0205412D01*
X0121005Y0205412D01*
X0121005Y0205412D01*
X0121005Y0207302D01*
X0121005Y0207380D01*
X0121005Y0207380D01*
X0124864Y0207380D01*
X0124864Y0208142D01*
X0124804Y0208365D01*
X0124864Y0208587D01*
X0124864Y0209349D01*
X0124864Y0210111D01*
X0124804Y0210333D01*
X0124864Y0210556D01*
X0124864Y0211317D01*
X0121005Y0211317D01*
X0121005Y0211317D01*
X0121005Y0209349D01*
X0124864Y0209349D01*
X0121005Y0209349D01*
X0121005Y0209349D01*
X0121005Y0209349D01*
X0121005Y0211239D01*
X0121005Y0211317D01*
X0121005Y0211317D01*
X0124864Y0211317D01*
X0124864Y0212079D01*
X0124804Y0212302D01*
X0124864Y0212524D01*
X0124864Y0213286D01*
X0124864Y0214048D01*
X0124804Y0214270D01*
X0124864Y0214493D01*
X0124864Y0215254D01*
X0121005Y0215254D01*
X0121005Y0215254D01*
X0121005Y0213286D01*
X0124864Y0213286D01*
X0121005Y0213286D01*
X0121005Y0213286D01*
X0121005Y0213286D01*
X0121005Y0215176D01*
X0121005Y0215254D01*
X0121005Y0215254D01*
X0124864Y0215254D01*
X0124864Y0216016D01*
X0124804Y0216239D01*
X0124864Y0216461D01*
X0124864Y0217223D01*
X0124864Y0217985D01*
X0124812Y0218176D01*
X0125250Y0217739D01*
X0125250Y0216254D01*
X0126568Y0214936D01*
X0128432Y0214936D01*
X0129750Y0216254D01*
X0129750Y0218118D01*
X0128432Y0219436D01*
X0126947Y0219436D01*
X0124464Y0221919D01*
X0124464Y0221986D01*
X0127018Y0221986D01*
X0128068Y0220936D01*
X0129150Y0220936D01*
X0129150Y0219854D01*
X0130468Y0218536D01*
X0132332Y0218536D01*
X0133650Y0219854D01*
X0133650Y0221718D01*
X0132600Y0222768D01*
X0132600Y0224583D01*
X0131897Y0225286D01*
X0127097Y0230086D01*
X0124464Y0230086D01*
X0124464Y0231966D01*
X0124443Y0231987D01*
X0124464Y0232008D01*
X0124464Y0233410D01*
X0124604Y0233551D01*
X0124775Y0233847D01*
X0124864Y0234178D01*
X0124864Y0234939D01*
X0121005Y0234939D01*
X0121005Y0234939D01*
X0124864Y0234939D01*
X0124864Y0235701D01*
X0124804Y0235924D01*
X0124864Y0236146D01*
X0124864Y0236908D01*
X0124864Y0237670D01*
X0124804Y0237892D01*
X0124864Y0238115D01*
X0124864Y0238876D01*
X0121005Y0238876D01*
X0121005Y0236908D01*
X0124864Y0236908D01*
X0121005Y0236908D01*
X0121005Y0236908D01*
X0121005Y0236908D01*
X0121005Y0234939D01*
X0117146Y0234939D01*
X0117146Y0234178D01*
X0117197Y0233986D01*
X0115903Y0233986D01*
X0108703Y0226786D01*
X0108000Y0226083D01*
X0108000Y0222468D01*
X0106950Y0221418D01*
X0106950Y0219554D01*
X0108268Y0218236D01*
X0109350Y0218236D01*
X0109350Y0217154D01*
X0110668Y0215836D01*
X0110953Y0215836D01*
X0109200Y0214083D01*
X0109200Y0212283D01*
X0105197Y0216286D01*
X0099797Y0216286D01*
X0098447Y0217636D01*
X0100823Y0217636D01*
X0101350Y0218163D01*
X0101350Y0222409D01*
X0100823Y0222936D01*
X0100200Y0222936D01*
X0100200Y0223589D01*
X0100225Y0223614D01*
X0103110Y0223614D01*
X0103637Y0224141D01*
X0103637Y0228430D01*
X0103110Y0228957D01*
X0099608Y0228957D01*
X0099081Y0228430D01*
X0099081Y0225864D01*
X0098519Y0225302D01*
X0098519Y0228430D01*
X0097992Y0228957D01*
X0094490Y0228957D01*
X0093963Y0228430D01*
X0093963Y0224141D01*
X0094490Y0223614D01*
X0095100Y0223614D01*
X0095100Y0217589D01*
X0098100Y0214589D01*
X0098803Y0213886D01*
X0100250Y0213886D01*
X0100250Y0210163D01*
X0100777Y0209636D01*
X0101700Y0209636D01*
X0101700Y0203236D01*
X0101350Y0203236D01*
X0101350Y0207409D01*
X0100823Y0207936D01*
X0096977Y0207936D01*
X0096450Y0207409D01*
X0096450Y0203163D01*
X0096977Y0202636D01*
X0097800Y0202636D01*
X0097800Y0199644D01*
X0097690Y0199834D01*
X0097448Y0200076D01*
X0097152Y0200247D01*
X0096821Y0200336D01*
X0095400Y0200336D01*
X0095400Y0197586D01*
X0094800Y0197586D01*
X0094800Y0200336D01*
X0093379Y0200336D01*
X0093048Y0200247D01*
X0092752Y0200076D01*
X0092510Y0199834D01*
X0092400Y0199644D01*
X0092400Y0209928D01*
X0092510Y0209738D01*
X0092752Y0209496D01*
X0093048Y0209324D01*
X0093379Y0209236D01*
X0094800Y0209236D01*
X0094800Y0211986D01*
X0095400Y0211986D01*
X0095400Y0212586D01*
X0094800Y0212586D01*
X0094800Y0215336D01*
X0093379Y0215336D01*
X0093048Y0215247D01*
X0092752Y0215076D01*
X0092510Y0214834D01*
X0092400Y0214644D01*
X0092400Y0217083D01*
X0086697Y0222786D01*
X0087400Y0222786D01*
X0087400Y0228786D01*
X0083900Y0228786D01*
X0083900Y0225583D01*
X0081600Y0227883D01*
X0081600Y0233504D01*
X0081868Y0233236D01*
X0083732Y0233236D01*
X0083900Y0233404D01*
X0083900Y0229386D01*
X0087400Y0229386D01*
X0087400Y0235386D01*
X0085050Y0235386D01*
X0085050Y0236418D01*
X0084000Y0237468D01*
X0084000Y0241889D01*
X0084797Y0242686D01*
X0085500Y0243389D01*
X0085500Y0246689D01*
X0085800Y0246389D01*
X0085800Y0242189D01*
X0094200Y0233789D01*
X0094903Y0233086D01*
X0107597Y0233086D01*
X0117146Y0242634D01*
X0117146Y0242052D01*
X0117205Y0241829D01*
X0117146Y0241607D01*
X0117146Y0240845D01*
X0121005Y0240845D01*
X0124864Y0240845D01*
X0124864Y0241607D01*
X0124804Y0241829D01*
X0124864Y0242052D01*
X0124864Y0242536D01*
X0126632Y0242536D01*
X0127950Y0243854D01*
X0127950Y0245718D01*
X0126632Y0247036D01*
X0124768Y0247036D01*
X0124464Y0246732D01*
X0124464Y0247714D01*
X0124443Y0247735D01*
X0124464Y0247756D01*
X0124464Y0249682D01*
X0124443Y0249703D01*
X0124464Y0249724D01*
X0124464Y0249953D01*
X0124800Y0250289D01*
X0125447Y0250936D01*
X0126632Y0250936D01*
X0127950Y0252254D01*
X0127950Y0254118D01*
X0126632Y0255436D01*
X0124850Y0255436D01*
X0124804Y0255609D01*
X0124864Y0255831D01*
X0124864Y0256593D01*
X0124864Y0257355D01*
X0124804Y0257577D01*
X0124864Y0257800D01*
X0124864Y0258561D01*
X0121005Y0258561D01*
X0121005Y0256593D01*
X0124864Y0256593D01*
X0121005Y0256593D01*
X0121005Y0256593D01*
X0121005Y0256593D01*
X0121005Y0254625D01*
X0121005Y0254625D01*
X0121005Y0256515D01*
X0121005Y0256593D01*
X0121005Y0256593D01*
X0121005Y0258483D01*
X0121005Y0258561D01*
X0121005Y0258561D01*
X0121005Y0258561D01*
X0124864Y0258561D01*
X0124864Y0259323D01*
X0124775Y0259654D01*
X0124604Y0259950D01*
X0124464Y0260090D01*
X0124464Y0261493D01*
X0124443Y0261514D01*
X0124464Y0261535D01*
X0124464Y0262938D01*
X0124604Y0263078D01*
X0124775Y0263375D01*
X0124864Y0263705D01*
X0124864Y0264325D01*
X0136200Y0252989D01*
X0136200Y0252592D02*
X0127950Y0252592D01*
X0127689Y0251993D02*
X0136200Y0251993D01*
X0136200Y0251395D02*
X0127091Y0251395D01*
X0125308Y0250796D02*
X0136200Y0250796D01*
X0136200Y0250198D02*
X0124709Y0250198D01*
X0124464Y0249599D02*
X0136200Y0249599D01*
X0136200Y0249001D02*
X0124464Y0249001D01*
X0124464Y0248402D02*
X0136200Y0248402D01*
X0136200Y0247804D02*
X0124464Y0247804D01*
X0124464Y0247205D02*
X0136200Y0247205D01*
X0136200Y0246607D02*
X0127061Y0246607D01*
X0127660Y0246008D02*
X0136200Y0246008D01*
X0136200Y0245410D02*
X0127950Y0245410D01*
X0127950Y0244811D02*
X0136200Y0244811D01*
X0136200Y0244213D02*
X0127950Y0244213D01*
X0127710Y0243614D02*
X0136200Y0243614D01*
X0136200Y0243016D02*
X0127112Y0243016D01*
X0125700Y0244786D02*
X0121200Y0244786D01*
X0121005Y0244782D01*
X0120900Y0246586D02*
X0121005Y0246750D01*
X0120900Y0246586D02*
X0118200Y0246586D01*
X0117300Y0245686D01*
X0117300Y0244486D01*
X0107100Y0234286D01*
X0095400Y0234286D01*
X0087000Y0242686D01*
X0087000Y0246886D01*
X0079650Y0254236D01*
X0076500Y0251086D01*
X0076500Y0246886D01*
X0075900Y0246286D01*
X0075900Y0240286D01*
X0075000Y0239386D01*
X0072000Y0239386D01*
X0053400Y0220786D01*
X0053400Y0177886D01*
X0065400Y0165886D01*
X0065400Y0169186D02*
X0065400Y0173086D01*
X0054600Y0183886D01*
X0054600Y0212986D01*
X0069900Y0228286D01*
X0069900Y0228486D01*
X0080400Y0227386D02*
X0080400Y0239686D01*
X0081600Y0240886D01*
X0081600Y0244786D01*
X0081900Y0244786D01*
X0078900Y0247786D01*
X0078900Y0248686D01*
X0078859Y0248786D01*
X0082500Y0248086D02*
X0084300Y0246286D01*
X0084300Y0243886D01*
X0082800Y0242386D01*
X0082800Y0235486D01*
X0084437Y0237031D02*
X0090958Y0237031D01*
X0090360Y0237629D02*
X0084000Y0237629D01*
X0084000Y0238228D02*
X0089761Y0238228D01*
X0089163Y0238826D02*
X0084000Y0238826D01*
X0084000Y0239425D02*
X0088564Y0239425D01*
X0087966Y0240023D02*
X0084000Y0240023D01*
X0084000Y0240622D02*
X0087367Y0240622D01*
X0086769Y0241220D02*
X0084000Y0241220D01*
X0084000Y0241819D02*
X0086170Y0241819D01*
X0085800Y0242417D02*
X0084528Y0242417D01*
X0085127Y0243016D02*
X0085800Y0243016D01*
X0085800Y0243614D02*
X0085500Y0243614D01*
X0085500Y0244213D02*
X0085800Y0244213D01*
X0085800Y0244811D02*
X0085500Y0244811D01*
X0085500Y0245410D02*
X0085800Y0245410D01*
X0085800Y0246008D02*
X0085500Y0246008D01*
X0085500Y0246607D02*
X0085582Y0246607D01*
X0078600Y0242086D02*
X0078359Y0242286D01*
X0078600Y0242086D02*
X0078600Y0202786D01*
X0079500Y0201886D01*
X0079500Y0173086D01*
X0077400Y0170986D01*
X0077400Y0168586D01*
X0083100Y0162886D01*
X0082547Y0165136D02*
X0079847Y0167836D01*
X0080732Y0167836D01*
X0082050Y0169154D01*
X0082050Y0170639D01*
X0084047Y0172636D01*
X0084419Y0172636D01*
X0084402Y0172626D01*
X0084160Y0172384D01*
X0083989Y0172088D01*
X0083900Y0171757D01*
X0083900Y0166886D01*
X0087400Y0166886D01*
X0087400Y0172204D01*
X0088000Y0171604D01*
X0088000Y0166886D01*
X0087400Y0166886D01*
X0087400Y0166286D01*
X0083900Y0166286D01*
X0083900Y0165136D01*
X0082547Y0165136D01*
X0082474Y0165209D02*
X0083900Y0165209D01*
X0083900Y0165808D02*
X0081875Y0165808D01*
X0081277Y0166406D02*
X0087400Y0166406D01*
X0087400Y0167005D02*
X0088000Y0167005D01*
X0088000Y0166886D02*
X0091500Y0166886D01*
X0091500Y0171757D01*
X0091411Y0172088D01*
X0091240Y0172384D01*
X0091110Y0172514D01*
X0091350Y0172754D01*
X0091350Y0174618D01*
X0090032Y0175936D01*
X0088547Y0175936D01*
X0085500Y0178983D01*
X0085500Y0197586D01*
X0089103Y0197586D01*
X0086203Y0194686D01*
X0085500Y0193983D01*
X0085500Y0184889D01*
X0086203Y0184186D01*
X0101850Y0168539D01*
X0101850Y0167054D01*
X0103168Y0165736D01*
X0105032Y0165736D01*
X0106350Y0167054D01*
X0106350Y0168918D01*
X0105032Y0170236D01*
X0103547Y0170236D01*
X0100847Y0172936D01*
X0101132Y0172936D01*
X0102182Y0173986D01*
X0102197Y0173986D01*
X0102900Y0174689D01*
X0106200Y0177989D01*
X0106200Y0180704D01*
X0107250Y0181754D01*
X0107250Y0183618D01*
X0105932Y0184936D01*
X0105647Y0184936D01*
X0106997Y0186286D01*
X0117546Y0186286D01*
X0117546Y0184763D01*
X0117567Y0184743D01*
X0117546Y0184722D01*
X0117546Y0182795D01*
X0117567Y0182774D01*
X0117546Y0182753D01*
X0117546Y0180826D01*
X0117567Y0180806D01*
X0117546Y0180785D01*
X0117546Y0179382D01*
X0117405Y0179242D01*
X0117234Y0178945D01*
X0117146Y0178614D01*
X0117146Y0177853D01*
X0121005Y0177853D01*
X0121005Y0175962D01*
X0122079Y0175962D01*
X0107803Y0161686D01*
X0091500Y0161686D01*
X0091500Y0166286D01*
X0088000Y0166286D01*
X0088000Y0166886D01*
X0088000Y0166406D02*
X0102498Y0166406D01*
X0103096Y0165808D02*
X0091500Y0165808D01*
X0091500Y0165209D02*
X0111326Y0165209D01*
X0110728Y0164611D02*
X0091500Y0164611D01*
X0091500Y0164012D02*
X0110129Y0164012D01*
X0109531Y0163414D02*
X0091500Y0163414D01*
X0091500Y0162815D02*
X0108932Y0162815D01*
X0108334Y0162217D02*
X0091500Y0162217D01*
X0082200Y0160486D02*
X0108300Y0160486D01*
X0124500Y0176686D01*
X0124500Y0190786D01*
X0123900Y0191386D01*
X0121200Y0191386D01*
X0121005Y0191632D01*
X0120900Y0189886D02*
X0121005Y0189664D01*
X0120900Y0189886D02*
X0102000Y0189886D01*
X0101859Y0189786D01*
X0099300Y0191686D02*
X0099300Y0182386D01*
X0096900Y0179986D01*
X0096741Y0179786D01*
X0093808Y0176581D02*
X0087902Y0176581D01*
X0087303Y0177179D02*
X0093209Y0177179D01*
X0092611Y0177778D02*
X0086705Y0177778D01*
X0086106Y0178376D02*
X0092012Y0178376D01*
X0091414Y0178975D02*
X0085508Y0178975D01*
X0085500Y0179573D02*
X0090815Y0179573D01*
X0090217Y0180172D02*
X0085500Y0180172D01*
X0085500Y0180770D02*
X0089618Y0180770D01*
X0089020Y0181369D02*
X0085500Y0181369D01*
X0085500Y0181968D02*
X0088421Y0181968D01*
X0087823Y0182566D02*
X0085500Y0182566D01*
X0085500Y0183165D02*
X0087224Y0183165D01*
X0086626Y0183763D02*
X0085500Y0183763D01*
X0085500Y0184362D02*
X0086027Y0184362D01*
X0085500Y0184960D02*
X0085500Y0184960D01*
X0085500Y0185559D02*
X0085500Y0185559D01*
X0085500Y0186157D02*
X0085500Y0186157D01*
X0085500Y0186756D02*
X0085500Y0186756D01*
X0085500Y0187354D02*
X0085500Y0187354D01*
X0085500Y0187953D02*
X0085500Y0187953D01*
X0085500Y0188551D02*
X0085500Y0188551D01*
X0085500Y0189150D02*
X0085500Y0189150D01*
X0085500Y0189748D02*
X0085500Y0189748D01*
X0085500Y0190347D02*
X0085500Y0190347D01*
X0085500Y0190945D02*
X0085500Y0190945D01*
X0085500Y0191544D02*
X0085500Y0191544D01*
X0085500Y0192142D02*
X0085500Y0192142D01*
X0085500Y0192741D02*
X0085500Y0192741D01*
X0085500Y0193339D02*
X0085500Y0193339D01*
X0085500Y0193938D02*
X0085500Y0193938D01*
X0085500Y0194536D02*
X0086053Y0194536D01*
X0086203Y0194686D02*
X0086203Y0194686D01*
X0086652Y0195135D02*
X0085500Y0195135D01*
X0085500Y0195733D02*
X0087250Y0195733D01*
X0087849Y0196332D02*
X0085500Y0196332D01*
X0085500Y0196930D02*
X0088447Y0196930D01*
X0089046Y0197529D02*
X0085500Y0197529D01*
X0086700Y0193486D02*
X0091200Y0197986D01*
X0091200Y0216586D01*
X0080400Y0227386D01*
X0081600Y0228053D02*
X0083900Y0228053D01*
X0083900Y0228651D02*
X0081600Y0228651D01*
X0081600Y0229250D02*
X0087400Y0229250D01*
X0087400Y0229386D02*
X0087400Y0228786D01*
X0088000Y0228786D01*
X0088000Y0229386D01*
X0087400Y0229386D01*
X0087400Y0229848D02*
X0088000Y0229848D01*
X0088000Y0229386D02*
X0088000Y0235386D01*
X0090371Y0235386D01*
X0090702Y0235297D01*
X0090998Y0235126D01*
X0091240Y0234884D01*
X0091411Y0234588D01*
X0091500Y0234257D01*
X0091500Y0229386D01*
X0088000Y0229386D01*
X0088000Y0229250D02*
X0111167Y0229250D01*
X0111766Y0229848D02*
X0091500Y0229848D01*
X0091500Y0230447D02*
X0112364Y0230447D01*
X0112963Y0231045D02*
X0091500Y0231045D01*
X0091500Y0231644D02*
X0113561Y0231644D01*
X0114160Y0232242D02*
X0091500Y0232242D01*
X0091500Y0232841D02*
X0114758Y0232841D01*
X0115357Y0233439D02*
X0107951Y0233439D01*
X0108549Y0234038D02*
X0117183Y0234038D01*
X0117146Y0234637D02*
X0109148Y0234637D01*
X0109746Y0235235D02*
X0117146Y0235235D01*
X0117146Y0234939D02*
X0117146Y0235701D01*
X0117205Y0235924D01*
X0117146Y0236146D01*
X0117146Y0236908D01*
X0121005Y0236908D01*
X0121005Y0236908D01*
X0121005Y0238798D01*
X0121005Y0238876D01*
X0121005Y0238876D01*
X0121005Y0238876D01*
X0124864Y0238876D01*
X0124864Y0239638D01*
X0124804Y0239861D01*
X0124864Y0240083D01*
X0124864Y0240845D01*
X0121005Y0240845D01*
X0121005Y0240845D01*
X0121005Y0240845D01*
X0121005Y0242813D01*
X0121005Y0242813D01*
X0121005Y0242735D01*
X0121005Y0240845D01*
X0121005Y0238877D01*
X0121005Y0238877D01*
X0121005Y0240767D01*
X0121005Y0240845D01*
X0121005Y0240845D01*
X0121005Y0240845D01*
X0117146Y0240845D01*
X0117146Y0240083D01*
X0117205Y0239861D01*
X0117146Y0239638D01*
X0117146Y0238876D01*
X0117146Y0238115D01*
X0117205Y0237892D01*
X0117146Y0237670D01*
X0117146Y0236908D01*
X0121005Y0236908D01*
X0121005Y0236908D01*
X0121005Y0236830D01*
X0121005Y0234939D01*
X0121005Y0234939D01*
X0121005Y0234939D01*
X0117146Y0234939D01*
X0117181Y0235834D02*
X0110345Y0235834D01*
X0110943Y0236432D02*
X0117146Y0236432D01*
X0117146Y0237031D02*
X0111542Y0237031D01*
X0112140Y0237629D02*
X0117146Y0237629D01*
X0117146Y0238228D02*
X0112739Y0238228D01*
X0113337Y0238826D02*
X0117146Y0238826D01*
X0117146Y0238876D02*
X0121005Y0238876D01*
X0121005Y0238876D01*
X0117146Y0238876D01*
X0117146Y0239425D02*
X0113936Y0239425D01*
X0114534Y0240023D02*
X0117162Y0240023D01*
X0117146Y0240622D02*
X0115133Y0240622D01*
X0115731Y0241220D02*
X0117146Y0241220D01*
X0117203Y0241819D02*
X0116330Y0241819D01*
X0116928Y0242417D02*
X0117146Y0242417D01*
X0121005Y0242417D02*
X0121005Y0242417D01*
X0121005Y0241819D02*
X0121005Y0241819D01*
X0121005Y0241220D02*
X0121005Y0241220D01*
X0121005Y0240622D02*
X0121005Y0240622D01*
X0121005Y0240023D02*
X0121005Y0240023D01*
X0121005Y0239425D02*
X0121005Y0239425D01*
X0121005Y0238826D02*
X0121005Y0238826D01*
X0121005Y0238228D02*
X0121005Y0238228D01*
X0121005Y0237629D02*
X0121005Y0237629D01*
X0121005Y0237031D02*
X0121005Y0237031D01*
X0121005Y0236432D02*
X0121005Y0236432D01*
X0121005Y0235834D02*
X0121005Y0235834D01*
X0121005Y0235235D02*
X0121005Y0235235D01*
X0121005Y0232971D02*
X0120900Y0232786D01*
X0116400Y0232786D01*
X0109200Y0225586D01*
X0109200Y0220486D01*
X0107600Y0222068D02*
X0101350Y0222068D01*
X0101350Y0221469D02*
X0107001Y0221469D01*
X0106950Y0220871D02*
X0101350Y0220871D01*
X0101350Y0220272D02*
X0106950Y0220272D01*
X0106950Y0219674D02*
X0101350Y0219674D01*
X0101350Y0219075D02*
X0107429Y0219075D01*
X0108027Y0218477D02*
X0101350Y0218477D01*
X0101065Y0217878D02*
X0109350Y0217878D01*
X0109350Y0217280D02*
X0098803Y0217280D01*
X0099402Y0216681D02*
X0109823Y0216681D01*
X0110421Y0216083D02*
X0105400Y0216083D01*
X0105999Y0215484D02*
X0110601Y0215484D01*
X0110003Y0214886D02*
X0106597Y0214886D01*
X0107196Y0214287D02*
X0109404Y0214287D01*
X0109200Y0213689D02*
X0107794Y0213689D01*
X0108393Y0213090D02*
X0109200Y0213090D01*
X0109200Y0212492D02*
X0108991Y0212492D01*
X0110400Y0213586D02*
X0114300Y0217486D01*
X0114300Y0220186D01*
X0115500Y0218086D02*
X0115500Y0214786D01*
X0112800Y0212086D01*
X0110400Y0211186D02*
X0110400Y0213586D01*
X0110400Y0211186D02*
X0111900Y0209686D01*
X0113700Y0209686D01*
X0116700Y0212686D01*
X0116700Y0217486D01*
X0118200Y0218986D01*
X0120900Y0218986D01*
X0121005Y0219191D01*
X0121200Y0221086D02*
X0121005Y0221160D01*
X0121200Y0221086D02*
X0123600Y0221086D01*
X0127500Y0217186D01*
X0129750Y0217280D02*
X0134400Y0217280D01*
X0134400Y0217878D02*
X0129750Y0217878D01*
X0129391Y0218477D02*
X0134400Y0218477D01*
X0134400Y0219075D02*
X0132871Y0219075D01*
X0133470Y0219674D02*
X0134400Y0219674D01*
X0134400Y0220272D02*
X0133650Y0220272D01*
X0133650Y0220871D02*
X0134400Y0220871D01*
X0134400Y0221469D02*
X0133650Y0221469D01*
X0133300Y0222068D02*
X0134400Y0222068D01*
X0134400Y0222666D02*
X0132702Y0222666D01*
X0132600Y0223265D02*
X0134400Y0223265D01*
X0134400Y0223863D02*
X0132600Y0223863D01*
X0132600Y0224462D02*
X0134400Y0224462D01*
X0134400Y0225060D02*
X0132123Y0225060D01*
X0131524Y0225659D02*
X0134006Y0225659D01*
X0133407Y0226257D02*
X0130926Y0226257D01*
X0130327Y0226856D02*
X0132809Y0226856D01*
X0132300Y0227454D02*
X0129728Y0227454D01*
X0129130Y0228053D02*
X0132300Y0228053D01*
X0132300Y0228651D02*
X0128531Y0228651D01*
X0127933Y0229250D02*
X0132300Y0229250D01*
X0132300Y0229848D02*
X0127334Y0229848D01*
X0126600Y0228886D02*
X0121200Y0228886D01*
X0121005Y0229034D01*
X0120900Y0230986D02*
X0116400Y0230986D01*
X0111600Y0226186D01*
X0111600Y0218086D01*
X0115500Y0218086D02*
X0116700Y0219286D01*
X0116700Y0223486D01*
X0118200Y0224986D01*
X0120900Y0224986D01*
X0121005Y0225097D01*
X0120900Y0226786D02*
X0115500Y0226786D01*
X0110569Y0228651D02*
X0103416Y0228651D01*
X0103637Y0228053D02*
X0109970Y0228053D01*
X0109371Y0227454D02*
X0103637Y0227454D01*
X0103637Y0226856D02*
X0108773Y0226856D01*
X0108174Y0226257D02*
X0103637Y0226257D01*
X0103637Y0225659D02*
X0108000Y0225659D01*
X0108000Y0225060D02*
X0103637Y0225060D01*
X0103637Y0224462D02*
X0108000Y0224462D01*
X0108000Y0223863D02*
X0103359Y0223863D01*
X0101092Y0222666D02*
X0108000Y0222666D01*
X0108000Y0223265D02*
X0100200Y0223265D01*
X0099000Y0224086D02*
X0099000Y0220486D01*
X0098900Y0220286D01*
X0096300Y0218086D02*
X0099300Y0215086D01*
X0104700Y0215086D01*
X0117300Y0202486D01*
X0117300Y0194686D01*
X0118200Y0193786D01*
X0120900Y0193786D01*
X0121005Y0193601D01*
X0121005Y0199506D02*
X0121005Y0201397D01*
X0121005Y0201475D01*
X0121005Y0199506D01*
X0121005Y0199506D01*
X0121005Y0199923D02*
X0121005Y0199923D01*
X0121005Y0200521D02*
X0121005Y0200521D01*
X0121005Y0201120D02*
X0121005Y0201120D01*
X0121005Y0201475D02*
X0121005Y0201475D01*
X0121005Y0201718D02*
X0121005Y0201718D01*
X0121005Y0202317D02*
X0121005Y0202317D01*
X0121005Y0202915D02*
X0121005Y0202915D01*
X0121005Y0203443D02*
X0121005Y0205334D01*
X0121005Y0205412D01*
X0121005Y0203443D01*
X0121005Y0203443D01*
X0121005Y0203514D02*
X0121005Y0203514D01*
X0121005Y0204112D02*
X0121005Y0204112D01*
X0121005Y0204711D02*
X0121005Y0204711D01*
X0121005Y0205309D02*
X0121005Y0205309D01*
X0121005Y0205412D02*
X0121005Y0205412D01*
X0121005Y0205412D01*
X0117146Y0205412D01*
X0117146Y0206174D01*
X0117205Y0206396D01*
X0117146Y0206619D01*
X0117146Y0207380D01*
X0121005Y0207380D01*
X0121005Y0207380D01*
X0121005Y0207380D01*
X0121005Y0209349D01*
X0121005Y0209349D01*
X0121005Y0209349D01*
X0117146Y0209349D01*
X0117146Y0210111D01*
X0117205Y0210333D01*
X0117146Y0210556D01*
X0117146Y0211317D01*
X0121005Y0211317D01*
X0121005Y0211317D01*
X0121005Y0211317D01*
X0121005Y0213286D01*
X0121005Y0213286D01*
X0117900Y0213286D01*
X0117900Y0213286D01*
X0121005Y0213286D01*
X0121005Y0213286D01*
X0121005Y0213208D01*
X0121005Y0211317D01*
X0117146Y0211317D01*
X0117146Y0211434D01*
X0114900Y0209189D01*
X0114197Y0208486D01*
X0112997Y0208486D01*
X0117174Y0204309D01*
X0117205Y0204428D01*
X0117146Y0204650D01*
X0117146Y0205412D01*
X0121005Y0205412D01*
X0121005Y0205908D02*
X0121005Y0205908D01*
X0121005Y0206506D02*
X0121005Y0206506D01*
X0121005Y0207105D02*
X0121005Y0207105D01*
X0121005Y0207380D02*
X0117146Y0207380D01*
X0117146Y0208142D01*
X0117205Y0208365D01*
X0117146Y0208587D01*
X0117146Y0209349D01*
X0121005Y0209349D01*
X0121005Y0209271D01*
X0121005Y0207380D01*
X0121005Y0207703D02*
X0121005Y0207703D01*
X0121005Y0208302D02*
X0121005Y0208302D01*
X0121005Y0208901D02*
X0121005Y0208901D01*
X0121005Y0209499D02*
X0121005Y0209499D01*
X0121005Y0210098D02*
X0121005Y0210098D01*
X0121005Y0210696D02*
X0121005Y0210696D01*
X0121005Y0211295D02*
X0121005Y0211295D01*
X0121005Y0211893D02*
X0121005Y0211893D01*
X0121005Y0212492D02*
X0121005Y0212492D01*
X0121005Y0213090D02*
X0121005Y0213090D01*
X0121005Y0213689D02*
X0121005Y0213689D01*
X0121005Y0214287D02*
X0121005Y0214287D01*
X0121005Y0214886D02*
X0121005Y0214886D01*
X0121005Y0215254D02*
X0121005Y0217145D01*
X0121005Y0217223D01*
X0124864Y0217223D01*
X0121005Y0217223D01*
X0121005Y0217223D01*
X0121005Y0215254D01*
X0121005Y0215254D01*
X0121005Y0215484D02*
X0121005Y0215484D01*
X0121005Y0216083D02*
X0121005Y0216083D01*
X0121005Y0216681D02*
X0121005Y0216681D01*
X0121005Y0217223D02*
X0121005Y0217223D01*
X0124864Y0217280D02*
X0125250Y0217280D01*
X0125250Y0216681D02*
X0124864Y0216681D01*
X0124846Y0216083D02*
X0125421Y0216083D01*
X0124864Y0215484D02*
X0126020Y0215484D01*
X0124864Y0214886D02*
X0134400Y0214886D01*
X0134400Y0215484D02*
X0128980Y0215484D01*
X0129579Y0216083D02*
X0134400Y0216083D01*
X0134400Y0216681D02*
X0129750Y0216681D01*
X0129929Y0219075D02*
X0128793Y0219075D01*
X0129330Y0219674D02*
X0126709Y0219674D01*
X0126111Y0220272D02*
X0129150Y0220272D01*
X0129150Y0220871D02*
X0125512Y0220871D01*
X0124914Y0221469D02*
X0127535Y0221469D01*
X0129000Y0223186D02*
X0121200Y0223186D01*
X0121005Y0223128D01*
X0124864Y0217878D02*
X0125111Y0217878D01*
X0131400Y0220786D02*
X0131400Y0224086D01*
X0126600Y0228886D01*
X0124464Y0230447D02*
X0132300Y0230447D01*
X0132300Y0231045D02*
X0124464Y0231045D01*
X0124464Y0231644D02*
X0132300Y0231644D01*
X0132300Y0232242D02*
X0124464Y0232242D01*
X0124464Y0232841D02*
X0132300Y0232841D01*
X0132300Y0233439D02*
X0124493Y0233439D01*
X0124826Y0234038D02*
X0132300Y0234038D01*
X0132300Y0234637D02*
X0124864Y0234637D01*
X0124864Y0235235D02*
X0132300Y0235235D01*
X0132300Y0235834D02*
X0124828Y0235834D01*
X0124864Y0236432D02*
X0132300Y0236432D01*
X0132300Y0237031D02*
X0124864Y0237031D01*
X0124864Y0237629D02*
X0132300Y0237629D01*
X0132300Y0238228D02*
X0124864Y0238228D01*
X0124864Y0238826D02*
X0132300Y0238826D01*
X0131779Y0239425D02*
X0124864Y0239425D01*
X0124848Y0240023D02*
X0131550Y0240023D01*
X0131550Y0240622D02*
X0124864Y0240622D01*
X0124864Y0241220D02*
X0131550Y0241220D01*
X0131851Y0241819D02*
X0124807Y0241819D01*
X0124864Y0242417D02*
X0132449Y0242417D01*
X0135151Y0242417D02*
X0136200Y0242417D01*
X0136200Y0241819D02*
X0135749Y0241819D01*
X0136050Y0241220D02*
X0136200Y0241220D01*
X0136200Y0240622D02*
X0136050Y0240622D01*
X0136050Y0240023D02*
X0136200Y0240023D01*
X0136200Y0239425D02*
X0135821Y0239425D01*
X0136200Y0238826D02*
X0135300Y0238826D01*
X0135300Y0238228D02*
X0136200Y0238228D01*
X0136200Y0237629D02*
X0135300Y0237629D01*
X0135300Y0237031D02*
X0136200Y0237031D01*
X0136200Y0236432D02*
X0135300Y0236432D01*
X0135300Y0235834D02*
X0136200Y0235834D01*
X0136200Y0235235D02*
X0135300Y0235235D01*
X0135300Y0234637D02*
X0136200Y0234637D01*
X0136200Y0234038D02*
X0135300Y0234038D01*
X0135300Y0233439D02*
X0136200Y0233439D01*
X0136200Y0232841D02*
X0135300Y0232841D01*
X0135300Y0232242D02*
X0136200Y0232242D01*
X0136200Y0231644D02*
X0135300Y0231644D01*
X0135300Y0231045D02*
X0136200Y0231045D01*
X0136200Y0230447D02*
X0135300Y0230447D01*
X0135300Y0229848D02*
X0136200Y0229848D01*
X0136200Y0229250D02*
X0135300Y0229250D01*
X0135300Y0228651D02*
X0136200Y0228651D01*
X0136200Y0228053D02*
X0135854Y0228053D01*
X0121005Y0227065D02*
X0120900Y0226786D01*
X0120900Y0230986D02*
X0121005Y0231002D01*
X0101359Y0226286D02*
X0101100Y0226186D01*
X0099000Y0224086D01*
X0098876Y0225659D02*
X0098519Y0225659D01*
X0098519Y0226257D02*
X0099081Y0226257D01*
X0099081Y0226856D02*
X0098519Y0226856D01*
X0098519Y0227454D02*
X0099081Y0227454D01*
X0099081Y0228053D02*
X0098519Y0228053D01*
X0098298Y0228651D02*
X0099302Y0228651D01*
X0096241Y0226286D02*
X0096300Y0226186D01*
X0096300Y0218086D01*
X0095409Y0217280D02*
X0092203Y0217280D01*
X0092400Y0216681D02*
X0096008Y0216681D01*
X0096606Y0216083D02*
X0092400Y0216083D01*
X0092400Y0215484D02*
X0097205Y0215484D01*
X0097152Y0215247D02*
X0096821Y0215336D01*
X0095400Y0215336D01*
X0095400Y0212586D01*
X0097950Y0212586D01*
X0097950Y0214207D01*
X0097861Y0214538D01*
X0097690Y0214834D01*
X0097448Y0215076D01*
X0097152Y0215247D01*
X0097639Y0214886D02*
X0097803Y0214886D01*
X0097929Y0214287D02*
X0098402Y0214287D01*
X0097950Y0213689D02*
X0100250Y0213689D01*
X0100250Y0213090D02*
X0097950Y0213090D01*
X0097950Y0211986D02*
X0095400Y0211986D01*
X0095400Y0209236D01*
X0096821Y0209236D01*
X0097152Y0209324D01*
X0097448Y0209496D01*
X0097690Y0209738D01*
X0097861Y0210034D01*
X0097950Y0210365D01*
X0097950Y0211986D01*
X0097950Y0211893D02*
X0100250Y0211893D01*
X0100250Y0211295D02*
X0097950Y0211295D01*
X0097950Y0210696D02*
X0100250Y0210696D01*
X0100315Y0210098D02*
X0097878Y0210098D01*
X0097452Y0209499D02*
X0101700Y0209499D01*
X0101700Y0208901D02*
X0092400Y0208901D01*
X0092400Y0209499D02*
X0092748Y0209499D01*
X0092400Y0208302D02*
X0101700Y0208302D01*
X0101700Y0207703D02*
X0101055Y0207703D01*
X0101350Y0207105D02*
X0101700Y0207105D01*
X0101700Y0206506D02*
X0101350Y0206506D01*
X0101350Y0205908D02*
X0101700Y0205908D01*
X0101700Y0205309D02*
X0101350Y0205309D01*
X0101350Y0204711D02*
X0101700Y0204711D01*
X0101700Y0204112D02*
X0101350Y0204112D01*
X0101350Y0203514D02*
X0101700Y0203514D01*
X0102900Y0202786D02*
X0104700Y0200986D01*
X0102600Y0199786D02*
X0101400Y0200986D01*
X0102600Y0199786D02*
X0102600Y0197386D01*
X0102700Y0197286D01*
X0097800Y0194928D02*
X0097800Y0192457D01*
X0094990Y0192457D01*
X0094463Y0191930D01*
X0094463Y0191086D01*
X0091082Y0191086D01*
X0090032Y0192136D01*
X0088168Y0192136D01*
X0087900Y0191868D01*
X0087900Y0192989D01*
X0091697Y0196786D01*
X0092400Y0197489D01*
X0092400Y0197586D01*
X0094800Y0197586D01*
X0094800Y0196986D01*
X0092250Y0196986D01*
X0092250Y0195365D01*
X0092339Y0195034D01*
X0092510Y0194738D01*
X0092752Y0194496D01*
X0093048Y0194324D01*
X0093379Y0194236D01*
X0094800Y0194236D01*
X0094800Y0196986D01*
X0095400Y0196986D01*
X0095400Y0194236D01*
X0096821Y0194236D01*
X0097152Y0194324D01*
X0097448Y0194496D01*
X0097690Y0194738D01*
X0097800Y0194928D01*
X0097800Y0194536D02*
X0097489Y0194536D01*
X0097800Y0193938D02*
X0088849Y0193938D01*
X0089447Y0194536D02*
X0092711Y0194536D01*
X0092312Y0195135D02*
X0090046Y0195135D01*
X0090644Y0195733D02*
X0092250Y0195733D01*
X0092250Y0196332D02*
X0091243Y0196332D01*
X0091697Y0196786D02*
X0091697Y0196786D01*
X0091842Y0196930D02*
X0092250Y0196930D01*
X0092400Y0197529D02*
X0094800Y0197529D01*
X0094800Y0198127D02*
X0095400Y0198127D01*
X0095400Y0198726D02*
X0094800Y0198726D01*
X0094800Y0199324D02*
X0095400Y0199324D01*
X0095400Y0199923D02*
X0094800Y0199923D01*
X0092599Y0199923D02*
X0092400Y0199923D01*
X0092400Y0200521D02*
X0097800Y0200521D01*
X0097800Y0199923D02*
X0097601Y0199923D01*
X0097800Y0201120D02*
X0092400Y0201120D01*
X0092400Y0201718D02*
X0097800Y0201718D01*
X0097800Y0202317D02*
X0092400Y0202317D01*
X0092400Y0202915D02*
X0096698Y0202915D01*
X0096450Y0203514D02*
X0092400Y0203514D01*
X0092400Y0204112D02*
X0096450Y0204112D01*
X0096450Y0204711D02*
X0092400Y0204711D01*
X0092400Y0205309D02*
X0096450Y0205309D01*
X0096450Y0205908D02*
X0092400Y0205908D01*
X0092400Y0206506D02*
X0096450Y0206506D01*
X0096450Y0207105D02*
X0092400Y0207105D01*
X0092400Y0207703D02*
X0096745Y0207703D01*
X0095400Y0209499D02*
X0094800Y0209499D01*
X0094800Y0210098D02*
X0095400Y0210098D01*
X0095400Y0210696D02*
X0094800Y0210696D01*
X0094800Y0211295D02*
X0095400Y0211295D01*
X0095400Y0211893D02*
X0094800Y0211893D01*
X0095400Y0212492D02*
X0100250Y0212492D01*
X0102700Y0212286D02*
X0102900Y0212086D01*
X0102900Y0202786D01*
X0099000Y0205186D02*
X0098900Y0205286D01*
X0099000Y0205186D02*
X0099000Y0191986D01*
X0099300Y0191686D01*
X0097800Y0192741D02*
X0087900Y0192741D01*
X0087900Y0192142D02*
X0094675Y0192142D01*
X0094463Y0191544D02*
X0090624Y0191544D01*
X0089100Y0189886D02*
X0096600Y0189886D01*
X0096741Y0189786D01*
X0097800Y0193339D02*
X0088250Y0193339D01*
X0086700Y0193486D02*
X0086700Y0185386D01*
X0104100Y0167986D01*
X0105702Y0166406D02*
X0112523Y0166406D01*
X0111925Y0165808D02*
X0105104Y0165808D01*
X0106301Y0167005D02*
X0113122Y0167005D01*
X0113720Y0167603D02*
X0106350Y0167603D01*
X0106350Y0168202D02*
X0114319Y0168202D01*
X0114917Y0168800D02*
X0106350Y0168800D01*
X0105869Y0169399D02*
X0115516Y0169399D01*
X0116114Y0169997D02*
X0105271Y0169997D01*
X0103187Y0170596D02*
X0116713Y0170596D01*
X0117311Y0171194D02*
X0102589Y0171194D01*
X0101990Y0171793D02*
X0117910Y0171793D01*
X0118508Y0172391D02*
X0101392Y0172391D01*
X0101186Y0172990D02*
X0119107Y0172990D01*
X0119705Y0173588D02*
X0101784Y0173588D01*
X0102398Y0174187D02*
X0120304Y0174187D01*
X0120903Y0174785D02*
X0102997Y0174785D01*
X0103595Y0175384D02*
X0121501Y0175384D01*
X0121005Y0175962D02*
X0121005Y0177853D01*
X0121005Y0177853D01*
X0121005Y0177853D01*
X0117146Y0177853D01*
X0117146Y0177091D01*
X0117234Y0176760D01*
X0117405Y0176464D01*
X0117647Y0176222D01*
X0117944Y0176051D01*
X0118275Y0175962D01*
X0121005Y0175962D01*
X0121005Y0175982D02*
X0121005Y0175982D01*
X0121005Y0176581D02*
X0121005Y0176581D01*
X0121005Y0177179D02*
X0121005Y0177179D01*
X0121005Y0177778D02*
X0121005Y0177778D01*
X0118199Y0175982D02*
X0104194Y0175982D01*
X0104792Y0176581D02*
X0117338Y0176581D01*
X0117146Y0177179D02*
X0105391Y0177179D01*
X0105989Y0177778D02*
X0117146Y0177778D01*
X0117146Y0178376D02*
X0106200Y0178376D01*
X0106200Y0178975D02*
X0117252Y0178975D01*
X0117546Y0179573D02*
X0106200Y0179573D01*
X0106200Y0180172D02*
X0117546Y0180172D01*
X0117546Y0180770D02*
X0106267Y0180770D01*
X0106865Y0181369D02*
X0117546Y0181369D01*
X0117546Y0181968D02*
X0107250Y0181968D01*
X0107250Y0182566D02*
X0117546Y0182566D01*
X0117546Y0183165D02*
X0107250Y0183165D01*
X0107105Y0183763D02*
X0117546Y0183763D01*
X0117546Y0184362D02*
X0106506Y0184362D01*
X0105671Y0184960D02*
X0117546Y0184960D01*
X0117546Y0185559D02*
X0106270Y0185559D01*
X0106868Y0186157D02*
X0117546Y0186157D01*
X0120900Y0187486D02*
X0121005Y0187695D01*
X0120900Y0187486D02*
X0106500Y0187486D01*
X0102000Y0182986D01*
X0102000Y0179986D01*
X0101859Y0179786D01*
X0105000Y0178486D02*
X0101700Y0175186D01*
X0100200Y0175186D01*
X0097997Y0172391D02*
X0091233Y0172391D01*
X0091350Y0172990D02*
X0097399Y0172990D01*
X0096800Y0173588D02*
X0091350Y0173588D01*
X0091350Y0174187D02*
X0096202Y0174187D01*
X0095603Y0174785D02*
X0091182Y0174785D01*
X0090584Y0175384D02*
X0095005Y0175384D01*
X0094406Y0175982D02*
X0088500Y0175982D01*
X0089100Y0173686D02*
X0084300Y0178486D01*
X0084300Y0209086D01*
X0087600Y0212386D01*
X0092400Y0214886D02*
X0092561Y0214886D01*
X0094800Y0214886D02*
X0095400Y0214886D01*
X0095400Y0214287D02*
X0094800Y0214287D01*
X0094800Y0213689D02*
X0095400Y0213689D01*
X0095400Y0213090D02*
X0094800Y0213090D01*
X0095100Y0217878D02*
X0091605Y0217878D01*
X0091006Y0218477D02*
X0095100Y0218477D01*
X0095100Y0219075D02*
X0090408Y0219075D01*
X0089809Y0219674D02*
X0095100Y0219674D01*
X0095100Y0220272D02*
X0089211Y0220272D01*
X0088612Y0220871D02*
X0095100Y0220871D01*
X0095100Y0221469D02*
X0088014Y0221469D01*
X0087415Y0222068D02*
X0095100Y0222068D01*
X0095100Y0222666D02*
X0086817Y0222666D01*
X0087400Y0223265D02*
X0088000Y0223265D01*
X0088000Y0222786D02*
X0090371Y0222786D01*
X0090702Y0222874D01*
X0090998Y0223046D01*
X0091240Y0223288D01*
X0091411Y0223584D01*
X0091500Y0223915D01*
X0091500Y0228786D01*
X0088000Y0228786D01*
X0088000Y0222786D01*
X0088000Y0223863D02*
X0087400Y0223863D01*
X0087400Y0224462D02*
X0088000Y0224462D01*
X0088000Y0225060D02*
X0087400Y0225060D01*
X0087400Y0225659D02*
X0088000Y0225659D01*
X0088000Y0226257D02*
X0087400Y0226257D01*
X0087400Y0226856D02*
X0088000Y0226856D01*
X0088000Y0227454D02*
X0087400Y0227454D01*
X0087400Y0228053D02*
X0088000Y0228053D01*
X0088000Y0228651D02*
X0087400Y0228651D01*
X0087400Y0230447D02*
X0088000Y0230447D01*
X0088000Y0231045D02*
X0087400Y0231045D01*
X0087400Y0231644D02*
X0088000Y0231644D01*
X0088000Y0232242D02*
X0087400Y0232242D01*
X0087400Y0232841D02*
X0088000Y0232841D01*
X0088000Y0233439D02*
X0087400Y0233439D01*
X0087400Y0234038D02*
X0088000Y0234038D01*
X0088000Y0234637D02*
X0087400Y0234637D01*
X0087400Y0235235D02*
X0088000Y0235235D01*
X0090810Y0235235D02*
X0092754Y0235235D01*
X0093352Y0234637D02*
X0091383Y0234637D01*
X0091500Y0234038D02*
X0093951Y0234038D01*
X0094549Y0233439D02*
X0091500Y0233439D01*
X0092155Y0235834D02*
X0085050Y0235834D01*
X0085036Y0236432D02*
X0091557Y0236432D01*
X0083900Y0232841D02*
X0081600Y0232841D01*
X0081600Y0233439D02*
X0081664Y0233439D01*
X0081600Y0232242D02*
X0083900Y0232242D01*
X0083900Y0231644D02*
X0081600Y0231644D01*
X0081600Y0231045D02*
X0083900Y0231045D01*
X0083900Y0230447D02*
X0081600Y0230447D01*
X0081600Y0229848D02*
X0083900Y0229848D01*
X0083900Y0227454D02*
X0082028Y0227454D01*
X0082627Y0226856D02*
X0083900Y0226856D01*
X0083900Y0226257D02*
X0083226Y0226257D01*
X0083824Y0225659D02*
X0083900Y0225659D01*
X0091500Y0225659D02*
X0093963Y0225659D01*
X0093963Y0226257D02*
X0091500Y0226257D01*
X0091500Y0226856D02*
X0093963Y0226856D01*
X0093963Y0227454D02*
X0091500Y0227454D01*
X0091500Y0228053D02*
X0093963Y0228053D01*
X0094184Y0228651D02*
X0091500Y0228651D01*
X0091500Y0225060D02*
X0093963Y0225060D01*
X0093963Y0224462D02*
X0091500Y0224462D01*
X0091486Y0223863D02*
X0094241Y0223863D01*
X0095100Y0223265D02*
X0091217Y0223265D01*
X0113181Y0208302D02*
X0117189Y0208302D01*
X0117146Y0207703D02*
X0113779Y0207703D01*
X0114378Y0207105D02*
X0117146Y0207105D01*
X0117176Y0206506D02*
X0114976Y0206506D01*
X0115575Y0205908D02*
X0117146Y0205908D01*
X0117146Y0205309D02*
X0116173Y0205309D01*
X0116772Y0204711D02*
X0117146Y0204711D01*
X0117146Y0208901D02*
X0114612Y0208901D01*
X0115210Y0209499D02*
X0117146Y0209499D01*
X0117146Y0210098D02*
X0115809Y0210098D01*
X0116407Y0210696D02*
X0117146Y0210696D01*
X0117146Y0211295D02*
X0117006Y0211295D01*
X0124864Y0211295D02*
X0134400Y0211295D01*
X0134400Y0211893D02*
X0124864Y0211893D01*
X0124855Y0212492D02*
X0134400Y0212492D01*
X0134400Y0213090D02*
X0124864Y0213090D01*
X0124864Y0213689D02*
X0134400Y0213689D01*
X0134400Y0214287D02*
X0124809Y0214287D01*
X0124864Y0210696D02*
X0134400Y0210696D01*
X0134400Y0210098D02*
X0124864Y0210098D01*
X0124864Y0209499D02*
X0134400Y0209499D01*
X0134400Y0208901D02*
X0124864Y0208901D01*
X0124821Y0208302D02*
X0134400Y0208302D01*
X0133896Y0207703D02*
X0124864Y0207703D01*
X0124864Y0207105D02*
X0133298Y0207105D01*
X0132699Y0206506D02*
X0124834Y0206506D01*
X0124864Y0205908D02*
X0132101Y0205908D01*
X0131502Y0205309D02*
X0124864Y0205309D01*
X0124864Y0204711D02*
X0130904Y0204711D01*
X0130305Y0204112D02*
X0124864Y0204112D01*
X0124864Y0203514D02*
X0129707Y0203514D01*
X0129108Y0202915D02*
X0124864Y0202915D01*
X0124842Y0202317D02*
X0128510Y0202317D01*
X0127911Y0201718D02*
X0124864Y0201718D01*
X0124864Y0201120D02*
X0127313Y0201120D01*
X0126714Y0200521D02*
X0124812Y0200521D01*
X0124864Y0199923D02*
X0126116Y0199923D01*
X0125517Y0199324D02*
X0124864Y0199324D01*
X0124859Y0198726D02*
X0124919Y0198726D01*
X0137400Y0183286D02*
X0123600Y0169486D01*
X0123600Y0161986D01*
X0129000Y0156586D01*
X0129600Y0156586D01*
X0168300Y0117886D01*
X0192900Y0117886D01*
X0194550Y0119418D02*
X0193832Y0120136D01*
X0191968Y0120136D01*
X0190918Y0119086D01*
X0174782Y0119086D01*
X0175350Y0119654D01*
X0175350Y0121139D01*
X0199697Y0145486D01*
X0200400Y0146189D01*
X0200400Y0152489D01*
X0203297Y0155386D01*
X0232603Y0155386D01*
X0234253Y0153736D01*
X0233368Y0153736D01*
X0232318Y0152686D01*
X0205982Y0152686D01*
X0204932Y0153736D01*
X0203068Y0153736D01*
X0201750Y0152418D01*
X0201750Y0150554D01*
X0203068Y0149236D01*
X0204150Y0149236D01*
X0204150Y0148154D01*
X0205468Y0146836D01*
X0207332Y0146836D01*
X0208382Y0147886D01*
X0231718Y0147886D01*
X0231718Y0147886D01*
X0218203Y0147886D01*
X0203953Y0133636D01*
X0202468Y0133636D01*
X0201150Y0132318D01*
X0201150Y0130454D01*
X0202468Y0129136D01*
X0204332Y0129136D01*
X0205650Y0130454D01*
X0205650Y0131939D01*
X0214800Y0141089D01*
X0214800Y0110568D01*
X0213750Y0109518D01*
X0213750Y0107654D01*
X0214018Y0107386D01*
X0205082Y0107386D01*
X0204032Y0108436D01*
X0202168Y0108436D01*
X0200850Y0107118D01*
X0200850Y0105254D01*
X0202168Y0103936D01*
X0204032Y0103936D01*
X0205082Y0104986D01*
X0225450Y0104986D01*
X0225450Y0103754D01*
X0225718Y0103486D01*
X0225482Y0103486D01*
X0224432Y0104536D01*
X0222568Y0104536D01*
X0221250Y0103218D01*
X0221250Y0101354D01*
X0222568Y0100036D01*
X0224432Y0100036D01*
X0225482Y0101086D01*
X0233897Y0101086D01*
X0234600Y0101789D01*
X0262697Y0129886D01*
X0268318Y0129886D01*
X0268050Y0129618D01*
X0268050Y0128536D01*
X0266668Y0128536D01*
X0265350Y0127218D01*
X0265350Y0125354D01*
X0266400Y0124304D01*
X0266400Y0116189D01*
X0274500Y0108089D01*
X0274500Y0091983D01*
X0268303Y0085786D01*
X0261227Y0085786D01*
X0260700Y0085259D01*
X0260700Y0080086D01*
X0259397Y0080086D01*
X0258150Y0081333D01*
X0258150Y0082818D01*
X0256832Y0084136D01*
X0254968Y0084136D01*
X0253650Y0082818D01*
X0253650Y0082533D01*
X0246150Y0090033D01*
X0246150Y0091518D01*
X0244832Y0092836D01*
X0242968Y0092836D01*
X0241650Y0091518D01*
X0241650Y0089654D01*
X0242968Y0088336D01*
X0244453Y0088336D01*
X0246553Y0086236D01*
X0246268Y0086236D01*
X0244950Y0084918D01*
X0244950Y0084633D01*
X0236297Y0093286D01*
X0183182Y0093286D01*
X0268618Y0093286D01*
X0269368Y0092536D01*
X0271232Y0092536D01*
X0272550Y0093854D01*
X0272550Y0095718D01*
X0271687Y0096581D01*
X0271798Y0096646D01*
X0272040Y0096888D01*
X0272211Y0097184D01*
X0272300Y0097515D01*
X0272300Y0099886D01*
X0266300Y0099886D01*
X0266300Y0100486D01*
X0265700Y0100486D01*
X0265700Y0103986D01*
X0260829Y0103986D01*
X0260498Y0103897D01*
X0260202Y0103726D01*
X0259960Y0103484D01*
X0259789Y0103188D01*
X0259700Y0102857D01*
X0259700Y0100486D01*
X0265700Y0100486D01*
X0265700Y0099886D01*
X0259700Y0099886D01*
X0259700Y0097515D01*
X0259789Y0097184D01*
X0259960Y0096888D01*
X0260202Y0096646D01*
X0260498Y0096474D01*
X0260829Y0096386D01*
X0265700Y0096386D01*
X0265700Y0099886D01*
X0266300Y0099886D01*
X0266300Y0096386D01*
X0268718Y0096386D01*
X0268618Y0096286D01*
X0183182Y0096286D01*
X0182987Y0096481D01*
X0182998Y0096474D01*
X0183329Y0096386D01*
X0188200Y0096386D01*
X0188200Y0099886D01*
X0182200Y0099886D01*
X0182200Y0097515D01*
X0182289Y0097184D01*
X0182374Y0097036D01*
X0180568Y0097036D01*
X0179250Y0095718D01*
X0179250Y0093854D01*
X0179818Y0093286D01*
X0175697Y0093286D01*
X0169200Y0099783D01*
X0169200Y0100083D01*
X0168497Y0100786D01*
X0139997Y0129286D01*
X0127397Y0129286D01*
X0105347Y0151336D01*
X0105632Y0151336D01*
X0106682Y0152386D01*
X0121618Y0152386D01*
X0121350Y0152118D01*
X0121350Y0150254D01*
X0122668Y0148936D01*
X0124153Y0148936D01*
X0126103Y0146986D01*
X0127318Y0146986D01*
X0126418Y0146086D01*
X0121682Y0146086D01*
X0120632Y0147136D01*
X0118768Y0147136D01*
X0117450Y0145818D01*
X0117450Y0143954D01*
X0118768Y0142636D01*
X0120632Y0142636D01*
X0121682Y0143686D01*
X0126418Y0143686D01*
X0127468Y0142636D01*
X0129332Y0142636D01*
X0129600Y0142904D01*
X0129600Y0140189D01*
X0130303Y0139486D01*
X0161203Y0108586D01*
X0190397Y0108586D01*
X0190958Y0109146D01*
X0191668Y0108436D01*
X0192450Y0108436D01*
X0192450Y0107054D01*
X0192718Y0106786D01*
X0191550Y0105618D01*
X0191550Y0103986D01*
X0188800Y0103986D01*
X0188800Y0100486D01*
X0188200Y0100486D01*
X0188200Y0103986D01*
X0183329Y0103986D01*
X0182998Y0103897D01*
X0182702Y0103726D01*
X0182460Y0103484D01*
X0182289Y0103188D01*
X0182200Y0102857D01*
X0182200Y0100486D01*
X0188200Y0100486D01*
X0188200Y0099886D01*
X0188800Y0099886D01*
X0188800Y0100486D01*
X0194800Y0100486D01*
X0194800Y0102504D01*
X0196050Y0103754D01*
X0196050Y0104339D01*
X0201000Y0109289D01*
X0201000Y0119883D01*
X0200297Y0120586D01*
X0196800Y0124083D01*
X0196800Y0124904D01*
X0197850Y0125954D01*
X0197850Y0127818D01*
X0196532Y0129136D01*
X0194668Y0129136D01*
X0193950Y0128418D01*
X0193232Y0129136D01*
X0191368Y0129136D01*
X0190050Y0127818D01*
X0190050Y0125954D01*
X0191100Y0124904D01*
X0191100Y0124589D01*
X0195553Y0120136D01*
X0195268Y0120136D01*
X0194550Y0119418D01*
X0194245Y0119722D02*
X0194855Y0119722D01*
X0195368Y0120321D02*
X0175350Y0120321D01*
X0175350Y0120919D02*
X0194769Y0120919D01*
X0194171Y0121518D02*
X0175729Y0121518D01*
X0176328Y0122116D02*
X0193572Y0122116D01*
X0192974Y0122715D02*
X0176926Y0122715D01*
X0177525Y0123313D02*
X0192375Y0123313D01*
X0191777Y0123912D02*
X0178123Y0123912D01*
X0178722Y0124510D02*
X0191178Y0124510D01*
X0190895Y0125109D02*
X0179320Y0125109D01*
X0179919Y0125707D02*
X0190296Y0125707D01*
X0190050Y0126306D02*
X0180517Y0126306D01*
X0181116Y0126904D02*
X0190050Y0126904D01*
X0190050Y0127503D02*
X0181714Y0127503D01*
X0182313Y0128101D02*
X0190334Y0128101D01*
X0190932Y0128700D02*
X0182911Y0128700D01*
X0183510Y0129299D02*
X0202305Y0129299D01*
X0201707Y0129897D02*
X0184108Y0129897D01*
X0184707Y0130496D02*
X0201150Y0130496D01*
X0201150Y0131094D02*
X0185305Y0131094D01*
X0185904Y0131693D02*
X0201150Y0131693D01*
X0201150Y0132291D02*
X0186502Y0132291D01*
X0187101Y0132890D02*
X0201722Y0132890D01*
X0202320Y0133488D02*
X0187699Y0133488D01*
X0188298Y0134087D02*
X0204404Y0134087D01*
X0205002Y0134685D02*
X0188896Y0134685D01*
X0189495Y0135284D02*
X0205601Y0135284D01*
X0206199Y0135882D02*
X0190093Y0135882D01*
X0190692Y0136481D02*
X0206798Y0136481D01*
X0207396Y0137079D02*
X0191290Y0137079D01*
X0191889Y0137678D02*
X0207995Y0137678D01*
X0208593Y0138276D02*
X0192487Y0138276D01*
X0193086Y0138875D02*
X0209192Y0138875D01*
X0209790Y0139473D02*
X0193684Y0139473D01*
X0194283Y0140072D02*
X0210389Y0140072D01*
X0210987Y0140670D02*
X0194881Y0140670D01*
X0195480Y0141269D02*
X0211586Y0141269D01*
X0212184Y0141867D02*
X0196078Y0141867D01*
X0196677Y0142466D02*
X0212783Y0142466D01*
X0213381Y0143064D02*
X0197275Y0143064D01*
X0197874Y0143663D02*
X0213980Y0143663D01*
X0214578Y0144261D02*
X0198473Y0144261D01*
X0199071Y0144860D02*
X0215177Y0144860D01*
X0215775Y0145458D02*
X0199670Y0145458D01*
X0200268Y0146057D02*
X0216374Y0146057D01*
X0216972Y0146655D02*
X0200400Y0146655D01*
X0200400Y0147254D02*
X0205050Y0147254D01*
X0204451Y0147852D02*
X0200400Y0147852D01*
X0200400Y0148451D02*
X0204150Y0148451D01*
X0204150Y0149049D02*
X0200400Y0149049D01*
X0200400Y0149648D02*
X0202656Y0149648D01*
X0202057Y0150246D02*
X0200400Y0150246D01*
X0200400Y0150845D02*
X0201750Y0150845D01*
X0201750Y0151443D02*
X0200400Y0151443D01*
X0200400Y0152042D02*
X0201750Y0152042D01*
X0201973Y0152640D02*
X0200552Y0152640D01*
X0201150Y0153239D02*
X0202571Y0153239D01*
X0201749Y0153837D02*
X0234151Y0153837D01*
X0233553Y0154436D02*
X0202347Y0154436D01*
X0202946Y0155034D02*
X0232954Y0155034D01*
X0233100Y0156586D02*
X0239100Y0150586D01*
X0239100Y0147286D01*
X0236100Y0144286D01*
X0233700Y0146686D02*
X0218700Y0146686D01*
X0203400Y0131386D01*
X0205093Y0129897D02*
X0214800Y0129897D01*
X0214800Y0129299D02*
X0204495Y0129299D01*
X0205650Y0130496D02*
X0214800Y0130496D01*
X0214800Y0131094D02*
X0205650Y0131094D01*
X0205650Y0131693D02*
X0214800Y0131693D01*
X0214800Y0132291D02*
X0206002Y0132291D01*
X0206601Y0132890D02*
X0214800Y0132890D01*
X0214800Y0133488D02*
X0207199Y0133488D01*
X0207798Y0134087D02*
X0214800Y0134087D01*
X0214800Y0134685D02*
X0208396Y0134685D01*
X0208995Y0135284D02*
X0214800Y0135284D01*
X0214800Y0135882D02*
X0209593Y0135882D01*
X0210192Y0136481D02*
X0214800Y0136481D01*
X0214800Y0137079D02*
X0210790Y0137079D01*
X0211389Y0137678D02*
X0214800Y0137678D01*
X0214800Y0138276D02*
X0211987Y0138276D01*
X0212586Y0138875D02*
X0214800Y0138875D01*
X0214800Y0139473D02*
X0213184Y0139473D01*
X0213783Y0140072D02*
X0214800Y0140072D01*
X0214800Y0140670D02*
X0214381Y0140670D01*
X0216000Y0141286D02*
X0217500Y0142786D01*
X0219300Y0142786D01*
X0220200Y0141886D01*
X0231900Y0141886D01*
X0236700Y0149086D02*
X0206400Y0149086D01*
X0207750Y0147254D02*
X0217571Y0147254D01*
X0218169Y0147852D02*
X0208349Y0147852D01*
X0204000Y0151486D02*
X0234300Y0151486D01*
X0232871Y0153239D02*
X0205429Y0153239D01*
X0202800Y0156586D02*
X0233100Y0156586D01*
X0233700Y0157786D02*
X0246600Y0144886D01*
X0246600Y0143086D01*
X0250050Y0139636D01*
X0257100Y0146686D01*
X0269100Y0146686D01*
X0269700Y0146086D01*
X0271200Y0146086D01*
X0268500Y0145486D02*
X0259200Y0145486D01*
X0237900Y0124186D01*
X0236400Y0119386D02*
X0231300Y0119386D01*
X0218400Y0132286D01*
X0218400Y0140386D01*
X0216000Y0141286D02*
X0216000Y0108586D01*
X0214378Y0110146D02*
X0201000Y0110146D01*
X0201000Y0109548D02*
X0213780Y0109548D01*
X0213750Y0108949D02*
X0200660Y0108949D01*
X0200062Y0108351D02*
X0202083Y0108351D01*
X0201484Y0107752D02*
X0199463Y0107752D01*
X0198865Y0107154D02*
X0200886Y0107154D01*
X0200850Y0106555D02*
X0198266Y0106555D01*
X0197668Y0105957D02*
X0200850Y0105957D01*
X0200850Y0105358D02*
X0197069Y0105358D01*
X0196471Y0104760D02*
X0201344Y0104760D01*
X0201943Y0104161D02*
X0196050Y0104161D01*
X0195859Y0103563D02*
X0208704Y0103563D01*
X0208727Y0103586D02*
X0208200Y0103059D01*
X0208200Y0097313D01*
X0208727Y0096786D01*
X0219473Y0096786D01*
X0220000Y0097313D01*
X0220000Y0103059D01*
X0219473Y0103586D01*
X0208727Y0103586D01*
X0208200Y0102964D02*
X0195260Y0102964D01*
X0194800Y0102366D02*
X0208200Y0102366D01*
X0208200Y0101767D02*
X0194800Y0101767D01*
X0194800Y0101168D02*
X0208200Y0101168D01*
X0208200Y0100570D02*
X0194800Y0100570D01*
X0194800Y0099886D02*
X0188800Y0099886D01*
X0188800Y0096386D01*
X0193671Y0096386D01*
X0194002Y0096474D01*
X0194298Y0096646D01*
X0194540Y0096888D01*
X0194711Y0097184D01*
X0194800Y0097515D01*
X0194800Y0099886D01*
X0194800Y0099373D02*
X0208200Y0099373D01*
X0208200Y0099971D02*
X0188800Y0099971D01*
X0188800Y0099373D02*
X0188200Y0099373D01*
X0188200Y0099971D02*
X0169200Y0099971D01*
X0169610Y0099373D02*
X0182200Y0099373D01*
X0182200Y0098774D02*
X0170208Y0098774D01*
X0170807Y0098176D02*
X0182200Y0098176D01*
X0182200Y0097577D02*
X0171405Y0097577D01*
X0172004Y0096979D02*
X0180511Y0096979D01*
X0179913Y0096380D02*
X0172602Y0096380D01*
X0173201Y0095782D02*
X0179314Y0095782D01*
X0179250Y0095183D02*
X0173799Y0095183D01*
X0174398Y0094585D02*
X0179250Y0094585D01*
X0179250Y0093986D02*
X0174997Y0093986D01*
X0175595Y0093388D02*
X0179716Y0093388D01*
X0183182Y0093286D02*
X0183182Y0093286D01*
X0183087Y0096380D02*
X0268713Y0096380D01*
X0266300Y0096979D02*
X0265700Y0096979D01*
X0265700Y0097577D02*
X0266300Y0097577D01*
X0266300Y0098176D02*
X0265700Y0098176D01*
X0265700Y0098774D02*
X0266300Y0098774D01*
X0266300Y0099373D02*
X0265700Y0099373D01*
X0265700Y0099971D02*
X0220000Y0099971D01*
X0220000Y0099373D02*
X0259700Y0099373D01*
X0259700Y0098774D02*
X0220000Y0098774D01*
X0220000Y0098176D02*
X0259700Y0098176D01*
X0259700Y0097577D02*
X0220000Y0097577D01*
X0219666Y0096979D02*
X0259907Y0096979D01*
X0259700Y0100570D02*
X0224966Y0100570D01*
X0223500Y0102286D02*
X0233400Y0102286D01*
X0262200Y0131086D01*
X0288900Y0131086D01*
X0291600Y0131686D02*
X0287700Y0135586D01*
X0277800Y0135586D01*
X0276000Y0137386D01*
X0270600Y0139786D02*
X0267600Y0142786D01*
X0267600Y0143086D01*
X0258000Y0133486D01*
X0251400Y0131086D02*
X0249900Y0131086D01*
X0225000Y0106186D01*
X0203100Y0106186D01*
X0204716Y0107752D02*
X0213750Y0107752D01*
X0213750Y0108351D02*
X0204117Y0108351D01*
X0204856Y0104760D02*
X0225450Y0104760D01*
X0225450Y0104161D02*
X0224807Y0104161D01*
X0225405Y0103563D02*
X0225641Y0103563D01*
X0227700Y0104686D02*
X0241500Y0118486D01*
X0246300Y0118486D01*
X0248942Y0116131D02*
X0266458Y0116131D01*
X0266400Y0116730D02*
X0249541Y0116730D01*
X0250140Y0117328D02*
X0266400Y0117328D01*
X0266400Y0117927D02*
X0250738Y0117927D01*
X0251337Y0118525D02*
X0266400Y0118525D01*
X0266400Y0119124D02*
X0251935Y0119124D01*
X0252534Y0119722D02*
X0266400Y0119722D01*
X0266400Y0120321D02*
X0253132Y0120321D01*
X0253731Y0120919D02*
X0266400Y0120919D01*
X0266400Y0121518D02*
X0254329Y0121518D01*
X0254928Y0122116D02*
X0266400Y0122116D01*
X0266400Y0122715D02*
X0255526Y0122715D01*
X0256125Y0123313D02*
X0266400Y0123313D01*
X0266400Y0123912D02*
X0256723Y0123912D01*
X0257322Y0124510D02*
X0266193Y0124510D01*
X0265595Y0125109D02*
X0257920Y0125109D01*
X0258519Y0125707D02*
X0265350Y0125707D01*
X0265350Y0126306D02*
X0259117Y0126306D01*
X0259716Y0126904D02*
X0265350Y0126904D01*
X0265635Y0127503D02*
X0260314Y0127503D01*
X0260913Y0128101D02*
X0266234Y0128101D01*
X0268050Y0128700D02*
X0261511Y0128700D01*
X0262110Y0129299D02*
X0268050Y0129299D01*
X0270300Y0128686D02*
X0270300Y0115786D01*
X0280800Y0105286D01*
X0280800Y0082186D01*
X0278400Y0085186D02*
X0272100Y0078886D01*
X0258900Y0078886D01*
X0255900Y0081886D01*
X0258150Y0082016D02*
X0260700Y0082016D01*
X0260700Y0081418D02*
X0258150Y0081418D01*
X0258664Y0080819D02*
X0260700Y0080819D01*
X0260700Y0080221D02*
X0259262Y0080221D01*
X0258150Y0082615D02*
X0260700Y0082615D01*
X0260700Y0083213D02*
X0257755Y0083213D01*
X0257156Y0083812D02*
X0260700Y0083812D01*
X0260700Y0084410D02*
X0251773Y0084410D01*
X0252371Y0083812D02*
X0254644Y0083812D01*
X0254045Y0083213D02*
X0252970Y0083213D01*
X0253568Y0082615D02*
X0253650Y0082615D01*
X0251174Y0085009D02*
X0260700Y0085009D01*
X0261049Y0085607D02*
X0250576Y0085607D01*
X0249977Y0086206D02*
X0268723Y0086206D01*
X0269321Y0086804D02*
X0249379Y0086804D01*
X0248780Y0087403D02*
X0269920Y0087403D01*
X0270518Y0088001D02*
X0248182Y0088001D01*
X0247583Y0088600D02*
X0271117Y0088600D01*
X0271715Y0089198D02*
X0246985Y0089198D01*
X0246386Y0089797D02*
X0272314Y0089797D01*
X0272912Y0090395D02*
X0246150Y0090395D01*
X0246150Y0090994D02*
X0273511Y0090994D01*
X0274109Y0091592D02*
X0246075Y0091592D01*
X0245477Y0092191D02*
X0274500Y0092191D01*
X0274500Y0092789D02*
X0271485Y0092789D01*
X0272084Y0093388D02*
X0274500Y0093388D01*
X0274500Y0093986D02*
X0272550Y0093986D01*
X0272550Y0094585D02*
X0274500Y0094585D01*
X0274500Y0095183D02*
X0272550Y0095183D01*
X0272486Y0095782D02*
X0274500Y0095782D01*
X0274500Y0096380D02*
X0271887Y0096380D01*
X0272093Y0096979D02*
X0274500Y0096979D01*
X0274500Y0097577D02*
X0272300Y0097577D01*
X0272300Y0098176D02*
X0274500Y0098176D01*
X0274500Y0098774D02*
X0272300Y0098774D01*
X0272300Y0099373D02*
X0274500Y0099373D01*
X0274500Y0099971D02*
X0266300Y0099971D01*
X0266300Y0100486D02*
X0272300Y0100486D01*
X0272300Y0102857D01*
X0272211Y0103188D01*
X0272040Y0103484D01*
X0271798Y0103726D01*
X0271502Y0103897D01*
X0271171Y0103986D01*
X0266300Y0103986D01*
X0266300Y0100486D01*
X0266300Y0100570D02*
X0265700Y0100570D01*
X0265700Y0101168D02*
X0266300Y0101168D01*
X0266300Y0101767D02*
X0265700Y0101767D01*
X0265700Y0102366D02*
X0266300Y0102366D01*
X0266300Y0102964D02*
X0265700Y0102964D01*
X0265700Y0103563D02*
X0266300Y0103563D01*
X0260038Y0103563D02*
X0236374Y0103563D01*
X0236972Y0104161D02*
X0274500Y0104161D01*
X0274500Y0103563D02*
X0271962Y0103563D01*
X0272271Y0102964D02*
X0274500Y0102964D01*
X0274500Y0102366D02*
X0272300Y0102366D01*
X0272300Y0101767D02*
X0274500Y0101767D01*
X0274500Y0101168D02*
X0272300Y0101168D01*
X0272300Y0100570D02*
X0274500Y0100570D01*
X0274500Y0104760D02*
X0237571Y0104760D01*
X0238169Y0105358D02*
X0274500Y0105358D01*
X0274500Y0105957D02*
X0238768Y0105957D01*
X0239366Y0106555D02*
X0274500Y0106555D01*
X0274500Y0107154D02*
X0239965Y0107154D01*
X0240563Y0107752D02*
X0274500Y0107752D01*
X0274238Y0108351D02*
X0241162Y0108351D01*
X0241760Y0108949D02*
X0273640Y0108949D01*
X0273041Y0109548D02*
X0242359Y0109548D01*
X0242957Y0110146D02*
X0272443Y0110146D01*
X0271844Y0110745D02*
X0243556Y0110745D01*
X0244154Y0111343D02*
X0271246Y0111343D01*
X0270647Y0111942D02*
X0244753Y0111942D01*
X0245351Y0112540D02*
X0270049Y0112540D01*
X0269450Y0113139D02*
X0245950Y0113139D01*
X0246548Y0113737D02*
X0268852Y0113737D01*
X0268253Y0114336D02*
X0247147Y0114336D01*
X0247745Y0114934D02*
X0267655Y0114934D01*
X0267056Y0115533D02*
X0248344Y0115533D01*
X0236400Y0119386D02*
X0258600Y0141586D01*
X0250050Y0139636D02*
X0232200Y0121786D01*
X0214800Y0121518D02*
X0199365Y0121518D01*
X0198766Y0122116D02*
X0214800Y0122116D01*
X0214800Y0122715D02*
X0198168Y0122715D01*
X0197569Y0123313D02*
X0214800Y0123313D01*
X0214800Y0123912D02*
X0196971Y0123912D01*
X0196800Y0124510D02*
X0214800Y0124510D01*
X0214800Y0125109D02*
X0197005Y0125109D01*
X0197604Y0125707D02*
X0214800Y0125707D01*
X0214800Y0126306D02*
X0197850Y0126306D01*
X0197850Y0126904D02*
X0214800Y0126904D01*
X0214800Y0127503D02*
X0197850Y0127503D01*
X0197566Y0128101D02*
X0214800Y0128101D01*
X0214800Y0128700D02*
X0196968Y0128700D01*
X0195600Y0126886D02*
X0195600Y0123586D01*
X0199800Y0119386D01*
X0199800Y0109786D01*
X0194700Y0104686D01*
X0193800Y0104686D01*
X0191550Y0104760D02*
X0164523Y0104760D01*
X0163925Y0105358D02*
X0191550Y0105358D01*
X0191889Y0105957D02*
X0163326Y0105957D01*
X0162728Y0106555D02*
X0192487Y0106555D01*
X0192450Y0107154D02*
X0162129Y0107154D01*
X0161531Y0107752D02*
X0192450Y0107752D01*
X0192450Y0108351D02*
X0160932Y0108351D01*
X0160840Y0108949D02*
X0160334Y0108949D01*
X0160241Y0109548D02*
X0159735Y0109548D01*
X0159643Y0110146D02*
X0159137Y0110146D01*
X0159044Y0110745D02*
X0158538Y0110745D01*
X0158446Y0111343D02*
X0157940Y0111343D01*
X0157847Y0111942D02*
X0157341Y0111942D01*
X0157249Y0112540D02*
X0156743Y0112540D01*
X0156650Y0113139D02*
X0156144Y0113139D01*
X0156052Y0113737D02*
X0155546Y0113737D01*
X0155453Y0114336D02*
X0154947Y0114336D01*
X0154855Y0114934D02*
X0154349Y0114934D01*
X0154256Y0115533D02*
X0153750Y0115533D01*
X0153658Y0116131D02*
X0153152Y0116131D01*
X0153059Y0116730D02*
X0152553Y0116730D01*
X0152460Y0117328D02*
X0151955Y0117328D01*
X0151862Y0117927D02*
X0151356Y0117927D01*
X0151263Y0118525D02*
X0150758Y0118525D01*
X0150665Y0119124D02*
X0150159Y0119124D01*
X0150066Y0119722D02*
X0149561Y0119722D01*
X0149468Y0120321D02*
X0148962Y0120321D01*
X0148869Y0120919D02*
X0148364Y0120919D01*
X0148271Y0121518D02*
X0147765Y0121518D01*
X0147672Y0122116D02*
X0147166Y0122116D01*
X0147074Y0122715D02*
X0146568Y0122715D01*
X0146475Y0123313D02*
X0145969Y0123313D01*
X0145877Y0123912D02*
X0145371Y0123912D01*
X0145278Y0124510D02*
X0144772Y0124510D01*
X0144680Y0125109D02*
X0144174Y0125109D01*
X0144081Y0125707D02*
X0143575Y0125707D01*
X0143483Y0126306D02*
X0142977Y0126306D01*
X0142884Y0126904D02*
X0142378Y0126904D01*
X0142286Y0127503D02*
X0141780Y0127503D01*
X0141687Y0128101D02*
X0141181Y0128101D01*
X0141089Y0128700D02*
X0140583Y0128700D01*
X0140490Y0129299D02*
X0127384Y0129299D01*
X0126786Y0129897D02*
X0139892Y0129897D01*
X0139293Y0130496D02*
X0126187Y0130496D01*
X0125589Y0131094D02*
X0138695Y0131094D01*
X0138096Y0131693D02*
X0124990Y0131693D01*
X0124392Y0132291D02*
X0137498Y0132291D01*
X0136899Y0132890D02*
X0123793Y0132890D01*
X0123195Y0133488D02*
X0136301Y0133488D01*
X0135702Y0134087D02*
X0122596Y0134087D01*
X0121998Y0134685D02*
X0135104Y0134685D01*
X0134505Y0135284D02*
X0121399Y0135284D01*
X0120801Y0135882D02*
X0133907Y0135882D01*
X0133308Y0136481D02*
X0120202Y0136481D01*
X0119604Y0137079D02*
X0132710Y0137079D01*
X0132111Y0137678D02*
X0119005Y0137678D01*
X0118407Y0138276D02*
X0131513Y0138276D01*
X0130914Y0138875D02*
X0117808Y0138875D01*
X0117210Y0139473D02*
X0130316Y0139473D01*
X0129717Y0140072D02*
X0116611Y0140072D01*
X0116013Y0140670D02*
X0129600Y0140670D01*
X0129600Y0141269D02*
X0115414Y0141269D01*
X0114816Y0141867D02*
X0129600Y0141867D01*
X0129600Y0142466D02*
X0114217Y0142466D01*
X0113619Y0143064D02*
X0118340Y0143064D01*
X0117741Y0143663D02*
X0113020Y0143663D01*
X0112422Y0144261D02*
X0117450Y0144261D01*
X0117450Y0144860D02*
X0111823Y0144860D01*
X0111225Y0145458D02*
X0117450Y0145458D01*
X0117689Y0146057D02*
X0110626Y0146057D01*
X0110028Y0146655D02*
X0118288Y0146655D01*
X0119700Y0144886D02*
X0128400Y0144886D01*
X0126988Y0146655D02*
X0121112Y0146655D01*
X0122554Y0149049D02*
X0107633Y0149049D01*
X0107035Y0149648D02*
X0121956Y0149648D01*
X0121357Y0150246D02*
X0106436Y0150246D01*
X0105838Y0150845D02*
X0121350Y0150845D01*
X0121350Y0151443D02*
X0105740Y0151443D01*
X0106338Y0152042D02*
X0121350Y0152042D01*
X0123600Y0151186D02*
X0126600Y0148186D01*
X0128400Y0148186D01*
X0130800Y0145786D01*
X0130800Y0140686D01*
X0161700Y0109786D01*
X0189900Y0109786D01*
X0190800Y0110686D01*
X0192600Y0110686D01*
X0191155Y0108949D02*
X0190760Y0108949D01*
X0189300Y0110986D02*
X0196200Y0117886D01*
X0198600Y0118786D02*
X0198600Y0111886D01*
X0194700Y0107986D01*
X0189300Y0110986D02*
X0170400Y0110986D01*
X0156000Y0125386D01*
X0151200Y0125386D01*
X0136500Y0140086D01*
X0134100Y0139186D02*
X0150300Y0122986D01*
X0155100Y0122986D01*
X0159600Y0128386D02*
X0179100Y0128386D01*
X0180600Y0129886D01*
X0180600Y0146686D01*
X0176400Y0144286D02*
X0166800Y0134686D01*
X0163500Y0134686D02*
X0186600Y0157786D01*
X0233700Y0157786D01*
X0234300Y0158986D02*
X0182700Y0158986D01*
X0158400Y0134686D01*
X0159000Y0130786D02*
X0178200Y0130786D01*
X0192300Y0126886D02*
X0192300Y0125086D01*
X0198600Y0118786D01*
X0201000Y0118525D02*
X0214800Y0118525D01*
X0214800Y0117927D02*
X0201000Y0117927D01*
X0201000Y0117328D02*
X0214800Y0117328D01*
X0214800Y0116730D02*
X0201000Y0116730D01*
X0201000Y0116131D02*
X0214800Y0116131D01*
X0214800Y0115533D02*
X0201000Y0115533D01*
X0201000Y0114934D02*
X0214800Y0114934D01*
X0214800Y0114336D02*
X0201000Y0114336D01*
X0201000Y0113737D02*
X0214800Y0113737D01*
X0214800Y0113139D02*
X0201000Y0113139D01*
X0201000Y0112540D02*
X0214800Y0112540D01*
X0214800Y0111942D02*
X0201000Y0111942D01*
X0201000Y0111343D02*
X0214800Y0111343D01*
X0214800Y0110745D02*
X0201000Y0110745D01*
X0204257Y0104161D02*
X0222193Y0104161D01*
X0221595Y0103563D02*
X0219496Y0103563D01*
X0220000Y0102964D02*
X0221250Y0102964D01*
X0221250Y0102366D02*
X0220000Y0102366D01*
X0220000Y0101767D02*
X0221250Y0101767D01*
X0221435Y0101168D02*
X0220000Y0101168D01*
X0220000Y0100570D02*
X0222034Y0100570D01*
X0233980Y0101168D02*
X0259700Y0101168D01*
X0259700Y0101767D02*
X0234578Y0101767D01*
X0235177Y0102366D02*
X0259700Y0102366D01*
X0259729Y0102964D02*
X0235775Y0102964D01*
X0236794Y0092789D02*
X0242922Y0092789D01*
X0242323Y0092191D02*
X0237392Y0092191D01*
X0237991Y0091592D02*
X0241724Y0091592D01*
X0241650Y0090994D02*
X0238589Y0090994D01*
X0239188Y0090395D02*
X0241650Y0090395D01*
X0241650Y0089797D02*
X0239786Y0089797D01*
X0240385Y0089198D02*
X0242106Y0089198D01*
X0242704Y0088600D02*
X0240983Y0088600D01*
X0241582Y0088001D02*
X0244788Y0088001D01*
X0245386Y0087403D02*
X0242180Y0087403D01*
X0242779Y0086804D02*
X0245985Y0086804D01*
X0246238Y0086206D02*
X0243377Y0086206D01*
X0243976Y0085607D02*
X0245639Y0085607D01*
X0245041Y0085009D02*
X0244574Y0085009D01*
X0242976Y0083213D02*
X0220000Y0083213D01*
X0220000Y0082615D02*
X0243574Y0082615D01*
X0244173Y0082016D02*
X0220000Y0082016D01*
X0220000Y0081418D02*
X0244771Y0081418D01*
X0244950Y0081239D02*
X0244950Y0079754D01*
X0246000Y0078704D01*
X0246000Y0077189D01*
X0253305Y0069884D01*
X0252576Y0070186D01*
X0251024Y0070186D01*
X0249591Y0069592D01*
X0248494Y0068495D01*
X0248404Y0068279D01*
X0245297Y0071386D01*
X0217997Y0071386D01*
X0210397Y0078986D01*
X0219473Y0078986D01*
X0220000Y0079513D01*
X0220000Y0085259D01*
X0219473Y0085786D01*
X0208727Y0085786D01*
X0208200Y0085259D01*
X0208200Y0081183D01*
X0205997Y0083386D01*
X0195000Y0083386D01*
X0195000Y0085259D01*
X0194473Y0085786D01*
X0183727Y0085786D01*
X0183200Y0085259D01*
X0183200Y0079513D01*
X0183727Y0078986D01*
X0194473Y0078986D01*
X0195000Y0079513D01*
X0195000Y0080986D01*
X0205003Y0080986D01*
X0217003Y0068986D01*
X0218447Y0068986D01*
X0218122Y0068540D01*
X0217815Y0067936D01*
X0217606Y0067293D01*
X0217500Y0066624D01*
X0217500Y0063586D01*
X0221500Y0063586D01*
X0221500Y0062986D01*
X0217500Y0062986D01*
X0217500Y0060483D01*
X0210300Y0067683D01*
X0210300Y0070683D01*
X0207600Y0073383D01*
X0206897Y0074086D01*
X0160607Y0074086D01*
X0161002Y0074249D01*
X0163336Y0076584D01*
X0164600Y0079635D01*
X0164600Y0082937D01*
X0163336Y0085987D01*
X0161002Y0088322D01*
X0160607Y0088486D01*
X0208918Y0088486D01*
X0209968Y0087436D01*
X0211832Y0087436D01*
X0213150Y0088754D01*
X0213150Y0090618D01*
X0212882Y0090886D01*
X0235303Y0090886D01*
X0244950Y0081239D01*
X0244950Y0080819D02*
X0220000Y0080819D01*
X0220000Y0080221D02*
X0244950Y0080221D01*
X0245082Y0079622D02*
X0220000Y0079622D01*
X0219511Y0079024D02*
X0245680Y0079024D01*
X0246000Y0078425D02*
X0210958Y0078425D01*
X0211556Y0077827D02*
X0246000Y0077827D01*
X0246000Y0077228D02*
X0212155Y0077228D01*
X0212753Y0076630D02*
X0246559Y0076630D01*
X0247158Y0076031D02*
X0213352Y0076031D01*
X0213950Y0075432D02*
X0247756Y0075432D01*
X0248355Y0074834D02*
X0214549Y0074834D01*
X0215147Y0074235D02*
X0248953Y0074235D01*
X0249552Y0073637D02*
X0215746Y0073637D01*
X0216344Y0073038D02*
X0250150Y0073038D01*
X0250749Y0072440D02*
X0216943Y0072440D01*
X0217541Y0071841D02*
X0251347Y0071841D01*
X0251946Y0071243D02*
X0245440Y0071243D01*
X0246038Y0070644D02*
X0252544Y0070644D01*
X0252914Y0070046D02*
X0253143Y0070046D01*
X0250686Y0070046D02*
X0246637Y0070046D01*
X0247235Y0069447D02*
X0249446Y0069447D01*
X0248848Y0068849D02*
X0247834Y0068849D01*
X0244800Y0070186D02*
X0251700Y0063286D01*
X0251800Y0063286D01*
X0261600Y0063286D02*
X0261800Y0063286D01*
X0261600Y0063286D02*
X0247200Y0077686D01*
X0247200Y0080686D01*
X0235800Y0092086D01*
X0175200Y0092086D01*
X0168000Y0099286D01*
X0168000Y0099586D01*
X0139500Y0128086D01*
X0126900Y0128086D01*
X0101400Y0153586D01*
X0087300Y0153586D01*
X0075000Y0165886D01*
X0069900Y0165886D01*
X0069900Y0165986D01*
X0076200Y0166486D02*
X0076200Y0168586D01*
X0060000Y0184786D01*
X0057000Y0184786D01*
X0051000Y0184960D02*
X0046800Y0184960D01*
X0046800Y0184362D02*
X0051000Y0184362D01*
X0051000Y0183763D02*
X0046800Y0183763D01*
X0046800Y0183165D02*
X0051000Y0183165D01*
X0051000Y0182566D02*
X0046800Y0182566D01*
X0046800Y0181968D02*
X0051000Y0181968D01*
X0051000Y0181369D02*
X0046800Y0181369D01*
X0046800Y0180770D02*
X0051000Y0180770D01*
X0051000Y0180172D02*
X0046800Y0180172D01*
X0046800Y0179573D02*
X0051000Y0179573D01*
X0051000Y0178975D02*
X0046800Y0178975D01*
X0046800Y0178376D02*
X0051000Y0178376D01*
X0051000Y0177778D02*
X0046800Y0177778D01*
X0046800Y0177179D02*
X0051000Y0177179D01*
X0051000Y0176581D02*
X0046800Y0176581D01*
X0046800Y0175982D02*
X0051000Y0175982D01*
X0051000Y0175384D02*
X0046800Y0175384D01*
X0046800Y0174785D02*
X0051000Y0174785D01*
X0051202Y0174187D02*
X0046800Y0174187D01*
X0046800Y0173588D02*
X0051800Y0173588D01*
X0052399Y0172990D02*
X0046800Y0172990D01*
X0046800Y0172391D02*
X0052997Y0172391D01*
X0053596Y0171793D02*
X0046800Y0171793D01*
X0046800Y0171194D02*
X0054194Y0171194D01*
X0054793Y0170596D02*
X0046800Y0170596D01*
X0046800Y0169997D02*
X0055391Y0169997D01*
X0055990Y0169399D02*
X0046800Y0169399D01*
X0052200Y0174886D02*
X0052200Y0230686D01*
X0067800Y0246286D01*
X0067800Y0263086D01*
X0071400Y0266686D01*
X0075300Y0266686D01*
X0076500Y0265486D01*
X0076500Y0261586D01*
X0077100Y0260986D01*
X0093300Y0260986D01*
X0096975Y0266358D02*
X0085650Y0266358D01*
X0085650Y0266956D02*
X0097573Y0266956D01*
X0098172Y0267555D02*
X0085650Y0267555D01*
X0085115Y0268153D02*
X0098770Y0268153D01*
X0099369Y0268752D02*
X0084516Y0268752D01*
X0082433Y0269350D02*
X0099967Y0269350D01*
X0100566Y0269949D02*
X0081834Y0269949D01*
X0081236Y0270547D02*
X0104179Y0270547D01*
X0104778Y0271146D02*
X0081137Y0271146D01*
X0081137Y0271744D02*
X0117445Y0271744D01*
X0118043Y0271146D02*
X0107622Y0271146D01*
X0108221Y0270547D02*
X0118642Y0270547D01*
X0119240Y0269949D02*
X0108450Y0269949D01*
X0108450Y0269350D02*
X0119839Y0269350D01*
X0120437Y0268752D02*
X0108955Y0268752D01*
X0109554Y0268153D02*
X0121036Y0268153D01*
X0121634Y0267555D02*
X0110153Y0267555D01*
X0110751Y0266956D02*
X0122233Y0266956D01*
X0122831Y0266358D02*
X0111350Y0266358D01*
X0111948Y0265759D02*
X0117350Y0265759D01*
X0117146Y0265161D02*
X0112547Y0265161D01*
X0113145Y0264562D02*
X0117146Y0264562D01*
X0121005Y0264562D02*
X0121005Y0264562D01*
X0121005Y0265161D02*
X0121005Y0265161D01*
X0121005Y0265759D02*
X0121005Y0265759D01*
X0124864Y0263964D02*
X0125225Y0263964D01*
X0124770Y0263365D02*
X0125824Y0263365D01*
X0126422Y0262767D02*
X0124464Y0262767D01*
X0124464Y0262168D02*
X0127021Y0262168D01*
X0127619Y0261570D02*
X0124464Y0261570D01*
X0124464Y0260971D02*
X0128218Y0260971D01*
X0128816Y0260372D02*
X0124464Y0260372D01*
X0124706Y0259774D02*
X0129415Y0259774D01*
X0130013Y0259175D02*
X0124864Y0259175D01*
X0124864Y0258577D02*
X0130612Y0258577D01*
X0131210Y0257978D02*
X0124864Y0257978D01*
X0124857Y0257380D02*
X0131809Y0257380D01*
X0132407Y0256781D02*
X0124864Y0256781D01*
X0124864Y0256183D02*
X0133006Y0256183D01*
X0133604Y0255584D02*
X0124811Y0255584D01*
X0127082Y0254986D02*
X0134203Y0254986D01*
X0134801Y0254387D02*
X0127680Y0254387D01*
X0127950Y0253789D02*
X0135400Y0253789D01*
X0137400Y0253486D02*
X0137400Y0183286D01*
X0105000Y0182686D02*
X0105000Y0178486D01*
X0098596Y0171793D02*
X0091490Y0171793D01*
X0091500Y0171194D02*
X0099194Y0171194D01*
X0099793Y0170596D02*
X0091500Y0170596D01*
X0091500Y0169997D02*
X0100391Y0169997D01*
X0100990Y0169399D02*
X0091500Y0169399D01*
X0091500Y0168800D02*
X0101589Y0168800D01*
X0101850Y0168202D02*
X0091500Y0168202D01*
X0091500Y0167603D02*
X0101850Y0167603D01*
X0101899Y0167005D02*
X0091500Y0167005D01*
X0088000Y0167603D02*
X0087400Y0167603D01*
X0087400Y0168202D02*
X0088000Y0168202D01*
X0088000Y0168800D02*
X0087400Y0168800D01*
X0087400Y0169399D02*
X0088000Y0169399D01*
X0088000Y0169997D02*
X0087400Y0169997D01*
X0087400Y0170596D02*
X0088000Y0170596D01*
X0088000Y0171194D02*
X0087400Y0171194D01*
X0087400Y0171793D02*
X0087811Y0171793D01*
X0084167Y0172391D02*
X0083803Y0172391D01*
X0083910Y0171793D02*
X0083204Y0171793D01*
X0082606Y0171194D02*
X0083900Y0171194D01*
X0083900Y0170596D02*
X0082050Y0170596D01*
X0082050Y0169997D02*
X0083900Y0169997D01*
X0083900Y0169399D02*
X0082050Y0169399D01*
X0081696Y0168800D02*
X0083900Y0168800D01*
X0083900Y0168202D02*
X0081098Y0168202D01*
X0080080Y0167603D02*
X0083900Y0167603D01*
X0083900Y0167005D02*
X0080678Y0167005D01*
X0079800Y0170086D02*
X0084600Y0174886D01*
X0076200Y0166486D02*
X0082200Y0160486D01*
X0074700Y0152386D02*
X0052200Y0174886D01*
X0051000Y0185559D02*
X0046800Y0185559D01*
X0046800Y0186157D02*
X0051000Y0186157D01*
X0051000Y0186756D02*
X0046800Y0186756D01*
X0046800Y0187354D02*
X0051000Y0187354D01*
X0051000Y0187953D02*
X0046800Y0187953D01*
X0046800Y0188551D02*
X0051000Y0188551D01*
X0051000Y0189150D02*
X0046800Y0189150D01*
X0046800Y0189748D02*
X0051000Y0189748D01*
X0051000Y0190347D02*
X0046800Y0190347D01*
X0046800Y0190945D02*
X0051000Y0190945D01*
X0051000Y0191544D02*
X0046800Y0191544D01*
X0046800Y0192142D02*
X0051000Y0192142D01*
X0051000Y0192741D02*
X0046800Y0192741D01*
X0046800Y0193339D02*
X0051000Y0193339D01*
X0051000Y0193938D02*
X0046800Y0193938D01*
X0046800Y0194536D02*
X0051000Y0194536D01*
X0051000Y0195135D02*
X0046800Y0195135D01*
X0046800Y0195733D02*
X0051000Y0195733D01*
X0051000Y0196332D02*
X0046800Y0196332D01*
X0046800Y0196930D02*
X0051000Y0196930D01*
X0051000Y0197529D02*
X0046800Y0197529D01*
X0046800Y0198127D02*
X0051000Y0198127D01*
X0051000Y0198726D02*
X0046800Y0198726D01*
X0046800Y0199324D02*
X0051000Y0199324D01*
X0051000Y0199923D02*
X0046800Y0199923D01*
X0046800Y0200521D02*
X0051000Y0200521D01*
X0051000Y0201120D02*
X0046800Y0201120D01*
X0046800Y0201718D02*
X0051000Y0201718D01*
X0051000Y0202317D02*
X0046800Y0202317D01*
X0046800Y0202915D02*
X0051000Y0202915D01*
X0051000Y0203514D02*
X0046800Y0203514D01*
X0046800Y0204112D02*
X0051000Y0204112D01*
X0051000Y0204711D02*
X0046800Y0204711D01*
X0046800Y0205309D02*
X0051000Y0205309D01*
X0051000Y0205908D02*
X0046800Y0205908D01*
X0046800Y0206506D02*
X0051000Y0206506D01*
X0051000Y0207105D02*
X0046800Y0207105D01*
X0046800Y0207703D02*
X0051000Y0207703D01*
X0051000Y0208302D02*
X0046800Y0208302D01*
X0046800Y0208901D02*
X0051000Y0208901D01*
X0051000Y0209499D02*
X0046800Y0209499D01*
X0046800Y0210098D02*
X0051000Y0210098D01*
X0051000Y0210696D02*
X0046800Y0210696D01*
X0046800Y0211295D02*
X0051000Y0211295D01*
X0051000Y0211893D02*
X0046800Y0211893D01*
X0046800Y0212492D02*
X0051000Y0212492D01*
X0051000Y0213090D02*
X0046800Y0213090D01*
X0046800Y0213689D02*
X0051000Y0213689D01*
X0051000Y0214287D02*
X0046800Y0214287D01*
X0046800Y0214886D02*
X0051000Y0214886D01*
X0051000Y0215484D02*
X0046800Y0215484D01*
X0046800Y0216083D02*
X0051000Y0216083D01*
X0051000Y0216681D02*
X0046800Y0216681D01*
X0046800Y0217280D02*
X0051000Y0217280D01*
X0051000Y0217878D02*
X0046800Y0217878D01*
X0046800Y0218477D02*
X0051000Y0218477D01*
X0051000Y0219075D02*
X0046800Y0219075D01*
X0046800Y0219674D02*
X0051000Y0219674D01*
X0051000Y0220272D02*
X0046800Y0220272D01*
X0046800Y0220871D02*
X0051000Y0220871D01*
X0051000Y0221469D02*
X0046800Y0221469D01*
X0046800Y0222068D02*
X0051000Y0222068D01*
X0051000Y0222666D02*
X0046800Y0222666D01*
X0046800Y0223265D02*
X0051000Y0223265D01*
X0051000Y0223863D02*
X0046800Y0223863D01*
X0046800Y0224462D02*
X0051000Y0224462D01*
X0051000Y0225060D02*
X0046800Y0225060D01*
X0046800Y0225659D02*
X0051000Y0225659D01*
X0051000Y0226257D02*
X0046800Y0226257D01*
X0046800Y0226856D02*
X0051000Y0226856D01*
X0051000Y0227454D02*
X0046800Y0227454D01*
X0046800Y0228053D02*
X0051000Y0228053D01*
X0051000Y0228651D02*
X0046800Y0228651D01*
X0046800Y0229250D02*
X0051000Y0229250D01*
X0051000Y0229848D02*
X0046800Y0229848D01*
X0046800Y0230447D02*
X0051000Y0230447D01*
X0051000Y0231045D02*
X0046800Y0231045D01*
X0046800Y0231644D02*
X0051461Y0231644D01*
X0052060Y0232242D02*
X0046800Y0232242D01*
X0046800Y0232841D02*
X0052658Y0232841D01*
X0053257Y0233439D02*
X0046800Y0233439D01*
X0046800Y0234038D02*
X0053855Y0234038D01*
X0054454Y0234637D02*
X0046800Y0234637D01*
X0046800Y0235235D02*
X0055052Y0235235D01*
X0055651Y0235834D02*
X0046800Y0235834D01*
X0046800Y0236432D02*
X0056249Y0236432D01*
X0056848Y0237031D02*
X0046800Y0237031D01*
X0046800Y0237629D02*
X0057446Y0237629D01*
X0058045Y0238228D02*
X0046800Y0238228D01*
X0046800Y0238826D02*
X0058643Y0238826D01*
X0059242Y0239425D02*
X0046800Y0239425D01*
X0046800Y0240023D02*
X0059840Y0240023D01*
X0060439Y0240622D02*
X0046800Y0240622D01*
X0046800Y0241220D02*
X0061037Y0241220D01*
X0061636Y0241819D02*
X0046800Y0241819D01*
X0046800Y0242417D02*
X0062234Y0242417D01*
X0062833Y0243016D02*
X0046800Y0243016D01*
X0046800Y0243614D02*
X0063431Y0243614D01*
X0064030Y0244213D02*
X0046800Y0244213D01*
X0046800Y0244811D02*
X0064628Y0244811D01*
X0065227Y0245410D02*
X0046800Y0245410D01*
X0046800Y0246008D02*
X0065825Y0246008D01*
X0066424Y0246607D02*
X0046800Y0246607D01*
X0046800Y0247205D02*
X0066600Y0247205D01*
X0066600Y0247804D02*
X0047315Y0247804D01*
X0047913Y0248402D02*
X0066600Y0248402D01*
X0066600Y0249001D02*
X0048512Y0249001D01*
X0049110Y0249599D02*
X0066600Y0249599D01*
X0066600Y0250198D02*
X0049709Y0250198D01*
X0050308Y0250796D02*
X0066600Y0250796D01*
X0066600Y0251395D02*
X0050906Y0251395D01*
X0051505Y0251993D02*
X0066600Y0251993D01*
X0066600Y0252592D02*
X0052103Y0252592D01*
X0052702Y0253190D02*
X0066600Y0253190D01*
X0066600Y0253789D02*
X0053300Y0253789D01*
X0053899Y0254387D02*
X0066600Y0254387D01*
X0066600Y0254986D02*
X0054497Y0254986D01*
X0055096Y0255584D02*
X0066600Y0255584D01*
X0066600Y0256183D02*
X0055694Y0256183D01*
X0056293Y0256781D02*
X0066600Y0256781D01*
X0066600Y0257380D02*
X0056891Y0257380D01*
X0057490Y0257978D02*
X0066600Y0257978D01*
X0066600Y0258577D02*
X0058088Y0258577D01*
X0058687Y0259175D02*
X0066600Y0259175D01*
X0066600Y0259774D02*
X0059285Y0259774D01*
X0059884Y0260372D02*
X0066600Y0260372D01*
X0066600Y0260971D02*
X0060482Y0260971D01*
X0061081Y0261570D02*
X0066600Y0261570D01*
X0066600Y0262168D02*
X0061679Y0262168D01*
X0062278Y0262767D02*
X0066600Y0262767D01*
X0066600Y0263365D02*
X0062876Y0263365D01*
X0063475Y0263964D02*
X0066981Y0263964D01*
X0067579Y0264562D02*
X0064073Y0264562D01*
X0064672Y0265161D02*
X0068178Y0265161D01*
X0068776Y0265759D02*
X0065270Y0265759D01*
X0065869Y0266358D02*
X0069375Y0266358D01*
X0068848Y0266956D02*
X0066467Y0266956D01*
X0067066Y0267555D02*
X0068249Y0267555D01*
X0067950Y0268153D02*
X0067664Y0268153D01*
X0071400Y0275386D02*
X0115500Y0275386D01*
X0137400Y0253486D01*
X0121005Y0254986D02*
X0121005Y0254986D01*
X0121005Y0255584D02*
X0121005Y0255584D01*
X0121005Y0256183D02*
X0121005Y0256183D01*
X0121005Y0256781D02*
X0121005Y0256781D01*
X0121005Y0257380D02*
X0121005Y0257380D01*
X0121005Y0257978D02*
X0121005Y0257978D01*
X0116100Y0254386D02*
X0116100Y0251086D01*
X0118200Y0248986D01*
X0120900Y0248986D01*
X0121005Y0248719D01*
X0116100Y0254386D02*
X0103800Y0266686D01*
X0102300Y0266686D01*
X0115051Y0274138D02*
X0077045Y0274138D01*
X0076997Y0274186D02*
X0076997Y0274186D01*
X0078859Y0271286D02*
X0078900Y0271186D01*
X0083400Y0266686D01*
X0081137Y0272343D02*
X0116846Y0272343D01*
X0116248Y0272941D02*
X0081137Y0272941D01*
X0081028Y0273540D02*
X0115649Y0273540D01*
X0078859Y0256286D02*
X0078900Y0256186D01*
X0078900Y0254986D01*
X0079650Y0254236D01*
X0072900Y0242686D02*
X0069900Y0242686D01*
X0072900Y0242686D02*
X0073200Y0242386D01*
X0073241Y0242286D01*
X0042900Y0246886D02*
X0071400Y0275386D01*
X0042900Y0246886D02*
X0042900Y0194086D01*
X0039000Y0206686D02*
X0039000Y0162886D01*
X0087300Y0114586D01*
X0101400Y0114586D01*
X0129000Y0086986D01*
X0152700Y0072886D02*
X0108600Y0116986D01*
X0108600Y0118486D01*
X0107400Y0117886D02*
X0091500Y0133786D01*
X0084300Y0133786D01*
X0076800Y0141286D01*
X0076800Y0147586D01*
X0074700Y0152386D02*
X0096900Y0152386D01*
X0123600Y0125686D01*
X0138600Y0125686D01*
X0143700Y0120586D02*
X0126900Y0120586D01*
X0099000Y0148486D01*
X0097500Y0148486D01*
X0104700Y0153586D02*
X0127800Y0153586D01*
X0139800Y0141586D01*
X0139800Y0140086D01*
X0134100Y0139186D02*
X0134100Y0144286D01*
X0129000Y0149386D01*
X0128700Y0149386D01*
X0127500Y0150586D01*
X0125236Y0147852D02*
X0108830Y0147852D01*
X0108232Y0148451D02*
X0124638Y0148451D01*
X0125835Y0147254D02*
X0109429Y0147254D01*
X0121060Y0143064D02*
X0127040Y0143064D01*
X0126441Y0143663D02*
X0121659Y0143663D01*
X0109800Y0134386D02*
X0154500Y0089686D01*
X0210900Y0089686D01*
X0213150Y0089797D02*
X0236392Y0089797D01*
X0235793Y0090395D02*
X0213150Y0090395D01*
X0213150Y0089198D02*
X0236991Y0089198D01*
X0237589Y0088600D02*
X0212996Y0088600D01*
X0212397Y0088001D02*
X0238188Y0088001D01*
X0238786Y0087403D02*
X0161921Y0087403D01*
X0161323Y0088001D02*
X0209403Y0088001D01*
X0208549Y0085607D02*
X0194651Y0085607D01*
X0195000Y0085009D02*
X0208200Y0085009D01*
X0208200Y0084410D02*
X0195000Y0084410D01*
X0195000Y0083812D02*
X0208200Y0083812D01*
X0208200Y0083213D02*
X0206170Y0083213D01*
X0206768Y0082615D02*
X0208200Y0082615D01*
X0208200Y0082016D02*
X0207367Y0082016D01*
X0207965Y0081418D02*
X0208200Y0081418D01*
X0206367Y0079622D02*
X0195000Y0079622D01*
X0195000Y0080221D02*
X0205768Y0080221D01*
X0205170Y0080819D02*
X0195000Y0080819D01*
X0194511Y0079024D02*
X0206965Y0079024D01*
X0207564Y0078425D02*
X0164099Y0078425D01*
X0164347Y0079024D02*
X0183689Y0079024D01*
X0183200Y0079622D02*
X0164595Y0079622D01*
X0164600Y0080221D02*
X0183200Y0080221D01*
X0183200Y0080819D02*
X0164600Y0080819D01*
X0164600Y0081418D02*
X0183200Y0081418D01*
X0183200Y0082016D02*
X0164600Y0082016D01*
X0164600Y0082615D02*
X0183200Y0082615D01*
X0183200Y0083213D02*
X0164486Y0083213D01*
X0164238Y0083812D02*
X0183200Y0083812D01*
X0183200Y0084410D02*
X0163990Y0084410D01*
X0163742Y0085009D02*
X0183200Y0085009D01*
X0183549Y0085607D02*
X0163494Y0085607D01*
X0163118Y0086206D02*
X0239983Y0086206D01*
X0239385Y0086804D02*
X0162520Y0086804D01*
X0163851Y0077827D02*
X0208162Y0077827D01*
X0208761Y0077228D02*
X0163603Y0077228D01*
X0163355Y0076630D02*
X0209359Y0076630D01*
X0209958Y0076031D02*
X0162783Y0076031D01*
X0162185Y0075432D02*
X0210556Y0075432D01*
X0211155Y0074834D02*
X0161586Y0074834D01*
X0160968Y0074235D02*
X0211753Y0074235D01*
X0212352Y0073637D02*
X0207346Y0073637D01*
X0207944Y0073038D02*
X0212950Y0073038D01*
X0213549Y0072440D02*
X0208543Y0072440D01*
X0209141Y0071841D02*
X0214147Y0071841D01*
X0214746Y0071243D02*
X0209740Y0071243D01*
X0210300Y0070644D02*
X0215344Y0070644D01*
X0215943Y0070046D02*
X0210300Y0070046D01*
X0210300Y0069447D02*
X0216541Y0069447D01*
X0217500Y0070186D02*
X0244800Y0070186D01*
X0254100Y0074686D02*
X0254100Y0077086D01*
X0247200Y0083986D01*
X0242377Y0083812D02*
X0220000Y0083812D01*
X0220000Y0084410D02*
X0241779Y0084410D01*
X0241180Y0085009D02*
X0220000Y0085009D01*
X0219651Y0085607D02*
X0240582Y0085607D01*
X0243900Y0090586D02*
X0256500Y0077986D01*
X0256500Y0075586D01*
X0254100Y0074686D02*
X0258600Y0070186D01*
X0264900Y0070186D01*
X0271800Y0063286D01*
X0275700Y0065986D02*
X0275700Y0058486D01*
X0273600Y0056386D01*
X0219900Y0056386D01*
X0209100Y0067186D01*
X0209100Y0070186D01*
X0206400Y0072886D01*
X0152700Y0072886D01*
X0152100Y0071686D02*
X0107400Y0116386D01*
X0107400Y0117886D01*
X0104700Y0114586D02*
X0165300Y0053986D01*
X0218700Y0053986D01*
X0223500Y0049186D01*
X0263700Y0049186D01*
X0270300Y0035986D02*
X0298200Y0035986D01*
X0321900Y0059686D01*
X0355200Y0059686D01*
X0435000Y0139486D01*
X0435600Y0139486D01*
X0429600Y0144586D02*
X0419700Y0144586D01*
X0409200Y0134086D01*
X0409200Y0126586D01*
X0404400Y0121786D01*
X0402746Y0123313D02*
X0395925Y0123313D01*
X0396523Y0123912D02*
X0403344Y0123912D01*
X0403468Y0124036D02*
X0402150Y0122718D01*
X0402150Y0120854D01*
X0403468Y0119536D01*
X0405332Y0119536D01*
X0406650Y0120854D01*
X0406650Y0122339D01*
X0408647Y0124336D01*
X0410132Y0124336D01*
X0411450Y0125654D01*
X0411450Y0127518D01*
X0410400Y0128568D01*
X0410400Y0133589D01*
X0419000Y0142189D01*
X0419000Y0133113D01*
X0419527Y0132586D01*
X0423579Y0132586D01*
X0363080Y0072087D01*
X0363032Y0072136D01*
X0361168Y0072136D01*
X0359850Y0070818D01*
X0359850Y0068954D01*
X0361168Y0067636D01*
X0361453Y0067636D01*
X0354703Y0060886D01*
X0322997Y0060886D01*
X0339797Y0077686D01*
X0344897Y0077686D01*
X0348000Y0080789D01*
X0348000Y0079635D01*
X0349264Y0076584D01*
X0351598Y0074249D01*
X0354649Y0072986D01*
X0357951Y0072986D01*
X0361002Y0074249D01*
X0363336Y0076584D01*
X0364600Y0079635D01*
X0364600Y0082937D01*
X0363336Y0085987D01*
X0361002Y0088322D01*
X0357951Y0089586D01*
X0354649Y0089586D01*
X0351598Y0088322D01*
X0349264Y0085987D01*
X0349200Y0085834D01*
X0349200Y0089489D01*
X0371550Y0111839D01*
X0371550Y0111554D01*
X0372868Y0110236D01*
X0374732Y0110236D01*
X0375782Y0111286D01*
X0383897Y0111286D01*
X0384600Y0111989D01*
X0419108Y0146496D01*
X0419668Y0145936D01*
X0421532Y0145936D01*
X0422850Y0147254D01*
X0430571Y0147254D01*
X0431170Y0147852D02*
X0422850Y0147852D01*
X0422850Y0147254D02*
X0422850Y0149118D01*
X0421532Y0150436D01*
X0419668Y0150436D01*
X0418618Y0149386D01*
X0418603Y0149386D01*
X0382903Y0113686D01*
X0375782Y0113686D01*
X0374732Y0114736D01*
X0374447Y0114736D01*
X0417497Y0157786D01*
X0418200Y0158489D01*
X0418200Y0159104D01*
X0419000Y0159904D01*
X0419000Y0158113D01*
X0419527Y0157586D01*
X0425273Y0157586D01*
X0425800Y0158113D01*
X0425800Y0168859D01*
X0425773Y0168886D01*
X0436400Y0168886D01*
X0436400Y0164386D01*
X0439900Y0164386D01*
X0439900Y0163786D01*
X0436400Y0163786D01*
X0436400Y0158915D01*
X0436489Y0158584D01*
X0436660Y0158288D01*
X0436902Y0158046D01*
X0437198Y0157874D01*
X0437529Y0157786D01*
X0439900Y0157786D01*
X0439900Y0163786D01*
X0440500Y0163786D01*
X0440500Y0157786D01*
X0441103Y0157786D01*
X0429103Y0145786D01*
X0419203Y0145786D01*
X0408703Y0135286D01*
X0408000Y0134583D01*
X0408000Y0128568D01*
X0406950Y0127518D01*
X0406950Y0126033D01*
X0404953Y0124036D01*
X0403468Y0124036D01*
X0402150Y0122715D02*
X0395326Y0122715D01*
X0394728Y0122116D02*
X0402150Y0122116D01*
X0402150Y0121518D02*
X0394129Y0121518D01*
X0393531Y0120919D02*
X0402150Y0120919D01*
X0402683Y0120321D02*
X0392932Y0120321D01*
X0392334Y0119722D02*
X0403282Y0119722D01*
X0405518Y0119722D02*
X0410715Y0119722D01*
X0410117Y0119124D02*
X0391735Y0119124D01*
X0391137Y0118525D02*
X0409518Y0118525D01*
X0408920Y0117927D02*
X0390538Y0117927D01*
X0389939Y0117328D02*
X0408321Y0117328D01*
X0407723Y0116730D02*
X0389341Y0116730D01*
X0388742Y0116131D02*
X0407124Y0116131D01*
X0406526Y0115533D02*
X0388144Y0115533D01*
X0387545Y0114934D02*
X0405927Y0114934D01*
X0405329Y0114336D02*
X0386947Y0114336D01*
X0386348Y0113737D02*
X0404730Y0113737D01*
X0404132Y0113139D02*
X0385750Y0113139D01*
X0385151Y0112540D02*
X0403533Y0112540D01*
X0402935Y0111942D02*
X0384553Y0111942D01*
X0383954Y0111343D02*
X0402336Y0111343D01*
X0401738Y0110745D02*
X0375241Y0110745D01*
X0373800Y0112486D02*
X0383400Y0112486D01*
X0419100Y0148186D01*
X0420600Y0148186D01*
X0422251Y0146655D02*
X0429972Y0146655D01*
X0429374Y0146057D02*
X0421653Y0146057D01*
X0419547Y0146057D02*
X0418668Y0146057D01*
X0418875Y0145458D02*
X0418070Y0145458D01*
X0418277Y0144860D02*
X0417471Y0144860D01*
X0417678Y0144261D02*
X0416873Y0144261D01*
X0417080Y0143663D02*
X0416274Y0143663D01*
X0416481Y0143064D02*
X0415675Y0143064D01*
X0415883Y0142466D02*
X0415077Y0142466D01*
X0415284Y0141867D02*
X0414478Y0141867D01*
X0414686Y0141269D02*
X0413880Y0141269D01*
X0414087Y0140670D02*
X0413281Y0140670D01*
X0413489Y0140072D02*
X0412683Y0140072D01*
X0412890Y0139473D02*
X0412084Y0139473D01*
X0412292Y0138875D02*
X0411486Y0138875D01*
X0411693Y0138276D02*
X0410887Y0138276D01*
X0411095Y0137678D02*
X0410289Y0137678D01*
X0410496Y0137079D02*
X0409690Y0137079D01*
X0409898Y0136481D02*
X0409092Y0136481D01*
X0409299Y0135882D02*
X0408493Y0135882D01*
X0408701Y0135284D02*
X0407895Y0135284D01*
X0408102Y0134685D02*
X0407296Y0134685D01*
X0406698Y0134087D02*
X0408000Y0134087D01*
X0408000Y0133488D02*
X0406099Y0133488D01*
X0405501Y0132890D02*
X0408000Y0132890D01*
X0408000Y0132291D02*
X0404902Y0132291D01*
X0404304Y0131693D02*
X0408000Y0131693D01*
X0408000Y0131094D02*
X0403705Y0131094D01*
X0403107Y0130496D02*
X0408000Y0130496D01*
X0408000Y0129897D02*
X0402508Y0129897D01*
X0401910Y0129299D02*
X0408000Y0129299D01*
X0408000Y0128700D02*
X0401311Y0128700D01*
X0400713Y0128101D02*
X0407534Y0128101D01*
X0406950Y0127503D02*
X0400114Y0127503D01*
X0399516Y0126904D02*
X0406950Y0126904D01*
X0406950Y0126306D02*
X0398917Y0126306D01*
X0398319Y0125707D02*
X0406625Y0125707D01*
X0406026Y0125109D02*
X0397720Y0125109D01*
X0397122Y0124510D02*
X0405428Y0124510D01*
X0407026Y0122715D02*
X0413708Y0122715D01*
X0414306Y0123313D02*
X0407625Y0123313D01*
X0408223Y0123912D02*
X0414905Y0123912D01*
X0415503Y0124510D02*
X0410307Y0124510D01*
X0410905Y0125109D02*
X0416102Y0125109D01*
X0416700Y0125707D02*
X0411450Y0125707D01*
X0411450Y0126306D02*
X0417299Y0126306D01*
X0417897Y0126904D02*
X0411450Y0126904D01*
X0411450Y0127503D02*
X0418496Y0127503D01*
X0419094Y0128101D02*
X0410866Y0128101D01*
X0410400Y0128700D02*
X0419693Y0128700D01*
X0420291Y0129299D02*
X0410400Y0129299D01*
X0410400Y0129897D02*
X0420890Y0129897D01*
X0421488Y0130496D02*
X0410400Y0130496D01*
X0410400Y0131094D02*
X0422087Y0131094D01*
X0422685Y0131693D02*
X0410400Y0131693D01*
X0410400Y0132291D02*
X0423284Y0132291D01*
X0419223Y0132890D02*
X0410400Y0132890D01*
X0410400Y0133488D02*
X0419000Y0133488D01*
X0419000Y0134087D02*
X0410898Y0134087D01*
X0411496Y0134685D02*
X0419000Y0134685D01*
X0419000Y0135284D02*
X0412095Y0135284D01*
X0412693Y0135882D02*
X0419000Y0135882D01*
X0419000Y0136481D02*
X0413292Y0136481D01*
X0413890Y0137079D02*
X0419000Y0137079D01*
X0419000Y0137678D02*
X0414489Y0137678D01*
X0415087Y0138276D02*
X0419000Y0138276D01*
X0419000Y0138875D02*
X0415686Y0138875D01*
X0416284Y0139473D02*
X0419000Y0139473D01*
X0419000Y0140072D02*
X0416883Y0140072D01*
X0417481Y0140670D02*
X0419000Y0140670D01*
X0419000Y0141269D02*
X0418080Y0141269D01*
X0418678Y0141867D02*
X0419000Y0141867D01*
X0414077Y0144860D02*
X0404571Y0144860D01*
X0405170Y0145458D02*
X0414675Y0145458D01*
X0415274Y0146057D02*
X0405768Y0146057D01*
X0406367Y0146655D02*
X0415872Y0146655D01*
X0416471Y0147254D02*
X0406965Y0147254D01*
X0407564Y0147852D02*
X0417069Y0147852D01*
X0417668Y0148451D02*
X0408162Y0148451D01*
X0408761Y0149049D02*
X0418267Y0149049D01*
X0418880Y0149648D02*
X0409359Y0149648D01*
X0409958Y0150246D02*
X0419479Y0150246D01*
X0421721Y0150246D02*
X0433564Y0150246D01*
X0434162Y0150845D02*
X0410556Y0150845D01*
X0411155Y0151443D02*
X0434761Y0151443D01*
X0435359Y0152042D02*
X0411753Y0152042D01*
X0412352Y0152640D02*
X0435958Y0152640D01*
X0436556Y0153239D02*
X0412950Y0153239D01*
X0413549Y0153837D02*
X0437155Y0153837D01*
X0437753Y0154436D02*
X0414147Y0154436D01*
X0414746Y0155034D02*
X0438352Y0155034D01*
X0438950Y0155633D02*
X0415344Y0155633D01*
X0415943Y0156232D02*
X0439549Y0156232D01*
X0440147Y0156830D02*
X0416541Y0156830D01*
X0417140Y0157429D02*
X0440746Y0157429D01*
X0440500Y0158027D02*
X0439900Y0158027D01*
X0439900Y0158626D02*
X0440500Y0158626D01*
X0440500Y0159224D02*
X0439900Y0159224D01*
X0439900Y0159823D02*
X0440500Y0159823D01*
X0440500Y0160421D02*
X0439900Y0160421D01*
X0439900Y0161020D02*
X0440500Y0161020D01*
X0440500Y0161618D02*
X0439900Y0161618D01*
X0439900Y0162217D02*
X0440500Y0162217D01*
X0440500Y0162815D02*
X0439900Y0162815D01*
X0439900Y0163414D02*
X0440500Y0163414D01*
X0439900Y0164012D02*
X0425800Y0164012D01*
X0425800Y0163414D02*
X0436400Y0163414D01*
X0436400Y0162815D02*
X0425800Y0162815D01*
X0425800Y0162217D02*
X0436400Y0162217D01*
X0436400Y0161618D02*
X0425800Y0161618D01*
X0425800Y0161020D02*
X0436400Y0161020D01*
X0436400Y0160421D02*
X0425800Y0160421D01*
X0425800Y0159823D02*
X0436400Y0159823D01*
X0436400Y0159224D02*
X0425800Y0159224D01*
X0425800Y0158626D02*
X0436477Y0158626D01*
X0436934Y0158027D02*
X0425714Y0158027D01*
X0422400Y0163486D02*
X0414000Y0163486D01*
X0337500Y0086986D01*
X0329700Y0086986D01*
X0313800Y0071086D01*
X0284100Y0071086D01*
X0283200Y0073486D02*
X0275700Y0065986D01*
X0283200Y0073486D02*
X0283200Y0100786D01*
X0289200Y0106786D01*
X0289200Y0122986D01*
X0291600Y0119986D02*
X0291600Y0131686D01*
X0290100Y0136786D02*
X0287400Y0136786D01*
X0283050Y0141136D01*
X0283200Y0141286D01*
X0283200Y0143086D01*
X0280200Y0146086D01*
X0276000Y0146086D01*
X0279600Y0148486D02*
X0246600Y0148486D01*
X0234900Y0160186D01*
X0170400Y0160186D01*
X0152100Y0141886D01*
X0148800Y0142486D02*
X0148800Y0140986D01*
X0159000Y0130786D01*
X0159600Y0128386D02*
X0126000Y0161986D01*
X0126000Y0162886D01*
X0157500Y0143686D02*
X0164100Y0143686D01*
X0193668Y0128700D02*
X0194232Y0128700D01*
X0191555Y0119722D02*
X0175350Y0119722D01*
X0174820Y0119124D02*
X0190956Y0119124D01*
X0199964Y0120919D02*
X0214800Y0120919D01*
X0214800Y0120321D02*
X0200562Y0120321D01*
X0201000Y0119722D02*
X0214800Y0119722D01*
X0214800Y0119124D02*
X0201000Y0119124D01*
X0191550Y0104161D02*
X0165122Y0104161D01*
X0165720Y0103563D02*
X0182538Y0103563D01*
X0182229Y0102964D02*
X0166319Y0102964D01*
X0166917Y0102366D02*
X0182200Y0102366D01*
X0182200Y0101767D02*
X0167516Y0101767D01*
X0168114Y0101168D02*
X0182200Y0101168D01*
X0182200Y0100570D02*
X0168713Y0100570D01*
X0188200Y0100570D02*
X0188800Y0100570D01*
X0188800Y0101168D02*
X0188200Y0101168D01*
X0188200Y0101767D02*
X0188800Y0101767D01*
X0188800Y0102366D02*
X0188200Y0102366D01*
X0188200Y0102964D02*
X0188800Y0102964D01*
X0188800Y0103563D02*
X0188200Y0103563D01*
X0188200Y0098774D02*
X0188800Y0098774D01*
X0188800Y0098176D02*
X0188200Y0098176D01*
X0188200Y0097577D02*
X0188800Y0097577D01*
X0188800Y0096979D02*
X0188200Y0096979D01*
X0194593Y0096979D02*
X0208534Y0096979D01*
X0208200Y0097577D02*
X0194800Y0097577D01*
X0194800Y0098176D02*
X0208200Y0098176D01*
X0208200Y0098774D02*
X0194800Y0098774D01*
X0189100Y0082386D02*
X0189300Y0082186D01*
X0205500Y0082186D01*
X0217500Y0070186D01*
X0218347Y0068849D02*
X0210300Y0068849D01*
X0210300Y0068250D02*
X0217975Y0068250D01*
X0217723Y0067652D02*
X0210331Y0067652D01*
X0210930Y0067053D02*
X0217568Y0067053D01*
X0217500Y0066455D02*
X0211528Y0066455D01*
X0212127Y0065856D02*
X0217500Y0065856D01*
X0217500Y0065258D02*
X0212725Y0065258D01*
X0213324Y0064659D02*
X0217500Y0064659D01*
X0217500Y0064061D02*
X0213922Y0064061D01*
X0214521Y0063462D02*
X0221500Y0063462D01*
X0222100Y0063462D02*
X0227900Y0063462D01*
X0227900Y0062864D02*
X0226100Y0062864D01*
X0226100Y0062986D02*
X0222100Y0062986D01*
X0222100Y0063586D01*
X0226100Y0063586D01*
X0226100Y0066624D01*
X0225994Y0067293D01*
X0225785Y0067936D01*
X0225478Y0068540D01*
X0225153Y0068986D01*
X0228985Y0068986D01*
X0228494Y0068495D01*
X0227900Y0067062D01*
X0227900Y0059510D01*
X0228494Y0058077D01*
X0228985Y0057586D01*
X0225153Y0057586D01*
X0225478Y0058032D01*
X0225785Y0058635D01*
X0225994Y0059279D01*
X0226100Y0059947D01*
X0226100Y0062986D01*
X0226100Y0062265D02*
X0227900Y0062265D01*
X0227900Y0061667D02*
X0226100Y0061667D01*
X0226100Y0061068D02*
X0227900Y0061068D01*
X0227900Y0060470D02*
X0226100Y0060470D01*
X0226088Y0059871D02*
X0227900Y0059871D01*
X0227998Y0059273D02*
X0225992Y0059273D01*
X0225798Y0058674D02*
X0228246Y0058674D01*
X0228495Y0058076D02*
X0225500Y0058076D01*
X0217500Y0061068D02*
X0216915Y0061068D01*
X0217500Y0061667D02*
X0216316Y0061667D01*
X0215718Y0062265D02*
X0217500Y0062265D01*
X0217500Y0062864D02*
X0215119Y0062864D01*
X0206700Y0069286D02*
X0180300Y0069286D01*
X0177900Y0071686D01*
X0152100Y0071686D01*
X0205500Y0055186D02*
X0303000Y0055186D01*
X0333600Y0085786D01*
X0340500Y0085786D01*
X0384900Y0130186D01*
X0387214Y0127503D02*
X0396720Y0127503D01*
X0396122Y0126904D02*
X0386616Y0126904D01*
X0386017Y0126306D02*
X0395523Y0126306D01*
X0394925Y0125707D02*
X0385419Y0125707D01*
X0384820Y0125109D02*
X0394326Y0125109D01*
X0393728Y0124510D02*
X0384222Y0124510D01*
X0383623Y0123912D02*
X0393129Y0123912D01*
X0392531Y0123313D02*
X0383025Y0123313D01*
X0382426Y0122715D02*
X0391932Y0122715D01*
X0391334Y0122116D02*
X0381828Y0122116D01*
X0381229Y0121518D02*
X0390735Y0121518D01*
X0390136Y0120919D02*
X0380631Y0120919D01*
X0380032Y0120321D02*
X0389538Y0120321D01*
X0388939Y0119722D02*
X0379434Y0119722D01*
X0378835Y0119124D02*
X0388341Y0119124D01*
X0387742Y0118525D02*
X0378237Y0118525D01*
X0377638Y0117927D02*
X0387144Y0117927D01*
X0386545Y0117328D02*
X0377039Y0117328D01*
X0376441Y0116730D02*
X0385947Y0116730D01*
X0385348Y0116131D02*
X0375842Y0116131D01*
X0375244Y0115533D02*
X0384750Y0115533D01*
X0384151Y0114934D02*
X0374645Y0114934D01*
X0375132Y0114336D02*
X0383553Y0114336D01*
X0382954Y0113737D02*
X0375731Y0113737D01*
X0372359Y0110745D02*
X0370456Y0110745D01*
X0371054Y0111343D02*
X0371761Y0111343D01*
X0369857Y0110146D02*
X0401139Y0110146D01*
X0400541Y0109548D02*
X0369259Y0109548D01*
X0368660Y0108949D02*
X0399942Y0108949D01*
X0399343Y0108351D02*
X0368062Y0108351D01*
X0367463Y0107752D02*
X0398745Y0107752D01*
X0398146Y0107154D02*
X0366865Y0107154D01*
X0366266Y0106555D02*
X0397548Y0106555D01*
X0396949Y0105957D02*
X0365668Y0105957D01*
X0365069Y0105358D02*
X0396351Y0105358D01*
X0395752Y0104760D02*
X0364471Y0104760D01*
X0363872Y0104161D02*
X0395154Y0104161D01*
X0394555Y0103563D02*
X0363274Y0103563D01*
X0362675Y0102964D02*
X0393957Y0102964D01*
X0393358Y0102366D02*
X0362077Y0102366D01*
X0361478Y0101767D02*
X0392760Y0101767D01*
X0392161Y0101168D02*
X0360880Y0101168D01*
X0360281Y0100570D02*
X0391563Y0100570D01*
X0390964Y0099971D02*
X0359683Y0099971D01*
X0359084Y0099373D02*
X0390366Y0099373D01*
X0389767Y0098774D02*
X0358486Y0098774D01*
X0357887Y0098176D02*
X0389169Y0098176D01*
X0388570Y0097577D02*
X0357289Y0097577D01*
X0356690Y0096979D02*
X0387972Y0096979D01*
X0387373Y0096380D02*
X0356092Y0096380D01*
X0355493Y0095782D02*
X0386775Y0095782D01*
X0386176Y0095183D02*
X0354895Y0095183D01*
X0354296Y0094585D02*
X0385578Y0094585D01*
X0384979Y0093986D02*
X0353698Y0093986D01*
X0353099Y0093388D02*
X0384381Y0093388D01*
X0383782Y0092789D02*
X0352501Y0092789D01*
X0351902Y0092191D02*
X0383184Y0092191D01*
X0382585Y0091592D02*
X0351304Y0091592D01*
X0350705Y0090994D02*
X0381987Y0090994D01*
X0381388Y0090395D02*
X0350106Y0090395D01*
X0349508Y0089797D02*
X0380790Y0089797D01*
X0380191Y0089198D02*
X0358887Y0089198D01*
X0360332Y0088600D02*
X0379593Y0088600D01*
X0378994Y0088001D02*
X0361323Y0088001D01*
X0361921Y0087403D02*
X0378396Y0087403D01*
X0377797Y0086804D02*
X0362520Y0086804D01*
X0363118Y0086206D02*
X0377199Y0086206D01*
X0376600Y0085607D02*
X0363494Y0085607D01*
X0363742Y0085009D02*
X0376002Y0085009D01*
X0375403Y0084410D02*
X0363990Y0084410D01*
X0364238Y0083812D02*
X0374805Y0083812D01*
X0374206Y0083213D02*
X0364486Y0083213D01*
X0364600Y0082615D02*
X0373607Y0082615D01*
X0373009Y0082016D02*
X0364600Y0082016D01*
X0364600Y0081418D02*
X0372410Y0081418D01*
X0371812Y0080819D02*
X0364600Y0080819D01*
X0364600Y0080221D02*
X0371213Y0080221D01*
X0370615Y0079622D02*
X0364595Y0079622D01*
X0364347Y0079024D02*
X0370016Y0079024D01*
X0369418Y0078425D02*
X0364099Y0078425D01*
X0363851Y0077827D02*
X0368819Y0077827D01*
X0368221Y0077228D02*
X0363603Y0077228D01*
X0363355Y0076630D02*
X0367622Y0076630D01*
X0367024Y0076031D02*
X0362783Y0076031D01*
X0362185Y0075432D02*
X0366425Y0075432D01*
X0365827Y0074834D02*
X0361586Y0074834D01*
X0360968Y0074235D02*
X0365228Y0074235D01*
X0364630Y0073637D02*
X0359523Y0073637D01*
X0358078Y0073038D02*
X0364031Y0073038D01*
X0363433Y0072440D02*
X0334551Y0072440D01*
X0333953Y0071841D02*
X0360874Y0071841D01*
X0360275Y0071243D02*
X0333354Y0071243D01*
X0332756Y0070644D02*
X0359850Y0070644D01*
X0359850Y0070046D02*
X0332157Y0070046D01*
X0331559Y0069447D02*
X0359850Y0069447D01*
X0359955Y0068849D02*
X0330960Y0068849D01*
X0330362Y0068250D02*
X0360553Y0068250D01*
X0361152Y0067652D02*
X0329763Y0067652D01*
X0329165Y0067053D02*
X0360870Y0067053D01*
X0360272Y0066455D02*
X0328566Y0066455D01*
X0327968Y0065856D02*
X0359673Y0065856D01*
X0359075Y0065258D02*
X0327369Y0065258D01*
X0326770Y0064659D02*
X0358476Y0064659D01*
X0357878Y0064061D02*
X0326172Y0064061D01*
X0325573Y0063462D02*
X0357279Y0063462D01*
X0356681Y0062864D02*
X0324975Y0062864D01*
X0324376Y0062265D02*
X0356082Y0062265D01*
X0355484Y0061667D02*
X0323778Y0061667D01*
X0323179Y0061068D02*
X0354885Y0061068D01*
X0356400Y0058486D02*
X0348600Y0058486D01*
X0326400Y0036286D01*
X0313200Y0052786D02*
X0339300Y0078886D01*
X0344400Y0078886D01*
X0348000Y0082486D01*
X0348000Y0089986D01*
X0417000Y0158986D01*
X0417000Y0161086D01*
X0418320Y0159224D02*
X0419000Y0159224D01*
X0419000Y0158626D02*
X0418200Y0158626D01*
X0417738Y0158027D02*
X0419086Y0158027D01*
X0419000Y0159823D02*
X0418919Y0159823D01*
X0412226Y0165209D02*
X0402845Y0165209D01*
X0402900Y0165264D02*
X0407721Y0170086D01*
X0417103Y0170086D01*
X0381403Y0134386D01*
X0378182Y0134386D01*
X0378450Y0134654D01*
X0378450Y0136518D01*
X0377132Y0137836D01*
X0375268Y0137836D01*
X0374218Y0136786D01*
X0349697Y0136786D01*
X0333600Y0152883D01*
X0332897Y0153586D01*
X0313982Y0153586D01*
X0313832Y0153736D01*
X0313547Y0153736D01*
X0316800Y0156989D01*
X0316800Y0160604D01*
X0317850Y0161654D01*
X0317850Y0163518D01*
X0316532Y0164836D01*
X0316071Y0164836D01*
X0318021Y0166786D01*
X0367318Y0166786D01*
X0367050Y0166518D01*
X0367050Y0164654D01*
X0368368Y0163336D01*
X0370232Y0163336D01*
X0371550Y0164654D01*
X0371550Y0165715D01*
X0380400Y0174565D01*
X0390579Y0164386D01*
X0402021Y0164386D01*
X0402900Y0165264D01*
X0403443Y0165808D02*
X0412825Y0165808D01*
X0413423Y0166406D02*
X0404042Y0166406D01*
X0404640Y0167005D02*
X0414022Y0167005D01*
X0414620Y0167603D02*
X0405239Y0167603D01*
X0405837Y0168202D02*
X0415219Y0168202D01*
X0415817Y0168800D02*
X0406436Y0168800D01*
X0407034Y0169399D02*
X0416416Y0169399D01*
X0417014Y0169997D02*
X0407633Y0169997D01*
X0401700Y0168586D02*
X0392400Y0168586D01*
X0389157Y0165808D02*
X0371643Y0165808D01*
X0371550Y0165209D02*
X0389755Y0165209D01*
X0390354Y0164611D02*
X0371507Y0164611D01*
X0370908Y0164012D02*
X0411029Y0164012D01*
X0410431Y0163414D02*
X0370310Y0163414D01*
X0368290Y0163414D02*
X0317850Y0163414D01*
X0317850Y0162815D02*
X0409832Y0162815D01*
X0409234Y0162217D02*
X0317850Y0162217D01*
X0317814Y0161618D02*
X0408635Y0161618D01*
X0408037Y0161020D02*
X0317216Y0161020D01*
X0316800Y0160421D02*
X0407438Y0160421D01*
X0406840Y0159823D02*
X0316800Y0159823D01*
X0316800Y0159224D02*
X0406241Y0159224D01*
X0405643Y0158626D02*
X0316800Y0158626D01*
X0316800Y0158027D02*
X0405044Y0158027D01*
X0404446Y0157429D02*
X0316800Y0157429D01*
X0316641Y0156830D02*
X0403847Y0156830D01*
X0403249Y0156232D02*
X0316043Y0156232D01*
X0315444Y0155633D02*
X0402650Y0155633D01*
X0402052Y0155034D02*
X0314846Y0155034D01*
X0314247Y0154436D02*
X0401453Y0154436D01*
X0400855Y0153837D02*
X0313649Y0153837D01*
X0313800Y0152386D02*
X0312900Y0151486D01*
X0313800Y0152386D02*
X0332400Y0152386D01*
X0349200Y0135586D01*
X0376200Y0135586D01*
X0377889Y0137079D02*
X0384096Y0137079D01*
X0383498Y0136481D02*
X0378450Y0136481D01*
X0378450Y0135882D02*
X0382899Y0135882D01*
X0382301Y0135284D02*
X0378450Y0135284D01*
X0378450Y0134685D02*
X0381702Y0134685D01*
X0381900Y0133186D02*
X0418800Y0170086D01*
X0443100Y0170086D01*
X0443700Y0169486D01*
X0443700Y0158686D01*
X0429600Y0144586D01*
X0431768Y0148451D02*
X0422850Y0148451D01*
X0422850Y0149049D02*
X0432367Y0149049D01*
X0432965Y0149648D02*
X0422320Y0149648D01*
X0413478Y0144261D02*
X0403973Y0144261D01*
X0403374Y0143663D02*
X0412880Y0143663D01*
X0412281Y0143064D02*
X0402775Y0143064D01*
X0402177Y0142466D02*
X0411683Y0142466D01*
X0411084Y0141867D02*
X0401578Y0141867D01*
X0400980Y0141269D02*
X0410486Y0141269D01*
X0409887Y0140670D02*
X0400381Y0140670D01*
X0399783Y0140072D02*
X0409289Y0140072D01*
X0408690Y0139473D02*
X0399184Y0139473D01*
X0398586Y0138875D02*
X0408092Y0138875D01*
X0407493Y0138276D02*
X0397987Y0138276D01*
X0397389Y0137678D02*
X0406895Y0137678D01*
X0406296Y0137079D02*
X0396790Y0137079D01*
X0396192Y0136481D02*
X0405698Y0136481D01*
X0405099Y0135882D02*
X0395593Y0135882D01*
X0394995Y0135284D02*
X0404501Y0135284D01*
X0403902Y0134685D02*
X0394396Y0134685D01*
X0393798Y0134087D02*
X0403304Y0134087D01*
X0402705Y0133488D02*
X0393199Y0133488D01*
X0392601Y0132890D02*
X0402107Y0132890D01*
X0401508Y0132291D02*
X0392002Y0132291D01*
X0391404Y0131693D02*
X0400910Y0131693D01*
X0400311Y0131094D02*
X0390805Y0131094D01*
X0390207Y0130496D02*
X0399713Y0130496D01*
X0399114Y0129897D02*
X0389608Y0129897D01*
X0389010Y0129299D02*
X0398516Y0129299D01*
X0397917Y0128700D02*
X0388411Y0128700D01*
X0387813Y0128101D02*
X0397319Y0128101D01*
X0406650Y0122116D02*
X0413109Y0122116D01*
X0412511Y0121518D02*
X0406650Y0121518D01*
X0406650Y0120919D02*
X0411912Y0120919D01*
X0411314Y0120321D02*
X0406117Y0120321D01*
X0414797Y0113386D02*
X0426797Y0125386D01*
X0432418Y0125386D01*
X0433468Y0124336D01*
X0435332Y0124336D01*
X0436650Y0125654D01*
X0436650Y0127518D01*
X0435332Y0128836D01*
X0433468Y0128836D01*
X0432418Y0127786D01*
X0427397Y0127786D01*
X0430997Y0131386D01*
X0443597Y0131386D01*
X0479897Y0167686D01*
X0480600Y0168389D01*
X0480600Y0256383D01*
X0477300Y0259683D01*
X0476597Y0260386D01*
X0460903Y0260386D01*
X0453650Y0253133D01*
X0453650Y0255919D01*
X0450633Y0258936D01*
X0446367Y0258936D01*
X0443350Y0255919D01*
X0443350Y0251653D01*
X0446367Y0248636D01*
X0449153Y0248636D01*
X0432103Y0231586D01*
X0425800Y0231586D01*
X0425800Y0233859D01*
X0425273Y0234386D01*
X0419527Y0234386D01*
X0419000Y0233859D01*
X0419000Y0223113D01*
X0419527Y0222586D01*
X0425273Y0222586D01*
X0425800Y0223113D01*
X0425800Y0229186D01*
X0433097Y0229186D01*
X0433800Y0229889D01*
X0436400Y0232489D01*
X0436400Y0229386D01*
X0439900Y0229386D01*
X0439900Y0235386D01*
X0439297Y0235386D01*
X0461897Y0257986D01*
X0471017Y0257986D01*
X0468950Y0255919D01*
X0468950Y0251653D01*
X0469348Y0251255D01*
X0466500Y0248407D01*
X0466500Y0199668D01*
X0465750Y0198918D01*
X0465750Y0197054D01*
X0466200Y0196604D01*
X0466200Y0180907D01*
X0444900Y0159607D01*
X0444900Y0162104D01*
X0445168Y0161836D01*
X0447032Y0161836D01*
X0448350Y0163154D01*
X0448350Y0165018D01*
X0447032Y0166336D01*
X0446400Y0166336D01*
X0446400Y0169904D01*
X0447450Y0170954D01*
X0447450Y0172818D01*
X0446132Y0174136D01*
X0444268Y0174136D01*
X0442950Y0172818D01*
X0442950Y0171286D01*
X0422721Y0171286D01*
X0431721Y0180286D01*
X0442318Y0180286D01*
X0443068Y0179536D01*
X0444932Y0179536D01*
X0446250Y0180854D01*
X0446250Y0182718D01*
X0444932Y0184036D01*
X0443068Y0184036D01*
X0442318Y0183286D01*
X0430479Y0183286D01*
X0429450Y0182257D01*
X0429450Y0182718D01*
X0428132Y0184036D01*
X0426268Y0184036D01*
X0426070Y0183837D01*
X0410700Y0199207D01*
X0409821Y0200086D01*
X0397982Y0200086D01*
X0397232Y0200836D01*
X0395368Y0200836D01*
X0394050Y0199518D01*
X0394050Y0197654D01*
X0394118Y0197586D01*
X0394100Y0197586D01*
X0394100Y0194086D01*
X0393500Y0194086D01*
X0393500Y0197586D01*
X0392226Y0197586D01*
X0391500Y0196860D01*
X0391500Y0216483D01*
X0390797Y0217186D01*
X0383897Y0224086D01*
X0380897Y0224086D01*
X0379197Y0225786D01*
X0380000Y0225786D01*
X0380000Y0232986D01*
X0380600Y0232986D01*
X0380600Y0233586D01*
X0380000Y0233586D01*
X0380000Y0240786D01*
X0379297Y0240786D01*
X0384300Y0245789D01*
X0384300Y0251204D01*
X0385350Y0252254D01*
X0385350Y0254118D01*
X0384032Y0255436D01*
X0382168Y0255436D01*
X0380850Y0254118D01*
X0380850Y0252254D01*
X0381900Y0251204D01*
X0381900Y0246783D01*
X0372703Y0237586D01*
X0372000Y0236883D01*
X0372000Y0229589D01*
X0378703Y0222886D01*
X0377359Y0222886D01*
X0373200Y0218727D01*
X0373200Y0212845D01*
X0377359Y0208686D01*
X0383241Y0208686D01*
X0387400Y0212845D01*
X0387400Y0217189D01*
X0389100Y0215489D01*
X0389100Y0200794D01*
X0387708Y0202186D01*
X0384892Y0202186D01*
X0382900Y0200194D01*
X0382900Y0197377D01*
X0384600Y0195677D01*
X0384600Y0194707D01*
X0371900Y0182007D01*
X0371900Y0279186D01*
X0467175Y0279186D01*
X0470422Y0278925D01*
X0476843Y0277508D01*
X0482900Y0274948D01*
X0488391Y0271330D01*
X0493133Y0266774D01*
X0496968Y0261433D01*
X0499769Y0255484D01*
X0501442Y0249124D01*
X0501932Y0242567D01*
X0501762Y0239852D01*
X0501700Y0239701D01*
X0501700Y0239035D01*
X0501628Y0238373D01*
X0501700Y0238127D01*
X0501700Y0056328D01*
X0501613Y0055965D01*
X0501700Y0055421D01*
X0501700Y0054871D01*
X0501808Y0054611D01*
X0502074Y0052218D01*
X0501899Y0046505D01*
X0500656Y0040926D01*
X0498388Y0035680D01*
X0495176Y0030952D01*
X0491134Y0026910D01*
X0486406Y0023698D01*
X0481160Y0021430D01*
X0475581Y0020187D01*
X0469868Y0020012D01*
X0467475Y0020278D01*
X0467215Y0020386D01*
X0466664Y0020386D01*
X0466121Y0020473D01*
X0465758Y0020386D01*
X0405900Y0020386D01*
X0405900Y0034889D01*
X0412903Y0027886D01*
X0482897Y0027886D01*
X0483600Y0028589D01*
X0486300Y0031289D01*
X0486300Y0049261D01*
X0488298Y0049261D01*
X0488825Y0049788D01*
X0488825Y0055784D01*
X0488298Y0056311D01*
X0484900Y0056311D01*
X0484900Y0089261D01*
X0488298Y0089261D01*
X0488825Y0089788D01*
X0488825Y0095784D01*
X0488298Y0096311D01*
X0484900Y0096311D01*
X0484900Y0109701D01*
X0484200Y0111392D01*
X0482906Y0112686D01*
X0481215Y0113386D01*
X0414797Y0113386D01*
X0415148Y0113737D02*
X0501700Y0113737D01*
X0501700Y0113139D02*
X0481812Y0113139D01*
X0483051Y0112540D02*
X0501700Y0112540D01*
X0501700Y0111942D02*
X0483650Y0111942D01*
X0484220Y0111343D02*
X0501700Y0111343D01*
X0501700Y0110745D02*
X0484468Y0110745D01*
X0484716Y0110146D02*
X0501700Y0110146D01*
X0501700Y0109548D02*
X0484900Y0109548D01*
X0484900Y0108949D02*
X0501700Y0108949D01*
X0501700Y0108351D02*
X0484900Y0108351D01*
X0484900Y0107752D02*
X0501700Y0107752D01*
X0501700Y0107154D02*
X0484900Y0107154D01*
X0484900Y0106555D02*
X0501700Y0106555D01*
X0501700Y0105957D02*
X0484900Y0105957D01*
X0484900Y0105358D02*
X0501700Y0105358D01*
X0501700Y0104760D02*
X0484900Y0104760D01*
X0484900Y0104161D02*
X0501700Y0104161D01*
X0501700Y0103563D02*
X0484900Y0103563D01*
X0484900Y0102964D02*
X0501700Y0102964D01*
X0501700Y0102366D02*
X0484900Y0102366D01*
X0484900Y0101767D02*
X0501700Y0101767D01*
X0501700Y0101168D02*
X0484900Y0101168D01*
X0484900Y0100570D02*
X0501700Y0100570D01*
X0501700Y0099971D02*
X0484900Y0099971D01*
X0484900Y0099373D02*
X0501700Y0099373D01*
X0501700Y0098774D02*
X0484900Y0098774D01*
X0484900Y0098176D02*
X0501700Y0098176D01*
X0501700Y0097577D02*
X0484900Y0097577D01*
X0484900Y0096979D02*
X0501700Y0096979D01*
X0501700Y0096380D02*
X0484900Y0096380D01*
X0488825Y0095782D02*
X0501700Y0095782D01*
X0501700Y0095183D02*
X0488825Y0095183D01*
X0488825Y0094585D02*
X0501700Y0094585D01*
X0501700Y0093986D02*
X0488825Y0093986D01*
X0488825Y0093388D02*
X0501700Y0093388D01*
X0501700Y0092789D02*
X0488825Y0092789D01*
X0488825Y0092191D02*
X0501700Y0092191D01*
X0501700Y0091592D02*
X0488825Y0091592D01*
X0488825Y0090994D02*
X0501700Y0090994D01*
X0501700Y0090395D02*
X0488825Y0090395D01*
X0488825Y0089797D02*
X0501700Y0089797D01*
X0501700Y0089198D02*
X0484900Y0089198D01*
X0484900Y0088600D02*
X0501700Y0088600D01*
X0501700Y0088001D02*
X0484900Y0088001D01*
X0484900Y0087403D02*
X0501700Y0087403D01*
X0501700Y0086804D02*
X0484900Y0086804D01*
X0484900Y0086206D02*
X0501700Y0086206D01*
X0501700Y0085607D02*
X0484900Y0085607D01*
X0484900Y0085009D02*
X0501700Y0085009D01*
X0501700Y0084410D02*
X0484900Y0084410D01*
X0484900Y0083812D02*
X0501700Y0083812D01*
X0501700Y0083213D02*
X0484900Y0083213D01*
X0484900Y0082615D02*
X0501700Y0082615D01*
X0501700Y0082016D02*
X0484900Y0082016D01*
X0484900Y0081418D02*
X0501700Y0081418D01*
X0501700Y0080819D02*
X0484900Y0080819D01*
X0484900Y0080221D02*
X0501700Y0080221D01*
X0501700Y0079622D02*
X0484900Y0079622D01*
X0484900Y0079024D02*
X0501700Y0079024D01*
X0501700Y0078425D02*
X0484900Y0078425D01*
X0484900Y0077827D02*
X0501700Y0077827D01*
X0501700Y0077228D02*
X0484900Y0077228D01*
X0484900Y0076630D02*
X0501700Y0076630D01*
X0501700Y0076031D02*
X0484900Y0076031D01*
X0484900Y0075432D02*
X0501700Y0075432D01*
X0501700Y0074834D02*
X0484900Y0074834D01*
X0484900Y0074235D02*
X0501700Y0074235D01*
X0501700Y0073637D02*
X0484900Y0073637D01*
X0484900Y0073038D02*
X0501700Y0073038D01*
X0501700Y0072440D02*
X0484900Y0072440D01*
X0484900Y0071841D02*
X0501700Y0071841D01*
X0501700Y0071243D02*
X0484900Y0071243D01*
X0484900Y0070644D02*
X0501700Y0070644D01*
X0501700Y0070046D02*
X0484900Y0070046D01*
X0484900Y0069447D02*
X0501700Y0069447D01*
X0501700Y0068849D02*
X0484900Y0068849D01*
X0484900Y0068250D02*
X0501700Y0068250D01*
X0501700Y0067652D02*
X0484900Y0067652D01*
X0484900Y0067053D02*
X0501700Y0067053D01*
X0501700Y0066455D02*
X0484900Y0066455D01*
X0484900Y0065856D02*
X0501700Y0065856D01*
X0501700Y0065258D02*
X0484900Y0065258D01*
X0484900Y0064659D02*
X0501700Y0064659D01*
X0501700Y0064061D02*
X0484900Y0064061D01*
X0484900Y0063462D02*
X0501700Y0063462D01*
X0501700Y0062864D02*
X0484900Y0062864D01*
X0484900Y0062265D02*
X0501700Y0062265D01*
X0501700Y0061667D02*
X0484900Y0061667D01*
X0484900Y0061068D02*
X0501700Y0061068D01*
X0501700Y0060470D02*
X0484900Y0060470D01*
X0484900Y0059871D02*
X0501700Y0059871D01*
X0501700Y0059273D02*
X0484900Y0059273D01*
X0484900Y0058674D02*
X0501700Y0058674D01*
X0501700Y0058076D02*
X0484900Y0058076D01*
X0484900Y0057477D02*
X0501700Y0057477D01*
X0501700Y0056879D02*
X0484900Y0056879D01*
X0488328Y0056280D02*
X0501689Y0056280D01*
X0501659Y0055682D02*
X0488825Y0055682D01*
X0488825Y0055083D02*
X0501700Y0055083D01*
X0501822Y0054485D02*
X0488825Y0054485D01*
X0488825Y0053886D02*
X0501888Y0053886D01*
X0501955Y0053288D02*
X0488825Y0053288D01*
X0488825Y0052689D02*
X0502022Y0052689D01*
X0502070Y0052091D02*
X0488825Y0052091D01*
X0488825Y0051492D02*
X0502052Y0051492D01*
X0502034Y0050894D02*
X0488825Y0050894D01*
X0488825Y0050295D02*
X0502015Y0050295D01*
X0501997Y0049697D02*
X0488733Y0049697D01*
X0486300Y0049098D02*
X0501979Y0049098D01*
X0501960Y0048499D02*
X0486300Y0048499D01*
X0486300Y0047901D02*
X0501942Y0047901D01*
X0501924Y0047302D02*
X0486300Y0047302D01*
X0486300Y0046704D02*
X0501905Y0046704D01*
X0501810Y0046105D02*
X0486300Y0046105D01*
X0486300Y0045507D02*
X0501677Y0045507D01*
X0501543Y0044908D02*
X0486300Y0044908D01*
X0486300Y0044310D02*
X0501410Y0044310D01*
X0501276Y0043711D02*
X0486300Y0043711D01*
X0486300Y0043113D02*
X0501143Y0043113D01*
X0501010Y0042514D02*
X0486300Y0042514D01*
X0486300Y0041916D02*
X0500876Y0041916D01*
X0500743Y0041317D02*
X0486300Y0041317D01*
X0486300Y0040719D02*
X0500566Y0040719D01*
X0500307Y0040120D02*
X0486300Y0040120D01*
X0486300Y0039522D02*
X0500049Y0039522D01*
X0499790Y0038923D02*
X0486300Y0038923D01*
X0486300Y0038325D02*
X0499531Y0038325D01*
X0499272Y0037726D02*
X0486300Y0037726D01*
X0486300Y0037128D02*
X0499014Y0037128D01*
X0498755Y0036529D02*
X0486300Y0036529D01*
X0486300Y0035931D02*
X0498496Y0035931D01*
X0498152Y0035332D02*
X0486300Y0035332D01*
X0486300Y0034734D02*
X0497745Y0034734D01*
X0497339Y0034135D02*
X0486300Y0034135D01*
X0486300Y0033537D02*
X0496932Y0033537D01*
X0496526Y0032938D02*
X0486300Y0032938D01*
X0486300Y0032340D02*
X0496119Y0032340D01*
X0495712Y0031741D02*
X0486300Y0031741D01*
X0486154Y0031143D02*
X0495306Y0031143D01*
X0494769Y0030544D02*
X0485555Y0030544D01*
X0484957Y0029946D02*
X0494170Y0029946D01*
X0493572Y0029347D02*
X0484358Y0029347D01*
X0483760Y0028749D02*
X0492973Y0028749D01*
X0492375Y0028150D02*
X0483161Y0028150D01*
X0482400Y0029086D02*
X0413400Y0029086D01*
X0405900Y0036586D01*
X0405900Y0061486D01*
X0410100Y0052786D02*
X0410300Y0052786D01*
X0410100Y0052786D02*
X0410100Y0086386D01*
X0406500Y0089986D01*
X0406500Y0106786D01*
X0426300Y0126586D01*
X0434400Y0126586D01*
X0436066Y0128101D02*
X0501700Y0128101D01*
X0501700Y0127503D02*
X0436650Y0127503D01*
X0436650Y0126904D02*
X0501700Y0126904D01*
X0501700Y0126306D02*
X0436650Y0126306D01*
X0436650Y0125707D02*
X0501700Y0125707D01*
X0501700Y0125109D02*
X0436105Y0125109D01*
X0435507Y0124510D02*
X0501700Y0124510D01*
X0501700Y0123912D02*
X0425323Y0123912D01*
X0424725Y0123313D02*
X0501700Y0123313D01*
X0501700Y0122715D02*
X0424126Y0122715D01*
X0423528Y0122116D02*
X0501700Y0122116D01*
X0501700Y0121518D02*
X0422929Y0121518D01*
X0422331Y0120919D02*
X0501700Y0120919D01*
X0501700Y0120321D02*
X0421732Y0120321D01*
X0421134Y0119722D02*
X0501700Y0119722D01*
X0501700Y0119124D02*
X0420535Y0119124D01*
X0419937Y0118525D02*
X0501700Y0118525D01*
X0501700Y0117927D02*
X0419338Y0117927D01*
X0418739Y0117328D02*
X0501700Y0117328D01*
X0501700Y0116730D02*
X0418141Y0116730D01*
X0417542Y0116131D02*
X0501700Y0116131D01*
X0501700Y0115533D02*
X0416944Y0115533D01*
X0416345Y0114934D02*
X0501700Y0114934D01*
X0501700Y0114336D02*
X0415747Y0114336D01*
X0425922Y0124510D02*
X0433293Y0124510D01*
X0432695Y0125109D02*
X0426520Y0125109D01*
X0427713Y0128101D02*
X0432734Y0128101D01*
X0433332Y0128700D02*
X0428311Y0128700D01*
X0428910Y0129299D02*
X0501700Y0129299D01*
X0501700Y0129897D02*
X0429508Y0129897D01*
X0430107Y0130496D02*
X0501700Y0130496D01*
X0501700Y0131094D02*
X0430705Y0131094D01*
X0430500Y0132586D02*
X0443100Y0132586D01*
X0479400Y0168886D01*
X0479400Y0255886D01*
X0476100Y0259186D01*
X0461400Y0259186D01*
X0432600Y0230386D01*
X0424200Y0230386D01*
X0422400Y0228586D01*
X0422400Y0228486D01*
X0425800Y0228651D02*
X0436400Y0228651D01*
X0436400Y0228786D02*
X0436400Y0223915D01*
X0436489Y0223584D01*
X0436660Y0223288D01*
X0436902Y0223046D01*
X0437198Y0222874D01*
X0437529Y0222786D01*
X0439900Y0222786D01*
X0439900Y0228786D01*
X0436400Y0228786D01*
X0436400Y0228053D02*
X0425800Y0228053D01*
X0425800Y0227454D02*
X0436400Y0227454D01*
X0436400Y0226856D02*
X0425800Y0226856D01*
X0425800Y0226257D02*
X0436400Y0226257D01*
X0436400Y0225659D02*
X0425800Y0225659D01*
X0425800Y0225060D02*
X0436400Y0225060D01*
X0436400Y0224462D02*
X0425800Y0224462D01*
X0425800Y0223863D02*
X0436414Y0223863D01*
X0436683Y0223265D02*
X0425800Y0223265D01*
X0425353Y0222666D02*
X0466500Y0222666D01*
X0466500Y0222068D02*
X0385915Y0222068D01*
X0385317Y0222666D02*
X0419447Y0222666D01*
X0419000Y0223265D02*
X0384718Y0223265D01*
X0384120Y0223863D02*
X0419000Y0223863D01*
X0419000Y0224462D02*
X0380521Y0224462D01*
X0379923Y0225060D02*
X0419000Y0225060D01*
X0419000Y0225659D02*
X0379324Y0225659D01*
X0380000Y0226257D02*
X0380600Y0226257D01*
X0380600Y0225786D02*
X0383407Y0225786D01*
X0387800Y0230179D01*
X0387800Y0232986D01*
X0380600Y0232986D01*
X0380600Y0225786D01*
X0380600Y0226856D02*
X0380000Y0226856D01*
X0380000Y0227454D02*
X0380600Y0227454D01*
X0380600Y0228053D02*
X0380000Y0228053D01*
X0380000Y0228651D02*
X0380600Y0228651D01*
X0380600Y0229250D02*
X0380000Y0229250D01*
X0380000Y0229848D02*
X0380600Y0229848D01*
X0380600Y0230447D02*
X0380000Y0230447D01*
X0380000Y0231045D02*
X0380600Y0231045D01*
X0380600Y0231644D02*
X0380000Y0231644D01*
X0380000Y0232242D02*
X0380600Y0232242D01*
X0380600Y0232841D02*
X0380000Y0232841D01*
X0380600Y0233439D02*
X0419000Y0233439D01*
X0419000Y0232841D02*
X0387800Y0232841D01*
X0387800Y0232242D02*
X0419000Y0232242D01*
X0419000Y0231644D02*
X0387800Y0231644D01*
X0387800Y0231045D02*
X0419000Y0231045D01*
X0419000Y0230447D02*
X0387800Y0230447D01*
X0387469Y0229848D02*
X0419000Y0229848D01*
X0419000Y0229250D02*
X0386871Y0229250D01*
X0386272Y0228651D02*
X0419000Y0228651D01*
X0419000Y0228053D02*
X0385674Y0228053D01*
X0385075Y0227454D02*
X0419000Y0227454D01*
X0419000Y0226856D02*
X0384477Y0226856D01*
X0383878Y0226257D02*
X0419000Y0226257D01*
X0425800Y0231644D02*
X0432161Y0231644D01*
X0432760Y0232242D02*
X0425800Y0232242D01*
X0425800Y0232841D02*
X0433358Y0232841D01*
X0433957Y0233439D02*
X0425800Y0233439D01*
X0425621Y0234038D02*
X0434555Y0234038D01*
X0435154Y0234637D02*
X0413745Y0234637D01*
X0413183Y0234486D02*
X0416820Y0235460D01*
X0420080Y0237343D01*
X0422743Y0240005D01*
X0424625Y0243266D01*
X0425600Y0246903D01*
X0425600Y0250668D01*
X0424625Y0254305D01*
X0422743Y0257566D01*
X0420080Y0260229D01*
X0416820Y0262111D01*
X0413183Y0263086D01*
X0409417Y0263086D01*
X0405780Y0262111D01*
X0402520Y0260229D01*
X0399857Y0257566D01*
X0397975Y0254305D01*
X0397000Y0250668D01*
X0397000Y0246903D01*
X0397975Y0243266D01*
X0399857Y0240005D01*
X0402520Y0237343D01*
X0405780Y0235460D01*
X0409417Y0234486D01*
X0413183Y0234486D01*
X0415979Y0235235D02*
X0435752Y0235235D01*
X0436351Y0235834D02*
X0417466Y0235834D01*
X0418503Y0236432D02*
X0436949Y0236432D01*
X0437548Y0237031D02*
X0419539Y0237031D01*
X0420366Y0237629D02*
X0438146Y0237629D01*
X0438745Y0238228D02*
X0420965Y0238228D01*
X0421564Y0238826D02*
X0439343Y0238826D01*
X0439942Y0239425D02*
X0422162Y0239425D01*
X0422753Y0240023D02*
X0440540Y0240023D01*
X0441139Y0240622D02*
X0423099Y0240622D01*
X0423444Y0241220D02*
X0441737Y0241220D01*
X0442336Y0241819D02*
X0423790Y0241819D01*
X0424135Y0242417D02*
X0442934Y0242417D01*
X0443533Y0243016D02*
X0424481Y0243016D01*
X0424719Y0243614D02*
X0444131Y0243614D01*
X0444730Y0244213D02*
X0424879Y0244213D01*
X0425039Y0244811D02*
X0445328Y0244811D01*
X0445927Y0245410D02*
X0425200Y0245410D01*
X0425360Y0246008D02*
X0446525Y0246008D01*
X0447124Y0246607D02*
X0425521Y0246607D01*
X0425600Y0247205D02*
X0447722Y0247205D01*
X0448321Y0247804D02*
X0425600Y0247804D01*
X0425600Y0248402D02*
X0448919Y0248402D01*
X0450518Y0246607D02*
X0466500Y0246607D01*
X0466500Y0247205D02*
X0451116Y0247205D01*
X0451715Y0247804D02*
X0466500Y0247804D01*
X0466500Y0248402D02*
X0452313Y0248402D01*
X0452912Y0249001D02*
X0467094Y0249001D01*
X0467692Y0249599D02*
X0453510Y0249599D01*
X0454109Y0250198D02*
X0468291Y0250198D01*
X0468889Y0250796D02*
X0454708Y0250796D01*
X0455306Y0251395D02*
X0469208Y0251395D01*
X0468950Y0251993D02*
X0455905Y0251993D01*
X0456503Y0252592D02*
X0468950Y0252592D01*
X0468950Y0253190D02*
X0457102Y0253190D01*
X0457700Y0253789D02*
X0468950Y0253789D01*
X0468950Y0254387D02*
X0458299Y0254387D01*
X0458897Y0254986D02*
X0468950Y0254986D01*
X0468950Y0255584D02*
X0459496Y0255584D01*
X0460094Y0256183D02*
X0469214Y0256183D01*
X0469812Y0256781D02*
X0460693Y0256781D01*
X0461291Y0257380D02*
X0470411Y0257380D01*
X0471009Y0257978D02*
X0461890Y0257978D01*
X0460291Y0259774D02*
X0420535Y0259774D01*
X0421134Y0259175D02*
X0459693Y0259175D01*
X0459094Y0258577D02*
X0450992Y0258577D01*
X0451591Y0257978D02*
X0458496Y0257978D01*
X0457897Y0257380D02*
X0452189Y0257380D01*
X0452788Y0256781D02*
X0457299Y0256781D01*
X0456700Y0256183D02*
X0453386Y0256183D01*
X0453650Y0255584D02*
X0456102Y0255584D01*
X0455503Y0254986D02*
X0453650Y0254986D01*
X0453650Y0254387D02*
X0454905Y0254387D01*
X0454306Y0253789D02*
X0453650Y0253789D01*
X0453650Y0253190D02*
X0453707Y0253190D01*
X0446002Y0249001D02*
X0425600Y0249001D01*
X0425600Y0249599D02*
X0445403Y0249599D01*
X0444805Y0250198D02*
X0425600Y0250198D01*
X0425566Y0250796D02*
X0444206Y0250796D01*
X0443608Y0251395D02*
X0425405Y0251395D01*
X0425245Y0251993D02*
X0443350Y0251993D01*
X0443350Y0252592D02*
X0425085Y0252592D01*
X0424924Y0253190D02*
X0443350Y0253190D01*
X0443350Y0253789D02*
X0424764Y0253789D01*
X0424578Y0254387D02*
X0443350Y0254387D01*
X0443350Y0254986D02*
X0424233Y0254986D01*
X0423887Y0255584D02*
X0443350Y0255584D01*
X0443614Y0256183D02*
X0423541Y0256183D01*
X0423196Y0256781D02*
X0444212Y0256781D01*
X0444811Y0257380D02*
X0422850Y0257380D01*
X0422331Y0257978D02*
X0445409Y0257978D01*
X0446008Y0258577D02*
X0421732Y0258577D01*
X0419831Y0260372D02*
X0460890Y0260372D01*
X0476610Y0260372D02*
X0497467Y0260372D01*
X0497749Y0259774D02*
X0477209Y0259774D01*
X0477807Y0259175D02*
X0498031Y0259175D01*
X0498313Y0258577D02*
X0478406Y0258577D01*
X0479004Y0257978D02*
X0498594Y0257978D01*
X0498876Y0257380D02*
X0479603Y0257380D01*
X0480201Y0256781D02*
X0499158Y0256781D01*
X0499440Y0256183D02*
X0480600Y0256183D01*
X0480600Y0255584D02*
X0499721Y0255584D01*
X0499900Y0254986D02*
X0480600Y0254986D01*
X0480600Y0254387D02*
X0500057Y0254387D01*
X0500215Y0253789D02*
X0480600Y0253789D01*
X0480600Y0253190D02*
X0500372Y0253190D01*
X0500530Y0252592D02*
X0480600Y0252592D01*
X0480600Y0251993D02*
X0500687Y0251993D01*
X0500845Y0251395D02*
X0480600Y0251395D01*
X0480600Y0250796D02*
X0501002Y0250796D01*
X0501160Y0250198D02*
X0480600Y0250198D01*
X0480600Y0249599D02*
X0501317Y0249599D01*
X0501451Y0249001D02*
X0480600Y0249001D01*
X0480600Y0248402D02*
X0501496Y0248402D01*
X0501541Y0247804D02*
X0480600Y0247804D01*
X0480600Y0247205D02*
X0501586Y0247205D01*
X0501630Y0246607D02*
X0480600Y0246607D01*
X0480600Y0246008D02*
X0501675Y0246008D01*
X0501720Y0245410D02*
X0480600Y0245410D01*
X0480600Y0244811D02*
X0501765Y0244811D01*
X0501809Y0244213D02*
X0480600Y0244213D01*
X0480600Y0243614D02*
X0501854Y0243614D01*
X0501899Y0243016D02*
X0480600Y0243016D01*
X0480600Y0242417D02*
X0501923Y0242417D01*
X0501885Y0241819D02*
X0480600Y0241819D01*
X0480600Y0241220D02*
X0501848Y0241220D01*
X0501811Y0240622D02*
X0480600Y0240622D01*
X0480600Y0240023D02*
X0501773Y0240023D01*
X0501700Y0239425D02*
X0480600Y0239425D01*
X0480600Y0238826D02*
X0501677Y0238826D01*
X0501671Y0238228D02*
X0480600Y0238228D01*
X0480600Y0237629D02*
X0501700Y0237629D01*
X0501700Y0237031D02*
X0480600Y0237031D01*
X0480600Y0236432D02*
X0501700Y0236432D01*
X0501700Y0235834D02*
X0480600Y0235834D01*
X0480600Y0235235D02*
X0501700Y0235235D01*
X0501700Y0234637D02*
X0480600Y0234637D01*
X0480600Y0234038D02*
X0501700Y0234038D01*
X0501700Y0233439D02*
X0480600Y0233439D01*
X0480600Y0232841D02*
X0501700Y0232841D01*
X0501700Y0232242D02*
X0480600Y0232242D01*
X0480600Y0231644D02*
X0501700Y0231644D01*
X0501700Y0231045D02*
X0480600Y0231045D01*
X0480600Y0230447D02*
X0501700Y0230447D01*
X0501700Y0229848D02*
X0480600Y0229848D01*
X0480600Y0229250D02*
X0501700Y0229250D01*
X0501700Y0228651D02*
X0480600Y0228651D01*
X0480600Y0228053D02*
X0501700Y0228053D01*
X0501700Y0227454D02*
X0480600Y0227454D01*
X0480600Y0226856D02*
X0501700Y0226856D01*
X0501700Y0226257D02*
X0480600Y0226257D01*
X0480600Y0225659D02*
X0501700Y0225659D01*
X0501700Y0225060D02*
X0480600Y0225060D01*
X0480600Y0224462D02*
X0501700Y0224462D01*
X0501700Y0223863D02*
X0480600Y0223863D01*
X0480600Y0223265D02*
X0501700Y0223265D01*
X0501700Y0222666D02*
X0480600Y0222666D01*
X0480600Y0222068D02*
X0501700Y0222068D01*
X0501700Y0221469D02*
X0480600Y0221469D01*
X0480600Y0220871D02*
X0501700Y0220871D01*
X0501700Y0220272D02*
X0480600Y0220272D01*
X0480600Y0219674D02*
X0501700Y0219674D01*
X0501700Y0219075D02*
X0480600Y0219075D01*
X0480600Y0218477D02*
X0501700Y0218477D01*
X0501700Y0217878D02*
X0480600Y0217878D01*
X0480600Y0217280D02*
X0501700Y0217280D01*
X0501700Y0216681D02*
X0480600Y0216681D01*
X0480600Y0216083D02*
X0501700Y0216083D01*
X0501700Y0215484D02*
X0480600Y0215484D01*
X0480600Y0214886D02*
X0501700Y0214886D01*
X0501700Y0214287D02*
X0480600Y0214287D01*
X0480600Y0213689D02*
X0501700Y0213689D01*
X0501700Y0213090D02*
X0480600Y0213090D01*
X0480600Y0212492D02*
X0501700Y0212492D01*
X0501700Y0211893D02*
X0480600Y0211893D01*
X0480600Y0211295D02*
X0501700Y0211295D01*
X0501700Y0210696D02*
X0480600Y0210696D01*
X0480600Y0210098D02*
X0501700Y0210098D01*
X0501700Y0209499D02*
X0480600Y0209499D01*
X0480600Y0208901D02*
X0501700Y0208901D01*
X0501700Y0208302D02*
X0480600Y0208302D01*
X0480600Y0207703D02*
X0501700Y0207703D01*
X0501700Y0207105D02*
X0480600Y0207105D01*
X0480600Y0206506D02*
X0501700Y0206506D01*
X0501700Y0205908D02*
X0480600Y0205908D01*
X0480600Y0205309D02*
X0501700Y0205309D01*
X0501700Y0204711D02*
X0480600Y0204711D01*
X0480600Y0204112D02*
X0501700Y0204112D01*
X0501700Y0203514D02*
X0480600Y0203514D01*
X0480600Y0202915D02*
X0501700Y0202915D01*
X0501700Y0202317D02*
X0480600Y0202317D01*
X0480600Y0201718D02*
X0501700Y0201718D01*
X0501700Y0201120D02*
X0480600Y0201120D01*
X0480600Y0200521D02*
X0501700Y0200521D01*
X0501700Y0199923D02*
X0480600Y0199923D01*
X0480600Y0199324D02*
X0501700Y0199324D01*
X0501700Y0198726D02*
X0480600Y0198726D01*
X0480600Y0198127D02*
X0501700Y0198127D01*
X0501700Y0197529D02*
X0480600Y0197529D01*
X0480600Y0196930D02*
X0501700Y0196930D01*
X0501700Y0196332D02*
X0480600Y0196332D01*
X0480600Y0195733D02*
X0501700Y0195733D01*
X0501700Y0195135D02*
X0480600Y0195135D01*
X0480600Y0194536D02*
X0501700Y0194536D01*
X0501700Y0193938D02*
X0480600Y0193938D01*
X0480600Y0193339D02*
X0501700Y0193339D01*
X0501700Y0192741D02*
X0480600Y0192741D01*
X0480600Y0192142D02*
X0501700Y0192142D01*
X0501700Y0191544D02*
X0480600Y0191544D01*
X0480600Y0190945D02*
X0501700Y0190945D01*
X0501700Y0190347D02*
X0480600Y0190347D01*
X0480600Y0189748D02*
X0501700Y0189748D01*
X0501700Y0189150D02*
X0480600Y0189150D01*
X0480600Y0188551D02*
X0501700Y0188551D01*
X0501700Y0187953D02*
X0480600Y0187953D01*
X0480600Y0187354D02*
X0501700Y0187354D01*
X0501700Y0186756D02*
X0480600Y0186756D01*
X0480600Y0186157D02*
X0501700Y0186157D01*
X0501700Y0185559D02*
X0480600Y0185559D01*
X0480600Y0184960D02*
X0501700Y0184960D01*
X0501700Y0184362D02*
X0480600Y0184362D01*
X0480600Y0183763D02*
X0501700Y0183763D01*
X0501700Y0183165D02*
X0480600Y0183165D01*
X0480600Y0182566D02*
X0501700Y0182566D01*
X0501700Y0181968D02*
X0480600Y0181968D01*
X0480600Y0181369D02*
X0501700Y0181369D01*
X0501700Y0180770D02*
X0480600Y0180770D01*
X0480600Y0180172D02*
X0501700Y0180172D01*
X0501700Y0179573D02*
X0480600Y0179573D01*
X0480600Y0178975D02*
X0501700Y0178975D01*
X0501700Y0178376D02*
X0480600Y0178376D01*
X0480600Y0177778D02*
X0501700Y0177778D01*
X0501700Y0177179D02*
X0480600Y0177179D01*
X0480600Y0176581D02*
X0501700Y0176581D01*
X0501700Y0175982D02*
X0480600Y0175982D01*
X0480600Y0175384D02*
X0501700Y0175384D01*
X0501700Y0174785D02*
X0480600Y0174785D01*
X0480600Y0174187D02*
X0501700Y0174187D01*
X0501700Y0173588D02*
X0480600Y0173588D01*
X0480600Y0172990D02*
X0501700Y0172990D01*
X0501700Y0172391D02*
X0480600Y0172391D01*
X0480600Y0171793D02*
X0501700Y0171793D01*
X0501700Y0171194D02*
X0480600Y0171194D01*
X0480600Y0170596D02*
X0501700Y0170596D01*
X0501700Y0169997D02*
X0480600Y0169997D01*
X0480600Y0169399D02*
X0501700Y0169399D01*
X0501700Y0168800D02*
X0480600Y0168800D01*
X0480413Y0168202D02*
X0501700Y0168202D01*
X0501700Y0167603D02*
X0479814Y0167603D01*
X0479216Y0167005D02*
X0501700Y0167005D01*
X0501700Y0166406D02*
X0478617Y0166406D01*
X0478019Y0165808D02*
X0501700Y0165808D01*
X0501700Y0165209D02*
X0477420Y0165209D01*
X0476822Y0164611D02*
X0501700Y0164611D01*
X0501700Y0164012D02*
X0476223Y0164012D01*
X0475625Y0163414D02*
X0501700Y0163414D01*
X0501700Y0162815D02*
X0475026Y0162815D01*
X0474428Y0162217D02*
X0501700Y0162217D01*
X0501700Y0161618D02*
X0473829Y0161618D01*
X0473231Y0161020D02*
X0501700Y0161020D01*
X0501700Y0160421D02*
X0472632Y0160421D01*
X0472034Y0159823D02*
X0501700Y0159823D01*
X0501700Y0159224D02*
X0471435Y0159224D01*
X0470837Y0158626D02*
X0501700Y0158626D01*
X0501700Y0158027D02*
X0470238Y0158027D01*
X0469640Y0157429D02*
X0501700Y0157429D01*
X0501700Y0156830D02*
X0469041Y0156830D01*
X0468443Y0156232D02*
X0501700Y0156232D01*
X0501700Y0155633D02*
X0467844Y0155633D01*
X0467246Y0155034D02*
X0501700Y0155034D01*
X0501700Y0154436D02*
X0466647Y0154436D01*
X0466049Y0153837D02*
X0501700Y0153837D01*
X0501700Y0153239D02*
X0465450Y0153239D01*
X0464852Y0152640D02*
X0501700Y0152640D01*
X0501700Y0152042D02*
X0464253Y0152042D01*
X0463655Y0151443D02*
X0501700Y0151443D01*
X0501700Y0150845D02*
X0463056Y0150845D01*
X0462458Y0150246D02*
X0501700Y0150246D01*
X0501700Y0149648D02*
X0461859Y0149648D01*
X0461261Y0149049D02*
X0501700Y0149049D01*
X0501700Y0148451D02*
X0460662Y0148451D01*
X0460064Y0147852D02*
X0501700Y0147852D01*
X0501700Y0147254D02*
X0459465Y0147254D01*
X0458867Y0146655D02*
X0501700Y0146655D01*
X0501700Y0146057D02*
X0458268Y0146057D01*
X0457670Y0145458D02*
X0501700Y0145458D01*
X0501700Y0144860D02*
X0457071Y0144860D01*
X0456473Y0144261D02*
X0501700Y0144261D01*
X0501700Y0143663D02*
X0455874Y0143663D01*
X0455275Y0143064D02*
X0501700Y0143064D01*
X0501700Y0142466D02*
X0454677Y0142466D01*
X0454078Y0141867D02*
X0501700Y0141867D01*
X0501700Y0141269D02*
X0453480Y0141269D01*
X0452881Y0140670D02*
X0501700Y0140670D01*
X0501700Y0140072D02*
X0452283Y0140072D01*
X0451684Y0139473D02*
X0501700Y0139473D01*
X0501700Y0138875D02*
X0451086Y0138875D01*
X0450487Y0138276D02*
X0501700Y0138276D01*
X0501700Y0137678D02*
X0449889Y0137678D01*
X0449290Y0137079D02*
X0501700Y0137079D01*
X0501700Y0136481D02*
X0448692Y0136481D01*
X0448093Y0135882D02*
X0501700Y0135882D01*
X0501700Y0135284D02*
X0447495Y0135284D01*
X0446896Y0134685D02*
X0501700Y0134685D01*
X0501700Y0134087D02*
X0446298Y0134087D01*
X0445699Y0133488D02*
X0501700Y0133488D01*
X0501700Y0132890D02*
X0445101Y0132890D01*
X0444502Y0132291D02*
X0501700Y0132291D01*
X0501700Y0131693D02*
X0443904Y0131693D01*
X0435468Y0128700D02*
X0501700Y0128700D01*
X0447509Y0162217D02*
X0447413Y0162217D01*
X0446911Y0161618D02*
X0444900Y0161618D01*
X0444900Y0161020D02*
X0446312Y0161020D01*
X0445714Y0160421D02*
X0444900Y0160421D01*
X0444900Y0159823D02*
X0445115Y0159823D01*
X0448011Y0162815D02*
X0448108Y0162815D01*
X0448350Y0163414D02*
X0448707Y0163414D01*
X0448350Y0164012D02*
X0449305Y0164012D01*
X0449904Y0164611D02*
X0448350Y0164611D01*
X0448159Y0165209D02*
X0450502Y0165209D01*
X0451101Y0165808D02*
X0447560Y0165808D01*
X0446400Y0166406D02*
X0451699Y0166406D01*
X0452298Y0167005D02*
X0446400Y0167005D01*
X0446400Y0167603D02*
X0452896Y0167603D01*
X0453495Y0168202D02*
X0446400Y0168202D01*
X0446400Y0168800D02*
X0454093Y0168800D01*
X0454692Y0169399D02*
X0446400Y0169399D01*
X0446493Y0169997D02*
X0455290Y0169997D01*
X0455889Y0170596D02*
X0447092Y0170596D01*
X0447450Y0171194D02*
X0456487Y0171194D01*
X0457086Y0171793D02*
X0447450Y0171793D01*
X0447450Y0172391D02*
X0457684Y0172391D01*
X0458283Y0172990D02*
X0447278Y0172990D01*
X0446679Y0173588D02*
X0458881Y0173588D01*
X0459480Y0174187D02*
X0425622Y0174187D01*
X0425024Y0173588D02*
X0443721Y0173588D01*
X0443122Y0172990D02*
X0424425Y0172990D01*
X0423827Y0172391D02*
X0442950Y0172391D01*
X0442950Y0171793D02*
X0423228Y0171793D01*
X0425800Y0168800D02*
X0436400Y0168800D01*
X0436400Y0168202D02*
X0425800Y0168202D01*
X0425800Y0167603D02*
X0436400Y0167603D01*
X0436400Y0167005D02*
X0425800Y0167005D01*
X0425800Y0166406D02*
X0436400Y0166406D01*
X0436400Y0165808D02*
X0425800Y0165808D01*
X0425800Y0165209D02*
X0436400Y0165209D01*
X0436400Y0164611D02*
X0425800Y0164611D01*
X0411628Y0164611D02*
X0402246Y0164611D01*
X0401700Y0168586D02*
X0418500Y0185386D01*
X0416250Y0185559D02*
X0398124Y0185559D01*
X0397526Y0186157D02*
X0416250Y0186157D01*
X0416250Y0186318D02*
X0416250Y0184833D01*
X0408150Y0176733D01*
X0408150Y0177018D01*
X0406832Y0178336D01*
X0405347Y0178336D01*
X0393500Y0190183D01*
X0393500Y0193486D01*
X0394100Y0193486D01*
X0394100Y0194086D01*
X0397600Y0194086D01*
X0397600Y0195360D01*
X0396624Y0196336D01*
X0397232Y0196336D01*
X0397982Y0197086D01*
X0408579Y0197086D01*
X0418029Y0187636D01*
X0417568Y0187636D01*
X0416250Y0186318D01*
X0416688Y0186756D02*
X0396927Y0186756D01*
X0396329Y0187354D02*
X0417286Y0187354D01*
X0417712Y0187953D02*
X0395730Y0187953D01*
X0395132Y0188551D02*
X0417113Y0188551D01*
X0416515Y0189150D02*
X0394533Y0189150D01*
X0393935Y0189748D02*
X0415916Y0189748D01*
X0415318Y0190347D02*
X0395735Y0190347D01*
X0395374Y0189986D02*
X0397600Y0192212D01*
X0397600Y0193486D01*
X0394100Y0193486D01*
X0394100Y0189986D01*
X0395374Y0189986D01*
X0394100Y0190347D02*
X0393500Y0190347D01*
X0393500Y0190945D02*
X0394100Y0190945D01*
X0394100Y0191544D02*
X0393500Y0191544D01*
X0393500Y0192142D02*
X0394100Y0192142D01*
X0394100Y0192741D02*
X0393500Y0192741D01*
X0393500Y0193339D02*
X0394100Y0193339D01*
X0394100Y0193938D02*
X0411727Y0193938D01*
X0411128Y0194536D02*
X0397600Y0194536D01*
X0397600Y0195135D02*
X0410530Y0195135D01*
X0409931Y0195733D02*
X0397227Y0195733D01*
X0396628Y0196332D02*
X0409333Y0196332D01*
X0408734Y0196930D02*
X0397826Y0196930D01*
X0397600Y0193339D02*
X0412325Y0193339D01*
X0412924Y0192741D02*
X0397600Y0192741D01*
X0397530Y0192142D02*
X0413522Y0192142D01*
X0414121Y0191544D02*
X0396932Y0191544D01*
X0396333Y0190945D02*
X0414719Y0190945D01*
X0416568Y0193339D02*
X0453550Y0193339D01*
X0454148Y0192741D02*
X0417166Y0192741D01*
X0417765Y0192142D02*
X0454747Y0192142D01*
X0455345Y0191544D02*
X0418363Y0191544D01*
X0418962Y0190945D02*
X0455944Y0190945D01*
X0456542Y0190347D02*
X0419560Y0190347D01*
X0420159Y0189748D02*
X0457141Y0189748D01*
X0457739Y0189150D02*
X0420757Y0189150D01*
X0421356Y0188551D02*
X0458338Y0188551D01*
X0458936Y0187953D02*
X0421955Y0187953D01*
X0422553Y0187354D02*
X0459535Y0187354D01*
X0460133Y0186756D02*
X0423152Y0186756D01*
X0423750Y0186157D02*
X0460732Y0186157D01*
X0461330Y0185559D02*
X0424349Y0185559D01*
X0424947Y0184960D02*
X0461550Y0184960D01*
X0461550Y0185339D02*
X0461550Y0183854D01*
X0462868Y0182536D01*
X0464732Y0182536D01*
X0466050Y0183854D01*
X0466050Y0185718D01*
X0464732Y0187036D01*
X0463247Y0187036D01*
X0451950Y0198333D01*
X0451950Y0199818D01*
X0450632Y0201136D01*
X0448768Y0201136D01*
X0447450Y0199818D01*
X0447450Y0197954D01*
X0448768Y0196636D01*
X0450253Y0196636D01*
X0461550Y0185339D01*
X0461550Y0184362D02*
X0425546Y0184362D01*
X0428405Y0183763D02*
X0442795Y0183763D01*
X0445205Y0183763D02*
X0461641Y0183763D01*
X0462239Y0183165D02*
X0445803Y0183165D01*
X0446250Y0182566D02*
X0462838Y0182566D01*
X0464762Y0182566D02*
X0466200Y0182566D01*
X0466200Y0181968D02*
X0446250Y0181968D01*
X0446250Y0181369D02*
X0466200Y0181369D01*
X0466063Y0180770D02*
X0446167Y0180770D01*
X0445568Y0180172D02*
X0465465Y0180172D01*
X0464866Y0179573D02*
X0444970Y0179573D01*
X0443030Y0179573D02*
X0431009Y0179573D01*
X0430410Y0178975D02*
X0464268Y0178975D01*
X0463669Y0178376D02*
X0429812Y0178376D01*
X0429213Y0177778D02*
X0463071Y0177778D01*
X0462472Y0177179D02*
X0428615Y0177179D01*
X0428016Y0176581D02*
X0461874Y0176581D01*
X0461275Y0175982D02*
X0427418Y0175982D01*
X0426819Y0175384D02*
X0460677Y0175384D01*
X0460078Y0174785D02*
X0426221Y0174785D01*
X0431607Y0180172D02*
X0442432Y0180172D01*
X0445200Y0171886D02*
X0445200Y0164986D01*
X0446100Y0164086D01*
X0429759Y0182566D02*
X0429450Y0182566D01*
X0429003Y0183165D02*
X0430357Y0183165D01*
X0416250Y0184960D02*
X0398723Y0184960D01*
X0399321Y0184362D02*
X0415779Y0184362D01*
X0415180Y0183763D02*
X0399920Y0183763D01*
X0400518Y0183165D02*
X0414582Y0183165D01*
X0413983Y0182566D02*
X0401117Y0182566D01*
X0401715Y0181968D02*
X0413385Y0181968D01*
X0412786Y0181369D02*
X0402314Y0181369D01*
X0402912Y0180770D02*
X0412188Y0180770D01*
X0411589Y0180172D02*
X0403511Y0180172D01*
X0404109Y0179573D02*
X0410991Y0179573D01*
X0410392Y0178975D02*
X0404708Y0178975D01*
X0405306Y0178376D02*
X0409794Y0178376D01*
X0409195Y0177778D02*
X0407390Y0177778D01*
X0407988Y0177179D02*
X0408597Y0177179D01*
X0405900Y0176086D02*
X0390300Y0191686D01*
X0390300Y0215986D01*
X0383400Y0222886D01*
X0380400Y0222886D01*
X0373200Y0230086D01*
X0373200Y0236386D01*
X0383100Y0246286D01*
X0383100Y0253186D01*
X0385350Y0253190D02*
X0397676Y0253190D01*
X0397515Y0252592D02*
X0385350Y0252592D01*
X0385089Y0251993D02*
X0397355Y0251993D01*
X0397195Y0251395D02*
X0384491Y0251395D01*
X0384300Y0250796D02*
X0397034Y0250796D01*
X0397000Y0250198D02*
X0384300Y0250198D01*
X0384300Y0249599D02*
X0397000Y0249599D01*
X0397000Y0249001D02*
X0384300Y0249001D01*
X0384300Y0248402D02*
X0397000Y0248402D01*
X0397000Y0247804D02*
X0384300Y0247804D01*
X0384300Y0247205D02*
X0397000Y0247205D01*
X0397079Y0246607D02*
X0384300Y0246607D01*
X0384300Y0246008D02*
X0397240Y0246008D01*
X0397400Y0245410D02*
X0383921Y0245410D01*
X0383322Y0244811D02*
X0397561Y0244811D01*
X0397721Y0244213D02*
X0382724Y0244213D01*
X0382125Y0243614D02*
X0397881Y0243614D01*
X0398119Y0243016D02*
X0381527Y0243016D01*
X0380928Y0242417D02*
X0398465Y0242417D01*
X0398810Y0241819D02*
X0380330Y0241819D01*
X0379731Y0241220D02*
X0399156Y0241220D01*
X0399501Y0240622D02*
X0383571Y0240622D01*
X0383407Y0240786D02*
X0380600Y0240786D01*
X0380600Y0233586D01*
X0387800Y0233586D01*
X0387800Y0236392D01*
X0383407Y0240786D01*
X0384169Y0240023D02*
X0399847Y0240023D01*
X0400438Y0239425D02*
X0384768Y0239425D01*
X0385366Y0238826D02*
X0401036Y0238826D01*
X0401635Y0238228D02*
X0385965Y0238228D01*
X0386563Y0237629D02*
X0402234Y0237629D01*
X0403061Y0237031D02*
X0387162Y0237031D01*
X0387760Y0236432D02*
X0404097Y0236432D01*
X0405134Y0235834D02*
X0387800Y0235834D01*
X0387800Y0235235D02*
X0406621Y0235235D01*
X0408855Y0234637D02*
X0387800Y0234637D01*
X0387800Y0234038D02*
X0419179Y0234038D01*
X0433161Y0229250D02*
X0439900Y0229250D01*
X0439900Y0229386D02*
X0439900Y0228786D01*
X0440500Y0228786D01*
X0440500Y0229386D01*
X0439900Y0229386D01*
X0439900Y0229848D02*
X0440500Y0229848D01*
X0440500Y0229386D02*
X0440500Y0235386D01*
X0442871Y0235386D01*
X0443202Y0235297D01*
X0443498Y0235126D01*
X0443740Y0234884D01*
X0443911Y0234588D01*
X0444000Y0234257D01*
X0444000Y0229386D01*
X0440500Y0229386D01*
X0440500Y0229250D02*
X0466500Y0229250D01*
X0466500Y0229848D02*
X0444000Y0229848D01*
X0444000Y0230447D02*
X0466500Y0230447D01*
X0466500Y0231045D02*
X0444000Y0231045D01*
X0444000Y0231644D02*
X0466500Y0231644D01*
X0466500Y0232242D02*
X0444000Y0232242D01*
X0444000Y0232841D02*
X0466500Y0232841D01*
X0466500Y0233439D02*
X0444000Y0233439D01*
X0444000Y0234038D02*
X0466500Y0234038D01*
X0466500Y0234637D02*
X0443883Y0234637D01*
X0443310Y0235235D02*
X0466500Y0235235D01*
X0466500Y0235834D02*
X0439745Y0235834D01*
X0439900Y0235235D02*
X0440500Y0235235D01*
X0440500Y0234637D02*
X0439900Y0234637D01*
X0439900Y0234038D02*
X0440500Y0234038D01*
X0440500Y0233439D02*
X0439900Y0233439D01*
X0439900Y0232841D02*
X0440500Y0232841D01*
X0440500Y0232242D02*
X0439900Y0232242D01*
X0439900Y0231644D02*
X0440500Y0231644D01*
X0440500Y0231045D02*
X0439900Y0231045D01*
X0439900Y0230447D02*
X0440500Y0230447D01*
X0440500Y0228786D02*
X0444000Y0228786D01*
X0444000Y0223915D01*
X0443911Y0223584D01*
X0443740Y0223288D01*
X0443498Y0223046D01*
X0443202Y0222874D01*
X0442871Y0222786D01*
X0440500Y0222786D01*
X0440500Y0228786D01*
X0440500Y0228651D02*
X0439900Y0228651D01*
X0439900Y0228053D02*
X0440500Y0228053D01*
X0440500Y0227454D02*
X0439900Y0227454D01*
X0439900Y0226856D02*
X0440500Y0226856D01*
X0440500Y0226257D02*
X0439900Y0226257D01*
X0439900Y0225659D02*
X0440500Y0225659D01*
X0440500Y0225060D02*
X0439900Y0225060D01*
X0439900Y0224462D02*
X0440500Y0224462D01*
X0440500Y0223863D02*
X0439900Y0223863D01*
X0439900Y0223265D02*
X0440500Y0223265D01*
X0443717Y0223265D02*
X0466500Y0223265D01*
X0466500Y0223863D02*
X0443986Y0223863D01*
X0444000Y0224462D02*
X0466500Y0224462D01*
X0466500Y0225060D02*
X0444000Y0225060D01*
X0444000Y0225659D02*
X0466500Y0225659D01*
X0466500Y0226257D02*
X0444000Y0226257D01*
X0444000Y0226856D02*
X0466500Y0226856D01*
X0466500Y0227454D02*
X0444000Y0227454D01*
X0444000Y0228053D02*
X0466500Y0228053D01*
X0466500Y0228651D02*
X0444000Y0228651D01*
X0436400Y0229848D02*
X0433760Y0229848D01*
X0434358Y0230447D02*
X0436400Y0230447D01*
X0436400Y0231045D02*
X0434957Y0231045D01*
X0435555Y0231644D02*
X0436400Y0231644D01*
X0436400Y0232242D02*
X0436154Y0232242D01*
X0440343Y0236432D02*
X0466500Y0236432D01*
X0466500Y0237031D02*
X0440942Y0237031D01*
X0441540Y0237629D02*
X0466500Y0237629D01*
X0466500Y0238228D02*
X0442139Y0238228D01*
X0442737Y0238826D02*
X0466500Y0238826D01*
X0466500Y0239425D02*
X0443336Y0239425D01*
X0443934Y0240023D02*
X0466500Y0240023D01*
X0466500Y0240622D02*
X0444533Y0240622D01*
X0445131Y0241220D02*
X0466500Y0241220D01*
X0466500Y0241819D02*
X0445730Y0241819D01*
X0446328Y0242417D02*
X0466500Y0242417D01*
X0466500Y0243016D02*
X0446927Y0243016D01*
X0447525Y0243614D02*
X0466500Y0243614D01*
X0466500Y0244213D02*
X0448124Y0244213D01*
X0448722Y0244811D02*
X0466500Y0244811D01*
X0466500Y0245410D02*
X0449321Y0245410D01*
X0449919Y0246008D02*
X0466500Y0246008D01*
X0497185Y0260971D02*
X0418795Y0260971D01*
X0417758Y0261570D02*
X0496870Y0261570D01*
X0496440Y0262168D02*
X0416608Y0262168D01*
X0414374Y0262767D02*
X0496010Y0262767D01*
X0495581Y0263365D02*
X0371900Y0263365D01*
X0371900Y0262767D02*
X0408226Y0262767D01*
X0405992Y0262168D02*
X0371900Y0262168D01*
X0371900Y0261570D02*
X0404842Y0261570D01*
X0403805Y0260971D02*
X0371900Y0260971D01*
X0371900Y0260372D02*
X0402769Y0260372D01*
X0402065Y0259774D02*
X0371900Y0259774D01*
X0371900Y0259175D02*
X0401466Y0259175D01*
X0400868Y0258577D02*
X0371900Y0258577D01*
X0371900Y0257978D02*
X0400269Y0257978D01*
X0399750Y0257380D02*
X0371900Y0257380D01*
X0371900Y0256781D02*
X0399404Y0256781D01*
X0399059Y0256183D02*
X0371900Y0256183D01*
X0371900Y0255584D02*
X0398713Y0255584D01*
X0398367Y0254986D02*
X0384482Y0254986D01*
X0385080Y0254387D02*
X0398022Y0254387D01*
X0397836Y0253789D02*
X0385350Y0253789D01*
X0381718Y0254986D02*
X0371900Y0254986D01*
X0371900Y0254387D02*
X0381120Y0254387D01*
X0380850Y0253789D02*
X0371900Y0253789D01*
X0371900Y0253190D02*
X0380850Y0253190D01*
X0380850Y0252592D02*
X0371900Y0252592D01*
X0371900Y0251993D02*
X0381111Y0251993D01*
X0381709Y0251395D02*
X0371900Y0251395D01*
X0371900Y0250796D02*
X0381900Y0250796D01*
X0381900Y0250198D02*
X0371900Y0250198D01*
X0371900Y0249599D02*
X0381900Y0249599D01*
X0381900Y0249001D02*
X0371900Y0249001D01*
X0371900Y0248402D02*
X0381900Y0248402D01*
X0381900Y0247804D02*
X0371900Y0247804D01*
X0371900Y0247205D02*
X0381900Y0247205D01*
X0381724Y0246607D02*
X0371900Y0246607D01*
X0371900Y0246008D02*
X0381125Y0246008D01*
X0380527Y0245410D02*
X0371900Y0245410D01*
X0371900Y0244811D02*
X0379928Y0244811D01*
X0379330Y0244213D02*
X0371900Y0244213D01*
X0371900Y0243614D02*
X0378731Y0243614D01*
X0378133Y0243016D02*
X0371900Y0243016D01*
X0371900Y0242417D02*
X0377534Y0242417D01*
X0376936Y0241819D02*
X0371900Y0241819D01*
X0371900Y0241220D02*
X0376337Y0241220D01*
X0375739Y0240622D02*
X0371900Y0240622D01*
X0371900Y0240023D02*
X0375140Y0240023D01*
X0374542Y0239425D02*
X0371900Y0239425D01*
X0371900Y0238826D02*
X0373943Y0238826D01*
X0373345Y0238228D02*
X0371900Y0238228D01*
X0371900Y0237629D02*
X0372746Y0237629D01*
X0372148Y0237031D02*
X0371900Y0237031D01*
X0371900Y0236432D02*
X0372000Y0236432D01*
X0372000Y0235834D02*
X0371900Y0235834D01*
X0371900Y0235235D02*
X0372000Y0235235D01*
X0372000Y0234637D02*
X0371900Y0234637D01*
X0371900Y0234038D02*
X0372000Y0234038D01*
X0372000Y0233439D02*
X0371900Y0233439D01*
X0371900Y0232841D02*
X0372000Y0232841D01*
X0372000Y0232242D02*
X0371900Y0232242D01*
X0371900Y0231644D02*
X0372000Y0231644D01*
X0372000Y0231045D02*
X0371900Y0231045D01*
X0371900Y0230447D02*
X0372000Y0230447D01*
X0372000Y0229848D02*
X0371900Y0229848D01*
X0371900Y0229250D02*
X0372339Y0229250D01*
X0371900Y0228651D02*
X0372937Y0228651D01*
X0373536Y0228053D02*
X0371900Y0228053D01*
X0371900Y0227454D02*
X0374134Y0227454D01*
X0374733Y0226856D02*
X0371900Y0226856D01*
X0371900Y0226257D02*
X0375331Y0226257D01*
X0375930Y0225659D02*
X0371900Y0225659D01*
X0371900Y0225060D02*
X0376528Y0225060D01*
X0377127Y0224462D02*
X0371900Y0224462D01*
X0371900Y0223863D02*
X0377725Y0223863D01*
X0378324Y0223265D02*
X0371900Y0223265D01*
X0371900Y0222666D02*
X0377140Y0222666D01*
X0376541Y0222068D02*
X0371900Y0222068D01*
X0371900Y0221469D02*
X0375943Y0221469D01*
X0375344Y0220871D02*
X0371900Y0220871D01*
X0371900Y0220272D02*
X0374745Y0220272D01*
X0374147Y0219674D02*
X0371900Y0219674D01*
X0371900Y0219075D02*
X0373548Y0219075D01*
X0373200Y0218477D02*
X0371900Y0218477D01*
X0371900Y0217878D02*
X0373200Y0217878D01*
X0373200Y0217280D02*
X0371900Y0217280D01*
X0371900Y0216681D02*
X0373200Y0216681D01*
X0373200Y0216083D02*
X0371900Y0216083D01*
X0371900Y0215484D02*
X0373200Y0215484D01*
X0373200Y0214886D02*
X0371900Y0214886D01*
X0371900Y0214287D02*
X0373200Y0214287D01*
X0373200Y0213689D02*
X0371900Y0213689D01*
X0371900Y0213090D02*
X0373200Y0213090D01*
X0373553Y0212492D02*
X0371900Y0212492D01*
X0371900Y0211893D02*
X0374152Y0211893D01*
X0374750Y0211295D02*
X0371900Y0211295D01*
X0371900Y0210696D02*
X0375349Y0210696D01*
X0375947Y0210098D02*
X0371900Y0210098D01*
X0371900Y0209499D02*
X0376546Y0209499D01*
X0377144Y0208901D02*
X0371900Y0208901D01*
X0371900Y0208302D02*
X0389100Y0208302D01*
X0389100Y0207703D02*
X0371900Y0207703D01*
X0371900Y0207105D02*
X0389100Y0207105D01*
X0389100Y0206506D02*
X0371900Y0206506D01*
X0371900Y0205908D02*
X0389100Y0205908D01*
X0389100Y0205309D02*
X0371900Y0205309D01*
X0371900Y0204711D02*
X0389100Y0204711D01*
X0389100Y0204112D02*
X0371900Y0204112D01*
X0371900Y0203514D02*
X0389100Y0203514D01*
X0389100Y0202915D02*
X0371900Y0202915D01*
X0371900Y0202317D02*
X0389100Y0202317D01*
X0389100Y0201718D02*
X0388176Y0201718D01*
X0388774Y0201120D02*
X0389100Y0201120D01*
X0391500Y0201120D02*
X0419000Y0201120D01*
X0419000Y0201718D02*
X0391500Y0201718D01*
X0391500Y0202317D02*
X0419000Y0202317D01*
X0419000Y0202915D02*
X0391500Y0202915D01*
X0391500Y0203514D02*
X0419000Y0203514D01*
X0419000Y0204112D02*
X0391500Y0204112D01*
X0391500Y0204711D02*
X0419000Y0204711D01*
X0419000Y0205309D02*
X0391500Y0205309D01*
X0391500Y0205908D02*
X0419000Y0205908D01*
X0419000Y0206506D02*
X0391500Y0206506D01*
X0391500Y0207105D02*
X0419000Y0207105D01*
X0419000Y0207703D02*
X0391500Y0207703D01*
X0391500Y0208302D02*
X0419000Y0208302D01*
X0419000Y0208859D02*
X0419000Y0198113D01*
X0419527Y0197586D01*
X0425273Y0197586D01*
X0425800Y0198113D01*
X0425800Y0208859D01*
X0425273Y0209386D01*
X0419527Y0209386D01*
X0419000Y0208859D01*
X0419042Y0208901D02*
X0391500Y0208901D01*
X0391500Y0209499D02*
X0466500Y0209499D01*
X0466500Y0208901D02*
X0443558Y0208901D01*
X0443600Y0208859D02*
X0443073Y0209386D01*
X0437327Y0209386D01*
X0436800Y0208859D01*
X0436800Y0198113D01*
X0437327Y0197586D01*
X0443073Y0197586D01*
X0443600Y0198113D01*
X0443600Y0208859D01*
X0443600Y0208302D02*
X0466500Y0208302D01*
X0466500Y0207703D02*
X0443600Y0207703D01*
X0443600Y0207105D02*
X0466500Y0207105D01*
X0466500Y0206506D02*
X0443600Y0206506D01*
X0443600Y0205908D02*
X0466500Y0205908D01*
X0466500Y0205309D02*
X0443600Y0205309D01*
X0443600Y0204711D02*
X0466500Y0204711D01*
X0466500Y0204112D02*
X0443600Y0204112D01*
X0443600Y0203514D02*
X0466500Y0203514D01*
X0466500Y0202915D02*
X0443600Y0202915D01*
X0443600Y0202317D02*
X0466500Y0202317D01*
X0466500Y0201718D02*
X0443600Y0201718D01*
X0443600Y0201120D02*
X0448752Y0201120D01*
X0448154Y0200521D02*
X0443600Y0200521D01*
X0443600Y0199923D02*
X0447555Y0199923D01*
X0447450Y0199324D02*
X0443600Y0199324D01*
X0443600Y0198726D02*
X0447450Y0198726D01*
X0447450Y0198127D02*
X0443600Y0198127D01*
X0447875Y0197529D02*
X0412378Y0197529D01*
X0411780Y0198127D02*
X0419000Y0198127D01*
X0419000Y0198726D02*
X0411181Y0198726D01*
X0410583Y0199324D02*
X0419000Y0199324D01*
X0419000Y0199923D02*
X0409984Y0199923D01*
X0412977Y0196930D02*
X0448474Y0196930D01*
X0450557Y0196332D02*
X0413575Y0196332D01*
X0414174Y0195733D02*
X0451155Y0195733D01*
X0451754Y0195135D02*
X0414772Y0195135D01*
X0415371Y0194536D02*
X0452353Y0194536D01*
X0452951Y0193938D02*
X0415969Y0193938D01*
X0425800Y0198127D02*
X0436800Y0198127D01*
X0436800Y0198726D02*
X0425800Y0198726D01*
X0425800Y0199324D02*
X0436800Y0199324D01*
X0436800Y0199923D02*
X0425800Y0199923D01*
X0425800Y0200521D02*
X0436800Y0200521D01*
X0436800Y0201120D02*
X0425800Y0201120D01*
X0425800Y0201718D02*
X0436800Y0201718D01*
X0436800Y0202317D02*
X0425800Y0202317D01*
X0425800Y0202915D02*
X0436800Y0202915D01*
X0436800Y0203514D02*
X0425800Y0203514D01*
X0425800Y0204112D02*
X0436800Y0204112D01*
X0436800Y0204711D02*
X0425800Y0204711D01*
X0425800Y0205309D02*
X0436800Y0205309D01*
X0436800Y0205908D02*
X0425800Y0205908D01*
X0425800Y0206506D02*
X0436800Y0206506D01*
X0436800Y0207105D02*
X0425800Y0207105D01*
X0425800Y0207703D02*
X0436800Y0207703D01*
X0436800Y0208302D02*
X0425800Y0208302D01*
X0425758Y0208901D02*
X0436842Y0208901D01*
X0450648Y0201120D02*
X0466500Y0201120D01*
X0466500Y0200521D02*
X0451246Y0200521D01*
X0451845Y0199923D02*
X0466500Y0199923D01*
X0466157Y0199324D02*
X0451950Y0199324D01*
X0451950Y0198726D02*
X0465750Y0198726D01*
X0465750Y0198127D02*
X0452156Y0198127D01*
X0452754Y0197529D02*
X0465750Y0197529D01*
X0465874Y0196930D02*
X0453353Y0196930D01*
X0453951Y0196332D02*
X0466200Y0196332D01*
X0466200Y0195733D02*
X0454550Y0195733D01*
X0455148Y0195135D02*
X0466200Y0195135D01*
X0466200Y0194536D02*
X0455747Y0194536D01*
X0456345Y0193938D02*
X0466200Y0193938D01*
X0466200Y0193339D02*
X0456944Y0193339D01*
X0457542Y0192741D02*
X0466200Y0192741D01*
X0466200Y0192142D02*
X0458141Y0192142D01*
X0458739Y0191544D02*
X0466200Y0191544D01*
X0466200Y0190945D02*
X0459338Y0190945D01*
X0459936Y0190347D02*
X0466200Y0190347D01*
X0466200Y0189748D02*
X0460535Y0189748D01*
X0461133Y0189150D02*
X0466200Y0189150D01*
X0466200Y0188551D02*
X0461732Y0188551D01*
X0462330Y0187953D02*
X0466200Y0187953D01*
X0466200Y0187354D02*
X0462929Y0187354D01*
X0465012Y0186756D02*
X0466200Y0186756D01*
X0466200Y0186157D02*
X0465611Y0186157D01*
X0466050Y0185559D02*
X0466200Y0185559D01*
X0466200Y0184960D02*
X0466050Y0184960D01*
X0466050Y0184362D02*
X0466200Y0184362D01*
X0466200Y0183763D02*
X0465959Y0183763D01*
X0466200Y0183165D02*
X0465361Y0183165D01*
X0463800Y0184786D02*
X0449700Y0198886D01*
X0466500Y0210098D02*
X0391500Y0210098D01*
X0391500Y0210696D02*
X0466500Y0210696D01*
X0466500Y0211295D02*
X0391500Y0211295D01*
X0391500Y0211893D02*
X0466500Y0211893D01*
X0466500Y0212492D02*
X0391500Y0212492D01*
X0391500Y0213090D02*
X0466500Y0213090D01*
X0466500Y0213689D02*
X0391500Y0213689D01*
X0391500Y0214287D02*
X0466500Y0214287D01*
X0466500Y0214886D02*
X0391500Y0214886D01*
X0391500Y0215484D02*
X0466500Y0215484D01*
X0466500Y0216083D02*
X0391500Y0216083D01*
X0391302Y0216681D02*
X0466500Y0216681D01*
X0466500Y0217280D02*
X0390703Y0217280D01*
X0390105Y0217878D02*
X0466500Y0217878D01*
X0466500Y0218477D02*
X0389506Y0218477D01*
X0388908Y0219075D02*
X0466500Y0219075D01*
X0466500Y0219674D02*
X0388309Y0219674D01*
X0387711Y0220272D02*
X0466500Y0220272D01*
X0466500Y0220871D02*
X0387112Y0220871D01*
X0386514Y0221469D02*
X0466500Y0221469D01*
X0419000Y0200521D02*
X0397546Y0200521D01*
X0395054Y0200521D02*
X0391500Y0200521D01*
X0391500Y0199923D02*
X0394455Y0199923D01*
X0394050Y0199324D02*
X0391500Y0199324D01*
X0391500Y0198726D02*
X0394050Y0198726D01*
X0394050Y0198127D02*
X0391500Y0198127D01*
X0391500Y0197529D02*
X0392169Y0197529D01*
X0391570Y0196930D02*
X0391500Y0196930D01*
X0393500Y0196930D02*
X0394100Y0196930D01*
X0394100Y0196332D02*
X0393500Y0196332D01*
X0393500Y0195733D02*
X0394100Y0195733D01*
X0394100Y0195135D02*
X0393500Y0195135D01*
X0393500Y0194536D02*
X0394100Y0194536D01*
X0394100Y0197529D02*
X0393500Y0197529D01*
X0384544Y0195733D02*
X0371900Y0195733D01*
X0371900Y0195135D02*
X0384600Y0195135D01*
X0384429Y0194536D02*
X0371900Y0194536D01*
X0371900Y0193938D02*
X0383831Y0193938D01*
X0383232Y0193339D02*
X0371900Y0193339D01*
X0371900Y0192741D02*
X0382634Y0192741D01*
X0382035Y0192142D02*
X0371900Y0192142D01*
X0371900Y0191544D02*
X0381437Y0191544D01*
X0380838Y0190945D02*
X0371900Y0190945D01*
X0371900Y0190347D02*
X0380240Y0190347D01*
X0379641Y0189748D02*
X0371900Y0189748D01*
X0371900Y0189150D02*
X0379043Y0189150D01*
X0378444Y0188551D02*
X0371900Y0188551D01*
X0371900Y0187953D02*
X0377845Y0187953D01*
X0377247Y0187354D02*
X0371900Y0187354D01*
X0371900Y0186756D02*
X0376648Y0186756D01*
X0376050Y0186157D02*
X0371900Y0186157D01*
X0371900Y0185559D02*
X0375451Y0185559D01*
X0374853Y0184960D02*
X0371900Y0184960D01*
X0371900Y0184362D02*
X0374254Y0184362D01*
X0373656Y0183763D02*
X0371900Y0183763D01*
X0371900Y0183165D02*
X0373057Y0183165D01*
X0372459Y0182566D02*
X0371900Y0182566D01*
X0380022Y0174187D02*
X0380778Y0174187D01*
X0381376Y0173588D02*
X0379424Y0173588D01*
X0378825Y0172990D02*
X0381975Y0172990D01*
X0382573Y0172391D02*
X0378227Y0172391D01*
X0377628Y0171793D02*
X0383172Y0171793D01*
X0383770Y0171194D02*
X0377030Y0171194D01*
X0376431Y0170596D02*
X0384369Y0170596D01*
X0384967Y0169997D02*
X0375833Y0169997D01*
X0375234Y0169399D02*
X0385566Y0169399D01*
X0386164Y0168800D02*
X0374636Y0168800D01*
X0374037Y0168202D02*
X0386763Y0168202D01*
X0387361Y0167603D02*
X0373439Y0167603D01*
X0372840Y0167005D02*
X0387960Y0167005D01*
X0388558Y0166406D02*
X0372242Y0166406D01*
X0367692Y0164012D02*
X0317356Y0164012D01*
X0316757Y0164611D02*
X0367093Y0164611D01*
X0367050Y0165209D02*
X0316445Y0165209D01*
X0317043Y0165808D02*
X0367050Y0165808D01*
X0367050Y0166406D02*
X0317642Y0166406D01*
X0315600Y0162586D02*
X0315600Y0157486D01*
X0309300Y0151186D01*
X0309300Y0104986D01*
X0307500Y0103186D01*
X0307500Y0089086D01*
X0314100Y0082486D01*
X0314100Y0082386D01*
X0312497Y0085786D02*
X0308700Y0089583D01*
X0308700Y0096386D01*
X0313200Y0096386D01*
X0313200Y0099886D01*
X0313800Y0099886D01*
X0313800Y0100486D01*
X0313200Y0100486D01*
X0313200Y0103986D01*
X0309997Y0103986D01*
X0310500Y0104489D01*
X0310500Y0150689D01*
X0310650Y0150839D01*
X0310650Y0150554D01*
X0311968Y0149236D01*
X0313832Y0149236D01*
X0315150Y0150554D01*
X0315150Y0151186D01*
X0328303Y0151186D01*
X0314242Y0137125D01*
X0313832Y0137536D01*
X0311968Y0137536D01*
X0310650Y0136218D01*
X0310650Y0134354D01*
X0311968Y0133036D01*
X0313050Y0133036D01*
X0313050Y0131954D01*
X0314368Y0130636D01*
X0316232Y0130636D01*
X0317282Y0131686D01*
X0325397Y0131686D01*
X0328997Y0135286D01*
X0331918Y0135286D01*
X0331650Y0135018D01*
X0331650Y0133154D01*
X0332968Y0131836D01*
X0334453Y0131836D01*
X0344100Y0122189D01*
X0344100Y0107268D01*
X0343050Y0106218D01*
X0343050Y0104354D01*
X0343818Y0103586D01*
X0335397Y0103586D01*
X0337247Y0105436D01*
X0338732Y0105436D01*
X0340050Y0106754D01*
X0340050Y0108618D01*
X0338732Y0109936D01*
X0336868Y0109936D01*
X0335550Y0108618D01*
X0335550Y0107133D01*
X0327403Y0098986D01*
X0326700Y0098283D01*
X0326700Y0087483D01*
X0320000Y0080783D01*
X0320000Y0085259D01*
X0319473Y0085786D01*
X0312497Y0085786D01*
X0312077Y0086206D02*
X0325423Y0086206D01*
X0326021Y0086804D02*
X0311479Y0086804D01*
X0310880Y0087403D02*
X0326620Y0087403D01*
X0326700Y0088001D02*
X0310282Y0088001D01*
X0309683Y0088600D02*
X0326700Y0088600D01*
X0326700Y0089198D02*
X0309085Y0089198D01*
X0308700Y0089797D02*
X0326700Y0089797D01*
X0326700Y0090395D02*
X0308700Y0090395D01*
X0308700Y0090994D02*
X0326700Y0090994D01*
X0326700Y0091592D02*
X0308700Y0091592D01*
X0308700Y0092191D02*
X0326700Y0092191D01*
X0326700Y0092789D02*
X0308700Y0092789D01*
X0308700Y0093388D02*
X0326700Y0093388D01*
X0326700Y0093986D02*
X0308700Y0093986D01*
X0308700Y0094585D02*
X0326700Y0094585D01*
X0326700Y0095183D02*
X0308700Y0095183D01*
X0308700Y0095782D02*
X0326700Y0095782D01*
X0326700Y0096380D02*
X0308700Y0096380D01*
X0313200Y0096979D02*
X0313800Y0096979D01*
X0313800Y0096386D02*
X0318671Y0096386D01*
X0319002Y0096474D01*
X0319298Y0096646D01*
X0319540Y0096888D01*
X0319711Y0097184D01*
X0319800Y0097515D01*
X0319800Y0099886D01*
X0313800Y0099886D01*
X0313800Y0096386D01*
X0313800Y0097577D02*
X0313200Y0097577D01*
X0313200Y0098176D02*
X0313800Y0098176D01*
X0313800Y0098774D02*
X0313200Y0098774D01*
X0313200Y0099373D02*
X0313800Y0099373D01*
X0313800Y0099971D02*
X0328389Y0099971D01*
X0327790Y0099373D02*
X0319800Y0099373D01*
X0319800Y0098774D02*
X0327192Y0098774D01*
X0326700Y0098176D02*
X0319800Y0098176D01*
X0319800Y0097577D02*
X0326700Y0097577D01*
X0326700Y0096979D02*
X0319593Y0096979D01*
X0319800Y0100486D02*
X0313800Y0100486D01*
X0313800Y0103986D01*
X0318671Y0103986D01*
X0319002Y0103897D01*
X0319298Y0103726D01*
X0319540Y0103484D01*
X0319711Y0103188D01*
X0319800Y0102857D01*
X0319800Y0100486D01*
X0319800Y0100570D02*
X0328987Y0100570D01*
X0329586Y0101168D02*
X0319800Y0101168D01*
X0319800Y0101767D02*
X0330184Y0101767D01*
X0330783Y0102366D02*
X0319800Y0102366D01*
X0319771Y0102964D02*
X0331381Y0102964D01*
X0331980Y0103563D02*
X0319462Y0103563D01*
X0313800Y0103563D02*
X0313200Y0103563D01*
X0313200Y0102964D02*
X0313800Y0102964D01*
X0313800Y0102366D02*
X0313200Y0102366D01*
X0313200Y0101767D02*
X0313800Y0101767D01*
X0313800Y0101168D02*
X0313200Y0101168D01*
X0313200Y0100570D02*
X0313800Y0100570D01*
X0310172Y0104161D02*
X0332578Y0104161D01*
X0333177Y0104760D02*
X0310500Y0104760D01*
X0310500Y0105358D02*
X0333775Y0105358D01*
X0334374Y0105957D02*
X0310500Y0105957D01*
X0310500Y0106555D02*
X0334972Y0106555D01*
X0335550Y0107154D02*
X0310500Y0107154D01*
X0310500Y0107752D02*
X0335550Y0107752D01*
X0335550Y0108351D02*
X0310500Y0108351D01*
X0310500Y0108949D02*
X0335881Y0108949D01*
X0336480Y0109548D02*
X0310500Y0109548D01*
X0310500Y0110146D02*
X0344100Y0110146D01*
X0344100Y0109548D02*
X0339120Y0109548D01*
X0339719Y0108949D02*
X0344100Y0108949D01*
X0344100Y0108351D02*
X0340050Y0108351D01*
X0340050Y0107752D02*
X0344100Y0107752D01*
X0343986Y0107154D02*
X0340050Y0107154D01*
X0339851Y0106555D02*
X0343387Y0106555D01*
X0343050Y0105957D02*
X0339253Y0105957D01*
X0337169Y0105358D02*
X0343050Y0105358D01*
X0343050Y0104760D02*
X0336571Y0104760D01*
X0335972Y0104161D02*
X0343243Y0104161D01*
X0345300Y0105286D02*
X0345300Y0122686D01*
X0333900Y0134086D01*
X0331650Y0134087D02*
X0327798Y0134087D01*
X0328396Y0134685D02*
X0331650Y0134685D01*
X0331916Y0135284D02*
X0328995Y0135284D01*
X0328500Y0136486D02*
X0324900Y0132886D01*
X0315300Y0132886D01*
X0313050Y0132890D02*
X0310500Y0132890D01*
X0310500Y0133488D02*
X0311516Y0133488D01*
X0310917Y0134087D02*
X0310500Y0134087D01*
X0310500Y0134685D02*
X0310650Y0134685D01*
X0310650Y0135284D02*
X0310500Y0135284D01*
X0310500Y0135882D02*
X0310650Y0135882D01*
X0310500Y0136481D02*
X0310913Y0136481D01*
X0310500Y0137079D02*
X0311511Y0137079D01*
X0310500Y0137678D02*
X0314795Y0137678D01*
X0315393Y0138276D02*
X0310500Y0138276D01*
X0310500Y0138875D02*
X0315992Y0138875D01*
X0316590Y0139473D02*
X0310500Y0139473D01*
X0310500Y0140072D02*
X0317189Y0140072D01*
X0317787Y0140670D02*
X0310500Y0140670D01*
X0310500Y0141269D02*
X0318386Y0141269D01*
X0318984Y0141867D02*
X0310500Y0141867D01*
X0310500Y0142466D02*
X0319583Y0142466D01*
X0320181Y0143064D02*
X0310500Y0143064D01*
X0310500Y0143663D02*
X0320780Y0143663D01*
X0321378Y0144261D02*
X0310500Y0144261D01*
X0310500Y0144860D02*
X0321977Y0144860D01*
X0322575Y0145458D02*
X0310500Y0145458D01*
X0310500Y0146057D02*
X0323174Y0146057D01*
X0323772Y0146655D02*
X0310500Y0146655D01*
X0310500Y0147254D02*
X0324371Y0147254D01*
X0324970Y0147852D02*
X0310500Y0147852D01*
X0310500Y0148451D02*
X0325568Y0148451D01*
X0326167Y0149049D02*
X0310500Y0149049D01*
X0310500Y0149648D02*
X0311556Y0149648D01*
X0310957Y0150246D02*
X0310500Y0150246D01*
X0314244Y0149648D02*
X0326765Y0149648D01*
X0327364Y0150246D02*
X0314843Y0150246D01*
X0315150Y0150845D02*
X0327962Y0150845D01*
X0330000Y0151186D02*
X0331800Y0151186D01*
X0349800Y0133186D01*
X0381900Y0133186D01*
X0374400Y0130186D02*
X0368400Y0130186D01*
X0374100Y0126886D02*
X0352800Y0126886D01*
X0330900Y0148786D01*
X0330000Y0151186D02*
X0314100Y0135286D01*
X0312900Y0135286D01*
X0313050Y0132291D02*
X0310500Y0132291D01*
X0310500Y0131693D02*
X0313311Y0131693D01*
X0313910Y0131094D02*
X0310500Y0131094D01*
X0310500Y0130496D02*
X0335793Y0130496D01*
X0335195Y0131094D02*
X0316690Y0131094D01*
X0310500Y0129897D02*
X0336392Y0129897D01*
X0336990Y0129299D02*
X0310500Y0129299D01*
X0310500Y0128700D02*
X0337589Y0128700D01*
X0338187Y0128101D02*
X0310500Y0128101D01*
X0310500Y0127503D02*
X0338786Y0127503D01*
X0339384Y0126904D02*
X0310500Y0126904D01*
X0310500Y0126306D02*
X0339983Y0126306D01*
X0340581Y0125707D02*
X0310500Y0125707D01*
X0310500Y0125109D02*
X0341180Y0125109D01*
X0341778Y0124510D02*
X0310500Y0124510D01*
X0310500Y0123912D02*
X0342377Y0123912D01*
X0342975Y0123313D02*
X0310500Y0123313D01*
X0310500Y0122715D02*
X0343574Y0122715D01*
X0344100Y0122116D02*
X0310500Y0122116D01*
X0310500Y0121518D02*
X0344100Y0121518D01*
X0344100Y0120919D02*
X0310500Y0120919D01*
X0310500Y0120321D02*
X0344100Y0120321D01*
X0344100Y0119722D02*
X0310500Y0119722D01*
X0310500Y0119124D02*
X0344100Y0119124D01*
X0344100Y0118525D02*
X0310500Y0118525D01*
X0310500Y0117927D02*
X0344100Y0117927D01*
X0344100Y0117328D02*
X0310500Y0117328D01*
X0310500Y0116730D02*
X0344100Y0116730D01*
X0344100Y0116131D02*
X0310500Y0116131D01*
X0310500Y0115533D02*
X0344100Y0115533D01*
X0344100Y0114934D02*
X0310500Y0114934D01*
X0310500Y0114336D02*
X0344100Y0114336D01*
X0344100Y0113737D02*
X0310500Y0113737D01*
X0310500Y0113139D02*
X0344100Y0113139D01*
X0344100Y0112540D02*
X0310500Y0112540D01*
X0310500Y0111942D02*
X0344100Y0111942D01*
X0344100Y0111343D02*
X0310500Y0111343D01*
X0310500Y0110745D02*
X0344100Y0110745D01*
X0337800Y0107686D02*
X0327900Y0097786D01*
X0327900Y0086986D01*
X0314400Y0073486D01*
X0312600Y0073486D01*
X0320000Y0080819D02*
X0320036Y0080819D01*
X0320000Y0081418D02*
X0320635Y0081418D01*
X0321233Y0082016D02*
X0320000Y0082016D01*
X0320000Y0082615D02*
X0321832Y0082615D01*
X0322430Y0083213D02*
X0320000Y0083213D01*
X0320000Y0083812D02*
X0323029Y0083812D01*
X0323627Y0084410D02*
X0320000Y0084410D01*
X0320000Y0085009D02*
X0324226Y0085009D01*
X0324824Y0085607D02*
X0319651Y0085607D01*
X0337544Y0075432D02*
X0350415Y0075432D01*
X0351014Y0074834D02*
X0336945Y0074834D01*
X0336347Y0074235D02*
X0351632Y0074235D01*
X0353077Y0073637D02*
X0335748Y0073637D01*
X0335150Y0073038D02*
X0354522Y0073038D01*
X0349817Y0076031D02*
X0338142Y0076031D01*
X0338741Y0076630D02*
X0349245Y0076630D01*
X0348997Y0077228D02*
X0339339Y0077228D01*
X0345038Y0077827D02*
X0348749Y0077827D01*
X0348501Y0078425D02*
X0345636Y0078425D01*
X0346235Y0079024D02*
X0348253Y0079024D01*
X0348005Y0079622D02*
X0346833Y0079622D01*
X0347432Y0080221D02*
X0348000Y0080221D01*
X0349200Y0086206D02*
X0349482Y0086206D01*
X0349200Y0086804D02*
X0350080Y0086804D01*
X0350679Y0087403D02*
X0349200Y0087403D01*
X0349200Y0088001D02*
X0351277Y0088001D01*
X0352268Y0088600D02*
X0349200Y0088600D01*
X0349200Y0089198D02*
X0353713Y0089198D01*
X0308100Y0105586D02*
X0303600Y0101086D01*
X0305100Y0105886D02*
X0305100Y0106486D01*
X0291600Y0119986D01*
X0297900Y0123586D02*
X0305700Y0115786D01*
X0305700Y0113386D01*
X0308100Y0116686D02*
X0308100Y0105586D01*
X0308100Y0116686D02*
X0297900Y0126886D01*
X0299700Y0129886D02*
X0299700Y0138586D01*
X0306900Y0145786D01*
X0306900Y0146986D01*
X0297900Y0144586D02*
X0290100Y0136786D01*
X0288900Y0139186D02*
X0279600Y0148486D01*
X0280800Y0149086D02*
X0279000Y0150886D01*
X0273600Y0150886D01*
X0271200Y0154486D02*
X0280800Y0154486D01*
X0280500Y0157786D02*
X0271200Y0157786D01*
X0281400Y0160186D02*
X0238200Y0160186D01*
X0234300Y0158986D02*
X0249000Y0144286D01*
X0268500Y0145486D02*
X0271800Y0142186D01*
X0280800Y0142186D01*
X0283050Y0141136D02*
X0281700Y0139786D01*
X0270600Y0139786D01*
X0280800Y0149086D02*
X0282300Y0149086D01*
X0287400Y0149086D01*
X0292200Y0153886D01*
X0299100Y0153886D01*
X0296700Y0160186D02*
X0288000Y0151486D01*
X0285300Y0151486D01*
X0287400Y0154186D02*
X0281400Y0160186D01*
X0302100Y0137686D02*
X0306900Y0132886D01*
X0325404Y0131693D02*
X0334596Y0131693D01*
X0332513Y0132291D02*
X0326002Y0132291D01*
X0326601Y0132890D02*
X0331914Y0132890D01*
X0331650Y0133488D02*
X0327199Y0133488D01*
X0328500Y0136486D02*
X0339900Y0136486D01*
X0345214Y0141269D02*
X0388286Y0141269D01*
X0388884Y0141867D02*
X0344616Y0141867D01*
X0344017Y0142466D02*
X0389483Y0142466D01*
X0390081Y0143064D02*
X0343419Y0143064D01*
X0342820Y0143663D02*
X0390680Y0143663D01*
X0391278Y0144261D02*
X0342222Y0144261D01*
X0341623Y0144860D02*
X0391877Y0144860D01*
X0392475Y0145458D02*
X0341025Y0145458D01*
X0340426Y0146057D02*
X0393074Y0146057D01*
X0393672Y0146655D02*
X0339828Y0146655D01*
X0339229Y0147254D02*
X0394271Y0147254D01*
X0394870Y0147852D02*
X0338630Y0147852D01*
X0338032Y0148451D02*
X0395468Y0148451D01*
X0396067Y0149049D02*
X0337433Y0149049D01*
X0336835Y0149648D02*
X0396665Y0149648D01*
X0397264Y0150246D02*
X0336236Y0150246D01*
X0335638Y0150845D02*
X0397862Y0150845D01*
X0398461Y0151443D02*
X0335039Y0151443D01*
X0334441Y0152042D02*
X0399059Y0152042D01*
X0399658Y0152640D02*
X0333842Y0152640D01*
X0333244Y0153239D02*
X0400256Y0153239D01*
X0387687Y0140670D02*
X0345813Y0140670D01*
X0346411Y0140072D02*
X0387089Y0140072D01*
X0386490Y0139473D02*
X0347010Y0139473D01*
X0347608Y0138875D02*
X0385892Y0138875D01*
X0385293Y0138276D02*
X0348207Y0138276D01*
X0348805Y0137678D02*
X0375110Y0137678D01*
X0374511Y0137079D02*
X0349404Y0137079D01*
X0377290Y0137678D02*
X0384695Y0137678D01*
X0430500Y0132586D02*
X0356400Y0058486D01*
X0313200Y0052786D02*
X0290700Y0052786D01*
X0287400Y0052786D02*
X0231900Y0052786D01*
X0227900Y0064061D02*
X0226100Y0064061D01*
X0226100Y0064659D02*
X0227900Y0064659D01*
X0227900Y0065258D02*
X0226100Y0065258D01*
X0226100Y0065856D02*
X0227900Y0065856D01*
X0227900Y0066455D02*
X0226100Y0066455D01*
X0226032Y0067053D02*
X0227900Y0067053D01*
X0228145Y0067652D02*
X0225877Y0067652D01*
X0225625Y0068250D02*
X0228392Y0068250D01*
X0228848Y0068849D02*
X0225253Y0068849D01*
X0244878Y0092789D02*
X0269115Y0092789D01*
X0275700Y0091486D02*
X0266600Y0082386D01*
X0278400Y0085186D02*
X0278400Y0089986D01*
X0275700Y0091486D02*
X0275700Y0108586D01*
X0267600Y0116686D01*
X0267600Y0126286D01*
X0202800Y0156586D02*
X0199200Y0152986D01*
X0199200Y0146686D01*
X0173100Y0120586D01*
X0077100Y0200986D02*
X0068700Y0192586D01*
X0094800Y0194536D02*
X0095400Y0194536D01*
X0095400Y0195135D02*
X0094800Y0195135D01*
X0094800Y0195733D02*
X0095400Y0195733D01*
X0095400Y0196332D02*
X0094800Y0196332D01*
X0094800Y0196930D02*
X0095400Y0196930D01*
X0371900Y0196930D02*
X0383347Y0196930D01*
X0382900Y0197529D02*
X0371900Y0197529D01*
X0371900Y0198127D02*
X0382900Y0198127D01*
X0382900Y0198726D02*
X0371900Y0198726D01*
X0371900Y0199324D02*
X0382900Y0199324D01*
X0382900Y0199923D02*
X0371900Y0199923D01*
X0371900Y0200521D02*
X0383227Y0200521D01*
X0383826Y0201120D02*
X0371900Y0201120D01*
X0371900Y0201718D02*
X0384424Y0201718D01*
X0383946Y0196332D02*
X0371900Y0196332D01*
X0383456Y0208901D02*
X0389100Y0208901D01*
X0389100Y0209499D02*
X0384054Y0209499D01*
X0384653Y0210098D02*
X0389100Y0210098D01*
X0389100Y0210696D02*
X0385251Y0210696D01*
X0385850Y0211295D02*
X0389100Y0211295D01*
X0389100Y0211893D02*
X0386448Y0211893D01*
X0387047Y0212492D02*
X0389100Y0212492D01*
X0389100Y0213090D02*
X0387400Y0213090D01*
X0387400Y0213689D02*
X0389100Y0213689D01*
X0389100Y0214287D02*
X0387400Y0214287D01*
X0387400Y0214886D02*
X0389100Y0214886D01*
X0389100Y0215484D02*
X0387400Y0215484D01*
X0387400Y0216083D02*
X0388506Y0216083D01*
X0387908Y0216681D02*
X0387400Y0216681D01*
X0380600Y0234038D02*
X0380000Y0234038D01*
X0380000Y0234637D02*
X0380600Y0234637D01*
X0380600Y0235235D02*
X0380000Y0235235D01*
X0380000Y0235834D02*
X0380600Y0235834D01*
X0380600Y0236432D02*
X0380000Y0236432D01*
X0380000Y0237031D02*
X0380600Y0237031D01*
X0380600Y0237629D02*
X0380000Y0237629D01*
X0380000Y0238228D02*
X0380600Y0238228D01*
X0380600Y0238826D02*
X0380000Y0238826D01*
X0380000Y0239425D02*
X0380600Y0239425D01*
X0380600Y0240023D02*
X0380000Y0240023D01*
X0380000Y0240622D02*
X0380600Y0240622D01*
X0371900Y0263964D02*
X0495151Y0263964D01*
X0494721Y0264562D02*
X0371900Y0264562D01*
X0371900Y0265161D02*
X0494291Y0265161D01*
X0493862Y0265759D02*
X0371900Y0265759D01*
X0371900Y0266358D02*
X0493432Y0266358D01*
X0492943Y0266956D02*
X0371900Y0266956D01*
X0371900Y0267555D02*
X0492320Y0267555D01*
X0491697Y0268153D02*
X0371900Y0268153D01*
X0371900Y0268752D02*
X0491074Y0268752D01*
X0490451Y0269350D02*
X0371900Y0269350D01*
X0371900Y0269949D02*
X0489828Y0269949D01*
X0489205Y0270547D02*
X0371900Y0270547D01*
X0371900Y0271146D02*
X0488582Y0271146D01*
X0487762Y0271744D02*
X0371900Y0271744D01*
X0371900Y0272343D02*
X0486853Y0272343D01*
X0485945Y0272941D02*
X0371900Y0272941D01*
X0371900Y0273540D02*
X0485037Y0273540D01*
X0484128Y0274138D02*
X0371900Y0274138D01*
X0371900Y0274737D02*
X0483220Y0274737D01*
X0481983Y0275335D02*
X0371900Y0275335D01*
X0371900Y0275934D02*
X0480567Y0275934D01*
X0479151Y0276532D02*
X0371900Y0276532D01*
X0371900Y0277131D02*
X0477735Y0277131D01*
X0475840Y0277729D02*
X0371900Y0277729D01*
X0371900Y0278328D02*
X0473128Y0278328D01*
X0470405Y0278926D02*
X0371900Y0278926D01*
X0387600Y0174886D02*
X0396300Y0174886D01*
X0397800Y0173386D01*
X0485100Y0052786D02*
X0485300Y0052786D01*
X0485100Y0052786D02*
X0485100Y0031786D01*
X0482400Y0029086D01*
X0490317Y0026355D02*
X0405900Y0026355D01*
X0405900Y0026953D02*
X0491178Y0026953D01*
X0491776Y0027552D02*
X0405900Y0027552D01*
X0405900Y0028150D02*
X0412639Y0028150D01*
X0412040Y0028749D02*
X0405900Y0028749D01*
X0405900Y0029347D02*
X0411442Y0029347D01*
X0410843Y0029946D02*
X0405900Y0029946D01*
X0405900Y0030544D02*
X0410245Y0030544D01*
X0409646Y0031143D02*
X0405900Y0031143D01*
X0405900Y0031741D02*
X0409048Y0031741D01*
X0408449Y0032340D02*
X0405900Y0032340D01*
X0405900Y0032938D02*
X0407851Y0032938D01*
X0407252Y0033537D02*
X0405900Y0033537D01*
X0405900Y0034135D02*
X0406654Y0034135D01*
X0406055Y0034734D02*
X0405900Y0034734D01*
X0405900Y0025756D02*
X0489436Y0025756D01*
X0488555Y0025158D02*
X0405900Y0025158D01*
X0405900Y0024559D02*
X0487674Y0024559D01*
X0486793Y0023961D02*
X0405900Y0023961D01*
X0405900Y0023362D02*
X0485629Y0023362D01*
X0484244Y0022763D02*
X0405900Y0022763D01*
X0405900Y0022165D02*
X0482860Y0022165D01*
X0481475Y0021566D02*
X0405900Y0021566D01*
X0405900Y0020968D02*
X0479086Y0020968D01*
X0476401Y0020369D02*
X0467255Y0020369D01*
D24*
X0405900Y0061486D03*
X0362100Y0069886D03*
X0325500Y0087886D03*
X0303600Y0101086D03*
X0305100Y0105886D03*
X0305700Y0109186D03*
X0305700Y0113386D03*
X0297900Y0123586D03*
X0297900Y0126886D03*
X0299700Y0129886D03*
X0306900Y0132886D03*
X0312900Y0135286D03*
X0315300Y0132886D03*
X0328500Y0133186D03*
X0333900Y0134086D03*
X0339900Y0136486D03*
X0330900Y0148786D03*
X0312900Y0151486D03*
X0306900Y0146986D03*
X0297900Y0148786D03*
X0297900Y0144586D03*
X0302100Y0137686D03*
X0288900Y0139186D03*
X0288900Y0131086D03*
X0289200Y0122986D03*
X0270300Y0128686D03*
X0267600Y0126286D03*
X0258000Y0133486D03*
X0251400Y0131086D03*
X0258600Y0141586D03*
X0267600Y0143086D03*
X0271200Y0146086D03*
X0276000Y0146086D03*
X0280800Y0142186D03*
X0276000Y0137386D03*
X0282300Y0149086D03*
X0285300Y0151486D03*
X0287400Y0154186D03*
X0280800Y0154486D03*
X0280500Y0157786D03*
X0271200Y0157786D03*
X0271200Y0154486D03*
X0273600Y0150886D03*
X0296700Y0160186D03*
X0299100Y0153886D03*
X0315600Y0162586D03*
X0369300Y0165586D03*
X0387600Y0174886D03*
X0392400Y0168586D03*
X0397800Y0173386D03*
X0400500Y0170986D03*
X0405900Y0176086D03*
X0418500Y0185386D03*
X0427200Y0181786D03*
X0444000Y0181786D03*
X0445200Y0171886D03*
X0435600Y0167686D03*
X0446100Y0164086D03*
X0420600Y0148186D03*
X0435600Y0139486D03*
X0434400Y0126586D03*
X0409200Y0126586D03*
X0404400Y0121786D03*
X0384900Y0130186D03*
X0376200Y0135586D03*
X0374400Y0130186D03*
X0374100Y0126886D03*
X0368400Y0130186D03*
X0373800Y0112486D03*
X0345300Y0105286D03*
X0337800Y0107686D03*
X0328500Y0123886D03*
X0273300Y0107686D03*
X0270300Y0094786D03*
X0278400Y0089986D03*
X0280800Y0082186D03*
X0284100Y0071086D03*
X0256500Y0075586D03*
X0255900Y0081886D03*
X0247200Y0080686D03*
X0247200Y0083986D03*
X0243900Y0090586D03*
X0230400Y0099886D03*
X0223500Y0102286D03*
X0227700Y0104686D03*
X0216000Y0108586D03*
X0203100Y0106186D03*
X0194700Y0107986D03*
X0192600Y0110686D03*
X0193800Y0104686D03*
X0180300Y0113386D03*
X0173100Y0120586D03*
X0155100Y0122986D03*
X0143700Y0120586D03*
X0138600Y0125686D03*
X0158400Y0134686D03*
X0163500Y0134686D03*
X0166800Y0134686D03*
X0178200Y0130786D03*
X0192300Y0126886D03*
X0195600Y0126886D03*
X0203400Y0131386D03*
X0218400Y0140386D03*
X0231900Y0141886D03*
X0236100Y0144286D03*
X0233700Y0146686D03*
X0236700Y0149086D03*
X0234300Y0151486D03*
X0232200Y0154186D03*
X0238200Y0160186D03*
X0249000Y0144286D03*
X0237900Y0124186D03*
X0232200Y0121786D03*
X0246300Y0118486D03*
X0210900Y0089686D03*
X0181500Y0094786D03*
X0170400Y0100186D03*
X0192900Y0117886D03*
X0196200Y0117886D03*
X0176400Y0144286D03*
X0180600Y0146686D03*
X0164100Y0143686D03*
X0157500Y0143686D03*
X0152100Y0141886D03*
X0148800Y0142486D03*
X0139800Y0140086D03*
X0136500Y0140086D03*
X0128400Y0144886D03*
X0127500Y0150586D03*
X0123600Y0151186D03*
X0119700Y0144886D03*
X0109800Y0134386D03*
X0109800Y0124186D03*
X0105000Y0116986D03*
X0076800Y0147586D03*
X0066000Y0147586D03*
X0048000Y0161086D03*
X0052800Y0167086D03*
X0065400Y0165886D03*
X0065400Y0169186D03*
X0079800Y0170086D03*
X0083100Y0167086D03*
X0083100Y0162886D03*
X0089100Y0173686D03*
X0084600Y0174886D03*
X0100200Y0175186D03*
X0105000Y0182686D03*
X0089100Y0189886D03*
X0091500Y0193486D03*
X0101400Y0200986D03*
X0104700Y0200986D03*
X0112800Y0212086D03*
X0111600Y0218086D03*
X0109200Y0220486D03*
X0114300Y0220186D03*
X0127500Y0217186D03*
X0131400Y0220786D03*
X0129000Y0223186D03*
X0115500Y0226786D03*
X0133800Y0240586D03*
X0125700Y0244786D03*
X0125700Y0253186D03*
X0116400Y0259186D03*
X0106200Y0269386D03*
X0102300Y0266686D03*
X0091500Y0263686D03*
X0083400Y0266686D03*
X0070200Y0268786D03*
X0070200Y0262186D03*
X0082500Y0248086D03*
X0081900Y0244786D03*
X0069900Y0242686D03*
X0082800Y0235486D03*
X0050400Y0232186D03*
X0050100Y0239086D03*
X0087600Y0212386D03*
X0077100Y0200986D03*
X0068700Y0192586D03*
X0057000Y0184786D03*
X0042900Y0194086D03*
X0039000Y0206686D03*
X0104100Y0167986D03*
X0109800Y0170086D03*
X0126000Y0162886D03*
X0104700Y0153586D03*
X0097500Y0148486D03*
X0204000Y0151486D03*
X0206400Y0149086D03*
X0129000Y0086986D03*
X0206700Y0069286D03*
X0205500Y0060586D03*
X0231900Y0052786D03*
X0263700Y0049186D03*
X0270300Y0035986D03*
X0294600Y0038686D03*
X0290700Y0052786D03*
X0287400Y0052786D03*
X0312600Y0073486D03*
X0326400Y0036286D03*
X0201600Y0040786D03*
X0391200Y0145786D03*
X0398700Y0153286D03*
X0403800Y0141286D03*
X0417000Y0161086D03*
X0463800Y0184786D03*
X0468000Y0197986D03*
X0449700Y0198886D03*
X0401400Y0192586D03*
X0396300Y0198586D03*
X0445800Y0228886D03*
X0383100Y0253186D03*
D25*
X0380300Y0233286D02*
X0380400Y0233086D01*
X0393600Y0219886D01*
X0393900Y0220186D01*
X0423300Y0220186D01*
X0432000Y0228886D01*
X0440100Y0228886D01*
X0440200Y0229086D01*
X0440700Y0228886D01*
X0445800Y0228886D01*
X0468000Y0247786D02*
X0474000Y0253786D01*
X0474100Y0253786D01*
X0468000Y0247786D02*
X0468000Y0197986D01*
X0467700Y0197686D01*
X0467700Y0180286D01*
X0432900Y0145486D01*
X0432900Y0139786D01*
X0363000Y0069886D01*
X0362100Y0069886D01*
X0325500Y0087886D02*
X0313500Y0099886D01*
X0313500Y0100186D01*
X0328500Y0115186D01*
X0328500Y0123886D01*
X0328500Y0133186D01*
X0300600Y0143386D02*
X0300600Y0146086D01*
X0297900Y0148786D01*
X0317400Y0168286D01*
X0369000Y0168286D01*
X0372300Y0171586D01*
X0372300Y0180286D01*
X0386100Y0194086D01*
X0386100Y0198586D01*
X0386300Y0198786D01*
X0393600Y0193786D02*
X0393800Y0193786D01*
X0394200Y0193486D01*
X0395100Y0192586D01*
X0401400Y0192586D01*
X0396300Y0198586D02*
X0409200Y0198586D01*
X0426000Y0181786D01*
X0427200Y0181786D01*
X0431100Y0181786D02*
X0420900Y0171586D01*
X0407100Y0171586D01*
X0401400Y0165886D01*
X0391200Y0165886D01*
X0380400Y0176686D01*
X0369300Y0165586D01*
X0380400Y0176686D02*
X0389400Y0185686D01*
X0400500Y0174586D01*
X0400500Y0170986D01*
X0398700Y0153286D02*
X0391200Y0145786D01*
X0403800Y0141286D02*
X0409800Y0141286D01*
X0435600Y0167086D01*
X0435600Y0167686D01*
X0439200Y0164086D01*
X0440200Y0164086D01*
X0444000Y0181786D02*
X0431100Y0181786D01*
X0393600Y0193786D02*
X0393600Y0219886D01*
X0386300Y0188786D02*
X0389400Y0185686D01*
X0300600Y0143386D02*
X0295200Y0137986D01*
X0295200Y0119686D01*
X0305700Y0109186D01*
X0273300Y0107686D02*
X0266100Y0100486D01*
X0266000Y0100186D01*
X0230400Y0100186D01*
X0230400Y0099886D01*
X0230400Y0100186D02*
X0225300Y0100186D01*
X0224700Y0099586D01*
X0222300Y0099586D01*
X0220500Y0101386D01*
X0220500Y0103186D01*
X0219600Y0104086D01*
X0204900Y0104086D01*
X0204300Y0103486D01*
X0201900Y0103486D01*
X0199200Y0106186D01*
X0201300Y0108286D01*
X0201300Y0120286D01*
X0200700Y0120886D01*
X0200700Y0152086D01*
X0202800Y0154186D01*
X0232200Y0154186D01*
X0180300Y0113386D02*
X0170400Y0113386D01*
X0128700Y0155086D01*
X0128100Y0155086D01*
X0122100Y0161086D01*
X0122100Y0170386D01*
X0126000Y0174286D01*
X0126000Y0193486D01*
X0123900Y0195586D01*
X0135900Y0207586D01*
X0135900Y0225886D01*
X0133800Y0227986D01*
X0133800Y0240586D01*
X0128400Y0243586D02*
X0128400Y0254386D01*
X0124200Y0258586D01*
X0121500Y0258586D01*
X0121005Y0258561D01*
X0120900Y0258286D01*
X0120900Y0257086D01*
X0121005Y0256593D01*
X0120900Y0256486D01*
X0120900Y0254686D01*
X0121005Y0254624D01*
X0124200Y0258586D02*
X0124800Y0259186D01*
X0124800Y0263686D01*
X0123900Y0264586D01*
X0121200Y0264586D01*
X0121005Y0264467D01*
X0121005Y0262498D02*
X0120300Y0262486D01*
X0116400Y0262486D01*
X0116400Y0259186D01*
X0116400Y0262486D02*
X0113100Y0262486D01*
X0106200Y0269386D01*
X0120900Y0262486D02*
X0120900Y0260686D01*
X0121005Y0260530D01*
X0120900Y0262486D02*
X0121005Y0262498D01*
X0121005Y0242813D02*
X0120900Y0242686D01*
X0120900Y0241186D01*
X0121005Y0240845D01*
X0121500Y0241186D01*
X0126000Y0241186D01*
X0128400Y0243586D01*
X0121005Y0240845D02*
X0120900Y0240586D01*
X0120900Y0239386D01*
X0121005Y0238876D01*
X0120900Y0238786D01*
X0120900Y0237286D01*
X0121005Y0236908D01*
X0120900Y0236686D01*
X0120900Y0235186D01*
X0121005Y0234939D01*
X0120300Y0235186D01*
X0116400Y0235186D01*
X0114000Y0232786D01*
X0097800Y0232786D01*
X0090900Y0225886D01*
X0094800Y0221986D01*
X0094800Y0212686D01*
X0095100Y0212286D01*
X0095100Y0197286D01*
X0094800Y0196786D01*
X0091500Y0193486D01*
X0109950Y0169936D02*
X0117600Y0177586D01*
X0120900Y0177586D01*
X0121005Y0177853D01*
X0109950Y0169936D02*
X0109800Y0170086D01*
X0109950Y0169936D02*
X0105300Y0165286D01*
X0089100Y0165286D01*
X0087900Y0166486D01*
X0087700Y0166586D01*
X0087600Y0167086D01*
X0083100Y0167086D01*
X0121005Y0195569D02*
X0121200Y0195586D01*
X0123900Y0195586D01*
X0121005Y0199506D02*
X0120900Y0199786D01*
X0120900Y0201286D01*
X0121005Y0201475D01*
X0120900Y0201886D01*
X0120900Y0203386D01*
X0121005Y0203443D01*
X0120900Y0203986D01*
X0120900Y0205186D01*
X0121005Y0205412D01*
X0120900Y0205786D01*
X0120900Y0207286D01*
X0121005Y0207380D01*
X0120900Y0207886D01*
X0120900Y0209086D01*
X0121005Y0209349D01*
X0120900Y0209686D01*
X0120900Y0211186D01*
X0121005Y0211317D01*
X0120900Y0211786D01*
X0120900Y0213286D01*
X0121005Y0213286D01*
X0121500Y0213586D01*
X0128100Y0213586D01*
X0134100Y0219586D01*
X0134100Y0224986D01*
X0124200Y0234886D01*
X0121500Y0234886D01*
X0121005Y0234939D01*
X0121005Y0217223D02*
X0120900Y0217186D01*
X0120900Y0215686D01*
X0121005Y0215254D01*
X0120900Y0215086D01*
X0120900Y0213586D01*
X0121005Y0213286D01*
X0090900Y0225886D02*
X0087700Y0229086D01*
X0073741Y0248786D02*
X0073800Y0248986D01*
X0073800Y0256186D01*
X0073741Y0256286D01*
X0073800Y0256786D01*
X0073800Y0263686D01*
X0073741Y0263786D01*
X0073500Y0262186D01*
X0070200Y0262186D01*
X0070200Y0268786D02*
X0072600Y0271186D01*
X0073500Y0271186D01*
X0073741Y0271286D01*
X0050100Y0239086D02*
X0050400Y0238786D01*
X0050400Y0232186D01*
X0193200Y0100186D02*
X0199200Y0106186D01*
X0193200Y0100186D02*
X0188500Y0100186D01*
X0170400Y0100186D01*
X0181500Y0094786D02*
X0270300Y0094786D01*
X0214200Y0040786D02*
X0201600Y0040786D01*
X0214200Y0040786D02*
X0216300Y0038686D01*
X0294600Y0038686D01*
M02*
