G75*
%MOIN*%
%OFA0B0*%
%FSLAX25Y25*%
%IPPOS*%
%LPD*%
%AMOC8*
5,1,8,0,0,1.08239X$1,22.5*
%
%ADD10C,0.20800*%
%ADD11C,0.08800*%
%ADD12R,0.06050X0.06050*%
%ADD13OC8,0.05800*%
%ADD14R,0.03556X0.04343*%
%ADD15R,0.10800X0.05800*%
%ADD16R,0.05800X0.10800*%
%ADD17OC8,0.09300*%
%ADD18C,0.06800*%
%ADD19R,0.03900X0.04300*%
%ADD20OC8,0.13200*%
%ADD21R,0.05512X0.01575*%
%ADD22R,0.09252X0.07480*%
%ADD23C,0.05524*%
%ADD24C,0.06706*%
%ADD25C,0.03500*%
D10*
X0121300Y0049786D03*
X0391300Y0049786D03*
X0411300Y0248786D03*
X0101300Y0248786D03*
D11*
X0156300Y0081286D03*
X0356300Y0081286D03*
D12*
X0026300Y0053786D03*
X0026300Y0093786D03*
X0101300Y0093786D03*
X0101300Y0053786D03*
X0410300Y0052786D03*
X0410300Y0092786D03*
X0485300Y0092786D03*
X0485300Y0052786D03*
D13*
X0386300Y0188786D03*
X0393800Y0193786D03*
X0386300Y0198786D03*
D14*
X0101859Y0189786D03*
X0096741Y0189786D03*
X0096741Y0179786D03*
X0101859Y0179786D03*
X0101359Y0226286D03*
X0096241Y0226286D03*
X0078359Y0242286D03*
X0073241Y0242286D03*
X0073741Y0248786D03*
X0078859Y0248786D03*
X0078859Y0256286D03*
X0073741Y0256286D03*
X0073741Y0263786D03*
X0078859Y0263786D03*
X0078859Y0271286D03*
X0073741Y0271286D03*
D15*
X0188500Y0100186D03*
X0214100Y0100186D03*
X0214100Y0082386D03*
X0189100Y0082386D03*
X0266000Y0100186D03*
X0291600Y0100186D03*
X0313500Y0100186D03*
X0339100Y0100186D03*
X0339100Y0082386D03*
X0314100Y0082386D03*
X0291600Y0082386D03*
X0266600Y0082386D03*
D16*
X0422400Y0138486D03*
X0440200Y0138486D03*
X0440200Y0164086D03*
X0422400Y0163486D03*
X0422400Y0203486D03*
X0440200Y0203486D03*
X0440200Y0229086D03*
X0422400Y0228486D03*
X0087700Y0229086D03*
X0069900Y0228486D03*
X0069900Y0203486D03*
X0087700Y0203486D03*
X0087700Y0166586D03*
X0069900Y0165986D03*
X0069900Y0140986D03*
X0087700Y0140986D03*
D17*
X0448500Y0253786D03*
X0474100Y0253786D03*
D18*
X0291800Y0066286D02*
X0291800Y0060286D01*
X0281800Y0060286D02*
X0281800Y0066286D01*
X0271800Y0066286D02*
X0271800Y0060286D01*
X0261800Y0060286D02*
X0261800Y0066286D01*
X0251800Y0066286D02*
X0251800Y0060286D01*
X0241800Y0060286D02*
X0241800Y0066286D01*
X0231800Y0066286D02*
X0231800Y0060286D01*
X0221800Y0060286D02*
X0221800Y0066286D01*
D19*
X0102700Y0197286D03*
X0095100Y0197286D03*
X0098900Y0205286D03*
X0095100Y0212286D03*
X0102700Y0212286D03*
X0098900Y0220286D03*
D20*
X0380300Y0215786D03*
X0380300Y0233286D03*
D21*
X0121005Y0232971D03*
X0121005Y0234939D03*
X0121005Y0236908D03*
X0121005Y0238876D03*
X0121005Y0240845D03*
X0121005Y0242813D03*
X0121005Y0244782D03*
X0121005Y0246750D03*
X0121005Y0248719D03*
X0121005Y0250687D03*
X0121005Y0252656D03*
X0121005Y0254624D03*
X0121005Y0256593D03*
X0121005Y0258561D03*
X0121005Y0260530D03*
X0121005Y0262498D03*
X0121005Y0264467D03*
X0121005Y0231002D03*
X0121005Y0229034D03*
X0121005Y0227065D03*
X0121005Y0225097D03*
X0121005Y0223128D03*
X0121005Y0221160D03*
X0121005Y0219191D03*
X0121005Y0217223D03*
X0121005Y0215254D03*
X0121005Y0213286D03*
X0121005Y0211317D03*
X0121005Y0209349D03*
X0121005Y0207380D03*
X0121005Y0205412D03*
X0121005Y0203443D03*
X0121005Y0201475D03*
X0121005Y0199506D03*
X0121005Y0197538D03*
X0121005Y0195569D03*
X0121005Y0193601D03*
X0121005Y0191632D03*
X0121005Y0189664D03*
X0121005Y0187695D03*
X0121005Y0185727D03*
X0121005Y0183758D03*
X0121005Y0181790D03*
X0121005Y0179821D03*
X0121005Y0177853D03*
D22*
X0133800Y0170372D03*
X0133800Y0271947D03*
D23*
X0173686Y0066361D02*
X0178410Y0066361D01*
X0149867Y0050613D02*
X0149867Y0045888D01*
X0140418Y0051400D02*
X0140418Y0056124D01*
X0178213Y0038408D02*
X0178213Y0033683D01*
X0162662Y0023054D02*
X0157938Y0023054D01*
X0335918Y0051400D02*
X0335918Y0056124D01*
X0345367Y0050613D02*
X0345367Y0045888D01*
X0373713Y0038408D02*
X0373713Y0033683D01*
X0358162Y0023054D02*
X0353438Y0023054D01*
X0369186Y0066361D02*
X0373910Y0066361D01*
D24*
X0326170Y0048825D02*
X0326170Y0042920D01*
X0326170Y0029928D02*
X0326170Y0024022D01*
X0297430Y0024022D02*
X0297430Y0029928D01*
X0297430Y0042920D02*
X0297430Y0048825D01*
X0218170Y0048825D02*
X0218170Y0042920D01*
X0218170Y0029928D02*
X0218170Y0024022D01*
X0189430Y0024022D02*
X0189430Y0029928D01*
X0189430Y0042920D02*
X0189430Y0048825D01*
D25*
X0201600Y0040786D03*
X0205500Y0060586D03*
X0206700Y0069286D03*
X0231900Y0052786D03*
X0263700Y0049186D03*
X0270300Y0035986D03*
X0294600Y0038686D03*
X0290700Y0052786D03*
X0287400Y0052786D03*
X0284100Y0071086D03*
X0280800Y0082186D03*
X0278400Y0089986D03*
X0270300Y0094786D03*
X0255900Y0081886D03*
X0247200Y0080686D03*
X0247200Y0083986D03*
X0256500Y0075586D03*
X0243900Y0090586D03*
X0230400Y0099886D03*
X0223500Y0102286D03*
X0227700Y0104686D03*
X0216000Y0108586D03*
X0203100Y0106186D03*
X0194700Y0107986D03*
X0192600Y0110686D03*
X0193800Y0104686D03*
X0180300Y0113386D03*
X0173100Y0120586D03*
X0155100Y0122986D03*
X0143700Y0120586D03*
X0138600Y0125686D03*
X0158400Y0134686D03*
X0163500Y0134686D03*
X0166800Y0134686D03*
X0178200Y0130786D03*
X0192300Y0126886D03*
X0195600Y0126886D03*
X0203400Y0131386D03*
X0218400Y0140386D03*
X0231900Y0141886D03*
X0236100Y0144286D03*
X0233700Y0146686D03*
X0236700Y0149086D03*
X0234300Y0151486D03*
X0232200Y0154186D03*
X0238200Y0160186D03*
X0249000Y0144286D03*
X0258600Y0141586D03*
X0258000Y0133486D03*
X0251400Y0131086D03*
X0237900Y0124186D03*
X0232200Y0121786D03*
X0246300Y0118486D03*
X0267600Y0126286D03*
X0270300Y0128686D03*
X0276000Y0137386D03*
X0280800Y0142186D03*
X0276000Y0146086D03*
X0271200Y0146086D03*
X0267600Y0143086D03*
X0273600Y0150886D03*
X0271200Y0154486D03*
X0271200Y0157786D03*
X0280500Y0157786D03*
X0280800Y0154486D03*
X0285300Y0151486D03*
X0287400Y0154186D03*
X0282300Y0149086D03*
X0297900Y0148786D03*
X0306900Y0146986D03*
X0297900Y0144586D03*
X0302100Y0137686D03*
X0306900Y0132886D03*
X0299700Y0129886D03*
X0297900Y0126886D03*
X0297900Y0123586D03*
X0289200Y0122986D03*
X0288900Y0131086D03*
X0288900Y0139186D03*
X0312900Y0135286D03*
X0315300Y0132886D03*
X0328500Y0133186D03*
X0333900Y0134086D03*
X0339900Y0136486D03*
X0330900Y0148786D03*
X0312900Y0151486D03*
X0299100Y0153886D03*
X0296700Y0160186D03*
X0315600Y0162586D03*
X0369300Y0165586D03*
X0387600Y0174886D03*
X0392400Y0168586D03*
X0397800Y0173386D03*
X0400500Y0170986D03*
X0405900Y0176086D03*
X0418500Y0185386D03*
X0427200Y0181786D03*
X0444000Y0181786D03*
X0445200Y0171886D03*
X0435600Y0167686D03*
X0446100Y0164086D03*
X0420600Y0148186D03*
X0435600Y0139486D03*
X0434400Y0126586D03*
X0409200Y0126586D03*
X0404400Y0121786D03*
X0384900Y0130186D03*
X0376200Y0135586D03*
X0374400Y0130186D03*
X0374100Y0126886D03*
X0368400Y0130186D03*
X0373800Y0112486D03*
X0345300Y0105286D03*
X0337800Y0107686D03*
X0328500Y0123886D03*
X0305700Y0113386D03*
X0305700Y0109186D03*
X0305100Y0105886D03*
X0303600Y0101086D03*
X0325500Y0087886D03*
X0312600Y0073486D03*
X0362100Y0069886D03*
X0405900Y0061486D03*
X0326400Y0036286D03*
X0210900Y0089686D03*
X0181500Y0094786D03*
X0170400Y0100186D03*
X0192900Y0117886D03*
X0196200Y0117886D03*
X0176400Y0144286D03*
X0180600Y0146686D03*
X0164100Y0143686D03*
X0157500Y0143686D03*
X0152100Y0141886D03*
X0148800Y0142486D03*
X0139800Y0140086D03*
X0136500Y0140086D03*
X0128400Y0144886D03*
X0127500Y0150586D03*
X0123600Y0151186D03*
X0119700Y0144886D03*
X0109800Y0134386D03*
X0109800Y0124186D03*
X0105000Y0116986D03*
X0076800Y0147586D03*
X0066000Y0147586D03*
X0048000Y0161086D03*
X0052800Y0167086D03*
X0065400Y0165886D03*
X0065400Y0169186D03*
X0079800Y0170086D03*
X0083100Y0167086D03*
X0083100Y0162886D03*
X0089100Y0173686D03*
X0084600Y0174886D03*
X0100200Y0175186D03*
X0105000Y0182686D03*
X0089100Y0189886D03*
X0091500Y0193486D03*
X0101400Y0200986D03*
X0104700Y0200986D03*
X0112800Y0212086D03*
X0111600Y0218086D03*
X0109200Y0220486D03*
X0114300Y0220186D03*
X0127500Y0217186D03*
X0131400Y0220786D03*
X0129000Y0223186D03*
X0115500Y0226786D03*
X0133800Y0240586D03*
X0125700Y0244786D03*
X0125700Y0253186D03*
X0116400Y0259186D03*
X0106200Y0269386D03*
X0102300Y0266686D03*
X0091500Y0263686D03*
X0083400Y0266686D03*
X0070200Y0268786D03*
X0070200Y0262186D03*
X0082500Y0248086D03*
X0081900Y0244786D03*
X0069900Y0242686D03*
X0082800Y0235486D03*
X0050400Y0232186D03*
X0050100Y0239086D03*
X0087600Y0212386D03*
X0077100Y0200986D03*
X0068700Y0192586D03*
X0057000Y0184786D03*
X0042900Y0194086D03*
X0039000Y0206686D03*
X0104100Y0167986D03*
X0109800Y0170086D03*
X0126000Y0162886D03*
X0104700Y0153586D03*
X0097500Y0148486D03*
X0204000Y0151486D03*
X0206400Y0149086D03*
X0273300Y0107686D03*
X0391200Y0145786D03*
X0398700Y0153286D03*
X0403800Y0141286D03*
X0417000Y0161086D03*
X0463800Y0184786D03*
X0468000Y0197986D03*
X0449700Y0198886D03*
X0401400Y0192586D03*
X0396300Y0198586D03*
X0445800Y0228886D03*
X0383100Y0253186D03*
X0129000Y0086986D03*
M02*
