G75*
%MOIN*%
%OFA0B0*%
%FSLAX25Y25*%
%IPPOS*%
%LPD*%
%AMOC8*
5,1,8,0,0,1.08239X$1,22.5*
%
%ADD10C,0.25800*%
%ADD11R,0.06300X0.06300*%
%ADD12OC8,0.06000*%
%ADD13C,0.06800*%
%ADD14R,0.04343X0.03556*%
%ADD15R,0.03556X0.04343*%
%ADD16C,0.06000*%
%ADD17OC8,0.09300*%
%ADD18R,0.03900X0.04300*%
%ADD19R,0.05512X0.01575*%
%ADD20R,0.09252X0.07480*%
%ADD21C,0.05950*%
%ADD22C,0.06737*%
%ADD23C,0.03900*%
D10*
X0096000Y0269204D03*
X0401000Y0269204D03*
D11*
X0011000Y0071704D03*
X0011000Y0111704D03*
X0086000Y0111704D03*
X0086000Y0071704D03*
X0416000Y0071704D03*
X0416000Y0111704D03*
X0491000Y0111704D03*
X0491000Y0071704D03*
D12*
X0381000Y0211704D03*
X0388500Y0216704D03*
X0381000Y0221704D03*
D13*
X0417100Y0223404D02*
X0417100Y0229404D01*
X0434900Y0229404D02*
X0434900Y0223404D01*
X0434900Y0249004D02*
X0434900Y0255004D01*
X0417100Y0255004D02*
X0417100Y0249004D01*
X0417100Y0190004D02*
X0417100Y0184004D01*
X0434900Y0184004D02*
X0434900Y0190004D01*
X0409000Y0166704D02*
X0403000Y0166704D01*
X0417100Y0164404D02*
X0417100Y0158404D01*
X0434900Y0158404D02*
X0434900Y0164404D01*
X0409000Y0146704D02*
X0403000Y0146704D01*
X0379000Y0146704D02*
X0373000Y0146704D01*
X0373000Y0126704D02*
X0379000Y0126704D01*
X0403000Y0126704D02*
X0409000Y0126704D01*
X0409000Y0096704D02*
X0403000Y0096704D01*
X0379000Y0096704D02*
X0373000Y0096704D01*
X0329900Y0098404D02*
X0329900Y0104404D01*
X0312100Y0104404D02*
X0312100Y0098404D01*
X0282400Y0098404D02*
X0282400Y0104404D01*
X0264600Y0104404D02*
X0264600Y0098404D01*
X0264600Y0124004D02*
X0264600Y0130004D01*
X0282400Y0130004D02*
X0282400Y0124004D01*
X0312100Y0124004D02*
X0312100Y0130004D01*
X0329900Y0130004D02*
X0329900Y0124004D01*
X0373000Y0166704D02*
X0379000Y0166704D01*
X0204900Y0130004D02*
X0204900Y0124004D01*
X0187100Y0124004D02*
X0187100Y0130004D01*
X0187100Y0104404D02*
X0187100Y0098404D01*
X0204900Y0098404D02*
X0204900Y0104404D01*
X0129000Y0096704D02*
X0123000Y0096704D01*
X0099000Y0096704D02*
X0093000Y0096704D01*
X0093000Y0126704D02*
X0099000Y0126704D01*
X0123000Y0126704D02*
X0129000Y0126704D01*
X0129000Y0146704D02*
X0123000Y0146704D01*
X0099000Y0146704D02*
X0093000Y0146704D01*
X0082400Y0160904D02*
X0082400Y0166904D01*
X0093000Y0166704D02*
X0099000Y0166704D01*
X0123000Y0166704D02*
X0129000Y0166704D01*
X0082400Y0186504D02*
X0082400Y0192504D01*
X0064600Y0192504D02*
X0064600Y0186504D01*
X0064600Y0166904D02*
X0064600Y0160904D01*
X0019000Y0216704D02*
X0013000Y0216704D01*
X0013000Y0226704D02*
X0019000Y0226704D01*
X0019000Y0236704D02*
X0013000Y0236704D01*
X0013000Y0246704D02*
X0019000Y0246704D01*
X0019000Y0256704D02*
X0013000Y0256704D01*
X0013000Y0266704D02*
X0019000Y0266704D01*
X0019000Y0276704D02*
X0013000Y0276704D01*
X0013000Y0286704D02*
X0019000Y0286704D01*
X0064600Y0255004D02*
X0064600Y0249004D01*
X0082400Y0249004D02*
X0082400Y0255004D01*
X0082400Y0229404D02*
X0082400Y0223404D01*
X0064600Y0223404D02*
X0064600Y0229404D01*
D14*
X0066000Y0216763D03*
X0066000Y0211645D03*
X0066000Y0204263D03*
X0066000Y0199145D03*
X0081000Y0209145D03*
X0081000Y0214263D03*
X0101000Y0204263D03*
X0101000Y0199145D03*
X0101000Y0236645D03*
X0101000Y0241763D03*
D15*
X0098559Y0249204D03*
X0093441Y0249204D03*
X0093559Y0211704D03*
X0088441Y0211704D03*
X0088441Y0191704D03*
X0093559Y0191704D03*
D16*
X0146000Y0114304D02*
X0146000Y0109104D01*
X0156000Y0109104D02*
X0156000Y0114304D01*
X0166000Y0114304D02*
X0166000Y0109104D01*
D17*
X0443200Y0276704D03*
X0468800Y0276704D03*
D18*
X0097200Y0228204D03*
X0089600Y0228204D03*
X0090900Y0235204D03*
X0087100Y0243204D03*
X0094700Y0243204D03*
X0093400Y0220204D03*
X0076100Y0208204D03*
X0072300Y0200204D03*
X0079900Y0200204D03*
X0087100Y0205704D03*
X0094700Y0205704D03*
X0090900Y0197704D03*
D19*
X0115705Y0203771D03*
X0115705Y0205739D03*
X0115705Y0207708D03*
X0115705Y0209676D03*
X0115705Y0211645D03*
X0115705Y0213613D03*
X0115705Y0215582D03*
X0115705Y0217550D03*
X0115705Y0219519D03*
X0115705Y0221487D03*
X0115705Y0223456D03*
X0115705Y0225424D03*
X0115705Y0227393D03*
X0115705Y0229361D03*
X0115705Y0231330D03*
X0115705Y0233298D03*
X0115705Y0235267D03*
X0115705Y0237235D03*
X0115705Y0239204D03*
X0115705Y0241172D03*
X0115705Y0243141D03*
X0115705Y0245109D03*
X0115705Y0247078D03*
X0115705Y0249046D03*
X0115705Y0251015D03*
X0115705Y0252983D03*
X0115705Y0254952D03*
X0115705Y0256920D03*
X0115705Y0258889D03*
X0115705Y0260857D03*
X0115705Y0262826D03*
X0115705Y0264794D03*
X0115705Y0266763D03*
X0115705Y0268731D03*
X0115705Y0270700D03*
X0115705Y0272669D03*
X0115705Y0274637D03*
X0115705Y0276606D03*
X0115705Y0278574D03*
X0115705Y0280543D03*
X0115705Y0282511D03*
X0115705Y0284480D03*
X0115705Y0286448D03*
X0115705Y0288417D03*
X0115705Y0290385D03*
D20*
X0128500Y0297865D03*
X0128500Y0196291D03*
D21*
X0164173Y0088279D02*
X0169323Y0088279D01*
X0140567Y0072743D02*
X0140567Y0067594D01*
X0131118Y0073106D02*
X0131118Y0078255D01*
X0168913Y0060539D02*
X0168913Y0055389D01*
X0153575Y0044972D02*
X0148425Y0044972D01*
X0331118Y0073106D02*
X0331118Y0078255D01*
X0340567Y0072743D02*
X0340567Y0067594D01*
X0368913Y0060539D02*
X0368913Y0055389D01*
X0353575Y0044972D02*
X0348425Y0044972D01*
X0364173Y0088279D02*
X0369323Y0088279D01*
D22*
X0320370Y0071759D02*
X0320370Y0065822D01*
X0320370Y0052861D02*
X0320370Y0046924D01*
X0291630Y0046924D02*
X0291630Y0052861D01*
X0291630Y0065822D02*
X0291630Y0071759D01*
X0207870Y0071759D02*
X0207870Y0065822D01*
X0207870Y0052861D02*
X0207870Y0046924D01*
X0179130Y0046924D02*
X0179130Y0052861D01*
X0179130Y0065822D02*
X0179130Y0071759D01*
D23*
X0187300Y0082004D03*
X0195400Y0082004D03*
X0210100Y0097904D03*
X0184300Y0111104D03*
X0162100Y0106004D03*
X0161800Y0119804D03*
X0152500Y0118004D03*
X0147700Y0133904D03*
X0141400Y0141704D03*
X0133300Y0142904D03*
X0129400Y0134204D03*
X0124900Y0135104D03*
X0107200Y0135104D03*
X0106600Y0139004D03*
X0112600Y0145004D03*
X0115300Y0150704D03*
X0111100Y0152204D03*
X0110500Y0156704D03*
X0118900Y0156104D03*
X0117100Y0164504D03*
X0111700Y0166304D03*
X0115300Y0174104D03*
X0109600Y0175904D03*
X0101800Y0181004D03*
X0102400Y0189104D03*
X0100300Y0194804D03*
X0096400Y0195104D03*
X0097300Y0201704D03*
X0091000Y0202904D03*
X0105100Y0203504D03*
X0105400Y0207404D03*
X0103000Y0217604D03*
X0095800Y0215804D03*
X0110800Y0223304D03*
X0105700Y0228404D03*
X0108400Y0235004D03*
X0097300Y0233804D03*
X0087100Y0233504D03*
X0091000Y0242204D03*
X0104500Y0248204D03*
X0108400Y0244304D03*
X0110800Y0247304D03*
X0110800Y0254804D03*
X0120700Y0254504D03*
X0120700Y0250604D03*
X0120700Y0246704D03*
X0129100Y0242204D03*
X0134500Y0240704D03*
X0123100Y0239204D03*
X0136900Y0230504D03*
X0125800Y0218804D03*
X0131800Y0211304D03*
X0145900Y0191204D03*
X0149800Y0191204D03*
X0159100Y0185504D03*
X0153700Y0183404D03*
X0164500Y0189104D03*
X0172600Y0182804D03*
X0174100Y0177404D03*
X0181900Y0172904D03*
X0185500Y0180104D03*
X0192100Y0174704D03*
X0199000Y0170804D03*
X0199600Y0165404D03*
X0191500Y0161504D03*
X0199600Y0157004D03*
X0196900Y0147704D03*
X0190900Y0145304D03*
X0191500Y0138704D03*
X0176200Y0147104D03*
X0176200Y0156404D03*
X0181000Y0158804D03*
X0159100Y0174404D03*
X0148600Y0166604D03*
X0135400Y0161804D03*
X0132700Y0159104D03*
X0156700Y0143804D03*
X0166900Y0135404D03*
X0171700Y0132704D03*
X0211300Y0117104D03*
X0227500Y0117104D03*
X0231400Y0117104D03*
X0237400Y0118304D03*
X0227500Y0124304D03*
X0234700Y0138404D03*
X0231100Y0143804D03*
X0226600Y0146504D03*
X0232900Y0149204D03*
X0228400Y0151904D03*
X0225400Y0154304D03*
X0223600Y0159704D03*
X0226600Y0162704D03*
X0239200Y0168104D03*
X0239200Y0176804D03*
X0229300Y0179504D03*
X0220300Y0182504D03*
X0217600Y0175904D03*
X0212800Y0170804D03*
X0199600Y0180104D03*
X0186700Y0191804D03*
X0138700Y0183704D03*
X0137800Y0187604D03*
X0125800Y0182804D03*
X0123100Y0185504D03*
X0088900Y0186704D03*
X0077500Y0178604D03*
X0061600Y0178604D03*
X0056800Y0187004D03*
X0072100Y0196304D03*
X0078700Y0196304D03*
X0076900Y0212804D03*
X0076600Y0219404D03*
X0070000Y0227204D03*
X0070000Y0231104D03*
X0074500Y0239204D03*
X0065500Y0242504D03*
X0057100Y0239204D03*
X0055000Y0244904D03*
X0052900Y0232604D03*
X0058000Y0218804D03*
X0038800Y0215804D03*
X0029500Y0222704D03*
X0033400Y0207704D03*
X0022900Y0195404D03*
X0008800Y0192704D03*
X0013300Y0208604D03*
X0033400Y0184904D03*
X0043900Y0174404D03*
X0043000Y0168404D03*
X0049600Y0164804D03*
X0043000Y0162104D03*
X0043000Y0151304D03*
X0045700Y0146804D03*
X0062200Y0141104D03*
X0068200Y0135104D03*
X0076300Y0132404D03*
X0063100Y0151304D03*
X0067900Y0156704D03*
X0061300Y0171104D03*
X0112600Y0121904D03*
X0121600Y0118004D03*
X0130300Y0118004D03*
X0135700Y0099704D03*
X0144400Y0097004D03*
X0144400Y0092804D03*
X0149800Y0091604D03*
X0117100Y0079304D03*
X0114400Y0088904D03*
X0111700Y0097004D03*
X0104500Y0100604D03*
X0155800Y0064604D03*
X0160300Y0056504D03*
X0173800Y0057104D03*
X0173800Y0046604D03*
X0230200Y0054104D03*
X0238600Y0051704D03*
X0242500Y0059204D03*
X0242500Y0063104D03*
X0242200Y0070304D03*
X0239500Y0073004D03*
X0236800Y0085604D03*
X0239500Y0092504D03*
X0251200Y0097004D03*
X0251800Y0101504D03*
X0255700Y0115004D03*
X0250000Y0127604D03*
X0252700Y0131804D03*
X0247300Y0135704D03*
X0243700Y0143804D03*
X0252700Y0148604D03*
X0256600Y0148604D03*
X0268000Y0144404D03*
X0272200Y0145004D03*
X0284500Y0143204D03*
X0289900Y0142904D03*
X0273700Y0132104D03*
X0274900Y0125804D03*
X0272500Y0120704D03*
X0289000Y0116204D03*
X0320500Y0114104D03*
X0323200Y0116804D03*
X0329500Y0144104D03*
X0330700Y0150104D03*
X0336700Y0149204D03*
X0339400Y0146504D03*
X0343000Y0158504D03*
X0336700Y0168404D03*
X0330700Y0161204D03*
X0322600Y0162404D03*
X0304900Y0171104D03*
X0310000Y0176204D03*
X0329800Y0178904D03*
X0361900Y0156704D03*
X0362500Y0152804D03*
X0370300Y0162104D03*
X0382900Y0150104D03*
X0387700Y0149204D03*
X0373000Y0141404D03*
X0370000Y0119804D03*
X0415600Y0142304D03*
X0431800Y0142604D03*
X0391600Y0172304D03*
X0387700Y0172304D03*
X0386800Y0189704D03*
X0394900Y0192404D03*
X0392500Y0195404D03*
X0384400Y0197504D03*
X0386500Y0205004D03*
X0406600Y0216104D03*
X0415600Y0216104D03*
X0426100Y0215504D03*
X0436300Y0214904D03*
X0460000Y0223904D03*
X0465400Y0214904D03*
X0460900Y0186704D03*
X0431500Y0244904D03*
X0424600Y0250304D03*
X0379300Y0256604D03*
X0376600Y0280904D03*
X0266800Y0181904D03*
X0263200Y0184604D03*
X0256900Y0184604D03*
X0253000Y0184604D03*
X0257800Y0169304D03*
X0252700Y0166604D03*
X0253600Y0159104D03*
X0244000Y0151304D03*
X0261100Y0136604D03*
X0271000Y0156404D03*
X0271300Y0161804D03*
X0274300Y0164204D03*
X0271300Y0171104D03*
X0283000Y0178604D03*
X0286900Y0174704D03*
X0286900Y0160904D03*
X0283000Y0161204D03*
X0283000Y0157304D03*
X0219100Y0141104D03*
X0278200Y0088604D03*
X0278200Y0082904D03*
X0303400Y0082904D03*
X0308200Y0065204D03*
X0259600Y0064304D03*
X0259600Y0058004D03*
X0254800Y0052604D03*
X0073900Y0246704D03*
X0120700Y0259004D03*
X0121900Y0270704D03*
X0120700Y0278204D03*
X0110800Y0284504D03*
X0107800Y0287804D03*
X0054400Y0292604D03*
M02*
