%
M48
M72
T01C0.01500
T02C0.03150
T03C0.03200
T04C0.03500
T05C0.03600
T06C0.03937
T07C0.04000
T08C0.07900
T09C0.08000
T10C0.22000
%
T01
X289558Y175239
X292858Y202239
X292858Y205539
X275158Y210339
X292858Y219339
X295558Y236139
X297358Y241239
X309658Y236139
X321058Y229539
X318358Y224739
X336958Y227139
X336958Y230439
X342658Y232839
X346858Y238239
X333058Y241539
X328258Y243339
X328858Y251439
X314458Y257739
X313858Y265839
X315958Y275439
X314158Y280539
X316558Y282939
X313858Y285639
X321658Y277839
X324058Y275439
X333658Y270339
X325558Y265539
X300358Y267639
X293158Y273339
X289258Y278139
X294058Y280539
X297958Y285939
X300358Y289239
X270358Y278139
X264958Y275739
X264658Y270939
X253858Y274839
X251458Y272439
X251458Y262239
X245158Y264339
X239458Y266739
X231358Y261939
X226858Y271539
X231058Y277239
X228658Y279639
X222658Y282339
X218758Y287739
X210358Y292839
X210358Y296139
X210358Y299439
X202858Y290139
X205258Y287739
X208558Y281139
X211858Y281139
X214258Y278739
X192058Y286839
X189358Y289239
X194758Y297039
X188758Y309039
X194758Y313539
X181258Y322539
X177658Y323439
X172858Y316239
X162358Y316539
X159958Y318939
X159058Y326439
X155758Y326739
X145558Y318939
X135358Y322239
X127258Y309339
X122158Y301239
X119758Y298539
X127258Y297339
X133858Y298839
X138358Y297939
X141358Y301539
X148558Y287739
X151558Y281139
X162058Y292839
X167458Y278739
X193258Y266739
X199258Y263739
X205258Y257739
X212158Y252639
X220858Y257739
X239758Y253239
X244558Y248439
X239158Y247239
X249658Y240039
X257758Y237639
X258058Y234039
X268858Y236739
X275158Y243039
X272458Y250839
X265258Y248439
X265258Y245139
X262858Y250839
X260158Y253539
X288058Y258639
X289258Y263139
X297358Y253539
X247558Y229539
X225658Y237639
X200458Y237639
X200458Y240939
X146758Y259839
X108358Y306639
X145858Y336339
X132958Y344739
X136258Y348339
X153958Y348339
X164458Y339639
X166858Y334239
X180058Y329139
X189958Y335139
X194758Y333639
X200158Y334239
X181558Y353439
X182158Y365139
X169858Y365139
X162358Y372339
X158458Y376539
X172558Y390339
X178558Y397839
X158758Y403539
X138658Y372939
X139258Y365439
X110158Y349539
X195358Y362739
X198058Y356739
X204958Y357339
X214258Y357039
X214258Y360339
X219658Y353439
X204958Y368439
X214258Y381039
X214258Y384339
X214258Y390639
X204658Y400839
X361258Y293139
X374158Y288039
X370258Y278439
X363058Y277839
X363658Y270339
X356158Y270339
X356158Y265539
X366058Y264339
X369358Y264639
X373558Y265539
X376858Y268839
X387058Y273039
X390058Y277839
X386758Y280239
X378358Y278439
X392158Y270339
X396958Y268839
X403558Y266139
X401458Y275439
X417058Y277839
X403558Y291339
X399658Y292539
X440458Y275439
X437458Y265839
X419458Y255039
X424558Y246639
X440758Y241839
X428458Y229239
X406258Y239439
X397558Y238839
X390958Y237939
X391258Y241239
X398458Y245439
X402058Y249639
X386458Y257439
X377758Y254739
X371758Y257139
X365158Y234339
X318358Y210339
X364858Y183039
X379558Y187839
X369658Y172539
X480658Y230439
X516358Y261039
X520858Y268539
X528658Y279639
X542458Y273039
X557758Y289539
X568558Y300339
X538258Y299739
X538258Y320439
X561358Y332139
X511558Y315339
X504358Y318339
X502258Y311139
X505858Y326739
X484858Y333639
X478258Y350439
X476758Y363339
X473758Y380139
X511258Y357939
X473458Y316539
X480658Y306339
X480658Y300939
X468958Y304239
X485158Y288039
X495058Y283239
X499858Y283839
X500758Y287139
X507358Y266139
X489958Y264939
X486058Y262839
X465958Y266739
X462658Y265839
X454858Y281139
X451258Y284739
X447958Y284739
X339358Y290439
T02
X248858Y159006
X266772Y171998
X238425Y184203
X228976Y189715
X264606Y202313
X424476Y189715
X433925Y184203
X462272Y171998
X444358Y159006
X460106Y202313
T03
X474858Y322739
X482358Y327739
X474858Y332739
T04
X498858Y226739
X498858Y186739
X573858Y186739
X573858Y226739
X189858Y227739
X189858Y187739
X114858Y187739
X114858Y227739
T05
X537058Y387739
X562658Y387739
T06
X414728Y179825
X414728Y160928
X385988Y160928
X385988Y179825
X306728Y179825
X306728Y160928
X277988Y160928
X277988Y179825
T07
X310358Y197239
X320358Y197239
X330358Y197239
X340358Y197239
X350358Y197239
X360358Y197239
X370358Y197239
X380358Y197239
T08
X468858Y349739
X468858Y367239
T09
X444858Y215239
X244858Y215239
T10
X209858Y183739
X479858Y183739
X499858Y382739
X189858Y382739
M30
