G75*
%MOIN*%
%OFA0B0*%
%FSLAX25Y25*%
%IPPOS*%
%LPD*%
%AMOC8*
5,1,8,0,0,1.08239X$1,22.5*
%
%ADD10C,0.20800*%
%ADD11C,0.08800*%
%ADD12R,0.05918X0.06706*%
%ADD13R,0.07099X0.07887*%
%ADD14R,0.06706X0.05918*%
%ADD15R,0.03950X0.03162*%
%ADD16R,0.06050X0.06050*%
%ADD17R,0.25209X0.22060*%
%ADD18R,0.07099X0.04737*%
%ADD19R,0.08800X0.03400*%
%ADD20R,0.22060X0.25209*%
%ADD21R,0.04737X0.07099*%
%ADD22OC8,0.05800*%
%ADD23R,0.04737X0.02178*%
%ADD24R,0.03162X0.09461*%
%ADD25R,0.10249X0.06312*%
%ADD26R,0.06312X0.03556*%
%ADD27R,0.03556X0.04343*%
%ADD28R,0.04343X0.03556*%
%ADD29OC8,0.09300*%
%ADD30C,0.06800*%
%ADD31R,0.04300X0.03900*%
%ADD32R,0.03900X0.04300*%
%ADD33C,0.05524*%
%ADD34C,0.06706*%
%ADD35R,0.02769X0.13005*%
%ADD36C,0.03500*%
D10*
X0121300Y0049786D03*
X0391300Y0049786D03*
X0411300Y0248786D03*
X0101300Y0248786D03*
D11*
X0156300Y0081286D03*
X0356300Y0081286D03*
D12*
X0325040Y0138786D03*
X0317560Y0138786D03*
X0317560Y0148786D03*
X0325040Y0148786D03*
X0402560Y0198786D03*
X0410040Y0198786D03*
X0410040Y0213786D03*
X0402560Y0213786D03*
X0132540Y0091786D03*
X0125060Y0091786D03*
X0060040Y0158786D03*
X0052560Y0158786D03*
D13*
X0123788Y0110286D03*
X0134812Y0110286D03*
X0142788Y0094786D03*
X0153812Y0094786D03*
X0400788Y0163786D03*
X0411812Y0163786D03*
X0425788Y0176286D03*
X0436812Y0176286D03*
X0463288Y0168786D03*
X0474312Y0168786D03*
X0474312Y0158786D03*
X0463288Y0158786D03*
X0391812Y0268786D03*
X0380788Y0268786D03*
D14*
X0323800Y0127526D03*
X0323800Y0120046D03*
D15*
X0427379Y0129286D03*
X0437221Y0129286D03*
X0461379Y0178786D03*
X0471221Y0178786D03*
X0075721Y0130286D03*
X0065879Y0130286D03*
D16*
X0026300Y0053786D03*
X0026300Y0093786D03*
X0101300Y0093786D03*
X0101300Y0053786D03*
X0410300Y0052786D03*
X0410300Y0092786D03*
X0485300Y0092786D03*
X0485300Y0052786D03*
D17*
X0486143Y0138786D03*
X0028957Y0138786D03*
D18*
X0057698Y0147762D03*
X0057698Y0129809D03*
X0457402Y0129809D03*
X0457402Y0147762D03*
D19*
X0391100Y0140286D03*
X0391100Y0135286D03*
X0391100Y0130286D03*
X0391100Y0125286D03*
X0391100Y0120286D03*
X0391100Y0115286D03*
X0391100Y0110286D03*
X0391100Y0105286D03*
X0391100Y0100286D03*
X0391100Y0095286D03*
X0351500Y0095286D03*
X0351500Y0100286D03*
X0351500Y0105286D03*
X0351500Y0110286D03*
X0351500Y0115286D03*
X0351500Y0120286D03*
X0351500Y0125286D03*
X0351500Y0130286D03*
X0351500Y0135286D03*
X0351500Y0140286D03*
X0226100Y0139286D03*
X0226100Y0144286D03*
X0226100Y0149286D03*
X0226100Y0154286D03*
X0226100Y0134286D03*
X0226100Y0129286D03*
X0226100Y0124286D03*
X0226100Y0119286D03*
X0226100Y0114286D03*
X0226100Y0109286D03*
X0186500Y0109286D03*
X0186500Y0114286D03*
X0186500Y0119286D03*
X0186500Y0124286D03*
X0186500Y0129286D03*
X0186500Y0134286D03*
X0186500Y0139286D03*
X0186500Y0144286D03*
X0186500Y0149286D03*
X0186500Y0154286D03*
D20*
X0458800Y0216128D03*
D21*
X0449824Y0187388D03*
X0467776Y0187388D03*
D22*
X0393800Y0193786D03*
X0386300Y0188786D03*
X0386300Y0198786D03*
D23*
X0293957Y0154317D03*
X0293957Y0151758D03*
X0293957Y0149199D03*
X0293957Y0146640D03*
X0293957Y0144081D03*
X0293957Y0141522D03*
X0293957Y0138963D03*
X0293957Y0136404D03*
X0293957Y0133845D03*
X0293957Y0131286D03*
X0293957Y0128727D03*
X0293957Y0126168D03*
X0293957Y0123609D03*
X0293957Y0121050D03*
X0293957Y0118491D03*
X0293957Y0115931D03*
X0293957Y0113372D03*
X0293957Y0110813D03*
X0293957Y0108254D03*
X0263643Y0108254D03*
X0263643Y0110813D03*
X0263643Y0113372D03*
X0263643Y0115931D03*
X0263643Y0118491D03*
X0263643Y0121050D03*
X0263643Y0123609D03*
X0263643Y0126168D03*
X0263643Y0128727D03*
X0263643Y0131286D03*
X0263643Y0133845D03*
X0263643Y0136404D03*
X0263643Y0138963D03*
X0263643Y0141522D03*
X0263643Y0144081D03*
X0263643Y0146640D03*
X0263643Y0149199D03*
X0263643Y0151758D03*
X0263643Y0154317D03*
D24*
X0481300Y0158550D03*
X0486300Y0158550D03*
X0491300Y0158550D03*
X0496300Y0158550D03*
X0496300Y0179022D03*
X0491300Y0179022D03*
X0486300Y0179022D03*
X0481300Y0179022D03*
X0033800Y0179022D03*
X0028800Y0179022D03*
X0023800Y0179022D03*
X0018800Y0179022D03*
X0018800Y0158550D03*
X0023800Y0158550D03*
X0028800Y0158550D03*
X0033800Y0158550D03*
D25*
X0431300Y0249061D03*
X0431300Y0258510D03*
D26*
X0313800Y0127132D03*
X0313800Y0120439D03*
D27*
X0292859Y0099286D03*
X0287741Y0099286D03*
X0383741Y0153786D03*
X0388859Y0153786D03*
X0388859Y0163786D03*
X0383741Y0163786D03*
X0403741Y0153786D03*
X0408859Y0153786D03*
X0388859Y0178786D03*
X0383741Y0178786D03*
X0403741Y0188786D03*
X0408859Y0188786D03*
X0388859Y0208786D03*
X0383741Y0208786D03*
X0403741Y0223786D03*
X0408859Y0223786D03*
X0383859Y0253786D03*
X0378741Y0253786D03*
X0483741Y0218786D03*
X0488859Y0218786D03*
X0488859Y0211286D03*
X0483741Y0211286D03*
X0483741Y0201286D03*
X0488859Y0201286D03*
X0488859Y0191286D03*
X0483741Y0191286D03*
X0453859Y0173786D03*
X0448741Y0173786D03*
X0399359Y0067786D03*
X0394241Y0067786D03*
X0101359Y0171286D03*
X0096241Y0171286D03*
X0086859Y0178786D03*
X0081741Y0178786D03*
X0071859Y0178786D03*
X0066741Y0178786D03*
X0061359Y0168786D03*
X0056241Y0168786D03*
X0046359Y0168786D03*
X0041241Y0168786D03*
X0051241Y0188786D03*
X0056359Y0188786D03*
X0067741Y0188786D03*
X0072859Y0188786D03*
X0039359Y0194786D03*
X0034241Y0194786D03*
X0033241Y0202786D03*
X0038359Y0202786D03*
X0038859Y0211786D03*
X0033741Y0211786D03*
X0033741Y0219786D03*
X0038859Y0219786D03*
X0051241Y0213786D03*
X0056359Y0213786D03*
X0038859Y0229286D03*
X0033741Y0229286D03*
X0051241Y0271786D03*
X0056359Y0271786D03*
D28*
X0313800Y0111345D03*
X0313800Y0106227D03*
X0448800Y0138727D03*
X0448800Y0143845D03*
X0120800Y0070345D03*
X0120800Y0065227D03*
D29*
X0375300Y0215786D03*
X0375300Y0230786D03*
X0448500Y0253786D03*
X0474100Y0253786D03*
D30*
X0291800Y0066286D02*
X0291800Y0060286D01*
X0281800Y0060286D02*
X0281800Y0066286D01*
X0271800Y0066286D02*
X0271800Y0060286D01*
X0261800Y0060286D02*
X0261800Y0066286D01*
X0251800Y0066286D02*
X0251800Y0060286D01*
X0241800Y0060286D02*
X0241800Y0066286D01*
X0231800Y0066286D02*
X0231800Y0060286D01*
X0221800Y0060286D02*
X0221800Y0066286D01*
D31*
X0390300Y0219886D03*
X0382300Y0223686D03*
X0390300Y0227486D03*
X0039300Y0235886D03*
X0031300Y0239686D03*
X0039300Y0243486D03*
D32*
X0050100Y0242786D03*
X0057700Y0242786D03*
X0053900Y0234786D03*
X0050600Y0227786D03*
X0058200Y0227786D03*
X0054400Y0219786D03*
X0053200Y0204286D03*
X0049400Y0196286D03*
X0057000Y0196286D03*
X0053200Y0183286D03*
X0049400Y0175286D03*
X0057000Y0175286D03*
X0081400Y0185786D03*
X0089000Y0185786D03*
X0085200Y0193786D03*
X0053900Y0254786D03*
X0050100Y0262786D03*
X0057700Y0262786D03*
X0379900Y0239786D03*
X0387500Y0239786D03*
X0383700Y0247786D03*
X0427600Y0192786D03*
X0435200Y0192786D03*
X0431400Y0184786D03*
X0410000Y0174786D03*
X0402400Y0174786D03*
X0406200Y0182786D03*
X0447600Y0167786D03*
X0455200Y0167786D03*
X0451400Y0159786D03*
X0486400Y0224786D03*
X0482600Y0232786D03*
X0490200Y0232786D03*
D33*
X0376410Y0066361D02*
X0371686Y0066361D01*
X0347867Y0050613D02*
X0347867Y0045888D01*
X0338418Y0051400D02*
X0338418Y0056124D01*
X0376213Y0038408D02*
X0376213Y0033683D01*
X0360662Y0023054D02*
X0355938Y0023054D01*
X0178213Y0033683D02*
X0178213Y0038408D01*
X0149867Y0045888D02*
X0149867Y0050613D01*
X0140418Y0051400D02*
X0140418Y0056124D01*
X0173686Y0066361D02*
X0178410Y0066361D01*
X0162662Y0023054D02*
X0157938Y0023054D01*
D34*
X0189430Y0023022D02*
X0189430Y0028928D01*
X0189430Y0041920D02*
X0189430Y0047825D01*
X0218170Y0047825D02*
X0218170Y0041920D01*
X0218170Y0028928D02*
X0218170Y0023022D01*
X0299930Y0023022D02*
X0299930Y0028928D01*
X0299930Y0041920D02*
X0299930Y0047825D01*
X0328670Y0047825D02*
X0328670Y0041920D01*
X0328670Y0028928D02*
X0328670Y0023022D01*
D35*
X0320599Y0049597D03*
X0317450Y0049597D03*
X0314300Y0049597D03*
X0311150Y0049597D03*
X0308001Y0049597D03*
X0210099Y0049597D03*
X0206950Y0049597D03*
X0203800Y0049597D03*
X0200650Y0049597D03*
X0197501Y0049597D03*
D36*
X0231000Y0055186D03*
X0243600Y0052786D03*
X0277500Y0050386D03*
X0314400Y0057886D03*
X0260400Y0086686D03*
X0261900Y0091486D03*
X0251100Y0089086D03*
X0246900Y0092086D03*
X0249600Y0098086D03*
X0225900Y0103786D03*
X0221700Y0095686D03*
X0234900Y0112186D03*
X0251400Y0114586D03*
X0269400Y0123286D03*
X0267600Y0128086D03*
X0273300Y0130486D03*
X0283800Y0128986D03*
X0288000Y0131386D03*
X0297900Y0123586D03*
X0282000Y0120886D03*
X0288300Y0110986D03*
X0292800Y0105586D03*
X0297900Y0112486D03*
X0309900Y0111586D03*
X0313500Y0115786D03*
X0340500Y0107986D03*
X0366000Y0112486D03*
X0369000Y0130186D03*
X0373800Y0130486D03*
X0377100Y0130486D03*
X0384900Y0134986D03*
X0406200Y0140386D03*
X0435600Y0161986D03*
X0441300Y0171286D03*
X0449100Y0182086D03*
X0445500Y0184786D03*
X0423600Y0195586D03*
X0412200Y0187786D03*
X0416400Y0181186D03*
X0406500Y0175786D03*
X0405600Y0170386D03*
X0399000Y0178186D03*
X0402600Y0181186D03*
X0400200Y0188086D03*
X0389400Y0173386D03*
X0387600Y0170386D03*
X0377100Y0176386D03*
X0375300Y0165586D03*
X0354000Y0145186D03*
X0342900Y0137086D03*
X0338100Y0139486D03*
X0332700Y0148186D03*
X0316200Y0157786D03*
X0312900Y0157786D03*
X0312900Y0150586D03*
X0312300Y0146686D03*
X0300600Y0142786D03*
X0300600Y0139486D03*
X0297900Y0146686D03*
X0289800Y0149086D03*
X0284400Y0146986D03*
X0267600Y0141886D03*
X0252300Y0138886D03*
X0244200Y0146686D03*
X0238500Y0144286D03*
X0234900Y0143986D03*
X0219900Y0144286D03*
X0219900Y0147586D03*
X0193200Y0147886D03*
X0192300Y0141886D03*
X0176400Y0144286D03*
X0166800Y0146686D03*
X0166200Y0151486D03*
X0165300Y0157186D03*
X0171000Y0159586D03*
X0179100Y0153286D03*
X0169200Y0134086D03*
X0165900Y0134086D03*
X0166500Y0126886D03*
X0173100Y0126886D03*
X0179700Y0129286D03*
X0219900Y0123286D03*
X0234900Y0128086D03*
X0191700Y0104686D03*
X0183900Y0095686D03*
X0153300Y0106186D03*
X0142200Y0129286D03*
X0122700Y0136786D03*
X0115500Y0134086D03*
X0107100Y0149086D03*
X0101400Y0151486D03*
X0111300Y0156286D03*
X0118500Y0158686D03*
X0120000Y0151486D03*
X0128400Y0156286D03*
X0139500Y0164686D03*
X0144000Y0154786D03*
X0144300Y0178186D03*
X0139800Y0182986D03*
X0137100Y0179086D03*
X0120900Y0195886D03*
X0132300Y0205486D03*
X0134700Y0210886D03*
X0130800Y0213586D03*
X0134700Y0218386D03*
X0139800Y0221986D03*
X0130800Y0224386D03*
X0121200Y0224986D03*
X0115800Y0226786D03*
X0118500Y0234286D03*
X0137400Y0236986D03*
X0139500Y0244486D03*
X0134100Y0246586D03*
X0134100Y0249886D03*
X0130800Y0249886D03*
X0118800Y0256786D03*
X0109500Y0271186D03*
X0069900Y0242686D03*
X0050400Y0239086D03*
X0050400Y0232186D03*
X0035400Y0235786D03*
X0038100Y0215686D03*
X0042900Y0197086D03*
X0065100Y0185086D03*
X0060600Y0177586D03*
X0063600Y0173986D03*
X0084300Y0173686D03*
X0087600Y0174886D03*
X0096300Y0167386D03*
X0057000Y0151786D03*
X0036300Y0165286D03*
X0089100Y0191086D03*
X0093300Y0191386D03*
X0101400Y0200986D03*
X0102600Y0204286D03*
X0105000Y0208486D03*
X0091500Y0211186D03*
X0061800Y0125686D03*
X0254400Y0077386D03*
X0273000Y0100186D03*
X0349200Y0091786D03*
X0401400Y0114586D03*
X0445200Y0136186D03*
X0469200Y0160186D03*
X0466500Y0179086D03*
X0492000Y0185386D03*
X0489000Y0195286D03*
X0480600Y0198286D03*
X0486300Y0232786D03*
X0444900Y0232486D03*
X0383700Y0219886D03*
X0383700Y0216586D03*
X0377700Y0243586D03*
X0303000Y0165586D03*
X0276000Y0162586D03*
X0267600Y0154186D03*
M02*
