G75*
%MOIN*%
%OFA0B0*%
%FSLAX25Y25*%
%IPPOS*%
%LPD*%
%AMOC8*
5,1,8,0,0,1.08239X$1,22.5*
%
%ADD10C,0.20800*%
%ADD11C,0.08800*%
%ADD12R,0.05918X0.06706*%
%ADD13R,0.07099X0.07887*%
%ADD14R,0.06706X0.05918*%
%ADD15R,0.03950X0.03162*%
%ADD16R,0.06050X0.06050*%
%ADD17R,0.25209X0.22060*%
%ADD18R,0.07099X0.04737*%
%ADD19R,0.08800X0.03400*%
%ADD20R,0.22060X0.25209*%
%ADD21R,0.04737X0.07099*%
%ADD22OC8,0.05800*%
%ADD23R,0.04737X0.02178*%
%ADD24R,0.03162X0.09461*%
%ADD25R,0.10249X0.06312*%
%ADD26R,0.06312X0.03556*%
%ADD27R,0.03556X0.04343*%
%ADD28R,0.04343X0.03556*%
%ADD29OC8,0.09300*%
%ADD30C,0.06800*%
%ADD31R,0.04300X0.03900*%
%ADD32R,0.03900X0.04300*%
%ADD33OC8,0.13200*%
%ADD34C,0.05524*%
%ADD35C,0.06706*%
%ADD36R,0.02769X0.13005*%
%ADD37R,0.04737X0.05524*%
%ADD38R,0.07099X0.04343*%
%ADD39R,0.05524X0.04737*%
%ADD40R,0.04343X0.07099*%
%ADD41C,0.03500*%
D10*
X0121300Y0049786D03*
X0391300Y0049786D03*
X0411300Y0248786D03*
X0101300Y0248786D03*
D11*
X0156300Y0081286D03*
X0356300Y0081286D03*
D12*
X0325040Y0138786D03*
X0317560Y0138786D03*
X0317560Y0148786D03*
X0325040Y0148786D03*
X0407560Y0198786D03*
X0415040Y0198786D03*
X0415040Y0213786D03*
X0407560Y0213786D03*
X0132540Y0091786D03*
X0125060Y0091786D03*
X0060040Y0158786D03*
X0052560Y0158786D03*
D13*
X0123788Y0110286D03*
X0134812Y0110286D03*
X0165288Y0094786D03*
X0176312Y0094786D03*
X0400788Y0163786D03*
X0411812Y0163786D03*
X0425788Y0176286D03*
X0436812Y0176286D03*
X0463288Y0168786D03*
X0474312Y0168786D03*
X0474312Y0158786D03*
X0463288Y0158786D03*
X0401812Y0268786D03*
X0390788Y0268786D03*
D14*
X0323800Y0127526D03*
X0323800Y0120046D03*
D15*
X0427379Y0129286D03*
X0437221Y0129286D03*
X0461379Y0178786D03*
X0471221Y0178786D03*
X0075721Y0130286D03*
X0065879Y0130286D03*
D16*
X0026300Y0053786D03*
X0026300Y0093786D03*
X0101300Y0093786D03*
X0101300Y0053786D03*
X0410300Y0052786D03*
X0410300Y0092786D03*
X0485300Y0092786D03*
X0485300Y0052786D03*
D17*
X0486143Y0138786D03*
X0028957Y0138786D03*
D18*
X0057698Y0147762D03*
X0057698Y0129809D03*
X0457402Y0129809D03*
X0457402Y0147762D03*
D19*
X0391100Y0140286D03*
X0391100Y0135286D03*
X0391100Y0130286D03*
X0391100Y0125286D03*
X0391100Y0120286D03*
X0391100Y0115286D03*
X0391100Y0110286D03*
X0391100Y0105286D03*
X0391100Y0100286D03*
X0391100Y0095286D03*
X0351500Y0095286D03*
X0351500Y0100286D03*
X0351500Y0105286D03*
X0351500Y0110286D03*
X0351500Y0115286D03*
X0351500Y0120286D03*
X0351500Y0125286D03*
X0351500Y0130286D03*
X0351500Y0135286D03*
X0351500Y0140286D03*
X0226100Y0139286D03*
X0226100Y0144286D03*
X0226100Y0149286D03*
X0226100Y0154286D03*
X0226100Y0134286D03*
X0226100Y0129286D03*
X0226100Y0124286D03*
X0226100Y0119286D03*
X0226100Y0114286D03*
X0226100Y0109286D03*
X0186500Y0109286D03*
X0186500Y0114286D03*
X0186500Y0119286D03*
X0186500Y0124286D03*
X0186500Y0129286D03*
X0186500Y0134286D03*
X0186500Y0139286D03*
X0186500Y0144286D03*
X0186500Y0149286D03*
X0186500Y0154286D03*
D20*
X0458800Y0216128D03*
D21*
X0449824Y0187388D03*
X0467776Y0187388D03*
D22*
X0393800Y0193786D03*
X0386300Y0188786D03*
X0386300Y0198786D03*
D23*
X0293957Y0154317D03*
X0293957Y0151758D03*
X0293957Y0149199D03*
X0293957Y0146640D03*
X0293957Y0144081D03*
X0293957Y0141522D03*
X0293957Y0138963D03*
X0293957Y0136404D03*
X0293957Y0133845D03*
X0293957Y0131286D03*
X0293957Y0128727D03*
X0293957Y0126168D03*
X0293957Y0123609D03*
X0293957Y0121050D03*
X0293957Y0118491D03*
X0293957Y0115931D03*
X0293957Y0113372D03*
X0293957Y0110813D03*
X0293957Y0108254D03*
X0263643Y0108254D03*
X0263643Y0110813D03*
X0263643Y0113372D03*
X0263643Y0115931D03*
X0263643Y0118491D03*
X0263643Y0121050D03*
X0263643Y0123609D03*
X0263643Y0126168D03*
X0263643Y0128727D03*
X0263643Y0131286D03*
X0263643Y0133845D03*
X0263643Y0136404D03*
X0263643Y0138963D03*
X0263643Y0141522D03*
X0263643Y0144081D03*
X0263643Y0146640D03*
X0263643Y0149199D03*
X0263643Y0151758D03*
X0263643Y0154317D03*
D24*
X0481300Y0158550D03*
X0486300Y0158550D03*
X0491300Y0158550D03*
X0496300Y0158550D03*
X0496300Y0179022D03*
X0491300Y0179022D03*
X0486300Y0179022D03*
X0481300Y0179022D03*
X0033800Y0179022D03*
X0028800Y0179022D03*
X0023800Y0179022D03*
X0018800Y0179022D03*
X0018800Y0158550D03*
X0023800Y0158550D03*
X0028800Y0158550D03*
X0033800Y0158550D03*
D25*
X0431300Y0249061D03*
X0431300Y0258510D03*
D26*
X0313800Y0127132D03*
X0313800Y0120439D03*
D27*
X0292859Y0099286D03*
X0287741Y0099286D03*
X0383741Y0153786D03*
X0388859Y0153786D03*
X0388859Y0163786D03*
X0383741Y0163786D03*
X0403741Y0153786D03*
X0408859Y0153786D03*
X0388859Y0178786D03*
X0383741Y0178786D03*
X0403741Y0188786D03*
X0408859Y0188786D03*
X0396359Y0208786D03*
X0391241Y0208786D03*
X0408741Y0223786D03*
X0413859Y0223786D03*
X0391359Y0256286D03*
X0386241Y0256286D03*
X0483741Y0218786D03*
X0488859Y0218786D03*
X0488859Y0211286D03*
X0483741Y0211286D03*
X0483741Y0201286D03*
X0488859Y0201286D03*
X0488859Y0191286D03*
X0483741Y0191286D03*
X0453859Y0173786D03*
X0448741Y0173786D03*
X0399359Y0067786D03*
X0394241Y0067786D03*
X0101359Y0171286D03*
X0096241Y0171286D03*
X0086859Y0178786D03*
X0081741Y0178786D03*
X0071859Y0178786D03*
X0066741Y0178786D03*
X0061359Y0168786D03*
X0056241Y0168786D03*
X0046359Y0168786D03*
X0041241Y0168786D03*
X0051241Y0188786D03*
X0056359Y0188786D03*
X0067741Y0188786D03*
X0072859Y0188786D03*
X0039359Y0194786D03*
X0034241Y0194786D03*
X0033241Y0202786D03*
X0038359Y0202786D03*
X0038859Y0211786D03*
X0033741Y0211786D03*
X0033741Y0219786D03*
X0038859Y0219786D03*
X0051241Y0213786D03*
X0056359Y0213786D03*
X0038859Y0229286D03*
X0033741Y0229286D03*
X0051241Y0271786D03*
X0056359Y0271786D03*
D28*
X0126300Y0141345D03*
X0126300Y0136227D03*
X0120800Y0070345D03*
X0120800Y0065227D03*
X0313800Y0106227D03*
X0313800Y0111345D03*
X0401300Y0113727D03*
X0401300Y0118845D03*
X0448800Y0138727D03*
X0448800Y0143845D03*
D29*
X0448500Y0253786D03*
X0474100Y0253786D03*
D30*
X0291800Y0066286D02*
X0291800Y0060286D01*
X0281800Y0060286D02*
X0281800Y0066286D01*
X0271800Y0066286D02*
X0271800Y0060286D01*
X0261800Y0060286D02*
X0261800Y0066286D01*
X0251800Y0066286D02*
X0251800Y0060286D01*
X0241800Y0060286D02*
X0241800Y0066286D01*
X0231800Y0066286D02*
X0231800Y0060286D01*
X0221800Y0060286D02*
X0221800Y0066286D01*
D31*
X0397800Y0219886D03*
X0389800Y0223686D03*
X0397800Y0227486D03*
X0039300Y0235886D03*
X0031300Y0239686D03*
X0039300Y0243486D03*
D32*
X0050100Y0242786D03*
X0057700Y0242786D03*
X0053900Y0234786D03*
X0050600Y0227786D03*
X0058200Y0227786D03*
X0054400Y0219786D03*
X0053200Y0204286D03*
X0049400Y0196286D03*
X0057000Y0196286D03*
X0053200Y0183286D03*
X0049400Y0175286D03*
X0057000Y0175286D03*
X0081400Y0185786D03*
X0089000Y0185786D03*
X0085200Y0193786D03*
X0053900Y0254786D03*
X0050100Y0262786D03*
X0057700Y0262786D03*
X0387400Y0242286D03*
X0395000Y0242286D03*
X0391200Y0250286D03*
X0482600Y0232786D03*
X0490200Y0232786D03*
X0486400Y0224786D03*
X0435200Y0192786D03*
X0427600Y0192786D03*
X0431400Y0184786D03*
X0410000Y0174786D03*
X0402400Y0174786D03*
X0406200Y0182786D03*
X0447600Y0167786D03*
X0455200Y0167786D03*
X0451400Y0159786D03*
D33*
X0380300Y0215786D03*
X0380300Y0233286D03*
D34*
X0373910Y0066361D02*
X0369186Y0066361D01*
X0345367Y0050613D02*
X0345367Y0045888D01*
X0335918Y0051400D02*
X0335918Y0056124D01*
X0373713Y0038408D02*
X0373713Y0033683D01*
X0358162Y0023054D02*
X0353438Y0023054D01*
X0178213Y0033683D02*
X0178213Y0038408D01*
X0149867Y0045888D02*
X0149867Y0050613D01*
X0140418Y0051400D02*
X0140418Y0056124D01*
X0173686Y0066361D02*
X0178410Y0066361D01*
X0162662Y0023054D02*
X0157938Y0023054D01*
D35*
X0189430Y0024022D02*
X0189430Y0029928D01*
X0189430Y0042920D02*
X0189430Y0048825D01*
X0218170Y0048825D02*
X0218170Y0042920D01*
X0218170Y0029928D02*
X0218170Y0024022D01*
X0297430Y0024022D02*
X0297430Y0029928D01*
X0297430Y0042920D02*
X0297430Y0048825D01*
X0326170Y0048825D02*
X0326170Y0042920D01*
X0326170Y0029928D02*
X0326170Y0024022D01*
D36*
X0318099Y0050597D03*
X0314950Y0050597D03*
X0311800Y0050597D03*
X0308650Y0050597D03*
X0305501Y0050597D03*
X0210099Y0050597D03*
X0206950Y0050597D03*
X0203800Y0050597D03*
X0200650Y0050597D03*
X0197501Y0050597D03*
D37*
X0402894Y0145735D03*
X0414509Y0145735D03*
D38*
X0414509Y0126837D03*
X0402894Y0126837D03*
D39*
X0096851Y0132880D03*
X0096851Y0144494D03*
D40*
X0115749Y0144494D03*
X0115749Y0132880D03*
D41*
X0109800Y0134386D03*
X0119700Y0144886D03*
X0128400Y0144886D03*
X0136500Y0140086D03*
X0139800Y0140086D03*
X0148800Y0142486D03*
X0152100Y0141886D03*
X0157500Y0143686D03*
X0164100Y0143686D03*
X0176400Y0144286D03*
X0180600Y0146686D03*
X0166800Y0134686D03*
X0163500Y0134686D03*
X0158400Y0134686D03*
X0138600Y0125686D03*
X0143700Y0120586D03*
X0155100Y0122986D03*
X0173100Y0120586D03*
X0180300Y0113386D03*
X0192600Y0110686D03*
X0194700Y0107986D03*
X0193800Y0104686D03*
X0203100Y0106186D03*
X0216000Y0108586D03*
X0223500Y0102286D03*
X0227700Y0104686D03*
X0230400Y0099886D03*
X0243900Y0090586D03*
X0247200Y0083986D03*
X0247200Y0080686D03*
X0255900Y0081886D03*
X0256500Y0075586D03*
X0280800Y0082186D03*
X0278400Y0089986D03*
X0270300Y0094786D03*
X0273300Y0107686D03*
X0289200Y0122986D03*
X0297900Y0123586D03*
X0297900Y0126886D03*
X0299700Y0129886D03*
X0306900Y0132886D03*
X0312900Y0135286D03*
X0315300Y0132886D03*
X0328500Y0133186D03*
X0333900Y0134086D03*
X0339900Y0136486D03*
X0330900Y0148786D03*
X0312900Y0151486D03*
X0306900Y0146986D03*
X0297900Y0148786D03*
X0297900Y0144586D03*
X0302100Y0137686D03*
X0288900Y0139186D03*
X0288900Y0131086D03*
X0276000Y0137386D03*
X0280800Y0142186D03*
X0276000Y0146086D03*
X0271200Y0146086D03*
X0267600Y0143086D03*
X0258600Y0141586D03*
X0258000Y0133486D03*
X0251400Y0131086D03*
X0237900Y0124186D03*
X0232200Y0121786D03*
X0246300Y0118486D03*
X0267600Y0126286D03*
X0270300Y0128686D03*
X0249000Y0144286D03*
X0236100Y0144286D03*
X0233700Y0146686D03*
X0236700Y0149086D03*
X0234300Y0151486D03*
X0232200Y0154186D03*
X0238200Y0160186D03*
X0271200Y0157786D03*
X0271200Y0154486D03*
X0273600Y0150886D03*
X0280800Y0154486D03*
X0280500Y0157786D03*
X0287400Y0154186D03*
X0285300Y0151486D03*
X0282300Y0149086D03*
X0299100Y0153886D03*
X0296700Y0160186D03*
X0315600Y0162586D03*
X0369300Y0165586D03*
X0387600Y0174886D03*
X0392400Y0168586D03*
X0397800Y0173386D03*
X0400500Y0170986D03*
X0405900Y0176086D03*
X0418500Y0185386D03*
X0427200Y0181786D03*
X0444000Y0181786D03*
X0445200Y0171886D03*
X0435600Y0167686D03*
X0446100Y0164086D03*
X0420600Y0148186D03*
X0435600Y0139486D03*
X0434400Y0126586D03*
X0409200Y0126586D03*
X0404400Y0121786D03*
X0384900Y0130186D03*
X0376200Y0135586D03*
X0374400Y0130186D03*
X0374100Y0126886D03*
X0368400Y0130186D03*
X0373800Y0112486D03*
X0345300Y0105286D03*
X0337800Y0107686D03*
X0328500Y0123886D03*
X0305700Y0113386D03*
X0305700Y0109186D03*
X0305100Y0105886D03*
X0303600Y0101086D03*
X0325500Y0087886D03*
X0312600Y0073486D03*
X0284100Y0071086D03*
X0287400Y0052786D03*
X0290700Y0052786D03*
X0294600Y0038686D03*
X0270300Y0035986D03*
X0263700Y0049186D03*
X0231900Y0052786D03*
X0205500Y0060586D03*
X0206700Y0069286D03*
X0210900Y0089686D03*
X0181500Y0094786D03*
X0170400Y0100186D03*
X0192900Y0117886D03*
X0196200Y0117886D03*
X0195600Y0126886D03*
X0192300Y0126886D03*
X0203400Y0131386D03*
X0218400Y0140386D03*
X0231900Y0141886D03*
X0206400Y0149086D03*
X0204000Y0151486D03*
X0178200Y0130786D03*
X0127500Y0150586D03*
X0123600Y0151186D03*
X0126000Y0162886D03*
X0109800Y0170086D03*
X0104100Y0167986D03*
X0100200Y0175186D03*
X0105000Y0182686D03*
X0089100Y0189886D03*
X0091500Y0193486D03*
X0101400Y0200986D03*
X0104700Y0200986D03*
X0112800Y0212086D03*
X0111600Y0218086D03*
X0109200Y0220486D03*
X0114300Y0220186D03*
X0127500Y0217186D03*
X0131400Y0220786D03*
X0129000Y0223186D03*
X0115500Y0226786D03*
X0133800Y0240586D03*
X0125700Y0244786D03*
X0125700Y0253186D03*
X0116400Y0259186D03*
X0106200Y0269386D03*
X0102300Y0266686D03*
X0091500Y0263686D03*
X0083400Y0266686D03*
X0070200Y0268786D03*
X0070200Y0262186D03*
X0082500Y0248086D03*
X0081900Y0244786D03*
X0069900Y0242686D03*
X0082800Y0235486D03*
X0050400Y0232186D03*
X0050100Y0239086D03*
X0087600Y0212386D03*
X0077100Y0200986D03*
X0068700Y0192586D03*
X0057000Y0184786D03*
X0042900Y0194086D03*
X0039000Y0206686D03*
X0084600Y0174886D03*
X0089100Y0173686D03*
X0083100Y0167086D03*
X0083100Y0162886D03*
X0079800Y0170086D03*
X0065400Y0169186D03*
X0065400Y0165886D03*
X0052800Y0167086D03*
X0048000Y0161086D03*
X0066000Y0147586D03*
X0076800Y0147586D03*
X0097500Y0148486D03*
X0104700Y0153586D03*
X0109800Y0124186D03*
X0105000Y0116986D03*
X0129000Y0086986D03*
X0201600Y0040786D03*
X0326400Y0036286D03*
X0362100Y0069886D03*
X0405900Y0061486D03*
X0403800Y0141286D03*
X0391200Y0145786D03*
X0398700Y0153286D03*
X0417000Y0161086D03*
X0463800Y0184786D03*
X0468000Y0197986D03*
X0449700Y0198886D03*
X0401400Y0192586D03*
X0396300Y0198586D03*
X0445800Y0228886D03*
X0383100Y0253186D03*
M02*
