G75*
%MOIN*%
%OFA0B0*%
%FSLAX25Y25*%
%IPPOS*%
%LPD*%
%AMOC8*
5,1,8,0,0,1.08239X$1,22.5*
%
%ADD10C,0.00000*%
%ADD11C,0.00600*%
%ADD12C,0.00400*%
%ADD13C,0.00200*%
%ADD14C,0.00500*%
%ADD15C,0.00800*%
D10*
X0006600Y0052786D02*
X0006600Y0243786D01*
X0006600Y0244786D01*
X0091600Y0248786D02*
X0091603Y0249031D01*
X0091612Y0249277D01*
X0091627Y0249522D01*
X0091648Y0249766D01*
X0091675Y0250010D01*
X0091708Y0250253D01*
X0091747Y0250496D01*
X0091792Y0250737D01*
X0091843Y0250977D01*
X0091900Y0251216D01*
X0091962Y0251453D01*
X0092031Y0251689D01*
X0092105Y0251923D01*
X0092185Y0252155D01*
X0092270Y0252385D01*
X0092361Y0252613D01*
X0092458Y0252838D01*
X0092560Y0253062D01*
X0092668Y0253282D01*
X0092781Y0253500D01*
X0092899Y0253715D01*
X0093023Y0253927D01*
X0093151Y0254136D01*
X0093285Y0254342D01*
X0093424Y0254544D01*
X0093568Y0254743D01*
X0093717Y0254938D01*
X0093870Y0255130D01*
X0094028Y0255318D01*
X0094190Y0255502D01*
X0094358Y0255681D01*
X0094529Y0255857D01*
X0094705Y0256028D01*
X0094884Y0256196D01*
X0095068Y0256358D01*
X0095256Y0256516D01*
X0095448Y0256669D01*
X0095643Y0256818D01*
X0095842Y0256962D01*
X0096044Y0257101D01*
X0096250Y0257235D01*
X0096459Y0257363D01*
X0096671Y0257487D01*
X0096886Y0257605D01*
X0097104Y0257718D01*
X0097324Y0257826D01*
X0097548Y0257928D01*
X0097773Y0258025D01*
X0098001Y0258116D01*
X0098231Y0258201D01*
X0098463Y0258281D01*
X0098697Y0258355D01*
X0098933Y0258424D01*
X0099170Y0258486D01*
X0099409Y0258543D01*
X0099649Y0258594D01*
X0099890Y0258639D01*
X0100133Y0258678D01*
X0100376Y0258711D01*
X0100620Y0258738D01*
X0100864Y0258759D01*
X0101109Y0258774D01*
X0101355Y0258783D01*
X0101600Y0258786D01*
X0101845Y0258783D01*
X0102091Y0258774D01*
X0102336Y0258759D01*
X0102580Y0258738D01*
X0102824Y0258711D01*
X0103067Y0258678D01*
X0103310Y0258639D01*
X0103551Y0258594D01*
X0103791Y0258543D01*
X0104030Y0258486D01*
X0104267Y0258424D01*
X0104503Y0258355D01*
X0104737Y0258281D01*
X0104969Y0258201D01*
X0105199Y0258116D01*
X0105427Y0258025D01*
X0105652Y0257928D01*
X0105876Y0257826D01*
X0106096Y0257718D01*
X0106314Y0257605D01*
X0106529Y0257487D01*
X0106741Y0257363D01*
X0106950Y0257235D01*
X0107156Y0257101D01*
X0107358Y0256962D01*
X0107557Y0256818D01*
X0107752Y0256669D01*
X0107944Y0256516D01*
X0108132Y0256358D01*
X0108316Y0256196D01*
X0108495Y0256028D01*
X0108671Y0255857D01*
X0108842Y0255681D01*
X0109010Y0255502D01*
X0109172Y0255318D01*
X0109330Y0255130D01*
X0109483Y0254938D01*
X0109632Y0254743D01*
X0109776Y0254544D01*
X0109915Y0254342D01*
X0110049Y0254136D01*
X0110177Y0253927D01*
X0110301Y0253715D01*
X0110419Y0253500D01*
X0110532Y0253282D01*
X0110640Y0253062D01*
X0110742Y0252838D01*
X0110839Y0252613D01*
X0110930Y0252385D01*
X0111015Y0252155D01*
X0111095Y0251923D01*
X0111169Y0251689D01*
X0111238Y0251453D01*
X0111300Y0251216D01*
X0111357Y0250977D01*
X0111408Y0250737D01*
X0111453Y0250496D01*
X0111492Y0250253D01*
X0111525Y0250010D01*
X0111552Y0249766D01*
X0111573Y0249522D01*
X0111588Y0249277D01*
X0111597Y0249031D01*
X0111600Y0248786D01*
X0111597Y0248541D01*
X0111588Y0248295D01*
X0111573Y0248050D01*
X0111552Y0247806D01*
X0111525Y0247562D01*
X0111492Y0247319D01*
X0111453Y0247076D01*
X0111408Y0246835D01*
X0111357Y0246595D01*
X0111300Y0246356D01*
X0111238Y0246119D01*
X0111169Y0245883D01*
X0111095Y0245649D01*
X0111015Y0245417D01*
X0110930Y0245187D01*
X0110839Y0244959D01*
X0110742Y0244734D01*
X0110640Y0244510D01*
X0110532Y0244290D01*
X0110419Y0244072D01*
X0110301Y0243857D01*
X0110177Y0243645D01*
X0110049Y0243436D01*
X0109915Y0243230D01*
X0109776Y0243028D01*
X0109632Y0242829D01*
X0109483Y0242634D01*
X0109330Y0242442D01*
X0109172Y0242254D01*
X0109010Y0242070D01*
X0108842Y0241891D01*
X0108671Y0241715D01*
X0108495Y0241544D01*
X0108316Y0241376D01*
X0108132Y0241214D01*
X0107944Y0241056D01*
X0107752Y0240903D01*
X0107557Y0240754D01*
X0107358Y0240610D01*
X0107156Y0240471D01*
X0106950Y0240337D01*
X0106741Y0240209D01*
X0106529Y0240085D01*
X0106314Y0239967D01*
X0106096Y0239854D01*
X0105876Y0239746D01*
X0105652Y0239644D01*
X0105427Y0239547D01*
X0105199Y0239456D01*
X0104969Y0239371D01*
X0104737Y0239291D01*
X0104503Y0239217D01*
X0104267Y0239148D01*
X0104030Y0239086D01*
X0103791Y0239029D01*
X0103551Y0238978D01*
X0103310Y0238933D01*
X0103067Y0238894D01*
X0102824Y0238861D01*
X0102580Y0238834D01*
X0102336Y0238813D01*
X0102091Y0238798D01*
X0101845Y0238789D01*
X0101600Y0238786D01*
X0101355Y0238789D01*
X0101109Y0238798D01*
X0100864Y0238813D01*
X0100620Y0238834D01*
X0100376Y0238861D01*
X0100133Y0238894D01*
X0099890Y0238933D01*
X0099649Y0238978D01*
X0099409Y0239029D01*
X0099170Y0239086D01*
X0098933Y0239148D01*
X0098697Y0239217D01*
X0098463Y0239291D01*
X0098231Y0239371D01*
X0098001Y0239456D01*
X0097773Y0239547D01*
X0097548Y0239644D01*
X0097324Y0239746D01*
X0097104Y0239854D01*
X0096886Y0239967D01*
X0096671Y0240085D01*
X0096459Y0240209D01*
X0096250Y0240337D01*
X0096044Y0240471D01*
X0095842Y0240610D01*
X0095643Y0240754D01*
X0095448Y0240903D01*
X0095256Y0241056D01*
X0095068Y0241214D01*
X0094884Y0241376D01*
X0094705Y0241544D01*
X0094529Y0241715D01*
X0094358Y0241891D01*
X0094190Y0242070D01*
X0094028Y0242254D01*
X0093870Y0242442D01*
X0093717Y0242634D01*
X0093568Y0242829D01*
X0093424Y0243028D01*
X0093285Y0243230D01*
X0093151Y0243436D01*
X0093023Y0243645D01*
X0092899Y0243857D01*
X0092781Y0244072D01*
X0092668Y0244290D01*
X0092560Y0244510D01*
X0092458Y0244734D01*
X0092361Y0244959D01*
X0092270Y0245187D01*
X0092185Y0245417D01*
X0092105Y0245649D01*
X0092031Y0245883D01*
X0091962Y0246119D01*
X0091900Y0246356D01*
X0091843Y0246595D01*
X0091792Y0246835D01*
X0091747Y0247076D01*
X0091708Y0247319D01*
X0091675Y0247562D01*
X0091648Y0247806D01*
X0091627Y0248050D01*
X0091612Y0248295D01*
X0091603Y0248541D01*
X0091600Y0248786D01*
X0152600Y0081286D02*
X0152602Y0081412D01*
X0152608Y0081538D01*
X0152618Y0081664D01*
X0152632Y0081790D01*
X0152650Y0081915D01*
X0152672Y0082039D01*
X0152697Y0082163D01*
X0152727Y0082286D01*
X0152760Y0082407D01*
X0152798Y0082528D01*
X0152839Y0082647D01*
X0152884Y0082766D01*
X0152932Y0082882D01*
X0152984Y0082997D01*
X0153040Y0083110D01*
X0153100Y0083222D01*
X0153163Y0083331D01*
X0153229Y0083439D01*
X0153298Y0083544D01*
X0153371Y0083647D01*
X0153448Y0083748D01*
X0153527Y0083846D01*
X0153609Y0083942D01*
X0153695Y0084035D01*
X0153783Y0084126D01*
X0153874Y0084213D01*
X0153968Y0084298D01*
X0154064Y0084379D01*
X0154163Y0084458D01*
X0154264Y0084533D01*
X0154368Y0084605D01*
X0154474Y0084674D01*
X0154582Y0084740D01*
X0154692Y0084802D01*
X0154804Y0084860D01*
X0154917Y0084915D01*
X0155033Y0084966D01*
X0155150Y0085014D01*
X0155268Y0085058D01*
X0155388Y0085098D01*
X0155509Y0085134D01*
X0155631Y0085167D01*
X0155754Y0085196D01*
X0155878Y0085220D01*
X0156002Y0085241D01*
X0156127Y0085258D01*
X0156253Y0085271D01*
X0156379Y0085280D01*
X0156505Y0085285D01*
X0156632Y0085286D01*
X0156758Y0085283D01*
X0156884Y0085276D01*
X0157010Y0085265D01*
X0157135Y0085250D01*
X0157260Y0085231D01*
X0157384Y0085208D01*
X0157508Y0085182D01*
X0157630Y0085151D01*
X0157752Y0085117D01*
X0157872Y0085078D01*
X0157991Y0085036D01*
X0158109Y0084991D01*
X0158225Y0084941D01*
X0158340Y0084888D01*
X0158452Y0084831D01*
X0158563Y0084771D01*
X0158672Y0084707D01*
X0158779Y0084640D01*
X0158884Y0084570D01*
X0158987Y0084496D01*
X0159087Y0084419D01*
X0159185Y0084339D01*
X0159280Y0084256D01*
X0159372Y0084170D01*
X0159462Y0084081D01*
X0159549Y0083989D01*
X0159632Y0083895D01*
X0159713Y0083798D01*
X0159791Y0083698D01*
X0159866Y0083596D01*
X0159937Y0083492D01*
X0160005Y0083385D01*
X0160069Y0083277D01*
X0160130Y0083166D01*
X0160188Y0083054D01*
X0160242Y0082940D01*
X0160292Y0082824D01*
X0160339Y0082707D01*
X0160382Y0082588D01*
X0160421Y0082468D01*
X0160457Y0082347D01*
X0160488Y0082224D01*
X0160516Y0082101D01*
X0160540Y0081977D01*
X0160560Y0081852D01*
X0160576Y0081727D01*
X0160588Y0081601D01*
X0160596Y0081475D01*
X0160600Y0081349D01*
X0160600Y0081223D01*
X0160596Y0081097D01*
X0160588Y0080971D01*
X0160576Y0080845D01*
X0160560Y0080720D01*
X0160540Y0080595D01*
X0160516Y0080471D01*
X0160488Y0080348D01*
X0160457Y0080225D01*
X0160421Y0080104D01*
X0160382Y0079984D01*
X0160339Y0079865D01*
X0160292Y0079748D01*
X0160242Y0079632D01*
X0160188Y0079518D01*
X0160130Y0079406D01*
X0160069Y0079295D01*
X0160005Y0079187D01*
X0159937Y0079080D01*
X0159866Y0078976D01*
X0159791Y0078874D01*
X0159713Y0078774D01*
X0159632Y0078677D01*
X0159549Y0078583D01*
X0159462Y0078491D01*
X0159372Y0078402D01*
X0159280Y0078316D01*
X0159185Y0078233D01*
X0159087Y0078153D01*
X0158987Y0078076D01*
X0158884Y0078002D01*
X0158779Y0077932D01*
X0158672Y0077865D01*
X0158563Y0077801D01*
X0158452Y0077741D01*
X0158340Y0077684D01*
X0158225Y0077631D01*
X0158109Y0077581D01*
X0157991Y0077536D01*
X0157872Y0077494D01*
X0157752Y0077455D01*
X0157630Y0077421D01*
X0157508Y0077390D01*
X0157384Y0077364D01*
X0157260Y0077341D01*
X0157135Y0077322D01*
X0157010Y0077307D01*
X0156884Y0077296D01*
X0156758Y0077289D01*
X0156632Y0077286D01*
X0156505Y0077287D01*
X0156379Y0077292D01*
X0156253Y0077301D01*
X0156127Y0077314D01*
X0156002Y0077331D01*
X0155878Y0077352D01*
X0155754Y0077376D01*
X0155631Y0077405D01*
X0155509Y0077438D01*
X0155388Y0077474D01*
X0155268Y0077514D01*
X0155150Y0077558D01*
X0155033Y0077606D01*
X0154917Y0077657D01*
X0154804Y0077712D01*
X0154692Y0077770D01*
X0154582Y0077832D01*
X0154474Y0077898D01*
X0154368Y0077967D01*
X0154264Y0078039D01*
X0154163Y0078114D01*
X0154064Y0078193D01*
X0153968Y0078274D01*
X0153874Y0078359D01*
X0153783Y0078446D01*
X0153695Y0078537D01*
X0153609Y0078630D01*
X0153527Y0078726D01*
X0153448Y0078824D01*
X0153371Y0078925D01*
X0153298Y0079028D01*
X0153229Y0079133D01*
X0153163Y0079241D01*
X0153100Y0079350D01*
X0153040Y0079462D01*
X0152984Y0079575D01*
X0152932Y0079690D01*
X0152884Y0079806D01*
X0152839Y0079925D01*
X0152798Y0080044D01*
X0152760Y0080165D01*
X0152727Y0080286D01*
X0152697Y0080409D01*
X0152672Y0080533D01*
X0152650Y0080657D01*
X0152632Y0080782D01*
X0152618Y0080908D01*
X0152608Y0081034D01*
X0152602Y0081160D01*
X0152600Y0081286D01*
X0111600Y0049786D02*
X0111603Y0050031D01*
X0111612Y0050277D01*
X0111627Y0050522D01*
X0111648Y0050766D01*
X0111675Y0051010D01*
X0111708Y0051253D01*
X0111747Y0051496D01*
X0111792Y0051737D01*
X0111843Y0051977D01*
X0111900Y0052216D01*
X0111962Y0052453D01*
X0112031Y0052689D01*
X0112105Y0052923D01*
X0112185Y0053155D01*
X0112270Y0053385D01*
X0112361Y0053613D01*
X0112458Y0053838D01*
X0112560Y0054062D01*
X0112668Y0054282D01*
X0112781Y0054500D01*
X0112899Y0054715D01*
X0113023Y0054927D01*
X0113151Y0055136D01*
X0113285Y0055342D01*
X0113424Y0055544D01*
X0113568Y0055743D01*
X0113717Y0055938D01*
X0113870Y0056130D01*
X0114028Y0056318D01*
X0114190Y0056502D01*
X0114358Y0056681D01*
X0114529Y0056857D01*
X0114705Y0057028D01*
X0114884Y0057196D01*
X0115068Y0057358D01*
X0115256Y0057516D01*
X0115448Y0057669D01*
X0115643Y0057818D01*
X0115842Y0057962D01*
X0116044Y0058101D01*
X0116250Y0058235D01*
X0116459Y0058363D01*
X0116671Y0058487D01*
X0116886Y0058605D01*
X0117104Y0058718D01*
X0117324Y0058826D01*
X0117548Y0058928D01*
X0117773Y0059025D01*
X0118001Y0059116D01*
X0118231Y0059201D01*
X0118463Y0059281D01*
X0118697Y0059355D01*
X0118933Y0059424D01*
X0119170Y0059486D01*
X0119409Y0059543D01*
X0119649Y0059594D01*
X0119890Y0059639D01*
X0120133Y0059678D01*
X0120376Y0059711D01*
X0120620Y0059738D01*
X0120864Y0059759D01*
X0121109Y0059774D01*
X0121355Y0059783D01*
X0121600Y0059786D01*
X0121845Y0059783D01*
X0122091Y0059774D01*
X0122336Y0059759D01*
X0122580Y0059738D01*
X0122824Y0059711D01*
X0123067Y0059678D01*
X0123310Y0059639D01*
X0123551Y0059594D01*
X0123791Y0059543D01*
X0124030Y0059486D01*
X0124267Y0059424D01*
X0124503Y0059355D01*
X0124737Y0059281D01*
X0124969Y0059201D01*
X0125199Y0059116D01*
X0125427Y0059025D01*
X0125652Y0058928D01*
X0125876Y0058826D01*
X0126096Y0058718D01*
X0126314Y0058605D01*
X0126529Y0058487D01*
X0126741Y0058363D01*
X0126950Y0058235D01*
X0127156Y0058101D01*
X0127358Y0057962D01*
X0127557Y0057818D01*
X0127752Y0057669D01*
X0127944Y0057516D01*
X0128132Y0057358D01*
X0128316Y0057196D01*
X0128495Y0057028D01*
X0128671Y0056857D01*
X0128842Y0056681D01*
X0129010Y0056502D01*
X0129172Y0056318D01*
X0129330Y0056130D01*
X0129483Y0055938D01*
X0129632Y0055743D01*
X0129776Y0055544D01*
X0129915Y0055342D01*
X0130049Y0055136D01*
X0130177Y0054927D01*
X0130301Y0054715D01*
X0130419Y0054500D01*
X0130532Y0054282D01*
X0130640Y0054062D01*
X0130742Y0053838D01*
X0130839Y0053613D01*
X0130930Y0053385D01*
X0131015Y0053155D01*
X0131095Y0052923D01*
X0131169Y0052689D01*
X0131238Y0052453D01*
X0131300Y0052216D01*
X0131357Y0051977D01*
X0131408Y0051737D01*
X0131453Y0051496D01*
X0131492Y0051253D01*
X0131525Y0051010D01*
X0131552Y0050766D01*
X0131573Y0050522D01*
X0131588Y0050277D01*
X0131597Y0050031D01*
X0131600Y0049786D01*
X0131597Y0049541D01*
X0131588Y0049295D01*
X0131573Y0049050D01*
X0131552Y0048806D01*
X0131525Y0048562D01*
X0131492Y0048319D01*
X0131453Y0048076D01*
X0131408Y0047835D01*
X0131357Y0047595D01*
X0131300Y0047356D01*
X0131238Y0047119D01*
X0131169Y0046883D01*
X0131095Y0046649D01*
X0131015Y0046417D01*
X0130930Y0046187D01*
X0130839Y0045959D01*
X0130742Y0045734D01*
X0130640Y0045510D01*
X0130532Y0045290D01*
X0130419Y0045072D01*
X0130301Y0044857D01*
X0130177Y0044645D01*
X0130049Y0044436D01*
X0129915Y0044230D01*
X0129776Y0044028D01*
X0129632Y0043829D01*
X0129483Y0043634D01*
X0129330Y0043442D01*
X0129172Y0043254D01*
X0129010Y0043070D01*
X0128842Y0042891D01*
X0128671Y0042715D01*
X0128495Y0042544D01*
X0128316Y0042376D01*
X0128132Y0042214D01*
X0127944Y0042056D01*
X0127752Y0041903D01*
X0127557Y0041754D01*
X0127358Y0041610D01*
X0127156Y0041471D01*
X0126950Y0041337D01*
X0126741Y0041209D01*
X0126529Y0041085D01*
X0126314Y0040967D01*
X0126096Y0040854D01*
X0125876Y0040746D01*
X0125652Y0040644D01*
X0125427Y0040547D01*
X0125199Y0040456D01*
X0124969Y0040371D01*
X0124737Y0040291D01*
X0124503Y0040217D01*
X0124267Y0040148D01*
X0124030Y0040086D01*
X0123791Y0040029D01*
X0123551Y0039978D01*
X0123310Y0039933D01*
X0123067Y0039894D01*
X0122824Y0039861D01*
X0122580Y0039834D01*
X0122336Y0039813D01*
X0122091Y0039798D01*
X0121845Y0039789D01*
X0121600Y0039786D01*
X0121355Y0039789D01*
X0121109Y0039798D01*
X0120864Y0039813D01*
X0120620Y0039834D01*
X0120376Y0039861D01*
X0120133Y0039894D01*
X0119890Y0039933D01*
X0119649Y0039978D01*
X0119409Y0040029D01*
X0119170Y0040086D01*
X0118933Y0040148D01*
X0118697Y0040217D01*
X0118463Y0040291D01*
X0118231Y0040371D01*
X0118001Y0040456D01*
X0117773Y0040547D01*
X0117548Y0040644D01*
X0117324Y0040746D01*
X0117104Y0040854D01*
X0116886Y0040967D01*
X0116671Y0041085D01*
X0116459Y0041209D01*
X0116250Y0041337D01*
X0116044Y0041471D01*
X0115842Y0041610D01*
X0115643Y0041754D01*
X0115448Y0041903D01*
X0115256Y0042056D01*
X0115068Y0042214D01*
X0114884Y0042376D01*
X0114705Y0042544D01*
X0114529Y0042715D01*
X0114358Y0042891D01*
X0114190Y0043070D01*
X0114028Y0043254D01*
X0113870Y0043442D01*
X0113717Y0043634D01*
X0113568Y0043829D01*
X0113424Y0044028D01*
X0113285Y0044230D01*
X0113151Y0044436D01*
X0113023Y0044645D01*
X0112899Y0044857D01*
X0112781Y0045072D01*
X0112668Y0045290D01*
X0112560Y0045510D01*
X0112458Y0045734D01*
X0112361Y0045959D01*
X0112270Y0046187D01*
X0112185Y0046417D01*
X0112105Y0046649D01*
X0112031Y0046883D01*
X0111962Y0047119D01*
X0111900Y0047356D01*
X0111843Y0047595D01*
X0111792Y0047835D01*
X0111747Y0048076D01*
X0111708Y0048319D01*
X0111675Y0048562D01*
X0111648Y0048806D01*
X0111627Y0049050D01*
X0111612Y0049295D01*
X0111603Y0049541D01*
X0111600Y0049786D01*
X0352600Y0081286D02*
X0352602Y0081412D01*
X0352608Y0081538D01*
X0352618Y0081664D01*
X0352632Y0081790D01*
X0352650Y0081915D01*
X0352672Y0082039D01*
X0352697Y0082163D01*
X0352727Y0082286D01*
X0352760Y0082407D01*
X0352798Y0082528D01*
X0352839Y0082647D01*
X0352884Y0082766D01*
X0352932Y0082882D01*
X0352984Y0082997D01*
X0353040Y0083110D01*
X0353100Y0083222D01*
X0353163Y0083331D01*
X0353229Y0083439D01*
X0353298Y0083544D01*
X0353371Y0083647D01*
X0353448Y0083748D01*
X0353527Y0083846D01*
X0353609Y0083942D01*
X0353695Y0084035D01*
X0353783Y0084126D01*
X0353874Y0084213D01*
X0353968Y0084298D01*
X0354064Y0084379D01*
X0354163Y0084458D01*
X0354264Y0084533D01*
X0354368Y0084605D01*
X0354474Y0084674D01*
X0354582Y0084740D01*
X0354692Y0084802D01*
X0354804Y0084860D01*
X0354917Y0084915D01*
X0355033Y0084966D01*
X0355150Y0085014D01*
X0355268Y0085058D01*
X0355388Y0085098D01*
X0355509Y0085134D01*
X0355631Y0085167D01*
X0355754Y0085196D01*
X0355878Y0085220D01*
X0356002Y0085241D01*
X0356127Y0085258D01*
X0356253Y0085271D01*
X0356379Y0085280D01*
X0356505Y0085285D01*
X0356632Y0085286D01*
X0356758Y0085283D01*
X0356884Y0085276D01*
X0357010Y0085265D01*
X0357135Y0085250D01*
X0357260Y0085231D01*
X0357384Y0085208D01*
X0357508Y0085182D01*
X0357630Y0085151D01*
X0357752Y0085117D01*
X0357872Y0085078D01*
X0357991Y0085036D01*
X0358109Y0084991D01*
X0358225Y0084941D01*
X0358340Y0084888D01*
X0358452Y0084831D01*
X0358563Y0084771D01*
X0358672Y0084707D01*
X0358779Y0084640D01*
X0358884Y0084570D01*
X0358987Y0084496D01*
X0359087Y0084419D01*
X0359185Y0084339D01*
X0359280Y0084256D01*
X0359372Y0084170D01*
X0359462Y0084081D01*
X0359549Y0083989D01*
X0359632Y0083895D01*
X0359713Y0083798D01*
X0359791Y0083698D01*
X0359866Y0083596D01*
X0359937Y0083492D01*
X0360005Y0083385D01*
X0360069Y0083277D01*
X0360130Y0083166D01*
X0360188Y0083054D01*
X0360242Y0082940D01*
X0360292Y0082824D01*
X0360339Y0082707D01*
X0360382Y0082588D01*
X0360421Y0082468D01*
X0360457Y0082347D01*
X0360488Y0082224D01*
X0360516Y0082101D01*
X0360540Y0081977D01*
X0360560Y0081852D01*
X0360576Y0081727D01*
X0360588Y0081601D01*
X0360596Y0081475D01*
X0360600Y0081349D01*
X0360600Y0081223D01*
X0360596Y0081097D01*
X0360588Y0080971D01*
X0360576Y0080845D01*
X0360560Y0080720D01*
X0360540Y0080595D01*
X0360516Y0080471D01*
X0360488Y0080348D01*
X0360457Y0080225D01*
X0360421Y0080104D01*
X0360382Y0079984D01*
X0360339Y0079865D01*
X0360292Y0079748D01*
X0360242Y0079632D01*
X0360188Y0079518D01*
X0360130Y0079406D01*
X0360069Y0079295D01*
X0360005Y0079187D01*
X0359937Y0079080D01*
X0359866Y0078976D01*
X0359791Y0078874D01*
X0359713Y0078774D01*
X0359632Y0078677D01*
X0359549Y0078583D01*
X0359462Y0078491D01*
X0359372Y0078402D01*
X0359280Y0078316D01*
X0359185Y0078233D01*
X0359087Y0078153D01*
X0358987Y0078076D01*
X0358884Y0078002D01*
X0358779Y0077932D01*
X0358672Y0077865D01*
X0358563Y0077801D01*
X0358452Y0077741D01*
X0358340Y0077684D01*
X0358225Y0077631D01*
X0358109Y0077581D01*
X0357991Y0077536D01*
X0357872Y0077494D01*
X0357752Y0077455D01*
X0357630Y0077421D01*
X0357508Y0077390D01*
X0357384Y0077364D01*
X0357260Y0077341D01*
X0357135Y0077322D01*
X0357010Y0077307D01*
X0356884Y0077296D01*
X0356758Y0077289D01*
X0356632Y0077286D01*
X0356505Y0077287D01*
X0356379Y0077292D01*
X0356253Y0077301D01*
X0356127Y0077314D01*
X0356002Y0077331D01*
X0355878Y0077352D01*
X0355754Y0077376D01*
X0355631Y0077405D01*
X0355509Y0077438D01*
X0355388Y0077474D01*
X0355268Y0077514D01*
X0355150Y0077558D01*
X0355033Y0077606D01*
X0354917Y0077657D01*
X0354804Y0077712D01*
X0354692Y0077770D01*
X0354582Y0077832D01*
X0354474Y0077898D01*
X0354368Y0077967D01*
X0354264Y0078039D01*
X0354163Y0078114D01*
X0354064Y0078193D01*
X0353968Y0078274D01*
X0353874Y0078359D01*
X0353783Y0078446D01*
X0353695Y0078537D01*
X0353609Y0078630D01*
X0353527Y0078726D01*
X0353448Y0078824D01*
X0353371Y0078925D01*
X0353298Y0079028D01*
X0353229Y0079133D01*
X0353163Y0079241D01*
X0353100Y0079350D01*
X0353040Y0079462D01*
X0352984Y0079575D01*
X0352932Y0079690D01*
X0352884Y0079806D01*
X0352839Y0079925D01*
X0352798Y0080044D01*
X0352760Y0080165D01*
X0352727Y0080286D01*
X0352697Y0080409D01*
X0352672Y0080533D01*
X0352650Y0080657D01*
X0352632Y0080782D01*
X0352618Y0080908D01*
X0352608Y0081034D01*
X0352602Y0081160D01*
X0352600Y0081286D01*
X0381600Y0049786D02*
X0381603Y0050031D01*
X0381612Y0050277D01*
X0381627Y0050522D01*
X0381648Y0050766D01*
X0381675Y0051010D01*
X0381708Y0051253D01*
X0381747Y0051496D01*
X0381792Y0051737D01*
X0381843Y0051977D01*
X0381900Y0052216D01*
X0381962Y0052453D01*
X0382031Y0052689D01*
X0382105Y0052923D01*
X0382185Y0053155D01*
X0382270Y0053385D01*
X0382361Y0053613D01*
X0382458Y0053838D01*
X0382560Y0054062D01*
X0382668Y0054282D01*
X0382781Y0054500D01*
X0382899Y0054715D01*
X0383023Y0054927D01*
X0383151Y0055136D01*
X0383285Y0055342D01*
X0383424Y0055544D01*
X0383568Y0055743D01*
X0383717Y0055938D01*
X0383870Y0056130D01*
X0384028Y0056318D01*
X0384190Y0056502D01*
X0384358Y0056681D01*
X0384529Y0056857D01*
X0384705Y0057028D01*
X0384884Y0057196D01*
X0385068Y0057358D01*
X0385256Y0057516D01*
X0385448Y0057669D01*
X0385643Y0057818D01*
X0385842Y0057962D01*
X0386044Y0058101D01*
X0386250Y0058235D01*
X0386459Y0058363D01*
X0386671Y0058487D01*
X0386886Y0058605D01*
X0387104Y0058718D01*
X0387324Y0058826D01*
X0387548Y0058928D01*
X0387773Y0059025D01*
X0388001Y0059116D01*
X0388231Y0059201D01*
X0388463Y0059281D01*
X0388697Y0059355D01*
X0388933Y0059424D01*
X0389170Y0059486D01*
X0389409Y0059543D01*
X0389649Y0059594D01*
X0389890Y0059639D01*
X0390133Y0059678D01*
X0390376Y0059711D01*
X0390620Y0059738D01*
X0390864Y0059759D01*
X0391109Y0059774D01*
X0391355Y0059783D01*
X0391600Y0059786D01*
X0391845Y0059783D01*
X0392091Y0059774D01*
X0392336Y0059759D01*
X0392580Y0059738D01*
X0392824Y0059711D01*
X0393067Y0059678D01*
X0393310Y0059639D01*
X0393551Y0059594D01*
X0393791Y0059543D01*
X0394030Y0059486D01*
X0394267Y0059424D01*
X0394503Y0059355D01*
X0394737Y0059281D01*
X0394969Y0059201D01*
X0395199Y0059116D01*
X0395427Y0059025D01*
X0395652Y0058928D01*
X0395876Y0058826D01*
X0396096Y0058718D01*
X0396314Y0058605D01*
X0396529Y0058487D01*
X0396741Y0058363D01*
X0396950Y0058235D01*
X0397156Y0058101D01*
X0397358Y0057962D01*
X0397557Y0057818D01*
X0397752Y0057669D01*
X0397944Y0057516D01*
X0398132Y0057358D01*
X0398316Y0057196D01*
X0398495Y0057028D01*
X0398671Y0056857D01*
X0398842Y0056681D01*
X0399010Y0056502D01*
X0399172Y0056318D01*
X0399330Y0056130D01*
X0399483Y0055938D01*
X0399632Y0055743D01*
X0399776Y0055544D01*
X0399915Y0055342D01*
X0400049Y0055136D01*
X0400177Y0054927D01*
X0400301Y0054715D01*
X0400419Y0054500D01*
X0400532Y0054282D01*
X0400640Y0054062D01*
X0400742Y0053838D01*
X0400839Y0053613D01*
X0400930Y0053385D01*
X0401015Y0053155D01*
X0401095Y0052923D01*
X0401169Y0052689D01*
X0401238Y0052453D01*
X0401300Y0052216D01*
X0401357Y0051977D01*
X0401408Y0051737D01*
X0401453Y0051496D01*
X0401492Y0051253D01*
X0401525Y0051010D01*
X0401552Y0050766D01*
X0401573Y0050522D01*
X0401588Y0050277D01*
X0401597Y0050031D01*
X0401600Y0049786D01*
X0401597Y0049541D01*
X0401588Y0049295D01*
X0401573Y0049050D01*
X0401552Y0048806D01*
X0401525Y0048562D01*
X0401492Y0048319D01*
X0401453Y0048076D01*
X0401408Y0047835D01*
X0401357Y0047595D01*
X0401300Y0047356D01*
X0401238Y0047119D01*
X0401169Y0046883D01*
X0401095Y0046649D01*
X0401015Y0046417D01*
X0400930Y0046187D01*
X0400839Y0045959D01*
X0400742Y0045734D01*
X0400640Y0045510D01*
X0400532Y0045290D01*
X0400419Y0045072D01*
X0400301Y0044857D01*
X0400177Y0044645D01*
X0400049Y0044436D01*
X0399915Y0044230D01*
X0399776Y0044028D01*
X0399632Y0043829D01*
X0399483Y0043634D01*
X0399330Y0043442D01*
X0399172Y0043254D01*
X0399010Y0043070D01*
X0398842Y0042891D01*
X0398671Y0042715D01*
X0398495Y0042544D01*
X0398316Y0042376D01*
X0398132Y0042214D01*
X0397944Y0042056D01*
X0397752Y0041903D01*
X0397557Y0041754D01*
X0397358Y0041610D01*
X0397156Y0041471D01*
X0396950Y0041337D01*
X0396741Y0041209D01*
X0396529Y0041085D01*
X0396314Y0040967D01*
X0396096Y0040854D01*
X0395876Y0040746D01*
X0395652Y0040644D01*
X0395427Y0040547D01*
X0395199Y0040456D01*
X0394969Y0040371D01*
X0394737Y0040291D01*
X0394503Y0040217D01*
X0394267Y0040148D01*
X0394030Y0040086D01*
X0393791Y0040029D01*
X0393551Y0039978D01*
X0393310Y0039933D01*
X0393067Y0039894D01*
X0392824Y0039861D01*
X0392580Y0039834D01*
X0392336Y0039813D01*
X0392091Y0039798D01*
X0391845Y0039789D01*
X0391600Y0039786D01*
X0391355Y0039789D01*
X0391109Y0039798D01*
X0390864Y0039813D01*
X0390620Y0039834D01*
X0390376Y0039861D01*
X0390133Y0039894D01*
X0389890Y0039933D01*
X0389649Y0039978D01*
X0389409Y0040029D01*
X0389170Y0040086D01*
X0388933Y0040148D01*
X0388697Y0040217D01*
X0388463Y0040291D01*
X0388231Y0040371D01*
X0388001Y0040456D01*
X0387773Y0040547D01*
X0387548Y0040644D01*
X0387324Y0040746D01*
X0387104Y0040854D01*
X0386886Y0040967D01*
X0386671Y0041085D01*
X0386459Y0041209D01*
X0386250Y0041337D01*
X0386044Y0041471D01*
X0385842Y0041610D01*
X0385643Y0041754D01*
X0385448Y0041903D01*
X0385256Y0042056D01*
X0385068Y0042214D01*
X0384884Y0042376D01*
X0384705Y0042544D01*
X0384529Y0042715D01*
X0384358Y0042891D01*
X0384190Y0043070D01*
X0384028Y0043254D01*
X0383870Y0043442D01*
X0383717Y0043634D01*
X0383568Y0043829D01*
X0383424Y0044028D01*
X0383285Y0044230D01*
X0383151Y0044436D01*
X0383023Y0044645D01*
X0382899Y0044857D01*
X0382781Y0045072D01*
X0382668Y0045290D01*
X0382560Y0045510D01*
X0382458Y0045734D01*
X0382361Y0045959D01*
X0382270Y0046187D01*
X0382185Y0046417D01*
X0382105Y0046649D01*
X0382031Y0046883D01*
X0381962Y0047119D01*
X0381900Y0047356D01*
X0381843Y0047595D01*
X0381792Y0047835D01*
X0381747Y0048076D01*
X0381708Y0048319D01*
X0381675Y0048562D01*
X0381648Y0048806D01*
X0381627Y0049050D01*
X0381612Y0049295D01*
X0381603Y0049541D01*
X0381600Y0049786D01*
X0401600Y0248786D02*
X0401603Y0249031D01*
X0401612Y0249277D01*
X0401627Y0249522D01*
X0401648Y0249766D01*
X0401675Y0250010D01*
X0401708Y0250253D01*
X0401747Y0250496D01*
X0401792Y0250737D01*
X0401843Y0250977D01*
X0401900Y0251216D01*
X0401962Y0251453D01*
X0402031Y0251689D01*
X0402105Y0251923D01*
X0402185Y0252155D01*
X0402270Y0252385D01*
X0402361Y0252613D01*
X0402458Y0252838D01*
X0402560Y0253062D01*
X0402668Y0253282D01*
X0402781Y0253500D01*
X0402899Y0253715D01*
X0403023Y0253927D01*
X0403151Y0254136D01*
X0403285Y0254342D01*
X0403424Y0254544D01*
X0403568Y0254743D01*
X0403717Y0254938D01*
X0403870Y0255130D01*
X0404028Y0255318D01*
X0404190Y0255502D01*
X0404358Y0255681D01*
X0404529Y0255857D01*
X0404705Y0256028D01*
X0404884Y0256196D01*
X0405068Y0256358D01*
X0405256Y0256516D01*
X0405448Y0256669D01*
X0405643Y0256818D01*
X0405842Y0256962D01*
X0406044Y0257101D01*
X0406250Y0257235D01*
X0406459Y0257363D01*
X0406671Y0257487D01*
X0406886Y0257605D01*
X0407104Y0257718D01*
X0407324Y0257826D01*
X0407548Y0257928D01*
X0407773Y0258025D01*
X0408001Y0258116D01*
X0408231Y0258201D01*
X0408463Y0258281D01*
X0408697Y0258355D01*
X0408933Y0258424D01*
X0409170Y0258486D01*
X0409409Y0258543D01*
X0409649Y0258594D01*
X0409890Y0258639D01*
X0410133Y0258678D01*
X0410376Y0258711D01*
X0410620Y0258738D01*
X0410864Y0258759D01*
X0411109Y0258774D01*
X0411355Y0258783D01*
X0411600Y0258786D01*
X0411845Y0258783D01*
X0412091Y0258774D01*
X0412336Y0258759D01*
X0412580Y0258738D01*
X0412824Y0258711D01*
X0413067Y0258678D01*
X0413310Y0258639D01*
X0413551Y0258594D01*
X0413791Y0258543D01*
X0414030Y0258486D01*
X0414267Y0258424D01*
X0414503Y0258355D01*
X0414737Y0258281D01*
X0414969Y0258201D01*
X0415199Y0258116D01*
X0415427Y0258025D01*
X0415652Y0257928D01*
X0415876Y0257826D01*
X0416096Y0257718D01*
X0416314Y0257605D01*
X0416529Y0257487D01*
X0416741Y0257363D01*
X0416950Y0257235D01*
X0417156Y0257101D01*
X0417358Y0256962D01*
X0417557Y0256818D01*
X0417752Y0256669D01*
X0417944Y0256516D01*
X0418132Y0256358D01*
X0418316Y0256196D01*
X0418495Y0256028D01*
X0418671Y0255857D01*
X0418842Y0255681D01*
X0419010Y0255502D01*
X0419172Y0255318D01*
X0419330Y0255130D01*
X0419483Y0254938D01*
X0419632Y0254743D01*
X0419776Y0254544D01*
X0419915Y0254342D01*
X0420049Y0254136D01*
X0420177Y0253927D01*
X0420301Y0253715D01*
X0420419Y0253500D01*
X0420532Y0253282D01*
X0420640Y0253062D01*
X0420742Y0252838D01*
X0420839Y0252613D01*
X0420930Y0252385D01*
X0421015Y0252155D01*
X0421095Y0251923D01*
X0421169Y0251689D01*
X0421238Y0251453D01*
X0421300Y0251216D01*
X0421357Y0250977D01*
X0421408Y0250737D01*
X0421453Y0250496D01*
X0421492Y0250253D01*
X0421525Y0250010D01*
X0421552Y0249766D01*
X0421573Y0249522D01*
X0421588Y0249277D01*
X0421597Y0249031D01*
X0421600Y0248786D01*
X0421597Y0248541D01*
X0421588Y0248295D01*
X0421573Y0248050D01*
X0421552Y0247806D01*
X0421525Y0247562D01*
X0421492Y0247319D01*
X0421453Y0247076D01*
X0421408Y0246835D01*
X0421357Y0246595D01*
X0421300Y0246356D01*
X0421238Y0246119D01*
X0421169Y0245883D01*
X0421095Y0245649D01*
X0421015Y0245417D01*
X0420930Y0245187D01*
X0420839Y0244959D01*
X0420742Y0244734D01*
X0420640Y0244510D01*
X0420532Y0244290D01*
X0420419Y0244072D01*
X0420301Y0243857D01*
X0420177Y0243645D01*
X0420049Y0243436D01*
X0419915Y0243230D01*
X0419776Y0243028D01*
X0419632Y0242829D01*
X0419483Y0242634D01*
X0419330Y0242442D01*
X0419172Y0242254D01*
X0419010Y0242070D01*
X0418842Y0241891D01*
X0418671Y0241715D01*
X0418495Y0241544D01*
X0418316Y0241376D01*
X0418132Y0241214D01*
X0417944Y0241056D01*
X0417752Y0240903D01*
X0417557Y0240754D01*
X0417358Y0240610D01*
X0417156Y0240471D01*
X0416950Y0240337D01*
X0416741Y0240209D01*
X0416529Y0240085D01*
X0416314Y0239967D01*
X0416096Y0239854D01*
X0415876Y0239746D01*
X0415652Y0239644D01*
X0415427Y0239547D01*
X0415199Y0239456D01*
X0414969Y0239371D01*
X0414737Y0239291D01*
X0414503Y0239217D01*
X0414267Y0239148D01*
X0414030Y0239086D01*
X0413791Y0239029D01*
X0413551Y0238978D01*
X0413310Y0238933D01*
X0413067Y0238894D01*
X0412824Y0238861D01*
X0412580Y0238834D01*
X0412336Y0238813D01*
X0412091Y0238798D01*
X0411845Y0238789D01*
X0411600Y0238786D01*
X0411355Y0238789D01*
X0411109Y0238798D01*
X0410864Y0238813D01*
X0410620Y0238834D01*
X0410376Y0238861D01*
X0410133Y0238894D01*
X0409890Y0238933D01*
X0409649Y0238978D01*
X0409409Y0239029D01*
X0409170Y0239086D01*
X0408933Y0239148D01*
X0408697Y0239217D01*
X0408463Y0239291D01*
X0408231Y0239371D01*
X0408001Y0239456D01*
X0407773Y0239547D01*
X0407548Y0239644D01*
X0407324Y0239746D01*
X0407104Y0239854D01*
X0406886Y0239967D01*
X0406671Y0240085D01*
X0406459Y0240209D01*
X0406250Y0240337D01*
X0406044Y0240471D01*
X0405842Y0240610D01*
X0405643Y0240754D01*
X0405448Y0240903D01*
X0405256Y0241056D01*
X0405068Y0241214D01*
X0404884Y0241376D01*
X0404705Y0241544D01*
X0404529Y0241715D01*
X0404358Y0241891D01*
X0404190Y0242070D01*
X0404028Y0242254D01*
X0403870Y0242442D01*
X0403717Y0242634D01*
X0403568Y0242829D01*
X0403424Y0243028D01*
X0403285Y0243230D01*
X0403151Y0243436D01*
X0403023Y0243645D01*
X0402899Y0243857D01*
X0402781Y0244072D01*
X0402668Y0244290D01*
X0402560Y0244510D01*
X0402458Y0244734D01*
X0402361Y0244959D01*
X0402270Y0245187D01*
X0402185Y0245417D01*
X0402105Y0245649D01*
X0402031Y0245883D01*
X0401962Y0246119D01*
X0401900Y0246356D01*
X0401843Y0246595D01*
X0401792Y0246835D01*
X0401747Y0247076D01*
X0401708Y0247319D01*
X0401675Y0247562D01*
X0401648Y0247806D01*
X0401627Y0248050D01*
X0401612Y0248295D01*
X0401603Y0248541D01*
X0401600Y0248786D01*
D11*
X0466600Y0015786D02*
X0045600Y0015786D01*
X0034600Y0034786D02*
X0034600Y0109786D01*
X0094600Y0109786D01*
X0094600Y0034786D01*
X0034600Y0034786D01*
X0045600Y0015786D02*
X0044799Y0015651D01*
X0043996Y0015536D01*
X0043189Y0015441D01*
X0042381Y0015365D01*
X0041571Y0015310D01*
X0040759Y0015273D01*
X0039948Y0015257D01*
X0039136Y0015260D01*
X0038324Y0015284D01*
X0037513Y0015327D01*
X0036704Y0015389D01*
X0035896Y0015472D01*
X0035090Y0015574D01*
X0034287Y0015695D01*
X0033488Y0015836D01*
X0032692Y0015997D01*
X0031900Y0016177D01*
X0031113Y0016376D01*
X0030331Y0016594D01*
X0029554Y0016831D01*
X0028783Y0017087D01*
X0028019Y0017362D01*
X0027262Y0017655D01*
X0026512Y0017966D01*
X0025770Y0018296D01*
X0025036Y0018644D01*
X0024311Y0019009D01*
X0023595Y0019392D01*
X0022889Y0019793D01*
X0022192Y0020210D01*
X0021506Y0020644D01*
X0020831Y0021095D01*
X0020167Y0021562D01*
X0019514Y0022046D01*
X0018874Y0022545D01*
X0018245Y0023059D01*
X0017630Y0023588D01*
X0017027Y0024133D01*
X0016438Y0024692D01*
X0015863Y0025265D01*
X0015302Y0025852D01*
X0014755Y0026452D01*
X0014223Y0027065D01*
X0013706Y0027692D01*
X0013205Y0028330D01*
X0012719Y0028981D01*
X0012249Y0029643D01*
X0011796Y0030317D01*
X0011359Y0031001D01*
X0010939Y0031696D01*
X0010536Y0032401D01*
X0010150Y0033116D01*
X0009782Y0033839D01*
X0009431Y0034572D01*
X0009098Y0035312D01*
X0008784Y0036061D01*
X0008488Y0036817D01*
X0008210Y0037580D01*
X0007951Y0038350D01*
X0007711Y0039125D01*
X0007489Y0039907D01*
X0007287Y0040693D01*
X0007104Y0041484D01*
X0006941Y0042279D01*
X0006796Y0043079D01*
X0006672Y0043881D01*
X0006567Y0044686D01*
X0006481Y0045494D01*
X0006415Y0046303D01*
X0006369Y0047114D01*
X0006343Y0047925D01*
X0006336Y0048737D01*
X0006349Y0049549D01*
X0006382Y0050360D01*
X0006435Y0051171D01*
X0006508Y0051979D01*
X0006600Y0052786D01*
X0006600Y0244786D01*
X0006600Y0243786D02*
X0006565Y0244709D01*
X0006553Y0245632D01*
X0006563Y0246555D01*
X0006595Y0247478D01*
X0006650Y0248400D01*
X0006727Y0249320D01*
X0006826Y0250239D01*
X0006947Y0251154D01*
X0007091Y0252066D01*
X0007257Y0252975D01*
X0007444Y0253879D01*
X0007653Y0254778D01*
X0007884Y0255673D01*
X0008137Y0256561D01*
X0008411Y0257443D01*
X0008706Y0258318D01*
X0009023Y0259185D01*
X0009360Y0260045D01*
X0009718Y0260896D01*
X0010096Y0261739D01*
X0010495Y0262572D01*
X0010914Y0263395D01*
X0011353Y0264207D01*
X0011811Y0265009D01*
X0012288Y0265800D01*
X0012785Y0266578D01*
X0013300Y0267345D01*
X0013833Y0268098D01*
X0014385Y0268839D01*
X0014954Y0269566D01*
X0015541Y0270279D01*
X0016145Y0270978D01*
X0016766Y0271662D01*
X0017403Y0272330D01*
X0018056Y0272983D01*
X0018724Y0273620D01*
X0019408Y0274241D01*
X0020107Y0274845D01*
X0020820Y0275432D01*
X0021547Y0276001D01*
X0022288Y0276553D01*
X0023041Y0277086D01*
X0023808Y0277601D01*
X0024586Y0278098D01*
X0025377Y0278575D01*
X0026179Y0279033D01*
X0026991Y0279472D01*
X0027814Y0279891D01*
X0028647Y0280290D01*
X0029490Y0280668D01*
X0030341Y0281026D01*
X0031201Y0281363D01*
X0032068Y0281680D01*
X0032943Y0281975D01*
X0033825Y0282249D01*
X0034713Y0282502D01*
X0035608Y0282733D01*
X0036507Y0282942D01*
X0037411Y0283129D01*
X0038320Y0283295D01*
X0039232Y0283439D01*
X0040147Y0283560D01*
X0041066Y0283659D01*
X0041986Y0283736D01*
X0042908Y0283791D01*
X0043831Y0283823D01*
X0044754Y0283833D01*
X0045677Y0283821D01*
X0046600Y0283786D01*
X0152600Y0283786D01*
X0152600Y0153786D01*
X0157600Y0153786D01*
X0157600Y0173786D01*
X0367600Y0173786D01*
X0367600Y0283786D01*
X0467600Y0283786D01*
X0468582Y0283740D01*
X0469562Y0283671D01*
X0470541Y0283577D01*
X0471516Y0283461D01*
X0472489Y0283320D01*
X0473458Y0283156D01*
X0474423Y0282969D01*
X0475383Y0282759D01*
X0476337Y0282525D01*
X0477286Y0282268D01*
X0478228Y0281989D01*
X0479163Y0281687D01*
X0480091Y0281362D01*
X0481010Y0281015D01*
X0481921Y0280646D01*
X0482822Y0280255D01*
X0483714Y0279842D01*
X0484596Y0279407D01*
X0485467Y0278952D01*
X0486326Y0278476D01*
X0487174Y0277979D01*
X0488010Y0277461D01*
X0488832Y0276924D01*
X0489642Y0276367D01*
X0490438Y0275790D01*
X0491219Y0275195D01*
X0491986Y0274580D01*
X0492738Y0273947D01*
X0493475Y0273297D01*
X0494195Y0272628D01*
X0494899Y0271943D01*
X0495587Y0271240D01*
X0496257Y0270522D01*
X0496909Y0269787D01*
X0497544Y0269036D01*
X0498160Y0268271D01*
X0498758Y0267491D01*
X0499336Y0266696D01*
X0499896Y0265888D01*
X0500435Y0265067D01*
X0500955Y0264232D01*
X0501454Y0263386D01*
X0501932Y0262527D01*
X0502390Y0261658D01*
X0502826Y0260777D01*
X0503241Y0259886D01*
X0503635Y0258986D01*
X0504006Y0258076D01*
X0504355Y0257157D01*
X0504682Y0256231D01*
X0504987Y0255296D01*
X0505269Y0254355D01*
X0505528Y0253407D01*
X0505764Y0252453D01*
X0505977Y0251494D01*
X0506166Y0250529D01*
X0506333Y0249561D01*
X0506475Y0248588D01*
X0506595Y0247613D01*
X0506690Y0246635D01*
X0506762Y0245655D01*
X0506810Y0244673D01*
X0506835Y0243691D01*
X0506835Y0242708D01*
X0506812Y0241725D01*
X0506765Y0240744D01*
X0506695Y0239764D01*
X0506601Y0238785D01*
X0506600Y0238786D02*
X0506600Y0055786D01*
X0506725Y0054939D01*
X0506828Y0054089D01*
X0506911Y0053237D01*
X0506973Y0052383D01*
X0507014Y0051528D01*
X0507034Y0050672D01*
X0507033Y0049816D01*
X0507011Y0048960D01*
X0506968Y0048105D01*
X0506904Y0047251D01*
X0506819Y0046399D01*
X0506713Y0045550D01*
X0506587Y0044703D01*
X0506440Y0043860D01*
X0506272Y0043020D01*
X0506084Y0042185D01*
X0505875Y0041355D01*
X0505646Y0040530D01*
X0505397Y0039711D01*
X0505128Y0038898D01*
X0504839Y0038092D01*
X0504530Y0037294D01*
X0504202Y0036503D01*
X0503855Y0035720D01*
X0503488Y0034947D01*
X0503103Y0034182D01*
X0502699Y0033427D01*
X0502277Y0032682D01*
X0501836Y0031948D01*
X0501378Y0031225D01*
X0500902Y0030513D01*
X0500409Y0029814D01*
X0499899Y0029126D01*
X0499372Y0028451D01*
X0498829Y0027790D01*
X0498270Y0027141D01*
X0497695Y0026507D01*
X0497104Y0025887D01*
X0496499Y0025282D01*
X0495879Y0024691D01*
X0495245Y0024116D01*
X0494596Y0023557D01*
X0493935Y0023014D01*
X0493260Y0022487D01*
X0492572Y0021977D01*
X0491873Y0021484D01*
X0491161Y0021008D01*
X0490438Y0020550D01*
X0489704Y0020109D01*
X0488959Y0019687D01*
X0488204Y0019283D01*
X0487439Y0018898D01*
X0486666Y0018531D01*
X0485883Y0018184D01*
X0485092Y0017856D01*
X0484294Y0017547D01*
X0483488Y0017258D01*
X0482675Y0016989D01*
X0481856Y0016740D01*
X0481031Y0016511D01*
X0480201Y0016302D01*
X0479366Y0016114D01*
X0478526Y0015946D01*
X0477683Y0015799D01*
X0476836Y0015673D01*
X0475987Y0015567D01*
X0475135Y0015482D01*
X0474281Y0015418D01*
X0473426Y0015375D01*
X0472570Y0015353D01*
X0471714Y0015352D01*
X0470858Y0015372D01*
X0470003Y0015413D01*
X0469149Y0015475D01*
X0468297Y0015558D01*
X0467447Y0015661D01*
X0466600Y0015786D01*
X0480600Y0033786D02*
X0415600Y0033786D01*
X0415600Y0108786D01*
X0480600Y0108786D01*
X0480600Y0033786D01*
X0339600Y0088286D02*
X0338600Y0088286D01*
X0338600Y0087286D01*
X0339600Y0088286D02*
X0339600Y0094286D01*
X0338600Y0094286D01*
X0338600Y0095286D01*
X0325600Y0091286D02*
X0325602Y0091349D01*
X0325608Y0091411D01*
X0325618Y0091473D01*
X0325631Y0091535D01*
X0325649Y0091595D01*
X0325670Y0091654D01*
X0325695Y0091712D01*
X0325724Y0091768D01*
X0325756Y0091822D01*
X0325791Y0091874D01*
X0325829Y0091923D01*
X0325871Y0091971D01*
X0325915Y0092015D01*
X0325963Y0092057D01*
X0326012Y0092095D01*
X0326064Y0092130D01*
X0326118Y0092162D01*
X0326174Y0092191D01*
X0326232Y0092216D01*
X0326291Y0092237D01*
X0326351Y0092255D01*
X0326413Y0092268D01*
X0326475Y0092278D01*
X0326537Y0092284D01*
X0326600Y0092286D01*
X0326663Y0092284D01*
X0326725Y0092278D01*
X0326787Y0092268D01*
X0326849Y0092255D01*
X0326909Y0092237D01*
X0326968Y0092216D01*
X0327026Y0092191D01*
X0327082Y0092162D01*
X0327136Y0092130D01*
X0327188Y0092095D01*
X0327237Y0092057D01*
X0327285Y0092015D01*
X0327329Y0091971D01*
X0327371Y0091923D01*
X0327409Y0091874D01*
X0327444Y0091822D01*
X0327476Y0091768D01*
X0327505Y0091712D01*
X0327530Y0091654D01*
X0327551Y0091595D01*
X0327569Y0091535D01*
X0327582Y0091473D01*
X0327592Y0091411D01*
X0327598Y0091349D01*
X0327600Y0091286D01*
X0327598Y0091223D01*
X0327592Y0091161D01*
X0327582Y0091099D01*
X0327569Y0091037D01*
X0327551Y0090977D01*
X0327530Y0090918D01*
X0327505Y0090860D01*
X0327476Y0090804D01*
X0327444Y0090750D01*
X0327409Y0090698D01*
X0327371Y0090649D01*
X0327329Y0090601D01*
X0327285Y0090557D01*
X0327237Y0090515D01*
X0327188Y0090477D01*
X0327136Y0090442D01*
X0327082Y0090410D01*
X0327026Y0090381D01*
X0326968Y0090356D01*
X0326909Y0090335D01*
X0326849Y0090317D01*
X0326787Y0090304D01*
X0326725Y0090294D01*
X0326663Y0090288D01*
X0326600Y0090286D01*
X0326537Y0090288D01*
X0326475Y0090294D01*
X0326413Y0090304D01*
X0326351Y0090317D01*
X0326291Y0090335D01*
X0326232Y0090356D01*
X0326174Y0090381D01*
X0326118Y0090410D01*
X0326064Y0090442D01*
X0326012Y0090477D01*
X0325963Y0090515D01*
X0325915Y0090557D01*
X0325871Y0090601D01*
X0325829Y0090649D01*
X0325791Y0090698D01*
X0325756Y0090750D01*
X0325724Y0090804D01*
X0325695Y0090860D01*
X0325670Y0090918D01*
X0325649Y0090977D01*
X0325631Y0091037D01*
X0325618Y0091099D01*
X0325608Y0091161D01*
X0325602Y0091223D01*
X0325600Y0091286D01*
X0319600Y0091286D02*
X0319602Y0091458D01*
X0319608Y0091629D01*
X0319619Y0091801D01*
X0319634Y0091972D01*
X0319653Y0092143D01*
X0319676Y0092313D01*
X0319703Y0092483D01*
X0319735Y0092652D01*
X0319770Y0092820D01*
X0319810Y0092987D01*
X0319854Y0093153D01*
X0319901Y0093318D01*
X0319953Y0093482D01*
X0320009Y0093644D01*
X0320069Y0093805D01*
X0320133Y0093965D01*
X0320201Y0094123D01*
X0320272Y0094279D01*
X0320347Y0094433D01*
X0320427Y0094586D01*
X0320509Y0094736D01*
X0320596Y0094885D01*
X0320686Y0095031D01*
X0320780Y0095175D01*
X0320877Y0095317D01*
X0320978Y0095456D01*
X0321082Y0095593D01*
X0321189Y0095727D01*
X0321300Y0095858D01*
X0321413Y0095987D01*
X0321530Y0096113D01*
X0321650Y0096236D01*
X0321773Y0096356D01*
X0321899Y0096473D01*
X0322028Y0096586D01*
X0322159Y0096697D01*
X0322293Y0096804D01*
X0322430Y0096908D01*
X0322569Y0097009D01*
X0322711Y0097106D01*
X0322855Y0097200D01*
X0323001Y0097290D01*
X0323150Y0097377D01*
X0323300Y0097459D01*
X0323453Y0097539D01*
X0323607Y0097614D01*
X0323763Y0097685D01*
X0323921Y0097753D01*
X0324081Y0097817D01*
X0324242Y0097877D01*
X0324404Y0097933D01*
X0324568Y0097985D01*
X0324733Y0098032D01*
X0324899Y0098076D01*
X0325066Y0098116D01*
X0325234Y0098151D01*
X0325403Y0098183D01*
X0325573Y0098210D01*
X0325743Y0098233D01*
X0325914Y0098252D01*
X0326085Y0098267D01*
X0326257Y0098278D01*
X0326428Y0098284D01*
X0326600Y0098286D01*
X0326772Y0098284D01*
X0326943Y0098278D01*
X0327115Y0098267D01*
X0327286Y0098252D01*
X0327457Y0098233D01*
X0327627Y0098210D01*
X0327797Y0098183D01*
X0327966Y0098151D01*
X0328134Y0098116D01*
X0328301Y0098076D01*
X0328467Y0098032D01*
X0328632Y0097985D01*
X0328796Y0097933D01*
X0328958Y0097877D01*
X0329119Y0097817D01*
X0329279Y0097753D01*
X0329437Y0097685D01*
X0329593Y0097614D01*
X0329747Y0097539D01*
X0329900Y0097459D01*
X0330050Y0097377D01*
X0330199Y0097290D01*
X0330345Y0097200D01*
X0330489Y0097106D01*
X0330631Y0097009D01*
X0330770Y0096908D01*
X0330907Y0096804D01*
X0331041Y0096697D01*
X0331172Y0096586D01*
X0331301Y0096473D01*
X0331427Y0096356D01*
X0331550Y0096236D01*
X0331670Y0096113D01*
X0331787Y0095987D01*
X0331900Y0095858D01*
X0332011Y0095727D01*
X0332118Y0095593D01*
X0332222Y0095456D01*
X0332323Y0095317D01*
X0332420Y0095175D01*
X0332514Y0095031D01*
X0332604Y0094885D01*
X0332691Y0094736D01*
X0332773Y0094586D01*
X0332853Y0094433D01*
X0332928Y0094279D01*
X0332999Y0094123D01*
X0333067Y0093965D01*
X0333131Y0093805D01*
X0333191Y0093644D01*
X0333247Y0093482D01*
X0333299Y0093318D01*
X0333346Y0093153D01*
X0333390Y0092987D01*
X0333430Y0092820D01*
X0333465Y0092652D01*
X0333497Y0092483D01*
X0333524Y0092313D01*
X0333547Y0092143D01*
X0333566Y0091972D01*
X0333581Y0091801D01*
X0333592Y0091629D01*
X0333598Y0091458D01*
X0333600Y0091286D01*
X0333598Y0091114D01*
X0333592Y0090943D01*
X0333581Y0090771D01*
X0333566Y0090600D01*
X0333547Y0090429D01*
X0333524Y0090259D01*
X0333497Y0090089D01*
X0333465Y0089920D01*
X0333430Y0089752D01*
X0333390Y0089585D01*
X0333346Y0089419D01*
X0333299Y0089254D01*
X0333247Y0089090D01*
X0333191Y0088928D01*
X0333131Y0088767D01*
X0333067Y0088607D01*
X0332999Y0088449D01*
X0332928Y0088293D01*
X0332853Y0088139D01*
X0332773Y0087986D01*
X0332691Y0087836D01*
X0332604Y0087687D01*
X0332514Y0087541D01*
X0332420Y0087397D01*
X0332323Y0087255D01*
X0332222Y0087116D01*
X0332118Y0086979D01*
X0332011Y0086845D01*
X0331900Y0086714D01*
X0331787Y0086585D01*
X0331670Y0086459D01*
X0331550Y0086336D01*
X0331427Y0086216D01*
X0331301Y0086099D01*
X0331172Y0085986D01*
X0331041Y0085875D01*
X0330907Y0085768D01*
X0330770Y0085664D01*
X0330631Y0085563D01*
X0330489Y0085466D01*
X0330345Y0085372D01*
X0330199Y0085282D01*
X0330050Y0085195D01*
X0329900Y0085113D01*
X0329747Y0085033D01*
X0329593Y0084958D01*
X0329437Y0084887D01*
X0329279Y0084819D01*
X0329119Y0084755D01*
X0328958Y0084695D01*
X0328796Y0084639D01*
X0328632Y0084587D01*
X0328467Y0084540D01*
X0328301Y0084496D01*
X0328134Y0084456D01*
X0327966Y0084421D01*
X0327797Y0084389D01*
X0327627Y0084362D01*
X0327457Y0084339D01*
X0327286Y0084320D01*
X0327115Y0084305D01*
X0326943Y0084294D01*
X0326772Y0084288D01*
X0326600Y0084286D01*
X0326428Y0084288D01*
X0326257Y0084294D01*
X0326085Y0084305D01*
X0325914Y0084320D01*
X0325743Y0084339D01*
X0325573Y0084362D01*
X0325403Y0084389D01*
X0325234Y0084421D01*
X0325066Y0084456D01*
X0324899Y0084496D01*
X0324733Y0084540D01*
X0324568Y0084587D01*
X0324404Y0084639D01*
X0324242Y0084695D01*
X0324081Y0084755D01*
X0323921Y0084819D01*
X0323763Y0084887D01*
X0323607Y0084958D01*
X0323453Y0085033D01*
X0323300Y0085113D01*
X0323150Y0085195D01*
X0323001Y0085282D01*
X0322855Y0085372D01*
X0322711Y0085466D01*
X0322569Y0085563D01*
X0322430Y0085664D01*
X0322293Y0085768D01*
X0322159Y0085875D01*
X0322028Y0085986D01*
X0321899Y0086099D01*
X0321773Y0086216D01*
X0321650Y0086336D01*
X0321530Y0086459D01*
X0321413Y0086585D01*
X0321300Y0086714D01*
X0321189Y0086845D01*
X0321082Y0086979D01*
X0320978Y0087116D01*
X0320877Y0087255D01*
X0320780Y0087397D01*
X0320686Y0087541D01*
X0320596Y0087687D01*
X0320509Y0087836D01*
X0320427Y0087986D01*
X0320347Y0088139D01*
X0320272Y0088293D01*
X0320201Y0088449D01*
X0320133Y0088607D01*
X0320069Y0088767D01*
X0320009Y0088928D01*
X0319953Y0089090D01*
X0319901Y0089254D01*
X0319854Y0089419D01*
X0319810Y0089585D01*
X0319770Y0089752D01*
X0319735Y0089920D01*
X0319703Y0090089D01*
X0319676Y0090259D01*
X0319653Y0090429D01*
X0319634Y0090600D01*
X0319619Y0090771D01*
X0319608Y0090943D01*
X0319602Y0091114D01*
X0319600Y0091286D01*
X0314600Y0094286D02*
X0314600Y0095286D01*
X0314600Y0094286D02*
X0313600Y0094286D01*
X0313600Y0088286D01*
X0314600Y0088286D01*
X0314600Y0087286D01*
X0318100Y0079286D02*
X0322100Y0079286D01*
X0331600Y0079286D01*
X0335100Y0079286D01*
X0335100Y0103286D02*
X0331600Y0103286D01*
X0321600Y0103286D01*
X0318100Y0103286D01*
X0292100Y0094286D02*
X0292100Y0088286D01*
X0291100Y0088286D01*
X0291100Y0087286D01*
X0291100Y0094286D02*
X0291100Y0095286D01*
X0291100Y0094286D02*
X0292100Y0094286D01*
X0278100Y0091286D02*
X0278102Y0091349D01*
X0278108Y0091411D01*
X0278118Y0091473D01*
X0278131Y0091535D01*
X0278149Y0091595D01*
X0278170Y0091654D01*
X0278195Y0091712D01*
X0278224Y0091768D01*
X0278256Y0091822D01*
X0278291Y0091874D01*
X0278329Y0091923D01*
X0278371Y0091971D01*
X0278415Y0092015D01*
X0278463Y0092057D01*
X0278512Y0092095D01*
X0278564Y0092130D01*
X0278618Y0092162D01*
X0278674Y0092191D01*
X0278732Y0092216D01*
X0278791Y0092237D01*
X0278851Y0092255D01*
X0278913Y0092268D01*
X0278975Y0092278D01*
X0279037Y0092284D01*
X0279100Y0092286D01*
X0279163Y0092284D01*
X0279225Y0092278D01*
X0279287Y0092268D01*
X0279349Y0092255D01*
X0279409Y0092237D01*
X0279468Y0092216D01*
X0279526Y0092191D01*
X0279582Y0092162D01*
X0279636Y0092130D01*
X0279688Y0092095D01*
X0279737Y0092057D01*
X0279785Y0092015D01*
X0279829Y0091971D01*
X0279871Y0091923D01*
X0279909Y0091874D01*
X0279944Y0091822D01*
X0279976Y0091768D01*
X0280005Y0091712D01*
X0280030Y0091654D01*
X0280051Y0091595D01*
X0280069Y0091535D01*
X0280082Y0091473D01*
X0280092Y0091411D01*
X0280098Y0091349D01*
X0280100Y0091286D01*
X0280098Y0091223D01*
X0280092Y0091161D01*
X0280082Y0091099D01*
X0280069Y0091037D01*
X0280051Y0090977D01*
X0280030Y0090918D01*
X0280005Y0090860D01*
X0279976Y0090804D01*
X0279944Y0090750D01*
X0279909Y0090698D01*
X0279871Y0090649D01*
X0279829Y0090601D01*
X0279785Y0090557D01*
X0279737Y0090515D01*
X0279688Y0090477D01*
X0279636Y0090442D01*
X0279582Y0090410D01*
X0279526Y0090381D01*
X0279468Y0090356D01*
X0279409Y0090335D01*
X0279349Y0090317D01*
X0279287Y0090304D01*
X0279225Y0090294D01*
X0279163Y0090288D01*
X0279100Y0090286D01*
X0279037Y0090288D01*
X0278975Y0090294D01*
X0278913Y0090304D01*
X0278851Y0090317D01*
X0278791Y0090335D01*
X0278732Y0090356D01*
X0278674Y0090381D01*
X0278618Y0090410D01*
X0278564Y0090442D01*
X0278512Y0090477D01*
X0278463Y0090515D01*
X0278415Y0090557D01*
X0278371Y0090601D01*
X0278329Y0090649D01*
X0278291Y0090698D01*
X0278256Y0090750D01*
X0278224Y0090804D01*
X0278195Y0090860D01*
X0278170Y0090918D01*
X0278149Y0090977D01*
X0278131Y0091037D01*
X0278118Y0091099D01*
X0278108Y0091161D01*
X0278102Y0091223D01*
X0278100Y0091286D01*
X0272100Y0091286D02*
X0272102Y0091458D01*
X0272108Y0091629D01*
X0272119Y0091801D01*
X0272134Y0091972D01*
X0272153Y0092143D01*
X0272176Y0092313D01*
X0272203Y0092483D01*
X0272235Y0092652D01*
X0272270Y0092820D01*
X0272310Y0092987D01*
X0272354Y0093153D01*
X0272401Y0093318D01*
X0272453Y0093482D01*
X0272509Y0093644D01*
X0272569Y0093805D01*
X0272633Y0093965D01*
X0272701Y0094123D01*
X0272772Y0094279D01*
X0272847Y0094433D01*
X0272927Y0094586D01*
X0273009Y0094736D01*
X0273096Y0094885D01*
X0273186Y0095031D01*
X0273280Y0095175D01*
X0273377Y0095317D01*
X0273478Y0095456D01*
X0273582Y0095593D01*
X0273689Y0095727D01*
X0273800Y0095858D01*
X0273913Y0095987D01*
X0274030Y0096113D01*
X0274150Y0096236D01*
X0274273Y0096356D01*
X0274399Y0096473D01*
X0274528Y0096586D01*
X0274659Y0096697D01*
X0274793Y0096804D01*
X0274930Y0096908D01*
X0275069Y0097009D01*
X0275211Y0097106D01*
X0275355Y0097200D01*
X0275501Y0097290D01*
X0275650Y0097377D01*
X0275800Y0097459D01*
X0275953Y0097539D01*
X0276107Y0097614D01*
X0276263Y0097685D01*
X0276421Y0097753D01*
X0276581Y0097817D01*
X0276742Y0097877D01*
X0276904Y0097933D01*
X0277068Y0097985D01*
X0277233Y0098032D01*
X0277399Y0098076D01*
X0277566Y0098116D01*
X0277734Y0098151D01*
X0277903Y0098183D01*
X0278073Y0098210D01*
X0278243Y0098233D01*
X0278414Y0098252D01*
X0278585Y0098267D01*
X0278757Y0098278D01*
X0278928Y0098284D01*
X0279100Y0098286D01*
X0279272Y0098284D01*
X0279443Y0098278D01*
X0279615Y0098267D01*
X0279786Y0098252D01*
X0279957Y0098233D01*
X0280127Y0098210D01*
X0280297Y0098183D01*
X0280466Y0098151D01*
X0280634Y0098116D01*
X0280801Y0098076D01*
X0280967Y0098032D01*
X0281132Y0097985D01*
X0281296Y0097933D01*
X0281458Y0097877D01*
X0281619Y0097817D01*
X0281779Y0097753D01*
X0281937Y0097685D01*
X0282093Y0097614D01*
X0282247Y0097539D01*
X0282400Y0097459D01*
X0282550Y0097377D01*
X0282699Y0097290D01*
X0282845Y0097200D01*
X0282989Y0097106D01*
X0283131Y0097009D01*
X0283270Y0096908D01*
X0283407Y0096804D01*
X0283541Y0096697D01*
X0283672Y0096586D01*
X0283801Y0096473D01*
X0283927Y0096356D01*
X0284050Y0096236D01*
X0284170Y0096113D01*
X0284287Y0095987D01*
X0284400Y0095858D01*
X0284511Y0095727D01*
X0284618Y0095593D01*
X0284722Y0095456D01*
X0284823Y0095317D01*
X0284920Y0095175D01*
X0285014Y0095031D01*
X0285104Y0094885D01*
X0285191Y0094736D01*
X0285273Y0094586D01*
X0285353Y0094433D01*
X0285428Y0094279D01*
X0285499Y0094123D01*
X0285567Y0093965D01*
X0285631Y0093805D01*
X0285691Y0093644D01*
X0285747Y0093482D01*
X0285799Y0093318D01*
X0285846Y0093153D01*
X0285890Y0092987D01*
X0285930Y0092820D01*
X0285965Y0092652D01*
X0285997Y0092483D01*
X0286024Y0092313D01*
X0286047Y0092143D01*
X0286066Y0091972D01*
X0286081Y0091801D01*
X0286092Y0091629D01*
X0286098Y0091458D01*
X0286100Y0091286D01*
X0286098Y0091114D01*
X0286092Y0090943D01*
X0286081Y0090771D01*
X0286066Y0090600D01*
X0286047Y0090429D01*
X0286024Y0090259D01*
X0285997Y0090089D01*
X0285965Y0089920D01*
X0285930Y0089752D01*
X0285890Y0089585D01*
X0285846Y0089419D01*
X0285799Y0089254D01*
X0285747Y0089090D01*
X0285691Y0088928D01*
X0285631Y0088767D01*
X0285567Y0088607D01*
X0285499Y0088449D01*
X0285428Y0088293D01*
X0285353Y0088139D01*
X0285273Y0087986D01*
X0285191Y0087836D01*
X0285104Y0087687D01*
X0285014Y0087541D01*
X0284920Y0087397D01*
X0284823Y0087255D01*
X0284722Y0087116D01*
X0284618Y0086979D01*
X0284511Y0086845D01*
X0284400Y0086714D01*
X0284287Y0086585D01*
X0284170Y0086459D01*
X0284050Y0086336D01*
X0283927Y0086216D01*
X0283801Y0086099D01*
X0283672Y0085986D01*
X0283541Y0085875D01*
X0283407Y0085768D01*
X0283270Y0085664D01*
X0283131Y0085563D01*
X0282989Y0085466D01*
X0282845Y0085372D01*
X0282699Y0085282D01*
X0282550Y0085195D01*
X0282400Y0085113D01*
X0282247Y0085033D01*
X0282093Y0084958D01*
X0281937Y0084887D01*
X0281779Y0084819D01*
X0281619Y0084755D01*
X0281458Y0084695D01*
X0281296Y0084639D01*
X0281132Y0084587D01*
X0280967Y0084540D01*
X0280801Y0084496D01*
X0280634Y0084456D01*
X0280466Y0084421D01*
X0280297Y0084389D01*
X0280127Y0084362D01*
X0279957Y0084339D01*
X0279786Y0084320D01*
X0279615Y0084305D01*
X0279443Y0084294D01*
X0279272Y0084288D01*
X0279100Y0084286D01*
X0278928Y0084288D01*
X0278757Y0084294D01*
X0278585Y0084305D01*
X0278414Y0084320D01*
X0278243Y0084339D01*
X0278073Y0084362D01*
X0277903Y0084389D01*
X0277734Y0084421D01*
X0277566Y0084456D01*
X0277399Y0084496D01*
X0277233Y0084540D01*
X0277068Y0084587D01*
X0276904Y0084639D01*
X0276742Y0084695D01*
X0276581Y0084755D01*
X0276421Y0084819D01*
X0276263Y0084887D01*
X0276107Y0084958D01*
X0275953Y0085033D01*
X0275800Y0085113D01*
X0275650Y0085195D01*
X0275501Y0085282D01*
X0275355Y0085372D01*
X0275211Y0085466D01*
X0275069Y0085563D01*
X0274930Y0085664D01*
X0274793Y0085768D01*
X0274659Y0085875D01*
X0274528Y0085986D01*
X0274399Y0086099D01*
X0274273Y0086216D01*
X0274150Y0086336D01*
X0274030Y0086459D01*
X0273913Y0086585D01*
X0273800Y0086714D01*
X0273689Y0086845D01*
X0273582Y0086979D01*
X0273478Y0087116D01*
X0273377Y0087255D01*
X0273280Y0087397D01*
X0273186Y0087541D01*
X0273096Y0087687D01*
X0273009Y0087836D01*
X0272927Y0087986D01*
X0272847Y0088139D01*
X0272772Y0088293D01*
X0272701Y0088449D01*
X0272633Y0088607D01*
X0272569Y0088767D01*
X0272509Y0088928D01*
X0272453Y0089090D01*
X0272401Y0089254D01*
X0272354Y0089419D01*
X0272310Y0089585D01*
X0272270Y0089752D01*
X0272235Y0089920D01*
X0272203Y0090089D01*
X0272176Y0090259D01*
X0272153Y0090429D01*
X0272134Y0090600D01*
X0272119Y0090771D01*
X0272108Y0090943D01*
X0272102Y0091114D01*
X0272100Y0091286D01*
X0267100Y0094286D02*
X0267100Y0095286D01*
X0267100Y0094286D02*
X0266100Y0094286D01*
X0266100Y0088286D01*
X0267100Y0088286D01*
X0267100Y0087286D01*
X0270600Y0079286D02*
X0274600Y0079286D01*
X0284100Y0079286D01*
X0287600Y0079286D01*
X0287600Y0103286D02*
X0284100Y0103286D01*
X0274100Y0103286D01*
X0270600Y0103286D01*
X0214600Y0094286D02*
X0214600Y0088286D01*
X0213600Y0088286D01*
X0213600Y0087286D01*
X0213600Y0094286D02*
X0213600Y0095286D01*
X0213600Y0094286D02*
X0214600Y0094286D01*
X0200600Y0091286D02*
X0200602Y0091349D01*
X0200608Y0091411D01*
X0200618Y0091473D01*
X0200631Y0091535D01*
X0200649Y0091595D01*
X0200670Y0091654D01*
X0200695Y0091712D01*
X0200724Y0091768D01*
X0200756Y0091822D01*
X0200791Y0091874D01*
X0200829Y0091923D01*
X0200871Y0091971D01*
X0200915Y0092015D01*
X0200963Y0092057D01*
X0201012Y0092095D01*
X0201064Y0092130D01*
X0201118Y0092162D01*
X0201174Y0092191D01*
X0201232Y0092216D01*
X0201291Y0092237D01*
X0201351Y0092255D01*
X0201413Y0092268D01*
X0201475Y0092278D01*
X0201537Y0092284D01*
X0201600Y0092286D01*
X0201663Y0092284D01*
X0201725Y0092278D01*
X0201787Y0092268D01*
X0201849Y0092255D01*
X0201909Y0092237D01*
X0201968Y0092216D01*
X0202026Y0092191D01*
X0202082Y0092162D01*
X0202136Y0092130D01*
X0202188Y0092095D01*
X0202237Y0092057D01*
X0202285Y0092015D01*
X0202329Y0091971D01*
X0202371Y0091923D01*
X0202409Y0091874D01*
X0202444Y0091822D01*
X0202476Y0091768D01*
X0202505Y0091712D01*
X0202530Y0091654D01*
X0202551Y0091595D01*
X0202569Y0091535D01*
X0202582Y0091473D01*
X0202592Y0091411D01*
X0202598Y0091349D01*
X0202600Y0091286D01*
X0202598Y0091223D01*
X0202592Y0091161D01*
X0202582Y0091099D01*
X0202569Y0091037D01*
X0202551Y0090977D01*
X0202530Y0090918D01*
X0202505Y0090860D01*
X0202476Y0090804D01*
X0202444Y0090750D01*
X0202409Y0090698D01*
X0202371Y0090649D01*
X0202329Y0090601D01*
X0202285Y0090557D01*
X0202237Y0090515D01*
X0202188Y0090477D01*
X0202136Y0090442D01*
X0202082Y0090410D01*
X0202026Y0090381D01*
X0201968Y0090356D01*
X0201909Y0090335D01*
X0201849Y0090317D01*
X0201787Y0090304D01*
X0201725Y0090294D01*
X0201663Y0090288D01*
X0201600Y0090286D01*
X0201537Y0090288D01*
X0201475Y0090294D01*
X0201413Y0090304D01*
X0201351Y0090317D01*
X0201291Y0090335D01*
X0201232Y0090356D01*
X0201174Y0090381D01*
X0201118Y0090410D01*
X0201064Y0090442D01*
X0201012Y0090477D01*
X0200963Y0090515D01*
X0200915Y0090557D01*
X0200871Y0090601D01*
X0200829Y0090649D01*
X0200791Y0090698D01*
X0200756Y0090750D01*
X0200724Y0090804D01*
X0200695Y0090860D01*
X0200670Y0090918D01*
X0200649Y0090977D01*
X0200631Y0091037D01*
X0200618Y0091099D01*
X0200608Y0091161D01*
X0200602Y0091223D01*
X0200600Y0091286D01*
X0194600Y0091286D02*
X0194602Y0091458D01*
X0194608Y0091629D01*
X0194619Y0091801D01*
X0194634Y0091972D01*
X0194653Y0092143D01*
X0194676Y0092313D01*
X0194703Y0092483D01*
X0194735Y0092652D01*
X0194770Y0092820D01*
X0194810Y0092987D01*
X0194854Y0093153D01*
X0194901Y0093318D01*
X0194953Y0093482D01*
X0195009Y0093644D01*
X0195069Y0093805D01*
X0195133Y0093965D01*
X0195201Y0094123D01*
X0195272Y0094279D01*
X0195347Y0094433D01*
X0195427Y0094586D01*
X0195509Y0094736D01*
X0195596Y0094885D01*
X0195686Y0095031D01*
X0195780Y0095175D01*
X0195877Y0095317D01*
X0195978Y0095456D01*
X0196082Y0095593D01*
X0196189Y0095727D01*
X0196300Y0095858D01*
X0196413Y0095987D01*
X0196530Y0096113D01*
X0196650Y0096236D01*
X0196773Y0096356D01*
X0196899Y0096473D01*
X0197028Y0096586D01*
X0197159Y0096697D01*
X0197293Y0096804D01*
X0197430Y0096908D01*
X0197569Y0097009D01*
X0197711Y0097106D01*
X0197855Y0097200D01*
X0198001Y0097290D01*
X0198150Y0097377D01*
X0198300Y0097459D01*
X0198453Y0097539D01*
X0198607Y0097614D01*
X0198763Y0097685D01*
X0198921Y0097753D01*
X0199081Y0097817D01*
X0199242Y0097877D01*
X0199404Y0097933D01*
X0199568Y0097985D01*
X0199733Y0098032D01*
X0199899Y0098076D01*
X0200066Y0098116D01*
X0200234Y0098151D01*
X0200403Y0098183D01*
X0200573Y0098210D01*
X0200743Y0098233D01*
X0200914Y0098252D01*
X0201085Y0098267D01*
X0201257Y0098278D01*
X0201428Y0098284D01*
X0201600Y0098286D01*
X0201772Y0098284D01*
X0201943Y0098278D01*
X0202115Y0098267D01*
X0202286Y0098252D01*
X0202457Y0098233D01*
X0202627Y0098210D01*
X0202797Y0098183D01*
X0202966Y0098151D01*
X0203134Y0098116D01*
X0203301Y0098076D01*
X0203467Y0098032D01*
X0203632Y0097985D01*
X0203796Y0097933D01*
X0203958Y0097877D01*
X0204119Y0097817D01*
X0204279Y0097753D01*
X0204437Y0097685D01*
X0204593Y0097614D01*
X0204747Y0097539D01*
X0204900Y0097459D01*
X0205050Y0097377D01*
X0205199Y0097290D01*
X0205345Y0097200D01*
X0205489Y0097106D01*
X0205631Y0097009D01*
X0205770Y0096908D01*
X0205907Y0096804D01*
X0206041Y0096697D01*
X0206172Y0096586D01*
X0206301Y0096473D01*
X0206427Y0096356D01*
X0206550Y0096236D01*
X0206670Y0096113D01*
X0206787Y0095987D01*
X0206900Y0095858D01*
X0207011Y0095727D01*
X0207118Y0095593D01*
X0207222Y0095456D01*
X0207323Y0095317D01*
X0207420Y0095175D01*
X0207514Y0095031D01*
X0207604Y0094885D01*
X0207691Y0094736D01*
X0207773Y0094586D01*
X0207853Y0094433D01*
X0207928Y0094279D01*
X0207999Y0094123D01*
X0208067Y0093965D01*
X0208131Y0093805D01*
X0208191Y0093644D01*
X0208247Y0093482D01*
X0208299Y0093318D01*
X0208346Y0093153D01*
X0208390Y0092987D01*
X0208430Y0092820D01*
X0208465Y0092652D01*
X0208497Y0092483D01*
X0208524Y0092313D01*
X0208547Y0092143D01*
X0208566Y0091972D01*
X0208581Y0091801D01*
X0208592Y0091629D01*
X0208598Y0091458D01*
X0208600Y0091286D01*
X0208598Y0091114D01*
X0208592Y0090943D01*
X0208581Y0090771D01*
X0208566Y0090600D01*
X0208547Y0090429D01*
X0208524Y0090259D01*
X0208497Y0090089D01*
X0208465Y0089920D01*
X0208430Y0089752D01*
X0208390Y0089585D01*
X0208346Y0089419D01*
X0208299Y0089254D01*
X0208247Y0089090D01*
X0208191Y0088928D01*
X0208131Y0088767D01*
X0208067Y0088607D01*
X0207999Y0088449D01*
X0207928Y0088293D01*
X0207853Y0088139D01*
X0207773Y0087986D01*
X0207691Y0087836D01*
X0207604Y0087687D01*
X0207514Y0087541D01*
X0207420Y0087397D01*
X0207323Y0087255D01*
X0207222Y0087116D01*
X0207118Y0086979D01*
X0207011Y0086845D01*
X0206900Y0086714D01*
X0206787Y0086585D01*
X0206670Y0086459D01*
X0206550Y0086336D01*
X0206427Y0086216D01*
X0206301Y0086099D01*
X0206172Y0085986D01*
X0206041Y0085875D01*
X0205907Y0085768D01*
X0205770Y0085664D01*
X0205631Y0085563D01*
X0205489Y0085466D01*
X0205345Y0085372D01*
X0205199Y0085282D01*
X0205050Y0085195D01*
X0204900Y0085113D01*
X0204747Y0085033D01*
X0204593Y0084958D01*
X0204437Y0084887D01*
X0204279Y0084819D01*
X0204119Y0084755D01*
X0203958Y0084695D01*
X0203796Y0084639D01*
X0203632Y0084587D01*
X0203467Y0084540D01*
X0203301Y0084496D01*
X0203134Y0084456D01*
X0202966Y0084421D01*
X0202797Y0084389D01*
X0202627Y0084362D01*
X0202457Y0084339D01*
X0202286Y0084320D01*
X0202115Y0084305D01*
X0201943Y0084294D01*
X0201772Y0084288D01*
X0201600Y0084286D01*
X0201428Y0084288D01*
X0201257Y0084294D01*
X0201085Y0084305D01*
X0200914Y0084320D01*
X0200743Y0084339D01*
X0200573Y0084362D01*
X0200403Y0084389D01*
X0200234Y0084421D01*
X0200066Y0084456D01*
X0199899Y0084496D01*
X0199733Y0084540D01*
X0199568Y0084587D01*
X0199404Y0084639D01*
X0199242Y0084695D01*
X0199081Y0084755D01*
X0198921Y0084819D01*
X0198763Y0084887D01*
X0198607Y0084958D01*
X0198453Y0085033D01*
X0198300Y0085113D01*
X0198150Y0085195D01*
X0198001Y0085282D01*
X0197855Y0085372D01*
X0197711Y0085466D01*
X0197569Y0085563D01*
X0197430Y0085664D01*
X0197293Y0085768D01*
X0197159Y0085875D01*
X0197028Y0085986D01*
X0196899Y0086099D01*
X0196773Y0086216D01*
X0196650Y0086336D01*
X0196530Y0086459D01*
X0196413Y0086585D01*
X0196300Y0086714D01*
X0196189Y0086845D01*
X0196082Y0086979D01*
X0195978Y0087116D01*
X0195877Y0087255D01*
X0195780Y0087397D01*
X0195686Y0087541D01*
X0195596Y0087687D01*
X0195509Y0087836D01*
X0195427Y0087986D01*
X0195347Y0088139D01*
X0195272Y0088293D01*
X0195201Y0088449D01*
X0195133Y0088607D01*
X0195069Y0088767D01*
X0195009Y0088928D01*
X0194953Y0089090D01*
X0194901Y0089254D01*
X0194854Y0089419D01*
X0194810Y0089585D01*
X0194770Y0089752D01*
X0194735Y0089920D01*
X0194703Y0090089D01*
X0194676Y0090259D01*
X0194653Y0090429D01*
X0194634Y0090600D01*
X0194619Y0090771D01*
X0194608Y0090943D01*
X0194602Y0091114D01*
X0194600Y0091286D01*
X0189600Y0094286D02*
X0189600Y0095286D01*
X0189600Y0094286D02*
X0188600Y0094286D01*
X0188600Y0088286D01*
X0189600Y0088286D01*
X0189600Y0087286D01*
X0193100Y0079286D02*
X0197100Y0079286D01*
X0206600Y0079286D01*
X0210100Y0079286D01*
X0210100Y0103286D02*
X0206600Y0103286D01*
X0196600Y0103286D01*
X0193100Y0103286D01*
X0144600Y0094286D02*
X0144600Y0088286D01*
X0143600Y0088286D01*
X0143600Y0087286D01*
X0143600Y0094286D02*
X0143600Y0095286D01*
X0143600Y0094286D02*
X0144600Y0094286D01*
X0140100Y0103286D02*
X0136600Y0103286D01*
X0126600Y0103286D01*
X0123100Y0103286D01*
X0119600Y0095286D02*
X0119600Y0094286D01*
X0118600Y0094286D01*
X0118600Y0088286D01*
X0119600Y0088286D01*
X0119600Y0087286D01*
X0130600Y0091286D02*
X0130602Y0091349D01*
X0130608Y0091411D01*
X0130618Y0091473D01*
X0130631Y0091535D01*
X0130649Y0091595D01*
X0130670Y0091654D01*
X0130695Y0091712D01*
X0130724Y0091768D01*
X0130756Y0091822D01*
X0130791Y0091874D01*
X0130829Y0091923D01*
X0130871Y0091971D01*
X0130915Y0092015D01*
X0130963Y0092057D01*
X0131012Y0092095D01*
X0131064Y0092130D01*
X0131118Y0092162D01*
X0131174Y0092191D01*
X0131232Y0092216D01*
X0131291Y0092237D01*
X0131351Y0092255D01*
X0131413Y0092268D01*
X0131475Y0092278D01*
X0131537Y0092284D01*
X0131600Y0092286D01*
X0131663Y0092284D01*
X0131725Y0092278D01*
X0131787Y0092268D01*
X0131849Y0092255D01*
X0131909Y0092237D01*
X0131968Y0092216D01*
X0132026Y0092191D01*
X0132082Y0092162D01*
X0132136Y0092130D01*
X0132188Y0092095D01*
X0132237Y0092057D01*
X0132285Y0092015D01*
X0132329Y0091971D01*
X0132371Y0091923D01*
X0132409Y0091874D01*
X0132444Y0091822D01*
X0132476Y0091768D01*
X0132505Y0091712D01*
X0132530Y0091654D01*
X0132551Y0091595D01*
X0132569Y0091535D01*
X0132582Y0091473D01*
X0132592Y0091411D01*
X0132598Y0091349D01*
X0132600Y0091286D01*
X0132598Y0091223D01*
X0132592Y0091161D01*
X0132582Y0091099D01*
X0132569Y0091037D01*
X0132551Y0090977D01*
X0132530Y0090918D01*
X0132505Y0090860D01*
X0132476Y0090804D01*
X0132444Y0090750D01*
X0132409Y0090698D01*
X0132371Y0090649D01*
X0132329Y0090601D01*
X0132285Y0090557D01*
X0132237Y0090515D01*
X0132188Y0090477D01*
X0132136Y0090442D01*
X0132082Y0090410D01*
X0132026Y0090381D01*
X0131968Y0090356D01*
X0131909Y0090335D01*
X0131849Y0090317D01*
X0131787Y0090304D01*
X0131725Y0090294D01*
X0131663Y0090288D01*
X0131600Y0090286D01*
X0131537Y0090288D01*
X0131475Y0090294D01*
X0131413Y0090304D01*
X0131351Y0090317D01*
X0131291Y0090335D01*
X0131232Y0090356D01*
X0131174Y0090381D01*
X0131118Y0090410D01*
X0131064Y0090442D01*
X0131012Y0090477D01*
X0130963Y0090515D01*
X0130915Y0090557D01*
X0130871Y0090601D01*
X0130829Y0090649D01*
X0130791Y0090698D01*
X0130756Y0090750D01*
X0130724Y0090804D01*
X0130695Y0090860D01*
X0130670Y0090918D01*
X0130649Y0090977D01*
X0130631Y0091037D01*
X0130618Y0091099D01*
X0130608Y0091161D01*
X0130602Y0091223D01*
X0130600Y0091286D01*
X0124600Y0091286D02*
X0124602Y0091458D01*
X0124608Y0091629D01*
X0124619Y0091801D01*
X0124634Y0091972D01*
X0124653Y0092143D01*
X0124676Y0092313D01*
X0124703Y0092483D01*
X0124735Y0092652D01*
X0124770Y0092820D01*
X0124810Y0092987D01*
X0124854Y0093153D01*
X0124901Y0093318D01*
X0124953Y0093482D01*
X0125009Y0093644D01*
X0125069Y0093805D01*
X0125133Y0093965D01*
X0125201Y0094123D01*
X0125272Y0094279D01*
X0125347Y0094433D01*
X0125427Y0094586D01*
X0125509Y0094736D01*
X0125596Y0094885D01*
X0125686Y0095031D01*
X0125780Y0095175D01*
X0125877Y0095317D01*
X0125978Y0095456D01*
X0126082Y0095593D01*
X0126189Y0095727D01*
X0126300Y0095858D01*
X0126413Y0095987D01*
X0126530Y0096113D01*
X0126650Y0096236D01*
X0126773Y0096356D01*
X0126899Y0096473D01*
X0127028Y0096586D01*
X0127159Y0096697D01*
X0127293Y0096804D01*
X0127430Y0096908D01*
X0127569Y0097009D01*
X0127711Y0097106D01*
X0127855Y0097200D01*
X0128001Y0097290D01*
X0128150Y0097377D01*
X0128300Y0097459D01*
X0128453Y0097539D01*
X0128607Y0097614D01*
X0128763Y0097685D01*
X0128921Y0097753D01*
X0129081Y0097817D01*
X0129242Y0097877D01*
X0129404Y0097933D01*
X0129568Y0097985D01*
X0129733Y0098032D01*
X0129899Y0098076D01*
X0130066Y0098116D01*
X0130234Y0098151D01*
X0130403Y0098183D01*
X0130573Y0098210D01*
X0130743Y0098233D01*
X0130914Y0098252D01*
X0131085Y0098267D01*
X0131257Y0098278D01*
X0131428Y0098284D01*
X0131600Y0098286D01*
X0131772Y0098284D01*
X0131943Y0098278D01*
X0132115Y0098267D01*
X0132286Y0098252D01*
X0132457Y0098233D01*
X0132627Y0098210D01*
X0132797Y0098183D01*
X0132966Y0098151D01*
X0133134Y0098116D01*
X0133301Y0098076D01*
X0133467Y0098032D01*
X0133632Y0097985D01*
X0133796Y0097933D01*
X0133958Y0097877D01*
X0134119Y0097817D01*
X0134279Y0097753D01*
X0134437Y0097685D01*
X0134593Y0097614D01*
X0134747Y0097539D01*
X0134900Y0097459D01*
X0135050Y0097377D01*
X0135199Y0097290D01*
X0135345Y0097200D01*
X0135489Y0097106D01*
X0135631Y0097009D01*
X0135770Y0096908D01*
X0135907Y0096804D01*
X0136041Y0096697D01*
X0136172Y0096586D01*
X0136301Y0096473D01*
X0136427Y0096356D01*
X0136550Y0096236D01*
X0136670Y0096113D01*
X0136787Y0095987D01*
X0136900Y0095858D01*
X0137011Y0095727D01*
X0137118Y0095593D01*
X0137222Y0095456D01*
X0137323Y0095317D01*
X0137420Y0095175D01*
X0137514Y0095031D01*
X0137604Y0094885D01*
X0137691Y0094736D01*
X0137773Y0094586D01*
X0137853Y0094433D01*
X0137928Y0094279D01*
X0137999Y0094123D01*
X0138067Y0093965D01*
X0138131Y0093805D01*
X0138191Y0093644D01*
X0138247Y0093482D01*
X0138299Y0093318D01*
X0138346Y0093153D01*
X0138390Y0092987D01*
X0138430Y0092820D01*
X0138465Y0092652D01*
X0138497Y0092483D01*
X0138524Y0092313D01*
X0138547Y0092143D01*
X0138566Y0091972D01*
X0138581Y0091801D01*
X0138592Y0091629D01*
X0138598Y0091458D01*
X0138600Y0091286D01*
X0138598Y0091114D01*
X0138592Y0090943D01*
X0138581Y0090771D01*
X0138566Y0090600D01*
X0138547Y0090429D01*
X0138524Y0090259D01*
X0138497Y0090089D01*
X0138465Y0089920D01*
X0138430Y0089752D01*
X0138390Y0089585D01*
X0138346Y0089419D01*
X0138299Y0089254D01*
X0138247Y0089090D01*
X0138191Y0088928D01*
X0138131Y0088767D01*
X0138067Y0088607D01*
X0137999Y0088449D01*
X0137928Y0088293D01*
X0137853Y0088139D01*
X0137773Y0087986D01*
X0137691Y0087836D01*
X0137604Y0087687D01*
X0137514Y0087541D01*
X0137420Y0087397D01*
X0137323Y0087255D01*
X0137222Y0087116D01*
X0137118Y0086979D01*
X0137011Y0086845D01*
X0136900Y0086714D01*
X0136787Y0086585D01*
X0136670Y0086459D01*
X0136550Y0086336D01*
X0136427Y0086216D01*
X0136301Y0086099D01*
X0136172Y0085986D01*
X0136041Y0085875D01*
X0135907Y0085768D01*
X0135770Y0085664D01*
X0135631Y0085563D01*
X0135489Y0085466D01*
X0135345Y0085372D01*
X0135199Y0085282D01*
X0135050Y0085195D01*
X0134900Y0085113D01*
X0134747Y0085033D01*
X0134593Y0084958D01*
X0134437Y0084887D01*
X0134279Y0084819D01*
X0134119Y0084755D01*
X0133958Y0084695D01*
X0133796Y0084639D01*
X0133632Y0084587D01*
X0133467Y0084540D01*
X0133301Y0084496D01*
X0133134Y0084456D01*
X0132966Y0084421D01*
X0132797Y0084389D01*
X0132627Y0084362D01*
X0132457Y0084339D01*
X0132286Y0084320D01*
X0132115Y0084305D01*
X0131943Y0084294D01*
X0131772Y0084288D01*
X0131600Y0084286D01*
X0131428Y0084288D01*
X0131257Y0084294D01*
X0131085Y0084305D01*
X0130914Y0084320D01*
X0130743Y0084339D01*
X0130573Y0084362D01*
X0130403Y0084389D01*
X0130234Y0084421D01*
X0130066Y0084456D01*
X0129899Y0084496D01*
X0129733Y0084540D01*
X0129568Y0084587D01*
X0129404Y0084639D01*
X0129242Y0084695D01*
X0129081Y0084755D01*
X0128921Y0084819D01*
X0128763Y0084887D01*
X0128607Y0084958D01*
X0128453Y0085033D01*
X0128300Y0085113D01*
X0128150Y0085195D01*
X0128001Y0085282D01*
X0127855Y0085372D01*
X0127711Y0085466D01*
X0127569Y0085563D01*
X0127430Y0085664D01*
X0127293Y0085768D01*
X0127159Y0085875D01*
X0127028Y0085986D01*
X0126899Y0086099D01*
X0126773Y0086216D01*
X0126650Y0086336D01*
X0126530Y0086459D01*
X0126413Y0086585D01*
X0126300Y0086714D01*
X0126189Y0086845D01*
X0126082Y0086979D01*
X0125978Y0087116D01*
X0125877Y0087255D01*
X0125780Y0087397D01*
X0125686Y0087541D01*
X0125596Y0087687D01*
X0125509Y0087836D01*
X0125427Y0087986D01*
X0125347Y0088139D01*
X0125272Y0088293D01*
X0125201Y0088449D01*
X0125133Y0088607D01*
X0125069Y0088767D01*
X0125009Y0088928D01*
X0124953Y0089090D01*
X0124901Y0089254D01*
X0124854Y0089419D01*
X0124810Y0089585D01*
X0124770Y0089752D01*
X0124735Y0089920D01*
X0124703Y0090089D01*
X0124676Y0090259D01*
X0124653Y0090429D01*
X0124634Y0090600D01*
X0124619Y0090771D01*
X0124608Y0090943D01*
X0124602Y0091114D01*
X0124600Y0091286D01*
X0123100Y0079286D02*
X0127100Y0079286D01*
X0136600Y0079286D01*
X0140100Y0079286D01*
X0082100Y0140786D02*
X0076100Y0140786D01*
X0076100Y0141786D01*
X0075100Y0141786D01*
X0082100Y0141786D02*
X0083100Y0141786D01*
X0082100Y0141786D02*
X0082100Y0140786D01*
X0091100Y0145286D02*
X0091100Y0148786D01*
X0091100Y0158786D01*
X0091100Y0162286D01*
X0083100Y0165786D02*
X0082100Y0165786D01*
X0082100Y0166786D01*
X0076100Y0166786D01*
X0076100Y0165786D01*
X0075100Y0165786D01*
X0067100Y0162286D02*
X0067100Y0158286D01*
X0067100Y0148786D01*
X0067100Y0145286D01*
X0078100Y0153786D02*
X0078102Y0153849D01*
X0078108Y0153911D01*
X0078118Y0153973D01*
X0078131Y0154035D01*
X0078149Y0154095D01*
X0078170Y0154154D01*
X0078195Y0154212D01*
X0078224Y0154268D01*
X0078256Y0154322D01*
X0078291Y0154374D01*
X0078329Y0154423D01*
X0078371Y0154471D01*
X0078415Y0154515D01*
X0078463Y0154557D01*
X0078512Y0154595D01*
X0078564Y0154630D01*
X0078618Y0154662D01*
X0078674Y0154691D01*
X0078732Y0154716D01*
X0078791Y0154737D01*
X0078851Y0154755D01*
X0078913Y0154768D01*
X0078975Y0154778D01*
X0079037Y0154784D01*
X0079100Y0154786D01*
X0079163Y0154784D01*
X0079225Y0154778D01*
X0079287Y0154768D01*
X0079349Y0154755D01*
X0079409Y0154737D01*
X0079468Y0154716D01*
X0079526Y0154691D01*
X0079582Y0154662D01*
X0079636Y0154630D01*
X0079688Y0154595D01*
X0079737Y0154557D01*
X0079785Y0154515D01*
X0079829Y0154471D01*
X0079871Y0154423D01*
X0079909Y0154374D01*
X0079944Y0154322D01*
X0079976Y0154268D01*
X0080005Y0154212D01*
X0080030Y0154154D01*
X0080051Y0154095D01*
X0080069Y0154035D01*
X0080082Y0153973D01*
X0080092Y0153911D01*
X0080098Y0153849D01*
X0080100Y0153786D01*
X0080098Y0153723D01*
X0080092Y0153661D01*
X0080082Y0153599D01*
X0080069Y0153537D01*
X0080051Y0153477D01*
X0080030Y0153418D01*
X0080005Y0153360D01*
X0079976Y0153304D01*
X0079944Y0153250D01*
X0079909Y0153198D01*
X0079871Y0153149D01*
X0079829Y0153101D01*
X0079785Y0153057D01*
X0079737Y0153015D01*
X0079688Y0152977D01*
X0079636Y0152942D01*
X0079582Y0152910D01*
X0079526Y0152881D01*
X0079468Y0152856D01*
X0079409Y0152835D01*
X0079349Y0152817D01*
X0079287Y0152804D01*
X0079225Y0152794D01*
X0079163Y0152788D01*
X0079100Y0152786D01*
X0079037Y0152788D01*
X0078975Y0152794D01*
X0078913Y0152804D01*
X0078851Y0152817D01*
X0078791Y0152835D01*
X0078732Y0152856D01*
X0078674Y0152881D01*
X0078618Y0152910D01*
X0078564Y0152942D01*
X0078512Y0152977D01*
X0078463Y0153015D01*
X0078415Y0153057D01*
X0078371Y0153101D01*
X0078329Y0153149D01*
X0078291Y0153198D01*
X0078256Y0153250D01*
X0078224Y0153304D01*
X0078195Y0153360D01*
X0078170Y0153418D01*
X0078149Y0153477D01*
X0078131Y0153537D01*
X0078118Y0153599D01*
X0078108Y0153661D01*
X0078102Y0153723D01*
X0078100Y0153786D01*
X0072100Y0153786D02*
X0072102Y0153958D01*
X0072108Y0154129D01*
X0072119Y0154301D01*
X0072134Y0154472D01*
X0072153Y0154643D01*
X0072176Y0154813D01*
X0072203Y0154983D01*
X0072235Y0155152D01*
X0072270Y0155320D01*
X0072310Y0155487D01*
X0072354Y0155653D01*
X0072401Y0155818D01*
X0072453Y0155982D01*
X0072509Y0156144D01*
X0072569Y0156305D01*
X0072633Y0156465D01*
X0072701Y0156623D01*
X0072772Y0156779D01*
X0072847Y0156933D01*
X0072927Y0157086D01*
X0073009Y0157236D01*
X0073096Y0157385D01*
X0073186Y0157531D01*
X0073280Y0157675D01*
X0073377Y0157817D01*
X0073478Y0157956D01*
X0073582Y0158093D01*
X0073689Y0158227D01*
X0073800Y0158358D01*
X0073913Y0158487D01*
X0074030Y0158613D01*
X0074150Y0158736D01*
X0074273Y0158856D01*
X0074399Y0158973D01*
X0074528Y0159086D01*
X0074659Y0159197D01*
X0074793Y0159304D01*
X0074930Y0159408D01*
X0075069Y0159509D01*
X0075211Y0159606D01*
X0075355Y0159700D01*
X0075501Y0159790D01*
X0075650Y0159877D01*
X0075800Y0159959D01*
X0075953Y0160039D01*
X0076107Y0160114D01*
X0076263Y0160185D01*
X0076421Y0160253D01*
X0076581Y0160317D01*
X0076742Y0160377D01*
X0076904Y0160433D01*
X0077068Y0160485D01*
X0077233Y0160532D01*
X0077399Y0160576D01*
X0077566Y0160616D01*
X0077734Y0160651D01*
X0077903Y0160683D01*
X0078073Y0160710D01*
X0078243Y0160733D01*
X0078414Y0160752D01*
X0078585Y0160767D01*
X0078757Y0160778D01*
X0078928Y0160784D01*
X0079100Y0160786D01*
X0079272Y0160784D01*
X0079443Y0160778D01*
X0079615Y0160767D01*
X0079786Y0160752D01*
X0079957Y0160733D01*
X0080127Y0160710D01*
X0080297Y0160683D01*
X0080466Y0160651D01*
X0080634Y0160616D01*
X0080801Y0160576D01*
X0080967Y0160532D01*
X0081132Y0160485D01*
X0081296Y0160433D01*
X0081458Y0160377D01*
X0081619Y0160317D01*
X0081779Y0160253D01*
X0081937Y0160185D01*
X0082093Y0160114D01*
X0082247Y0160039D01*
X0082400Y0159959D01*
X0082550Y0159877D01*
X0082699Y0159790D01*
X0082845Y0159700D01*
X0082989Y0159606D01*
X0083131Y0159509D01*
X0083270Y0159408D01*
X0083407Y0159304D01*
X0083541Y0159197D01*
X0083672Y0159086D01*
X0083801Y0158973D01*
X0083927Y0158856D01*
X0084050Y0158736D01*
X0084170Y0158613D01*
X0084287Y0158487D01*
X0084400Y0158358D01*
X0084511Y0158227D01*
X0084618Y0158093D01*
X0084722Y0157956D01*
X0084823Y0157817D01*
X0084920Y0157675D01*
X0085014Y0157531D01*
X0085104Y0157385D01*
X0085191Y0157236D01*
X0085273Y0157086D01*
X0085353Y0156933D01*
X0085428Y0156779D01*
X0085499Y0156623D01*
X0085567Y0156465D01*
X0085631Y0156305D01*
X0085691Y0156144D01*
X0085747Y0155982D01*
X0085799Y0155818D01*
X0085846Y0155653D01*
X0085890Y0155487D01*
X0085930Y0155320D01*
X0085965Y0155152D01*
X0085997Y0154983D01*
X0086024Y0154813D01*
X0086047Y0154643D01*
X0086066Y0154472D01*
X0086081Y0154301D01*
X0086092Y0154129D01*
X0086098Y0153958D01*
X0086100Y0153786D01*
X0086098Y0153614D01*
X0086092Y0153443D01*
X0086081Y0153271D01*
X0086066Y0153100D01*
X0086047Y0152929D01*
X0086024Y0152759D01*
X0085997Y0152589D01*
X0085965Y0152420D01*
X0085930Y0152252D01*
X0085890Y0152085D01*
X0085846Y0151919D01*
X0085799Y0151754D01*
X0085747Y0151590D01*
X0085691Y0151428D01*
X0085631Y0151267D01*
X0085567Y0151107D01*
X0085499Y0150949D01*
X0085428Y0150793D01*
X0085353Y0150639D01*
X0085273Y0150486D01*
X0085191Y0150336D01*
X0085104Y0150187D01*
X0085014Y0150041D01*
X0084920Y0149897D01*
X0084823Y0149755D01*
X0084722Y0149616D01*
X0084618Y0149479D01*
X0084511Y0149345D01*
X0084400Y0149214D01*
X0084287Y0149085D01*
X0084170Y0148959D01*
X0084050Y0148836D01*
X0083927Y0148716D01*
X0083801Y0148599D01*
X0083672Y0148486D01*
X0083541Y0148375D01*
X0083407Y0148268D01*
X0083270Y0148164D01*
X0083131Y0148063D01*
X0082989Y0147966D01*
X0082845Y0147872D01*
X0082699Y0147782D01*
X0082550Y0147695D01*
X0082400Y0147613D01*
X0082247Y0147533D01*
X0082093Y0147458D01*
X0081937Y0147387D01*
X0081779Y0147319D01*
X0081619Y0147255D01*
X0081458Y0147195D01*
X0081296Y0147139D01*
X0081132Y0147087D01*
X0080967Y0147040D01*
X0080801Y0146996D01*
X0080634Y0146956D01*
X0080466Y0146921D01*
X0080297Y0146889D01*
X0080127Y0146862D01*
X0079957Y0146839D01*
X0079786Y0146820D01*
X0079615Y0146805D01*
X0079443Y0146794D01*
X0079272Y0146788D01*
X0079100Y0146786D01*
X0078928Y0146788D01*
X0078757Y0146794D01*
X0078585Y0146805D01*
X0078414Y0146820D01*
X0078243Y0146839D01*
X0078073Y0146862D01*
X0077903Y0146889D01*
X0077734Y0146921D01*
X0077566Y0146956D01*
X0077399Y0146996D01*
X0077233Y0147040D01*
X0077068Y0147087D01*
X0076904Y0147139D01*
X0076742Y0147195D01*
X0076581Y0147255D01*
X0076421Y0147319D01*
X0076263Y0147387D01*
X0076107Y0147458D01*
X0075953Y0147533D01*
X0075800Y0147613D01*
X0075650Y0147695D01*
X0075501Y0147782D01*
X0075355Y0147872D01*
X0075211Y0147966D01*
X0075069Y0148063D01*
X0074930Y0148164D01*
X0074793Y0148268D01*
X0074659Y0148375D01*
X0074528Y0148486D01*
X0074399Y0148599D01*
X0074273Y0148716D01*
X0074150Y0148836D01*
X0074030Y0148959D01*
X0073913Y0149085D01*
X0073800Y0149214D01*
X0073689Y0149345D01*
X0073582Y0149479D01*
X0073478Y0149616D01*
X0073377Y0149755D01*
X0073280Y0149897D01*
X0073186Y0150041D01*
X0073096Y0150187D01*
X0073009Y0150336D01*
X0072927Y0150486D01*
X0072847Y0150639D01*
X0072772Y0150793D01*
X0072701Y0150949D01*
X0072633Y0151107D01*
X0072569Y0151267D01*
X0072509Y0151428D01*
X0072453Y0151590D01*
X0072401Y0151754D01*
X0072354Y0151919D01*
X0072310Y0152085D01*
X0072270Y0152252D01*
X0072235Y0152420D01*
X0072203Y0152589D01*
X0072176Y0152759D01*
X0072153Y0152929D01*
X0072134Y0153100D01*
X0072119Y0153271D01*
X0072108Y0153443D01*
X0072102Y0153614D01*
X0072100Y0153786D01*
X0093500Y0199786D02*
X0093500Y0202786D01*
X0104900Y0202786D01*
X0104900Y0199786D01*
X0093500Y0199786D01*
X0083100Y0204286D02*
X0082100Y0204286D01*
X0082100Y0203286D01*
X0076100Y0203286D01*
X0076100Y0204286D01*
X0075100Y0204286D01*
X0067100Y0207786D02*
X0067100Y0211286D01*
X0067100Y0220786D01*
X0067100Y0224786D01*
X0075100Y0228286D02*
X0076100Y0228286D01*
X0076100Y0229286D01*
X0082100Y0229286D01*
X0082100Y0228286D01*
X0083100Y0228286D01*
X0091100Y0224786D02*
X0091100Y0221286D01*
X0091100Y0211286D01*
X0091100Y0207786D01*
X0093500Y0214786D02*
X0093500Y0217786D01*
X0104900Y0217786D01*
X0104900Y0214786D01*
X0093500Y0214786D01*
X0078100Y0216286D02*
X0078102Y0216349D01*
X0078108Y0216411D01*
X0078118Y0216473D01*
X0078131Y0216535D01*
X0078149Y0216595D01*
X0078170Y0216654D01*
X0078195Y0216712D01*
X0078224Y0216768D01*
X0078256Y0216822D01*
X0078291Y0216874D01*
X0078329Y0216923D01*
X0078371Y0216971D01*
X0078415Y0217015D01*
X0078463Y0217057D01*
X0078512Y0217095D01*
X0078564Y0217130D01*
X0078618Y0217162D01*
X0078674Y0217191D01*
X0078732Y0217216D01*
X0078791Y0217237D01*
X0078851Y0217255D01*
X0078913Y0217268D01*
X0078975Y0217278D01*
X0079037Y0217284D01*
X0079100Y0217286D01*
X0079163Y0217284D01*
X0079225Y0217278D01*
X0079287Y0217268D01*
X0079349Y0217255D01*
X0079409Y0217237D01*
X0079468Y0217216D01*
X0079526Y0217191D01*
X0079582Y0217162D01*
X0079636Y0217130D01*
X0079688Y0217095D01*
X0079737Y0217057D01*
X0079785Y0217015D01*
X0079829Y0216971D01*
X0079871Y0216923D01*
X0079909Y0216874D01*
X0079944Y0216822D01*
X0079976Y0216768D01*
X0080005Y0216712D01*
X0080030Y0216654D01*
X0080051Y0216595D01*
X0080069Y0216535D01*
X0080082Y0216473D01*
X0080092Y0216411D01*
X0080098Y0216349D01*
X0080100Y0216286D01*
X0080098Y0216223D01*
X0080092Y0216161D01*
X0080082Y0216099D01*
X0080069Y0216037D01*
X0080051Y0215977D01*
X0080030Y0215918D01*
X0080005Y0215860D01*
X0079976Y0215804D01*
X0079944Y0215750D01*
X0079909Y0215698D01*
X0079871Y0215649D01*
X0079829Y0215601D01*
X0079785Y0215557D01*
X0079737Y0215515D01*
X0079688Y0215477D01*
X0079636Y0215442D01*
X0079582Y0215410D01*
X0079526Y0215381D01*
X0079468Y0215356D01*
X0079409Y0215335D01*
X0079349Y0215317D01*
X0079287Y0215304D01*
X0079225Y0215294D01*
X0079163Y0215288D01*
X0079100Y0215286D01*
X0079037Y0215288D01*
X0078975Y0215294D01*
X0078913Y0215304D01*
X0078851Y0215317D01*
X0078791Y0215335D01*
X0078732Y0215356D01*
X0078674Y0215381D01*
X0078618Y0215410D01*
X0078564Y0215442D01*
X0078512Y0215477D01*
X0078463Y0215515D01*
X0078415Y0215557D01*
X0078371Y0215601D01*
X0078329Y0215649D01*
X0078291Y0215698D01*
X0078256Y0215750D01*
X0078224Y0215804D01*
X0078195Y0215860D01*
X0078170Y0215918D01*
X0078149Y0215977D01*
X0078131Y0216037D01*
X0078118Y0216099D01*
X0078108Y0216161D01*
X0078102Y0216223D01*
X0078100Y0216286D01*
X0072100Y0216286D02*
X0072102Y0216458D01*
X0072108Y0216629D01*
X0072119Y0216801D01*
X0072134Y0216972D01*
X0072153Y0217143D01*
X0072176Y0217313D01*
X0072203Y0217483D01*
X0072235Y0217652D01*
X0072270Y0217820D01*
X0072310Y0217987D01*
X0072354Y0218153D01*
X0072401Y0218318D01*
X0072453Y0218482D01*
X0072509Y0218644D01*
X0072569Y0218805D01*
X0072633Y0218965D01*
X0072701Y0219123D01*
X0072772Y0219279D01*
X0072847Y0219433D01*
X0072927Y0219586D01*
X0073009Y0219736D01*
X0073096Y0219885D01*
X0073186Y0220031D01*
X0073280Y0220175D01*
X0073377Y0220317D01*
X0073478Y0220456D01*
X0073582Y0220593D01*
X0073689Y0220727D01*
X0073800Y0220858D01*
X0073913Y0220987D01*
X0074030Y0221113D01*
X0074150Y0221236D01*
X0074273Y0221356D01*
X0074399Y0221473D01*
X0074528Y0221586D01*
X0074659Y0221697D01*
X0074793Y0221804D01*
X0074930Y0221908D01*
X0075069Y0222009D01*
X0075211Y0222106D01*
X0075355Y0222200D01*
X0075501Y0222290D01*
X0075650Y0222377D01*
X0075800Y0222459D01*
X0075953Y0222539D01*
X0076107Y0222614D01*
X0076263Y0222685D01*
X0076421Y0222753D01*
X0076581Y0222817D01*
X0076742Y0222877D01*
X0076904Y0222933D01*
X0077068Y0222985D01*
X0077233Y0223032D01*
X0077399Y0223076D01*
X0077566Y0223116D01*
X0077734Y0223151D01*
X0077903Y0223183D01*
X0078073Y0223210D01*
X0078243Y0223233D01*
X0078414Y0223252D01*
X0078585Y0223267D01*
X0078757Y0223278D01*
X0078928Y0223284D01*
X0079100Y0223286D01*
X0079272Y0223284D01*
X0079443Y0223278D01*
X0079615Y0223267D01*
X0079786Y0223252D01*
X0079957Y0223233D01*
X0080127Y0223210D01*
X0080297Y0223183D01*
X0080466Y0223151D01*
X0080634Y0223116D01*
X0080801Y0223076D01*
X0080967Y0223032D01*
X0081132Y0222985D01*
X0081296Y0222933D01*
X0081458Y0222877D01*
X0081619Y0222817D01*
X0081779Y0222753D01*
X0081937Y0222685D01*
X0082093Y0222614D01*
X0082247Y0222539D01*
X0082400Y0222459D01*
X0082550Y0222377D01*
X0082699Y0222290D01*
X0082845Y0222200D01*
X0082989Y0222106D01*
X0083131Y0222009D01*
X0083270Y0221908D01*
X0083407Y0221804D01*
X0083541Y0221697D01*
X0083672Y0221586D01*
X0083801Y0221473D01*
X0083927Y0221356D01*
X0084050Y0221236D01*
X0084170Y0221113D01*
X0084287Y0220987D01*
X0084400Y0220858D01*
X0084511Y0220727D01*
X0084618Y0220593D01*
X0084722Y0220456D01*
X0084823Y0220317D01*
X0084920Y0220175D01*
X0085014Y0220031D01*
X0085104Y0219885D01*
X0085191Y0219736D01*
X0085273Y0219586D01*
X0085353Y0219433D01*
X0085428Y0219279D01*
X0085499Y0219123D01*
X0085567Y0218965D01*
X0085631Y0218805D01*
X0085691Y0218644D01*
X0085747Y0218482D01*
X0085799Y0218318D01*
X0085846Y0218153D01*
X0085890Y0217987D01*
X0085930Y0217820D01*
X0085965Y0217652D01*
X0085997Y0217483D01*
X0086024Y0217313D01*
X0086047Y0217143D01*
X0086066Y0216972D01*
X0086081Y0216801D01*
X0086092Y0216629D01*
X0086098Y0216458D01*
X0086100Y0216286D01*
X0086098Y0216114D01*
X0086092Y0215943D01*
X0086081Y0215771D01*
X0086066Y0215600D01*
X0086047Y0215429D01*
X0086024Y0215259D01*
X0085997Y0215089D01*
X0085965Y0214920D01*
X0085930Y0214752D01*
X0085890Y0214585D01*
X0085846Y0214419D01*
X0085799Y0214254D01*
X0085747Y0214090D01*
X0085691Y0213928D01*
X0085631Y0213767D01*
X0085567Y0213607D01*
X0085499Y0213449D01*
X0085428Y0213293D01*
X0085353Y0213139D01*
X0085273Y0212986D01*
X0085191Y0212836D01*
X0085104Y0212687D01*
X0085014Y0212541D01*
X0084920Y0212397D01*
X0084823Y0212255D01*
X0084722Y0212116D01*
X0084618Y0211979D01*
X0084511Y0211845D01*
X0084400Y0211714D01*
X0084287Y0211585D01*
X0084170Y0211459D01*
X0084050Y0211336D01*
X0083927Y0211216D01*
X0083801Y0211099D01*
X0083672Y0210986D01*
X0083541Y0210875D01*
X0083407Y0210768D01*
X0083270Y0210664D01*
X0083131Y0210563D01*
X0082989Y0210466D01*
X0082845Y0210372D01*
X0082699Y0210282D01*
X0082550Y0210195D01*
X0082400Y0210113D01*
X0082247Y0210033D01*
X0082093Y0209958D01*
X0081937Y0209887D01*
X0081779Y0209819D01*
X0081619Y0209755D01*
X0081458Y0209695D01*
X0081296Y0209639D01*
X0081132Y0209587D01*
X0080967Y0209540D01*
X0080801Y0209496D01*
X0080634Y0209456D01*
X0080466Y0209421D01*
X0080297Y0209389D01*
X0080127Y0209362D01*
X0079957Y0209339D01*
X0079786Y0209320D01*
X0079615Y0209305D01*
X0079443Y0209294D01*
X0079272Y0209288D01*
X0079100Y0209286D01*
X0078928Y0209288D01*
X0078757Y0209294D01*
X0078585Y0209305D01*
X0078414Y0209320D01*
X0078243Y0209339D01*
X0078073Y0209362D01*
X0077903Y0209389D01*
X0077734Y0209421D01*
X0077566Y0209456D01*
X0077399Y0209496D01*
X0077233Y0209540D01*
X0077068Y0209587D01*
X0076904Y0209639D01*
X0076742Y0209695D01*
X0076581Y0209755D01*
X0076421Y0209819D01*
X0076263Y0209887D01*
X0076107Y0209958D01*
X0075953Y0210033D01*
X0075800Y0210113D01*
X0075650Y0210195D01*
X0075501Y0210282D01*
X0075355Y0210372D01*
X0075211Y0210466D01*
X0075069Y0210563D01*
X0074930Y0210664D01*
X0074793Y0210768D01*
X0074659Y0210875D01*
X0074528Y0210986D01*
X0074399Y0211099D01*
X0074273Y0211216D01*
X0074150Y0211336D01*
X0074030Y0211459D01*
X0073913Y0211585D01*
X0073800Y0211714D01*
X0073689Y0211845D01*
X0073582Y0211979D01*
X0073478Y0212116D01*
X0073377Y0212255D01*
X0073280Y0212397D01*
X0073186Y0212541D01*
X0073096Y0212687D01*
X0073009Y0212836D01*
X0072927Y0212986D01*
X0072847Y0213139D01*
X0072772Y0213293D01*
X0072701Y0213449D01*
X0072633Y0213607D01*
X0072569Y0213767D01*
X0072509Y0213928D01*
X0072453Y0214090D01*
X0072401Y0214254D01*
X0072354Y0214419D01*
X0072310Y0214585D01*
X0072270Y0214752D01*
X0072235Y0214920D01*
X0072203Y0215089D01*
X0072176Y0215259D01*
X0072153Y0215429D01*
X0072134Y0215600D01*
X0072119Y0215771D01*
X0072108Y0215943D01*
X0072102Y0216114D01*
X0072100Y0216286D01*
X0419600Y0220786D02*
X0419600Y0211286D01*
X0419600Y0207786D01*
X0427600Y0204286D02*
X0428600Y0204286D01*
X0428600Y0203286D01*
X0434600Y0203286D01*
X0434600Y0204286D01*
X0435600Y0204286D01*
X0443600Y0207786D02*
X0443600Y0211286D01*
X0443600Y0221286D01*
X0443600Y0224786D01*
X0435600Y0228286D02*
X0434600Y0228286D01*
X0434600Y0229286D01*
X0428600Y0229286D01*
X0428600Y0228286D01*
X0427600Y0228286D01*
X0419600Y0224786D02*
X0419600Y0220786D01*
X0430600Y0216286D02*
X0430602Y0216349D01*
X0430608Y0216411D01*
X0430618Y0216473D01*
X0430631Y0216535D01*
X0430649Y0216595D01*
X0430670Y0216654D01*
X0430695Y0216712D01*
X0430724Y0216768D01*
X0430756Y0216822D01*
X0430791Y0216874D01*
X0430829Y0216923D01*
X0430871Y0216971D01*
X0430915Y0217015D01*
X0430963Y0217057D01*
X0431012Y0217095D01*
X0431064Y0217130D01*
X0431118Y0217162D01*
X0431174Y0217191D01*
X0431232Y0217216D01*
X0431291Y0217237D01*
X0431351Y0217255D01*
X0431413Y0217268D01*
X0431475Y0217278D01*
X0431537Y0217284D01*
X0431600Y0217286D01*
X0431663Y0217284D01*
X0431725Y0217278D01*
X0431787Y0217268D01*
X0431849Y0217255D01*
X0431909Y0217237D01*
X0431968Y0217216D01*
X0432026Y0217191D01*
X0432082Y0217162D01*
X0432136Y0217130D01*
X0432188Y0217095D01*
X0432237Y0217057D01*
X0432285Y0217015D01*
X0432329Y0216971D01*
X0432371Y0216923D01*
X0432409Y0216874D01*
X0432444Y0216822D01*
X0432476Y0216768D01*
X0432505Y0216712D01*
X0432530Y0216654D01*
X0432551Y0216595D01*
X0432569Y0216535D01*
X0432582Y0216473D01*
X0432592Y0216411D01*
X0432598Y0216349D01*
X0432600Y0216286D01*
X0432598Y0216223D01*
X0432592Y0216161D01*
X0432582Y0216099D01*
X0432569Y0216037D01*
X0432551Y0215977D01*
X0432530Y0215918D01*
X0432505Y0215860D01*
X0432476Y0215804D01*
X0432444Y0215750D01*
X0432409Y0215698D01*
X0432371Y0215649D01*
X0432329Y0215601D01*
X0432285Y0215557D01*
X0432237Y0215515D01*
X0432188Y0215477D01*
X0432136Y0215442D01*
X0432082Y0215410D01*
X0432026Y0215381D01*
X0431968Y0215356D01*
X0431909Y0215335D01*
X0431849Y0215317D01*
X0431787Y0215304D01*
X0431725Y0215294D01*
X0431663Y0215288D01*
X0431600Y0215286D01*
X0431537Y0215288D01*
X0431475Y0215294D01*
X0431413Y0215304D01*
X0431351Y0215317D01*
X0431291Y0215335D01*
X0431232Y0215356D01*
X0431174Y0215381D01*
X0431118Y0215410D01*
X0431064Y0215442D01*
X0431012Y0215477D01*
X0430963Y0215515D01*
X0430915Y0215557D01*
X0430871Y0215601D01*
X0430829Y0215649D01*
X0430791Y0215698D01*
X0430756Y0215750D01*
X0430724Y0215804D01*
X0430695Y0215860D01*
X0430670Y0215918D01*
X0430649Y0215977D01*
X0430631Y0216037D01*
X0430618Y0216099D01*
X0430608Y0216161D01*
X0430602Y0216223D01*
X0430600Y0216286D01*
X0424600Y0216286D02*
X0424602Y0216458D01*
X0424608Y0216629D01*
X0424619Y0216801D01*
X0424634Y0216972D01*
X0424653Y0217143D01*
X0424676Y0217313D01*
X0424703Y0217483D01*
X0424735Y0217652D01*
X0424770Y0217820D01*
X0424810Y0217987D01*
X0424854Y0218153D01*
X0424901Y0218318D01*
X0424953Y0218482D01*
X0425009Y0218644D01*
X0425069Y0218805D01*
X0425133Y0218965D01*
X0425201Y0219123D01*
X0425272Y0219279D01*
X0425347Y0219433D01*
X0425427Y0219586D01*
X0425509Y0219736D01*
X0425596Y0219885D01*
X0425686Y0220031D01*
X0425780Y0220175D01*
X0425877Y0220317D01*
X0425978Y0220456D01*
X0426082Y0220593D01*
X0426189Y0220727D01*
X0426300Y0220858D01*
X0426413Y0220987D01*
X0426530Y0221113D01*
X0426650Y0221236D01*
X0426773Y0221356D01*
X0426899Y0221473D01*
X0427028Y0221586D01*
X0427159Y0221697D01*
X0427293Y0221804D01*
X0427430Y0221908D01*
X0427569Y0222009D01*
X0427711Y0222106D01*
X0427855Y0222200D01*
X0428001Y0222290D01*
X0428150Y0222377D01*
X0428300Y0222459D01*
X0428453Y0222539D01*
X0428607Y0222614D01*
X0428763Y0222685D01*
X0428921Y0222753D01*
X0429081Y0222817D01*
X0429242Y0222877D01*
X0429404Y0222933D01*
X0429568Y0222985D01*
X0429733Y0223032D01*
X0429899Y0223076D01*
X0430066Y0223116D01*
X0430234Y0223151D01*
X0430403Y0223183D01*
X0430573Y0223210D01*
X0430743Y0223233D01*
X0430914Y0223252D01*
X0431085Y0223267D01*
X0431257Y0223278D01*
X0431428Y0223284D01*
X0431600Y0223286D01*
X0431772Y0223284D01*
X0431943Y0223278D01*
X0432115Y0223267D01*
X0432286Y0223252D01*
X0432457Y0223233D01*
X0432627Y0223210D01*
X0432797Y0223183D01*
X0432966Y0223151D01*
X0433134Y0223116D01*
X0433301Y0223076D01*
X0433467Y0223032D01*
X0433632Y0222985D01*
X0433796Y0222933D01*
X0433958Y0222877D01*
X0434119Y0222817D01*
X0434279Y0222753D01*
X0434437Y0222685D01*
X0434593Y0222614D01*
X0434747Y0222539D01*
X0434900Y0222459D01*
X0435050Y0222377D01*
X0435199Y0222290D01*
X0435345Y0222200D01*
X0435489Y0222106D01*
X0435631Y0222009D01*
X0435770Y0221908D01*
X0435907Y0221804D01*
X0436041Y0221697D01*
X0436172Y0221586D01*
X0436301Y0221473D01*
X0436427Y0221356D01*
X0436550Y0221236D01*
X0436670Y0221113D01*
X0436787Y0220987D01*
X0436900Y0220858D01*
X0437011Y0220727D01*
X0437118Y0220593D01*
X0437222Y0220456D01*
X0437323Y0220317D01*
X0437420Y0220175D01*
X0437514Y0220031D01*
X0437604Y0219885D01*
X0437691Y0219736D01*
X0437773Y0219586D01*
X0437853Y0219433D01*
X0437928Y0219279D01*
X0437999Y0219123D01*
X0438067Y0218965D01*
X0438131Y0218805D01*
X0438191Y0218644D01*
X0438247Y0218482D01*
X0438299Y0218318D01*
X0438346Y0218153D01*
X0438390Y0217987D01*
X0438430Y0217820D01*
X0438465Y0217652D01*
X0438497Y0217483D01*
X0438524Y0217313D01*
X0438547Y0217143D01*
X0438566Y0216972D01*
X0438581Y0216801D01*
X0438592Y0216629D01*
X0438598Y0216458D01*
X0438600Y0216286D01*
X0438598Y0216114D01*
X0438592Y0215943D01*
X0438581Y0215771D01*
X0438566Y0215600D01*
X0438547Y0215429D01*
X0438524Y0215259D01*
X0438497Y0215089D01*
X0438465Y0214920D01*
X0438430Y0214752D01*
X0438390Y0214585D01*
X0438346Y0214419D01*
X0438299Y0214254D01*
X0438247Y0214090D01*
X0438191Y0213928D01*
X0438131Y0213767D01*
X0438067Y0213607D01*
X0437999Y0213449D01*
X0437928Y0213293D01*
X0437853Y0213139D01*
X0437773Y0212986D01*
X0437691Y0212836D01*
X0437604Y0212687D01*
X0437514Y0212541D01*
X0437420Y0212397D01*
X0437323Y0212255D01*
X0437222Y0212116D01*
X0437118Y0211979D01*
X0437011Y0211845D01*
X0436900Y0211714D01*
X0436787Y0211585D01*
X0436670Y0211459D01*
X0436550Y0211336D01*
X0436427Y0211216D01*
X0436301Y0211099D01*
X0436172Y0210986D01*
X0436041Y0210875D01*
X0435907Y0210768D01*
X0435770Y0210664D01*
X0435631Y0210563D01*
X0435489Y0210466D01*
X0435345Y0210372D01*
X0435199Y0210282D01*
X0435050Y0210195D01*
X0434900Y0210113D01*
X0434747Y0210033D01*
X0434593Y0209958D01*
X0434437Y0209887D01*
X0434279Y0209819D01*
X0434119Y0209755D01*
X0433958Y0209695D01*
X0433796Y0209639D01*
X0433632Y0209587D01*
X0433467Y0209540D01*
X0433301Y0209496D01*
X0433134Y0209456D01*
X0432966Y0209421D01*
X0432797Y0209389D01*
X0432627Y0209362D01*
X0432457Y0209339D01*
X0432286Y0209320D01*
X0432115Y0209305D01*
X0431943Y0209294D01*
X0431772Y0209288D01*
X0431600Y0209286D01*
X0431428Y0209288D01*
X0431257Y0209294D01*
X0431085Y0209305D01*
X0430914Y0209320D01*
X0430743Y0209339D01*
X0430573Y0209362D01*
X0430403Y0209389D01*
X0430234Y0209421D01*
X0430066Y0209456D01*
X0429899Y0209496D01*
X0429733Y0209540D01*
X0429568Y0209587D01*
X0429404Y0209639D01*
X0429242Y0209695D01*
X0429081Y0209755D01*
X0428921Y0209819D01*
X0428763Y0209887D01*
X0428607Y0209958D01*
X0428453Y0210033D01*
X0428300Y0210113D01*
X0428150Y0210195D01*
X0428001Y0210282D01*
X0427855Y0210372D01*
X0427711Y0210466D01*
X0427569Y0210563D01*
X0427430Y0210664D01*
X0427293Y0210768D01*
X0427159Y0210875D01*
X0427028Y0210986D01*
X0426899Y0211099D01*
X0426773Y0211216D01*
X0426650Y0211336D01*
X0426530Y0211459D01*
X0426413Y0211585D01*
X0426300Y0211714D01*
X0426189Y0211845D01*
X0426082Y0211979D01*
X0425978Y0212116D01*
X0425877Y0212255D01*
X0425780Y0212397D01*
X0425686Y0212541D01*
X0425596Y0212687D01*
X0425509Y0212836D01*
X0425427Y0212986D01*
X0425347Y0213139D01*
X0425272Y0213293D01*
X0425201Y0213449D01*
X0425133Y0213607D01*
X0425069Y0213767D01*
X0425009Y0213928D01*
X0424953Y0214090D01*
X0424901Y0214254D01*
X0424854Y0214419D01*
X0424810Y0214585D01*
X0424770Y0214752D01*
X0424735Y0214920D01*
X0424703Y0215089D01*
X0424676Y0215259D01*
X0424653Y0215429D01*
X0424634Y0215600D01*
X0424619Y0215771D01*
X0424608Y0215943D01*
X0424602Y0216114D01*
X0424600Y0216286D01*
X0428600Y0164286D02*
X0434600Y0164286D01*
X0434600Y0163286D01*
X0435600Y0163286D01*
X0428600Y0163286D02*
X0427600Y0163286D01*
X0428600Y0163286D02*
X0428600Y0164286D01*
X0419600Y0159786D02*
X0419600Y0155786D01*
X0419600Y0146286D01*
X0419600Y0142786D01*
X0427600Y0139286D02*
X0428600Y0139286D01*
X0428600Y0138286D01*
X0434600Y0138286D01*
X0434600Y0139286D01*
X0435600Y0139286D01*
X0443600Y0142786D02*
X0443600Y0146286D01*
X0443600Y0156286D01*
X0443600Y0159786D01*
X0430600Y0151286D02*
X0430602Y0151349D01*
X0430608Y0151411D01*
X0430618Y0151473D01*
X0430631Y0151535D01*
X0430649Y0151595D01*
X0430670Y0151654D01*
X0430695Y0151712D01*
X0430724Y0151768D01*
X0430756Y0151822D01*
X0430791Y0151874D01*
X0430829Y0151923D01*
X0430871Y0151971D01*
X0430915Y0152015D01*
X0430963Y0152057D01*
X0431012Y0152095D01*
X0431064Y0152130D01*
X0431118Y0152162D01*
X0431174Y0152191D01*
X0431232Y0152216D01*
X0431291Y0152237D01*
X0431351Y0152255D01*
X0431413Y0152268D01*
X0431475Y0152278D01*
X0431537Y0152284D01*
X0431600Y0152286D01*
X0431663Y0152284D01*
X0431725Y0152278D01*
X0431787Y0152268D01*
X0431849Y0152255D01*
X0431909Y0152237D01*
X0431968Y0152216D01*
X0432026Y0152191D01*
X0432082Y0152162D01*
X0432136Y0152130D01*
X0432188Y0152095D01*
X0432237Y0152057D01*
X0432285Y0152015D01*
X0432329Y0151971D01*
X0432371Y0151923D01*
X0432409Y0151874D01*
X0432444Y0151822D01*
X0432476Y0151768D01*
X0432505Y0151712D01*
X0432530Y0151654D01*
X0432551Y0151595D01*
X0432569Y0151535D01*
X0432582Y0151473D01*
X0432592Y0151411D01*
X0432598Y0151349D01*
X0432600Y0151286D01*
X0432598Y0151223D01*
X0432592Y0151161D01*
X0432582Y0151099D01*
X0432569Y0151037D01*
X0432551Y0150977D01*
X0432530Y0150918D01*
X0432505Y0150860D01*
X0432476Y0150804D01*
X0432444Y0150750D01*
X0432409Y0150698D01*
X0432371Y0150649D01*
X0432329Y0150601D01*
X0432285Y0150557D01*
X0432237Y0150515D01*
X0432188Y0150477D01*
X0432136Y0150442D01*
X0432082Y0150410D01*
X0432026Y0150381D01*
X0431968Y0150356D01*
X0431909Y0150335D01*
X0431849Y0150317D01*
X0431787Y0150304D01*
X0431725Y0150294D01*
X0431663Y0150288D01*
X0431600Y0150286D01*
X0431537Y0150288D01*
X0431475Y0150294D01*
X0431413Y0150304D01*
X0431351Y0150317D01*
X0431291Y0150335D01*
X0431232Y0150356D01*
X0431174Y0150381D01*
X0431118Y0150410D01*
X0431064Y0150442D01*
X0431012Y0150477D01*
X0430963Y0150515D01*
X0430915Y0150557D01*
X0430871Y0150601D01*
X0430829Y0150649D01*
X0430791Y0150698D01*
X0430756Y0150750D01*
X0430724Y0150804D01*
X0430695Y0150860D01*
X0430670Y0150918D01*
X0430649Y0150977D01*
X0430631Y0151037D01*
X0430618Y0151099D01*
X0430608Y0151161D01*
X0430602Y0151223D01*
X0430600Y0151286D01*
X0424600Y0151286D02*
X0424602Y0151458D01*
X0424608Y0151629D01*
X0424619Y0151801D01*
X0424634Y0151972D01*
X0424653Y0152143D01*
X0424676Y0152313D01*
X0424703Y0152483D01*
X0424735Y0152652D01*
X0424770Y0152820D01*
X0424810Y0152987D01*
X0424854Y0153153D01*
X0424901Y0153318D01*
X0424953Y0153482D01*
X0425009Y0153644D01*
X0425069Y0153805D01*
X0425133Y0153965D01*
X0425201Y0154123D01*
X0425272Y0154279D01*
X0425347Y0154433D01*
X0425427Y0154586D01*
X0425509Y0154736D01*
X0425596Y0154885D01*
X0425686Y0155031D01*
X0425780Y0155175D01*
X0425877Y0155317D01*
X0425978Y0155456D01*
X0426082Y0155593D01*
X0426189Y0155727D01*
X0426300Y0155858D01*
X0426413Y0155987D01*
X0426530Y0156113D01*
X0426650Y0156236D01*
X0426773Y0156356D01*
X0426899Y0156473D01*
X0427028Y0156586D01*
X0427159Y0156697D01*
X0427293Y0156804D01*
X0427430Y0156908D01*
X0427569Y0157009D01*
X0427711Y0157106D01*
X0427855Y0157200D01*
X0428001Y0157290D01*
X0428150Y0157377D01*
X0428300Y0157459D01*
X0428453Y0157539D01*
X0428607Y0157614D01*
X0428763Y0157685D01*
X0428921Y0157753D01*
X0429081Y0157817D01*
X0429242Y0157877D01*
X0429404Y0157933D01*
X0429568Y0157985D01*
X0429733Y0158032D01*
X0429899Y0158076D01*
X0430066Y0158116D01*
X0430234Y0158151D01*
X0430403Y0158183D01*
X0430573Y0158210D01*
X0430743Y0158233D01*
X0430914Y0158252D01*
X0431085Y0158267D01*
X0431257Y0158278D01*
X0431428Y0158284D01*
X0431600Y0158286D01*
X0431772Y0158284D01*
X0431943Y0158278D01*
X0432115Y0158267D01*
X0432286Y0158252D01*
X0432457Y0158233D01*
X0432627Y0158210D01*
X0432797Y0158183D01*
X0432966Y0158151D01*
X0433134Y0158116D01*
X0433301Y0158076D01*
X0433467Y0158032D01*
X0433632Y0157985D01*
X0433796Y0157933D01*
X0433958Y0157877D01*
X0434119Y0157817D01*
X0434279Y0157753D01*
X0434437Y0157685D01*
X0434593Y0157614D01*
X0434747Y0157539D01*
X0434900Y0157459D01*
X0435050Y0157377D01*
X0435199Y0157290D01*
X0435345Y0157200D01*
X0435489Y0157106D01*
X0435631Y0157009D01*
X0435770Y0156908D01*
X0435907Y0156804D01*
X0436041Y0156697D01*
X0436172Y0156586D01*
X0436301Y0156473D01*
X0436427Y0156356D01*
X0436550Y0156236D01*
X0436670Y0156113D01*
X0436787Y0155987D01*
X0436900Y0155858D01*
X0437011Y0155727D01*
X0437118Y0155593D01*
X0437222Y0155456D01*
X0437323Y0155317D01*
X0437420Y0155175D01*
X0437514Y0155031D01*
X0437604Y0154885D01*
X0437691Y0154736D01*
X0437773Y0154586D01*
X0437853Y0154433D01*
X0437928Y0154279D01*
X0437999Y0154123D01*
X0438067Y0153965D01*
X0438131Y0153805D01*
X0438191Y0153644D01*
X0438247Y0153482D01*
X0438299Y0153318D01*
X0438346Y0153153D01*
X0438390Y0152987D01*
X0438430Y0152820D01*
X0438465Y0152652D01*
X0438497Y0152483D01*
X0438524Y0152313D01*
X0438547Y0152143D01*
X0438566Y0151972D01*
X0438581Y0151801D01*
X0438592Y0151629D01*
X0438598Y0151458D01*
X0438600Y0151286D01*
X0438598Y0151114D01*
X0438592Y0150943D01*
X0438581Y0150771D01*
X0438566Y0150600D01*
X0438547Y0150429D01*
X0438524Y0150259D01*
X0438497Y0150089D01*
X0438465Y0149920D01*
X0438430Y0149752D01*
X0438390Y0149585D01*
X0438346Y0149419D01*
X0438299Y0149254D01*
X0438247Y0149090D01*
X0438191Y0148928D01*
X0438131Y0148767D01*
X0438067Y0148607D01*
X0437999Y0148449D01*
X0437928Y0148293D01*
X0437853Y0148139D01*
X0437773Y0147986D01*
X0437691Y0147836D01*
X0437604Y0147687D01*
X0437514Y0147541D01*
X0437420Y0147397D01*
X0437323Y0147255D01*
X0437222Y0147116D01*
X0437118Y0146979D01*
X0437011Y0146845D01*
X0436900Y0146714D01*
X0436787Y0146585D01*
X0436670Y0146459D01*
X0436550Y0146336D01*
X0436427Y0146216D01*
X0436301Y0146099D01*
X0436172Y0145986D01*
X0436041Y0145875D01*
X0435907Y0145768D01*
X0435770Y0145664D01*
X0435631Y0145563D01*
X0435489Y0145466D01*
X0435345Y0145372D01*
X0435199Y0145282D01*
X0435050Y0145195D01*
X0434900Y0145113D01*
X0434747Y0145033D01*
X0434593Y0144958D01*
X0434437Y0144887D01*
X0434279Y0144819D01*
X0434119Y0144755D01*
X0433958Y0144695D01*
X0433796Y0144639D01*
X0433632Y0144587D01*
X0433467Y0144540D01*
X0433301Y0144496D01*
X0433134Y0144456D01*
X0432966Y0144421D01*
X0432797Y0144389D01*
X0432627Y0144362D01*
X0432457Y0144339D01*
X0432286Y0144320D01*
X0432115Y0144305D01*
X0431943Y0144294D01*
X0431772Y0144288D01*
X0431600Y0144286D01*
X0431428Y0144288D01*
X0431257Y0144294D01*
X0431085Y0144305D01*
X0430914Y0144320D01*
X0430743Y0144339D01*
X0430573Y0144362D01*
X0430403Y0144389D01*
X0430234Y0144421D01*
X0430066Y0144456D01*
X0429899Y0144496D01*
X0429733Y0144540D01*
X0429568Y0144587D01*
X0429404Y0144639D01*
X0429242Y0144695D01*
X0429081Y0144755D01*
X0428921Y0144819D01*
X0428763Y0144887D01*
X0428607Y0144958D01*
X0428453Y0145033D01*
X0428300Y0145113D01*
X0428150Y0145195D01*
X0428001Y0145282D01*
X0427855Y0145372D01*
X0427711Y0145466D01*
X0427569Y0145563D01*
X0427430Y0145664D01*
X0427293Y0145768D01*
X0427159Y0145875D01*
X0427028Y0145986D01*
X0426899Y0146099D01*
X0426773Y0146216D01*
X0426650Y0146336D01*
X0426530Y0146459D01*
X0426413Y0146585D01*
X0426300Y0146714D01*
X0426189Y0146845D01*
X0426082Y0146979D01*
X0425978Y0147116D01*
X0425877Y0147255D01*
X0425780Y0147397D01*
X0425686Y0147541D01*
X0425596Y0147687D01*
X0425509Y0147836D01*
X0425427Y0147986D01*
X0425347Y0148139D01*
X0425272Y0148293D01*
X0425201Y0148449D01*
X0425133Y0148607D01*
X0425069Y0148767D01*
X0425009Y0148928D01*
X0424953Y0149090D01*
X0424901Y0149254D01*
X0424854Y0149419D01*
X0424810Y0149585D01*
X0424770Y0149752D01*
X0424735Y0149920D01*
X0424703Y0150089D01*
X0424676Y0150259D01*
X0424653Y0150429D01*
X0424634Y0150600D01*
X0424619Y0150771D01*
X0424608Y0150943D01*
X0424602Y0151114D01*
X0424600Y0151286D01*
D12*
X0438300Y0136041D02*
X0438300Y0133486D01*
X0438300Y0134764D02*
X0442900Y0134764D01*
X0441878Y0133486D01*
X0344400Y0101564D02*
X0343122Y0102586D01*
X0343122Y0097986D01*
X0344400Y0097986D02*
X0341844Y0097986D01*
X0296900Y0097986D02*
X0294344Y0097986D01*
X0295622Y0097986D02*
X0295622Y0102586D01*
X0296900Y0101564D01*
X0219400Y0101564D02*
X0218122Y0102586D01*
X0218122Y0097986D01*
X0219400Y0097986D02*
X0216844Y0097986D01*
X0149400Y0097986D02*
X0146844Y0097986D01*
X0148122Y0097986D02*
X0148122Y0102586D01*
X0149400Y0101564D01*
X0090400Y0137264D02*
X0089378Y0135986D01*
X0090400Y0137264D02*
X0085800Y0137264D01*
X0085800Y0138541D02*
X0085800Y0135986D01*
X0106078Y0177485D02*
X0106137Y0177487D01*
X0106195Y0177492D01*
X0106253Y0177501D01*
X0106310Y0177514D01*
X0106367Y0177530D01*
X0106422Y0177550D01*
X0106476Y0177573D01*
X0106528Y0177599D01*
X0106579Y0177629D01*
X0106628Y0177661D01*
X0106675Y0177697D01*
X0106719Y0177735D01*
X0106761Y0177776D01*
X0106800Y0177820D01*
X0106837Y0177866D01*
X0106870Y0177914D01*
X0106901Y0177964D01*
X0106928Y0178016D01*
X0106952Y0178069D01*
X0106973Y0178124D01*
X0107100Y0178508D02*
X0105056Y0181064D01*
X0105183Y0181447D02*
X0105204Y0181502D01*
X0105228Y0181555D01*
X0105255Y0181607D01*
X0105286Y0181657D01*
X0105319Y0181705D01*
X0105356Y0181751D01*
X0105395Y0181795D01*
X0105437Y0181836D01*
X0105481Y0181874D01*
X0105528Y0181910D01*
X0105577Y0181942D01*
X0105628Y0181972D01*
X0105680Y0181998D01*
X0105734Y0182021D01*
X0105789Y0182041D01*
X0105846Y0182057D01*
X0105903Y0182070D01*
X0105961Y0182079D01*
X0106019Y0182084D01*
X0106078Y0182086D01*
X0106137Y0182084D01*
X0106195Y0182079D01*
X0106253Y0182070D01*
X0106310Y0182057D01*
X0106367Y0182041D01*
X0106422Y0182021D01*
X0106476Y0181998D01*
X0106528Y0181972D01*
X0106579Y0181942D01*
X0106628Y0181910D01*
X0106675Y0181874D01*
X0106719Y0181836D01*
X0106761Y0181795D01*
X0106800Y0181751D01*
X0106837Y0181705D01*
X0106870Y0181657D01*
X0106901Y0181607D01*
X0106928Y0181555D01*
X0106952Y0181502D01*
X0106973Y0181447D01*
X0105183Y0181447D02*
X0105135Y0181343D01*
X0105089Y0181238D01*
X0105047Y0181132D01*
X0105008Y0181024D01*
X0104972Y0180915D01*
X0104940Y0180805D01*
X0104910Y0180694D01*
X0104885Y0180582D01*
X0104862Y0180470D01*
X0104843Y0180357D01*
X0104828Y0180243D01*
X0104816Y0180129D01*
X0104807Y0180015D01*
X0104802Y0179901D01*
X0104800Y0179786D01*
X0107356Y0179786D02*
X0107354Y0179901D01*
X0107349Y0180015D01*
X0107340Y0180129D01*
X0107328Y0180243D01*
X0107313Y0180357D01*
X0107294Y0180470D01*
X0107271Y0180582D01*
X0107246Y0180694D01*
X0107216Y0180805D01*
X0107184Y0180915D01*
X0107148Y0181024D01*
X0107109Y0181132D01*
X0107067Y0181238D01*
X0107021Y0181343D01*
X0106973Y0181447D01*
X0104800Y0179786D02*
X0104802Y0179671D01*
X0104807Y0179557D01*
X0104816Y0179443D01*
X0104828Y0179329D01*
X0104843Y0179215D01*
X0104862Y0179102D01*
X0104885Y0178990D01*
X0104910Y0178878D01*
X0104940Y0178767D01*
X0104972Y0178657D01*
X0105008Y0178548D01*
X0105047Y0178440D01*
X0105089Y0178334D01*
X0105135Y0178229D01*
X0105183Y0178125D01*
X0105183Y0178124D02*
X0105204Y0178069D01*
X0105228Y0178016D01*
X0105255Y0177964D01*
X0105286Y0177914D01*
X0105319Y0177866D01*
X0105356Y0177820D01*
X0105395Y0177776D01*
X0105437Y0177735D01*
X0105482Y0177697D01*
X0105528Y0177661D01*
X0105577Y0177629D01*
X0105628Y0177599D01*
X0105680Y0177573D01*
X0105734Y0177550D01*
X0105789Y0177530D01*
X0105846Y0177514D01*
X0105903Y0177501D01*
X0105961Y0177492D01*
X0106019Y0177487D01*
X0106078Y0177485D01*
X0109300Y0178508D02*
X0111856Y0178508D01*
X0110833Y0182086D01*
X0110067Y0179530D02*
X0110067Y0177486D01*
X0113771Y0177486D02*
X0114793Y0179530D01*
X0115049Y0179530D02*
X0116327Y0179530D01*
X0115049Y0179530D02*
X0114979Y0179532D01*
X0114908Y0179538D01*
X0114839Y0179547D01*
X0114770Y0179561D01*
X0114701Y0179578D01*
X0114634Y0179599D01*
X0114568Y0179624D01*
X0114504Y0179652D01*
X0114441Y0179684D01*
X0114380Y0179719D01*
X0114321Y0179758D01*
X0114264Y0179799D01*
X0114210Y0179844D01*
X0114158Y0179892D01*
X0114109Y0179942D01*
X0114062Y0179996D01*
X0114019Y0180051D01*
X0113979Y0180109D01*
X0113942Y0180169D01*
X0113909Y0180231D01*
X0113879Y0180295D01*
X0113852Y0180360D01*
X0113829Y0180426D01*
X0113810Y0180494D01*
X0113795Y0180563D01*
X0113783Y0180632D01*
X0113775Y0180702D01*
X0113771Y0180773D01*
X0113771Y0180843D01*
X0113775Y0180914D01*
X0113783Y0180984D01*
X0113795Y0181053D01*
X0113810Y0181122D01*
X0113829Y0181190D01*
X0113852Y0181256D01*
X0113879Y0181321D01*
X0113909Y0181385D01*
X0113942Y0181447D01*
X0113979Y0181507D01*
X0114019Y0181565D01*
X0114062Y0181620D01*
X0114109Y0181674D01*
X0114158Y0181724D01*
X0114210Y0181772D01*
X0114264Y0181817D01*
X0114321Y0181858D01*
X0114380Y0181897D01*
X0114441Y0181932D01*
X0114504Y0181964D01*
X0114568Y0181992D01*
X0114634Y0182017D01*
X0114701Y0182038D01*
X0114770Y0182055D01*
X0114839Y0182069D01*
X0114908Y0182078D01*
X0114979Y0182084D01*
X0115049Y0182086D01*
X0116327Y0182086D01*
X0116327Y0177486D01*
X0107356Y0179786D02*
X0107354Y0179671D01*
X0107349Y0179557D01*
X0107340Y0179443D01*
X0107328Y0179329D01*
X0107313Y0179215D01*
X0107294Y0179102D01*
X0107271Y0178990D01*
X0107246Y0178878D01*
X0107216Y0178767D01*
X0107184Y0178657D01*
X0107148Y0178548D01*
X0107109Y0178440D01*
X0107067Y0178334D01*
X0107021Y0178229D01*
X0106973Y0178125D01*
X0110578Y0187486D02*
X0111856Y0187486D01*
X0110578Y0187486D02*
X0110508Y0187488D01*
X0110437Y0187494D01*
X0110368Y0187503D01*
X0110299Y0187517D01*
X0110230Y0187534D01*
X0110163Y0187555D01*
X0110097Y0187580D01*
X0110033Y0187608D01*
X0109970Y0187640D01*
X0109909Y0187675D01*
X0109850Y0187714D01*
X0109793Y0187755D01*
X0109739Y0187800D01*
X0109687Y0187848D01*
X0109638Y0187898D01*
X0109591Y0187952D01*
X0109548Y0188007D01*
X0109508Y0188065D01*
X0109471Y0188125D01*
X0109438Y0188187D01*
X0109408Y0188251D01*
X0109381Y0188316D01*
X0109358Y0188382D01*
X0109339Y0188450D01*
X0109324Y0188519D01*
X0109312Y0188588D01*
X0109304Y0188658D01*
X0109300Y0188729D01*
X0109300Y0188799D01*
X0109304Y0188870D01*
X0109312Y0188940D01*
X0109324Y0189009D01*
X0109339Y0189078D01*
X0109358Y0189146D01*
X0109381Y0189212D01*
X0109408Y0189277D01*
X0109438Y0189341D01*
X0109471Y0189403D01*
X0109508Y0189463D01*
X0109548Y0189521D01*
X0109591Y0189576D01*
X0109638Y0189630D01*
X0109687Y0189680D01*
X0109739Y0189728D01*
X0109793Y0189773D01*
X0109850Y0189814D01*
X0109909Y0189853D01*
X0109970Y0189888D01*
X0110033Y0189920D01*
X0110097Y0189948D01*
X0110163Y0189973D01*
X0110230Y0189994D01*
X0110299Y0190011D01*
X0110368Y0190025D01*
X0110437Y0190034D01*
X0110508Y0190040D01*
X0110578Y0190042D01*
X0110322Y0190041D02*
X0111344Y0190041D01*
X0110322Y0190042D02*
X0110259Y0190044D01*
X0110196Y0190050D01*
X0110134Y0190059D01*
X0110073Y0190073D01*
X0110012Y0190090D01*
X0109953Y0190111D01*
X0109895Y0190136D01*
X0109838Y0190164D01*
X0109784Y0190195D01*
X0109732Y0190230D01*
X0109681Y0190268D01*
X0109633Y0190309D01*
X0109588Y0190353D01*
X0109546Y0190399D01*
X0109506Y0190448D01*
X0109470Y0190499D01*
X0109437Y0190553D01*
X0109407Y0190608D01*
X0109381Y0190666D01*
X0109358Y0190724D01*
X0109339Y0190784D01*
X0109324Y0190845D01*
X0109312Y0190907D01*
X0109304Y0190970D01*
X0109300Y0191033D01*
X0109300Y0191095D01*
X0109304Y0191158D01*
X0109312Y0191221D01*
X0109324Y0191283D01*
X0109339Y0191344D01*
X0109358Y0191404D01*
X0109381Y0191462D01*
X0109407Y0191520D01*
X0109437Y0191575D01*
X0109470Y0191629D01*
X0109506Y0191680D01*
X0109546Y0191729D01*
X0109588Y0191775D01*
X0109633Y0191819D01*
X0109681Y0191860D01*
X0109732Y0191898D01*
X0109784Y0191933D01*
X0109838Y0191964D01*
X0109895Y0191992D01*
X0109953Y0192017D01*
X0110012Y0192038D01*
X0110073Y0192055D01*
X0110134Y0192069D01*
X0110196Y0192078D01*
X0110259Y0192084D01*
X0110322Y0192086D01*
X0111856Y0192086D01*
X0115049Y0192086D02*
X0116327Y0192086D01*
X0116327Y0187486D01*
X0116327Y0189530D02*
X0115049Y0189530D01*
X0114793Y0189530D02*
X0113771Y0187486D01*
X0115049Y0189530D02*
X0114979Y0189532D01*
X0114908Y0189538D01*
X0114839Y0189547D01*
X0114770Y0189561D01*
X0114701Y0189578D01*
X0114634Y0189599D01*
X0114568Y0189624D01*
X0114504Y0189652D01*
X0114441Y0189684D01*
X0114380Y0189719D01*
X0114321Y0189758D01*
X0114264Y0189799D01*
X0114210Y0189844D01*
X0114158Y0189892D01*
X0114109Y0189942D01*
X0114062Y0189996D01*
X0114019Y0190051D01*
X0113979Y0190109D01*
X0113942Y0190169D01*
X0113909Y0190231D01*
X0113879Y0190295D01*
X0113852Y0190360D01*
X0113829Y0190426D01*
X0113810Y0190494D01*
X0113795Y0190563D01*
X0113783Y0190632D01*
X0113775Y0190702D01*
X0113771Y0190773D01*
X0113771Y0190843D01*
X0113775Y0190914D01*
X0113783Y0190984D01*
X0113795Y0191053D01*
X0113810Y0191122D01*
X0113829Y0191190D01*
X0113852Y0191256D01*
X0113879Y0191321D01*
X0113909Y0191385D01*
X0113942Y0191447D01*
X0113979Y0191507D01*
X0114019Y0191565D01*
X0114062Y0191620D01*
X0114109Y0191674D01*
X0114158Y0191724D01*
X0114210Y0191772D01*
X0114264Y0191817D01*
X0114321Y0191858D01*
X0114380Y0191897D01*
X0114441Y0191932D01*
X0114504Y0191964D01*
X0114568Y0191992D01*
X0114634Y0192017D01*
X0114701Y0192038D01*
X0114770Y0192055D01*
X0114839Y0192069D01*
X0114908Y0192078D01*
X0114979Y0192084D01*
X0115049Y0192086D01*
X0107356Y0190808D02*
X0107356Y0190552D01*
X0107355Y0190552D02*
X0107353Y0190490D01*
X0107348Y0190429D01*
X0107338Y0190368D01*
X0107325Y0190307D01*
X0107309Y0190248D01*
X0107289Y0190190D01*
X0107265Y0190133D01*
X0107238Y0190077D01*
X0107208Y0190023D01*
X0107174Y0189971D01*
X0107138Y0189922D01*
X0107098Y0189874D01*
X0107056Y0189829D01*
X0107011Y0189787D01*
X0106963Y0189747D01*
X0106914Y0189711D01*
X0106862Y0189677D01*
X0106808Y0189647D01*
X0106752Y0189620D01*
X0106695Y0189596D01*
X0106637Y0189576D01*
X0106578Y0189560D01*
X0106517Y0189547D01*
X0106456Y0189537D01*
X0106395Y0189532D01*
X0106333Y0189530D01*
X0104800Y0189530D01*
X0104800Y0190808D01*
X0104802Y0190878D01*
X0104808Y0190949D01*
X0104817Y0191018D01*
X0104831Y0191087D01*
X0104848Y0191156D01*
X0104869Y0191223D01*
X0104894Y0191289D01*
X0104922Y0191353D01*
X0104954Y0191416D01*
X0104989Y0191477D01*
X0105028Y0191536D01*
X0105069Y0191593D01*
X0105114Y0191647D01*
X0105162Y0191699D01*
X0105212Y0191748D01*
X0105266Y0191795D01*
X0105321Y0191838D01*
X0105379Y0191878D01*
X0105439Y0191915D01*
X0105501Y0191948D01*
X0105565Y0191978D01*
X0105630Y0192005D01*
X0105696Y0192028D01*
X0105764Y0192047D01*
X0105833Y0192062D01*
X0105902Y0192074D01*
X0105972Y0192082D01*
X0106043Y0192086D01*
X0106113Y0192086D01*
X0106184Y0192082D01*
X0106254Y0192074D01*
X0106323Y0192062D01*
X0106392Y0192047D01*
X0106460Y0192028D01*
X0106526Y0192005D01*
X0106591Y0191978D01*
X0106655Y0191948D01*
X0106717Y0191915D01*
X0106777Y0191878D01*
X0106835Y0191838D01*
X0106890Y0191795D01*
X0106944Y0191748D01*
X0106994Y0191699D01*
X0107042Y0191647D01*
X0107087Y0191593D01*
X0107128Y0191536D01*
X0107167Y0191477D01*
X0107202Y0191416D01*
X0107234Y0191353D01*
X0107262Y0191289D01*
X0107287Y0191223D01*
X0107308Y0191156D01*
X0107325Y0191087D01*
X0107339Y0191018D01*
X0107348Y0190949D01*
X0107354Y0190878D01*
X0107356Y0190808D01*
X0104800Y0189530D02*
X0104802Y0189441D01*
X0104808Y0189352D01*
X0104817Y0189263D01*
X0104831Y0189175D01*
X0104848Y0189088D01*
X0104870Y0189001D01*
X0104895Y0188915D01*
X0104923Y0188831D01*
X0104956Y0188748D01*
X0104992Y0188666D01*
X0105031Y0188586D01*
X0105074Y0188508D01*
X0105120Y0188432D01*
X0105170Y0188358D01*
X0105222Y0188286D01*
X0105278Y0188216D01*
X0105337Y0188149D01*
X0105399Y0188085D01*
X0105463Y0188023D01*
X0105530Y0187964D01*
X0105600Y0187908D01*
X0105672Y0187856D01*
X0105746Y0187806D01*
X0105822Y0187760D01*
X0105900Y0187717D01*
X0105980Y0187678D01*
X0106062Y0187642D01*
X0106145Y0187609D01*
X0106229Y0187581D01*
X0106315Y0187556D01*
X0106402Y0187534D01*
X0106489Y0187517D01*
X0106577Y0187503D01*
X0106666Y0187494D01*
X0106755Y0187488D01*
X0106844Y0187486D01*
X0090400Y0199764D02*
X0085800Y0199764D01*
X0085800Y0201041D02*
X0085800Y0198486D01*
X0089378Y0198486D02*
X0090400Y0199764D01*
X0106151Y0223986D02*
X0104873Y0228586D01*
X0107429Y0228586D01*
X0107429Y0228075D01*
X0110396Y0228586D02*
X0111929Y0228586D01*
X0110396Y0228586D02*
X0110333Y0228584D01*
X0110270Y0228578D01*
X0110208Y0228569D01*
X0110147Y0228555D01*
X0110086Y0228538D01*
X0110027Y0228517D01*
X0109969Y0228492D01*
X0109912Y0228464D01*
X0109858Y0228433D01*
X0109806Y0228398D01*
X0109755Y0228360D01*
X0109707Y0228319D01*
X0109662Y0228275D01*
X0109620Y0228229D01*
X0109580Y0228180D01*
X0109544Y0228129D01*
X0109511Y0228075D01*
X0109481Y0228020D01*
X0109455Y0227962D01*
X0109432Y0227904D01*
X0109413Y0227844D01*
X0109398Y0227783D01*
X0109386Y0227721D01*
X0109378Y0227658D01*
X0109374Y0227595D01*
X0109374Y0227533D01*
X0109378Y0227470D01*
X0109386Y0227407D01*
X0109398Y0227345D01*
X0109413Y0227284D01*
X0109432Y0227224D01*
X0109455Y0227166D01*
X0109481Y0227108D01*
X0109511Y0227053D01*
X0109544Y0226999D01*
X0109580Y0226948D01*
X0109620Y0226899D01*
X0109662Y0226853D01*
X0109707Y0226809D01*
X0109755Y0226768D01*
X0109806Y0226730D01*
X0109858Y0226695D01*
X0109912Y0226664D01*
X0109969Y0226636D01*
X0110027Y0226611D01*
X0110086Y0226590D01*
X0110147Y0226573D01*
X0110208Y0226559D01*
X0110270Y0226550D01*
X0110333Y0226544D01*
X0110396Y0226542D01*
X0110396Y0226541D02*
X0111418Y0226541D01*
X0110651Y0226542D02*
X0110581Y0226540D01*
X0110510Y0226534D01*
X0110441Y0226525D01*
X0110372Y0226511D01*
X0110303Y0226494D01*
X0110236Y0226473D01*
X0110170Y0226448D01*
X0110106Y0226420D01*
X0110043Y0226388D01*
X0109982Y0226353D01*
X0109923Y0226314D01*
X0109866Y0226273D01*
X0109812Y0226228D01*
X0109760Y0226180D01*
X0109711Y0226130D01*
X0109664Y0226076D01*
X0109621Y0226021D01*
X0109581Y0225963D01*
X0109544Y0225903D01*
X0109511Y0225841D01*
X0109481Y0225777D01*
X0109454Y0225712D01*
X0109431Y0225646D01*
X0109412Y0225578D01*
X0109397Y0225509D01*
X0109385Y0225440D01*
X0109377Y0225370D01*
X0109373Y0225299D01*
X0109373Y0225229D01*
X0109377Y0225158D01*
X0109385Y0225088D01*
X0109397Y0225019D01*
X0109412Y0224950D01*
X0109431Y0224882D01*
X0109454Y0224816D01*
X0109481Y0224751D01*
X0109511Y0224687D01*
X0109544Y0224625D01*
X0109581Y0224565D01*
X0109621Y0224507D01*
X0109664Y0224452D01*
X0109711Y0224398D01*
X0109760Y0224348D01*
X0109812Y0224300D01*
X0109866Y0224255D01*
X0109923Y0224214D01*
X0109982Y0224175D01*
X0110043Y0224140D01*
X0110106Y0224108D01*
X0110170Y0224080D01*
X0110236Y0224055D01*
X0110303Y0224034D01*
X0110372Y0224017D01*
X0110441Y0224003D01*
X0110510Y0223994D01*
X0110581Y0223988D01*
X0110651Y0223986D01*
X0111929Y0223986D01*
X0113844Y0223986D02*
X0114867Y0226030D01*
X0115122Y0226030D02*
X0116400Y0226030D01*
X0115122Y0226030D02*
X0115052Y0226032D01*
X0114981Y0226038D01*
X0114912Y0226047D01*
X0114843Y0226061D01*
X0114774Y0226078D01*
X0114707Y0226099D01*
X0114641Y0226124D01*
X0114577Y0226152D01*
X0114514Y0226184D01*
X0114453Y0226219D01*
X0114394Y0226258D01*
X0114337Y0226299D01*
X0114283Y0226344D01*
X0114231Y0226392D01*
X0114182Y0226442D01*
X0114135Y0226496D01*
X0114092Y0226551D01*
X0114052Y0226609D01*
X0114015Y0226669D01*
X0113982Y0226731D01*
X0113952Y0226795D01*
X0113925Y0226860D01*
X0113902Y0226926D01*
X0113883Y0226994D01*
X0113868Y0227063D01*
X0113856Y0227132D01*
X0113848Y0227202D01*
X0113844Y0227273D01*
X0113844Y0227343D01*
X0113848Y0227414D01*
X0113856Y0227484D01*
X0113868Y0227553D01*
X0113883Y0227622D01*
X0113902Y0227690D01*
X0113925Y0227756D01*
X0113952Y0227821D01*
X0113982Y0227885D01*
X0114015Y0227947D01*
X0114052Y0228007D01*
X0114092Y0228065D01*
X0114135Y0228120D01*
X0114182Y0228174D01*
X0114231Y0228224D01*
X0114283Y0228272D01*
X0114337Y0228317D01*
X0114394Y0228358D01*
X0114453Y0228397D01*
X0114514Y0228432D01*
X0114577Y0228464D01*
X0114641Y0228492D01*
X0114707Y0228517D01*
X0114774Y0228538D01*
X0114843Y0228555D01*
X0114912Y0228569D01*
X0114981Y0228578D01*
X0115052Y0228584D01*
X0115122Y0228586D01*
X0116400Y0228586D01*
X0116400Y0223986D01*
X0065900Y0239986D02*
X0065900Y0244586D01*
X0064622Y0244586D01*
X0064552Y0244584D01*
X0064481Y0244578D01*
X0064412Y0244569D01*
X0064343Y0244555D01*
X0064274Y0244538D01*
X0064207Y0244517D01*
X0064141Y0244492D01*
X0064077Y0244464D01*
X0064014Y0244432D01*
X0063953Y0244397D01*
X0063894Y0244358D01*
X0063837Y0244317D01*
X0063783Y0244272D01*
X0063731Y0244224D01*
X0063682Y0244174D01*
X0063635Y0244120D01*
X0063592Y0244065D01*
X0063552Y0244007D01*
X0063515Y0243947D01*
X0063482Y0243885D01*
X0063452Y0243821D01*
X0063425Y0243756D01*
X0063402Y0243690D01*
X0063383Y0243622D01*
X0063368Y0243553D01*
X0063356Y0243484D01*
X0063348Y0243414D01*
X0063344Y0243343D01*
X0063344Y0243273D01*
X0063348Y0243202D01*
X0063356Y0243132D01*
X0063368Y0243063D01*
X0063383Y0242994D01*
X0063402Y0242926D01*
X0063425Y0242860D01*
X0063452Y0242795D01*
X0063482Y0242731D01*
X0063515Y0242669D01*
X0063552Y0242609D01*
X0063592Y0242551D01*
X0063635Y0242496D01*
X0063682Y0242442D01*
X0063731Y0242392D01*
X0063783Y0242344D01*
X0063837Y0242299D01*
X0063894Y0242258D01*
X0063953Y0242219D01*
X0064014Y0242184D01*
X0064077Y0242152D01*
X0064141Y0242124D01*
X0064207Y0242099D01*
X0064274Y0242078D01*
X0064343Y0242061D01*
X0064412Y0242047D01*
X0064481Y0242038D01*
X0064552Y0242032D01*
X0064622Y0242030D01*
X0065900Y0242030D01*
X0064367Y0242030D02*
X0063344Y0239986D01*
X0061429Y0239986D02*
X0058873Y0239986D01*
X0060151Y0239986D02*
X0060151Y0244586D01*
X0061429Y0243564D01*
X0061929Y0246486D02*
X0060396Y0246486D01*
X0060334Y0246488D01*
X0060273Y0246493D01*
X0060212Y0246503D01*
X0060151Y0246516D01*
X0060092Y0246532D01*
X0060034Y0246552D01*
X0059977Y0246576D01*
X0059921Y0246603D01*
X0059867Y0246633D01*
X0059815Y0246667D01*
X0059766Y0246703D01*
X0059718Y0246743D01*
X0059673Y0246785D01*
X0059631Y0246830D01*
X0059591Y0246878D01*
X0059555Y0246927D01*
X0059521Y0246979D01*
X0059491Y0247033D01*
X0059464Y0247089D01*
X0059440Y0247146D01*
X0059420Y0247204D01*
X0059404Y0247263D01*
X0059391Y0247324D01*
X0059381Y0247385D01*
X0059376Y0247446D01*
X0059374Y0247508D01*
X0059373Y0247508D02*
X0059373Y0248019D01*
X0059374Y0248019D02*
X0059376Y0248081D01*
X0059381Y0248142D01*
X0059391Y0248203D01*
X0059404Y0248264D01*
X0059420Y0248323D01*
X0059440Y0248381D01*
X0059464Y0248438D01*
X0059491Y0248494D01*
X0059521Y0248548D01*
X0059555Y0248600D01*
X0059591Y0248649D01*
X0059631Y0248697D01*
X0059673Y0248742D01*
X0059718Y0248784D01*
X0059766Y0248824D01*
X0059815Y0248860D01*
X0059867Y0248894D01*
X0059921Y0248924D01*
X0059977Y0248951D01*
X0060034Y0248975D01*
X0060092Y0248995D01*
X0060151Y0249011D01*
X0060212Y0249024D01*
X0060273Y0249034D01*
X0060334Y0249039D01*
X0060396Y0249041D01*
X0061929Y0249041D01*
X0061929Y0251086D01*
X0059373Y0251086D01*
X0054873Y0248786D02*
X0054875Y0248671D01*
X0054880Y0248557D01*
X0054889Y0248443D01*
X0054901Y0248329D01*
X0054916Y0248215D01*
X0054935Y0248102D01*
X0054958Y0247990D01*
X0054983Y0247878D01*
X0055013Y0247767D01*
X0055045Y0247657D01*
X0055081Y0247548D01*
X0055120Y0247440D01*
X0055162Y0247334D01*
X0055208Y0247229D01*
X0055256Y0247125D01*
X0056151Y0246485D02*
X0056210Y0246487D01*
X0056268Y0246492D01*
X0056326Y0246501D01*
X0056383Y0246514D01*
X0056440Y0246530D01*
X0056495Y0246550D01*
X0056549Y0246573D01*
X0056601Y0246599D01*
X0056652Y0246629D01*
X0056701Y0246661D01*
X0056748Y0246697D01*
X0056792Y0246735D01*
X0056834Y0246776D01*
X0056873Y0246820D01*
X0056910Y0246866D01*
X0056943Y0246914D01*
X0056974Y0246964D01*
X0057001Y0247016D01*
X0057025Y0247069D01*
X0057046Y0247124D01*
X0057173Y0247508D02*
X0055129Y0250064D01*
X0055256Y0250447D02*
X0055277Y0250502D01*
X0055301Y0250555D01*
X0055328Y0250607D01*
X0055359Y0250657D01*
X0055392Y0250705D01*
X0055429Y0250751D01*
X0055468Y0250795D01*
X0055510Y0250836D01*
X0055554Y0250874D01*
X0055601Y0250910D01*
X0055650Y0250942D01*
X0055701Y0250972D01*
X0055753Y0250998D01*
X0055807Y0251021D01*
X0055862Y0251041D01*
X0055919Y0251057D01*
X0055976Y0251070D01*
X0056034Y0251079D01*
X0056092Y0251084D01*
X0056151Y0251086D01*
X0056210Y0251084D01*
X0056268Y0251079D01*
X0056326Y0251070D01*
X0056383Y0251057D01*
X0056440Y0251041D01*
X0056495Y0251021D01*
X0056549Y0250998D01*
X0056601Y0250972D01*
X0056652Y0250942D01*
X0056701Y0250910D01*
X0056748Y0250874D01*
X0056792Y0250836D01*
X0056834Y0250795D01*
X0056873Y0250751D01*
X0056910Y0250705D01*
X0056943Y0250657D01*
X0056974Y0250607D01*
X0057001Y0250555D01*
X0057025Y0250502D01*
X0057046Y0250447D01*
X0055256Y0250447D02*
X0055208Y0250343D01*
X0055162Y0250238D01*
X0055120Y0250132D01*
X0055081Y0250024D01*
X0055045Y0249915D01*
X0055013Y0249805D01*
X0054983Y0249694D01*
X0054958Y0249582D01*
X0054935Y0249470D01*
X0054916Y0249357D01*
X0054901Y0249243D01*
X0054889Y0249129D01*
X0054880Y0249015D01*
X0054875Y0248901D01*
X0054873Y0248786D01*
X0057429Y0248786D02*
X0057427Y0248901D01*
X0057422Y0249015D01*
X0057413Y0249129D01*
X0057401Y0249243D01*
X0057386Y0249357D01*
X0057367Y0249470D01*
X0057344Y0249582D01*
X0057319Y0249694D01*
X0057289Y0249805D01*
X0057257Y0249915D01*
X0057221Y0250024D01*
X0057182Y0250132D01*
X0057140Y0250238D01*
X0057094Y0250343D01*
X0057046Y0250447D01*
X0055256Y0247124D02*
X0055277Y0247069D01*
X0055301Y0247016D01*
X0055328Y0246964D01*
X0055359Y0246914D01*
X0055392Y0246866D01*
X0055429Y0246820D01*
X0055468Y0246776D01*
X0055510Y0246735D01*
X0055555Y0246697D01*
X0055601Y0246661D01*
X0055650Y0246629D01*
X0055701Y0246599D01*
X0055753Y0246573D01*
X0055807Y0246550D01*
X0055862Y0246530D01*
X0055919Y0246514D01*
X0055976Y0246501D01*
X0056034Y0246492D01*
X0056092Y0246487D01*
X0056151Y0246485D01*
X0056673Y0243564D02*
X0056671Y0243501D01*
X0056665Y0243438D01*
X0056656Y0243376D01*
X0056642Y0243315D01*
X0056625Y0243254D01*
X0056604Y0243195D01*
X0056579Y0243137D01*
X0056551Y0243080D01*
X0056520Y0243026D01*
X0056485Y0242974D01*
X0056447Y0242923D01*
X0056406Y0242875D01*
X0056362Y0242830D01*
X0056316Y0242788D01*
X0056267Y0242748D01*
X0056216Y0242712D01*
X0056162Y0242679D01*
X0056107Y0242649D01*
X0056049Y0242623D01*
X0055991Y0242600D01*
X0055931Y0242581D01*
X0055870Y0242566D01*
X0055808Y0242554D01*
X0055745Y0242546D01*
X0055682Y0242542D01*
X0055620Y0242542D01*
X0055557Y0242546D01*
X0055494Y0242554D01*
X0055432Y0242566D01*
X0055371Y0242581D01*
X0055311Y0242600D01*
X0055253Y0242623D01*
X0055195Y0242649D01*
X0055140Y0242679D01*
X0055086Y0242712D01*
X0055035Y0242748D01*
X0054986Y0242788D01*
X0054940Y0242830D01*
X0054896Y0242875D01*
X0054855Y0242923D01*
X0054817Y0242974D01*
X0054782Y0243026D01*
X0054751Y0243080D01*
X0054723Y0243137D01*
X0054698Y0243195D01*
X0054677Y0243254D01*
X0054660Y0243315D01*
X0054646Y0243376D01*
X0054637Y0243438D01*
X0054631Y0243501D01*
X0054629Y0243564D01*
X0054631Y0243627D01*
X0054637Y0243690D01*
X0054646Y0243752D01*
X0054660Y0243813D01*
X0054677Y0243874D01*
X0054698Y0243933D01*
X0054723Y0243991D01*
X0054751Y0244048D01*
X0054782Y0244102D01*
X0054817Y0244154D01*
X0054855Y0244205D01*
X0054896Y0244253D01*
X0054940Y0244298D01*
X0054986Y0244340D01*
X0055035Y0244380D01*
X0055086Y0244416D01*
X0055140Y0244449D01*
X0055195Y0244479D01*
X0055253Y0244505D01*
X0055311Y0244528D01*
X0055371Y0244547D01*
X0055432Y0244562D01*
X0055494Y0244574D01*
X0055557Y0244582D01*
X0055620Y0244586D01*
X0055682Y0244586D01*
X0055745Y0244582D01*
X0055808Y0244574D01*
X0055870Y0244562D01*
X0055931Y0244547D01*
X0055991Y0244528D01*
X0056049Y0244505D01*
X0056107Y0244479D01*
X0056162Y0244449D01*
X0056216Y0244416D01*
X0056267Y0244380D01*
X0056316Y0244340D01*
X0056362Y0244298D01*
X0056406Y0244253D01*
X0056447Y0244205D01*
X0056485Y0244154D01*
X0056520Y0244102D01*
X0056551Y0244048D01*
X0056579Y0243991D01*
X0056604Y0243933D01*
X0056625Y0243874D01*
X0056642Y0243813D01*
X0056656Y0243752D01*
X0056665Y0243690D01*
X0056671Y0243627D01*
X0056673Y0243564D01*
X0056929Y0241264D02*
X0056927Y0241194D01*
X0056921Y0241123D01*
X0056912Y0241054D01*
X0056898Y0240985D01*
X0056881Y0240916D01*
X0056860Y0240849D01*
X0056835Y0240783D01*
X0056807Y0240719D01*
X0056775Y0240656D01*
X0056740Y0240595D01*
X0056701Y0240536D01*
X0056660Y0240479D01*
X0056615Y0240425D01*
X0056567Y0240373D01*
X0056517Y0240324D01*
X0056463Y0240277D01*
X0056408Y0240234D01*
X0056350Y0240194D01*
X0056290Y0240157D01*
X0056228Y0240124D01*
X0056164Y0240094D01*
X0056099Y0240067D01*
X0056033Y0240044D01*
X0055965Y0240025D01*
X0055896Y0240010D01*
X0055827Y0239998D01*
X0055757Y0239990D01*
X0055686Y0239986D01*
X0055616Y0239986D01*
X0055545Y0239990D01*
X0055475Y0239998D01*
X0055406Y0240010D01*
X0055337Y0240025D01*
X0055269Y0240044D01*
X0055203Y0240067D01*
X0055138Y0240094D01*
X0055074Y0240124D01*
X0055012Y0240157D01*
X0054952Y0240194D01*
X0054894Y0240234D01*
X0054839Y0240277D01*
X0054785Y0240324D01*
X0054735Y0240373D01*
X0054687Y0240425D01*
X0054642Y0240479D01*
X0054601Y0240536D01*
X0054562Y0240595D01*
X0054527Y0240656D01*
X0054495Y0240719D01*
X0054467Y0240783D01*
X0054442Y0240849D01*
X0054421Y0240916D01*
X0054404Y0240985D01*
X0054390Y0241054D01*
X0054381Y0241123D01*
X0054375Y0241194D01*
X0054373Y0241264D01*
X0054375Y0241334D01*
X0054381Y0241405D01*
X0054390Y0241474D01*
X0054404Y0241543D01*
X0054421Y0241612D01*
X0054442Y0241679D01*
X0054467Y0241745D01*
X0054495Y0241809D01*
X0054527Y0241872D01*
X0054562Y0241933D01*
X0054601Y0241992D01*
X0054642Y0242049D01*
X0054687Y0242103D01*
X0054735Y0242155D01*
X0054785Y0242204D01*
X0054839Y0242251D01*
X0054894Y0242294D01*
X0054952Y0242334D01*
X0055012Y0242371D01*
X0055074Y0242404D01*
X0055138Y0242434D01*
X0055203Y0242461D01*
X0055269Y0242484D01*
X0055337Y0242503D01*
X0055406Y0242518D01*
X0055475Y0242530D01*
X0055545Y0242538D01*
X0055616Y0242542D01*
X0055686Y0242542D01*
X0055757Y0242538D01*
X0055827Y0242530D01*
X0055896Y0242518D01*
X0055965Y0242503D01*
X0056033Y0242484D01*
X0056099Y0242461D01*
X0056164Y0242434D01*
X0056228Y0242404D01*
X0056290Y0242371D01*
X0056350Y0242334D01*
X0056408Y0242294D01*
X0056463Y0242251D01*
X0056517Y0242204D01*
X0056567Y0242155D01*
X0056615Y0242103D01*
X0056660Y0242049D01*
X0056701Y0241992D01*
X0056740Y0241933D01*
X0056775Y0241872D01*
X0056807Y0241809D01*
X0056835Y0241745D01*
X0056860Y0241679D01*
X0056881Y0241612D01*
X0056898Y0241543D01*
X0056912Y0241474D01*
X0056921Y0241405D01*
X0056927Y0241334D01*
X0056929Y0241264D01*
X0063844Y0246486D02*
X0064867Y0248530D01*
X0065122Y0248530D02*
X0066400Y0248530D01*
X0065122Y0248530D02*
X0065052Y0248532D01*
X0064981Y0248538D01*
X0064912Y0248547D01*
X0064843Y0248561D01*
X0064774Y0248578D01*
X0064707Y0248599D01*
X0064641Y0248624D01*
X0064577Y0248652D01*
X0064514Y0248684D01*
X0064453Y0248719D01*
X0064394Y0248758D01*
X0064337Y0248799D01*
X0064283Y0248844D01*
X0064231Y0248892D01*
X0064182Y0248942D01*
X0064135Y0248996D01*
X0064092Y0249051D01*
X0064052Y0249109D01*
X0064015Y0249169D01*
X0063982Y0249231D01*
X0063952Y0249295D01*
X0063925Y0249360D01*
X0063902Y0249426D01*
X0063883Y0249494D01*
X0063868Y0249563D01*
X0063856Y0249632D01*
X0063848Y0249702D01*
X0063844Y0249773D01*
X0063844Y0249843D01*
X0063848Y0249914D01*
X0063856Y0249984D01*
X0063868Y0250053D01*
X0063883Y0250122D01*
X0063902Y0250190D01*
X0063925Y0250256D01*
X0063952Y0250321D01*
X0063982Y0250385D01*
X0064015Y0250447D01*
X0064052Y0250507D01*
X0064092Y0250565D01*
X0064135Y0250620D01*
X0064182Y0250674D01*
X0064231Y0250724D01*
X0064283Y0250772D01*
X0064337Y0250817D01*
X0064394Y0250858D01*
X0064453Y0250897D01*
X0064514Y0250932D01*
X0064577Y0250964D01*
X0064641Y0250992D01*
X0064707Y0251017D01*
X0064774Y0251038D01*
X0064843Y0251055D01*
X0064912Y0251069D01*
X0064981Y0251078D01*
X0065052Y0251084D01*
X0065122Y0251086D01*
X0066400Y0251086D01*
X0066400Y0246486D01*
X0057429Y0248786D02*
X0057427Y0248671D01*
X0057422Y0248557D01*
X0057413Y0248443D01*
X0057401Y0248329D01*
X0057386Y0248215D01*
X0057367Y0248102D01*
X0057344Y0247990D01*
X0057319Y0247878D01*
X0057289Y0247767D01*
X0057257Y0247657D01*
X0057221Y0247548D01*
X0057182Y0247440D01*
X0057140Y0247334D01*
X0057094Y0247229D01*
X0057046Y0247125D01*
X0060140Y0253986D02*
X0060140Y0256030D01*
X0059373Y0255008D02*
X0061929Y0255008D01*
X0060907Y0258586D01*
X0060140Y0261486D02*
X0060140Y0263530D01*
X0059373Y0262508D02*
X0061929Y0262508D01*
X0060907Y0266086D01*
X0060140Y0268986D02*
X0060140Y0271030D01*
X0059373Y0270008D02*
X0061929Y0270008D01*
X0060907Y0273586D01*
X0057429Y0273586D02*
X0054873Y0273586D01*
X0056151Y0268986D01*
X0055129Y0265064D02*
X0055131Y0265001D01*
X0055137Y0264938D01*
X0055146Y0264876D01*
X0055160Y0264815D01*
X0055177Y0264754D01*
X0055198Y0264695D01*
X0055223Y0264637D01*
X0055251Y0264580D01*
X0055282Y0264526D01*
X0055317Y0264474D01*
X0055355Y0264423D01*
X0055396Y0264375D01*
X0055440Y0264330D01*
X0055486Y0264288D01*
X0055535Y0264248D01*
X0055586Y0264212D01*
X0055640Y0264179D01*
X0055695Y0264149D01*
X0055753Y0264123D01*
X0055811Y0264100D01*
X0055871Y0264081D01*
X0055932Y0264066D01*
X0055994Y0264054D01*
X0056057Y0264046D01*
X0056120Y0264042D01*
X0056182Y0264042D01*
X0056245Y0264046D01*
X0056308Y0264054D01*
X0056370Y0264066D01*
X0056431Y0264081D01*
X0056491Y0264100D01*
X0056549Y0264123D01*
X0056607Y0264149D01*
X0056662Y0264179D01*
X0056716Y0264212D01*
X0056767Y0264248D01*
X0056816Y0264288D01*
X0056862Y0264330D01*
X0056906Y0264375D01*
X0056947Y0264423D01*
X0056985Y0264474D01*
X0057020Y0264526D01*
X0057051Y0264580D01*
X0057079Y0264637D01*
X0057104Y0264695D01*
X0057125Y0264754D01*
X0057142Y0264815D01*
X0057156Y0264876D01*
X0057165Y0264938D01*
X0057171Y0265001D01*
X0057173Y0265064D01*
X0057171Y0265127D01*
X0057165Y0265190D01*
X0057156Y0265252D01*
X0057142Y0265313D01*
X0057125Y0265374D01*
X0057104Y0265433D01*
X0057079Y0265491D01*
X0057051Y0265548D01*
X0057020Y0265602D01*
X0056985Y0265654D01*
X0056947Y0265705D01*
X0056906Y0265753D01*
X0056862Y0265798D01*
X0056816Y0265840D01*
X0056767Y0265880D01*
X0056716Y0265916D01*
X0056662Y0265949D01*
X0056607Y0265979D01*
X0056549Y0266005D01*
X0056491Y0266028D01*
X0056431Y0266047D01*
X0056370Y0266062D01*
X0056308Y0266074D01*
X0056245Y0266082D01*
X0056182Y0266086D01*
X0056120Y0266086D01*
X0056057Y0266082D01*
X0055994Y0266074D01*
X0055932Y0266062D01*
X0055871Y0266047D01*
X0055811Y0266028D01*
X0055753Y0266005D01*
X0055695Y0265979D01*
X0055640Y0265949D01*
X0055586Y0265916D01*
X0055535Y0265880D01*
X0055486Y0265840D01*
X0055440Y0265798D01*
X0055396Y0265753D01*
X0055355Y0265705D01*
X0055317Y0265654D01*
X0055282Y0265602D01*
X0055251Y0265548D01*
X0055223Y0265491D01*
X0055198Y0265433D01*
X0055177Y0265374D01*
X0055160Y0265313D01*
X0055146Y0265252D01*
X0055137Y0265190D01*
X0055131Y0265127D01*
X0055129Y0265064D01*
X0054873Y0262764D02*
X0054875Y0262694D01*
X0054881Y0262623D01*
X0054890Y0262554D01*
X0054904Y0262485D01*
X0054921Y0262416D01*
X0054942Y0262349D01*
X0054967Y0262283D01*
X0054995Y0262219D01*
X0055027Y0262156D01*
X0055062Y0262095D01*
X0055101Y0262036D01*
X0055142Y0261979D01*
X0055187Y0261925D01*
X0055235Y0261873D01*
X0055285Y0261824D01*
X0055339Y0261777D01*
X0055394Y0261734D01*
X0055452Y0261694D01*
X0055512Y0261657D01*
X0055574Y0261624D01*
X0055638Y0261594D01*
X0055703Y0261567D01*
X0055769Y0261544D01*
X0055837Y0261525D01*
X0055906Y0261510D01*
X0055975Y0261498D01*
X0056045Y0261490D01*
X0056116Y0261486D01*
X0056186Y0261486D01*
X0056257Y0261490D01*
X0056327Y0261498D01*
X0056396Y0261510D01*
X0056465Y0261525D01*
X0056533Y0261544D01*
X0056599Y0261567D01*
X0056664Y0261594D01*
X0056728Y0261624D01*
X0056790Y0261657D01*
X0056850Y0261694D01*
X0056908Y0261734D01*
X0056963Y0261777D01*
X0057017Y0261824D01*
X0057067Y0261873D01*
X0057115Y0261925D01*
X0057160Y0261979D01*
X0057201Y0262036D01*
X0057240Y0262095D01*
X0057275Y0262156D01*
X0057307Y0262219D01*
X0057335Y0262283D01*
X0057360Y0262349D01*
X0057381Y0262416D01*
X0057398Y0262485D01*
X0057412Y0262554D01*
X0057421Y0262623D01*
X0057427Y0262694D01*
X0057429Y0262764D01*
X0057427Y0262834D01*
X0057421Y0262905D01*
X0057412Y0262974D01*
X0057398Y0263043D01*
X0057381Y0263112D01*
X0057360Y0263179D01*
X0057335Y0263245D01*
X0057307Y0263309D01*
X0057275Y0263372D01*
X0057240Y0263433D01*
X0057201Y0263492D01*
X0057160Y0263549D01*
X0057115Y0263603D01*
X0057067Y0263655D01*
X0057017Y0263704D01*
X0056963Y0263751D01*
X0056908Y0263794D01*
X0056850Y0263834D01*
X0056790Y0263871D01*
X0056728Y0263904D01*
X0056664Y0263934D01*
X0056599Y0263961D01*
X0056533Y0263984D01*
X0056465Y0264003D01*
X0056396Y0264018D01*
X0056327Y0264030D01*
X0056257Y0264038D01*
X0056186Y0264042D01*
X0056116Y0264042D01*
X0056045Y0264038D01*
X0055975Y0264030D01*
X0055906Y0264018D01*
X0055837Y0264003D01*
X0055769Y0263984D01*
X0055703Y0263961D01*
X0055638Y0263934D01*
X0055574Y0263904D01*
X0055512Y0263871D01*
X0055452Y0263834D01*
X0055394Y0263794D01*
X0055339Y0263751D01*
X0055285Y0263704D01*
X0055235Y0263655D01*
X0055187Y0263603D01*
X0055142Y0263549D01*
X0055101Y0263492D01*
X0055062Y0263433D01*
X0055027Y0263372D01*
X0054995Y0263309D01*
X0054967Y0263245D01*
X0054942Y0263179D01*
X0054921Y0263112D01*
X0054904Y0263043D01*
X0054890Y0262974D01*
X0054881Y0262905D01*
X0054875Y0262834D01*
X0054873Y0262764D01*
X0054873Y0257308D02*
X0054873Y0256030D01*
X0056407Y0256030D01*
X0054874Y0256030D02*
X0054876Y0255941D01*
X0054882Y0255852D01*
X0054891Y0255763D01*
X0054905Y0255675D01*
X0054922Y0255588D01*
X0054944Y0255501D01*
X0054969Y0255415D01*
X0054997Y0255331D01*
X0055030Y0255248D01*
X0055066Y0255166D01*
X0055105Y0255086D01*
X0055148Y0255008D01*
X0055194Y0254932D01*
X0055244Y0254858D01*
X0055296Y0254786D01*
X0055352Y0254716D01*
X0055411Y0254649D01*
X0055473Y0254585D01*
X0055537Y0254523D01*
X0055604Y0254464D01*
X0055674Y0254408D01*
X0055746Y0254356D01*
X0055820Y0254306D01*
X0055896Y0254260D01*
X0055974Y0254217D01*
X0056054Y0254178D01*
X0056136Y0254142D01*
X0056219Y0254109D01*
X0056303Y0254081D01*
X0056389Y0254056D01*
X0056476Y0254034D01*
X0056563Y0254017D01*
X0056651Y0254003D01*
X0056740Y0253994D01*
X0056829Y0253988D01*
X0056918Y0253986D01*
X0057429Y0257052D02*
X0057429Y0257308D01*
X0057429Y0257052D02*
X0057427Y0256990D01*
X0057422Y0256929D01*
X0057412Y0256868D01*
X0057399Y0256807D01*
X0057383Y0256748D01*
X0057363Y0256690D01*
X0057339Y0256633D01*
X0057312Y0256577D01*
X0057282Y0256523D01*
X0057248Y0256471D01*
X0057212Y0256422D01*
X0057172Y0256374D01*
X0057130Y0256329D01*
X0057085Y0256287D01*
X0057037Y0256247D01*
X0056988Y0256211D01*
X0056936Y0256177D01*
X0056882Y0256147D01*
X0056826Y0256120D01*
X0056769Y0256096D01*
X0056711Y0256076D01*
X0056652Y0256060D01*
X0056591Y0256047D01*
X0056530Y0256037D01*
X0056469Y0256032D01*
X0056407Y0256030D01*
X0057429Y0257308D02*
X0057427Y0257378D01*
X0057421Y0257449D01*
X0057412Y0257518D01*
X0057398Y0257587D01*
X0057381Y0257656D01*
X0057360Y0257723D01*
X0057335Y0257789D01*
X0057307Y0257853D01*
X0057275Y0257916D01*
X0057240Y0257977D01*
X0057201Y0258036D01*
X0057160Y0258093D01*
X0057115Y0258147D01*
X0057067Y0258199D01*
X0057017Y0258248D01*
X0056963Y0258295D01*
X0056908Y0258338D01*
X0056850Y0258378D01*
X0056790Y0258415D01*
X0056728Y0258448D01*
X0056664Y0258478D01*
X0056599Y0258505D01*
X0056533Y0258528D01*
X0056465Y0258547D01*
X0056396Y0258562D01*
X0056327Y0258574D01*
X0056257Y0258582D01*
X0056186Y0258586D01*
X0056116Y0258586D01*
X0056045Y0258582D01*
X0055975Y0258574D01*
X0055906Y0258562D01*
X0055837Y0258547D01*
X0055769Y0258528D01*
X0055703Y0258505D01*
X0055638Y0258478D01*
X0055574Y0258448D01*
X0055512Y0258415D01*
X0055452Y0258378D01*
X0055394Y0258338D01*
X0055339Y0258295D01*
X0055285Y0258248D01*
X0055235Y0258199D01*
X0055187Y0258147D01*
X0055142Y0258093D01*
X0055101Y0258036D01*
X0055062Y0257977D01*
X0055027Y0257916D01*
X0054995Y0257853D01*
X0054967Y0257789D01*
X0054942Y0257723D01*
X0054921Y0257656D01*
X0054904Y0257587D01*
X0054890Y0257518D01*
X0054881Y0257449D01*
X0054875Y0257378D01*
X0054873Y0257308D01*
X0063844Y0253986D02*
X0064867Y0256030D01*
X0065122Y0256030D02*
X0066400Y0256030D01*
X0065122Y0256030D02*
X0065052Y0256032D01*
X0064981Y0256038D01*
X0064912Y0256047D01*
X0064843Y0256061D01*
X0064774Y0256078D01*
X0064707Y0256099D01*
X0064641Y0256124D01*
X0064577Y0256152D01*
X0064514Y0256184D01*
X0064453Y0256219D01*
X0064394Y0256258D01*
X0064337Y0256299D01*
X0064283Y0256344D01*
X0064231Y0256392D01*
X0064182Y0256442D01*
X0064135Y0256496D01*
X0064092Y0256551D01*
X0064052Y0256609D01*
X0064015Y0256669D01*
X0063982Y0256731D01*
X0063952Y0256795D01*
X0063925Y0256860D01*
X0063902Y0256926D01*
X0063883Y0256994D01*
X0063868Y0257063D01*
X0063856Y0257132D01*
X0063848Y0257202D01*
X0063844Y0257273D01*
X0063844Y0257343D01*
X0063848Y0257414D01*
X0063856Y0257484D01*
X0063868Y0257553D01*
X0063883Y0257622D01*
X0063902Y0257690D01*
X0063925Y0257756D01*
X0063952Y0257821D01*
X0063982Y0257885D01*
X0064015Y0257947D01*
X0064052Y0258007D01*
X0064092Y0258065D01*
X0064135Y0258120D01*
X0064182Y0258174D01*
X0064231Y0258224D01*
X0064283Y0258272D01*
X0064337Y0258317D01*
X0064394Y0258358D01*
X0064453Y0258397D01*
X0064514Y0258432D01*
X0064577Y0258464D01*
X0064641Y0258492D01*
X0064707Y0258517D01*
X0064774Y0258538D01*
X0064843Y0258555D01*
X0064912Y0258569D01*
X0064981Y0258578D01*
X0065052Y0258584D01*
X0065122Y0258586D01*
X0066400Y0258586D01*
X0066400Y0253986D01*
X0066400Y0261486D02*
X0066400Y0266086D01*
X0065122Y0266086D01*
X0065052Y0266084D01*
X0064981Y0266078D01*
X0064912Y0266069D01*
X0064843Y0266055D01*
X0064774Y0266038D01*
X0064707Y0266017D01*
X0064641Y0265992D01*
X0064577Y0265964D01*
X0064514Y0265932D01*
X0064453Y0265897D01*
X0064394Y0265858D01*
X0064337Y0265817D01*
X0064283Y0265772D01*
X0064231Y0265724D01*
X0064182Y0265674D01*
X0064135Y0265620D01*
X0064092Y0265565D01*
X0064052Y0265507D01*
X0064015Y0265447D01*
X0063982Y0265385D01*
X0063952Y0265321D01*
X0063925Y0265256D01*
X0063902Y0265190D01*
X0063883Y0265122D01*
X0063868Y0265053D01*
X0063856Y0264984D01*
X0063848Y0264914D01*
X0063844Y0264843D01*
X0063844Y0264773D01*
X0063848Y0264702D01*
X0063856Y0264632D01*
X0063868Y0264563D01*
X0063883Y0264494D01*
X0063902Y0264426D01*
X0063925Y0264360D01*
X0063952Y0264295D01*
X0063982Y0264231D01*
X0064015Y0264169D01*
X0064052Y0264109D01*
X0064092Y0264051D01*
X0064135Y0263996D01*
X0064182Y0263942D01*
X0064231Y0263892D01*
X0064283Y0263844D01*
X0064337Y0263799D01*
X0064394Y0263758D01*
X0064453Y0263719D01*
X0064514Y0263684D01*
X0064577Y0263652D01*
X0064641Y0263624D01*
X0064707Y0263599D01*
X0064774Y0263578D01*
X0064843Y0263561D01*
X0064912Y0263547D01*
X0064981Y0263538D01*
X0065052Y0263532D01*
X0065122Y0263530D01*
X0066400Y0263530D01*
X0064867Y0263530D02*
X0063844Y0261486D01*
X0063844Y0268986D02*
X0064867Y0271030D01*
X0065122Y0271030D02*
X0066400Y0271030D01*
X0065122Y0271030D02*
X0065052Y0271032D01*
X0064981Y0271038D01*
X0064912Y0271047D01*
X0064843Y0271061D01*
X0064774Y0271078D01*
X0064707Y0271099D01*
X0064641Y0271124D01*
X0064577Y0271152D01*
X0064514Y0271184D01*
X0064453Y0271219D01*
X0064394Y0271258D01*
X0064337Y0271299D01*
X0064283Y0271344D01*
X0064231Y0271392D01*
X0064182Y0271442D01*
X0064135Y0271496D01*
X0064092Y0271551D01*
X0064052Y0271609D01*
X0064015Y0271669D01*
X0063982Y0271731D01*
X0063952Y0271795D01*
X0063925Y0271860D01*
X0063902Y0271926D01*
X0063883Y0271994D01*
X0063868Y0272063D01*
X0063856Y0272132D01*
X0063848Y0272202D01*
X0063844Y0272273D01*
X0063844Y0272343D01*
X0063848Y0272414D01*
X0063856Y0272484D01*
X0063868Y0272553D01*
X0063883Y0272622D01*
X0063902Y0272690D01*
X0063925Y0272756D01*
X0063952Y0272821D01*
X0063982Y0272885D01*
X0064015Y0272947D01*
X0064052Y0273007D01*
X0064092Y0273065D01*
X0064135Y0273120D01*
X0064182Y0273174D01*
X0064231Y0273224D01*
X0064283Y0273272D01*
X0064337Y0273317D01*
X0064394Y0273358D01*
X0064453Y0273397D01*
X0064514Y0273432D01*
X0064577Y0273464D01*
X0064641Y0273492D01*
X0064707Y0273517D01*
X0064774Y0273538D01*
X0064843Y0273555D01*
X0064912Y0273569D01*
X0064981Y0273578D01*
X0065052Y0273584D01*
X0065122Y0273586D01*
X0066400Y0273586D01*
X0066400Y0268986D01*
X0057429Y0273075D02*
X0057429Y0273586D01*
X0113935Y0262364D02*
X0116491Y0262364D01*
X0115213Y0262364D02*
X0115213Y0266964D01*
X0116491Y0265942D01*
X0118180Y0266964D02*
X0121247Y0262364D01*
X0118180Y0262364D02*
X0121247Y0266964D01*
X0438300Y0201041D02*
X0438300Y0198486D01*
X0438300Y0199764D02*
X0442900Y0199764D01*
X0441878Y0198486D01*
D13*
X0442600Y0211286D02*
X0442600Y0221286D01*
X0443600Y0221286D01*
X0443600Y0211286D02*
X0442600Y0211286D01*
X0420600Y0211286D02*
X0419600Y0211286D01*
X0420600Y0211286D02*
X0420600Y0220786D01*
X0419600Y0220786D01*
X0419600Y0155786D02*
X0420600Y0155786D01*
X0420600Y0146286D01*
X0419600Y0146286D01*
X0442600Y0146286D02*
X0442600Y0156286D01*
X0443600Y0156286D01*
X0443600Y0146286D02*
X0442600Y0146286D01*
X0331600Y0103286D02*
X0331600Y0102286D01*
X0321600Y0102286D01*
X0321600Y0103286D01*
X0284100Y0103286D02*
X0284100Y0102286D01*
X0274100Y0102286D01*
X0274100Y0103286D01*
X0274600Y0080286D02*
X0274600Y0079286D01*
X0274600Y0080286D02*
X0284100Y0080286D01*
X0284100Y0079286D01*
X0322100Y0079286D02*
X0322100Y0080286D01*
X0331600Y0080286D01*
X0331600Y0079286D01*
X0206600Y0079286D02*
X0206600Y0080286D01*
X0197100Y0080286D01*
X0197100Y0079286D01*
X0196600Y0102286D02*
X0196600Y0103286D01*
X0196600Y0102286D02*
X0206600Y0102286D01*
X0206600Y0103286D01*
X0136600Y0103286D02*
X0136600Y0102286D01*
X0126600Y0102286D01*
X0126600Y0103286D01*
X0127100Y0080286D02*
X0127100Y0079286D01*
X0127100Y0080286D02*
X0136600Y0080286D01*
X0136600Y0079286D01*
X0091100Y0148786D02*
X0090100Y0148786D01*
X0090100Y0158786D01*
X0091100Y0158786D01*
X0068100Y0158286D02*
X0068100Y0148786D01*
X0067100Y0148786D01*
X0067100Y0158286D02*
X0068100Y0158286D01*
X0068100Y0211286D02*
X0067100Y0211286D01*
X0068100Y0211286D02*
X0068100Y0220786D01*
X0067100Y0220786D01*
X0090100Y0221286D02*
X0090100Y0211286D01*
X0091100Y0211286D01*
X0091100Y0221286D02*
X0090100Y0221286D01*
D14*
X0106725Y0213536D02*
X0108850Y0211036D01*
X0106350Y0211036D01*
X0108850Y0214536D02*
X0108826Y0214605D01*
X0108798Y0214672D01*
X0108767Y0214738D01*
X0108733Y0214802D01*
X0108696Y0214864D01*
X0108655Y0214925D01*
X0108612Y0214983D01*
X0108566Y0215039D01*
X0108516Y0215093D01*
X0108465Y0215144D01*
X0108411Y0215192D01*
X0108354Y0215238D01*
X0108295Y0215281D01*
X0108234Y0215320D01*
X0108172Y0215357D01*
X0108107Y0215390D01*
X0108041Y0215421D01*
X0107973Y0215447D01*
X0107905Y0215471D01*
X0107835Y0215491D01*
X0107764Y0215507D01*
X0107692Y0215520D01*
X0107620Y0215529D01*
X0107548Y0215534D01*
X0107475Y0215536D01*
X0107410Y0215534D01*
X0107344Y0215528D01*
X0107280Y0215519D01*
X0107216Y0215506D01*
X0107152Y0215489D01*
X0107090Y0215468D01*
X0107029Y0215444D01*
X0106970Y0215416D01*
X0106913Y0215385D01*
X0106857Y0215351D01*
X0106803Y0215313D01*
X0106752Y0215273D01*
X0106703Y0215229D01*
X0106657Y0215183D01*
X0106613Y0215134D01*
X0106573Y0215083D01*
X0106535Y0215029D01*
X0106501Y0214974D01*
X0106470Y0214916D01*
X0106442Y0214857D01*
X0106418Y0214796D01*
X0106397Y0214734D01*
X0106380Y0214670D01*
X0106367Y0214606D01*
X0106358Y0214542D01*
X0106352Y0214476D01*
X0106350Y0214411D01*
X0106352Y0214346D01*
X0106357Y0214281D01*
X0106366Y0214216D01*
X0106378Y0214152D01*
X0106394Y0214089D01*
X0106413Y0214027D01*
X0106435Y0213965D01*
X0106461Y0213905D01*
X0106490Y0213847D01*
X0106522Y0213790D01*
X0106557Y0213735D01*
X0106595Y0213682D01*
X0106635Y0213631D01*
X0106679Y0213582D01*
X0106725Y0213536D01*
X0110850Y0211036D02*
X0113350Y0211036D01*
X0112100Y0211036D02*
X0112100Y0215536D01*
X0113350Y0214536D01*
X0115050Y0215536D02*
X0117550Y0215536D01*
X0116300Y0215536D02*
X0116300Y0211036D01*
X0116300Y0203036D02*
X0116300Y0198536D01*
X0113350Y0198536D02*
X0110850Y0198536D01*
X0112100Y0198536D02*
X0112100Y0203036D01*
X0113350Y0202036D01*
X0115050Y0203036D02*
X0117550Y0203036D01*
X0108850Y0203036D02*
X0107350Y0203036D01*
X0107288Y0203034D01*
X0107227Y0203028D01*
X0107166Y0203019D01*
X0107106Y0203006D01*
X0107047Y0202989D01*
X0106989Y0202968D01*
X0106932Y0202944D01*
X0106877Y0202917D01*
X0106824Y0202886D01*
X0106772Y0202852D01*
X0106723Y0202815D01*
X0106676Y0202775D01*
X0106632Y0202732D01*
X0106591Y0202687D01*
X0106552Y0202639D01*
X0106516Y0202588D01*
X0106484Y0202536D01*
X0106455Y0202482D01*
X0106429Y0202426D01*
X0106407Y0202368D01*
X0106388Y0202310D01*
X0106373Y0202250D01*
X0106362Y0202189D01*
X0106354Y0202128D01*
X0106350Y0202067D01*
X0106350Y0202005D01*
X0106354Y0201944D01*
X0106362Y0201883D01*
X0106373Y0201822D01*
X0106388Y0201762D01*
X0106407Y0201704D01*
X0106429Y0201646D01*
X0106455Y0201590D01*
X0106484Y0201536D01*
X0106516Y0201484D01*
X0106552Y0201433D01*
X0106591Y0201385D01*
X0106632Y0201340D01*
X0106676Y0201297D01*
X0106723Y0201257D01*
X0106772Y0201220D01*
X0106824Y0201186D01*
X0106877Y0201155D01*
X0106932Y0201128D01*
X0106989Y0201104D01*
X0107047Y0201083D01*
X0107106Y0201066D01*
X0107166Y0201053D01*
X0107227Y0201044D01*
X0107288Y0201038D01*
X0107350Y0201036D01*
X0108350Y0201036D01*
X0107600Y0201036D02*
X0107531Y0201034D01*
X0107462Y0201028D01*
X0107394Y0201019D01*
X0107327Y0201006D01*
X0107260Y0200989D01*
X0107194Y0200968D01*
X0107130Y0200944D01*
X0107067Y0200916D01*
X0107005Y0200885D01*
X0106945Y0200851D01*
X0106888Y0200813D01*
X0106832Y0200772D01*
X0106779Y0200729D01*
X0106728Y0200682D01*
X0106680Y0200633D01*
X0106635Y0200581D01*
X0106593Y0200526D01*
X0106554Y0200470D01*
X0106517Y0200411D01*
X0106485Y0200350D01*
X0106455Y0200288D01*
X0106429Y0200224D01*
X0106407Y0200159D01*
X0106388Y0200093D01*
X0106373Y0200026D01*
X0106362Y0199958D01*
X0106354Y0199889D01*
X0106350Y0199820D01*
X0106350Y0199752D01*
X0106354Y0199683D01*
X0106362Y0199614D01*
X0106373Y0199546D01*
X0106388Y0199479D01*
X0106407Y0199413D01*
X0106429Y0199348D01*
X0106455Y0199284D01*
X0106485Y0199222D01*
X0106517Y0199161D01*
X0106554Y0199102D01*
X0106593Y0199046D01*
X0106635Y0198991D01*
X0106680Y0198939D01*
X0106728Y0198890D01*
X0106779Y0198843D01*
X0106832Y0198800D01*
X0106888Y0198759D01*
X0106945Y0198721D01*
X0107005Y0198687D01*
X0107067Y0198656D01*
X0107130Y0198628D01*
X0107194Y0198604D01*
X0107260Y0198583D01*
X0107327Y0198566D01*
X0107394Y0198553D01*
X0107462Y0198544D01*
X0107531Y0198538D01*
X0107600Y0198536D01*
X0108850Y0198536D01*
X0064225Y0215661D02*
X0062850Y0214911D01*
X0063350Y0213035D02*
X0063438Y0213037D01*
X0063525Y0213042D01*
X0063613Y0213051D01*
X0063700Y0213064D01*
X0063786Y0213080D01*
X0063871Y0213100D01*
X0063956Y0213124D01*
X0064040Y0213151D01*
X0064122Y0213181D01*
X0064203Y0213215D01*
X0064283Y0213252D01*
X0064361Y0213292D01*
X0064437Y0213336D01*
X0064511Y0213383D01*
X0064583Y0213432D01*
X0064654Y0213485D01*
X0064722Y0213541D01*
X0064787Y0213599D01*
X0064850Y0213660D01*
X0062850Y0214911D02*
X0062798Y0214878D01*
X0062747Y0214842D01*
X0062699Y0214803D01*
X0062654Y0214761D01*
X0062611Y0214716D01*
X0062571Y0214668D01*
X0062534Y0214619D01*
X0062500Y0214567D01*
X0062469Y0214513D01*
X0062441Y0214457D01*
X0062417Y0214400D01*
X0062397Y0214341D01*
X0062380Y0214282D01*
X0062367Y0214221D01*
X0062358Y0214160D01*
X0062352Y0214098D01*
X0062350Y0214036D01*
X0062352Y0213976D01*
X0062357Y0213915D01*
X0062366Y0213856D01*
X0062379Y0213797D01*
X0062395Y0213738D01*
X0062415Y0213681D01*
X0062438Y0213626D01*
X0062465Y0213571D01*
X0062494Y0213519D01*
X0062527Y0213468D01*
X0062563Y0213419D01*
X0062601Y0213373D01*
X0062643Y0213329D01*
X0062687Y0213287D01*
X0062733Y0213249D01*
X0062782Y0213213D01*
X0062833Y0213180D01*
X0062885Y0213151D01*
X0062940Y0213124D01*
X0062995Y0213101D01*
X0063052Y0213081D01*
X0063111Y0213065D01*
X0063170Y0213052D01*
X0063229Y0213043D01*
X0063290Y0213038D01*
X0063350Y0213036D01*
X0062600Y0217161D02*
X0062665Y0217208D01*
X0062733Y0217252D01*
X0062802Y0217293D01*
X0062873Y0217331D01*
X0062945Y0217366D01*
X0063019Y0217398D01*
X0063094Y0217427D01*
X0063170Y0217452D01*
X0063248Y0217474D01*
X0063326Y0217493D01*
X0063405Y0217508D01*
X0063484Y0217520D01*
X0063564Y0217529D01*
X0063645Y0217534D01*
X0063725Y0217536D01*
X0063785Y0217534D01*
X0063846Y0217529D01*
X0063905Y0217520D01*
X0063964Y0217507D01*
X0064023Y0217491D01*
X0064080Y0217471D01*
X0064135Y0217448D01*
X0064190Y0217421D01*
X0064242Y0217392D01*
X0064293Y0217359D01*
X0064342Y0217323D01*
X0064388Y0217285D01*
X0064432Y0217243D01*
X0064474Y0217199D01*
X0064512Y0217153D01*
X0064548Y0217104D01*
X0064581Y0217053D01*
X0064610Y0217001D01*
X0064637Y0216946D01*
X0064660Y0216891D01*
X0064680Y0216834D01*
X0064696Y0216775D01*
X0064709Y0216716D01*
X0064718Y0216657D01*
X0064723Y0216596D01*
X0064725Y0216536D01*
X0064723Y0216474D01*
X0064717Y0216412D01*
X0064708Y0216351D01*
X0064695Y0216290D01*
X0064678Y0216231D01*
X0064658Y0216172D01*
X0064634Y0216115D01*
X0064606Y0216059D01*
X0064575Y0216005D01*
X0064541Y0215953D01*
X0064504Y0215904D01*
X0064464Y0215856D01*
X0064421Y0215811D01*
X0064376Y0215769D01*
X0064328Y0215730D01*
X0064277Y0215694D01*
X0064225Y0215661D01*
X0060500Y0214036D02*
X0058000Y0214036D01*
X0058750Y0215036D02*
X0058750Y0213036D01*
X0060500Y0214036D02*
X0059500Y0217536D01*
X0095350Y0156536D02*
X0095437Y0156534D01*
X0095524Y0156528D01*
X0095611Y0156519D01*
X0095697Y0156506D01*
X0095783Y0156489D01*
X0095868Y0156468D01*
X0095951Y0156443D01*
X0096034Y0156415D01*
X0096115Y0156384D01*
X0096195Y0156349D01*
X0096273Y0156310D01*
X0096350Y0156268D01*
X0096425Y0156223D01*
X0096497Y0156174D01*
X0096568Y0156123D01*
X0096636Y0156068D01*
X0096701Y0156011D01*
X0096764Y0155950D01*
X0096825Y0155887D01*
X0096882Y0155822D01*
X0096937Y0155754D01*
X0096988Y0155683D01*
X0097037Y0155611D01*
X0097082Y0155536D01*
X0097124Y0155459D01*
X0097163Y0155381D01*
X0097198Y0155301D01*
X0097229Y0155220D01*
X0097257Y0155137D01*
X0097282Y0155054D01*
X0097303Y0154969D01*
X0097320Y0154883D01*
X0097333Y0154797D01*
X0097342Y0154710D01*
X0097348Y0154623D01*
X0097350Y0154536D01*
X0097350Y0153286D01*
X0097350Y0154536D02*
X0095850Y0154536D01*
X0095790Y0154534D01*
X0095729Y0154529D01*
X0095670Y0154520D01*
X0095611Y0154507D01*
X0095552Y0154491D01*
X0095495Y0154471D01*
X0095440Y0154448D01*
X0095385Y0154421D01*
X0095333Y0154392D01*
X0095282Y0154359D01*
X0095233Y0154323D01*
X0095187Y0154285D01*
X0095143Y0154243D01*
X0095101Y0154199D01*
X0095063Y0154153D01*
X0095027Y0154104D01*
X0094994Y0154053D01*
X0094965Y0154001D01*
X0094938Y0153946D01*
X0094915Y0153891D01*
X0094895Y0153834D01*
X0094879Y0153775D01*
X0094866Y0153716D01*
X0094857Y0153657D01*
X0094852Y0153596D01*
X0094850Y0153536D01*
X0094850Y0153286D01*
X0094852Y0153217D01*
X0094858Y0153148D01*
X0094867Y0153080D01*
X0094880Y0153013D01*
X0094897Y0152946D01*
X0094918Y0152880D01*
X0094942Y0152816D01*
X0094970Y0152753D01*
X0095001Y0152691D01*
X0095035Y0152631D01*
X0095073Y0152574D01*
X0095114Y0152518D01*
X0095157Y0152465D01*
X0095204Y0152414D01*
X0095253Y0152366D01*
X0095305Y0152321D01*
X0095360Y0152279D01*
X0095416Y0152240D01*
X0095475Y0152203D01*
X0095536Y0152171D01*
X0095598Y0152141D01*
X0095662Y0152115D01*
X0095727Y0152093D01*
X0095793Y0152074D01*
X0095860Y0152059D01*
X0095928Y0152048D01*
X0095997Y0152040D01*
X0096066Y0152036D01*
X0096134Y0152036D01*
X0096203Y0152040D01*
X0096272Y0152048D01*
X0096340Y0152059D01*
X0096407Y0152074D01*
X0096473Y0152093D01*
X0096538Y0152115D01*
X0096602Y0152141D01*
X0096664Y0152171D01*
X0096725Y0152203D01*
X0096784Y0152240D01*
X0096840Y0152279D01*
X0096895Y0152321D01*
X0096947Y0152366D01*
X0096996Y0152414D01*
X0097043Y0152465D01*
X0097086Y0152518D01*
X0097127Y0152574D01*
X0097165Y0152631D01*
X0097199Y0152691D01*
X0097230Y0152753D01*
X0097258Y0152816D01*
X0097282Y0152880D01*
X0097303Y0152946D01*
X0097320Y0153013D01*
X0097333Y0153080D01*
X0097342Y0153148D01*
X0097348Y0153217D01*
X0097350Y0153286D01*
X0099700Y0153911D02*
X0101075Y0154661D01*
X0100575Y0156536D02*
X0100495Y0156534D01*
X0100414Y0156529D01*
X0100334Y0156520D01*
X0100255Y0156508D01*
X0100176Y0156493D01*
X0100098Y0156474D01*
X0100020Y0156452D01*
X0099944Y0156427D01*
X0099869Y0156398D01*
X0099795Y0156366D01*
X0099723Y0156331D01*
X0099652Y0156293D01*
X0099583Y0156252D01*
X0099515Y0156208D01*
X0099450Y0156161D01*
X0101075Y0154661D02*
X0101127Y0154694D01*
X0101178Y0154730D01*
X0101226Y0154769D01*
X0101271Y0154811D01*
X0101314Y0154856D01*
X0101354Y0154904D01*
X0101391Y0154953D01*
X0101425Y0155005D01*
X0101456Y0155059D01*
X0101484Y0155115D01*
X0101508Y0155172D01*
X0101528Y0155231D01*
X0101545Y0155290D01*
X0101558Y0155351D01*
X0101567Y0155412D01*
X0101573Y0155474D01*
X0101575Y0155536D01*
X0101573Y0155596D01*
X0101568Y0155657D01*
X0101559Y0155716D01*
X0101546Y0155775D01*
X0101530Y0155834D01*
X0101510Y0155891D01*
X0101487Y0155946D01*
X0101460Y0156001D01*
X0101431Y0156053D01*
X0101398Y0156104D01*
X0101362Y0156153D01*
X0101324Y0156199D01*
X0101282Y0156243D01*
X0101238Y0156285D01*
X0101192Y0156323D01*
X0101143Y0156359D01*
X0101092Y0156392D01*
X0101040Y0156421D01*
X0100985Y0156448D01*
X0100930Y0156471D01*
X0100873Y0156491D01*
X0100814Y0156507D01*
X0100755Y0156520D01*
X0100696Y0156529D01*
X0100635Y0156534D01*
X0100575Y0156536D01*
X0101700Y0152660D02*
X0101637Y0152599D01*
X0101572Y0152541D01*
X0101504Y0152485D01*
X0101433Y0152432D01*
X0101361Y0152383D01*
X0101287Y0152336D01*
X0101211Y0152292D01*
X0101133Y0152252D01*
X0101053Y0152215D01*
X0100972Y0152181D01*
X0100890Y0152151D01*
X0100806Y0152124D01*
X0100721Y0152100D01*
X0100636Y0152080D01*
X0100550Y0152064D01*
X0100463Y0152051D01*
X0100375Y0152042D01*
X0100288Y0152037D01*
X0100200Y0152035D01*
X0100200Y0152036D02*
X0100140Y0152038D01*
X0100079Y0152043D01*
X0100020Y0152052D01*
X0099961Y0152065D01*
X0099902Y0152081D01*
X0099845Y0152101D01*
X0099790Y0152124D01*
X0099735Y0152151D01*
X0099683Y0152180D01*
X0099632Y0152213D01*
X0099583Y0152249D01*
X0099537Y0152287D01*
X0099493Y0152329D01*
X0099451Y0152373D01*
X0099413Y0152419D01*
X0099377Y0152468D01*
X0099344Y0152519D01*
X0099315Y0152571D01*
X0099288Y0152626D01*
X0099265Y0152681D01*
X0099245Y0152738D01*
X0099229Y0152797D01*
X0099216Y0152856D01*
X0099207Y0152915D01*
X0099202Y0152976D01*
X0099200Y0153036D01*
X0099202Y0153098D01*
X0099208Y0153160D01*
X0099217Y0153221D01*
X0099230Y0153282D01*
X0099247Y0153341D01*
X0099267Y0153400D01*
X0099291Y0153457D01*
X0099319Y0153513D01*
X0099350Y0153567D01*
X0099384Y0153619D01*
X0099421Y0153668D01*
X0099461Y0153716D01*
X0099504Y0153761D01*
X0099549Y0153803D01*
X0099597Y0153842D01*
X0099648Y0153878D01*
X0099700Y0153911D01*
X0136750Y0109536D02*
X0136752Y0109474D01*
X0136758Y0109413D01*
X0136767Y0109352D01*
X0136780Y0109292D01*
X0136797Y0109233D01*
X0136818Y0109175D01*
X0136842Y0109118D01*
X0136869Y0109063D01*
X0136900Y0109010D01*
X0136934Y0108958D01*
X0136971Y0108909D01*
X0137011Y0108862D01*
X0137054Y0108818D01*
X0137099Y0108777D01*
X0137147Y0108738D01*
X0137198Y0108702D01*
X0137250Y0108670D01*
X0137304Y0108641D01*
X0137360Y0108615D01*
X0137418Y0108593D01*
X0137476Y0108574D01*
X0137536Y0108559D01*
X0137597Y0108548D01*
X0137658Y0108540D01*
X0137719Y0108536D01*
X0137781Y0108536D01*
X0137842Y0108540D01*
X0137903Y0108548D01*
X0137964Y0108559D01*
X0138024Y0108574D01*
X0138082Y0108593D01*
X0138140Y0108615D01*
X0138196Y0108641D01*
X0138250Y0108670D01*
X0138302Y0108702D01*
X0138353Y0108738D01*
X0138401Y0108777D01*
X0138446Y0108818D01*
X0138489Y0108862D01*
X0138529Y0108909D01*
X0138566Y0108958D01*
X0138600Y0109010D01*
X0138631Y0109063D01*
X0138658Y0109118D01*
X0138682Y0109175D01*
X0138703Y0109233D01*
X0138720Y0109292D01*
X0138733Y0109352D01*
X0138742Y0109413D01*
X0138748Y0109474D01*
X0138750Y0109536D01*
X0138748Y0109598D01*
X0138742Y0109659D01*
X0138733Y0109720D01*
X0138720Y0109780D01*
X0138703Y0109839D01*
X0138682Y0109897D01*
X0138658Y0109954D01*
X0138631Y0110009D01*
X0138600Y0110062D01*
X0138566Y0110114D01*
X0138529Y0110163D01*
X0138489Y0110210D01*
X0138446Y0110254D01*
X0138401Y0110295D01*
X0138353Y0110334D01*
X0138302Y0110370D01*
X0138250Y0110402D01*
X0138196Y0110431D01*
X0138140Y0110457D01*
X0138082Y0110479D01*
X0138024Y0110498D01*
X0137964Y0110513D01*
X0137903Y0110524D01*
X0137842Y0110532D01*
X0137781Y0110536D01*
X0137719Y0110536D01*
X0137658Y0110532D01*
X0137597Y0110524D01*
X0137536Y0110513D01*
X0137476Y0110498D01*
X0137418Y0110479D01*
X0137360Y0110457D01*
X0137304Y0110431D01*
X0137250Y0110402D01*
X0137198Y0110370D01*
X0137147Y0110334D01*
X0137099Y0110295D01*
X0137054Y0110254D01*
X0137011Y0110210D01*
X0136971Y0110163D01*
X0136934Y0110114D01*
X0136900Y0110062D01*
X0136869Y0110009D01*
X0136842Y0109954D01*
X0136818Y0109897D01*
X0136797Y0109839D01*
X0136780Y0109780D01*
X0136767Y0109720D01*
X0136758Y0109659D01*
X0136752Y0109598D01*
X0136750Y0109536D01*
X0136500Y0107286D02*
X0136502Y0107217D01*
X0136508Y0107148D01*
X0136517Y0107080D01*
X0136530Y0107013D01*
X0136547Y0106946D01*
X0136568Y0106880D01*
X0136592Y0106816D01*
X0136620Y0106753D01*
X0136651Y0106691D01*
X0136685Y0106631D01*
X0136723Y0106574D01*
X0136764Y0106518D01*
X0136807Y0106465D01*
X0136854Y0106414D01*
X0136903Y0106366D01*
X0136955Y0106321D01*
X0137010Y0106279D01*
X0137066Y0106240D01*
X0137125Y0106203D01*
X0137186Y0106171D01*
X0137248Y0106141D01*
X0137312Y0106115D01*
X0137377Y0106093D01*
X0137443Y0106074D01*
X0137510Y0106059D01*
X0137578Y0106048D01*
X0137647Y0106040D01*
X0137716Y0106036D01*
X0137784Y0106036D01*
X0137853Y0106040D01*
X0137922Y0106048D01*
X0137990Y0106059D01*
X0138057Y0106074D01*
X0138123Y0106093D01*
X0138188Y0106115D01*
X0138252Y0106141D01*
X0138314Y0106171D01*
X0138375Y0106203D01*
X0138434Y0106240D01*
X0138490Y0106279D01*
X0138545Y0106321D01*
X0138597Y0106366D01*
X0138646Y0106414D01*
X0138693Y0106465D01*
X0138736Y0106518D01*
X0138777Y0106574D01*
X0138815Y0106631D01*
X0138849Y0106691D01*
X0138880Y0106753D01*
X0138908Y0106816D01*
X0138932Y0106880D01*
X0138953Y0106946D01*
X0138970Y0107013D01*
X0138983Y0107080D01*
X0138992Y0107148D01*
X0138998Y0107217D01*
X0139000Y0107286D01*
X0138998Y0107355D01*
X0138992Y0107424D01*
X0138983Y0107492D01*
X0138970Y0107559D01*
X0138953Y0107626D01*
X0138932Y0107692D01*
X0138908Y0107756D01*
X0138880Y0107819D01*
X0138849Y0107881D01*
X0138815Y0107941D01*
X0138777Y0107998D01*
X0138736Y0108054D01*
X0138693Y0108107D01*
X0138646Y0108158D01*
X0138597Y0108206D01*
X0138545Y0108251D01*
X0138490Y0108293D01*
X0138434Y0108332D01*
X0138375Y0108369D01*
X0138314Y0108401D01*
X0138252Y0108431D01*
X0138188Y0108457D01*
X0138123Y0108479D01*
X0138057Y0108498D01*
X0137990Y0108513D01*
X0137922Y0108524D01*
X0137853Y0108532D01*
X0137784Y0108536D01*
X0137716Y0108536D01*
X0137647Y0108532D01*
X0137578Y0108524D01*
X0137510Y0108513D01*
X0137443Y0108498D01*
X0137377Y0108479D01*
X0137312Y0108457D01*
X0137248Y0108431D01*
X0137186Y0108401D01*
X0137125Y0108369D01*
X0137066Y0108332D01*
X0137010Y0108293D01*
X0136955Y0108251D01*
X0136903Y0108206D01*
X0136854Y0108158D01*
X0136807Y0108107D01*
X0136764Y0108054D01*
X0136723Y0107998D01*
X0136685Y0107941D01*
X0136651Y0107881D01*
X0136620Y0107819D01*
X0136592Y0107756D01*
X0136568Y0107692D01*
X0136547Y0107626D01*
X0136530Y0107559D01*
X0136517Y0107492D01*
X0136508Y0107424D01*
X0136502Y0107355D01*
X0136500Y0107286D01*
X0141350Y0107911D02*
X0142725Y0108661D01*
X0142225Y0110536D02*
X0142145Y0110534D01*
X0142064Y0110529D01*
X0141984Y0110520D01*
X0141905Y0110508D01*
X0141826Y0110493D01*
X0141748Y0110474D01*
X0141670Y0110452D01*
X0141594Y0110427D01*
X0141519Y0110398D01*
X0141445Y0110366D01*
X0141373Y0110331D01*
X0141302Y0110293D01*
X0141233Y0110252D01*
X0141165Y0110208D01*
X0141100Y0110161D01*
X0142725Y0108661D02*
X0142777Y0108694D01*
X0142828Y0108730D01*
X0142876Y0108769D01*
X0142921Y0108811D01*
X0142964Y0108856D01*
X0143004Y0108904D01*
X0143041Y0108953D01*
X0143075Y0109005D01*
X0143106Y0109059D01*
X0143134Y0109115D01*
X0143158Y0109172D01*
X0143178Y0109231D01*
X0143195Y0109290D01*
X0143208Y0109351D01*
X0143217Y0109412D01*
X0143223Y0109474D01*
X0143225Y0109536D01*
X0143223Y0109596D01*
X0143218Y0109657D01*
X0143209Y0109716D01*
X0143196Y0109775D01*
X0143180Y0109834D01*
X0143160Y0109891D01*
X0143137Y0109946D01*
X0143110Y0110001D01*
X0143081Y0110053D01*
X0143048Y0110104D01*
X0143012Y0110153D01*
X0142974Y0110199D01*
X0142932Y0110243D01*
X0142888Y0110285D01*
X0142842Y0110323D01*
X0142793Y0110359D01*
X0142742Y0110392D01*
X0142690Y0110421D01*
X0142635Y0110448D01*
X0142580Y0110471D01*
X0142523Y0110491D01*
X0142464Y0110507D01*
X0142405Y0110520D01*
X0142346Y0110529D01*
X0142285Y0110534D01*
X0142225Y0110536D01*
X0143350Y0106660D02*
X0143287Y0106599D01*
X0143222Y0106541D01*
X0143154Y0106485D01*
X0143083Y0106432D01*
X0143011Y0106383D01*
X0142937Y0106336D01*
X0142861Y0106292D01*
X0142783Y0106252D01*
X0142703Y0106215D01*
X0142622Y0106181D01*
X0142540Y0106151D01*
X0142456Y0106124D01*
X0142371Y0106100D01*
X0142286Y0106080D01*
X0142200Y0106064D01*
X0142113Y0106051D01*
X0142025Y0106042D01*
X0141938Y0106037D01*
X0141850Y0106035D01*
X0141850Y0106036D02*
X0141790Y0106038D01*
X0141729Y0106043D01*
X0141670Y0106052D01*
X0141611Y0106065D01*
X0141552Y0106081D01*
X0141495Y0106101D01*
X0141440Y0106124D01*
X0141385Y0106151D01*
X0141333Y0106180D01*
X0141282Y0106213D01*
X0141233Y0106249D01*
X0141187Y0106287D01*
X0141143Y0106329D01*
X0141101Y0106373D01*
X0141063Y0106419D01*
X0141027Y0106468D01*
X0140994Y0106519D01*
X0140965Y0106571D01*
X0140938Y0106626D01*
X0140915Y0106681D01*
X0140895Y0106738D01*
X0140879Y0106797D01*
X0140866Y0106856D01*
X0140857Y0106915D01*
X0140852Y0106976D01*
X0140850Y0107036D01*
X0140852Y0107098D01*
X0140858Y0107160D01*
X0140867Y0107221D01*
X0140880Y0107282D01*
X0140897Y0107341D01*
X0140917Y0107400D01*
X0140941Y0107457D01*
X0140969Y0107513D01*
X0141000Y0107567D01*
X0141034Y0107619D01*
X0141071Y0107668D01*
X0141111Y0107716D01*
X0141154Y0107761D01*
X0141199Y0107803D01*
X0141247Y0107842D01*
X0141298Y0107878D01*
X0141350Y0107911D01*
X0173850Y0094036D02*
X0175100Y0089536D01*
X0178700Y0091411D02*
X0180075Y0092161D01*
X0179575Y0094036D02*
X0179495Y0094034D01*
X0179414Y0094029D01*
X0179334Y0094020D01*
X0179255Y0094008D01*
X0179176Y0093993D01*
X0179098Y0093974D01*
X0179020Y0093952D01*
X0178944Y0093927D01*
X0178869Y0093898D01*
X0178795Y0093866D01*
X0178723Y0093831D01*
X0178652Y0093793D01*
X0178583Y0093752D01*
X0178515Y0093708D01*
X0178450Y0093661D01*
X0180075Y0092161D02*
X0180127Y0092194D01*
X0180178Y0092230D01*
X0180226Y0092269D01*
X0180271Y0092311D01*
X0180314Y0092356D01*
X0180354Y0092404D01*
X0180391Y0092453D01*
X0180425Y0092505D01*
X0180456Y0092559D01*
X0180484Y0092615D01*
X0180508Y0092672D01*
X0180528Y0092731D01*
X0180545Y0092790D01*
X0180558Y0092851D01*
X0180567Y0092912D01*
X0180573Y0092974D01*
X0180575Y0093036D01*
X0180573Y0093096D01*
X0180568Y0093157D01*
X0180559Y0093216D01*
X0180546Y0093275D01*
X0180530Y0093334D01*
X0180510Y0093391D01*
X0180487Y0093446D01*
X0180460Y0093501D01*
X0180431Y0093553D01*
X0180398Y0093604D01*
X0180362Y0093653D01*
X0180324Y0093699D01*
X0180282Y0093743D01*
X0180238Y0093785D01*
X0180192Y0093823D01*
X0180143Y0093859D01*
X0180092Y0093892D01*
X0180040Y0093921D01*
X0179985Y0093948D01*
X0179930Y0093971D01*
X0179873Y0093991D01*
X0179814Y0094007D01*
X0179755Y0094020D01*
X0179696Y0094029D01*
X0179635Y0094034D01*
X0179575Y0094036D01*
X0180700Y0090160D02*
X0180637Y0090099D01*
X0180572Y0090041D01*
X0180504Y0089985D01*
X0180433Y0089932D01*
X0180361Y0089883D01*
X0180287Y0089836D01*
X0180211Y0089792D01*
X0180133Y0089752D01*
X0180053Y0089715D01*
X0179972Y0089681D01*
X0179890Y0089651D01*
X0179806Y0089624D01*
X0179721Y0089600D01*
X0179636Y0089580D01*
X0179550Y0089564D01*
X0179463Y0089551D01*
X0179375Y0089542D01*
X0179288Y0089537D01*
X0179200Y0089535D01*
X0179200Y0089536D02*
X0179140Y0089538D01*
X0179079Y0089543D01*
X0179020Y0089552D01*
X0178961Y0089565D01*
X0178902Y0089581D01*
X0178845Y0089601D01*
X0178790Y0089624D01*
X0178735Y0089651D01*
X0178683Y0089680D01*
X0178632Y0089713D01*
X0178583Y0089749D01*
X0178537Y0089787D01*
X0178493Y0089829D01*
X0178451Y0089873D01*
X0178413Y0089919D01*
X0178377Y0089968D01*
X0178344Y0090019D01*
X0178315Y0090071D01*
X0178288Y0090126D01*
X0178265Y0090181D01*
X0178245Y0090238D01*
X0178229Y0090297D01*
X0178216Y0090356D01*
X0178207Y0090415D01*
X0178202Y0090476D01*
X0178200Y0090536D01*
X0178202Y0090598D01*
X0178208Y0090660D01*
X0178217Y0090721D01*
X0178230Y0090782D01*
X0178247Y0090841D01*
X0178267Y0090900D01*
X0178291Y0090957D01*
X0178319Y0091013D01*
X0178350Y0091067D01*
X0178384Y0091119D01*
X0178421Y0091168D01*
X0178461Y0091216D01*
X0178504Y0091261D01*
X0178549Y0091303D01*
X0178597Y0091342D01*
X0178648Y0091378D01*
X0178700Y0091411D01*
X0176350Y0093536D02*
X0176350Y0094036D01*
X0173850Y0094036D01*
X0247850Y0090036D02*
X0250350Y0090036D01*
X0249100Y0090036D02*
X0249100Y0094536D01*
X0250350Y0093536D01*
X0252700Y0091911D02*
X0254075Y0092661D01*
X0253575Y0094536D02*
X0253495Y0094534D01*
X0253414Y0094529D01*
X0253334Y0094520D01*
X0253255Y0094508D01*
X0253176Y0094493D01*
X0253098Y0094474D01*
X0253020Y0094452D01*
X0252944Y0094427D01*
X0252869Y0094398D01*
X0252795Y0094366D01*
X0252723Y0094331D01*
X0252652Y0094293D01*
X0252583Y0094252D01*
X0252515Y0094208D01*
X0252450Y0094161D01*
X0254075Y0092661D02*
X0254127Y0092694D01*
X0254178Y0092730D01*
X0254226Y0092769D01*
X0254271Y0092811D01*
X0254314Y0092856D01*
X0254354Y0092904D01*
X0254391Y0092953D01*
X0254425Y0093005D01*
X0254456Y0093059D01*
X0254484Y0093115D01*
X0254508Y0093172D01*
X0254528Y0093231D01*
X0254545Y0093290D01*
X0254558Y0093351D01*
X0254567Y0093412D01*
X0254573Y0093474D01*
X0254575Y0093536D01*
X0254573Y0093596D01*
X0254568Y0093657D01*
X0254559Y0093716D01*
X0254546Y0093775D01*
X0254530Y0093834D01*
X0254510Y0093891D01*
X0254487Y0093946D01*
X0254460Y0094001D01*
X0254431Y0094053D01*
X0254398Y0094104D01*
X0254362Y0094153D01*
X0254324Y0094199D01*
X0254282Y0094243D01*
X0254238Y0094285D01*
X0254192Y0094323D01*
X0254143Y0094359D01*
X0254092Y0094392D01*
X0254040Y0094421D01*
X0253985Y0094448D01*
X0253930Y0094471D01*
X0253873Y0094491D01*
X0253814Y0094507D01*
X0253755Y0094520D01*
X0253696Y0094529D01*
X0253635Y0094534D01*
X0253575Y0094536D01*
X0254700Y0090660D02*
X0254637Y0090599D01*
X0254572Y0090541D01*
X0254504Y0090485D01*
X0254433Y0090432D01*
X0254361Y0090383D01*
X0254287Y0090336D01*
X0254211Y0090292D01*
X0254133Y0090252D01*
X0254053Y0090215D01*
X0253972Y0090181D01*
X0253890Y0090151D01*
X0253806Y0090124D01*
X0253721Y0090100D01*
X0253636Y0090080D01*
X0253550Y0090064D01*
X0253463Y0090051D01*
X0253375Y0090042D01*
X0253288Y0090037D01*
X0253200Y0090035D01*
X0253200Y0090036D02*
X0253140Y0090038D01*
X0253079Y0090043D01*
X0253020Y0090052D01*
X0252961Y0090065D01*
X0252902Y0090081D01*
X0252845Y0090101D01*
X0252790Y0090124D01*
X0252735Y0090151D01*
X0252683Y0090180D01*
X0252632Y0090213D01*
X0252583Y0090249D01*
X0252537Y0090287D01*
X0252493Y0090329D01*
X0252451Y0090373D01*
X0252413Y0090419D01*
X0252377Y0090468D01*
X0252344Y0090519D01*
X0252315Y0090571D01*
X0252288Y0090626D01*
X0252265Y0090681D01*
X0252245Y0090738D01*
X0252229Y0090797D01*
X0252216Y0090856D01*
X0252207Y0090915D01*
X0252202Y0090976D01*
X0252200Y0091036D01*
X0252202Y0091098D01*
X0252208Y0091160D01*
X0252217Y0091221D01*
X0252230Y0091282D01*
X0252247Y0091341D01*
X0252267Y0091400D01*
X0252291Y0091457D01*
X0252319Y0091513D01*
X0252350Y0091567D01*
X0252384Y0091619D01*
X0252421Y0091668D01*
X0252461Y0091716D01*
X0252504Y0091761D01*
X0252549Y0091803D01*
X0252597Y0091842D01*
X0252648Y0091878D01*
X0252700Y0091911D01*
X0347350Y0088536D02*
X0349850Y0088536D01*
X0347725Y0091036D01*
X0348475Y0093036D02*
X0348548Y0093034D01*
X0348620Y0093029D01*
X0348692Y0093020D01*
X0348764Y0093007D01*
X0348835Y0092991D01*
X0348905Y0092971D01*
X0348973Y0092947D01*
X0349041Y0092921D01*
X0349107Y0092890D01*
X0349172Y0092857D01*
X0349234Y0092820D01*
X0349295Y0092781D01*
X0349354Y0092738D01*
X0349411Y0092692D01*
X0349465Y0092644D01*
X0349516Y0092593D01*
X0349566Y0092539D01*
X0349612Y0092483D01*
X0349655Y0092425D01*
X0349696Y0092364D01*
X0349733Y0092302D01*
X0349767Y0092238D01*
X0349798Y0092172D01*
X0349826Y0092105D01*
X0349850Y0092036D01*
X0347725Y0091036D02*
X0347679Y0091082D01*
X0347635Y0091131D01*
X0347595Y0091182D01*
X0347557Y0091235D01*
X0347522Y0091290D01*
X0347490Y0091347D01*
X0347461Y0091405D01*
X0347435Y0091465D01*
X0347413Y0091527D01*
X0347394Y0091589D01*
X0347378Y0091652D01*
X0347366Y0091716D01*
X0347357Y0091781D01*
X0347352Y0091846D01*
X0347350Y0091911D01*
X0347352Y0091976D01*
X0347358Y0092042D01*
X0347367Y0092106D01*
X0347380Y0092170D01*
X0347397Y0092234D01*
X0347418Y0092296D01*
X0347442Y0092357D01*
X0347470Y0092416D01*
X0347501Y0092474D01*
X0347535Y0092529D01*
X0347573Y0092583D01*
X0347613Y0092634D01*
X0347657Y0092683D01*
X0347703Y0092729D01*
X0347752Y0092773D01*
X0347803Y0092813D01*
X0347857Y0092851D01*
X0347913Y0092885D01*
X0347970Y0092916D01*
X0348029Y0092944D01*
X0348090Y0092968D01*
X0348152Y0092989D01*
X0348216Y0093006D01*
X0348280Y0093019D01*
X0348344Y0093028D01*
X0348410Y0093034D01*
X0348475Y0093036D01*
X0352200Y0090411D02*
X0353575Y0091161D01*
X0353075Y0093036D02*
X0352995Y0093034D01*
X0352914Y0093029D01*
X0352834Y0093020D01*
X0352755Y0093008D01*
X0352676Y0092993D01*
X0352598Y0092974D01*
X0352520Y0092952D01*
X0352444Y0092927D01*
X0352369Y0092898D01*
X0352295Y0092866D01*
X0352223Y0092831D01*
X0352152Y0092793D01*
X0352083Y0092752D01*
X0352015Y0092708D01*
X0351950Y0092661D01*
X0353575Y0091161D02*
X0353627Y0091194D01*
X0353678Y0091230D01*
X0353726Y0091269D01*
X0353771Y0091311D01*
X0353814Y0091356D01*
X0353854Y0091404D01*
X0353891Y0091453D01*
X0353925Y0091505D01*
X0353956Y0091559D01*
X0353984Y0091615D01*
X0354008Y0091672D01*
X0354028Y0091731D01*
X0354045Y0091790D01*
X0354058Y0091851D01*
X0354067Y0091912D01*
X0354073Y0091974D01*
X0354075Y0092036D01*
X0354073Y0092096D01*
X0354068Y0092157D01*
X0354059Y0092216D01*
X0354046Y0092275D01*
X0354030Y0092334D01*
X0354010Y0092391D01*
X0353987Y0092446D01*
X0353960Y0092501D01*
X0353931Y0092553D01*
X0353898Y0092604D01*
X0353862Y0092653D01*
X0353824Y0092699D01*
X0353782Y0092743D01*
X0353738Y0092785D01*
X0353692Y0092823D01*
X0353643Y0092859D01*
X0353592Y0092892D01*
X0353540Y0092921D01*
X0353485Y0092948D01*
X0353430Y0092971D01*
X0353373Y0092991D01*
X0353314Y0093007D01*
X0353255Y0093020D01*
X0353196Y0093029D01*
X0353135Y0093034D01*
X0353075Y0093036D01*
X0354200Y0089160D02*
X0354137Y0089099D01*
X0354072Y0089041D01*
X0354004Y0088985D01*
X0353933Y0088932D01*
X0353861Y0088883D01*
X0353787Y0088836D01*
X0353711Y0088792D01*
X0353633Y0088752D01*
X0353553Y0088715D01*
X0353472Y0088681D01*
X0353390Y0088651D01*
X0353306Y0088624D01*
X0353221Y0088600D01*
X0353136Y0088580D01*
X0353050Y0088564D01*
X0352963Y0088551D01*
X0352875Y0088542D01*
X0352788Y0088537D01*
X0352700Y0088535D01*
X0352700Y0088536D02*
X0352640Y0088538D01*
X0352579Y0088543D01*
X0352520Y0088552D01*
X0352461Y0088565D01*
X0352402Y0088581D01*
X0352345Y0088601D01*
X0352290Y0088624D01*
X0352235Y0088651D01*
X0352183Y0088680D01*
X0352132Y0088713D01*
X0352083Y0088749D01*
X0352037Y0088787D01*
X0351993Y0088829D01*
X0351951Y0088873D01*
X0351913Y0088919D01*
X0351877Y0088968D01*
X0351844Y0089019D01*
X0351815Y0089071D01*
X0351788Y0089126D01*
X0351765Y0089181D01*
X0351745Y0089238D01*
X0351729Y0089297D01*
X0351716Y0089356D01*
X0351707Y0089415D01*
X0351702Y0089476D01*
X0351700Y0089536D01*
X0351702Y0089598D01*
X0351708Y0089660D01*
X0351717Y0089721D01*
X0351730Y0089782D01*
X0351747Y0089841D01*
X0351767Y0089900D01*
X0351791Y0089957D01*
X0351819Y0090013D01*
X0351850Y0090067D01*
X0351884Y0090119D01*
X0351921Y0090168D01*
X0351961Y0090216D01*
X0352004Y0090261D01*
X0352049Y0090303D01*
X0352097Y0090342D01*
X0352148Y0090378D01*
X0352200Y0090411D01*
X0446500Y0147036D02*
X0446500Y0147536D01*
X0446502Y0147596D01*
X0446507Y0147657D01*
X0446516Y0147716D01*
X0446529Y0147775D01*
X0446545Y0147834D01*
X0446565Y0147891D01*
X0446588Y0147946D01*
X0446615Y0148001D01*
X0446644Y0148053D01*
X0446677Y0148104D01*
X0446713Y0148153D01*
X0446751Y0148199D01*
X0446793Y0148243D01*
X0446837Y0148285D01*
X0446883Y0148323D01*
X0446932Y0148359D01*
X0446983Y0148392D01*
X0447035Y0148421D01*
X0447090Y0148448D01*
X0447145Y0148471D01*
X0447202Y0148491D01*
X0447261Y0148507D01*
X0447320Y0148520D01*
X0447379Y0148529D01*
X0447440Y0148534D01*
X0447500Y0148536D01*
X0449000Y0148536D01*
X0449000Y0150536D01*
X0446500Y0150536D01*
X0446500Y0147036D02*
X0446502Y0146976D01*
X0446507Y0146915D01*
X0446516Y0146856D01*
X0446529Y0146797D01*
X0446545Y0146738D01*
X0446565Y0146681D01*
X0446588Y0146626D01*
X0446615Y0146571D01*
X0446644Y0146519D01*
X0446677Y0146468D01*
X0446713Y0146419D01*
X0446751Y0146373D01*
X0446793Y0146329D01*
X0446837Y0146287D01*
X0446883Y0146249D01*
X0446932Y0146213D01*
X0446983Y0146180D01*
X0447035Y0146151D01*
X0447090Y0146124D01*
X0447145Y0146101D01*
X0447202Y0146081D01*
X0447261Y0146065D01*
X0447320Y0146052D01*
X0447379Y0146043D01*
X0447440Y0146038D01*
X0447500Y0146036D01*
X0449000Y0146036D01*
X0451350Y0147911D02*
X0452725Y0148661D01*
X0452225Y0150536D02*
X0452145Y0150534D01*
X0452064Y0150529D01*
X0451984Y0150520D01*
X0451905Y0150508D01*
X0451826Y0150493D01*
X0451748Y0150474D01*
X0451670Y0150452D01*
X0451594Y0150427D01*
X0451519Y0150398D01*
X0451445Y0150366D01*
X0451373Y0150331D01*
X0451302Y0150293D01*
X0451233Y0150252D01*
X0451165Y0150208D01*
X0451100Y0150161D01*
X0452725Y0148661D02*
X0452777Y0148694D01*
X0452828Y0148730D01*
X0452876Y0148769D01*
X0452921Y0148811D01*
X0452964Y0148856D01*
X0453004Y0148904D01*
X0453041Y0148953D01*
X0453075Y0149005D01*
X0453106Y0149059D01*
X0453134Y0149115D01*
X0453158Y0149172D01*
X0453178Y0149231D01*
X0453195Y0149290D01*
X0453208Y0149351D01*
X0453217Y0149412D01*
X0453223Y0149474D01*
X0453225Y0149536D01*
X0453223Y0149596D01*
X0453218Y0149657D01*
X0453209Y0149716D01*
X0453196Y0149775D01*
X0453180Y0149834D01*
X0453160Y0149891D01*
X0453137Y0149946D01*
X0453110Y0150001D01*
X0453081Y0150053D01*
X0453048Y0150104D01*
X0453012Y0150153D01*
X0452974Y0150199D01*
X0452932Y0150243D01*
X0452888Y0150285D01*
X0452842Y0150323D01*
X0452793Y0150359D01*
X0452742Y0150392D01*
X0452690Y0150421D01*
X0452635Y0150448D01*
X0452580Y0150471D01*
X0452523Y0150491D01*
X0452464Y0150507D01*
X0452405Y0150520D01*
X0452346Y0150529D01*
X0452285Y0150534D01*
X0452225Y0150536D01*
X0453350Y0146660D02*
X0453287Y0146599D01*
X0453222Y0146541D01*
X0453154Y0146485D01*
X0453083Y0146432D01*
X0453011Y0146383D01*
X0452937Y0146336D01*
X0452861Y0146292D01*
X0452783Y0146252D01*
X0452703Y0146215D01*
X0452622Y0146181D01*
X0452540Y0146151D01*
X0452456Y0146124D01*
X0452371Y0146100D01*
X0452286Y0146080D01*
X0452200Y0146064D01*
X0452113Y0146051D01*
X0452025Y0146042D01*
X0451938Y0146037D01*
X0451850Y0146035D01*
X0451850Y0146036D02*
X0451790Y0146038D01*
X0451729Y0146043D01*
X0451670Y0146052D01*
X0451611Y0146065D01*
X0451552Y0146081D01*
X0451495Y0146101D01*
X0451440Y0146124D01*
X0451385Y0146151D01*
X0451333Y0146180D01*
X0451282Y0146213D01*
X0451233Y0146249D01*
X0451187Y0146287D01*
X0451143Y0146329D01*
X0451101Y0146373D01*
X0451063Y0146419D01*
X0451027Y0146468D01*
X0450994Y0146519D01*
X0450965Y0146571D01*
X0450938Y0146626D01*
X0450915Y0146681D01*
X0450895Y0146738D01*
X0450879Y0146797D01*
X0450866Y0146856D01*
X0450857Y0146915D01*
X0450852Y0146976D01*
X0450850Y0147036D01*
X0450852Y0147098D01*
X0450858Y0147160D01*
X0450867Y0147221D01*
X0450880Y0147282D01*
X0450897Y0147341D01*
X0450917Y0147400D01*
X0450941Y0147457D01*
X0450969Y0147513D01*
X0451000Y0147567D01*
X0451034Y0147619D01*
X0451071Y0147668D01*
X0451111Y0147716D01*
X0451154Y0147761D01*
X0451199Y0147803D01*
X0451247Y0147842D01*
X0451298Y0147878D01*
X0451350Y0147911D01*
X0449000Y0213536D02*
X0447750Y0213536D01*
X0447681Y0213538D01*
X0447612Y0213544D01*
X0447544Y0213553D01*
X0447477Y0213566D01*
X0447410Y0213583D01*
X0447344Y0213604D01*
X0447280Y0213628D01*
X0447217Y0213656D01*
X0447155Y0213687D01*
X0447095Y0213721D01*
X0447038Y0213759D01*
X0446982Y0213800D01*
X0446929Y0213843D01*
X0446878Y0213890D01*
X0446830Y0213939D01*
X0446785Y0213991D01*
X0446743Y0214046D01*
X0446704Y0214102D01*
X0446667Y0214161D01*
X0446635Y0214222D01*
X0446605Y0214284D01*
X0446579Y0214348D01*
X0446557Y0214413D01*
X0446538Y0214479D01*
X0446523Y0214546D01*
X0446512Y0214614D01*
X0446504Y0214683D01*
X0446500Y0214752D01*
X0446500Y0214820D01*
X0446504Y0214889D01*
X0446512Y0214958D01*
X0446523Y0215026D01*
X0446538Y0215093D01*
X0446557Y0215159D01*
X0446579Y0215224D01*
X0446605Y0215288D01*
X0446635Y0215350D01*
X0446667Y0215411D01*
X0446704Y0215470D01*
X0446743Y0215526D01*
X0446785Y0215581D01*
X0446830Y0215633D01*
X0446878Y0215682D01*
X0446929Y0215729D01*
X0446982Y0215772D01*
X0447038Y0215813D01*
X0447095Y0215851D01*
X0447155Y0215885D01*
X0447217Y0215916D01*
X0447280Y0215944D01*
X0447344Y0215968D01*
X0447410Y0215989D01*
X0447477Y0216006D01*
X0447544Y0216019D01*
X0447612Y0216028D01*
X0447681Y0216034D01*
X0447750Y0216036D01*
X0447500Y0216036D02*
X0448500Y0216036D01*
X0447500Y0216036D02*
X0447438Y0216038D01*
X0447377Y0216044D01*
X0447316Y0216053D01*
X0447256Y0216066D01*
X0447197Y0216083D01*
X0447139Y0216104D01*
X0447082Y0216128D01*
X0447027Y0216155D01*
X0446974Y0216186D01*
X0446922Y0216220D01*
X0446873Y0216257D01*
X0446826Y0216297D01*
X0446782Y0216340D01*
X0446741Y0216385D01*
X0446702Y0216433D01*
X0446666Y0216484D01*
X0446634Y0216536D01*
X0446605Y0216590D01*
X0446579Y0216646D01*
X0446557Y0216704D01*
X0446538Y0216762D01*
X0446523Y0216822D01*
X0446512Y0216883D01*
X0446504Y0216944D01*
X0446500Y0217005D01*
X0446500Y0217067D01*
X0446504Y0217128D01*
X0446512Y0217189D01*
X0446523Y0217250D01*
X0446538Y0217310D01*
X0446557Y0217368D01*
X0446579Y0217426D01*
X0446605Y0217482D01*
X0446634Y0217536D01*
X0446666Y0217588D01*
X0446702Y0217639D01*
X0446741Y0217687D01*
X0446782Y0217732D01*
X0446826Y0217775D01*
X0446873Y0217815D01*
X0446922Y0217852D01*
X0446974Y0217886D01*
X0447027Y0217917D01*
X0447082Y0217944D01*
X0447139Y0217968D01*
X0447197Y0217989D01*
X0447256Y0218006D01*
X0447316Y0218019D01*
X0447377Y0218028D01*
X0447438Y0218034D01*
X0447500Y0218036D01*
X0449000Y0218036D01*
X0452725Y0216161D02*
X0452777Y0216194D01*
X0452828Y0216230D01*
X0452876Y0216269D01*
X0452921Y0216311D01*
X0452964Y0216356D01*
X0453004Y0216404D01*
X0453041Y0216453D01*
X0453075Y0216505D01*
X0453106Y0216559D01*
X0453134Y0216615D01*
X0453158Y0216672D01*
X0453178Y0216731D01*
X0453195Y0216790D01*
X0453208Y0216851D01*
X0453217Y0216912D01*
X0453223Y0216974D01*
X0453225Y0217036D01*
X0453223Y0217096D01*
X0453218Y0217157D01*
X0453209Y0217216D01*
X0453196Y0217275D01*
X0453180Y0217334D01*
X0453160Y0217391D01*
X0453137Y0217446D01*
X0453110Y0217501D01*
X0453081Y0217553D01*
X0453048Y0217604D01*
X0453012Y0217653D01*
X0452974Y0217699D01*
X0452932Y0217743D01*
X0452888Y0217785D01*
X0452842Y0217823D01*
X0452793Y0217859D01*
X0452742Y0217892D01*
X0452690Y0217921D01*
X0452635Y0217948D01*
X0452580Y0217971D01*
X0452523Y0217991D01*
X0452464Y0218007D01*
X0452405Y0218020D01*
X0452346Y0218029D01*
X0452285Y0218034D01*
X0452225Y0218036D01*
X0452145Y0218034D01*
X0452064Y0218029D01*
X0451984Y0218020D01*
X0451905Y0218008D01*
X0451826Y0217993D01*
X0451748Y0217974D01*
X0451670Y0217952D01*
X0451594Y0217927D01*
X0451519Y0217898D01*
X0451445Y0217866D01*
X0451373Y0217831D01*
X0451302Y0217793D01*
X0451233Y0217752D01*
X0451165Y0217708D01*
X0451100Y0217661D01*
X0453350Y0214160D02*
X0453287Y0214099D01*
X0453222Y0214041D01*
X0453154Y0213985D01*
X0453083Y0213932D01*
X0453011Y0213883D01*
X0452937Y0213836D01*
X0452861Y0213792D01*
X0452783Y0213752D01*
X0452703Y0213715D01*
X0452622Y0213681D01*
X0452540Y0213651D01*
X0452456Y0213624D01*
X0452371Y0213600D01*
X0452286Y0213580D01*
X0452200Y0213564D01*
X0452113Y0213551D01*
X0452025Y0213542D01*
X0451938Y0213537D01*
X0451850Y0213535D01*
X0451850Y0213536D02*
X0451790Y0213538D01*
X0451729Y0213543D01*
X0451670Y0213552D01*
X0451611Y0213565D01*
X0451552Y0213581D01*
X0451495Y0213601D01*
X0451440Y0213624D01*
X0451385Y0213651D01*
X0451333Y0213680D01*
X0451282Y0213713D01*
X0451233Y0213749D01*
X0451187Y0213787D01*
X0451143Y0213829D01*
X0451101Y0213873D01*
X0451063Y0213919D01*
X0451027Y0213968D01*
X0450994Y0214019D01*
X0450965Y0214071D01*
X0450938Y0214126D01*
X0450915Y0214181D01*
X0450895Y0214238D01*
X0450879Y0214297D01*
X0450866Y0214356D01*
X0450857Y0214415D01*
X0450852Y0214476D01*
X0450850Y0214536D01*
X0451350Y0215411D02*
X0452725Y0216161D01*
X0451350Y0215411D02*
X0451298Y0215378D01*
X0451247Y0215342D01*
X0451199Y0215303D01*
X0451154Y0215261D01*
X0451111Y0215216D01*
X0451071Y0215168D01*
X0451034Y0215119D01*
X0451000Y0215067D01*
X0450969Y0215013D01*
X0450941Y0214957D01*
X0450917Y0214900D01*
X0450897Y0214841D01*
X0450880Y0214782D01*
X0450867Y0214721D01*
X0450858Y0214660D01*
X0450852Y0214598D01*
X0450850Y0214536D01*
D15*
X0150517Y0171160D02*
X0150517Y0271160D01*
X0147761Y0271160D01*
X0147761Y0269979D01*
X0146580Y0269979D01*
X0146580Y0172341D01*
X0146580Y0171160D01*
X0145006Y0171160D01*
X0146580Y0172341D02*
X0147761Y0172341D01*
X0147761Y0171160D01*
X0150517Y0171160D01*
X0133194Y0171160D02*
X0129257Y0171160D01*
X0129257Y0175884D01*
X0147761Y0263680D02*
X0147761Y0265254D01*
X0149336Y0264467D01*
X0147761Y0263680D01*
X0147761Y0263720D02*
X0147842Y0263720D01*
X0147761Y0264518D02*
X0149233Y0264518D01*
X0146580Y0269979D02*
X0146580Y0271160D01*
X0145006Y0271160D01*
X0133194Y0271160D02*
X0129257Y0271160D01*
X0129257Y0266435D01*
M02*
