G75*
%MOIN*%
%OFA0B0*%
%FSLAX25Y25*%
%IPPOS*%
%LPD*%
%AMOC8*
5,1,8,0,0,1.08239X$1,22.5*
%
%ADD10C,0.22800*%
%ADD11C,0.08800*%
%ADD12R,0.06050X0.06050*%
%ADD13OC8,0.05800*%
%ADD14R,0.03556X0.04343*%
%ADD15R,0.10800X0.05800*%
%ADD16R,0.05800X0.10800*%
%ADD17OC8,0.09300*%
%ADD18C,0.06800*%
%ADD19R,0.03900X0.04300*%
%ADD20OC8,0.13200*%
%ADD21R,0.05512X0.01575*%
%ADD22R,0.09252X0.07480*%
%ADD23C,0.04343*%
%ADD24OC8,0.09650*%
%ADD25C,0.09650*%
%ADD26C,0.03500*%
D10*
X0189858Y0382739D03*
X0499858Y0382739D03*
D11*
X0444858Y0215239D03*
X0244858Y0215239D03*
D12*
X0189858Y0227739D03*
X0189858Y0187739D03*
X0114858Y0187739D03*
X0114858Y0227739D03*
X0498858Y0226739D03*
X0498858Y0186739D03*
X0573858Y0186739D03*
X0573858Y0226739D03*
D13*
X0474858Y0322739D03*
X0482358Y0327739D03*
X0474858Y0332739D03*
D14*
X0190417Y0323739D03*
X0185299Y0323739D03*
X0185299Y0313739D03*
X0190417Y0313739D03*
X0189917Y0360239D03*
X0184799Y0360239D03*
X0166917Y0376239D03*
X0161799Y0376239D03*
X0162299Y0382739D03*
X0167417Y0382739D03*
X0167417Y0390239D03*
X0162299Y0390239D03*
X0162299Y0397739D03*
X0167417Y0397739D03*
X0167417Y0405239D03*
X0162299Y0405239D03*
D15*
X0277058Y0234139D03*
X0277658Y0216339D03*
X0302658Y0216339D03*
X0302658Y0234139D03*
X0354558Y0234139D03*
X0355158Y0216339D03*
X0380158Y0216339D03*
X0380158Y0234139D03*
X0402058Y0234139D03*
X0402658Y0216339D03*
X0427658Y0216339D03*
X0427658Y0234139D03*
D16*
X0515958Y0272439D03*
X0533758Y0272439D03*
X0533758Y0298039D03*
X0515958Y0297439D03*
X0515958Y0337439D03*
X0533758Y0337439D03*
X0533758Y0363039D03*
X0515958Y0362439D03*
X0176258Y0363039D03*
X0158458Y0362439D03*
X0158458Y0337439D03*
X0176258Y0337439D03*
X0176258Y0300539D03*
X0158458Y0299939D03*
X0158458Y0274939D03*
X0176258Y0274939D03*
D17*
X0537058Y0387739D03*
X0562658Y0387739D03*
D18*
X0372358Y0206239D02*
X0372358Y0200239D01*
X0362358Y0200239D02*
X0362358Y0206239D01*
X0352358Y0206239D02*
X0352358Y0200239D01*
X0342358Y0200239D02*
X0342358Y0206239D01*
X0332358Y0206239D02*
X0332358Y0200239D01*
X0322358Y0200239D02*
X0322358Y0206239D01*
X0312358Y0206239D02*
X0312358Y0200239D01*
X0302358Y0200239D02*
X0302358Y0206239D01*
D19*
X0191258Y0331239D03*
X0183658Y0331239D03*
X0187458Y0339239D03*
X0183658Y0346239D03*
X0191258Y0346239D03*
X0187458Y0354239D03*
D20*
X0468858Y0349739D03*
X0468858Y0367239D03*
D21*
X0209563Y0366924D03*
X0209563Y0368892D03*
X0209563Y0370861D03*
X0209563Y0372829D03*
X0209563Y0374798D03*
X0209563Y0376766D03*
X0209563Y0378735D03*
X0209563Y0380703D03*
X0209563Y0382672D03*
X0209563Y0384640D03*
X0209563Y0386609D03*
X0209563Y0388577D03*
X0209563Y0390546D03*
X0209563Y0392514D03*
X0209563Y0394483D03*
X0209563Y0396451D03*
X0209563Y0398420D03*
X0209563Y0364955D03*
X0209563Y0362987D03*
X0209563Y0361018D03*
X0209563Y0359050D03*
X0209563Y0357081D03*
X0209563Y0355113D03*
X0209563Y0353144D03*
X0209563Y0351176D03*
X0209563Y0349207D03*
X0209563Y0347239D03*
X0209563Y0345270D03*
X0209563Y0343302D03*
X0209563Y0341333D03*
X0209563Y0339365D03*
X0209563Y0337396D03*
X0209563Y0335428D03*
X0209563Y0333459D03*
X0209563Y0331491D03*
X0209563Y0329522D03*
X0209563Y0327554D03*
X0209563Y0325585D03*
X0209563Y0323617D03*
X0209563Y0321648D03*
X0209563Y0319680D03*
X0209563Y0317711D03*
X0209563Y0315743D03*
X0209563Y0313774D03*
X0209563Y0311806D03*
D22*
X0222358Y0304325D03*
X0222358Y0405900D03*
D23*
X0283697Y0172739D03*
X0301020Y0172739D03*
X0382697Y0173739D03*
X0400020Y0173739D03*
D24*
X0246658Y0159039D03*
X0265158Y0171839D03*
X0263058Y0201339D03*
X0440658Y0160039D03*
X0459158Y0172839D03*
X0457058Y0202339D03*
D25*
X0430458Y0185439D03*
X0420558Y0190939D03*
X0236458Y0184439D03*
X0226558Y0189939D03*
D26*
X0259258Y0206739D03*
X0259558Y0229839D03*
X0264958Y0234939D03*
X0263458Y0238239D03*
X0263158Y0243639D03*
X0266458Y0243639D03*
X0269458Y0241839D03*
X0286558Y0241239D03*
X0293158Y0239739D03*
X0295558Y0243639D03*
X0303358Y0238839D03*
X0286558Y0233139D03*
X0274858Y0227439D03*
X0270058Y0229839D03*
X0253258Y0250239D03*
X0259858Y0255039D03*
X0257458Y0257439D03*
X0265558Y0262239D03*
X0267958Y0259839D03*
X0265858Y0267039D03*
X0258658Y0273039D03*
X0257458Y0280239D03*
X0249658Y0277539D03*
X0246958Y0275439D03*
X0250558Y0268239D03*
X0248458Y0262839D03*
X0244858Y0263139D03*
X0240958Y0263139D03*
X0213958Y0285639D03*
X0217858Y0291339D03*
X0220258Y0295539D03*
X0222658Y0288939D03*
X0202558Y0300339D03*
X0200158Y0297939D03*
X0197758Y0300339D03*
X0182758Y0296139D03*
X0169258Y0294639D03*
X0160558Y0308739D03*
X0155158Y0308739D03*
X0153658Y0317439D03*
X0160558Y0318939D03*
X0165358Y0312639D03*
X0173458Y0318639D03*
X0181858Y0323739D03*
X0177358Y0324939D03*
X0179758Y0330339D03*
X0189958Y0335139D03*
X0193558Y0342339D03*
X0197758Y0338139D03*
X0200158Y0335739D03*
X0202558Y0333339D03*
X0204958Y0330939D03*
X0200158Y0342339D03*
X0198358Y0349239D03*
X0204958Y0355239D03*
X0202558Y0357639D03*
X0204958Y0360039D03*
X0203158Y0364839D03*
X0214558Y0357039D03*
X0215458Y0363639D03*
X0214258Y0376539D03*
X0214258Y0382839D03*
X0214258Y0386739D03*
X0219658Y0384639D03*
X0202858Y0399339D03*
X0199558Y0400839D03*
X0191458Y0406239D03*
X0170758Y0388839D03*
X0165058Y0393939D03*
X0158758Y0387639D03*
X0158758Y0383139D03*
X0157558Y0373539D03*
X0160858Y0372339D03*
X0171658Y0366039D03*
X0167758Y0335139D03*
X0159058Y0326439D03*
X0150658Y0324939D03*
X0127558Y0340539D03*
X0126358Y0349539D03*
X0123958Y0369639D03*
X0142558Y0397239D03*
X0216958Y0348039D03*
X0140158Y0301239D03*
X0136558Y0296439D03*
X0116758Y0298839D03*
X0225658Y0224439D03*
X0228058Y0229839D03*
X0282958Y0255339D03*
X0295558Y0252939D03*
X0308458Y0263739D03*
X0313558Y0263439D03*
X0319258Y0258339D03*
X0313558Y0255939D03*
X0316258Y0270939D03*
X0309058Y0275739D03*
X0308458Y0279039D03*
X0320758Y0282039D03*
X0328258Y0282939D03*
X0330658Y0280539D03*
X0348058Y0271239D03*
X0356158Y0267639D03*
X0356158Y0277239D03*
X0364858Y0280539D03*
X0369658Y0282939D03*
X0369658Y0287139D03*
X0371158Y0291939D03*
X0380458Y0297039D03*
X0387058Y0288339D03*
X0393058Y0285639D03*
X0395458Y0288039D03*
X0405058Y0291639D03*
X0411658Y0296439D03*
X0420658Y0290739D03*
X0425458Y0295539D03*
X0401758Y0278739D03*
X0387958Y0280839D03*
X0378058Y0285639D03*
X0377758Y0273039D03*
X0386458Y0264939D03*
X0386458Y0260139D03*
X0388858Y0257439D03*
X0391258Y0259839D03*
X0378358Y0260139D03*
X0375958Y0257739D03*
X0371758Y0261939D03*
X0366658Y0265239D03*
X0366058Y0257739D03*
X0359158Y0251139D03*
X0356158Y0256839D03*
X0346258Y0261039D03*
X0335758Y0250539D03*
X0335758Y0240039D03*
X0338758Y0232239D03*
X0338758Y0228939D03*
X0346258Y0228939D03*
X0354358Y0220839D03*
X0339058Y0218139D03*
X0331258Y0221439D03*
X0319558Y0223839D03*
X0325858Y0233439D03*
X0321958Y0238839D03*
X0356158Y0242439D03*
X0361558Y0242439D03*
X0364558Y0237339D03*
X0374758Y0228639D03*
X0386458Y0228639D03*
X0388858Y0231039D03*
X0391258Y0228639D03*
X0399058Y0248139D03*
X0402058Y0250539D03*
X0417958Y0268539D03*
X0427258Y0256839D03*
X0432358Y0256839D03*
X0434758Y0261939D03*
X0438058Y0270039D03*
X0454858Y0263139D03*
X0461458Y0265539D03*
X0460858Y0279939D03*
X0467158Y0282939D03*
X0462058Y0297339D03*
X0459658Y0299739D03*
X0455458Y0295539D03*
X0469258Y0309339D03*
X0472858Y0304539D03*
X0489058Y0303639D03*
X0489358Y0319239D03*
X0500758Y0320739D03*
X0508558Y0317139D03*
X0526558Y0306339D03*
X0538258Y0299739D03*
X0560758Y0315939D03*
X0572158Y0306039D03*
X0572158Y0298539D03*
X0538258Y0320439D03*
X0537658Y0325539D03*
X0529558Y0343539D03*
X0493858Y0340539D03*
X0490858Y0334839D03*
X0481858Y0336639D03*
X0476158Y0361239D03*
X0473758Y0380139D03*
X0578758Y0356739D03*
X0489058Y0283239D03*
X0490858Y0274539D03*
X0478858Y0261639D03*
X0483658Y0245739D03*
X0488158Y0239439D03*
X0516358Y0261039D03*
X0514858Y0280839D03*
X0419158Y0231639D03*
X0391258Y0210339D03*
X0378658Y0202839D03*
X0381058Y0198939D03*
X0391258Y0193839D03*
X0381958Y0186939D03*
X0367858Y0185739D03*
X0367858Y0192639D03*
X0368458Y0196539D03*
X0362458Y0193839D03*
X0359158Y0193839D03*
X0357358Y0189039D03*
X0355858Y0184239D03*
X0342658Y0185739D03*
X0344158Y0172839D03*
X0338158Y0168639D03*
X0350458Y0162039D03*
X0363358Y0167739D03*
X0315358Y0195939D03*
X0301858Y0186339D03*
X0282958Y0188139D03*
X0376258Y0209439D03*
X0374458Y0247239D03*
X0377158Y0249939D03*
X0361258Y0285339D03*
X0363658Y0287739D03*
X0357658Y0290139D03*
X0311458Y0290739D03*
X0295558Y0283839D03*
X0293458Y0278439D03*
X0291658Y0270939D03*
X0281758Y0270939D03*
X0450658Y0203739D03*
M02*
