G75*
%MOIN*%
%OFA0B0*%
%FSLAX25Y25*%
%IPPOS*%
%LPD*%
%AMOC8*
5,1,8,0,0,1.08239X$1,22.5*
%
%ADD10R,0.60000X0.65000*%
%ADD11R,0.65000X0.65000*%
%ADD12R,0.20000X0.35000*%
%ADD13R,2.25000X1.10000*%
%ADD14R,0.05118X0.05906*%
%ADD15R,0.05906X0.05118*%
%ADD16R,0.03150X0.02362*%
%ADD17R,0.05500X0.05500*%
%ADD18R,0.06299X0.03937*%
%ADD19R,0.24409X0.21260*%
%ADD20R,0.08000X0.02600*%
%ADD21R,0.21260X0.24409*%
%ADD22R,0.03937X0.06299*%
%ADD23OC8,0.05200*%
%ADD24R,0.03937X0.01378*%
%ADD25R,0.02362X0.08661*%
%ADD26C,0.06000*%
%ADD27R,0.09449X0.05512*%
%ADD28R,0.05512X0.02756*%
%ADD29R,0.02756X0.03543*%
%ADD30R,0.03543X0.02756*%
%ADD31C,0.05200*%
%ADD32OC8,0.08500*%
%ADD33R,0.03500X0.03100*%
%ADD34R,0.03100X0.03500*%
%ADD35C,0.02362*%
%ADD36C,0.05150*%
%ADD37C,0.05937*%
%ADD38R,0.01969X0.12205*%
%ADD39C,0.00600*%
%ADD40C,0.03100*%
D10*
X0051000Y0089204D03*
D11*
X0453500Y0089204D03*
D12*
X0386000Y0054204D03*
X0116000Y0054204D03*
D13*
X0253500Y0251704D03*
D14*
X0292260Y0176704D03*
X0299740Y0176704D03*
X0299740Y0161704D03*
X0292260Y0161704D03*
X0254740Y0121704D03*
X0247260Y0121704D03*
X0247260Y0106704D03*
X0254740Y0106704D03*
X0254740Y0091704D03*
X0247260Y0091704D03*
X0247260Y0076704D03*
X0254740Y0076704D03*
X0267260Y0076704D03*
X0274740Y0076704D03*
X0274740Y0061704D03*
X0267260Y0061704D03*
X0254740Y0061704D03*
X0247260Y0061704D03*
X0247260Y0046704D03*
X0254740Y0046704D03*
X0267260Y0046704D03*
X0274740Y0046704D03*
X0164740Y0126704D03*
X0157260Y0126704D03*
X0074740Y0146704D03*
X0067260Y0146704D03*
X0054740Y0181704D03*
X0047260Y0181704D03*
X0377260Y0291704D03*
X0384740Y0291704D03*
X0397260Y0236704D03*
X0404740Y0236704D03*
X0404740Y0221704D03*
X0397260Y0221704D03*
X0397260Y0186704D03*
X0404740Y0186704D03*
X0457260Y0191704D03*
X0464740Y0191704D03*
X0464740Y0181704D03*
X0457260Y0181704D03*
D15*
X0301000Y0150444D03*
X0301000Y0142964D03*
X0073500Y0160464D03*
X0073500Y0167944D03*
D16*
X0030921Y0146704D03*
X0021079Y0146704D03*
X0456079Y0201704D03*
X0465921Y0201704D03*
X0476079Y0146704D03*
X0485921Y0146704D03*
D17*
X0491000Y0111704D03*
X0491000Y0071704D03*
X0416000Y0071704D03*
X0416000Y0111704D03*
X0086000Y0111704D03*
X0086000Y0071704D03*
X0011000Y0071704D03*
X0011000Y0111704D03*
D18*
X0049898Y0152728D03*
X0049898Y0170680D03*
X0452102Y0170680D03*
X0452102Y0152728D03*
D19*
X0480843Y0161704D03*
X0021157Y0161704D03*
D20*
X0166200Y0164204D03*
X0166200Y0169204D03*
X0166200Y0174204D03*
X0166200Y0179204D03*
X0166200Y0184204D03*
X0166200Y0159204D03*
X0166200Y0154204D03*
X0166200Y0149204D03*
X0166200Y0144204D03*
X0166200Y0139204D03*
X0205800Y0139204D03*
X0205800Y0144204D03*
X0205800Y0149204D03*
X0205800Y0154204D03*
X0205800Y0159204D03*
X0205800Y0164204D03*
X0205800Y0169204D03*
X0205800Y0174204D03*
X0205800Y0179204D03*
X0205800Y0184204D03*
X0316200Y0184204D03*
X0316200Y0179204D03*
X0316200Y0174204D03*
X0316200Y0169204D03*
X0316200Y0164204D03*
X0316200Y0159204D03*
X0316200Y0154204D03*
X0316200Y0149204D03*
X0316200Y0144204D03*
X0316200Y0139204D03*
X0355800Y0139204D03*
X0355800Y0144204D03*
X0355800Y0149204D03*
X0355800Y0154204D03*
X0355800Y0159204D03*
X0355800Y0164204D03*
X0355800Y0169204D03*
X0355800Y0174204D03*
X0355800Y0179204D03*
X0355800Y0184204D03*
D21*
X0451000Y0241546D03*
D22*
X0442024Y0212806D03*
X0459976Y0212806D03*
D23*
X0388500Y0216704D03*
X0381000Y0221704D03*
X0381000Y0211704D03*
D24*
X0278657Y0184735D03*
X0278657Y0182176D03*
X0278657Y0179617D03*
X0278657Y0177058D03*
X0278657Y0174499D03*
X0278657Y0171940D03*
X0278657Y0169381D03*
X0278657Y0166822D03*
X0278657Y0164263D03*
X0278657Y0161704D03*
X0278657Y0159145D03*
X0278657Y0156586D03*
X0278657Y0154027D03*
X0278657Y0151468D03*
X0278657Y0148909D03*
X0278657Y0146350D03*
X0278657Y0143791D03*
X0278657Y0141231D03*
X0278657Y0138672D03*
X0248343Y0138672D03*
X0248343Y0141231D03*
X0248343Y0143791D03*
X0248343Y0146350D03*
X0248343Y0148909D03*
X0248343Y0151468D03*
X0248343Y0154027D03*
X0248343Y0156586D03*
X0248343Y0159145D03*
X0248343Y0161704D03*
X0248343Y0164263D03*
X0248343Y0166822D03*
X0248343Y0169381D03*
X0248343Y0171940D03*
X0248343Y0174499D03*
X0248343Y0177058D03*
X0248343Y0179617D03*
X0248343Y0182176D03*
X0248343Y0184735D03*
D25*
X0028500Y0181468D03*
X0023500Y0181468D03*
X0018500Y0181468D03*
X0013500Y0181468D03*
X0013500Y0201940D03*
X0018500Y0201940D03*
X0023500Y0201940D03*
X0028500Y0201940D03*
X0473500Y0201940D03*
X0478500Y0201940D03*
X0483500Y0201940D03*
X0488500Y0201940D03*
X0488500Y0181468D03*
X0483500Y0181468D03*
X0478500Y0181468D03*
X0473500Y0181468D03*
D26*
X0434900Y0184004D02*
X0434900Y0190004D01*
X0417100Y0190004D02*
X0417100Y0184004D01*
X0409000Y0166704D02*
X0403000Y0166704D01*
X0417100Y0164404D02*
X0417100Y0158404D01*
X0434900Y0158404D02*
X0434900Y0164404D01*
X0409000Y0146704D02*
X0403000Y0146704D01*
X0379000Y0146704D02*
X0373000Y0146704D01*
X0373000Y0126704D02*
X0379000Y0126704D01*
X0403000Y0126704D02*
X0409000Y0126704D01*
X0409000Y0096704D02*
X0403000Y0096704D01*
X0379000Y0096704D02*
X0373000Y0096704D01*
X0329900Y0098404D02*
X0329900Y0104404D01*
X0312100Y0104404D02*
X0312100Y0098404D01*
X0282400Y0098404D02*
X0282400Y0104404D01*
X0264600Y0104404D02*
X0264600Y0098404D01*
X0264600Y0124004D02*
X0264600Y0130004D01*
X0282400Y0130004D02*
X0282400Y0124004D01*
X0312100Y0124004D02*
X0312100Y0130004D01*
X0329900Y0130004D02*
X0329900Y0124004D01*
X0373000Y0166704D02*
X0379000Y0166704D01*
X0417100Y0223404D02*
X0417100Y0229404D01*
X0434900Y0229404D02*
X0434900Y0223404D01*
X0434900Y0249004D02*
X0434900Y0255004D01*
X0417100Y0255004D02*
X0417100Y0249004D01*
X0204900Y0130004D02*
X0204900Y0124004D01*
X0187100Y0124004D02*
X0187100Y0130004D01*
X0187100Y0104404D02*
X0187100Y0098404D01*
X0204900Y0098404D02*
X0204900Y0104404D01*
X0129000Y0096704D02*
X0123000Y0096704D01*
X0099000Y0096704D02*
X0093000Y0096704D01*
X0093000Y0126704D02*
X0099000Y0126704D01*
X0123000Y0126704D02*
X0129000Y0126704D01*
X0129000Y0146704D02*
X0123000Y0146704D01*
X0099000Y0146704D02*
X0093000Y0146704D01*
X0082400Y0160904D02*
X0082400Y0166904D01*
X0093000Y0166704D02*
X0099000Y0166704D01*
X0123000Y0166704D02*
X0129000Y0166704D01*
X0082400Y0186504D02*
X0082400Y0192504D01*
X0064600Y0192504D02*
X0064600Y0186504D01*
X0064600Y0166904D02*
X0064600Y0160904D01*
X0019000Y0216704D02*
X0013000Y0216704D01*
X0013000Y0226704D02*
X0019000Y0226704D01*
X0019000Y0236704D02*
X0013000Y0236704D01*
X0013000Y0246704D02*
X0019000Y0246704D01*
X0019000Y0256704D02*
X0013000Y0256704D01*
X0013000Y0266704D02*
X0019000Y0266704D01*
X0019000Y0276704D02*
X0013000Y0276704D01*
X0013000Y0286704D02*
X0019000Y0286704D01*
X0064600Y0255004D02*
X0064600Y0249004D01*
X0082400Y0249004D02*
X0082400Y0255004D01*
X0082400Y0229404D02*
X0082400Y0223404D01*
X0064600Y0223404D02*
X0064600Y0229404D01*
D27*
X0426000Y0271980D03*
X0426000Y0281428D03*
D28*
X0291000Y0155050D03*
X0291000Y0148357D03*
D29*
X0378441Y0176704D03*
X0383559Y0176704D03*
X0383559Y0186704D03*
X0378441Y0186704D03*
X0398441Y0176704D03*
X0403559Y0176704D03*
X0383559Y0201704D03*
X0378441Y0201704D03*
X0398441Y0211704D03*
X0403559Y0211704D03*
X0383559Y0231704D03*
X0378441Y0231704D03*
X0398441Y0246704D03*
X0403559Y0246704D03*
X0378559Y0276704D03*
X0373441Y0276704D03*
X0468441Y0241704D03*
X0473559Y0241704D03*
X0473559Y0231704D03*
X0468441Y0231704D03*
X0468441Y0221704D03*
X0473559Y0221704D03*
X0473559Y0211704D03*
X0468441Y0211704D03*
X0448559Y0196704D03*
X0443441Y0196704D03*
X0393559Y0126704D03*
X0388441Y0126704D03*
X0168559Y0096704D03*
X0163441Y0096704D03*
X0143559Y0126704D03*
X0138441Y0126704D03*
X0138441Y0136704D03*
X0143559Y0136704D03*
X0143559Y0146704D03*
X0138441Y0146704D03*
X0138441Y0156704D03*
X0143559Y0156704D03*
X0143559Y0166704D03*
X0138441Y0166704D03*
X0113559Y0126704D03*
X0108441Y0126704D03*
X0058559Y0146704D03*
X0053441Y0146704D03*
X0053559Y0191704D03*
X0048441Y0191704D03*
X0038559Y0191704D03*
X0033441Y0191704D03*
X0033441Y0201704D03*
X0038559Y0201704D03*
X0048441Y0201704D03*
X0053559Y0201704D03*
X0033559Y0216704D03*
X0028441Y0216704D03*
X0028441Y0236704D03*
X0033559Y0236704D03*
X0048441Y0236704D03*
X0053559Y0236704D03*
X0053559Y0286704D03*
X0048441Y0286704D03*
D30*
X0031000Y0284263D03*
X0031000Y0279145D03*
X0031000Y0269263D03*
X0031000Y0264145D03*
X0046000Y0229263D03*
X0046000Y0224145D03*
X0056000Y0224145D03*
X0056000Y0229263D03*
X0291000Y0139263D03*
X0291000Y0134145D03*
X0353500Y0126763D03*
X0353500Y0121645D03*
X0353500Y0104263D03*
X0353500Y0099145D03*
X0443500Y0161645D03*
X0443500Y0166763D03*
D31*
X0166000Y0114304D02*
X0166000Y0109104D01*
X0156000Y0109104D02*
X0156000Y0114304D01*
X0146000Y0114304D02*
X0146000Y0109104D01*
D32*
X0443200Y0276704D03*
X0468800Y0276704D03*
D33*
X0385000Y0250404D03*
X0377000Y0246604D03*
X0385000Y0242804D03*
X0055000Y0215404D03*
X0047000Y0211604D03*
X0055000Y0207804D03*
X0035000Y0222804D03*
X0027000Y0226604D03*
X0035000Y0230404D03*
D34*
X0031100Y0247704D03*
X0027300Y0255704D03*
X0034900Y0255704D03*
X0047300Y0255704D03*
X0054900Y0255704D03*
X0051100Y0247704D03*
X0051100Y0267704D03*
X0047300Y0275704D03*
X0054900Y0275704D03*
X0374600Y0262704D03*
X0382200Y0262704D03*
X0378400Y0270704D03*
X0422300Y0215704D03*
X0429900Y0215704D03*
X0426100Y0207704D03*
X0404700Y0197704D03*
X0397100Y0197704D03*
X0400900Y0205704D03*
X0442300Y0190704D03*
X0449900Y0190704D03*
X0446100Y0182704D03*
X0476100Y0247704D03*
X0472300Y0255704D03*
X0479900Y0255704D03*
D35*
X0371000Y0256704D03*
X0371000Y0241704D03*
D36*
X0369323Y0088279D02*
X0364173Y0088279D01*
X0340567Y0072743D02*
X0340567Y0067594D01*
X0331118Y0073106D02*
X0331118Y0078255D01*
X0368913Y0060539D02*
X0368913Y0055389D01*
X0353575Y0044972D02*
X0348425Y0044972D01*
X0168913Y0055389D02*
X0168913Y0060539D01*
X0153575Y0044972D02*
X0148425Y0044972D01*
X0140567Y0067594D02*
X0140567Y0072743D01*
X0131118Y0073106D02*
X0131118Y0078255D01*
X0164173Y0088279D02*
X0169323Y0088279D01*
D37*
X0179130Y0071759D02*
X0179130Y0065822D01*
X0179130Y0052861D02*
X0179130Y0046924D01*
X0207870Y0046924D02*
X0207870Y0052861D01*
X0207870Y0065822D02*
X0207870Y0071759D01*
X0291630Y0071759D02*
X0291630Y0065822D01*
X0291630Y0052861D02*
X0291630Y0046924D01*
X0320370Y0046924D02*
X0320370Y0052861D01*
X0320370Y0065822D02*
X0320370Y0071759D01*
D38*
X0312299Y0073515D03*
X0309150Y0073515D03*
X0306000Y0073515D03*
X0302850Y0073515D03*
X0299701Y0073515D03*
X0199799Y0073515D03*
X0196650Y0073515D03*
X0193500Y0073515D03*
X0190350Y0073515D03*
X0187201Y0073515D03*
D39*
X0086800Y0054104D02*
X0019600Y0054104D01*
X0005800Y0067904D01*
X0005800Y0182504D01*
X0012400Y0189104D01*
X0012400Y0193304D01*
X0007600Y0198104D01*
X0007600Y0238904D01*
X0012400Y0243704D01*
X0013000Y0243704D01*
X0016000Y0246704D01*
X0023200Y0253904D01*
X0023200Y0256304D01*
X0031000Y0264104D01*
X0031000Y0264145D01*
X0036400Y0264704D02*
X0041800Y0264704D01*
X0047200Y0270104D01*
X0047200Y0275504D01*
X0047300Y0275704D01*
X0047200Y0276104D01*
X0044800Y0278504D01*
X0044800Y0283904D01*
X0044800Y0285704D01*
X0046000Y0286904D01*
X0046000Y0288704D01*
X0047200Y0289904D01*
X0050200Y0289904D01*
X0050800Y0289304D01*
X0050800Y0279104D01*
X0052000Y0277904D01*
X0052000Y0273704D01*
X0053800Y0271904D01*
X0053800Y0258704D01*
X0056800Y0258704D01*
X0063400Y0252104D01*
X0064600Y0252104D01*
X0064600Y0252004D01*
X0055000Y0255704D02*
X0054900Y0255704D01*
X0055000Y0255704D02*
X0055000Y0240104D01*
X0056200Y0238904D01*
X0056200Y0229304D01*
X0056000Y0229263D01*
X0053800Y0226904D02*
X0058600Y0226904D01*
X0060400Y0228704D01*
X0060400Y0231104D01*
X0062800Y0233504D01*
X0066400Y0233504D01*
X0080800Y0219104D01*
X0091000Y0219104D01*
X0092200Y0220304D01*
X0094600Y0220304D01*
X0102400Y0212504D01*
X0102400Y0198704D01*
X0105400Y0195704D01*
X0105400Y0183704D01*
X0103600Y0181904D01*
X0103600Y0180704D01*
X0106000Y0178304D01*
X0124000Y0178304D01*
X0136000Y0190304D01*
X0153400Y0190304D01*
X0161800Y0181904D01*
X0170800Y0181904D01*
X0191800Y0160904D01*
X0204400Y0160904D01*
X0205600Y0159704D01*
X0205800Y0159204D01*
X0207400Y0162704D02*
X0206200Y0163904D01*
X0205800Y0164204D01*
X0207400Y0162704D02*
X0212200Y0162704D01*
X0214600Y0165704D02*
X0218200Y0162104D01*
X0248200Y0162104D01*
X0248343Y0161704D01*
X0248800Y0159704D02*
X0248343Y0159145D01*
X0248800Y0159704D02*
X0253600Y0159704D01*
X0257800Y0163904D01*
X0257800Y0165104D01*
X0256600Y0166304D01*
X0256600Y0179504D01*
X0260800Y0178904D02*
X0249400Y0190304D01*
X0215200Y0190304D01*
X0212800Y0187304D02*
X0205600Y0194504D01*
X0139600Y0194504D01*
X0138400Y0195704D01*
X0138400Y0215504D01*
X0135400Y0218504D01*
X0135400Y0222104D01*
X0133000Y0217304D02*
X0133000Y0199304D01*
X0139000Y0193304D01*
X0187600Y0193304D01*
X0199000Y0181904D01*
X0209800Y0181904D01*
X0215200Y0176504D01*
X0225400Y0176504D01*
X0226000Y0173504D02*
X0215800Y0173504D01*
X0212800Y0176504D01*
X0200800Y0176504D01*
X0199600Y0177704D01*
X0196000Y0177704D01*
X0192400Y0181304D01*
X0196600Y0180704D02*
X0204400Y0180704D01*
X0205600Y0179504D01*
X0205800Y0179204D01*
X0205800Y0184204D02*
X0206200Y0184304D01*
X0220600Y0184304D01*
X0222400Y0182504D02*
X0221200Y0181304D01*
X0214000Y0181304D01*
X0212800Y0187304D02*
X0221200Y0187304D01*
X0223600Y0184904D01*
X0248200Y0184904D01*
X0248343Y0184735D01*
X0248800Y0184304D01*
X0250600Y0184304D01*
X0253000Y0181904D01*
X0253000Y0168704D01*
X0254800Y0164504D02*
X0248800Y0164504D01*
X0248343Y0164263D01*
X0248200Y0166304D02*
X0248343Y0166822D01*
X0248200Y0166304D02*
X0223000Y0166304D01*
X0222400Y0169304D02*
X0218800Y0165704D01*
X0222400Y0169304D02*
X0248200Y0169304D01*
X0248343Y0169381D01*
X0248200Y0171704D02*
X0248343Y0171940D01*
X0248200Y0171704D02*
X0231400Y0171704D01*
X0230200Y0170504D01*
X0214000Y0170504D01*
X0210400Y0166904D01*
X0194800Y0166904D01*
X0191800Y0163904D01*
X0190600Y0163904D01*
X0170800Y0183704D01*
X0166600Y0183704D01*
X0166200Y0184204D01*
X0166000Y0179504D02*
X0162400Y0179504D01*
X0152800Y0189104D01*
X0136600Y0189104D01*
X0124600Y0177104D01*
X0103600Y0177104D01*
X0106600Y0181304D02*
X0106600Y0203504D01*
X0103600Y0206504D01*
X0103600Y0214904D01*
X0101200Y0211904D02*
X0101200Y0196304D01*
X0102400Y0195104D01*
X0110800Y0202304D02*
X0106600Y0206504D01*
X0106600Y0207104D01*
X0101200Y0211904D02*
X0094000Y0219104D01*
X0092800Y0219104D01*
X0091600Y0217904D01*
X0064000Y0217904D01*
X0058000Y0223904D01*
X0056200Y0223904D01*
X0056000Y0224145D01*
X0053800Y0226904D02*
X0053200Y0227504D01*
X0053200Y0236504D01*
X0053559Y0236704D01*
X0050800Y0234104D02*
X0046000Y0229304D01*
X0046000Y0229263D01*
X0044200Y0226904D02*
X0048400Y0226904D01*
X0075400Y0199904D01*
X0075400Y0195704D01*
X0075400Y0191504D02*
X0074200Y0191504D01*
X0074200Y0174104D01*
X0077800Y0170504D01*
X0077800Y0165104D01*
X0073600Y0160904D01*
X0073500Y0160464D01*
X0073600Y0160304D01*
X0091600Y0142304D01*
X0103600Y0142304D01*
X0107800Y0146504D01*
X0112000Y0146504D01*
X0113200Y0150704D02*
X0124600Y0139304D01*
X0130000Y0139304D01*
X0133000Y0139904D02*
X0126400Y0146504D01*
X0126000Y0146704D01*
X0133000Y0139904D02*
X0133000Y0124904D01*
X0130600Y0122504D01*
X0118000Y0122504D01*
X0100000Y0104504D01*
X0100000Y0103304D01*
X0110800Y0092504D01*
X0128200Y0092504D01*
X0162400Y0058304D01*
X0168400Y0058304D01*
X0168913Y0057964D01*
X0163600Y0055304D02*
X0136600Y0082304D01*
X0113200Y0082304D01*
X0086200Y0055304D01*
X0020200Y0055304D01*
X0007000Y0068504D01*
X0007000Y0181904D01*
X0013600Y0188504D01*
X0013600Y0201704D01*
X0013500Y0201940D01*
X0018500Y0201940D02*
X0019000Y0202304D01*
X0019000Y0204704D01*
X0023200Y0208904D01*
X0028600Y0208904D01*
X0033400Y0204104D01*
X0033400Y0201704D01*
X0033441Y0201704D01*
X0033400Y0201704D02*
X0033400Y0192104D01*
X0033441Y0191704D01*
X0034000Y0191504D01*
X0037000Y0188504D01*
X0044800Y0188504D01*
X0046000Y0189704D01*
X0047200Y0188504D01*
X0050200Y0188504D01*
X0054400Y0184304D01*
X0054400Y0181904D01*
X0054740Y0181704D01*
X0058600Y0178904D02*
X0069400Y0168104D01*
X0073000Y0168104D01*
X0073500Y0167944D01*
X0073500Y0160464D02*
X0073000Y0160304D01*
X0067600Y0154904D01*
X0064600Y0154904D01*
X0050200Y0169304D01*
X0050200Y0170504D01*
X0049898Y0170680D01*
X0045400Y0175904D02*
X0017200Y0175904D01*
X0013600Y0179504D01*
X0013600Y0181304D01*
X0013500Y0181468D01*
X0028000Y0181904D02*
X0028500Y0181468D01*
X0028000Y0181904D02*
X0028000Y0184304D01*
X0016000Y0196304D01*
X0016000Y0206504D01*
X0023200Y0213704D01*
X0023200Y0229304D01*
X0025600Y0231704D01*
X0025600Y0247304D01*
X0029800Y0251504D01*
X0029800Y0255704D01*
X0032800Y0258704D01*
X0037600Y0258704D01*
X0046600Y0267704D01*
X0051100Y0267704D01*
X0050200Y0271904D02*
X0050200Y0277904D01*
X0049000Y0279104D01*
X0049000Y0286304D01*
X0048441Y0286704D01*
X0044800Y0287504D02*
X0044800Y0289304D01*
X0046600Y0291104D01*
X0053800Y0291104D01*
X0078400Y0266504D01*
X0078400Y0247304D01*
X0103600Y0222104D01*
X0108400Y0222104D01*
X0104200Y0219104D02*
X0089800Y0233504D01*
X0079000Y0233504D01*
X0098200Y0232904D02*
X0098200Y0247304D01*
X0119200Y0268304D01*
X0121000Y0268304D01*
X0139600Y0258104D02*
X0139600Y0196304D01*
X0140200Y0195704D01*
X0245800Y0195704D01*
X0263800Y0177704D01*
X0263800Y0156104D01*
X0263200Y0155504D01*
X0263200Y0150704D01*
X0266200Y0147704D01*
X0264400Y0143504D02*
X0260200Y0143504D01*
X0259000Y0142304D01*
X0259000Y0137504D01*
X0254800Y0133304D01*
X0243400Y0133304D01*
X0239200Y0138104D02*
X0248200Y0138104D01*
X0248343Y0138672D01*
X0248800Y0141104D02*
X0248343Y0141231D01*
X0248800Y0141104D02*
X0253000Y0141104D01*
X0256000Y0141704D02*
X0256000Y0138104D01*
X0262000Y0135104D02*
X0254200Y0127304D01*
X0247600Y0127304D01*
X0247000Y0124304D02*
X0247000Y0121904D01*
X0247260Y0121704D01*
X0247600Y0121304D01*
X0248200Y0120704D01*
X0248200Y0117704D01*
X0248200Y0116504D01*
X0248200Y0117704D02*
X0264400Y0117704D01*
X0273400Y0126704D01*
X0282400Y0126704D01*
X0282400Y0127004D01*
X0286600Y0131504D02*
X0286600Y0117104D01*
X0286600Y0114704D01*
X0259600Y0087704D01*
X0251800Y0087704D01*
X0251200Y0088304D01*
X0251200Y0102704D01*
X0247600Y0106304D01*
X0247260Y0106704D01*
X0247000Y0106904D01*
X0242200Y0111704D01*
X0193600Y0111704D01*
X0172600Y0132704D01*
X0164200Y0132704D01*
X0151600Y0145304D01*
X0154600Y0145904D02*
X0151000Y0149504D01*
X0141400Y0149504D01*
X0140800Y0148904D01*
X0140800Y0142304D01*
X0141400Y0141704D01*
X0143800Y0142904D02*
X0153400Y0133304D01*
X0153400Y0131504D01*
X0149200Y0131504D02*
X0154000Y0126704D01*
X0157000Y0126704D01*
X0157260Y0126704D01*
X0157000Y0126704D02*
X0157000Y0112304D01*
X0156400Y0111704D01*
X0156000Y0111704D01*
X0160000Y0106304D02*
X0161200Y0105104D01*
X0161200Y0103904D01*
X0156400Y0099104D01*
X0136000Y0099104D01*
X0135400Y0099704D01*
X0134200Y0099704D01*
X0131200Y0096704D01*
X0126000Y0096704D01*
X0131200Y0096704D02*
X0152200Y0075704D01*
X0185200Y0075704D01*
X0187000Y0073904D01*
X0187201Y0073515D01*
X0187600Y0073304D01*
X0187600Y0067904D01*
X0198400Y0057104D01*
X0227800Y0057104D01*
X0231400Y0053504D01*
X0248200Y0053504D01*
X0251200Y0050504D02*
X0251800Y0051104D01*
X0266800Y0051104D01*
X0266800Y0046904D01*
X0267260Y0046704D01*
X0266800Y0051104D02*
X0266800Y0054104D01*
X0270400Y0057104D02*
X0261400Y0057104D01*
X0257200Y0061304D01*
X0254800Y0061304D01*
X0254740Y0061704D01*
X0254200Y0061304D01*
X0250600Y0057704D01*
X0244000Y0057704D01*
X0241600Y0060104D01*
X0208000Y0060104D01*
X0200200Y0067904D01*
X0200200Y0073304D01*
X0199799Y0073515D01*
X0196650Y0073515D02*
X0196600Y0073904D01*
X0196600Y0081104D01*
X0196600Y0082304D01*
X0196600Y0081104D02*
X0204400Y0081104D01*
X0218800Y0066704D01*
X0227800Y0058904D02*
X0199600Y0058904D01*
X0190600Y0067904D01*
X0190600Y0073304D01*
X0190350Y0073515D01*
X0190000Y0073904D01*
X0190000Y0079304D01*
X0171400Y0097904D01*
X0171400Y0112904D01*
X0175000Y0112904D02*
X0164800Y0123104D01*
X0164800Y0126704D01*
X0164740Y0126704D01*
X0164200Y0126704D01*
X0164200Y0129104D01*
X0154600Y0138704D01*
X0154600Y0144104D02*
X0154600Y0145904D01*
X0154600Y0144104D02*
X0164200Y0134504D01*
X0206200Y0134504D01*
X0208600Y0132104D01*
X0226600Y0132104D01*
X0230200Y0132104D02*
X0222400Y0124304D01*
X0215200Y0124304D01*
X0211000Y0120104D01*
X0203200Y0120104D01*
X0196600Y0126704D01*
X0187600Y0126704D01*
X0187100Y0127004D01*
X0185800Y0137504D02*
X0176800Y0146504D01*
X0160000Y0146504D01*
X0149800Y0156704D01*
X0143559Y0156704D01*
X0138441Y0156704D02*
X0138400Y0156704D01*
X0138400Y0150704D01*
X0151600Y0150704D01*
X0160000Y0142304D01*
X0161200Y0142304D01*
X0164200Y0139304D01*
X0166000Y0139304D01*
X0166200Y0139204D01*
X0170200Y0129704D02*
X0173800Y0129704D01*
X0194800Y0108704D01*
X0227800Y0108704D01*
X0230200Y0108704D01*
X0247000Y0091904D01*
X0247260Y0091704D01*
X0243400Y0088304D02*
X0245200Y0086504D01*
X0276400Y0086504D01*
X0293800Y0103904D01*
X0293800Y0136304D01*
X0291400Y0138704D01*
X0291000Y0139263D01*
X0290800Y0139304D01*
X0286600Y0139304D01*
X0286000Y0143504D02*
X0281200Y0138704D01*
X0278800Y0138704D01*
X0278657Y0138672D01*
X0278200Y0141104D02*
X0278657Y0141231D01*
X0278200Y0141104D02*
X0277000Y0141104D01*
X0275200Y0139304D01*
X0274000Y0140504D01*
X0275200Y0139304D02*
X0275200Y0138104D01*
X0276400Y0136904D01*
X0283000Y0136904D01*
X0285400Y0134504D01*
X0290800Y0134504D01*
X0291000Y0134145D01*
X0286600Y0131504D02*
X0284200Y0133904D01*
X0276400Y0133904D01*
X0256600Y0153704D01*
X0248800Y0153704D01*
X0248343Y0154027D01*
X0248200Y0156104D02*
X0248343Y0156586D01*
X0248200Y0156104D02*
X0240400Y0156104D01*
X0228400Y0144104D01*
X0228400Y0142904D01*
X0247000Y0124304D01*
X0242200Y0124904D02*
X0242200Y0127304D01*
X0227200Y0142304D01*
X0227200Y0144704D01*
X0241600Y0159104D01*
X0248343Y0151468D02*
X0248800Y0151304D01*
X0250000Y0151304D01*
X0259000Y0142304D01*
X0256000Y0141704D02*
X0251800Y0145904D01*
X0248800Y0145904D01*
X0248343Y0146350D01*
X0248200Y0148904D02*
X0248343Y0148909D01*
X0248200Y0148904D02*
X0246400Y0148904D01*
X0244000Y0146504D01*
X0248343Y0143791D02*
X0248200Y0143504D01*
X0231400Y0143504D01*
X0223600Y0138704D02*
X0230200Y0132104D01*
X0243400Y0118904D01*
X0243400Y0117704D01*
X0254200Y0106904D01*
X0254740Y0106704D01*
X0254800Y0106904D01*
X0257200Y0106904D01*
X0267400Y0117104D01*
X0259600Y0121904D02*
X0264400Y0126704D01*
X0264600Y0127004D01*
X0271000Y0129704D02*
X0271000Y0136904D01*
X0264400Y0143504D01*
X0263800Y0140504D02*
X0253600Y0130304D01*
X0254800Y0121904D02*
X0254740Y0121704D01*
X0254800Y0121904D02*
X0259600Y0121904D01*
X0238600Y0120104D02*
X0214600Y0120104D01*
X0214600Y0114704D02*
X0228400Y0114704D01*
X0230800Y0117104D01*
X0221800Y0127304D02*
X0205000Y0127304D01*
X0204900Y0127004D01*
X0206200Y0138704D02*
X0205800Y0139204D01*
X0206200Y0138704D02*
X0223600Y0138704D01*
X0210400Y0141704D02*
X0193000Y0141704D01*
X0190000Y0138704D01*
X0185800Y0144704D02*
X0205600Y0144704D01*
X0205800Y0144204D01*
X0210400Y0141704D02*
X0224800Y0156104D01*
X0211000Y0156104D02*
X0211000Y0150104D01*
X0212200Y0150104D01*
X0211000Y0150104D02*
X0206800Y0150104D01*
X0206200Y0149504D01*
X0205800Y0149204D01*
X0205600Y0153704D02*
X0205800Y0154204D01*
X0205600Y0153704D02*
X0199600Y0153704D01*
X0185800Y0153704D01*
X0172600Y0166904D01*
X0158800Y0166904D01*
X0146200Y0179504D01*
X0146200Y0186104D01*
X0143200Y0180104D02*
X0137200Y0186104D01*
X0139000Y0191504D02*
X0178600Y0191504D01*
X0200800Y0169304D01*
X0205600Y0169304D01*
X0205800Y0169204D01*
X0206200Y0169304D01*
X0208000Y0169304D01*
X0211600Y0172904D01*
X0212800Y0172904D01*
X0205800Y0174204D02*
X0205600Y0174104D01*
X0199600Y0174104D01*
X0191200Y0175304D02*
X0191200Y0166904D01*
X0191200Y0159704D02*
X0181000Y0169904D01*
X0173800Y0169904D01*
X0173200Y0174104D02*
X0166600Y0174104D01*
X0166200Y0174204D01*
X0166200Y0179204D02*
X0166000Y0179504D01*
X0158800Y0177704D02*
X0158800Y0170504D01*
X0148600Y0166904D02*
X0142600Y0172904D01*
X0143200Y0175904D02*
X0138400Y0175904D01*
X0133000Y0170504D01*
X0133000Y0162104D01*
X0129400Y0158504D01*
X0134200Y0153704D01*
X0134200Y0126104D01*
X0137200Y0123104D01*
X0137200Y0115304D01*
X0137800Y0112304D02*
X0146800Y0121304D01*
X0146800Y0123704D01*
X0143800Y0126704D01*
X0143559Y0126704D01*
X0143800Y0130904D02*
X0151000Y0123704D01*
X0151000Y0103304D01*
X0150400Y0100304D02*
X0154000Y0100304D01*
X0158200Y0104504D01*
X0160000Y0106304D02*
X0160000Y0119504D01*
X0166000Y0111704D02*
X0168400Y0109304D01*
X0168400Y0096704D01*
X0168559Y0096704D01*
X0169000Y0093704D02*
X0166600Y0093704D01*
X0163600Y0096704D01*
X0163441Y0096704D01*
X0134800Y0096704D01*
X0146800Y0103904D02*
X0150400Y0100304D01*
X0146800Y0103904D02*
X0103000Y0103904D01*
X0098200Y0111704D02*
X0086000Y0111704D01*
X0082000Y0114704D02*
X0082000Y0108704D01*
X0085600Y0105104D01*
X0085600Y0072104D01*
X0086000Y0071704D01*
X0086800Y0054104D02*
X0105400Y0072704D01*
X0126400Y0072704D01*
X0150400Y0048704D01*
X0171400Y0048704D01*
X0177400Y0042704D01*
X0250600Y0042704D01*
X0251200Y0043304D01*
X0251200Y0050504D01*
X0254740Y0046704D02*
X0254800Y0046304D01*
X0260800Y0046304D01*
X0264400Y0042704D01*
X0271000Y0042704D01*
X0274600Y0046304D01*
X0274740Y0046704D01*
X0274600Y0046904D01*
X0274600Y0052904D01*
X0270400Y0057104D01*
X0274600Y0061304D01*
X0274740Y0061704D01*
X0275200Y0061904D01*
X0302800Y0061904D01*
X0308800Y0067904D01*
X0308800Y0073304D01*
X0309150Y0073515D01*
X0309400Y0073904D01*
X0311800Y0073904D01*
X0312299Y0073515D01*
X0312400Y0079304D01*
X0318400Y0079304D01*
X0321400Y0082304D01*
X0341200Y0082304D01*
X0358000Y0099104D01*
X0358000Y0139304D01*
X0355800Y0139204D01*
X0356200Y0139304D01*
X0358000Y0139304D01*
X0359800Y0139304D01*
X0372400Y0151904D01*
X0434800Y0151904D01*
X0440800Y0157904D01*
X0440800Y0182504D01*
X0443800Y0185504D01*
X0446200Y0185504D01*
X0446200Y0198704D01*
X0445000Y0199904D01*
X0442000Y0199904D01*
X0440800Y0198704D01*
X0440800Y0198104D01*
X0436600Y0193904D01*
X0424000Y0193904D01*
X0417100Y0187004D01*
X0416800Y0186704D01*
X0404800Y0186704D01*
X0404740Y0186704D01*
X0404800Y0186704D02*
X0404800Y0197504D01*
X0404700Y0197704D01*
X0408400Y0196904D02*
X0419800Y0196904D01*
X0413800Y0199904D02*
X0440200Y0199904D01*
X0442000Y0201704D01*
X0456079Y0201704D01*
X0461200Y0201104D02*
X0449800Y0212504D01*
X0442600Y0212504D01*
X0442024Y0212806D01*
X0442000Y0212504D01*
X0432400Y0202904D01*
X0397600Y0202904D01*
X0394600Y0199904D01*
X0394600Y0198104D01*
X0392200Y0198104D01*
X0394600Y0198104D02*
X0394600Y0195104D01*
X0397000Y0192704D01*
X0397000Y0186704D01*
X0397260Y0186704D01*
X0401200Y0190304D02*
X0401200Y0179504D01*
X0398800Y0177104D01*
X0398441Y0176704D01*
X0398800Y0172304D02*
X0403000Y0176504D01*
X0403559Y0176704D01*
X0406600Y0180104D02*
X0419200Y0180104D01*
X0425800Y0186704D01*
X0434800Y0186704D01*
X0434900Y0187004D01*
X0439600Y0190904D02*
X0436600Y0193904D01*
X0439600Y0190904D02*
X0442000Y0190904D01*
X0442300Y0190704D01*
X0445000Y0192704D02*
X0445000Y0188504D01*
X0427600Y0171104D01*
X0391000Y0171104D01*
X0373000Y0153104D01*
X0371800Y0153104D01*
X0360400Y0141704D01*
X0349000Y0141704D01*
X0321400Y0169304D01*
X0321400Y0171104D01*
X0320800Y0171704D01*
X0311800Y0171704D01*
X0311200Y0172304D01*
X0311200Y0175904D01*
X0314200Y0178904D01*
X0316000Y0178904D01*
X0316200Y0179204D01*
X0316000Y0183704D02*
X0316200Y0184204D01*
X0316000Y0183704D02*
X0313600Y0183704D01*
X0301000Y0171104D01*
X0289000Y0171104D01*
X0288400Y0171704D01*
X0278800Y0171704D01*
X0278657Y0171940D01*
X0278200Y0169904D02*
X0278657Y0169381D01*
X0278200Y0169904D02*
X0275200Y0169904D01*
X0274000Y0171104D01*
X0278800Y0174104D02*
X0278657Y0174499D01*
X0278800Y0174104D02*
X0286000Y0174104D01*
X0286000Y0186104D01*
X0283600Y0188504D01*
X0275200Y0188504D01*
X0275200Y0191504D02*
X0274600Y0191504D01*
X0265600Y0182504D01*
X0265600Y0175904D01*
X0277000Y0164504D01*
X0278200Y0164504D01*
X0278657Y0164263D01*
X0278800Y0166304D02*
X0278657Y0166822D01*
X0278800Y0166304D02*
X0302200Y0166304D01*
X0306400Y0162104D01*
X0306400Y0085304D01*
X0244600Y0085304D01*
X0242800Y0087104D01*
X0197800Y0087104D01*
X0193600Y0082904D01*
X0193600Y0073904D01*
X0193500Y0073515D01*
X0209200Y0088304D02*
X0243400Y0088304D01*
X0242200Y0084104D02*
X0254200Y0084104D01*
X0262000Y0076304D01*
X0262000Y0060104D01*
X0266800Y0061904D02*
X0263800Y0064904D01*
X0263800Y0080504D01*
X0261400Y0080504D01*
X0263800Y0080504D02*
X0265600Y0082304D01*
X0272200Y0082304D01*
X0274740Y0076704D02*
X0274600Y0076304D01*
X0274600Y0061904D01*
X0274740Y0061704D01*
X0280000Y0065504D02*
X0280000Y0066104D01*
X0295000Y0081104D01*
X0301000Y0081104D01*
X0302800Y0079304D01*
X0302800Y0073904D01*
X0302850Y0073515D01*
X0299701Y0073515D02*
X0299200Y0073904D01*
X0296200Y0076904D01*
X0306000Y0073515D02*
X0306400Y0073904D01*
X0306400Y0085304D01*
X0310600Y0082304D02*
X0310600Y0094304D01*
X0308200Y0096704D01*
X0308200Y0133304D01*
X0311800Y0136904D01*
X0309400Y0139304D01*
X0311800Y0136904D02*
X0334600Y0136904D01*
X0340000Y0131504D01*
X0340000Y0107504D01*
X0347800Y0099704D01*
X0353200Y0099704D01*
X0353500Y0099145D01*
X0353200Y0103904D02*
X0347200Y0103904D01*
X0353200Y0103904D02*
X0353500Y0104263D01*
X0353800Y0104504D01*
X0353800Y0117104D01*
X0356200Y0119504D01*
X0356200Y0124304D01*
X0353800Y0126704D01*
X0353500Y0126763D01*
X0353200Y0127304D01*
X0341800Y0138704D01*
X0322600Y0138704D01*
X0322600Y0147104D01*
X0322600Y0138704D02*
X0316600Y0138704D01*
X0316200Y0139204D01*
X0317800Y0133904D02*
X0317800Y0082304D01*
X0316000Y0084104D02*
X0312400Y0080504D01*
X0312400Y0079304D01*
X0312400Y0073904D01*
X0312299Y0073515D01*
X0316000Y0084104D02*
X0316000Y0106304D01*
X0312400Y0109904D01*
X0312400Y0126704D01*
X0312100Y0127004D01*
X0297400Y0127304D02*
X0297400Y0139304D01*
X0304600Y0139304D01*
X0305200Y0139904D01*
X0305200Y0145904D01*
X0301000Y0150104D01*
X0301000Y0150444D01*
X0301000Y0150704D01*
X0299800Y0151904D01*
X0299800Y0161504D01*
X0299740Y0161704D01*
X0292260Y0161704D02*
X0292000Y0161504D01*
X0292000Y0156104D01*
X0291400Y0155504D01*
X0291000Y0155050D01*
X0290800Y0154904D01*
X0287200Y0151304D01*
X0278800Y0151304D01*
X0278657Y0151468D01*
X0278657Y0154027D02*
X0278800Y0154304D01*
X0283000Y0154304D01*
X0278657Y0156586D02*
X0278200Y0156104D01*
X0267400Y0156104D01*
X0266200Y0154904D01*
X0266800Y0159104D02*
X0278200Y0159104D01*
X0278657Y0159145D01*
X0278657Y0161704D02*
X0278200Y0162104D01*
X0274000Y0162104D01*
X0260800Y0163304D02*
X0260800Y0178904D01*
X0261400Y0184304D02*
X0268600Y0191504D01*
X0275200Y0191504D02*
X0278200Y0194504D01*
X0279400Y0185504D02*
X0278800Y0184904D01*
X0278657Y0184735D01*
X0278200Y0184904D01*
X0271600Y0184904D01*
X0268600Y0181904D02*
X0278200Y0181904D01*
X0278657Y0182176D01*
X0278657Y0179617D02*
X0278200Y0179504D01*
X0270400Y0179504D01*
X0268600Y0177704D01*
X0278657Y0177058D02*
X0278800Y0177104D01*
X0283000Y0177104D01*
X0286000Y0174104D02*
X0287800Y0174104D01*
X0289600Y0172304D01*
X0295000Y0172304D01*
X0299200Y0176504D01*
X0299740Y0176704D01*
X0299800Y0177104D01*
X0302200Y0177104D01*
X0320800Y0195704D01*
X0366400Y0195704D01*
X0371200Y0200504D01*
X0371200Y0229304D01*
X0378400Y0236504D01*
X0373600Y0241304D01*
X0371200Y0241304D01*
X0371000Y0241704D01*
X0371200Y0241904D01*
X0371200Y0245504D01*
X0376000Y0250304D01*
X0382000Y0250304D01*
X0382000Y0259904D01*
X0370600Y0259904D01*
X0367600Y0262904D01*
X0367600Y0275504D01*
X0371800Y0279704D01*
X0372400Y0279704D01*
X0384400Y0291704D01*
X0384740Y0291704D01*
X0382000Y0295904D02*
X0377800Y0291704D01*
X0377260Y0291704D01*
X0382000Y0295904D02*
X0411400Y0295904D01*
X0425800Y0281504D01*
X0426000Y0281428D01*
X0426400Y0281504D01*
X0440200Y0281504D01*
X0440800Y0282104D01*
X0463000Y0282104D01*
X0468400Y0276704D01*
X0468800Y0276704D01*
X0473800Y0259304D02*
X0415000Y0259304D01*
X0405400Y0249704D01*
X0401800Y0249704D01*
X0401200Y0249104D01*
X0401200Y0244904D01*
X0397000Y0240704D01*
X0394000Y0240704D01*
X0392200Y0238904D01*
X0392200Y0203504D01*
X0380800Y0192104D01*
X0380800Y0179504D01*
X0383200Y0177104D01*
X0383559Y0176704D01*
X0378441Y0176704D02*
X0378400Y0176504D01*
X0370000Y0176504D01*
X0358000Y0164504D01*
X0356200Y0164504D01*
X0355800Y0164204D01*
X0355800Y0169204D02*
X0355600Y0169304D01*
X0347200Y0169304D01*
X0343600Y0172904D01*
X0340600Y0172304D02*
X0340600Y0174704D01*
X0341800Y0175904D01*
X0341800Y0178904D01*
X0338800Y0176504D02*
X0337600Y0175304D01*
X0337600Y0166904D01*
X0350200Y0154304D01*
X0355600Y0154304D01*
X0355800Y0154204D01*
X0356800Y0158504D02*
X0356200Y0159104D01*
X0355800Y0159204D01*
X0356800Y0158504D02*
X0376600Y0158504D01*
X0390400Y0172304D01*
X0398800Y0172304D01*
X0383800Y0186704D02*
X0383559Y0186704D01*
X0383800Y0186704D02*
X0383800Y0193304D01*
X0399400Y0208904D01*
X0402400Y0208904D01*
X0406000Y0205304D01*
X0416800Y0205304D01*
X0427000Y0215504D01*
X0429400Y0215504D01*
X0429900Y0215704D01*
X0433000Y0212504D02*
X0425800Y0212504D01*
X0417400Y0204104D01*
X0405400Y0204104D01*
X0404200Y0205304D01*
X0401200Y0205304D01*
X0400900Y0205704D01*
X0403600Y0211304D02*
X0403559Y0211704D01*
X0403600Y0211304D02*
X0406600Y0208304D01*
X0398800Y0211904D02*
X0398441Y0211704D01*
X0398200Y0211904D01*
X0395200Y0214904D01*
X0398800Y0211904D02*
X0406600Y0219704D01*
X0404740Y0221704D01*
X0404800Y0221504D01*
X0406600Y0219704D01*
X0410200Y0216104D01*
X0422200Y0216104D01*
X0422300Y0215704D01*
X0426400Y0219104D02*
X0415600Y0219104D01*
X0409000Y0225704D01*
X0397600Y0225704D01*
X0397600Y0222104D01*
X0397260Y0221704D01*
X0397600Y0225704D02*
X0397600Y0236504D01*
X0397260Y0236704D01*
X0403600Y0237704D02*
X0404200Y0237104D01*
X0404740Y0236704D01*
X0404800Y0236504D01*
X0433600Y0236504D01*
X0439000Y0231104D01*
X0439000Y0229304D01*
X0440200Y0228104D01*
X0461800Y0228104D01*
X0466000Y0232304D01*
X0466000Y0234104D01*
X0466600Y0234704D01*
X0473800Y0234704D01*
X0473800Y0231704D01*
X0473559Y0231704D01*
X0473800Y0231704D02*
X0473800Y0222104D01*
X0473559Y0221704D01*
X0473800Y0221504D01*
X0473800Y0211904D01*
X0473559Y0211704D01*
X0473800Y0211304D01*
X0478000Y0207104D01*
X0478000Y0202304D01*
X0478500Y0201940D01*
X0473500Y0201940D02*
X0473200Y0201704D01*
X0465921Y0201704D01*
X0464800Y0201104D01*
X0461200Y0201104D01*
X0464800Y0201104D02*
X0465400Y0201704D01*
X0465921Y0201704D01*
X0464800Y0201104D02*
X0464800Y0192104D01*
X0464740Y0191704D01*
X0457600Y0191504D02*
X0457260Y0191704D01*
X0457600Y0191504D02*
X0457600Y0185504D01*
X0446200Y0185504D01*
X0446100Y0182704D02*
X0446200Y0182504D01*
X0449200Y0182504D01*
X0455800Y0175904D01*
X0485200Y0175904D01*
X0488200Y0178904D01*
X0488200Y0181304D01*
X0488500Y0181468D01*
X0490600Y0186704D02*
X0494200Y0183104D01*
X0494200Y0150704D01*
X0487600Y0144104D01*
X0484000Y0144104D01*
X0481600Y0146504D01*
X0476200Y0146504D01*
X0476079Y0146704D01*
X0475600Y0146504D01*
X0444400Y0146504D01*
X0419800Y0121904D01*
X0419800Y0108704D01*
X0416200Y0105104D01*
X0416200Y0072104D01*
X0416000Y0071704D01*
X0398800Y0110504D02*
X0369400Y0081104D01*
X0369400Y0058304D01*
X0368913Y0057964D01*
X0351400Y0045104D02*
X0351000Y0044972D01*
X0351400Y0045104D02*
X0351400Y0090704D01*
X0368800Y0108104D01*
X0368800Y0139304D01*
X0376000Y0146504D01*
X0376000Y0146704D01*
X0361000Y0152504D02*
X0361000Y0156104D01*
X0360400Y0156704D01*
X0351400Y0156704D01*
X0340600Y0167504D01*
X0340600Y0172304D02*
X0351400Y0161504D01*
X0374800Y0161504D01*
X0361000Y0152504D02*
X0358000Y0149504D01*
X0356200Y0149504D01*
X0355800Y0149204D01*
X0355600Y0144704D02*
X0355800Y0144204D01*
X0355600Y0144704D02*
X0353200Y0144704D01*
X0335800Y0162104D01*
X0335800Y0177104D01*
X0345400Y0186704D01*
X0359200Y0186704D01*
X0372400Y0199904D01*
X0372400Y0218504D01*
X0378400Y0224504D01*
X0378400Y0231704D01*
X0378441Y0231704D01*
X0380800Y0234104D02*
X0380800Y0226904D01*
X0385000Y0222704D01*
X0385000Y0216704D01*
X0380800Y0216704D01*
X0376000Y0211904D01*
X0376000Y0201704D01*
X0358600Y0184304D01*
X0356200Y0184304D01*
X0355800Y0184204D01*
X0356200Y0179504D02*
X0355800Y0179204D01*
X0356200Y0179504D02*
X0358000Y0179504D01*
X0365200Y0186704D01*
X0378441Y0186704D01*
X0397600Y0193904D02*
X0397600Y0197504D01*
X0397100Y0197704D01*
X0397600Y0193904D02*
X0401200Y0190304D01*
X0383800Y0201704D02*
X0383559Y0201704D01*
X0383800Y0201704D02*
X0383800Y0202904D01*
X0388600Y0207704D01*
X0388600Y0208904D01*
X0386200Y0211304D01*
X0381400Y0211304D01*
X0381000Y0211704D01*
X0385600Y0208304D02*
X0379000Y0201704D01*
X0378441Y0201704D01*
X0385000Y0216704D02*
X0388500Y0216704D01*
X0383800Y0231704D02*
X0383559Y0231704D01*
X0383800Y0231704D02*
X0385000Y0232904D01*
X0385000Y0242804D01*
X0377200Y0246704D02*
X0377000Y0246604D01*
X0377200Y0246704D02*
X0398441Y0246704D01*
X0403559Y0246704D02*
X0403600Y0246704D01*
X0403600Y0237704D01*
X0417400Y0251504D02*
X0417100Y0252004D01*
X0417400Y0251504D02*
X0426400Y0251504D01*
X0436000Y0241904D01*
X0451000Y0241904D01*
X0451000Y0241546D01*
X0451000Y0241904D02*
X0464800Y0255704D01*
X0472300Y0255704D01*
X0473800Y0259304D02*
X0477400Y0255704D01*
X0479900Y0255704D01*
X0476100Y0247704D02*
X0475600Y0247304D01*
X0474400Y0247304D01*
X0469000Y0241904D01*
X0468441Y0241704D01*
X0473559Y0241704D02*
X0473800Y0241304D01*
X0473800Y0234704D01*
X0468441Y0231704D02*
X0468400Y0231704D01*
X0463600Y0226904D01*
X0447400Y0226904D01*
X0433000Y0212504D01*
X0430000Y0207704D02*
X0426100Y0207704D01*
X0430000Y0207704D02*
X0446800Y0224504D01*
X0466000Y0224504D01*
X0468400Y0222104D01*
X0468441Y0221704D01*
X0460000Y0221504D02*
X0460000Y0213104D01*
X0459976Y0212806D01*
X0457600Y0208304D02*
X0446800Y0219104D01*
X0457600Y0208304D02*
X0465400Y0208304D01*
X0468400Y0211304D01*
X0468441Y0211704D01*
X0469000Y0211304D01*
X0472600Y0207704D01*
X0475000Y0207704D01*
X0476200Y0206504D01*
X0476200Y0186104D01*
X0476800Y0186704D01*
X0490600Y0186704D01*
X0476200Y0186104D02*
X0473800Y0183704D01*
X0473800Y0181904D01*
X0473500Y0181468D01*
X0473200Y0181904D01*
X0464800Y0181904D01*
X0464740Y0181704D01*
X0457600Y0181904D02*
X0457600Y0185504D01*
X0457600Y0181904D02*
X0457260Y0181704D01*
X0449900Y0190704D02*
X0449800Y0190904D01*
X0449800Y0195104D01*
X0448600Y0196304D01*
X0448559Y0196704D01*
X0443800Y0196304D02*
X0443441Y0196704D01*
X0443800Y0196304D02*
X0443800Y0193904D01*
X0445000Y0192704D01*
X0452102Y0170680D02*
X0451600Y0170504D01*
X0448000Y0166904D01*
X0443800Y0166904D01*
X0443500Y0166763D01*
X0443500Y0161645D02*
X0443800Y0161504D01*
X0443800Y0158504D01*
X0444400Y0157904D01*
X0440800Y0157904D02*
X0445600Y0153104D01*
X0451600Y0153104D01*
X0452102Y0152728D01*
X0445000Y0148904D02*
X0485800Y0148904D01*
X0485800Y0147104D01*
X0485921Y0146704D01*
X0485800Y0148904D02*
X0485800Y0156704D01*
X0481000Y0161504D01*
X0480843Y0161704D01*
X0445000Y0148904D02*
X0416200Y0120104D01*
X0416200Y0111704D01*
X0416000Y0111704D01*
X0398800Y0110504D02*
X0398800Y0139304D01*
X0406000Y0146504D01*
X0406000Y0146704D01*
X0410800Y0150704D02*
X0401200Y0150704D01*
X0394000Y0143504D01*
X0394000Y0126704D01*
X0393559Y0126704D01*
X0388441Y0126704D02*
X0376000Y0126704D01*
X0353500Y0121645D02*
X0353200Y0121304D01*
X0353200Y0119504D01*
X0343000Y0109304D01*
X0337000Y0096104D02*
X0337000Y0130904D01*
X0338800Y0155504D02*
X0334000Y0160304D01*
X0318400Y0174704D02*
X0331000Y0187304D01*
X0331000Y0191504D01*
X0318400Y0174704D02*
X0316600Y0174704D01*
X0316200Y0174204D01*
X0292260Y0176704D02*
X0292000Y0177104D01*
X0292000Y0181904D01*
X0283000Y0185504D02*
X0279400Y0185504D01*
X0248343Y0182176D02*
X0248200Y0182504D01*
X0222400Y0182504D01*
X0223000Y0179504D02*
X0248200Y0179504D01*
X0248343Y0179617D01*
X0248200Y0177104D02*
X0248343Y0177058D01*
X0248200Y0177104D02*
X0229600Y0177104D01*
X0226000Y0173504D01*
X0230200Y0174104D02*
X0248200Y0174104D01*
X0248343Y0174499D01*
X0211000Y0156104D02*
X0210400Y0156704D01*
X0201400Y0156704D01*
X0198400Y0159704D01*
X0191200Y0159704D01*
X0186400Y0156704D02*
X0196600Y0156704D01*
X0190000Y0152504D02*
X0194800Y0147704D01*
X0189400Y0149504D02*
X0172600Y0149504D01*
X0179800Y0152504D02*
X0170800Y0161504D01*
X0157600Y0161504D01*
X0143200Y0175904D01*
X0138400Y0172304D02*
X0138400Y0166904D01*
X0138441Y0166704D01*
X0138400Y0166304D01*
X0138400Y0156704D01*
X0138400Y0150704D02*
X0138400Y0147104D01*
X0138441Y0146704D01*
X0138400Y0146504D01*
X0138400Y0136904D01*
X0138441Y0136704D01*
X0138400Y0136304D01*
X0138400Y0126704D01*
X0138441Y0126704D01*
X0143800Y0130904D02*
X0143800Y0136304D01*
X0143559Y0136704D01*
X0143800Y0142904D02*
X0143800Y0146504D01*
X0143559Y0146704D01*
X0151600Y0158504D02*
X0143800Y0166304D01*
X0143559Y0166704D01*
X0128800Y0161504D02*
X0115600Y0161504D01*
X0091600Y0185504D01*
X0094000Y0187904D01*
X0094000Y0205304D01*
X0093400Y0205904D01*
X0093400Y0216104D01*
X0091000Y0204704D02*
X0088600Y0204704D01*
X0075400Y0191504D01*
X0074200Y0191504D02*
X0066400Y0191504D01*
X0064600Y0189504D01*
X0064600Y0189704D01*
X0066400Y0191504D01*
X0066400Y0201104D01*
X0055000Y0212504D01*
X0055000Y0215404D01*
X0050200Y0213104D02*
X0050200Y0208304D01*
X0046000Y0204104D01*
X0046000Y0189704D01*
X0048441Y0191704D02*
X0049000Y0192104D01*
X0051400Y0194504D01*
X0055600Y0194504D01*
X0058600Y0191504D01*
X0058600Y0178904D01*
X0058600Y0178304D01*
X0058000Y0177704D01*
X0051400Y0177704D01*
X0047800Y0181304D01*
X0047260Y0181704D01*
X0047200Y0181304D01*
X0045400Y0179504D01*
X0045400Y0175904D01*
X0045400Y0161504D01*
X0039400Y0155504D01*
X0053200Y0141704D01*
X0069400Y0141704D01*
X0074200Y0146504D01*
X0074740Y0146704D01*
X0067600Y0147104D02*
X0067260Y0146704D01*
X0067600Y0147104D02*
X0067600Y0154904D01*
X0060400Y0146504D02*
X0058600Y0146504D01*
X0058559Y0146704D01*
X0060400Y0146504D02*
X0062200Y0144704D01*
X0053441Y0146704D02*
X0053200Y0147104D01*
X0053200Y0149504D01*
X0050200Y0152504D01*
X0049898Y0152728D01*
X0039400Y0155504D02*
X0031000Y0147104D01*
X0030921Y0146704D01*
X0030400Y0146504D01*
X0019600Y0135704D01*
X0019600Y0113504D01*
X0011200Y0105104D01*
X0011200Y0072104D01*
X0011000Y0071704D01*
X0011200Y0111704D02*
X0011000Y0111704D01*
X0011200Y0111704D02*
X0011200Y0136904D01*
X0020800Y0146504D01*
X0021079Y0146704D01*
X0021400Y0147104D01*
X0021400Y0161504D01*
X0021157Y0161704D01*
X0060400Y0184904D02*
X0070000Y0175304D01*
X0082600Y0172304D02*
X0088600Y0166304D01*
X0088600Y0159704D01*
X0097600Y0150704D01*
X0113200Y0150704D01*
X0108400Y0143504D02*
X0108400Y0132704D01*
X0104800Y0129104D01*
X0106000Y0126704D02*
X0105400Y0126104D01*
X0097000Y0126104D01*
X0096400Y0126704D01*
X0096000Y0126704D01*
X0094000Y0126704D01*
X0082000Y0114704D01*
X0098200Y0111704D02*
X0113200Y0126704D01*
X0113559Y0126704D01*
X0126000Y0126704D01*
X0108441Y0126704D02*
X0106000Y0126704D01*
X0119200Y0112304D02*
X0137800Y0112304D01*
X0143200Y0109304D02*
X0145600Y0111704D01*
X0146000Y0111704D01*
X0143200Y0109304D02*
X0122200Y0109304D01*
X0146200Y0087704D02*
X0159400Y0087704D01*
X0169000Y0093704D02*
X0174400Y0088304D01*
X0175000Y0103904D02*
X0175000Y0112904D01*
X0173200Y0118304D02*
X0179200Y0118304D01*
X0209200Y0088304D01*
X0219400Y0084104D02*
X0226600Y0076904D01*
X0247000Y0076904D01*
X0247260Y0076704D01*
X0254740Y0076704D02*
X0254800Y0076304D01*
X0254800Y0061904D01*
X0254740Y0061704D01*
X0247260Y0061704D02*
X0247000Y0061904D01*
X0236200Y0072704D01*
X0227800Y0058904D02*
X0230200Y0056504D01*
X0254800Y0056504D01*
X0247260Y0046704D02*
X0247000Y0046304D01*
X0213400Y0046304D01*
X0266800Y0061904D02*
X0267260Y0061704D01*
X0271600Y0071504D02*
X0271600Y0072104D01*
X0267400Y0076304D01*
X0267260Y0076704D01*
X0254740Y0091704D02*
X0254800Y0091904D01*
X0254800Y0106304D01*
X0254740Y0106704D01*
X0295000Y0141704D02*
X0297400Y0139304D01*
X0295000Y0141704D02*
X0292000Y0141704D01*
X0287200Y0146504D01*
X0278800Y0146504D01*
X0278657Y0146350D01*
X0278800Y0148904D02*
X0278657Y0148909D01*
X0278800Y0148904D02*
X0290800Y0148904D01*
X0291000Y0148357D01*
X0291400Y0148304D01*
X0296200Y0143504D01*
X0301000Y0143504D01*
X0301000Y0142964D01*
X0278657Y0143791D02*
X0278200Y0143504D01*
X0273400Y0143504D01*
X0272800Y0142904D01*
X0271000Y0142904D01*
X0190000Y0152504D02*
X0179800Y0152504D01*
X0129400Y0158504D02*
X0113200Y0158504D01*
X0104800Y0166904D01*
X0096400Y0158504D01*
X0093400Y0158504D01*
X0104800Y0166904D02*
X0082600Y0189104D01*
X0082400Y0189504D01*
X0077200Y0188504D02*
X0077200Y0186104D01*
X0091000Y0172304D01*
X0120400Y0181304D02*
X0120400Y0203504D01*
X0130000Y0213104D01*
X0130000Y0228704D01*
X0136000Y0234704D01*
X0133000Y0237104D02*
X0118600Y0251504D01*
X0106000Y0251504D01*
X0107200Y0248504D02*
X0110800Y0248504D01*
X0107200Y0248504D02*
X0104800Y0246104D01*
X0104800Y0229304D01*
X0116200Y0217904D01*
X0116200Y0200504D01*
X0130000Y0200504D02*
X0139000Y0191504D01*
X0130000Y0200504D02*
X0130000Y0205904D01*
X0124600Y0211304D02*
X0107800Y0228104D01*
X0107800Y0245504D01*
X0110800Y0243104D02*
X0124600Y0229304D01*
X0124600Y0225704D01*
X0127000Y0230504D02*
X0127000Y0237704D01*
X0139600Y0258104D02*
X0105400Y0292304D01*
X0046000Y0292304D01*
X0035800Y0282104D01*
X0036400Y0279104D02*
X0031000Y0279104D01*
X0031000Y0279145D01*
X0031000Y0279104D02*
X0031000Y0276704D01*
X0016000Y0276704D01*
X0019000Y0280904D02*
X0011200Y0280904D01*
X0008800Y0278504D01*
X0008800Y0264104D01*
X0016000Y0256904D01*
X0016000Y0256704D01*
X0024400Y0253304D02*
X0026800Y0255704D01*
X0027300Y0255704D01*
X0027400Y0255704D01*
X0036400Y0264704D01*
X0041200Y0267704D02*
X0041200Y0280304D01*
X0036400Y0279104D02*
X0044800Y0287504D01*
X0053559Y0286704D02*
X0053800Y0286304D01*
X0054400Y0285704D01*
X0054400Y0276104D01*
X0054900Y0275704D01*
X0072400Y0276104D02*
X0074800Y0276104D01*
X0079000Y0280304D01*
X0075400Y0280304D02*
X0081400Y0286304D01*
X0107800Y0286304D01*
X0110800Y0283304D01*
X0075400Y0280304D02*
X0072400Y0280304D01*
X0053800Y0258704D02*
X0050800Y0258704D01*
X0047800Y0255704D01*
X0047300Y0255704D01*
X0047200Y0255704D01*
X0047200Y0245504D01*
X0035200Y0233504D01*
X0035200Y0230504D01*
X0035000Y0230404D01*
X0028000Y0230504D02*
X0028000Y0236504D01*
X0028441Y0236704D01*
X0033559Y0236704D02*
X0034000Y0237104D01*
X0034600Y0237704D01*
X0034600Y0255704D01*
X0034900Y0255704D01*
X0024400Y0253304D02*
X0024400Y0246104D01*
X0020800Y0242504D01*
X0013000Y0242504D01*
X0008800Y0238304D01*
X0008800Y0225104D01*
X0016000Y0217904D01*
X0016000Y0216704D01*
X0028441Y0216704D02*
X0028600Y0216704D01*
X0028600Y0208904D01*
X0031000Y0208904D02*
X0038200Y0201704D01*
X0038559Y0201704D01*
X0041200Y0201104D02*
X0041200Y0194504D01*
X0038800Y0192104D01*
X0038559Y0191704D01*
X0041200Y0201104D02*
X0046600Y0206504D01*
X0046600Y0211304D01*
X0047000Y0211604D01*
X0050200Y0213104D02*
X0046000Y0217304D01*
X0046000Y0224145D01*
X0043600Y0226304D02*
X0044200Y0226904D01*
X0043600Y0226304D02*
X0041800Y0226304D01*
X0035200Y0223304D02*
X0035000Y0222804D01*
X0035200Y0223304D02*
X0048400Y0236504D01*
X0048441Y0236704D01*
X0050800Y0234104D02*
X0050800Y0247304D01*
X0051100Y0247704D01*
X0031100Y0247704D02*
X0031000Y0247304D01*
X0031000Y0220904D01*
X0033400Y0218504D01*
X0033400Y0216704D01*
X0033559Y0216704D01*
X0031000Y0219104D02*
X0031000Y0208904D01*
X0048441Y0201704D02*
X0049000Y0201704D01*
X0055000Y0207704D01*
X0055000Y0207804D01*
X0053800Y0201704D02*
X0053559Y0201704D01*
X0053800Y0201704D02*
X0053800Y0198104D01*
X0060400Y0191504D01*
X0060400Y0184904D01*
X0053559Y0191704D02*
X0053200Y0191504D01*
X0050200Y0188504D01*
X0009400Y0192704D02*
X0006400Y0195704D01*
X0006400Y0239504D01*
X0008800Y0241904D01*
X0008800Y0250304D01*
X0031000Y0269263D02*
X0031000Y0276704D01*
X0031000Y0283904D02*
X0022000Y0283904D01*
X0019000Y0280904D01*
X0031000Y0283904D02*
X0031000Y0284263D01*
X0027000Y0226604D02*
X0027400Y0226304D01*
X0027400Y0222704D01*
X0031000Y0219104D01*
X0355800Y0174204D02*
X0356200Y0174104D01*
X0362200Y0174104D01*
X0410800Y0150704D02*
X0413200Y0148304D01*
X0413200Y0133904D01*
X0406000Y0126704D01*
X0380800Y0234104D02*
X0378400Y0236504D01*
X0382000Y0250304D02*
X0385000Y0250304D01*
X0385000Y0250404D01*
X0374800Y0252704D02*
X0371200Y0256304D01*
X0371000Y0256704D01*
X0370600Y0263504D02*
X0373000Y0265904D01*
X0373000Y0276704D01*
X0373441Y0276704D01*
X0374800Y0273104D02*
X0378400Y0276704D01*
X0378559Y0276704D01*
X0374800Y0273104D02*
X0374800Y0262904D01*
X0374600Y0262704D01*
X0382000Y0262304D02*
X0382000Y0259904D01*
X0382000Y0262304D02*
X0382200Y0262704D01*
X0378400Y0270704D02*
X0394000Y0286304D01*
X0412000Y0286304D01*
X0425800Y0272504D01*
X0426000Y0271980D01*
X0426400Y0272504D01*
X0430600Y0276704D01*
X0443200Y0276704D01*
D40*
X0374800Y0252704D03*
X0370600Y0263504D03*
X0426400Y0219104D03*
X0406600Y0208304D03*
X0413800Y0199904D03*
X0408400Y0196904D03*
X0419800Y0196904D03*
X0406600Y0180104D03*
X0392200Y0198104D03*
X0385600Y0208304D03*
X0395200Y0214904D03*
X0446800Y0219104D03*
X0460000Y0221504D03*
X0374800Y0161504D03*
X0362200Y0174104D03*
X0343600Y0172904D03*
X0338800Y0176504D03*
X0341800Y0178904D03*
X0340600Y0167504D03*
X0334000Y0160304D03*
X0338800Y0155504D03*
X0322600Y0147104D03*
X0309400Y0139304D03*
X0317800Y0133904D03*
X0337000Y0130904D03*
X0343000Y0109304D03*
X0347200Y0103904D03*
X0337000Y0096104D03*
X0317800Y0082304D03*
X0310600Y0082304D03*
X0296200Y0076904D03*
X0280000Y0065504D03*
X0271600Y0071504D03*
X0272200Y0082304D03*
X0261400Y0080504D03*
X0242200Y0084104D03*
X0236200Y0072704D03*
X0218800Y0066704D03*
X0196600Y0082304D03*
X0219400Y0084104D03*
X0227800Y0108704D03*
X0230800Y0117104D03*
X0238600Y0120104D03*
X0242200Y0124904D03*
X0247600Y0127304D03*
X0253600Y0130304D03*
X0256000Y0138104D03*
X0253000Y0141104D03*
X0244000Y0146504D03*
X0231400Y0143504D03*
X0239200Y0138104D03*
X0243400Y0133304D03*
X0226600Y0132104D03*
X0221800Y0127304D03*
X0214600Y0120104D03*
X0214600Y0114704D03*
X0248200Y0116504D03*
X0267400Y0117104D03*
X0271000Y0129704D03*
X0262000Y0135104D03*
X0263800Y0140504D03*
X0271000Y0142904D03*
X0274000Y0140504D03*
X0286000Y0143504D03*
X0286600Y0139304D03*
X0297400Y0127304D03*
X0286600Y0117104D03*
X0266200Y0147704D03*
X0266200Y0154904D03*
X0266800Y0159104D03*
X0274000Y0162104D03*
X0283000Y0154304D03*
X0274000Y0171104D03*
X0268600Y0177704D03*
X0268600Y0181904D03*
X0271600Y0184904D03*
X0275200Y0188504D03*
X0268600Y0191504D03*
X0278200Y0194504D03*
X0283000Y0185504D03*
X0292000Y0181904D03*
X0283000Y0177104D03*
X0261400Y0184304D03*
X0256600Y0179504D03*
X0253000Y0168704D03*
X0254800Y0164504D03*
X0260800Y0163304D03*
X0241600Y0159104D03*
X0224800Y0156104D03*
X0212200Y0150104D03*
X0199600Y0153704D03*
X0196600Y0156704D03*
X0194800Y0147704D03*
X0189400Y0149504D03*
X0185800Y0144704D03*
X0190000Y0138704D03*
X0185800Y0137504D03*
X0170200Y0129704D03*
X0153400Y0131504D03*
X0149200Y0131504D03*
X0146800Y0123704D03*
X0160000Y0119504D03*
X0171400Y0112904D03*
X0173200Y0118304D03*
X0175000Y0103904D03*
X0158200Y0104504D03*
X0151000Y0103304D03*
X0134800Y0096704D03*
X0146200Y0087704D03*
X0159400Y0087704D03*
X0174400Y0088304D03*
X0137200Y0115304D03*
X0122200Y0109304D03*
X0119200Y0112304D03*
X0103000Y0103904D03*
X0104800Y0129104D03*
X0108400Y0143504D03*
X0112000Y0146504D03*
X0130000Y0139304D03*
X0141400Y0141704D03*
X0151600Y0145304D03*
X0160000Y0142304D03*
X0154600Y0138704D03*
X0172600Y0149504D03*
X0186400Y0156704D03*
X0191200Y0166904D03*
X0191200Y0175304D03*
X0199600Y0174104D03*
X0196600Y0180704D03*
X0192400Y0181304D03*
X0173200Y0174104D03*
X0173800Y0169904D03*
X0158800Y0170504D03*
X0158800Y0177704D03*
X0148600Y0166904D03*
X0142600Y0172904D03*
X0138400Y0172304D03*
X0143200Y0180104D03*
X0146200Y0186104D03*
X0137200Y0186104D03*
X0120400Y0181304D03*
X0106600Y0181304D03*
X0103600Y0177104D03*
X0091000Y0172304D03*
X0082600Y0172304D03*
X0070000Y0175304D03*
X0077200Y0188504D03*
X0074200Y0191504D03*
X0075400Y0195704D03*
X0091000Y0204704D03*
X0102400Y0195104D03*
X0110800Y0202304D03*
X0116200Y0200504D03*
X0106600Y0207104D03*
X0103600Y0214904D03*
X0104200Y0219104D03*
X0108400Y0222104D03*
X0098200Y0232904D03*
X0107800Y0245504D03*
X0110800Y0243104D03*
X0110800Y0248504D03*
X0106000Y0251504D03*
X0127000Y0237704D03*
X0133000Y0237104D03*
X0136000Y0234704D03*
X0127000Y0230504D03*
X0124600Y0225704D03*
X0135400Y0222104D03*
X0133000Y0217304D03*
X0124600Y0211304D03*
X0130000Y0205904D03*
X0093400Y0216104D03*
X0079000Y0233504D03*
X0041800Y0226304D03*
X0028000Y0230504D03*
X0008800Y0250304D03*
X0041200Y0267704D03*
X0050200Y0271904D03*
X0041200Y0280304D03*
X0044800Y0283904D03*
X0035800Y0282104D03*
X0072400Y0280304D03*
X0079000Y0280304D03*
X0072400Y0276104D03*
X0110800Y0283304D03*
X0121000Y0268304D03*
X0009400Y0192704D03*
X0062200Y0144704D03*
X0093400Y0158504D03*
X0128800Y0161504D03*
X0151600Y0158504D03*
X0212200Y0162704D03*
X0214600Y0165704D03*
X0218800Y0165704D03*
X0223000Y0166304D03*
X0230200Y0174104D03*
X0225400Y0176504D03*
X0223000Y0179504D03*
X0220600Y0184304D03*
X0214000Y0181304D03*
X0212800Y0187304D03*
X0215200Y0190304D03*
X0212800Y0172904D03*
X0331000Y0191504D03*
X0444400Y0157904D03*
X0266800Y0054104D03*
X0262000Y0060104D03*
X0254800Y0056504D03*
X0248200Y0053504D03*
X0213400Y0046304D03*
X0163600Y0055304D03*
X0091600Y0185504D03*
M02*
