G75*
%MOIN*%
%OFA0B0*%
%FSLAX25Y25*%
%IPPOS*%
%LPD*%
%AMOC8*
5,1,8,0,0,1.08239X$1,22.5*
%
%ADD10C,0.22800*%
%ADD11C,0.08800*%
%ADD12R,0.05918X0.06706*%
%ADD13R,0.07099X0.07887*%
%ADD14R,0.06706X0.05918*%
%ADD15R,0.03950X0.03162*%
%ADD16R,0.06050X0.06050*%
%ADD17R,0.25209X0.22060*%
%ADD18R,0.07099X0.04737*%
%ADD19R,0.09461X0.03162*%
%ADD20R,0.22060X0.25209*%
%ADD21R,0.04737X0.07099*%
%ADD22OC8,0.05800*%
%ADD23R,0.04737X0.02178*%
%ADD24R,0.03162X0.09461*%
%ADD25R,0.10249X0.06312*%
%ADD26R,0.06312X0.03556*%
%ADD27R,0.03556X0.04343*%
%ADD28R,0.04343X0.03556*%
%ADD29OC8,0.09300*%
%ADD30C,0.06800*%
%ADD31R,0.04300X0.03900*%
%ADD32R,0.03900X0.04300*%
%ADD33OC8,0.13200*%
%ADD34R,0.08674X0.10643*%
%ADD35R,0.08674X0.13792*%
%ADD36R,0.02769X0.13005*%
%ADD37C,0.04343*%
%ADD38R,0.04737X0.05524*%
%ADD39R,0.07099X0.04343*%
%ADD40OC8,0.09650*%
%ADD41C,0.09650*%
%ADD42C,0.03500*%
D10*
X0189858Y0382739D03*
X0499858Y0382739D03*
D11*
X0444858Y0215239D03*
X0244858Y0215239D03*
D12*
X0221098Y0225739D03*
X0213618Y0225739D03*
X0148598Y0292739D03*
X0141118Y0292739D03*
X0330118Y0190739D03*
X0337598Y0190739D03*
X0345118Y0190739D03*
X0352598Y0190739D03*
X0406118Y0272739D03*
X0413598Y0272739D03*
X0413598Y0282739D03*
X0406118Y0282739D03*
X0496118Y0332739D03*
X0503598Y0332739D03*
X0503598Y0347739D03*
X0496118Y0347739D03*
D13*
X0510346Y0309239D03*
X0521370Y0309239D03*
X0500370Y0297739D03*
X0489346Y0297739D03*
X0551846Y0302739D03*
X0551846Y0292739D03*
X0562870Y0292739D03*
X0562870Y0302739D03*
X0490370Y0402739D03*
X0479346Y0402739D03*
X0264870Y0228739D03*
X0253846Y0228739D03*
X0223370Y0244239D03*
X0212346Y0244239D03*
D14*
X0412358Y0253998D03*
X0412358Y0261479D03*
D15*
X0510937Y0261239D03*
X0520780Y0261239D03*
X0549937Y0312739D03*
X0559780Y0312739D03*
X0353780Y0159739D03*
X0343937Y0159739D03*
X0334780Y0159739D03*
X0324937Y0159739D03*
X0164280Y0264239D03*
X0154437Y0264239D03*
D16*
X0189858Y0227739D03*
X0189858Y0187739D03*
X0114858Y0187739D03*
X0114858Y0227739D03*
X0498858Y0226739D03*
X0498858Y0186739D03*
X0573858Y0186739D03*
X0573858Y0226739D03*
D17*
X0574701Y0272739D03*
X0117516Y0272739D03*
D18*
X0146256Y0281715D03*
X0146256Y0263762D03*
X0545961Y0263762D03*
X0545961Y0281715D03*
D19*
X0472968Y0274239D03*
X0472968Y0269239D03*
X0472968Y0264239D03*
X0472968Y0259239D03*
X0472968Y0254239D03*
X0472968Y0249239D03*
X0472968Y0244239D03*
X0472968Y0239239D03*
X0472968Y0234239D03*
X0472968Y0229239D03*
X0446748Y0229239D03*
X0446748Y0234239D03*
X0446748Y0239239D03*
X0446748Y0244239D03*
X0446748Y0249239D03*
X0446748Y0254239D03*
X0446748Y0259239D03*
X0446748Y0264239D03*
X0446748Y0269239D03*
X0446748Y0274239D03*
X0352094Y0180239D03*
X0352094Y0175239D03*
X0352094Y0170239D03*
X0352094Y0165239D03*
X0331622Y0165239D03*
X0331622Y0170239D03*
X0331622Y0175239D03*
X0331622Y0180239D03*
X0301968Y0243239D03*
X0301968Y0248239D03*
X0301968Y0253239D03*
X0301968Y0258239D03*
X0301968Y0263239D03*
X0301968Y0268239D03*
X0301968Y0273239D03*
X0301968Y0278239D03*
X0301968Y0283239D03*
X0301968Y0288239D03*
X0275748Y0288239D03*
X0275748Y0283239D03*
X0275748Y0278239D03*
X0275748Y0273239D03*
X0275748Y0268239D03*
X0275748Y0263239D03*
X0275748Y0258239D03*
X0275748Y0253239D03*
X0275748Y0248239D03*
X0275748Y0243239D03*
D20*
X0552358Y0350081D03*
D21*
X0543382Y0321341D03*
X0561335Y0321341D03*
D22*
X0482358Y0327739D03*
X0474858Y0322739D03*
X0474858Y0332739D03*
D23*
X0382516Y0288270D03*
X0382516Y0285711D03*
X0382516Y0283152D03*
X0382516Y0280593D03*
X0382516Y0278034D03*
X0382516Y0275475D03*
X0382516Y0272916D03*
X0382516Y0270357D03*
X0382516Y0267798D03*
X0382516Y0265239D03*
X0382516Y0262680D03*
X0382516Y0260120D03*
X0382516Y0257561D03*
X0382516Y0255002D03*
X0382516Y0252443D03*
X0382516Y0249884D03*
X0382516Y0247325D03*
X0382516Y0244766D03*
X0382516Y0242207D03*
X0352201Y0242207D03*
X0352201Y0244766D03*
X0352201Y0247325D03*
X0352201Y0249884D03*
X0352201Y0252443D03*
X0352201Y0255002D03*
X0352201Y0257561D03*
X0352201Y0260120D03*
X0352201Y0262680D03*
X0352201Y0265239D03*
X0352201Y0267798D03*
X0352201Y0270357D03*
X0352201Y0272916D03*
X0352201Y0275475D03*
X0352201Y0278034D03*
X0352201Y0280593D03*
X0352201Y0283152D03*
X0352201Y0285711D03*
X0352201Y0288270D03*
D24*
X0569858Y0292502D03*
X0574858Y0292502D03*
X0579858Y0292502D03*
X0584858Y0292502D03*
X0584858Y0312975D03*
X0579858Y0312975D03*
X0574858Y0312975D03*
X0569858Y0312975D03*
X0122358Y0312975D03*
X0117358Y0312975D03*
X0112358Y0312975D03*
X0107358Y0312975D03*
X0107358Y0292502D03*
X0112358Y0292502D03*
X0117358Y0292502D03*
X0122358Y0292502D03*
D25*
X0519858Y0383014D03*
X0519858Y0392463D03*
D26*
X0402358Y0261085D03*
X0402358Y0254392D03*
D27*
X0472299Y0312739D03*
X0477417Y0312739D03*
X0492299Y0322739D03*
X0497417Y0322739D03*
X0484917Y0342739D03*
X0479799Y0342739D03*
X0497299Y0357739D03*
X0502417Y0357739D03*
X0479917Y0390239D03*
X0474799Y0390239D03*
X0572299Y0352739D03*
X0577417Y0352739D03*
X0577417Y0345239D03*
X0572299Y0345239D03*
X0572299Y0335239D03*
X0577417Y0335239D03*
X0577417Y0325239D03*
X0572299Y0325239D03*
X0535917Y0261239D03*
X0530799Y0261239D03*
X0189917Y0305239D03*
X0184799Y0305239D03*
X0175417Y0312739D03*
X0170299Y0312739D03*
X0160417Y0312739D03*
X0155299Y0312739D03*
X0156299Y0322739D03*
X0161417Y0322739D03*
X0144917Y0322739D03*
X0139799Y0322739D03*
X0127917Y0328739D03*
X0122799Y0328739D03*
X0121799Y0336739D03*
X0126917Y0336739D03*
X0127417Y0345739D03*
X0122299Y0345739D03*
X0122299Y0353739D03*
X0127417Y0353739D03*
X0127417Y0363239D03*
X0122299Y0363239D03*
X0139799Y0347739D03*
X0144917Y0347739D03*
X0144799Y0302739D03*
X0149917Y0302739D03*
X0134917Y0302739D03*
X0129799Y0302739D03*
X0158299Y0275239D03*
X0163417Y0275239D03*
X0144917Y0405739D03*
X0139799Y0405739D03*
D28*
X0214858Y0275298D03*
X0214858Y0270180D03*
X0205358Y0210298D03*
X0205358Y0205180D03*
X0321858Y0184298D03*
X0321858Y0179180D03*
X0321858Y0170298D03*
X0321858Y0165180D03*
X0359858Y0165180D03*
X0359858Y0170298D03*
X0359858Y0179180D03*
X0359858Y0184298D03*
X0402358Y0240180D03*
X0402358Y0245298D03*
X0483858Y0229798D03*
X0483858Y0224680D03*
X0483358Y0206298D03*
X0483358Y0201180D03*
X0484858Y0249180D03*
X0484858Y0254298D03*
X0484858Y0263180D03*
X0484858Y0268298D03*
X0484858Y0277180D03*
X0484858Y0282298D03*
X0533858Y0320180D03*
X0533858Y0325298D03*
D29*
X0537058Y0387739D03*
X0562658Y0387739D03*
D30*
X0372358Y0206239D02*
X0372358Y0200239D01*
X0362358Y0200239D02*
X0362358Y0206239D01*
X0352358Y0206239D02*
X0352358Y0200239D01*
X0342358Y0200239D02*
X0342358Y0206239D01*
X0332358Y0206239D02*
X0332358Y0200239D01*
X0322358Y0200239D02*
X0322358Y0206239D01*
X0312358Y0206239D02*
X0312358Y0200239D01*
X0302358Y0200239D02*
X0302358Y0206239D01*
D31*
X0478358Y0357639D03*
X0486358Y0361439D03*
X0486358Y0353839D03*
X0127858Y0369839D03*
X0119858Y0373639D03*
X0127858Y0377439D03*
D32*
X0138658Y0376739D03*
X0146258Y0376739D03*
X0142458Y0368739D03*
X0139158Y0361739D03*
X0146758Y0361739D03*
X0142958Y0353739D03*
X0141758Y0338239D03*
X0137958Y0330239D03*
X0145558Y0330239D03*
X0141758Y0317239D03*
X0137958Y0309239D03*
X0145558Y0309239D03*
X0169958Y0319739D03*
X0177558Y0319739D03*
X0173758Y0327739D03*
X0142458Y0388739D03*
X0138658Y0396739D03*
X0146258Y0396739D03*
X0475958Y0376239D03*
X0483558Y0376239D03*
X0479758Y0384239D03*
X0516158Y0326739D03*
X0523758Y0326739D03*
X0519958Y0318739D03*
X0536158Y0311739D03*
X0543758Y0311739D03*
X0539958Y0303739D03*
X0498558Y0308739D03*
X0490958Y0308739D03*
X0494758Y0316739D03*
X0571158Y0366739D03*
X0578758Y0366739D03*
X0574958Y0358739D03*
D33*
X0468858Y0367239D03*
X0468858Y0349739D03*
D34*
X0408878Y0161928D03*
X0373839Y0161928D03*
X0309878Y0160928D03*
X0274839Y0160928D03*
D35*
X0274839Y0184156D03*
X0309878Y0184156D03*
X0373839Y0185156D03*
X0408878Y0185156D03*
D36*
X0397657Y0185550D03*
X0394508Y0185550D03*
X0391358Y0185550D03*
X0388209Y0185550D03*
X0385059Y0185550D03*
X0298657Y0184550D03*
X0295508Y0184550D03*
X0292358Y0184550D03*
X0289209Y0184550D03*
X0286059Y0184550D03*
D37*
X0283697Y0172739D03*
X0301020Y0172739D03*
X0382697Y0173739D03*
X0400020Y0173739D03*
D38*
X0517453Y0293687D03*
X0529067Y0293687D03*
X0188764Y0277290D03*
X0177150Y0277290D03*
D39*
X0177150Y0296187D03*
X0188764Y0296187D03*
X0517453Y0274790D03*
X0529067Y0274790D03*
D40*
X0246658Y0159039D03*
X0265158Y0171839D03*
X0263058Y0201339D03*
X0440658Y0160039D03*
X0459158Y0172839D03*
X0457058Y0202339D03*
D41*
X0430458Y0185439D03*
X0420558Y0190939D03*
X0236458Y0184439D03*
X0226558Y0189939D03*
D42*
X0259258Y0206739D03*
X0259558Y0229839D03*
X0264958Y0234939D03*
X0263458Y0238239D03*
X0263158Y0243639D03*
X0266458Y0243639D03*
X0269458Y0241839D03*
X0286558Y0241239D03*
X0293158Y0239739D03*
X0295558Y0243639D03*
X0303358Y0238839D03*
X0286558Y0233139D03*
X0274858Y0227439D03*
X0270058Y0229839D03*
X0253258Y0250239D03*
X0259858Y0255039D03*
X0257458Y0257439D03*
X0265558Y0262239D03*
X0267958Y0259839D03*
X0265858Y0267039D03*
X0258658Y0273039D03*
X0257458Y0280239D03*
X0249658Y0277539D03*
X0246958Y0275439D03*
X0250558Y0268239D03*
X0248458Y0262839D03*
X0244858Y0263139D03*
X0240958Y0263139D03*
X0213958Y0285639D03*
X0217858Y0291339D03*
X0220258Y0295539D03*
X0222658Y0288939D03*
X0202558Y0300339D03*
X0200158Y0297939D03*
X0197758Y0300339D03*
X0182758Y0296139D03*
X0169258Y0294639D03*
X0160558Y0308739D03*
X0155158Y0308739D03*
X0153658Y0317439D03*
X0160558Y0318939D03*
X0165358Y0312639D03*
X0173458Y0318639D03*
X0181858Y0323739D03*
X0177358Y0324939D03*
X0179758Y0330339D03*
X0189958Y0335139D03*
X0193558Y0342339D03*
X0197758Y0338139D03*
X0200158Y0335739D03*
X0202558Y0333339D03*
X0204958Y0330939D03*
X0200158Y0342339D03*
X0198358Y0349239D03*
X0204958Y0355239D03*
X0202558Y0357639D03*
X0204958Y0360039D03*
X0203158Y0364839D03*
X0214558Y0357039D03*
X0215458Y0363639D03*
X0214258Y0376539D03*
X0214258Y0382839D03*
X0214258Y0386739D03*
X0219658Y0384639D03*
X0202858Y0399339D03*
X0199558Y0400839D03*
X0191458Y0406239D03*
X0170758Y0388839D03*
X0165058Y0393939D03*
X0158758Y0387639D03*
X0158758Y0383139D03*
X0157558Y0373539D03*
X0160858Y0372339D03*
X0171658Y0366039D03*
X0167758Y0335139D03*
X0159058Y0326439D03*
X0150658Y0324939D03*
X0127558Y0340539D03*
X0126358Y0349539D03*
X0123958Y0369639D03*
X0142558Y0397239D03*
X0216958Y0348039D03*
X0140158Y0301239D03*
X0136558Y0296439D03*
X0116758Y0298839D03*
X0225658Y0224439D03*
X0228058Y0229839D03*
X0282958Y0255339D03*
X0295558Y0252939D03*
X0308458Y0263739D03*
X0313558Y0263439D03*
X0319258Y0258339D03*
X0313558Y0255939D03*
X0316258Y0270939D03*
X0309058Y0275739D03*
X0308458Y0279039D03*
X0320758Y0282039D03*
X0328258Y0282939D03*
X0330658Y0280539D03*
X0348058Y0271239D03*
X0356158Y0267639D03*
X0356158Y0277239D03*
X0364858Y0280539D03*
X0369658Y0282939D03*
X0369658Y0287139D03*
X0371158Y0291939D03*
X0380458Y0297039D03*
X0387058Y0288339D03*
X0393058Y0285639D03*
X0395458Y0288039D03*
X0405058Y0291639D03*
X0411658Y0296439D03*
X0420658Y0290739D03*
X0425458Y0295539D03*
X0401758Y0278739D03*
X0387958Y0280839D03*
X0378058Y0285639D03*
X0377758Y0273039D03*
X0386458Y0264939D03*
X0386458Y0260139D03*
X0388858Y0257439D03*
X0391258Y0259839D03*
X0378358Y0260139D03*
X0375958Y0257739D03*
X0371758Y0261939D03*
X0366658Y0265239D03*
X0366058Y0257739D03*
X0359158Y0251139D03*
X0356158Y0256839D03*
X0346258Y0261039D03*
X0335758Y0250539D03*
X0335758Y0240039D03*
X0338758Y0232239D03*
X0338758Y0228939D03*
X0346258Y0228939D03*
X0354358Y0220839D03*
X0339058Y0218139D03*
X0331258Y0221439D03*
X0319558Y0223839D03*
X0325858Y0233439D03*
X0321958Y0238839D03*
X0356158Y0242439D03*
X0361558Y0242439D03*
X0364558Y0237339D03*
X0374758Y0228639D03*
X0386458Y0228639D03*
X0388858Y0231039D03*
X0391258Y0228639D03*
X0399058Y0248139D03*
X0402058Y0250539D03*
X0417958Y0268539D03*
X0427258Y0256839D03*
X0432358Y0256839D03*
X0434758Y0261939D03*
X0438058Y0270039D03*
X0454858Y0263139D03*
X0461458Y0265539D03*
X0460858Y0279939D03*
X0467158Y0282939D03*
X0462058Y0297339D03*
X0459658Y0299739D03*
X0455458Y0295539D03*
X0469258Y0309339D03*
X0472858Y0304539D03*
X0489058Y0303639D03*
X0489358Y0319239D03*
X0500758Y0320739D03*
X0508558Y0317139D03*
X0526558Y0306339D03*
X0538258Y0299739D03*
X0560758Y0315939D03*
X0572158Y0306039D03*
X0572158Y0298539D03*
X0538258Y0320439D03*
X0537658Y0325539D03*
X0529558Y0343539D03*
X0493858Y0340539D03*
X0490858Y0334839D03*
X0481858Y0336639D03*
X0476158Y0361239D03*
X0473758Y0380139D03*
X0578758Y0356739D03*
X0489058Y0283239D03*
X0490858Y0274539D03*
X0478858Y0261639D03*
X0483658Y0245739D03*
X0488158Y0239439D03*
X0516358Y0261039D03*
X0514858Y0280839D03*
X0419158Y0231639D03*
X0391258Y0210339D03*
X0378658Y0202839D03*
X0381058Y0198939D03*
X0391258Y0193839D03*
X0381958Y0186939D03*
X0367858Y0185739D03*
X0367858Y0192639D03*
X0368458Y0196539D03*
X0362458Y0193839D03*
X0359158Y0193839D03*
X0357358Y0189039D03*
X0355858Y0184239D03*
X0342658Y0185739D03*
X0344158Y0172839D03*
X0338158Y0168639D03*
X0350458Y0162039D03*
X0363358Y0167739D03*
X0315358Y0195939D03*
X0301858Y0186339D03*
X0282958Y0188139D03*
X0376258Y0209439D03*
X0374458Y0247239D03*
X0377158Y0249939D03*
X0361258Y0285339D03*
X0363658Y0287739D03*
X0357658Y0290139D03*
X0311458Y0290739D03*
X0295558Y0283839D03*
X0293458Y0278439D03*
X0291658Y0270939D03*
X0281758Y0270939D03*
X0450658Y0203739D03*
M02*
