G75*
%MOIN*%
%OFA0B0*%
%FSLAX25Y25*%
%IPPOS*%
%LPD*%
%AMOC8*
5,1,8,0,0,1.08239X$1,22.5*
%
%ADD10R,0.05250X0.05250*%
%ADD11OC8,0.05000*%
%ADD12C,0.06000*%
%ADD13R,0.02756X0.03543*%
%ADD14C,0.04800*%
%ADD15OC8,0.08500*%
%ADD16R,0.03100X0.03500*%
%ADD17R,0.05118X0.01181*%
%ADD18R,0.08661X0.07087*%
%ADD19C,0.04724*%
%ADD20C,0.05906*%
%ADD21C,0.01200*%
%ADD22C,0.02700*%
%ADD23C,0.00600*%
D10*
X0011828Y0049786D03*
X0011828Y0089786D03*
X0086828Y0089786D03*
X0086828Y0049786D03*
X0416828Y0049786D03*
X0416828Y0089786D03*
X0491828Y0089786D03*
X0491828Y0049786D03*
D11*
X0381828Y0189786D03*
X0389328Y0194786D03*
X0381828Y0199786D03*
D12*
X0417928Y0201486D02*
X0417928Y0207486D01*
X0435728Y0207486D02*
X0435728Y0201486D01*
X0435728Y0227086D02*
X0435728Y0233086D01*
X0417928Y0233086D02*
X0417928Y0227086D01*
X0417928Y0168086D02*
X0417928Y0162086D01*
X0435728Y0162086D02*
X0435728Y0168086D01*
X0435728Y0142486D02*
X0435728Y0136486D01*
X0417928Y0136486D02*
X0417928Y0142486D01*
X0407328Y0144786D02*
X0401328Y0144786D01*
X0377328Y0144786D02*
X0371328Y0144786D01*
X0371328Y0124786D02*
X0377328Y0124786D01*
X0401328Y0124786D02*
X0407328Y0124786D01*
X0407328Y0104786D02*
X0401328Y0104786D01*
X0377328Y0104786D02*
X0371328Y0104786D01*
X0330728Y0102086D02*
X0330728Y0108086D01*
X0312928Y0108086D02*
X0312928Y0102086D01*
X0283228Y0102086D02*
X0283228Y0108086D01*
X0265428Y0108086D02*
X0265428Y0102086D01*
X0265428Y0082486D02*
X0265428Y0076486D01*
X0283228Y0076486D02*
X0283228Y0082486D01*
X0312928Y0082486D02*
X0312928Y0076486D01*
X0330728Y0076486D02*
X0330728Y0082486D01*
X0371328Y0074786D02*
X0377328Y0074786D01*
X0401328Y0074786D02*
X0407328Y0074786D01*
X0205728Y0076486D02*
X0205728Y0082486D01*
X0187928Y0082486D02*
X0187928Y0076486D01*
X0187928Y0102086D02*
X0187928Y0108086D01*
X0205728Y0108086D02*
X0205728Y0102086D01*
X0132328Y0104786D02*
X0126328Y0104786D01*
X0102328Y0104786D02*
X0096328Y0104786D01*
X0096328Y0124786D02*
X0102328Y0124786D01*
X0126328Y0124786D02*
X0132328Y0124786D01*
X0132328Y0144786D02*
X0126328Y0144786D01*
X0102328Y0144786D02*
X0096328Y0144786D01*
X0083228Y0144986D02*
X0083228Y0138986D01*
X0065428Y0138986D02*
X0065428Y0144986D01*
X0065428Y0164586D02*
X0065428Y0170586D01*
X0083228Y0170586D02*
X0083228Y0164586D01*
X0083228Y0201486D02*
X0083228Y0207486D01*
X0065428Y0207486D02*
X0065428Y0201486D01*
X0065428Y0227086D02*
X0065428Y0233086D01*
X0083228Y0233086D02*
X0083228Y0227086D01*
X0019828Y0224786D02*
X0013828Y0224786D01*
X0013828Y0234786D02*
X0019828Y0234786D01*
X0019828Y0244786D02*
X0013828Y0244786D01*
X0013828Y0254786D02*
X0019828Y0254786D01*
X0019828Y0264786D02*
X0013828Y0264786D01*
X0013828Y0214786D02*
X0019828Y0214786D01*
X0019828Y0204786D02*
X0013828Y0204786D01*
X0013828Y0194786D02*
X0019828Y0194786D01*
X0096328Y0074786D02*
X0102328Y0074786D01*
X0126328Y0074786D02*
X0132328Y0074786D01*
D13*
X0097387Y0180786D03*
X0092269Y0180786D03*
X0092269Y0190786D03*
X0097387Y0190786D03*
X0096887Y0227286D03*
X0091769Y0227286D03*
X0073887Y0243286D03*
X0068769Y0243286D03*
X0069269Y0249786D03*
X0074387Y0249786D03*
X0074387Y0257286D03*
X0069269Y0257286D03*
X0069269Y0264786D03*
X0074387Y0264786D03*
X0074387Y0272286D03*
X0069269Y0272286D03*
D14*
X0146828Y0092186D02*
X0146828Y0087386D01*
X0156828Y0087386D02*
X0156828Y0092186D01*
X0166828Y0092186D02*
X0166828Y0087386D01*
D15*
X0444028Y0254786D03*
X0469628Y0254786D03*
D16*
X0098228Y0213286D03*
X0090628Y0213286D03*
X0094428Y0206286D03*
X0098228Y0198286D03*
X0090628Y0198286D03*
X0094428Y0221286D03*
D17*
X0116532Y0221223D03*
X0116532Y0223191D03*
X0116532Y0225160D03*
X0116532Y0227128D03*
X0116532Y0229097D03*
X0116532Y0231065D03*
X0116532Y0233034D03*
X0116532Y0235002D03*
X0116532Y0236971D03*
X0116532Y0238939D03*
X0116532Y0240908D03*
X0116532Y0242876D03*
X0116532Y0244845D03*
X0116532Y0246813D03*
X0116532Y0248782D03*
X0116532Y0250750D03*
X0116532Y0252719D03*
X0116532Y0254687D03*
X0116532Y0256656D03*
X0116532Y0258624D03*
X0116532Y0260593D03*
X0116532Y0262561D03*
X0116532Y0264530D03*
X0116532Y0266498D03*
X0116532Y0268467D03*
X0116532Y0219254D03*
X0116532Y0217286D03*
X0116532Y0215317D03*
X0116532Y0213349D03*
X0116532Y0211380D03*
X0116532Y0209412D03*
X0116532Y0207443D03*
X0116532Y0205475D03*
X0116532Y0203506D03*
X0116532Y0201538D03*
X0116532Y0199569D03*
X0116532Y0197601D03*
X0116532Y0195632D03*
X0116532Y0193664D03*
X0116532Y0191695D03*
X0116532Y0189727D03*
X0116532Y0187758D03*
X0116532Y0185790D03*
X0116532Y0183821D03*
X0116532Y0181853D03*
D18*
X0129328Y0174372D03*
X0129328Y0275947D03*
D19*
X0165214Y0066361D02*
X0169938Y0066361D01*
X0141395Y0050613D02*
X0141395Y0045888D01*
X0131946Y0051400D02*
X0131946Y0056124D01*
X0169741Y0038408D02*
X0169741Y0033683D01*
X0154190Y0023054D02*
X0149466Y0023054D01*
X0331946Y0051400D02*
X0331946Y0056124D01*
X0341395Y0050613D02*
X0341395Y0045888D01*
X0369741Y0038408D02*
X0369741Y0033683D01*
X0354190Y0023054D02*
X0349466Y0023054D01*
X0365214Y0066361D02*
X0369938Y0066361D01*
D20*
X0321198Y0049825D02*
X0321198Y0043920D01*
X0321198Y0030928D02*
X0321198Y0025022D01*
X0292458Y0025022D02*
X0292458Y0030928D01*
X0292458Y0043920D02*
X0292458Y0049825D01*
X0208698Y0049825D02*
X0208698Y0043920D01*
X0208698Y0030928D02*
X0208698Y0025022D01*
X0179958Y0025022D02*
X0179958Y0030928D01*
X0179958Y0043920D02*
X0179958Y0049825D01*
D21*
X0185428Y0043286D02*
X0181828Y0039686D01*
X0175828Y0039686D01*
X0141028Y0074486D01*
X0129628Y0074486D01*
X0129328Y0074786D01*
X0115828Y0088286D01*
X0115828Y0117386D01*
X0099328Y0133886D01*
X0099328Y0144786D01*
X0120028Y0163286D02*
X0140428Y0142886D01*
X0140428Y0127886D01*
X0144928Y0135386D02*
X0150028Y0130286D01*
X0150028Y0128786D01*
X0144928Y0135386D02*
X0144928Y0155186D01*
X0131428Y0168686D01*
X0129028Y0168686D01*
X0120028Y0163286D02*
X0120028Y0181586D01*
X0119728Y0181886D01*
X0120328Y0182486D01*
X0120328Y0202886D01*
X0119728Y0203486D01*
X0116728Y0203486D01*
X0116532Y0203506D01*
X0116428Y0204086D01*
X0116428Y0205286D01*
X0116532Y0205475D01*
X0116428Y0205886D01*
X0116428Y0207386D01*
X0116532Y0207443D01*
X0116428Y0207986D01*
X0116428Y0209186D01*
X0116532Y0209412D01*
X0116428Y0209786D01*
X0116428Y0211286D01*
X0116532Y0211380D01*
X0116428Y0211886D01*
X0116428Y0213086D01*
X0116532Y0213349D01*
X0116428Y0213686D01*
X0116428Y0215186D01*
X0116532Y0215317D01*
X0116428Y0215786D01*
X0116428Y0217286D01*
X0116532Y0217286D01*
X0116428Y0217586D01*
X0116428Y0219086D01*
X0116532Y0219254D01*
X0116428Y0219686D01*
X0116428Y0221186D01*
X0116532Y0221223D01*
X0115828Y0221186D01*
X0101128Y0221186D01*
X0090628Y0213286D02*
X0090628Y0205886D01*
X0089728Y0205886D01*
X0090628Y0205886D02*
X0090628Y0198286D01*
X0105628Y0207386D02*
X0113428Y0199586D01*
X0116428Y0199586D01*
X0116532Y0199569D01*
X0116728Y0181886D02*
X0116532Y0181853D01*
X0116728Y0181886D02*
X0119728Y0181886D01*
X0065428Y0167786D02*
X0065428Y0167586D01*
X0065428Y0167786D02*
X0056128Y0177086D01*
X0038428Y0194786D01*
X0031828Y0194786D01*
X0031828Y0208886D01*
X0057628Y0234686D01*
X0060328Y0234686D01*
X0060628Y0234986D01*
X0065428Y0230186D01*
X0065428Y0230086D01*
X0060628Y0234986D02*
X0060628Y0249686D01*
X0069269Y0249786D02*
X0069328Y0249986D01*
X0069328Y0254786D01*
X0016828Y0254786D01*
X0069328Y0254786D02*
X0069328Y0257186D01*
X0069269Y0257286D01*
X0069328Y0257786D01*
X0069328Y0264686D01*
X0069269Y0264786D01*
X0069328Y0265286D01*
X0069328Y0267986D01*
X0083728Y0267986D01*
X0085228Y0266486D01*
X0115828Y0266486D01*
X0116532Y0266498D01*
X0116428Y0266486D01*
X0116428Y0264686D01*
X0116532Y0264530D01*
X0116532Y0262561D02*
X0117028Y0262586D01*
X0119728Y0262586D01*
X0120328Y0263186D01*
X0120328Y0267686D01*
X0119428Y0268586D01*
X0116728Y0268586D01*
X0116532Y0268467D01*
X0116128Y0268886D01*
X0086728Y0268886D01*
X0086428Y0269186D01*
X0069328Y0267986D02*
X0069328Y0272186D01*
X0069269Y0272286D01*
X0112528Y0257786D02*
X0112528Y0247886D01*
X0113728Y0246686D01*
X0115828Y0246686D01*
X0116532Y0246813D01*
X0116428Y0246686D01*
X0116428Y0245186D01*
X0116532Y0244845D01*
X0116428Y0244586D01*
X0116428Y0243386D01*
X0116532Y0242876D01*
X0116428Y0242786D01*
X0116428Y0241286D01*
X0116532Y0240908D01*
X0116428Y0240686D01*
X0116428Y0239186D01*
X0116532Y0238939D01*
X0112528Y0257786D02*
X0113428Y0258686D01*
X0115828Y0258686D01*
X0116532Y0258624D01*
X0116428Y0258686D01*
X0116428Y0260486D01*
X0116532Y0260593D01*
X0116428Y0261086D01*
X0116428Y0262286D01*
X0116532Y0262561D01*
X0031828Y0194786D02*
X0016828Y0194786D01*
X0187528Y0148586D02*
X0187528Y0105386D01*
X0187828Y0105086D01*
X0187928Y0105086D01*
X0194428Y0117086D02*
X0216328Y0117086D01*
X0222028Y0111386D01*
X0221428Y0111386D01*
X0197428Y0087386D01*
X0197428Y0043286D01*
X0188428Y0043286D02*
X0185428Y0043286D01*
X0203728Y0051686D02*
X0204628Y0051686D01*
X0207928Y0054986D01*
X0199228Y0063686D01*
X0199228Y0073586D01*
X0200128Y0074486D01*
X0200128Y0086186D01*
X0222028Y0111386D02*
X0222928Y0111386D01*
X0236728Y0125186D01*
X0253828Y0125186D01*
X0254428Y0125786D01*
X0264628Y0125786D01*
X0265828Y0124586D01*
X0274828Y0124586D01*
X0262828Y0121886D02*
X0262828Y0112586D01*
X0305428Y0112586D01*
X0306028Y0111986D01*
X0325528Y0131486D01*
X0325828Y0131786D01*
X0342328Y0131786D01*
X0374328Y0144786D02*
X0374128Y0145286D01*
X0374128Y0167186D01*
X0364828Y0176486D01*
X0364828Y0204086D01*
X0366928Y0206186D01*
X0366928Y0258686D01*
X0375628Y0231086D02*
X0423328Y0183386D01*
X0423628Y0183086D01*
X0434728Y0183086D01*
X0438028Y0179786D01*
X0440428Y0179786D01*
X0435328Y0178586D02*
X0402628Y0178586D01*
X0397828Y0173786D01*
X0381828Y0189786D01*
X0379528Y0194786D02*
X0375328Y0190586D01*
X0375628Y0190286D01*
X0375628Y0185786D01*
X0396328Y0165086D01*
X0417928Y0165086D01*
X0423928Y0159086D01*
X0397828Y0171386D02*
X0397828Y0173786D01*
X0393628Y0160586D02*
X0383428Y0150386D01*
X0383428Y0111086D01*
X0411628Y0082886D01*
X0411628Y0072986D01*
X0409228Y0070586D01*
X0396628Y0070586D01*
X0364528Y0038486D01*
X0282028Y0038486D01*
X0263128Y0019586D01*
X0179428Y0019586D01*
X0172228Y0026786D01*
X0207928Y0054986D02*
X0213328Y0054986D01*
X0213628Y0055286D01*
X0215428Y0055286D01*
X0252628Y0092486D01*
X0252628Y0097286D01*
X0262528Y0107186D01*
X0265428Y0105086D01*
X0265228Y0105086D01*
X0262828Y0107486D01*
X0262828Y0112586D01*
X0262828Y0128486D02*
X0263128Y0128786D01*
X0263128Y0138386D01*
X0262828Y0138686D01*
X0262828Y0141986D01*
X0306028Y0111986D02*
X0312928Y0105086D01*
X0322828Y0113786D02*
X0331228Y0113786D01*
X0337228Y0107786D01*
X0338728Y0107786D01*
X0334228Y0094286D02*
X0333928Y0093986D01*
X0334228Y0094286D02*
X0372928Y0094286D01*
X0385228Y0106586D01*
X0404128Y0087686D01*
X0404128Y0074786D01*
X0404328Y0074786D01*
X0385228Y0106586D02*
X0381628Y0110186D01*
X0381628Y0137486D01*
X0374328Y0144786D01*
X0379528Y0194786D02*
X0389328Y0194786D01*
X0381828Y0199786D02*
X0381628Y0199886D01*
X0370528Y0199886D01*
X0367528Y0202886D01*
X0195328Y0162386D02*
X0195328Y0156386D01*
X0187528Y0148586D01*
D22*
X0190228Y0147386D03*
X0198928Y0147686D03*
X0198328Y0143786D03*
X0200428Y0152486D03*
X0192028Y0157286D03*
X0195328Y0162386D03*
X0195328Y0165686D03*
X0205228Y0165686D03*
X0220528Y0160586D03*
X0217828Y0154286D03*
X0212728Y0152786D03*
X0224428Y0147686D03*
X0232528Y0142586D03*
X0240628Y0137786D03*
X0243628Y0132386D03*
X0246928Y0132386D03*
X0253828Y0125186D03*
X0262828Y0128486D03*
X0258028Y0134786D03*
X0260428Y0137186D03*
X0258028Y0139586D03*
X0262828Y0141986D03*
X0250828Y0139586D03*
X0231628Y0152786D03*
X0216028Y0144986D03*
X0218128Y0140186D03*
X0215728Y0137786D03*
X0212428Y0129986D03*
X0199228Y0124886D03*
X0194428Y0117086D03*
X0184828Y0114386D03*
X0159328Y0113786D03*
X0140428Y0127886D03*
X0144628Y0128486D03*
X0144628Y0131786D03*
X0150028Y0128786D03*
X0153328Y0129386D03*
X0148828Y0137186D03*
X0152728Y0141986D03*
X0151228Y0152786D03*
X0160828Y0155186D03*
X0173128Y0152786D03*
X0179428Y0153386D03*
X0179428Y0150086D03*
X0190228Y0135386D03*
X0192628Y0132986D03*
X0173128Y0132986D03*
X0133828Y0116186D03*
X0128128Y0118586D03*
X0130228Y0111086D03*
X0118528Y0108686D03*
X0110728Y0095486D03*
X0084328Y0111086D03*
X0079228Y0108686D03*
X0072628Y0118586D03*
X0091228Y0120986D03*
X0092728Y0116186D03*
X0105928Y0131186D03*
X0132328Y0157286D03*
X0131428Y0164786D03*
X0129028Y0168686D03*
X0140428Y0175886D03*
X0143428Y0165986D03*
X0149428Y0165986D03*
X0164428Y0168386D03*
X0170128Y0165986D03*
X0131428Y0204086D03*
X0125128Y0207086D03*
X0123028Y0215786D03*
X0125728Y0217886D03*
X0129028Y0221186D03*
X0129028Y0225086D03*
X0111928Y0232886D03*
X0121228Y0236186D03*
X0131428Y0245486D03*
X0123328Y0250286D03*
X0121228Y0247586D03*
X0121228Y0254786D03*
X0123628Y0257186D03*
X0110428Y0262286D03*
X0108628Y0272186D03*
X0086428Y0269186D03*
X0083128Y0264686D03*
X0078328Y0249986D03*
X0064528Y0243686D03*
X0060628Y0249686D03*
X0049228Y0249086D03*
X0034828Y0224786D03*
X0030028Y0226286D03*
X0009928Y0241586D03*
X0034528Y0207686D03*
X0051928Y0193586D03*
X0066628Y0194186D03*
X0063328Y0184286D03*
X0071428Y0179486D03*
X0056128Y0177086D03*
X0070528Y0167186D03*
X0038428Y0156986D03*
X0028528Y0165986D03*
X0008728Y0179186D03*
X0024028Y0191486D03*
X0034828Y0180986D03*
X0089728Y0187286D03*
X0099928Y0194186D03*
X0098128Y0202586D03*
X0105628Y0207386D03*
X0102328Y0207686D03*
X0089728Y0205886D03*
X0084928Y0215786D03*
X0101128Y0221186D03*
X0137428Y0209486D03*
X0234328Y0169286D03*
X0259528Y0159986D03*
X0262828Y0166886D03*
X0271828Y0159386D03*
X0288328Y0152186D03*
X0276928Y0147386D03*
X0273628Y0147686D03*
X0288328Y0142586D03*
X0282328Y0132086D03*
X0274828Y0124586D03*
X0262828Y0121886D03*
X0273628Y0109886D03*
X0289228Y0098186D03*
X0291928Y0093986D03*
X0287428Y0087986D03*
X0297628Y0085286D03*
X0297628Y0104486D03*
X0297628Y0109886D03*
X0291328Y0123086D03*
X0307828Y0132386D03*
X0325528Y0131486D03*
X0342328Y0131786D03*
X0344128Y0139586D03*
X0344128Y0142886D03*
X0350728Y0139586D03*
X0349828Y0150086D03*
X0353428Y0154886D03*
X0344128Y0152486D03*
X0351328Y0167786D03*
X0369628Y0167786D03*
X0393628Y0160586D03*
X0397828Y0171386D03*
X0379228Y0186086D03*
X0375328Y0190586D03*
X0373828Y0202586D03*
X0367528Y0202886D03*
X0407728Y0191186D03*
X0422728Y0197486D03*
X0423328Y0183386D03*
X0435328Y0178586D03*
X0440428Y0179786D03*
X0459328Y0185786D03*
X0484228Y0196586D03*
X0481828Y0216386D03*
X0414928Y0222986D03*
X0375628Y0231086D03*
X0373228Y0244586D03*
X0366928Y0258686D03*
X0311728Y0170786D03*
X0303628Y0154886D03*
X0232228Y0124886D03*
X0230428Y0114986D03*
X0222028Y0111386D03*
X0214528Y0100586D03*
X0207328Y0093386D03*
X0199528Y0093386D03*
X0200128Y0086186D03*
X0188428Y0095786D03*
X0165028Y0081686D03*
X0153928Y0084086D03*
X0147028Y0079886D03*
X0192928Y0072386D03*
X0201928Y0072386D03*
X0213328Y0054986D03*
X0203728Y0051686D03*
X0197428Y0043286D03*
X0188428Y0043286D03*
X0174328Y0034886D03*
X0172228Y0026786D03*
X0167128Y0044486D03*
X0231628Y0030686D03*
X0251128Y0030686D03*
X0262828Y0023186D03*
X0268228Y0020786D03*
X0301828Y0043286D03*
X0279628Y0061586D03*
X0251128Y0059786D03*
X0230128Y0073886D03*
X0234928Y0078686D03*
X0242428Y0078086D03*
X0233128Y0084086D03*
X0227728Y0089486D03*
X0255328Y0096086D03*
X0257728Y0098486D03*
X0239728Y0111686D03*
X0322828Y0113786D03*
X0338728Y0107786D03*
X0345328Y0105086D03*
X0338728Y0098486D03*
X0333928Y0093986D03*
X0340228Y0091586D03*
X0364528Y0087986D03*
X0381928Y0090386D03*
X0378928Y0109886D03*
X0389728Y0108686D03*
X0394828Y0111086D03*
X0386128Y0125186D03*
X0394228Y0132386D03*
X0386128Y0140486D03*
X0423928Y0159086D03*
X0356728Y0108386D03*
X0234028Y0047186D03*
D23*
X0234028Y0064586D01*
X0257728Y0088286D01*
X0257728Y0090386D01*
X0288328Y0090386D01*
X0289528Y0089186D01*
X0341128Y0089186D01*
X0342328Y0090386D01*
X0381928Y0090386D01*
X0364528Y0087986D02*
X0306028Y0087986D01*
X0279628Y0061586D01*
X0277528Y0053786D02*
X0244828Y0021086D01*
X0195328Y0021086D01*
X0181528Y0034886D01*
X0174328Y0034886D01*
X0177028Y0036086D02*
X0197728Y0036086D01*
X0198928Y0034886D01*
X0222328Y0034886D01*
X0230128Y0027086D01*
X0233128Y0027086D01*
X0248728Y0042686D01*
X0248728Y0060686D01*
X0260428Y0072386D01*
X0284728Y0072386D01*
X0297628Y0085286D01*
X0287428Y0087986D02*
X0265228Y0087986D01*
X0247528Y0070286D01*
X0247528Y0043286D01*
X0232528Y0028286D01*
X0230728Y0028286D01*
X0222928Y0036086D01*
X0199528Y0036086D01*
X0181828Y0053786D01*
X0173128Y0053786D01*
X0147028Y0079886D01*
X0141328Y0084086D02*
X0153928Y0084086D01*
X0160228Y0083186D02*
X0160228Y0093686D01*
X0145528Y0108386D01*
X0136228Y0108386D01*
X0128428Y0116186D01*
X0120928Y0116186D01*
X0105928Y0131186D01*
X0094828Y0120686D02*
X0087328Y0128186D01*
X0087328Y0163586D01*
X0083428Y0167486D01*
X0083228Y0167586D01*
X0083128Y0167486D01*
X0074128Y0167486D01*
X0067228Y0160586D01*
X0058528Y0160586D01*
X0027628Y0191486D01*
X0024028Y0191486D01*
X0016828Y0203486D02*
X0009928Y0196586D01*
X0009928Y0188786D01*
X0090028Y0108686D01*
X0104128Y0108686D01*
X0110728Y0102086D01*
X0110728Y0095486D01*
X0113128Y0101486D02*
X0095128Y0119486D01*
X0092728Y0119486D01*
X0091228Y0120986D01*
X0094828Y0120686D02*
X0095728Y0120686D01*
X0114328Y0102086D01*
X0114328Y0081086D01*
X0124528Y0070886D01*
X0126028Y0070886D01*
X0144928Y0051986D01*
X0144928Y0050786D01*
X0177628Y0018086D01*
X0264028Y0018086D01*
X0266728Y0020786D01*
X0268228Y0020786D01*
X0264328Y0023186D02*
X0262828Y0023186D01*
X0264328Y0023186D02*
X0281128Y0039986D01*
X0298528Y0039986D01*
X0301828Y0043286D01*
X0313828Y0053786D02*
X0277528Y0053786D01*
X0251128Y0059786D02*
X0251128Y0030686D01*
X0231628Y0030686D02*
X0231628Y0063986D01*
X0255328Y0087686D01*
X0255328Y0096086D01*
X0257728Y0098486D02*
X0257728Y0090386D01*
X0239728Y0083486D02*
X0234928Y0078686D01*
X0242428Y0078086D02*
X0242428Y0076586D01*
X0212728Y0046886D01*
X0212728Y0042386D01*
X0210328Y0039986D01*
X0197428Y0039986D01*
X0173428Y0063986D01*
X0173428Y0069986D01*
X0160228Y0083186D01*
X0165028Y0081686D02*
X0174328Y0072386D01*
X0192928Y0072386D01*
X0201928Y0072386D02*
X0207328Y0072386D01*
X0208828Y0073886D01*
X0230128Y0073886D01*
X0233128Y0084086D02*
X0227728Y0089486D01*
X0223828Y0093386D01*
X0207328Y0093386D01*
X0199528Y0093386D02*
X0177928Y0093386D01*
X0161728Y0109586D01*
X0137128Y0109586D01*
X0128128Y0118586D01*
X0133828Y0116186D02*
X0183028Y0116186D01*
X0184828Y0114386D01*
X0192028Y0120986D02*
X0192028Y0100586D01*
X0189628Y0098186D01*
X0174928Y0098186D01*
X0159328Y0113786D01*
X0167728Y0124286D02*
X0138928Y0124286D01*
X0088528Y0174686D01*
X0069628Y0174686D01*
X0060928Y0183386D01*
X0060928Y0185186D01*
X0073828Y0198086D01*
X0073828Y0243086D01*
X0073887Y0243286D01*
X0068769Y0243286D02*
X0068728Y0243386D01*
X0068428Y0243686D01*
X0064528Y0243686D01*
X0074387Y0249786D02*
X0074428Y0249986D01*
X0078328Y0249986D01*
X0074387Y0257286D02*
X0074428Y0257486D01*
X0085828Y0257486D01*
X0090628Y0262286D01*
X0110428Y0262286D01*
X0116728Y0256886D02*
X0116532Y0256656D01*
X0116728Y0256886D02*
X0119428Y0256886D01*
X0122128Y0259586D01*
X0124528Y0259586D01*
X0144028Y0240086D01*
X0144028Y0173786D01*
X0145828Y0171986D01*
X0164128Y0171986D01*
X0170128Y0165986D01*
X0164428Y0168386D02*
X0162928Y0168386D01*
X0160528Y0170786D01*
X0145228Y0170786D01*
X0142828Y0173186D01*
X0142828Y0204086D01*
X0137428Y0209486D01*
X0135028Y0208586D02*
X0137428Y0206186D01*
X0137428Y0174986D01*
X0144028Y0168386D01*
X0150328Y0168386D01*
X0160828Y0157886D01*
X0173128Y0157886D01*
X0176728Y0154286D01*
X0176728Y0152786D01*
X0179428Y0150086D01*
X0180328Y0147686D02*
X0181828Y0149186D01*
X0181828Y0155486D01*
X0195628Y0169286D01*
X0234328Y0169286D01*
X0245728Y0163586D02*
X0232528Y0150386D01*
X0230428Y0150386D01*
X0220528Y0160286D01*
X0220528Y0160586D01*
X0212728Y0152786D01*
X0212728Y0153086D01*
X0210928Y0154886D01*
X0199528Y0154886D01*
X0198028Y0153386D01*
X0198028Y0151586D01*
X0199528Y0150086D01*
X0199828Y0150086D01*
X0201328Y0148586D01*
X0201328Y0146786D01*
X0198328Y0143786D01*
X0198028Y0140186D02*
X0197428Y0139586D01*
X0195628Y0139586D01*
X0190228Y0144986D01*
X0190228Y0147386D01*
X0186028Y0151286D02*
X0186028Y0142586D01*
X0167728Y0124286D01*
X0173128Y0132986D02*
X0161728Y0132986D01*
X0152728Y0141986D01*
X0150328Y0142886D02*
X0151828Y0144386D01*
X0178828Y0144386D01*
X0183028Y0148586D01*
X0183028Y0153386D01*
X0195328Y0165686D01*
X0196828Y0160586D02*
X0196828Y0149786D01*
X0198928Y0147686D01*
X0200428Y0152486D02*
X0207928Y0144986D01*
X0216028Y0144986D01*
X0218128Y0140186D02*
X0198028Y0140186D01*
X0190228Y0135386D02*
X0241528Y0135386D01*
X0243328Y0137186D01*
X0260428Y0137186D01*
X0258028Y0139586D02*
X0250828Y0139586D01*
X0258028Y0134786D02*
X0242728Y0134786D01*
X0241528Y0133586D01*
X0193228Y0133586D01*
X0192628Y0132986D01*
X0203428Y0132386D02*
X0192028Y0120986D01*
X0199228Y0124886D02*
X0232228Y0124886D01*
X0230428Y0114986D02*
X0246928Y0114986D01*
X0256228Y0124286D01*
X0263728Y0124286D01*
X0267328Y0120686D01*
X0299428Y0120686D01*
X0312928Y0134186D01*
X0343828Y0134186D01*
X0349228Y0139586D01*
X0350728Y0139586D01*
X0345028Y0137186D02*
X0293728Y0137186D01*
X0288328Y0142586D01*
X0282328Y0132086D02*
X0276928Y0137486D01*
X0276928Y0147386D01*
X0277828Y0149786D02*
X0295228Y0132386D01*
X0307828Y0132386D01*
X0322228Y0139586D02*
X0302428Y0159386D01*
X0271828Y0159386D01*
X0267928Y0159986D02*
X0273028Y0154886D01*
X0303628Y0154886D01*
X0301828Y0163586D02*
X0312928Y0152486D01*
X0344128Y0152486D01*
X0349828Y0150086D02*
X0333028Y0166886D01*
X0262828Y0166886D01*
X0207328Y0166886D01*
X0206128Y0168086D01*
X0204328Y0168086D01*
X0196828Y0160586D01*
X0192028Y0157286D02*
X0186028Y0151286D01*
X0179428Y0153386D02*
X0173728Y0159086D01*
X0170428Y0159086D01*
X0159928Y0169586D01*
X0144628Y0169586D01*
X0140428Y0173786D01*
X0140428Y0175886D01*
X0135028Y0177986D02*
X0135028Y0167486D01*
X0146428Y0156086D01*
X0146428Y0136286D01*
X0153328Y0129386D01*
X0155728Y0128486D02*
X0152728Y0125486D01*
X0139528Y0125486D01*
X0087328Y0177686D01*
X0087328Y0227486D01*
X0090028Y0230186D01*
X0105028Y0230186D01*
X0111928Y0223286D01*
X0116428Y0223286D01*
X0116532Y0223191D01*
X0116728Y0225086D02*
X0116532Y0225160D01*
X0116728Y0225086D02*
X0119128Y0225086D01*
X0123028Y0221186D01*
X0123028Y0215786D01*
X0125728Y0217886D02*
X0125728Y0220586D01*
X0119428Y0226886D01*
X0116728Y0226886D01*
X0116532Y0227128D01*
X0116728Y0228986D02*
X0116532Y0229097D01*
X0116728Y0228986D02*
X0121228Y0228986D01*
X0129028Y0221186D01*
X0131428Y0220286D02*
X0131428Y0245486D01*
X0133828Y0246386D02*
X0129928Y0250286D01*
X0123328Y0250286D01*
X0117028Y0250286D01*
X0116728Y0250586D01*
X0116532Y0250750D01*
X0117028Y0252386D02*
X0116728Y0252686D01*
X0116532Y0252719D01*
X0117028Y0252386D02*
X0122128Y0252386D01*
X0123478Y0253736D01*
X0123628Y0253586D01*
X0128428Y0253586D01*
X0135028Y0246986D01*
X0135028Y0208586D01*
X0133828Y0207986D02*
X0133828Y0246386D01*
X0121228Y0247586D02*
X0120328Y0247586D01*
X0119428Y0248486D01*
X0116728Y0248486D01*
X0116532Y0248782D01*
X0116532Y0254687D02*
X0116728Y0254786D01*
X0121228Y0254786D01*
X0123478Y0253736D02*
X0123628Y0253886D01*
X0123628Y0257186D01*
X0108628Y0272186D02*
X0074428Y0272186D01*
X0074387Y0272286D01*
X0074387Y0264786D02*
X0074428Y0264686D01*
X0083128Y0264686D01*
X0049228Y0249086D02*
X0023728Y0223586D01*
X0023728Y0213086D01*
X0019528Y0208886D01*
X0012328Y0208886D01*
X0008728Y0205286D01*
X0008728Y0185786D01*
X0028528Y0165986D01*
X0038428Y0156986D02*
X0084328Y0111086D01*
X0079228Y0108686D02*
X0008728Y0179186D01*
X0007528Y0183686D02*
X0072628Y0118586D01*
X0086128Y0122786D02*
X0092728Y0116186D01*
X0086128Y0122786D02*
X0086128Y0129986D01*
X0067228Y0148886D01*
X0066928Y0148886D01*
X0034828Y0180986D01*
X0051928Y0193586D02*
X0066028Y0193586D01*
X0066628Y0194186D01*
X0063328Y0184286D02*
X0070528Y0177086D01*
X0072328Y0177086D01*
X0076228Y0180986D01*
X0076228Y0206186D01*
X0084928Y0214886D01*
X0084928Y0215786D01*
X0091828Y0216686D02*
X0095728Y0212786D01*
X0095728Y0210986D01*
X0108928Y0197786D01*
X0116428Y0197786D01*
X0116532Y0197601D01*
X0116532Y0195632D02*
X0116428Y0195386D01*
X0113728Y0195386D01*
X0112528Y0194186D01*
X0099928Y0194186D01*
X0097528Y0190886D02*
X0097387Y0190786D01*
X0097528Y0190886D02*
X0111028Y0190886D01*
X0113728Y0193586D01*
X0116428Y0193586D01*
X0116532Y0193664D01*
X0116532Y0191695D02*
X0116428Y0191486D01*
X0113728Y0191486D01*
X0103228Y0180986D01*
X0097528Y0180986D01*
X0097387Y0180786D01*
X0094828Y0183386D02*
X0092428Y0180986D01*
X0092269Y0180786D01*
X0094828Y0183386D02*
X0094828Y0192686D01*
X0094528Y0192986D01*
X0094528Y0206186D01*
X0094428Y0206286D01*
X0098128Y0202586D02*
X0098128Y0198386D01*
X0098228Y0198286D01*
X0092269Y0190786D02*
X0092128Y0190586D01*
X0089728Y0188186D01*
X0089728Y0187286D01*
X0075028Y0183086D02*
X0071428Y0179486D01*
X0075028Y0183086D02*
X0075028Y0230486D01*
X0081628Y0237086D01*
X0084928Y0237086D01*
X0089728Y0232286D01*
X0104728Y0232286D01*
X0106528Y0230486D01*
X0112828Y0230486D01*
X0113128Y0230786D01*
X0116428Y0230786D01*
X0116532Y0231065D01*
X0116428Y0232886D02*
X0116532Y0233034D01*
X0116428Y0232886D02*
X0111928Y0232886D01*
X0116532Y0235002D02*
X0116728Y0234986D01*
X0119128Y0234986D01*
X0129028Y0225086D01*
X0131428Y0220286D02*
X0122728Y0211586D01*
X0122728Y0168386D01*
X0132328Y0158786D01*
X0132328Y0157286D01*
X0131428Y0163286D02*
X0143428Y0151286D01*
X0143428Y0132986D01*
X0144628Y0131786D01*
X0141928Y0131186D02*
X0141928Y0150986D01*
X0123928Y0168986D01*
X0123928Y0205886D01*
X0125128Y0207086D01*
X0131428Y0204086D02*
X0131428Y0181586D01*
X0135028Y0177986D01*
X0136228Y0169886D02*
X0136228Y0205586D01*
X0133828Y0207986D01*
X0102328Y0207686D02*
X0098428Y0211586D01*
X0098428Y0213086D01*
X0098228Y0213286D01*
X0091828Y0216686D02*
X0091828Y0227186D01*
X0091769Y0227286D01*
X0094528Y0225086D02*
X0096628Y0227186D01*
X0096887Y0227286D01*
X0094528Y0225086D02*
X0094528Y0221486D01*
X0094428Y0221286D01*
X0116532Y0236971D02*
X0116728Y0236786D01*
X0120628Y0236786D01*
X0121228Y0236186D01*
X0070528Y0171086D02*
X0034528Y0207086D01*
X0034528Y0207686D01*
X0016828Y0204786D02*
X0016828Y0203486D01*
X0007528Y0183686D02*
X0007528Y0242486D01*
X0009628Y0244586D01*
X0016828Y0244586D01*
X0016828Y0244786D01*
X0009928Y0241586D02*
X0016828Y0234686D01*
X0016828Y0234786D01*
X0030028Y0226286D02*
X0033328Y0226286D01*
X0034828Y0224786D01*
X0070528Y0171086D02*
X0070528Y0167186D01*
X0131428Y0164786D02*
X0131428Y0163286D01*
X0136228Y0169886D02*
X0148828Y0157286D01*
X0148828Y0137186D01*
X0150328Y0138986D02*
X0155728Y0133586D01*
X0155728Y0128486D01*
X0144628Y0128486D02*
X0141928Y0131186D01*
X0150328Y0138986D02*
X0150328Y0142886D01*
X0151228Y0152786D02*
X0173128Y0152786D01*
X0175528Y0153686D02*
X0175528Y0150686D01*
X0178528Y0147686D01*
X0180328Y0147686D01*
X0175528Y0153686D02*
X0174028Y0155186D01*
X0160828Y0155186D01*
X0149428Y0165986D02*
X0143428Y0165986D01*
X0205228Y0165686D02*
X0218728Y0165686D01*
X0231628Y0152786D01*
X0224428Y0147686D02*
X0217828Y0154286D01*
X0230128Y0143486D02*
X0230128Y0137786D01*
X0240628Y0137786D01*
X0243628Y0132386D02*
X0203428Y0132386D01*
X0212428Y0129986D02*
X0244528Y0129986D01*
X0246928Y0132386D01*
X0230128Y0137786D02*
X0215728Y0137786D01*
X0230128Y0143486D02*
X0249028Y0162386D01*
X0301228Y0162386D01*
X0320728Y0142886D01*
X0344128Y0142886D01*
X0344128Y0139586D02*
X0322228Y0139586D01*
X0345028Y0137186D02*
X0353428Y0145586D01*
X0353428Y0154886D01*
X0355828Y0155786D02*
X0355828Y0121586D01*
X0330628Y0096386D01*
X0290728Y0096386D01*
X0286978Y0092636D01*
X0288028Y0091586D01*
X0340228Y0091586D01*
X0338728Y0098486D02*
X0345328Y0105086D01*
X0345028Y0108386D02*
X0356728Y0108386D01*
X0369328Y0108386D01*
X0370828Y0109886D01*
X0378928Y0109886D01*
X0389728Y0108686D02*
X0483628Y0108686D01*
X0495628Y0096686D01*
X0495628Y0086786D01*
X0492028Y0083186D01*
X0492028Y0049886D01*
X0491828Y0049786D01*
X0491728Y0089786D02*
X0491828Y0089786D01*
X0491728Y0089786D02*
X0491728Y0098786D01*
X0485728Y0104786D01*
X0404328Y0104786D01*
X0399328Y0111086D02*
X0394828Y0111086D01*
X0399328Y0111086D02*
X0411328Y0123086D01*
X0411328Y0123686D01*
X0461728Y0174086D01*
X0461728Y0187286D01*
X0435928Y0213086D01*
X0435928Y0229886D01*
X0435728Y0230086D01*
X0434128Y0237086D02*
X0461128Y0237086D01*
X0481828Y0216386D01*
X0484228Y0213986D01*
X0484228Y0196586D01*
X0459328Y0185786D02*
X0447628Y0197486D01*
X0422728Y0197486D01*
X0407728Y0191186D02*
X0387928Y0191186D01*
X0385828Y0193286D01*
X0380428Y0193286D01*
X0378328Y0191186D01*
X0378328Y0188186D01*
X0379228Y0187286D01*
X0379228Y0186086D01*
X0373828Y0202586D02*
X0373228Y0203186D01*
X0373228Y0244586D01*
X0414928Y0222986D02*
X0420028Y0222986D01*
X0434128Y0237086D01*
X0355828Y0155786D02*
X0340828Y0170786D01*
X0311728Y0170786D01*
X0301828Y0163586D02*
X0245728Y0163586D01*
X0259528Y0159986D02*
X0267928Y0159986D01*
X0269728Y0152186D02*
X0288328Y0152186D01*
X0277828Y0149786D02*
X0275728Y0149786D01*
X0273628Y0147686D01*
X0269728Y0152186D02*
X0260128Y0142586D01*
X0232528Y0142586D01*
X0230428Y0114986D02*
X0228928Y0114986D01*
X0214528Y0100586D01*
X0205728Y0105086D02*
X0205528Y0105086D01*
X0196228Y0095786D01*
X0188428Y0095786D01*
X0146828Y0089786D02*
X0146728Y0089786D01*
X0146728Y0096086D01*
X0131728Y0111086D01*
X0130228Y0111086D01*
X0118528Y0108686D02*
X0118528Y0106886D01*
X0141328Y0084086D01*
X0113128Y0101486D02*
X0113128Y0065486D01*
X0151828Y0026786D01*
X0151828Y0023054D01*
X0168628Y0044486D02*
X0177028Y0036086D01*
X0168628Y0044486D02*
X0167128Y0044486D01*
X0239728Y0083486D02*
X0239728Y0111686D01*
X0273628Y0109886D02*
X0273628Y0105986D01*
X0286978Y0092636D01*
X0291928Y0093986D02*
X0330628Y0093986D01*
X0345028Y0108386D01*
X0330728Y0105086D02*
X0330628Y0105086D01*
X0323728Y0098186D01*
X0289228Y0098186D01*
X0297628Y0104486D02*
X0297628Y0109886D01*
X0291328Y0123086D02*
X0282328Y0132086D01*
X0351328Y0167786D02*
X0369628Y0167786D01*
X0386128Y0140486D02*
X0394228Y0132386D01*
X0393328Y0125186D02*
X0386128Y0125186D01*
X0393328Y0125186D02*
X0433228Y0165086D01*
X0435728Y0165086D01*
X0374328Y0074786D02*
X0334828Y0074786D01*
X0313828Y0053786D01*
X0099328Y0095486D02*
X0099328Y0104786D01*
X0099328Y0095486D02*
X0087028Y0083186D01*
X0087028Y0049886D01*
X0086828Y0049786D01*
M02*
