%
M48
M72
T01C0.01500
T02C0.03150
T03C0.03200
T04C0.03500
T05C0.03600
T06C0.03937
T07C0.04000
T08C0.05200
T09C0.08000
T10C0.20000
%
T01
X183900Y95686
X191700Y104686
X221700Y95686
X225900Y103786
X234900Y112186
X251400Y114586
X269400Y123286
X267600Y128086
X273300Y130486
X283800Y128986
X288000Y131386
X297900Y123586
X282000Y120886
X288300Y110986
X292800Y105586
X297900Y112486
X309900Y111586
X313500Y115786
X340500Y107986
X366000Y112486
X369000Y130186
X373800Y130486
X377100Y130486
X384900Y134986
X406200Y140386
X435600Y161986
X441300Y171286
X449100Y182086
X445500Y184786
X423600Y195586
X412200Y187786
X416400Y181186
X406500Y175786
X405600Y170386
X399000Y178186
X402600Y181186
X400200Y188086
X389400Y173386
X387600Y170386
X377100Y176386
X375300Y165586
X354000Y145186
X342900Y137086
X338100Y139486
X332700Y148186
X316200Y157786
X312900Y157786
X312900Y150586
X312300Y146686
X300600Y142786
X300600Y139486
X297900Y146686
X289800Y149086
X284400Y146986
X267600Y141886
X252300Y138886
X244200Y146686
X238500Y144286
X234900Y143986
X219900Y144286
X219900Y147586
X193200Y147886
X192300Y141886
X176400Y144286
X166800Y146686
X166200Y151486
X165300Y157186
X171000Y159586
X179100Y153286
X169200Y134086
X165900Y134086
X166500Y126886
X173100Y126886
X179700Y129286
X219900Y123286
X234900Y128086
X267600Y154186
X276000Y162586
X303000Y165586
X383700Y216586
X383700Y219886
X377700Y243586
X444900Y232486
X486300Y232786
X480600Y198286
X489000Y195286
X492000Y185386
X466500Y179086
X469200Y160186
X445200Y136186
X401400Y114586
X349200Y91786
X314400Y57886
X277500Y50386
X243600Y52786
X231000Y55186
X254400Y77386
X260400Y86686
X261900Y91486
X251100Y89086
X246900Y92086
X249600Y98086
X273000Y100186
X153300Y106186
X142200Y129286
X122700Y136786
X115500Y134086
X107100Y149086
X101400Y151486
X111300Y156286
X118500Y158686
X120000Y151486
X128400Y156286
X139500Y164686
X144000Y154786
X144300Y178186
X139800Y182986
X137100Y179086
X120900Y195886
X132300Y205486
X134700Y210886
X130800Y213586
X134700Y218386
X139800Y221986
X130800Y224386
X121200Y224986
X115800Y226786
X118500Y234286
X137400Y236986
X139500Y244486
X134100Y246586
X134100Y249886
X130800Y249886
X118800Y256786
X109500Y271186
X69900Y242686
X50400Y239086
X50400Y232186
X35400Y235786
X38100Y215686
X42900Y197086
X65100Y185086
X60600Y177586
X63600Y173986
X84300Y173686
X87600Y174886
X96300Y167386
X57000Y151786
X36300Y165286
X89100Y191086
X93300Y191386
X101400Y200986
X102600Y204286
X105000Y208486
X91500Y211186
X61800Y125686
T02
X176048Y66361
X149867Y48250
X140418Y53762
X178213Y36046
X160300Y23054
X338418Y53762
X347867Y48250
X376213Y36046
X358300Y23054
X374048Y66361
T03
X386300Y188786
X393800Y193786
X386300Y198786
T04
X26300Y53786
X26300Y93786
X101300Y93786
X101300Y53786
X410300Y52786
X410300Y92786
X485300Y92786
X485300Y52786
T05
X474100Y253786
X448500Y253786
T06
X328670Y44872
X299930Y44872
X299930Y25975
X328670Y25975
X218170Y25975
X189430Y25975
X189430Y44872
X218170Y44872
T07
X221800Y63286
X231800Y63286
X241800Y63286
X251800Y63286
X261800Y63286
X271800Y63286
X281800Y63286
X291800Y63286
T08
X375300Y215786
X375300Y230786
T09
X356300Y81286
X156300Y81286
T10
X121300Y49786
X391300Y49786
X411300Y248786
X101300Y248786
M30
