%
M48
M72
T01C0.01500
T02C0.03150
T03C0.03200
T04C0.03500
T05C0.03600
T06C0.03937
T07C0.04000
T08C0.07900
T09C0.08000
T10C0.20000
%
T01
X129000Y86986
X170400Y100186
X181500Y94786
X193800Y104686
X194700Y107986
X192600Y110686
X192900Y117886
X196200Y117886
X195600Y126886
X192300Y126886
X203400Y131386
X218400Y140386
X231900Y141886
X236100Y144286
X233700Y146686
X236700Y149086
X234300Y151486
X232200Y154186
X238200Y160186
X249000Y144286
X258600Y141586
X258000Y133486
X251400Y131086
X237900Y124186
X232200Y121786
X246300Y118486
X267600Y126286
X270300Y128686
X276000Y137386
X280800Y142186
X276000Y146086
X271200Y146086
X267600Y143086
X273600Y150886
X271200Y154486
X271200Y157786
X280500Y157786
X280800Y154486
X285300Y151486
X287400Y154186
X282300Y149086
X297900Y148786
X306900Y146986
X297900Y144586
X302100Y137686
X306900Y132886
X299700Y129886
X297900Y126886
X297900Y123586
X289200Y122986
X288900Y131086
X288900Y139186
X312900Y135286
X315300Y132886
X328500Y133186
X333900Y134086
X339900Y136486
X330900Y148786
X312900Y151486
X299100Y153886
X296700Y160186
X315600Y162586
X369300Y165586
X387600Y174886
X392400Y168586
X397800Y173386
X400500Y170986
X405900Y176086
X418500Y185386
X427200Y181786
X444000Y181786
X445200Y171886
X435600Y167686
X446100Y164086
X420600Y148186
X435600Y139486
X434400Y126586
X409200Y126586
X404400Y121786
X384900Y130186
X376200Y135586
X374400Y130186
X374100Y126886
X368400Y130186
X373800Y112486
X345300Y105286
X337800Y107686
X328500Y123886
X305700Y113386
X305700Y109186
X305100Y105886
X303600Y101086
X325500Y87886
X312600Y73486
X284100Y71086
X280800Y82186
X278400Y89986
X270300Y94786
X255900Y81886
X247200Y80686
X247200Y83986
X256500Y75586
X243900Y90586
X230400Y99886
X223500Y102286
X227700Y104686
X216000Y108586
X203100Y106186
X180300Y113386
X173100Y120586
X155100Y122986
X143700Y120586
X138600Y125686
X158400Y134686
X163500Y134686
X166800Y134686
X178200Y130786
X176400Y144286
X180600Y146686
X164100Y143686
X157500Y143686
X152100Y141886
X148800Y142486
X139800Y140086
X136500Y140086
X128400Y144886
X127500Y150586
X123600Y151186
X119700Y144886
X109800Y134386
X109800Y124186
X105000Y116986
X76800Y147586
X66000Y147586
X48000Y161086
X52800Y167086
X65400Y165886
X65400Y169186
X79800Y170086
X83100Y167086
X83100Y162886
X89100Y173686
X84600Y174886
X100200Y175186
X105000Y182686
X89100Y189886
X91500Y193486
X101400Y200986
X104700Y200986
X112800Y212086
X111600Y218086
X109200Y220486
X114300Y220186
X127500Y217186
X131400Y220786
X129000Y223186
X115500Y226786
X133800Y240586
X125700Y244786
X125700Y253186
X116400Y259186
X106200Y269386
X102300Y266686
X91500Y263686
X83400Y266686
X70200Y268786
X70200Y262186
X82500Y248086
X81900Y244786
X69900Y242686
X82800Y235486
X50400Y232186
X50100Y239086
X87600Y212386
X77100Y200986
X68700Y192586
X57000Y184786
X42900Y194086
X39000Y206686
X104100Y167986
X109800Y170086
X126000Y162886
X104700Y153586
X97500Y148486
X204000Y151486
X206400Y149086
X273300Y107686
X210900Y89686
X206700Y69286
X205500Y60586
X231900Y52786
X263700Y49186
X270300Y35986
X294600Y38686
X290700Y52786
X287400Y52786
X326400Y36286
X362100Y69886
X405900Y61486
X403800Y141286
X391200Y145786
X398700Y153286
X417000Y161086
X463800Y184786
X468000Y197986
X449700Y198886
X401400Y192586
X396300Y198586
X445800Y228886
X383100Y253186
X201600Y40786
T02
X178213Y36046
X160300Y23054
X149867Y48250
X140418Y53762
X176048Y66361
X335918Y53762
X345367Y48250
X373713Y36046
X355800Y23054
X371548Y66361
T03
X386300Y188786
X393800Y193786
X386300Y198786
T04
X26300Y53786
X26300Y93786
X101300Y93786
X101300Y53786
X410300Y52786
X410300Y92786
X485300Y92786
X485300Y52786
T05
X474100Y253786
X448500Y253786
T06
X326170Y45872
X297430Y45872
X297430Y26975
X326170Y26975
X218170Y26975
X218170Y45872
X189430Y45872
X189430Y26975
T07
X221800Y63286
X231800Y63286
X241800Y63286
X251800Y63286
X261800Y63286
X271800Y63286
X281800Y63286
X291800Y63286
T08
X380300Y215786
X380300Y233286
T09
X356300Y81286
X156300Y81286
T10
X121300Y49786
X391300Y49786
X411300Y248786
X101300Y248786
M30
