%
M48
M72
T01C0.01500
T02C0.03150
T03C0.03200
T04C0.03500
T05C0.03600
T06C0.03937
T07C0.04000
T08C0.25000
%
T01
X117100Y79304
X114400Y88904
X111700Y97004
X104500Y100604
X121600Y118004
X130300Y118004
X112600Y121904
X107200Y135104
X106600Y139004
X112600Y145004
X115300Y150704
X111100Y152204
X110500Y156704
X118900Y156104
X117100Y164504
X111700Y166304
X115300Y174104
X109600Y175904
X101800Y181004
X102400Y189104
X100300Y194804
X96400Y195104
X97300Y201704
X91000Y202904
X105100Y203504
X105400Y207404
X103000Y217604
X95800Y215804
X110800Y223304
X105700Y228404
X108400Y235004
X97300Y233804
X87100Y233504
X91000Y242204
X104500Y248204
X108400Y244304
X110800Y247304
X110800Y254804
X120700Y254504
X120700Y250604
X120700Y246704
X129100Y242204
X134500Y240704
X123100Y239204
X136900Y230504
X125800Y218804
X131800Y211304
X145900Y191204
X149800Y191204
X159100Y185504
X153700Y183404
X164500Y189104
X172600Y182804
X174100Y177404
X181900Y172904
X185500Y180104
X192100Y174704
X199000Y170804
X199600Y165404
X191500Y161504
X199600Y157004
X196900Y147704
X190900Y145304
X191500Y138704
X176200Y147104
X176200Y156404
X181000Y158804
X159100Y174404
X148600Y166604
X135400Y161804
X132700Y159104
X133300Y142904
X141400Y141704
X147700Y133904
X156700Y143804
X166900Y135404
X171700Y132704
X161800Y119804
X152500Y118004
X162100Y106004
X144400Y97004
X144400Y92804
X149800Y91604
X135700Y99704
X184300Y111104
X210100Y97904
X195400Y82004
X187300Y82004
X155800Y64604
X160300Y56504
X173800Y57104
X173800Y46604
X230200Y54104
X238600Y51704
X242500Y59204
X242500Y63104
X242200Y70304
X239500Y73004
X236800Y85604
X239500Y92504
X251200Y97004
X251800Y101504
X255700Y115004
X237400Y118304
X231400Y117104
X227500Y117104
X227500Y124304
X211300Y117104
X234700Y138404
X231100Y143804
X226600Y146504
X232900Y149204
X228400Y151904
X225400Y154304
X223600Y159704
X226600Y162704
X239200Y168104
X239200Y176804
X229300Y179504
X220300Y182504
X217600Y175904
X212800Y170804
X199600Y180104
X186700Y191804
X138700Y183704
X137800Y187604
X125800Y182804
X123100Y185504
X88900Y186704
X77500Y178604
X61600Y178604
X56800Y187004
X72100Y196304
X78700Y196304
X76900Y212804
X76600Y219404
X70000Y227204
X70000Y231104
X74500Y239204
X65500Y242504
X57100Y239204
X55000Y244904
X52900Y232604
X58000Y218804
X38800Y215804
X29500Y222704
X33400Y207704
X22900Y195404
X8800Y192704
X13300Y208604
X33400Y184904
X43900Y174404
X43000Y168404
X49600Y164804
X43000Y162104
X43000Y151304
X45700Y146804
X62200Y141104
X68200Y135104
X76300Y132404
X63100Y151304
X67900Y156704
X61300Y171104
X124900Y135104
X129400Y134204
X219100Y141104
X243700Y143804
X247300Y135704
X252700Y131804
X250000Y127604
X261100Y136604
X268000Y144404
X272200Y145004
X284500Y143204
X289900Y142904
X273700Y132104
X274900Y125804
X272500Y120704
X289000Y116204
X320500Y114104
X323200Y116804
X329500Y144104
X330700Y150104
X336700Y149204
X339400Y146504
X343000Y158504
X336700Y168404
X330700Y161204
X322600Y162404
X304900Y171104
X310000Y176204
X329800Y178904
X361900Y156704
X362500Y152804
X370300Y162104
X382900Y150104
X387700Y149204
X373000Y141404
X370000Y119804
X415600Y142304
X431800Y142604
X391600Y172304
X387700Y172304
X386800Y189704
X394900Y192404
X392500Y195404
X384400Y197504
X386500Y205004
X406600Y216104
X415600Y216104
X426100Y215504
X436300Y214904
X460000Y223904
X465400Y214904
X460900Y186704
X431500Y244904
X424600Y250304
X379300Y256604
X376600Y280904
X266800Y181904
X263200Y184604
X256900Y184604
X253000Y184604
X257800Y169304
X252700Y166604
X253600Y159104
X244000Y151304
X252700Y148604
X256600Y148604
X271000Y156404
X271300Y161804
X274300Y164204
X271300Y171104
X283000Y178604
X286900Y174704
X286900Y160904
X283000Y161204
X283000Y157304
X278200Y88604
X278200Y82904
X303400Y82904
X308200Y65204
X259600Y64304
X259600Y58004
X254800Y52604
X73900Y246704
X120700Y259004
X121900Y270704
X120700Y278204
X110800Y284504
X107800Y287804
X54400Y292604
T02
X166748Y88279
X140567Y70169
X131118Y75680
X168913Y57964
X151000Y44972
X331118Y75680
X340567Y70169
X368913Y57964
X351000Y44972
X366748Y88279
T03
X381000Y211704
X388500Y216704
X381000Y221704
X166000Y111704
X156000Y111704
X146000Y111704
T04
X11000Y71704
X11000Y111704
X86000Y111704
X86000Y71704
X416000Y71704
X416000Y111704
X491000Y111704
X491000Y71704
T05
X468800Y276704
X443200Y276704
T06
X320370Y68791
X291630Y68791
X291630Y49893
X320370Y49893
X207870Y49893
X207870Y68791
X179130Y68791
X179130Y49893
T07
X126000Y96704
X96000Y96704
X96000Y126704
X96000Y146704
X82400Y163904
X96000Y166704
X126000Y166704
X126000Y146704
X126000Y126704
X187100Y127004
X204900Y127004
X204900Y101404
X187100Y101404
X264600Y101404
X282400Y101404
X312100Y101404
X329900Y101404
X329900Y127004
X312100Y127004
X282400Y127004
X264600Y127004
X376000Y126704
X376000Y146704
X406000Y146704
X417100Y161404
X406000Y166704
X417100Y187004
X434900Y187004
X434900Y161404
X406000Y126704
X406000Y96704
X376000Y96704
X376000Y166704
X417100Y226404
X434900Y226404
X434900Y252004
X417100Y252004
X82400Y252004
X64600Y252004
X64600Y226404
X82400Y226404
X82400Y189504
X64600Y189504
X64600Y163904
X16000Y216704
X16000Y226704
X16000Y236704
X16000Y246704
X16000Y256704
X16000Y266704
X16000Y276704
X16000Y286704
T08
X96000Y269204
X401000Y269204
M30
