G75*
%MOIN*%
%OFA0B0*%
%FSLAX25Y25*%
%IPPOS*%
%LPD*%
%AMOC8*
5,1,8,0,0,1.08239X$1,22.5*
%
%ADD10C,0.00000*%
%ADD11C,0.00400*%
%ADD12C,0.00600*%
%ADD13C,0.00200*%
%ADD14C,0.00500*%
%ADD15C,0.00800*%
D10*
X0001000Y0036704D02*
X0001000Y0305405D01*
X0500921Y0305405D01*
X0500921Y0036704D01*
X0001000Y0036704D01*
X0083500Y0269204D02*
X0083504Y0269511D01*
X0083515Y0269817D01*
X0083534Y0270124D01*
X0083560Y0270429D01*
X0083594Y0270734D01*
X0083635Y0271038D01*
X0083684Y0271341D01*
X0083740Y0271643D01*
X0083804Y0271943D01*
X0083875Y0272241D01*
X0083953Y0272538D01*
X0084038Y0272833D01*
X0084131Y0273125D01*
X0084231Y0273415D01*
X0084338Y0273703D01*
X0084452Y0273988D01*
X0084572Y0274270D01*
X0084700Y0274548D01*
X0084835Y0274824D01*
X0084976Y0275096D01*
X0085124Y0275365D01*
X0085278Y0275630D01*
X0085439Y0275891D01*
X0085607Y0276149D01*
X0085780Y0276402D01*
X0085960Y0276650D01*
X0086146Y0276894D01*
X0086337Y0277134D01*
X0086535Y0277369D01*
X0086738Y0277598D01*
X0086947Y0277823D01*
X0087161Y0278043D01*
X0087381Y0278257D01*
X0087606Y0278466D01*
X0087835Y0278669D01*
X0088070Y0278867D01*
X0088310Y0279058D01*
X0088554Y0279244D01*
X0088802Y0279424D01*
X0089055Y0279597D01*
X0089313Y0279765D01*
X0089574Y0279926D01*
X0089839Y0280080D01*
X0090108Y0280228D01*
X0090380Y0280369D01*
X0090656Y0280504D01*
X0090934Y0280632D01*
X0091216Y0280752D01*
X0091501Y0280866D01*
X0091789Y0280973D01*
X0092079Y0281073D01*
X0092371Y0281166D01*
X0092666Y0281251D01*
X0092963Y0281329D01*
X0093261Y0281400D01*
X0093561Y0281464D01*
X0093863Y0281520D01*
X0094166Y0281569D01*
X0094470Y0281610D01*
X0094775Y0281644D01*
X0095080Y0281670D01*
X0095387Y0281689D01*
X0095693Y0281700D01*
X0096000Y0281704D01*
X0096307Y0281700D01*
X0096613Y0281689D01*
X0096920Y0281670D01*
X0097225Y0281644D01*
X0097530Y0281610D01*
X0097834Y0281569D01*
X0098137Y0281520D01*
X0098439Y0281464D01*
X0098739Y0281400D01*
X0099037Y0281329D01*
X0099334Y0281251D01*
X0099629Y0281166D01*
X0099921Y0281073D01*
X0100211Y0280973D01*
X0100499Y0280866D01*
X0100784Y0280752D01*
X0101066Y0280632D01*
X0101344Y0280504D01*
X0101620Y0280369D01*
X0101892Y0280228D01*
X0102161Y0280080D01*
X0102426Y0279926D01*
X0102687Y0279765D01*
X0102945Y0279597D01*
X0103198Y0279424D01*
X0103446Y0279244D01*
X0103690Y0279058D01*
X0103930Y0278867D01*
X0104165Y0278669D01*
X0104394Y0278466D01*
X0104619Y0278257D01*
X0104839Y0278043D01*
X0105053Y0277823D01*
X0105262Y0277598D01*
X0105465Y0277369D01*
X0105663Y0277134D01*
X0105854Y0276894D01*
X0106040Y0276650D01*
X0106220Y0276402D01*
X0106393Y0276149D01*
X0106561Y0275891D01*
X0106722Y0275630D01*
X0106876Y0275365D01*
X0107024Y0275096D01*
X0107165Y0274824D01*
X0107300Y0274548D01*
X0107428Y0274270D01*
X0107548Y0273988D01*
X0107662Y0273703D01*
X0107769Y0273415D01*
X0107869Y0273125D01*
X0107962Y0272833D01*
X0108047Y0272538D01*
X0108125Y0272241D01*
X0108196Y0271943D01*
X0108260Y0271643D01*
X0108316Y0271341D01*
X0108365Y0271038D01*
X0108406Y0270734D01*
X0108440Y0270429D01*
X0108466Y0270124D01*
X0108485Y0269817D01*
X0108496Y0269511D01*
X0108500Y0269204D01*
X0108496Y0268897D01*
X0108485Y0268591D01*
X0108466Y0268284D01*
X0108440Y0267979D01*
X0108406Y0267674D01*
X0108365Y0267370D01*
X0108316Y0267067D01*
X0108260Y0266765D01*
X0108196Y0266465D01*
X0108125Y0266167D01*
X0108047Y0265870D01*
X0107962Y0265575D01*
X0107869Y0265283D01*
X0107769Y0264993D01*
X0107662Y0264705D01*
X0107548Y0264420D01*
X0107428Y0264138D01*
X0107300Y0263860D01*
X0107165Y0263584D01*
X0107024Y0263312D01*
X0106876Y0263043D01*
X0106722Y0262778D01*
X0106561Y0262517D01*
X0106393Y0262259D01*
X0106220Y0262006D01*
X0106040Y0261758D01*
X0105854Y0261514D01*
X0105663Y0261274D01*
X0105465Y0261039D01*
X0105262Y0260810D01*
X0105053Y0260585D01*
X0104839Y0260365D01*
X0104619Y0260151D01*
X0104394Y0259942D01*
X0104165Y0259739D01*
X0103930Y0259541D01*
X0103690Y0259350D01*
X0103446Y0259164D01*
X0103198Y0258984D01*
X0102945Y0258811D01*
X0102687Y0258643D01*
X0102426Y0258482D01*
X0102161Y0258328D01*
X0101892Y0258180D01*
X0101620Y0258039D01*
X0101344Y0257904D01*
X0101066Y0257776D01*
X0100784Y0257656D01*
X0100499Y0257542D01*
X0100211Y0257435D01*
X0099921Y0257335D01*
X0099629Y0257242D01*
X0099334Y0257157D01*
X0099037Y0257079D01*
X0098739Y0257008D01*
X0098439Y0256944D01*
X0098137Y0256888D01*
X0097834Y0256839D01*
X0097530Y0256798D01*
X0097225Y0256764D01*
X0096920Y0256738D01*
X0096613Y0256719D01*
X0096307Y0256708D01*
X0096000Y0256704D01*
X0095693Y0256708D01*
X0095387Y0256719D01*
X0095080Y0256738D01*
X0094775Y0256764D01*
X0094470Y0256798D01*
X0094166Y0256839D01*
X0093863Y0256888D01*
X0093561Y0256944D01*
X0093261Y0257008D01*
X0092963Y0257079D01*
X0092666Y0257157D01*
X0092371Y0257242D01*
X0092079Y0257335D01*
X0091789Y0257435D01*
X0091501Y0257542D01*
X0091216Y0257656D01*
X0090934Y0257776D01*
X0090656Y0257904D01*
X0090380Y0258039D01*
X0090108Y0258180D01*
X0089839Y0258328D01*
X0089574Y0258482D01*
X0089313Y0258643D01*
X0089055Y0258811D01*
X0088802Y0258984D01*
X0088554Y0259164D01*
X0088310Y0259350D01*
X0088070Y0259541D01*
X0087835Y0259739D01*
X0087606Y0259942D01*
X0087381Y0260151D01*
X0087161Y0260365D01*
X0086947Y0260585D01*
X0086738Y0260810D01*
X0086535Y0261039D01*
X0086337Y0261274D01*
X0086146Y0261514D01*
X0085960Y0261758D01*
X0085780Y0262006D01*
X0085607Y0262259D01*
X0085439Y0262517D01*
X0085278Y0262778D01*
X0085124Y0263043D01*
X0084976Y0263312D01*
X0084835Y0263584D01*
X0084700Y0263860D01*
X0084572Y0264138D01*
X0084452Y0264420D01*
X0084338Y0264705D01*
X0084231Y0264993D01*
X0084131Y0265283D01*
X0084038Y0265575D01*
X0083953Y0265870D01*
X0083875Y0266167D01*
X0083804Y0266465D01*
X0083740Y0266765D01*
X0083684Y0267067D01*
X0083635Y0267370D01*
X0083594Y0267674D01*
X0083560Y0267979D01*
X0083534Y0268284D01*
X0083515Y0268591D01*
X0083504Y0268897D01*
X0083500Y0269204D01*
X0388500Y0269204D02*
X0388504Y0269511D01*
X0388515Y0269817D01*
X0388534Y0270124D01*
X0388560Y0270429D01*
X0388594Y0270734D01*
X0388635Y0271038D01*
X0388684Y0271341D01*
X0388740Y0271643D01*
X0388804Y0271943D01*
X0388875Y0272241D01*
X0388953Y0272538D01*
X0389038Y0272833D01*
X0389131Y0273125D01*
X0389231Y0273415D01*
X0389338Y0273703D01*
X0389452Y0273988D01*
X0389572Y0274270D01*
X0389700Y0274548D01*
X0389835Y0274824D01*
X0389976Y0275096D01*
X0390124Y0275365D01*
X0390278Y0275630D01*
X0390439Y0275891D01*
X0390607Y0276149D01*
X0390780Y0276402D01*
X0390960Y0276650D01*
X0391146Y0276894D01*
X0391337Y0277134D01*
X0391535Y0277369D01*
X0391738Y0277598D01*
X0391947Y0277823D01*
X0392161Y0278043D01*
X0392381Y0278257D01*
X0392606Y0278466D01*
X0392835Y0278669D01*
X0393070Y0278867D01*
X0393310Y0279058D01*
X0393554Y0279244D01*
X0393802Y0279424D01*
X0394055Y0279597D01*
X0394313Y0279765D01*
X0394574Y0279926D01*
X0394839Y0280080D01*
X0395108Y0280228D01*
X0395380Y0280369D01*
X0395656Y0280504D01*
X0395934Y0280632D01*
X0396216Y0280752D01*
X0396501Y0280866D01*
X0396789Y0280973D01*
X0397079Y0281073D01*
X0397371Y0281166D01*
X0397666Y0281251D01*
X0397963Y0281329D01*
X0398261Y0281400D01*
X0398561Y0281464D01*
X0398863Y0281520D01*
X0399166Y0281569D01*
X0399470Y0281610D01*
X0399775Y0281644D01*
X0400080Y0281670D01*
X0400387Y0281689D01*
X0400693Y0281700D01*
X0401000Y0281704D01*
X0401307Y0281700D01*
X0401613Y0281689D01*
X0401920Y0281670D01*
X0402225Y0281644D01*
X0402530Y0281610D01*
X0402834Y0281569D01*
X0403137Y0281520D01*
X0403439Y0281464D01*
X0403739Y0281400D01*
X0404037Y0281329D01*
X0404334Y0281251D01*
X0404629Y0281166D01*
X0404921Y0281073D01*
X0405211Y0280973D01*
X0405499Y0280866D01*
X0405784Y0280752D01*
X0406066Y0280632D01*
X0406344Y0280504D01*
X0406620Y0280369D01*
X0406892Y0280228D01*
X0407161Y0280080D01*
X0407426Y0279926D01*
X0407687Y0279765D01*
X0407945Y0279597D01*
X0408198Y0279424D01*
X0408446Y0279244D01*
X0408690Y0279058D01*
X0408930Y0278867D01*
X0409165Y0278669D01*
X0409394Y0278466D01*
X0409619Y0278257D01*
X0409839Y0278043D01*
X0410053Y0277823D01*
X0410262Y0277598D01*
X0410465Y0277369D01*
X0410663Y0277134D01*
X0410854Y0276894D01*
X0411040Y0276650D01*
X0411220Y0276402D01*
X0411393Y0276149D01*
X0411561Y0275891D01*
X0411722Y0275630D01*
X0411876Y0275365D01*
X0412024Y0275096D01*
X0412165Y0274824D01*
X0412300Y0274548D01*
X0412428Y0274270D01*
X0412548Y0273988D01*
X0412662Y0273703D01*
X0412769Y0273415D01*
X0412869Y0273125D01*
X0412962Y0272833D01*
X0413047Y0272538D01*
X0413125Y0272241D01*
X0413196Y0271943D01*
X0413260Y0271643D01*
X0413316Y0271341D01*
X0413365Y0271038D01*
X0413406Y0270734D01*
X0413440Y0270429D01*
X0413466Y0270124D01*
X0413485Y0269817D01*
X0413496Y0269511D01*
X0413500Y0269204D01*
X0413496Y0268897D01*
X0413485Y0268591D01*
X0413466Y0268284D01*
X0413440Y0267979D01*
X0413406Y0267674D01*
X0413365Y0267370D01*
X0413316Y0267067D01*
X0413260Y0266765D01*
X0413196Y0266465D01*
X0413125Y0266167D01*
X0413047Y0265870D01*
X0412962Y0265575D01*
X0412869Y0265283D01*
X0412769Y0264993D01*
X0412662Y0264705D01*
X0412548Y0264420D01*
X0412428Y0264138D01*
X0412300Y0263860D01*
X0412165Y0263584D01*
X0412024Y0263312D01*
X0411876Y0263043D01*
X0411722Y0262778D01*
X0411561Y0262517D01*
X0411393Y0262259D01*
X0411220Y0262006D01*
X0411040Y0261758D01*
X0410854Y0261514D01*
X0410663Y0261274D01*
X0410465Y0261039D01*
X0410262Y0260810D01*
X0410053Y0260585D01*
X0409839Y0260365D01*
X0409619Y0260151D01*
X0409394Y0259942D01*
X0409165Y0259739D01*
X0408930Y0259541D01*
X0408690Y0259350D01*
X0408446Y0259164D01*
X0408198Y0258984D01*
X0407945Y0258811D01*
X0407687Y0258643D01*
X0407426Y0258482D01*
X0407161Y0258328D01*
X0406892Y0258180D01*
X0406620Y0258039D01*
X0406344Y0257904D01*
X0406066Y0257776D01*
X0405784Y0257656D01*
X0405499Y0257542D01*
X0405211Y0257435D01*
X0404921Y0257335D01*
X0404629Y0257242D01*
X0404334Y0257157D01*
X0404037Y0257079D01*
X0403739Y0257008D01*
X0403439Y0256944D01*
X0403137Y0256888D01*
X0402834Y0256839D01*
X0402530Y0256798D01*
X0402225Y0256764D01*
X0401920Y0256738D01*
X0401613Y0256719D01*
X0401307Y0256708D01*
X0401000Y0256704D01*
X0400693Y0256708D01*
X0400387Y0256719D01*
X0400080Y0256738D01*
X0399775Y0256764D01*
X0399470Y0256798D01*
X0399166Y0256839D01*
X0398863Y0256888D01*
X0398561Y0256944D01*
X0398261Y0257008D01*
X0397963Y0257079D01*
X0397666Y0257157D01*
X0397371Y0257242D01*
X0397079Y0257335D01*
X0396789Y0257435D01*
X0396501Y0257542D01*
X0396216Y0257656D01*
X0395934Y0257776D01*
X0395656Y0257904D01*
X0395380Y0258039D01*
X0395108Y0258180D01*
X0394839Y0258328D01*
X0394574Y0258482D01*
X0394313Y0258643D01*
X0394055Y0258811D01*
X0393802Y0258984D01*
X0393554Y0259164D01*
X0393310Y0259350D01*
X0393070Y0259541D01*
X0392835Y0259739D01*
X0392606Y0259942D01*
X0392381Y0260151D01*
X0392161Y0260365D01*
X0391947Y0260585D01*
X0391738Y0260810D01*
X0391535Y0261039D01*
X0391337Y0261274D01*
X0391146Y0261514D01*
X0390960Y0261758D01*
X0390780Y0262006D01*
X0390607Y0262259D01*
X0390439Y0262517D01*
X0390278Y0262778D01*
X0390124Y0263043D01*
X0389976Y0263312D01*
X0389835Y0263584D01*
X0389700Y0263860D01*
X0389572Y0264138D01*
X0389452Y0264420D01*
X0389338Y0264705D01*
X0389231Y0264993D01*
X0389131Y0265283D01*
X0389038Y0265575D01*
X0388953Y0265870D01*
X0388875Y0266167D01*
X0388804Y0266465D01*
X0388740Y0266765D01*
X0388684Y0267067D01*
X0388635Y0267370D01*
X0388594Y0267674D01*
X0388560Y0267979D01*
X0388534Y0268284D01*
X0388515Y0268591D01*
X0388504Y0268897D01*
X0388500Y0269204D01*
D11*
X0112178Y0289557D02*
X0107578Y0292624D01*
X0107578Y0294313D02*
X0107578Y0296869D01*
X0107578Y0295591D02*
X0112178Y0295591D01*
X0111156Y0294313D01*
X0112178Y0292624D02*
X0107578Y0289557D01*
X0098300Y0256504D02*
X0097022Y0256504D01*
X0096952Y0256502D01*
X0096881Y0256496D01*
X0096812Y0256487D01*
X0096743Y0256473D01*
X0096674Y0256456D01*
X0096607Y0256435D01*
X0096541Y0256410D01*
X0096477Y0256382D01*
X0096414Y0256350D01*
X0096353Y0256315D01*
X0096294Y0256276D01*
X0096237Y0256235D01*
X0096183Y0256190D01*
X0096131Y0256142D01*
X0096082Y0256092D01*
X0096035Y0256038D01*
X0095992Y0255983D01*
X0095952Y0255925D01*
X0095915Y0255865D01*
X0095882Y0255803D01*
X0095852Y0255739D01*
X0095825Y0255674D01*
X0095802Y0255608D01*
X0095783Y0255540D01*
X0095768Y0255471D01*
X0095756Y0255402D01*
X0095748Y0255332D01*
X0095744Y0255261D01*
X0095744Y0255191D01*
X0095748Y0255120D01*
X0095756Y0255050D01*
X0095768Y0254981D01*
X0095783Y0254912D01*
X0095802Y0254844D01*
X0095825Y0254778D01*
X0095852Y0254713D01*
X0095882Y0254649D01*
X0095915Y0254587D01*
X0095952Y0254527D01*
X0095992Y0254469D01*
X0096035Y0254414D01*
X0096082Y0254360D01*
X0096131Y0254310D01*
X0096183Y0254262D01*
X0096237Y0254217D01*
X0096294Y0254176D01*
X0096353Y0254137D01*
X0096414Y0254102D01*
X0096477Y0254070D01*
X0096541Y0254042D01*
X0096607Y0254017D01*
X0096674Y0253996D01*
X0096743Y0253979D01*
X0096812Y0253965D01*
X0096881Y0253956D01*
X0096952Y0253950D01*
X0097022Y0253948D01*
X0098300Y0253948D01*
X0096767Y0253948D02*
X0095744Y0251904D01*
X0093829Y0252926D02*
X0091273Y0252926D01*
X0092040Y0253948D02*
X0092040Y0251904D01*
X0093829Y0252926D02*
X0092807Y0256504D01*
X0089329Y0255482D02*
X0088051Y0256504D01*
X0088051Y0251904D01*
X0089329Y0251904D02*
X0086773Y0251904D01*
X0098300Y0251904D02*
X0098300Y0256504D01*
X0098300Y0241504D02*
X0093700Y0240226D01*
X0097789Y0238948D02*
X0098300Y0238948D01*
X0098300Y0241504D01*
X0098300Y0235982D02*
X0098300Y0234448D01*
X0098300Y0235982D02*
X0098298Y0236045D01*
X0098292Y0236108D01*
X0098283Y0236170D01*
X0098269Y0236231D01*
X0098252Y0236292D01*
X0098231Y0236351D01*
X0098206Y0236409D01*
X0098178Y0236466D01*
X0098147Y0236520D01*
X0098112Y0236572D01*
X0098074Y0236623D01*
X0098033Y0236671D01*
X0097989Y0236716D01*
X0097943Y0236758D01*
X0097894Y0236798D01*
X0097843Y0236834D01*
X0097789Y0236867D01*
X0097734Y0236897D01*
X0097676Y0236923D01*
X0097618Y0236946D01*
X0097558Y0236965D01*
X0097497Y0236980D01*
X0097435Y0236992D01*
X0097372Y0237000D01*
X0097309Y0237004D01*
X0097247Y0237004D01*
X0097184Y0237000D01*
X0097121Y0236992D01*
X0097059Y0236980D01*
X0096998Y0236965D01*
X0096938Y0236946D01*
X0096880Y0236923D01*
X0096822Y0236897D01*
X0096767Y0236867D01*
X0096713Y0236834D01*
X0096662Y0236798D01*
X0096613Y0236758D01*
X0096567Y0236716D01*
X0096523Y0236671D01*
X0096482Y0236623D01*
X0096444Y0236572D01*
X0096409Y0236520D01*
X0096378Y0236466D01*
X0096350Y0236409D01*
X0096325Y0236351D01*
X0096304Y0236292D01*
X0096287Y0236231D01*
X0096273Y0236170D01*
X0096264Y0236108D01*
X0096258Y0236045D01*
X0096256Y0235982D01*
X0096256Y0234960D01*
X0096256Y0235726D02*
X0096254Y0235796D01*
X0096248Y0235867D01*
X0096239Y0235936D01*
X0096225Y0236005D01*
X0096208Y0236074D01*
X0096187Y0236141D01*
X0096162Y0236207D01*
X0096134Y0236271D01*
X0096102Y0236334D01*
X0096067Y0236395D01*
X0096028Y0236454D01*
X0095987Y0236511D01*
X0095942Y0236565D01*
X0095894Y0236617D01*
X0095844Y0236666D01*
X0095790Y0236713D01*
X0095735Y0236756D01*
X0095677Y0236796D01*
X0095617Y0236833D01*
X0095555Y0236866D01*
X0095491Y0236896D01*
X0095426Y0236923D01*
X0095360Y0236946D01*
X0095292Y0236965D01*
X0095223Y0236980D01*
X0095154Y0236992D01*
X0095084Y0237000D01*
X0095013Y0237004D01*
X0094943Y0237004D01*
X0094872Y0237000D01*
X0094802Y0236992D01*
X0094733Y0236980D01*
X0094664Y0236965D01*
X0094596Y0236946D01*
X0094530Y0236923D01*
X0094465Y0236896D01*
X0094401Y0236866D01*
X0094339Y0236833D01*
X0094279Y0236796D01*
X0094221Y0236756D01*
X0094166Y0236713D01*
X0094112Y0236666D01*
X0094062Y0236617D01*
X0094014Y0236565D01*
X0093969Y0236511D01*
X0093928Y0236454D01*
X0093889Y0236395D01*
X0093854Y0236334D01*
X0093822Y0236271D01*
X0093794Y0236207D01*
X0093769Y0236141D01*
X0093748Y0236074D01*
X0093731Y0236005D01*
X0093717Y0235936D01*
X0093708Y0235867D01*
X0093702Y0235796D01*
X0093700Y0235726D01*
X0093700Y0234448D01*
X0093700Y0232533D02*
X0095744Y0231511D01*
X0095744Y0231255D02*
X0095744Y0229977D01*
X0095744Y0231255D02*
X0095746Y0231325D01*
X0095752Y0231396D01*
X0095761Y0231465D01*
X0095775Y0231534D01*
X0095792Y0231603D01*
X0095813Y0231670D01*
X0095838Y0231736D01*
X0095866Y0231800D01*
X0095898Y0231863D01*
X0095933Y0231924D01*
X0095972Y0231983D01*
X0096013Y0232040D01*
X0096058Y0232094D01*
X0096106Y0232146D01*
X0096156Y0232195D01*
X0096210Y0232242D01*
X0096265Y0232285D01*
X0096323Y0232325D01*
X0096383Y0232362D01*
X0096445Y0232395D01*
X0096509Y0232425D01*
X0096574Y0232452D01*
X0096640Y0232475D01*
X0096708Y0232494D01*
X0096777Y0232509D01*
X0096846Y0232521D01*
X0096916Y0232529D01*
X0096987Y0232533D01*
X0097057Y0232533D01*
X0097128Y0232529D01*
X0097198Y0232521D01*
X0097267Y0232509D01*
X0097336Y0232494D01*
X0097404Y0232475D01*
X0097470Y0232452D01*
X0097535Y0232425D01*
X0097599Y0232395D01*
X0097661Y0232362D01*
X0097721Y0232325D01*
X0097779Y0232285D01*
X0097834Y0232242D01*
X0097888Y0232195D01*
X0097938Y0232146D01*
X0097986Y0232094D01*
X0098031Y0232040D01*
X0098072Y0231983D01*
X0098111Y0231924D01*
X0098146Y0231863D01*
X0098178Y0231800D01*
X0098206Y0231736D01*
X0098231Y0231670D01*
X0098252Y0231603D01*
X0098269Y0231534D01*
X0098283Y0231465D01*
X0098292Y0231396D01*
X0098298Y0231325D01*
X0098300Y0231255D01*
X0098300Y0229977D01*
X0093700Y0229977D01*
X0093300Y0219004D02*
X0092022Y0219004D01*
X0091952Y0219002D01*
X0091881Y0218996D01*
X0091812Y0218987D01*
X0091743Y0218973D01*
X0091674Y0218956D01*
X0091607Y0218935D01*
X0091541Y0218910D01*
X0091477Y0218882D01*
X0091414Y0218850D01*
X0091353Y0218815D01*
X0091294Y0218776D01*
X0091237Y0218735D01*
X0091183Y0218690D01*
X0091131Y0218642D01*
X0091082Y0218592D01*
X0091035Y0218538D01*
X0090992Y0218483D01*
X0090952Y0218425D01*
X0090915Y0218365D01*
X0090882Y0218303D01*
X0090852Y0218239D01*
X0090825Y0218174D01*
X0090802Y0218108D01*
X0090783Y0218040D01*
X0090768Y0217971D01*
X0090756Y0217902D01*
X0090748Y0217832D01*
X0090744Y0217761D01*
X0090744Y0217691D01*
X0090748Y0217620D01*
X0090756Y0217550D01*
X0090768Y0217481D01*
X0090783Y0217412D01*
X0090802Y0217344D01*
X0090825Y0217278D01*
X0090852Y0217213D01*
X0090882Y0217149D01*
X0090915Y0217087D01*
X0090952Y0217027D01*
X0090992Y0216969D01*
X0091035Y0216914D01*
X0091082Y0216860D01*
X0091131Y0216810D01*
X0091183Y0216762D01*
X0091237Y0216717D01*
X0091294Y0216676D01*
X0091353Y0216637D01*
X0091414Y0216602D01*
X0091477Y0216570D01*
X0091541Y0216542D01*
X0091607Y0216517D01*
X0091674Y0216496D01*
X0091743Y0216479D01*
X0091812Y0216465D01*
X0091881Y0216456D01*
X0091952Y0216450D01*
X0092022Y0216448D01*
X0093300Y0216448D01*
X0091767Y0216448D02*
X0090744Y0214404D01*
X0088829Y0215426D02*
X0086273Y0215426D01*
X0087040Y0216448D02*
X0087040Y0214404D01*
X0088829Y0215426D02*
X0087807Y0219004D01*
X0084329Y0219004D02*
X0082796Y0219004D01*
X0082733Y0219002D01*
X0082670Y0218996D01*
X0082608Y0218987D01*
X0082547Y0218973D01*
X0082486Y0218956D01*
X0082427Y0218935D01*
X0082369Y0218910D01*
X0082312Y0218882D01*
X0082258Y0218851D01*
X0082206Y0218816D01*
X0082155Y0218778D01*
X0082107Y0218737D01*
X0082062Y0218693D01*
X0082020Y0218647D01*
X0081980Y0218598D01*
X0081944Y0218547D01*
X0081911Y0218493D01*
X0081881Y0218438D01*
X0081855Y0218380D01*
X0081832Y0218322D01*
X0081813Y0218262D01*
X0081798Y0218201D01*
X0081786Y0218139D01*
X0081778Y0218076D01*
X0081774Y0218013D01*
X0081774Y0217951D01*
X0081778Y0217888D01*
X0081786Y0217825D01*
X0081798Y0217763D01*
X0081813Y0217702D01*
X0081832Y0217642D01*
X0081855Y0217584D01*
X0081881Y0217526D01*
X0081911Y0217471D01*
X0081944Y0217417D01*
X0081980Y0217366D01*
X0082020Y0217317D01*
X0082062Y0217271D01*
X0082107Y0217227D01*
X0082155Y0217186D01*
X0082206Y0217148D01*
X0082258Y0217113D01*
X0082312Y0217082D01*
X0082369Y0217054D01*
X0082427Y0217029D01*
X0082486Y0217008D01*
X0082547Y0216991D01*
X0082608Y0216977D01*
X0082670Y0216968D01*
X0082733Y0216962D01*
X0082796Y0216960D01*
X0082796Y0216959D02*
X0083818Y0216959D01*
X0083051Y0216960D02*
X0082981Y0216958D01*
X0082910Y0216952D01*
X0082841Y0216943D01*
X0082772Y0216929D01*
X0082703Y0216912D01*
X0082636Y0216891D01*
X0082570Y0216866D01*
X0082506Y0216838D01*
X0082443Y0216806D01*
X0082382Y0216771D01*
X0082323Y0216732D01*
X0082266Y0216691D01*
X0082212Y0216646D01*
X0082160Y0216598D01*
X0082111Y0216548D01*
X0082064Y0216494D01*
X0082021Y0216439D01*
X0081981Y0216381D01*
X0081944Y0216321D01*
X0081911Y0216259D01*
X0081881Y0216195D01*
X0081854Y0216130D01*
X0081831Y0216064D01*
X0081812Y0215996D01*
X0081797Y0215927D01*
X0081785Y0215858D01*
X0081777Y0215788D01*
X0081773Y0215717D01*
X0081773Y0215647D01*
X0081777Y0215576D01*
X0081785Y0215506D01*
X0081797Y0215437D01*
X0081812Y0215368D01*
X0081831Y0215300D01*
X0081854Y0215234D01*
X0081881Y0215169D01*
X0081911Y0215105D01*
X0081944Y0215043D01*
X0081981Y0214983D01*
X0082021Y0214925D01*
X0082064Y0214870D01*
X0082111Y0214816D01*
X0082160Y0214766D01*
X0082212Y0214718D01*
X0082266Y0214673D01*
X0082323Y0214632D01*
X0082382Y0214593D01*
X0082443Y0214558D01*
X0082506Y0214526D01*
X0082570Y0214498D01*
X0082636Y0214473D01*
X0082703Y0214452D01*
X0082772Y0214435D01*
X0082841Y0214421D01*
X0082910Y0214412D01*
X0082981Y0214406D01*
X0083051Y0214404D01*
X0084329Y0214404D01*
X0077278Y0213748D02*
X0074722Y0211704D01*
X0073700Y0212726D02*
X0073702Y0212785D01*
X0073707Y0212843D01*
X0073716Y0212901D01*
X0073729Y0212958D01*
X0073745Y0213015D01*
X0073765Y0213070D01*
X0073788Y0213124D01*
X0073814Y0213176D01*
X0073844Y0213227D01*
X0073876Y0213276D01*
X0073912Y0213323D01*
X0073950Y0213367D01*
X0073991Y0213409D01*
X0074035Y0213448D01*
X0074081Y0213485D01*
X0074129Y0213518D01*
X0074179Y0213549D01*
X0074231Y0213576D01*
X0074284Y0213600D01*
X0074339Y0213621D01*
X0073700Y0212726D02*
X0073702Y0212667D01*
X0073707Y0212609D01*
X0073716Y0212551D01*
X0073729Y0212494D01*
X0073745Y0212437D01*
X0073765Y0212382D01*
X0073788Y0212328D01*
X0073814Y0212276D01*
X0073844Y0212225D01*
X0073876Y0212176D01*
X0073912Y0212129D01*
X0073950Y0212085D01*
X0073991Y0212043D01*
X0074035Y0212004D01*
X0074081Y0211967D01*
X0074129Y0211934D01*
X0074179Y0211903D01*
X0074231Y0211876D01*
X0074284Y0211852D01*
X0074339Y0211831D01*
X0076000Y0214004D02*
X0076115Y0214002D01*
X0076229Y0213997D01*
X0076343Y0213988D01*
X0076457Y0213976D01*
X0076571Y0213961D01*
X0076684Y0213942D01*
X0076796Y0213919D01*
X0076908Y0213894D01*
X0077019Y0213864D01*
X0077129Y0213832D01*
X0077238Y0213796D01*
X0077346Y0213757D01*
X0077452Y0213715D01*
X0077557Y0213669D01*
X0077661Y0213621D01*
X0077716Y0213600D01*
X0077769Y0213576D01*
X0077821Y0213549D01*
X0077871Y0213518D01*
X0077919Y0213485D01*
X0077965Y0213448D01*
X0078009Y0213409D01*
X0078050Y0213367D01*
X0078088Y0213323D01*
X0078124Y0213276D01*
X0078156Y0213227D01*
X0078186Y0213176D01*
X0078212Y0213124D01*
X0078235Y0213070D01*
X0078255Y0213015D01*
X0078271Y0212958D01*
X0078284Y0212901D01*
X0078293Y0212843D01*
X0078298Y0212785D01*
X0078300Y0212726D01*
X0078298Y0212667D01*
X0078293Y0212609D01*
X0078284Y0212551D01*
X0078271Y0212494D01*
X0078255Y0212437D01*
X0078235Y0212382D01*
X0078212Y0212328D01*
X0078186Y0212276D01*
X0078156Y0212225D01*
X0078124Y0212176D01*
X0078088Y0212129D01*
X0078050Y0212085D01*
X0078009Y0212043D01*
X0077965Y0212004D01*
X0077919Y0211967D01*
X0077871Y0211934D01*
X0077821Y0211903D01*
X0077769Y0211876D01*
X0077716Y0211852D01*
X0077661Y0211831D01*
X0076000Y0214004D02*
X0075885Y0214002D01*
X0075771Y0213997D01*
X0075657Y0213988D01*
X0075543Y0213976D01*
X0075429Y0213961D01*
X0075316Y0213942D01*
X0075204Y0213919D01*
X0075092Y0213894D01*
X0074981Y0213864D01*
X0074871Y0213832D01*
X0074762Y0213796D01*
X0074654Y0213757D01*
X0074548Y0213715D01*
X0074443Y0213669D01*
X0074339Y0213621D01*
X0076000Y0211448D02*
X0076115Y0211450D01*
X0076229Y0211455D01*
X0076343Y0211464D01*
X0076457Y0211476D01*
X0076571Y0211491D01*
X0076684Y0211510D01*
X0076796Y0211533D01*
X0076908Y0211558D01*
X0077019Y0211588D01*
X0077129Y0211620D01*
X0077238Y0211656D01*
X0077346Y0211695D01*
X0077452Y0211737D01*
X0077557Y0211783D01*
X0077661Y0211831D01*
X0075744Y0208737D02*
X0073700Y0208737D01*
X0074722Y0209504D02*
X0074722Y0206948D01*
X0078300Y0207971D01*
X0078300Y0203755D02*
X0078300Y0202477D01*
X0073700Y0202477D01*
X0073300Y0200682D02*
X0073300Y0199404D01*
X0068700Y0199404D01*
X0070744Y0199404D02*
X0070744Y0200682D01*
X0070744Y0200937D02*
X0068700Y0201959D01*
X0069722Y0203875D02*
X0069722Y0206430D01*
X0070744Y0205664D02*
X0068700Y0205664D01*
X0069722Y0203875D02*
X0073300Y0204897D01*
X0073700Y0205033D02*
X0075744Y0204011D01*
X0075744Y0203755D02*
X0075744Y0202477D01*
X0075744Y0203755D02*
X0075746Y0203825D01*
X0075752Y0203896D01*
X0075761Y0203965D01*
X0075775Y0204034D01*
X0075792Y0204103D01*
X0075813Y0204170D01*
X0075838Y0204236D01*
X0075866Y0204300D01*
X0075898Y0204363D01*
X0075933Y0204424D01*
X0075972Y0204483D01*
X0076013Y0204540D01*
X0076058Y0204594D01*
X0076106Y0204646D01*
X0076156Y0204695D01*
X0076210Y0204742D01*
X0076265Y0204785D01*
X0076323Y0204825D01*
X0076383Y0204862D01*
X0076445Y0204895D01*
X0076509Y0204925D01*
X0076574Y0204952D01*
X0076640Y0204975D01*
X0076708Y0204994D01*
X0076777Y0205009D01*
X0076846Y0205021D01*
X0076916Y0205029D01*
X0076987Y0205033D01*
X0077057Y0205033D01*
X0077128Y0205029D01*
X0077198Y0205021D01*
X0077267Y0205009D01*
X0077336Y0204994D01*
X0077404Y0204975D01*
X0077470Y0204952D01*
X0077535Y0204925D01*
X0077599Y0204895D01*
X0077661Y0204862D01*
X0077721Y0204825D01*
X0077779Y0204785D01*
X0077834Y0204742D01*
X0077888Y0204695D01*
X0077938Y0204646D01*
X0077986Y0204594D01*
X0078031Y0204540D01*
X0078072Y0204483D01*
X0078111Y0204424D01*
X0078146Y0204363D01*
X0078178Y0204300D01*
X0078206Y0204236D01*
X0078231Y0204170D01*
X0078252Y0204103D01*
X0078269Y0204034D01*
X0078283Y0203965D01*
X0078292Y0203896D01*
X0078298Y0203825D01*
X0078300Y0203755D01*
X0073300Y0200682D02*
X0073298Y0200752D01*
X0073292Y0200823D01*
X0073283Y0200892D01*
X0073269Y0200961D01*
X0073252Y0201030D01*
X0073231Y0201097D01*
X0073206Y0201163D01*
X0073178Y0201227D01*
X0073146Y0201290D01*
X0073111Y0201351D01*
X0073072Y0201410D01*
X0073031Y0201467D01*
X0072986Y0201521D01*
X0072938Y0201573D01*
X0072888Y0201622D01*
X0072834Y0201669D01*
X0072779Y0201712D01*
X0072721Y0201752D01*
X0072661Y0201789D01*
X0072599Y0201822D01*
X0072535Y0201852D01*
X0072470Y0201879D01*
X0072404Y0201902D01*
X0072336Y0201921D01*
X0072267Y0201936D01*
X0072198Y0201948D01*
X0072128Y0201956D01*
X0072057Y0201960D01*
X0071987Y0201960D01*
X0071916Y0201956D01*
X0071846Y0201948D01*
X0071777Y0201936D01*
X0071708Y0201921D01*
X0071640Y0201902D01*
X0071574Y0201879D01*
X0071509Y0201852D01*
X0071445Y0201822D01*
X0071383Y0201789D01*
X0071323Y0201752D01*
X0071265Y0201712D01*
X0071210Y0201669D01*
X0071156Y0201622D01*
X0071106Y0201573D01*
X0071058Y0201521D01*
X0071013Y0201467D01*
X0070972Y0201410D01*
X0070933Y0201351D01*
X0070898Y0201290D01*
X0070866Y0201227D01*
X0070838Y0201163D01*
X0070813Y0201097D01*
X0070792Y0201030D01*
X0070775Y0200961D01*
X0070761Y0200892D01*
X0070752Y0200823D01*
X0070746Y0200752D01*
X0070744Y0200682D01*
X0068700Y0208375D02*
X0068700Y0210930D01*
X0068700Y0208375D02*
X0071256Y0210547D01*
X0073300Y0209780D02*
X0073298Y0209706D01*
X0073293Y0209632D01*
X0073283Y0209558D01*
X0073270Y0209485D01*
X0073254Y0209412D01*
X0073233Y0209341D01*
X0073209Y0209271D01*
X0073182Y0209202D01*
X0073151Y0209134D01*
X0073117Y0209068D01*
X0073080Y0209004D01*
X0073039Y0208942D01*
X0072995Y0208882D01*
X0072949Y0208824D01*
X0072899Y0208768D01*
X0072847Y0208715D01*
X0072792Y0208665D01*
X0072735Y0208618D01*
X0072675Y0208574D01*
X0072613Y0208532D01*
X0072550Y0208494D01*
X0072484Y0208459D01*
X0072417Y0208428D01*
X0072348Y0208400D01*
X0072278Y0208375D01*
X0071256Y0210547D02*
X0071303Y0210594D01*
X0071353Y0210638D01*
X0071405Y0210680D01*
X0071459Y0210719D01*
X0071515Y0210754D01*
X0071573Y0210787D01*
X0071633Y0210817D01*
X0071694Y0210843D01*
X0071757Y0210866D01*
X0071821Y0210885D01*
X0071885Y0210901D01*
X0071951Y0210914D01*
X0072017Y0210923D01*
X0072083Y0210928D01*
X0072150Y0210930D01*
X0072217Y0210928D01*
X0072284Y0210922D01*
X0072350Y0210913D01*
X0072415Y0210899D01*
X0072480Y0210882D01*
X0072543Y0210861D01*
X0072605Y0210836D01*
X0072666Y0210808D01*
X0072725Y0210776D01*
X0072782Y0210741D01*
X0072837Y0210702D01*
X0072889Y0210661D01*
X0072939Y0210616D01*
X0072986Y0210569D01*
X0073031Y0210519D01*
X0073072Y0210467D01*
X0073111Y0210412D01*
X0073146Y0210355D01*
X0073178Y0210296D01*
X0073206Y0210235D01*
X0073231Y0210173D01*
X0073252Y0210110D01*
X0073269Y0210045D01*
X0073283Y0209980D01*
X0073292Y0209914D01*
X0073298Y0209847D01*
X0073300Y0209780D01*
X0074339Y0211831D02*
X0074443Y0211783D01*
X0074548Y0211737D01*
X0074654Y0211695D01*
X0074762Y0211656D01*
X0074871Y0211620D01*
X0074981Y0211588D01*
X0075092Y0211558D01*
X0075204Y0211533D01*
X0075316Y0211510D01*
X0075429Y0211491D01*
X0075543Y0211476D01*
X0075657Y0211464D01*
X0075771Y0211455D01*
X0075885Y0211450D01*
X0076000Y0211448D01*
X0063300Y0210982D02*
X0063300Y0209448D01*
X0063300Y0210982D02*
X0063298Y0211045D01*
X0063292Y0211108D01*
X0063283Y0211170D01*
X0063269Y0211231D01*
X0063252Y0211292D01*
X0063231Y0211351D01*
X0063206Y0211409D01*
X0063178Y0211466D01*
X0063147Y0211520D01*
X0063112Y0211572D01*
X0063074Y0211623D01*
X0063033Y0211671D01*
X0062989Y0211716D01*
X0062943Y0211758D01*
X0062894Y0211798D01*
X0062843Y0211834D01*
X0062789Y0211867D01*
X0062734Y0211897D01*
X0062676Y0211923D01*
X0062618Y0211946D01*
X0062558Y0211965D01*
X0062497Y0211980D01*
X0062435Y0211992D01*
X0062372Y0212000D01*
X0062309Y0212004D01*
X0062247Y0212004D01*
X0062184Y0212000D01*
X0062121Y0211992D01*
X0062059Y0211980D01*
X0061998Y0211965D01*
X0061938Y0211946D01*
X0061880Y0211923D01*
X0061822Y0211897D01*
X0061767Y0211867D01*
X0061713Y0211834D01*
X0061662Y0211798D01*
X0061613Y0211758D01*
X0061567Y0211716D01*
X0061523Y0211671D01*
X0061482Y0211623D01*
X0061444Y0211572D01*
X0061409Y0211520D01*
X0061378Y0211466D01*
X0061350Y0211409D01*
X0061325Y0211351D01*
X0061304Y0211292D01*
X0061287Y0211231D01*
X0061273Y0211170D01*
X0061264Y0211108D01*
X0061258Y0211045D01*
X0061256Y0210982D01*
X0061256Y0209960D01*
X0061256Y0210726D02*
X0061254Y0210796D01*
X0061248Y0210867D01*
X0061239Y0210936D01*
X0061225Y0211005D01*
X0061208Y0211074D01*
X0061187Y0211141D01*
X0061162Y0211207D01*
X0061134Y0211271D01*
X0061102Y0211334D01*
X0061067Y0211395D01*
X0061028Y0211454D01*
X0060987Y0211511D01*
X0060942Y0211565D01*
X0060894Y0211617D01*
X0060844Y0211666D01*
X0060790Y0211713D01*
X0060735Y0211756D01*
X0060677Y0211796D01*
X0060617Y0211833D01*
X0060555Y0211866D01*
X0060491Y0211896D01*
X0060426Y0211923D01*
X0060360Y0211946D01*
X0060292Y0211965D01*
X0060223Y0211980D01*
X0060154Y0211992D01*
X0060084Y0212000D01*
X0060013Y0212004D01*
X0059943Y0212004D01*
X0059872Y0212000D01*
X0059802Y0211992D01*
X0059733Y0211980D01*
X0059664Y0211965D01*
X0059596Y0211946D01*
X0059530Y0211923D01*
X0059465Y0211896D01*
X0059401Y0211866D01*
X0059339Y0211833D01*
X0059279Y0211796D01*
X0059221Y0211756D01*
X0059166Y0211713D01*
X0059112Y0211666D01*
X0059062Y0211617D01*
X0059014Y0211565D01*
X0058969Y0211511D01*
X0058928Y0211454D01*
X0058889Y0211395D01*
X0058854Y0211334D01*
X0058822Y0211271D01*
X0058794Y0211207D01*
X0058769Y0211141D01*
X0058748Y0211074D01*
X0058731Y0211005D01*
X0058717Y0210936D01*
X0058708Y0210867D01*
X0058702Y0210796D01*
X0058700Y0210726D01*
X0058700Y0209448D01*
X0058700Y0207533D02*
X0060744Y0206511D01*
X0060744Y0206255D02*
X0060744Y0204977D01*
X0060744Y0206255D02*
X0060746Y0206325D01*
X0060752Y0206396D01*
X0060761Y0206465D01*
X0060775Y0206534D01*
X0060792Y0206603D01*
X0060813Y0206670D01*
X0060838Y0206736D01*
X0060866Y0206800D01*
X0060898Y0206863D01*
X0060933Y0206924D01*
X0060972Y0206983D01*
X0061013Y0207040D01*
X0061058Y0207094D01*
X0061106Y0207146D01*
X0061156Y0207195D01*
X0061210Y0207242D01*
X0061265Y0207285D01*
X0061323Y0207325D01*
X0061383Y0207362D01*
X0061445Y0207395D01*
X0061509Y0207425D01*
X0061574Y0207452D01*
X0061640Y0207475D01*
X0061708Y0207494D01*
X0061777Y0207509D01*
X0061846Y0207521D01*
X0061916Y0207529D01*
X0061987Y0207533D01*
X0062057Y0207533D01*
X0062128Y0207529D01*
X0062198Y0207521D01*
X0062267Y0207509D01*
X0062336Y0207494D01*
X0062404Y0207475D01*
X0062470Y0207452D01*
X0062535Y0207425D01*
X0062599Y0207395D01*
X0062661Y0207362D01*
X0062721Y0207325D01*
X0062779Y0207285D01*
X0062834Y0207242D01*
X0062888Y0207195D01*
X0062938Y0207146D01*
X0062986Y0207094D01*
X0063031Y0207040D01*
X0063072Y0206983D01*
X0063111Y0206924D01*
X0063146Y0206863D01*
X0063178Y0206800D01*
X0063206Y0206736D01*
X0063231Y0206670D01*
X0063252Y0206603D01*
X0063269Y0206534D01*
X0063283Y0206465D01*
X0063292Y0206396D01*
X0063298Y0206325D01*
X0063300Y0206255D01*
X0063300Y0204977D01*
X0058700Y0204977D01*
X0059978Y0213948D02*
X0059908Y0213950D01*
X0059837Y0213956D01*
X0059768Y0213965D01*
X0059699Y0213979D01*
X0059630Y0213996D01*
X0059563Y0214017D01*
X0059497Y0214042D01*
X0059433Y0214070D01*
X0059370Y0214102D01*
X0059309Y0214137D01*
X0059250Y0214176D01*
X0059193Y0214217D01*
X0059139Y0214262D01*
X0059087Y0214310D01*
X0059038Y0214360D01*
X0058991Y0214414D01*
X0058948Y0214469D01*
X0058908Y0214527D01*
X0058871Y0214587D01*
X0058838Y0214649D01*
X0058808Y0214713D01*
X0058781Y0214778D01*
X0058758Y0214844D01*
X0058739Y0214912D01*
X0058724Y0214981D01*
X0058712Y0215050D01*
X0058704Y0215120D01*
X0058700Y0215191D01*
X0058700Y0215261D01*
X0058704Y0215332D01*
X0058712Y0215402D01*
X0058724Y0215471D01*
X0058739Y0215540D01*
X0058758Y0215608D01*
X0058781Y0215674D01*
X0058808Y0215739D01*
X0058838Y0215803D01*
X0058871Y0215865D01*
X0058908Y0215925D01*
X0058948Y0215983D01*
X0058991Y0216038D01*
X0059038Y0216092D01*
X0059087Y0216142D01*
X0059139Y0216190D01*
X0059193Y0216235D01*
X0059250Y0216276D01*
X0059309Y0216315D01*
X0059370Y0216350D01*
X0059433Y0216382D01*
X0059497Y0216410D01*
X0059563Y0216435D01*
X0059630Y0216456D01*
X0059699Y0216473D01*
X0059768Y0216487D01*
X0059837Y0216496D01*
X0059908Y0216502D01*
X0059978Y0216504D01*
X0060048Y0216502D01*
X0060119Y0216496D01*
X0060188Y0216487D01*
X0060257Y0216473D01*
X0060326Y0216456D01*
X0060393Y0216435D01*
X0060459Y0216410D01*
X0060523Y0216382D01*
X0060586Y0216350D01*
X0060647Y0216315D01*
X0060706Y0216276D01*
X0060763Y0216235D01*
X0060817Y0216190D01*
X0060869Y0216142D01*
X0060918Y0216092D01*
X0060965Y0216038D01*
X0061008Y0215983D01*
X0061048Y0215925D01*
X0061085Y0215865D01*
X0061118Y0215803D01*
X0061148Y0215739D01*
X0061175Y0215674D01*
X0061198Y0215608D01*
X0061217Y0215540D01*
X0061232Y0215471D01*
X0061244Y0215402D01*
X0061252Y0215332D01*
X0061256Y0215261D01*
X0061256Y0215191D01*
X0061252Y0215120D01*
X0061244Y0215050D01*
X0061232Y0214981D01*
X0061217Y0214912D01*
X0061198Y0214844D01*
X0061175Y0214778D01*
X0061148Y0214713D01*
X0061118Y0214649D01*
X0061085Y0214587D01*
X0061048Y0214527D01*
X0061008Y0214469D01*
X0060965Y0214414D01*
X0060918Y0214360D01*
X0060869Y0214310D01*
X0060817Y0214262D01*
X0060763Y0214217D01*
X0060706Y0214176D01*
X0060647Y0214137D01*
X0060586Y0214102D01*
X0060523Y0214070D01*
X0060459Y0214042D01*
X0060393Y0214017D01*
X0060326Y0213996D01*
X0060257Y0213979D01*
X0060188Y0213965D01*
X0060119Y0213956D01*
X0060048Y0213950D01*
X0059978Y0213948D01*
X0062278Y0214204D02*
X0062215Y0214206D01*
X0062152Y0214212D01*
X0062090Y0214221D01*
X0062029Y0214235D01*
X0061968Y0214252D01*
X0061909Y0214273D01*
X0061851Y0214298D01*
X0061794Y0214326D01*
X0061740Y0214357D01*
X0061688Y0214392D01*
X0061637Y0214430D01*
X0061589Y0214471D01*
X0061544Y0214515D01*
X0061502Y0214561D01*
X0061462Y0214610D01*
X0061426Y0214661D01*
X0061393Y0214715D01*
X0061363Y0214770D01*
X0061337Y0214828D01*
X0061314Y0214886D01*
X0061295Y0214946D01*
X0061280Y0215007D01*
X0061268Y0215069D01*
X0061260Y0215132D01*
X0061256Y0215195D01*
X0061256Y0215257D01*
X0061260Y0215320D01*
X0061268Y0215383D01*
X0061280Y0215445D01*
X0061295Y0215506D01*
X0061314Y0215566D01*
X0061337Y0215624D01*
X0061363Y0215682D01*
X0061393Y0215737D01*
X0061426Y0215791D01*
X0061462Y0215842D01*
X0061502Y0215891D01*
X0061544Y0215937D01*
X0061589Y0215981D01*
X0061637Y0216022D01*
X0061688Y0216060D01*
X0061740Y0216095D01*
X0061794Y0216126D01*
X0061851Y0216154D01*
X0061909Y0216179D01*
X0061968Y0216200D01*
X0062029Y0216217D01*
X0062090Y0216231D01*
X0062152Y0216240D01*
X0062215Y0216246D01*
X0062278Y0216248D01*
X0062341Y0216246D01*
X0062404Y0216240D01*
X0062466Y0216231D01*
X0062527Y0216217D01*
X0062588Y0216200D01*
X0062647Y0216179D01*
X0062705Y0216154D01*
X0062762Y0216126D01*
X0062816Y0216095D01*
X0062868Y0216060D01*
X0062919Y0216022D01*
X0062967Y0215981D01*
X0063012Y0215937D01*
X0063054Y0215891D01*
X0063094Y0215842D01*
X0063130Y0215791D01*
X0063163Y0215737D01*
X0063193Y0215682D01*
X0063219Y0215624D01*
X0063242Y0215566D01*
X0063261Y0215506D01*
X0063276Y0215445D01*
X0063288Y0215383D01*
X0063296Y0215320D01*
X0063300Y0215257D01*
X0063300Y0215195D01*
X0063296Y0215132D01*
X0063288Y0215069D01*
X0063276Y0215007D01*
X0063261Y0214946D01*
X0063242Y0214886D01*
X0063219Y0214828D01*
X0063193Y0214770D01*
X0063163Y0214715D01*
X0063130Y0214661D01*
X0063094Y0214610D01*
X0063054Y0214561D01*
X0063012Y0214515D01*
X0062967Y0214471D01*
X0062919Y0214430D01*
X0062868Y0214392D01*
X0062816Y0214357D01*
X0062762Y0214326D01*
X0062705Y0214298D01*
X0062647Y0214273D01*
X0062588Y0214252D01*
X0062527Y0214235D01*
X0062466Y0214221D01*
X0062404Y0214212D01*
X0062341Y0214206D01*
X0062278Y0214204D01*
X0083307Y0199004D02*
X0084329Y0195426D01*
X0081773Y0195426D01*
X0082540Y0196448D02*
X0082540Y0194404D01*
X0086273Y0195426D02*
X0088829Y0195426D01*
X0087807Y0199004D01*
X0087040Y0196448D02*
X0087040Y0194404D01*
X0090744Y0194404D02*
X0091767Y0196448D01*
X0092022Y0196448D02*
X0093300Y0196448D01*
X0092022Y0196448D02*
X0091952Y0196450D01*
X0091881Y0196456D01*
X0091812Y0196465D01*
X0091743Y0196479D01*
X0091674Y0196496D01*
X0091607Y0196517D01*
X0091541Y0196542D01*
X0091477Y0196570D01*
X0091414Y0196602D01*
X0091353Y0196637D01*
X0091294Y0196676D01*
X0091237Y0196717D01*
X0091183Y0196762D01*
X0091131Y0196810D01*
X0091082Y0196860D01*
X0091035Y0196914D01*
X0090992Y0196969D01*
X0090952Y0197027D01*
X0090915Y0197087D01*
X0090882Y0197149D01*
X0090852Y0197213D01*
X0090825Y0197278D01*
X0090802Y0197344D01*
X0090783Y0197412D01*
X0090768Y0197481D01*
X0090756Y0197550D01*
X0090748Y0197620D01*
X0090744Y0197691D01*
X0090744Y0197761D01*
X0090748Y0197832D01*
X0090756Y0197902D01*
X0090768Y0197971D01*
X0090783Y0198040D01*
X0090802Y0198108D01*
X0090825Y0198174D01*
X0090852Y0198239D01*
X0090882Y0198303D01*
X0090915Y0198365D01*
X0090952Y0198425D01*
X0090992Y0198483D01*
X0091035Y0198538D01*
X0091082Y0198592D01*
X0091131Y0198642D01*
X0091183Y0198690D01*
X0091237Y0198735D01*
X0091294Y0198776D01*
X0091353Y0198815D01*
X0091414Y0198850D01*
X0091477Y0198882D01*
X0091541Y0198910D01*
X0091607Y0198935D01*
X0091674Y0198956D01*
X0091743Y0198973D01*
X0091812Y0198987D01*
X0091881Y0198996D01*
X0091952Y0199002D01*
X0092022Y0199004D01*
X0093300Y0199004D01*
X0093300Y0194404D01*
X0103700Y0199404D02*
X0108300Y0199404D01*
X0108300Y0200682D01*
X0108298Y0200752D01*
X0108292Y0200823D01*
X0108283Y0200892D01*
X0108269Y0200961D01*
X0108252Y0201030D01*
X0108231Y0201097D01*
X0108206Y0201163D01*
X0108178Y0201227D01*
X0108146Y0201290D01*
X0108111Y0201351D01*
X0108072Y0201410D01*
X0108031Y0201467D01*
X0107986Y0201521D01*
X0107938Y0201573D01*
X0107888Y0201622D01*
X0107834Y0201669D01*
X0107779Y0201712D01*
X0107721Y0201752D01*
X0107661Y0201789D01*
X0107599Y0201822D01*
X0107535Y0201852D01*
X0107470Y0201879D01*
X0107404Y0201902D01*
X0107336Y0201921D01*
X0107267Y0201936D01*
X0107198Y0201948D01*
X0107128Y0201956D01*
X0107057Y0201960D01*
X0106987Y0201960D01*
X0106916Y0201956D01*
X0106846Y0201948D01*
X0106777Y0201936D01*
X0106708Y0201921D01*
X0106640Y0201902D01*
X0106574Y0201879D01*
X0106509Y0201852D01*
X0106445Y0201822D01*
X0106383Y0201789D01*
X0106323Y0201752D01*
X0106265Y0201712D01*
X0106210Y0201669D01*
X0106156Y0201622D01*
X0106106Y0201573D01*
X0106058Y0201521D01*
X0106013Y0201467D01*
X0105972Y0201410D01*
X0105933Y0201351D01*
X0105898Y0201290D01*
X0105866Y0201227D01*
X0105838Y0201163D01*
X0105813Y0201097D01*
X0105792Y0201030D01*
X0105775Y0200961D01*
X0105761Y0200892D01*
X0105752Y0200823D01*
X0105746Y0200752D01*
X0105744Y0200682D01*
X0105744Y0199404D01*
X0105744Y0200937D02*
X0103700Y0201959D01*
X0103700Y0203875D02*
X0103700Y0205153D01*
X0103702Y0205223D01*
X0103708Y0205294D01*
X0103717Y0205363D01*
X0103731Y0205432D01*
X0103748Y0205501D01*
X0103769Y0205568D01*
X0103794Y0205634D01*
X0103822Y0205698D01*
X0103854Y0205761D01*
X0103889Y0205822D01*
X0103928Y0205881D01*
X0103969Y0205938D01*
X0104014Y0205992D01*
X0104062Y0206044D01*
X0104112Y0206093D01*
X0104166Y0206140D01*
X0104221Y0206183D01*
X0104279Y0206223D01*
X0104339Y0206260D01*
X0104401Y0206293D01*
X0104465Y0206323D01*
X0104530Y0206350D01*
X0104596Y0206373D01*
X0104664Y0206392D01*
X0104733Y0206407D01*
X0104802Y0206419D01*
X0104872Y0206427D01*
X0104943Y0206431D01*
X0105013Y0206431D01*
X0105084Y0206427D01*
X0105154Y0206419D01*
X0105223Y0206407D01*
X0105292Y0206392D01*
X0105360Y0206373D01*
X0105426Y0206350D01*
X0105491Y0206323D01*
X0105555Y0206293D01*
X0105617Y0206260D01*
X0105677Y0206223D01*
X0105735Y0206183D01*
X0105790Y0206140D01*
X0105844Y0206093D01*
X0105894Y0206044D01*
X0105942Y0205992D01*
X0105987Y0205938D01*
X0106028Y0205881D01*
X0106067Y0205822D01*
X0106102Y0205761D01*
X0106134Y0205698D01*
X0106162Y0205634D01*
X0106187Y0205568D01*
X0106208Y0205501D01*
X0106225Y0205432D01*
X0106239Y0205363D01*
X0106248Y0205294D01*
X0106254Y0205223D01*
X0106256Y0205153D01*
X0106256Y0205408D02*
X0106256Y0204386D01*
X0106256Y0205408D02*
X0106258Y0205471D01*
X0106264Y0205534D01*
X0106273Y0205596D01*
X0106287Y0205657D01*
X0106304Y0205718D01*
X0106325Y0205777D01*
X0106350Y0205835D01*
X0106378Y0205892D01*
X0106409Y0205946D01*
X0106444Y0205998D01*
X0106482Y0206049D01*
X0106523Y0206097D01*
X0106567Y0206142D01*
X0106613Y0206184D01*
X0106662Y0206224D01*
X0106713Y0206260D01*
X0106767Y0206293D01*
X0106822Y0206323D01*
X0106880Y0206349D01*
X0106938Y0206372D01*
X0106998Y0206391D01*
X0107059Y0206406D01*
X0107121Y0206418D01*
X0107184Y0206426D01*
X0107247Y0206430D01*
X0107309Y0206430D01*
X0107372Y0206426D01*
X0107435Y0206418D01*
X0107497Y0206406D01*
X0107558Y0206391D01*
X0107618Y0206372D01*
X0107676Y0206349D01*
X0107734Y0206323D01*
X0107789Y0206293D01*
X0107843Y0206260D01*
X0107894Y0206224D01*
X0107943Y0206184D01*
X0107989Y0206142D01*
X0108033Y0206097D01*
X0108074Y0206049D01*
X0108112Y0205998D01*
X0108147Y0205946D01*
X0108178Y0205892D01*
X0108206Y0205835D01*
X0108231Y0205777D01*
X0108252Y0205718D01*
X0108269Y0205657D01*
X0108283Y0205596D01*
X0108292Y0205534D01*
X0108298Y0205471D01*
X0108300Y0205408D01*
X0108300Y0203875D01*
X0107022Y0208375D02*
X0106767Y0208375D01*
X0106705Y0208377D01*
X0106644Y0208382D01*
X0106583Y0208392D01*
X0106522Y0208405D01*
X0106463Y0208421D01*
X0106405Y0208441D01*
X0106348Y0208465D01*
X0106292Y0208492D01*
X0106238Y0208522D01*
X0106186Y0208556D01*
X0106137Y0208592D01*
X0106089Y0208632D01*
X0106044Y0208674D01*
X0106002Y0208719D01*
X0105962Y0208767D01*
X0105926Y0208816D01*
X0105892Y0208868D01*
X0105862Y0208922D01*
X0105835Y0208978D01*
X0105811Y0209035D01*
X0105791Y0209093D01*
X0105775Y0209152D01*
X0105762Y0209213D01*
X0105752Y0209274D01*
X0105747Y0209335D01*
X0105745Y0209397D01*
X0105744Y0209397D02*
X0105744Y0210930D01*
X0107022Y0210930D01*
X0107022Y0210931D02*
X0107092Y0210929D01*
X0107163Y0210923D01*
X0107232Y0210914D01*
X0107301Y0210900D01*
X0107370Y0210883D01*
X0107437Y0210862D01*
X0107503Y0210837D01*
X0107567Y0210809D01*
X0107630Y0210777D01*
X0107691Y0210742D01*
X0107750Y0210703D01*
X0107807Y0210662D01*
X0107861Y0210617D01*
X0107913Y0210569D01*
X0107962Y0210519D01*
X0108009Y0210465D01*
X0108052Y0210410D01*
X0108092Y0210352D01*
X0108129Y0210292D01*
X0108162Y0210230D01*
X0108192Y0210166D01*
X0108219Y0210101D01*
X0108242Y0210035D01*
X0108261Y0209967D01*
X0108276Y0209898D01*
X0108288Y0209829D01*
X0108296Y0209759D01*
X0108300Y0209688D01*
X0108300Y0209618D01*
X0108296Y0209547D01*
X0108288Y0209477D01*
X0108276Y0209408D01*
X0108261Y0209339D01*
X0108242Y0209271D01*
X0108219Y0209205D01*
X0108192Y0209140D01*
X0108162Y0209076D01*
X0108129Y0209014D01*
X0108092Y0208954D01*
X0108052Y0208896D01*
X0108009Y0208841D01*
X0107962Y0208787D01*
X0107913Y0208737D01*
X0107861Y0208689D01*
X0107807Y0208644D01*
X0107750Y0208603D01*
X0107691Y0208564D01*
X0107630Y0208529D01*
X0107567Y0208497D01*
X0107503Y0208469D01*
X0107437Y0208444D01*
X0107370Y0208423D01*
X0107301Y0208406D01*
X0107232Y0208392D01*
X0107163Y0208383D01*
X0107092Y0208377D01*
X0107022Y0208375D01*
X0105744Y0210930D02*
X0105655Y0210928D01*
X0105566Y0210922D01*
X0105477Y0210913D01*
X0105389Y0210899D01*
X0105302Y0210882D01*
X0105215Y0210860D01*
X0105129Y0210835D01*
X0105045Y0210807D01*
X0104962Y0210774D01*
X0104880Y0210738D01*
X0104800Y0210699D01*
X0104722Y0210656D01*
X0104646Y0210610D01*
X0104572Y0210560D01*
X0104500Y0210508D01*
X0104430Y0210452D01*
X0104363Y0210393D01*
X0104299Y0210331D01*
X0104237Y0210267D01*
X0104178Y0210200D01*
X0104122Y0210130D01*
X0104070Y0210058D01*
X0104020Y0209984D01*
X0103974Y0209908D01*
X0103931Y0209830D01*
X0103892Y0209750D01*
X0103856Y0209668D01*
X0103823Y0209585D01*
X0103795Y0209501D01*
X0103770Y0209415D01*
X0103748Y0209328D01*
X0103731Y0209241D01*
X0103717Y0209153D01*
X0103708Y0209064D01*
X0103702Y0208975D01*
X0103700Y0208886D01*
X0093300Y0214404D02*
X0093300Y0219004D01*
D12*
X0087700Y0222704D02*
X0099100Y0222704D01*
X0099100Y0225704D01*
X0087700Y0225704D01*
X0087700Y0222704D01*
X0085500Y0230704D02*
X0085500Y0234204D01*
X0085500Y0244204D01*
X0085500Y0247704D01*
X0085200Y0240704D02*
X0085200Y0237704D01*
X0096600Y0237704D01*
X0096600Y0240704D01*
X0085200Y0240704D01*
X0072500Y0239204D02*
X0072502Y0239267D01*
X0072508Y0239329D01*
X0072518Y0239391D01*
X0072531Y0239453D01*
X0072549Y0239513D01*
X0072570Y0239572D01*
X0072595Y0239630D01*
X0072624Y0239686D01*
X0072656Y0239740D01*
X0072691Y0239792D01*
X0072729Y0239841D01*
X0072771Y0239889D01*
X0072815Y0239933D01*
X0072863Y0239975D01*
X0072912Y0240013D01*
X0072964Y0240048D01*
X0073018Y0240080D01*
X0073074Y0240109D01*
X0073132Y0240134D01*
X0073191Y0240155D01*
X0073251Y0240173D01*
X0073313Y0240186D01*
X0073375Y0240196D01*
X0073437Y0240202D01*
X0073500Y0240204D01*
X0073563Y0240202D01*
X0073625Y0240196D01*
X0073687Y0240186D01*
X0073749Y0240173D01*
X0073809Y0240155D01*
X0073868Y0240134D01*
X0073926Y0240109D01*
X0073982Y0240080D01*
X0074036Y0240048D01*
X0074088Y0240013D01*
X0074137Y0239975D01*
X0074185Y0239933D01*
X0074229Y0239889D01*
X0074271Y0239841D01*
X0074309Y0239792D01*
X0074344Y0239740D01*
X0074376Y0239686D01*
X0074405Y0239630D01*
X0074430Y0239572D01*
X0074451Y0239513D01*
X0074469Y0239453D01*
X0074482Y0239391D01*
X0074492Y0239329D01*
X0074498Y0239267D01*
X0074500Y0239204D01*
X0074498Y0239141D01*
X0074492Y0239079D01*
X0074482Y0239017D01*
X0074469Y0238955D01*
X0074451Y0238895D01*
X0074430Y0238836D01*
X0074405Y0238778D01*
X0074376Y0238722D01*
X0074344Y0238668D01*
X0074309Y0238616D01*
X0074271Y0238567D01*
X0074229Y0238519D01*
X0074185Y0238475D01*
X0074137Y0238433D01*
X0074088Y0238395D01*
X0074036Y0238360D01*
X0073982Y0238328D01*
X0073926Y0238299D01*
X0073868Y0238274D01*
X0073809Y0238253D01*
X0073749Y0238235D01*
X0073687Y0238222D01*
X0073625Y0238212D01*
X0073563Y0238206D01*
X0073500Y0238204D01*
X0073437Y0238206D01*
X0073375Y0238212D01*
X0073313Y0238222D01*
X0073251Y0238235D01*
X0073191Y0238253D01*
X0073132Y0238274D01*
X0073074Y0238299D01*
X0073018Y0238328D01*
X0072964Y0238360D01*
X0072912Y0238395D01*
X0072863Y0238433D01*
X0072815Y0238475D01*
X0072771Y0238519D01*
X0072729Y0238567D01*
X0072691Y0238616D01*
X0072656Y0238668D01*
X0072624Y0238722D01*
X0072595Y0238778D01*
X0072570Y0238836D01*
X0072549Y0238895D01*
X0072531Y0238955D01*
X0072518Y0239017D01*
X0072508Y0239079D01*
X0072502Y0239141D01*
X0072500Y0239204D01*
X0066500Y0239204D02*
X0066502Y0239376D01*
X0066508Y0239547D01*
X0066519Y0239719D01*
X0066534Y0239890D01*
X0066553Y0240061D01*
X0066576Y0240231D01*
X0066603Y0240401D01*
X0066635Y0240570D01*
X0066670Y0240738D01*
X0066710Y0240905D01*
X0066754Y0241071D01*
X0066801Y0241236D01*
X0066853Y0241400D01*
X0066909Y0241562D01*
X0066969Y0241723D01*
X0067033Y0241883D01*
X0067101Y0242041D01*
X0067172Y0242197D01*
X0067247Y0242351D01*
X0067327Y0242504D01*
X0067409Y0242654D01*
X0067496Y0242803D01*
X0067586Y0242949D01*
X0067680Y0243093D01*
X0067777Y0243235D01*
X0067878Y0243374D01*
X0067982Y0243511D01*
X0068089Y0243645D01*
X0068200Y0243776D01*
X0068313Y0243905D01*
X0068430Y0244031D01*
X0068550Y0244154D01*
X0068673Y0244274D01*
X0068799Y0244391D01*
X0068928Y0244504D01*
X0069059Y0244615D01*
X0069193Y0244722D01*
X0069330Y0244826D01*
X0069469Y0244927D01*
X0069611Y0245024D01*
X0069755Y0245118D01*
X0069901Y0245208D01*
X0070050Y0245295D01*
X0070200Y0245377D01*
X0070353Y0245457D01*
X0070507Y0245532D01*
X0070663Y0245603D01*
X0070821Y0245671D01*
X0070981Y0245735D01*
X0071142Y0245795D01*
X0071304Y0245851D01*
X0071468Y0245903D01*
X0071633Y0245950D01*
X0071799Y0245994D01*
X0071966Y0246034D01*
X0072134Y0246069D01*
X0072303Y0246101D01*
X0072473Y0246128D01*
X0072643Y0246151D01*
X0072814Y0246170D01*
X0072985Y0246185D01*
X0073157Y0246196D01*
X0073328Y0246202D01*
X0073500Y0246204D01*
X0073672Y0246202D01*
X0073843Y0246196D01*
X0074015Y0246185D01*
X0074186Y0246170D01*
X0074357Y0246151D01*
X0074527Y0246128D01*
X0074697Y0246101D01*
X0074866Y0246069D01*
X0075034Y0246034D01*
X0075201Y0245994D01*
X0075367Y0245950D01*
X0075532Y0245903D01*
X0075696Y0245851D01*
X0075858Y0245795D01*
X0076019Y0245735D01*
X0076179Y0245671D01*
X0076337Y0245603D01*
X0076493Y0245532D01*
X0076647Y0245457D01*
X0076800Y0245377D01*
X0076950Y0245295D01*
X0077099Y0245208D01*
X0077245Y0245118D01*
X0077389Y0245024D01*
X0077531Y0244927D01*
X0077670Y0244826D01*
X0077807Y0244722D01*
X0077941Y0244615D01*
X0078072Y0244504D01*
X0078201Y0244391D01*
X0078327Y0244274D01*
X0078450Y0244154D01*
X0078570Y0244031D01*
X0078687Y0243905D01*
X0078800Y0243776D01*
X0078911Y0243645D01*
X0079018Y0243511D01*
X0079122Y0243374D01*
X0079223Y0243235D01*
X0079320Y0243093D01*
X0079414Y0242949D01*
X0079504Y0242803D01*
X0079591Y0242654D01*
X0079673Y0242504D01*
X0079753Y0242351D01*
X0079828Y0242197D01*
X0079899Y0242041D01*
X0079967Y0241883D01*
X0080031Y0241723D01*
X0080091Y0241562D01*
X0080147Y0241400D01*
X0080199Y0241236D01*
X0080246Y0241071D01*
X0080290Y0240905D01*
X0080330Y0240738D01*
X0080365Y0240570D01*
X0080397Y0240401D01*
X0080424Y0240231D01*
X0080447Y0240061D01*
X0080466Y0239890D01*
X0080481Y0239719D01*
X0080492Y0239547D01*
X0080498Y0239376D01*
X0080500Y0239204D01*
X0080498Y0239032D01*
X0080492Y0238861D01*
X0080481Y0238689D01*
X0080466Y0238518D01*
X0080447Y0238347D01*
X0080424Y0238177D01*
X0080397Y0238007D01*
X0080365Y0237838D01*
X0080330Y0237670D01*
X0080290Y0237503D01*
X0080246Y0237337D01*
X0080199Y0237172D01*
X0080147Y0237008D01*
X0080091Y0236846D01*
X0080031Y0236685D01*
X0079967Y0236525D01*
X0079899Y0236367D01*
X0079828Y0236211D01*
X0079753Y0236057D01*
X0079673Y0235904D01*
X0079591Y0235754D01*
X0079504Y0235605D01*
X0079414Y0235459D01*
X0079320Y0235315D01*
X0079223Y0235173D01*
X0079122Y0235034D01*
X0079018Y0234897D01*
X0078911Y0234763D01*
X0078800Y0234632D01*
X0078687Y0234503D01*
X0078570Y0234377D01*
X0078450Y0234254D01*
X0078327Y0234134D01*
X0078201Y0234017D01*
X0078072Y0233904D01*
X0077941Y0233793D01*
X0077807Y0233686D01*
X0077670Y0233582D01*
X0077531Y0233481D01*
X0077389Y0233384D01*
X0077245Y0233290D01*
X0077099Y0233200D01*
X0076950Y0233113D01*
X0076800Y0233031D01*
X0076647Y0232951D01*
X0076493Y0232876D01*
X0076337Y0232805D01*
X0076179Y0232737D01*
X0076019Y0232673D01*
X0075858Y0232613D01*
X0075696Y0232557D01*
X0075532Y0232505D01*
X0075367Y0232458D01*
X0075201Y0232414D01*
X0075034Y0232374D01*
X0074866Y0232339D01*
X0074697Y0232307D01*
X0074527Y0232280D01*
X0074357Y0232257D01*
X0074186Y0232238D01*
X0074015Y0232223D01*
X0073843Y0232212D01*
X0073672Y0232206D01*
X0073500Y0232204D01*
X0073328Y0232206D01*
X0073157Y0232212D01*
X0072985Y0232223D01*
X0072814Y0232238D01*
X0072643Y0232257D01*
X0072473Y0232280D01*
X0072303Y0232307D01*
X0072134Y0232339D01*
X0071966Y0232374D01*
X0071799Y0232414D01*
X0071633Y0232458D01*
X0071468Y0232505D01*
X0071304Y0232557D01*
X0071142Y0232613D01*
X0070981Y0232673D01*
X0070821Y0232737D01*
X0070663Y0232805D01*
X0070507Y0232876D01*
X0070353Y0232951D01*
X0070200Y0233031D01*
X0070050Y0233113D01*
X0069901Y0233200D01*
X0069755Y0233290D01*
X0069611Y0233384D01*
X0069469Y0233481D01*
X0069330Y0233582D01*
X0069193Y0233686D01*
X0069059Y0233793D01*
X0068928Y0233904D01*
X0068799Y0234017D01*
X0068673Y0234134D01*
X0068550Y0234254D01*
X0068430Y0234377D01*
X0068313Y0234503D01*
X0068200Y0234632D01*
X0068089Y0234763D01*
X0067982Y0234897D01*
X0067878Y0235034D01*
X0067777Y0235173D01*
X0067680Y0235315D01*
X0067586Y0235459D01*
X0067496Y0235605D01*
X0067409Y0235754D01*
X0067327Y0235904D01*
X0067247Y0236057D01*
X0067172Y0236211D01*
X0067101Y0236367D01*
X0067033Y0236525D01*
X0066969Y0236685D01*
X0066909Y0236846D01*
X0066853Y0237008D01*
X0066801Y0237172D01*
X0066754Y0237337D01*
X0066710Y0237503D01*
X0066670Y0237670D01*
X0066635Y0237838D01*
X0066603Y0238007D01*
X0066576Y0238177D01*
X0066553Y0238347D01*
X0066534Y0238518D01*
X0066519Y0238689D01*
X0066508Y0238861D01*
X0066502Y0239032D01*
X0066500Y0239204D01*
X0061500Y0243704D02*
X0061500Y0234204D01*
X0061500Y0230704D01*
X0069500Y0227204D02*
X0070500Y0227204D01*
X0070500Y0226204D01*
X0076500Y0226204D01*
X0076500Y0227204D01*
X0077500Y0227204D01*
X0061500Y0243704D02*
X0061500Y0247704D01*
X0069500Y0251204D02*
X0070500Y0251204D01*
X0070500Y0252204D01*
X0076500Y0252204D01*
X0076500Y0251204D01*
X0077500Y0251204D01*
X0081800Y0205704D02*
X0070400Y0205704D01*
X0070400Y0202704D01*
X0081800Y0202704D01*
X0081800Y0205704D01*
X0085200Y0203204D02*
X0085200Y0200204D01*
X0096600Y0200204D01*
X0096600Y0203204D01*
X0085200Y0203204D01*
X0076500Y0189704D02*
X0070500Y0189704D01*
X0070500Y0188704D01*
X0069500Y0188704D01*
X0061500Y0185204D02*
X0061500Y0181204D01*
X0061500Y0171704D01*
X0061500Y0168204D01*
X0069500Y0164704D02*
X0070500Y0164704D01*
X0070500Y0163704D01*
X0076500Y0163704D01*
X0076500Y0164704D01*
X0077500Y0164704D01*
X0085500Y0168204D02*
X0085500Y0171704D01*
X0085500Y0181704D01*
X0085500Y0185204D01*
X0077500Y0188704D02*
X0076500Y0188704D01*
X0076500Y0189704D01*
X0072500Y0176704D02*
X0072502Y0176767D01*
X0072508Y0176829D01*
X0072518Y0176891D01*
X0072531Y0176953D01*
X0072549Y0177013D01*
X0072570Y0177072D01*
X0072595Y0177130D01*
X0072624Y0177186D01*
X0072656Y0177240D01*
X0072691Y0177292D01*
X0072729Y0177341D01*
X0072771Y0177389D01*
X0072815Y0177433D01*
X0072863Y0177475D01*
X0072912Y0177513D01*
X0072964Y0177548D01*
X0073018Y0177580D01*
X0073074Y0177609D01*
X0073132Y0177634D01*
X0073191Y0177655D01*
X0073251Y0177673D01*
X0073313Y0177686D01*
X0073375Y0177696D01*
X0073437Y0177702D01*
X0073500Y0177704D01*
X0073563Y0177702D01*
X0073625Y0177696D01*
X0073687Y0177686D01*
X0073749Y0177673D01*
X0073809Y0177655D01*
X0073868Y0177634D01*
X0073926Y0177609D01*
X0073982Y0177580D01*
X0074036Y0177548D01*
X0074088Y0177513D01*
X0074137Y0177475D01*
X0074185Y0177433D01*
X0074229Y0177389D01*
X0074271Y0177341D01*
X0074309Y0177292D01*
X0074344Y0177240D01*
X0074376Y0177186D01*
X0074405Y0177130D01*
X0074430Y0177072D01*
X0074451Y0177013D01*
X0074469Y0176953D01*
X0074482Y0176891D01*
X0074492Y0176829D01*
X0074498Y0176767D01*
X0074500Y0176704D01*
X0074498Y0176641D01*
X0074492Y0176579D01*
X0074482Y0176517D01*
X0074469Y0176455D01*
X0074451Y0176395D01*
X0074430Y0176336D01*
X0074405Y0176278D01*
X0074376Y0176222D01*
X0074344Y0176168D01*
X0074309Y0176116D01*
X0074271Y0176067D01*
X0074229Y0176019D01*
X0074185Y0175975D01*
X0074137Y0175933D01*
X0074088Y0175895D01*
X0074036Y0175860D01*
X0073982Y0175828D01*
X0073926Y0175799D01*
X0073868Y0175774D01*
X0073809Y0175753D01*
X0073749Y0175735D01*
X0073687Y0175722D01*
X0073625Y0175712D01*
X0073563Y0175706D01*
X0073500Y0175704D01*
X0073437Y0175706D01*
X0073375Y0175712D01*
X0073313Y0175722D01*
X0073251Y0175735D01*
X0073191Y0175753D01*
X0073132Y0175774D01*
X0073074Y0175799D01*
X0073018Y0175828D01*
X0072964Y0175860D01*
X0072912Y0175895D01*
X0072863Y0175933D01*
X0072815Y0175975D01*
X0072771Y0176019D01*
X0072729Y0176067D01*
X0072691Y0176116D01*
X0072656Y0176168D01*
X0072624Y0176222D01*
X0072595Y0176278D01*
X0072570Y0176336D01*
X0072549Y0176395D01*
X0072531Y0176455D01*
X0072518Y0176517D01*
X0072508Y0176579D01*
X0072502Y0176641D01*
X0072500Y0176704D01*
X0066500Y0176704D02*
X0066502Y0176876D01*
X0066508Y0177047D01*
X0066519Y0177219D01*
X0066534Y0177390D01*
X0066553Y0177561D01*
X0066576Y0177731D01*
X0066603Y0177901D01*
X0066635Y0178070D01*
X0066670Y0178238D01*
X0066710Y0178405D01*
X0066754Y0178571D01*
X0066801Y0178736D01*
X0066853Y0178900D01*
X0066909Y0179062D01*
X0066969Y0179223D01*
X0067033Y0179383D01*
X0067101Y0179541D01*
X0067172Y0179697D01*
X0067247Y0179851D01*
X0067327Y0180004D01*
X0067409Y0180154D01*
X0067496Y0180303D01*
X0067586Y0180449D01*
X0067680Y0180593D01*
X0067777Y0180735D01*
X0067878Y0180874D01*
X0067982Y0181011D01*
X0068089Y0181145D01*
X0068200Y0181276D01*
X0068313Y0181405D01*
X0068430Y0181531D01*
X0068550Y0181654D01*
X0068673Y0181774D01*
X0068799Y0181891D01*
X0068928Y0182004D01*
X0069059Y0182115D01*
X0069193Y0182222D01*
X0069330Y0182326D01*
X0069469Y0182427D01*
X0069611Y0182524D01*
X0069755Y0182618D01*
X0069901Y0182708D01*
X0070050Y0182795D01*
X0070200Y0182877D01*
X0070353Y0182957D01*
X0070507Y0183032D01*
X0070663Y0183103D01*
X0070821Y0183171D01*
X0070981Y0183235D01*
X0071142Y0183295D01*
X0071304Y0183351D01*
X0071468Y0183403D01*
X0071633Y0183450D01*
X0071799Y0183494D01*
X0071966Y0183534D01*
X0072134Y0183569D01*
X0072303Y0183601D01*
X0072473Y0183628D01*
X0072643Y0183651D01*
X0072814Y0183670D01*
X0072985Y0183685D01*
X0073157Y0183696D01*
X0073328Y0183702D01*
X0073500Y0183704D01*
X0073672Y0183702D01*
X0073843Y0183696D01*
X0074015Y0183685D01*
X0074186Y0183670D01*
X0074357Y0183651D01*
X0074527Y0183628D01*
X0074697Y0183601D01*
X0074866Y0183569D01*
X0075034Y0183534D01*
X0075201Y0183494D01*
X0075367Y0183450D01*
X0075532Y0183403D01*
X0075696Y0183351D01*
X0075858Y0183295D01*
X0076019Y0183235D01*
X0076179Y0183171D01*
X0076337Y0183103D01*
X0076493Y0183032D01*
X0076647Y0182957D01*
X0076800Y0182877D01*
X0076950Y0182795D01*
X0077099Y0182708D01*
X0077245Y0182618D01*
X0077389Y0182524D01*
X0077531Y0182427D01*
X0077670Y0182326D01*
X0077807Y0182222D01*
X0077941Y0182115D01*
X0078072Y0182004D01*
X0078201Y0181891D01*
X0078327Y0181774D01*
X0078450Y0181654D01*
X0078570Y0181531D01*
X0078687Y0181405D01*
X0078800Y0181276D01*
X0078911Y0181145D01*
X0079018Y0181011D01*
X0079122Y0180874D01*
X0079223Y0180735D01*
X0079320Y0180593D01*
X0079414Y0180449D01*
X0079504Y0180303D01*
X0079591Y0180154D01*
X0079673Y0180004D01*
X0079753Y0179851D01*
X0079828Y0179697D01*
X0079899Y0179541D01*
X0079967Y0179383D01*
X0080031Y0179223D01*
X0080091Y0179062D01*
X0080147Y0178900D01*
X0080199Y0178736D01*
X0080246Y0178571D01*
X0080290Y0178405D01*
X0080330Y0178238D01*
X0080365Y0178070D01*
X0080397Y0177901D01*
X0080424Y0177731D01*
X0080447Y0177561D01*
X0080466Y0177390D01*
X0080481Y0177219D01*
X0080492Y0177047D01*
X0080498Y0176876D01*
X0080500Y0176704D01*
X0080498Y0176532D01*
X0080492Y0176361D01*
X0080481Y0176189D01*
X0080466Y0176018D01*
X0080447Y0175847D01*
X0080424Y0175677D01*
X0080397Y0175507D01*
X0080365Y0175338D01*
X0080330Y0175170D01*
X0080290Y0175003D01*
X0080246Y0174837D01*
X0080199Y0174672D01*
X0080147Y0174508D01*
X0080091Y0174346D01*
X0080031Y0174185D01*
X0079967Y0174025D01*
X0079899Y0173867D01*
X0079828Y0173711D01*
X0079753Y0173557D01*
X0079673Y0173404D01*
X0079591Y0173254D01*
X0079504Y0173105D01*
X0079414Y0172959D01*
X0079320Y0172815D01*
X0079223Y0172673D01*
X0079122Y0172534D01*
X0079018Y0172397D01*
X0078911Y0172263D01*
X0078800Y0172132D01*
X0078687Y0172003D01*
X0078570Y0171877D01*
X0078450Y0171754D01*
X0078327Y0171634D01*
X0078201Y0171517D01*
X0078072Y0171404D01*
X0077941Y0171293D01*
X0077807Y0171186D01*
X0077670Y0171082D01*
X0077531Y0170981D01*
X0077389Y0170884D01*
X0077245Y0170790D01*
X0077099Y0170700D01*
X0076950Y0170613D01*
X0076800Y0170531D01*
X0076647Y0170451D01*
X0076493Y0170376D01*
X0076337Y0170305D01*
X0076179Y0170237D01*
X0076019Y0170173D01*
X0075858Y0170113D01*
X0075696Y0170057D01*
X0075532Y0170005D01*
X0075367Y0169958D01*
X0075201Y0169914D01*
X0075034Y0169874D01*
X0074866Y0169839D01*
X0074697Y0169807D01*
X0074527Y0169780D01*
X0074357Y0169757D01*
X0074186Y0169738D01*
X0074015Y0169723D01*
X0073843Y0169712D01*
X0073672Y0169706D01*
X0073500Y0169704D01*
X0073328Y0169706D01*
X0073157Y0169712D01*
X0072985Y0169723D01*
X0072814Y0169738D01*
X0072643Y0169757D01*
X0072473Y0169780D01*
X0072303Y0169807D01*
X0072134Y0169839D01*
X0071966Y0169874D01*
X0071799Y0169914D01*
X0071633Y0169958D01*
X0071468Y0170005D01*
X0071304Y0170057D01*
X0071142Y0170113D01*
X0070981Y0170173D01*
X0070821Y0170237D01*
X0070663Y0170305D01*
X0070507Y0170376D01*
X0070353Y0170451D01*
X0070200Y0170531D01*
X0070050Y0170613D01*
X0069901Y0170700D01*
X0069755Y0170790D01*
X0069611Y0170884D01*
X0069469Y0170981D01*
X0069330Y0171082D01*
X0069193Y0171186D01*
X0069059Y0171293D01*
X0068928Y0171404D01*
X0068799Y0171517D01*
X0068673Y0171634D01*
X0068550Y0171754D01*
X0068430Y0171877D01*
X0068313Y0172003D01*
X0068200Y0172132D01*
X0068089Y0172263D01*
X0067982Y0172397D01*
X0067878Y0172534D01*
X0067777Y0172673D01*
X0067680Y0172815D01*
X0067586Y0172959D01*
X0067496Y0173105D01*
X0067409Y0173254D01*
X0067327Y0173404D01*
X0067247Y0173557D01*
X0067172Y0173711D01*
X0067101Y0173867D01*
X0067033Y0174025D01*
X0066969Y0174185D01*
X0066909Y0174346D01*
X0066853Y0174508D01*
X0066801Y0174672D01*
X0066754Y0174837D01*
X0066710Y0175003D01*
X0066670Y0175170D01*
X0066635Y0175338D01*
X0066603Y0175507D01*
X0066576Y0175677D01*
X0066553Y0175847D01*
X0066534Y0176018D01*
X0066519Y0176189D01*
X0066508Y0176361D01*
X0066502Y0176532D01*
X0066500Y0176704D01*
X0184000Y0122704D02*
X0184000Y0118704D01*
X0184000Y0109204D01*
X0184000Y0105704D01*
X0192000Y0102204D02*
X0193000Y0102204D01*
X0193000Y0101204D01*
X0199000Y0101204D01*
X0199000Y0102204D01*
X0200000Y0102204D01*
X0208000Y0105704D02*
X0208000Y0109204D01*
X0208000Y0119204D01*
X0208000Y0122704D01*
X0200000Y0126204D02*
X0199000Y0126204D01*
X0199000Y0127204D01*
X0193000Y0127204D01*
X0193000Y0126204D01*
X0192000Y0126204D01*
X0195000Y0114204D02*
X0195002Y0114267D01*
X0195008Y0114329D01*
X0195018Y0114391D01*
X0195031Y0114453D01*
X0195049Y0114513D01*
X0195070Y0114572D01*
X0195095Y0114630D01*
X0195124Y0114686D01*
X0195156Y0114740D01*
X0195191Y0114792D01*
X0195229Y0114841D01*
X0195271Y0114889D01*
X0195315Y0114933D01*
X0195363Y0114975D01*
X0195412Y0115013D01*
X0195464Y0115048D01*
X0195518Y0115080D01*
X0195574Y0115109D01*
X0195632Y0115134D01*
X0195691Y0115155D01*
X0195751Y0115173D01*
X0195813Y0115186D01*
X0195875Y0115196D01*
X0195937Y0115202D01*
X0196000Y0115204D01*
X0196063Y0115202D01*
X0196125Y0115196D01*
X0196187Y0115186D01*
X0196249Y0115173D01*
X0196309Y0115155D01*
X0196368Y0115134D01*
X0196426Y0115109D01*
X0196482Y0115080D01*
X0196536Y0115048D01*
X0196588Y0115013D01*
X0196637Y0114975D01*
X0196685Y0114933D01*
X0196729Y0114889D01*
X0196771Y0114841D01*
X0196809Y0114792D01*
X0196844Y0114740D01*
X0196876Y0114686D01*
X0196905Y0114630D01*
X0196930Y0114572D01*
X0196951Y0114513D01*
X0196969Y0114453D01*
X0196982Y0114391D01*
X0196992Y0114329D01*
X0196998Y0114267D01*
X0197000Y0114204D01*
X0196998Y0114141D01*
X0196992Y0114079D01*
X0196982Y0114017D01*
X0196969Y0113955D01*
X0196951Y0113895D01*
X0196930Y0113836D01*
X0196905Y0113778D01*
X0196876Y0113722D01*
X0196844Y0113668D01*
X0196809Y0113616D01*
X0196771Y0113567D01*
X0196729Y0113519D01*
X0196685Y0113475D01*
X0196637Y0113433D01*
X0196588Y0113395D01*
X0196536Y0113360D01*
X0196482Y0113328D01*
X0196426Y0113299D01*
X0196368Y0113274D01*
X0196309Y0113253D01*
X0196249Y0113235D01*
X0196187Y0113222D01*
X0196125Y0113212D01*
X0196063Y0113206D01*
X0196000Y0113204D01*
X0195937Y0113206D01*
X0195875Y0113212D01*
X0195813Y0113222D01*
X0195751Y0113235D01*
X0195691Y0113253D01*
X0195632Y0113274D01*
X0195574Y0113299D01*
X0195518Y0113328D01*
X0195464Y0113360D01*
X0195412Y0113395D01*
X0195363Y0113433D01*
X0195315Y0113475D01*
X0195271Y0113519D01*
X0195229Y0113567D01*
X0195191Y0113616D01*
X0195156Y0113668D01*
X0195124Y0113722D01*
X0195095Y0113778D01*
X0195070Y0113836D01*
X0195049Y0113895D01*
X0195031Y0113955D01*
X0195018Y0114017D01*
X0195008Y0114079D01*
X0195002Y0114141D01*
X0195000Y0114204D01*
X0189000Y0114204D02*
X0189002Y0114376D01*
X0189008Y0114547D01*
X0189019Y0114719D01*
X0189034Y0114890D01*
X0189053Y0115061D01*
X0189076Y0115231D01*
X0189103Y0115401D01*
X0189135Y0115570D01*
X0189170Y0115738D01*
X0189210Y0115905D01*
X0189254Y0116071D01*
X0189301Y0116236D01*
X0189353Y0116400D01*
X0189409Y0116562D01*
X0189469Y0116723D01*
X0189533Y0116883D01*
X0189601Y0117041D01*
X0189672Y0117197D01*
X0189747Y0117351D01*
X0189827Y0117504D01*
X0189909Y0117654D01*
X0189996Y0117803D01*
X0190086Y0117949D01*
X0190180Y0118093D01*
X0190277Y0118235D01*
X0190378Y0118374D01*
X0190482Y0118511D01*
X0190589Y0118645D01*
X0190700Y0118776D01*
X0190813Y0118905D01*
X0190930Y0119031D01*
X0191050Y0119154D01*
X0191173Y0119274D01*
X0191299Y0119391D01*
X0191428Y0119504D01*
X0191559Y0119615D01*
X0191693Y0119722D01*
X0191830Y0119826D01*
X0191969Y0119927D01*
X0192111Y0120024D01*
X0192255Y0120118D01*
X0192401Y0120208D01*
X0192550Y0120295D01*
X0192700Y0120377D01*
X0192853Y0120457D01*
X0193007Y0120532D01*
X0193163Y0120603D01*
X0193321Y0120671D01*
X0193481Y0120735D01*
X0193642Y0120795D01*
X0193804Y0120851D01*
X0193968Y0120903D01*
X0194133Y0120950D01*
X0194299Y0120994D01*
X0194466Y0121034D01*
X0194634Y0121069D01*
X0194803Y0121101D01*
X0194973Y0121128D01*
X0195143Y0121151D01*
X0195314Y0121170D01*
X0195485Y0121185D01*
X0195657Y0121196D01*
X0195828Y0121202D01*
X0196000Y0121204D01*
X0196172Y0121202D01*
X0196343Y0121196D01*
X0196515Y0121185D01*
X0196686Y0121170D01*
X0196857Y0121151D01*
X0197027Y0121128D01*
X0197197Y0121101D01*
X0197366Y0121069D01*
X0197534Y0121034D01*
X0197701Y0120994D01*
X0197867Y0120950D01*
X0198032Y0120903D01*
X0198196Y0120851D01*
X0198358Y0120795D01*
X0198519Y0120735D01*
X0198679Y0120671D01*
X0198837Y0120603D01*
X0198993Y0120532D01*
X0199147Y0120457D01*
X0199300Y0120377D01*
X0199450Y0120295D01*
X0199599Y0120208D01*
X0199745Y0120118D01*
X0199889Y0120024D01*
X0200031Y0119927D01*
X0200170Y0119826D01*
X0200307Y0119722D01*
X0200441Y0119615D01*
X0200572Y0119504D01*
X0200701Y0119391D01*
X0200827Y0119274D01*
X0200950Y0119154D01*
X0201070Y0119031D01*
X0201187Y0118905D01*
X0201300Y0118776D01*
X0201411Y0118645D01*
X0201518Y0118511D01*
X0201622Y0118374D01*
X0201723Y0118235D01*
X0201820Y0118093D01*
X0201914Y0117949D01*
X0202004Y0117803D01*
X0202091Y0117654D01*
X0202173Y0117504D01*
X0202253Y0117351D01*
X0202328Y0117197D01*
X0202399Y0117041D01*
X0202467Y0116883D01*
X0202531Y0116723D01*
X0202591Y0116562D01*
X0202647Y0116400D01*
X0202699Y0116236D01*
X0202746Y0116071D01*
X0202790Y0115905D01*
X0202830Y0115738D01*
X0202865Y0115570D01*
X0202897Y0115401D01*
X0202924Y0115231D01*
X0202947Y0115061D01*
X0202966Y0114890D01*
X0202981Y0114719D01*
X0202992Y0114547D01*
X0202998Y0114376D01*
X0203000Y0114204D01*
X0202998Y0114032D01*
X0202992Y0113861D01*
X0202981Y0113689D01*
X0202966Y0113518D01*
X0202947Y0113347D01*
X0202924Y0113177D01*
X0202897Y0113007D01*
X0202865Y0112838D01*
X0202830Y0112670D01*
X0202790Y0112503D01*
X0202746Y0112337D01*
X0202699Y0112172D01*
X0202647Y0112008D01*
X0202591Y0111846D01*
X0202531Y0111685D01*
X0202467Y0111525D01*
X0202399Y0111367D01*
X0202328Y0111211D01*
X0202253Y0111057D01*
X0202173Y0110904D01*
X0202091Y0110754D01*
X0202004Y0110605D01*
X0201914Y0110459D01*
X0201820Y0110315D01*
X0201723Y0110173D01*
X0201622Y0110034D01*
X0201518Y0109897D01*
X0201411Y0109763D01*
X0201300Y0109632D01*
X0201187Y0109503D01*
X0201070Y0109377D01*
X0200950Y0109254D01*
X0200827Y0109134D01*
X0200701Y0109017D01*
X0200572Y0108904D01*
X0200441Y0108793D01*
X0200307Y0108686D01*
X0200170Y0108582D01*
X0200031Y0108481D01*
X0199889Y0108384D01*
X0199745Y0108290D01*
X0199599Y0108200D01*
X0199450Y0108113D01*
X0199300Y0108031D01*
X0199147Y0107951D01*
X0198993Y0107876D01*
X0198837Y0107805D01*
X0198679Y0107737D01*
X0198519Y0107673D01*
X0198358Y0107613D01*
X0198196Y0107557D01*
X0198032Y0107505D01*
X0197867Y0107458D01*
X0197701Y0107414D01*
X0197534Y0107374D01*
X0197366Y0107339D01*
X0197197Y0107307D01*
X0197027Y0107280D01*
X0196857Y0107257D01*
X0196686Y0107238D01*
X0196515Y0107223D01*
X0196343Y0107212D01*
X0196172Y0107206D01*
X0196000Y0107204D01*
X0195828Y0107206D01*
X0195657Y0107212D01*
X0195485Y0107223D01*
X0195314Y0107238D01*
X0195143Y0107257D01*
X0194973Y0107280D01*
X0194803Y0107307D01*
X0194634Y0107339D01*
X0194466Y0107374D01*
X0194299Y0107414D01*
X0194133Y0107458D01*
X0193968Y0107505D01*
X0193804Y0107557D01*
X0193642Y0107613D01*
X0193481Y0107673D01*
X0193321Y0107737D01*
X0193163Y0107805D01*
X0193007Y0107876D01*
X0192853Y0107951D01*
X0192700Y0108031D01*
X0192550Y0108113D01*
X0192401Y0108200D01*
X0192255Y0108290D01*
X0192111Y0108384D01*
X0191969Y0108481D01*
X0191830Y0108582D01*
X0191693Y0108686D01*
X0191559Y0108793D01*
X0191428Y0108904D01*
X0191299Y0109017D01*
X0191173Y0109134D01*
X0191050Y0109254D01*
X0190930Y0109377D01*
X0190813Y0109503D01*
X0190700Y0109632D01*
X0190589Y0109763D01*
X0190482Y0109897D01*
X0190378Y0110034D01*
X0190277Y0110173D01*
X0190180Y0110315D01*
X0190086Y0110459D01*
X0189996Y0110605D01*
X0189909Y0110754D01*
X0189827Y0110904D01*
X0189747Y0111057D01*
X0189672Y0111211D01*
X0189601Y0111367D01*
X0189533Y0111525D01*
X0189469Y0111685D01*
X0189409Y0111846D01*
X0189353Y0112008D01*
X0189301Y0112172D01*
X0189254Y0112337D01*
X0189210Y0112503D01*
X0189170Y0112670D01*
X0189135Y0112838D01*
X0189103Y0113007D01*
X0189076Y0113177D01*
X0189053Y0113347D01*
X0189034Y0113518D01*
X0189019Y0113689D01*
X0189008Y0113861D01*
X0189002Y0114032D01*
X0189000Y0114204D01*
X0261500Y0118704D02*
X0261500Y0109204D01*
X0261500Y0105704D01*
X0269500Y0102204D02*
X0270500Y0102204D01*
X0270500Y0101204D01*
X0276500Y0101204D01*
X0276500Y0102204D01*
X0277500Y0102204D01*
X0285500Y0105704D02*
X0285500Y0109204D01*
X0285500Y0119204D01*
X0285500Y0122704D01*
X0277500Y0126204D02*
X0276500Y0126204D01*
X0276500Y0127204D01*
X0270500Y0127204D01*
X0270500Y0126204D01*
X0269500Y0126204D01*
X0261500Y0122704D02*
X0261500Y0118704D01*
X0272500Y0114204D02*
X0272502Y0114267D01*
X0272508Y0114329D01*
X0272518Y0114391D01*
X0272531Y0114453D01*
X0272549Y0114513D01*
X0272570Y0114572D01*
X0272595Y0114630D01*
X0272624Y0114686D01*
X0272656Y0114740D01*
X0272691Y0114792D01*
X0272729Y0114841D01*
X0272771Y0114889D01*
X0272815Y0114933D01*
X0272863Y0114975D01*
X0272912Y0115013D01*
X0272964Y0115048D01*
X0273018Y0115080D01*
X0273074Y0115109D01*
X0273132Y0115134D01*
X0273191Y0115155D01*
X0273251Y0115173D01*
X0273313Y0115186D01*
X0273375Y0115196D01*
X0273437Y0115202D01*
X0273500Y0115204D01*
X0273563Y0115202D01*
X0273625Y0115196D01*
X0273687Y0115186D01*
X0273749Y0115173D01*
X0273809Y0115155D01*
X0273868Y0115134D01*
X0273926Y0115109D01*
X0273982Y0115080D01*
X0274036Y0115048D01*
X0274088Y0115013D01*
X0274137Y0114975D01*
X0274185Y0114933D01*
X0274229Y0114889D01*
X0274271Y0114841D01*
X0274309Y0114792D01*
X0274344Y0114740D01*
X0274376Y0114686D01*
X0274405Y0114630D01*
X0274430Y0114572D01*
X0274451Y0114513D01*
X0274469Y0114453D01*
X0274482Y0114391D01*
X0274492Y0114329D01*
X0274498Y0114267D01*
X0274500Y0114204D01*
X0274498Y0114141D01*
X0274492Y0114079D01*
X0274482Y0114017D01*
X0274469Y0113955D01*
X0274451Y0113895D01*
X0274430Y0113836D01*
X0274405Y0113778D01*
X0274376Y0113722D01*
X0274344Y0113668D01*
X0274309Y0113616D01*
X0274271Y0113567D01*
X0274229Y0113519D01*
X0274185Y0113475D01*
X0274137Y0113433D01*
X0274088Y0113395D01*
X0274036Y0113360D01*
X0273982Y0113328D01*
X0273926Y0113299D01*
X0273868Y0113274D01*
X0273809Y0113253D01*
X0273749Y0113235D01*
X0273687Y0113222D01*
X0273625Y0113212D01*
X0273563Y0113206D01*
X0273500Y0113204D01*
X0273437Y0113206D01*
X0273375Y0113212D01*
X0273313Y0113222D01*
X0273251Y0113235D01*
X0273191Y0113253D01*
X0273132Y0113274D01*
X0273074Y0113299D01*
X0273018Y0113328D01*
X0272964Y0113360D01*
X0272912Y0113395D01*
X0272863Y0113433D01*
X0272815Y0113475D01*
X0272771Y0113519D01*
X0272729Y0113567D01*
X0272691Y0113616D01*
X0272656Y0113668D01*
X0272624Y0113722D01*
X0272595Y0113778D01*
X0272570Y0113836D01*
X0272549Y0113895D01*
X0272531Y0113955D01*
X0272518Y0114017D01*
X0272508Y0114079D01*
X0272502Y0114141D01*
X0272500Y0114204D01*
X0266500Y0114204D02*
X0266502Y0114376D01*
X0266508Y0114547D01*
X0266519Y0114719D01*
X0266534Y0114890D01*
X0266553Y0115061D01*
X0266576Y0115231D01*
X0266603Y0115401D01*
X0266635Y0115570D01*
X0266670Y0115738D01*
X0266710Y0115905D01*
X0266754Y0116071D01*
X0266801Y0116236D01*
X0266853Y0116400D01*
X0266909Y0116562D01*
X0266969Y0116723D01*
X0267033Y0116883D01*
X0267101Y0117041D01*
X0267172Y0117197D01*
X0267247Y0117351D01*
X0267327Y0117504D01*
X0267409Y0117654D01*
X0267496Y0117803D01*
X0267586Y0117949D01*
X0267680Y0118093D01*
X0267777Y0118235D01*
X0267878Y0118374D01*
X0267982Y0118511D01*
X0268089Y0118645D01*
X0268200Y0118776D01*
X0268313Y0118905D01*
X0268430Y0119031D01*
X0268550Y0119154D01*
X0268673Y0119274D01*
X0268799Y0119391D01*
X0268928Y0119504D01*
X0269059Y0119615D01*
X0269193Y0119722D01*
X0269330Y0119826D01*
X0269469Y0119927D01*
X0269611Y0120024D01*
X0269755Y0120118D01*
X0269901Y0120208D01*
X0270050Y0120295D01*
X0270200Y0120377D01*
X0270353Y0120457D01*
X0270507Y0120532D01*
X0270663Y0120603D01*
X0270821Y0120671D01*
X0270981Y0120735D01*
X0271142Y0120795D01*
X0271304Y0120851D01*
X0271468Y0120903D01*
X0271633Y0120950D01*
X0271799Y0120994D01*
X0271966Y0121034D01*
X0272134Y0121069D01*
X0272303Y0121101D01*
X0272473Y0121128D01*
X0272643Y0121151D01*
X0272814Y0121170D01*
X0272985Y0121185D01*
X0273157Y0121196D01*
X0273328Y0121202D01*
X0273500Y0121204D01*
X0273672Y0121202D01*
X0273843Y0121196D01*
X0274015Y0121185D01*
X0274186Y0121170D01*
X0274357Y0121151D01*
X0274527Y0121128D01*
X0274697Y0121101D01*
X0274866Y0121069D01*
X0275034Y0121034D01*
X0275201Y0120994D01*
X0275367Y0120950D01*
X0275532Y0120903D01*
X0275696Y0120851D01*
X0275858Y0120795D01*
X0276019Y0120735D01*
X0276179Y0120671D01*
X0276337Y0120603D01*
X0276493Y0120532D01*
X0276647Y0120457D01*
X0276800Y0120377D01*
X0276950Y0120295D01*
X0277099Y0120208D01*
X0277245Y0120118D01*
X0277389Y0120024D01*
X0277531Y0119927D01*
X0277670Y0119826D01*
X0277807Y0119722D01*
X0277941Y0119615D01*
X0278072Y0119504D01*
X0278201Y0119391D01*
X0278327Y0119274D01*
X0278450Y0119154D01*
X0278570Y0119031D01*
X0278687Y0118905D01*
X0278800Y0118776D01*
X0278911Y0118645D01*
X0279018Y0118511D01*
X0279122Y0118374D01*
X0279223Y0118235D01*
X0279320Y0118093D01*
X0279414Y0117949D01*
X0279504Y0117803D01*
X0279591Y0117654D01*
X0279673Y0117504D01*
X0279753Y0117351D01*
X0279828Y0117197D01*
X0279899Y0117041D01*
X0279967Y0116883D01*
X0280031Y0116723D01*
X0280091Y0116562D01*
X0280147Y0116400D01*
X0280199Y0116236D01*
X0280246Y0116071D01*
X0280290Y0115905D01*
X0280330Y0115738D01*
X0280365Y0115570D01*
X0280397Y0115401D01*
X0280424Y0115231D01*
X0280447Y0115061D01*
X0280466Y0114890D01*
X0280481Y0114719D01*
X0280492Y0114547D01*
X0280498Y0114376D01*
X0280500Y0114204D01*
X0280498Y0114032D01*
X0280492Y0113861D01*
X0280481Y0113689D01*
X0280466Y0113518D01*
X0280447Y0113347D01*
X0280424Y0113177D01*
X0280397Y0113007D01*
X0280365Y0112838D01*
X0280330Y0112670D01*
X0280290Y0112503D01*
X0280246Y0112337D01*
X0280199Y0112172D01*
X0280147Y0112008D01*
X0280091Y0111846D01*
X0280031Y0111685D01*
X0279967Y0111525D01*
X0279899Y0111367D01*
X0279828Y0111211D01*
X0279753Y0111057D01*
X0279673Y0110904D01*
X0279591Y0110754D01*
X0279504Y0110605D01*
X0279414Y0110459D01*
X0279320Y0110315D01*
X0279223Y0110173D01*
X0279122Y0110034D01*
X0279018Y0109897D01*
X0278911Y0109763D01*
X0278800Y0109632D01*
X0278687Y0109503D01*
X0278570Y0109377D01*
X0278450Y0109254D01*
X0278327Y0109134D01*
X0278201Y0109017D01*
X0278072Y0108904D01*
X0277941Y0108793D01*
X0277807Y0108686D01*
X0277670Y0108582D01*
X0277531Y0108481D01*
X0277389Y0108384D01*
X0277245Y0108290D01*
X0277099Y0108200D01*
X0276950Y0108113D01*
X0276800Y0108031D01*
X0276647Y0107951D01*
X0276493Y0107876D01*
X0276337Y0107805D01*
X0276179Y0107737D01*
X0276019Y0107673D01*
X0275858Y0107613D01*
X0275696Y0107557D01*
X0275532Y0107505D01*
X0275367Y0107458D01*
X0275201Y0107414D01*
X0275034Y0107374D01*
X0274866Y0107339D01*
X0274697Y0107307D01*
X0274527Y0107280D01*
X0274357Y0107257D01*
X0274186Y0107238D01*
X0274015Y0107223D01*
X0273843Y0107212D01*
X0273672Y0107206D01*
X0273500Y0107204D01*
X0273328Y0107206D01*
X0273157Y0107212D01*
X0272985Y0107223D01*
X0272814Y0107238D01*
X0272643Y0107257D01*
X0272473Y0107280D01*
X0272303Y0107307D01*
X0272134Y0107339D01*
X0271966Y0107374D01*
X0271799Y0107414D01*
X0271633Y0107458D01*
X0271468Y0107505D01*
X0271304Y0107557D01*
X0271142Y0107613D01*
X0270981Y0107673D01*
X0270821Y0107737D01*
X0270663Y0107805D01*
X0270507Y0107876D01*
X0270353Y0107951D01*
X0270200Y0108031D01*
X0270050Y0108113D01*
X0269901Y0108200D01*
X0269755Y0108290D01*
X0269611Y0108384D01*
X0269469Y0108481D01*
X0269330Y0108582D01*
X0269193Y0108686D01*
X0269059Y0108793D01*
X0268928Y0108904D01*
X0268799Y0109017D01*
X0268673Y0109134D01*
X0268550Y0109254D01*
X0268430Y0109377D01*
X0268313Y0109503D01*
X0268200Y0109632D01*
X0268089Y0109763D01*
X0267982Y0109897D01*
X0267878Y0110034D01*
X0267777Y0110173D01*
X0267680Y0110315D01*
X0267586Y0110459D01*
X0267496Y0110605D01*
X0267409Y0110754D01*
X0267327Y0110904D01*
X0267247Y0111057D01*
X0267172Y0111211D01*
X0267101Y0111367D01*
X0267033Y0111525D01*
X0266969Y0111685D01*
X0266909Y0111846D01*
X0266853Y0112008D01*
X0266801Y0112172D01*
X0266754Y0112337D01*
X0266710Y0112503D01*
X0266670Y0112670D01*
X0266635Y0112838D01*
X0266603Y0113007D01*
X0266576Y0113177D01*
X0266553Y0113347D01*
X0266534Y0113518D01*
X0266519Y0113689D01*
X0266508Y0113861D01*
X0266502Y0114032D01*
X0266500Y0114204D01*
X0309000Y0118704D02*
X0309000Y0109204D01*
X0309000Y0105704D01*
X0317000Y0102204D02*
X0318000Y0102204D01*
X0318000Y0101204D01*
X0324000Y0101204D01*
X0324000Y0102204D01*
X0325000Y0102204D01*
X0333000Y0105704D02*
X0333000Y0109204D01*
X0333000Y0119204D01*
X0333000Y0122704D01*
X0325000Y0126204D02*
X0324000Y0126204D01*
X0324000Y0127204D01*
X0318000Y0127204D01*
X0318000Y0126204D01*
X0317000Y0126204D01*
X0309000Y0122704D02*
X0309000Y0118704D01*
X0320000Y0114204D02*
X0320002Y0114267D01*
X0320008Y0114329D01*
X0320018Y0114391D01*
X0320031Y0114453D01*
X0320049Y0114513D01*
X0320070Y0114572D01*
X0320095Y0114630D01*
X0320124Y0114686D01*
X0320156Y0114740D01*
X0320191Y0114792D01*
X0320229Y0114841D01*
X0320271Y0114889D01*
X0320315Y0114933D01*
X0320363Y0114975D01*
X0320412Y0115013D01*
X0320464Y0115048D01*
X0320518Y0115080D01*
X0320574Y0115109D01*
X0320632Y0115134D01*
X0320691Y0115155D01*
X0320751Y0115173D01*
X0320813Y0115186D01*
X0320875Y0115196D01*
X0320937Y0115202D01*
X0321000Y0115204D01*
X0321063Y0115202D01*
X0321125Y0115196D01*
X0321187Y0115186D01*
X0321249Y0115173D01*
X0321309Y0115155D01*
X0321368Y0115134D01*
X0321426Y0115109D01*
X0321482Y0115080D01*
X0321536Y0115048D01*
X0321588Y0115013D01*
X0321637Y0114975D01*
X0321685Y0114933D01*
X0321729Y0114889D01*
X0321771Y0114841D01*
X0321809Y0114792D01*
X0321844Y0114740D01*
X0321876Y0114686D01*
X0321905Y0114630D01*
X0321930Y0114572D01*
X0321951Y0114513D01*
X0321969Y0114453D01*
X0321982Y0114391D01*
X0321992Y0114329D01*
X0321998Y0114267D01*
X0322000Y0114204D01*
X0321998Y0114141D01*
X0321992Y0114079D01*
X0321982Y0114017D01*
X0321969Y0113955D01*
X0321951Y0113895D01*
X0321930Y0113836D01*
X0321905Y0113778D01*
X0321876Y0113722D01*
X0321844Y0113668D01*
X0321809Y0113616D01*
X0321771Y0113567D01*
X0321729Y0113519D01*
X0321685Y0113475D01*
X0321637Y0113433D01*
X0321588Y0113395D01*
X0321536Y0113360D01*
X0321482Y0113328D01*
X0321426Y0113299D01*
X0321368Y0113274D01*
X0321309Y0113253D01*
X0321249Y0113235D01*
X0321187Y0113222D01*
X0321125Y0113212D01*
X0321063Y0113206D01*
X0321000Y0113204D01*
X0320937Y0113206D01*
X0320875Y0113212D01*
X0320813Y0113222D01*
X0320751Y0113235D01*
X0320691Y0113253D01*
X0320632Y0113274D01*
X0320574Y0113299D01*
X0320518Y0113328D01*
X0320464Y0113360D01*
X0320412Y0113395D01*
X0320363Y0113433D01*
X0320315Y0113475D01*
X0320271Y0113519D01*
X0320229Y0113567D01*
X0320191Y0113616D01*
X0320156Y0113668D01*
X0320124Y0113722D01*
X0320095Y0113778D01*
X0320070Y0113836D01*
X0320049Y0113895D01*
X0320031Y0113955D01*
X0320018Y0114017D01*
X0320008Y0114079D01*
X0320002Y0114141D01*
X0320000Y0114204D01*
X0314000Y0114204D02*
X0314002Y0114376D01*
X0314008Y0114547D01*
X0314019Y0114719D01*
X0314034Y0114890D01*
X0314053Y0115061D01*
X0314076Y0115231D01*
X0314103Y0115401D01*
X0314135Y0115570D01*
X0314170Y0115738D01*
X0314210Y0115905D01*
X0314254Y0116071D01*
X0314301Y0116236D01*
X0314353Y0116400D01*
X0314409Y0116562D01*
X0314469Y0116723D01*
X0314533Y0116883D01*
X0314601Y0117041D01*
X0314672Y0117197D01*
X0314747Y0117351D01*
X0314827Y0117504D01*
X0314909Y0117654D01*
X0314996Y0117803D01*
X0315086Y0117949D01*
X0315180Y0118093D01*
X0315277Y0118235D01*
X0315378Y0118374D01*
X0315482Y0118511D01*
X0315589Y0118645D01*
X0315700Y0118776D01*
X0315813Y0118905D01*
X0315930Y0119031D01*
X0316050Y0119154D01*
X0316173Y0119274D01*
X0316299Y0119391D01*
X0316428Y0119504D01*
X0316559Y0119615D01*
X0316693Y0119722D01*
X0316830Y0119826D01*
X0316969Y0119927D01*
X0317111Y0120024D01*
X0317255Y0120118D01*
X0317401Y0120208D01*
X0317550Y0120295D01*
X0317700Y0120377D01*
X0317853Y0120457D01*
X0318007Y0120532D01*
X0318163Y0120603D01*
X0318321Y0120671D01*
X0318481Y0120735D01*
X0318642Y0120795D01*
X0318804Y0120851D01*
X0318968Y0120903D01*
X0319133Y0120950D01*
X0319299Y0120994D01*
X0319466Y0121034D01*
X0319634Y0121069D01*
X0319803Y0121101D01*
X0319973Y0121128D01*
X0320143Y0121151D01*
X0320314Y0121170D01*
X0320485Y0121185D01*
X0320657Y0121196D01*
X0320828Y0121202D01*
X0321000Y0121204D01*
X0321172Y0121202D01*
X0321343Y0121196D01*
X0321515Y0121185D01*
X0321686Y0121170D01*
X0321857Y0121151D01*
X0322027Y0121128D01*
X0322197Y0121101D01*
X0322366Y0121069D01*
X0322534Y0121034D01*
X0322701Y0120994D01*
X0322867Y0120950D01*
X0323032Y0120903D01*
X0323196Y0120851D01*
X0323358Y0120795D01*
X0323519Y0120735D01*
X0323679Y0120671D01*
X0323837Y0120603D01*
X0323993Y0120532D01*
X0324147Y0120457D01*
X0324300Y0120377D01*
X0324450Y0120295D01*
X0324599Y0120208D01*
X0324745Y0120118D01*
X0324889Y0120024D01*
X0325031Y0119927D01*
X0325170Y0119826D01*
X0325307Y0119722D01*
X0325441Y0119615D01*
X0325572Y0119504D01*
X0325701Y0119391D01*
X0325827Y0119274D01*
X0325950Y0119154D01*
X0326070Y0119031D01*
X0326187Y0118905D01*
X0326300Y0118776D01*
X0326411Y0118645D01*
X0326518Y0118511D01*
X0326622Y0118374D01*
X0326723Y0118235D01*
X0326820Y0118093D01*
X0326914Y0117949D01*
X0327004Y0117803D01*
X0327091Y0117654D01*
X0327173Y0117504D01*
X0327253Y0117351D01*
X0327328Y0117197D01*
X0327399Y0117041D01*
X0327467Y0116883D01*
X0327531Y0116723D01*
X0327591Y0116562D01*
X0327647Y0116400D01*
X0327699Y0116236D01*
X0327746Y0116071D01*
X0327790Y0115905D01*
X0327830Y0115738D01*
X0327865Y0115570D01*
X0327897Y0115401D01*
X0327924Y0115231D01*
X0327947Y0115061D01*
X0327966Y0114890D01*
X0327981Y0114719D01*
X0327992Y0114547D01*
X0327998Y0114376D01*
X0328000Y0114204D01*
X0327998Y0114032D01*
X0327992Y0113861D01*
X0327981Y0113689D01*
X0327966Y0113518D01*
X0327947Y0113347D01*
X0327924Y0113177D01*
X0327897Y0113007D01*
X0327865Y0112838D01*
X0327830Y0112670D01*
X0327790Y0112503D01*
X0327746Y0112337D01*
X0327699Y0112172D01*
X0327647Y0112008D01*
X0327591Y0111846D01*
X0327531Y0111685D01*
X0327467Y0111525D01*
X0327399Y0111367D01*
X0327328Y0111211D01*
X0327253Y0111057D01*
X0327173Y0110904D01*
X0327091Y0110754D01*
X0327004Y0110605D01*
X0326914Y0110459D01*
X0326820Y0110315D01*
X0326723Y0110173D01*
X0326622Y0110034D01*
X0326518Y0109897D01*
X0326411Y0109763D01*
X0326300Y0109632D01*
X0326187Y0109503D01*
X0326070Y0109377D01*
X0325950Y0109254D01*
X0325827Y0109134D01*
X0325701Y0109017D01*
X0325572Y0108904D01*
X0325441Y0108793D01*
X0325307Y0108686D01*
X0325170Y0108582D01*
X0325031Y0108481D01*
X0324889Y0108384D01*
X0324745Y0108290D01*
X0324599Y0108200D01*
X0324450Y0108113D01*
X0324300Y0108031D01*
X0324147Y0107951D01*
X0323993Y0107876D01*
X0323837Y0107805D01*
X0323679Y0107737D01*
X0323519Y0107673D01*
X0323358Y0107613D01*
X0323196Y0107557D01*
X0323032Y0107505D01*
X0322867Y0107458D01*
X0322701Y0107414D01*
X0322534Y0107374D01*
X0322366Y0107339D01*
X0322197Y0107307D01*
X0322027Y0107280D01*
X0321857Y0107257D01*
X0321686Y0107238D01*
X0321515Y0107223D01*
X0321343Y0107212D01*
X0321172Y0107206D01*
X0321000Y0107204D01*
X0320828Y0107206D01*
X0320657Y0107212D01*
X0320485Y0107223D01*
X0320314Y0107238D01*
X0320143Y0107257D01*
X0319973Y0107280D01*
X0319803Y0107307D01*
X0319634Y0107339D01*
X0319466Y0107374D01*
X0319299Y0107414D01*
X0319133Y0107458D01*
X0318968Y0107505D01*
X0318804Y0107557D01*
X0318642Y0107613D01*
X0318481Y0107673D01*
X0318321Y0107737D01*
X0318163Y0107805D01*
X0318007Y0107876D01*
X0317853Y0107951D01*
X0317700Y0108031D01*
X0317550Y0108113D01*
X0317401Y0108200D01*
X0317255Y0108290D01*
X0317111Y0108384D01*
X0316969Y0108481D01*
X0316830Y0108582D01*
X0316693Y0108686D01*
X0316559Y0108793D01*
X0316428Y0108904D01*
X0316299Y0109017D01*
X0316173Y0109134D01*
X0316050Y0109254D01*
X0315930Y0109377D01*
X0315813Y0109503D01*
X0315700Y0109632D01*
X0315589Y0109763D01*
X0315482Y0109897D01*
X0315378Y0110034D01*
X0315277Y0110173D01*
X0315180Y0110315D01*
X0315086Y0110459D01*
X0314996Y0110605D01*
X0314909Y0110754D01*
X0314827Y0110904D01*
X0314747Y0111057D01*
X0314672Y0111211D01*
X0314601Y0111367D01*
X0314533Y0111525D01*
X0314469Y0111685D01*
X0314409Y0111846D01*
X0314353Y0112008D01*
X0314301Y0112172D01*
X0314254Y0112337D01*
X0314210Y0112503D01*
X0314170Y0112670D01*
X0314135Y0112838D01*
X0314103Y0113007D01*
X0314076Y0113177D01*
X0314053Y0113347D01*
X0314034Y0113518D01*
X0314019Y0113689D01*
X0314008Y0113861D01*
X0314002Y0114032D01*
X0314000Y0114204D01*
X0414000Y0165704D02*
X0414000Y0169204D01*
X0414000Y0178704D01*
X0414000Y0182704D01*
X0422000Y0186204D02*
X0423000Y0186204D01*
X0423000Y0187204D01*
X0429000Y0187204D01*
X0429000Y0186204D01*
X0430000Y0186204D01*
X0438000Y0182704D02*
X0438000Y0179204D01*
X0438000Y0169204D01*
X0438000Y0165704D01*
X0430000Y0162204D02*
X0429000Y0162204D01*
X0429000Y0161204D01*
X0423000Y0161204D01*
X0423000Y0162204D01*
X0422000Y0162204D01*
X0425000Y0174204D02*
X0425002Y0174267D01*
X0425008Y0174329D01*
X0425018Y0174391D01*
X0425031Y0174453D01*
X0425049Y0174513D01*
X0425070Y0174572D01*
X0425095Y0174630D01*
X0425124Y0174686D01*
X0425156Y0174740D01*
X0425191Y0174792D01*
X0425229Y0174841D01*
X0425271Y0174889D01*
X0425315Y0174933D01*
X0425363Y0174975D01*
X0425412Y0175013D01*
X0425464Y0175048D01*
X0425518Y0175080D01*
X0425574Y0175109D01*
X0425632Y0175134D01*
X0425691Y0175155D01*
X0425751Y0175173D01*
X0425813Y0175186D01*
X0425875Y0175196D01*
X0425937Y0175202D01*
X0426000Y0175204D01*
X0426063Y0175202D01*
X0426125Y0175196D01*
X0426187Y0175186D01*
X0426249Y0175173D01*
X0426309Y0175155D01*
X0426368Y0175134D01*
X0426426Y0175109D01*
X0426482Y0175080D01*
X0426536Y0175048D01*
X0426588Y0175013D01*
X0426637Y0174975D01*
X0426685Y0174933D01*
X0426729Y0174889D01*
X0426771Y0174841D01*
X0426809Y0174792D01*
X0426844Y0174740D01*
X0426876Y0174686D01*
X0426905Y0174630D01*
X0426930Y0174572D01*
X0426951Y0174513D01*
X0426969Y0174453D01*
X0426982Y0174391D01*
X0426992Y0174329D01*
X0426998Y0174267D01*
X0427000Y0174204D01*
X0426998Y0174141D01*
X0426992Y0174079D01*
X0426982Y0174017D01*
X0426969Y0173955D01*
X0426951Y0173895D01*
X0426930Y0173836D01*
X0426905Y0173778D01*
X0426876Y0173722D01*
X0426844Y0173668D01*
X0426809Y0173616D01*
X0426771Y0173567D01*
X0426729Y0173519D01*
X0426685Y0173475D01*
X0426637Y0173433D01*
X0426588Y0173395D01*
X0426536Y0173360D01*
X0426482Y0173328D01*
X0426426Y0173299D01*
X0426368Y0173274D01*
X0426309Y0173253D01*
X0426249Y0173235D01*
X0426187Y0173222D01*
X0426125Y0173212D01*
X0426063Y0173206D01*
X0426000Y0173204D01*
X0425937Y0173206D01*
X0425875Y0173212D01*
X0425813Y0173222D01*
X0425751Y0173235D01*
X0425691Y0173253D01*
X0425632Y0173274D01*
X0425574Y0173299D01*
X0425518Y0173328D01*
X0425464Y0173360D01*
X0425412Y0173395D01*
X0425363Y0173433D01*
X0425315Y0173475D01*
X0425271Y0173519D01*
X0425229Y0173567D01*
X0425191Y0173616D01*
X0425156Y0173668D01*
X0425124Y0173722D01*
X0425095Y0173778D01*
X0425070Y0173836D01*
X0425049Y0173895D01*
X0425031Y0173955D01*
X0425018Y0174017D01*
X0425008Y0174079D01*
X0425002Y0174141D01*
X0425000Y0174204D01*
X0419000Y0174204D02*
X0419002Y0174376D01*
X0419008Y0174547D01*
X0419019Y0174719D01*
X0419034Y0174890D01*
X0419053Y0175061D01*
X0419076Y0175231D01*
X0419103Y0175401D01*
X0419135Y0175570D01*
X0419170Y0175738D01*
X0419210Y0175905D01*
X0419254Y0176071D01*
X0419301Y0176236D01*
X0419353Y0176400D01*
X0419409Y0176562D01*
X0419469Y0176723D01*
X0419533Y0176883D01*
X0419601Y0177041D01*
X0419672Y0177197D01*
X0419747Y0177351D01*
X0419827Y0177504D01*
X0419909Y0177654D01*
X0419996Y0177803D01*
X0420086Y0177949D01*
X0420180Y0178093D01*
X0420277Y0178235D01*
X0420378Y0178374D01*
X0420482Y0178511D01*
X0420589Y0178645D01*
X0420700Y0178776D01*
X0420813Y0178905D01*
X0420930Y0179031D01*
X0421050Y0179154D01*
X0421173Y0179274D01*
X0421299Y0179391D01*
X0421428Y0179504D01*
X0421559Y0179615D01*
X0421693Y0179722D01*
X0421830Y0179826D01*
X0421969Y0179927D01*
X0422111Y0180024D01*
X0422255Y0180118D01*
X0422401Y0180208D01*
X0422550Y0180295D01*
X0422700Y0180377D01*
X0422853Y0180457D01*
X0423007Y0180532D01*
X0423163Y0180603D01*
X0423321Y0180671D01*
X0423481Y0180735D01*
X0423642Y0180795D01*
X0423804Y0180851D01*
X0423968Y0180903D01*
X0424133Y0180950D01*
X0424299Y0180994D01*
X0424466Y0181034D01*
X0424634Y0181069D01*
X0424803Y0181101D01*
X0424973Y0181128D01*
X0425143Y0181151D01*
X0425314Y0181170D01*
X0425485Y0181185D01*
X0425657Y0181196D01*
X0425828Y0181202D01*
X0426000Y0181204D01*
X0426172Y0181202D01*
X0426343Y0181196D01*
X0426515Y0181185D01*
X0426686Y0181170D01*
X0426857Y0181151D01*
X0427027Y0181128D01*
X0427197Y0181101D01*
X0427366Y0181069D01*
X0427534Y0181034D01*
X0427701Y0180994D01*
X0427867Y0180950D01*
X0428032Y0180903D01*
X0428196Y0180851D01*
X0428358Y0180795D01*
X0428519Y0180735D01*
X0428679Y0180671D01*
X0428837Y0180603D01*
X0428993Y0180532D01*
X0429147Y0180457D01*
X0429300Y0180377D01*
X0429450Y0180295D01*
X0429599Y0180208D01*
X0429745Y0180118D01*
X0429889Y0180024D01*
X0430031Y0179927D01*
X0430170Y0179826D01*
X0430307Y0179722D01*
X0430441Y0179615D01*
X0430572Y0179504D01*
X0430701Y0179391D01*
X0430827Y0179274D01*
X0430950Y0179154D01*
X0431070Y0179031D01*
X0431187Y0178905D01*
X0431300Y0178776D01*
X0431411Y0178645D01*
X0431518Y0178511D01*
X0431622Y0178374D01*
X0431723Y0178235D01*
X0431820Y0178093D01*
X0431914Y0177949D01*
X0432004Y0177803D01*
X0432091Y0177654D01*
X0432173Y0177504D01*
X0432253Y0177351D01*
X0432328Y0177197D01*
X0432399Y0177041D01*
X0432467Y0176883D01*
X0432531Y0176723D01*
X0432591Y0176562D01*
X0432647Y0176400D01*
X0432699Y0176236D01*
X0432746Y0176071D01*
X0432790Y0175905D01*
X0432830Y0175738D01*
X0432865Y0175570D01*
X0432897Y0175401D01*
X0432924Y0175231D01*
X0432947Y0175061D01*
X0432966Y0174890D01*
X0432981Y0174719D01*
X0432992Y0174547D01*
X0432998Y0174376D01*
X0433000Y0174204D01*
X0432998Y0174032D01*
X0432992Y0173861D01*
X0432981Y0173689D01*
X0432966Y0173518D01*
X0432947Y0173347D01*
X0432924Y0173177D01*
X0432897Y0173007D01*
X0432865Y0172838D01*
X0432830Y0172670D01*
X0432790Y0172503D01*
X0432746Y0172337D01*
X0432699Y0172172D01*
X0432647Y0172008D01*
X0432591Y0171846D01*
X0432531Y0171685D01*
X0432467Y0171525D01*
X0432399Y0171367D01*
X0432328Y0171211D01*
X0432253Y0171057D01*
X0432173Y0170904D01*
X0432091Y0170754D01*
X0432004Y0170605D01*
X0431914Y0170459D01*
X0431820Y0170315D01*
X0431723Y0170173D01*
X0431622Y0170034D01*
X0431518Y0169897D01*
X0431411Y0169763D01*
X0431300Y0169632D01*
X0431187Y0169503D01*
X0431070Y0169377D01*
X0430950Y0169254D01*
X0430827Y0169134D01*
X0430701Y0169017D01*
X0430572Y0168904D01*
X0430441Y0168793D01*
X0430307Y0168686D01*
X0430170Y0168582D01*
X0430031Y0168481D01*
X0429889Y0168384D01*
X0429745Y0168290D01*
X0429599Y0168200D01*
X0429450Y0168113D01*
X0429300Y0168031D01*
X0429147Y0167951D01*
X0428993Y0167876D01*
X0428837Y0167805D01*
X0428679Y0167737D01*
X0428519Y0167673D01*
X0428358Y0167613D01*
X0428196Y0167557D01*
X0428032Y0167505D01*
X0427867Y0167458D01*
X0427701Y0167414D01*
X0427534Y0167374D01*
X0427366Y0167339D01*
X0427197Y0167307D01*
X0427027Y0167280D01*
X0426857Y0167257D01*
X0426686Y0167238D01*
X0426515Y0167223D01*
X0426343Y0167212D01*
X0426172Y0167206D01*
X0426000Y0167204D01*
X0425828Y0167206D01*
X0425657Y0167212D01*
X0425485Y0167223D01*
X0425314Y0167238D01*
X0425143Y0167257D01*
X0424973Y0167280D01*
X0424803Y0167307D01*
X0424634Y0167339D01*
X0424466Y0167374D01*
X0424299Y0167414D01*
X0424133Y0167458D01*
X0423968Y0167505D01*
X0423804Y0167557D01*
X0423642Y0167613D01*
X0423481Y0167673D01*
X0423321Y0167737D01*
X0423163Y0167805D01*
X0423007Y0167876D01*
X0422853Y0167951D01*
X0422700Y0168031D01*
X0422550Y0168113D01*
X0422401Y0168200D01*
X0422255Y0168290D01*
X0422111Y0168384D01*
X0421969Y0168481D01*
X0421830Y0168582D01*
X0421693Y0168686D01*
X0421559Y0168793D01*
X0421428Y0168904D01*
X0421299Y0169017D01*
X0421173Y0169134D01*
X0421050Y0169254D01*
X0420930Y0169377D01*
X0420813Y0169503D01*
X0420700Y0169632D01*
X0420589Y0169763D01*
X0420482Y0169897D01*
X0420378Y0170034D01*
X0420277Y0170173D01*
X0420180Y0170315D01*
X0420086Y0170459D01*
X0419996Y0170605D01*
X0419909Y0170754D01*
X0419827Y0170904D01*
X0419747Y0171057D01*
X0419672Y0171211D01*
X0419601Y0171367D01*
X0419533Y0171525D01*
X0419469Y0171685D01*
X0419409Y0171846D01*
X0419353Y0172008D01*
X0419301Y0172172D01*
X0419254Y0172337D01*
X0419210Y0172503D01*
X0419170Y0172670D01*
X0419135Y0172838D01*
X0419103Y0173007D01*
X0419076Y0173177D01*
X0419053Y0173347D01*
X0419034Y0173518D01*
X0419019Y0173689D01*
X0419008Y0173861D01*
X0419002Y0174032D01*
X0419000Y0174204D01*
X0423000Y0226204D02*
X0423000Y0227204D01*
X0422000Y0227204D01*
X0423000Y0226204D02*
X0429000Y0226204D01*
X0429000Y0227204D01*
X0430000Y0227204D01*
X0438000Y0230704D02*
X0438000Y0234204D01*
X0438000Y0244204D01*
X0438000Y0247704D01*
X0430000Y0251204D02*
X0429000Y0251204D01*
X0429000Y0252204D01*
X0423000Y0252204D01*
X0423000Y0251204D01*
X0422000Y0251204D01*
X0414000Y0247704D02*
X0414000Y0243704D01*
X0414000Y0234204D01*
X0414000Y0230704D01*
X0425000Y0239204D02*
X0425002Y0239267D01*
X0425008Y0239329D01*
X0425018Y0239391D01*
X0425031Y0239453D01*
X0425049Y0239513D01*
X0425070Y0239572D01*
X0425095Y0239630D01*
X0425124Y0239686D01*
X0425156Y0239740D01*
X0425191Y0239792D01*
X0425229Y0239841D01*
X0425271Y0239889D01*
X0425315Y0239933D01*
X0425363Y0239975D01*
X0425412Y0240013D01*
X0425464Y0240048D01*
X0425518Y0240080D01*
X0425574Y0240109D01*
X0425632Y0240134D01*
X0425691Y0240155D01*
X0425751Y0240173D01*
X0425813Y0240186D01*
X0425875Y0240196D01*
X0425937Y0240202D01*
X0426000Y0240204D01*
X0426063Y0240202D01*
X0426125Y0240196D01*
X0426187Y0240186D01*
X0426249Y0240173D01*
X0426309Y0240155D01*
X0426368Y0240134D01*
X0426426Y0240109D01*
X0426482Y0240080D01*
X0426536Y0240048D01*
X0426588Y0240013D01*
X0426637Y0239975D01*
X0426685Y0239933D01*
X0426729Y0239889D01*
X0426771Y0239841D01*
X0426809Y0239792D01*
X0426844Y0239740D01*
X0426876Y0239686D01*
X0426905Y0239630D01*
X0426930Y0239572D01*
X0426951Y0239513D01*
X0426969Y0239453D01*
X0426982Y0239391D01*
X0426992Y0239329D01*
X0426998Y0239267D01*
X0427000Y0239204D01*
X0426998Y0239141D01*
X0426992Y0239079D01*
X0426982Y0239017D01*
X0426969Y0238955D01*
X0426951Y0238895D01*
X0426930Y0238836D01*
X0426905Y0238778D01*
X0426876Y0238722D01*
X0426844Y0238668D01*
X0426809Y0238616D01*
X0426771Y0238567D01*
X0426729Y0238519D01*
X0426685Y0238475D01*
X0426637Y0238433D01*
X0426588Y0238395D01*
X0426536Y0238360D01*
X0426482Y0238328D01*
X0426426Y0238299D01*
X0426368Y0238274D01*
X0426309Y0238253D01*
X0426249Y0238235D01*
X0426187Y0238222D01*
X0426125Y0238212D01*
X0426063Y0238206D01*
X0426000Y0238204D01*
X0425937Y0238206D01*
X0425875Y0238212D01*
X0425813Y0238222D01*
X0425751Y0238235D01*
X0425691Y0238253D01*
X0425632Y0238274D01*
X0425574Y0238299D01*
X0425518Y0238328D01*
X0425464Y0238360D01*
X0425412Y0238395D01*
X0425363Y0238433D01*
X0425315Y0238475D01*
X0425271Y0238519D01*
X0425229Y0238567D01*
X0425191Y0238616D01*
X0425156Y0238668D01*
X0425124Y0238722D01*
X0425095Y0238778D01*
X0425070Y0238836D01*
X0425049Y0238895D01*
X0425031Y0238955D01*
X0425018Y0239017D01*
X0425008Y0239079D01*
X0425002Y0239141D01*
X0425000Y0239204D01*
X0419000Y0239204D02*
X0419002Y0239376D01*
X0419008Y0239547D01*
X0419019Y0239719D01*
X0419034Y0239890D01*
X0419053Y0240061D01*
X0419076Y0240231D01*
X0419103Y0240401D01*
X0419135Y0240570D01*
X0419170Y0240738D01*
X0419210Y0240905D01*
X0419254Y0241071D01*
X0419301Y0241236D01*
X0419353Y0241400D01*
X0419409Y0241562D01*
X0419469Y0241723D01*
X0419533Y0241883D01*
X0419601Y0242041D01*
X0419672Y0242197D01*
X0419747Y0242351D01*
X0419827Y0242504D01*
X0419909Y0242654D01*
X0419996Y0242803D01*
X0420086Y0242949D01*
X0420180Y0243093D01*
X0420277Y0243235D01*
X0420378Y0243374D01*
X0420482Y0243511D01*
X0420589Y0243645D01*
X0420700Y0243776D01*
X0420813Y0243905D01*
X0420930Y0244031D01*
X0421050Y0244154D01*
X0421173Y0244274D01*
X0421299Y0244391D01*
X0421428Y0244504D01*
X0421559Y0244615D01*
X0421693Y0244722D01*
X0421830Y0244826D01*
X0421969Y0244927D01*
X0422111Y0245024D01*
X0422255Y0245118D01*
X0422401Y0245208D01*
X0422550Y0245295D01*
X0422700Y0245377D01*
X0422853Y0245457D01*
X0423007Y0245532D01*
X0423163Y0245603D01*
X0423321Y0245671D01*
X0423481Y0245735D01*
X0423642Y0245795D01*
X0423804Y0245851D01*
X0423968Y0245903D01*
X0424133Y0245950D01*
X0424299Y0245994D01*
X0424466Y0246034D01*
X0424634Y0246069D01*
X0424803Y0246101D01*
X0424973Y0246128D01*
X0425143Y0246151D01*
X0425314Y0246170D01*
X0425485Y0246185D01*
X0425657Y0246196D01*
X0425828Y0246202D01*
X0426000Y0246204D01*
X0426172Y0246202D01*
X0426343Y0246196D01*
X0426515Y0246185D01*
X0426686Y0246170D01*
X0426857Y0246151D01*
X0427027Y0246128D01*
X0427197Y0246101D01*
X0427366Y0246069D01*
X0427534Y0246034D01*
X0427701Y0245994D01*
X0427867Y0245950D01*
X0428032Y0245903D01*
X0428196Y0245851D01*
X0428358Y0245795D01*
X0428519Y0245735D01*
X0428679Y0245671D01*
X0428837Y0245603D01*
X0428993Y0245532D01*
X0429147Y0245457D01*
X0429300Y0245377D01*
X0429450Y0245295D01*
X0429599Y0245208D01*
X0429745Y0245118D01*
X0429889Y0245024D01*
X0430031Y0244927D01*
X0430170Y0244826D01*
X0430307Y0244722D01*
X0430441Y0244615D01*
X0430572Y0244504D01*
X0430701Y0244391D01*
X0430827Y0244274D01*
X0430950Y0244154D01*
X0431070Y0244031D01*
X0431187Y0243905D01*
X0431300Y0243776D01*
X0431411Y0243645D01*
X0431518Y0243511D01*
X0431622Y0243374D01*
X0431723Y0243235D01*
X0431820Y0243093D01*
X0431914Y0242949D01*
X0432004Y0242803D01*
X0432091Y0242654D01*
X0432173Y0242504D01*
X0432253Y0242351D01*
X0432328Y0242197D01*
X0432399Y0242041D01*
X0432467Y0241883D01*
X0432531Y0241723D01*
X0432591Y0241562D01*
X0432647Y0241400D01*
X0432699Y0241236D01*
X0432746Y0241071D01*
X0432790Y0240905D01*
X0432830Y0240738D01*
X0432865Y0240570D01*
X0432897Y0240401D01*
X0432924Y0240231D01*
X0432947Y0240061D01*
X0432966Y0239890D01*
X0432981Y0239719D01*
X0432992Y0239547D01*
X0432998Y0239376D01*
X0433000Y0239204D01*
X0432998Y0239032D01*
X0432992Y0238861D01*
X0432981Y0238689D01*
X0432966Y0238518D01*
X0432947Y0238347D01*
X0432924Y0238177D01*
X0432897Y0238007D01*
X0432865Y0237838D01*
X0432830Y0237670D01*
X0432790Y0237503D01*
X0432746Y0237337D01*
X0432699Y0237172D01*
X0432647Y0237008D01*
X0432591Y0236846D01*
X0432531Y0236685D01*
X0432467Y0236525D01*
X0432399Y0236367D01*
X0432328Y0236211D01*
X0432253Y0236057D01*
X0432173Y0235904D01*
X0432091Y0235754D01*
X0432004Y0235605D01*
X0431914Y0235459D01*
X0431820Y0235315D01*
X0431723Y0235173D01*
X0431622Y0235034D01*
X0431518Y0234897D01*
X0431411Y0234763D01*
X0431300Y0234632D01*
X0431187Y0234503D01*
X0431070Y0234377D01*
X0430950Y0234254D01*
X0430827Y0234134D01*
X0430701Y0234017D01*
X0430572Y0233904D01*
X0430441Y0233793D01*
X0430307Y0233686D01*
X0430170Y0233582D01*
X0430031Y0233481D01*
X0429889Y0233384D01*
X0429745Y0233290D01*
X0429599Y0233200D01*
X0429450Y0233113D01*
X0429300Y0233031D01*
X0429147Y0232951D01*
X0428993Y0232876D01*
X0428837Y0232805D01*
X0428679Y0232737D01*
X0428519Y0232673D01*
X0428358Y0232613D01*
X0428196Y0232557D01*
X0428032Y0232505D01*
X0427867Y0232458D01*
X0427701Y0232414D01*
X0427534Y0232374D01*
X0427366Y0232339D01*
X0427197Y0232307D01*
X0427027Y0232280D01*
X0426857Y0232257D01*
X0426686Y0232238D01*
X0426515Y0232223D01*
X0426343Y0232212D01*
X0426172Y0232206D01*
X0426000Y0232204D01*
X0425828Y0232206D01*
X0425657Y0232212D01*
X0425485Y0232223D01*
X0425314Y0232238D01*
X0425143Y0232257D01*
X0424973Y0232280D01*
X0424803Y0232307D01*
X0424634Y0232339D01*
X0424466Y0232374D01*
X0424299Y0232414D01*
X0424133Y0232458D01*
X0423968Y0232505D01*
X0423804Y0232557D01*
X0423642Y0232613D01*
X0423481Y0232673D01*
X0423321Y0232737D01*
X0423163Y0232805D01*
X0423007Y0232876D01*
X0422853Y0232951D01*
X0422700Y0233031D01*
X0422550Y0233113D01*
X0422401Y0233200D01*
X0422255Y0233290D01*
X0422111Y0233384D01*
X0421969Y0233481D01*
X0421830Y0233582D01*
X0421693Y0233686D01*
X0421559Y0233793D01*
X0421428Y0233904D01*
X0421299Y0234017D01*
X0421173Y0234134D01*
X0421050Y0234254D01*
X0420930Y0234377D01*
X0420813Y0234503D01*
X0420700Y0234632D01*
X0420589Y0234763D01*
X0420482Y0234897D01*
X0420378Y0235034D01*
X0420277Y0235173D01*
X0420180Y0235315D01*
X0420086Y0235459D01*
X0419996Y0235605D01*
X0419909Y0235754D01*
X0419827Y0235904D01*
X0419747Y0236057D01*
X0419672Y0236211D01*
X0419601Y0236367D01*
X0419533Y0236525D01*
X0419469Y0236685D01*
X0419409Y0236846D01*
X0419353Y0237008D01*
X0419301Y0237172D01*
X0419254Y0237337D01*
X0419210Y0237503D01*
X0419170Y0237670D01*
X0419135Y0237838D01*
X0419103Y0238007D01*
X0419076Y0238177D01*
X0419053Y0238347D01*
X0419034Y0238518D01*
X0419019Y0238689D01*
X0419008Y0238861D01*
X0419002Y0239032D01*
X0419000Y0239204D01*
D13*
X0415000Y0243704D02*
X0415000Y0234204D01*
X0414000Y0234204D01*
X0414000Y0243704D02*
X0415000Y0243704D01*
X0437000Y0244204D02*
X0437000Y0234204D01*
X0438000Y0234204D01*
X0438000Y0244204D02*
X0437000Y0244204D01*
X0437000Y0179204D02*
X0438000Y0179204D01*
X0437000Y0179204D02*
X0437000Y0169204D01*
X0438000Y0169204D01*
X0415000Y0169204D02*
X0414000Y0169204D01*
X0415000Y0169204D02*
X0415000Y0178704D01*
X0414000Y0178704D01*
X0333000Y0119204D02*
X0332000Y0119204D01*
X0332000Y0109204D01*
X0333000Y0109204D01*
X0310000Y0109204D02*
X0309000Y0109204D01*
X0310000Y0109204D02*
X0310000Y0118704D01*
X0309000Y0118704D01*
X0285500Y0119204D02*
X0284500Y0119204D01*
X0284500Y0109204D01*
X0285500Y0109204D01*
X0262500Y0109204D02*
X0261500Y0109204D01*
X0262500Y0109204D02*
X0262500Y0118704D01*
X0261500Y0118704D01*
X0208000Y0119204D02*
X0207000Y0119204D01*
X0207000Y0109204D01*
X0208000Y0109204D01*
X0185000Y0109204D02*
X0184000Y0109204D01*
X0185000Y0109204D02*
X0185000Y0118704D01*
X0184000Y0118704D01*
X0085500Y0171704D02*
X0084500Y0171704D01*
X0084500Y0181704D01*
X0085500Y0181704D01*
X0062500Y0181204D02*
X0062500Y0171704D01*
X0061500Y0171704D01*
X0061500Y0181204D02*
X0062500Y0181204D01*
X0062500Y0234204D02*
X0061500Y0234204D01*
X0062500Y0234204D02*
X0062500Y0243704D01*
X0061500Y0243704D01*
X0084500Y0244204D02*
X0084500Y0234204D01*
X0085500Y0234204D01*
X0085500Y0244204D02*
X0084500Y0244204D01*
D14*
X0088550Y0241954D02*
X0090050Y0241954D01*
X0088550Y0241954D02*
X0088488Y0241952D01*
X0088427Y0241946D01*
X0088366Y0241937D01*
X0088306Y0241924D01*
X0088247Y0241907D01*
X0088189Y0241886D01*
X0088132Y0241862D01*
X0088077Y0241835D01*
X0088024Y0241804D01*
X0087972Y0241770D01*
X0087923Y0241733D01*
X0087876Y0241693D01*
X0087832Y0241650D01*
X0087791Y0241605D01*
X0087752Y0241557D01*
X0087716Y0241506D01*
X0087684Y0241454D01*
X0087655Y0241400D01*
X0087629Y0241344D01*
X0087607Y0241286D01*
X0087588Y0241228D01*
X0087573Y0241168D01*
X0087562Y0241107D01*
X0087554Y0241046D01*
X0087550Y0240985D01*
X0087550Y0240923D01*
X0087554Y0240862D01*
X0087562Y0240801D01*
X0087573Y0240740D01*
X0087588Y0240680D01*
X0087607Y0240622D01*
X0087629Y0240564D01*
X0087655Y0240508D01*
X0087684Y0240454D01*
X0087716Y0240402D01*
X0087752Y0240351D01*
X0087791Y0240303D01*
X0087832Y0240258D01*
X0087876Y0240215D01*
X0087923Y0240175D01*
X0087972Y0240138D01*
X0088024Y0240104D01*
X0088077Y0240073D01*
X0088132Y0240046D01*
X0088189Y0240022D01*
X0088247Y0240001D01*
X0088306Y0239984D01*
X0088366Y0239971D01*
X0088427Y0239962D01*
X0088488Y0239956D01*
X0088550Y0239954D01*
X0089550Y0239954D01*
X0088800Y0239954D02*
X0088731Y0239952D01*
X0088662Y0239946D01*
X0088594Y0239937D01*
X0088527Y0239924D01*
X0088460Y0239907D01*
X0088394Y0239886D01*
X0088330Y0239862D01*
X0088267Y0239834D01*
X0088205Y0239803D01*
X0088145Y0239769D01*
X0088088Y0239731D01*
X0088032Y0239690D01*
X0087979Y0239647D01*
X0087928Y0239600D01*
X0087880Y0239551D01*
X0087835Y0239499D01*
X0087793Y0239444D01*
X0087754Y0239388D01*
X0087717Y0239329D01*
X0087685Y0239268D01*
X0087655Y0239206D01*
X0087629Y0239142D01*
X0087607Y0239077D01*
X0087588Y0239011D01*
X0087573Y0238944D01*
X0087562Y0238876D01*
X0087554Y0238807D01*
X0087550Y0238738D01*
X0087550Y0238670D01*
X0087554Y0238601D01*
X0087562Y0238532D01*
X0087573Y0238464D01*
X0087588Y0238397D01*
X0087607Y0238331D01*
X0087629Y0238266D01*
X0087655Y0238202D01*
X0087685Y0238140D01*
X0087717Y0238079D01*
X0087754Y0238020D01*
X0087793Y0237964D01*
X0087835Y0237909D01*
X0087880Y0237857D01*
X0087928Y0237808D01*
X0087979Y0237761D01*
X0088032Y0237718D01*
X0088088Y0237677D01*
X0088145Y0237639D01*
X0088205Y0237605D01*
X0088267Y0237574D01*
X0088330Y0237546D01*
X0088394Y0237522D01*
X0088460Y0237501D01*
X0088527Y0237484D01*
X0088594Y0237471D01*
X0088662Y0237462D01*
X0088731Y0237456D01*
X0088800Y0237454D01*
X0090050Y0237454D01*
X0092050Y0237454D02*
X0094550Y0237454D01*
X0093300Y0237454D02*
X0093300Y0241954D01*
X0094550Y0240954D01*
X0096250Y0241954D02*
X0098750Y0241954D01*
X0097500Y0241954D02*
X0097500Y0237454D01*
X0092750Y0232804D02*
X0089250Y0231804D01*
X0089250Y0234304D01*
X0090250Y0233554D02*
X0088250Y0233554D01*
X0090125Y0229454D02*
X0090875Y0228079D01*
X0092750Y0228579D02*
X0092748Y0228659D01*
X0092743Y0228740D01*
X0092734Y0228820D01*
X0092722Y0228899D01*
X0092707Y0228978D01*
X0092688Y0229056D01*
X0092666Y0229134D01*
X0092641Y0229210D01*
X0092612Y0229285D01*
X0092580Y0229359D01*
X0092545Y0229431D01*
X0092507Y0229502D01*
X0092466Y0229571D01*
X0092422Y0229639D01*
X0092375Y0229704D01*
X0090875Y0228079D02*
X0090908Y0228027D01*
X0090944Y0227976D01*
X0090983Y0227928D01*
X0091025Y0227883D01*
X0091070Y0227840D01*
X0091118Y0227800D01*
X0091167Y0227763D01*
X0091219Y0227729D01*
X0091273Y0227698D01*
X0091329Y0227670D01*
X0091386Y0227646D01*
X0091445Y0227626D01*
X0091504Y0227609D01*
X0091565Y0227596D01*
X0091626Y0227587D01*
X0091688Y0227581D01*
X0091750Y0227579D01*
X0091810Y0227581D01*
X0091871Y0227586D01*
X0091930Y0227595D01*
X0091989Y0227608D01*
X0092048Y0227624D01*
X0092105Y0227644D01*
X0092160Y0227667D01*
X0092215Y0227694D01*
X0092267Y0227723D01*
X0092318Y0227756D01*
X0092367Y0227792D01*
X0092413Y0227830D01*
X0092457Y0227872D01*
X0092499Y0227916D01*
X0092537Y0227962D01*
X0092573Y0228011D01*
X0092606Y0228062D01*
X0092635Y0228114D01*
X0092662Y0228169D01*
X0092685Y0228224D01*
X0092705Y0228281D01*
X0092721Y0228340D01*
X0092734Y0228399D01*
X0092743Y0228458D01*
X0092748Y0228519D01*
X0092750Y0228579D01*
X0088874Y0227454D02*
X0088813Y0227517D01*
X0088755Y0227582D01*
X0088699Y0227650D01*
X0088646Y0227721D01*
X0088597Y0227793D01*
X0088550Y0227867D01*
X0088506Y0227943D01*
X0088466Y0228021D01*
X0088429Y0228101D01*
X0088395Y0228182D01*
X0088365Y0228264D01*
X0088338Y0228348D01*
X0088314Y0228433D01*
X0088294Y0228518D01*
X0088278Y0228604D01*
X0088265Y0228691D01*
X0088256Y0228779D01*
X0088251Y0228866D01*
X0088249Y0228954D01*
X0088250Y0228954D02*
X0088252Y0229014D01*
X0088257Y0229075D01*
X0088266Y0229134D01*
X0088279Y0229193D01*
X0088295Y0229252D01*
X0088315Y0229309D01*
X0088338Y0229364D01*
X0088365Y0229419D01*
X0088394Y0229471D01*
X0088427Y0229522D01*
X0088463Y0229571D01*
X0088501Y0229617D01*
X0088543Y0229661D01*
X0088587Y0229703D01*
X0088633Y0229741D01*
X0088682Y0229777D01*
X0088733Y0229810D01*
X0088785Y0229839D01*
X0088840Y0229866D01*
X0088895Y0229889D01*
X0088952Y0229909D01*
X0089011Y0229925D01*
X0089070Y0229938D01*
X0089129Y0229947D01*
X0089190Y0229952D01*
X0089250Y0229954D01*
X0089312Y0229952D01*
X0089374Y0229946D01*
X0089435Y0229937D01*
X0089496Y0229924D01*
X0089555Y0229907D01*
X0089614Y0229887D01*
X0089671Y0229863D01*
X0089727Y0229835D01*
X0089781Y0229804D01*
X0089833Y0229770D01*
X0089882Y0229733D01*
X0089930Y0229693D01*
X0089975Y0229650D01*
X0090017Y0229605D01*
X0090056Y0229557D01*
X0090092Y0229506D01*
X0090125Y0229454D01*
X0090800Y0219454D02*
X0090800Y0214954D01*
X0092050Y0214954D02*
X0089550Y0214954D01*
X0087550Y0215954D02*
X0085050Y0215954D01*
X0085800Y0216954D02*
X0085800Y0214954D01*
X0087550Y0215954D02*
X0086550Y0219454D01*
X0090800Y0219454D02*
X0092050Y0218454D01*
X0093750Y0219454D02*
X0096250Y0219454D01*
X0095000Y0219454D02*
X0095000Y0214954D01*
X0081950Y0190954D02*
X0079450Y0190954D01*
X0080700Y0190954D02*
X0080700Y0186454D01*
X0077750Y0186454D02*
X0075250Y0186454D01*
X0076500Y0186454D02*
X0076500Y0190954D01*
X0077750Y0189954D01*
X0073250Y0190954D02*
X0070750Y0190954D01*
X0071750Y0188954D02*
X0073250Y0188954D01*
X0073250Y0190954D01*
X0071750Y0188954D02*
X0071690Y0188952D01*
X0071629Y0188947D01*
X0071570Y0188938D01*
X0071511Y0188925D01*
X0071452Y0188909D01*
X0071395Y0188889D01*
X0071340Y0188866D01*
X0071285Y0188839D01*
X0071233Y0188810D01*
X0071182Y0188777D01*
X0071133Y0188741D01*
X0071087Y0188703D01*
X0071043Y0188661D01*
X0071001Y0188617D01*
X0070963Y0188571D01*
X0070927Y0188522D01*
X0070894Y0188471D01*
X0070865Y0188419D01*
X0070838Y0188364D01*
X0070815Y0188309D01*
X0070795Y0188252D01*
X0070779Y0188193D01*
X0070766Y0188134D01*
X0070757Y0188075D01*
X0070752Y0188014D01*
X0070750Y0187954D01*
X0070750Y0187454D01*
X0070752Y0187394D01*
X0070757Y0187333D01*
X0070766Y0187274D01*
X0070779Y0187215D01*
X0070795Y0187156D01*
X0070815Y0187099D01*
X0070838Y0187044D01*
X0070865Y0186989D01*
X0070894Y0186937D01*
X0070927Y0186886D01*
X0070963Y0186837D01*
X0071001Y0186791D01*
X0071043Y0186747D01*
X0071087Y0186705D01*
X0071133Y0186667D01*
X0071182Y0186631D01*
X0071233Y0186598D01*
X0071285Y0186569D01*
X0071340Y0186542D01*
X0071395Y0186519D01*
X0071452Y0186499D01*
X0071511Y0186483D01*
X0071570Y0186470D01*
X0071629Y0186461D01*
X0071690Y0186456D01*
X0071750Y0186454D01*
X0073250Y0186454D01*
X0089500Y0171804D02*
X0089750Y0171804D01*
X0089810Y0171802D01*
X0089871Y0171797D01*
X0089930Y0171788D01*
X0089989Y0171775D01*
X0090048Y0171759D01*
X0090105Y0171739D01*
X0090160Y0171716D01*
X0090215Y0171689D01*
X0090267Y0171660D01*
X0090318Y0171627D01*
X0090367Y0171591D01*
X0090413Y0171553D01*
X0090457Y0171511D01*
X0090499Y0171467D01*
X0090537Y0171421D01*
X0090573Y0171372D01*
X0090606Y0171321D01*
X0090635Y0171269D01*
X0090662Y0171214D01*
X0090685Y0171159D01*
X0090705Y0171102D01*
X0090721Y0171043D01*
X0090734Y0170984D01*
X0090743Y0170925D01*
X0090748Y0170864D01*
X0090750Y0170804D01*
X0090750Y0169304D01*
X0089500Y0169304D01*
X0089431Y0169306D01*
X0089362Y0169312D01*
X0089294Y0169321D01*
X0089227Y0169334D01*
X0089160Y0169351D01*
X0089094Y0169372D01*
X0089030Y0169396D01*
X0088967Y0169424D01*
X0088905Y0169455D01*
X0088845Y0169489D01*
X0088788Y0169527D01*
X0088732Y0169568D01*
X0088679Y0169611D01*
X0088628Y0169658D01*
X0088580Y0169707D01*
X0088535Y0169759D01*
X0088493Y0169814D01*
X0088454Y0169870D01*
X0088417Y0169929D01*
X0088385Y0169990D01*
X0088355Y0170052D01*
X0088329Y0170116D01*
X0088307Y0170181D01*
X0088288Y0170247D01*
X0088273Y0170314D01*
X0088262Y0170382D01*
X0088254Y0170451D01*
X0088250Y0170520D01*
X0088250Y0170588D01*
X0088254Y0170657D01*
X0088262Y0170726D01*
X0088273Y0170794D01*
X0088288Y0170861D01*
X0088307Y0170927D01*
X0088329Y0170992D01*
X0088355Y0171056D01*
X0088385Y0171118D01*
X0088417Y0171179D01*
X0088454Y0171238D01*
X0088493Y0171294D01*
X0088535Y0171349D01*
X0088580Y0171401D01*
X0088628Y0171450D01*
X0088679Y0171497D01*
X0088732Y0171540D01*
X0088788Y0171581D01*
X0088845Y0171619D01*
X0088905Y0171653D01*
X0088967Y0171684D01*
X0089030Y0171712D01*
X0089094Y0171736D01*
X0089160Y0171757D01*
X0089227Y0171774D01*
X0089294Y0171787D01*
X0089362Y0171796D01*
X0089431Y0171802D01*
X0089500Y0171804D01*
X0090750Y0169304D02*
X0090837Y0169306D01*
X0090924Y0169312D01*
X0091011Y0169321D01*
X0091097Y0169334D01*
X0091183Y0169351D01*
X0091268Y0169372D01*
X0091351Y0169397D01*
X0091434Y0169425D01*
X0091515Y0169456D01*
X0091595Y0169491D01*
X0091673Y0169530D01*
X0091750Y0169572D01*
X0091825Y0169617D01*
X0091897Y0169666D01*
X0091968Y0169717D01*
X0092036Y0169772D01*
X0092101Y0169829D01*
X0092164Y0169890D01*
X0092225Y0169953D01*
X0092282Y0170018D01*
X0092337Y0170086D01*
X0092388Y0170157D01*
X0092437Y0170229D01*
X0092482Y0170304D01*
X0092524Y0170381D01*
X0092563Y0170459D01*
X0092598Y0170539D01*
X0092629Y0170620D01*
X0092657Y0170703D01*
X0092682Y0170786D01*
X0092703Y0170871D01*
X0092720Y0170957D01*
X0092733Y0171043D01*
X0092742Y0171130D01*
X0092748Y0171217D01*
X0092750Y0171304D01*
X0090125Y0166954D02*
X0090875Y0165579D01*
X0092750Y0166079D02*
X0092748Y0166159D01*
X0092743Y0166240D01*
X0092734Y0166320D01*
X0092722Y0166399D01*
X0092707Y0166478D01*
X0092688Y0166556D01*
X0092666Y0166634D01*
X0092641Y0166710D01*
X0092612Y0166785D01*
X0092580Y0166859D01*
X0092545Y0166931D01*
X0092507Y0167002D01*
X0092466Y0167071D01*
X0092422Y0167139D01*
X0092375Y0167204D01*
X0090875Y0165579D02*
X0090908Y0165527D01*
X0090944Y0165476D01*
X0090983Y0165428D01*
X0091025Y0165383D01*
X0091070Y0165340D01*
X0091118Y0165300D01*
X0091167Y0165263D01*
X0091219Y0165229D01*
X0091273Y0165198D01*
X0091329Y0165170D01*
X0091386Y0165146D01*
X0091445Y0165126D01*
X0091504Y0165109D01*
X0091565Y0165096D01*
X0091626Y0165087D01*
X0091688Y0165081D01*
X0091750Y0165079D01*
X0091810Y0165081D01*
X0091871Y0165086D01*
X0091930Y0165095D01*
X0091989Y0165108D01*
X0092048Y0165124D01*
X0092105Y0165144D01*
X0092160Y0165167D01*
X0092215Y0165194D01*
X0092267Y0165223D01*
X0092318Y0165256D01*
X0092367Y0165292D01*
X0092413Y0165330D01*
X0092457Y0165372D01*
X0092499Y0165416D01*
X0092537Y0165462D01*
X0092573Y0165511D01*
X0092606Y0165562D01*
X0092635Y0165614D01*
X0092662Y0165669D01*
X0092685Y0165724D01*
X0092705Y0165781D01*
X0092721Y0165840D01*
X0092734Y0165899D01*
X0092743Y0165958D01*
X0092748Y0166019D01*
X0092750Y0166079D01*
X0088874Y0164954D02*
X0088813Y0165017D01*
X0088755Y0165082D01*
X0088699Y0165150D01*
X0088646Y0165221D01*
X0088597Y0165293D01*
X0088550Y0165367D01*
X0088506Y0165443D01*
X0088466Y0165521D01*
X0088429Y0165601D01*
X0088395Y0165682D01*
X0088365Y0165764D01*
X0088338Y0165848D01*
X0088314Y0165933D01*
X0088294Y0166018D01*
X0088278Y0166104D01*
X0088265Y0166191D01*
X0088256Y0166279D01*
X0088251Y0166366D01*
X0088249Y0166454D01*
X0088250Y0166454D02*
X0088252Y0166514D01*
X0088257Y0166575D01*
X0088266Y0166634D01*
X0088279Y0166693D01*
X0088295Y0166752D01*
X0088315Y0166809D01*
X0088338Y0166864D01*
X0088365Y0166919D01*
X0088394Y0166971D01*
X0088427Y0167022D01*
X0088463Y0167071D01*
X0088501Y0167117D01*
X0088543Y0167161D01*
X0088587Y0167203D01*
X0088633Y0167241D01*
X0088682Y0167277D01*
X0088733Y0167310D01*
X0088785Y0167339D01*
X0088840Y0167366D01*
X0088895Y0167389D01*
X0088952Y0167409D01*
X0089011Y0167425D01*
X0089070Y0167438D01*
X0089129Y0167447D01*
X0089190Y0167452D01*
X0089250Y0167454D01*
X0089312Y0167452D01*
X0089374Y0167446D01*
X0089435Y0167437D01*
X0089496Y0167424D01*
X0089555Y0167407D01*
X0089614Y0167387D01*
X0089671Y0167363D01*
X0089727Y0167335D01*
X0089781Y0167304D01*
X0089833Y0167270D01*
X0089882Y0167233D01*
X0089930Y0167193D01*
X0089975Y0167150D01*
X0090017Y0167105D01*
X0090056Y0167057D01*
X0090092Y0167006D01*
X0090125Y0166954D01*
X0210750Y0108054D02*
X0215250Y0109304D01*
X0215250Y0106804D01*
X0214750Y0106804D01*
X0212625Y0104454D02*
X0213375Y0103079D01*
X0215250Y0103579D02*
X0215248Y0103659D01*
X0215243Y0103740D01*
X0215234Y0103820D01*
X0215222Y0103899D01*
X0215207Y0103978D01*
X0215188Y0104056D01*
X0215166Y0104134D01*
X0215141Y0104210D01*
X0215112Y0104285D01*
X0215080Y0104359D01*
X0215045Y0104431D01*
X0215007Y0104502D01*
X0214966Y0104571D01*
X0214922Y0104639D01*
X0214875Y0104704D01*
X0213375Y0103079D02*
X0213408Y0103027D01*
X0213444Y0102976D01*
X0213483Y0102928D01*
X0213525Y0102883D01*
X0213570Y0102840D01*
X0213618Y0102800D01*
X0213667Y0102763D01*
X0213719Y0102729D01*
X0213773Y0102698D01*
X0213829Y0102670D01*
X0213886Y0102646D01*
X0213945Y0102626D01*
X0214004Y0102609D01*
X0214065Y0102596D01*
X0214126Y0102587D01*
X0214188Y0102581D01*
X0214250Y0102579D01*
X0214310Y0102581D01*
X0214371Y0102586D01*
X0214430Y0102595D01*
X0214489Y0102608D01*
X0214548Y0102624D01*
X0214605Y0102644D01*
X0214660Y0102667D01*
X0214715Y0102694D01*
X0214767Y0102723D01*
X0214818Y0102756D01*
X0214867Y0102792D01*
X0214913Y0102830D01*
X0214957Y0102872D01*
X0214999Y0102916D01*
X0215037Y0102962D01*
X0215073Y0103011D01*
X0215106Y0103062D01*
X0215135Y0103114D01*
X0215162Y0103169D01*
X0215185Y0103224D01*
X0215205Y0103281D01*
X0215221Y0103340D01*
X0215234Y0103399D01*
X0215243Y0103458D01*
X0215248Y0103519D01*
X0215250Y0103579D01*
X0211374Y0102454D02*
X0211313Y0102517D01*
X0211255Y0102582D01*
X0211199Y0102650D01*
X0211146Y0102721D01*
X0211097Y0102793D01*
X0211050Y0102867D01*
X0211006Y0102943D01*
X0210966Y0103021D01*
X0210929Y0103101D01*
X0210895Y0103182D01*
X0210865Y0103264D01*
X0210838Y0103348D01*
X0210814Y0103433D01*
X0210794Y0103518D01*
X0210778Y0103604D01*
X0210765Y0103691D01*
X0210756Y0103779D01*
X0210751Y0103866D01*
X0210749Y0103954D01*
X0210750Y0103954D02*
X0210752Y0104014D01*
X0210757Y0104075D01*
X0210766Y0104134D01*
X0210779Y0104193D01*
X0210795Y0104252D01*
X0210815Y0104309D01*
X0210838Y0104364D01*
X0210865Y0104419D01*
X0210894Y0104471D01*
X0210927Y0104522D01*
X0210963Y0104571D01*
X0211001Y0104617D01*
X0211043Y0104661D01*
X0211087Y0104703D01*
X0211133Y0104741D01*
X0211182Y0104777D01*
X0211233Y0104810D01*
X0211285Y0104839D01*
X0211340Y0104866D01*
X0211395Y0104889D01*
X0211452Y0104909D01*
X0211511Y0104925D01*
X0211570Y0104938D01*
X0211629Y0104947D01*
X0211690Y0104952D01*
X0211750Y0104954D01*
X0211812Y0104952D01*
X0211874Y0104946D01*
X0211935Y0104937D01*
X0211996Y0104924D01*
X0212055Y0104907D01*
X0212114Y0104887D01*
X0212171Y0104863D01*
X0212227Y0104835D01*
X0212281Y0104804D01*
X0212333Y0104770D01*
X0212382Y0104733D01*
X0212430Y0104693D01*
X0212475Y0104650D01*
X0212517Y0104605D01*
X0212556Y0104557D01*
X0212592Y0104506D01*
X0212625Y0104454D01*
X0288250Y0106804D02*
X0288250Y0109304D01*
X0288250Y0108054D02*
X0292750Y0108054D01*
X0291750Y0106804D01*
X0290125Y0104454D02*
X0290875Y0103079D01*
X0292750Y0103579D02*
X0292748Y0103659D01*
X0292743Y0103740D01*
X0292734Y0103820D01*
X0292722Y0103899D01*
X0292707Y0103978D01*
X0292688Y0104056D01*
X0292666Y0104134D01*
X0292641Y0104210D01*
X0292612Y0104285D01*
X0292580Y0104359D01*
X0292545Y0104431D01*
X0292507Y0104502D01*
X0292466Y0104571D01*
X0292422Y0104639D01*
X0292375Y0104704D01*
X0290875Y0103079D02*
X0290908Y0103027D01*
X0290944Y0102976D01*
X0290983Y0102928D01*
X0291025Y0102883D01*
X0291070Y0102840D01*
X0291118Y0102800D01*
X0291167Y0102763D01*
X0291219Y0102729D01*
X0291273Y0102698D01*
X0291329Y0102670D01*
X0291386Y0102646D01*
X0291445Y0102626D01*
X0291504Y0102609D01*
X0291565Y0102596D01*
X0291626Y0102587D01*
X0291688Y0102581D01*
X0291750Y0102579D01*
X0291810Y0102581D01*
X0291871Y0102586D01*
X0291930Y0102595D01*
X0291989Y0102608D01*
X0292048Y0102624D01*
X0292105Y0102644D01*
X0292160Y0102667D01*
X0292215Y0102694D01*
X0292267Y0102723D01*
X0292318Y0102756D01*
X0292367Y0102792D01*
X0292413Y0102830D01*
X0292457Y0102872D01*
X0292499Y0102916D01*
X0292537Y0102962D01*
X0292573Y0103011D01*
X0292606Y0103062D01*
X0292635Y0103114D01*
X0292662Y0103169D01*
X0292685Y0103224D01*
X0292705Y0103281D01*
X0292721Y0103340D01*
X0292734Y0103399D01*
X0292743Y0103458D01*
X0292748Y0103519D01*
X0292750Y0103579D01*
X0288875Y0102454D02*
X0288814Y0102517D01*
X0288756Y0102582D01*
X0288700Y0102650D01*
X0288647Y0102721D01*
X0288598Y0102793D01*
X0288551Y0102867D01*
X0288507Y0102943D01*
X0288467Y0103021D01*
X0288430Y0103101D01*
X0288396Y0103182D01*
X0288366Y0103264D01*
X0288339Y0103348D01*
X0288315Y0103433D01*
X0288295Y0103518D01*
X0288279Y0103604D01*
X0288266Y0103691D01*
X0288257Y0103779D01*
X0288252Y0103866D01*
X0288250Y0103954D01*
X0288252Y0104014D01*
X0288257Y0104075D01*
X0288266Y0104134D01*
X0288279Y0104193D01*
X0288295Y0104252D01*
X0288315Y0104309D01*
X0288338Y0104364D01*
X0288365Y0104419D01*
X0288394Y0104471D01*
X0288427Y0104522D01*
X0288463Y0104571D01*
X0288501Y0104617D01*
X0288543Y0104661D01*
X0288587Y0104703D01*
X0288633Y0104741D01*
X0288682Y0104777D01*
X0288733Y0104810D01*
X0288785Y0104839D01*
X0288840Y0104866D01*
X0288895Y0104889D01*
X0288952Y0104909D01*
X0289011Y0104925D01*
X0289070Y0104938D01*
X0289129Y0104947D01*
X0289190Y0104952D01*
X0289250Y0104954D01*
X0289312Y0104952D01*
X0289374Y0104946D01*
X0289435Y0104937D01*
X0289496Y0104924D01*
X0289555Y0104907D01*
X0289614Y0104887D01*
X0289671Y0104863D01*
X0289727Y0104835D01*
X0289781Y0104804D01*
X0289833Y0104770D01*
X0289882Y0104733D01*
X0289930Y0104693D01*
X0289975Y0104650D01*
X0290017Y0104605D01*
X0290056Y0104557D01*
X0290092Y0104506D01*
X0290125Y0104454D01*
X0335750Y0106804D02*
X0335750Y0109304D01*
X0335750Y0106804D02*
X0338250Y0108929D01*
X0340250Y0108179D02*
X0340248Y0108106D01*
X0340243Y0108034D01*
X0340234Y0107962D01*
X0340221Y0107890D01*
X0340205Y0107819D01*
X0340185Y0107749D01*
X0340161Y0107681D01*
X0340135Y0107613D01*
X0340104Y0107547D01*
X0340071Y0107482D01*
X0340034Y0107420D01*
X0339995Y0107359D01*
X0339952Y0107300D01*
X0339906Y0107243D01*
X0339858Y0107189D01*
X0339807Y0107138D01*
X0339753Y0107088D01*
X0339697Y0107042D01*
X0339639Y0106999D01*
X0339578Y0106958D01*
X0339516Y0106921D01*
X0339452Y0106887D01*
X0339386Y0106856D01*
X0339319Y0106828D01*
X0339250Y0106804D01*
X0338250Y0108929D02*
X0338296Y0108975D01*
X0338345Y0109019D01*
X0338396Y0109059D01*
X0338449Y0109097D01*
X0338504Y0109132D01*
X0338561Y0109164D01*
X0338619Y0109193D01*
X0338679Y0109219D01*
X0338741Y0109241D01*
X0338803Y0109260D01*
X0338866Y0109276D01*
X0338930Y0109288D01*
X0338995Y0109297D01*
X0339060Y0109302D01*
X0339125Y0109304D01*
X0339190Y0109302D01*
X0339256Y0109296D01*
X0339320Y0109287D01*
X0339384Y0109274D01*
X0339448Y0109257D01*
X0339510Y0109236D01*
X0339571Y0109212D01*
X0339630Y0109184D01*
X0339688Y0109153D01*
X0339743Y0109119D01*
X0339797Y0109081D01*
X0339848Y0109041D01*
X0339897Y0108997D01*
X0339943Y0108951D01*
X0339987Y0108902D01*
X0340027Y0108851D01*
X0340065Y0108797D01*
X0340099Y0108742D01*
X0340130Y0108684D01*
X0340158Y0108625D01*
X0340182Y0108564D01*
X0340203Y0108502D01*
X0340220Y0108438D01*
X0340233Y0108374D01*
X0340242Y0108310D01*
X0340248Y0108244D01*
X0340250Y0108179D01*
X0337625Y0104454D02*
X0338375Y0103079D01*
X0340250Y0103579D02*
X0340248Y0103659D01*
X0340243Y0103740D01*
X0340234Y0103820D01*
X0340222Y0103899D01*
X0340207Y0103978D01*
X0340188Y0104056D01*
X0340166Y0104134D01*
X0340141Y0104210D01*
X0340112Y0104285D01*
X0340080Y0104359D01*
X0340045Y0104431D01*
X0340007Y0104502D01*
X0339966Y0104571D01*
X0339922Y0104639D01*
X0339875Y0104704D01*
X0338375Y0103079D02*
X0338408Y0103027D01*
X0338444Y0102976D01*
X0338483Y0102928D01*
X0338525Y0102883D01*
X0338570Y0102840D01*
X0338618Y0102800D01*
X0338667Y0102763D01*
X0338719Y0102729D01*
X0338773Y0102698D01*
X0338829Y0102670D01*
X0338886Y0102646D01*
X0338945Y0102626D01*
X0339004Y0102609D01*
X0339065Y0102596D01*
X0339126Y0102587D01*
X0339188Y0102581D01*
X0339250Y0102579D01*
X0339310Y0102581D01*
X0339371Y0102586D01*
X0339430Y0102595D01*
X0339489Y0102608D01*
X0339548Y0102624D01*
X0339605Y0102644D01*
X0339660Y0102667D01*
X0339715Y0102694D01*
X0339767Y0102723D01*
X0339818Y0102756D01*
X0339867Y0102792D01*
X0339913Y0102830D01*
X0339957Y0102872D01*
X0339999Y0102916D01*
X0340037Y0102962D01*
X0340073Y0103011D01*
X0340106Y0103062D01*
X0340135Y0103114D01*
X0340162Y0103169D01*
X0340185Y0103224D01*
X0340205Y0103281D01*
X0340221Y0103340D01*
X0340234Y0103399D01*
X0340243Y0103458D01*
X0340248Y0103519D01*
X0340250Y0103579D01*
X0336375Y0102454D02*
X0336314Y0102517D01*
X0336256Y0102582D01*
X0336200Y0102650D01*
X0336147Y0102721D01*
X0336098Y0102793D01*
X0336051Y0102867D01*
X0336007Y0102943D01*
X0335967Y0103021D01*
X0335930Y0103101D01*
X0335896Y0103182D01*
X0335866Y0103264D01*
X0335839Y0103348D01*
X0335815Y0103433D01*
X0335795Y0103518D01*
X0335779Y0103604D01*
X0335766Y0103691D01*
X0335757Y0103779D01*
X0335752Y0103866D01*
X0335750Y0103954D01*
X0335752Y0104014D01*
X0335757Y0104075D01*
X0335766Y0104134D01*
X0335779Y0104193D01*
X0335795Y0104252D01*
X0335815Y0104309D01*
X0335838Y0104364D01*
X0335865Y0104419D01*
X0335894Y0104471D01*
X0335927Y0104522D01*
X0335963Y0104571D01*
X0336001Y0104617D01*
X0336043Y0104661D01*
X0336087Y0104703D01*
X0336133Y0104741D01*
X0336182Y0104777D01*
X0336233Y0104810D01*
X0336285Y0104839D01*
X0336340Y0104866D01*
X0336395Y0104889D01*
X0336452Y0104909D01*
X0336511Y0104925D01*
X0336570Y0104938D01*
X0336629Y0104947D01*
X0336690Y0104952D01*
X0336750Y0104954D01*
X0336812Y0104952D01*
X0336874Y0104946D01*
X0336935Y0104937D01*
X0336996Y0104924D01*
X0337055Y0104907D01*
X0337114Y0104887D01*
X0337171Y0104863D01*
X0337227Y0104835D01*
X0337281Y0104804D01*
X0337333Y0104770D01*
X0337382Y0104733D01*
X0337430Y0104693D01*
X0337475Y0104650D01*
X0337517Y0104605D01*
X0337556Y0104557D01*
X0337592Y0104506D01*
X0337625Y0104454D01*
X0441750Y0164954D02*
X0441812Y0164952D01*
X0441874Y0164946D01*
X0441935Y0164937D01*
X0441996Y0164924D01*
X0442055Y0164907D01*
X0442114Y0164887D01*
X0442171Y0164863D01*
X0442227Y0164835D01*
X0442281Y0164804D01*
X0442333Y0164770D01*
X0442382Y0164733D01*
X0442430Y0164693D01*
X0442475Y0164650D01*
X0442517Y0164605D01*
X0442556Y0164557D01*
X0442592Y0164506D01*
X0442625Y0164454D01*
X0443375Y0163079D01*
X0445250Y0163579D02*
X0445248Y0163659D01*
X0445243Y0163740D01*
X0445234Y0163820D01*
X0445222Y0163899D01*
X0445207Y0163978D01*
X0445188Y0164056D01*
X0445166Y0164134D01*
X0445141Y0164210D01*
X0445112Y0164285D01*
X0445080Y0164359D01*
X0445045Y0164431D01*
X0445007Y0164502D01*
X0444966Y0164571D01*
X0444922Y0164639D01*
X0444875Y0164704D01*
X0443375Y0163079D02*
X0443408Y0163027D01*
X0443444Y0162976D01*
X0443483Y0162928D01*
X0443525Y0162883D01*
X0443570Y0162840D01*
X0443618Y0162800D01*
X0443667Y0162763D01*
X0443719Y0162729D01*
X0443773Y0162698D01*
X0443829Y0162670D01*
X0443886Y0162646D01*
X0443945Y0162626D01*
X0444004Y0162609D01*
X0444065Y0162596D01*
X0444126Y0162587D01*
X0444188Y0162581D01*
X0444250Y0162579D01*
X0444310Y0162581D01*
X0444371Y0162586D01*
X0444430Y0162595D01*
X0444489Y0162608D01*
X0444548Y0162624D01*
X0444605Y0162644D01*
X0444660Y0162667D01*
X0444715Y0162694D01*
X0444767Y0162723D01*
X0444818Y0162756D01*
X0444867Y0162792D01*
X0444913Y0162830D01*
X0444957Y0162872D01*
X0444999Y0162916D01*
X0445037Y0162962D01*
X0445073Y0163011D01*
X0445106Y0163062D01*
X0445135Y0163114D01*
X0445162Y0163169D01*
X0445185Y0163224D01*
X0445205Y0163281D01*
X0445221Y0163340D01*
X0445234Y0163399D01*
X0445243Y0163458D01*
X0445248Y0163519D01*
X0445250Y0163579D01*
X0441374Y0162454D02*
X0441313Y0162517D01*
X0441255Y0162582D01*
X0441199Y0162650D01*
X0441146Y0162721D01*
X0441097Y0162793D01*
X0441050Y0162867D01*
X0441006Y0162943D01*
X0440966Y0163021D01*
X0440929Y0163101D01*
X0440895Y0163182D01*
X0440865Y0163264D01*
X0440838Y0163348D01*
X0440814Y0163433D01*
X0440794Y0163518D01*
X0440778Y0163604D01*
X0440765Y0163691D01*
X0440756Y0163779D01*
X0440751Y0163866D01*
X0440749Y0163954D01*
X0440750Y0163954D02*
X0440752Y0164014D01*
X0440757Y0164075D01*
X0440766Y0164134D01*
X0440779Y0164193D01*
X0440795Y0164252D01*
X0440815Y0164309D01*
X0440838Y0164364D01*
X0440865Y0164419D01*
X0440894Y0164471D01*
X0440927Y0164522D01*
X0440963Y0164571D01*
X0441001Y0164617D01*
X0441043Y0164661D01*
X0441087Y0164703D01*
X0441133Y0164741D01*
X0441182Y0164777D01*
X0441233Y0164810D01*
X0441285Y0164839D01*
X0441340Y0164866D01*
X0441395Y0164889D01*
X0441452Y0164909D01*
X0441511Y0164925D01*
X0441570Y0164938D01*
X0441629Y0164947D01*
X0441690Y0164952D01*
X0441750Y0164954D01*
X0440750Y0166804D02*
X0440750Y0168304D01*
X0440752Y0168364D01*
X0440757Y0168425D01*
X0440766Y0168484D01*
X0440779Y0168543D01*
X0440795Y0168602D01*
X0440815Y0168659D01*
X0440838Y0168714D01*
X0440865Y0168769D01*
X0440894Y0168821D01*
X0440927Y0168872D01*
X0440963Y0168921D01*
X0441001Y0168967D01*
X0441043Y0169011D01*
X0441087Y0169053D01*
X0441133Y0169091D01*
X0441182Y0169127D01*
X0441233Y0169160D01*
X0441285Y0169189D01*
X0441340Y0169216D01*
X0441395Y0169239D01*
X0441452Y0169259D01*
X0441511Y0169275D01*
X0441570Y0169288D01*
X0441629Y0169297D01*
X0441690Y0169302D01*
X0441750Y0169304D01*
X0442250Y0169304D01*
X0442310Y0169302D01*
X0442371Y0169297D01*
X0442430Y0169288D01*
X0442489Y0169275D01*
X0442548Y0169259D01*
X0442605Y0169239D01*
X0442660Y0169216D01*
X0442715Y0169189D01*
X0442767Y0169160D01*
X0442818Y0169127D01*
X0442867Y0169091D01*
X0442913Y0169053D01*
X0442957Y0169011D01*
X0442999Y0168967D01*
X0443037Y0168921D01*
X0443073Y0168872D01*
X0443106Y0168821D01*
X0443135Y0168769D01*
X0443162Y0168714D01*
X0443185Y0168659D01*
X0443205Y0168602D01*
X0443221Y0168543D01*
X0443234Y0168484D01*
X0443243Y0168425D01*
X0443248Y0168364D01*
X0443250Y0168304D01*
X0443250Y0166804D01*
X0445250Y0166804D01*
X0445250Y0169304D01*
X0443375Y0228079D02*
X0442625Y0229454D01*
X0440749Y0228954D02*
X0440751Y0228866D01*
X0440756Y0228779D01*
X0440765Y0228691D01*
X0440778Y0228604D01*
X0440794Y0228518D01*
X0440814Y0228433D01*
X0440838Y0228348D01*
X0440865Y0228264D01*
X0440895Y0228182D01*
X0440929Y0228101D01*
X0440966Y0228021D01*
X0441006Y0227943D01*
X0441050Y0227867D01*
X0441097Y0227793D01*
X0441146Y0227721D01*
X0441199Y0227650D01*
X0441255Y0227582D01*
X0441313Y0227517D01*
X0441374Y0227454D01*
X0442625Y0229454D02*
X0442592Y0229506D01*
X0442556Y0229557D01*
X0442517Y0229605D01*
X0442475Y0229650D01*
X0442430Y0229693D01*
X0442382Y0229733D01*
X0442333Y0229770D01*
X0442281Y0229804D01*
X0442227Y0229835D01*
X0442171Y0229863D01*
X0442114Y0229887D01*
X0442055Y0229907D01*
X0441996Y0229924D01*
X0441935Y0229937D01*
X0441874Y0229946D01*
X0441812Y0229952D01*
X0441750Y0229954D01*
X0441690Y0229952D01*
X0441629Y0229947D01*
X0441570Y0229938D01*
X0441511Y0229925D01*
X0441452Y0229909D01*
X0441395Y0229889D01*
X0441340Y0229866D01*
X0441285Y0229839D01*
X0441233Y0229810D01*
X0441182Y0229777D01*
X0441133Y0229741D01*
X0441087Y0229703D01*
X0441043Y0229661D01*
X0441001Y0229617D01*
X0440963Y0229571D01*
X0440927Y0229522D01*
X0440894Y0229471D01*
X0440865Y0229419D01*
X0440838Y0229364D01*
X0440815Y0229309D01*
X0440795Y0229252D01*
X0440779Y0229193D01*
X0440766Y0229134D01*
X0440757Y0229075D01*
X0440752Y0229014D01*
X0440750Y0228954D01*
X0444875Y0229704D02*
X0444922Y0229639D01*
X0444966Y0229571D01*
X0445007Y0229502D01*
X0445045Y0229431D01*
X0445080Y0229359D01*
X0445112Y0229285D01*
X0445141Y0229210D01*
X0445166Y0229134D01*
X0445188Y0229056D01*
X0445207Y0228978D01*
X0445222Y0228899D01*
X0445234Y0228820D01*
X0445243Y0228740D01*
X0445248Y0228659D01*
X0445250Y0228579D01*
X0445248Y0228519D01*
X0445243Y0228458D01*
X0445234Y0228399D01*
X0445221Y0228340D01*
X0445205Y0228281D01*
X0445185Y0228224D01*
X0445162Y0228169D01*
X0445135Y0228114D01*
X0445106Y0228062D01*
X0445073Y0228011D01*
X0445037Y0227962D01*
X0444999Y0227916D01*
X0444957Y0227872D01*
X0444913Y0227830D01*
X0444867Y0227792D01*
X0444818Y0227756D01*
X0444767Y0227723D01*
X0444715Y0227694D01*
X0444660Y0227667D01*
X0444605Y0227644D01*
X0444548Y0227624D01*
X0444489Y0227608D01*
X0444430Y0227595D01*
X0444371Y0227586D01*
X0444310Y0227581D01*
X0444250Y0227579D01*
X0444188Y0227581D01*
X0444126Y0227587D01*
X0444065Y0227596D01*
X0444004Y0227609D01*
X0443945Y0227626D01*
X0443886Y0227646D01*
X0443829Y0227670D01*
X0443773Y0227698D01*
X0443719Y0227729D01*
X0443667Y0227763D01*
X0443618Y0227800D01*
X0443570Y0227840D01*
X0443525Y0227883D01*
X0443483Y0227928D01*
X0443444Y0227976D01*
X0443408Y0228027D01*
X0443375Y0228079D01*
X0445250Y0231804D02*
X0445250Y0233304D01*
X0445248Y0233366D01*
X0445242Y0233427D01*
X0445233Y0233488D01*
X0445220Y0233548D01*
X0445203Y0233607D01*
X0445182Y0233665D01*
X0445158Y0233722D01*
X0445131Y0233777D01*
X0445100Y0233830D01*
X0445066Y0233882D01*
X0445029Y0233931D01*
X0444989Y0233978D01*
X0444946Y0234022D01*
X0444901Y0234063D01*
X0444853Y0234102D01*
X0444802Y0234138D01*
X0444750Y0234170D01*
X0444696Y0234199D01*
X0444640Y0234225D01*
X0444582Y0234247D01*
X0444524Y0234266D01*
X0444464Y0234281D01*
X0444403Y0234292D01*
X0444342Y0234300D01*
X0444281Y0234304D01*
X0444219Y0234304D01*
X0444158Y0234300D01*
X0444097Y0234292D01*
X0444036Y0234281D01*
X0443976Y0234266D01*
X0443918Y0234247D01*
X0443860Y0234225D01*
X0443804Y0234199D01*
X0443750Y0234170D01*
X0443698Y0234138D01*
X0443647Y0234102D01*
X0443599Y0234063D01*
X0443554Y0234022D01*
X0443511Y0233978D01*
X0443471Y0233931D01*
X0443434Y0233882D01*
X0443400Y0233830D01*
X0443369Y0233777D01*
X0443342Y0233722D01*
X0443318Y0233665D01*
X0443297Y0233607D01*
X0443280Y0233548D01*
X0443267Y0233488D01*
X0443258Y0233427D01*
X0443252Y0233366D01*
X0443250Y0233304D01*
X0443250Y0232304D01*
X0443250Y0233054D02*
X0443248Y0233123D01*
X0443242Y0233192D01*
X0443233Y0233260D01*
X0443220Y0233327D01*
X0443203Y0233394D01*
X0443182Y0233460D01*
X0443158Y0233524D01*
X0443130Y0233587D01*
X0443099Y0233649D01*
X0443065Y0233709D01*
X0443027Y0233766D01*
X0442986Y0233822D01*
X0442943Y0233875D01*
X0442896Y0233926D01*
X0442847Y0233974D01*
X0442795Y0234019D01*
X0442740Y0234061D01*
X0442684Y0234100D01*
X0442625Y0234137D01*
X0442564Y0234169D01*
X0442502Y0234199D01*
X0442438Y0234225D01*
X0442373Y0234247D01*
X0442307Y0234266D01*
X0442240Y0234281D01*
X0442172Y0234292D01*
X0442103Y0234300D01*
X0442034Y0234304D01*
X0441966Y0234304D01*
X0441897Y0234300D01*
X0441828Y0234292D01*
X0441760Y0234281D01*
X0441693Y0234266D01*
X0441627Y0234247D01*
X0441562Y0234225D01*
X0441498Y0234199D01*
X0441436Y0234169D01*
X0441375Y0234137D01*
X0441316Y0234100D01*
X0441260Y0234061D01*
X0441205Y0234019D01*
X0441153Y0233974D01*
X0441104Y0233926D01*
X0441057Y0233875D01*
X0441014Y0233822D01*
X0440973Y0233766D01*
X0440935Y0233709D01*
X0440901Y0233649D01*
X0440870Y0233587D01*
X0440842Y0233524D01*
X0440818Y0233460D01*
X0440797Y0233394D01*
X0440780Y0233327D01*
X0440767Y0233260D01*
X0440758Y0233192D01*
X0440752Y0233123D01*
X0440750Y0233054D01*
X0440750Y0231804D01*
X0096250Y0256954D02*
X0093750Y0256954D01*
X0095000Y0256954D02*
X0095000Y0252454D01*
X0092050Y0252454D02*
X0089550Y0252454D01*
X0090800Y0252454D02*
X0090800Y0256954D01*
X0092050Y0255954D01*
X0087550Y0252454D02*
X0085050Y0252454D01*
X0087550Y0252454D02*
X0085425Y0254954D01*
X0086175Y0256954D02*
X0086248Y0256952D01*
X0086320Y0256947D01*
X0086392Y0256938D01*
X0086464Y0256925D01*
X0086535Y0256909D01*
X0086605Y0256889D01*
X0086673Y0256865D01*
X0086741Y0256839D01*
X0086807Y0256808D01*
X0086872Y0256775D01*
X0086934Y0256738D01*
X0086995Y0256699D01*
X0087054Y0256656D01*
X0087111Y0256610D01*
X0087165Y0256562D01*
X0087216Y0256511D01*
X0087266Y0256457D01*
X0087312Y0256401D01*
X0087355Y0256343D01*
X0087396Y0256282D01*
X0087433Y0256220D01*
X0087467Y0256156D01*
X0087498Y0256090D01*
X0087526Y0256023D01*
X0087550Y0255954D01*
X0085425Y0254954D02*
X0085379Y0255000D01*
X0085335Y0255049D01*
X0085295Y0255100D01*
X0085257Y0255153D01*
X0085222Y0255208D01*
X0085190Y0255265D01*
X0085161Y0255323D01*
X0085135Y0255383D01*
X0085113Y0255445D01*
X0085094Y0255507D01*
X0085078Y0255570D01*
X0085066Y0255634D01*
X0085057Y0255699D01*
X0085052Y0255764D01*
X0085050Y0255829D01*
X0085052Y0255894D01*
X0085058Y0255960D01*
X0085067Y0256024D01*
X0085080Y0256088D01*
X0085097Y0256152D01*
X0085118Y0256214D01*
X0085142Y0256275D01*
X0085170Y0256334D01*
X0085201Y0256392D01*
X0085235Y0256447D01*
X0085273Y0256501D01*
X0085313Y0256552D01*
X0085357Y0256601D01*
X0085403Y0256647D01*
X0085452Y0256691D01*
X0085503Y0256731D01*
X0085557Y0256769D01*
X0085613Y0256803D01*
X0085670Y0256834D01*
X0085729Y0256862D01*
X0085790Y0256886D01*
X0085852Y0256907D01*
X0085916Y0256924D01*
X0085980Y0256937D01*
X0086044Y0256946D01*
X0086110Y0256952D01*
X0086175Y0256954D01*
D15*
X0137161Y0289598D02*
X0137161Y0291172D01*
X0138736Y0290385D01*
X0137161Y0289598D01*
X0137161Y0289832D02*
X0137630Y0289832D01*
X0137161Y0290631D02*
X0138245Y0290631D01*
X0137161Y0295897D02*
X0137161Y0297078D01*
X0139917Y0297078D01*
X0139917Y0197078D01*
X0137161Y0197078D01*
X0137161Y0198259D01*
X0135980Y0198259D01*
X0135980Y0295897D01*
X0137161Y0295897D01*
X0135980Y0295897D02*
X0135980Y0297078D01*
X0134406Y0297078D01*
X0122594Y0297078D02*
X0118657Y0297078D01*
X0118657Y0292354D01*
X0118657Y0201802D02*
X0118657Y0197078D01*
X0122594Y0197078D01*
X0134406Y0197078D02*
X0135980Y0197078D01*
X0135980Y0198259D01*
M02*
