G75*
%MOIN*%
%OFA0B0*%
%FSLAX25Y25*%
%IPPOS*%
%LPD*%
%AMOC8*
5,1,8,0,0,1.08239X$1,22.5*
%
%ADD10C,0.25800*%
%ADD11R,0.05918X0.06706*%
%ADD12R,0.06706X0.05918*%
%ADD13R,0.03950X0.03162*%
%ADD14R,0.06050X0.06050*%
%ADD15R,0.07099X0.04737*%
%ADD16R,0.25209X0.22060*%
%ADD17R,0.08800X0.03400*%
%ADD18R,0.22060X0.25209*%
%ADD19R,0.04737X0.07099*%
%ADD20OC8,0.05800*%
%ADD21R,0.04737X0.02178*%
%ADD22R,0.03162X0.09461*%
%ADD23C,0.06800*%
%ADD24R,0.10249X0.06312*%
%ADD25R,0.06312X0.03556*%
%ADD26R,0.03556X0.04343*%
%ADD27R,0.04343X0.03556*%
%ADD28C,0.05600*%
%ADD29OC8,0.09300*%
%ADD30R,0.04300X0.03900*%
%ADD31R,0.03900X0.04300*%
%ADD32C,0.03162*%
%ADD33C,0.05524*%
%ADD34C,0.06706*%
%ADD35R,0.02769X0.13005*%
%ADD36C,0.03500*%
D10*
X0096828Y0247286D03*
X0401828Y0247286D03*
D11*
X0385568Y0269786D03*
X0378088Y0269786D03*
X0398088Y0214786D03*
X0405568Y0214786D03*
X0405568Y0199786D03*
X0398088Y0199786D03*
X0423088Y0177286D03*
X0430568Y0177286D03*
X0405568Y0164786D03*
X0398088Y0164786D03*
X0458088Y0169786D03*
X0465568Y0169786D03*
X0465568Y0159786D03*
X0458088Y0159786D03*
X0448068Y0124786D03*
X0440588Y0124786D03*
X0428068Y0124786D03*
X0420588Y0124786D03*
X0300568Y0139786D03*
X0293088Y0139786D03*
X0293088Y0149786D03*
X0300568Y0149786D03*
X0225568Y0074786D03*
X0218088Y0074786D03*
X0218088Y0057286D03*
X0225568Y0057286D03*
X0225568Y0042286D03*
X0218088Y0042286D03*
X0218088Y0027286D03*
X0225568Y0027286D03*
X0268088Y0027286D03*
X0275568Y0027286D03*
X0275568Y0042286D03*
X0268088Y0042286D03*
X0268088Y0057286D03*
X0275568Y0057286D03*
X0165568Y0104786D03*
X0158088Y0104786D03*
X0148068Y0104786D03*
X0140588Y0104786D03*
X0055568Y0159786D03*
X0048088Y0159786D03*
D12*
X0301828Y0128526D03*
X0301828Y0121046D03*
D13*
X0456906Y0179786D03*
X0466749Y0179786D03*
X0481906Y0122286D03*
X0491749Y0122286D03*
X0024249Y0122286D03*
X0014406Y0122286D03*
D14*
X0011828Y0049786D03*
X0011828Y0089786D03*
X0086828Y0089786D03*
X0086828Y0049786D03*
X0416828Y0049786D03*
X0416828Y0089786D03*
X0491828Y0089786D03*
X0491828Y0049786D03*
D15*
X0452930Y0130809D03*
X0452930Y0148762D03*
X0053225Y0148762D03*
X0053225Y0130809D03*
D16*
X0024485Y0139786D03*
X0481670Y0139786D03*
D17*
X0359128Y0137286D03*
X0359128Y0142286D03*
X0359128Y0147286D03*
X0359128Y0152286D03*
X0359128Y0157286D03*
X0359128Y0162286D03*
X0319528Y0162286D03*
X0319528Y0157286D03*
X0319528Y0152286D03*
X0319528Y0147286D03*
X0319528Y0142286D03*
X0319528Y0137286D03*
X0319528Y0132286D03*
X0319528Y0127286D03*
X0319528Y0122286D03*
X0319528Y0117286D03*
X0359128Y0117286D03*
X0359128Y0122286D03*
X0359128Y0127286D03*
X0359128Y0132286D03*
X0206628Y0132286D03*
X0206628Y0137286D03*
X0206628Y0142286D03*
X0206628Y0147286D03*
X0206628Y0152286D03*
X0206628Y0157286D03*
X0206628Y0162286D03*
X0167028Y0162286D03*
X0167028Y0157286D03*
X0167028Y0152286D03*
X0167028Y0147286D03*
X0167028Y0142286D03*
X0167028Y0137286D03*
X0167028Y0132286D03*
X0167028Y0127286D03*
X0167028Y0122286D03*
X0167028Y0117286D03*
X0206628Y0117286D03*
X0206628Y0122286D03*
X0206628Y0127286D03*
D18*
X0454328Y0217128D03*
D19*
X0463304Y0188388D03*
X0445351Y0188388D03*
D20*
X0389328Y0194786D03*
X0381828Y0199786D03*
X0381828Y0189786D03*
D21*
X0266985Y0162817D03*
X0266985Y0160258D03*
X0266985Y0157699D03*
X0266985Y0155140D03*
X0266985Y0152581D03*
X0266985Y0150022D03*
X0266985Y0147463D03*
X0266985Y0144904D03*
X0266985Y0142345D03*
X0266985Y0139786D03*
X0266985Y0137227D03*
X0266985Y0134668D03*
X0266985Y0132109D03*
X0266985Y0129550D03*
X0266985Y0126991D03*
X0266985Y0124431D03*
X0266985Y0121872D03*
X0266985Y0119313D03*
X0266985Y0116754D03*
X0236670Y0116754D03*
X0236670Y0119313D03*
X0236670Y0121872D03*
X0236670Y0124431D03*
X0236670Y0126991D03*
X0236670Y0129550D03*
X0236670Y0132109D03*
X0236670Y0134668D03*
X0236670Y0137227D03*
X0236670Y0139786D03*
X0236670Y0142345D03*
X0236670Y0144904D03*
X0236670Y0147463D03*
X0236670Y0150022D03*
X0236670Y0152581D03*
X0236670Y0155140D03*
X0236670Y0157699D03*
X0236670Y0160258D03*
X0236670Y0162817D03*
D22*
X0029328Y0159550D03*
X0024328Y0159550D03*
X0019328Y0159550D03*
X0014328Y0159550D03*
X0014328Y0180022D03*
X0019328Y0180022D03*
X0024328Y0180022D03*
X0029328Y0180022D03*
X0474328Y0180022D03*
X0479328Y0180022D03*
X0484328Y0180022D03*
X0489328Y0180022D03*
X0489328Y0159550D03*
X0484328Y0159550D03*
X0479328Y0159550D03*
X0474328Y0159550D03*
D23*
X0435728Y0162086D02*
X0435728Y0168086D01*
X0417928Y0168086D02*
X0417928Y0162086D01*
X0417928Y0142486D02*
X0417928Y0136486D01*
X0407328Y0144786D02*
X0401328Y0144786D01*
X0377328Y0144786D02*
X0371328Y0144786D01*
X0371328Y0124786D02*
X0377328Y0124786D01*
X0401328Y0124786D02*
X0407328Y0124786D01*
X0435728Y0136486D02*
X0435728Y0142486D01*
X0407328Y0104786D02*
X0401328Y0104786D01*
X0377328Y0104786D02*
X0371328Y0104786D01*
X0330728Y0102086D02*
X0330728Y0108086D01*
X0312928Y0108086D02*
X0312928Y0102086D01*
X0283228Y0102086D02*
X0283228Y0108086D01*
X0265428Y0108086D02*
X0265428Y0102086D01*
X0265428Y0082486D02*
X0265428Y0076486D01*
X0283228Y0076486D02*
X0283228Y0082486D01*
X0312928Y0082486D02*
X0312928Y0076486D01*
X0330728Y0076486D02*
X0330728Y0082486D01*
X0371328Y0074786D02*
X0377328Y0074786D01*
X0401328Y0074786D02*
X0407328Y0074786D01*
X0205728Y0076486D02*
X0205728Y0082486D01*
X0187928Y0082486D02*
X0187928Y0076486D01*
X0187928Y0102086D02*
X0187928Y0108086D01*
X0205728Y0108086D02*
X0205728Y0102086D01*
X0132328Y0104786D02*
X0126328Y0104786D01*
X0102328Y0104786D02*
X0096328Y0104786D01*
X0096328Y0124786D02*
X0102328Y0124786D01*
X0126328Y0124786D02*
X0132328Y0124786D01*
X0132328Y0144786D02*
X0126328Y0144786D01*
X0102328Y0144786D02*
X0096328Y0144786D01*
X0083228Y0144986D02*
X0083228Y0138986D01*
X0065428Y0138986D02*
X0065428Y0144986D01*
X0065428Y0164586D02*
X0065428Y0170586D01*
X0083228Y0170586D02*
X0083228Y0164586D01*
X0083228Y0201486D02*
X0083228Y0207486D01*
X0065428Y0207486D02*
X0065428Y0201486D01*
X0065428Y0227086D02*
X0065428Y0233086D01*
X0083228Y0233086D02*
X0083228Y0227086D01*
X0019828Y0224786D02*
X0013828Y0224786D01*
X0013828Y0234786D02*
X0019828Y0234786D01*
X0019828Y0244786D02*
X0013828Y0244786D01*
X0013828Y0254786D02*
X0019828Y0254786D01*
X0019828Y0264786D02*
X0013828Y0264786D01*
X0013828Y0214786D02*
X0019828Y0214786D01*
X0019828Y0204786D02*
X0013828Y0204786D01*
X0013828Y0194786D02*
X0019828Y0194786D01*
X0096328Y0074786D02*
X0102328Y0074786D01*
X0126328Y0074786D02*
X0132328Y0074786D01*
X0417928Y0201486D02*
X0417928Y0207486D01*
X0435728Y0207486D02*
X0435728Y0201486D01*
X0435728Y0227086D02*
X0435728Y0233086D01*
X0417928Y0233086D02*
X0417928Y0227086D01*
D24*
X0426828Y0250061D03*
X0426828Y0259510D03*
D25*
X0291828Y0133132D03*
X0291828Y0126439D03*
D26*
X0224387Y0107286D03*
X0219269Y0107286D03*
X0219269Y0099786D03*
X0224387Y0099786D03*
X0224387Y0092286D03*
X0219269Y0092286D03*
X0219269Y0084786D03*
X0224387Y0084786D03*
X0169387Y0077286D03*
X0164269Y0077286D03*
X0116887Y0104786D03*
X0111769Y0104786D03*
X0056887Y0169786D03*
X0051769Y0169786D03*
X0041887Y0169786D03*
X0036769Y0169786D03*
X0062269Y0179786D03*
X0067387Y0179786D03*
X0077269Y0179786D03*
X0082387Y0179786D03*
X0091769Y0172286D03*
X0096887Y0172286D03*
X0068387Y0189786D03*
X0063269Y0189786D03*
X0051887Y0189786D03*
X0046769Y0189786D03*
X0034887Y0195786D03*
X0029769Y0195786D03*
X0028769Y0203786D03*
X0033887Y0203786D03*
X0034387Y0212786D03*
X0029269Y0212786D03*
X0029269Y0220786D03*
X0034387Y0220786D03*
X0034387Y0230286D03*
X0029269Y0230286D03*
X0046769Y0214786D03*
X0051887Y0214786D03*
X0032387Y0254786D03*
X0027269Y0254786D03*
X0028269Y0264786D03*
X0033387Y0264786D03*
X0046769Y0272786D03*
X0051887Y0272786D03*
X0374269Y0254786D03*
X0379387Y0254786D03*
X0399269Y0224786D03*
X0404387Y0224786D03*
X0384387Y0209786D03*
X0379269Y0209786D03*
X0399269Y0189786D03*
X0404387Y0189786D03*
X0384387Y0179786D03*
X0379269Y0179786D03*
X0379269Y0164786D03*
X0384387Y0164786D03*
X0384387Y0154786D03*
X0379269Y0154786D03*
X0399269Y0154786D03*
X0404387Y0154786D03*
X0444269Y0174786D03*
X0449387Y0174786D03*
X0479269Y0192286D03*
X0484387Y0192286D03*
X0484387Y0202286D03*
X0479269Y0202286D03*
X0479269Y0212286D03*
X0484387Y0212286D03*
X0484387Y0219786D03*
X0479269Y0219786D03*
X0391887Y0104786D03*
X0386769Y0104786D03*
D27*
X0354328Y0104845D03*
X0354328Y0099727D03*
X0354328Y0082345D03*
X0354328Y0077227D03*
X0301828Y0107227D03*
X0301828Y0112345D03*
X0294328Y0082345D03*
X0294328Y0077227D03*
X0444328Y0139727D03*
X0444328Y0144845D03*
X0076828Y0227227D03*
X0076828Y0232345D03*
D28*
X0146828Y0092186D02*
X0146828Y0087386D01*
X0156828Y0087386D02*
X0156828Y0092186D01*
X0166828Y0092186D02*
X0166828Y0087386D01*
D29*
X0444028Y0254786D03*
X0469628Y0254786D03*
D30*
X0385828Y0228486D03*
X0377828Y0224686D03*
X0385828Y0220886D03*
X0034828Y0236886D03*
X0026828Y0240686D03*
X0034828Y0244486D03*
D31*
X0045628Y0243786D03*
X0053228Y0243786D03*
X0049428Y0235786D03*
X0046128Y0228786D03*
X0053728Y0228786D03*
X0049928Y0220786D03*
X0048728Y0205286D03*
X0052528Y0197286D03*
X0044928Y0197286D03*
X0048728Y0184286D03*
X0052528Y0176286D03*
X0044928Y0176286D03*
X0076928Y0186786D03*
X0084528Y0186786D03*
X0080728Y0194786D03*
X0049428Y0255786D03*
X0053228Y0263786D03*
X0045628Y0263786D03*
X0375428Y0240786D03*
X0383028Y0240786D03*
X0379228Y0248786D03*
X0423128Y0193786D03*
X0430728Y0193786D03*
X0426928Y0185786D03*
X0405528Y0175786D03*
X0397928Y0175786D03*
X0401728Y0183786D03*
X0443128Y0168786D03*
X0450728Y0168786D03*
X0446928Y0160786D03*
X0481928Y0225786D03*
X0485728Y0233786D03*
X0478128Y0233786D03*
D32*
X0371828Y0234786D03*
X0371828Y0219786D03*
D33*
X0369938Y0066361D02*
X0365214Y0066361D01*
X0341395Y0050613D02*
X0341395Y0045888D01*
X0331946Y0051400D02*
X0331946Y0056124D01*
X0369741Y0038408D02*
X0369741Y0033683D01*
X0354190Y0023054D02*
X0349466Y0023054D01*
X0169741Y0033683D02*
X0169741Y0038408D01*
X0154190Y0023054D02*
X0149466Y0023054D01*
X0141395Y0045888D02*
X0141395Y0050613D01*
X0131946Y0051400D02*
X0131946Y0056124D01*
X0165214Y0066361D02*
X0169938Y0066361D01*
D34*
X0179958Y0049825D02*
X0179958Y0043920D01*
X0179958Y0030928D02*
X0179958Y0025022D01*
X0208698Y0025022D02*
X0208698Y0030928D01*
X0208698Y0043920D02*
X0208698Y0049825D01*
X0292458Y0049825D02*
X0292458Y0043920D01*
X0292458Y0030928D02*
X0292458Y0025022D01*
X0321198Y0025022D02*
X0321198Y0030928D01*
X0321198Y0043920D02*
X0321198Y0049825D01*
D35*
X0313127Y0051597D03*
X0309977Y0051597D03*
X0306828Y0051597D03*
X0303678Y0051597D03*
X0300529Y0051597D03*
X0200627Y0051597D03*
X0197477Y0051597D03*
X0194328Y0051597D03*
X0191178Y0051597D03*
X0188029Y0051597D03*
D36*
X0188428Y0043286D03*
X0197428Y0043286D03*
X0203728Y0051686D03*
X0213328Y0054986D03*
X0234028Y0047186D03*
X0251128Y0059786D03*
X0230128Y0073886D03*
X0234928Y0078686D03*
X0242428Y0078086D03*
X0233128Y0084086D03*
X0227728Y0089486D03*
X0214528Y0100586D03*
X0207328Y0093386D03*
X0199528Y0093386D03*
X0200128Y0086186D03*
X0188428Y0095786D03*
X0165028Y0081686D03*
X0153928Y0084086D03*
X0147028Y0079886D03*
X0110728Y0095486D03*
X0118528Y0108686D03*
X0130228Y0111086D03*
X0133828Y0116186D03*
X0128128Y0118586D03*
X0140428Y0127886D03*
X0144628Y0128486D03*
X0144628Y0131786D03*
X0150028Y0128786D03*
X0153328Y0129386D03*
X0148828Y0137186D03*
X0152728Y0141986D03*
X0151228Y0152786D03*
X0160828Y0155186D03*
X0173128Y0152786D03*
X0179428Y0153386D03*
X0179428Y0150086D03*
X0190228Y0147386D03*
X0198928Y0147686D03*
X0198328Y0143786D03*
X0200428Y0152486D03*
X0192028Y0157286D03*
X0195328Y0162386D03*
X0195328Y0165686D03*
X0205228Y0165686D03*
X0220528Y0160586D03*
X0217828Y0154286D03*
X0212728Y0152786D03*
X0224428Y0147686D03*
X0232528Y0142586D03*
X0240628Y0137786D03*
X0243628Y0132386D03*
X0246928Y0132386D03*
X0253828Y0125186D03*
X0262828Y0128486D03*
X0258028Y0134786D03*
X0260428Y0137186D03*
X0258028Y0139586D03*
X0262828Y0141986D03*
X0250828Y0139586D03*
X0231628Y0152786D03*
X0216028Y0144986D03*
X0218128Y0140186D03*
X0215728Y0137786D03*
X0212428Y0129986D03*
X0199228Y0124886D03*
X0194428Y0117086D03*
X0184828Y0114386D03*
X0159328Y0113786D03*
X0173128Y0132986D03*
X0190228Y0135386D03*
X0192628Y0132986D03*
X0222028Y0111386D03*
X0230428Y0114986D03*
X0239728Y0111686D03*
X0232228Y0124886D03*
X0262828Y0121886D03*
X0274828Y0124586D03*
X0282328Y0132086D03*
X0291328Y0123086D03*
X0307828Y0132386D03*
X0325528Y0131486D03*
X0342328Y0131786D03*
X0344128Y0139586D03*
X0344128Y0142886D03*
X0350728Y0139586D03*
X0349828Y0150086D03*
X0353428Y0154886D03*
X0344128Y0152486D03*
X0351328Y0167786D03*
X0369628Y0167786D03*
X0393628Y0160586D03*
X0397828Y0171386D03*
X0379228Y0186086D03*
X0375328Y0190586D03*
X0373828Y0202586D03*
X0367528Y0202886D03*
X0407728Y0191186D03*
X0422728Y0197486D03*
X0423328Y0183386D03*
X0435328Y0178586D03*
X0440428Y0179786D03*
X0459328Y0185786D03*
X0484228Y0196586D03*
X0481828Y0216386D03*
X0414928Y0222986D03*
X0375628Y0231086D03*
X0373228Y0244586D03*
X0366928Y0258686D03*
X0311728Y0170786D03*
X0303628Y0154886D03*
X0288328Y0152186D03*
X0276928Y0147386D03*
X0273628Y0147686D03*
X0288328Y0142586D03*
X0271828Y0159386D03*
X0262828Y0166886D03*
X0259528Y0159986D03*
X0234328Y0169286D03*
X0170128Y0165986D03*
X0164428Y0168386D03*
X0149428Y0165986D03*
X0143428Y0165986D03*
X0140428Y0175886D03*
X0129028Y0168686D03*
X0131428Y0164786D03*
X0132328Y0157286D03*
X0105928Y0131186D03*
X0091228Y0120986D03*
X0092728Y0116186D03*
X0084328Y0111086D03*
X0079228Y0108686D03*
X0072628Y0118586D03*
X0038428Y0156986D03*
X0028528Y0165986D03*
X0008728Y0179186D03*
X0024028Y0191486D03*
X0034828Y0180986D03*
X0051928Y0193586D03*
X0066628Y0194186D03*
X0063328Y0184286D03*
X0071428Y0179486D03*
X0056128Y0177086D03*
X0070528Y0167186D03*
X0089728Y0187286D03*
X0099928Y0194186D03*
X0098128Y0202586D03*
X0105628Y0207386D03*
X0102328Y0207686D03*
X0089728Y0205886D03*
X0084928Y0215786D03*
X0101128Y0221186D03*
X0111928Y0232886D03*
X0121228Y0236186D03*
X0131428Y0245486D03*
X0123328Y0250286D03*
X0121228Y0247586D03*
X0121228Y0254786D03*
X0123628Y0257186D03*
X0110428Y0262286D03*
X0108628Y0272186D03*
X0086428Y0269186D03*
X0083128Y0264686D03*
X0078328Y0249986D03*
X0064528Y0243686D03*
X0060628Y0249686D03*
X0049228Y0249086D03*
X0034828Y0224786D03*
X0030028Y0226286D03*
X0009928Y0241586D03*
X0034528Y0207686D03*
X0123028Y0215786D03*
X0125728Y0217886D03*
X0129028Y0221186D03*
X0129028Y0225086D03*
X0137428Y0209486D03*
X0131428Y0204086D03*
X0125128Y0207086D03*
X0273628Y0109886D03*
X0289228Y0098186D03*
X0291928Y0093986D03*
X0287428Y0087986D03*
X0297628Y0085286D03*
X0297628Y0104486D03*
X0297628Y0109886D03*
X0322828Y0113786D03*
X0338728Y0107786D03*
X0345328Y0105086D03*
X0338728Y0098486D03*
X0333928Y0093986D03*
X0340228Y0091586D03*
X0364528Y0087986D03*
X0381928Y0090386D03*
X0378928Y0109886D03*
X0389728Y0108686D03*
X0394828Y0111086D03*
X0386128Y0125186D03*
X0394228Y0132386D03*
X0386128Y0140486D03*
X0423928Y0159086D03*
X0356728Y0108386D03*
X0279628Y0061586D03*
X0301828Y0043286D03*
X0268228Y0020786D03*
X0262828Y0023186D03*
X0251128Y0030686D03*
X0231628Y0030686D03*
X0174328Y0034886D03*
X0172228Y0026786D03*
X0167128Y0044486D03*
X0192928Y0072386D03*
X0201928Y0072386D03*
X0255328Y0096086D03*
X0257728Y0098486D03*
M02*
