M48
;GenerationSoftware,Autodesk,EAGLE,8.7.1*%
;CreationDate,2018-03-30T22:44:37Z*%
FMAT,2
ICI,OFF
METRIC,TZ,000.000
T10C0.381
T9C0.508
T8C0.813
T7C0.889
T6C0.900
T5C0.914
T4C1.000
T3C2.007
T2C2.032
T1C5.588
%
G90
M71
T1
X23495Y60960
X102235Y60960
T2
X38100Y16891
X88900Y16891
T3
X94996Y51308
X94996Y55753
T4
X36489Y6746
X41489Y6746
X90765Y6746
X85765Y6746
T5
X112319Y60960
X118821Y60960
T6
X48727Y5842
X53127Y5842
X74000Y5842
X78400Y5842
T7
X5080Y20320
X102616Y20066
X102616Y9906
X121666Y20066
X121666Y9906
X5080Y10160
X24130Y20320
X24130Y10160
T8
X96520Y39878
X96520Y37338
X96520Y42418
T9
X60325Y14097
X57785Y14097
X55245Y14097
X52705Y14097
X70485Y14097
X67945Y14097
X65405Y14097
X62865Y14097
T10
X16002Y58115
X100584Y39903
X112624Y43942
X95402Y45314
X118110Y41123
X115367Y43866
X7620Y38760
X11278Y35103
X15469Y35103
X36805Y34188
X42139Y38532
X49987Y10947
X73838Y9119
X118491Y46685
X41986Y21920
X32309Y60782
X32309Y58877
X44425Y23292
X43358Y22225
X91135Y29693
X70866Y31826
X70866Y30607
X49301Y11633
X74066Y27864
X76810Y25044
X74981Y33655
X60198Y21387
X18288Y38608
X28651Y28245
X68961Y24282
X69571Y22987
X70637Y21920
X73762Y18796
X64313Y27940
X68961Y34036
X94564Y45466
X55169Y18415
X40691Y18415
X35128Y23749
X66599Y36932
X48692Y33122
X30709Y53772
X19507Y54686
X37795Y31064
X40538Y31064
X84049Y32283
X55778Y35712
X54254Y33350
X31166Y54534
X19507Y55524
X33985Y27407
X44348Y29616
X49530Y32893
X94183Y30988
X92659Y32512
X91364Y34036
X87249Y38151
X71857Y34417
X54102Y27407
X27127Y48209
X42824Y28550
X50063Y27788
X93345Y25044
X87173Y27102
X82372Y32283
X70409Y35027
X54254Y28397
X30709Y55296
X18669Y55524
X33376Y26797
X43815Y26416
X50978Y27864
X94488Y26416
X80848Y36322
X69571Y34646
X58674Y34417
X27432Y47066
X40996Y26721
X97536Y30226
X89306Y36932
X59893Y33045
X13183Y64440
X28346Y52781
X32309Y36779
X41377Y31293
X87249Y28321
X71628Y31064
X61874Y33731
X55702Y29007
X30709Y52324
X32309Y37617
X47473Y28702
X83210Y32283
X69494Y36246
X68123Y34417
X66370Y33807
X62865Y33045
X50292Y23749
X28042Y46457
X39548Y27330
X77876Y15672
X51968Y12852
X71552Y25349
X44120Y14757
X18593Y30302
X17678Y31217
X69647Y27864
X73381Y23292
X75667Y21006
X91821Y23292
X55702Y33122
X54864Y33960
X37490Y32817
X18593Y29464
X14554Y28473
X71552Y28473
X26518Y46304
X74066Y29159
X70028Y31826
X67437Y36932
X66142Y38227
X30709Y58801
X76200Y27864
X74371Y20549
X70866Y15062
X41072Y16967
X26213Y25883
X55169Y19253
X99593Y16053
X94336Y44399
X21717Y44780
X24155Y47600
X18821Y45999
X16307Y43485
X25070Y49428
X71171Y33045
X51206Y20777
X50140Y19710
X34823Y27407
X114376Y47600
X23470Y40970
X68275Y30531
X95631Y38075
X103327Y44247
X101651Y44247
X48082Y30607
X50216Y31293
X72009Y29235
X66065Y14910
X69571Y14072
X69571Y9804
X78486Y30455
X100584Y39065
X102870Y41351
X106147Y46228
X28042Y32664
X14402Y33807
X62255Y4242
X31166Y24511
X29261Y30302
X99974Y20549
X113538Y28473
X64237Y5461
X107213Y40513
X112624Y38608
X108433Y42494
X72009Y26111
X78029Y26035
X54635Y30074
X99746Y21996
X54102Y35027
X54102Y26187
X49759Y24435
X74905Y35636
X27584Y63602
X11278Y55296
X5410Y49733
X11201Y56744
X21869Y38837
X45568Y14148
X104775Y54610
X108509Y58344
X109423Y27026
X101879Y45618
X106375Y40742
X14097Y41427
X30328Y36627
X40234Y29159
X50978Y25806
X20193Y57506
X40386Y37770
X50368Y35636
X9906Y33198
X16154Y34417
X35890Y33426
X10363Y56744
X10363Y55372
X21107Y40818
M30