G04 EAGLE Gerber X2 export*
%TF.Part,Single*%
%TF.FileFunction,Profile,NP*%
%TF.FilePolarity,Positive*%
%TF.GenerationSoftware,Autodesk,EAGLE,8.7.1*%
%TF.CreationDate,2018-03-30T22:44:39Z*%
G75*
%MOMM*%
%FSLAX34Y34*%
%LPD*%
%AMOC8*
5,1,8,0,0,1.08239X$1,22.5*%
G01*
%ADD10C,0.254000*%


D10*
X0Y124460D02*
X-150Y117865D01*
X344Y107934D01*
X1703Y98084D01*
X3914Y88389D01*
X6963Y78924D01*
X10824Y69761D01*
X15470Y60969D01*
X20864Y52616D01*
X26965Y44764D01*
X33728Y37475D01*
X41100Y30802D01*
X49026Y24797D01*
X57445Y19506D01*
X66293Y14969D01*
X75503Y11220D01*
X85005Y8288D01*
X94726Y6195D01*
X104592Y4958D01*
X114529Y4585D01*
X124460Y5080D01*
X195580Y5080D01*
X195580Y53340D01*
X68580Y53340D01*
X68580Y243840D01*
X223520Y243840D01*
X223520Y5080D01*
X259080Y5080D01*
X259080Y81280D01*
X259084Y81390D01*
X259311Y84051D01*
X259769Y86682D01*
X260454Y89264D01*
X261362Y91776D01*
X262485Y94199D01*
X263815Y96516D01*
X265342Y98707D01*
X267054Y100757D01*
X268938Y102650D01*
X270980Y104372D01*
X273165Y105909D01*
X275475Y107250D01*
X277893Y108385D01*
X280400Y109304D01*
X282979Y110001D01*
X285608Y110471D01*
X288269Y110710D01*
X290940Y110717D01*
X293601Y110490D01*
X296232Y110032D01*
X298814Y109347D01*
X301326Y108439D01*
X303749Y107316D01*
X306066Y105986D01*
X308257Y104459D01*
X310307Y102747D01*
X312200Y100863D01*
X313922Y98821D01*
X315459Y96636D01*
X316800Y94326D01*
X317935Y91908D01*
X318854Y89400D01*
X319551Y86822D01*
X320021Y84193D01*
X320260Y81532D01*
X320267Y78861D01*
X320040Y76200D01*
X320040Y-2540D01*
X944880Y-2540D01*
X944880Y78740D01*
X945093Y81177D01*
X945532Y83690D01*
X946187Y86155D01*
X947056Y88554D01*
X948130Y90867D01*
X949401Y93079D01*
X950860Y95171D01*
X952497Y97128D01*
X954297Y98935D01*
X956248Y100578D01*
X958335Y102045D01*
X960542Y103324D01*
X962852Y104407D01*
X965247Y105283D01*
X967710Y105948D01*
X970221Y106395D01*
X972762Y106622D01*
X975313Y106627D01*
X977855Y106409D01*
X980368Y105971D01*
X982833Y105315D01*
X985231Y104447D01*
X987545Y103373D01*
X989757Y102101D01*
X991849Y100642D01*
X993806Y99006D01*
X995613Y97205D01*
X997256Y95254D01*
X998723Y93167D01*
X1000002Y90960D01*
X1001084Y88650D01*
X1001961Y86255D01*
X1002626Y83792D01*
X1003073Y81281D01*
X1003300Y78740D01*
X1003300Y5080D01*
X1043940Y5080D01*
X1043940Y243840D01*
X1198880Y243840D01*
X1198880Y53340D01*
X1071880Y53340D01*
X1071880Y5080D01*
X1158240Y5080D01*
X1160779Y5136D01*
X1170613Y5896D01*
X1180344Y7510D01*
X1189897Y9965D01*
X1199200Y13245D01*
X1208181Y17322D01*
X1216773Y22166D01*
X1224910Y27741D01*
X1232531Y34004D01*
X1239576Y40908D01*
X1245993Y48399D01*
X1251733Y56421D01*
X1256751Y64912D01*
X1261011Y73809D01*
X1264478Y83043D01*
X1267128Y92544D01*
X1268940Y102240D01*
X1269900Y112057D01*
X1270000Y121920D01*
X1270000Y553720D01*
X1269157Y561259D01*
X1266871Y573754D01*
X1263505Y586002D01*
X1259083Y597910D01*
X1253641Y609387D01*
X1247219Y620346D01*
X1239866Y630704D01*
X1231639Y640382D01*
X1222600Y649305D01*
X1212817Y657407D01*
X1202365Y664626D01*
X1191324Y670906D01*
X1179777Y676199D01*
X1167813Y680467D01*
X1155523Y683675D01*
X1143000Y685800D01*
X922020Y685800D01*
X922020Y406400D01*
X383540Y406400D01*
X383540Y370840D01*
X345440Y370840D01*
X345440Y685800D01*
X111760Y685800D01*
X99262Y681862D01*
X86828Y676731D01*
X74889Y670536D01*
X63536Y663323D01*
X52854Y655149D01*
X42925Y646075D01*
X33824Y636170D01*
X25622Y625509D01*
X18380Y614174D01*
X12154Y602251D01*
X6990Y589831D01*
X2928Y577008D01*
X0Y563880D01*
X0Y124460D01*
X262890Y608868D02*
X262813Y607407D01*
X262660Y605952D01*
X262432Y604507D01*
X262127Y603075D01*
X261749Y601662D01*
X261296Y600270D01*
X260772Y598904D01*
X260177Y597567D01*
X259513Y596264D01*
X258781Y594996D01*
X257984Y593769D01*
X257124Y592585D01*
X256203Y591448D01*
X255224Y590361D01*
X254189Y589326D01*
X253102Y588347D01*
X251965Y587426D01*
X250781Y586566D01*
X249554Y585769D01*
X248286Y585037D01*
X246983Y584373D01*
X245646Y583778D01*
X244280Y583254D01*
X242888Y582801D01*
X241475Y582423D01*
X240043Y582118D01*
X238598Y581890D01*
X237143Y581737D01*
X235682Y581660D01*
X234218Y581660D01*
X232757Y581737D01*
X231302Y581890D01*
X229857Y582118D01*
X228425Y582423D01*
X227012Y582801D01*
X225620Y583254D01*
X224254Y583778D01*
X222917Y584373D01*
X221614Y585037D01*
X220346Y585769D01*
X219119Y586566D01*
X217935Y587426D01*
X216798Y588347D01*
X215711Y589326D01*
X214676Y590361D01*
X213697Y591448D01*
X212776Y592585D01*
X211916Y593769D01*
X211119Y594996D01*
X210387Y596264D01*
X209723Y597567D01*
X209128Y598904D01*
X208604Y600270D01*
X208151Y601662D01*
X207773Y603075D01*
X207468Y604507D01*
X207240Y605952D01*
X207087Y607407D01*
X207010Y608868D01*
X207010Y610332D01*
X207087Y611793D01*
X207240Y613248D01*
X207468Y614693D01*
X207773Y616125D01*
X208151Y617538D01*
X208604Y618930D01*
X209128Y620296D01*
X209723Y621633D01*
X210387Y622936D01*
X211119Y624204D01*
X211916Y625431D01*
X212776Y626615D01*
X213697Y627752D01*
X214676Y628839D01*
X215711Y629874D01*
X216798Y630853D01*
X217935Y631774D01*
X219119Y632634D01*
X220346Y633431D01*
X221614Y634163D01*
X222917Y634827D01*
X224254Y635422D01*
X225620Y635946D01*
X227012Y636399D01*
X228425Y636777D01*
X229857Y637082D01*
X231302Y637310D01*
X232757Y637463D01*
X234218Y637540D01*
X235682Y637540D01*
X237143Y637463D01*
X238598Y637310D01*
X240043Y637082D01*
X241475Y636777D01*
X242888Y636399D01*
X244280Y635946D01*
X245646Y635422D01*
X246983Y634827D01*
X248286Y634163D01*
X249554Y633431D01*
X250781Y632634D01*
X251965Y631774D01*
X253102Y630853D01*
X254189Y629874D01*
X255224Y628839D01*
X256203Y627752D01*
X257124Y626615D01*
X257984Y625431D01*
X258781Y624204D01*
X259513Y622936D01*
X260177Y621633D01*
X260772Y620296D01*
X261296Y618930D01*
X261749Y617538D01*
X262127Y616125D01*
X262432Y614693D01*
X262660Y613248D01*
X262813Y611793D01*
X262890Y610332D01*
X262890Y608868D01*
X1050290Y608868D02*
X1050213Y607407D01*
X1050060Y605952D01*
X1049832Y604507D01*
X1049527Y603075D01*
X1049149Y601662D01*
X1048696Y600270D01*
X1048172Y598904D01*
X1047577Y597567D01*
X1046913Y596264D01*
X1046181Y594996D01*
X1045384Y593769D01*
X1044524Y592585D01*
X1043603Y591448D01*
X1042624Y590361D01*
X1041589Y589326D01*
X1040502Y588347D01*
X1039365Y587426D01*
X1038181Y586566D01*
X1036954Y585769D01*
X1035686Y585037D01*
X1034383Y584373D01*
X1033046Y583778D01*
X1031680Y583254D01*
X1030288Y582801D01*
X1028875Y582423D01*
X1027443Y582118D01*
X1025998Y581890D01*
X1024543Y581737D01*
X1023082Y581660D01*
X1021618Y581660D01*
X1020157Y581737D01*
X1018702Y581890D01*
X1017257Y582118D01*
X1015825Y582423D01*
X1014412Y582801D01*
X1013020Y583254D01*
X1011654Y583778D01*
X1010317Y584373D01*
X1009014Y585037D01*
X1007746Y585769D01*
X1006519Y586566D01*
X1005335Y587426D01*
X1004198Y588347D01*
X1003111Y589326D01*
X1002076Y590361D01*
X1001097Y591448D01*
X1000176Y592585D01*
X999316Y593769D01*
X998519Y594996D01*
X997787Y596264D01*
X997123Y597567D01*
X996528Y598904D01*
X996004Y600270D01*
X995551Y601662D01*
X995173Y603075D01*
X994868Y604507D01*
X994640Y605952D01*
X994487Y607407D01*
X994410Y608868D01*
X994410Y610332D01*
X994487Y611793D01*
X994640Y613248D01*
X994868Y614693D01*
X995173Y616125D01*
X995551Y617538D01*
X996004Y618930D01*
X996528Y620296D01*
X997123Y621633D01*
X997787Y622936D01*
X998519Y624204D01*
X999316Y625431D01*
X1000176Y626615D01*
X1001097Y627752D01*
X1002076Y628839D01*
X1003111Y629874D01*
X1004198Y630853D01*
X1005335Y631774D01*
X1006519Y632634D01*
X1007746Y633431D01*
X1009014Y634163D01*
X1010317Y634827D01*
X1011654Y635422D01*
X1013020Y635946D01*
X1014412Y636399D01*
X1015825Y636777D01*
X1017257Y637082D01*
X1018702Y637310D01*
X1020157Y637463D01*
X1021618Y637540D01*
X1023082Y637540D01*
X1024543Y637463D01*
X1025998Y637310D01*
X1027443Y637082D01*
X1028875Y636777D01*
X1030288Y636399D01*
X1031680Y635946D01*
X1033046Y635422D01*
X1034383Y634827D01*
X1035686Y634163D01*
X1036954Y633431D01*
X1038181Y632634D01*
X1039365Y631774D01*
X1040502Y630853D01*
X1041589Y629874D01*
X1042624Y628839D01*
X1043603Y627752D01*
X1044524Y626615D01*
X1045384Y625431D01*
X1046181Y624204D01*
X1046913Y622936D01*
X1047577Y621633D01*
X1048172Y620296D01*
X1048696Y618930D01*
X1049149Y617538D01*
X1049527Y616125D01*
X1049832Y614693D01*
X1050060Y613248D01*
X1050213Y611793D01*
X1050290Y610332D01*
X1050290Y608868D01*
X391160Y168466D02*
X391083Y167583D01*
X390929Y166709D01*
X390699Y165852D01*
X390396Y165018D01*
X390021Y164214D01*
X389577Y163446D01*
X389068Y162719D01*
X388498Y162039D01*
X387871Y161412D01*
X387191Y160842D01*
X386464Y160333D01*
X385696Y159889D01*
X384892Y159514D01*
X384058Y159211D01*
X383201Y158981D01*
X382327Y158827D01*
X381444Y158750D01*
X380556Y158750D01*
X379673Y158827D01*
X378799Y158981D01*
X377942Y159211D01*
X377108Y159514D01*
X376304Y159889D01*
X375536Y160333D01*
X374809Y160842D01*
X374129Y161412D01*
X373502Y162039D01*
X372932Y162719D01*
X372423Y163446D01*
X371979Y164214D01*
X371604Y165018D01*
X371301Y165852D01*
X371071Y166709D01*
X370917Y167583D01*
X370840Y168466D01*
X370840Y169354D01*
X370917Y170237D01*
X371071Y171111D01*
X371301Y171968D01*
X371604Y172802D01*
X371979Y173606D01*
X372423Y174374D01*
X372932Y175101D01*
X373502Y175781D01*
X374129Y176408D01*
X374809Y176978D01*
X375536Y177487D01*
X376304Y177931D01*
X377108Y178306D01*
X377942Y178609D01*
X378799Y178839D01*
X379673Y178993D01*
X380556Y179070D01*
X381444Y179070D01*
X382327Y178993D01*
X383201Y178839D01*
X384058Y178609D01*
X384892Y178306D01*
X385696Y177931D01*
X386464Y177487D01*
X387191Y176978D01*
X387871Y176408D01*
X388498Y175781D01*
X389068Y175101D01*
X389577Y174374D01*
X390021Y173606D01*
X390396Y172802D01*
X390699Y171968D01*
X390929Y171111D01*
X391083Y170237D01*
X391160Y169354D01*
X391160Y168466D01*
X899160Y168466D02*
X899083Y167583D01*
X898929Y166709D01*
X898699Y165852D01*
X898396Y165018D01*
X898021Y164214D01*
X897577Y163446D01*
X897068Y162719D01*
X896498Y162039D01*
X895871Y161412D01*
X895191Y160842D01*
X894464Y160333D01*
X893696Y159889D01*
X892892Y159514D01*
X892058Y159211D01*
X891201Y158981D01*
X890327Y158827D01*
X889444Y158750D01*
X888556Y158750D01*
X887673Y158827D01*
X886799Y158981D01*
X885942Y159211D01*
X885108Y159514D01*
X884304Y159889D01*
X883536Y160333D01*
X882809Y160842D01*
X882129Y161412D01*
X881502Y162039D01*
X880932Y162719D01*
X880423Y163446D01*
X879979Y164214D01*
X879604Y165018D01*
X879301Y165852D01*
X879071Y166709D01*
X878917Y167583D01*
X878840Y168466D01*
X878840Y169354D01*
X878917Y170237D01*
X879071Y171111D01*
X879301Y171968D01*
X879604Y172802D01*
X879979Y173606D01*
X880423Y174374D01*
X880932Y175101D01*
X881502Y175781D01*
X882129Y176408D01*
X882809Y176978D01*
X883536Y177487D01*
X884304Y177931D01*
X885108Y178306D01*
X885942Y178609D01*
X886799Y178839D01*
X887673Y178993D01*
X888556Y179070D01*
X889444Y179070D01*
X890327Y178993D01*
X891201Y178839D01*
X892058Y178609D01*
X892892Y178306D01*
X893696Y177931D01*
X894464Y177487D01*
X895191Y176978D01*
X895871Y176408D01*
X896498Y175781D01*
X897068Y175101D01*
X897577Y174374D01*
X898021Y173606D01*
X898396Y172802D01*
X898699Y171968D01*
X898929Y171111D01*
X899083Y170237D01*
X899160Y169354D01*
X899160Y168466D01*
X262890Y608868D02*
X262813Y607407D01*
X262660Y605952D01*
X262432Y604507D01*
X262127Y603075D01*
X261749Y601662D01*
X261296Y600270D01*
X260772Y598904D01*
X260177Y597567D01*
X259513Y596264D01*
X258781Y594996D01*
X257984Y593769D01*
X257124Y592585D01*
X256203Y591448D01*
X255224Y590361D01*
X254189Y589326D01*
X253102Y588347D01*
X251965Y587426D01*
X250781Y586566D01*
X249554Y585769D01*
X248286Y585037D01*
X246983Y584373D01*
X245646Y583778D01*
X244280Y583254D01*
X242888Y582801D01*
X241475Y582423D01*
X240043Y582118D01*
X238598Y581890D01*
X237143Y581737D01*
X235682Y581660D01*
X234218Y581660D01*
X232757Y581737D01*
X231302Y581890D01*
X229857Y582118D01*
X228425Y582423D01*
X227012Y582801D01*
X225620Y583254D01*
X224254Y583778D01*
X222917Y584373D01*
X221614Y585037D01*
X220346Y585769D01*
X219119Y586566D01*
X217935Y587426D01*
X216798Y588347D01*
X215711Y589326D01*
X214676Y590361D01*
X213697Y591448D01*
X212776Y592585D01*
X211916Y593769D01*
X211119Y594996D01*
X210387Y596264D01*
X209723Y597567D01*
X209128Y598904D01*
X208604Y600270D01*
X208151Y601662D01*
X207773Y603075D01*
X207468Y604507D01*
X207240Y605952D01*
X207087Y607407D01*
X207010Y608868D01*
X207010Y610332D01*
X207087Y611793D01*
X207240Y613248D01*
X207468Y614693D01*
X207773Y616125D01*
X208151Y617538D01*
X208604Y618930D01*
X209128Y620296D01*
X209723Y621633D01*
X210387Y622936D01*
X211119Y624204D01*
X211916Y625431D01*
X212776Y626615D01*
X213697Y627752D01*
X214676Y628839D01*
X215711Y629874D01*
X216798Y630853D01*
X217935Y631774D01*
X219119Y632634D01*
X220346Y633431D01*
X221614Y634163D01*
X222917Y634827D01*
X224254Y635422D01*
X225620Y635946D01*
X227012Y636399D01*
X228425Y636777D01*
X229857Y637082D01*
X231302Y637310D01*
X232757Y637463D01*
X234218Y637540D01*
X235682Y637540D01*
X237143Y637463D01*
X238598Y637310D01*
X240043Y637082D01*
X241475Y636777D01*
X242888Y636399D01*
X244280Y635946D01*
X245646Y635422D01*
X246983Y634827D01*
X248286Y634163D01*
X249554Y633431D01*
X250781Y632634D01*
X251965Y631774D01*
X253102Y630853D01*
X254189Y629874D01*
X255224Y628839D01*
X256203Y627752D01*
X257124Y626615D01*
X257984Y625431D01*
X258781Y624204D01*
X259513Y622936D01*
X260177Y621633D01*
X260772Y620296D01*
X261296Y618930D01*
X261749Y617538D01*
X262127Y616125D01*
X262432Y614693D01*
X262660Y613248D01*
X262813Y611793D01*
X262890Y610332D01*
X262890Y608868D01*
X1050290Y608868D02*
X1050213Y607407D01*
X1050060Y605952D01*
X1049832Y604507D01*
X1049527Y603075D01*
X1049149Y601662D01*
X1048696Y600270D01*
X1048172Y598904D01*
X1047577Y597567D01*
X1046913Y596264D01*
X1046181Y594996D01*
X1045384Y593769D01*
X1044524Y592585D01*
X1043603Y591448D01*
X1042624Y590361D01*
X1041589Y589326D01*
X1040502Y588347D01*
X1039365Y587426D01*
X1038181Y586566D01*
X1036954Y585769D01*
X1035686Y585037D01*
X1034383Y584373D01*
X1033046Y583778D01*
X1031680Y583254D01*
X1030288Y582801D01*
X1028875Y582423D01*
X1027443Y582118D01*
X1025998Y581890D01*
X1024543Y581737D01*
X1023082Y581660D01*
X1021618Y581660D01*
X1020157Y581737D01*
X1018702Y581890D01*
X1017257Y582118D01*
X1015825Y582423D01*
X1014412Y582801D01*
X1013020Y583254D01*
X1011654Y583778D01*
X1010317Y584373D01*
X1009014Y585037D01*
X1007746Y585769D01*
X1006519Y586566D01*
X1005335Y587426D01*
X1004198Y588347D01*
X1003111Y589326D01*
X1002076Y590361D01*
X1001097Y591448D01*
X1000176Y592585D01*
X999316Y593769D01*
X998519Y594996D01*
X997787Y596264D01*
X997123Y597567D01*
X996528Y598904D01*
X996004Y600270D01*
X995551Y601662D01*
X995173Y603075D01*
X994868Y604507D01*
X994640Y605952D01*
X994487Y607407D01*
X994410Y608868D01*
X994410Y610332D01*
X994487Y611793D01*
X994640Y613248D01*
X994868Y614693D01*
X995173Y616125D01*
X995551Y617538D01*
X996004Y618930D01*
X996528Y620296D01*
X997123Y621633D01*
X997787Y622936D01*
X998519Y624204D01*
X999316Y625431D01*
X1000176Y626615D01*
X1001097Y627752D01*
X1002076Y628839D01*
X1003111Y629874D01*
X1004198Y630853D01*
X1005335Y631774D01*
X1006519Y632634D01*
X1007746Y633431D01*
X1009014Y634163D01*
X1010317Y634827D01*
X1011654Y635422D01*
X1013020Y635946D01*
X1014412Y636399D01*
X1015825Y636777D01*
X1017257Y637082D01*
X1018702Y637310D01*
X1020157Y637463D01*
X1021618Y637540D01*
X1023082Y637540D01*
X1024543Y637463D01*
X1025998Y637310D01*
X1027443Y637082D01*
X1028875Y636777D01*
X1030288Y636399D01*
X1031680Y635946D01*
X1033046Y635422D01*
X1034383Y634827D01*
X1035686Y634163D01*
X1036954Y633431D01*
X1038181Y632634D01*
X1039365Y631774D01*
X1040502Y630853D01*
X1041589Y629874D01*
X1042624Y628839D01*
X1043603Y627752D01*
X1044524Y626615D01*
X1045384Y625431D01*
X1046181Y624204D01*
X1046913Y622936D01*
X1047577Y621633D01*
X1048172Y620296D01*
X1048696Y618930D01*
X1049149Y617538D01*
X1049527Y616125D01*
X1049832Y614693D01*
X1050060Y613248D01*
X1050213Y611793D01*
X1050290Y610332D01*
X1050290Y608868D01*
X391160Y168466D02*
X391083Y167583D01*
X390929Y166709D01*
X390699Y165852D01*
X390396Y165018D01*
X390021Y164214D01*
X389577Y163446D01*
X389068Y162719D01*
X388498Y162039D01*
X387871Y161412D01*
X387191Y160842D01*
X386464Y160333D01*
X385696Y159889D01*
X384892Y159514D01*
X384058Y159211D01*
X383201Y158981D01*
X382327Y158827D01*
X381444Y158750D01*
X380556Y158750D01*
X379673Y158827D01*
X378799Y158981D01*
X377942Y159211D01*
X377108Y159514D01*
X376304Y159889D01*
X375536Y160333D01*
X374809Y160842D01*
X374129Y161412D01*
X373502Y162039D01*
X372932Y162719D01*
X372423Y163446D01*
X371979Y164214D01*
X371604Y165018D01*
X371301Y165852D01*
X371071Y166709D01*
X370917Y167583D01*
X370840Y168466D01*
X370840Y169354D01*
X370917Y170237D01*
X371071Y171111D01*
X371301Y171968D01*
X371604Y172802D01*
X371979Y173606D01*
X372423Y174374D01*
X372932Y175101D01*
X373502Y175781D01*
X374129Y176408D01*
X374809Y176978D01*
X375536Y177487D01*
X376304Y177931D01*
X377108Y178306D01*
X377942Y178609D01*
X378799Y178839D01*
X379673Y178993D01*
X380556Y179070D01*
X381444Y179070D01*
X382327Y178993D01*
X383201Y178839D01*
X384058Y178609D01*
X384892Y178306D01*
X385696Y177931D01*
X386464Y177487D01*
X387191Y176978D01*
X387871Y176408D01*
X388498Y175781D01*
X389068Y175101D01*
X389577Y174374D01*
X390021Y173606D01*
X390396Y172802D01*
X390699Y171968D01*
X390929Y171111D01*
X391083Y170237D01*
X391160Y169354D01*
X391160Y168466D01*
X899160Y168466D02*
X899083Y167583D01*
X898929Y166709D01*
X898699Y165852D01*
X898396Y165018D01*
X898021Y164214D01*
X897577Y163446D01*
X897068Y162719D01*
X896498Y162039D01*
X895871Y161412D01*
X895191Y160842D01*
X894464Y160333D01*
X893696Y159889D01*
X892892Y159514D01*
X892058Y159211D01*
X891201Y158981D01*
X890327Y158827D01*
X889444Y158750D01*
X888556Y158750D01*
X887673Y158827D01*
X886799Y158981D01*
X885942Y159211D01*
X885108Y159514D01*
X884304Y159889D01*
X883536Y160333D01*
X882809Y160842D01*
X882129Y161412D01*
X881502Y162039D01*
X880932Y162719D01*
X880423Y163446D01*
X879979Y164214D01*
X879604Y165018D01*
X879301Y165852D01*
X879071Y166709D01*
X878917Y167583D01*
X878840Y168466D01*
X878840Y169354D01*
X878917Y170237D01*
X879071Y171111D01*
X879301Y171968D01*
X879604Y172802D01*
X879979Y173606D01*
X880423Y174374D01*
X880932Y175101D01*
X881502Y175781D01*
X882129Y176408D01*
X882809Y176978D01*
X883536Y177487D01*
X884304Y177931D01*
X885108Y178306D01*
X885942Y178609D01*
X886799Y178839D01*
X887673Y178993D01*
X888556Y179070D01*
X889444Y179070D01*
X890327Y178993D01*
X891201Y178839D01*
X892058Y178609D01*
X892892Y178306D01*
X893696Y177931D01*
X894464Y177487D01*
X895191Y176978D01*
X895871Y176408D01*
X896498Y175781D01*
X897068Y175101D01*
X897577Y174374D01*
X898021Y173606D01*
X898396Y172802D01*
X898699Y171968D01*
X898929Y171111D01*
X899083Y170237D01*
X899160Y169354D01*
X899160Y168466D01*
X487565Y62920D02*
X488150Y62843D01*
X488720Y62690D01*
X489265Y62465D01*
X489775Y62170D01*
X490243Y61811D01*
X490661Y61393D01*
X491020Y60925D01*
X491315Y60415D01*
X491540Y59870D01*
X491693Y59300D01*
X491770Y58715D01*
X491770Y58125D01*
X491693Y57540D01*
X491540Y56970D01*
X491315Y56425D01*
X491020Y55915D01*
X490661Y55447D01*
X490243Y55029D01*
X489775Y54670D01*
X489265Y54375D01*
X488720Y54150D01*
X488150Y53997D01*
X487565Y53920D01*
X486975Y53920D01*
X486390Y53997D01*
X485820Y54150D01*
X485275Y54375D01*
X484765Y54670D01*
X484297Y55029D01*
X483879Y55447D01*
X483520Y55915D01*
X483225Y56425D01*
X483000Y56970D01*
X482847Y57540D01*
X482770Y58125D01*
X482770Y58715D01*
X482847Y59300D01*
X483000Y59870D01*
X483225Y60415D01*
X483520Y60925D01*
X483879Y61393D01*
X484297Y61811D01*
X484765Y62170D01*
X485275Y62465D01*
X485820Y62690D01*
X486390Y62843D01*
X486975Y62920D01*
X487565Y62920D01*
X531565Y62920D02*
X532150Y62843D01*
X532720Y62690D01*
X533265Y62465D01*
X533775Y62170D01*
X534243Y61811D01*
X534661Y61393D01*
X535020Y60925D01*
X535315Y60415D01*
X535540Y59870D01*
X535693Y59300D01*
X535770Y58715D01*
X535770Y58125D01*
X535693Y57540D01*
X535540Y56970D01*
X535315Y56425D01*
X535020Y55915D01*
X534661Y55447D01*
X534243Y55029D01*
X533775Y54670D01*
X533265Y54375D01*
X532720Y54150D01*
X532150Y53997D01*
X531565Y53920D01*
X530975Y53920D01*
X530390Y53997D01*
X529820Y54150D01*
X529275Y54375D01*
X528765Y54670D01*
X528297Y55029D01*
X527879Y55447D01*
X527520Y55915D01*
X527225Y56425D01*
X527000Y56970D01*
X526847Y57540D01*
X526770Y58125D01*
X526770Y58715D01*
X526847Y59300D01*
X527000Y59870D01*
X527225Y60415D01*
X527520Y60925D01*
X527879Y61393D01*
X528297Y61811D01*
X528765Y62170D01*
X529275Y62465D01*
X529820Y62690D01*
X530390Y62843D01*
X530975Y62920D01*
X531565Y62920D01*
X740295Y62920D02*
X740880Y62843D01*
X741450Y62690D01*
X741995Y62465D01*
X742505Y62170D01*
X742973Y61811D01*
X743391Y61393D01*
X743750Y60925D01*
X744045Y60415D01*
X744270Y59870D01*
X744423Y59300D01*
X744500Y58715D01*
X744500Y58125D01*
X744423Y57540D01*
X744270Y56970D01*
X744045Y56425D01*
X743750Y55915D01*
X743391Y55447D01*
X742973Y55029D01*
X742505Y54670D01*
X741995Y54375D01*
X741450Y54150D01*
X740880Y53997D01*
X740295Y53920D01*
X739705Y53920D01*
X739120Y53997D01*
X738550Y54150D01*
X738005Y54375D01*
X737495Y54670D01*
X737027Y55029D01*
X736609Y55447D01*
X736250Y55915D01*
X735955Y56425D01*
X735730Y56970D01*
X735577Y57540D01*
X735500Y58125D01*
X735500Y58715D01*
X735577Y59300D01*
X735730Y59870D01*
X735955Y60415D01*
X736250Y60925D01*
X736609Y61393D01*
X737027Y61811D01*
X737495Y62170D01*
X738005Y62465D01*
X738550Y62690D01*
X739120Y62843D01*
X739705Y62920D01*
X740295Y62920D01*
X784295Y62920D02*
X784880Y62843D01*
X785450Y62690D01*
X785995Y62465D01*
X786505Y62170D01*
X786973Y61811D01*
X787391Y61393D01*
X787750Y60925D01*
X788045Y60415D01*
X788270Y59870D01*
X788423Y59300D01*
X788500Y58715D01*
X788500Y58125D01*
X788423Y57540D01*
X788270Y56970D01*
X788045Y56425D01*
X787750Y55915D01*
X787391Y55447D01*
X786973Y55029D01*
X786505Y54670D01*
X785995Y54375D01*
X785450Y54150D01*
X784880Y53997D01*
X784295Y53920D01*
X783705Y53920D01*
X783120Y53997D01*
X782550Y54150D01*
X782005Y54375D01*
X781495Y54670D01*
X781027Y55029D01*
X780609Y55447D01*
X780250Y55915D01*
X779955Y56425D01*
X779730Y56970D01*
X779577Y57540D01*
X779500Y58125D01*
X779500Y58715D01*
X779577Y59300D01*
X779730Y59870D01*
X779955Y60415D01*
X780250Y60925D01*
X780609Y61393D01*
X781027Y61811D01*
X781495Y62170D01*
X782005Y62465D01*
X782550Y62690D01*
X783120Y62843D01*
X783705Y62920D01*
X784295Y62920D01*
X409890Y67741D02*
X409953Y68299D01*
X410078Y68846D01*
X410263Y69376D01*
X410507Y69882D01*
X410806Y70358D01*
X411156Y70797D01*
X411553Y71194D01*
X411992Y71544D01*
X412468Y71843D01*
X412974Y72087D01*
X413504Y72272D01*
X414051Y72397D01*
X414609Y72460D01*
X415171Y72460D01*
X415729Y72397D01*
X416276Y72272D01*
X416806Y72087D01*
X417312Y71843D01*
X417788Y71544D01*
X418227Y71194D01*
X418624Y70797D01*
X418974Y70358D01*
X419273Y69882D01*
X419517Y69376D01*
X419702Y68846D01*
X419827Y68299D01*
X419890Y67741D01*
X419890Y67179D01*
X419827Y66621D01*
X419702Y66074D01*
X419517Y65544D01*
X419273Y65038D01*
X418974Y64562D01*
X418624Y64123D01*
X418227Y63726D01*
X417788Y63376D01*
X417312Y63077D01*
X416806Y62833D01*
X416276Y62648D01*
X415729Y62523D01*
X415171Y62460D01*
X414609Y62460D01*
X414051Y62523D01*
X413504Y62648D01*
X412974Y62833D01*
X412468Y63077D01*
X411992Y63376D01*
X411553Y63726D01*
X411156Y64123D01*
X410806Y64562D01*
X410507Y65038D01*
X410263Y65544D01*
X410078Y66074D01*
X409953Y66621D01*
X409890Y67179D01*
X409890Y67741D01*
X359890Y67741D02*
X359953Y68299D01*
X360078Y68846D01*
X360263Y69376D01*
X360507Y69882D01*
X360806Y70358D01*
X361156Y70797D01*
X361553Y71194D01*
X361992Y71544D01*
X362468Y71843D01*
X362974Y72087D01*
X363504Y72272D01*
X364051Y72397D01*
X364609Y72460D01*
X365171Y72460D01*
X365729Y72397D01*
X366276Y72272D01*
X366806Y72087D01*
X367312Y71843D01*
X367788Y71544D01*
X368227Y71194D01*
X368624Y70797D01*
X368974Y70358D01*
X369273Y69882D01*
X369517Y69376D01*
X369702Y68846D01*
X369827Y68299D01*
X369890Y67741D01*
X369890Y67179D01*
X369827Y66621D01*
X369702Y66074D01*
X369517Y65544D01*
X369273Y65038D01*
X368974Y64562D01*
X368624Y64123D01*
X368227Y63726D01*
X367788Y63376D01*
X367312Y63077D01*
X366806Y62833D01*
X366276Y62648D01*
X365729Y62523D01*
X365171Y62460D01*
X364609Y62460D01*
X364051Y62523D01*
X363504Y62648D01*
X362974Y62833D01*
X362468Y63077D01*
X361992Y63376D01*
X361553Y63726D01*
X361156Y64123D01*
X360806Y64562D01*
X360507Y65038D01*
X360263Y65544D01*
X360078Y66074D01*
X359953Y66621D01*
X359890Y67179D01*
X359890Y67741D01*
X902650Y67741D02*
X902713Y68299D01*
X902838Y68846D01*
X903023Y69376D01*
X903267Y69882D01*
X903566Y70358D01*
X903916Y70797D01*
X904313Y71194D01*
X904752Y71544D01*
X905228Y71843D01*
X905734Y72087D01*
X906264Y72272D01*
X906811Y72397D01*
X907369Y72460D01*
X907931Y72460D01*
X908489Y72397D01*
X909036Y72272D01*
X909566Y72087D01*
X910072Y71843D01*
X910548Y71544D01*
X910987Y71194D01*
X911384Y70797D01*
X911734Y70358D01*
X912033Y69882D01*
X912277Y69376D01*
X912462Y68846D01*
X912587Y68299D01*
X912650Y67741D01*
X912650Y67179D01*
X912587Y66621D01*
X912462Y66074D01*
X912277Y65544D01*
X912033Y65038D01*
X911734Y64562D01*
X911384Y64123D01*
X910987Y63726D01*
X910548Y63376D01*
X910072Y63077D01*
X909566Y62833D01*
X909036Y62648D01*
X908489Y62523D01*
X907931Y62460D01*
X907369Y62460D01*
X906811Y62523D01*
X906264Y62648D01*
X905734Y62833D01*
X905228Y63077D01*
X904752Y63376D01*
X904313Y63726D01*
X903916Y64123D01*
X903566Y64562D01*
X903267Y65038D01*
X903023Y65544D01*
X902838Y66074D01*
X902713Y66621D01*
X902650Y67179D01*
X902650Y67741D01*
X852650Y67741D02*
X852713Y68299D01*
X852838Y68846D01*
X853023Y69376D01*
X853267Y69882D01*
X853566Y70358D01*
X853916Y70797D01*
X854313Y71194D01*
X854752Y71544D01*
X855228Y71843D01*
X855734Y72087D01*
X856264Y72272D01*
X856811Y72397D01*
X857369Y72460D01*
X857931Y72460D01*
X858489Y72397D01*
X859036Y72272D01*
X859566Y72087D01*
X860072Y71843D01*
X860548Y71544D01*
X860987Y71194D01*
X861384Y70797D01*
X861734Y70358D01*
X862033Y69882D01*
X862277Y69376D01*
X862462Y68846D01*
X862587Y68299D01*
X862650Y67741D01*
X862650Y67179D01*
X862587Y66621D01*
X862462Y66074D01*
X862277Y65544D01*
X862033Y65038D01*
X861734Y64562D01*
X861384Y64123D01*
X860987Y63726D01*
X860548Y63376D01*
X860072Y63077D01*
X859566Y62833D01*
X859036Y62648D01*
X858489Y62523D01*
X857931Y62460D01*
X857369Y62460D01*
X856811Y62523D01*
X856264Y62648D01*
X855734Y62833D01*
X855228Y63077D01*
X854752Y63376D01*
X854313Y63726D01*
X853916Y64123D01*
X853566Y64562D01*
X853267Y65038D01*
X853023Y65544D01*
X852838Y66074D01*
X852713Y66621D01*
X852650Y67179D01*
X852650Y67741D01*
M02*
