G04 EAGLE Gerber X2 export*
%TF.Part,Single*%
%TF.FileFunction,Legend,Bot,1*%
%TF.FilePolarity,Positive*%
%TF.GenerationSoftware,Autodesk,EAGLE,8.7.1*%
%TF.CreationDate,2018-03-30T22:44:39Z*%
G75*
%MOMM*%
%FSLAX34Y34*%
%LPD*%
%AMOC8*
5,1,8,0,0,1.08239X$1,22.5*%
G01*
%ADD10C,0.101600*%
%ADD11C,0.152400*%
%ADD12C,0.050800*%
%ADD13C,0.127000*%
%ADD14C,0.203200*%

G36*
X349785Y634994D02*
X349785Y634994D01*
X349793Y634994D01*
X349844Y635009D01*
X350051Y635063D01*
X350084Y635083D01*
X350114Y635092D01*
X354114Y637092D01*
X354196Y637149D01*
X354283Y637198D01*
X354313Y637229D01*
X354348Y637253D01*
X354411Y637331D01*
X354481Y637402D01*
X354501Y637440D01*
X354528Y637473D01*
X354567Y637565D01*
X354614Y637653D01*
X354623Y637695D01*
X354640Y637735D01*
X354652Y637834D01*
X354673Y637931D01*
X354670Y637974D01*
X354675Y638017D01*
X354660Y638115D01*
X354652Y638215D01*
X354637Y638255D01*
X354631Y638298D01*
X354588Y638388D01*
X354554Y638481D01*
X354528Y638516D01*
X354510Y638555D01*
X354444Y638630D01*
X354385Y638710D01*
X354354Y638733D01*
X354323Y638769D01*
X354190Y638854D01*
X354183Y638861D01*
X354169Y638868D01*
X354114Y638908D01*
X350114Y640908D01*
X350106Y640911D01*
X350099Y640916D01*
X349971Y640956D01*
X349844Y640998D01*
X349836Y640999D01*
X349828Y641001D01*
X349693Y641005D01*
X349560Y641010D01*
X349552Y641008D01*
X349544Y641009D01*
X349414Y640975D01*
X349284Y640943D01*
X349277Y640939D01*
X349269Y640937D01*
X349154Y640869D01*
X349037Y640802D01*
X349032Y640796D01*
X349024Y640792D01*
X348932Y640694D01*
X348840Y640598D01*
X348836Y640590D01*
X348830Y640584D01*
X348769Y640465D01*
X348706Y640347D01*
X348704Y640339D01*
X348700Y640331D01*
X348692Y640279D01*
X348647Y640069D01*
X348650Y640031D01*
X348645Y640000D01*
X348645Y636000D01*
X348646Y635992D01*
X348645Y635983D01*
X348666Y635851D01*
X348685Y635719D01*
X348688Y635711D01*
X348689Y635702D01*
X348746Y635581D01*
X348801Y635459D01*
X348806Y635453D01*
X348810Y635445D01*
X348898Y635344D01*
X348985Y635242D01*
X348992Y635237D01*
X348997Y635231D01*
X349110Y635159D01*
X349221Y635085D01*
X349229Y635082D01*
X349236Y635077D01*
X349365Y635039D01*
X349492Y634999D01*
X349501Y634999D01*
X349509Y634996D01*
X349643Y634995D01*
X349776Y634991D01*
X349785Y634994D01*
G37*
D10*
X153162Y569468D02*
X153162Y581152D01*
X149916Y581152D01*
X149803Y581150D01*
X149690Y581144D01*
X149577Y581134D01*
X149464Y581120D01*
X149352Y581103D01*
X149241Y581081D01*
X149131Y581056D01*
X149021Y581026D01*
X148913Y580993D01*
X148806Y580956D01*
X148700Y580916D01*
X148596Y580871D01*
X148493Y580823D01*
X148392Y580772D01*
X148293Y580717D01*
X148196Y580659D01*
X148101Y580597D01*
X148008Y580532D01*
X147918Y580464D01*
X147830Y580393D01*
X147744Y580318D01*
X147661Y580241D01*
X147581Y580161D01*
X147504Y580078D01*
X147429Y579992D01*
X147358Y579904D01*
X147290Y579814D01*
X147225Y579721D01*
X147163Y579626D01*
X147105Y579529D01*
X147050Y579430D01*
X146999Y579329D01*
X146951Y579226D01*
X146906Y579122D01*
X146866Y579016D01*
X146829Y578909D01*
X146796Y578801D01*
X146766Y578691D01*
X146741Y578581D01*
X146719Y578470D01*
X146702Y578358D01*
X146688Y578245D01*
X146678Y578132D01*
X146672Y578019D01*
X146670Y577906D01*
X146672Y577793D01*
X146678Y577680D01*
X146688Y577567D01*
X146702Y577454D01*
X146719Y577342D01*
X146741Y577231D01*
X146766Y577121D01*
X146796Y577011D01*
X146829Y576903D01*
X146866Y576796D01*
X146906Y576690D01*
X146951Y576586D01*
X146999Y576483D01*
X147050Y576382D01*
X147105Y576283D01*
X147163Y576186D01*
X147225Y576091D01*
X147290Y575998D01*
X147358Y575908D01*
X147429Y575820D01*
X147504Y575734D01*
X147581Y575651D01*
X147661Y575571D01*
X147744Y575494D01*
X147830Y575419D01*
X147918Y575348D01*
X148008Y575280D01*
X148101Y575215D01*
X148196Y575153D01*
X148293Y575095D01*
X148392Y575040D01*
X148493Y574989D01*
X148596Y574941D01*
X148700Y574896D01*
X148806Y574856D01*
X148913Y574819D01*
X149021Y574786D01*
X149131Y574756D01*
X149241Y574731D01*
X149352Y574709D01*
X149464Y574692D01*
X149577Y574678D01*
X149690Y574668D01*
X149803Y574662D01*
X149916Y574660D01*
X149916Y574661D02*
X153162Y574661D01*
X149267Y574661D02*
X146671Y569468D01*
X141806Y578556D02*
X138560Y581152D01*
X138560Y569468D01*
X135315Y569468D02*
X141806Y569468D01*
X130376Y572714D02*
X130374Y572827D01*
X130368Y572940D01*
X130358Y573053D01*
X130344Y573166D01*
X130327Y573278D01*
X130305Y573389D01*
X130280Y573499D01*
X130250Y573609D01*
X130217Y573717D01*
X130180Y573824D01*
X130140Y573930D01*
X130095Y574034D01*
X130047Y574137D01*
X129996Y574238D01*
X129941Y574337D01*
X129883Y574434D01*
X129821Y574529D01*
X129756Y574622D01*
X129688Y574712D01*
X129617Y574800D01*
X129542Y574886D01*
X129465Y574969D01*
X129385Y575049D01*
X129302Y575126D01*
X129216Y575201D01*
X129128Y575272D01*
X129038Y575340D01*
X128945Y575405D01*
X128850Y575467D01*
X128753Y575525D01*
X128654Y575580D01*
X128553Y575631D01*
X128450Y575679D01*
X128346Y575724D01*
X128240Y575764D01*
X128133Y575801D01*
X128025Y575834D01*
X127915Y575864D01*
X127805Y575889D01*
X127694Y575911D01*
X127582Y575928D01*
X127469Y575942D01*
X127356Y575952D01*
X127243Y575958D01*
X127130Y575960D01*
X127017Y575958D01*
X126904Y575952D01*
X126791Y575942D01*
X126678Y575928D01*
X126566Y575911D01*
X126455Y575889D01*
X126345Y575864D01*
X126235Y575834D01*
X126127Y575801D01*
X126020Y575764D01*
X125914Y575724D01*
X125810Y575679D01*
X125707Y575631D01*
X125606Y575580D01*
X125507Y575525D01*
X125410Y575467D01*
X125315Y575405D01*
X125222Y575340D01*
X125132Y575272D01*
X125044Y575201D01*
X124958Y575126D01*
X124875Y575049D01*
X124795Y574969D01*
X124718Y574886D01*
X124643Y574800D01*
X124572Y574712D01*
X124504Y574622D01*
X124439Y574529D01*
X124377Y574434D01*
X124319Y574337D01*
X124264Y574238D01*
X124213Y574137D01*
X124165Y574034D01*
X124120Y573930D01*
X124080Y573824D01*
X124043Y573717D01*
X124010Y573609D01*
X123980Y573499D01*
X123955Y573389D01*
X123933Y573278D01*
X123916Y573166D01*
X123902Y573053D01*
X123892Y572940D01*
X123886Y572827D01*
X123884Y572714D01*
X123886Y572601D01*
X123892Y572488D01*
X123902Y572375D01*
X123916Y572262D01*
X123933Y572150D01*
X123955Y572039D01*
X123980Y571929D01*
X124010Y571819D01*
X124043Y571711D01*
X124080Y571604D01*
X124120Y571498D01*
X124165Y571394D01*
X124213Y571291D01*
X124264Y571190D01*
X124319Y571091D01*
X124377Y570994D01*
X124439Y570899D01*
X124504Y570806D01*
X124572Y570716D01*
X124643Y570628D01*
X124718Y570542D01*
X124795Y570459D01*
X124875Y570379D01*
X124958Y570302D01*
X125044Y570227D01*
X125132Y570156D01*
X125222Y570088D01*
X125315Y570023D01*
X125410Y569961D01*
X125507Y569903D01*
X125606Y569848D01*
X125707Y569797D01*
X125810Y569749D01*
X125914Y569704D01*
X126020Y569664D01*
X126127Y569627D01*
X126235Y569594D01*
X126345Y569564D01*
X126455Y569539D01*
X126566Y569517D01*
X126678Y569500D01*
X126791Y569486D01*
X126904Y569476D01*
X127017Y569470D01*
X127130Y569468D01*
X127243Y569470D01*
X127356Y569476D01*
X127469Y569486D01*
X127582Y569500D01*
X127694Y569517D01*
X127805Y569539D01*
X127915Y569564D01*
X128025Y569594D01*
X128133Y569627D01*
X128240Y569664D01*
X128346Y569704D01*
X128450Y569749D01*
X128553Y569797D01*
X128654Y569848D01*
X128753Y569903D01*
X128850Y569961D01*
X128945Y570023D01*
X129038Y570088D01*
X129128Y570156D01*
X129216Y570227D01*
X129302Y570302D01*
X129385Y570379D01*
X129465Y570459D01*
X129542Y570542D01*
X129617Y570628D01*
X129688Y570716D01*
X129756Y570806D01*
X129821Y570899D01*
X129883Y570994D01*
X129941Y571091D01*
X129996Y571190D01*
X130047Y571291D01*
X130095Y571394D01*
X130140Y571498D01*
X130180Y571604D01*
X130217Y571711D01*
X130250Y571819D01*
X130280Y571929D01*
X130305Y572039D01*
X130327Y572150D01*
X130344Y572262D01*
X130358Y572375D01*
X130368Y572488D01*
X130374Y572601D01*
X130376Y572714D01*
X129726Y578556D02*
X129724Y578657D01*
X129718Y578757D01*
X129708Y578857D01*
X129695Y578957D01*
X129677Y579056D01*
X129656Y579155D01*
X129631Y579252D01*
X129602Y579349D01*
X129569Y579444D01*
X129533Y579538D01*
X129493Y579630D01*
X129450Y579721D01*
X129403Y579810D01*
X129353Y579897D01*
X129299Y579983D01*
X129242Y580066D01*
X129182Y580146D01*
X129119Y580225D01*
X129052Y580301D01*
X128983Y580374D01*
X128911Y580444D01*
X128837Y580512D01*
X128760Y580577D01*
X128680Y580638D01*
X128598Y580697D01*
X128514Y580752D01*
X128428Y580804D01*
X128340Y580853D01*
X128250Y580898D01*
X128158Y580940D01*
X128065Y580978D01*
X127970Y581012D01*
X127875Y581043D01*
X127778Y581070D01*
X127680Y581093D01*
X127581Y581113D01*
X127481Y581128D01*
X127381Y581140D01*
X127281Y581148D01*
X127180Y581152D01*
X127080Y581152D01*
X126979Y581148D01*
X126879Y581140D01*
X126779Y581128D01*
X126679Y581113D01*
X126580Y581093D01*
X126482Y581070D01*
X126385Y581043D01*
X126290Y581012D01*
X126195Y580978D01*
X126102Y580940D01*
X126010Y580898D01*
X125920Y580853D01*
X125832Y580804D01*
X125746Y580752D01*
X125662Y580697D01*
X125580Y580638D01*
X125500Y580577D01*
X125423Y580512D01*
X125349Y580444D01*
X125277Y580374D01*
X125208Y580301D01*
X125141Y580225D01*
X125078Y580146D01*
X125018Y580066D01*
X124961Y579983D01*
X124907Y579897D01*
X124857Y579810D01*
X124810Y579721D01*
X124767Y579630D01*
X124727Y579538D01*
X124691Y579444D01*
X124658Y579349D01*
X124629Y579252D01*
X124604Y579155D01*
X124583Y579056D01*
X124565Y578957D01*
X124552Y578857D01*
X124542Y578757D01*
X124536Y578657D01*
X124534Y578556D01*
X124536Y578455D01*
X124542Y578355D01*
X124552Y578255D01*
X124565Y578155D01*
X124583Y578056D01*
X124604Y577957D01*
X124629Y577860D01*
X124658Y577763D01*
X124691Y577668D01*
X124727Y577574D01*
X124767Y577482D01*
X124810Y577391D01*
X124857Y577302D01*
X124907Y577215D01*
X124961Y577129D01*
X125018Y577046D01*
X125078Y576966D01*
X125141Y576887D01*
X125208Y576811D01*
X125277Y576738D01*
X125349Y576668D01*
X125423Y576600D01*
X125500Y576535D01*
X125580Y576474D01*
X125662Y576415D01*
X125746Y576360D01*
X125832Y576308D01*
X125920Y576259D01*
X126010Y576214D01*
X126102Y576172D01*
X126195Y576134D01*
X126290Y576100D01*
X126385Y576069D01*
X126482Y576042D01*
X126580Y576019D01*
X126679Y575999D01*
X126779Y575984D01*
X126879Y575972D01*
X126979Y575964D01*
X127080Y575960D01*
X127180Y575960D01*
X127281Y575964D01*
X127381Y575972D01*
X127481Y575984D01*
X127581Y575999D01*
X127680Y576019D01*
X127778Y576042D01*
X127875Y576069D01*
X127970Y576100D01*
X128065Y576134D01*
X128158Y576172D01*
X128250Y576214D01*
X128340Y576259D01*
X128428Y576308D01*
X128514Y576360D01*
X128598Y576415D01*
X128680Y576474D01*
X128760Y576535D01*
X128837Y576600D01*
X128911Y576668D01*
X128983Y576738D01*
X129052Y576811D01*
X129119Y576887D01*
X129182Y576966D01*
X129242Y577046D01*
X129299Y577129D01*
X129353Y577215D01*
X129403Y577302D01*
X129450Y577391D01*
X129493Y577482D01*
X129533Y577574D01*
X129569Y577668D01*
X129602Y577763D01*
X129631Y577860D01*
X129656Y577957D01*
X129677Y578056D01*
X129695Y578155D01*
X129708Y578255D01*
X129718Y578355D01*
X129724Y578455D01*
X129726Y578556D01*
X278892Y545592D02*
X278892Y533908D01*
X278892Y545592D02*
X275646Y545592D01*
X275533Y545590D01*
X275420Y545584D01*
X275307Y545574D01*
X275194Y545560D01*
X275082Y545543D01*
X274971Y545521D01*
X274861Y545496D01*
X274751Y545466D01*
X274643Y545433D01*
X274536Y545396D01*
X274430Y545356D01*
X274326Y545311D01*
X274223Y545263D01*
X274122Y545212D01*
X274023Y545157D01*
X273926Y545099D01*
X273831Y545037D01*
X273738Y544972D01*
X273648Y544904D01*
X273560Y544833D01*
X273474Y544758D01*
X273391Y544681D01*
X273311Y544601D01*
X273234Y544518D01*
X273159Y544432D01*
X273088Y544344D01*
X273020Y544254D01*
X272955Y544161D01*
X272893Y544066D01*
X272835Y543969D01*
X272780Y543870D01*
X272729Y543769D01*
X272681Y543666D01*
X272636Y543562D01*
X272596Y543456D01*
X272559Y543349D01*
X272526Y543241D01*
X272496Y543131D01*
X272471Y543021D01*
X272449Y542910D01*
X272432Y542798D01*
X272418Y542685D01*
X272408Y542572D01*
X272402Y542459D01*
X272400Y542346D01*
X272402Y542233D01*
X272408Y542120D01*
X272418Y542007D01*
X272432Y541894D01*
X272449Y541782D01*
X272471Y541671D01*
X272496Y541561D01*
X272526Y541451D01*
X272559Y541343D01*
X272596Y541236D01*
X272636Y541130D01*
X272681Y541026D01*
X272729Y540923D01*
X272780Y540822D01*
X272835Y540723D01*
X272893Y540626D01*
X272955Y540531D01*
X273020Y540438D01*
X273088Y540348D01*
X273159Y540260D01*
X273234Y540174D01*
X273311Y540091D01*
X273391Y540011D01*
X273474Y539934D01*
X273560Y539859D01*
X273648Y539788D01*
X273738Y539720D01*
X273831Y539655D01*
X273926Y539593D01*
X274023Y539535D01*
X274122Y539480D01*
X274223Y539429D01*
X274326Y539381D01*
X274430Y539336D01*
X274536Y539296D01*
X274643Y539259D01*
X274751Y539226D01*
X274861Y539196D01*
X274971Y539171D01*
X275082Y539149D01*
X275194Y539132D01*
X275307Y539118D01*
X275420Y539108D01*
X275533Y539102D01*
X275646Y539100D01*
X275646Y539101D02*
X278892Y539101D01*
X274997Y539101D02*
X272401Y533908D01*
X267536Y533908D02*
X264290Y533908D01*
X264177Y533910D01*
X264064Y533916D01*
X263951Y533926D01*
X263838Y533940D01*
X263726Y533957D01*
X263615Y533979D01*
X263505Y534004D01*
X263395Y534034D01*
X263287Y534067D01*
X263180Y534104D01*
X263074Y534144D01*
X262970Y534189D01*
X262867Y534237D01*
X262766Y534288D01*
X262667Y534343D01*
X262570Y534401D01*
X262475Y534463D01*
X262382Y534528D01*
X262292Y534596D01*
X262204Y534667D01*
X262118Y534742D01*
X262035Y534819D01*
X261955Y534899D01*
X261878Y534982D01*
X261803Y535068D01*
X261732Y535156D01*
X261664Y535246D01*
X261599Y535339D01*
X261537Y535434D01*
X261479Y535531D01*
X261424Y535630D01*
X261373Y535731D01*
X261325Y535834D01*
X261280Y535938D01*
X261240Y536044D01*
X261203Y536151D01*
X261170Y536259D01*
X261140Y536369D01*
X261115Y536479D01*
X261093Y536590D01*
X261076Y536702D01*
X261062Y536815D01*
X261052Y536928D01*
X261046Y537041D01*
X261044Y537154D01*
X261046Y537267D01*
X261052Y537380D01*
X261062Y537493D01*
X261076Y537606D01*
X261093Y537718D01*
X261115Y537829D01*
X261140Y537939D01*
X261170Y538049D01*
X261203Y538157D01*
X261240Y538264D01*
X261280Y538370D01*
X261325Y538474D01*
X261373Y538577D01*
X261424Y538678D01*
X261479Y538777D01*
X261537Y538874D01*
X261599Y538969D01*
X261664Y539062D01*
X261732Y539152D01*
X261803Y539240D01*
X261878Y539326D01*
X261955Y539409D01*
X262035Y539489D01*
X262118Y539566D01*
X262204Y539641D01*
X262292Y539712D01*
X262382Y539780D01*
X262475Y539845D01*
X262570Y539907D01*
X262667Y539965D01*
X262766Y540020D01*
X262867Y540071D01*
X262970Y540119D01*
X263074Y540164D01*
X263180Y540204D01*
X263287Y540241D01*
X263395Y540274D01*
X263505Y540304D01*
X263615Y540329D01*
X263726Y540351D01*
X263838Y540368D01*
X263951Y540382D01*
X264064Y540392D01*
X264177Y540398D01*
X264290Y540400D01*
X263641Y545592D02*
X267536Y545592D01*
X263641Y545592D02*
X263540Y545590D01*
X263440Y545584D01*
X263340Y545574D01*
X263240Y545561D01*
X263141Y545543D01*
X263042Y545522D01*
X262945Y545497D01*
X262848Y545468D01*
X262753Y545435D01*
X262659Y545399D01*
X262567Y545359D01*
X262476Y545316D01*
X262387Y545269D01*
X262300Y545219D01*
X262214Y545165D01*
X262131Y545108D01*
X262051Y545048D01*
X261972Y544985D01*
X261896Y544918D01*
X261823Y544849D01*
X261753Y544777D01*
X261685Y544703D01*
X261620Y544626D01*
X261559Y544546D01*
X261500Y544464D01*
X261445Y544380D01*
X261393Y544294D01*
X261344Y544206D01*
X261299Y544116D01*
X261257Y544024D01*
X261219Y543931D01*
X261185Y543836D01*
X261154Y543741D01*
X261127Y543644D01*
X261104Y543546D01*
X261084Y543447D01*
X261069Y543347D01*
X261057Y543247D01*
X261049Y543147D01*
X261045Y543046D01*
X261045Y542946D01*
X261049Y542845D01*
X261057Y542745D01*
X261069Y542645D01*
X261084Y542545D01*
X261104Y542446D01*
X261127Y542348D01*
X261154Y542251D01*
X261185Y542156D01*
X261219Y542061D01*
X261257Y541968D01*
X261299Y541876D01*
X261344Y541786D01*
X261393Y541698D01*
X261445Y541612D01*
X261500Y541528D01*
X261559Y541446D01*
X261620Y541366D01*
X261685Y541289D01*
X261753Y541215D01*
X261823Y541143D01*
X261896Y541074D01*
X261972Y541007D01*
X262051Y540944D01*
X262131Y540884D01*
X262214Y540827D01*
X262300Y540773D01*
X262387Y540723D01*
X262476Y540676D01*
X262567Y540633D01*
X262659Y540593D01*
X262753Y540557D01*
X262848Y540524D01*
X262945Y540495D01*
X263042Y540470D01*
X263141Y540449D01*
X263240Y540431D01*
X263340Y540418D01*
X263440Y540408D01*
X263540Y540402D01*
X263641Y540400D01*
X263641Y540399D02*
X266237Y540399D01*
X256106Y544294D02*
X256106Y545592D01*
X249615Y545592D01*
X252860Y533908D01*
X278705Y452882D02*
X278705Y441198D01*
X278705Y452882D02*
X275460Y452882D01*
X275347Y452880D01*
X275234Y452874D01*
X275121Y452864D01*
X275008Y452850D01*
X274896Y452833D01*
X274785Y452811D01*
X274675Y452786D01*
X274565Y452756D01*
X274457Y452723D01*
X274350Y452686D01*
X274244Y452646D01*
X274140Y452601D01*
X274037Y452553D01*
X273936Y452502D01*
X273837Y452447D01*
X273740Y452389D01*
X273645Y452327D01*
X273552Y452262D01*
X273462Y452194D01*
X273374Y452123D01*
X273288Y452048D01*
X273205Y451971D01*
X273125Y451891D01*
X273048Y451808D01*
X272973Y451722D01*
X272902Y451634D01*
X272834Y451544D01*
X272769Y451451D01*
X272707Y451356D01*
X272649Y451259D01*
X272594Y451160D01*
X272543Y451059D01*
X272495Y450956D01*
X272450Y450852D01*
X272410Y450746D01*
X272373Y450639D01*
X272340Y450531D01*
X272310Y450421D01*
X272285Y450311D01*
X272263Y450200D01*
X272246Y450088D01*
X272232Y449975D01*
X272222Y449862D01*
X272216Y449749D01*
X272214Y449636D01*
X272216Y449523D01*
X272222Y449410D01*
X272232Y449297D01*
X272246Y449184D01*
X272263Y449072D01*
X272285Y448961D01*
X272310Y448851D01*
X272340Y448741D01*
X272373Y448633D01*
X272410Y448526D01*
X272450Y448420D01*
X272495Y448316D01*
X272543Y448213D01*
X272594Y448112D01*
X272649Y448013D01*
X272707Y447916D01*
X272769Y447821D01*
X272834Y447728D01*
X272902Y447638D01*
X272973Y447550D01*
X273048Y447464D01*
X273125Y447381D01*
X273205Y447301D01*
X273288Y447224D01*
X273374Y447149D01*
X273462Y447078D01*
X273552Y447010D01*
X273645Y446945D01*
X273740Y446883D01*
X273837Y446825D01*
X273936Y446770D01*
X274037Y446719D01*
X274140Y446671D01*
X274244Y446626D01*
X274350Y446586D01*
X274457Y446549D01*
X274565Y446516D01*
X274675Y446486D01*
X274785Y446461D01*
X274896Y446439D01*
X275008Y446422D01*
X275121Y446408D01*
X275234Y446398D01*
X275347Y446392D01*
X275460Y446390D01*
X275460Y446391D02*
X278705Y446391D01*
X274811Y446391D02*
X272214Y441198D01*
X267349Y441198D02*
X264104Y441198D01*
X263991Y441200D01*
X263878Y441206D01*
X263765Y441216D01*
X263652Y441230D01*
X263540Y441247D01*
X263429Y441269D01*
X263319Y441294D01*
X263209Y441324D01*
X263101Y441357D01*
X262994Y441394D01*
X262888Y441434D01*
X262784Y441479D01*
X262681Y441527D01*
X262580Y441578D01*
X262481Y441633D01*
X262384Y441691D01*
X262289Y441753D01*
X262196Y441818D01*
X262106Y441886D01*
X262018Y441957D01*
X261932Y442032D01*
X261849Y442109D01*
X261769Y442189D01*
X261692Y442272D01*
X261617Y442358D01*
X261546Y442446D01*
X261478Y442536D01*
X261413Y442629D01*
X261351Y442724D01*
X261293Y442821D01*
X261238Y442920D01*
X261187Y443021D01*
X261139Y443124D01*
X261094Y443228D01*
X261054Y443334D01*
X261017Y443441D01*
X260984Y443549D01*
X260954Y443659D01*
X260929Y443769D01*
X260907Y443880D01*
X260890Y443992D01*
X260876Y444105D01*
X260866Y444218D01*
X260860Y444331D01*
X260858Y444444D01*
X260860Y444557D01*
X260866Y444670D01*
X260876Y444783D01*
X260890Y444896D01*
X260907Y445008D01*
X260929Y445119D01*
X260954Y445229D01*
X260984Y445339D01*
X261017Y445447D01*
X261054Y445554D01*
X261094Y445660D01*
X261139Y445764D01*
X261187Y445867D01*
X261238Y445968D01*
X261293Y446067D01*
X261351Y446164D01*
X261413Y446259D01*
X261478Y446352D01*
X261546Y446442D01*
X261617Y446530D01*
X261692Y446616D01*
X261769Y446699D01*
X261849Y446779D01*
X261932Y446856D01*
X262018Y446931D01*
X262106Y447002D01*
X262196Y447070D01*
X262289Y447135D01*
X262384Y447197D01*
X262481Y447255D01*
X262580Y447310D01*
X262681Y447361D01*
X262784Y447409D01*
X262888Y447454D01*
X262994Y447494D01*
X263101Y447531D01*
X263209Y447564D01*
X263319Y447594D01*
X263429Y447619D01*
X263540Y447641D01*
X263652Y447658D01*
X263765Y447672D01*
X263878Y447682D01*
X263991Y447688D01*
X264104Y447690D01*
X263454Y452882D02*
X267349Y452882D01*
X263454Y452882D02*
X263353Y452880D01*
X263253Y452874D01*
X263153Y452864D01*
X263053Y452851D01*
X262954Y452833D01*
X262855Y452812D01*
X262758Y452787D01*
X262661Y452758D01*
X262566Y452725D01*
X262472Y452689D01*
X262380Y452649D01*
X262289Y452606D01*
X262200Y452559D01*
X262113Y452509D01*
X262027Y452455D01*
X261944Y452398D01*
X261864Y452338D01*
X261785Y452275D01*
X261709Y452208D01*
X261636Y452139D01*
X261566Y452067D01*
X261498Y451993D01*
X261433Y451916D01*
X261372Y451836D01*
X261313Y451754D01*
X261258Y451670D01*
X261206Y451584D01*
X261157Y451496D01*
X261112Y451406D01*
X261070Y451314D01*
X261032Y451221D01*
X260998Y451126D01*
X260967Y451031D01*
X260940Y450934D01*
X260917Y450836D01*
X260897Y450737D01*
X260882Y450637D01*
X260870Y450537D01*
X260862Y450437D01*
X260858Y450336D01*
X260858Y450236D01*
X260862Y450135D01*
X260870Y450035D01*
X260882Y449935D01*
X260897Y449835D01*
X260917Y449736D01*
X260940Y449638D01*
X260967Y449541D01*
X260998Y449446D01*
X261032Y449351D01*
X261070Y449258D01*
X261112Y449166D01*
X261157Y449076D01*
X261206Y448988D01*
X261258Y448902D01*
X261313Y448818D01*
X261372Y448736D01*
X261433Y448656D01*
X261498Y448579D01*
X261566Y448505D01*
X261636Y448433D01*
X261709Y448364D01*
X261785Y448297D01*
X261864Y448234D01*
X261944Y448174D01*
X262027Y448117D01*
X262113Y448063D01*
X262200Y448013D01*
X262289Y447966D01*
X262380Y447923D01*
X262472Y447883D01*
X262566Y447847D01*
X262661Y447814D01*
X262758Y447785D01*
X262855Y447760D01*
X262954Y447739D01*
X263053Y447721D01*
X263153Y447708D01*
X263253Y447698D01*
X263353Y447692D01*
X263454Y447690D01*
X263454Y447689D02*
X266051Y447689D01*
X253323Y446391D02*
X249428Y446391D01*
X253323Y446391D02*
X253422Y446393D01*
X253522Y446399D01*
X253621Y446408D01*
X253719Y446421D01*
X253817Y446438D01*
X253915Y446459D01*
X254011Y446484D01*
X254106Y446512D01*
X254200Y446544D01*
X254293Y446579D01*
X254385Y446618D01*
X254475Y446661D01*
X254563Y446706D01*
X254650Y446756D01*
X254734Y446808D01*
X254817Y446864D01*
X254897Y446922D01*
X254975Y446984D01*
X255050Y447049D01*
X255123Y447117D01*
X255193Y447187D01*
X255261Y447260D01*
X255326Y447335D01*
X255388Y447413D01*
X255446Y447493D01*
X255502Y447576D01*
X255554Y447660D01*
X255604Y447747D01*
X255649Y447835D01*
X255692Y447925D01*
X255731Y448017D01*
X255766Y448110D01*
X255798Y448204D01*
X255826Y448299D01*
X255851Y448395D01*
X255872Y448493D01*
X255889Y448591D01*
X255902Y448689D01*
X255911Y448788D01*
X255917Y448888D01*
X255919Y448987D01*
X255919Y449636D01*
X255920Y449636D02*
X255918Y449749D01*
X255912Y449862D01*
X255902Y449975D01*
X255888Y450088D01*
X255871Y450200D01*
X255849Y450311D01*
X255824Y450421D01*
X255794Y450531D01*
X255761Y450639D01*
X255724Y450746D01*
X255684Y450852D01*
X255639Y450956D01*
X255591Y451059D01*
X255540Y451160D01*
X255485Y451259D01*
X255427Y451356D01*
X255365Y451451D01*
X255300Y451544D01*
X255232Y451634D01*
X255161Y451722D01*
X255086Y451808D01*
X255009Y451891D01*
X254929Y451971D01*
X254846Y452048D01*
X254760Y452123D01*
X254672Y452194D01*
X254582Y452262D01*
X254489Y452327D01*
X254394Y452389D01*
X254297Y452447D01*
X254198Y452502D01*
X254097Y452553D01*
X253994Y452601D01*
X253890Y452646D01*
X253784Y452686D01*
X253677Y452723D01*
X253569Y452756D01*
X253459Y452786D01*
X253349Y452811D01*
X253238Y452833D01*
X253126Y452850D01*
X253013Y452864D01*
X252900Y452874D01*
X252787Y452880D01*
X252674Y452882D01*
X252561Y452880D01*
X252448Y452874D01*
X252335Y452864D01*
X252222Y452850D01*
X252110Y452833D01*
X251999Y452811D01*
X251889Y452786D01*
X251779Y452756D01*
X251671Y452723D01*
X251564Y452686D01*
X251458Y452646D01*
X251354Y452601D01*
X251251Y452553D01*
X251150Y452502D01*
X251051Y452447D01*
X250954Y452389D01*
X250859Y452327D01*
X250766Y452262D01*
X250676Y452194D01*
X250588Y452123D01*
X250502Y452048D01*
X250419Y451971D01*
X250339Y451891D01*
X250262Y451808D01*
X250187Y451722D01*
X250116Y451634D01*
X250048Y451544D01*
X249983Y451451D01*
X249921Y451356D01*
X249863Y451259D01*
X249808Y451160D01*
X249757Y451059D01*
X249709Y450956D01*
X249664Y450852D01*
X249624Y450746D01*
X249587Y450639D01*
X249554Y450531D01*
X249524Y450421D01*
X249499Y450311D01*
X249477Y450200D01*
X249460Y450088D01*
X249446Y449975D01*
X249436Y449862D01*
X249430Y449749D01*
X249428Y449636D01*
X249428Y446391D01*
X249430Y446248D01*
X249436Y446105D01*
X249446Y445962D01*
X249460Y445820D01*
X249477Y445678D01*
X249499Y445536D01*
X249524Y445395D01*
X249554Y445255D01*
X249587Y445116D01*
X249624Y444978D01*
X249665Y444841D01*
X249709Y444705D01*
X249758Y444570D01*
X249810Y444437D01*
X249865Y444305D01*
X249925Y444175D01*
X249988Y444046D01*
X250054Y443919D01*
X250124Y443795D01*
X250197Y443672D01*
X250274Y443551D01*
X250354Y443432D01*
X250437Y443316D01*
X250523Y443201D01*
X250612Y443090D01*
X250705Y442980D01*
X250800Y442874D01*
X250899Y442770D01*
X251000Y442669D01*
X251104Y442570D01*
X251210Y442475D01*
X251320Y442382D01*
X251431Y442293D01*
X251546Y442207D01*
X251662Y442124D01*
X251781Y442044D01*
X251902Y441967D01*
X252024Y441894D01*
X252149Y441824D01*
X252276Y441758D01*
X252405Y441695D01*
X252535Y441635D01*
X252667Y441580D01*
X252800Y441528D01*
X252935Y441479D01*
X253071Y441435D01*
X253208Y441394D01*
X253346Y441357D01*
X253485Y441324D01*
X253625Y441294D01*
X253766Y441269D01*
X253908Y441247D01*
X254050Y441230D01*
X254192Y441216D01*
X254335Y441206D01*
X254478Y441200D01*
X254621Y441198D01*
X278705Y427482D02*
X278705Y415798D01*
X278705Y427482D02*
X275460Y427482D01*
X275347Y427480D01*
X275234Y427474D01*
X275121Y427464D01*
X275008Y427450D01*
X274896Y427433D01*
X274785Y427411D01*
X274675Y427386D01*
X274565Y427356D01*
X274457Y427323D01*
X274350Y427286D01*
X274244Y427246D01*
X274140Y427201D01*
X274037Y427153D01*
X273936Y427102D01*
X273837Y427047D01*
X273740Y426989D01*
X273645Y426927D01*
X273552Y426862D01*
X273462Y426794D01*
X273374Y426723D01*
X273288Y426648D01*
X273205Y426571D01*
X273125Y426491D01*
X273048Y426408D01*
X272973Y426322D01*
X272902Y426234D01*
X272834Y426144D01*
X272769Y426051D01*
X272707Y425956D01*
X272649Y425859D01*
X272594Y425760D01*
X272543Y425659D01*
X272495Y425556D01*
X272450Y425452D01*
X272410Y425346D01*
X272373Y425239D01*
X272340Y425131D01*
X272310Y425021D01*
X272285Y424911D01*
X272263Y424800D01*
X272246Y424688D01*
X272232Y424575D01*
X272222Y424462D01*
X272216Y424349D01*
X272214Y424236D01*
X272216Y424123D01*
X272222Y424010D01*
X272232Y423897D01*
X272246Y423784D01*
X272263Y423672D01*
X272285Y423561D01*
X272310Y423451D01*
X272340Y423341D01*
X272373Y423233D01*
X272410Y423126D01*
X272450Y423020D01*
X272495Y422916D01*
X272543Y422813D01*
X272594Y422712D01*
X272649Y422613D01*
X272707Y422516D01*
X272769Y422421D01*
X272834Y422328D01*
X272902Y422238D01*
X272973Y422150D01*
X273048Y422064D01*
X273125Y421981D01*
X273205Y421901D01*
X273288Y421824D01*
X273374Y421749D01*
X273462Y421678D01*
X273552Y421610D01*
X273645Y421545D01*
X273740Y421483D01*
X273837Y421425D01*
X273936Y421370D01*
X274037Y421319D01*
X274140Y421271D01*
X274244Y421226D01*
X274350Y421186D01*
X274457Y421149D01*
X274565Y421116D01*
X274675Y421086D01*
X274785Y421061D01*
X274896Y421039D01*
X275008Y421022D01*
X275121Y421008D01*
X275234Y420998D01*
X275347Y420992D01*
X275460Y420990D01*
X275460Y420991D02*
X278705Y420991D01*
X274811Y420991D02*
X272214Y415798D01*
X267349Y418394D02*
X264753Y427482D01*
X267349Y418394D02*
X260858Y418394D01*
X262805Y420991D02*
X262805Y415798D01*
X255920Y421640D02*
X255917Y421870D01*
X255909Y422100D01*
X255895Y422329D01*
X255876Y422558D01*
X255851Y422787D01*
X255821Y423015D01*
X255786Y423242D01*
X255745Y423468D01*
X255699Y423693D01*
X255647Y423917D01*
X255590Y424140D01*
X255528Y424361D01*
X255460Y424581D01*
X255387Y424799D01*
X255309Y425015D01*
X255226Y425229D01*
X255138Y425442D01*
X255045Y425652D01*
X254946Y425859D01*
X254913Y425949D01*
X254877Y426038D01*
X254837Y426126D01*
X254793Y426211D01*
X254746Y426295D01*
X254696Y426377D01*
X254642Y426457D01*
X254586Y426534D01*
X254526Y426610D01*
X254463Y426683D01*
X254398Y426753D01*
X254329Y426821D01*
X254258Y426885D01*
X254185Y426947D01*
X254109Y427006D01*
X254031Y427062D01*
X253950Y427115D01*
X253868Y427164D01*
X253784Y427210D01*
X253697Y427253D01*
X253610Y427292D01*
X253520Y427328D01*
X253430Y427360D01*
X253338Y427388D01*
X253245Y427413D01*
X253151Y427434D01*
X253057Y427451D01*
X252962Y427465D01*
X252866Y427474D01*
X252770Y427480D01*
X252674Y427482D01*
X252578Y427480D01*
X252482Y427474D01*
X252386Y427465D01*
X252291Y427451D01*
X252197Y427434D01*
X252103Y427413D01*
X252010Y427388D01*
X251918Y427360D01*
X251828Y427328D01*
X251738Y427292D01*
X251651Y427253D01*
X251564Y427210D01*
X251480Y427164D01*
X251398Y427115D01*
X251317Y427062D01*
X251239Y427006D01*
X251163Y426947D01*
X251090Y426885D01*
X251019Y426821D01*
X250950Y426753D01*
X250885Y426683D01*
X250822Y426610D01*
X250762Y426535D01*
X250706Y426457D01*
X250652Y426377D01*
X250602Y426295D01*
X250555Y426211D01*
X250512Y426126D01*
X250471Y426038D01*
X250435Y425949D01*
X250402Y425859D01*
X250303Y425651D01*
X250210Y425441D01*
X250122Y425229D01*
X250039Y425015D01*
X249961Y424798D01*
X249888Y424580D01*
X249820Y424361D01*
X249758Y424139D01*
X249701Y423917D01*
X249649Y423693D01*
X249603Y423468D01*
X249562Y423242D01*
X249527Y423014D01*
X249497Y422787D01*
X249472Y422558D01*
X249453Y422329D01*
X249439Y422100D01*
X249431Y421870D01*
X249428Y421640D01*
X255919Y421640D02*
X255916Y421410D01*
X255908Y421180D01*
X255894Y420951D01*
X255875Y420722D01*
X255850Y420493D01*
X255820Y420265D01*
X255785Y420038D01*
X255744Y419812D01*
X255698Y419587D01*
X255646Y419363D01*
X255589Y419140D01*
X255527Y418919D01*
X255459Y418699D01*
X255386Y418481D01*
X255308Y418265D01*
X255225Y418051D01*
X255137Y417839D01*
X255044Y417628D01*
X254945Y417421D01*
X254946Y417421D02*
X254913Y417331D01*
X254877Y417242D01*
X254836Y417154D01*
X254793Y417069D01*
X254746Y416985D01*
X254696Y416903D01*
X254642Y416823D01*
X254586Y416746D01*
X254526Y416670D01*
X254463Y416597D01*
X254398Y416527D01*
X254329Y416459D01*
X254258Y416395D01*
X254185Y416333D01*
X254109Y416274D01*
X254031Y416218D01*
X253950Y416165D01*
X253868Y416116D01*
X253784Y416070D01*
X253697Y416027D01*
X253610Y415988D01*
X253520Y415952D01*
X253430Y415920D01*
X253338Y415892D01*
X253245Y415867D01*
X253151Y415846D01*
X253057Y415829D01*
X252962Y415815D01*
X252866Y415806D01*
X252770Y415800D01*
X252674Y415798D01*
X250402Y417421D02*
X250303Y417628D01*
X250210Y417839D01*
X250122Y418051D01*
X250039Y418265D01*
X249961Y418481D01*
X249888Y418699D01*
X249820Y418919D01*
X249758Y419140D01*
X249701Y419363D01*
X249649Y419587D01*
X249603Y419812D01*
X249562Y420038D01*
X249527Y420265D01*
X249497Y420493D01*
X249472Y420722D01*
X249453Y420951D01*
X249439Y421180D01*
X249431Y421410D01*
X249428Y421640D01*
X250402Y417421D02*
X250435Y417331D01*
X250471Y417242D01*
X250512Y417154D01*
X250555Y417069D01*
X250602Y416985D01*
X250652Y416903D01*
X250706Y416823D01*
X250762Y416745D01*
X250822Y416670D01*
X250885Y416597D01*
X250950Y416527D01*
X251019Y416459D01*
X251090Y416395D01*
X251163Y416333D01*
X251239Y416274D01*
X251317Y416218D01*
X251398Y416165D01*
X251480Y416116D01*
X251564Y416070D01*
X251651Y416027D01*
X251738Y415988D01*
X251828Y415952D01*
X251918Y415920D01*
X252010Y415892D01*
X252103Y415867D01*
X252197Y415846D01*
X252291Y415829D01*
X252386Y415815D01*
X252482Y415806D01*
X252578Y415800D01*
X252674Y415798D01*
X255270Y418394D02*
X250077Y424886D01*
D11*
X674370Y196850D02*
X674375Y197286D01*
X674391Y197722D01*
X674418Y198158D01*
X674456Y198593D01*
X674504Y199026D01*
X674562Y199459D01*
X674632Y199890D01*
X674712Y200319D01*
X674802Y200746D01*
X674903Y201170D01*
X675014Y201592D01*
X675136Y202011D01*
X675267Y202427D01*
X675409Y202840D01*
X675561Y203249D01*
X675723Y203654D01*
X675895Y204055D01*
X676077Y204452D01*
X676268Y204844D01*
X676469Y205231D01*
X676680Y205614D01*
X676900Y205991D01*
X677129Y206362D01*
X677366Y206728D01*
X677613Y207088D01*
X677869Y207442D01*
X678133Y207789D01*
X678406Y208130D01*
X678687Y208463D01*
X678976Y208790D01*
X679273Y209110D01*
X679578Y209422D01*
X679890Y209727D01*
X680210Y210024D01*
X680537Y210313D01*
X680870Y210594D01*
X681211Y210867D01*
X681558Y211131D01*
X681912Y211387D01*
X682272Y211634D01*
X682638Y211871D01*
X683009Y212100D01*
X683386Y212320D01*
X683769Y212531D01*
X684156Y212732D01*
X684548Y212923D01*
X684945Y213105D01*
X685346Y213277D01*
X685751Y213439D01*
X686160Y213591D01*
X686573Y213733D01*
X686989Y213864D01*
X687408Y213986D01*
X687830Y214097D01*
X688254Y214198D01*
X688681Y214288D01*
X689110Y214368D01*
X689541Y214438D01*
X689974Y214496D01*
X690407Y214544D01*
X690842Y214582D01*
X691278Y214609D01*
X691714Y214625D01*
X692150Y214630D01*
X692586Y214625D01*
X693022Y214609D01*
X693458Y214582D01*
X693893Y214544D01*
X694326Y214496D01*
X694759Y214438D01*
X695190Y214368D01*
X695619Y214288D01*
X696046Y214198D01*
X696470Y214097D01*
X696892Y213986D01*
X697311Y213864D01*
X697727Y213733D01*
X698140Y213591D01*
X698549Y213439D01*
X698954Y213277D01*
X699355Y213105D01*
X699752Y212923D01*
X700144Y212732D01*
X700531Y212531D01*
X700914Y212320D01*
X701291Y212100D01*
X701662Y211871D01*
X702028Y211634D01*
X702388Y211387D01*
X702742Y211131D01*
X703089Y210867D01*
X703430Y210594D01*
X703763Y210313D01*
X704090Y210024D01*
X704410Y209727D01*
X704722Y209422D01*
X705027Y209110D01*
X705324Y208790D01*
X705613Y208463D01*
X705894Y208130D01*
X706167Y207789D01*
X706431Y207442D01*
X706687Y207088D01*
X706934Y206728D01*
X707171Y206362D01*
X707400Y205991D01*
X707620Y205614D01*
X707831Y205231D01*
X708032Y204844D01*
X708223Y204452D01*
X708405Y204055D01*
X708577Y203654D01*
X708739Y203249D01*
X708891Y202840D01*
X709033Y202427D01*
X709164Y202011D01*
X709286Y201592D01*
X709397Y201170D01*
X709498Y200746D01*
X709588Y200319D01*
X709668Y199890D01*
X709738Y199459D01*
X709796Y199026D01*
X709844Y198593D01*
X709882Y198158D01*
X709909Y197722D01*
X709925Y197286D01*
X709930Y196850D01*
X709925Y196414D01*
X709909Y195978D01*
X709882Y195542D01*
X709844Y195107D01*
X709796Y194674D01*
X709738Y194241D01*
X709668Y193810D01*
X709588Y193381D01*
X709498Y192954D01*
X709397Y192530D01*
X709286Y192108D01*
X709164Y191689D01*
X709033Y191273D01*
X708891Y190860D01*
X708739Y190451D01*
X708577Y190046D01*
X708405Y189645D01*
X708223Y189248D01*
X708032Y188856D01*
X707831Y188469D01*
X707620Y188086D01*
X707400Y187709D01*
X707171Y187338D01*
X706934Y186972D01*
X706687Y186612D01*
X706431Y186258D01*
X706167Y185911D01*
X705894Y185570D01*
X705613Y185237D01*
X705324Y184910D01*
X705027Y184590D01*
X704722Y184278D01*
X704410Y183973D01*
X704090Y183676D01*
X703763Y183387D01*
X703430Y183106D01*
X703089Y182833D01*
X702742Y182569D01*
X702388Y182313D01*
X702028Y182066D01*
X701662Y181829D01*
X701291Y181600D01*
X700914Y181380D01*
X700531Y181169D01*
X700144Y180968D01*
X699752Y180777D01*
X699355Y180595D01*
X698954Y180423D01*
X698549Y180261D01*
X698140Y180109D01*
X697727Y179967D01*
X697311Y179836D01*
X696892Y179714D01*
X696470Y179603D01*
X696046Y179502D01*
X695619Y179412D01*
X695190Y179332D01*
X694759Y179262D01*
X694326Y179204D01*
X693893Y179156D01*
X693458Y179118D01*
X693022Y179091D01*
X692586Y179075D01*
X692150Y179070D01*
X691714Y179075D01*
X691278Y179091D01*
X690842Y179118D01*
X690407Y179156D01*
X689974Y179204D01*
X689541Y179262D01*
X689110Y179332D01*
X688681Y179412D01*
X688254Y179502D01*
X687830Y179603D01*
X687408Y179714D01*
X686989Y179836D01*
X686573Y179967D01*
X686160Y180109D01*
X685751Y180261D01*
X685346Y180423D01*
X684945Y180595D01*
X684548Y180777D01*
X684156Y180968D01*
X683769Y181169D01*
X683386Y181380D01*
X683009Y181600D01*
X682638Y181829D01*
X682272Y182066D01*
X681912Y182313D01*
X681558Y182569D01*
X681211Y182833D01*
X680870Y183106D01*
X680537Y183387D01*
X680210Y183676D01*
X679890Y183973D01*
X679578Y184278D01*
X679273Y184590D01*
X678976Y184910D01*
X678687Y185237D01*
X678406Y185570D01*
X678133Y185911D01*
X677869Y186258D01*
X677613Y186612D01*
X677366Y186972D01*
X677129Y187338D01*
X676900Y187709D01*
X676680Y188086D01*
X676469Y188469D01*
X676268Y188856D01*
X676077Y189248D01*
X675895Y189645D01*
X675723Y190046D01*
X675561Y190451D01*
X675409Y190860D01*
X675267Y191273D01*
X675136Y191689D01*
X675014Y192108D01*
X674903Y192530D01*
X674802Y192954D01*
X674712Y193381D01*
X674632Y193810D01*
X674562Y194241D01*
X674504Y194674D01*
X674456Y195107D01*
X674418Y195542D01*
X674391Y195978D01*
X674375Y196414D01*
X674370Y196850D01*
X689610Y196850D02*
X689612Y196950D01*
X689618Y197051D01*
X689628Y197150D01*
X689642Y197250D01*
X689659Y197349D01*
X689681Y197447D01*
X689707Y197544D01*
X689736Y197640D01*
X689769Y197734D01*
X689806Y197828D01*
X689846Y197920D01*
X689890Y198010D01*
X689938Y198098D01*
X689989Y198185D01*
X690043Y198269D01*
X690101Y198351D01*
X690162Y198431D01*
X690226Y198508D01*
X690293Y198583D01*
X690363Y198655D01*
X690436Y198724D01*
X690511Y198790D01*
X690589Y198854D01*
X690669Y198914D01*
X690752Y198971D01*
X690837Y199024D01*
X690924Y199074D01*
X691013Y199121D01*
X691103Y199164D01*
X691195Y199204D01*
X691289Y199240D01*
X691384Y199272D01*
X691480Y199300D01*
X691578Y199325D01*
X691676Y199345D01*
X691775Y199362D01*
X691875Y199375D01*
X691974Y199384D01*
X692075Y199389D01*
X692175Y199390D01*
X692275Y199387D01*
X692376Y199380D01*
X692475Y199369D01*
X692575Y199354D01*
X692673Y199336D01*
X692771Y199313D01*
X692868Y199286D01*
X692963Y199256D01*
X693058Y199222D01*
X693151Y199184D01*
X693242Y199143D01*
X693332Y199098D01*
X693420Y199050D01*
X693506Y198998D01*
X693590Y198943D01*
X693671Y198884D01*
X693750Y198822D01*
X693827Y198758D01*
X693901Y198690D01*
X693972Y198619D01*
X694041Y198546D01*
X694106Y198470D01*
X694169Y198391D01*
X694228Y198310D01*
X694284Y198227D01*
X694337Y198142D01*
X694386Y198054D01*
X694432Y197965D01*
X694474Y197874D01*
X694513Y197781D01*
X694548Y197687D01*
X694579Y197592D01*
X694607Y197495D01*
X694630Y197398D01*
X694650Y197299D01*
X694666Y197200D01*
X694678Y197101D01*
X694686Y197000D01*
X694690Y196900D01*
X694690Y196800D01*
X694686Y196700D01*
X694678Y196599D01*
X694666Y196500D01*
X694650Y196401D01*
X694630Y196302D01*
X694607Y196205D01*
X694579Y196108D01*
X694548Y196013D01*
X694513Y195919D01*
X694474Y195826D01*
X694432Y195735D01*
X694386Y195646D01*
X694337Y195558D01*
X694284Y195473D01*
X694228Y195390D01*
X694169Y195309D01*
X694106Y195230D01*
X694041Y195154D01*
X693972Y195081D01*
X693901Y195010D01*
X693827Y194942D01*
X693750Y194878D01*
X693671Y194816D01*
X693590Y194757D01*
X693506Y194702D01*
X693420Y194650D01*
X693332Y194602D01*
X693242Y194557D01*
X693151Y194516D01*
X693058Y194478D01*
X692963Y194444D01*
X692868Y194414D01*
X692771Y194387D01*
X692673Y194364D01*
X692575Y194346D01*
X692475Y194331D01*
X692376Y194320D01*
X692275Y194313D01*
X692175Y194310D01*
X692075Y194311D01*
X691974Y194316D01*
X691875Y194325D01*
X691775Y194338D01*
X691676Y194355D01*
X691578Y194375D01*
X691480Y194400D01*
X691384Y194428D01*
X691289Y194460D01*
X691195Y194496D01*
X691103Y194536D01*
X691013Y194579D01*
X690924Y194626D01*
X690837Y194676D01*
X690752Y194729D01*
X690669Y194786D01*
X690589Y194846D01*
X690511Y194910D01*
X690436Y194976D01*
X690363Y195045D01*
X690293Y195117D01*
X690226Y195192D01*
X690162Y195269D01*
X690101Y195349D01*
X690043Y195431D01*
X689989Y195515D01*
X689938Y195602D01*
X689890Y195690D01*
X689846Y195780D01*
X689806Y195872D01*
X689769Y195966D01*
X689736Y196060D01*
X689707Y196156D01*
X689681Y196253D01*
X689659Y196351D01*
X689642Y196450D01*
X689628Y196550D01*
X689618Y196649D01*
X689612Y196750D01*
X689610Y196850D01*
X661670Y189230D02*
X659130Y189230D01*
X659130Y204470D01*
X661670Y204470D01*
X722630Y204470D02*
X725170Y204470D01*
X725170Y189230D01*
X722630Y189230D01*
D12*
X704850Y224790D02*
X704850Y227330D01*
X704850Y224790D02*
X679450Y224790D01*
X679450Y227330D01*
X680720Y168910D02*
X704850Y168910D01*
X680720Y168910D02*
X680720Y166370D01*
X704850Y166370D02*
X704850Y168910D01*
D11*
X704850Y166370D02*
X713740Y166370D01*
X679450Y227330D02*
X670560Y227330D01*
X679450Y227330D02*
X704850Y227330D01*
X713740Y227330D01*
X704850Y166370D02*
X680720Y166370D01*
X670560Y166370D01*
X661670Y186690D02*
X661670Y189230D01*
X661670Y204470D02*
X661670Y207010D01*
X722630Y189230D02*
X722630Y186690D01*
X722630Y204470D02*
X722630Y207010D01*
D10*
X737362Y222956D02*
X734116Y225552D01*
X734116Y213868D01*
X730871Y213868D02*
X737362Y213868D01*
D13*
X626364Y193675D02*
X626264Y193677D01*
X626165Y193683D01*
X626065Y193693D01*
X625967Y193706D01*
X625868Y193724D01*
X625771Y193745D01*
X625675Y193770D01*
X625579Y193799D01*
X625485Y193832D01*
X625392Y193868D01*
X625301Y193908D01*
X625211Y193952D01*
X625123Y193999D01*
X625037Y194049D01*
X624953Y194103D01*
X624871Y194160D01*
X624792Y194220D01*
X624714Y194284D01*
X624640Y194350D01*
X624568Y194419D01*
X624499Y194491D01*
X624433Y194565D01*
X624369Y194643D01*
X624309Y194722D01*
X624252Y194804D01*
X624198Y194888D01*
X624148Y194974D01*
X624101Y195062D01*
X624057Y195152D01*
X624017Y195243D01*
X623981Y195336D01*
X623948Y195430D01*
X623919Y195526D01*
X623894Y195622D01*
X623873Y195719D01*
X623855Y195818D01*
X623842Y195916D01*
X623832Y196016D01*
X623826Y196115D01*
X623824Y196215D01*
X626364Y193675D02*
X626505Y193677D01*
X626646Y193682D01*
X626787Y193692D01*
X626928Y193705D01*
X627068Y193721D01*
X627208Y193742D01*
X627347Y193766D01*
X627486Y193794D01*
X627623Y193825D01*
X627760Y193860D01*
X627896Y193898D01*
X628031Y193940D01*
X628164Y193986D01*
X628297Y194035D01*
X628428Y194088D01*
X628557Y194144D01*
X628686Y194203D01*
X628812Y194266D01*
X628937Y194332D01*
X629060Y194401D01*
X629181Y194474D01*
X629300Y194550D01*
X629418Y194629D01*
X629533Y194710D01*
X629645Y194795D01*
X629756Y194883D01*
X629864Y194974D01*
X629970Y195067D01*
X630073Y195164D01*
X630174Y195263D01*
X629857Y202565D02*
X629855Y202665D01*
X629849Y202764D01*
X629839Y202864D01*
X629826Y202962D01*
X629808Y203061D01*
X629787Y203158D01*
X629762Y203254D01*
X629733Y203350D01*
X629700Y203444D01*
X629664Y203537D01*
X629624Y203628D01*
X629580Y203718D01*
X629533Y203806D01*
X629483Y203892D01*
X629429Y203976D01*
X629372Y204058D01*
X629312Y204137D01*
X629248Y204215D01*
X629182Y204289D01*
X629113Y204361D01*
X629041Y204430D01*
X628967Y204496D01*
X628889Y204560D01*
X628810Y204620D01*
X628728Y204677D01*
X628644Y204731D01*
X628558Y204781D01*
X628470Y204828D01*
X628380Y204872D01*
X628289Y204912D01*
X628196Y204948D01*
X628102Y204981D01*
X628006Y205010D01*
X627910Y205035D01*
X627813Y205056D01*
X627714Y205074D01*
X627616Y205087D01*
X627516Y205097D01*
X627417Y205103D01*
X627317Y205105D01*
X627317Y205106D02*
X627184Y205104D01*
X627051Y205099D01*
X626918Y205089D01*
X626785Y205076D01*
X626653Y205059D01*
X626521Y205039D01*
X626390Y205015D01*
X626260Y204987D01*
X626130Y204956D01*
X626002Y204921D01*
X625874Y204882D01*
X625748Y204840D01*
X625623Y204794D01*
X625499Y204745D01*
X625376Y204693D01*
X625255Y204637D01*
X625136Y204577D01*
X625018Y204515D01*
X624903Y204449D01*
X624789Y204380D01*
X624677Y204307D01*
X624567Y204232D01*
X624459Y204153D01*
X628587Y200342D02*
X628671Y200394D01*
X628754Y200449D01*
X628834Y200508D01*
X628912Y200569D01*
X628987Y200633D01*
X629060Y200701D01*
X629131Y200771D01*
X629198Y200843D01*
X629263Y200918D01*
X629325Y200996D01*
X629384Y201076D01*
X629440Y201158D01*
X629492Y201242D01*
X629541Y201328D01*
X629587Y201416D01*
X629630Y201506D01*
X629669Y201597D01*
X629704Y201690D01*
X629736Y201784D01*
X629764Y201879D01*
X629789Y201975D01*
X629809Y202072D01*
X629827Y202170D01*
X629840Y202268D01*
X629849Y202367D01*
X629855Y202466D01*
X629857Y202565D01*
X625094Y198438D02*
X625010Y198386D01*
X624927Y198331D01*
X624847Y198272D01*
X624769Y198211D01*
X624694Y198147D01*
X624621Y198079D01*
X624550Y198009D01*
X624483Y197937D01*
X624418Y197862D01*
X624356Y197784D01*
X624297Y197704D01*
X624241Y197622D01*
X624189Y197538D01*
X624140Y197452D01*
X624094Y197364D01*
X624051Y197274D01*
X624012Y197183D01*
X623977Y197090D01*
X623945Y196996D01*
X623917Y196901D01*
X623892Y196805D01*
X623872Y196708D01*
X623854Y196610D01*
X623841Y196512D01*
X623832Y196413D01*
X623826Y196314D01*
X623824Y196215D01*
X625094Y198438D02*
X628587Y200343D01*
X619125Y202565D02*
X615950Y205105D01*
X615950Y193675D01*
X619125Y193675D02*
X612775Y193675D01*
D11*
X795020Y196850D02*
X795025Y197286D01*
X795041Y197722D01*
X795068Y198158D01*
X795106Y198593D01*
X795154Y199026D01*
X795212Y199459D01*
X795282Y199890D01*
X795362Y200319D01*
X795452Y200746D01*
X795553Y201170D01*
X795664Y201592D01*
X795786Y202011D01*
X795917Y202427D01*
X796059Y202840D01*
X796211Y203249D01*
X796373Y203654D01*
X796545Y204055D01*
X796727Y204452D01*
X796918Y204844D01*
X797119Y205231D01*
X797330Y205614D01*
X797550Y205991D01*
X797779Y206362D01*
X798016Y206728D01*
X798263Y207088D01*
X798519Y207442D01*
X798783Y207789D01*
X799056Y208130D01*
X799337Y208463D01*
X799626Y208790D01*
X799923Y209110D01*
X800228Y209422D01*
X800540Y209727D01*
X800860Y210024D01*
X801187Y210313D01*
X801520Y210594D01*
X801861Y210867D01*
X802208Y211131D01*
X802562Y211387D01*
X802922Y211634D01*
X803288Y211871D01*
X803659Y212100D01*
X804036Y212320D01*
X804419Y212531D01*
X804806Y212732D01*
X805198Y212923D01*
X805595Y213105D01*
X805996Y213277D01*
X806401Y213439D01*
X806810Y213591D01*
X807223Y213733D01*
X807639Y213864D01*
X808058Y213986D01*
X808480Y214097D01*
X808904Y214198D01*
X809331Y214288D01*
X809760Y214368D01*
X810191Y214438D01*
X810624Y214496D01*
X811057Y214544D01*
X811492Y214582D01*
X811928Y214609D01*
X812364Y214625D01*
X812800Y214630D01*
X813236Y214625D01*
X813672Y214609D01*
X814108Y214582D01*
X814543Y214544D01*
X814976Y214496D01*
X815409Y214438D01*
X815840Y214368D01*
X816269Y214288D01*
X816696Y214198D01*
X817120Y214097D01*
X817542Y213986D01*
X817961Y213864D01*
X818377Y213733D01*
X818790Y213591D01*
X819199Y213439D01*
X819604Y213277D01*
X820005Y213105D01*
X820402Y212923D01*
X820794Y212732D01*
X821181Y212531D01*
X821564Y212320D01*
X821941Y212100D01*
X822312Y211871D01*
X822678Y211634D01*
X823038Y211387D01*
X823392Y211131D01*
X823739Y210867D01*
X824080Y210594D01*
X824413Y210313D01*
X824740Y210024D01*
X825060Y209727D01*
X825372Y209422D01*
X825677Y209110D01*
X825974Y208790D01*
X826263Y208463D01*
X826544Y208130D01*
X826817Y207789D01*
X827081Y207442D01*
X827337Y207088D01*
X827584Y206728D01*
X827821Y206362D01*
X828050Y205991D01*
X828270Y205614D01*
X828481Y205231D01*
X828682Y204844D01*
X828873Y204452D01*
X829055Y204055D01*
X829227Y203654D01*
X829389Y203249D01*
X829541Y202840D01*
X829683Y202427D01*
X829814Y202011D01*
X829936Y201592D01*
X830047Y201170D01*
X830148Y200746D01*
X830238Y200319D01*
X830318Y199890D01*
X830388Y199459D01*
X830446Y199026D01*
X830494Y198593D01*
X830532Y198158D01*
X830559Y197722D01*
X830575Y197286D01*
X830580Y196850D01*
X830575Y196414D01*
X830559Y195978D01*
X830532Y195542D01*
X830494Y195107D01*
X830446Y194674D01*
X830388Y194241D01*
X830318Y193810D01*
X830238Y193381D01*
X830148Y192954D01*
X830047Y192530D01*
X829936Y192108D01*
X829814Y191689D01*
X829683Y191273D01*
X829541Y190860D01*
X829389Y190451D01*
X829227Y190046D01*
X829055Y189645D01*
X828873Y189248D01*
X828682Y188856D01*
X828481Y188469D01*
X828270Y188086D01*
X828050Y187709D01*
X827821Y187338D01*
X827584Y186972D01*
X827337Y186612D01*
X827081Y186258D01*
X826817Y185911D01*
X826544Y185570D01*
X826263Y185237D01*
X825974Y184910D01*
X825677Y184590D01*
X825372Y184278D01*
X825060Y183973D01*
X824740Y183676D01*
X824413Y183387D01*
X824080Y183106D01*
X823739Y182833D01*
X823392Y182569D01*
X823038Y182313D01*
X822678Y182066D01*
X822312Y181829D01*
X821941Y181600D01*
X821564Y181380D01*
X821181Y181169D01*
X820794Y180968D01*
X820402Y180777D01*
X820005Y180595D01*
X819604Y180423D01*
X819199Y180261D01*
X818790Y180109D01*
X818377Y179967D01*
X817961Y179836D01*
X817542Y179714D01*
X817120Y179603D01*
X816696Y179502D01*
X816269Y179412D01*
X815840Y179332D01*
X815409Y179262D01*
X814976Y179204D01*
X814543Y179156D01*
X814108Y179118D01*
X813672Y179091D01*
X813236Y179075D01*
X812800Y179070D01*
X812364Y179075D01*
X811928Y179091D01*
X811492Y179118D01*
X811057Y179156D01*
X810624Y179204D01*
X810191Y179262D01*
X809760Y179332D01*
X809331Y179412D01*
X808904Y179502D01*
X808480Y179603D01*
X808058Y179714D01*
X807639Y179836D01*
X807223Y179967D01*
X806810Y180109D01*
X806401Y180261D01*
X805996Y180423D01*
X805595Y180595D01*
X805198Y180777D01*
X804806Y180968D01*
X804419Y181169D01*
X804036Y181380D01*
X803659Y181600D01*
X803288Y181829D01*
X802922Y182066D01*
X802562Y182313D01*
X802208Y182569D01*
X801861Y182833D01*
X801520Y183106D01*
X801187Y183387D01*
X800860Y183676D01*
X800540Y183973D01*
X800228Y184278D01*
X799923Y184590D01*
X799626Y184910D01*
X799337Y185237D01*
X799056Y185570D01*
X798783Y185911D01*
X798519Y186258D01*
X798263Y186612D01*
X798016Y186972D01*
X797779Y187338D01*
X797550Y187709D01*
X797330Y188086D01*
X797119Y188469D01*
X796918Y188856D01*
X796727Y189248D01*
X796545Y189645D01*
X796373Y190046D01*
X796211Y190451D01*
X796059Y190860D01*
X795917Y191273D01*
X795786Y191689D01*
X795664Y192108D01*
X795553Y192530D01*
X795452Y192954D01*
X795362Y193381D01*
X795282Y193810D01*
X795212Y194241D01*
X795154Y194674D01*
X795106Y195107D01*
X795068Y195542D01*
X795041Y195978D01*
X795025Y196414D01*
X795020Y196850D01*
X810260Y196850D02*
X810262Y196950D01*
X810268Y197051D01*
X810278Y197150D01*
X810292Y197250D01*
X810309Y197349D01*
X810331Y197447D01*
X810357Y197544D01*
X810386Y197640D01*
X810419Y197734D01*
X810456Y197828D01*
X810496Y197920D01*
X810540Y198010D01*
X810588Y198098D01*
X810639Y198185D01*
X810693Y198269D01*
X810751Y198351D01*
X810812Y198431D01*
X810876Y198508D01*
X810943Y198583D01*
X811013Y198655D01*
X811086Y198724D01*
X811161Y198790D01*
X811239Y198854D01*
X811319Y198914D01*
X811402Y198971D01*
X811487Y199024D01*
X811574Y199074D01*
X811663Y199121D01*
X811753Y199164D01*
X811845Y199204D01*
X811939Y199240D01*
X812034Y199272D01*
X812130Y199300D01*
X812228Y199325D01*
X812326Y199345D01*
X812425Y199362D01*
X812525Y199375D01*
X812624Y199384D01*
X812725Y199389D01*
X812825Y199390D01*
X812925Y199387D01*
X813026Y199380D01*
X813125Y199369D01*
X813225Y199354D01*
X813323Y199336D01*
X813421Y199313D01*
X813518Y199286D01*
X813613Y199256D01*
X813708Y199222D01*
X813801Y199184D01*
X813892Y199143D01*
X813982Y199098D01*
X814070Y199050D01*
X814156Y198998D01*
X814240Y198943D01*
X814321Y198884D01*
X814400Y198822D01*
X814477Y198758D01*
X814551Y198690D01*
X814622Y198619D01*
X814691Y198546D01*
X814756Y198470D01*
X814819Y198391D01*
X814878Y198310D01*
X814934Y198227D01*
X814987Y198142D01*
X815036Y198054D01*
X815082Y197965D01*
X815124Y197874D01*
X815163Y197781D01*
X815198Y197687D01*
X815229Y197592D01*
X815257Y197495D01*
X815280Y197398D01*
X815300Y197299D01*
X815316Y197200D01*
X815328Y197101D01*
X815336Y197000D01*
X815340Y196900D01*
X815340Y196800D01*
X815336Y196700D01*
X815328Y196599D01*
X815316Y196500D01*
X815300Y196401D01*
X815280Y196302D01*
X815257Y196205D01*
X815229Y196108D01*
X815198Y196013D01*
X815163Y195919D01*
X815124Y195826D01*
X815082Y195735D01*
X815036Y195646D01*
X814987Y195558D01*
X814934Y195473D01*
X814878Y195390D01*
X814819Y195309D01*
X814756Y195230D01*
X814691Y195154D01*
X814622Y195081D01*
X814551Y195010D01*
X814477Y194942D01*
X814400Y194878D01*
X814321Y194816D01*
X814240Y194757D01*
X814156Y194702D01*
X814070Y194650D01*
X813982Y194602D01*
X813892Y194557D01*
X813801Y194516D01*
X813708Y194478D01*
X813613Y194444D01*
X813518Y194414D01*
X813421Y194387D01*
X813323Y194364D01*
X813225Y194346D01*
X813125Y194331D01*
X813026Y194320D01*
X812925Y194313D01*
X812825Y194310D01*
X812725Y194311D01*
X812624Y194316D01*
X812525Y194325D01*
X812425Y194338D01*
X812326Y194355D01*
X812228Y194375D01*
X812130Y194400D01*
X812034Y194428D01*
X811939Y194460D01*
X811845Y194496D01*
X811753Y194536D01*
X811663Y194579D01*
X811574Y194626D01*
X811487Y194676D01*
X811402Y194729D01*
X811319Y194786D01*
X811239Y194846D01*
X811161Y194910D01*
X811086Y194976D01*
X811013Y195045D01*
X810943Y195117D01*
X810876Y195192D01*
X810812Y195269D01*
X810751Y195349D01*
X810693Y195431D01*
X810639Y195515D01*
X810588Y195602D01*
X810540Y195690D01*
X810496Y195780D01*
X810456Y195872D01*
X810419Y195966D01*
X810386Y196060D01*
X810357Y196156D01*
X810331Y196253D01*
X810309Y196351D01*
X810292Y196450D01*
X810278Y196550D01*
X810268Y196649D01*
X810262Y196750D01*
X810260Y196850D01*
X782320Y189230D02*
X779780Y189230D01*
X779780Y204470D01*
X782320Y204470D01*
X843280Y204470D02*
X845820Y204470D01*
X845820Y189230D01*
X843280Y189230D01*
D12*
X825500Y224790D02*
X825500Y227330D01*
X825500Y224790D02*
X800100Y224790D01*
X800100Y227330D01*
X801370Y168910D02*
X825500Y168910D01*
X801370Y168910D02*
X801370Y166370D01*
X825500Y166370D02*
X825500Y168910D01*
D11*
X825500Y166370D02*
X834390Y166370D01*
X800100Y227330D02*
X791210Y227330D01*
X800100Y227330D02*
X825500Y227330D01*
X834390Y227330D01*
X825500Y166370D02*
X801370Y166370D01*
X791210Y166370D01*
X782320Y186690D02*
X782320Y189230D01*
X782320Y204470D02*
X782320Y207010D01*
X843280Y189230D02*
X843280Y186690D01*
X843280Y204470D02*
X843280Y207010D01*
D10*
X858012Y222956D02*
X854766Y225552D01*
X854766Y213868D01*
X851521Y213868D02*
X858012Y213868D01*
D13*
X876554Y192405D02*
X876556Y192305D01*
X876562Y192206D01*
X876572Y192106D01*
X876585Y192008D01*
X876603Y191909D01*
X876624Y191812D01*
X876649Y191716D01*
X876678Y191620D01*
X876711Y191526D01*
X876747Y191433D01*
X876787Y191342D01*
X876831Y191252D01*
X876878Y191164D01*
X876928Y191078D01*
X876982Y190994D01*
X877039Y190912D01*
X877099Y190833D01*
X877163Y190755D01*
X877229Y190681D01*
X877298Y190609D01*
X877370Y190540D01*
X877444Y190474D01*
X877522Y190410D01*
X877601Y190350D01*
X877683Y190293D01*
X877767Y190239D01*
X877853Y190189D01*
X877941Y190142D01*
X878031Y190098D01*
X878122Y190058D01*
X878215Y190022D01*
X878309Y189989D01*
X878405Y189960D01*
X878501Y189935D01*
X878598Y189914D01*
X878697Y189896D01*
X878795Y189883D01*
X878895Y189873D01*
X878994Y189867D01*
X879094Y189865D01*
X879235Y189867D01*
X879376Y189872D01*
X879517Y189882D01*
X879658Y189895D01*
X879798Y189911D01*
X879938Y189932D01*
X880077Y189956D01*
X880216Y189984D01*
X880353Y190015D01*
X880490Y190050D01*
X880626Y190088D01*
X880761Y190130D01*
X880894Y190176D01*
X881027Y190225D01*
X881158Y190278D01*
X881287Y190334D01*
X881416Y190393D01*
X881542Y190456D01*
X881667Y190522D01*
X881790Y190591D01*
X881911Y190664D01*
X882030Y190740D01*
X882148Y190819D01*
X882263Y190900D01*
X882375Y190985D01*
X882486Y191073D01*
X882594Y191164D01*
X882700Y191257D01*
X882803Y191354D01*
X882904Y191453D01*
X882587Y198755D02*
X882585Y198855D01*
X882579Y198954D01*
X882569Y199054D01*
X882556Y199152D01*
X882538Y199251D01*
X882517Y199348D01*
X882492Y199444D01*
X882463Y199540D01*
X882430Y199634D01*
X882394Y199727D01*
X882354Y199818D01*
X882310Y199908D01*
X882263Y199996D01*
X882213Y200082D01*
X882159Y200166D01*
X882102Y200248D01*
X882042Y200327D01*
X881978Y200405D01*
X881912Y200479D01*
X881843Y200551D01*
X881771Y200620D01*
X881697Y200686D01*
X881619Y200750D01*
X881540Y200810D01*
X881458Y200867D01*
X881374Y200921D01*
X881288Y200971D01*
X881200Y201018D01*
X881110Y201062D01*
X881019Y201102D01*
X880926Y201138D01*
X880832Y201171D01*
X880736Y201200D01*
X880640Y201225D01*
X880543Y201246D01*
X880444Y201264D01*
X880346Y201277D01*
X880246Y201287D01*
X880147Y201293D01*
X880047Y201295D01*
X880047Y201296D02*
X879914Y201294D01*
X879781Y201289D01*
X879648Y201279D01*
X879515Y201266D01*
X879383Y201249D01*
X879251Y201229D01*
X879120Y201205D01*
X878990Y201177D01*
X878860Y201146D01*
X878732Y201111D01*
X878604Y201072D01*
X878478Y201030D01*
X878353Y200984D01*
X878229Y200935D01*
X878106Y200883D01*
X877985Y200827D01*
X877866Y200767D01*
X877748Y200705D01*
X877633Y200639D01*
X877519Y200570D01*
X877407Y200497D01*
X877297Y200422D01*
X877189Y200343D01*
X881317Y196532D02*
X881401Y196584D01*
X881484Y196639D01*
X881564Y196698D01*
X881642Y196759D01*
X881717Y196823D01*
X881790Y196891D01*
X881861Y196961D01*
X881928Y197033D01*
X881993Y197108D01*
X882055Y197186D01*
X882114Y197266D01*
X882170Y197348D01*
X882222Y197432D01*
X882271Y197518D01*
X882317Y197606D01*
X882360Y197696D01*
X882399Y197787D01*
X882434Y197880D01*
X882466Y197974D01*
X882494Y198069D01*
X882519Y198165D01*
X882539Y198262D01*
X882557Y198360D01*
X882570Y198458D01*
X882579Y198557D01*
X882585Y198656D01*
X882587Y198755D01*
X877824Y194628D02*
X877740Y194576D01*
X877657Y194521D01*
X877577Y194462D01*
X877499Y194401D01*
X877424Y194337D01*
X877351Y194269D01*
X877280Y194199D01*
X877213Y194127D01*
X877148Y194052D01*
X877086Y193974D01*
X877027Y193894D01*
X876971Y193812D01*
X876919Y193728D01*
X876870Y193642D01*
X876824Y193554D01*
X876781Y193464D01*
X876742Y193373D01*
X876707Y193280D01*
X876675Y193186D01*
X876647Y193091D01*
X876622Y192995D01*
X876602Y192898D01*
X876584Y192800D01*
X876571Y192702D01*
X876562Y192603D01*
X876556Y192504D01*
X876554Y192405D01*
X877824Y194628D02*
X881317Y196533D01*
X868363Y201296D02*
X868259Y201294D01*
X868154Y201288D01*
X868050Y201279D01*
X867947Y201266D01*
X867844Y201248D01*
X867742Y201228D01*
X867640Y201203D01*
X867540Y201175D01*
X867440Y201143D01*
X867342Y201107D01*
X867245Y201068D01*
X867150Y201026D01*
X867056Y200980D01*
X866964Y200930D01*
X866874Y200878D01*
X866786Y200822D01*
X866700Y200762D01*
X866616Y200700D01*
X866535Y200635D01*
X866456Y200567D01*
X866379Y200495D01*
X866306Y200422D01*
X866234Y200345D01*
X866166Y200266D01*
X866101Y200185D01*
X866039Y200101D01*
X865979Y200015D01*
X865923Y199927D01*
X865871Y199837D01*
X865821Y199745D01*
X865775Y199651D01*
X865733Y199556D01*
X865694Y199459D01*
X865658Y199361D01*
X865626Y199261D01*
X865598Y199161D01*
X865573Y199059D01*
X865553Y198957D01*
X865535Y198854D01*
X865522Y198751D01*
X865513Y198647D01*
X865507Y198542D01*
X865505Y198438D01*
X868363Y201295D02*
X868481Y201293D01*
X868600Y201287D01*
X868718Y201278D01*
X868835Y201265D01*
X868952Y201247D01*
X869069Y201227D01*
X869185Y201202D01*
X869300Y201174D01*
X869413Y201141D01*
X869526Y201106D01*
X869638Y201066D01*
X869748Y201024D01*
X869857Y200977D01*
X869965Y200927D01*
X870070Y200874D01*
X870174Y200817D01*
X870276Y200757D01*
X870376Y200694D01*
X870474Y200627D01*
X870570Y200558D01*
X870663Y200485D01*
X870754Y200409D01*
X870843Y200331D01*
X870929Y200249D01*
X871012Y200165D01*
X871093Y200079D01*
X871170Y199989D01*
X871245Y199898D01*
X871317Y199804D01*
X871386Y199707D01*
X871451Y199609D01*
X871514Y199508D01*
X871573Y199405D01*
X871629Y199301D01*
X871681Y199195D01*
X871730Y199087D01*
X871775Y198978D01*
X871817Y198867D01*
X871855Y198755D01*
X866457Y196216D02*
X866381Y196291D01*
X866306Y196370D01*
X866235Y196451D01*
X866166Y196535D01*
X866101Y196621D01*
X866039Y196709D01*
X865979Y196799D01*
X865923Y196891D01*
X865870Y196986D01*
X865821Y197082D01*
X865775Y197180D01*
X865732Y197279D01*
X865693Y197380D01*
X865658Y197482D01*
X865626Y197585D01*
X865598Y197689D01*
X865573Y197794D01*
X865552Y197901D01*
X865535Y198007D01*
X865522Y198114D01*
X865513Y198222D01*
X865507Y198330D01*
X865505Y198438D01*
X866458Y196215D02*
X871855Y189865D01*
X865505Y189865D01*
D11*
X1074420Y514350D02*
X1074425Y514786D01*
X1074441Y515222D01*
X1074468Y515658D01*
X1074506Y516093D01*
X1074554Y516526D01*
X1074612Y516959D01*
X1074682Y517390D01*
X1074762Y517819D01*
X1074852Y518246D01*
X1074953Y518670D01*
X1075064Y519092D01*
X1075186Y519511D01*
X1075317Y519927D01*
X1075459Y520340D01*
X1075611Y520749D01*
X1075773Y521154D01*
X1075945Y521555D01*
X1076127Y521952D01*
X1076318Y522344D01*
X1076519Y522731D01*
X1076730Y523114D01*
X1076950Y523491D01*
X1077179Y523862D01*
X1077416Y524228D01*
X1077663Y524588D01*
X1077919Y524942D01*
X1078183Y525289D01*
X1078456Y525630D01*
X1078737Y525963D01*
X1079026Y526290D01*
X1079323Y526610D01*
X1079628Y526922D01*
X1079940Y527227D01*
X1080260Y527524D01*
X1080587Y527813D01*
X1080920Y528094D01*
X1081261Y528367D01*
X1081608Y528631D01*
X1081962Y528887D01*
X1082322Y529134D01*
X1082688Y529371D01*
X1083059Y529600D01*
X1083436Y529820D01*
X1083819Y530031D01*
X1084206Y530232D01*
X1084598Y530423D01*
X1084995Y530605D01*
X1085396Y530777D01*
X1085801Y530939D01*
X1086210Y531091D01*
X1086623Y531233D01*
X1087039Y531364D01*
X1087458Y531486D01*
X1087880Y531597D01*
X1088304Y531698D01*
X1088731Y531788D01*
X1089160Y531868D01*
X1089591Y531938D01*
X1090024Y531996D01*
X1090457Y532044D01*
X1090892Y532082D01*
X1091328Y532109D01*
X1091764Y532125D01*
X1092200Y532130D01*
X1092636Y532125D01*
X1093072Y532109D01*
X1093508Y532082D01*
X1093943Y532044D01*
X1094376Y531996D01*
X1094809Y531938D01*
X1095240Y531868D01*
X1095669Y531788D01*
X1096096Y531698D01*
X1096520Y531597D01*
X1096942Y531486D01*
X1097361Y531364D01*
X1097777Y531233D01*
X1098190Y531091D01*
X1098599Y530939D01*
X1099004Y530777D01*
X1099405Y530605D01*
X1099802Y530423D01*
X1100194Y530232D01*
X1100581Y530031D01*
X1100964Y529820D01*
X1101341Y529600D01*
X1101712Y529371D01*
X1102078Y529134D01*
X1102438Y528887D01*
X1102792Y528631D01*
X1103139Y528367D01*
X1103480Y528094D01*
X1103813Y527813D01*
X1104140Y527524D01*
X1104460Y527227D01*
X1104772Y526922D01*
X1105077Y526610D01*
X1105374Y526290D01*
X1105663Y525963D01*
X1105944Y525630D01*
X1106217Y525289D01*
X1106481Y524942D01*
X1106737Y524588D01*
X1106984Y524228D01*
X1107221Y523862D01*
X1107450Y523491D01*
X1107670Y523114D01*
X1107881Y522731D01*
X1108082Y522344D01*
X1108273Y521952D01*
X1108455Y521555D01*
X1108627Y521154D01*
X1108789Y520749D01*
X1108941Y520340D01*
X1109083Y519927D01*
X1109214Y519511D01*
X1109336Y519092D01*
X1109447Y518670D01*
X1109548Y518246D01*
X1109638Y517819D01*
X1109718Y517390D01*
X1109788Y516959D01*
X1109846Y516526D01*
X1109894Y516093D01*
X1109932Y515658D01*
X1109959Y515222D01*
X1109975Y514786D01*
X1109980Y514350D01*
X1109975Y513914D01*
X1109959Y513478D01*
X1109932Y513042D01*
X1109894Y512607D01*
X1109846Y512174D01*
X1109788Y511741D01*
X1109718Y511310D01*
X1109638Y510881D01*
X1109548Y510454D01*
X1109447Y510030D01*
X1109336Y509608D01*
X1109214Y509189D01*
X1109083Y508773D01*
X1108941Y508360D01*
X1108789Y507951D01*
X1108627Y507546D01*
X1108455Y507145D01*
X1108273Y506748D01*
X1108082Y506356D01*
X1107881Y505969D01*
X1107670Y505586D01*
X1107450Y505209D01*
X1107221Y504838D01*
X1106984Y504472D01*
X1106737Y504112D01*
X1106481Y503758D01*
X1106217Y503411D01*
X1105944Y503070D01*
X1105663Y502737D01*
X1105374Y502410D01*
X1105077Y502090D01*
X1104772Y501778D01*
X1104460Y501473D01*
X1104140Y501176D01*
X1103813Y500887D01*
X1103480Y500606D01*
X1103139Y500333D01*
X1102792Y500069D01*
X1102438Y499813D01*
X1102078Y499566D01*
X1101712Y499329D01*
X1101341Y499100D01*
X1100964Y498880D01*
X1100581Y498669D01*
X1100194Y498468D01*
X1099802Y498277D01*
X1099405Y498095D01*
X1099004Y497923D01*
X1098599Y497761D01*
X1098190Y497609D01*
X1097777Y497467D01*
X1097361Y497336D01*
X1096942Y497214D01*
X1096520Y497103D01*
X1096096Y497002D01*
X1095669Y496912D01*
X1095240Y496832D01*
X1094809Y496762D01*
X1094376Y496704D01*
X1093943Y496656D01*
X1093508Y496618D01*
X1093072Y496591D01*
X1092636Y496575D01*
X1092200Y496570D01*
X1091764Y496575D01*
X1091328Y496591D01*
X1090892Y496618D01*
X1090457Y496656D01*
X1090024Y496704D01*
X1089591Y496762D01*
X1089160Y496832D01*
X1088731Y496912D01*
X1088304Y497002D01*
X1087880Y497103D01*
X1087458Y497214D01*
X1087039Y497336D01*
X1086623Y497467D01*
X1086210Y497609D01*
X1085801Y497761D01*
X1085396Y497923D01*
X1084995Y498095D01*
X1084598Y498277D01*
X1084206Y498468D01*
X1083819Y498669D01*
X1083436Y498880D01*
X1083059Y499100D01*
X1082688Y499329D01*
X1082322Y499566D01*
X1081962Y499813D01*
X1081608Y500069D01*
X1081261Y500333D01*
X1080920Y500606D01*
X1080587Y500887D01*
X1080260Y501176D01*
X1079940Y501473D01*
X1079628Y501778D01*
X1079323Y502090D01*
X1079026Y502410D01*
X1078737Y502737D01*
X1078456Y503070D01*
X1078183Y503411D01*
X1077919Y503758D01*
X1077663Y504112D01*
X1077416Y504472D01*
X1077179Y504838D01*
X1076950Y505209D01*
X1076730Y505586D01*
X1076519Y505969D01*
X1076318Y506356D01*
X1076127Y506748D01*
X1075945Y507145D01*
X1075773Y507546D01*
X1075611Y507951D01*
X1075459Y508360D01*
X1075317Y508773D01*
X1075186Y509189D01*
X1075064Y509608D01*
X1074953Y510030D01*
X1074852Y510454D01*
X1074762Y510881D01*
X1074682Y511310D01*
X1074612Y511741D01*
X1074554Y512174D01*
X1074506Y512607D01*
X1074468Y513042D01*
X1074441Y513478D01*
X1074425Y513914D01*
X1074420Y514350D01*
X1089660Y514350D02*
X1089662Y514450D01*
X1089668Y514551D01*
X1089678Y514650D01*
X1089692Y514750D01*
X1089709Y514849D01*
X1089731Y514947D01*
X1089757Y515044D01*
X1089786Y515140D01*
X1089819Y515234D01*
X1089856Y515328D01*
X1089896Y515420D01*
X1089940Y515510D01*
X1089988Y515598D01*
X1090039Y515685D01*
X1090093Y515769D01*
X1090151Y515851D01*
X1090212Y515931D01*
X1090276Y516008D01*
X1090343Y516083D01*
X1090413Y516155D01*
X1090486Y516224D01*
X1090561Y516290D01*
X1090639Y516354D01*
X1090719Y516414D01*
X1090802Y516471D01*
X1090887Y516524D01*
X1090974Y516574D01*
X1091063Y516621D01*
X1091153Y516664D01*
X1091245Y516704D01*
X1091339Y516740D01*
X1091434Y516772D01*
X1091530Y516800D01*
X1091628Y516825D01*
X1091726Y516845D01*
X1091825Y516862D01*
X1091925Y516875D01*
X1092024Y516884D01*
X1092125Y516889D01*
X1092225Y516890D01*
X1092325Y516887D01*
X1092426Y516880D01*
X1092525Y516869D01*
X1092625Y516854D01*
X1092723Y516836D01*
X1092821Y516813D01*
X1092918Y516786D01*
X1093013Y516756D01*
X1093108Y516722D01*
X1093201Y516684D01*
X1093292Y516643D01*
X1093382Y516598D01*
X1093470Y516550D01*
X1093556Y516498D01*
X1093640Y516443D01*
X1093721Y516384D01*
X1093800Y516322D01*
X1093877Y516258D01*
X1093951Y516190D01*
X1094022Y516119D01*
X1094091Y516046D01*
X1094156Y515970D01*
X1094219Y515891D01*
X1094278Y515810D01*
X1094334Y515727D01*
X1094387Y515642D01*
X1094436Y515554D01*
X1094482Y515465D01*
X1094524Y515374D01*
X1094563Y515281D01*
X1094598Y515187D01*
X1094629Y515092D01*
X1094657Y514995D01*
X1094680Y514898D01*
X1094700Y514799D01*
X1094716Y514700D01*
X1094728Y514601D01*
X1094736Y514500D01*
X1094740Y514400D01*
X1094740Y514300D01*
X1094736Y514200D01*
X1094728Y514099D01*
X1094716Y514000D01*
X1094700Y513901D01*
X1094680Y513802D01*
X1094657Y513705D01*
X1094629Y513608D01*
X1094598Y513513D01*
X1094563Y513419D01*
X1094524Y513326D01*
X1094482Y513235D01*
X1094436Y513146D01*
X1094387Y513058D01*
X1094334Y512973D01*
X1094278Y512890D01*
X1094219Y512809D01*
X1094156Y512730D01*
X1094091Y512654D01*
X1094022Y512581D01*
X1093951Y512510D01*
X1093877Y512442D01*
X1093800Y512378D01*
X1093721Y512316D01*
X1093640Y512257D01*
X1093556Y512202D01*
X1093470Y512150D01*
X1093382Y512102D01*
X1093292Y512057D01*
X1093201Y512016D01*
X1093108Y511978D01*
X1093013Y511944D01*
X1092918Y511914D01*
X1092821Y511887D01*
X1092723Y511864D01*
X1092625Y511846D01*
X1092525Y511831D01*
X1092426Y511820D01*
X1092325Y511813D01*
X1092225Y511810D01*
X1092125Y511811D01*
X1092024Y511816D01*
X1091925Y511825D01*
X1091825Y511838D01*
X1091726Y511855D01*
X1091628Y511875D01*
X1091530Y511900D01*
X1091434Y511928D01*
X1091339Y511960D01*
X1091245Y511996D01*
X1091153Y512036D01*
X1091063Y512079D01*
X1090974Y512126D01*
X1090887Y512176D01*
X1090802Y512229D01*
X1090719Y512286D01*
X1090639Y512346D01*
X1090561Y512410D01*
X1090486Y512476D01*
X1090413Y512545D01*
X1090343Y512617D01*
X1090276Y512692D01*
X1090212Y512769D01*
X1090151Y512849D01*
X1090093Y512931D01*
X1090039Y513015D01*
X1089988Y513102D01*
X1089940Y513190D01*
X1089896Y513280D01*
X1089856Y513372D01*
X1089819Y513466D01*
X1089786Y513560D01*
X1089757Y513656D01*
X1089731Y513753D01*
X1089709Y513851D01*
X1089692Y513950D01*
X1089678Y514050D01*
X1089668Y514149D01*
X1089662Y514250D01*
X1089660Y514350D01*
X1084580Y544830D02*
X1084580Y547370D01*
X1099820Y547370D01*
X1099820Y544830D01*
X1099820Y483870D02*
X1099820Y481330D01*
X1084580Y481330D01*
X1084580Y483870D01*
D12*
X1120140Y501650D02*
X1122680Y501650D01*
X1120140Y501650D02*
X1120140Y527050D01*
X1122680Y527050D01*
X1064260Y525780D02*
X1064260Y501650D01*
X1064260Y525780D02*
X1061720Y525780D01*
X1061720Y501650D02*
X1064260Y501650D01*
D11*
X1061720Y501650D02*
X1061720Y492760D01*
X1122680Y527050D02*
X1122680Y535940D01*
X1122680Y527050D02*
X1122680Y501650D01*
X1122680Y492760D01*
X1061720Y501650D02*
X1061720Y525780D01*
X1061720Y535940D01*
X1082040Y544830D02*
X1084580Y544830D01*
X1099820Y544830D02*
X1102360Y544830D01*
X1084580Y483870D02*
X1082040Y483870D01*
X1099820Y483870D02*
X1102360Y483870D01*
D10*
X1118306Y469138D02*
X1120902Y472384D01*
X1109218Y472384D01*
X1109218Y475629D02*
X1109218Y469138D01*
D13*
X1143635Y507365D02*
X1143535Y507367D01*
X1143436Y507373D01*
X1143336Y507383D01*
X1143238Y507396D01*
X1143139Y507414D01*
X1143042Y507435D01*
X1142946Y507460D01*
X1142850Y507489D01*
X1142756Y507522D01*
X1142663Y507558D01*
X1142572Y507598D01*
X1142482Y507642D01*
X1142394Y507689D01*
X1142308Y507739D01*
X1142224Y507793D01*
X1142142Y507850D01*
X1142063Y507910D01*
X1141985Y507974D01*
X1141911Y508040D01*
X1141839Y508109D01*
X1141770Y508181D01*
X1141704Y508255D01*
X1141640Y508333D01*
X1141580Y508412D01*
X1141523Y508494D01*
X1141469Y508578D01*
X1141419Y508664D01*
X1141372Y508752D01*
X1141328Y508842D01*
X1141288Y508933D01*
X1141252Y509026D01*
X1141219Y509120D01*
X1141190Y509216D01*
X1141165Y509312D01*
X1141144Y509409D01*
X1141126Y509508D01*
X1141113Y509606D01*
X1141103Y509706D01*
X1141097Y509805D01*
X1141095Y509905D01*
X1143635Y507365D02*
X1143776Y507367D01*
X1143917Y507372D01*
X1144058Y507382D01*
X1144199Y507395D01*
X1144339Y507411D01*
X1144479Y507432D01*
X1144618Y507456D01*
X1144757Y507484D01*
X1144894Y507515D01*
X1145031Y507550D01*
X1145167Y507588D01*
X1145302Y507630D01*
X1145435Y507676D01*
X1145568Y507725D01*
X1145699Y507778D01*
X1145828Y507834D01*
X1145957Y507893D01*
X1146083Y507956D01*
X1146208Y508022D01*
X1146331Y508091D01*
X1146452Y508164D01*
X1146571Y508240D01*
X1146689Y508319D01*
X1146804Y508400D01*
X1146916Y508485D01*
X1147027Y508573D01*
X1147135Y508664D01*
X1147241Y508757D01*
X1147344Y508854D01*
X1147445Y508953D01*
X1147128Y516255D02*
X1147126Y516355D01*
X1147120Y516454D01*
X1147110Y516554D01*
X1147097Y516652D01*
X1147079Y516751D01*
X1147058Y516848D01*
X1147033Y516944D01*
X1147004Y517040D01*
X1146971Y517134D01*
X1146935Y517227D01*
X1146895Y517318D01*
X1146851Y517408D01*
X1146804Y517496D01*
X1146754Y517582D01*
X1146700Y517666D01*
X1146643Y517748D01*
X1146583Y517827D01*
X1146519Y517905D01*
X1146453Y517979D01*
X1146384Y518051D01*
X1146312Y518120D01*
X1146238Y518186D01*
X1146160Y518250D01*
X1146081Y518310D01*
X1145999Y518367D01*
X1145915Y518421D01*
X1145829Y518471D01*
X1145741Y518518D01*
X1145651Y518562D01*
X1145560Y518602D01*
X1145467Y518638D01*
X1145373Y518671D01*
X1145277Y518700D01*
X1145181Y518725D01*
X1145084Y518746D01*
X1144985Y518764D01*
X1144887Y518777D01*
X1144787Y518787D01*
X1144688Y518793D01*
X1144588Y518795D01*
X1144588Y518796D02*
X1144455Y518794D01*
X1144322Y518789D01*
X1144189Y518779D01*
X1144056Y518766D01*
X1143924Y518749D01*
X1143792Y518729D01*
X1143661Y518705D01*
X1143531Y518677D01*
X1143401Y518646D01*
X1143273Y518611D01*
X1143145Y518572D01*
X1143019Y518530D01*
X1142894Y518484D01*
X1142770Y518435D01*
X1142647Y518383D01*
X1142526Y518327D01*
X1142407Y518267D01*
X1142289Y518205D01*
X1142174Y518139D01*
X1142060Y518070D01*
X1141948Y517997D01*
X1141838Y517922D01*
X1141730Y517843D01*
X1145858Y514032D02*
X1145942Y514084D01*
X1146025Y514139D01*
X1146105Y514198D01*
X1146183Y514259D01*
X1146258Y514323D01*
X1146331Y514391D01*
X1146402Y514461D01*
X1146469Y514533D01*
X1146534Y514608D01*
X1146596Y514686D01*
X1146655Y514766D01*
X1146711Y514848D01*
X1146763Y514932D01*
X1146812Y515018D01*
X1146858Y515106D01*
X1146901Y515196D01*
X1146940Y515287D01*
X1146975Y515380D01*
X1147007Y515474D01*
X1147035Y515569D01*
X1147060Y515665D01*
X1147080Y515762D01*
X1147098Y515860D01*
X1147111Y515958D01*
X1147120Y516057D01*
X1147126Y516156D01*
X1147128Y516255D01*
X1142365Y512128D02*
X1142281Y512076D01*
X1142198Y512021D01*
X1142118Y511962D01*
X1142040Y511901D01*
X1141965Y511837D01*
X1141892Y511769D01*
X1141821Y511699D01*
X1141754Y511627D01*
X1141689Y511552D01*
X1141627Y511474D01*
X1141568Y511394D01*
X1141512Y511312D01*
X1141460Y511228D01*
X1141411Y511142D01*
X1141365Y511054D01*
X1141322Y510964D01*
X1141283Y510873D01*
X1141248Y510780D01*
X1141216Y510686D01*
X1141188Y510591D01*
X1141163Y510495D01*
X1141143Y510398D01*
X1141125Y510300D01*
X1141112Y510202D01*
X1141103Y510103D01*
X1141097Y510004D01*
X1141095Y509905D01*
X1142365Y512128D02*
X1145858Y514033D01*
X1136396Y507365D02*
X1133221Y507365D01*
X1133110Y507367D01*
X1133000Y507373D01*
X1132889Y507382D01*
X1132779Y507396D01*
X1132670Y507413D01*
X1132561Y507434D01*
X1132453Y507459D01*
X1132346Y507488D01*
X1132240Y507520D01*
X1132135Y507556D01*
X1132032Y507596D01*
X1131930Y507639D01*
X1131829Y507686D01*
X1131730Y507737D01*
X1131634Y507790D01*
X1131539Y507847D01*
X1131446Y507908D01*
X1131355Y507971D01*
X1131266Y508038D01*
X1131180Y508108D01*
X1131097Y508181D01*
X1131015Y508256D01*
X1130937Y508334D01*
X1130862Y508416D01*
X1130789Y508499D01*
X1130719Y508585D01*
X1130652Y508674D01*
X1130589Y508765D01*
X1130528Y508858D01*
X1130471Y508953D01*
X1130418Y509049D01*
X1130367Y509148D01*
X1130320Y509249D01*
X1130277Y509351D01*
X1130237Y509454D01*
X1130201Y509559D01*
X1130169Y509665D01*
X1130140Y509772D01*
X1130115Y509880D01*
X1130094Y509989D01*
X1130077Y510098D01*
X1130063Y510208D01*
X1130054Y510319D01*
X1130048Y510429D01*
X1130046Y510540D01*
X1130048Y510651D01*
X1130054Y510761D01*
X1130063Y510872D01*
X1130077Y510982D01*
X1130094Y511091D01*
X1130115Y511200D01*
X1130140Y511308D01*
X1130169Y511415D01*
X1130201Y511521D01*
X1130237Y511626D01*
X1130277Y511729D01*
X1130320Y511831D01*
X1130367Y511932D01*
X1130418Y512031D01*
X1130471Y512128D01*
X1130528Y512222D01*
X1130589Y512315D01*
X1130652Y512406D01*
X1130719Y512495D01*
X1130789Y512581D01*
X1130862Y512664D01*
X1130937Y512746D01*
X1131015Y512824D01*
X1131097Y512899D01*
X1131180Y512972D01*
X1131266Y513042D01*
X1131355Y513109D01*
X1131446Y513172D01*
X1131539Y513233D01*
X1131634Y513290D01*
X1131730Y513343D01*
X1131829Y513394D01*
X1131930Y513441D01*
X1132032Y513484D01*
X1132135Y513524D01*
X1132240Y513560D01*
X1132346Y513592D01*
X1132453Y513621D01*
X1132561Y513646D01*
X1132670Y513667D01*
X1132779Y513684D01*
X1132889Y513698D01*
X1133000Y513707D01*
X1133110Y513713D01*
X1133221Y513715D01*
X1132586Y518795D02*
X1136396Y518795D01*
X1132586Y518795D02*
X1132486Y518793D01*
X1132387Y518787D01*
X1132287Y518777D01*
X1132189Y518764D01*
X1132090Y518746D01*
X1131993Y518725D01*
X1131897Y518700D01*
X1131801Y518671D01*
X1131707Y518638D01*
X1131614Y518602D01*
X1131523Y518562D01*
X1131433Y518518D01*
X1131345Y518471D01*
X1131259Y518421D01*
X1131175Y518367D01*
X1131093Y518310D01*
X1131014Y518250D01*
X1130936Y518186D01*
X1130862Y518120D01*
X1130790Y518051D01*
X1130721Y517979D01*
X1130655Y517905D01*
X1130591Y517827D01*
X1130531Y517748D01*
X1130474Y517666D01*
X1130420Y517582D01*
X1130370Y517496D01*
X1130323Y517408D01*
X1130279Y517318D01*
X1130239Y517227D01*
X1130203Y517134D01*
X1130170Y517040D01*
X1130141Y516944D01*
X1130116Y516848D01*
X1130095Y516751D01*
X1130077Y516652D01*
X1130064Y516554D01*
X1130054Y516454D01*
X1130048Y516355D01*
X1130046Y516255D01*
X1130048Y516155D01*
X1130054Y516056D01*
X1130064Y515956D01*
X1130077Y515858D01*
X1130095Y515759D01*
X1130116Y515662D01*
X1130141Y515566D01*
X1130170Y515470D01*
X1130203Y515376D01*
X1130239Y515283D01*
X1130279Y515192D01*
X1130323Y515102D01*
X1130370Y515014D01*
X1130420Y514928D01*
X1130474Y514844D01*
X1130531Y514762D01*
X1130591Y514683D01*
X1130655Y514605D01*
X1130721Y514531D01*
X1130790Y514459D01*
X1130862Y514390D01*
X1130936Y514324D01*
X1131014Y514260D01*
X1131093Y514200D01*
X1131175Y514143D01*
X1131259Y514089D01*
X1131345Y514039D01*
X1131433Y513992D01*
X1131523Y513948D01*
X1131614Y513908D01*
X1131707Y513872D01*
X1131801Y513839D01*
X1131897Y513810D01*
X1131993Y513785D01*
X1132090Y513764D01*
X1132189Y513746D01*
X1132287Y513733D01*
X1132387Y513723D01*
X1132486Y513717D01*
X1132586Y513715D01*
X1135126Y513715D01*
D11*
X166370Y514350D02*
X166375Y514786D01*
X166391Y515222D01*
X166418Y515658D01*
X166456Y516093D01*
X166504Y516526D01*
X166562Y516959D01*
X166632Y517390D01*
X166712Y517819D01*
X166802Y518246D01*
X166903Y518670D01*
X167014Y519092D01*
X167136Y519511D01*
X167267Y519927D01*
X167409Y520340D01*
X167561Y520749D01*
X167723Y521154D01*
X167895Y521555D01*
X168077Y521952D01*
X168268Y522344D01*
X168469Y522731D01*
X168680Y523114D01*
X168900Y523491D01*
X169129Y523862D01*
X169366Y524228D01*
X169613Y524588D01*
X169869Y524942D01*
X170133Y525289D01*
X170406Y525630D01*
X170687Y525963D01*
X170976Y526290D01*
X171273Y526610D01*
X171578Y526922D01*
X171890Y527227D01*
X172210Y527524D01*
X172537Y527813D01*
X172870Y528094D01*
X173211Y528367D01*
X173558Y528631D01*
X173912Y528887D01*
X174272Y529134D01*
X174638Y529371D01*
X175009Y529600D01*
X175386Y529820D01*
X175769Y530031D01*
X176156Y530232D01*
X176548Y530423D01*
X176945Y530605D01*
X177346Y530777D01*
X177751Y530939D01*
X178160Y531091D01*
X178573Y531233D01*
X178989Y531364D01*
X179408Y531486D01*
X179830Y531597D01*
X180254Y531698D01*
X180681Y531788D01*
X181110Y531868D01*
X181541Y531938D01*
X181974Y531996D01*
X182407Y532044D01*
X182842Y532082D01*
X183278Y532109D01*
X183714Y532125D01*
X184150Y532130D01*
X184586Y532125D01*
X185022Y532109D01*
X185458Y532082D01*
X185893Y532044D01*
X186326Y531996D01*
X186759Y531938D01*
X187190Y531868D01*
X187619Y531788D01*
X188046Y531698D01*
X188470Y531597D01*
X188892Y531486D01*
X189311Y531364D01*
X189727Y531233D01*
X190140Y531091D01*
X190549Y530939D01*
X190954Y530777D01*
X191355Y530605D01*
X191752Y530423D01*
X192144Y530232D01*
X192531Y530031D01*
X192914Y529820D01*
X193291Y529600D01*
X193662Y529371D01*
X194028Y529134D01*
X194388Y528887D01*
X194742Y528631D01*
X195089Y528367D01*
X195430Y528094D01*
X195763Y527813D01*
X196090Y527524D01*
X196410Y527227D01*
X196722Y526922D01*
X197027Y526610D01*
X197324Y526290D01*
X197613Y525963D01*
X197894Y525630D01*
X198167Y525289D01*
X198431Y524942D01*
X198687Y524588D01*
X198934Y524228D01*
X199171Y523862D01*
X199400Y523491D01*
X199620Y523114D01*
X199831Y522731D01*
X200032Y522344D01*
X200223Y521952D01*
X200405Y521555D01*
X200577Y521154D01*
X200739Y520749D01*
X200891Y520340D01*
X201033Y519927D01*
X201164Y519511D01*
X201286Y519092D01*
X201397Y518670D01*
X201498Y518246D01*
X201588Y517819D01*
X201668Y517390D01*
X201738Y516959D01*
X201796Y516526D01*
X201844Y516093D01*
X201882Y515658D01*
X201909Y515222D01*
X201925Y514786D01*
X201930Y514350D01*
X201925Y513914D01*
X201909Y513478D01*
X201882Y513042D01*
X201844Y512607D01*
X201796Y512174D01*
X201738Y511741D01*
X201668Y511310D01*
X201588Y510881D01*
X201498Y510454D01*
X201397Y510030D01*
X201286Y509608D01*
X201164Y509189D01*
X201033Y508773D01*
X200891Y508360D01*
X200739Y507951D01*
X200577Y507546D01*
X200405Y507145D01*
X200223Y506748D01*
X200032Y506356D01*
X199831Y505969D01*
X199620Y505586D01*
X199400Y505209D01*
X199171Y504838D01*
X198934Y504472D01*
X198687Y504112D01*
X198431Y503758D01*
X198167Y503411D01*
X197894Y503070D01*
X197613Y502737D01*
X197324Y502410D01*
X197027Y502090D01*
X196722Y501778D01*
X196410Y501473D01*
X196090Y501176D01*
X195763Y500887D01*
X195430Y500606D01*
X195089Y500333D01*
X194742Y500069D01*
X194388Y499813D01*
X194028Y499566D01*
X193662Y499329D01*
X193291Y499100D01*
X192914Y498880D01*
X192531Y498669D01*
X192144Y498468D01*
X191752Y498277D01*
X191355Y498095D01*
X190954Y497923D01*
X190549Y497761D01*
X190140Y497609D01*
X189727Y497467D01*
X189311Y497336D01*
X188892Y497214D01*
X188470Y497103D01*
X188046Y497002D01*
X187619Y496912D01*
X187190Y496832D01*
X186759Y496762D01*
X186326Y496704D01*
X185893Y496656D01*
X185458Y496618D01*
X185022Y496591D01*
X184586Y496575D01*
X184150Y496570D01*
X183714Y496575D01*
X183278Y496591D01*
X182842Y496618D01*
X182407Y496656D01*
X181974Y496704D01*
X181541Y496762D01*
X181110Y496832D01*
X180681Y496912D01*
X180254Y497002D01*
X179830Y497103D01*
X179408Y497214D01*
X178989Y497336D01*
X178573Y497467D01*
X178160Y497609D01*
X177751Y497761D01*
X177346Y497923D01*
X176945Y498095D01*
X176548Y498277D01*
X176156Y498468D01*
X175769Y498669D01*
X175386Y498880D01*
X175009Y499100D01*
X174638Y499329D01*
X174272Y499566D01*
X173912Y499813D01*
X173558Y500069D01*
X173211Y500333D01*
X172870Y500606D01*
X172537Y500887D01*
X172210Y501176D01*
X171890Y501473D01*
X171578Y501778D01*
X171273Y502090D01*
X170976Y502410D01*
X170687Y502737D01*
X170406Y503070D01*
X170133Y503411D01*
X169869Y503758D01*
X169613Y504112D01*
X169366Y504472D01*
X169129Y504838D01*
X168900Y505209D01*
X168680Y505586D01*
X168469Y505969D01*
X168268Y506356D01*
X168077Y506748D01*
X167895Y507145D01*
X167723Y507546D01*
X167561Y507951D01*
X167409Y508360D01*
X167267Y508773D01*
X167136Y509189D01*
X167014Y509608D01*
X166903Y510030D01*
X166802Y510454D01*
X166712Y510881D01*
X166632Y511310D01*
X166562Y511741D01*
X166504Y512174D01*
X166456Y512607D01*
X166418Y513042D01*
X166391Y513478D01*
X166375Y513914D01*
X166370Y514350D01*
X181610Y514350D02*
X181612Y514450D01*
X181618Y514551D01*
X181628Y514650D01*
X181642Y514750D01*
X181659Y514849D01*
X181681Y514947D01*
X181707Y515044D01*
X181736Y515140D01*
X181769Y515234D01*
X181806Y515328D01*
X181846Y515420D01*
X181890Y515510D01*
X181938Y515598D01*
X181989Y515685D01*
X182043Y515769D01*
X182101Y515851D01*
X182162Y515931D01*
X182226Y516008D01*
X182293Y516083D01*
X182363Y516155D01*
X182436Y516224D01*
X182511Y516290D01*
X182589Y516354D01*
X182669Y516414D01*
X182752Y516471D01*
X182837Y516524D01*
X182924Y516574D01*
X183013Y516621D01*
X183103Y516664D01*
X183195Y516704D01*
X183289Y516740D01*
X183384Y516772D01*
X183480Y516800D01*
X183578Y516825D01*
X183676Y516845D01*
X183775Y516862D01*
X183875Y516875D01*
X183974Y516884D01*
X184075Y516889D01*
X184175Y516890D01*
X184275Y516887D01*
X184376Y516880D01*
X184475Y516869D01*
X184575Y516854D01*
X184673Y516836D01*
X184771Y516813D01*
X184868Y516786D01*
X184963Y516756D01*
X185058Y516722D01*
X185151Y516684D01*
X185242Y516643D01*
X185332Y516598D01*
X185420Y516550D01*
X185506Y516498D01*
X185590Y516443D01*
X185671Y516384D01*
X185750Y516322D01*
X185827Y516258D01*
X185901Y516190D01*
X185972Y516119D01*
X186041Y516046D01*
X186106Y515970D01*
X186169Y515891D01*
X186228Y515810D01*
X186284Y515727D01*
X186337Y515642D01*
X186386Y515554D01*
X186432Y515465D01*
X186474Y515374D01*
X186513Y515281D01*
X186548Y515187D01*
X186579Y515092D01*
X186607Y514995D01*
X186630Y514898D01*
X186650Y514799D01*
X186666Y514700D01*
X186678Y514601D01*
X186686Y514500D01*
X186690Y514400D01*
X186690Y514300D01*
X186686Y514200D01*
X186678Y514099D01*
X186666Y514000D01*
X186650Y513901D01*
X186630Y513802D01*
X186607Y513705D01*
X186579Y513608D01*
X186548Y513513D01*
X186513Y513419D01*
X186474Y513326D01*
X186432Y513235D01*
X186386Y513146D01*
X186337Y513058D01*
X186284Y512973D01*
X186228Y512890D01*
X186169Y512809D01*
X186106Y512730D01*
X186041Y512654D01*
X185972Y512581D01*
X185901Y512510D01*
X185827Y512442D01*
X185750Y512378D01*
X185671Y512316D01*
X185590Y512257D01*
X185506Y512202D01*
X185420Y512150D01*
X185332Y512102D01*
X185242Y512057D01*
X185151Y512016D01*
X185058Y511978D01*
X184963Y511944D01*
X184868Y511914D01*
X184771Y511887D01*
X184673Y511864D01*
X184575Y511846D01*
X184475Y511831D01*
X184376Y511820D01*
X184275Y511813D01*
X184175Y511810D01*
X184075Y511811D01*
X183974Y511816D01*
X183875Y511825D01*
X183775Y511838D01*
X183676Y511855D01*
X183578Y511875D01*
X183480Y511900D01*
X183384Y511928D01*
X183289Y511960D01*
X183195Y511996D01*
X183103Y512036D01*
X183013Y512079D01*
X182924Y512126D01*
X182837Y512176D01*
X182752Y512229D01*
X182669Y512286D01*
X182589Y512346D01*
X182511Y512410D01*
X182436Y512476D01*
X182363Y512545D01*
X182293Y512617D01*
X182226Y512692D01*
X182162Y512769D01*
X182101Y512849D01*
X182043Y512931D01*
X181989Y513015D01*
X181938Y513102D01*
X181890Y513190D01*
X181846Y513280D01*
X181806Y513372D01*
X181769Y513466D01*
X181736Y513560D01*
X181707Y513656D01*
X181681Y513753D01*
X181659Y513851D01*
X181642Y513950D01*
X181628Y514050D01*
X181618Y514149D01*
X181612Y514250D01*
X181610Y514350D01*
X176530Y544830D02*
X176530Y547370D01*
X191770Y547370D01*
X191770Y544830D01*
X191770Y483870D02*
X191770Y481330D01*
X176530Y481330D01*
X176530Y483870D01*
D12*
X212090Y501650D02*
X214630Y501650D01*
X212090Y501650D02*
X212090Y527050D01*
X214630Y527050D01*
X156210Y525780D02*
X156210Y501650D01*
X156210Y525780D02*
X153670Y525780D01*
X153670Y501650D02*
X156210Y501650D01*
D11*
X153670Y501650D02*
X153670Y492760D01*
X214630Y527050D02*
X214630Y535940D01*
X214630Y527050D02*
X214630Y501650D01*
X214630Y492760D01*
X153670Y501650D02*
X153670Y525780D01*
X153670Y535940D01*
X173990Y544830D02*
X176530Y544830D01*
X191770Y544830D02*
X194310Y544830D01*
X176530Y483870D02*
X173990Y483870D01*
X191770Y483870D02*
X194310Y483870D01*
D10*
X210256Y469138D02*
X212852Y472384D01*
X201168Y472384D01*
X201168Y475629D02*
X201168Y469138D01*
D13*
X144145Y506095D02*
X144045Y506097D01*
X143946Y506103D01*
X143846Y506113D01*
X143748Y506126D01*
X143649Y506144D01*
X143552Y506165D01*
X143456Y506190D01*
X143360Y506219D01*
X143266Y506252D01*
X143173Y506288D01*
X143082Y506328D01*
X142992Y506372D01*
X142904Y506419D01*
X142818Y506469D01*
X142734Y506523D01*
X142652Y506580D01*
X142573Y506640D01*
X142495Y506704D01*
X142421Y506770D01*
X142349Y506839D01*
X142280Y506911D01*
X142214Y506985D01*
X142150Y507063D01*
X142090Y507142D01*
X142033Y507224D01*
X141979Y507308D01*
X141929Y507394D01*
X141882Y507482D01*
X141838Y507572D01*
X141798Y507663D01*
X141762Y507756D01*
X141729Y507850D01*
X141700Y507946D01*
X141675Y508042D01*
X141654Y508139D01*
X141636Y508238D01*
X141623Y508336D01*
X141613Y508436D01*
X141607Y508535D01*
X141605Y508635D01*
X144145Y506095D02*
X144286Y506097D01*
X144427Y506102D01*
X144568Y506112D01*
X144709Y506125D01*
X144849Y506141D01*
X144989Y506162D01*
X145128Y506186D01*
X145267Y506214D01*
X145404Y506245D01*
X145541Y506280D01*
X145677Y506318D01*
X145812Y506360D01*
X145945Y506406D01*
X146078Y506455D01*
X146209Y506508D01*
X146338Y506564D01*
X146467Y506623D01*
X146593Y506686D01*
X146718Y506752D01*
X146841Y506821D01*
X146962Y506894D01*
X147081Y506970D01*
X147199Y507049D01*
X147314Y507130D01*
X147426Y507215D01*
X147537Y507303D01*
X147645Y507394D01*
X147751Y507487D01*
X147854Y507584D01*
X147955Y507683D01*
X147638Y514985D02*
X147636Y515085D01*
X147630Y515184D01*
X147620Y515284D01*
X147607Y515382D01*
X147589Y515481D01*
X147568Y515578D01*
X147543Y515674D01*
X147514Y515770D01*
X147481Y515864D01*
X147445Y515957D01*
X147405Y516048D01*
X147361Y516138D01*
X147314Y516226D01*
X147264Y516312D01*
X147210Y516396D01*
X147153Y516478D01*
X147093Y516557D01*
X147029Y516635D01*
X146963Y516709D01*
X146894Y516781D01*
X146822Y516850D01*
X146748Y516916D01*
X146670Y516980D01*
X146591Y517040D01*
X146509Y517097D01*
X146425Y517151D01*
X146339Y517201D01*
X146251Y517248D01*
X146161Y517292D01*
X146070Y517332D01*
X145977Y517368D01*
X145883Y517401D01*
X145787Y517430D01*
X145691Y517455D01*
X145594Y517476D01*
X145495Y517494D01*
X145397Y517507D01*
X145297Y517517D01*
X145198Y517523D01*
X145098Y517525D01*
X145098Y517526D02*
X144965Y517524D01*
X144832Y517519D01*
X144699Y517509D01*
X144566Y517496D01*
X144434Y517479D01*
X144302Y517459D01*
X144171Y517435D01*
X144041Y517407D01*
X143911Y517376D01*
X143783Y517341D01*
X143655Y517302D01*
X143529Y517260D01*
X143404Y517214D01*
X143280Y517165D01*
X143157Y517113D01*
X143036Y517057D01*
X142917Y516997D01*
X142799Y516935D01*
X142684Y516869D01*
X142570Y516800D01*
X142458Y516727D01*
X142348Y516652D01*
X142240Y516573D01*
X146368Y512762D02*
X146452Y512814D01*
X146535Y512869D01*
X146615Y512928D01*
X146693Y512989D01*
X146768Y513053D01*
X146841Y513121D01*
X146912Y513191D01*
X146979Y513263D01*
X147044Y513338D01*
X147106Y513416D01*
X147165Y513496D01*
X147221Y513578D01*
X147273Y513662D01*
X147322Y513748D01*
X147368Y513836D01*
X147411Y513926D01*
X147450Y514017D01*
X147485Y514110D01*
X147517Y514204D01*
X147545Y514299D01*
X147570Y514395D01*
X147590Y514492D01*
X147608Y514590D01*
X147621Y514688D01*
X147630Y514787D01*
X147636Y514886D01*
X147638Y514985D01*
X142875Y510858D02*
X142791Y510806D01*
X142708Y510751D01*
X142628Y510692D01*
X142550Y510631D01*
X142475Y510567D01*
X142402Y510499D01*
X142331Y510429D01*
X142264Y510357D01*
X142199Y510282D01*
X142137Y510204D01*
X142078Y510124D01*
X142022Y510042D01*
X141970Y509958D01*
X141921Y509872D01*
X141875Y509784D01*
X141832Y509694D01*
X141793Y509603D01*
X141758Y509510D01*
X141726Y509416D01*
X141698Y509321D01*
X141673Y509225D01*
X141653Y509128D01*
X141635Y509030D01*
X141622Y508932D01*
X141613Y508833D01*
X141607Y508734D01*
X141605Y508635D01*
X142875Y510858D02*
X146368Y512763D01*
X136906Y508635D02*
X134366Y517525D01*
X136906Y508635D02*
X130556Y508635D01*
X132461Y511175D02*
X132461Y506095D01*
D11*
X1074420Y349250D02*
X1074425Y349686D01*
X1074441Y350122D01*
X1074468Y350558D01*
X1074506Y350993D01*
X1074554Y351426D01*
X1074612Y351859D01*
X1074682Y352290D01*
X1074762Y352719D01*
X1074852Y353146D01*
X1074953Y353570D01*
X1075064Y353992D01*
X1075186Y354411D01*
X1075317Y354827D01*
X1075459Y355240D01*
X1075611Y355649D01*
X1075773Y356054D01*
X1075945Y356455D01*
X1076127Y356852D01*
X1076318Y357244D01*
X1076519Y357631D01*
X1076730Y358014D01*
X1076950Y358391D01*
X1077179Y358762D01*
X1077416Y359128D01*
X1077663Y359488D01*
X1077919Y359842D01*
X1078183Y360189D01*
X1078456Y360530D01*
X1078737Y360863D01*
X1079026Y361190D01*
X1079323Y361510D01*
X1079628Y361822D01*
X1079940Y362127D01*
X1080260Y362424D01*
X1080587Y362713D01*
X1080920Y362994D01*
X1081261Y363267D01*
X1081608Y363531D01*
X1081962Y363787D01*
X1082322Y364034D01*
X1082688Y364271D01*
X1083059Y364500D01*
X1083436Y364720D01*
X1083819Y364931D01*
X1084206Y365132D01*
X1084598Y365323D01*
X1084995Y365505D01*
X1085396Y365677D01*
X1085801Y365839D01*
X1086210Y365991D01*
X1086623Y366133D01*
X1087039Y366264D01*
X1087458Y366386D01*
X1087880Y366497D01*
X1088304Y366598D01*
X1088731Y366688D01*
X1089160Y366768D01*
X1089591Y366838D01*
X1090024Y366896D01*
X1090457Y366944D01*
X1090892Y366982D01*
X1091328Y367009D01*
X1091764Y367025D01*
X1092200Y367030D01*
X1092636Y367025D01*
X1093072Y367009D01*
X1093508Y366982D01*
X1093943Y366944D01*
X1094376Y366896D01*
X1094809Y366838D01*
X1095240Y366768D01*
X1095669Y366688D01*
X1096096Y366598D01*
X1096520Y366497D01*
X1096942Y366386D01*
X1097361Y366264D01*
X1097777Y366133D01*
X1098190Y365991D01*
X1098599Y365839D01*
X1099004Y365677D01*
X1099405Y365505D01*
X1099802Y365323D01*
X1100194Y365132D01*
X1100581Y364931D01*
X1100964Y364720D01*
X1101341Y364500D01*
X1101712Y364271D01*
X1102078Y364034D01*
X1102438Y363787D01*
X1102792Y363531D01*
X1103139Y363267D01*
X1103480Y362994D01*
X1103813Y362713D01*
X1104140Y362424D01*
X1104460Y362127D01*
X1104772Y361822D01*
X1105077Y361510D01*
X1105374Y361190D01*
X1105663Y360863D01*
X1105944Y360530D01*
X1106217Y360189D01*
X1106481Y359842D01*
X1106737Y359488D01*
X1106984Y359128D01*
X1107221Y358762D01*
X1107450Y358391D01*
X1107670Y358014D01*
X1107881Y357631D01*
X1108082Y357244D01*
X1108273Y356852D01*
X1108455Y356455D01*
X1108627Y356054D01*
X1108789Y355649D01*
X1108941Y355240D01*
X1109083Y354827D01*
X1109214Y354411D01*
X1109336Y353992D01*
X1109447Y353570D01*
X1109548Y353146D01*
X1109638Y352719D01*
X1109718Y352290D01*
X1109788Y351859D01*
X1109846Y351426D01*
X1109894Y350993D01*
X1109932Y350558D01*
X1109959Y350122D01*
X1109975Y349686D01*
X1109980Y349250D01*
X1109975Y348814D01*
X1109959Y348378D01*
X1109932Y347942D01*
X1109894Y347507D01*
X1109846Y347074D01*
X1109788Y346641D01*
X1109718Y346210D01*
X1109638Y345781D01*
X1109548Y345354D01*
X1109447Y344930D01*
X1109336Y344508D01*
X1109214Y344089D01*
X1109083Y343673D01*
X1108941Y343260D01*
X1108789Y342851D01*
X1108627Y342446D01*
X1108455Y342045D01*
X1108273Y341648D01*
X1108082Y341256D01*
X1107881Y340869D01*
X1107670Y340486D01*
X1107450Y340109D01*
X1107221Y339738D01*
X1106984Y339372D01*
X1106737Y339012D01*
X1106481Y338658D01*
X1106217Y338311D01*
X1105944Y337970D01*
X1105663Y337637D01*
X1105374Y337310D01*
X1105077Y336990D01*
X1104772Y336678D01*
X1104460Y336373D01*
X1104140Y336076D01*
X1103813Y335787D01*
X1103480Y335506D01*
X1103139Y335233D01*
X1102792Y334969D01*
X1102438Y334713D01*
X1102078Y334466D01*
X1101712Y334229D01*
X1101341Y334000D01*
X1100964Y333780D01*
X1100581Y333569D01*
X1100194Y333368D01*
X1099802Y333177D01*
X1099405Y332995D01*
X1099004Y332823D01*
X1098599Y332661D01*
X1098190Y332509D01*
X1097777Y332367D01*
X1097361Y332236D01*
X1096942Y332114D01*
X1096520Y332003D01*
X1096096Y331902D01*
X1095669Y331812D01*
X1095240Y331732D01*
X1094809Y331662D01*
X1094376Y331604D01*
X1093943Y331556D01*
X1093508Y331518D01*
X1093072Y331491D01*
X1092636Y331475D01*
X1092200Y331470D01*
X1091764Y331475D01*
X1091328Y331491D01*
X1090892Y331518D01*
X1090457Y331556D01*
X1090024Y331604D01*
X1089591Y331662D01*
X1089160Y331732D01*
X1088731Y331812D01*
X1088304Y331902D01*
X1087880Y332003D01*
X1087458Y332114D01*
X1087039Y332236D01*
X1086623Y332367D01*
X1086210Y332509D01*
X1085801Y332661D01*
X1085396Y332823D01*
X1084995Y332995D01*
X1084598Y333177D01*
X1084206Y333368D01*
X1083819Y333569D01*
X1083436Y333780D01*
X1083059Y334000D01*
X1082688Y334229D01*
X1082322Y334466D01*
X1081962Y334713D01*
X1081608Y334969D01*
X1081261Y335233D01*
X1080920Y335506D01*
X1080587Y335787D01*
X1080260Y336076D01*
X1079940Y336373D01*
X1079628Y336678D01*
X1079323Y336990D01*
X1079026Y337310D01*
X1078737Y337637D01*
X1078456Y337970D01*
X1078183Y338311D01*
X1077919Y338658D01*
X1077663Y339012D01*
X1077416Y339372D01*
X1077179Y339738D01*
X1076950Y340109D01*
X1076730Y340486D01*
X1076519Y340869D01*
X1076318Y341256D01*
X1076127Y341648D01*
X1075945Y342045D01*
X1075773Y342446D01*
X1075611Y342851D01*
X1075459Y343260D01*
X1075317Y343673D01*
X1075186Y344089D01*
X1075064Y344508D01*
X1074953Y344930D01*
X1074852Y345354D01*
X1074762Y345781D01*
X1074682Y346210D01*
X1074612Y346641D01*
X1074554Y347074D01*
X1074506Y347507D01*
X1074468Y347942D01*
X1074441Y348378D01*
X1074425Y348814D01*
X1074420Y349250D01*
X1089660Y349250D02*
X1089662Y349350D01*
X1089668Y349451D01*
X1089678Y349550D01*
X1089692Y349650D01*
X1089709Y349749D01*
X1089731Y349847D01*
X1089757Y349944D01*
X1089786Y350040D01*
X1089819Y350134D01*
X1089856Y350228D01*
X1089896Y350320D01*
X1089940Y350410D01*
X1089988Y350498D01*
X1090039Y350585D01*
X1090093Y350669D01*
X1090151Y350751D01*
X1090212Y350831D01*
X1090276Y350908D01*
X1090343Y350983D01*
X1090413Y351055D01*
X1090486Y351124D01*
X1090561Y351190D01*
X1090639Y351254D01*
X1090719Y351314D01*
X1090802Y351371D01*
X1090887Y351424D01*
X1090974Y351474D01*
X1091063Y351521D01*
X1091153Y351564D01*
X1091245Y351604D01*
X1091339Y351640D01*
X1091434Y351672D01*
X1091530Y351700D01*
X1091628Y351725D01*
X1091726Y351745D01*
X1091825Y351762D01*
X1091925Y351775D01*
X1092024Y351784D01*
X1092125Y351789D01*
X1092225Y351790D01*
X1092325Y351787D01*
X1092426Y351780D01*
X1092525Y351769D01*
X1092625Y351754D01*
X1092723Y351736D01*
X1092821Y351713D01*
X1092918Y351686D01*
X1093013Y351656D01*
X1093108Y351622D01*
X1093201Y351584D01*
X1093292Y351543D01*
X1093382Y351498D01*
X1093470Y351450D01*
X1093556Y351398D01*
X1093640Y351343D01*
X1093721Y351284D01*
X1093800Y351222D01*
X1093877Y351158D01*
X1093951Y351090D01*
X1094022Y351019D01*
X1094091Y350946D01*
X1094156Y350870D01*
X1094219Y350791D01*
X1094278Y350710D01*
X1094334Y350627D01*
X1094387Y350542D01*
X1094436Y350454D01*
X1094482Y350365D01*
X1094524Y350274D01*
X1094563Y350181D01*
X1094598Y350087D01*
X1094629Y349992D01*
X1094657Y349895D01*
X1094680Y349798D01*
X1094700Y349699D01*
X1094716Y349600D01*
X1094728Y349501D01*
X1094736Y349400D01*
X1094740Y349300D01*
X1094740Y349200D01*
X1094736Y349100D01*
X1094728Y348999D01*
X1094716Y348900D01*
X1094700Y348801D01*
X1094680Y348702D01*
X1094657Y348605D01*
X1094629Y348508D01*
X1094598Y348413D01*
X1094563Y348319D01*
X1094524Y348226D01*
X1094482Y348135D01*
X1094436Y348046D01*
X1094387Y347958D01*
X1094334Y347873D01*
X1094278Y347790D01*
X1094219Y347709D01*
X1094156Y347630D01*
X1094091Y347554D01*
X1094022Y347481D01*
X1093951Y347410D01*
X1093877Y347342D01*
X1093800Y347278D01*
X1093721Y347216D01*
X1093640Y347157D01*
X1093556Y347102D01*
X1093470Y347050D01*
X1093382Y347002D01*
X1093292Y346957D01*
X1093201Y346916D01*
X1093108Y346878D01*
X1093013Y346844D01*
X1092918Y346814D01*
X1092821Y346787D01*
X1092723Y346764D01*
X1092625Y346746D01*
X1092525Y346731D01*
X1092426Y346720D01*
X1092325Y346713D01*
X1092225Y346710D01*
X1092125Y346711D01*
X1092024Y346716D01*
X1091925Y346725D01*
X1091825Y346738D01*
X1091726Y346755D01*
X1091628Y346775D01*
X1091530Y346800D01*
X1091434Y346828D01*
X1091339Y346860D01*
X1091245Y346896D01*
X1091153Y346936D01*
X1091063Y346979D01*
X1090974Y347026D01*
X1090887Y347076D01*
X1090802Y347129D01*
X1090719Y347186D01*
X1090639Y347246D01*
X1090561Y347310D01*
X1090486Y347376D01*
X1090413Y347445D01*
X1090343Y347517D01*
X1090276Y347592D01*
X1090212Y347669D01*
X1090151Y347749D01*
X1090093Y347831D01*
X1090039Y347915D01*
X1089988Y348002D01*
X1089940Y348090D01*
X1089896Y348180D01*
X1089856Y348272D01*
X1089819Y348366D01*
X1089786Y348460D01*
X1089757Y348556D01*
X1089731Y348653D01*
X1089709Y348751D01*
X1089692Y348850D01*
X1089678Y348950D01*
X1089668Y349049D01*
X1089662Y349150D01*
X1089660Y349250D01*
X1084580Y379730D02*
X1084580Y382270D01*
X1099820Y382270D01*
X1099820Y379730D01*
X1099820Y318770D02*
X1099820Y316230D01*
X1084580Y316230D01*
X1084580Y318770D01*
D12*
X1120140Y336550D02*
X1122680Y336550D01*
X1120140Y336550D02*
X1120140Y361950D01*
X1122680Y361950D01*
X1064260Y360680D02*
X1064260Y336550D01*
X1064260Y360680D02*
X1061720Y360680D01*
X1061720Y336550D02*
X1064260Y336550D01*
D11*
X1061720Y336550D02*
X1061720Y327660D01*
X1122680Y361950D02*
X1122680Y370840D01*
X1122680Y361950D02*
X1122680Y336550D01*
X1122680Y327660D01*
X1061720Y336550D02*
X1061720Y360680D01*
X1061720Y370840D01*
X1082040Y379730D02*
X1084580Y379730D01*
X1099820Y379730D02*
X1102360Y379730D01*
X1084580Y318770D02*
X1082040Y318770D01*
X1099820Y318770D02*
X1102360Y318770D01*
D10*
X1118306Y304038D02*
X1120902Y307284D01*
X1109218Y307284D01*
X1109218Y310529D02*
X1109218Y304038D01*
D13*
X1141095Y338455D02*
X1141097Y338355D01*
X1141103Y338256D01*
X1141113Y338156D01*
X1141126Y338058D01*
X1141144Y337959D01*
X1141165Y337862D01*
X1141190Y337766D01*
X1141219Y337670D01*
X1141252Y337576D01*
X1141288Y337483D01*
X1141328Y337392D01*
X1141372Y337302D01*
X1141419Y337214D01*
X1141469Y337128D01*
X1141523Y337044D01*
X1141580Y336962D01*
X1141640Y336883D01*
X1141704Y336805D01*
X1141770Y336731D01*
X1141839Y336659D01*
X1141911Y336590D01*
X1141985Y336524D01*
X1142063Y336460D01*
X1142142Y336400D01*
X1142224Y336343D01*
X1142308Y336289D01*
X1142394Y336239D01*
X1142482Y336192D01*
X1142572Y336148D01*
X1142663Y336108D01*
X1142756Y336072D01*
X1142850Y336039D01*
X1142946Y336010D01*
X1143042Y335985D01*
X1143139Y335964D01*
X1143238Y335946D01*
X1143336Y335933D01*
X1143436Y335923D01*
X1143535Y335917D01*
X1143635Y335915D01*
X1143776Y335917D01*
X1143917Y335922D01*
X1144058Y335932D01*
X1144199Y335945D01*
X1144339Y335961D01*
X1144479Y335982D01*
X1144618Y336006D01*
X1144757Y336034D01*
X1144894Y336065D01*
X1145031Y336100D01*
X1145167Y336138D01*
X1145302Y336180D01*
X1145435Y336226D01*
X1145568Y336275D01*
X1145699Y336328D01*
X1145828Y336384D01*
X1145957Y336443D01*
X1146083Y336506D01*
X1146208Y336572D01*
X1146331Y336641D01*
X1146452Y336714D01*
X1146571Y336790D01*
X1146689Y336869D01*
X1146804Y336950D01*
X1146916Y337035D01*
X1147027Y337123D01*
X1147135Y337214D01*
X1147241Y337307D01*
X1147344Y337404D01*
X1147445Y337503D01*
X1147128Y344805D02*
X1147126Y344905D01*
X1147120Y345004D01*
X1147110Y345104D01*
X1147097Y345202D01*
X1147079Y345301D01*
X1147058Y345398D01*
X1147033Y345494D01*
X1147004Y345590D01*
X1146971Y345684D01*
X1146935Y345777D01*
X1146895Y345868D01*
X1146851Y345958D01*
X1146804Y346046D01*
X1146754Y346132D01*
X1146700Y346216D01*
X1146643Y346298D01*
X1146583Y346377D01*
X1146519Y346455D01*
X1146453Y346529D01*
X1146384Y346601D01*
X1146312Y346670D01*
X1146238Y346736D01*
X1146160Y346800D01*
X1146081Y346860D01*
X1145999Y346917D01*
X1145915Y346971D01*
X1145829Y347021D01*
X1145741Y347068D01*
X1145651Y347112D01*
X1145560Y347152D01*
X1145467Y347188D01*
X1145373Y347221D01*
X1145277Y347250D01*
X1145181Y347275D01*
X1145084Y347296D01*
X1144985Y347314D01*
X1144887Y347327D01*
X1144787Y347337D01*
X1144688Y347343D01*
X1144588Y347345D01*
X1144588Y347346D02*
X1144455Y347344D01*
X1144322Y347339D01*
X1144189Y347329D01*
X1144056Y347316D01*
X1143924Y347299D01*
X1143792Y347279D01*
X1143661Y347255D01*
X1143531Y347227D01*
X1143401Y347196D01*
X1143273Y347161D01*
X1143145Y347122D01*
X1143019Y347080D01*
X1142894Y347034D01*
X1142770Y346985D01*
X1142647Y346933D01*
X1142526Y346877D01*
X1142407Y346817D01*
X1142289Y346755D01*
X1142174Y346689D01*
X1142060Y346620D01*
X1141948Y346547D01*
X1141838Y346472D01*
X1141730Y346393D01*
X1145858Y342582D02*
X1145942Y342634D01*
X1146025Y342689D01*
X1146105Y342748D01*
X1146183Y342809D01*
X1146258Y342873D01*
X1146331Y342941D01*
X1146402Y343011D01*
X1146469Y343083D01*
X1146534Y343158D01*
X1146596Y343236D01*
X1146655Y343316D01*
X1146711Y343398D01*
X1146763Y343482D01*
X1146812Y343568D01*
X1146858Y343656D01*
X1146901Y343746D01*
X1146940Y343837D01*
X1146975Y343930D01*
X1147007Y344024D01*
X1147035Y344119D01*
X1147060Y344215D01*
X1147080Y344312D01*
X1147098Y344410D01*
X1147111Y344508D01*
X1147120Y344607D01*
X1147126Y344706D01*
X1147128Y344805D01*
X1142365Y340678D02*
X1142281Y340626D01*
X1142198Y340571D01*
X1142118Y340512D01*
X1142040Y340451D01*
X1141965Y340387D01*
X1141892Y340319D01*
X1141821Y340249D01*
X1141754Y340177D01*
X1141689Y340102D01*
X1141627Y340024D01*
X1141568Y339944D01*
X1141512Y339862D01*
X1141460Y339778D01*
X1141411Y339692D01*
X1141365Y339604D01*
X1141322Y339514D01*
X1141283Y339423D01*
X1141248Y339330D01*
X1141216Y339236D01*
X1141188Y339141D01*
X1141163Y339045D01*
X1141143Y338948D01*
X1141125Y338850D01*
X1141112Y338752D01*
X1141103Y338653D01*
X1141097Y338554D01*
X1141095Y338455D01*
X1142365Y340678D02*
X1145858Y342583D01*
X1136396Y335915D02*
X1132586Y335915D01*
X1132486Y335917D01*
X1132387Y335923D01*
X1132287Y335933D01*
X1132189Y335946D01*
X1132090Y335964D01*
X1131993Y335985D01*
X1131897Y336010D01*
X1131801Y336039D01*
X1131707Y336072D01*
X1131614Y336108D01*
X1131523Y336148D01*
X1131433Y336192D01*
X1131345Y336239D01*
X1131259Y336289D01*
X1131175Y336343D01*
X1131093Y336400D01*
X1131014Y336460D01*
X1130936Y336524D01*
X1130862Y336590D01*
X1130790Y336659D01*
X1130721Y336731D01*
X1130655Y336805D01*
X1130591Y336883D01*
X1130531Y336962D01*
X1130474Y337044D01*
X1130420Y337128D01*
X1130370Y337214D01*
X1130323Y337302D01*
X1130279Y337392D01*
X1130239Y337483D01*
X1130203Y337576D01*
X1130170Y337670D01*
X1130141Y337766D01*
X1130116Y337862D01*
X1130095Y337959D01*
X1130077Y338058D01*
X1130064Y338156D01*
X1130054Y338256D01*
X1130048Y338355D01*
X1130046Y338455D01*
X1130046Y339725D01*
X1130048Y339825D01*
X1130054Y339924D01*
X1130064Y340024D01*
X1130077Y340122D01*
X1130095Y340221D01*
X1130116Y340318D01*
X1130141Y340414D01*
X1130170Y340510D01*
X1130203Y340604D01*
X1130239Y340697D01*
X1130279Y340788D01*
X1130323Y340878D01*
X1130370Y340966D01*
X1130420Y341052D01*
X1130474Y341136D01*
X1130531Y341218D01*
X1130591Y341297D01*
X1130655Y341375D01*
X1130721Y341449D01*
X1130790Y341521D01*
X1130862Y341590D01*
X1130936Y341656D01*
X1131014Y341720D01*
X1131093Y341780D01*
X1131175Y341837D01*
X1131259Y341891D01*
X1131345Y341941D01*
X1131433Y341988D01*
X1131523Y342032D01*
X1131614Y342072D01*
X1131707Y342108D01*
X1131801Y342141D01*
X1131897Y342170D01*
X1131993Y342195D01*
X1132090Y342216D01*
X1132189Y342234D01*
X1132287Y342247D01*
X1132387Y342257D01*
X1132486Y342263D01*
X1132586Y342265D01*
X1136396Y342265D01*
X1136396Y347345D01*
X1130046Y347345D01*
D11*
X166370Y355600D02*
X166375Y356036D01*
X166391Y356472D01*
X166418Y356908D01*
X166456Y357343D01*
X166504Y357776D01*
X166562Y358209D01*
X166632Y358640D01*
X166712Y359069D01*
X166802Y359496D01*
X166903Y359920D01*
X167014Y360342D01*
X167136Y360761D01*
X167267Y361177D01*
X167409Y361590D01*
X167561Y361999D01*
X167723Y362404D01*
X167895Y362805D01*
X168077Y363202D01*
X168268Y363594D01*
X168469Y363981D01*
X168680Y364364D01*
X168900Y364741D01*
X169129Y365112D01*
X169366Y365478D01*
X169613Y365838D01*
X169869Y366192D01*
X170133Y366539D01*
X170406Y366880D01*
X170687Y367213D01*
X170976Y367540D01*
X171273Y367860D01*
X171578Y368172D01*
X171890Y368477D01*
X172210Y368774D01*
X172537Y369063D01*
X172870Y369344D01*
X173211Y369617D01*
X173558Y369881D01*
X173912Y370137D01*
X174272Y370384D01*
X174638Y370621D01*
X175009Y370850D01*
X175386Y371070D01*
X175769Y371281D01*
X176156Y371482D01*
X176548Y371673D01*
X176945Y371855D01*
X177346Y372027D01*
X177751Y372189D01*
X178160Y372341D01*
X178573Y372483D01*
X178989Y372614D01*
X179408Y372736D01*
X179830Y372847D01*
X180254Y372948D01*
X180681Y373038D01*
X181110Y373118D01*
X181541Y373188D01*
X181974Y373246D01*
X182407Y373294D01*
X182842Y373332D01*
X183278Y373359D01*
X183714Y373375D01*
X184150Y373380D01*
X184586Y373375D01*
X185022Y373359D01*
X185458Y373332D01*
X185893Y373294D01*
X186326Y373246D01*
X186759Y373188D01*
X187190Y373118D01*
X187619Y373038D01*
X188046Y372948D01*
X188470Y372847D01*
X188892Y372736D01*
X189311Y372614D01*
X189727Y372483D01*
X190140Y372341D01*
X190549Y372189D01*
X190954Y372027D01*
X191355Y371855D01*
X191752Y371673D01*
X192144Y371482D01*
X192531Y371281D01*
X192914Y371070D01*
X193291Y370850D01*
X193662Y370621D01*
X194028Y370384D01*
X194388Y370137D01*
X194742Y369881D01*
X195089Y369617D01*
X195430Y369344D01*
X195763Y369063D01*
X196090Y368774D01*
X196410Y368477D01*
X196722Y368172D01*
X197027Y367860D01*
X197324Y367540D01*
X197613Y367213D01*
X197894Y366880D01*
X198167Y366539D01*
X198431Y366192D01*
X198687Y365838D01*
X198934Y365478D01*
X199171Y365112D01*
X199400Y364741D01*
X199620Y364364D01*
X199831Y363981D01*
X200032Y363594D01*
X200223Y363202D01*
X200405Y362805D01*
X200577Y362404D01*
X200739Y361999D01*
X200891Y361590D01*
X201033Y361177D01*
X201164Y360761D01*
X201286Y360342D01*
X201397Y359920D01*
X201498Y359496D01*
X201588Y359069D01*
X201668Y358640D01*
X201738Y358209D01*
X201796Y357776D01*
X201844Y357343D01*
X201882Y356908D01*
X201909Y356472D01*
X201925Y356036D01*
X201930Y355600D01*
X201925Y355164D01*
X201909Y354728D01*
X201882Y354292D01*
X201844Y353857D01*
X201796Y353424D01*
X201738Y352991D01*
X201668Y352560D01*
X201588Y352131D01*
X201498Y351704D01*
X201397Y351280D01*
X201286Y350858D01*
X201164Y350439D01*
X201033Y350023D01*
X200891Y349610D01*
X200739Y349201D01*
X200577Y348796D01*
X200405Y348395D01*
X200223Y347998D01*
X200032Y347606D01*
X199831Y347219D01*
X199620Y346836D01*
X199400Y346459D01*
X199171Y346088D01*
X198934Y345722D01*
X198687Y345362D01*
X198431Y345008D01*
X198167Y344661D01*
X197894Y344320D01*
X197613Y343987D01*
X197324Y343660D01*
X197027Y343340D01*
X196722Y343028D01*
X196410Y342723D01*
X196090Y342426D01*
X195763Y342137D01*
X195430Y341856D01*
X195089Y341583D01*
X194742Y341319D01*
X194388Y341063D01*
X194028Y340816D01*
X193662Y340579D01*
X193291Y340350D01*
X192914Y340130D01*
X192531Y339919D01*
X192144Y339718D01*
X191752Y339527D01*
X191355Y339345D01*
X190954Y339173D01*
X190549Y339011D01*
X190140Y338859D01*
X189727Y338717D01*
X189311Y338586D01*
X188892Y338464D01*
X188470Y338353D01*
X188046Y338252D01*
X187619Y338162D01*
X187190Y338082D01*
X186759Y338012D01*
X186326Y337954D01*
X185893Y337906D01*
X185458Y337868D01*
X185022Y337841D01*
X184586Y337825D01*
X184150Y337820D01*
X183714Y337825D01*
X183278Y337841D01*
X182842Y337868D01*
X182407Y337906D01*
X181974Y337954D01*
X181541Y338012D01*
X181110Y338082D01*
X180681Y338162D01*
X180254Y338252D01*
X179830Y338353D01*
X179408Y338464D01*
X178989Y338586D01*
X178573Y338717D01*
X178160Y338859D01*
X177751Y339011D01*
X177346Y339173D01*
X176945Y339345D01*
X176548Y339527D01*
X176156Y339718D01*
X175769Y339919D01*
X175386Y340130D01*
X175009Y340350D01*
X174638Y340579D01*
X174272Y340816D01*
X173912Y341063D01*
X173558Y341319D01*
X173211Y341583D01*
X172870Y341856D01*
X172537Y342137D01*
X172210Y342426D01*
X171890Y342723D01*
X171578Y343028D01*
X171273Y343340D01*
X170976Y343660D01*
X170687Y343987D01*
X170406Y344320D01*
X170133Y344661D01*
X169869Y345008D01*
X169613Y345362D01*
X169366Y345722D01*
X169129Y346088D01*
X168900Y346459D01*
X168680Y346836D01*
X168469Y347219D01*
X168268Y347606D01*
X168077Y347998D01*
X167895Y348395D01*
X167723Y348796D01*
X167561Y349201D01*
X167409Y349610D01*
X167267Y350023D01*
X167136Y350439D01*
X167014Y350858D01*
X166903Y351280D01*
X166802Y351704D01*
X166712Y352131D01*
X166632Y352560D01*
X166562Y352991D01*
X166504Y353424D01*
X166456Y353857D01*
X166418Y354292D01*
X166391Y354728D01*
X166375Y355164D01*
X166370Y355600D01*
X181610Y355600D02*
X181612Y355700D01*
X181618Y355801D01*
X181628Y355900D01*
X181642Y356000D01*
X181659Y356099D01*
X181681Y356197D01*
X181707Y356294D01*
X181736Y356390D01*
X181769Y356484D01*
X181806Y356578D01*
X181846Y356670D01*
X181890Y356760D01*
X181938Y356848D01*
X181989Y356935D01*
X182043Y357019D01*
X182101Y357101D01*
X182162Y357181D01*
X182226Y357258D01*
X182293Y357333D01*
X182363Y357405D01*
X182436Y357474D01*
X182511Y357540D01*
X182589Y357604D01*
X182669Y357664D01*
X182752Y357721D01*
X182837Y357774D01*
X182924Y357824D01*
X183013Y357871D01*
X183103Y357914D01*
X183195Y357954D01*
X183289Y357990D01*
X183384Y358022D01*
X183480Y358050D01*
X183578Y358075D01*
X183676Y358095D01*
X183775Y358112D01*
X183875Y358125D01*
X183974Y358134D01*
X184075Y358139D01*
X184175Y358140D01*
X184275Y358137D01*
X184376Y358130D01*
X184475Y358119D01*
X184575Y358104D01*
X184673Y358086D01*
X184771Y358063D01*
X184868Y358036D01*
X184963Y358006D01*
X185058Y357972D01*
X185151Y357934D01*
X185242Y357893D01*
X185332Y357848D01*
X185420Y357800D01*
X185506Y357748D01*
X185590Y357693D01*
X185671Y357634D01*
X185750Y357572D01*
X185827Y357508D01*
X185901Y357440D01*
X185972Y357369D01*
X186041Y357296D01*
X186106Y357220D01*
X186169Y357141D01*
X186228Y357060D01*
X186284Y356977D01*
X186337Y356892D01*
X186386Y356804D01*
X186432Y356715D01*
X186474Y356624D01*
X186513Y356531D01*
X186548Y356437D01*
X186579Y356342D01*
X186607Y356245D01*
X186630Y356148D01*
X186650Y356049D01*
X186666Y355950D01*
X186678Y355851D01*
X186686Y355750D01*
X186690Y355650D01*
X186690Y355550D01*
X186686Y355450D01*
X186678Y355349D01*
X186666Y355250D01*
X186650Y355151D01*
X186630Y355052D01*
X186607Y354955D01*
X186579Y354858D01*
X186548Y354763D01*
X186513Y354669D01*
X186474Y354576D01*
X186432Y354485D01*
X186386Y354396D01*
X186337Y354308D01*
X186284Y354223D01*
X186228Y354140D01*
X186169Y354059D01*
X186106Y353980D01*
X186041Y353904D01*
X185972Y353831D01*
X185901Y353760D01*
X185827Y353692D01*
X185750Y353628D01*
X185671Y353566D01*
X185590Y353507D01*
X185506Y353452D01*
X185420Y353400D01*
X185332Y353352D01*
X185242Y353307D01*
X185151Y353266D01*
X185058Y353228D01*
X184963Y353194D01*
X184868Y353164D01*
X184771Y353137D01*
X184673Y353114D01*
X184575Y353096D01*
X184475Y353081D01*
X184376Y353070D01*
X184275Y353063D01*
X184175Y353060D01*
X184075Y353061D01*
X183974Y353066D01*
X183875Y353075D01*
X183775Y353088D01*
X183676Y353105D01*
X183578Y353125D01*
X183480Y353150D01*
X183384Y353178D01*
X183289Y353210D01*
X183195Y353246D01*
X183103Y353286D01*
X183013Y353329D01*
X182924Y353376D01*
X182837Y353426D01*
X182752Y353479D01*
X182669Y353536D01*
X182589Y353596D01*
X182511Y353660D01*
X182436Y353726D01*
X182363Y353795D01*
X182293Y353867D01*
X182226Y353942D01*
X182162Y354019D01*
X182101Y354099D01*
X182043Y354181D01*
X181989Y354265D01*
X181938Y354352D01*
X181890Y354440D01*
X181846Y354530D01*
X181806Y354622D01*
X181769Y354716D01*
X181736Y354810D01*
X181707Y354906D01*
X181681Y355003D01*
X181659Y355101D01*
X181642Y355200D01*
X181628Y355300D01*
X181618Y355399D01*
X181612Y355500D01*
X181610Y355600D01*
X176530Y386080D02*
X176530Y388620D01*
X191770Y388620D01*
X191770Y386080D01*
X191770Y325120D02*
X191770Y322580D01*
X176530Y322580D01*
X176530Y325120D01*
D12*
X212090Y342900D02*
X214630Y342900D01*
X212090Y342900D02*
X212090Y368300D01*
X214630Y368300D01*
X156210Y367030D02*
X156210Y342900D01*
X156210Y367030D02*
X153670Y367030D01*
X153670Y342900D02*
X156210Y342900D01*
D11*
X153670Y342900D02*
X153670Y334010D01*
X214630Y368300D02*
X214630Y377190D01*
X214630Y368300D02*
X214630Y342900D01*
X214630Y334010D01*
X153670Y342900D02*
X153670Y367030D01*
X153670Y377190D01*
X173990Y386080D02*
X176530Y386080D01*
X191770Y386080D02*
X194310Y386080D01*
X176530Y325120D02*
X173990Y325120D01*
X191770Y325120D02*
X194310Y325120D01*
D10*
X210256Y310388D02*
X212852Y313634D01*
X201168Y313634D01*
X201168Y316879D02*
X201168Y310388D01*
D13*
X237744Y351155D02*
X237644Y351157D01*
X237545Y351163D01*
X237445Y351173D01*
X237347Y351186D01*
X237248Y351204D01*
X237151Y351225D01*
X237055Y351250D01*
X236959Y351279D01*
X236865Y351312D01*
X236772Y351348D01*
X236681Y351388D01*
X236591Y351432D01*
X236503Y351479D01*
X236417Y351529D01*
X236333Y351583D01*
X236251Y351640D01*
X236172Y351700D01*
X236094Y351764D01*
X236020Y351830D01*
X235948Y351899D01*
X235879Y351971D01*
X235813Y352045D01*
X235749Y352123D01*
X235689Y352202D01*
X235632Y352284D01*
X235578Y352368D01*
X235528Y352454D01*
X235481Y352542D01*
X235437Y352632D01*
X235397Y352723D01*
X235361Y352816D01*
X235328Y352910D01*
X235299Y353006D01*
X235274Y353102D01*
X235253Y353199D01*
X235235Y353298D01*
X235222Y353396D01*
X235212Y353496D01*
X235206Y353595D01*
X235204Y353695D01*
X237744Y351155D02*
X237885Y351157D01*
X238026Y351162D01*
X238167Y351172D01*
X238308Y351185D01*
X238448Y351201D01*
X238588Y351222D01*
X238727Y351246D01*
X238866Y351274D01*
X239003Y351305D01*
X239140Y351340D01*
X239276Y351378D01*
X239411Y351420D01*
X239544Y351466D01*
X239677Y351515D01*
X239808Y351568D01*
X239937Y351624D01*
X240066Y351683D01*
X240192Y351746D01*
X240317Y351812D01*
X240440Y351881D01*
X240561Y351954D01*
X240680Y352030D01*
X240798Y352109D01*
X240913Y352190D01*
X241025Y352275D01*
X241136Y352363D01*
X241244Y352454D01*
X241350Y352547D01*
X241453Y352644D01*
X241554Y352743D01*
X241237Y360045D02*
X241235Y360145D01*
X241229Y360244D01*
X241219Y360344D01*
X241206Y360442D01*
X241188Y360541D01*
X241167Y360638D01*
X241142Y360734D01*
X241113Y360830D01*
X241080Y360924D01*
X241044Y361017D01*
X241004Y361108D01*
X240960Y361198D01*
X240913Y361286D01*
X240863Y361372D01*
X240809Y361456D01*
X240752Y361538D01*
X240692Y361617D01*
X240628Y361695D01*
X240562Y361769D01*
X240493Y361841D01*
X240421Y361910D01*
X240347Y361976D01*
X240269Y362040D01*
X240190Y362100D01*
X240108Y362157D01*
X240024Y362211D01*
X239938Y362261D01*
X239850Y362308D01*
X239760Y362352D01*
X239669Y362392D01*
X239576Y362428D01*
X239482Y362461D01*
X239386Y362490D01*
X239290Y362515D01*
X239193Y362536D01*
X239094Y362554D01*
X238996Y362567D01*
X238896Y362577D01*
X238797Y362583D01*
X238697Y362585D01*
X238697Y362586D02*
X238564Y362584D01*
X238431Y362579D01*
X238298Y362569D01*
X238165Y362556D01*
X238033Y362539D01*
X237901Y362519D01*
X237770Y362495D01*
X237640Y362467D01*
X237510Y362436D01*
X237382Y362401D01*
X237254Y362362D01*
X237128Y362320D01*
X237003Y362274D01*
X236879Y362225D01*
X236756Y362173D01*
X236635Y362117D01*
X236516Y362057D01*
X236398Y361995D01*
X236283Y361929D01*
X236169Y361860D01*
X236057Y361787D01*
X235947Y361712D01*
X235839Y361633D01*
X239967Y357822D02*
X240051Y357874D01*
X240134Y357929D01*
X240214Y357988D01*
X240292Y358049D01*
X240367Y358113D01*
X240440Y358181D01*
X240511Y358251D01*
X240578Y358323D01*
X240643Y358398D01*
X240705Y358476D01*
X240764Y358556D01*
X240820Y358638D01*
X240872Y358722D01*
X240921Y358808D01*
X240967Y358896D01*
X241010Y358986D01*
X241049Y359077D01*
X241084Y359170D01*
X241116Y359264D01*
X241144Y359359D01*
X241169Y359455D01*
X241189Y359552D01*
X241207Y359650D01*
X241220Y359748D01*
X241229Y359847D01*
X241235Y359946D01*
X241237Y360045D01*
X236474Y355918D02*
X236390Y355866D01*
X236307Y355811D01*
X236227Y355752D01*
X236149Y355691D01*
X236074Y355627D01*
X236001Y355559D01*
X235930Y355489D01*
X235863Y355417D01*
X235798Y355342D01*
X235736Y355264D01*
X235677Y355184D01*
X235621Y355102D01*
X235569Y355018D01*
X235520Y354932D01*
X235474Y354844D01*
X235431Y354754D01*
X235392Y354663D01*
X235357Y354570D01*
X235325Y354476D01*
X235297Y354381D01*
X235272Y354285D01*
X235252Y354188D01*
X235234Y354090D01*
X235221Y353992D01*
X235212Y353893D01*
X235206Y353794D01*
X235204Y353695D01*
X236474Y355918D02*
X239967Y357823D01*
X230505Y357505D02*
X226695Y357505D01*
X226595Y357503D01*
X226496Y357497D01*
X226396Y357487D01*
X226298Y357474D01*
X226199Y357456D01*
X226102Y357435D01*
X226006Y357410D01*
X225910Y357381D01*
X225816Y357348D01*
X225723Y357312D01*
X225632Y357272D01*
X225542Y357228D01*
X225454Y357181D01*
X225368Y357131D01*
X225284Y357077D01*
X225202Y357020D01*
X225123Y356960D01*
X225045Y356896D01*
X224971Y356830D01*
X224899Y356761D01*
X224830Y356689D01*
X224764Y356615D01*
X224700Y356537D01*
X224640Y356458D01*
X224583Y356376D01*
X224529Y356292D01*
X224479Y356206D01*
X224432Y356118D01*
X224388Y356028D01*
X224348Y355937D01*
X224312Y355844D01*
X224279Y355750D01*
X224250Y355654D01*
X224225Y355558D01*
X224204Y355461D01*
X224186Y355362D01*
X224173Y355264D01*
X224163Y355164D01*
X224157Y355065D01*
X224155Y354965D01*
X224155Y354330D01*
X224157Y354219D01*
X224163Y354109D01*
X224172Y353998D01*
X224186Y353888D01*
X224203Y353779D01*
X224224Y353670D01*
X224249Y353562D01*
X224278Y353455D01*
X224310Y353349D01*
X224346Y353244D01*
X224386Y353141D01*
X224429Y353039D01*
X224476Y352938D01*
X224527Y352839D01*
X224580Y352743D01*
X224637Y352648D01*
X224698Y352555D01*
X224761Y352464D01*
X224828Y352375D01*
X224898Y352289D01*
X224971Y352206D01*
X225046Y352124D01*
X225124Y352046D01*
X225206Y351971D01*
X225289Y351898D01*
X225375Y351828D01*
X225464Y351761D01*
X225555Y351698D01*
X225648Y351637D01*
X225743Y351580D01*
X225839Y351527D01*
X225938Y351476D01*
X226039Y351429D01*
X226141Y351386D01*
X226244Y351346D01*
X226349Y351310D01*
X226455Y351278D01*
X226562Y351249D01*
X226670Y351224D01*
X226779Y351203D01*
X226888Y351186D01*
X226998Y351172D01*
X227109Y351163D01*
X227219Y351157D01*
X227330Y351155D01*
X227441Y351157D01*
X227551Y351163D01*
X227662Y351172D01*
X227772Y351186D01*
X227881Y351203D01*
X227990Y351224D01*
X228098Y351249D01*
X228205Y351278D01*
X228311Y351310D01*
X228416Y351346D01*
X228519Y351386D01*
X228621Y351429D01*
X228722Y351476D01*
X228821Y351527D01*
X228917Y351580D01*
X229012Y351637D01*
X229105Y351698D01*
X229196Y351761D01*
X229285Y351828D01*
X229371Y351898D01*
X229454Y351971D01*
X229536Y352046D01*
X229614Y352124D01*
X229689Y352206D01*
X229762Y352289D01*
X229832Y352375D01*
X229899Y352464D01*
X229962Y352555D01*
X230023Y352648D01*
X230080Y352742D01*
X230133Y352839D01*
X230184Y352938D01*
X230231Y353039D01*
X230274Y353141D01*
X230314Y353244D01*
X230350Y353349D01*
X230382Y353455D01*
X230411Y353562D01*
X230436Y353670D01*
X230457Y353779D01*
X230474Y353888D01*
X230488Y353998D01*
X230497Y354109D01*
X230503Y354219D01*
X230505Y354330D01*
X230505Y357505D01*
X230503Y357645D01*
X230497Y357785D01*
X230488Y357925D01*
X230474Y358064D01*
X230457Y358203D01*
X230436Y358341D01*
X230411Y358479D01*
X230382Y358616D01*
X230350Y358752D01*
X230313Y358887D01*
X230273Y359021D01*
X230230Y359154D01*
X230182Y359286D01*
X230132Y359417D01*
X230077Y359546D01*
X230019Y359673D01*
X229958Y359799D01*
X229893Y359923D01*
X229824Y360045D01*
X229753Y360165D01*
X229678Y360283D01*
X229600Y360400D01*
X229518Y360514D01*
X229434Y360625D01*
X229346Y360734D01*
X229256Y360841D01*
X229162Y360946D01*
X229066Y361047D01*
X228967Y361146D01*
X228866Y361242D01*
X228761Y361336D01*
X228654Y361426D01*
X228545Y361514D01*
X228434Y361598D01*
X228320Y361680D01*
X228203Y361758D01*
X228085Y361833D01*
X227965Y361904D01*
X227843Y361973D01*
X227719Y362038D01*
X227593Y362099D01*
X227466Y362157D01*
X227337Y362212D01*
X227206Y362262D01*
X227074Y362310D01*
X226941Y362353D01*
X226807Y362393D01*
X226672Y362430D01*
X226536Y362462D01*
X226399Y362491D01*
X226261Y362516D01*
X226123Y362537D01*
X225984Y362554D01*
X225845Y362568D01*
X225705Y362577D01*
X225565Y362583D01*
X225425Y362585D01*
D11*
X477520Y196850D02*
X477525Y197286D01*
X477541Y197722D01*
X477568Y198158D01*
X477606Y198593D01*
X477654Y199026D01*
X477712Y199459D01*
X477782Y199890D01*
X477862Y200319D01*
X477952Y200746D01*
X478053Y201170D01*
X478164Y201592D01*
X478286Y202011D01*
X478417Y202427D01*
X478559Y202840D01*
X478711Y203249D01*
X478873Y203654D01*
X479045Y204055D01*
X479227Y204452D01*
X479418Y204844D01*
X479619Y205231D01*
X479830Y205614D01*
X480050Y205991D01*
X480279Y206362D01*
X480516Y206728D01*
X480763Y207088D01*
X481019Y207442D01*
X481283Y207789D01*
X481556Y208130D01*
X481837Y208463D01*
X482126Y208790D01*
X482423Y209110D01*
X482728Y209422D01*
X483040Y209727D01*
X483360Y210024D01*
X483687Y210313D01*
X484020Y210594D01*
X484361Y210867D01*
X484708Y211131D01*
X485062Y211387D01*
X485422Y211634D01*
X485788Y211871D01*
X486159Y212100D01*
X486536Y212320D01*
X486919Y212531D01*
X487306Y212732D01*
X487698Y212923D01*
X488095Y213105D01*
X488496Y213277D01*
X488901Y213439D01*
X489310Y213591D01*
X489723Y213733D01*
X490139Y213864D01*
X490558Y213986D01*
X490980Y214097D01*
X491404Y214198D01*
X491831Y214288D01*
X492260Y214368D01*
X492691Y214438D01*
X493124Y214496D01*
X493557Y214544D01*
X493992Y214582D01*
X494428Y214609D01*
X494864Y214625D01*
X495300Y214630D01*
X495736Y214625D01*
X496172Y214609D01*
X496608Y214582D01*
X497043Y214544D01*
X497476Y214496D01*
X497909Y214438D01*
X498340Y214368D01*
X498769Y214288D01*
X499196Y214198D01*
X499620Y214097D01*
X500042Y213986D01*
X500461Y213864D01*
X500877Y213733D01*
X501290Y213591D01*
X501699Y213439D01*
X502104Y213277D01*
X502505Y213105D01*
X502902Y212923D01*
X503294Y212732D01*
X503681Y212531D01*
X504064Y212320D01*
X504441Y212100D01*
X504812Y211871D01*
X505178Y211634D01*
X505538Y211387D01*
X505892Y211131D01*
X506239Y210867D01*
X506580Y210594D01*
X506913Y210313D01*
X507240Y210024D01*
X507560Y209727D01*
X507872Y209422D01*
X508177Y209110D01*
X508474Y208790D01*
X508763Y208463D01*
X509044Y208130D01*
X509317Y207789D01*
X509581Y207442D01*
X509837Y207088D01*
X510084Y206728D01*
X510321Y206362D01*
X510550Y205991D01*
X510770Y205614D01*
X510981Y205231D01*
X511182Y204844D01*
X511373Y204452D01*
X511555Y204055D01*
X511727Y203654D01*
X511889Y203249D01*
X512041Y202840D01*
X512183Y202427D01*
X512314Y202011D01*
X512436Y201592D01*
X512547Y201170D01*
X512648Y200746D01*
X512738Y200319D01*
X512818Y199890D01*
X512888Y199459D01*
X512946Y199026D01*
X512994Y198593D01*
X513032Y198158D01*
X513059Y197722D01*
X513075Y197286D01*
X513080Y196850D01*
X513075Y196414D01*
X513059Y195978D01*
X513032Y195542D01*
X512994Y195107D01*
X512946Y194674D01*
X512888Y194241D01*
X512818Y193810D01*
X512738Y193381D01*
X512648Y192954D01*
X512547Y192530D01*
X512436Y192108D01*
X512314Y191689D01*
X512183Y191273D01*
X512041Y190860D01*
X511889Y190451D01*
X511727Y190046D01*
X511555Y189645D01*
X511373Y189248D01*
X511182Y188856D01*
X510981Y188469D01*
X510770Y188086D01*
X510550Y187709D01*
X510321Y187338D01*
X510084Y186972D01*
X509837Y186612D01*
X509581Y186258D01*
X509317Y185911D01*
X509044Y185570D01*
X508763Y185237D01*
X508474Y184910D01*
X508177Y184590D01*
X507872Y184278D01*
X507560Y183973D01*
X507240Y183676D01*
X506913Y183387D01*
X506580Y183106D01*
X506239Y182833D01*
X505892Y182569D01*
X505538Y182313D01*
X505178Y182066D01*
X504812Y181829D01*
X504441Y181600D01*
X504064Y181380D01*
X503681Y181169D01*
X503294Y180968D01*
X502902Y180777D01*
X502505Y180595D01*
X502104Y180423D01*
X501699Y180261D01*
X501290Y180109D01*
X500877Y179967D01*
X500461Y179836D01*
X500042Y179714D01*
X499620Y179603D01*
X499196Y179502D01*
X498769Y179412D01*
X498340Y179332D01*
X497909Y179262D01*
X497476Y179204D01*
X497043Y179156D01*
X496608Y179118D01*
X496172Y179091D01*
X495736Y179075D01*
X495300Y179070D01*
X494864Y179075D01*
X494428Y179091D01*
X493992Y179118D01*
X493557Y179156D01*
X493124Y179204D01*
X492691Y179262D01*
X492260Y179332D01*
X491831Y179412D01*
X491404Y179502D01*
X490980Y179603D01*
X490558Y179714D01*
X490139Y179836D01*
X489723Y179967D01*
X489310Y180109D01*
X488901Y180261D01*
X488496Y180423D01*
X488095Y180595D01*
X487698Y180777D01*
X487306Y180968D01*
X486919Y181169D01*
X486536Y181380D01*
X486159Y181600D01*
X485788Y181829D01*
X485422Y182066D01*
X485062Y182313D01*
X484708Y182569D01*
X484361Y182833D01*
X484020Y183106D01*
X483687Y183387D01*
X483360Y183676D01*
X483040Y183973D01*
X482728Y184278D01*
X482423Y184590D01*
X482126Y184910D01*
X481837Y185237D01*
X481556Y185570D01*
X481283Y185911D01*
X481019Y186258D01*
X480763Y186612D01*
X480516Y186972D01*
X480279Y187338D01*
X480050Y187709D01*
X479830Y188086D01*
X479619Y188469D01*
X479418Y188856D01*
X479227Y189248D01*
X479045Y189645D01*
X478873Y190046D01*
X478711Y190451D01*
X478559Y190860D01*
X478417Y191273D01*
X478286Y191689D01*
X478164Y192108D01*
X478053Y192530D01*
X477952Y192954D01*
X477862Y193381D01*
X477782Y193810D01*
X477712Y194241D01*
X477654Y194674D01*
X477606Y195107D01*
X477568Y195542D01*
X477541Y195978D01*
X477525Y196414D01*
X477520Y196850D01*
X492760Y196850D02*
X492762Y196950D01*
X492768Y197051D01*
X492778Y197150D01*
X492792Y197250D01*
X492809Y197349D01*
X492831Y197447D01*
X492857Y197544D01*
X492886Y197640D01*
X492919Y197734D01*
X492956Y197828D01*
X492996Y197920D01*
X493040Y198010D01*
X493088Y198098D01*
X493139Y198185D01*
X493193Y198269D01*
X493251Y198351D01*
X493312Y198431D01*
X493376Y198508D01*
X493443Y198583D01*
X493513Y198655D01*
X493586Y198724D01*
X493661Y198790D01*
X493739Y198854D01*
X493819Y198914D01*
X493902Y198971D01*
X493987Y199024D01*
X494074Y199074D01*
X494163Y199121D01*
X494253Y199164D01*
X494345Y199204D01*
X494439Y199240D01*
X494534Y199272D01*
X494630Y199300D01*
X494728Y199325D01*
X494826Y199345D01*
X494925Y199362D01*
X495025Y199375D01*
X495124Y199384D01*
X495225Y199389D01*
X495325Y199390D01*
X495425Y199387D01*
X495526Y199380D01*
X495625Y199369D01*
X495725Y199354D01*
X495823Y199336D01*
X495921Y199313D01*
X496018Y199286D01*
X496113Y199256D01*
X496208Y199222D01*
X496301Y199184D01*
X496392Y199143D01*
X496482Y199098D01*
X496570Y199050D01*
X496656Y198998D01*
X496740Y198943D01*
X496821Y198884D01*
X496900Y198822D01*
X496977Y198758D01*
X497051Y198690D01*
X497122Y198619D01*
X497191Y198546D01*
X497256Y198470D01*
X497319Y198391D01*
X497378Y198310D01*
X497434Y198227D01*
X497487Y198142D01*
X497536Y198054D01*
X497582Y197965D01*
X497624Y197874D01*
X497663Y197781D01*
X497698Y197687D01*
X497729Y197592D01*
X497757Y197495D01*
X497780Y197398D01*
X497800Y197299D01*
X497816Y197200D01*
X497828Y197101D01*
X497836Y197000D01*
X497840Y196900D01*
X497840Y196800D01*
X497836Y196700D01*
X497828Y196599D01*
X497816Y196500D01*
X497800Y196401D01*
X497780Y196302D01*
X497757Y196205D01*
X497729Y196108D01*
X497698Y196013D01*
X497663Y195919D01*
X497624Y195826D01*
X497582Y195735D01*
X497536Y195646D01*
X497487Y195558D01*
X497434Y195473D01*
X497378Y195390D01*
X497319Y195309D01*
X497256Y195230D01*
X497191Y195154D01*
X497122Y195081D01*
X497051Y195010D01*
X496977Y194942D01*
X496900Y194878D01*
X496821Y194816D01*
X496740Y194757D01*
X496656Y194702D01*
X496570Y194650D01*
X496482Y194602D01*
X496392Y194557D01*
X496301Y194516D01*
X496208Y194478D01*
X496113Y194444D01*
X496018Y194414D01*
X495921Y194387D01*
X495823Y194364D01*
X495725Y194346D01*
X495625Y194331D01*
X495526Y194320D01*
X495425Y194313D01*
X495325Y194310D01*
X495225Y194311D01*
X495124Y194316D01*
X495025Y194325D01*
X494925Y194338D01*
X494826Y194355D01*
X494728Y194375D01*
X494630Y194400D01*
X494534Y194428D01*
X494439Y194460D01*
X494345Y194496D01*
X494253Y194536D01*
X494163Y194579D01*
X494074Y194626D01*
X493987Y194676D01*
X493902Y194729D01*
X493819Y194786D01*
X493739Y194846D01*
X493661Y194910D01*
X493586Y194976D01*
X493513Y195045D01*
X493443Y195117D01*
X493376Y195192D01*
X493312Y195269D01*
X493251Y195349D01*
X493193Y195431D01*
X493139Y195515D01*
X493088Y195602D01*
X493040Y195690D01*
X492996Y195780D01*
X492956Y195872D01*
X492919Y195966D01*
X492886Y196060D01*
X492857Y196156D01*
X492831Y196253D01*
X492809Y196351D01*
X492792Y196450D01*
X492778Y196550D01*
X492768Y196649D01*
X492762Y196750D01*
X492760Y196850D01*
X464820Y189230D02*
X462280Y189230D01*
X462280Y204470D01*
X464820Y204470D01*
X525780Y204470D02*
X528320Y204470D01*
X528320Y189230D01*
X525780Y189230D01*
D12*
X508000Y224790D02*
X508000Y227330D01*
X508000Y224790D02*
X482600Y224790D01*
X482600Y227330D01*
X483870Y168910D02*
X508000Y168910D01*
X483870Y168910D02*
X483870Y166370D01*
X508000Y166370D02*
X508000Y168910D01*
D11*
X508000Y166370D02*
X516890Y166370D01*
X482600Y227330D02*
X473710Y227330D01*
X482600Y227330D02*
X508000Y227330D01*
X516890Y227330D01*
X508000Y166370D02*
X483870Y166370D01*
X473710Y166370D01*
X464820Y186690D02*
X464820Y189230D01*
X464820Y204470D02*
X464820Y207010D01*
X525780Y189230D02*
X525780Y186690D01*
X525780Y204470D02*
X525780Y207010D01*
D10*
X540512Y222956D02*
X537266Y225552D01*
X537266Y213868D01*
X534021Y213868D02*
X540512Y213868D01*
D13*
X438404Y192405D02*
X438304Y192407D01*
X438205Y192413D01*
X438105Y192423D01*
X438007Y192436D01*
X437908Y192454D01*
X437811Y192475D01*
X437715Y192500D01*
X437619Y192529D01*
X437525Y192562D01*
X437432Y192598D01*
X437341Y192638D01*
X437251Y192682D01*
X437163Y192729D01*
X437077Y192779D01*
X436993Y192833D01*
X436911Y192890D01*
X436832Y192950D01*
X436754Y193014D01*
X436680Y193080D01*
X436608Y193149D01*
X436539Y193221D01*
X436473Y193295D01*
X436409Y193373D01*
X436349Y193452D01*
X436292Y193534D01*
X436238Y193618D01*
X436188Y193704D01*
X436141Y193792D01*
X436097Y193882D01*
X436057Y193973D01*
X436021Y194066D01*
X435988Y194160D01*
X435959Y194256D01*
X435934Y194352D01*
X435913Y194449D01*
X435895Y194548D01*
X435882Y194646D01*
X435872Y194746D01*
X435866Y194845D01*
X435864Y194945D01*
X438404Y192405D02*
X438545Y192407D01*
X438686Y192412D01*
X438827Y192422D01*
X438968Y192435D01*
X439108Y192451D01*
X439248Y192472D01*
X439387Y192496D01*
X439526Y192524D01*
X439663Y192555D01*
X439800Y192590D01*
X439936Y192628D01*
X440071Y192670D01*
X440204Y192716D01*
X440337Y192765D01*
X440468Y192818D01*
X440597Y192874D01*
X440726Y192933D01*
X440852Y192996D01*
X440977Y193062D01*
X441100Y193131D01*
X441221Y193204D01*
X441340Y193280D01*
X441458Y193359D01*
X441573Y193440D01*
X441685Y193525D01*
X441796Y193613D01*
X441904Y193704D01*
X442010Y193797D01*
X442113Y193894D01*
X442214Y193993D01*
X441897Y201295D02*
X441895Y201395D01*
X441889Y201494D01*
X441879Y201594D01*
X441866Y201692D01*
X441848Y201791D01*
X441827Y201888D01*
X441802Y201984D01*
X441773Y202080D01*
X441740Y202174D01*
X441704Y202267D01*
X441664Y202358D01*
X441620Y202448D01*
X441573Y202536D01*
X441523Y202622D01*
X441469Y202706D01*
X441412Y202788D01*
X441352Y202867D01*
X441288Y202945D01*
X441222Y203019D01*
X441153Y203091D01*
X441081Y203160D01*
X441007Y203226D01*
X440929Y203290D01*
X440850Y203350D01*
X440768Y203407D01*
X440684Y203461D01*
X440598Y203511D01*
X440510Y203558D01*
X440420Y203602D01*
X440329Y203642D01*
X440236Y203678D01*
X440142Y203711D01*
X440046Y203740D01*
X439950Y203765D01*
X439853Y203786D01*
X439754Y203804D01*
X439656Y203817D01*
X439556Y203827D01*
X439457Y203833D01*
X439357Y203835D01*
X439357Y203836D02*
X439224Y203834D01*
X439091Y203829D01*
X438958Y203819D01*
X438825Y203806D01*
X438693Y203789D01*
X438561Y203769D01*
X438430Y203745D01*
X438300Y203717D01*
X438170Y203686D01*
X438042Y203651D01*
X437914Y203612D01*
X437788Y203570D01*
X437663Y203524D01*
X437539Y203475D01*
X437416Y203423D01*
X437295Y203367D01*
X437176Y203307D01*
X437058Y203245D01*
X436943Y203179D01*
X436829Y203110D01*
X436717Y203037D01*
X436607Y202962D01*
X436499Y202883D01*
X440627Y199072D02*
X440711Y199124D01*
X440794Y199179D01*
X440874Y199238D01*
X440952Y199299D01*
X441027Y199363D01*
X441100Y199431D01*
X441171Y199501D01*
X441238Y199573D01*
X441303Y199648D01*
X441365Y199726D01*
X441424Y199806D01*
X441480Y199888D01*
X441532Y199972D01*
X441581Y200058D01*
X441627Y200146D01*
X441670Y200236D01*
X441709Y200327D01*
X441744Y200420D01*
X441776Y200514D01*
X441804Y200609D01*
X441829Y200705D01*
X441849Y200802D01*
X441867Y200900D01*
X441880Y200998D01*
X441889Y201097D01*
X441895Y201196D01*
X441897Y201295D01*
X437134Y197168D02*
X437050Y197116D01*
X436967Y197061D01*
X436887Y197002D01*
X436809Y196941D01*
X436734Y196877D01*
X436661Y196809D01*
X436590Y196739D01*
X436523Y196667D01*
X436458Y196592D01*
X436396Y196514D01*
X436337Y196434D01*
X436281Y196352D01*
X436229Y196268D01*
X436180Y196182D01*
X436134Y196094D01*
X436091Y196004D01*
X436052Y195913D01*
X436017Y195820D01*
X435985Y195726D01*
X435957Y195631D01*
X435932Y195535D01*
X435912Y195438D01*
X435894Y195340D01*
X435881Y195242D01*
X435872Y195143D01*
X435866Y195044D01*
X435864Y194945D01*
X437134Y197168D02*
X440627Y199073D01*
X431165Y202565D02*
X431165Y203835D01*
X424815Y203835D01*
X427990Y192405D01*
D11*
X249682Y510540D02*
X220726Y510540D01*
X249682Y510540D02*
X249682Y518160D01*
X220726Y518160D01*
X220726Y510540D01*
D13*
X278638Y512445D02*
X278638Y501015D01*
X281813Y512445D02*
X275463Y512445D01*
X271145Y509905D02*
X267970Y512445D01*
X267970Y501015D01*
X271145Y501015D02*
X264795Y501015D01*
X253365Y509588D02*
X253367Y509692D01*
X253373Y509797D01*
X253382Y509901D01*
X253395Y510004D01*
X253413Y510107D01*
X253433Y510209D01*
X253458Y510311D01*
X253486Y510411D01*
X253518Y510511D01*
X253554Y510609D01*
X253593Y510706D01*
X253635Y510801D01*
X253681Y510895D01*
X253731Y510987D01*
X253783Y511077D01*
X253839Y511165D01*
X253899Y511251D01*
X253961Y511335D01*
X254026Y511416D01*
X254094Y511495D01*
X254166Y511572D01*
X254239Y511645D01*
X254316Y511717D01*
X254395Y511785D01*
X254476Y511850D01*
X254560Y511912D01*
X254646Y511972D01*
X254734Y512028D01*
X254824Y512080D01*
X254916Y512130D01*
X255010Y512176D01*
X255105Y512218D01*
X255202Y512257D01*
X255300Y512293D01*
X255400Y512325D01*
X255500Y512353D01*
X255602Y512378D01*
X255704Y512398D01*
X255807Y512416D01*
X255910Y512429D01*
X256014Y512438D01*
X256119Y512444D01*
X256223Y512446D01*
X256223Y512445D02*
X256341Y512443D01*
X256460Y512437D01*
X256578Y512428D01*
X256695Y512415D01*
X256812Y512397D01*
X256929Y512377D01*
X257045Y512352D01*
X257160Y512324D01*
X257273Y512291D01*
X257386Y512256D01*
X257498Y512216D01*
X257608Y512174D01*
X257717Y512127D01*
X257825Y512077D01*
X257930Y512024D01*
X258034Y511967D01*
X258136Y511907D01*
X258236Y511844D01*
X258334Y511777D01*
X258430Y511708D01*
X258523Y511635D01*
X258614Y511559D01*
X258703Y511481D01*
X258789Y511399D01*
X258872Y511315D01*
X258953Y511229D01*
X259030Y511139D01*
X259105Y511048D01*
X259177Y510954D01*
X259246Y510857D01*
X259311Y510759D01*
X259374Y510658D01*
X259433Y510555D01*
X259489Y510451D01*
X259541Y510345D01*
X259590Y510237D01*
X259635Y510128D01*
X259677Y510017D01*
X259715Y509905D01*
X254317Y507366D02*
X254241Y507441D01*
X254166Y507520D01*
X254095Y507601D01*
X254026Y507685D01*
X253961Y507771D01*
X253899Y507859D01*
X253839Y507949D01*
X253783Y508041D01*
X253730Y508136D01*
X253681Y508232D01*
X253635Y508330D01*
X253592Y508429D01*
X253553Y508530D01*
X253518Y508632D01*
X253486Y508735D01*
X253458Y508839D01*
X253433Y508944D01*
X253412Y509051D01*
X253395Y509157D01*
X253382Y509264D01*
X253373Y509372D01*
X253367Y509480D01*
X253365Y509588D01*
X254318Y507365D02*
X259715Y501015D01*
X253365Y501015D01*
D11*
X249682Y472440D02*
X220726Y472440D01*
X249682Y472440D02*
X249682Y480060D01*
X220726Y480060D01*
X220726Y472440D01*
D13*
X278638Y469265D02*
X278638Y480695D01*
X281813Y480695D02*
X275463Y480695D01*
X271145Y478155D02*
X267970Y480695D01*
X267970Y469265D01*
X271145Y469265D02*
X264795Y469265D01*
X259715Y469265D02*
X256540Y469265D01*
X256429Y469267D01*
X256319Y469273D01*
X256208Y469282D01*
X256098Y469296D01*
X255989Y469313D01*
X255880Y469334D01*
X255772Y469359D01*
X255665Y469388D01*
X255559Y469420D01*
X255454Y469456D01*
X255351Y469496D01*
X255249Y469539D01*
X255148Y469586D01*
X255049Y469637D01*
X254953Y469690D01*
X254858Y469747D01*
X254765Y469808D01*
X254674Y469871D01*
X254585Y469938D01*
X254499Y470008D01*
X254416Y470081D01*
X254334Y470156D01*
X254256Y470234D01*
X254181Y470316D01*
X254108Y470399D01*
X254038Y470485D01*
X253971Y470574D01*
X253908Y470665D01*
X253847Y470758D01*
X253790Y470853D01*
X253737Y470949D01*
X253686Y471048D01*
X253639Y471149D01*
X253596Y471251D01*
X253556Y471354D01*
X253520Y471459D01*
X253488Y471565D01*
X253459Y471672D01*
X253434Y471780D01*
X253413Y471889D01*
X253396Y471998D01*
X253382Y472108D01*
X253373Y472219D01*
X253367Y472329D01*
X253365Y472440D01*
X253367Y472551D01*
X253373Y472661D01*
X253382Y472772D01*
X253396Y472882D01*
X253413Y472991D01*
X253434Y473100D01*
X253459Y473208D01*
X253488Y473315D01*
X253520Y473421D01*
X253556Y473526D01*
X253596Y473629D01*
X253639Y473731D01*
X253686Y473832D01*
X253737Y473931D01*
X253790Y474028D01*
X253847Y474122D01*
X253908Y474215D01*
X253971Y474306D01*
X254038Y474395D01*
X254108Y474481D01*
X254181Y474564D01*
X254256Y474646D01*
X254334Y474724D01*
X254416Y474799D01*
X254499Y474872D01*
X254585Y474942D01*
X254674Y475009D01*
X254765Y475072D01*
X254858Y475133D01*
X254953Y475190D01*
X255049Y475243D01*
X255148Y475294D01*
X255249Y475341D01*
X255351Y475384D01*
X255454Y475424D01*
X255559Y475460D01*
X255665Y475492D01*
X255772Y475521D01*
X255880Y475546D01*
X255989Y475567D01*
X256098Y475584D01*
X256208Y475598D01*
X256319Y475607D01*
X256429Y475613D01*
X256540Y475615D01*
X255905Y480695D02*
X259715Y480695D01*
X255905Y480695D02*
X255805Y480693D01*
X255706Y480687D01*
X255606Y480677D01*
X255508Y480664D01*
X255409Y480646D01*
X255312Y480625D01*
X255216Y480600D01*
X255120Y480571D01*
X255026Y480538D01*
X254933Y480502D01*
X254842Y480462D01*
X254752Y480418D01*
X254664Y480371D01*
X254578Y480321D01*
X254494Y480267D01*
X254412Y480210D01*
X254333Y480150D01*
X254255Y480086D01*
X254181Y480020D01*
X254109Y479951D01*
X254040Y479879D01*
X253974Y479805D01*
X253910Y479727D01*
X253850Y479648D01*
X253793Y479566D01*
X253739Y479482D01*
X253689Y479396D01*
X253642Y479308D01*
X253598Y479218D01*
X253558Y479127D01*
X253522Y479034D01*
X253489Y478940D01*
X253460Y478844D01*
X253435Y478748D01*
X253414Y478651D01*
X253396Y478552D01*
X253383Y478454D01*
X253373Y478354D01*
X253367Y478255D01*
X253365Y478155D01*
X253367Y478055D01*
X253373Y477956D01*
X253383Y477856D01*
X253396Y477758D01*
X253414Y477659D01*
X253435Y477562D01*
X253460Y477466D01*
X253489Y477370D01*
X253522Y477276D01*
X253558Y477183D01*
X253598Y477092D01*
X253642Y477002D01*
X253689Y476914D01*
X253739Y476828D01*
X253793Y476744D01*
X253850Y476662D01*
X253910Y476583D01*
X253974Y476505D01*
X254040Y476431D01*
X254109Y476359D01*
X254181Y476290D01*
X254255Y476224D01*
X254333Y476160D01*
X254412Y476100D01*
X254494Y476043D01*
X254578Y475989D01*
X254664Y475939D01*
X254752Y475892D01*
X254842Y475848D01*
X254933Y475808D01*
X255026Y475772D01*
X255120Y475739D01*
X255216Y475710D01*
X255312Y475685D01*
X255409Y475664D01*
X255508Y475646D01*
X255606Y475633D01*
X255706Y475623D01*
X255805Y475617D01*
X255905Y475615D01*
X258445Y475615D01*
D14*
X346660Y652000D02*
X346660Y655000D01*
X346660Y652000D02*
X349660Y652000D01*
X349660Y655000D01*
X356660Y655000D01*
X356660Y401000D02*
X349660Y401000D01*
X349660Y404000D01*
X346660Y404000D01*
X346660Y401000D01*
X346660Y404000D02*
X346660Y652000D01*
X356660Y655000D02*
X356660Y401000D01*
X312660Y655000D02*
X302660Y655000D01*
X302660Y643000D01*
X302660Y401000D02*
X312660Y401000D01*
X302660Y401000D02*
X302660Y413000D01*
X342660Y655000D02*
X346660Y655000D01*
X346660Y401000D02*
X342660Y401000D01*
D10*
X282312Y632658D02*
X274523Y644342D01*
X282312Y644342D02*
X274523Y632658D01*
X270233Y641746D02*
X266988Y644342D01*
X266988Y632658D01*
X270233Y632658D02*
X263742Y632658D01*
M02*
