G04 EAGLE Gerber X2 export*
%TF.Part,Single*%
%TF.FileFunction,Soldermask,Bot,1*%
%TF.FilePolarity,Negative*%
%TF.GenerationSoftware,Autodesk,EAGLE,8.7.1*%
%TF.CreationDate,2018-03-30T22:44:39Z*%
G75*
%MOMM*%
%FSLAX34Y34*%
%LPD*%
%AMOC8*
5,1,8,0,0,1.08239X$1,22.5*%
G01*
%ADD10C,5.791200*%
%ADD11C,2.235200*%
%ADD12R,1.536700X1.536700*%
%ADD13R,1.203200X1.303200*%
%ADD14R,2.743200X1.473200*%
%ADD15R,1.473200X2.743200*%
%ADD16P,2.556822X8X22.500000*%
%ADD17C,1.016000*%
%ADD18R,0.990600X1.092200*%
%ADD19P,3.629037X8X22.500000*%
%ADD20R,1.400000X0.400000*%
%ADD21R,2.350000X1.900000*%
%ADD22C,1.103200*%
%ADD23P,1.539592X8X112.500000*%
%ADD24C,1.203200*%
%ADD25C,0.889000*%


D10*
X234950Y609600D03*
X1022350Y609600D03*
D11*
X381000Y168910D03*
X889000Y168910D03*
D12*
X1026160Y200660D03*
X1026160Y99060D03*
X1216660Y200660D03*
X1216660Y99060D03*
X50800Y203200D03*
X50800Y101600D03*
X241300Y203200D03*
X241300Y101600D03*
D13*
X187570Y575310D03*
X170570Y575310D03*
X243450Y539750D03*
X226450Y539750D03*
X227720Y447040D03*
X244720Y447040D03*
X227720Y421640D03*
X244720Y421640D03*
D14*
X724662Y219456D03*
X659638Y219456D03*
X724662Y174244D03*
X661162Y174244D03*
X845312Y219456D03*
X780288Y219456D03*
X845312Y174244D03*
X781812Y174244D03*
D15*
X1114806Y481838D03*
X1114806Y546862D03*
X1069594Y481838D03*
X1069594Y545338D03*
X206756Y481838D03*
X206756Y546862D03*
X161544Y481838D03*
X161544Y545338D03*
X1114806Y316738D03*
X1114806Y381762D03*
X1069594Y316738D03*
X1069594Y380238D03*
X206756Y323088D03*
X206756Y388112D03*
X161544Y323088D03*
X161544Y386588D03*
D14*
X527812Y219456D03*
X462788Y219456D03*
X527812Y174244D03*
X464312Y174244D03*
D16*
X1123188Y609600D03*
X1188212Y609600D03*
D17*
X704850Y140970D03*
X679450Y140970D03*
X654050Y140970D03*
X628650Y140970D03*
X603250Y140970D03*
X577850Y140970D03*
X552450Y140970D03*
X527050Y140970D03*
D18*
X244856Y504190D03*
X225552Y504190D03*
X235204Y524510D03*
X244856Y466090D03*
X225552Y466090D03*
X235204Y486410D03*
D19*
X949960Y513080D03*
X949960Y557530D03*
D20*
X295160Y638000D03*
X295160Y633000D03*
X295160Y628000D03*
X295160Y623000D03*
X295160Y618000D03*
X295160Y613000D03*
X295160Y608000D03*
X295160Y603000D03*
X295160Y598000D03*
X295160Y593000D03*
X295160Y588000D03*
X295160Y583000D03*
X295160Y578000D03*
X295160Y573000D03*
X295160Y568000D03*
X295160Y563000D03*
X295160Y558000D03*
X295160Y553000D03*
X295160Y548000D03*
X295160Y543000D03*
X295160Y538000D03*
X295160Y533000D03*
X295160Y528000D03*
X295160Y523000D03*
X295160Y518000D03*
X295160Y513000D03*
X295160Y508000D03*
X295160Y503000D03*
X295160Y498000D03*
X295160Y493000D03*
X295160Y488000D03*
X295160Y483000D03*
X295160Y478000D03*
X295160Y473000D03*
X295160Y468000D03*
X295160Y463000D03*
X295160Y458000D03*
X295160Y453000D03*
X295160Y448000D03*
X295160Y443000D03*
X295160Y438000D03*
X295160Y433000D03*
X295160Y428000D03*
X295160Y423000D03*
X295160Y418000D03*
D21*
X327660Y399000D03*
X327660Y657000D03*
D22*
X487270Y58420D03*
X531270Y58420D03*
X740000Y58420D03*
X784000Y58420D03*
D23*
X965200Y373380D03*
X965200Y424180D03*
X965200Y398780D03*
D24*
X414890Y67460D03*
X364890Y67460D03*
X907650Y67460D03*
X857650Y67460D03*
D25*
X1143762Y475996D03*
X1072134Y405130D03*
X1126236Y386080D03*
X1084326Y424942D03*
X720090Y261112D03*
X780288Y260350D03*
X997458Y219964D03*
X541020Y350266D03*
X541020Y261874D03*
X497586Y244348D03*
X749046Y356362D03*
X275844Y636016D03*
X112776Y552958D03*
X54102Y497332D03*
X112014Y567436D03*
X218694Y388366D03*
X455676Y141478D03*
X1047750Y546100D03*
X1085088Y583438D03*
X1094232Y270256D03*
X1018794Y456184D03*
X1063752Y407416D03*
X140970Y414274D03*
X303276Y366268D03*
X402336Y291592D03*
X509778Y258064D03*
X201930Y575056D03*
X403860Y377698D03*
X503682Y356362D03*
X131826Y644398D03*
X99060Y331978D03*
X161544Y344170D03*
X358902Y334264D03*
X103632Y567436D03*
X103632Y553720D03*
X160020Y581152D03*
X1005840Y399034D03*
X1126236Y439420D03*
X954024Y453136D03*
X1181100Y411226D03*
X1153668Y438658D03*
X76200Y387604D03*
X112776Y351028D03*
X154686Y351028D03*
X368046Y341884D03*
X421386Y385318D03*
X499872Y109474D03*
X738378Y91186D03*
X1184910Y466852D03*
X419862Y219202D03*
X323088Y607822D03*
X323088Y588772D03*
X444246Y232918D03*
X433578Y222250D03*
X911352Y296926D03*
X708660Y318262D03*
X708660Y306070D03*
X493014Y116332D03*
X740664Y278638D03*
X768096Y250444D03*
X749808Y336550D03*
X601980Y213868D03*
X182880Y386080D03*
X286512Y282448D03*
X689610Y242824D03*
X695706Y229870D03*
X706374Y219202D03*
X737616Y187960D03*
X643128Y279400D03*
X689610Y340360D03*
X945642Y454660D03*
X551688Y184150D03*
X406908Y184150D03*
X351282Y237490D03*
X665988Y369316D03*
X486918Y331216D03*
X307086Y537718D03*
X195072Y546862D03*
X377952Y310642D03*
X405384Y310642D03*
X840486Y322834D03*
X557784Y357124D03*
X542544Y333502D03*
X311658Y545338D03*
X195072Y555244D03*
X339852Y274066D03*
X443484Y296164D03*
X495300Y328930D03*
X941832Y309880D03*
X926592Y325120D03*
X913638Y340360D03*
X872490Y381508D03*
X718566Y344170D03*
X541020Y274066D03*
X271272Y482092D03*
X428244Y285496D03*
X500634Y277876D03*
X933450Y250444D03*
X871728Y271018D03*
X823722Y322834D03*
X704088Y350266D03*
X542544Y283972D03*
X307086Y552958D03*
X186690Y555244D03*
X333756Y267970D03*
X438150Y264160D03*
X509778Y278638D03*
X944880Y264160D03*
X808482Y363220D03*
X695706Y346456D03*
X586740Y344170D03*
X274320Y470662D03*
X409956Y267208D03*
X975360Y302260D03*
X893064Y369316D03*
X598932Y330454D03*
X546354Y300736D03*
X283464Y527812D03*
X323088Y367792D03*
X413766Y312928D03*
X872490Y283210D03*
X716280Y310642D03*
X618744Y337312D03*
X557022Y290068D03*
X307086Y523240D03*
X323088Y376174D03*
X474726Y287020D03*
X832104Y322834D03*
X694944Y362458D03*
X681228Y344170D03*
X663702Y338074D03*
X628650Y330454D03*
X502920Y237490D03*
X280416Y464566D03*
X395478Y273304D03*
X778764Y156718D03*
X519684Y128524D03*
X715518Y253492D03*
X441198Y147574D03*
X185928Y303022D03*
X176784Y312166D03*
X696468Y278638D03*
X733806Y232918D03*
X756666Y210058D03*
X918210Y232918D03*
X557022Y331216D03*
X548640Y339598D03*
X374904Y328168D03*
X185928Y294640D03*
X145542Y284734D03*
X715518Y284734D03*
X265176Y463042D03*
X740664Y291592D03*
X700278Y318262D03*
X674370Y369316D03*
X661416Y382270D03*
X307086Y588010D03*
X762000Y278638D03*
X743712Y205486D03*
X708660Y150622D03*
X410718Y169672D03*
X262128Y258826D03*
X551688Y192532D03*
X995934Y160528D03*
X943356Y443992D03*
X217170Y447802D03*
X241554Y475996D03*
X188214Y459994D03*
X163068Y434848D03*
X250698Y494284D03*
X711708Y330454D03*
X512064Y207772D03*
X501396Y197104D03*
X348234Y274066D03*
X211074Y408178D03*
X234696Y409702D03*
X682752Y305308D03*
X956310Y380746D03*
X1033272Y442468D03*
X1016508Y442468D03*
X480822Y306070D03*
X502158Y312928D03*
X720090Y292354D03*
X660654Y149098D03*
X695706Y140716D03*
X695706Y98044D03*
X784860Y304546D03*
X1005840Y390652D03*
X1028700Y413512D03*
X1061466Y462280D03*
X280416Y326644D03*
X144018Y338074D03*
X622554Y42418D03*
X311658Y245110D03*
X292608Y303022D03*
X999744Y205486D03*
X1135380Y284734D03*
X642366Y54610D03*
M02*
