G04 EAGLE Gerber X2 export*
%TF.Part,Single*%
%TF.FileFunction,Soldermask,Top,1*%
%TF.FilePolarity,Negative*%
%TF.GenerationSoftware,Autodesk,EAGLE,8.7.1*%
%TF.CreationDate,2018-03-30T22:44:39Z*%
G75*
%MOMM*%
%FSLAX34Y34*%
%LPD*%
%AMOC8*
5,1,8,0,0,1.08239X$1,22.5*%
G01*
%ADD10C,5.791200*%
%ADD11C,2.235200*%
%ADD12R,1.503200X1.703200*%
%ADD13R,1.803200X2.003200*%
%ADD14R,1.703200X1.503200*%
%ADD15R,2.003200X1.803200*%
%ADD16R,1.003200X0.803200*%
%ADD17R,1.536700X1.536700*%
%ADD18R,1.803200X1.203200*%
%ADD19R,6.403200X5.603200*%
%ADD20R,2.403200X0.803200*%
%ADD21R,5.603200X6.403200*%
%ADD22R,1.203200X1.803200*%
%ADD23R,1.203200X0.553200*%
%ADD24R,0.803200X2.403200*%
%ADD25R,1.603200X0.903200*%
%ADD26R,1.203200X1.303200*%
%ADD27R,1.303200X1.203200*%
%ADD28P,2.556822X8X22.500000*%
%ADD29C,1.016000*%
%ADD30R,1.092200X0.990600*%
%ADD31R,0.990600X1.092200*%
%ADD32P,3.629037X8X22.500000*%
%ADD33R,2.203200X2.703200*%
%ADD34R,2.203200X3.503200*%
%ADD35R,0.703200X3.303200*%
%ADD36C,1.103200*%
%ADD37P,1.539592X8X112.500000*%
%ADD38R,2.703200X2.203200*%
%ADD39R,2.703200X1.703200*%
%ADD40C,1.203200*%
%ADD41C,0.889000*%


D10*
X234950Y609600D03*
X1022350Y609600D03*
D11*
X381000Y168910D03*
X889000Y168910D03*
D12*
X1019200Y508000D03*
X1038200Y508000D03*
D13*
X1085880Y660400D03*
X1057880Y660400D03*
D14*
X806450Y269900D03*
X806450Y288900D03*
D12*
X790600Y317500D03*
X809600Y317500D03*
X790600Y342900D03*
X809600Y342900D03*
X117500Y368300D03*
X136500Y368300D03*
D13*
X953740Y473710D03*
X981740Y473710D03*
X1188750Y393700D03*
X1160750Y393700D03*
D15*
X43180Y455900D03*
X43180Y483900D03*
D12*
X1019200Y469900D03*
X1038200Y469900D03*
D13*
X1188750Y368300D03*
X1160750Y368300D03*
X298420Y245110D03*
X326420Y245110D03*
D12*
X301650Y198120D03*
X320650Y198120D03*
D13*
X431830Y205740D03*
X403830Y205740D03*
D16*
X176330Y295910D03*
X151330Y295910D03*
X1081840Y288290D03*
X1056840Y288290D03*
X977700Y444500D03*
X952700Y444500D03*
D17*
X1026160Y200660D03*
X1026160Y99060D03*
X1216660Y200660D03*
X1216660Y99060D03*
X50800Y203200D03*
X50800Y101600D03*
X241300Y203200D03*
X241300Y101600D03*
D18*
X1145800Y340300D03*
X1145800Y294700D03*
D19*
X1218800Y317500D03*
D18*
X130550Y294700D03*
X130550Y340300D03*
D19*
X57550Y317500D03*
D20*
X960400Y219710D03*
X893800Y295910D03*
X960400Y207010D03*
X960400Y232410D03*
X960400Y245110D03*
X893800Y283210D03*
X893800Y308610D03*
X893800Y321310D03*
X960400Y270510D03*
X960400Y308610D03*
X960400Y257810D03*
X960400Y283210D03*
X960400Y321310D03*
X960400Y295910D03*
X893800Y270510D03*
X893800Y257810D03*
X893800Y245110D03*
X893800Y232410D03*
X893800Y219710D03*
X893800Y207010D03*
X526060Y255270D03*
X459460Y331470D03*
X526060Y242570D03*
X526060Y267970D03*
X526060Y280670D03*
X459460Y318770D03*
X459460Y344170D03*
X459460Y356870D03*
X526060Y306070D03*
X526060Y344170D03*
X526060Y293370D03*
X526060Y318770D03*
X526060Y356870D03*
X526060Y331470D03*
X459460Y306070D03*
X459460Y293370D03*
X459460Y280670D03*
X459460Y267970D03*
X459460Y255270D03*
X459460Y242570D03*
D21*
X1162050Y513950D03*
D22*
X1139250Y440950D03*
X1184850Y440950D03*
D23*
X730650Y239950D03*
X730650Y246450D03*
X730650Y252950D03*
X730650Y259450D03*
X730650Y265950D03*
X730650Y272450D03*
X730650Y278950D03*
X730650Y285450D03*
X730650Y291950D03*
X730650Y298450D03*
X730650Y304950D03*
X730650Y311450D03*
X730650Y317950D03*
X730650Y324450D03*
X730650Y330950D03*
X730650Y337450D03*
X730650Y343950D03*
X730650Y350450D03*
X730650Y356950D03*
X653650Y356950D03*
X653650Y350450D03*
X653650Y343950D03*
X653650Y337450D03*
X653650Y330950D03*
X653650Y324450D03*
X653650Y317950D03*
X653650Y311450D03*
X653650Y304950D03*
X653650Y298450D03*
X653650Y291950D03*
X653650Y285450D03*
X653650Y278950D03*
X653650Y272450D03*
X653650Y265950D03*
X653650Y259450D03*
X653650Y252950D03*
X653650Y246450D03*
X653650Y239950D03*
D24*
X1219200Y367700D03*
X1219200Y419700D03*
X1206500Y367700D03*
X1231900Y367700D03*
X1244600Y367700D03*
X1206500Y419700D03*
X1231900Y419700D03*
X1244600Y419700D03*
X44450Y367700D03*
X44450Y419700D03*
X31750Y367700D03*
X57150Y367700D03*
X69850Y367700D03*
X31750Y419700D03*
X57150Y419700D03*
X69850Y419700D03*
D25*
X781050Y270900D03*
X781050Y287900D03*
D26*
X975750Y508000D03*
X992750Y508000D03*
X1210700Y476250D03*
X1227700Y476250D03*
X1210700Y450850D03*
X1227700Y450850D03*
D27*
X986790Y133740D03*
X986790Y150740D03*
D26*
X1105290Y288290D03*
X1122290Y288290D03*
X1018150Y659130D03*
X1001150Y659130D03*
X85970Y459740D03*
X68970Y459740D03*
X129150Y508000D03*
X112150Y508000D03*
X84700Y502920D03*
X67700Y502920D03*
X129150Y655320D03*
X112150Y655320D03*
D27*
X990600Y255660D03*
X990600Y272660D03*
D26*
X176140Y323850D03*
X159140Y323850D03*
X103750Y393700D03*
X86750Y393700D03*
X83430Y480060D03*
X66430Y480060D03*
X67700Y523240D03*
X84700Y523240D03*
X84700Y547370D03*
X67700Y547370D03*
X124850Y393700D03*
X141850Y393700D03*
D27*
X280670Y160900D03*
X280670Y143900D03*
X993140Y303920D03*
X993140Y320920D03*
D26*
X112150Y444500D03*
X129150Y444500D03*
D27*
X1016000Y339480D03*
X1016000Y356480D03*
D26*
X226450Y400050D03*
X243450Y400050D03*
X168520Y419100D03*
X151520Y419100D03*
X206620Y419100D03*
X189620Y419100D03*
X171060Y444500D03*
X154060Y444500D03*
X1032900Y431800D03*
X1049900Y431800D03*
X994800Y431800D03*
X1011800Y431800D03*
D27*
X1115060Y453000D03*
X1115060Y436000D03*
X781050Y249800D03*
X781050Y232800D03*
D26*
X1020200Y546100D03*
X1037200Y546100D03*
X1210700Y504190D03*
X1227700Y504190D03*
X1210700Y530860D03*
X1227700Y530860D03*
D28*
X1123188Y609600D03*
X1188212Y609600D03*
D29*
X704850Y140970D03*
X679450Y140970D03*
X654050Y140970D03*
X628650Y140970D03*
X603250Y140970D03*
X577850Y140970D03*
X552450Y140970D03*
X527050Y140970D03*
D30*
X994410Y536194D03*
X994410Y555498D03*
X974090Y545846D03*
D31*
X130556Y581660D03*
X111252Y581660D03*
X120904Y561340D03*
X130556Y632460D03*
X111252Y632460D03*
X120904Y612140D03*
X190754Y436880D03*
X210058Y436880D03*
X200406Y457200D03*
X109474Y410210D03*
X128778Y410210D03*
X119126Y430530D03*
X1082294Y396240D03*
X1101598Y396240D03*
X1091946Y416560D03*
X1241806Y576580D03*
X1222502Y576580D03*
X1232154Y556260D03*
X1089406Y454660D03*
X1070102Y454660D03*
X1079754Y434340D03*
X1140206Y416560D03*
X1120902Y416560D03*
X1130554Y396240D03*
X109474Y463550D03*
X128778Y463550D03*
X119126Y483870D03*
X131826Y543560D03*
X112522Y543560D03*
X122174Y523240D03*
X950214Y636270D03*
X969518Y636270D03*
X959866Y656590D03*
D30*
X83820Y564134D03*
X83820Y583438D03*
X63500Y573786D03*
D32*
X949960Y513080D03*
X949960Y557530D03*
D33*
X553770Y28420D03*
X464770Y28420D03*
D34*
X553770Y87420D03*
X464770Y87420D03*
D35*
X493270Y88420D03*
X501270Y88420D03*
X509270Y88420D03*
X517270Y88420D03*
X525270Y88420D03*
D36*
X487270Y58420D03*
X531270Y58420D03*
D33*
X806500Y28420D03*
X717500Y28420D03*
D34*
X806500Y87420D03*
X717500Y87420D03*
D35*
X746000Y88420D03*
X754000Y88420D03*
X762000Y88420D03*
X770000Y88420D03*
X778000Y88420D03*
D36*
X740000Y58420D03*
X784000Y58420D03*
D27*
X988060Y193430D03*
X988060Y210430D03*
X304800Y326000D03*
X304800Y309000D03*
D20*
X606460Y67310D03*
X658460Y67310D03*
X606460Y80010D03*
X606460Y54610D03*
X606460Y41910D03*
X658460Y80010D03*
X658460Y54610D03*
X658460Y41910D03*
D27*
X581660Y65160D03*
X581660Y82160D03*
X581660Y27060D03*
X581660Y44060D03*
X685800Y65160D03*
X685800Y82160D03*
X685800Y29600D03*
X685800Y46600D03*
D37*
X965200Y373380D03*
X965200Y424180D03*
X965200Y398780D03*
D38*
X427390Y16460D03*
X352390Y16460D03*
D39*
X427390Y104960D03*
X352390Y104960D03*
D40*
X414890Y67460D03*
X364890Y67460D03*
D38*
X920150Y16460D03*
X845150Y16460D03*
D39*
X920150Y104960D03*
X845150Y104960D03*
D40*
X907650Y67460D03*
X857650Y67460D03*
D41*
X1143762Y475996D03*
X1072134Y405130D03*
X1126236Y386080D03*
X1084326Y424942D03*
X720090Y261112D03*
X780288Y260350D03*
X997458Y219964D03*
X541020Y350266D03*
X541020Y261874D03*
X497586Y244348D03*
X749046Y356362D03*
X275844Y636016D03*
X112776Y552958D03*
X54102Y497332D03*
X112014Y567436D03*
X218694Y388366D03*
X455676Y141478D03*
X1047750Y546100D03*
X1085088Y583438D03*
X1094232Y270256D03*
X1018794Y456184D03*
X1063752Y407416D03*
X140970Y414274D03*
X303276Y366268D03*
X402336Y291592D03*
X509778Y258064D03*
X201930Y575056D03*
X403860Y377698D03*
X503682Y356362D03*
X131826Y644398D03*
X99060Y331978D03*
X161544Y344170D03*
X358902Y334264D03*
X103632Y567436D03*
X103632Y553720D03*
X160020Y581152D03*
X1005840Y399034D03*
X1126236Y439420D03*
X954024Y453136D03*
X1181100Y411226D03*
X1153668Y438658D03*
X76200Y387604D03*
X112776Y351028D03*
X154686Y351028D03*
X368046Y341884D03*
X421386Y385318D03*
X499872Y109474D03*
X738378Y91186D03*
X1184910Y466852D03*
X419862Y219202D03*
X323088Y607822D03*
X323088Y588772D03*
X444246Y232918D03*
X433578Y222250D03*
X911352Y296926D03*
X708660Y318262D03*
X708660Y306070D03*
X493014Y116332D03*
X740664Y278638D03*
X768096Y250444D03*
X749808Y336550D03*
X601980Y213868D03*
X182880Y386080D03*
X286512Y282448D03*
X689610Y242824D03*
X695706Y229870D03*
X706374Y219202D03*
X737616Y187960D03*
X643128Y279400D03*
X689610Y340360D03*
X945642Y454660D03*
X551688Y184150D03*
X406908Y184150D03*
X351282Y237490D03*
X665988Y369316D03*
X486918Y331216D03*
X307086Y537718D03*
X195072Y546862D03*
X377952Y310642D03*
X405384Y310642D03*
X840486Y322834D03*
X557784Y357124D03*
X542544Y333502D03*
X311658Y545338D03*
X195072Y555244D03*
X339852Y274066D03*
X443484Y296164D03*
X495300Y328930D03*
X941832Y309880D03*
X926592Y325120D03*
X913638Y340360D03*
X872490Y381508D03*
X718566Y344170D03*
X541020Y274066D03*
X271272Y482092D03*
X428244Y285496D03*
X500634Y277876D03*
X933450Y250444D03*
X871728Y271018D03*
X823722Y322834D03*
X704088Y350266D03*
X542544Y283972D03*
X307086Y552958D03*
X186690Y555244D03*
X333756Y267970D03*
X438150Y264160D03*
X509778Y278638D03*
X944880Y264160D03*
X808482Y363220D03*
X695706Y346456D03*
X586740Y344170D03*
X274320Y470662D03*
X409956Y267208D03*
X975360Y302260D03*
X893064Y369316D03*
X598932Y330454D03*
X546354Y300736D03*
X283464Y527812D03*
X323088Y367792D03*
X413766Y312928D03*
X872490Y283210D03*
X716280Y310642D03*
X618744Y337312D03*
X557022Y290068D03*
X307086Y523240D03*
X323088Y376174D03*
X474726Y287020D03*
X832104Y322834D03*
X694944Y362458D03*
X681228Y344170D03*
X663702Y338074D03*
X628650Y330454D03*
X502920Y237490D03*
X280416Y464566D03*
X395478Y273304D03*
X778764Y156718D03*
X519684Y128524D03*
X715518Y253492D03*
X441198Y147574D03*
X185928Y303022D03*
X176784Y312166D03*
X696468Y278638D03*
X733806Y232918D03*
X756666Y210058D03*
X918210Y232918D03*
X557022Y331216D03*
X548640Y339598D03*
X374904Y328168D03*
X185928Y294640D03*
X145542Y284734D03*
X715518Y284734D03*
X265176Y463042D03*
X740664Y291592D03*
X700278Y318262D03*
X674370Y369316D03*
X661416Y382270D03*
X307086Y588010D03*
X762000Y278638D03*
X743712Y205486D03*
X708660Y150622D03*
X410718Y169672D03*
X262128Y258826D03*
X551688Y192532D03*
X995934Y160528D03*
X943356Y443992D03*
X217170Y447802D03*
X241554Y475996D03*
X188214Y459994D03*
X163068Y434848D03*
X250698Y494284D03*
X711708Y330454D03*
X512064Y207772D03*
X501396Y197104D03*
X348234Y274066D03*
X211074Y408178D03*
X234696Y409702D03*
X682752Y305308D03*
X956310Y380746D03*
X1033272Y442468D03*
X1016508Y442468D03*
X480822Y306070D03*
X502158Y312928D03*
X720090Y292354D03*
X660654Y149098D03*
X695706Y140716D03*
X695706Y98044D03*
X784860Y304546D03*
X1005840Y390652D03*
X1028700Y413512D03*
X1061466Y462280D03*
X280416Y326644D03*
X144018Y338074D03*
X622554Y42418D03*
X311658Y245110D03*
X292608Y303022D03*
X999744Y205486D03*
X1135380Y284734D03*
X642366Y54610D03*
M02*
