G04 EAGLE Gerber X2 export*
%TF.Part,Single*%
%TF.FileFunction,Paste,Top*%
%TF.FilePolarity,Positive*%
%TF.GenerationSoftware,Autodesk,EAGLE,8.7.1*%
%TF.CreationDate,2018-03-30T22:44:39Z*%
G75*
%MOMM*%
%FSLAX34Y34*%
%LPD*%
%AMOC8*
5,1,8,0,0,1.08239X$1,22.5*%
G01*
%ADD10R,1.300000X1.500000*%
%ADD11R,1.600000X1.800000*%
%ADD12R,1.500000X1.300000*%
%ADD13R,1.800000X1.600000*%
%ADD14R,0.800000X0.600000*%
%ADD15R,1.600000X1.000000*%
%ADD16R,6.200000X5.400000*%
%ADD17R,2.200000X0.600000*%
%ADD18R,5.400000X6.200000*%
%ADD19R,1.000000X1.600000*%
%ADD20R,1.000000X0.350000*%
%ADD21R,0.600000X2.200000*%
%ADD22R,1.400000X0.700000*%
%ADD23R,1.000000X1.100000*%
%ADD24R,1.100000X1.000000*%
%ADD25R,0.889000X0.787400*%
%ADD26R,0.787400X0.889000*%
%ADD27R,2.000000X2.500000*%
%ADD28R,2.000000X3.300000*%
%ADD29R,0.500000X3.100000*%
%ADD30R,2.500000X2.000000*%
%ADD31R,2.500000X1.500000*%


D10*
X1019200Y508000D03*
X1038200Y508000D03*
D11*
X1085880Y660400D03*
X1057880Y660400D03*
D12*
X806450Y269900D03*
X806450Y288900D03*
D10*
X790600Y317500D03*
X809600Y317500D03*
X790600Y342900D03*
X809600Y342900D03*
X117500Y368300D03*
X136500Y368300D03*
D11*
X953740Y473710D03*
X981740Y473710D03*
X1188750Y393700D03*
X1160750Y393700D03*
D13*
X43180Y455900D03*
X43180Y483900D03*
D10*
X1019200Y469900D03*
X1038200Y469900D03*
D11*
X1188750Y368300D03*
X1160750Y368300D03*
X298420Y245110D03*
X326420Y245110D03*
D10*
X301650Y198120D03*
X320650Y198120D03*
D11*
X431830Y205740D03*
X403830Y205740D03*
D14*
X176330Y295910D03*
X151330Y295910D03*
X1081840Y288290D03*
X1056840Y288290D03*
X977700Y444500D03*
X952700Y444500D03*
D15*
X1145800Y340300D03*
X1145800Y294700D03*
D16*
X1218800Y317500D03*
D15*
X130550Y294700D03*
X130550Y340300D03*
D16*
X57550Y317500D03*
D17*
X960400Y219710D03*
X893800Y295910D03*
X960400Y207010D03*
X960400Y232410D03*
X960400Y245110D03*
X893800Y283210D03*
X893800Y308610D03*
X893800Y321310D03*
X960400Y270510D03*
X960400Y308610D03*
X960400Y257810D03*
X960400Y283210D03*
X960400Y321310D03*
X960400Y295910D03*
X893800Y270510D03*
X893800Y257810D03*
X893800Y245110D03*
X893800Y232410D03*
X893800Y219710D03*
X893800Y207010D03*
X526060Y255270D03*
X459460Y331470D03*
X526060Y242570D03*
X526060Y267970D03*
X526060Y280670D03*
X459460Y318770D03*
X459460Y344170D03*
X459460Y356870D03*
X526060Y306070D03*
X526060Y344170D03*
X526060Y293370D03*
X526060Y318770D03*
X526060Y356870D03*
X526060Y331470D03*
X459460Y306070D03*
X459460Y293370D03*
X459460Y280670D03*
X459460Y267970D03*
X459460Y255270D03*
X459460Y242570D03*
D18*
X1162050Y513950D03*
D19*
X1139250Y440950D03*
X1184850Y440950D03*
D20*
X730650Y239950D03*
X730650Y246450D03*
X730650Y252950D03*
X730650Y259450D03*
X730650Y265950D03*
X730650Y272450D03*
X730650Y278950D03*
X730650Y285450D03*
X730650Y291950D03*
X730650Y298450D03*
X730650Y304950D03*
X730650Y311450D03*
X730650Y317950D03*
X730650Y324450D03*
X730650Y330950D03*
X730650Y337450D03*
X730650Y343950D03*
X730650Y350450D03*
X730650Y356950D03*
X653650Y356950D03*
X653650Y350450D03*
X653650Y343950D03*
X653650Y337450D03*
X653650Y330950D03*
X653650Y324450D03*
X653650Y317950D03*
X653650Y311450D03*
X653650Y304950D03*
X653650Y298450D03*
X653650Y291950D03*
X653650Y285450D03*
X653650Y278950D03*
X653650Y272450D03*
X653650Y265950D03*
X653650Y259450D03*
X653650Y252950D03*
X653650Y246450D03*
X653650Y239950D03*
D21*
X1219200Y367700D03*
X1219200Y419700D03*
X1206500Y367700D03*
X1231900Y367700D03*
X1244600Y367700D03*
X1206500Y419700D03*
X1231900Y419700D03*
X1244600Y419700D03*
X44450Y367700D03*
X44450Y419700D03*
X31750Y367700D03*
X57150Y367700D03*
X69850Y367700D03*
X31750Y419700D03*
X57150Y419700D03*
X69850Y419700D03*
D22*
X781050Y270900D03*
X781050Y287900D03*
D23*
X975750Y508000D03*
X992750Y508000D03*
X1210700Y476250D03*
X1227700Y476250D03*
X1210700Y450850D03*
X1227700Y450850D03*
D24*
X986790Y133740D03*
X986790Y150740D03*
D23*
X1105290Y288290D03*
X1122290Y288290D03*
X1018150Y659130D03*
X1001150Y659130D03*
X85970Y459740D03*
X68970Y459740D03*
X129150Y508000D03*
X112150Y508000D03*
X84700Y502920D03*
X67700Y502920D03*
X129150Y655320D03*
X112150Y655320D03*
D24*
X990600Y255660D03*
X990600Y272660D03*
D23*
X176140Y323850D03*
X159140Y323850D03*
X103750Y393700D03*
X86750Y393700D03*
X83430Y480060D03*
X66430Y480060D03*
X67700Y523240D03*
X84700Y523240D03*
X84700Y547370D03*
X67700Y547370D03*
X124850Y393700D03*
X141850Y393700D03*
D24*
X280670Y160900D03*
X280670Y143900D03*
X993140Y303920D03*
X993140Y320920D03*
D23*
X112150Y444500D03*
X129150Y444500D03*
D24*
X1016000Y339480D03*
X1016000Y356480D03*
D23*
X226450Y400050D03*
X243450Y400050D03*
X168520Y419100D03*
X151520Y419100D03*
X206620Y419100D03*
X189620Y419100D03*
X171060Y444500D03*
X154060Y444500D03*
X1032900Y431800D03*
X1049900Y431800D03*
X994800Y431800D03*
X1011800Y431800D03*
D24*
X1115060Y453000D03*
X1115060Y436000D03*
X781050Y249800D03*
X781050Y232800D03*
D23*
X1020200Y546100D03*
X1037200Y546100D03*
X1210700Y504190D03*
X1227700Y504190D03*
X1210700Y530860D03*
X1227700Y530860D03*
D25*
X994410Y536194D03*
X994410Y555498D03*
X974090Y545846D03*
D26*
X130556Y581660D03*
X111252Y581660D03*
X120904Y561340D03*
X130556Y632460D03*
X111252Y632460D03*
X120904Y612140D03*
X190754Y436880D03*
X210058Y436880D03*
X200406Y457200D03*
X109474Y410210D03*
X128778Y410210D03*
X119126Y430530D03*
X1082294Y396240D03*
X1101598Y396240D03*
X1091946Y416560D03*
X1241806Y576580D03*
X1222502Y576580D03*
X1232154Y556260D03*
X1089406Y454660D03*
X1070102Y454660D03*
X1079754Y434340D03*
X1140206Y416560D03*
X1120902Y416560D03*
X1130554Y396240D03*
X109474Y463550D03*
X128778Y463550D03*
X119126Y483870D03*
X131826Y543560D03*
X112522Y543560D03*
X122174Y523240D03*
X950214Y636270D03*
X969518Y636270D03*
X959866Y656590D03*
D25*
X83820Y564134D03*
X83820Y583438D03*
X63500Y573786D03*
D27*
X553770Y28420D03*
X464770Y28420D03*
D28*
X553770Y87420D03*
X464770Y87420D03*
D29*
X493270Y88420D03*
X501270Y88420D03*
X509270Y88420D03*
X517270Y88420D03*
X525270Y88420D03*
D27*
X806500Y28420D03*
X717500Y28420D03*
D28*
X806500Y87420D03*
X717500Y87420D03*
D29*
X746000Y88420D03*
X754000Y88420D03*
X762000Y88420D03*
X770000Y88420D03*
X778000Y88420D03*
D24*
X988060Y193430D03*
X988060Y210430D03*
X304800Y326000D03*
X304800Y309000D03*
D17*
X606460Y67310D03*
X658460Y67310D03*
X606460Y80010D03*
X606460Y54610D03*
X606460Y41910D03*
X658460Y80010D03*
X658460Y54610D03*
X658460Y41910D03*
D24*
X581660Y65160D03*
X581660Y82160D03*
X581660Y27060D03*
X581660Y44060D03*
X685800Y65160D03*
X685800Y82160D03*
X685800Y29600D03*
X685800Y46600D03*
D30*
X427390Y16460D03*
X352390Y16460D03*
D31*
X427390Y104960D03*
X352390Y104960D03*
D30*
X920150Y16460D03*
X845150Y16460D03*
D31*
X920150Y104960D03*
X845150Y104960D03*
M02*
