%
M48
M72
T01C0.01500
T02C0.03200
T03C0.03500
T04C0.03543
T05C0.03600
T06C0.03937
T07C0.04000
T08C0.07900
T09C0.08000
T10C0.22000
%
T01
X289258Y181139
X304858Y200339
X274258Y218039
X268858Y222839
X264958Y222839
X262558Y233039
X269458Y235739
X269458Y241139
X269758Y249239
X261958Y253139
X258358Y252839
X256258Y255539
X255658Y261539
X248158Y255539
X243358Y260339
X250858Y266339
X248458Y271139
X254758Y271739
X256858Y266339
X261058Y268739
X269458Y262139
X282058Y264539
X288358Y259739
X284158Y256739
X286858Y250139
X282058Y248639
X284458Y244439
X293758Y247139
X312358Y247139
X312358Y253739
X308458Y263039
X308758Y268439
X312058Y267839
X315958Y267839
X319258Y267839
X329758Y267839
X330958Y271439
X328858Y274139
X335158Y266639
X330958Y259139
X348058Y247139
X356158Y246239
X361858Y251339
X357058Y256139
X369058Y253739
X364858Y243539
X374158Y238439
X376558Y244139
X387058Y245939
X388858Y248939
X401158Y257939
X401158Y266639
X397258Y273839
X387058Y273839
X384958Y281939
X376558Y276839
X373258Y276239
X369958Y276239
X370258Y269039
X366358Y266339
X377758Y261539
X399058Y281939
X401458Y284339
X406258Y285839
X406258Y282539
X411658Y277139
X421258Y281939
X418858Y284339
X418258Y263939
X421558Y263939
X424858Y263939
X428758Y263939
X440158Y263939
X455758Y261539
X462358Y264839
X464158Y259739
X462958Y250739
X456658Y248339
X466558Y245639
X466558Y242339
X478858Y255239
X471958Y267839
X471958Y277739
X482458Y290639
X503758Y301439
X507958Y301739
X517558Y295739
X521158Y302639
X538258Y309239
X549058Y308939
X559858Y298139
X538258Y288239
X561358Y320039
X545458Y323639
X482458Y308339
X465958Y317639
X476458Y377039
X480058Y386339
X333658Y284639
X313558Y279539
X308758Y276539
X294658Y273839
X294058Y266339
X312358Y239339
X295558Y231539
X292258Y228839
X282058Y232739
X256858Y238739
X252058Y248039
X244258Y249239
X233758Y255539
X219058Y260339
X235558Y266339
X216058Y279539
X222058Y287339
X198358Y293339
X180958Y283139
X170458Y284639
X160258Y278339
X156958Y278639
X155458Y273539
X185458Y269339
X196558Y280439
X172858Y305039
X177358Y312839
X181258Y308339
X179758Y319139
X189958Y323639
X191158Y326939
X193858Y330839
X196258Y328439
X202858Y331139
X198058Y335939
X200458Y338339
X203758Y344939
X204658Y352139
X215758Y341639
X218458Y344039
X218458Y347339
X222058Y347639
X215758Y335939
X218458Y333539
X205258Y319139
X179158Y339539
X191458Y340739
X191458Y344039
X169258Y354539
X171658Y367739
X157858Y365039
X138658Y361439
X139258Y353939
X152458Y336839
X150058Y334439
X135058Y334439
X116158Y332039
X128758Y305939
X124558Y287939
X159958Y315539
X164458Y320039
X166858Y336839
X215758Y363839
X219058Y363839
X222658Y363539
X222658Y366839
X216058Y371339
X215758Y379439
X206458Y387239
X205258Y394139
X175558Y391739
X172558Y387239
X165358Y392639
X145558Y389339
X231058Y241139
X235258Y234839
X221158Y227039
X221158Y220739
X207058Y230639
X204058Y224039
X199258Y222839
X270358Y209039
X325258Y226139
X332758Y236939
X342358Y237839
X345958Y226139
X357658Y228539
X374158Y217739
X398158Y234839
X401758Y238739
X440458Y243839
X440458Y232739
X440458Y216539
X416158Y208739
X385558Y176339
X367258Y176039
X357058Y178439
X347758Y157739
X464158Y180239
X472558Y188639
X488458Y217139
X523858Y242639
X522358Y245939
X542758Y248339
T02
X474858Y283239
X474858Y293239
X474858Y303239
T03
X498858Y215239
X498858Y175239
X573858Y175239
X573858Y215239
X189858Y216239
X189858Y176239
X114858Y176239
X114858Y216239
T04
X286697Y161239
X304020Y161239
X386197Y161239
X403520Y161239
T05
X537058Y376239
X562658Y376239
T06
X238516Y164798
X258201Y164798
X432516Y164798
X452201Y164798
T07
X372358Y191739
X362358Y191739
X352358Y191739
X342358Y191739
X332358Y191739
X322358Y191739
X312358Y191739
X302358Y191739
T08
X468858Y338239
X468858Y355739
T09
X444858Y202739
X244858Y202739
T10
X190858Y376239
X495858Y376239
M30
