G75*
%MOIN*%
%OFA0B0*%
%FSLAX25Y25*%
%IPPOS*%
%LPD*%
%AMOC8*
5,1,8,0,0,1.08239X$1,22.5*
%
%ADD10C,0.22800*%
%ADD11C,0.08800*%
%ADD12R,0.06050X0.06050*%
%ADD13R,0.04737X0.05131*%
%ADD14R,0.10800X0.05800*%
%ADD15R,0.05800X0.10800*%
%ADD16OC8,0.09300*%
%ADD17C,0.06800*%
%ADD18R,0.03900X0.04300*%
%ADD19OC8,0.13200*%
%ADD20R,0.05512X0.01575*%
%ADD21R,0.09252X0.07480*%
%ADD22C,0.04343*%
%ADD23OC8,0.05600*%
%ADD24C,0.04737*%
%ADD25C,0.03500*%
D10*
X0190858Y0376239D03*
X0495858Y0376239D03*
D11*
X0444858Y0202739D03*
X0244858Y0202739D03*
D12*
X0189858Y0216239D03*
X0189858Y0176239D03*
X0114858Y0176239D03*
X0114858Y0216239D03*
X0498858Y0215239D03*
X0498858Y0175239D03*
X0573858Y0175239D03*
X0573858Y0215239D03*
D13*
X0191205Y0302239D03*
X0184512Y0302239D03*
X0184512Y0312239D03*
X0191205Y0312239D03*
X0190705Y0348739D03*
X0184012Y0348739D03*
X0168705Y0362739D03*
X0162012Y0362739D03*
X0161512Y0371239D03*
X0168205Y0371239D03*
X0168205Y0379739D03*
X0161512Y0379739D03*
X0161512Y0388239D03*
X0168205Y0388239D03*
X0168205Y0396739D03*
X0161512Y0396739D03*
D14*
X0277058Y0222639D03*
X0277658Y0204839D03*
X0302658Y0204839D03*
X0302658Y0222639D03*
X0354558Y0222639D03*
X0355158Y0204839D03*
X0380158Y0204839D03*
X0402658Y0204839D03*
X0402058Y0222639D03*
X0380158Y0222639D03*
X0427658Y0222639D03*
X0427658Y0204839D03*
D15*
X0515958Y0260939D03*
X0533758Y0260939D03*
X0533758Y0286539D03*
X0515958Y0285939D03*
X0515958Y0325939D03*
X0533758Y0325939D03*
X0533758Y0351539D03*
X0515958Y0350939D03*
X0176258Y0351539D03*
X0158458Y0350939D03*
X0158458Y0325939D03*
X0176258Y0325939D03*
X0176258Y0289039D03*
X0158458Y0288439D03*
X0158458Y0263439D03*
X0176258Y0263439D03*
D16*
X0537058Y0376239D03*
X0562658Y0376239D03*
D17*
X0372358Y0194739D02*
X0372358Y0188739D01*
X0362358Y0188739D02*
X0362358Y0194739D01*
X0352358Y0194739D02*
X0352358Y0188739D01*
X0342358Y0188739D02*
X0342358Y0194739D01*
X0332358Y0194739D02*
X0332358Y0188739D01*
X0322358Y0188739D02*
X0322358Y0194739D01*
X0312358Y0194739D02*
X0312358Y0188739D01*
X0302358Y0188739D02*
X0302358Y0194739D01*
D18*
X0191258Y0319739D03*
X0183658Y0319739D03*
X0187458Y0327739D03*
X0183658Y0334739D03*
X0191258Y0334739D03*
X0187458Y0342739D03*
D19*
X0468858Y0338239D03*
X0468858Y0355739D03*
D20*
X0211063Y0355924D03*
X0211063Y0357892D03*
X0211063Y0359861D03*
X0211063Y0361829D03*
X0211063Y0363798D03*
X0211063Y0365766D03*
X0211063Y0367735D03*
X0211063Y0369703D03*
X0211063Y0371672D03*
X0211063Y0373640D03*
X0211063Y0375609D03*
X0211063Y0377577D03*
X0211063Y0379546D03*
X0211063Y0381514D03*
X0211063Y0383483D03*
X0211063Y0385451D03*
X0211063Y0387420D03*
X0211063Y0353955D03*
X0211063Y0351987D03*
X0211063Y0350018D03*
X0211063Y0348050D03*
X0211063Y0346081D03*
X0211063Y0344113D03*
X0211063Y0342144D03*
X0211063Y0340176D03*
X0211063Y0338207D03*
X0211063Y0336239D03*
X0211063Y0334270D03*
X0211063Y0332302D03*
X0211063Y0330333D03*
X0211063Y0328365D03*
X0211063Y0326396D03*
X0211063Y0324428D03*
X0211063Y0322459D03*
X0211063Y0320491D03*
X0211063Y0318522D03*
X0211063Y0316554D03*
X0211063Y0314585D03*
X0211063Y0312617D03*
X0211063Y0310648D03*
X0211063Y0308680D03*
X0211063Y0306711D03*
X0211063Y0304743D03*
X0211063Y0302774D03*
X0211063Y0300806D03*
D21*
X0223858Y0293325D03*
X0223858Y0394900D03*
D22*
X0286697Y0161239D03*
X0304020Y0161239D03*
X0386197Y0161239D03*
X0403520Y0161239D03*
D23*
X0474858Y0283239D03*
X0474858Y0293239D03*
X0474858Y0303239D03*
D24*
X0238516Y0164798D03*
X0258201Y0164798D03*
X0432516Y0164798D03*
X0452201Y0164798D03*
D25*
X0464158Y0180239D03*
X0472558Y0188639D03*
X0440458Y0216539D03*
X0440458Y0232739D03*
X0440458Y0243839D03*
X0456658Y0248339D03*
X0462958Y0250739D03*
X0466558Y0245639D03*
X0466558Y0242339D03*
X0478858Y0255239D03*
X0471958Y0267839D03*
X0471958Y0277739D03*
X0462358Y0264839D03*
X0464158Y0259739D03*
X0455758Y0261539D03*
X0440158Y0263939D03*
X0428758Y0263939D03*
X0424858Y0263939D03*
X0421558Y0263939D03*
X0418258Y0263939D03*
X0411658Y0277139D03*
X0406258Y0282539D03*
X0406258Y0285839D03*
X0401458Y0284339D03*
X0399058Y0281939D03*
X0397258Y0273839D03*
X0401158Y0266639D03*
X0387058Y0273839D03*
X0384958Y0281939D03*
X0376558Y0276839D03*
X0373258Y0276239D03*
X0369958Y0276239D03*
X0370258Y0269039D03*
X0366358Y0266339D03*
X0377758Y0261539D03*
X0369058Y0253739D03*
X0361858Y0251339D03*
X0357058Y0256139D03*
X0356158Y0246239D03*
X0364858Y0243539D03*
X0374158Y0238439D03*
X0376558Y0244139D03*
X0387058Y0245939D03*
X0388858Y0248939D03*
X0401158Y0257939D03*
X0401758Y0238739D03*
X0398158Y0234839D03*
X0374158Y0217739D03*
X0357658Y0228539D03*
X0345958Y0226139D03*
X0332758Y0236939D03*
X0342358Y0237839D03*
X0348058Y0247139D03*
X0330958Y0259139D03*
X0335158Y0266639D03*
X0329758Y0267839D03*
X0330958Y0271439D03*
X0328858Y0274139D03*
X0319258Y0267839D03*
X0315958Y0267839D03*
X0312058Y0267839D03*
X0308758Y0268439D03*
X0308458Y0263039D03*
X0312358Y0253739D03*
X0312358Y0247139D03*
X0312358Y0239339D03*
X0295558Y0231539D03*
X0292258Y0228839D03*
X0282058Y0232739D03*
X0269458Y0235739D03*
X0269458Y0241139D03*
X0269758Y0249239D03*
X0261958Y0253139D03*
X0258358Y0252839D03*
X0256258Y0255539D03*
X0255658Y0261539D03*
X0248158Y0255539D03*
X0243358Y0260339D03*
X0250858Y0266339D03*
X0248458Y0271139D03*
X0254758Y0271739D03*
X0256858Y0266339D03*
X0261058Y0268739D03*
X0269458Y0262139D03*
X0282058Y0264539D03*
X0288358Y0259739D03*
X0284158Y0256739D03*
X0286858Y0250139D03*
X0282058Y0248639D03*
X0284458Y0244439D03*
X0293758Y0247139D03*
X0294058Y0266339D03*
X0294658Y0273839D03*
X0308758Y0276539D03*
X0313558Y0279539D03*
X0333658Y0284639D03*
X0262558Y0233039D03*
X0256858Y0238739D03*
X0252058Y0248039D03*
X0244258Y0249239D03*
X0233758Y0255539D03*
X0219058Y0260339D03*
X0235558Y0266339D03*
X0216058Y0279539D03*
X0222058Y0287339D03*
X0198358Y0293339D03*
X0180958Y0283139D03*
X0170458Y0284639D03*
X0160258Y0278339D03*
X0156958Y0278639D03*
X0155458Y0273539D03*
X0185458Y0269339D03*
X0196558Y0280439D03*
X0172858Y0305039D03*
X0177358Y0312839D03*
X0181258Y0308339D03*
X0179758Y0319139D03*
X0189958Y0323639D03*
X0191158Y0326939D03*
X0193858Y0330839D03*
X0196258Y0328439D03*
X0202858Y0331139D03*
X0198058Y0335939D03*
X0200458Y0338339D03*
X0203758Y0344939D03*
X0204658Y0352139D03*
X0215758Y0341639D03*
X0218458Y0344039D03*
X0218458Y0347339D03*
X0222058Y0347639D03*
X0215758Y0335939D03*
X0218458Y0333539D03*
X0205258Y0319139D03*
X0179158Y0339539D03*
X0191458Y0340739D03*
X0191458Y0344039D03*
X0169258Y0354539D03*
X0171658Y0367739D03*
X0157858Y0365039D03*
X0138658Y0361439D03*
X0139258Y0353939D03*
X0152458Y0336839D03*
X0150058Y0334439D03*
X0135058Y0334439D03*
X0116158Y0332039D03*
X0128758Y0305939D03*
X0124558Y0287939D03*
X0159958Y0315539D03*
X0164458Y0320039D03*
X0166858Y0336839D03*
X0215758Y0363839D03*
X0219058Y0363839D03*
X0222658Y0363539D03*
X0222658Y0366839D03*
X0216058Y0371339D03*
X0215758Y0379439D03*
X0206458Y0387239D03*
X0205258Y0394139D03*
X0175558Y0391739D03*
X0172558Y0387239D03*
X0165358Y0392639D03*
X0145558Y0389339D03*
X0231058Y0241139D03*
X0235258Y0234839D03*
X0221158Y0227039D03*
X0221158Y0220739D03*
X0207058Y0230639D03*
X0204058Y0224039D03*
X0199258Y0222839D03*
X0264958Y0222839D03*
X0268858Y0222839D03*
X0274258Y0218039D03*
X0270358Y0209039D03*
X0304858Y0200339D03*
X0289258Y0181139D03*
X0347758Y0157739D03*
X0367258Y0176039D03*
X0357058Y0178439D03*
X0385558Y0176339D03*
X0416158Y0208739D03*
X0488458Y0217139D03*
X0523858Y0242639D03*
X0522358Y0245939D03*
X0542758Y0248339D03*
X0538258Y0288239D03*
X0521158Y0302639D03*
X0517558Y0295739D03*
X0507958Y0301739D03*
X0503758Y0301439D03*
X0482458Y0308339D03*
X0465958Y0317639D03*
X0482458Y0290639D03*
X0538258Y0309239D03*
X0549058Y0308939D03*
X0559858Y0298139D03*
X0561358Y0320039D03*
X0545458Y0323639D03*
X0476458Y0377039D03*
X0480058Y0386339D03*
X0418858Y0284339D03*
X0421258Y0281939D03*
X0325258Y0226139D03*
M02*
