G75*
%MOIN*%
%OFA0B0*%
%FSLAX25Y25*%
%IPPOS*%
%LPD*%
%AMOC8*
5,1,8,0,0,1.08239X$1,22.5*
%
%ADD10C,0.00000*%
%ADD11C,0.00600*%
%ADD12C,0.00400*%
%ADD13C,0.00200*%
%ADD14C,0.00500*%
%ADD15C,0.00800*%
D10*
X0236547Y0164798D02*
X0236549Y0164886D01*
X0236555Y0164974D01*
X0236565Y0165062D01*
X0236579Y0165150D01*
X0236596Y0165236D01*
X0236618Y0165322D01*
X0236643Y0165406D01*
X0236673Y0165490D01*
X0236705Y0165572D01*
X0236742Y0165652D01*
X0236782Y0165731D01*
X0236826Y0165808D01*
X0236873Y0165883D01*
X0236923Y0165955D01*
X0236977Y0166026D01*
X0237033Y0166093D01*
X0237093Y0166159D01*
X0237155Y0166221D01*
X0237221Y0166281D01*
X0237288Y0166337D01*
X0237359Y0166391D01*
X0237431Y0166441D01*
X0237506Y0166488D01*
X0237583Y0166532D01*
X0237662Y0166572D01*
X0237742Y0166609D01*
X0237824Y0166641D01*
X0237908Y0166671D01*
X0237992Y0166696D01*
X0238078Y0166718D01*
X0238164Y0166735D01*
X0238252Y0166749D01*
X0238340Y0166759D01*
X0238428Y0166765D01*
X0238516Y0166767D01*
X0238604Y0166765D01*
X0238692Y0166759D01*
X0238780Y0166749D01*
X0238868Y0166735D01*
X0238954Y0166718D01*
X0239040Y0166696D01*
X0239124Y0166671D01*
X0239208Y0166641D01*
X0239290Y0166609D01*
X0239370Y0166572D01*
X0239449Y0166532D01*
X0239526Y0166488D01*
X0239601Y0166441D01*
X0239673Y0166391D01*
X0239744Y0166337D01*
X0239811Y0166281D01*
X0239877Y0166221D01*
X0239939Y0166159D01*
X0239999Y0166093D01*
X0240055Y0166026D01*
X0240109Y0165955D01*
X0240159Y0165883D01*
X0240206Y0165808D01*
X0240250Y0165731D01*
X0240290Y0165652D01*
X0240327Y0165572D01*
X0240359Y0165490D01*
X0240389Y0165406D01*
X0240414Y0165322D01*
X0240436Y0165236D01*
X0240453Y0165150D01*
X0240467Y0165062D01*
X0240477Y0164974D01*
X0240483Y0164886D01*
X0240485Y0164798D01*
X0240483Y0164710D01*
X0240477Y0164622D01*
X0240467Y0164534D01*
X0240453Y0164446D01*
X0240436Y0164360D01*
X0240414Y0164274D01*
X0240389Y0164190D01*
X0240359Y0164106D01*
X0240327Y0164024D01*
X0240290Y0163944D01*
X0240250Y0163865D01*
X0240206Y0163788D01*
X0240159Y0163713D01*
X0240109Y0163641D01*
X0240055Y0163570D01*
X0239999Y0163503D01*
X0239939Y0163437D01*
X0239877Y0163375D01*
X0239811Y0163315D01*
X0239744Y0163259D01*
X0239673Y0163205D01*
X0239601Y0163155D01*
X0239526Y0163108D01*
X0239449Y0163064D01*
X0239370Y0163024D01*
X0239290Y0162987D01*
X0239208Y0162955D01*
X0239124Y0162925D01*
X0239040Y0162900D01*
X0238954Y0162878D01*
X0238868Y0162861D01*
X0238780Y0162847D01*
X0238692Y0162837D01*
X0238604Y0162831D01*
X0238516Y0162829D01*
X0238428Y0162831D01*
X0238340Y0162837D01*
X0238252Y0162847D01*
X0238164Y0162861D01*
X0238078Y0162878D01*
X0237992Y0162900D01*
X0237908Y0162925D01*
X0237824Y0162955D01*
X0237742Y0162987D01*
X0237662Y0163024D01*
X0237583Y0163064D01*
X0237506Y0163108D01*
X0237431Y0163155D01*
X0237359Y0163205D01*
X0237288Y0163259D01*
X0237221Y0163315D01*
X0237155Y0163375D01*
X0237093Y0163437D01*
X0237033Y0163503D01*
X0236977Y0163570D01*
X0236923Y0163641D01*
X0236873Y0163713D01*
X0236826Y0163788D01*
X0236782Y0163865D01*
X0236742Y0163944D01*
X0236705Y0164024D01*
X0236673Y0164106D01*
X0236643Y0164190D01*
X0236618Y0164274D01*
X0236596Y0164360D01*
X0236579Y0164446D01*
X0236565Y0164534D01*
X0236555Y0164622D01*
X0236549Y0164710D01*
X0236547Y0164798D01*
X0256232Y0164798D02*
X0256234Y0164886D01*
X0256240Y0164974D01*
X0256250Y0165062D01*
X0256264Y0165150D01*
X0256281Y0165236D01*
X0256303Y0165322D01*
X0256328Y0165406D01*
X0256358Y0165490D01*
X0256390Y0165572D01*
X0256427Y0165652D01*
X0256467Y0165731D01*
X0256511Y0165808D01*
X0256558Y0165883D01*
X0256608Y0165955D01*
X0256662Y0166026D01*
X0256718Y0166093D01*
X0256778Y0166159D01*
X0256840Y0166221D01*
X0256906Y0166281D01*
X0256973Y0166337D01*
X0257044Y0166391D01*
X0257116Y0166441D01*
X0257191Y0166488D01*
X0257268Y0166532D01*
X0257347Y0166572D01*
X0257427Y0166609D01*
X0257509Y0166641D01*
X0257593Y0166671D01*
X0257677Y0166696D01*
X0257763Y0166718D01*
X0257849Y0166735D01*
X0257937Y0166749D01*
X0258025Y0166759D01*
X0258113Y0166765D01*
X0258201Y0166767D01*
X0258289Y0166765D01*
X0258377Y0166759D01*
X0258465Y0166749D01*
X0258553Y0166735D01*
X0258639Y0166718D01*
X0258725Y0166696D01*
X0258809Y0166671D01*
X0258893Y0166641D01*
X0258975Y0166609D01*
X0259055Y0166572D01*
X0259134Y0166532D01*
X0259211Y0166488D01*
X0259286Y0166441D01*
X0259358Y0166391D01*
X0259429Y0166337D01*
X0259496Y0166281D01*
X0259562Y0166221D01*
X0259624Y0166159D01*
X0259684Y0166093D01*
X0259740Y0166026D01*
X0259794Y0165955D01*
X0259844Y0165883D01*
X0259891Y0165808D01*
X0259935Y0165731D01*
X0259975Y0165652D01*
X0260012Y0165572D01*
X0260044Y0165490D01*
X0260074Y0165406D01*
X0260099Y0165322D01*
X0260121Y0165236D01*
X0260138Y0165150D01*
X0260152Y0165062D01*
X0260162Y0164974D01*
X0260168Y0164886D01*
X0260170Y0164798D01*
X0260168Y0164710D01*
X0260162Y0164622D01*
X0260152Y0164534D01*
X0260138Y0164446D01*
X0260121Y0164360D01*
X0260099Y0164274D01*
X0260074Y0164190D01*
X0260044Y0164106D01*
X0260012Y0164024D01*
X0259975Y0163944D01*
X0259935Y0163865D01*
X0259891Y0163788D01*
X0259844Y0163713D01*
X0259794Y0163641D01*
X0259740Y0163570D01*
X0259684Y0163503D01*
X0259624Y0163437D01*
X0259562Y0163375D01*
X0259496Y0163315D01*
X0259429Y0163259D01*
X0259358Y0163205D01*
X0259286Y0163155D01*
X0259211Y0163108D01*
X0259134Y0163064D01*
X0259055Y0163024D01*
X0258975Y0162987D01*
X0258893Y0162955D01*
X0258809Y0162925D01*
X0258725Y0162900D01*
X0258639Y0162878D01*
X0258553Y0162861D01*
X0258465Y0162847D01*
X0258377Y0162837D01*
X0258289Y0162831D01*
X0258201Y0162829D01*
X0258113Y0162831D01*
X0258025Y0162837D01*
X0257937Y0162847D01*
X0257849Y0162861D01*
X0257763Y0162878D01*
X0257677Y0162900D01*
X0257593Y0162925D01*
X0257509Y0162955D01*
X0257427Y0162987D01*
X0257347Y0163024D01*
X0257268Y0163064D01*
X0257191Y0163108D01*
X0257116Y0163155D01*
X0257044Y0163205D01*
X0256973Y0163259D01*
X0256906Y0163315D01*
X0256840Y0163375D01*
X0256778Y0163437D01*
X0256718Y0163503D01*
X0256662Y0163570D01*
X0256608Y0163641D01*
X0256558Y0163713D01*
X0256511Y0163788D01*
X0256467Y0163865D01*
X0256427Y0163944D01*
X0256390Y0164024D01*
X0256358Y0164106D01*
X0256328Y0164190D01*
X0256303Y0164274D01*
X0256281Y0164360D01*
X0256264Y0164446D01*
X0256250Y0164534D01*
X0256240Y0164622D01*
X0256234Y0164710D01*
X0256232Y0164798D01*
X0284925Y0161239D02*
X0284927Y0161323D01*
X0284933Y0161406D01*
X0284943Y0161489D01*
X0284957Y0161572D01*
X0284974Y0161654D01*
X0284996Y0161735D01*
X0285021Y0161814D01*
X0285050Y0161893D01*
X0285083Y0161970D01*
X0285119Y0162045D01*
X0285159Y0162119D01*
X0285202Y0162191D01*
X0285249Y0162260D01*
X0285299Y0162327D01*
X0285352Y0162392D01*
X0285408Y0162454D01*
X0285466Y0162514D01*
X0285528Y0162571D01*
X0285592Y0162624D01*
X0285659Y0162675D01*
X0285728Y0162722D01*
X0285799Y0162767D01*
X0285872Y0162807D01*
X0285947Y0162844D01*
X0286024Y0162878D01*
X0286102Y0162908D01*
X0286181Y0162934D01*
X0286262Y0162957D01*
X0286344Y0162975D01*
X0286426Y0162990D01*
X0286509Y0163001D01*
X0286592Y0163008D01*
X0286676Y0163011D01*
X0286760Y0163010D01*
X0286843Y0163005D01*
X0286927Y0162996D01*
X0287009Y0162983D01*
X0287091Y0162967D01*
X0287172Y0162946D01*
X0287253Y0162922D01*
X0287331Y0162894D01*
X0287409Y0162862D01*
X0287485Y0162826D01*
X0287559Y0162787D01*
X0287631Y0162745D01*
X0287701Y0162699D01*
X0287769Y0162650D01*
X0287834Y0162598D01*
X0287897Y0162543D01*
X0287957Y0162485D01*
X0288015Y0162424D01*
X0288069Y0162360D01*
X0288121Y0162294D01*
X0288169Y0162226D01*
X0288214Y0162155D01*
X0288255Y0162082D01*
X0288294Y0162008D01*
X0288328Y0161932D01*
X0288359Y0161854D01*
X0288386Y0161775D01*
X0288410Y0161694D01*
X0288429Y0161613D01*
X0288445Y0161531D01*
X0288457Y0161448D01*
X0288465Y0161364D01*
X0288469Y0161281D01*
X0288469Y0161197D01*
X0288465Y0161114D01*
X0288457Y0161030D01*
X0288445Y0160947D01*
X0288429Y0160865D01*
X0288410Y0160784D01*
X0288386Y0160703D01*
X0288359Y0160624D01*
X0288328Y0160546D01*
X0288294Y0160470D01*
X0288255Y0160396D01*
X0288214Y0160323D01*
X0288169Y0160252D01*
X0288121Y0160184D01*
X0288069Y0160118D01*
X0288015Y0160054D01*
X0287957Y0159993D01*
X0287897Y0159935D01*
X0287834Y0159880D01*
X0287769Y0159828D01*
X0287701Y0159779D01*
X0287631Y0159733D01*
X0287559Y0159691D01*
X0287485Y0159652D01*
X0287409Y0159616D01*
X0287331Y0159584D01*
X0287253Y0159556D01*
X0287172Y0159532D01*
X0287091Y0159511D01*
X0287009Y0159495D01*
X0286927Y0159482D01*
X0286843Y0159473D01*
X0286760Y0159468D01*
X0286676Y0159467D01*
X0286592Y0159470D01*
X0286509Y0159477D01*
X0286426Y0159488D01*
X0286344Y0159503D01*
X0286262Y0159521D01*
X0286181Y0159544D01*
X0286102Y0159570D01*
X0286024Y0159600D01*
X0285947Y0159634D01*
X0285872Y0159671D01*
X0285799Y0159711D01*
X0285728Y0159756D01*
X0285659Y0159803D01*
X0285592Y0159854D01*
X0285528Y0159907D01*
X0285466Y0159964D01*
X0285408Y0160024D01*
X0285352Y0160086D01*
X0285299Y0160151D01*
X0285249Y0160218D01*
X0285202Y0160287D01*
X0285159Y0160359D01*
X0285119Y0160433D01*
X0285083Y0160508D01*
X0285050Y0160585D01*
X0285021Y0160664D01*
X0284996Y0160743D01*
X0284974Y0160824D01*
X0284957Y0160906D01*
X0284943Y0160989D01*
X0284933Y0161072D01*
X0284927Y0161155D01*
X0284925Y0161239D01*
X0302248Y0161239D02*
X0302250Y0161323D01*
X0302256Y0161406D01*
X0302266Y0161489D01*
X0302280Y0161572D01*
X0302297Y0161654D01*
X0302319Y0161735D01*
X0302344Y0161814D01*
X0302373Y0161893D01*
X0302406Y0161970D01*
X0302442Y0162045D01*
X0302482Y0162119D01*
X0302525Y0162191D01*
X0302572Y0162260D01*
X0302622Y0162327D01*
X0302675Y0162392D01*
X0302731Y0162454D01*
X0302789Y0162514D01*
X0302851Y0162571D01*
X0302915Y0162624D01*
X0302982Y0162675D01*
X0303051Y0162722D01*
X0303122Y0162767D01*
X0303195Y0162807D01*
X0303270Y0162844D01*
X0303347Y0162878D01*
X0303425Y0162908D01*
X0303504Y0162934D01*
X0303585Y0162957D01*
X0303667Y0162975D01*
X0303749Y0162990D01*
X0303832Y0163001D01*
X0303915Y0163008D01*
X0303999Y0163011D01*
X0304083Y0163010D01*
X0304166Y0163005D01*
X0304250Y0162996D01*
X0304332Y0162983D01*
X0304414Y0162967D01*
X0304495Y0162946D01*
X0304576Y0162922D01*
X0304654Y0162894D01*
X0304732Y0162862D01*
X0304808Y0162826D01*
X0304882Y0162787D01*
X0304954Y0162745D01*
X0305024Y0162699D01*
X0305092Y0162650D01*
X0305157Y0162598D01*
X0305220Y0162543D01*
X0305280Y0162485D01*
X0305338Y0162424D01*
X0305392Y0162360D01*
X0305444Y0162294D01*
X0305492Y0162226D01*
X0305537Y0162155D01*
X0305578Y0162082D01*
X0305617Y0162008D01*
X0305651Y0161932D01*
X0305682Y0161854D01*
X0305709Y0161775D01*
X0305733Y0161694D01*
X0305752Y0161613D01*
X0305768Y0161531D01*
X0305780Y0161448D01*
X0305788Y0161364D01*
X0305792Y0161281D01*
X0305792Y0161197D01*
X0305788Y0161114D01*
X0305780Y0161030D01*
X0305768Y0160947D01*
X0305752Y0160865D01*
X0305733Y0160784D01*
X0305709Y0160703D01*
X0305682Y0160624D01*
X0305651Y0160546D01*
X0305617Y0160470D01*
X0305578Y0160396D01*
X0305537Y0160323D01*
X0305492Y0160252D01*
X0305444Y0160184D01*
X0305392Y0160118D01*
X0305338Y0160054D01*
X0305280Y0159993D01*
X0305220Y0159935D01*
X0305157Y0159880D01*
X0305092Y0159828D01*
X0305024Y0159779D01*
X0304954Y0159733D01*
X0304882Y0159691D01*
X0304808Y0159652D01*
X0304732Y0159616D01*
X0304654Y0159584D01*
X0304576Y0159556D01*
X0304495Y0159532D01*
X0304414Y0159511D01*
X0304332Y0159495D01*
X0304250Y0159482D01*
X0304166Y0159473D01*
X0304083Y0159468D01*
X0303999Y0159467D01*
X0303915Y0159470D01*
X0303832Y0159477D01*
X0303749Y0159488D01*
X0303667Y0159503D01*
X0303585Y0159521D01*
X0303504Y0159544D01*
X0303425Y0159570D01*
X0303347Y0159600D01*
X0303270Y0159634D01*
X0303195Y0159671D01*
X0303122Y0159711D01*
X0303051Y0159756D01*
X0302982Y0159803D01*
X0302915Y0159854D01*
X0302851Y0159907D01*
X0302789Y0159964D01*
X0302731Y0160024D01*
X0302675Y0160086D01*
X0302622Y0160151D01*
X0302572Y0160218D01*
X0302525Y0160287D01*
X0302482Y0160359D01*
X0302442Y0160433D01*
X0302406Y0160508D01*
X0302373Y0160585D01*
X0302344Y0160664D01*
X0302319Y0160743D01*
X0302297Y0160824D01*
X0302280Y0160906D01*
X0302266Y0160989D01*
X0302256Y0161072D01*
X0302250Y0161155D01*
X0302248Y0161239D01*
X0240858Y0202739D02*
X0240860Y0202865D01*
X0240866Y0202991D01*
X0240876Y0203117D01*
X0240890Y0203243D01*
X0240908Y0203368D01*
X0240930Y0203492D01*
X0240955Y0203616D01*
X0240985Y0203739D01*
X0241018Y0203860D01*
X0241056Y0203981D01*
X0241097Y0204100D01*
X0241142Y0204219D01*
X0241190Y0204335D01*
X0241242Y0204450D01*
X0241298Y0204563D01*
X0241358Y0204675D01*
X0241421Y0204784D01*
X0241487Y0204892D01*
X0241556Y0204997D01*
X0241629Y0205100D01*
X0241706Y0205201D01*
X0241785Y0205299D01*
X0241867Y0205395D01*
X0241953Y0205488D01*
X0242041Y0205579D01*
X0242132Y0205666D01*
X0242226Y0205751D01*
X0242322Y0205832D01*
X0242421Y0205911D01*
X0242522Y0205986D01*
X0242626Y0206058D01*
X0242732Y0206127D01*
X0242840Y0206193D01*
X0242950Y0206255D01*
X0243062Y0206313D01*
X0243175Y0206368D01*
X0243291Y0206419D01*
X0243408Y0206467D01*
X0243526Y0206511D01*
X0243646Y0206551D01*
X0243767Y0206587D01*
X0243889Y0206620D01*
X0244012Y0206649D01*
X0244136Y0206673D01*
X0244260Y0206694D01*
X0244385Y0206711D01*
X0244511Y0206724D01*
X0244637Y0206733D01*
X0244763Y0206738D01*
X0244890Y0206739D01*
X0245016Y0206736D01*
X0245142Y0206729D01*
X0245268Y0206718D01*
X0245393Y0206703D01*
X0245518Y0206684D01*
X0245642Y0206661D01*
X0245766Y0206635D01*
X0245888Y0206604D01*
X0246010Y0206570D01*
X0246130Y0206531D01*
X0246249Y0206489D01*
X0246367Y0206444D01*
X0246483Y0206394D01*
X0246598Y0206341D01*
X0246710Y0206284D01*
X0246821Y0206224D01*
X0246930Y0206160D01*
X0247037Y0206093D01*
X0247142Y0206023D01*
X0247245Y0205949D01*
X0247345Y0205872D01*
X0247443Y0205792D01*
X0247538Y0205709D01*
X0247630Y0205623D01*
X0247720Y0205534D01*
X0247807Y0205442D01*
X0247890Y0205348D01*
X0247971Y0205251D01*
X0248049Y0205151D01*
X0248124Y0205049D01*
X0248195Y0204945D01*
X0248263Y0204838D01*
X0248327Y0204730D01*
X0248388Y0204619D01*
X0248446Y0204507D01*
X0248500Y0204393D01*
X0248550Y0204277D01*
X0248597Y0204160D01*
X0248640Y0204041D01*
X0248679Y0203921D01*
X0248715Y0203800D01*
X0248746Y0203677D01*
X0248774Y0203554D01*
X0248798Y0203430D01*
X0248818Y0203305D01*
X0248834Y0203180D01*
X0248846Y0203054D01*
X0248854Y0202928D01*
X0248858Y0202802D01*
X0248858Y0202676D01*
X0248854Y0202550D01*
X0248846Y0202424D01*
X0248834Y0202298D01*
X0248818Y0202173D01*
X0248798Y0202048D01*
X0248774Y0201924D01*
X0248746Y0201801D01*
X0248715Y0201678D01*
X0248679Y0201557D01*
X0248640Y0201437D01*
X0248597Y0201318D01*
X0248550Y0201201D01*
X0248500Y0201085D01*
X0248446Y0200971D01*
X0248388Y0200859D01*
X0248327Y0200748D01*
X0248263Y0200640D01*
X0248195Y0200533D01*
X0248124Y0200429D01*
X0248049Y0200327D01*
X0247971Y0200227D01*
X0247890Y0200130D01*
X0247807Y0200036D01*
X0247720Y0199944D01*
X0247630Y0199855D01*
X0247538Y0199769D01*
X0247443Y0199686D01*
X0247345Y0199606D01*
X0247245Y0199529D01*
X0247142Y0199455D01*
X0247037Y0199385D01*
X0246930Y0199318D01*
X0246821Y0199254D01*
X0246710Y0199194D01*
X0246598Y0199137D01*
X0246483Y0199084D01*
X0246367Y0199034D01*
X0246249Y0198989D01*
X0246130Y0198947D01*
X0246010Y0198908D01*
X0245888Y0198874D01*
X0245766Y0198843D01*
X0245642Y0198817D01*
X0245518Y0198794D01*
X0245393Y0198775D01*
X0245268Y0198760D01*
X0245142Y0198749D01*
X0245016Y0198742D01*
X0244890Y0198739D01*
X0244763Y0198740D01*
X0244637Y0198745D01*
X0244511Y0198754D01*
X0244385Y0198767D01*
X0244260Y0198784D01*
X0244136Y0198805D01*
X0244012Y0198829D01*
X0243889Y0198858D01*
X0243767Y0198891D01*
X0243646Y0198927D01*
X0243526Y0198967D01*
X0243408Y0199011D01*
X0243291Y0199059D01*
X0243175Y0199110D01*
X0243062Y0199165D01*
X0242950Y0199223D01*
X0242840Y0199285D01*
X0242732Y0199351D01*
X0242626Y0199420D01*
X0242522Y0199492D01*
X0242421Y0199567D01*
X0242322Y0199646D01*
X0242226Y0199727D01*
X0242132Y0199812D01*
X0242041Y0199899D01*
X0241953Y0199990D01*
X0241867Y0200083D01*
X0241785Y0200179D01*
X0241706Y0200277D01*
X0241629Y0200378D01*
X0241556Y0200481D01*
X0241487Y0200586D01*
X0241421Y0200694D01*
X0241358Y0200803D01*
X0241298Y0200915D01*
X0241242Y0201028D01*
X0241190Y0201143D01*
X0241142Y0201259D01*
X0241097Y0201378D01*
X0241056Y0201497D01*
X0241018Y0201618D01*
X0240985Y0201739D01*
X0240955Y0201862D01*
X0240930Y0201986D01*
X0240908Y0202110D01*
X0240890Y0202235D01*
X0240876Y0202361D01*
X0240866Y0202487D01*
X0240860Y0202613D01*
X0240858Y0202739D01*
X0384425Y0161239D02*
X0384427Y0161323D01*
X0384433Y0161406D01*
X0384443Y0161489D01*
X0384457Y0161572D01*
X0384474Y0161654D01*
X0384496Y0161735D01*
X0384521Y0161814D01*
X0384550Y0161893D01*
X0384583Y0161970D01*
X0384619Y0162045D01*
X0384659Y0162119D01*
X0384702Y0162191D01*
X0384749Y0162260D01*
X0384799Y0162327D01*
X0384852Y0162392D01*
X0384908Y0162454D01*
X0384966Y0162514D01*
X0385028Y0162571D01*
X0385092Y0162624D01*
X0385159Y0162675D01*
X0385228Y0162722D01*
X0385299Y0162767D01*
X0385372Y0162807D01*
X0385447Y0162844D01*
X0385524Y0162878D01*
X0385602Y0162908D01*
X0385681Y0162934D01*
X0385762Y0162957D01*
X0385844Y0162975D01*
X0385926Y0162990D01*
X0386009Y0163001D01*
X0386092Y0163008D01*
X0386176Y0163011D01*
X0386260Y0163010D01*
X0386343Y0163005D01*
X0386427Y0162996D01*
X0386509Y0162983D01*
X0386591Y0162967D01*
X0386672Y0162946D01*
X0386753Y0162922D01*
X0386831Y0162894D01*
X0386909Y0162862D01*
X0386985Y0162826D01*
X0387059Y0162787D01*
X0387131Y0162745D01*
X0387201Y0162699D01*
X0387269Y0162650D01*
X0387334Y0162598D01*
X0387397Y0162543D01*
X0387457Y0162485D01*
X0387515Y0162424D01*
X0387569Y0162360D01*
X0387621Y0162294D01*
X0387669Y0162226D01*
X0387714Y0162155D01*
X0387755Y0162082D01*
X0387794Y0162008D01*
X0387828Y0161932D01*
X0387859Y0161854D01*
X0387886Y0161775D01*
X0387910Y0161694D01*
X0387929Y0161613D01*
X0387945Y0161531D01*
X0387957Y0161448D01*
X0387965Y0161364D01*
X0387969Y0161281D01*
X0387969Y0161197D01*
X0387965Y0161114D01*
X0387957Y0161030D01*
X0387945Y0160947D01*
X0387929Y0160865D01*
X0387910Y0160784D01*
X0387886Y0160703D01*
X0387859Y0160624D01*
X0387828Y0160546D01*
X0387794Y0160470D01*
X0387755Y0160396D01*
X0387714Y0160323D01*
X0387669Y0160252D01*
X0387621Y0160184D01*
X0387569Y0160118D01*
X0387515Y0160054D01*
X0387457Y0159993D01*
X0387397Y0159935D01*
X0387334Y0159880D01*
X0387269Y0159828D01*
X0387201Y0159779D01*
X0387131Y0159733D01*
X0387059Y0159691D01*
X0386985Y0159652D01*
X0386909Y0159616D01*
X0386831Y0159584D01*
X0386753Y0159556D01*
X0386672Y0159532D01*
X0386591Y0159511D01*
X0386509Y0159495D01*
X0386427Y0159482D01*
X0386343Y0159473D01*
X0386260Y0159468D01*
X0386176Y0159467D01*
X0386092Y0159470D01*
X0386009Y0159477D01*
X0385926Y0159488D01*
X0385844Y0159503D01*
X0385762Y0159521D01*
X0385681Y0159544D01*
X0385602Y0159570D01*
X0385524Y0159600D01*
X0385447Y0159634D01*
X0385372Y0159671D01*
X0385299Y0159711D01*
X0385228Y0159756D01*
X0385159Y0159803D01*
X0385092Y0159854D01*
X0385028Y0159907D01*
X0384966Y0159964D01*
X0384908Y0160024D01*
X0384852Y0160086D01*
X0384799Y0160151D01*
X0384749Y0160218D01*
X0384702Y0160287D01*
X0384659Y0160359D01*
X0384619Y0160433D01*
X0384583Y0160508D01*
X0384550Y0160585D01*
X0384521Y0160664D01*
X0384496Y0160743D01*
X0384474Y0160824D01*
X0384457Y0160906D01*
X0384443Y0160989D01*
X0384433Y0161072D01*
X0384427Y0161155D01*
X0384425Y0161239D01*
X0401748Y0161239D02*
X0401750Y0161323D01*
X0401756Y0161406D01*
X0401766Y0161489D01*
X0401780Y0161572D01*
X0401797Y0161654D01*
X0401819Y0161735D01*
X0401844Y0161814D01*
X0401873Y0161893D01*
X0401906Y0161970D01*
X0401942Y0162045D01*
X0401982Y0162119D01*
X0402025Y0162191D01*
X0402072Y0162260D01*
X0402122Y0162327D01*
X0402175Y0162392D01*
X0402231Y0162454D01*
X0402289Y0162514D01*
X0402351Y0162571D01*
X0402415Y0162624D01*
X0402482Y0162675D01*
X0402551Y0162722D01*
X0402622Y0162767D01*
X0402695Y0162807D01*
X0402770Y0162844D01*
X0402847Y0162878D01*
X0402925Y0162908D01*
X0403004Y0162934D01*
X0403085Y0162957D01*
X0403167Y0162975D01*
X0403249Y0162990D01*
X0403332Y0163001D01*
X0403415Y0163008D01*
X0403499Y0163011D01*
X0403583Y0163010D01*
X0403666Y0163005D01*
X0403750Y0162996D01*
X0403832Y0162983D01*
X0403914Y0162967D01*
X0403995Y0162946D01*
X0404076Y0162922D01*
X0404154Y0162894D01*
X0404232Y0162862D01*
X0404308Y0162826D01*
X0404382Y0162787D01*
X0404454Y0162745D01*
X0404524Y0162699D01*
X0404592Y0162650D01*
X0404657Y0162598D01*
X0404720Y0162543D01*
X0404780Y0162485D01*
X0404838Y0162424D01*
X0404892Y0162360D01*
X0404944Y0162294D01*
X0404992Y0162226D01*
X0405037Y0162155D01*
X0405078Y0162082D01*
X0405117Y0162008D01*
X0405151Y0161932D01*
X0405182Y0161854D01*
X0405209Y0161775D01*
X0405233Y0161694D01*
X0405252Y0161613D01*
X0405268Y0161531D01*
X0405280Y0161448D01*
X0405288Y0161364D01*
X0405292Y0161281D01*
X0405292Y0161197D01*
X0405288Y0161114D01*
X0405280Y0161030D01*
X0405268Y0160947D01*
X0405252Y0160865D01*
X0405233Y0160784D01*
X0405209Y0160703D01*
X0405182Y0160624D01*
X0405151Y0160546D01*
X0405117Y0160470D01*
X0405078Y0160396D01*
X0405037Y0160323D01*
X0404992Y0160252D01*
X0404944Y0160184D01*
X0404892Y0160118D01*
X0404838Y0160054D01*
X0404780Y0159993D01*
X0404720Y0159935D01*
X0404657Y0159880D01*
X0404592Y0159828D01*
X0404524Y0159779D01*
X0404454Y0159733D01*
X0404382Y0159691D01*
X0404308Y0159652D01*
X0404232Y0159616D01*
X0404154Y0159584D01*
X0404076Y0159556D01*
X0403995Y0159532D01*
X0403914Y0159511D01*
X0403832Y0159495D01*
X0403750Y0159482D01*
X0403666Y0159473D01*
X0403583Y0159468D01*
X0403499Y0159467D01*
X0403415Y0159470D01*
X0403332Y0159477D01*
X0403249Y0159488D01*
X0403167Y0159503D01*
X0403085Y0159521D01*
X0403004Y0159544D01*
X0402925Y0159570D01*
X0402847Y0159600D01*
X0402770Y0159634D01*
X0402695Y0159671D01*
X0402622Y0159711D01*
X0402551Y0159756D01*
X0402482Y0159803D01*
X0402415Y0159854D01*
X0402351Y0159907D01*
X0402289Y0159964D01*
X0402231Y0160024D01*
X0402175Y0160086D01*
X0402122Y0160151D01*
X0402072Y0160218D01*
X0402025Y0160287D01*
X0401982Y0160359D01*
X0401942Y0160433D01*
X0401906Y0160508D01*
X0401873Y0160585D01*
X0401844Y0160664D01*
X0401819Y0160743D01*
X0401797Y0160824D01*
X0401780Y0160906D01*
X0401766Y0160989D01*
X0401756Y0161072D01*
X0401750Y0161155D01*
X0401748Y0161239D01*
X0430547Y0164798D02*
X0430549Y0164886D01*
X0430555Y0164974D01*
X0430565Y0165062D01*
X0430579Y0165150D01*
X0430596Y0165236D01*
X0430618Y0165322D01*
X0430643Y0165406D01*
X0430673Y0165490D01*
X0430705Y0165572D01*
X0430742Y0165652D01*
X0430782Y0165731D01*
X0430826Y0165808D01*
X0430873Y0165883D01*
X0430923Y0165955D01*
X0430977Y0166026D01*
X0431033Y0166093D01*
X0431093Y0166159D01*
X0431155Y0166221D01*
X0431221Y0166281D01*
X0431288Y0166337D01*
X0431359Y0166391D01*
X0431431Y0166441D01*
X0431506Y0166488D01*
X0431583Y0166532D01*
X0431662Y0166572D01*
X0431742Y0166609D01*
X0431824Y0166641D01*
X0431908Y0166671D01*
X0431992Y0166696D01*
X0432078Y0166718D01*
X0432164Y0166735D01*
X0432252Y0166749D01*
X0432340Y0166759D01*
X0432428Y0166765D01*
X0432516Y0166767D01*
X0432604Y0166765D01*
X0432692Y0166759D01*
X0432780Y0166749D01*
X0432868Y0166735D01*
X0432954Y0166718D01*
X0433040Y0166696D01*
X0433124Y0166671D01*
X0433208Y0166641D01*
X0433290Y0166609D01*
X0433370Y0166572D01*
X0433449Y0166532D01*
X0433526Y0166488D01*
X0433601Y0166441D01*
X0433673Y0166391D01*
X0433744Y0166337D01*
X0433811Y0166281D01*
X0433877Y0166221D01*
X0433939Y0166159D01*
X0433999Y0166093D01*
X0434055Y0166026D01*
X0434109Y0165955D01*
X0434159Y0165883D01*
X0434206Y0165808D01*
X0434250Y0165731D01*
X0434290Y0165652D01*
X0434327Y0165572D01*
X0434359Y0165490D01*
X0434389Y0165406D01*
X0434414Y0165322D01*
X0434436Y0165236D01*
X0434453Y0165150D01*
X0434467Y0165062D01*
X0434477Y0164974D01*
X0434483Y0164886D01*
X0434485Y0164798D01*
X0434483Y0164710D01*
X0434477Y0164622D01*
X0434467Y0164534D01*
X0434453Y0164446D01*
X0434436Y0164360D01*
X0434414Y0164274D01*
X0434389Y0164190D01*
X0434359Y0164106D01*
X0434327Y0164024D01*
X0434290Y0163944D01*
X0434250Y0163865D01*
X0434206Y0163788D01*
X0434159Y0163713D01*
X0434109Y0163641D01*
X0434055Y0163570D01*
X0433999Y0163503D01*
X0433939Y0163437D01*
X0433877Y0163375D01*
X0433811Y0163315D01*
X0433744Y0163259D01*
X0433673Y0163205D01*
X0433601Y0163155D01*
X0433526Y0163108D01*
X0433449Y0163064D01*
X0433370Y0163024D01*
X0433290Y0162987D01*
X0433208Y0162955D01*
X0433124Y0162925D01*
X0433040Y0162900D01*
X0432954Y0162878D01*
X0432868Y0162861D01*
X0432780Y0162847D01*
X0432692Y0162837D01*
X0432604Y0162831D01*
X0432516Y0162829D01*
X0432428Y0162831D01*
X0432340Y0162837D01*
X0432252Y0162847D01*
X0432164Y0162861D01*
X0432078Y0162878D01*
X0431992Y0162900D01*
X0431908Y0162925D01*
X0431824Y0162955D01*
X0431742Y0162987D01*
X0431662Y0163024D01*
X0431583Y0163064D01*
X0431506Y0163108D01*
X0431431Y0163155D01*
X0431359Y0163205D01*
X0431288Y0163259D01*
X0431221Y0163315D01*
X0431155Y0163375D01*
X0431093Y0163437D01*
X0431033Y0163503D01*
X0430977Y0163570D01*
X0430923Y0163641D01*
X0430873Y0163713D01*
X0430826Y0163788D01*
X0430782Y0163865D01*
X0430742Y0163944D01*
X0430705Y0164024D01*
X0430673Y0164106D01*
X0430643Y0164190D01*
X0430618Y0164274D01*
X0430596Y0164360D01*
X0430579Y0164446D01*
X0430565Y0164534D01*
X0430555Y0164622D01*
X0430549Y0164710D01*
X0430547Y0164798D01*
X0450232Y0164798D02*
X0450234Y0164886D01*
X0450240Y0164974D01*
X0450250Y0165062D01*
X0450264Y0165150D01*
X0450281Y0165236D01*
X0450303Y0165322D01*
X0450328Y0165406D01*
X0450358Y0165490D01*
X0450390Y0165572D01*
X0450427Y0165652D01*
X0450467Y0165731D01*
X0450511Y0165808D01*
X0450558Y0165883D01*
X0450608Y0165955D01*
X0450662Y0166026D01*
X0450718Y0166093D01*
X0450778Y0166159D01*
X0450840Y0166221D01*
X0450906Y0166281D01*
X0450973Y0166337D01*
X0451044Y0166391D01*
X0451116Y0166441D01*
X0451191Y0166488D01*
X0451268Y0166532D01*
X0451347Y0166572D01*
X0451427Y0166609D01*
X0451509Y0166641D01*
X0451593Y0166671D01*
X0451677Y0166696D01*
X0451763Y0166718D01*
X0451849Y0166735D01*
X0451937Y0166749D01*
X0452025Y0166759D01*
X0452113Y0166765D01*
X0452201Y0166767D01*
X0452289Y0166765D01*
X0452377Y0166759D01*
X0452465Y0166749D01*
X0452553Y0166735D01*
X0452639Y0166718D01*
X0452725Y0166696D01*
X0452809Y0166671D01*
X0452893Y0166641D01*
X0452975Y0166609D01*
X0453055Y0166572D01*
X0453134Y0166532D01*
X0453211Y0166488D01*
X0453286Y0166441D01*
X0453358Y0166391D01*
X0453429Y0166337D01*
X0453496Y0166281D01*
X0453562Y0166221D01*
X0453624Y0166159D01*
X0453684Y0166093D01*
X0453740Y0166026D01*
X0453794Y0165955D01*
X0453844Y0165883D01*
X0453891Y0165808D01*
X0453935Y0165731D01*
X0453975Y0165652D01*
X0454012Y0165572D01*
X0454044Y0165490D01*
X0454074Y0165406D01*
X0454099Y0165322D01*
X0454121Y0165236D01*
X0454138Y0165150D01*
X0454152Y0165062D01*
X0454162Y0164974D01*
X0454168Y0164886D01*
X0454170Y0164798D01*
X0454168Y0164710D01*
X0454162Y0164622D01*
X0454152Y0164534D01*
X0454138Y0164446D01*
X0454121Y0164360D01*
X0454099Y0164274D01*
X0454074Y0164190D01*
X0454044Y0164106D01*
X0454012Y0164024D01*
X0453975Y0163944D01*
X0453935Y0163865D01*
X0453891Y0163788D01*
X0453844Y0163713D01*
X0453794Y0163641D01*
X0453740Y0163570D01*
X0453684Y0163503D01*
X0453624Y0163437D01*
X0453562Y0163375D01*
X0453496Y0163315D01*
X0453429Y0163259D01*
X0453358Y0163205D01*
X0453286Y0163155D01*
X0453211Y0163108D01*
X0453134Y0163064D01*
X0453055Y0163024D01*
X0452975Y0162987D01*
X0452893Y0162955D01*
X0452809Y0162925D01*
X0452725Y0162900D01*
X0452639Y0162878D01*
X0452553Y0162861D01*
X0452465Y0162847D01*
X0452377Y0162837D01*
X0452289Y0162831D01*
X0452201Y0162829D01*
X0452113Y0162831D01*
X0452025Y0162837D01*
X0451937Y0162847D01*
X0451849Y0162861D01*
X0451763Y0162878D01*
X0451677Y0162900D01*
X0451593Y0162925D01*
X0451509Y0162955D01*
X0451427Y0162987D01*
X0451347Y0163024D01*
X0451268Y0163064D01*
X0451191Y0163108D01*
X0451116Y0163155D01*
X0451044Y0163205D01*
X0450973Y0163259D01*
X0450906Y0163315D01*
X0450840Y0163375D01*
X0450778Y0163437D01*
X0450718Y0163503D01*
X0450662Y0163570D01*
X0450608Y0163641D01*
X0450558Y0163713D01*
X0450511Y0163788D01*
X0450467Y0163865D01*
X0450427Y0163944D01*
X0450390Y0164024D01*
X0450358Y0164106D01*
X0450328Y0164190D01*
X0450303Y0164274D01*
X0450281Y0164360D01*
X0450264Y0164446D01*
X0450250Y0164534D01*
X0450240Y0164622D01*
X0450234Y0164710D01*
X0450232Y0164798D01*
X0440858Y0202739D02*
X0440860Y0202865D01*
X0440866Y0202991D01*
X0440876Y0203117D01*
X0440890Y0203243D01*
X0440908Y0203368D01*
X0440930Y0203492D01*
X0440955Y0203616D01*
X0440985Y0203739D01*
X0441018Y0203860D01*
X0441056Y0203981D01*
X0441097Y0204100D01*
X0441142Y0204219D01*
X0441190Y0204335D01*
X0441242Y0204450D01*
X0441298Y0204563D01*
X0441358Y0204675D01*
X0441421Y0204784D01*
X0441487Y0204892D01*
X0441556Y0204997D01*
X0441629Y0205100D01*
X0441706Y0205201D01*
X0441785Y0205299D01*
X0441867Y0205395D01*
X0441953Y0205488D01*
X0442041Y0205579D01*
X0442132Y0205666D01*
X0442226Y0205751D01*
X0442322Y0205832D01*
X0442421Y0205911D01*
X0442522Y0205986D01*
X0442626Y0206058D01*
X0442732Y0206127D01*
X0442840Y0206193D01*
X0442950Y0206255D01*
X0443062Y0206313D01*
X0443175Y0206368D01*
X0443291Y0206419D01*
X0443408Y0206467D01*
X0443526Y0206511D01*
X0443646Y0206551D01*
X0443767Y0206587D01*
X0443889Y0206620D01*
X0444012Y0206649D01*
X0444136Y0206673D01*
X0444260Y0206694D01*
X0444385Y0206711D01*
X0444511Y0206724D01*
X0444637Y0206733D01*
X0444763Y0206738D01*
X0444890Y0206739D01*
X0445016Y0206736D01*
X0445142Y0206729D01*
X0445268Y0206718D01*
X0445393Y0206703D01*
X0445518Y0206684D01*
X0445642Y0206661D01*
X0445766Y0206635D01*
X0445888Y0206604D01*
X0446010Y0206570D01*
X0446130Y0206531D01*
X0446249Y0206489D01*
X0446367Y0206444D01*
X0446483Y0206394D01*
X0446598Y0206341D01*
X0446710Y0206284D01*
X0446821Y0206224D01*
X0446930Y0206160D01*
X0447037Y0206093D01*
X0447142Y0206023D01*
X0447245Y0205949D01*
X0447345Y0205872D01*
X0447443Y0205792D01*
X0447538Y0205709D01*
X0447630Y0205623D01*
X0447720Y0205534D01*
X0447807Y0205442D01*
X0447890Y0205348D01*
X0447971Y0205251D01*
X0448049Y0205151D01*
X0448124Y0205049D01*
X0448195Y0204945D01*
X0448263Y0204838D01*
X0448327Y0204730D01*
X0448388Y0204619D01*
X0448446Y0204507D01*
X0448500Y0204393D01*
X0448550Y0204277D01*
X0448597Y0204160D01*
X0448640Y0204041D01*
X0448679Y0203921D01*
X0448715Y0203800D01*
X0448746Y0203677D01*
X0448774Y0203554D01*
X0448798Y0203430D01*
X0448818Y0203305D01*
X0448834Y0203180D01*
X0448846Y0203054D01*
X0448854Y0202928D01*
X0448858Y0202802D01*
X0448858Y0202676D01*
X0448854Y0202550D01*
X0448846Y0202424D01*
X0448834Y0202298D01*
X0448818Y0202173D01*
X0448798Y0202048D01*
X0448774Y0201924D01*
X0448746Y0201801D01*
X0448715Y0201678D01*
X0448679Y0201557D01*
X0448640Y0201437D01*
X0448597Y0201318D01*
X0448550Y0201201D01*
X0448500Y0201085D01*
X0448446Y0200971D01*
X0448388Y0200859D01*
X0448327Y0200748D01*
X0448263Y0200640D01*
X0448195Y0200533D01*
X0448124Y0200429D01*
X0448049Y0200327D01*
X0447971Y0200227D01*
X0447890Y0200130D01*
X0447807Y0200036D01*
X0447720Y0199944D01*
X0447630Y0199855D01*
X0447538Y0199769D01*
X0447443Y0199686D01*
X0447345Y0199606D01*
X0447245Y0199529D01*
X0447142Y0199455D01*
X0447037Y0199385D01*
X0446930Y0199318D01*
X0446821Y0199254D01*
X0446710Y0199194D01*
X0446598Y0199137D01*
X0446483Y0199084D01*
X0446367Y0199034D01*
X0446249Y0198989D01*
X0446130Y0198947D01*
X0446010Y0198908D01*
X0445888Y0198874D01*
X0445766Y0198843D01*
X0445642Y0198817D01*
X0445518Y0198794D01*
X0445393Y0198775D01*
X0445268Y0198760D01*
X0445142Y0198749D01*
X0445016Y0198742D01*
X0444890Y0198739D01*
X0444763Y0198740D01*
X0444637Y0198745D01*
X0444511Y0198754D01*
X0444385Y0198767D01*
X0444260Y0198784D01*
X0444136Y0198805D01*
X0444012Y0198829D01*
X0443889Y0198858D01*
X0443767Y0198891D01*
X0443646Y0198927D01*
X0443526Y0198967D01*
X0443408Y0199011D01*
X0443291Y0199059D01*
X0443175Y0199110D01*
X0443062Y0199165D01*
X0442950Y0199223D01*
X0442840Y0199285D01*
X0442732Y0199351D01*
X0442626Y0199420D01*
X0442522Y0199492D01*
X0442421Y0199567D01*
X0442322Y0199646D01*
X0442226Y0199727D01*
X0442132Y0199812D01*
X0442041Y0199899D01*
X0441953Y0199990D01*
X0441867Y0200083D01*
X0441785Y0200179D01*
X0441706Y0200277D01*
X0441629Y0200378D01*
X0441556Y0200481D01*
X0441487Y0200586D01*
X0441421Y0200694D01*
X0441358Y0200803D01*
X0441298Y0200915D01*
X0441242Y0201028D01*
X0441190Y0201143D01*
X0441142Y0201259D01*
X0441097Y0201378D01*
X0441056Y0201497D01*
X0441018Y0201618D01*
X0440985Y0201739D01*
X0440955Y0201862D01*
X0440930Y0201986D01*
X0440908Y0202110D01*
X0440890Y0202235D01*
X0440876Y0202361D01*
X0440866Y0202487D01*
X0440860Y0202613D01*
X0440858Y0202739D01*
X0484858Y0376239D02*
X0484861Y0376509D01*
X0484871Y0376779D01*
X0484888Y0377048D01*
X0484911Y0377317D01*
X0484941Y0377586D01*
X0484977Y0377853D01*
X0485020Y0378120D01*
X0485069Y0378385D01*
X0485125Y0378649D01*
X0485188Y0378912D01*
X0485256Y0379173D01*
X0485332Y0379432D01*
X0485413Y0379689D01*
X0485501Y0379945D01*
X0485595Y0380198D01*
X0485695Y0380449D01*
X0485802Y0380697D01*
X0485914Y0380942D01*
X0486033Y0381185D01*
X0486157Y0381424D01*
X0486287Y0381661D01*
X0486423Y0381894D01*
X0486565Y0382124D01*
X0486712Y0382350D01*
X0486865Y0382573D01*
X0487023Y0382792D01*
X0487186Y0383007D01*
X0487355Y0383217D01*
X0487529Y0383424D01*
X0487708Y0383626D01*
X0487891Y0383824D01*
X0488080Y0384017D01*
X0488273Y0384206D01*
X0488471Y0384389D01*
X0488673Y0384568D01*
X0488880Y0384742D01*
X0489090Y0384911D01*
X0489305Y0385074D01*
X0489524Y0385232D01*
X0489747Y0385385D01*
X0489973Y0385532D01*
X0490203Y0385674D01*
X0490436Y0385810D01*
X0490673Y0385940D01*
X0490912Y0386064D01*
X0491155Y0386183D01*
X0491400Y0386295D01*
X0491648Y0386402D01*
X0491899Y0386502D01*
X0492152Y0386596D01*
X0492408Y0386684D01*
X0492665Y0386765D01*
X0492924Y0386841D01*
X0493185Y0386909D01*
X0493448Y0386972D01*
X0493712Y0387028D01*
X0493977Y0387077D01*
X0494244Y0387120D01*
X0494511Y0387156D01*
X0494780Y0387186D01*
X0495049Y0387209D01*
X0495318Y0387226D01*
X0495588Y0387236D01*
X0495858Y0387239D01*
X0496128Y0387236D01*
X0496398Y0387226D01*
X0496667Y0387209D01*
X0496936Y0387186D01*
X0497205Y0387156D01*
X0497472Y0387120D01*
X0497739Y0387077D01*
X0498004Y0387028D01*
X0498268Y0386972D01*
X0498531Y0386909D01*
X0498792Y0386841D01*
X0499051Y0386765D01*
X0499308Y0386684D01*
X0499564Y0386596D01*
X0499817Y0386502D01*
X0500068Y0386402D01*
X0500316Y0386295D01*
X0500561Y0386183D01*
X0500804Y0386064D01*
X0501043Y0385940D01*
X0501280Y0385810D01*
X0501513Y0385674D01*
X0501743Y0385532D01*
X0501969Y0385385D01*
X0502192Y0385232D01*
X0502411Y0385074D01*
X0502626Y0384911D01*
X0502836Y0384742D01*
X0503043Y0384568D01*
X0503245Y0384389D01*
X0503443Y0384206D01*
X0503636Y0384017D01*
X0503825Y0383824D01*
X0504008Y0383626D01*
X0504187Y0383424D01*
X0504361Y0383217D01*
X0504530Y0383007D01*
X0504693Y0382792D01*
X0504851Y0382573D01*
X0505004Y0382350D01*
X0505151Y0382124D01*
X0505293Y0381894D01*
X0505429Y0381661D01*
X0505559Y0381424D01*
X0505683Y0381185D01*
X0505802Y0380942D01*
X0505914Y0380697D01*
X0506021Y0380449D01*
X0506121Y0380198D01*
X0506215Y0379945D01*
X0506303Y0379689D01*
X0506384Y0379432D01*
X0506460Y0379173D01*
X0506528Y0378912D01*
X0506591Y0378649D01*
X0506647Y0378385D01*
X0506696Y0378120D01*
X0506739Y0377853D01*
X0506775Y0377586D01*
X0506805Y0377317D01*
X0506828Y0377048D01*
X0506845Y0376779D01*
X0506855Y0376509D01*
X0506858Y0376239D01*
X0506855Y0375969D01*
X0506845Y0375699D01*
X0506828Y0375430D01*
X0506805Y0375161D01*
X0506775Y0374892D01*
X0506739Y0374625D01*
X0506696Y0374358D01*
X0506647Y0374093D01*
X0506591Y0373829D01*
X0506528Y0373566D01*
X0506460Y0373305D01*
X0506384Y0373046D01*
X0506303Y0372789D01*
X0506215Y0372533D01*
X0506121Y0372280D01*
X0506021Y0372029D01*
X0505914Y0371781D01*
X0505802Y0371536D01*
X0505683Y0371293D01*
X0505559Y0371054D01*
X0505429Y0370817D01*
X0505293Y0370584D01*
X0505151Y0370354D01*
X0505004Y0370128D01*
X0504851Y0369905D01*
X0504693Y0369686D01*
X0504530Y0369471D01*
X0504361Y0369261D01*
X0504187Y0369054D01*
X0504008Y0368852D01*
X0503825Y0368654D01*
X0503636Y0368461D01*
X0503443Y0368272D01*
X0503245Y0368089D01*
X0503043Y0367910D01*
X0502836Y0367736D01*
X0502626Y0367567D01*
X0502411Y0367404D01*
X0502192Y0367246D01*
X0501969Y0367093D01*
X0501743Y0366946D01*
X0501513Y0366804D01*
X0501280Y0366668D01*
X0501043Y0366538D01*
X0500804Y0366414D01*
X0500561Y0366295D01*
X0500316Y0366183D01*
X0500068Y0366076D01*
X0499817Y0365976D01*
X0499564Y0365882D01*
X0499308Y0365794D01*
X0499051Y0365713D01*
X0498792Y0365637D01*
X0498531Y0365569D01*
X0498268Y0365506D01*
X0498004Y0365450D01*
X0497739Y0365401D01*
X0497472Y0365358D01*
X0497205Y0365322D01*
X0496936Y0365292D01*
X0496667Y0365269D01*
X0496398Y0365252D01*
X0496128Y0365242D01*
X0495858Y0365239D01*
X0495588Y0365242D01*
X0495318Y0365252D01*
X0495049Y0365269D01*
X0494780Y0365292D01*
X0494511Y0365322D01*
X0494244Y0365358D01*
X0493977Y0365401D01*
X0493712Y0365450D01*
X0493448Y0365506D01*
X0493185Y0365569D01*
X0492924Y0365637D01*
X0492665Y0365713D01*
X0492408Y0365794D01*
X0492152Y0365882D01*
X0491899Y0365976D01*
X0491648Y0366076D01*
X0491400Y0366183D01*
X0491155Y0366295D01*
X0490912Y0366414D01*
X0490673Y0366538D01*
X0490436Y0366668D01*
X0490203Y0366804D01*
X0489973Y0366946D01*
X0489747Y0367093D01*
X0489524Y0367246D01*
X0489305Y0367404D01*
X0489090Y0367567D01*
X0488880Y0367736D01*
X0488673Y0367910D01*
X0488471Y0368089D01*
X0488273Y0368272D01*
X0488080Y0368461D01*
X0487891Y0368654D01*
X0487708Y0368852D01*
X0487529Y0369054D01*
X0487355Y0369261D01*
X0487186Y0369471D01*
X0487023Y0369686D01*
X0486865Y0369905D01*
X0486712Y0370128D01*
X0486565Y0370354D01*
X0486423Y0370584D01*
X0486287Y0370817D01*
X0486157Y0371054D01*
X0486033Y0371293D01*
X0485914Y0371536D01*
X0485802Y0371781D01*
X0485695Y0372029D01*
X0485595Y0372280D01*
X0485501Y0372533D01*
X0485413Y0372789D01*
X0485332Y0373046D01*
X0485256Y0373305D01*
X0485188Y0373566D01*
X0485125Y0373829D01*
X0485069Y0374093D01*
X0485020Y0374358D01*
X0484977Y0374625D01*
X0484941Y0374892D01*
X0484911Y0375161D01*
X0484888Y0375430D01*
X0484871Y0375699D01*
X0484861Y0375969D01*
X0484858Y0376239D01*
X0179858Y0376239D02*
X0179861Y0376509D01*
X0179871Y0376779D01*
X0179888Y0377048D01*
X0179911Y0377317D01*
X0179941Y0377586D01*
X0179977Y0377853D01*
X0180020Y0378120D01*
X0180069Y0378385D01*
X0180125Y0378649D01*
X0180188Y0378912D01*
X0180256Y0379173D01*
X0180332Y0379432D01*
X0180413Y0379689D01*
X0180501Y0379945D01*
X0180595Y0380198D01*
X0180695Y0380449D01*
X0180802Y0380697D01*
X0180914Y0380942D01*
X0181033Y0381185D01*
X0181157Y0381424D01*
X0181287Y0381661D01*
X0181423Y0381894D01*
X0181565Y0382124D01*
X0181712Y0382350D01*
X0181865Y0382573D01*
X0182023Y0382792D01*
X0182186Y0383007D01*
X0182355Y0383217D01*
X0182529Y0383424D01*
X0182708Y0383626D01*
X0182891Y0383824D01*
X0183080Y0384017D01*
X0183273Y0384206D01*
X0183471Y0384389D01*
X0183673Y0384568D01*
X0183880Y0384742D01*
X0184090Y0384911D01*
X0184305Y0385074D01*
X0184524Y0385232D01*
X0184747Y0385385D01*
X0184973Y0385532D01*
X0185203Y0385674D01*
X0185436Y0385810D01*
X0185673Y0385940D01*
X0185912Y0386064D01*
X0186155Y0386183D01*
X0186400Y0386295D01*
X0186648Y0386402D01*
X0186899Y0386502D01*
X0187152Y0386596D01*
X0187408Y0386684D01*
X0187665Y0386765D01*
X0187924Y0386841D01*
X0188185Y0386909D01*
X0188448Y0386972D01*
X0188712Y0387028D01*
X0188977Y0387077D01*
X0189244Y0387120D01*
X0189511Y0387156D01*
X0189780Y0387186D01*
X0190049Y0387209D01*
X0190318Y0387226D01*
X0190588Y0387236D01*
X0190858Y0387239D01*
X0191128Y0387236D01*
X0191398Y0387226D01*
X0191667Y0387209D01*
X0191936Y0387186D01*
X0192205Y0387156D01*
X0192472Y0387120D01*
X0192739Y0387077D01*
X0193004Y0387028D01*
X0193268Y0386972D01*
X0193531Y0386909D01*
X0193792Y0386841D01*
X0194051Y0386765D01*
X0194308Y0386684D01*
X0194564Y0386596D01*
X0194817Y0386502D01*
X0195068Y0386402D01*
X0195316Y0386295D01*
X0195561Y0386183D01*
X0195804Y0386064D01*
X0196043Y0385940D01*
X0196280Y0385810D01*
X0196513Y0385674D01*
X0196743Y0385532D01*
X0196969Y0385385D01*
X0197192Y0385232D01*
X0197411Y0385074D01*
X0197626Y0384911D01*
X0197836Y0384742D01*
X0198043Y0384568D01*
X0198245Y0384389D01*
X0198443Y0384206D01*
X0198636Y0384017D01*
X0198825Y0383824D01*
X0199008Y0383626D01*
X0199187Y0383424D01*
X0199361Y0383217D01*
X0199530Y0383007D01*
X0199693Y0382792D01*
X0199851Y0382573D01*
X0200004Y0382350D01*
X0200151Y0382124D01*
X0200293Y0381894D01*
X0200429Y0381661D01*
X0200559Y0381424D01*
X0200683Y0381185D01*
X0200802Y0380942D01*
X0200914Y0380697D01*
X0201021Y0380449D01*
X0201121Y0380198D01*
X0201215Y0379945D01*
X0201303Y0379689D01*
X0201384Y0379432D01*
X0201460Y0379173D01*
X0201528Y0378912D01*
X0201591Y0378649D01*
X0201647Y0378385D01*
X0201696Y0378120D01*
X0201739Y0377853D01*
X0201775Y0377586D01*
X0201805Y0377317D01*
X0201828Y0377048D01*
X0201845Y0376779D01*
X0201855Y0376509D01*
X0201858Y0376239D01*
X0201855Y0375969D01*
X0201845Y0375699D01*
X0201828Y0375430D01*
X0201805Y0375161D01*
X0201775Y0374892D01*
X0201739Y0374625D01*
X0201696Y0374358D01*
X0201647Y0374093D01*
X0201591Y0373829D01*
X0201528Y0373566D01*
X0201460Y0373305D01*
X0201384Y0373046D01*
X0201303Y0372789D01*
X0201215Y0372533D01*
X0201121Y0372280D01*
X0201021Y0372029D01*
X0200914Y0371781D01*
X0200802Y0371536D01*
X0200683Y0371293D01*
X0200559Y0371054D01*
X0200429Y0370817D01*
X0200293Y0370584D01*
X0200151Y0370354D01*
X0200004Y0370128D01*
X0199851Y0369905D01*
X0199693Y0369686D01*
X0199530Y0369471D01*
X0199361Y0369261D01*
X0199187Y0369054D01*
X0199008Y0368852D01*
X0198825Y0368654D01*
X0198636Y0368461D01*
X0198443Y0368272D01*
X0198245Y0368089D01*
X0198043Y0367910D01*
X0197836Y0367736D01*
X0197626Y0367567D01*
X0197411Y0367404D01*
X0197192Y0367246D01*
X0196969Y0367093D01*
X0196743Y0366946D01*
X0196513Y0366804D01*
X0196280Y0366668D01*
X0196043Y0366538D01*
X0195804Y0366414D01*
X0195561Y0366295D01*
X0195316Y0366183D01*
X0195068Y0366076D01*
X0194817Y0365976D01*
X0194564Y0365882D01*
X0194308Y0365794D01*
X0194051Y0365713D01*
X0193792Y0365637D01*
X0193531Y0365569D01*
X0193268Y0365506D01*
X0193004Y0365450D01*
X0192739Y0365401D01*
X0192472Y0365358D01*
X0192205Y0365322D01*
X0191936Y0365292D01*
X0191667Y0365269D01*
X0191398Y0365252D01*
X0191128Y0365242D01*
X0190858Y0365239D01*
X0190588Y0365242D01*
X0190318Y0365252D01*
X0190049Y0365269D01*
X0189780Y0365292D01*
X0189511Y0365322D01*
X0189244Y0365358D01*
X0188977Y0365401D01*
X0188712Y0365450D01*
X0188448Y0365506D01*
X0188185Y0365569D01*
X0187924Y0365637D01*
X0187665Y0365713D01*
X0187408Y0365794D01*
X0187152Y0365882D01*
X0186899Y0365976D01*
X0186648Y0366076D01*
X0186400Y0366183D01*
X0186155Y0366295D01*
X0185912Y0366414D01*
X0185673Y0366538D01*
X0185436Y0366668D01*
X0185203Y0366804D01*
X0184973Y0366946D01*
X0184747Y0367093D01*
X0184524Y0367246D01*
X0184305Y0367404D01*
X0184090Y0367567D01*
X0183880Y0367736D01*
X0183673Y0367910D01*
X0183471Y0368089D01*
X0183273Y0368272D01*
X0183080Y0368461D01*
X0182891Y0368654D01*
X0182708Y0368852D01*
X0182529Y0369054D01*
X0182355Y0369261D01*
X0182186Y0369471D01*
X0182023Y0369686D01*
X0181865Y0369905D01*
X0181712Y0370128D01*
X0181565Y0370354D01*
X0181423Y0370584D01*
X0181287Y0370817D01*
X0181157Y0371054D01*
X0181033Y0371293D01*
X0180914Y0371536D01*
X0180802Y0371781D01*
X0180695Y0372029D01*
X0180595Y0372280D01*
X0180501Y0372533D01*
X0180413Y0372789D01*
X0180332Y0373046D01*
X0180256Y0373305D01*
X0180188Y0373566D01*
X0180125Y0373829D01*
X0180069Y0374093D01*
X0180020Y0374358D01*
X0179977Y0374625D01*
X0179941Y0374892D01*
X0179911Y0375161D01*
X0179888Y0375430D01*
X0179871Y0375699D01*
X0179861Y0375969D01*
X0179858Y0376239D01*
D11*
X0171858Y0138239D02*
X0143858Y0138239D01*
X0171858Y0138239D02*
X0171858Y0157239D01*
X0121858Y0157239D01*
X0121858Y0232239D01*
X0182858Y0232239D01*
X0182858Y0138239D01*
X0198858Y0138239D01*
X0198858Y0168239D01*
X0198874Y0168509D01*
X0198896Y0168779D01*
X0198925Y0169048D01*
X0198960Y0169317D01*
X0199002Y0169584D01*
X0199051Y0169851D01*
X0199105Y0170116D01*
X0199167Y0170380D01*
X0199235Y0170642D01*
X0199309Y0170902D01*
X0199390Y0171161D01*
X0199477Y0171417D01*
X0199570Y0171671D01*
X0199669Y0171923D01*
X0199775Y0172172D01*
X0199886Y0172419D01*
X0200004Y0172663D01*
X0200127Y0172904D01*
X0200257Y0173142D01*
X0200392Y0173376D01*
X0200533Y0173608D01*
X0200679Y0173835D01*
X0200831Y0174059D01*
X0200989Y0174280D01*
X0201152Y0174496D01*
X0201320Y0174708D01*
X0201493Y0174916D01*
X0201671Y0175120D01*
X0201854Y0175319D01*
X0202043Y0175514D01*
X0202235Y0175704D01*
X0202433Y0175890D01*
X0202634Y0176070D01*
X0202841Y0176246D01*
X0203051Y0176416D01*
X0203266Y0176581D01*
X0203484Y0176741D01*
X0203706Y0176896D01*
X0203932Y0177045D01*
X0204162Y0177188D01*
X0204395Y0177326D01*
X0204632Y0177458D01*
X0204871Y0177584D01*
X0205114Y0177704D01*
X0205359Y0177819D01*
X0205607Y0177927D01*
X0205858Y0178029D01*
X0206111Y0178125D01*
X0206367Y0178215D01*
X0206624Y0178298D01*
X0206884Y0178376D01*
X0207145Y0178446D01*
X0207408Y0178511D01*
X0207673Y0178569D01*
X0207939Y0178620D01*
X0208206Y0178665D01*
X0208474Y0178703D01*
X0208742Y0178735D01*
X0209012Y0178760D01*
X0209282Y0178779D01*
X0209553Y0178790D01*
X0209823Y0178796D01*
X0210094Y0178794D01*
X0210365Y0178786D01*
X0210635Y0178772D01*
X0210905Y0178751D01*
X0211174Y0178723D01*
X0211443Y0178688D01*
X0211711Y0178647D01*
X0211977Y0178600D01*
X0212242Y0178546D01*
X0212506Y0178485D01*
X0212769Y0178418D01*
X0213029Y0178345D01*
X0213288Y0178265D01*
X0213545Y0178179D01*
X0213799Y0178087D01*
X0214052Y0177989D01*
X0214301Y0177884D01*
X0214548Y0177773D01*
X0214793Y0177657D01*
X0215034Y0177534D01*
X0215272Y0177405D01*
X0215507Y0177271D01*
X0215739Y0177131D01*
X0215967Y0176985D01*
X0216192Y0176834D01*
X0216413Y0176677D01*
X0216630Y0176515D01*
X0216843Y0176348D01*
X0217051Y0176175D01*
X0217256Y0175998D01*
X0217456Y0175815D01*
X0217651Y0175628D01*
X0217842Y0175436D01*
X0218028Y0175239D01*
X0218209Y0175038D01*
X0218386Y0174833D01*
X0218557Y0174623D01*
X0218723Y0174409D01*
X0218883Y0174191D01*
X0219039Y0173969D01*
X0219189Y0173744D01*
X0219333Y0173514D01*
X0219471Y0173282D01*
X0219604Y0173046D01*
X0219731Y0172807D01*
X0219852Y0172565D01*
X0219968Y0172320D01*
X0220077Y0172072D01*
X0220180Y0171821D01*
X0220277Y0171569D01*
X0220367Y0171313D01*
X0220452Y0171056D01*
X0220530Y0170797D01*
X0220601Y0170536D01*
X0220667Y0170273D01*
X0220726Y0170009D01*
X0220778Y0169743D01*
X0220824Y0169476D01*
X0220863Y0169208D01*
X0220896Y0168940D01*
X0220922Y0168670D01*
X0220941Y0168400D01*
X0220954Y0168130D01*
X0220960Y0167859D01*
X0220960Y0167588D01*
X0220953Y0167317D01*
X0220939Y0167047D01*
X0220919Y0166777D01*
X0220892Y0166508D01*
X0220859Y0166239D01*
X0220858Y0166239D02*
X0220858Y0138239D01*
X0466858Y0138239D01*
X0466858Y0167239D01*
X0466874Y0167507D01*
X0466896Y0167775D01*
X0466924Y0168042D01*
X0466959Y0168309D01*
X0467001Y0168574D01*
X0467049Y0168839D01*
X0467103Y0169102D01*
X0467164Y0169364D01*
X0467232Y0169624D01*
X0467305Y0169882D01*
X0467385Y0170139D01*
X0467471Y0170393D01*
X0467563Y0170646D01*
X0467662Y0170896D01*
X0467766Y0171143D01*
X0467877Y0171388D01*
X0467993Y0171631D01*
X0468115Y0171870D01*
X0468244Y0172106D01*
X0468377Y0172339D01*
X0468517Y0172569D01*
X0468662Y0172795D01*
X0468812Y0173018D01*
X0468968Y0173236D01*
X0469130Y0173451D01*
X0469296Y0173662D01*
X0469468Y0173869D01*
X0469644Y0174072D01*
X0469825Y0174270D01*
X0470012Y0174464D01*
X0470202Y0174653D01*
X0470398Y0174838D01*
X0470598Y0175017D01*
X0470802Y0175192D01*
X0471010Y0175362D01*
X0471223Y0175526D01*
X0471439Y0175686D01*
X0471659Y0175840D01*
X0471883Y0175988D01*
X0472111Y0176131D01*
X0472342Y0176269D01*
X0472576Y0176400D01*
X0472813Y0176526D01*
X0473054Y0176647D01*
X0473297Y0176761D01*
X0473543Y0176869D01*
X0473791Y0176971D01*
X0474042Y0177068D01*
X0474295Y0177158D01*
X0474551Y0177242D01*
X0474808Y0177319D01*
X0475067Y0177390D01*
X0475328Y0177455D01*
X0475590Y0177514D01*
X0475854Y0177566D01*
X0476119Y0177612D01*
X0476384Y0177651D01*
X0476651Y0177684D01*
X0476919Y0177710D01*
X0477187Y0177730D01*
X0477455Y0177743D01*
X0477724Y0177749D01*
X0477992Y0177749D01*
X0478261Y0177743D01*
X0478529Y0177730D01*
X0478797Y0177710D01*
X0479065Y0177684D01*
X0479332Y0177651D01*
X0479597Y0177612D01*
X0479862Y0177566D01*
X0480126Y0177514D01*
X0480388Y0177455D01*
X0480649Y0177390D01*
X0480908Y0177319D01*
X0481165Y0177242D01*
X0481421Y0177158D01*
X0481674Y0177068D01*
X0481925Y0176971D01*
X0482173Y0176869D01*
X0482419Y0176761D01*
X0482662Y0176647D01*
X0482903Y0176526D01*
X0483140Y0176400D01*
X0483374Y0176269D01*
X0483605Y0176131D01*
X0483833Y0175988D01*
X0484057Y0175840D01*
X0484277Y0175686D01*
X0484493Y0175526D01*
X0484706Y0175362D01*
X0484914Y0175192D01*
X0485118Y0175017D01*
X0485318Y0174838D01*
X0485514Y0174653D01*
X0485704Y0174464D01*
X0485891Y0174270D01*
X0486072Y0174072D01*
X0486248Y0173869D01*
X0486420Y0173662D01*
X0486586Y0173451D01*
X0486748Y0173236D01*
X0486904Y0173018D01*
X0487054Y0172795D01*
X0487199Y0172569D01*
X0487339Y0172339D01*
X0487472Y0172106D01*
X0487601Y0171870D01*
X0487723Y0171631D01*
X0487839Y0171388D01*
X0487950Y0171143D01*
X0488054Y0170896D01*
X0488153Y0170646D01*
X0488245Y0170393D01*
X0488331Y0170139D01*
X0488411Y0169882D01*
X0488484Y0169624D01*
X0488552Y0169364D01*
X0488613Y0169102D01*
X0488667Y0168839D01*
X0488715Y0168574D01*
X0488757Y0168309D01*
X0488792Y0168042D01*
X0488820Y0167775D01*
X0488842Y0167507D01*
X0488858Y0167239D01*
X0488858Y0138239D01*
X0505858Y0138239D01*
X0505858Y0232239D01*
X0566858Y0232239D01*
X0566858Y0157239D01*
X0516858Y0157239D01*
X0516858Y0138239D01*
X0550858Y0138239D01*
X0551949Y0138264D01*
X0553039Y0138316D01*
X0554127Y0138395D01*
X0555213Y0138500D01*
X0556296Y0138632D01*
X0557376Y0138791D01*
X0558451Y0138976D01*
X0559521Y0139187D01*
X0560586Y0139424D01*
X0561645Y0139688D01*
X0562697Y0139977D01*
X0563742Y0140292D01*
X0564778Y0140633D01*
X0565806Y0140998D01*
X0566825Y0141389D01*
X0567834Y0141805D01*
X0568832Y0142245D01*
X0569819Y0142710D01*
X0570795Y0143199D01*
X0571758Y0143711D01*
X0572708Y0144247D01*
X0573645Y0144806D01*
X0574568Y0145388D01*
X0575477Y0145993D01*
X0576370Y0146619D01*
X0577248Y0147267D01*
X0578109Y0147937D01*
X0578954Y0148627D01*
X0579782Y0149338D01*
X0580592Y0150069D01*
X0581384Y0150819D01*
X0582157Y0151589D01*
X0582911Y0152377D01*
X0583646Y0153184D01*
X0584361Y0154009D01*
X0585055Y0154850D01*
X0585728Y0155709D01*
X0586380Y0156584D01*
X0587011Y0157474D01*
X0587619Y0158380D01*
X0588205Y0159300D01*
X0588769Y0160234D01*
X0589309Y0161182D01*
X0589826Y0162143D01*
X0590319Y0163116D01*
X0590788Y0164102D01*
X0591233Y0165098D01*
X0591654Y0166105D01*
X0592049Y0167121D01*
X0592420Y0168148D01*
X0592765Y0169183D01*
X0593085Y0170226D01*
X0593379Y0171277D01*
X0593647Y0172334D01*
X0593890Y0173398D01*
X0594106Y0174467D01*
X0594296Y0175542D01*
X0594459Y0176621D01*
X0594596Y0177703D01*
X0594706Y0178789D01*
X0594790Y0179876D01*
X0594847Y0180966D01*
X0594878Y0182057D01*
X0594881Y0183148D01*
X0594858Y0184239D01*
X0594858Y0354239D01*
X0594859Y0354238D02*
X0594723Y0355625D01*
X0594554Y0357008D01*
X0594352Y0358386D01*
X0594115Y0359759D01*
X0593846Y0361126D01*
X0593543Y0362486D01*
X0593208Y0363839D01*
X0592840Y0365182D01*
X0592439Y0366517D01*
X0592006Y0367841D01*
X0591540Y0369154D01*
X0591043Y0370456D01*
X0590515Y0371745D01*
X0589955Y0373021D01*
X0589365Y0374283D01*
X0588744Y0375530D01*
X0588093Y0376762D01*
X0587412Y0377977D01*
X0586701Y0379176D01*
X0585962Y0380357D01*
X0585195Y0381520D01*
X0584399Y0382663D01*
X0583576Y0383787D01*
X0582726Y0384891D01*
X0581849Y0385974D01*
X0580946Y0387035D01*
X0580017Y0388074D01*
X0579064Y0389090D01*
X0578086Y0390082D01*
X0577085Y0391051D01*
X0576060Y0391994D01*
X0575012Y0392913D01*
X0573943Y0393806D01*
X0572852Y0394673D01*
X0571740Y0395513D01*
X0570608Y0396325D01*
X0569457Y0397110D01*
X0568287Y0397867D01*
X0567099Y0398595D01*
X0565894Y0399294D01*
X0564672Y0399963D01*
X0563434Y0400602D01*
X0562181Y0401212D01*
X0560914Y0401790D01*
X0559633Y0402338D01*
X0558339Y0402854D01*
X0557033Y0403339D01*
X0555715Y0403792D01*
X0554387Y0404213D01*
X0553049Y0404601D01*
X0551702Y0404957D01*
X0550346Y0405279D01*
X0548984Y0405569D01*
X0547614Y0405826D01*
X0546239Y0406049D01*
X0544859Y0406239D01*
X0544858Y0406239D02*
X0457858Y0406239D01*
X0457858Y0296239D01*
X0245858Y0296239D01*
X0245858Y0282239D01*
X0230858Y0282239D01*
X0230858Y0406239D01*
X0138858Y0406239D01*
X0094858Y0358239D02*
X0094858Y0185239D01*
X0094815Y0184140D01*
X0094798Y0183040D01*
X0094809Y0181940D01*
X0094846Y0180841D01*
X0094911Y0179742D01*
X0095002Y0178646D01*
X0095120Y0177553D01*
X0095265Y0176462D01*
X0095436Y0175376D01*
X0095635Y0174294D01*
X0095859Y0173217D01*
X0096110Y0172146D01*
X0096387Y0171081D01*
X0096690Y0170024D01*
X0097019Y0168974D01*
X0097374Y0167933D01*
X0097754Y0166900D01*
X0098159Y0165878D01*
X0098589Y0164865D01*
X0099044Y0163864D01*
X0099523Y0162874D01*
X0100027Y0161896D01*
X0100554Y0160930D01*
X0101105Y0159978D01*
X0101679Y0159039D01*
X0102275Y0158115D01*
X0102894Y0157206D01*
X0103536Y0156312D01*
X0104199Y0155435D01*
X0104883Y0154573D01*
X0105588Y0153729D01*
X0106314Y0152902D01*
X0107060Y0152094D01*
X0107825Y0151304D01*
X0108609Y0150533D01*
X0109413Y0149781D01*
X0110234Y0149049D01*
X0111073Y0148338D01*
X0111929Y0147647D01*
X0112802Y0146978D01*
X0113691Y0146330D01*
X0114596Y0145704D01*
X0115515Y0145100D01*
X0116449Y0144520D01*
X0117398Y0143962D01*
X0118359Y0143428D01*
X0119333Y0142917D01*
X0120320Y0142431D01*
X0121318Y0141968D01*
X0122327Y0141531D01*
X0123347Y0141118D01*
X0124377Y0140730D01*
X0125415Y0140368D01*
X0126462Y0140032D01*
X0127518Y0139721D01*
X0128580Y0139436D01*
X0129649Y0139177D01*
X0130724Y0138944D01*
X0131805Y0138738D01*
X0132890Y0138559D01*
X0133979Y0138406D01*
X0135072Y0138279D01*
X0136168Y0138180D01*
X0137265Y0138108D01*
X0138364Y0138062D01*
X0139464Y0138043D01*
X0140564Y0138052D01*
X0141664Y0138087D01*
X0142762Y0138149D01*
X0143858Y0138239D01*
X0276858Y0210739D02*
X0276858Y0216739D01*
X0277858Y0216739D01*
X0277858Y0217739D01*
X0277858Y0210739D02*
X0276858Y0210739D01*
X0277858Y0210739D02*
X0277858Y0209739D01*
X0281358Y0201739D02*
X0285358Y0201739D01*
X0294858Y0201739D01*
X0298358Y0201739D01*
X0301858Y0209739D02*
X0301858Y0210739D01*
X0302858Y0210739D01*
X0302858Y0216739D01*
X0301858Y0216739D01*
X0301858Y0217739D01*
X0298358Y0225739D02*
X0294858Y0225739D01*
X0284858Y0225739D01*
X0281358Y0225739D01*
X0288858Y0213739D02*
X0288860Y0213802D01*
X0288866Y0213864D01*
X0288876Y0213926D01*
X0288889Y0213988D01*
X0288907Y0214048D01*
X0288928Y0214107D01*
X0288953Y0214165D01*
X0288982Y0214221D01*
X0289014Y0214275D01*
X0289049Y0214327D01*
X0289087Y0214376D01*
X0289129Y0214424D01*
X0289173Y0214468D01*
X0289221Y0214510D01*
X0289270Y0214548D01*
X0289322Y0214583D01*
X0289376Y0214615D01*
X0289432Y0214644D01*
X0289490Y0214669D01*
X0289549Y0214690D01*
X0289609Y0214708D01*
X0289671Y0214721D01*
X0289733Y0214731D01*
X0289795Y0214737D01*
X0289858Y0214739D01*
X0289921Y0214737D01*
X0289983Y0214731D01*
X0290045Y0214721D01*
X0290107Y0214708D01*
X0290167Y0214690D01*
X0290226Y0214669D01*
X0290284Y0214644D01*
X0290340Y0214615D01*
X0290394Y0214583D01*
X0290446Y0214548D01*
X0290495Y0214510D01*
X0290543Y0214468D01*
X0290587Y0214424D01*
X0290629Y0214376D01*
X0290667Y0214327D01*
X0290702Y0214275D01*
X0290734Y0214221D01*
X0290763Y0214165D01*
X0290788Y0214107D01*
X0290809Y0214048D01*
X0290827Y0213988D01*
X0290840Y0213926D01*
X0290850Y0213864D01*
X0290856Y0213802D01*
X0290858Y0213739D01*
X0290856Y0213676D01*
X0290850Y0213614D01*
X0290840Y0213552D01*
X0290827Y0213490D01*
X0290809Y0213430D01*
X0290788Y0213371D01*
X0290763Y0213313D01*
X0290734Y0213257D01*
X0290702Y0213203D01*
X0290667Y0213151D01*
X0290629Y0213102D01*
X0290587Y0213054D01*
X0290543Y0213010D01*
X0290495Y0212968D01*
X0290446Y0212930D01*
X0290394Y0212895D01*
X0290340Y0212863D01*
X0290284Y0212834D01*
X0290226Y0212809D01*
X0290167Y0212788D01*
X0290107Y0212770D01*
X0290045Y0212757D01*
X0289983Y0212747D01*
X0289921Y0212741D01*
X0289858Y0212739D01*
X0289795Y0212741D01*
X0289733Y0212747D01*
X0289671Y0212757D01*
X0289609Y0212770D01*
X0289549Y0212788D01*
X0289490Y0212809D01*
X0289432Y0212834D01*
X0289376Y0212863D01*
X0289322Y0212895D01*
X0289270Y0212930D01*
X0289221Y0212968D01*
X0289173Y0213010D01*
X0289129Y0213054D01*
X0289087Y0213102D01*
X0289049Y0213151D01*
X0289014Y0213203D01*
X0288982Y0213257D01*
X0288953Y0213313D01*
X0288928Y0213371D01*
X0288907Y0213430D01*
X0288889Y0213490D01*
X0288876Y0213552D01*
X0288866Y0213614D01*
X0288860Y0213676D01*
X0288858Y0213739D01*
X0282858Y0213739D02*
X0282860Y0213911D01*
X0282866Y0214082D01*
X0282877Y0214254D01*
X0282892Y0214425D01*
X0282911Y0214596D01*
X0282934Y0214766D01*
X0282961Y0214936D01*
X0282993Y0215105D01*
X0283028Y0215273D01*
X0283068Y0215440D01*
X0283112Y0215606D01*
X0283159Y0215771D01*
X0283211Y0215935D01*
X0283267Y0216097D01*
X0283327Y0216258D01*
X0283391Y0216418D01*
X0283459Y0216576D01*
X0283530Y0216732D01*
X0283605Y0216886D01*
X0283685Y0217039D01*
X0283767Y0217189D01*
X0283854Y0217338D01*
X0283944Y0217484D01*
X0284038Y0217628D01*
X0284135Y0217770D01*
X0284236Y0217909D01*
X0284340Y0218046D01*
X0284447Y0218180D01*
X0284558Y0218311D01*
X0284671Y0218440D01*
X0284788Y0218566D01*
X0284908Y0218689D01*
X0285031Y0218809D01*
X0285157Y0218926D01*
X0285286Y0219039D01*
X0285417Y0219150D01*
X0285551Y0219257D01*
X0285688Y0219361D01*
X0285827Y0219462D01*
X0285969Y0219559D01*
X0286113Y0219653D01*
X0286259Y0219743D01*
X0286408Y0219830D01*
X0286558Y0219912D01*
X0286711Y0219992D01*
X0286865Y0220067D01*
X0287021Y0220138D01*
X0287179Y0220206D01*
X0287339Y0220270D01*
X0287500Y0220330D01*
X0287662Y0220386D01*
X0287826Y0220438D01*
X0287991Y0220485D01*
X0288157Y0220529D01*
X0288324Y0220569D01*
X0288492Y0220604D01*
X0288661Y0220636D01*
X0288831Y0220663D01*
X0289001Y0220686D01*
X0289172Y0220705D01*
X0289343Y0220720D01*
X0289515Y0220731D01*
X0289686Y0220737D01*
X0289858Y0220739D01*
X0290030Y0220737D01*
X0290201Y0220731D01*
X0290373Y0220720D01*
X0290544Y0220705D01*
X0290715Y0220686D01*
X0290885Y0220663D01*
X0291055Y0220636D01*
X0291224Y0220604D01*
X0291392Y0220569D01*
X0291559Y0220529D01*
X0291725Y0220485D01*
X0291890Y0220438D01*
X0292054Y0220386D01*
X0292216Y0220330D01*
X0292377Y0220270D01*
X0292537Y0220206D01*
X0292695Y0220138D01*
X0292851Y0220067D01*
X0293005Y0219992D01*
X0293158Y0219912D01*
X0293308Y0219830D01*
X0293457Y0219743D01*
X0293603Y0219653D01*
X0293747Y0219559D01*
X0293889Y0219462D01*
X0294028Y0219361D01*
X0294165Y0219257D01*
X0294299Y0219150D01*
X0294430Y0219039D01*
X0294559Y0218926D01*
X0294685Y0218809D01*
X0294808Y0218689D01*
X0294928Y0218566D01*
X0295045Y0218440D01*
X0295158Y0218311D01*
X0295269Y0218180D01*
X0295376Y0218046D01*
X0295480Y0217909D01*
X0295581Y0217770D01*
X0295678Y0217628D01*
X0295772Y0217484D01*
X0295862Y0217338D01*
X0295949Y0217189D01*
X0296031Y0217039D01*
X0296111Y0216886D01*
X0296186Y0216732D01*
X0296257Y0216576D01*
X0296325Y0216418D01*
X0296389Y0216258D01*
X0296449Y0216097D01*
X0296505Y0215935D01*
X0296557Y0215771D01*
X0296604Y0215606D01*
X0296648Y0215440D01*
X0296688Y0215273D01*
X0296723Y0215105D01*
X0296755Y0214936D01*
X0296782Y0214766D01*
X0296805Y0214596D01*
X0296824Y0214425D01*
X0296839Y0214254D01*
X0296850Y0214082D01*
X0296856Y0213911D01*
X0296858Y0213739D01*
X0296856Y0213567D01*
X0296850Y0213396D01*
X0296839Y0213224D01*
X0296824Y0213053D01*
X0296805Y0212882D01*
X0296782Y0212712D01*
X0296755Y0212542D01*
X0296723Y0212373D01*
X0296688Y0212205D01*
X0296648Y0212038D01*
X0296604Y0211872D01*
X0296557Y0211707D01*
X0296505Y0211543D01*
X0296449Y0211381D01*
X0296389Y0211220D01*
X0296325Y0211060D01*
X0296257Y0210902D01*
X0296186Y0210746D01*
X0296111Y0210592D01*
X0296031Y0210439D01*
X0295949Y0210289D01*
X0295862Y0210140D01*
X0295772Y0209994D01*
X0295678Y0209850D01*
X0295581Y0209708D01*
X0295480Y0209569D01*
X0295376Y0209432D01*
X0295269Y0209298D01*
X0295158Y0209167D01*
X0295045Y0209038D01*
X0294928Y0208912D01*
X0294808Y0208789D01*
X0294685Y0208669D01*
X0294559Y0208552D01*
X0294430Y0208439D01*
X0294299Y0208328D01*
X0294165Y0208221D01*
X0294028Y0208117D01*
X0293889Y0208016D01*
X0293747Y0207919D01*
X0293603Y0207825D01*
X0293457Y0207735D01*
X0293308Y0207648D01*
X0293158Y0207566D01*
X0293005Y0207486D01*
X0292851Y0207411D01*
X0292695Y0207340D01*
X0292537Y0207272D01*
X0292377Y0207208D01*
X0292216Y0207148D01*
X0292054Y0207092D01*
X0291890Y0207040D01*
X0291725Y0206993D01*
X0291559Y0206949D01*
X0291392Y0206909D01*
X0291224Y0206874D01*
X0291055Y0206842D01*
X0290885Y0206815D01*
X0290715Y0206792D01*
X0290544Y0206773D01*
X0290373Y0206758D01*
X0290201Y0206747D01*
X0290030Y0206741D01*
X0289858Y0206739D01*
X0289686Y0206741D01*
X0289515Y0206747D01*
X0289343Y0206758D01*
X0289172Y0206773D01*
X0289001Y0206792D01*
X0288831Y0206815D01*
X0288661Y0206842D01*
X0288492Y0206874D01*
X0288324Y0206909D01*
X0288157Y0206949D01*
X0287991Y0206993D01*
X0287826Y0207040D01*
X0287662Y0207092D01*
X0287500Y0207148D01*
X0287339Y0207208D01*
X0287179Y0207272D01*
X0287021Y0207340D01*
X0286865Y0207411D01*
X0286711Y0207486D01*
X0286558Y0207566D01*
X0286408Y0207648D01*
X0286259Y0207735D01*
X0286113Y0207825D01*
X0285969Y0207919D01*
X0285827Y0208016D01*
X0285688Y0208117D01*
X0285551Y0208221D01*
X0285417Y0208328D01*
X0285286Y0208439D01*
X0285157Y0208552D01*
X0285031Y0208669D01*
X0284908Y0208789D01*
X0284788Y0208912D01*
X0284671Y0209038D01*
X0284558Y0209167D01*
X0284447Y0209298D01*
X0284340Y0209432D01*
X0284236Y0209569D01*
X0284135Y0209708D01*
X0284038Y0209850D01*
X0283944Y0209994D01*
X0283854Y0210140D01*
X0283767Y0210289D01*
X0283685Y0210439D01*
X0283605Y0210592D01*
X0283530Y0210746D01*
X0283459Y0210902D01*
X0283391Y0211060D01*
X0283327Y0211220D01*
X0283267Y0211381D01*
X0283211Y0211543D01*
X0283159Y0211707D01*
X0283112Y0211872D01*
X0283068Y0212038D01*
X0283028Y0212205D01*
X0282993Y0212373D01*
X0282961Y0212542D01*
X0282934Y0212712D01*
X0282911Y0212882D01*
X0282892Y0213053D01*
X0282877Y0213224D01*
X0282866Y0213396D01*
X0282860Y0213567D01*
X0282858Y0213739D01*
X0354358Y0210739D02*
X0354358Y0216739D01*
X0355358Y0216739D01*
X0355358Y0217739D01*
X0355358Y0210739D02*
X0355358Y0209739D01*
X0355358Y0210739D02*
X0354358Y0210739D01*
X0358858Y0201739D02*
X0362858Y0201739D01*
X0372358Y0201739D01*
X0375858Y0201739D01*
X0379358Y0209739D02*
X0379358Y0210739D01*
X0380358Y0210739D01*
X0380358Y0216739D01*
X0379358Y0216739D01*
X0379358Y0217739D01*
X0375858Y0225739D02*
X0372358Y0225739D01*
X0362358Y0225739D01*
X0358858Y0225739D01*
X0366358Y0213739D02*
X0366360Y0213802D01*
X0366366Y0213864D01*
X0366376Y0213926D01*
X0366389Y0213988D01*
X0366407Y0214048D01*
X0366428Y0214107D01*
X0366453Y0214165D01*
X0366482Y0214221D01*
X0366514Y0214275D01*
X0366549Y0214327D01*
X0366587Y0214376D01*
X0366629Y0214424D01*
X0366673Y0214468D01*
X0366721Y0214510D01*
X0366770Y0214548D01*
X0366822Y0214583D01*
X0366876Y0214615D01*
X0366932Y0214644D01*
X0366990Y0214669D01*
X0367049Y0214690D01*
X0367109Y0214708D01*
X0367171Y0214721D01*
X0367233Y0214731D01*
X0367295Y0214737D01*
X0367358Y0214739D01*
X0367421Y0214737D01*
X0367483Y0214731D01*
X0367545Y0214721D01*
X0367607Y0214708D01*
X0367667Y0214690D01*
X0367726Y0214669D01*
X0367784Y0214644D01*
X0367840Y0214615D01*
X0367894Y0214583D01*
X0367946Y0214548D01*
X0367995Y0214510D01*
X0368043Y0214468D01*
X0368087Y0214424D01*
X0368129Y0214376D01*
X0368167Y0214327D01*
X0368202Y0214275D01*
X0368234Y0214221D01*
X0368263Y0214165D01*
X0368288Y0214107D01*
X0368309Y0214048D01*
X0368327Y0213988D01*
X0368340Y0213926D01*
X0368350Y0213864D01*
X0368356Y0213802D01*
X0368358Y0213739D01*
X0368356Y0213676D01*
X0368350Y0213614D01*
X0368340Y0213552D01*
X0368327Y0213490D01*
X0368309Y0213430D01*
X0368288Y0213371D01*
X0368263Y0213313D01*
X0368234Y0213257D01*
X0368202Y0213203D01*
X0368167Y0213151D01*
X0368129Y0213102D01*
X0368087Y0213054D01*
X0368043Y0213010D01*
X0367995Y0212968D01*
X0367946Y0212930D01*
X0367894Y0212895D01*
X0367840Y0212863D01*
X0367784Y0212834D01*
X0367726Y0212809D01*
X0367667Y0212788D01*
X0367607Y0212770D01*
X0367545Y0212757D01*
X0367483Y0212747D01*
X0367421Y0212741D01*
X0367358Y0212739D01*
X0367295Y0212741D01*
X0367233Y0212747D01*
X0367171Y0212757D01*
X0367109Y0212770D01*
X0367049Y0212788D01*
X0366990Y0212809D01*
X0366932Y0212834D01*
X0366876Y0212863D01*
X0366822Y0212895D01*
X0366770Y0212930D01*
X0366721Y0212968D01*
X0366673Y0213010D01*
X0366629Y0213054D01*
X0366587Y0213102D01*
X0366549Y0213151D01*
X0366514Y0213203D01*
X0366482Y0213257D01*
X0366453Y0213313D01*
X0366428Y0213371D01*
X0366407Y0213430D01*
X0366389Y0213490D01*
X0366376Y0213552D01*
X0366366Y0213614D01*
X0366360Y0213676D01*
X0366358Y0213739D01*
X0360358Y0213739D02*
X0360360Y0213911D01*
X0360366Y0214082D01*
X0360377Y0214254D01*
X0360392Y0214425D01*
X0360411Y0214596D01*
X0360434Y0214766D01*
X0360461Y0214936D01*
X0360493Y0215105D01*
X0360528Y0215273D01*
X0360568Y0215440D01*
X0360612Y0215606D01*
X0360659Y0215771D01*
X0360711Y0215935D01*
X0360767Y0216097D01*
X0360827Y0216258D01*
X0360891Y0216418D01*
X0360959Y0216576D01*
X0361030Y0216732D01*
X0361105Y0216886D01*
X0361185Y0217039D01*
X0361267Y0217189D01*
X0361354Y0217338D01*
X0361444Y0217484D01*
X0361538Y0217628D01*
X0361635Y0217770D01*
X0361736Y0217909D01*
X0361840Y0218046D01*
X0361947Y0218180D01*
X0362058Y0218311D01*
X0362171Y0218440D01*
X0362288Y0218566D01*
X0362408Y0218689D01*
X0362531Y0218809D01*
X0362657Y0218926D01*
X0362786Y0219039D01*
X0362917Y0219150D01*
X0363051Y0219257D01*
X0363188Y0219361D01*
X0363327Y0219462D01*
X0363469Y0219559D01*
X0363613Y0219653D01*
X0363759Y0219743D01*
X0363908Y0219830D01*
X0364058Y0219912D01*
X0364211Y0219992D01*
X0364365Y0220067D01*
X0364521Y0220138D01*
X0364679Y0220206D01*
X0364839Y0220270D01*
X0365000Y0220330D01*
X0365162Y0220386D01*
X0365326Y0220438D01*
X0365491Y0220485D01*
X0365657Y0220529D01*
X0365824Y0220569D01*
X0365992Y0220604D01*
X0366161Y0220636D01*
X0366331Y0220663D01*
X0366501Y0220686D01*
X0366672Y0220705D01*
X0366843Y0220720D01*
X0367015Y0220731D01*
X0367186Y0220737D01*
X0367358Y0220739D01*
X0367530Y0220737D01*
X0367701Y0220731D01*
X0367873Y0220720D01*
X0368044Y0220705D01*
X0368215Y0220686D01*
X0368385Y0220663D01*
X0368555Y0220636D01*
X0368724Y0220604D01*
X0368892Y0220569D01*
X0369059Y0220529D01*
X0369225Y0220485D01*
X0369390Y0220438D01*
X0369554Y0220386D01*
X0369716Y0220330D01*
X0369877Y0220270D01*
X0370037Y0220206D01*
X0370195Y0220138D01*
X0370351Y0220067D01*
X0370505Y0219992D01*
X0370658Y0219912D01*
X0370808Y0219830D01*
X0370957Y0219743D01*
X0371103Y0219653D01*
X0371247Y0219559D01*
X0371389Y0219462D01*
X0371528Y0219361D01*
X0371665Y0219257D01*
X0371799Y0219150D01*
X0371930Y0219039D01*
X0372059Y0218926D01*
X0372185Y0218809D01*
X0372308Y0218689D01*
X0372428Y0218566D01*
X0372545Y0218440D01*
X0372658Y0218311D01*
X0372769Y0218180D01*
X0372876Y0218046D01*
X0372980Y0217909D01*
X0373081Y0217770D01*
X0373178Y0217628D01*
X0373272Y0217484D01*
X0373362Y0217338D01*
X0373449Y0217189D01*
X0373531Y0217039D01*
X0373611Y0216886D01*
X0373686Y0216732D01*
X0373757Y0216576D01*
X0373825Y0216418D01*
X0373889Y0216258D01*
X0373949Y0216097D01*
X0374005Y0215935D01*
X0374057Y0215771D01*
X0374104Y0215606D01*
X0374148Y0215440D01*
X0374188Y0215273D01*
X0374223Y0215105D01*
X0374255Y0214936D01*
X0374282Y0214766D01*
X0374305Y0214596D01*
X0374324Y0214425D01*
X0374339Y0214254D01*
X0374350Y0214082D01*
X0374356Y0213911D01*
X0374358Y0213739D01*
X0374356Y0213567D01*
X0374350Y0213396D01*
X0374339Y0213224D01*
X0374324Y0213053D01*
X0374305Y0212882D01*
X0374282Y0212712D01*
X0374255Y0212542D01*
X0374223Y0212373D01*
X0374188Y0212205D01*
X0374148Y0212038D01*
X0374104Y0211872D01*
X0374057Y0211707D01*
X0374005Y0211543D01*
X0373949Y0211381D01*
X0373889Y0211220D01*
X0373825Y0211060D01*
X0373757Y0210902D01*
X0373686Y0210746D01*
X0373611Y0210592D01*
X0373531Y0210439D01*
X0373449Y0210289D01*
X0373362Y0210140D01*
X0373272Y0209994D01*
X0373178Y0209850D01*
X0373081Y0209708D01*
X0372980Y0209569D01*
X0372876Y0209432D01*
X0372769Y0209298D01*
X0372658Y0209167D01*
X0372545Y0209038D01*
X0372428Y0208912D01*
X0372308Y0208789D01*
X0372185Y0208669D01*
X0372059Y0208552D01*
X0371930Y0208439D01*
X0371799Y0208328D01*
X0371665Y0208221D01*
X0371528Y0208117D01*
X0371389Y0208016D01*
X0371247Y0207919D01*
X0371103Y0207825D01*
X0370957Y0207735D01*
X0370808Y0207648D01*
X0370658Y0207566D01*
X0370505Y0207486D01*
X0370351Y0207411D01*
X0370195Y0207340D01*
X0370037Y0207272D01*
X0369877Y0207208D01*
X0369716Y0207148D01*
X0369554Y0207092D01*
X0369390Y0207040D01*
X0369225Y0206993D01*
X0369059Y0206949D01*
X0368892Y0206909D01*
X0368724Y0206874D01*
X0368555Y0206842D01*
X0368385Y0206815D01*
X0368215Y0206792D01*
X0368044Y0206773D01*
X0367873Y0206758D01*
X0367701Y0206747D01*
X0367530Y0206741D01*
X0367358Y0206739D01*
X0367186Y0206741D01*
X0367015Y0206747D01*
X0366843Y0206758D01*
X0366672Y0206773D01*
X0366501Y0206792D01*
X0366331Y0206815D01*
X0366161Y0206842D01*
X0365992Y0206874D01*
X0365824Y0206909D01*
X0365657Y0206949D01*
X0365491Y0206993D01*
X0365326Y0207040D01*
X0365162Y0207092D01*
X0365000Y0207148D01*
X0364839Y0207208D01*
X0364679Y0207272D01*
X0364521Y0207340D01*
X0364365Y0207411D01*
X0364211Y0207486D01*
X0364058Y0207566D01*
X0363908Y0207648D01*
X0363759Y0207735D01*
X0363613Y0207825D01*
X0363469Y0207919D01*
X0363327Y0208016D01*
X0363188Y0208117D01*
X0363051Y0208221D01*
X0362917Y0208328D01*
X0362786Y0208439D01*
X0362657Y0208552D01*
X0362531Y0208669D01*
X0362408Y0208789D01*
X0362288Y0208912D01*
X0362171Y0209038D01*
X0362058Y0209167D01*
X0361947Y0209298D01*
X0361840Y0209432D01*
X0361736Y0209569D01*
X0361635Y0209708D01*
X0361538Y0209850D01*
X0361444Y0209994D01*
X0361354Y0210140D01*
X0361267Y0210289D01*
X0361185Y0210439D01*
X0361105Y0210592D01*
X0361030Y0210746D01*
X0360959Y0210902D01*
X0360891Y0211060D01*
X0360827Y0211220D01*
X0360767Y0211381D01*
X0360711Y0211543D01*
X0360659Y0211707D01*
X0360612Y0211872D01*
X0360568Y0212038D01*
X0360528Y0212205D01*
X0360493Y0212373D01*
X0360461Y0212542D01*
X0360434Y0212712D01*
X0360411Y0212882D01*
X0360392Y0213053D01*
X0360377Y0213224D01*
X0360366Y0213396D01*
X0360360Y0213567D01*
X0360358Y0213739D01*
X0401858Y0210739D02*
X0401858Y0216739D01*
X0402858Y0216739D01*
X0402858Y0217739D01*
X0402858Y0210739D02*
X0402858Y0209739D01*
X0402858Y0210739D02*
X0401858Y0210739D01*
X0406358Y0201739D02*
X0410358Y0201739D01*
X0419858Y0201739D01*
X0423358Y0201739D01*
X0426858Y0209739D02*
X0426858Y0210739D01*
X0427858Y0210739D01*
X0427858Y0216739D01*
X0426858Y0216739D01*
X0426858Y0217739D01*
X0423358Y0225739D02*
X0419858Y0225739D01*
X0409858Y0225739D01*
X0406358Y0225739D01*
X0413858Y0213739D02*
X0413860Y0213802D01*
X0413866Y0213864D01*
X0413876Y0213926D01*
X0413889Y0213988D01*
X0413907Y0214048D01*
X0413928Y0214107D01*
X0413953Y0214165D01*
X0413982Y0214221D01*
X0414014Y0214275D01*
X0414049Y0214327D01*
X0414087Y0214376D01*
X0414129Y0214424D01*
X0414173Y0214468D01*
X0414221Y0214510D01*
X0414270Y0214548D01*
X0414322Y0214583D01*
X0414376Y0214615D01*
X0414432Y0214644D01*
X0414490Y0214669D01*
X0414549Y0214690D01*
X0414609Y0214708D01*
X0414671Y0214721D01*
X0414733Y0214731D01*
X0414795Y0214737D01*
X0414858Y0214739D01*
X0414921Y0214737D01*
X0414983Y0214731D01*
X0415045Y0214721D01*
X0415107Y0214708D01*
X0415167Y0214690D01*
X0415226Y0214669D01*
X0415284Y0214644D01*
X0415340Y0214615D01*
X0415394Y0214583D01*
X0415446Y0214548D01*
X0415495Y0214510D01*
X0415543Y0214468D01*
X0415587Y0214424D01*
X0415629Y0214376D01*
X0415667Y0214327D01*
X0415702Y0214275D01*
X0415734Y0214221D01*
X0415763Y0214165D01*
X0415788Y0214107D01*
X0415809Y0214048D01*
X0415827Y0213988D01*
X0415840Y0213926D01*
X0415850Y0213864D01*
X0415856Y0213802D01*
X0415858Y0213739D01*
X0415856Y0213676D01*
X0415850Y0213614D01*
X0415840Y0213552D01*
X0415827Y0213490D01*
X0415809Y0213430D01*
X0415788Y0213371D01*
X0415763Y0213313D01*
X0415734Y0213257D01*
X0415702Y0213203D01*
X0415667Y0213151D01*
X0415629Y0213102D01*
X0415587Y0213054D01*
X0415543Y0213010D01*
X0415495Y0212968D01*
X0415446Y0212930D01*
X0415394Y0212895D01*
X0415340Y0212863D01*
X0415284Y0212834D01*
X0415226Y0212809D01*
X0415167Y0212788D01*
X0415107Y0212770D01*
X0415045Y0212757D01*
X0414983Y0212747D01*
X0414921Y0212741D01*
X0414858Y0212739D01*
X0414795Y0212741D01*
X0414733Y0212747D01*
X0414671Y0212757D01*
X0414609Y0212770D01*
X0414549Y0212788D01*
X0414490Y0212809D01*
X0414432Y0212834D01*
X0414376Y0212863D01*
X0414322Y0212895D01*
X0414270Y0212930D01*
X0414221Y0212968D01*
X0414173Y0213010D01*
X0414129Y0213054D01*
X0414087Y0213102D01*
X0414049Y0213151D01*
X0414014Y0213203D01*
X0413982Y0213257D01*
X0413953Y0213313D01*
X0413928Y0213371D01*
X0413907Y0213430D01*
X0413889Y0213490D01*
X0413876Y0213552D01*
X0413866Y0213614D01*
X0413860Y0213676D01*
X0413858Y0213739D01*
X0407858Y0213739D02*
X0407860Y0213911D01*
X0407866Y0214082D01*
X0407877Y0214254D01*
X0407892Y0214425D01*
X0407911Y0214596D01*
X0407934Y0214766D01*
X0407961Y0214936D01*
X0407993Y0215105D01*
X0408028Y0215273D01*
X0408068Y0215440D01*
X0408112Y0215606D01*
X0408159Y0215771D01*
X0408211Y0215935D01*
X0408267Y0216097D01*
X0408327Y0216258D01*
X0408391Y0216418D01*
X0408459Y0216576D01*
X0408530Y0216732D01*
X0408605Y0216886D01*
X0408685Y0217039D01*
X0408767Y0217189D01*
X0408854Y0217338D01*
X0408944Y0217484D01*
X0409038Y0217628D01*
X0409135Y0217770D01*
X0409236Y0217909D01*
X0409340Y0218046D01*
X0409447Y0218180D01*
X0409558Y0218311D01*
X0409671Y0218440D01*
X0409788Y0218566D01*
X0409908Y0218689D01*
X0410031Y0218809D01*
X0410157Y0218926D01*
X0410286Y0219039D01*
X0410417Y0219150D01*
X0410551Y0219257D01*
X0410688Y0219361D01*
X0410827Y0219462D01*
X0410969Y0219559D01*
X0411113Y0219653D01*
X0411259Y0219743D01*
X0411408Y0219830D01*
X0411558Y0219912D01*
X0411711Y0219992D01*
X0411865Y0220067D01*
X0412021Y0220138D01*
X0412179Y0220206D01*
X0412339Y0220270D01*
X0412500Y0220330D01*
X0412662Y0220386D01*
X0412826Y0220438D01*
X0412991Y0220485D01*
X0413157Y0220529D01*
X0413324Y0220569D01*
X0413492Y0220604D01*
X0413661Y0220636D01*
X0413831Y0220663D01*
X0414001Y0220686D01*
X0414172Y0220705D01*
X0414343Y0220720D01*
X0414515Y0220731D01*
X0414686Y0220737D01*
X0414858Y0220739D01*
X0415030Y0220737D01*
X0415201Y0220731D01*
X0415373Y0220720D01*
X0415544Y0220705D01*
X0415715Y0220686D01*
X0415885Y0220663D01*
X0416055Y0220636D01*
X0416224Y0220604D01*
X0416392Y0220569D01*
X0416559Y0220529D01*
X0416725Y0220485D01*
X0416890Y0220438D01*
X0417054Y0220386D01*
X0417216Y0220330D01*
X0417377Y0220270D01*
X0417537Y0220206D01*
X0417695Y0220138D01*
X0417851Y0220067D01*
X0418005Y0219992D01*
X0418158Y0219912D01*
X0418308Y0219830D01*
X0418457Y0219743D01*
X0418603Y0219653D01*
X0418747Y0219559D01*
X0418889Y0219462D01*
X0419028Y0219361D01*
X0419165Y0219257D01*
X0419299Y0219150D01*
X0419430Y0219039D01*
X0419559Y0218926D01*
X0419685Y0218809D01*
X0419808Y0218689D01*
X0419928Y0218566D01*
X0420045Y0218440D01*
X0420158Y0218311D01*
X0420269Y0218180D01*
X0420376Y0218046D01*
X0420480Y0217909D01*
X0420581Y0217770D01*
X0420678Y0217628D01*
X0420772Y0217484D01*
X0420862Y0217338D01*
X0420949Y0217189D01*
X0421031Y0217039D01*
X0421111Y0216886D01*
X0421186Y0216732D01*
X0421257Y0216576D01*
X0421325Y0216418D01*
X0421389Y0216258D01*
X0421449Y0216097D01*
X0421505Y0215935D01*
X0421557Y0215771D01*
X0421604Y0215606D01*
X0421648Y0215440D01*
X0421688Y0215273D01*
X0421723Y0215105D01*
X0421755Y0214936D01*
X0421782Y0214766D01*
X0421805Y0214596D01*
X0421824Y0214425D01*
X0421839Y0214254D01*
X0421850Y0214082D01*
X0421856Y0213911D01*
X0421858Y0213739D01*
X0421856Y0213567D01*
X0421850Y0213396D01*
X0421839Y0213224D01*
X0421824Y0213053D01*
X0421805Y0212882D01*
X0421782Y0212712D01*
X0421755Y0212542D01*
X0421723Y0212373D01*
X0421688Y0212205D01*
X0421648Y0212038D01*
X0421604Y0211872D01*
X0421557Y0211707D01*
X0421505Y0211543D01*
X0421449Y0211381D01*
X0421389Y0211220D01*
X0421325Y0211060D01*
X0421257Y0210902D01*
X0421186Y0210746D01*
X0421111Y0210592D01*
X0421031Y0210439D01*
X0420949Y0210289D01*
X0420862Y0210140D01*
X0420772Y0209994D01*
X0420678Y0209850D01*
X0420581Y0209708D01*
X0420480Y0209569D01*
X0420376Y0209432D01*
X0420269Y0209298D01*
X0420158Y0209167D01*
X0420045Y0209038D01*
X0419928Y0208912D01*
X0419808Y0208789D01*
X0419685Y0208669D01*
X0419559Y0208552D01*
X0419430Y0208439D01*
X0419299Y0208328D01*
X0419165Y0208221D01*
X0419028Y0208117D01*
X0418889Y0208016D01*
X0418747Y0207919D01*
X0418603Y0207825D01*
X0418457Y0207735D01*
X0418308Y0207648D01*
X0418158Y0207566D01*
X0418005Y0207486D01*
X0417851Y0207411D01*
X0417695Y0207340D01*
X0417537Y0207272D01*
X0417377Y0207208D01*
X0417216Y0207148D01*
X0417054Y0207092D01*
X0416890Y0207040D01*
X0416725Y0206993D01*
X0416559Y0206949D01*
X0416392Y0206909D01*
X0416224Y0206874D01*
X0416055Y0206842D01*
X0415885Y0206815D01*
X0415715Y0206792D01*
X0415544Y0206773D01*
X0415373Y0206758D01*
X0415201Y0206747D01*
X0415030Y0206741D01*
X0414858Y0206739D01*
X0414686Y0206741D01*
X0414515Y0206747D01*
X0414343Y0206758D01*
X0414172Y0206773D01*
X0414001Y0206792D01*
X0413831Y0206815D01*
X0413661Y0206842D01*
X0413492Y0206874D01*
X0413324Y0206909D01*
X0413157Y0206949D01*
X0412991Y0206993D01*
X0412826Y0207040D01*
X0412662Y0207092D01*
X0412500Y0207148D01*
X0412339Y0207208D01*
X0412179Y0207272D01*
X0412021Y0207340D01*
X0411865Y0207411D01*
X0411711Y0207486D01*
X0411558Y0207566D01*
X0411408Y0207648D01*
X0411259Y0207735D01*
X0411113Y0207825D01*
X0410969Y0207919D01*
X0410827Y0208016D01*
X0410688Y0208117D01*
X0410551Y0208221D01*
X0410417Y0208328D01*
X0410286Y0208439D01*
X0410157Y0208552D01*
X0410031Y0208669D01*
X0409908Y0208789D01*
X0409788Y0208912D01*
X0409671Y0209038D01*
X0409558Y0209167D01*
X0409447Y0209298D01*
X0409340Y0209432D01*
X0409236Y0209569D01*
X0409135Y0209708D01*
X0409038Y0209850D01*
X0408944Y0209994D01*
X0408854Y0210140D01*
X0408767Y0210289D01*
X0408685Y0210439D01*
X0408605Y0210592D01*
X0408530Y0210746D01*
X0408459Y0210902D01*
X0408391Y0211060D01*
X0408327Y0211220D01*
X0408267Y0211381D01*
X0408211Y0211543D01*
X0408159Y0211707D01*
X0408112Y0211872D01*
X0408068Y0212038D01*
X0408028Y0212205D01*
X0407993Y0212373D01*
X0407961Y0212542D01*
X0407934Y0212712D01*
X0407911Y0212882D01*
X0407892Y0213053D01*
X0407877Y0213224D01*
X0407866Y0213396D01*
X0407860Y0213567D01*
X0407858Y0213739D01*
X0512858Y0265239D02*
X0512858Y0268739D01*
X0512858Y0278239D01*
X0512858Y0282239D01*
X0520858Y0285739D02*
X0521858Y0285739D01*
X0521858Y0286739D01*
X0527858Y0286739D01*
X0527858Y0285739D01*
X0528858Y0285739D01*
X0536858Y0282239D02*
X0536858Y0278739D01*
X0536858Y0268739D01*
X0536858Y0265239D01*
X0528858Y0261739D02*
X0527858Y0261739D01*
X0527858Y0260739D01*
X0521858Y0260739D01*
X0521858Y0261739D01*
X0520858Y0261739D01*
X0523858Y0273739D02*
X0523860Y0273802D01*
X0523866Y0273864D01*
X0523876Y0273926D01*
X0523889Y0273988D01*
X0523907Y0274048D01*
X0523928Y0274107D01*
X0523953Y0274165D01*
X0523982Y0274221D01*
X0524014Y0274275D01*
X0524049Y0274327D01*
X0524087Y0274376D01*
X0524129Y0274424D01*
X0524173Y0274468D01*
X0524221Y0274510D01*
X0524270Y0274548D01*
X0524322Y0274583D01*
X0524376Y0274615D01*
X0524432Y0274644D01*
X0524490Y0274669D01*
X0524549Y0274690D01*
X0524609Y0274708D01*
X0524671Y0274721D01*
X0524733Y0274731D01*
X0524795Y0274737D01*
X0524858Y0274739D01*
X0524921Y0274737D01*
X0524983Y0274731D01*
X0525045Y0274721D01*
X0525107Y0274708D01*
X0525167Y0274690D01*
X0525226Y0274669D01*
X0525284Y0274644D01*
X0525340Y0274615D01*
X0525394Y0274583D01*
X0525446Y0274548D01*
X0525495Y0274510D01*
X0525543Y0274468D01*
X0525587Y0274424D01*
X0525629Y0274376D01*
X0525667Y0274327D01*
X0525702Y0274275D01*
X0525734Y0274221D01*
X0525763Y0274165D01*
X0525788Y0274107D01*
X0525809Y0274048D01*
X0525827Y0273988D01*
X0525840Y0273926D01*
X0525850Y0273864D01*
X0525856Y0273802D01*
X0525858Y0273739D01*
X0525856Y0273676D01*
X0525850Y0273614D01*
X0525840Y0273552D01*
X0525827Y0273490D01*
X0525809Y0273430D01*
X0525788Y0273371D01*
X0525763Y0273313D01*
X0525734Y0273257D01*
X0525702Y0273203D01*
X0525667Y0273151D01*
X0525629Y0273102D01*
X0525587Y0273054D01*
X0525543Y0273010D01*
X0525495Y0272968D01*
X0525446Y0272930D01*
X0525394Y0272895D01*
X0525340Y0272863D01*
X0525284Y0272834D01*
X0525226Y0272809D01*
X0525167Y0272788D01*
X0525107Y0272770D01*
X0525045Y0272757D01*
X0524983Y0272747D01*
X0524921Y0272741D01*
X0524858Y0272739D01*
X0524795Y0272741D01*
X0524733Y0272747D01*
X0524671Y0272757D01*
X0524609Y0272770D01*
X0524549Y0272788D01*
X0524490Y0272809D01*
X0524432Y0272834D01*
X0524376Y0272863D01*
X0524322Y0272895D01*
X0524270Y0272930D01*
X0524221Y0272968D01*
X0524173Y0273010D01*
X0524129Y0273054D01*
X0524087Y0273102D01*
X0524049Y0273151D01*
X0524014Y0273203D01*
X0523982Y0273257D01*
X0523953Y0273313D01*
X0523928Y0273371D01*
X0523907Y0273430D01*
X0523889Y0273490D01*
X0523876Y0273552D01*
X0523866Y0273614D01*
X0523860Y0273676D01*
X0523858Y0273739D01*
X0517858Y0273739D02*
X0517860Y0273911D01*
X0517866Y0274082D01*
X0517877Y0274254D01*
X0517892Y0274425D01*
X0517911Y0274596D01*
X0517934Y0274766D01*
X0517961Y0274936D01*
X0517993Y0275105D01*
X0518028Y0275273D01*
X0518068Y0275440D01*
X0518112Y0275606D01*
X0518159Y0275771D01*
X0518211Y0275935D01*
X0518267Y0276097D01*
X0518327Y0276258D01*
X0518391Y0276418D01*
X0518459Y0276576D01*
X0518530Y0276732D01*
X0518605Y0276886D01*
X0518685Y0277039D01*
X0518767Y0277189D01*
X0518854Y0277338D01*
X0518944Y0277484D01*
X0519038Y0277628D01*
X0519135Y0277770D01*
X0519236Y0277909D01*
X0519340Y0278046D01*
X0519447Y0278180D01*
X0519558Y0278311D01*
X0519671Y0278440D01*
X0519788Y0278566D01*
X0519908Y0278689D01*
X0520031Y0278809D01*
X0520157Y0278926D01*
X0520286Y0279039D01*
X0520417Y0279150D01*
X0520551Y0279257D01*
X0520688Y0279361D01*
X0520827Y0279462D01*
X0520969Y0279559D01*
X0521113Y0279653D01*
X0521259Y0279743D01*
X0521408Y0279830D01*
X0521558Y0279912D01*
X0521711Y0279992D01*
X0521865Y0280067D01*
X0522021Y0280138D01*
X0522179Y0280206D01*
X0522339Y0280270D01*
X0522500Y0280330D01*
X0522662Y0280386D01*
X0522826Y0280438D01*
X0522991Y0280485D01*
X0523157Y0280529D01*
X0523324Y0280569D01*
X0523492Y0280604D01*
X0523661Y0280636D01*
X0523831Y0280663D01*
X0524001Y0280686D01*
X0524172Y0280705D01*
X0524343Y0280720D01*
X0524515Y0280731D01*
X0524686Y0280737D01*
X0524858Y0280739D01*
X0525030Y0280737D01*
X0525201Y0280731D01*
X0525373Y0280720D01*
X0525544Y0280705D01*
X0525715Y0280686D01*
X0525885Y0280663D01*
X0526055Y0280636D01*
X0526224Y0280604D01*
X0526392Y0280569D01*
X0526559Y0280529D01*
X0526725Y0280485D01*
X0526890Y0280438D01*
X0527054Y0280386D01*
X0527216Y0280330D01*
X0527377Y0280270D01*
X0527537Y0280206D01*
X0527695Y0280138D01*
X0527851Y0280067D01*
X0528005Y0279992D01*
X0528158Y0279912D01*
X0528308Y0279830D01*
X0528457Y0279743D01*
X0528603Y0279653D01*
X0528747Y0279559D01*
X0528889Y0279462D01*
X0529028Y0279361D01*
X0529165Y0279257D01*
X0529299Y0279150D01*
X0529430Y0279039D01*
X0529559Y0278926D01*
X0529685Y0278809D01*
X0529808Y0278689D01*
X0529928Y0278566D01*
X0530045Y0278440D01*
X0530158Y0278311D01*
X0530269Y0278180D01*
X0530376Y0278046D01*
X0530480Y0277909D01*
X0530581Y0277770D01*
X0530678Y0277628D01*
X0530772Y0277484D01*
X0530862Y0277338D01*
X0530949Y0277189D01*
X0531031Y0277039D01*
X0531111Y0276886D01*
X0531186Y0276732D01*
X0531257Y0276576D01*
X0531325Y0276418D01*
X0531389Y0276258D01*
X0531449Y0276097D01*
X0531505Y0275935D01*
X0531557Y0275771D01*
X0531604Y0275606D01*
X0531648Y0275440D01*
X0531688Y0275273D01*
X0531723Y0275105D01*
X0531755Y0274936D01*
X0531782Y0274766D01*
X0531805Y0274596D01*
X0531824Y0274425D01*
X0531839Y0274254D01*
X0531850Y0274082D01*
X0531856Y0273911D01*
X0531858Y0273739D01*
X0531856Y0273567D01*
X0531850Y0273396D01*
X0531839Y0273224D01*
X0531824Y0273053D01*
X0531805Y0272882D01*
X0531782Y0272712D01*
X0531755Y0272542D01*
X0531723Y0272373D01*
X0531688Y0272205D01*
X0531648Y0272038D01*
X0531604Y0271872D01*
X0531557Y0271707D01*
X0531505Y0271543D01*
X0531449Y0271381D01*
X0531389Y0271220D01*
X0531325Y0271060D01*
X0531257Y0270902D01*
X0531186Y0270746D01*
X0531111Y0270592D01*
X0531031Y0270439D01*
X0530949Y0270289D01*
X0530862Y0270140D01*
X0530772Y0269994D01*
X0530678Y0269850D01*
X0530581Y0269708D01*
X0530480Y0269569D01*
X0530376Y0269432D01*
X0530269Y0269298D01*
X0530158Y0269167D01*
X0530045Y0269038D01*
X0529928Y0268912D01*
X0529808Y0268789D01*
X0529685Y0268669D01*
X0529559Y0268552D01*
X0529430Y0268439D01*
X0529299Y0268328D01*
X0529165Y0268221D01*
X0529028Y0268117D01*
X0528889Y0268016D01*
X0528747Y0267919D01*
X0528603Y0267825D01*
X0528457Y0267735D01*
X0528308Y0267648D01*
X0528158Y0267566D01*
X0528005Y0267486D01*
X0527851Y0267411D01*
X0527695Y0267340D01*
X0527537Y0267272D01*
X0527377Y0267208D01*
X0527216Y0267148D01*
X0527054Y0267092D01*
X0526890Y0267040D01*
X0526725Y0266993D01*
X0526559Y0266949D01*
X0526392Y0266909D01*
X0526224Y0266874D01*
X0526055Y0266842D01*
X0525885Y0266815D01*
X0525715Y0266792D01*
X0525544Y0266773D01*
X0525373Y0266758D01*
X0525201Y0266747D01*
X0525030Y0266741D01*
X0524858Y0266739D01*
X0524686Y0266741D01*
X0524515Y0266747D01*
X0524343Y0266758D01*
X0524172Y0266773D01*
X0524001Y0266792D01*
X0523831Y0266815D01*
X0523661Y0266842D01*
X0523492Y0266874D01*
X0523324Y0266909D01*
X0523157Y0266949D01*
X0522991Y0266993D01*
X0522826Y0267040D01*
X0522662Y0267092D01*
X0522500Y0267148D01*
X0522339Y0267208D01*
X0522179Y0267272D01*
X0522021Y0267340D01*
X0521865Y0267411D01*
X0521711Y0267486D01*
X0521558Y0267566D01*
X0521408Y0267648D01*
X0521259Y0267735D01*
X0521113Y0267825D01*
X0520969Y0267919D01*
X0520827Y0268016D01*
X0520688Y0268117D01*
X0520551Y0268221D01*
X0520417Y0268328D01*
X0520286Y0268439D01*
X0520157Y0268552D01*
X0520031Y0268669D01*
X0519908Y0268789D01*
X0519788Y0268912D01*
X0519671Y0269038D01*
X0519558Y0269167D01*
X0519447Y0269298D01*
X0519340Y0269432D01*
X0519236Y0269569D01*
X0519135Y0269708D01*
X0519038Y0269850D01*
X0518944Y0269994D01*
X0518854Y0270140D01*
X0518767Y0270289D01*
X0518685Y0270439D01*
X0518605Y0270592D01*
X0518530Y0270746D01*
X0518459Y0270902D01*
X0518391Y0271060D01*
X0518327Y0271220D01*
X0518267Y0271381D01*
X0518211Y0271543D01*
X0518159Y0271707D01*
X0518112Y0271872D01*
X0518068Y0272038D01*
X0518028Y0272205D01*
X0517993Y0272373D01*
X0517961Y0272542D01*
X0517934Y0272712D01*
X0517911Y0272882D01*
X0517892Y0273053D01*
X0517877Y0273224D01*
X0517866Y0273396D01*
X0517860Y0273567D01*
X0517858Y0273739D01*
X0521858Y0325739D02*
X0521858Y0326739D01*
X0520858Y0326739D01*
X0521858Y0325739D02*
X0527858Y0325739D01*
X0527858Y0326739D01*
X0528858Y0326739D01*
X0536858Y0330239D02*
X0536858Y0333739D01*
X0536858Y0343739D01*
X0536858Y0347239D01*
X0528858Y0350739D02*
X0527858Y0350739D01*
X0527858Y0351739D01*
X0521858Y0351739D01*
X0521858Y0350739D01*
X0520858Y0350739D01*
X0512858Y0347239D02*
X0512858Y0343239D01*
X0512858Y0333739D01*
X0512858Y0330239D01*
X0523858Y0338739D02*
X0523860Y0338802D01*
X0523866Y0338864D01*
X0523876Y0338926D01*
X0523889Y0338988D01*
X0523907Y0339048D01*
X0523928Y0339107D01*
X0523953Y0339165D01*
X0523982Y0339221D01*
X0524014Y0339275D01*
X0524049Y0339327D01*
X0524087Y0339376D01*
X0524129Y0339424D01*
X0524173Y0339468D01*
X0524221Y0339510D01*
X0524270Y0339548D01*
X0524322Y0339583D01*
X0524376Y0339615D01*
X0524432Y0339644D01*
X0524490Y0339669D01*
X0524549Y0339690D01*
X0524609Y0339708D01*
X0524671Y0339721D01*
X0524733Y0339731D01*
X0524795Y0339737D01*
X0524858Y0339739D01*
X0524921Y0339737D01*
X0524983Y0339731D01*
X0525045Y0339721D01*
X0525107Y0339708D01*
X0525167Y0339690D01*
X0525226Y0339669D01*
X0525284Y0339644D01*
X0525340Y0339615D01*
X0525394Y0339583D01*
X0525446Y0339548D01*
X0525495Y0339510D01*
X0525543Y0339468D01*
X0525587Y0339424D01*
X0525629Y0339376D01*
X0525667Y0339327D01*
X0525702Y0339275D01*
X0525734Y0339221D01*
X0525763Y0339165D01*
X0525788Y0339107D01*
X0525809Y0339048D01*
X0525827Y0338988D01*
X0525840Y0338926D01*
X0525850Y0338864D01*
X0525856Y0338802D01*
X0525858Y0338739D01*
X0525856Y0338676D01*
X0525850Y0338614D01*
X0525840Y0338552D01*
X0525827Y0338490D01*
X0525809Y0338430D01*
X0525788Y0338371D01*
X0525763Y0338313D01*
X0525734Y0338257D01*
X0525702Y0338203D01*
X0525667Y0338151D01*
X0525629Y0338102D01*
X0525587Y0338054D01*
X0525543Y0338010D01*
X0525495Y0337968D01*
X0525446Y0337930D01*
X0525394Y0337895D01*
X0525340Y0337863D01*
X0525284Y0337834D01*
X0525226Y0337809D01*
X0525167Y0337788D01*
X0525107Y0337770D01*
X0525045Y0337757D01*
X0524983Y0337747D01*
X0524921Y0337741D01*
X0524858Y0337739D01*
X0524795Y0337741D01*
X0524733Y0337747D01*
X0524671Y0337757D01*
X0524609Y0337770D01*
X0524549Y0337788D01*
X0524490Y0337809D01*
X0524432Y0337834D01*
X0524376Y0337863D01*
X0524322Y0337895D01*
X0524270Y0337930D01*
X0524221Y0337968D01*
X0524173Y0338010D01*
X0524129Y0338054D01*
X0524087Y0338102D01*
X0524049Y0338151D01*
X0524014Y0338203D01*
X0523982Y0338257D01*
X0523953Y0338313D01*
X0523928Y0338371D01*
X0523907Y0338430D01*
X0523889Y0338490D01*
X0523876Y0338552D01*
X0523866Y0338614D01*
X0523860Y0338676D01*
X0523858Y0338739D01*
X0517858Y0338739D02*
X0517860Y0338911D01*
X0517866Y0339082D01*
X0517877Y0339254D01*
X0517892Y0339425D01*
X0517911Y0339596D01*
X0517934Y0339766D01*
X0517961Y0339936D01*
X0517993Y0340105D01*
X0518028Y0340273D01*
X0518068Y0340440D01*
X0518112Y0340606D01*
X0518159Y0340771D01*
X0518211Y0340935D01*
X0518267Y0341097D01*
X0518327Y0341258D01*
X0518391Y0341418D01*
X0518459Y0341576D01*
X0518530Y0341732D01*
X0518605Y0341886D01*
X0518685Y0342039D01*
X0518767Y0342189D01*
X0518854Y0342338D01*
X0518944Y0342484D01*
X0519038Y0342628D01*
X0519135Y0342770D01*
X0519236Y0342909D01*
X0519340Y0343046D01*
X0519447Y0343180D01*
X0519558Y0343311D01*
X0519671Y0343440D01*
X0519788Y0343566D01*
X0519908Y0343689D01*
X0520031Y0343809D01*
X0520157Y0343926D01*
X0520286Y0344039D01*
X0520417Y0344150D01*
X0520551Y0344257D01*
X0520688Y0344361D01*
X0520827Y0344462D01*
X0520969Y0344559D01*
X0521113Y0344653D01*
X0521259Y0344743D01*
X0521408Y0344830D01*
X0521558Y0344912D01*
X0521711Y0344992D01*
X0521865Y0345067D01*
X0522021Y0345138D01*
X0522179Y0345206D01*
X0522339Y0345270D01*
X0522500Y0345330D01*
X0522662Y0345386D01*
X0522826Y0345438D01*
X0522991Y0345485D01*
X0523157Y0345529D01*
X0523324Y0345569D01*
X0523492Y0345604D01*
X0523661Y0345636D01*
X0523831Y0345663D01*
X0524001Y0345686D01*
X0524172Y0345705D01*
X0524343Y0345720D01*
X0524515Y0345731D01*
X0524686Y0345737D01*
X0524858Y0345739D01*
X0525030Y0345737D01*
X0525201Y0345731D01*
X0525373Y0345720D01*
X0525544Y0345705D01*
X0525715Y0345686D01*
X0525885Y0345663D01*
X0526055Y0345636D01*
X0526224Y0345604D01*
X0526392Y0345569D01*
X0526559Y0345529D01*
X0526725Y0345485D01*
X0526890Y0345438D01*
X0527054Y0345386D01*
X0527216Y0345330D01*
X0527377Y0345270D01*
X0527537Y0345206D01*
X0527695Y0345138D01*
X0527851Y0345067D01*
X0528005Y0344992D01*
X0528158Y0344912D01*
X0528308Y0344830D01*
X0528457Y0344743D01*
X0528603Y0344653D01*
X0528747Y0344559D01*
X0528889Y0344462D01*
X0529028Y0344361D01*
X0529165Y0344257D01*
X0529299Y0344150D01*
X0529430Y0344039D01*
X0529559Y0343926D01*
X0529685Y0343809D01*
X0529808Y0343689D01*
X0529928Y0343566D01*
X0530045Y0343440D01*
X0530158Y0343311D01*
X0530269Y0343180D01*
X0530376Y0343046D01*
X0530480Y0342909D01*
X0530581Y0342770D01*
X0530678Y0342628D01*
X0530772Y0342484D01*
X0530862Y0342338D01*
X0530949Y0342189D01*
X0531031Y0342039D01*
X0531111Y0341886D01*
X0531186Y0341732D01*
X0531257Y0341576D01*
X0531325Y0341418D01*
X0531389Y0341258D01*
X0531449Y0341097D01*
X0531505Y0340935D01*
X0531557Y0340771D01*
X0531604Y0340606D01*
X0531648Y0340440D01*
X0531688Y0340273D01*
X0531723Y0340105D01*
X0531755Y0339936D01*
X0531782Y0339766D01*
X0531805Y0339596D01*
X0531824Y0339425D01*
X0531839Y0339254D01*
X0531850Y0339082D01*
X0531856Y0338911D01*
X0531858Y0338739D01*
X0531856Y0338567D01*
X0531850Y0338396D01*
X0531839Y0338224D01*
X0531824Y0338053D01*
X0531805Y0337882D01*
X0531782Y0337712D01*
X0531755Y0337542D01*
X0531723Y0337373D01*
X0531688Y0337205D01*
X0531648Y0337038D01*
X0531604Y0336872D01*
X0531557Y0336707D01*
X0531505Y0336543D01*
X0531449Y0336381D01*
X0531389Y0336220D01*
X0531325Y0336060D01*
X0531257Y0335902D01*
X0531186Y0335746D01*
X0531111Y0335592D01*
X0531031Y0335439D01*
X0530949Y0335289D01*
X0530862Y0335140D01*
X0530772Y0334994D01*
X0530678Y0334850D01*
X0530581Y0334708D01*
X0530480Y0334569D01*
X0530376Y0334432D01*
X0530269Y0334298D01*
X0530158Y0334167D01*
X0530045Y0334038D01*
X0529928Y0333912D01*
X0529808Y0333789D01*
X0529685Y0333669D01*
X0529559Y0333552D01*
X0529430Y0333439D01*
X0529299Y0333328D01*
X0529165Y0333221D01*
X0529028Y0333117D01*
X0528889Y0333016D01*
X0528747Y0332919D01*
X0528603Y0332825D01*
X0528457Y0332735D01*
X0528308Y0332648D01*
X0528158Y0332566D01*
X0528005Y0332486D01*
X0527851Y0332411D01*
X0527695Y0332340D01*
X0527537Y0332272D01*
X0527377Y0332208D01*
X0527216Y0332148D01*
X0527054Y0332092D01*
X0526890Y0332040D01*
X0526725Y0331993D01*
X0526559Y0331949D01*
X0526392Y0331909D01*
X0526224Y0331874D01*
X0526055Y0331842D01*
X0525885Y0331815D01*
X0525715Y0331792D01*
X0525544Y0331773D01*
X0525373Y0331758D01*
X0525201Y0331747D01*
X0525030Y0331741D01*
X0524858Y0331739D01*
X0524686Y0331741D01*
X0524515Y0331747D01*
X0524343Y0331758D01*
X0524172Y0331773D01*
X0524001Y0331792D01*
X0523831Y0331815D01*
X0523661Y0331842D01*
X0523492Y0331874D01*
X0523324Y0331909D01*
X0523157Y0331949D01*
X0522991Y0331993D01*
X0522826Y0332040D01*
X0522662Y0332092D01*
X0522500Y0332148D01*
X0522339Y0332208D01*
X0522179Y0332272D01*
X0522021Y0332340D01*
X0521865Y0332411D01*
X0521711Y0332486D01*
X0521558Y0332566D01*
X0521408Y0332648D01*
X0521259Y0332735D01*
X0521113Y0332825D01*
X0520969Y0332919D01*
X0520827Y0333016D01*
X0520688Y0333117D01*
X0520551Y0333221D01*
X0520417Y0333328D01*
X0520286Y0333439D01*
X0520157Y0333552D01*
X0520031Y0333669D01*
X0519908Y0333789D01*
X0519788Y0333912D01*
X0519671Y0334038D01*
X0519558Y0334167D01*
X0519447Y0334298D01*
X0519340Y0334432D01*
X0519236Y0334569D01*
X0519135Y0334708D01*
X0519038Y0334850D01*
X0518944Y0334994D01*
X0518854Y0335140D01*
X0518767Y0335289D01*
X0518685Y0335439D01*
X0518605Y0335592D01*
X0518530Y0335746D01*
X0518459Y0335902D01*
X0518391Y0336060D01*
X0518327Y0336220D01*
X0518267Y0336381D01*
X0518211Y0336543D01*
X0518159Y0336707D01*
X0518112Y0336872D01*
X0518068Y0337038D01*
X0518028Y0337205D01*
X0517993Y0337373D01*
X0517961Y0337542D01*
X0517934Y0337712D01*
X0517911Y0337882D01*
X0517892Y0338053D01*
X0517877Y0338224D01*
X0517866Y0338396D01*
X0517860Y0338567D01*
X0517858Y0338739D01*
X0193158Y0337239D02*
X0193158Y0340239D01*
X0181758Y0340239D01*
X0181758Y0337239D01*
X0193158Y0337239D01*
X0193158Y0325239D02*
X0181758Y0325239D01*
X0181758Y0322239D01*
X0193158Y0322239D01*
X0193158Y0325239D01*
X0179358Y0330239D02*
X0179358Y0333739D01*
X0179358Y0343739D01*
X0179358Y0347239D01*
X0171358Y0350739D02*
X0170358Y0350739D01*
X0170358Y0351739D01*
X0164358Y0351739D01*
X0164358Y0350739D01*
X0163358Y0350739D01*
X0155358Y0347239D02*
X0155358Y0343239D01*
X0155358Y0333739D01*
X0155358Y0330239D01*
X0163358Y0326739D02*
X0164358Y0326739D01*
X0164358Y0325739D01*
X0170358Y0325739D01*
X0170358Y0326739D01*
X0171358Y0326739D01*
X0166358Y0338739D02*
X0166360Y0338802D01*
X0166366Y0338864D01*
X0166376Y0338926D01*
X0166389Y0338988D01*
X0166407Y0339048D01*
X0166428Y0339107D01*
X0166453Y0339165D01*
X0166482Y0339221D01*
X0166514Y0339275D01*
X0166549Y0339327D01*
X0166587Y0339376D01*
X0166629Y0339424D01*
X0166673Y0339468D01*
X0166721Y0339510D01*
X0166770Y0339548D01*
X0166822Y0339583D01*
X0166876Y0339615D01*
X0166932Y0339644D01*
X0166990Y0339669D01*
X0167049Y0339690D01*
X0167109Y0339708D01*
X0167171Y0339721D01*
X0167233Y0339731D01*
X0167295Y0339737D01*
X0167358Y0339739D01*
X0167421Y0339737D01*
X0167483Y0339731D01*
X0167545Y0339721D01*
X0167607Y0339708D01*
X0167667Y0339690D01*
X0167726Y0339669D01*
X0167784Y0339644D01*
X0167840Y0339615D01*
X0167894Y0339583D01*
X0167946Y0339548D01*
X0167995Y0339510D01*
X0168043Y0339468D01*
X0168087Y0339424D01*
X0168129Y0339376D01*
X0168167Y0339327D01*
X0168202Y0339275D01*
X0168234Y0339221D01*
X0168263Y0339165D01*
X0168288Y0339107D01*
X0168309Y0339048D01*
X0168327Y0338988D01*
X0168340Y0338926D01*
X0168350Y0338864D01*
X0168356Y0338802D01*
X0168358Y0338739D01*
X0168356Y0338676D01*
X0168350Y0338614D01*
X0168340Y0338552D01*
X0168327Y0338490D01*
X0168309Y0338430D01*
X0168288Y0338371D01*
X0168263Y0338313D01*
X0168234Y0338257D01*
X0168202Y0338203D01*
X0168167Y0338151D01*
X0168129Y0338102D01*
X0168087Y0338054D01*
X0168043Y0338010D01*
X0167995Y0337968D01*
X0167946Y0337930D01*
X0167894Y0337895D01*
X0167840Y0337863D01*
X0167784Y0337834D01*
X0167726Y0337809D01*
X0167667Y0337788D01*
X0167607Y0337770D01*
X0167545Y0337757D01*
X0167483Y0337747D01*
X0167421Y0337741D01*
X0167358Y0337739D01*
X0167295Y0337741D01*
X0167233Y0337747D01*
X0167171Y0337757D01*
X0167109Y0337770D01*
X0167049Y0337788D01*
X0166990Y0337809D01*
X0166932Y0337834D01*
X0166876Y0337863D01*
X0166822Y0337895D01*
X0166770Y0337930D01*
X0166721Y0337968D01*
X0166673Y0338010D01*
X0166629Y0338054D01*
X0166587Y0338102D01*
X0166549Y0338151D01*
X0166514Y0338203D01*
X0166482Y0338257D01*
X0166453Y0338313D01*
X0166428Y0338371D01*
X0166407Y0338430D01*
X0166389Y0338490D01*
X0166376Y0338552D01*
X0166366Y0338614D01*
X0166360Y0338676D01*
X0166358Y0338739D01*
X0160358Y0338739D02*
X0160360Y0338911D01*
X0160366Y0339082D01*
X0160377Y0339254D01*
X0160392Y0339425D01*
X0160411Y0339596D01*
X0160434Y0339766D01*
X0160461Y0339936D01*
X0160493Y0340105D01*
X0160528Y0340273D01*
X0160568Y0340440D01*
X0160612Y0340606D01*
X0160659Y0340771D01*
X0160711Y0340935D01*
X0160767Y0341097D01*
X0160827Y0341258D01*
X0160891Y0341418D01*
X0160959Y0341576D01*
X0161030Y0341732D01*
X0161105Y0341886D01*
X0161185Y0342039D01*
X0161267Y0342189D01*
X0161354Y0342338D01*
X0161444Y0342484D01*
X0161538Y0342628D01*
X0161635Y0342770D01*
X0161736Y0342909D01*
X0161840Y0343046D01*
X0161947Y0343180D01*
X0162058Y0343311D01*
X0162171Y0343440D01*
X0162288Y0343566D01*
X0162408Y0343689D01*
X0162531Y0343809D01*
X0162657Y0343926D01*
X0162786Y0344039D01*
X0162917Y0344150D01*
X0163051Y0344257D01*
X0163188Y0344361D01*
X0163327Y0344462D01*
X0163469Y0344559D01*
X0163613Y0344653D01*
X0163759Y0344743D01*
X0163908Y0344830D01*
X0164058Y0344912D01*
X0164211Y0344992D01*
X0164365Y0345067D01*
X0164521Y0345138D01*
X0164679Y0345206D01*
X0164839Y0345270D01*
X0165000Y0345330D01*
X0165162Y0345386D01*
X0165326Y0345438D01*
X0165491Y0345485D01*
X0165657Y0345529D01*
X0165824Y0345569D01*
X0165992Y0345604D01*
X0166161Y0345636D01*
X0166331Y0345663D01*
X0166501Y0345686D01*
X0166672Y0345705D01*
X0166843Y0345720D01*
X0167015Y0345731D01*
X0167186Y0345737D01*
X0167358Y0345739D01*
X0167530Y0345737D01*
X0167701Y0345731D01*
X0167873Y0345720D01*
X0168044Y0345705D01*
X0168215Y0345686D01*
X0168385Y0345663D01*
X0168555Y0345636D01*
X0168724Y0345604D01*
X0168892Y0345569D01*
X0169059Y0345529D01*
X0169225Y0345485D01*
X0169390Y0345438D01*
X0169554Y0345386D01*
X0169716Y0345330D01*
X0169877Y0345270D01*
X0170037Y0345206D01*
X0170195Y0345138D01*
X0170351Y0345067D01*
X0170505Y0344992D01*
X0170658Y0344912D01*
X0170808Y0344830D01*
X0170957Y0344743D01*
X0171103Y0344653D01*
X0171247Y0344559D01*
X0171389Y0344462D01*
X0171528Y0344361D01*
X0171665Y0344257D01*
X0171799Y0344150D01*
X0171930Y0344039D01*
X0172059Y0343926D01*
X0172185Y0343809D01*
X0172308Y0343689D01*
X0172428Y0343566D01*
X0172545Y0343440D01*
X0172658Y0343311D01*
X0172769Y0343180D01*
X0172876Y0343046D01*
X0172980Y0342909D01*
X0173081Y0342770D01*
X0173178Y0342628D01*
X0173272Y0342484D01*
X0173362Y0342338D01*
X0173449Y0342189D01*
X0173531Y0342039D01*
X0173611Y0341886D01*
X0173686Y0341732D01*
X0173757Y0341576D01*
X0173825Y0341418D01*
X0173889Y0341258D01*
X0173949Y0341097D01*
X0174005Y0340935D01*
X0174057Y0340771D01*
X0174104Y0340606D01*
X0174148Y0340440D01*
X0174188Y0340273D01*
X0174223Y0340105D01*
X0174255Y0339936D01*
X0174282Y0339766D01*
X0174305Y0339596D01*
X0174324Y0339425D01*
X0174339Y0339254D01*
X0174350Y0339082D01*
X0174356Y0338911D01*
X0174358Y0338739D01*
X0174356Y0338567D01*
X0174350Y0338396D01*
X0174339Y0338224D01*
X0174324Y0338053D01*
X0174305Y0337882D01*
X0174282Y0337712D01*
X0174255Y0337542D01*
X0174223Y0337373D01*
X0174188Y0337205D01*
X0174148Y0337038D01*
X0174104Y0336872D01*
X0174057Y0336707D01*
X0174005Y0336543D01*
X0173949Y0336381D01*
X0173889Y0336220D01*
X0173825Y0336060D01*
X0173757Y0335902D01*
X0173686Y0335746D01*
X0173611Y0335592D01*
X0173531Y0335439D01*
X0173449Y0335289D01*
X0173362Y0335140D01*
X0173272Y0334994D01*
X0173178Y0334850D01*
X0173081Y0334708D01*
X0172980Y0334569D01*
X0172876Y0334432D01*
X0172769Y0334298D01*
X0172658Y0334167D01*
X0172545Y0334038D01*
X0172428Y0333912D01*
X0172308Y0333789D01*
X0172185Y0333669D01*
X0172059Y0333552D01*
X0171930Y0333439D01*
X0171799Y0333328D01*
X0171665Y0333221D01*
X0171528Y0333117D01*
X0171389Y0333016D01*
X0171247Y0332919D01*
X0171103Y0332825D01*
X0170957Y0332735D01*
X0170808Y0332648D01*
X0170658Y0332566D01*
X0170505Y0332486D01*
X0170351Y0332411D01*
X0170195Y0332340D01*
X0170037Y0332272D01*
X0169877Y0332208D01*
X0169716Y0332148D01*
X0169554Y0332092D01*
X0169390Y0332040D01*
X0169225Y0331993D01*
X0169059Y0331949D01*
X0168892Y0331909D01*
X0168724Y0331874D01*
X0168555Y0331842D01*
X0168385Y0331815D01*
X0168215Y0331792D01*
X0168044Y0331773D01*
X0167873Y0331758D01*
X0167701Y0331747D01*
X0167530Y0331741D01*
X0167358Y0331739D01*
X0167186Y0331741D01*
X0167015Y0331747D01*
X0166843Y0331758D01*
X0166672Y0331773D01*
X0166501Y0331792D01*
X0166331Y0331815D01*
X0166161Y0331842D01*
X0165992Y0331874D01*
X0165824Y0331909D01*
X0165657Y0331949D01*
X0165491Y0331993D01*
X0165326Y0332040D01*
X0165162Y0332092D01*
X0165000Y0332148D01*
X0164839Y0332208D01*
X0164679Y0332272D01*
X0164521Y0332340D01*
X0164365Y0332411D01*
X0164211Y0332486D01*
X0164058Y0332566D01*
X0163908Y0332648D01*
X0163759Y0332735D01*
X0163613Y0332825D01*
X0163469Y0332919D01*
X0163327Y0333016D01*
X0163188Y0333117D01*
X0163051Y0333221D01*
X0162917Y0333328D01*
X0162786Y0333439D01*
X0162657Y0333552D01*
X0162531Y0333669D01*
X0162408Y0333789D01*
X0162288Y0333912D01*
X0162171Y0334038D01*
X0162058Y0334167D01*
X0161947Y0334298D01*
X0161840Y0334432D01*
X0161736Y0334569D01*
X0161635Y0334708D01*
X0161538Y0334850D01*
X0161444Y0334994D01*
X0161354Y0335140D01*
X0161267Y0335289D01*
X0161185Y0335439D01*
X0161105Y0335592D01*
X0161030Y0335746D01*
X0160959Y0335902D01*
X0160891Y0336060D01*
X0160827Y0336220D01*
X0160767Y0336381D01*
X0160711Y0336543D01*
X0160659Y0336707D01*
X0160612Y0336872D01*
X0160568Y0337038D01*
X0160528Y0337205D01*
X0160493Y0337373D01*
X0160461Y0337542D01*
X0160434Y0337712D01*
X0160411Y0337882D01*
X0160392Y0338053D01*
X0160377Y0338224D01*
X0160366Y0338396D01*
X0160360Y0338567D01*
X0160358Y0338739D01*
X0094859Y0358238D02*
X0095132Y0359675D01*
X0095440Y0361104D01*
X0095782Y0362526D01*
X0096158Y0363939D01*
X0096568Y0365342D01*
X0097012Y0366736D01*
X0097489Y0368118D01*
X0097999Y0369488D01*
X0098542Y0370846D01*
X0099118Y0372190D01*
X0099726Y0373520D01*
X0100366Y0374835D01*
X0101037Y0376134D01*
X0101740Y0377416D01*
X0102473Y0378681D01*
X0103236Y0379929D01*
X0104029Y0381157D01*
X0104852Y0382366D01*
X0105703Y0383555D01*
X0106583Y0384723D01*
X0107491Y0385869D01*
X0108426Y0386994D01*
X0109387Y0388095D01*
X0110376Y0389173D01*
X0111389Y0390227D01*
X0112428Y0391256D01*
X0113491Y0392259D01*
X0114579Y0393237D01*
X0115689Y0394189D01*
X0116822Y0395113D01*
X0117977Y0396010D01*
X0119153Y0396878D01*
X0120350Y0397719D01*
X0121567Y0398530D01*
X0122803Y0399311D01*
X0124057Y0400063D01*
X0125329Y0400784D01*
X0126618Y0401474D01*
X0127924Y0402133D01*
X0129244Y0402760D01*
X0130580Y0403356D01*
X0131930Y0403919D01*
X0133292Y0404449D01*
X0134667Y0404946D01*
X0136054Y0405410D01*
X0137451Y0405841D01*
X0138859Y0406238D01*
X0164358Y0289239D02*
X0170358Y0289239D01*
X0170358Y0288239D01*
X0171358Y0288239D01*
X0164358Y0288239D02*
X0163358Y0288239D01*
X0164358Y0288239D02*
X0164358Y0289239D01*
X0155358Y0284739D02*
X0155358Y0280739D01*
X0155358Y0271239D01*
X0155358Y0267739D01*
X0163358Y0264239D02*
X0164358Y0264239D01*
X0164358Y0263239D01*
X0170358Y0263239D01*
X0170358Y0264239D01*
X0171358Y0264239D01*
X0179358Y0267739D02*
X0179358Y0271239D01*
X0179358Y0281239D01*
X0179358Y0284739D01*
X0166358Y0276239D02*
X0166360Y0276302D01*
X0166366Y0276364D01*
X0166376Y0276426D01*
X0166389Y0276488D01*
X0166407Y0276548D01*
X0166428Y0276607D01*
X0166453Y0276665D01*
X0166482Y0276721D01*
X0166514Y0276775D01*
X0166549Y0276827D01*
X0166587Y0276876D01*
X0166629Y0276924D01*
X0166673Y0276968D01*
X0166721Y0277010D01*
X0166770Y0277048D01*
X0166822Y0277083D01*
X0166876Y0277115D01*
X0166932Y0277144D01*
X0166990Y0277169D01*
X0167049Y0277190D01*
X0167109Y0277208D01*
X0167171Y0277221D01*
X0167233Y0277231D01*
X0167295Y0277237D01*
X0167358Y0277239D01*
X0167421Y0277237D01*
X0167483Y0277231D01*
X0167545Y0277221D01*
X0167607Y0277208D01*
X0167667Y0277190D01*
X0167726Y0277169D01*
X0167784Y0277144D01*
X0167840Y0277115D01*
X0167894Y0277083D01*
X0167946Y0277048D01*
X0167995Y0277010D01*
X0168043Y0276968D01*
X0168087Y0276924D01*
X0168129Y0276876D01*
X0168167Y0276827D01*
X0168202Y0276775D01*
X0168234Y0276721D01*
X0168263Y0276665D01*
X0168288Y0276607D01*
X0168309Y0276548D01*
X0168327Y0276488D01*
X0168340Y0276426D01*
X0168350Y0276364D01*
X0168356Y0276302D01*
X0168358Y0276239D01*
X0168356Y0276176D01*
X0168350Y0276114D01*
X0168340Y0276052D01*
X0168327Y0275990D01*
X0168309Y0275930D01*
X0168288Y0275871D01*
X0168263Y0275813D01*
X0168234Y0275757D01*
X0168202Y0275703D01*
X0168167Y0275651D01*
X0168129Y0275602D01*
X0168087Y0275554D01*
X0168043Y0275510D01*
X0167995Y0275468D01*
X0167946Y0275430D01*
X0167894Y0275395D01*
X0167840Y0275363D01*
X0167784Y0275334D01*
X0167726Y0275309D01*
X0167667Y0275288D01*
X0167607Y0275270D01*
X0167545Y0275257D01*
X0167483Y0275247D01*
X0167421Y0275241D01*
X0167358Y0275239D01*
X0167295Y0275241D01*
X0167233Y0275247D01*
X0167171Y0275257D01*
X0167109Y0275270D01*
X0167049Y0275288D01*
X0166990Y0275309D01*
X0166932Y0275334D01*
X0166876Y0275363D01*
X0166822Y0275395D01*
X0166770Y0275430D01*
X0166721Y0275468D01*
X0166673Y0275510D01*
X0166629Y0275554D01*
X0166587Y0275602D01*
X0166549Y0275651D01*
X0166514Y0275703D01*
X0166482Y0275757D01*
X0166453Y0275813D01*
X0166428Y0275871D01*
X0166407Y0275930D01*
X0166389Y0275990D01*
X0166376Y0276052D01*
X0166366Y0276114D01*
X0166360Y0276176D01*
X0166358Y0276239D01*
X0160358Y0276239D02*
X0160360Y0276411D01*
X0160366Y0276582D01*
X0160377Y0276754D01*
X0160392Y0276925D01*
X0160411Y0277096D01*
X0160434Y0277266D01*
X0160461Y0277436D01*
X0160493Y0277605D01*
X0160528Y0277773D01*
X0160568Y0277940D01*
X0160612Y0278106D01*
X0160659Y0278271D01*
X0160711Y0278435D01*
X0160767Y0278597D01*
X0160827Y0278758D01*
X0160891Y0278918D01*
X0160959Y0279076D01*
X0161030Y0279232D01*
X0161105Y0279386D01*
X0161185Y0279539D01*
X0161267Y0279689D01*
X0161354Y0279838D01*
X0161444Y0279984D01*
X0161538Y0280128D01*
X0161635Y0280270D01*
X0161736Y0280409D01*
X0161840Y0280546D01*
X0161947Y0280680D01*
X0162058Y0280811D01*
X0162171Y0280940D01*
X0162288Y0281066D01*
X0162408Y0281189D01*
X0162531Y0281309D01*
X0162657Y0281426D01*
X0162786Y0281539D01*
X0162917Y0281650D01*
X0163051Y0281757D01*
X0163188Y0281861D01*
X0163327Y0281962D01*
X0163469Y0282059D01*
X0163613Y0282153D01*
X0163759Y0282243D01*
X0163908Y0282330D01*
X0164058Y0282412D01*
X0164211Y0282492D01*
X0164365Y0282567D01*
X0164521Y0282638D01*
X0164679Y0282706D01*
X0164839Y0282770D01*
X0165000Y0282830D01*
X0165162Y0282886D01*
X0165326Y0282938D01*
X0165491Y0282985D01*
X0165657Y0283029D01*
X0165824Y0283069D01*
X0165992Y0283104D01*
X0166161Y0283136D01*
X0166331Y0283163D01*
X0166501Y0283186D01*
X0166672Y0283205D01*
X0166843Y0283220D01*
X0167015Y0283231D01*
X0167186Y0283237D01*
X0167358Y0283239D01*
X0167530Y0283237D01*
X0167701Y0283231D01*
X0167873Y0283220D01*
X0168044Y0283205D01*
X0168215Y0283186D01*
X0168385Y0283163D01*
X0168555Y0283136D01*
X0168724Y0283104D01*
X0168892Y0283069D01*
X0169059Y0283029D01*
X0169225Y0282985D01*
X0169390Y0282938D01*
X0169554Y0282886D01*
X0169716Y0282830D01*
X0169877Y0282770D01*
X0170037Y0282706D01*
X0170195Y0282638D01*
X0170351Y0282567D01*
X0170505Y0282492D01*
X0170658Y0282412D01*
X0170808Y0282330D01*
X0170957Y0282243D01*
X0171103Y0282153D01*
X0171247Y0282059D01*
X0171389Y0281962D01*
X0171528Y0281861D01*
X0171665Y0281757D01*
X0171799Y0281650D01*
X0171930Y0281539D01*
X0172059Y0281426D01*
X0172185Y0281309D01*
X0172308Y0281189D01*
X0172428Y0281066D01*
X0172545Y0280940D01*
X0172658Y0280811D01*
X0172769Y0280680D01*
X0172876Y0280546D01*
X0172980Y0280409D01*
X0173081Y0280270D01*
X0173178Y0280128D01*
X0173272Y0279984D01*
X0173362Y0279838D01*
X0173449Y0279689D01*
X0173531Y0279539D01*
X0173611Y0279386D01*
X0173686Y0279232D01*
X0173757Y0279076D01*
X0173825Y0278918D01*
X0173889Y0278758D01*
X0173949Y0278597D01*
X0174005Y0278435D01*
X0174057Y0278271D01*
X0174104Y0278106D01*
X0174148Y0277940D01*
X0174188Y0277773D01*
X0174223Y0277605D01*
X0174255Y0277436D01*
X0174282Y0277266D01*
X0174305Y0277096D01*
X0174324Y0276925D01*
X0174339Y0276754D01*
X0174350Y0276582D01*
X0174356Y0276411D01*
X0174358Y0276239D01*
X0174356Y0276067D01*
X0174350Y0275896D01*
X0174339Y0275724D01*
X0174324Y0275553D01*
X0174305Y0275382D01*
X0174282Y0275212D01*
X0174255Y0275042D01*
X0174223Y0274873D01*
X0174188Y0274705D01*
X0174148Y0274538D01*
X0174104Y0274372D01*
X0174057Y0274207D01*
X0174005Y0274043D01*
X0173949Y0273881D01*
X0173889Y0273720D01*
X0173825Y0273560D01*
X0173757Y0273402D01*
X0173686Y0273246D01*
X0173611Y0273092D01*
X0173531Y0272939D01*
X0173449Y0272789D01*
X0173362Y0272640D01*
X0173272Y0272494D01*
X0173178Y0272350D01*
X0173081Y0272208D01*
X0172980Y0272069D01*
X0172876Y0271932D01*
X0172769Y0271798D01*
X0172658Y0271667D01*
X0172545Y0271538D01*
X0172428Y0271412D01*
X0172308Y0271289D01*
X0172185Y0271169D01*
X0172059Y0271052D01*
X0171930Y0270939D01*
X0171799Y0270828D01*
X0171665Y0270721D01*
X0171528Y0270617D01*
X0171389Y0270516D01*
X0171247Y0270419D01*
X0171103Y0270325D01*
X0170957Y0270235D01*
X0170808Y0270148D01*
X0170658Y0270066D01*
X0170505Y0269986D01*
X0170351Y0269911D01*
X0170195Y0269840D01*
X0170037Y0269772D01*
X0169877Y0269708D01*
X0169716Y0269648D01*
X0169554Y0269592D01*
X0169390Y0269540D01*
X0169225Y0269493D01*
X0169059Y0269449D01*
X0168892Y0269409D01*
X0168724Y0269374D01*
X0168555Y0269342D01*
X0168385Y0269315D01*
X0168215Y0269292D01*
X0168044Y0269273D01*
X0167873Y0269258D01*
X0167701Y0269247D01*
X0167530Y0269241D01*
X0167358Y0269239D01*
X0167186Y0269241D01*
X0167015Y0269247D01*
X0166843Y0269258D01*
X0166672Y0269273D01*
X0166501Y0269292D01*
X0166331Y0269315D01*
X0166161Y0269342D01*
X0165992Y0269374D01*
X0165824Y0269409D01*
X0165657Y0269449D01*
X0165491Y0269493D01*
X0165326Y0269540D01*
X0165162Y0269592D01*
X0165000Y0269648D01*
X0164839Y0269708D01*
X0164679Y0269772D01*
X0164521Y0269840D01*
X0164365Y0269911D01*
X0164211Y0269986D01*
X0164058Y0270066D01*
X0163908Y0270148D01*
X0163759Y0270235D01*
X0163613Y0270325D01*
X0163469Y0270419D01*
X0163327Y0270516D01*
X0163188Y0270617D01*
X0163051Y0270721D01*
X0162917Y0270828D01*
X0162786Y0270939D01*
X0162657Y0271052D01*
X0162531Y0271169D01*
X0162408Y0271289D01*
X0162288Y0271412D01*
X0162171Y0271538D01*
X0162058Y0271667D01*
X0161947Y0271798D01*
X0161840Y0271932D01*
X0161736Y0272069D01*
X0161635Y0272208D01*
X0161538Y0272350D01*
X0161444Y0272494D01*
X0161354Y0272640D01*
X0161267Y0272789D01*
X0161185Y0272939D01*
X0161105Y0273092D01*
X0161030Y0273246D01*
X0160959Y0273402D01*
X0160891Y0273560D01*
X0160827Y0273720D01*
X0160767Y0273881D01*
X0160711Y0274043D01*
X0160659Y0274207D01*
X0160612Y0274372D01*
X0160568Y0274538D01*
X0160528Y0274705D01*
X0160493Y0274873D01*
X0160461Y0275042D01*
X0160434Y0275212D01*
X0160411Y0275382D01*
X0160392Y0275553D01*
X0160377Y0275724D01*
X0160366Y0275896D01*
X0160360Y0276067D01*
X0160358Y0276239D01*
D12*
X0174058Y0260994D02*
X0174058Y0258439D01*
X0174058Y0259716D02*
X0178658Y0259716D01*
X0177636Y0258439D01*
X0194336Y0299938D02*
X0194395Y0299940D01*
X0194453Y0299945D01*
X0194511Y0299954D01*
X0194568Y0299967D01*
X0194625Y0299983D01*
X0194680Y0300003D01*
X0194734Y0300026D01*
X0194786Y0300052D01*
X0194837Y0300082D01*
X0194886Y0300114D01*
X0194933Y0300150D01*
X0194977Y0300188D01*
X0195019Y0300229D01*
X0195058Y0300273D01*
X0195095Y0300319D01*
X0195128Y0300367D01*
X0195159Y0300417D01*
X0195186Y0300469D01*
X0195210Y0300522D01*
X0195231Y0300577D01*
X0195358Y0300961D02*
X0193314Y0303516D01*
X0193441Y0303900D02*
X0193462Y0303955D01*
X0193486Y0304008D01*
X0193513Y0304060D01*
X0193544Y0304110D01*
X0193577Y0304158D01*
X0193614Y0304204D01*
X0193653Y0304248D01*
X0193695Y0304289D01*
X0193739Y0304327D01*
X0193786Y0304363D01*
X0193835Y0304395D01*
X0193886Y0304425D01*
X0193938Y0304451D01*
X0193992Y0304474D01*
X0194047Y0304494D01*
X0194104Y0304510D01*
X0194161Y0304523D01*
X0194219Y0304532D01*
X0194277Y0304537D01*
X0194336Y0304539D01*
X0194395Y0304537D01*
X0194453Y0304532D01*
X0194511Y0304523D01*
X0194568Y0304510D01*
X0194625Y0304494D01*
X0194680Y0304474D01*
X0194734Y0304451D01*
X0194786Y0304425D01*
X0194837Y0304395D01*
X0194886Y0304363D01*
X0194933Y0304327D01*
X0194977Y0304289D01*
X0195019Y0304248D01*
X0195058Y0304204D01*
X0195095Y0304158D01*
X0195128Y0304110D01*
X0195159Y0304060D01*
X0195186Y0304008D01*
X0195210Y0303955D01*
X0195231Y0303900D01*
X0193441Y0303900D02*
X0193393Y0303796D01*
X0193347Y0303691D01*
X0193305Y0303585D01*
X0193266Y0303477D01*
X0193230Y0303368D01*
X0193198Y0303258D01*
X0193168Y0303147D01*
X0193143Y0303035D01*
X0193120Y0302923D01*
X0193101Y0302810D01*
X0193086Y0302696D01*
X0193074Y0302582D01*
X0193065Y0302468D01*
X0193060Y0302354D01*
X0193058Y0302239D01*
X0195614Y0302239D02*
X0195612Y0302354D01*
X0195607Y0302468D01*
X0195598Y0302582D01*
X0195586Y0302696D01*
X0195571Y0302810D01*
X0195552Y0302923D01*
X0195529Y0303035D01*
X0195504Y0303147D01*
X0195474Y0303258D01*
X0195442Y0303368D01*
X0195406Y0303477D01*
X0195367Y0303585D01*
X0195325Y0303691D01*
X0195279Y0303796D01*
X0195231Y0303900D01*
X0193058Y0302239D02*
X0193060Y0302124D01*
X0193065Y0302010D01*
X0193074Y0301896D01*
X0193086Y0301782D01*
X0193101Y0301668D01*
X0193120Y0301555D01*
X0193143Y0301443D01*
X0193168Y0301331D01*
X0193198Y0301220D01*
X0193230Y0301110D01*
X0193266Y0301001D01*
X0193305Y0300893D01*
X0193347Y0300787D01*
X0193393Y0300682D01*
X0193441Y0300578D01*
X0193441Y0300577D02*
X0193462Y0300522D01*
X0193486Y0300469D01*
X0193513Y0300417D01*
X0193544Y0300367D01*
X0193577Y0300319D01*
X0193614Y0300273D01*
X0193653Y0300229D01*
X0193695Y0300188D01*
X0193740Y0300150D01*
X0193786Y0300114D01*
X0193835Y0300082D01*
X0193886Y0300052D01*
X0193938Y0300026D01*
X0193992Y0300003D01*
X0194047Y0299983D01*
X0194104Y0299967D01*
X0194161Y0299954D01*
X0194219Y0299945D01*
X0194277Y0299940D01*
X0194336Y0299938D01*
X0197558Y0300961D02*
X0200114Y0300961D01*
X0199092Y0304539D01*
X0198325Y0301983D02*
X0198325Y0299939D01*
X0202029Y0299939D02*
X0203051Y0301983D01*
X0203307Y0301983D02*
X0204585Y0301983D01*
X0203307Y0301983D02*
X0203237Y0301985D01*
X0203166Y0301991D01*
X0203097Y0302000D01*
X0203028Y0302014D01*
X0202959Y0302031D01*
X0202892Y0302052D01*
X0202826Y0302077D01*
X0202762Y0302105D01*
X0202699Y0302137D01*
X0202638Y0302172D01*
X0202579Y0302211D01*
X0202522Y0302252D01*
X0202468Y0302297D01*
X0202416Y0302345D01*
X0202367Y0302395D01*
X0202320Y0302449D01*
X0202277Y0302504D01*
X0202237Y0302562D01*
X0202200Y0302622D01*
X0202167Y0302684D01*
X0202137Y0302748D01*
X0202110Y0302813D01*
X0202087Y0302879D01*
X0202068Y0302947D01*
X0202053Y0303016D01*
X0202041Y0303085D01*
X0202033Y0303155D01*
X0202029Y0303226D01*
X0202029Y0303296D01*
X0202033Y0303367D01*
X0202041Y0303437D01*
X0202053Y0303506D01*
X0202068Y0303575D01*
X0202087Y0303643D01*
X0202110Y0303709D01*
X0202137Y0303774D01*
X0202167Y0303838D01*
X0202200Y0303900D01*
X0202237Y0303960D01*
X0202277Y0304018D01*
X0202320Y0304073D01*
X0202367Y0304127D01*
X0202416Y0304177D01*
X0202468Y0304225D01*
X0202522Y0304270D01*
X0202579Y0304311D01*
X0202638Y0304350D01*
X0202699Y0304385D01*
X0202762Y0304417D01*
X0202826Y0304445D01*
X0202892Y0304470D01*
X0202959Y0304491D01*
X0203028Y0304508D01*
X0203097Y0304522D01*
X0203166Y0304531D01*
X0203237Y0304537D01*
X0203307Y0304539D01*
X0204585Y0304539D01*
X0204585Y0299939D01*
X0204585Y0309939D02*
X0204585Y0314539D01*
X0203307Y0314539D01*
X0203237Y0314537D01*
X0203166Y0314531D01*
X0203097Y0314522D01*
X0203028Y0314508D01*
X0202959Y0314491D01*
X0202892Y0314470D01*
X0202826Y0314445D01*
X0202762Y0314417D01*
X0202699Y0314385D01*
X0202638Y0314350D01*
X0202579Y0314311D01*
X0202522Y0314270D01*
X0202468Y0314225D01*
X0202416Y0314177D01*
X0202367Y0314127D01*
X0202320Y0314073D01*
X0202277Y0314018D01*
X0202237Y0313960D01*
X0202200Y0313900D01*
X0202167Y0313838D01*
X0202137Y0313774D01*
X0202110Y0313709D01*
X0202087Y0313643D01*
X0202068Y0313575D01*
X0202053Y0313506D01*
X0202041Y0313437D01*
X0202033Y0313367D01*
X0202029Y0313296D01*
X0202029Y0313226D01*
X0202033Y0313155D01*
X0202041Y0313085D01*
X0202053Y0313016D01*
X0202068Y0312947D01*
X0202087Y0312879D01*
X0202110Y0312813D01*
X0202137Y0312748D01*
X0202167Y0312684D01*
X0202200Y0312622D01*
X0202237Y0312562D01*
X0202277Y0312504D01*
X0202320Y0312449D01*
X0202367Y0312395D01*
X0202416Y0312345D01*
X0202468Y0312297D01*
X0202522Y0312252D01*
X0202579Y0312211D01*
X0202638Y0312172D01*
X0202699Y0312137D01*
X0202762Y0312105D01*
X0202826Y0312077D01*
X0202892Y0312052D01*
X0202959Y0312031D01*
X0203028Y0312014D01*
X0203097Y0312000D01*
X0203166Y0311991D01*
X0203237Y0311985D01*
X0203307Y0311983D01*
X0204585Y0311983D01*
X0203051Y0311983D02*
X0202029Y0309939D01*
X0200114Y0309939D02*
X0198836Y0309939D01*
X0198836Y0309938D02*
X0198766Y0309940D01*
X0198695Y0309946D01*
X0198626Y0309955D01*
X0198557Y0309969D01*
X0198488Y0309986D01*
X0198421Y0310007D01*
X0198355Y0310032D01*
X0198291Y0310060D01*
X0198228Y0310092D01*
X0198167Y0310127D01*
X0198108Y0310166D01*
X0198051Y0310207D01*
X0197997Y0310252D01*
X0197945Y0310300D01*
X0197896Y0310350D01*
X0197849Y0310404D01*
X0197806Y0310459D01*
X0197766Y0310517D01*
X0197729Y0310577D01*
X0197696Y0310639D01*
X0197666Y0310703D01*
X0197639Y0310768D01*
X0197616Y0310834D01*
X0197597Y0310902D01*
X0197582Y0310971D01*
X0197570Y0311040D01*
X0197562Y0311110D01*
X0197558Y0311181D01*
X0197558Y0311251D01*
X0197562Y0311322D01*
X0197570Y0311392D01*
X0197582Y0311461D01*
X0197597Y0311530D01*
X0197616Y0311598D01*
X0197639Y0311664D01*
X0197666Y0311729D01*
X0197696Y0311793D01*
X0197729Y0311855D01*
X0197766Y0311915D01*
X0197806Y0311973D01*
X0197849Y0312028D01*
X0197896Y0312082D01*
X0197945Y0312132D01*
X0197997Y0312180D01*
X0198051Y0312225D01*
X0198108Y0312266D01*
X0198167Y0312305D01*
X0198228Y0312340D01*
X0198291Y0312372D01*
X0198355Y0312400D01*
X0198421Y0312425D01*
X0198488Y0312446D01*
X0198557Y0312463D01*
X0198626Y0312477D01*
X0198695Y0312486D01*
X0198766Y0312492D01*
X0198836Y0312494D01*
X0198580Y0312494D02*
X0199603Y0312494D01*
X0198580Y0312494D02*
X0198517Y0312496D01*
X0198454Y0312502D01*
X0198392Y0312511D01*
X0198331Y0312525D01*
X0198270Y0312542D01*
X0198211Y0312563D01*
X0198153Y0312588D01*
X0198096Y0312616D01*
X0198042Y0312647D01*
X0197990Y0312682D01*
X0197939Y0312720D01*
X0197891Y0312761D01*
X0197846Y0312805D01*
X0197804Y0312851D01*
X0197764Y0312900D01*
X0197728Y0312951D01*
X0197695Y0313005D01*
X0197665Y0313060D01*
X0197639Y0313118D01*
X0197616Y0313176D01*
X0197597Y0313236D01*
X0197582Y0313297D01*
X0197570Y0313359D01*
X0197562Y0313422D01*
X0197558Y0313485D01*
X0197558Y0313547D01*
X0197562Y0313610D01*
X0197570Y0313673D01*
X0197582Y0313735D01*
X0197597Y0313796D01*
X0197616Y0313856D01*
X0197639Y0313914D01*
X0197665Y0313972D01*
X0197695Y0314027D01*
X0197728Y0314081D01*
X0197764Y0314132D01*
X0197804Y0314181D01*
X0197846Y0314227D01*
X0197891Y0314271D01*
X0197939Y0314312D01*
X0197990Y0314350D01*
X0198042Y0314385D01*
X0198096Y0314416D01*
X0198153Y0314444D01*
X0198211Y0314469D01*
X0198270Y0314490D01*
X0198331Y0314507D01*
X0198392Y0314521D01*
X0198454Y0314530D01*
X0198517Y0314536D01*
X0198580Y0314538D01*
X0198580Y0314539D02*
X0200114Y0314539D01*
X0195614Y0313261D02*
X0195614Y0313005D01*
X0195612Y0312943D01*
X0195607Y0312882D01*
X0195597Y0312821D01*
X0195584Y0312760D01*
X0195568Y0312701D01*
X0195548Y0312643D01*
X0195524Y0312586D01*
X0195497Y0312530D01*
X0195467Y0312476D01*
X0195433Y0312424D01*
X0195397Y0312375D01*
X0195357Y0312327D01*
X0195315Y0312282D01*
X0195270Y0312240D01*
X0195222Y0312200D01*
X0195173Y0312164D01*
X0195121Y0312130D01*
X0195067Y0312100D01*
X0195011Y0312073D01*
X0194954Y0312049D01*
X0194896Y0312029D01*
X0194837Y0312013D01*
X0194776Y0312000D01*
X0194715Y0311990D01*
X0194654Y0311985D01*
X0194592Y0311983D01*
X0193058Y0311983D01*
X0193058Y0313261D01*
X0193060Y0313331D01*
X0193066Y0313402D01*
X0193075Y0313471D01*
X0193089Y0313540D01*
X0193106Y0313609D01*
X0193127Y0313676D01*
X0193152Y0313742D01*
X0193180Y0313806D01*
X0193212Y0313869D01*
X0193247Y0313930D01*
X0193286Y0313989D01*
X0193327Y0314046D01*
X0193372Y0314100D01*
X0193420Y0314152D01*
X0193470Y0314201D01*
X0193524Y0314248D01*
X0193579Y0314291D01*
X0193637Y0314331D01*
X0193697Y0314368D01*
X0193759Y0314401D01*
X0193823Y0314431D01*
X0193888Y0314458D01*
X0193954Y0314481D01*
X0194022Y0314500D01*
X0194091Y0314515D01*
X0194160Y0314527D01*
X0194230Y0314535D01*
X0194301Y0314539D01*
X0194371Y0314539D01*
X0194442Y0314535D01*
X0194512Y0314527D01*
X0194581Y0314515D01*
X0194650Y0314500D01*
X0194718Y0314481D01*
X0194784Y0314458D01*
X0194849Y0314431D01*
X0194913Y0314401D01*
X0194975Y0314368D01*
X0195035Y0314331D01*
X0195093Y0314291D01*
X0195148Y0314248D01*
X0195202Y0314201D01*
X0195252Y0314152D01*
X0195300Y0314100D01*
X0195345Y0314046D01*
X0195386Y0313989D01*
X0195425Y0313930D01*
X0195460Y0313869D01*
X0195492Y0313806D01*
X0195520Y0313742D01*
X0195545Y0313676D01*
X0195566Y0313609D01*
X0195583Y0313540D01*
X0195597Y0313471D01*
X0195606Y0313402D01*
X0195612Y0313331D01*
X0195614Y0313261D01*
X0193059Y0311983D02*
X0193061Y0311894D01*
X0193067Y0311805D01*
X0193076Y0311716D01*
X0193090Y0311628D01*
X0193107Y0311541D01*
X0193129Y0311454D01*
X0193154Y0311368D01*
X0193182Y0311284D01*
X0193215Y0311201D01*
X0193251Y0311119D01*
X0193290Y0311039D01*
X0193333Y0310961D01*
X0193379Y0310885D01*
X0193429Y0310811D01*
X0193481Y0310739D01*
X0193537Y0310669D01*
X0193596Y0310602D01*
X0193658Y0310538D01*
X0193722Y0310476D01*
X0193789Y0310417D01*
X0193859Y0310361D01*
X0193931Y0310309D01*
X0194005Y0310259D01*
X0194081Y0310213D01*
X0194159Y0310170D01*
X0194239Y0310131D01*
X0194321Y0310095D01*
X0194404Y0310062D01*
X0194488Y0310034D01*
X0194574Y0310009D01*
X0194661Y0309987D01*
X0194748Y0309970D01*
X0194836Y0309956D01*
X0194925Y0309947D01*
X0195014Y0309941D01*
X0195103Y0309939D01*
X0195614Y0302239D02*
X0195612Y0302124D01*
X0195607Y0302010D01*
X0195598Y0301896D01*
X0195586Y0301782D01*
X0195571Y0301668D01*
X0195552Y0301555D01*
X0195529Y0301443D01*
X0195504Y0301331D01*
X0195474Y0301220D01*
X0195442Y0301110D01*
X0195406Y0301001D01*
X0195367Y0300893D01*
X0195325Y0300787D01*
X0195279Y0300682D01*
X0195231Y0300578D01*
X0177636Y0320939D02*
X0178658Y0322216D01*
X0174058Y0322216D01*
X0174058Y0320939D02*
X0174058Y0323494D01*
X0194409Y0346439D02*
X0193132Y0351039D01*
X0195687Y0351039D01*
X0195687Y0350527D01*
X0198654Y0351038D02*
X0198591Y0351036D01*
X0198528Y0351030D01*
X0198466Y0351021D01*
X0198405Y0351007D01*
X0198344Y0350990D01*
X0198285Y0350969D01*
X0198227Y0350944D01*
X0198170Y0350916D01*
X0198116Y0350885D01*
X0198064Y0350850D01*
X0198013Y0350812D01*
X0197965Y0350771D01*
X0197920Y0350727D01*
X0197878Y0350681D01*
X0197838Y0350632D01*
X0197802Y0350581D01*
X0197769Y0350527D01*
X0197739Y0350472D01*
X0197713Y0350414D01*
X0197690Y0350356D01*
X0197671Y0350296D01*
X0197656Y0350235D01*
X0197644Y0350173D01*
X0197636Y0350110D01*
X0197632Y0350047D01*
X0197632Y0349985D01*
X0197636Y0349922D01*
X0197644Y0349859D01*
X0197656Y0349797D01*
X0197671Y0349736D01*
X0197690Y0349676D01*
X0197713Y0349618D01*
X0197739Y0349560D01*
X0197769Y0349505D01*
X0197802Y0349451D01*
X0197838Y0349400D01*
X0197878Y0349351D01*
X0197920Y0349305D01*
X0197965Y0349261D01*
X0198013Y0349220D01*
X0198064Y0349182D01*
X0198116Y0349147D01*
X0198170Y0349116D01*
X0198227Y0349088D01*
X0198285Y0349063D01*
X0198344Y0349042D01*
X0198405Y0349025D01*
X0198466Y0349011D01*
X0198528Y0349002D01*
X0198591Y0348996D01*
X0198654Y0348994D01*
X0199676Y0348994D01*
X0198909Y0348994D02*
X0198839Y0348992D01*
X0198768Y0348986D01*
X0198699Y0348977D01*
X0198630Y0348963D01*
X0198561Y0348946D01*
X0198494Y0348925D01*
X0198428Y0348900D01*
X0198364Y0348872D01*
X0198301Y0348840D01*
X0198240Y0348805D01*
X0198181Y0348766D01*
X0198124Y0348725D01*
X0198070Y0348680D01*
X0198018Y0348632D01*
X0197969Y0348582D01*
X0197922Y0348528D01*
X0197879Y0348473D01*
X0197839Y0348415D01*
X0197802Y0348355D01*
X0197769Y0348293D01*
X0197739Y0348229D01*
X0197712Y0348164D01*
X0197689Y0348098D01*
X0197670Y0348030D01*
X0197655Y0347961D01*
X0197643Y0347892D01*
X0197635Y0347822D01*
X0197631Y0347751D01*
X0197631Y0347681D01*
X0197635Y0347610D01*
X0197643Y0347540D01*
X0197655Y0347471D01*
X0197670Y0347402D01*
X0197689Y0347334D01*
X0197712Y0347268D01*
X0197739Y0347203D01*
X0197769Y0347139D01*
X0197802Y0347077D01*
X0197839Y0347017D01*
X0197879Y0346959D01*
X0197922Y0346904D01*
X0197969Y0346850D01*
X0198018Y0346800D01*
X0198070Y0346752D01*
X0198124Y0346707D01*
X0198181Y0346666D01*
X0198240Y0346627D01*
X0198301Y0346592D01*
X0198364Y0346560D01*
X0198428Y0346532D01*
X0198494Y0346507D01*
X0198561Y0346486D01*
X0198630Y0346469D01*
X0198699Y0346455D01*
X0198768Y0346446D01*
X0198839Y0346440D01*
X0198909Y0346438D01*
X0198909Y0346439D02*
X0200187Y0346439D01*
X0202103Y0346439D02*
X0203125Y0348483D01*
X0203380Y0348483D02*
X0204658Y0348483D01*
X0203380Y0348483D02*
X0203310Y0348485D01*
X0203239Y0348491D01*
X0203170Y0348500D01*
X0203101Y0348514D01*
X0203032Y0348531D01*
X0202965Y0348552D01*
X0202899Y0348577D01*
X0202835Y0348605D01*
X0202772Y0348637D01*
X0202711Y0348672D01*
X0202652Y0348711D01*
X0202595Y0348752D01*
X0202541Y0348797D01*
X0202489Y0348845D01*
X0202440Y0348895D01*
X0202393Y0348949D01*
X0202350Y0349004D01*
X0202310Y0349062D01*
X0202273Y0349122D01*
X0202240Y0349184D01*
X0202210Y0349248D01*
X0202183Y0349313D01*
X0202160Y0349379D01*
X0202141Y0349447D01*
X0202126Y0349516D01*
X0202114Y0349585D01*
X0202106Y0349655D01*
X0202102Y0349726D01*
X0202102Y0349796D01*
X0202106Y0349867D01*
X0202114Y0349937D01*
X0202126Y0350006D01*
X0202141Y0350075D01*
X0202160Y0350143D01*
X0202183Y0350209D01*
X0202210Y0350274D01*
X0202240Y0350338D01*
X0202273Y0350400D01*
X0202310Y0350460D01*
X0202350Y0350518D01*
X0202393Y0350573D01*
X0202440Y0350627D01*
X0202489Y0350677D01*
X0202541Y0350725D01*
X0202595Y0350770D01*
X0202652Y0350811D01*
X0202711Y0350850D01*
X0202772Y0350885D01*
X0202835Y0350917D01*
X0202899Y0350945D01*
X0202965Y0350970D01*
X0203032Y0350991D01*
X0203101Y0351008D01*
X0203170Y0351022D01*
X0203239Y0351031D01*
X0203310Y0351037D01*
X0203380Y0351039D01*
X0204658Y0351039D01*
X0204658Y0346439D01*
X0200187Y0351039D02*
X0198654Y0351039D01*
X0155158Y0360439D02*
X0155158Y0365039D01*
X0153880Y0365039D01*
X0153810Y0365037D01*
X0153739Y0365031D01*
X0153670Y0365022D01*
X0153601Y0365008D01*
X0153532Y0364991D01*
X0153465Y0364970D01*
X0153399Y0364945D01*
X0153335Y0364917D01*
X0153272Y0364885D01*
X0153211Y0364850D01*
X0153152Y0364811D01*
X0153095Y0364770D01*
X0153041Y0364725D01*
X0152989Y0364677D01*
X0152940Y0364627D01*
X0152893Y0364573D01*
X0152850Y0364518D01*
X0152810Y0364460D01*
X0152773Y0364400D01*
X0152740Y0364338D01*
X0152710Y0364274D01*
X0152683Y0364209D01*
X0152660Y0364143D01*
X0152641Y0364075D01*
X0152626Y0364006D01*
X0152614Y0363937D01*
X0152606Y0363867D01*
X0152602Y0363796D01*
X0152602Y0363726D01*
X0152606Y0363655D01*
X0152614Y0363585D01*
X0152626Y0363516D01*
X0152641Y0363447D01*
X0152660Y0363379D01*
X0152683Y0363313D01*
X0152710Y0363248D01*
X0152740Y0363184D01*
X0152773Y0363122D01*
X0152810Y0363062D01*
X0152850Y0363004D01*
X0152893Y0362949D01*
X0152940Y0362895D01*
X0152989Y0362845D01*
X0153041Y0362797D01*
X0153095Y0362752D01*
X0153152Y0362711D01*
X0153211Y0362672D01*
X0153272Y0362637D01*
X0153335Y0362605D01*
X0153399Y0362577D01*
X0153465Y0362552D01*
X0153532Y0362531D01*
X0153601Y0362514D01*
X0153670Y0362500D01*
X0153739Y0362491D01*
X0153810Y0362485D01*
X0153880Y0362483D01*
X0155158Y0362483D01*
X0153625Y0362483D02*
X0152603Y0360439D01*
X0150687Y0360439D02*
X0148132Y0360439D01*
X0149409Y0360439D02*
X0149409Y0365039D01*
X0150687Y0364016D01*
X0145931Y0364016D02*
X0145929Y0363953D01*
X0145923Y0363890D01*
X0145914Y0363828D01*
X0145900Y0363767D01*
X0145883Y0363706D01*
X0145862Y0363647D01*
X0145837Y0363589D01*
X0145809Y0363532D01*
X0145778Y0363478D01*
X0145743Y0363426D01*
X0145705Y0363375D01*
X0145664Y0363327D01*
X0145620Y0363282D01*
X0145574Y0363240D01*
X0145525Y0363200D01*
X0145474Y0363164D01*
X0145420Y0363131D01*
X0145365Y0363101D01*
X0145307Y0363075D01*
X0145249Y0363052D01*
X0145189Y0363033D01*
X0145128Y0363018D01*
X0145066Y0363006D01*
X0145003Y0362998D01*
X0144940Y0362994D01*
X0144878Y0362994D01*
X0144815Y0362998D01*
X0144752Y0363006D01*
X0144690Y0363018D01*
X0144629Y0363033D01*
X0144569Y0363052D01*
X0144511Y0363075D01*
X0144453Y0363101D01*
X0144398Y0363131D01*
X0144344Y0363164D01*
X0144293Y0363200D01*
X0144244Y0363240D01*
X0144198Y0363282D01*
X0144154Y0363327D01*
X0144113Y0363375D01*
X0144075Y0363426D01*
X0144040Y0363478D01*
X0144009Y0363532D01*
X0143981Y0363589D01*
X0143956Y0363647D01*
X0143935Y0363706D01*
X0143918Y0363767D01*
X0143904Y0363828D01*
X0143895Y0363890D01*
X0143889Y0363953D01*
X0143887Y0364016D01*
X0143889Y0364079D01*
X0143895Y0364142D01*
X0143904Y0364204D01*
X0143918Y0364265D01*
X0143935Y0364326D01*
X0143956Y0364385D01*
X0143981Y0364443D01*
X0144009Y0364500D01*
X0144040Y0364554D01*
X0144075Y0364606D01*
X0144113Y0364657D01*
X0144154Y0364705D01*
X0144198Y0364750D01*
X0144244Y0364792D01*
X0144293Y0364832D01*
X0144344Y0364868D01*
X0144398Y0364901D01*
X0144453Y0364931D01*
X0144511Y0364957D01*
X0144569Y0364980D01*
X0144629Y0364999D01*
X0144690Y0365014D01*
X0144752Y0365026D01*
X0144815Y0365034D01*
X0144878Y0365038D01*
X0144940Y0365038D01*
X0145003Y0365034D01*
X0145066Y0365026D01*
X0145128Y0365014D01*
X0145189Y0364999D01*
X0145249Y0364980D01*
X0145307Y0364957D01*
X0145365Y0364931D01*
X0145420Y0364901D01*
X0145474Y0364868D01*
X0145525Y0364832D01*
X0145574Y0364792D01*
X0145620Y0364750D01*
X0145664Y0364705D01*
X0145705Y0364657D01*
X0145743Y0364606D01*
X0145778Y0364554D01*
X0145809Y0364500D01*
X0145837Y0364443D01*
X0145862Y0364385D01*
X0145883Y0364326D01*
X0145900Y0364265D01*
X0145914Y0364204D01*
X0145923Y0364142D01*
X0145929Y0364079D01*
X0145931Y0364016D01*
X0146187Y0361716D02*
X0146185Y0361646D01*
X0146179Y0361575D01*
X0146170Y0361506D01*
X0146156Y0361437D01*
X0146139Y0361368D01*
X0146118Y0361301D01*
X0146093Y0361235D01*
X0146065Y0361171D01*
X0146033Y0361108D01*
X0145998Y0361047D01*
X0145959Y0360988D01*
X0145918Y0360931D01*
X0145873Y0360877D01*
X0145825Y0360825D01*
X0145775Y0360776D01*
X0145721Y0360729D01*
X0145666Y0360686D01*
X0145608Y0360646D01*
X0145548Y0360609D01*
X0145486Y0360576D01*
X0145422Y0360546D01*
X0145357Y0360519D01*
X0145291Y0360496D01*
X0145223Y0360477D01*
X0145154Y0360462D01*
X0145085Y0360450D01*
X0145015Y0360442D01*
X0144944Y0360438D01*
X0144874Y0360438D01*
X0144803Y0360442D01*
X0144733Y0360450D01*
X0144664Y0360462D01*
X0144595Y0360477D01*
X0144527Y0360496D01*
X0144461Y0360519D01*
X0144396Y0360546D01*
X0144332Y0360576D01*
X0144270Y0360609D01*
X0144210Y0360646D01*
X0144152Y0360686D01*
X0144097Y0360729D01*
X0144043Y0360776D01*
X0143993Y0360825D01*
X0143945Y0360877D01*
X0143900Y0360931D01*
X0143859Y0360988D01*
X0143820Y0361047D01*
X0143785Y0361108D01*
X0143753Y0361171D01*
X0143725Y0361235D01*
X0143700Y0361301D01*
X0143679Y0361368D01*
X0143662Y0361437D01*
X0143648Y0361506D01*
X0143639Y0361575D01*
X0143633Y0361646D01*
X0143631Y0361716D01*
X0143633Y0361786D01*
X0143639Y0361857D01*
X0143648Y0361926D01*
X0143662Y0361995D01*
X0143679Y0362064D01*
X0143700Y0362131D01*
X0143725Y0362197D01*
X0143753Y0362261D01*
X0143785Y0362324D01*
X0143820Y0362385D01*
X0143859Y0362444D01*
X0143900Y0362501D01*
X0143945Y0362555D01*
X0143993Y0362607D01*
X0144043Y0362656D01*
X0144097Y0362703D01*
X0144152Y0362746D01*
X0144210Y0362786D01*
X0144270Y0362823D01*
X0144332Y0362856D01*
X0144396Y0362886D01*
X0144461Y0362913D01*
X0144527Y0362936D01*
X0144595Y0362955D01*
X0144664Y0362970D01*
X0144733Y0362982D01*
X0144803Y0362990D01*
X0144874Y0362994D01*
X0144944Y0362994D01*
X0145015Y0362990D01*
X0145085Y0362982D01*
X0145154Y0362970D01*
X0145223Y0362955D01*
X0145291Y0362936D01*
X0145357Y0362913D01*
X0145422Y0362886D01*
X0145486Y0362856D01*
X0145548Y0362823D01*
X0145608Y0362786D01*
X0145666Y0362746D01*
X0145721Y0362703D01*
X0145775Y0362656D01*
X0145825Y0362607D01*
X0145873Y0362555D01*
X0145918Y0362501D01*
X0145959Y0362444D01*
X0145998Y0362385D01*
X0146033Y0362324D01*
X0146065Y0362261D01*
X0146093Y0362197D01*
X0146118Y0362131D01*
X0146139Y0362064D01*
X0146156Y0361995D01*
X0146170Y0361926D01*
X0146179Y0361857D01*
X0146185Y0361786D01*
X0146187Y0361716D01*
X0148654Y0368939D02*
X0150187Y0368939D01*
X0148654Y0368939D02*
X0148592Y0368941D01*
X0148531Y0368946D01*
X0148470Y0368956D01*
X0148409Y0368969D01*
X0148350Y0368985D01*
X0148292Y0369005D01*
X0148235Y0369029D01*
X0148179Y0369056D01*
X0148125Y0369086D01*
X0148073Y0369120D01*
X0148024Y0369156D01*
X0147976Y0369196D01*
X0147931Y0369238D01*
X0147889Y0369283D01*
X0147849Y0369331D01*
X0147813Y0369380D01*
X0147779Y0369432D01*
X0147749Y0369486D01*
X0147722Y0369542D01*
X0147698Y0369599D01*
X0147678Y0369657D01*
X0147662Y0369716D01*
X0147649Y0369777D01*
X0147639Y0369838D01*
X0147634Y0369899D01*
X0147632Y0369961D01*
X0147632Y0370472D01*
X0147634Y0370534D01*
X0147639Y0370595D01*
X0147649Y0370656D01*
X0147662Y0370717D01*
X0147678Y0370776D01*
X0147698Y0370834D01*
X0147722Y0370891D01*
X0147749Y0370947D01*
X0147779Y0371001D01*
X0147813Y0371053D01*
X0147849Y0371102D01*
X0147889Y0371150D01*
X0147931Y0371195D01*
X0147976Y0371237D01*
X0148024Y0371277D01*
X0148073Y0371313D01*
X0148125Y0371347D01*
X0148179Y0371377D01*
X0148235Y0371404D01*
X0148292Y0371428D01*
X0148350Y0371448D01*
X0148409Y0371464D01*
X0148470Y0371477D01*
X0148531Y0371487D01*
X0148592Y0371492D01*
X0148654Y0371494D01*
X0150187Y0371494D01*
X0150187Y0373539D01*
X0147632Y0373539D01*
X0143132Y0371239D02*
X0143134Y0371124D01*
X0143139Y0371010D01*
X0143148Y0370896D01*
X0143160Y0370782D01*
X0143175Y0370668D01*
X0143194Y0370555D01*
X0143217Y0370443D01*
X0143242Y0370331D01*
X0143272Y0370220D01*
X0143304Y0370110D01*
X0143340Y0370001D01*
X0143379Y0369893D01*
X0143421Y0369787D01*
X0143467Y0369682D01*
X0143515Y0369578D01*
X0144409Y0368938D02*
X0144468Y0368940D01*
X0144526Y0368945D01*
X0144584Y0368954D01*
X0144641Y0368967D01*
X0144698Y0368983D01*
X0144753Y0369003D01*
X0144807Y0369026D01*
X0144859Y0369052D01*
X0144910Y0369082D01*
X0144959Y0369114D01*
X0145006Y0369150D01*
X0145050Y0369188D01*
X0145092Y0369229D01*
X0145131Y0369273D01*
X0145168Y0369319D01*
X0145201Y0369367D01*
X0145232Y0369417D01*
X0145259Y0369469D01*
X0145283Y0369522D01*
X0145304Y0369577D01*
X0145432Y0369961D02*
X0143387Y0372516D01*
X0143514Y0372900D02*
X0143535Y0372955D01*
X0143559Y0373008D01*
X0143586Y0373060D01*
X0143617Y0373110D01*
X0143650Y0373158D01*
X0143687Y0373204D01*
X0143726Y0373248D01*
X0143768Y0373289D01*
X0143812Y0373327D01*
X0143859Y0373363D01*
X0143908Y0373395D01*
X0143959Y0373425D01*
X0144011Y0373451D01*
X0144065Y0373474D01*
X0144120Y0373494D01*
X0144177Y0373510D01*
X0144234Y0373523D01*
X0144292Y0373532D01*
X0144350Y0373537D01*
X0144409Y0373539D01*
X0144468Y0373537D01*
X0144526Y0373532D01*
X0144584Y0373523D01*
X0144641Y0373510D01*
X0144698Y0373494D01*
X0144753Y0373474D01*
X0144807Y0373451D01*
X0144859Y0373425D01*
X0144910Y0373395D01*
X0144959Y0373363D01*
X0145006Y0373327D01*
X0145050Y0373289D01*
X0145092Y0373248D01*
X0145131Y0373204D01*
X0145168Y0373158D01*
X0145201Y0373110D01*
X0145232Y0373060D01*
X0145259Y0373008D01*
X0145283Y0372955D01*
X0145304Y0372900D01*
X0143514Y0372900D02*
X0143466Y0372796D01*
X0143420Y0372691D01*
X0143378Y0372585D01*
X0143339Y0372477D01*
X0143303Y0372368D01*
X0143271Y0372258D01*
X0143241Y0372147D01*
X0143216Y0372035D01*
X0143193Y0371923D01*
X0143174Y0371810D01*
X0143159Y0371696D01*
X0143147Y0371582D01*
X0143138Y0371468D01*
X0143133Y0371354D01*
X0143131Y0371239D01*
X0145688Y0371239D02*
X0145686Y0371354D01*
X0145681Y0371468D01*
X0145672Y0371582D01*
X0145660Y0371696D01*
X0145645Y0371810D01*
X0145626Y0371923D01*
X0145603Y0372035D01*
X0145578Y0372147D01*
X0145548Y0372258D01*
X0145516Y0372368D01*
X0145480Y0372477D01*
X0145441Y0372585D01*
X0145399Y0372691D01*
X0145353Y0372796D01*
X0145305Y0372900D01*
X0143514Y0369577D02*
X0143535Y0369522D01*
X0143559Y0369469D01*
X0143586Y0369417D01*
X0143617Y0369367D01*
X0143650Y0369319D01*
X0143687Y0369273D01*
X0143726Y0369229D01*
X0143768Y0369188D01*
X0143813Y0369150D01*
X0143859Y0369114D01*
X0143908Y0369082D01*
X0143959Y0369052D01*
X0144011Y0369026D01*
X0144065Y0369003D01*
X0144120Y0368983D01*
X0144177Y0368967D01*
X0144234Y0368954D01*
X0144292Y0368945D01*
X0144350Y0368940D01*
X0144409Y0368938D01*
X0145304Y0369578D02*
X0145352Y0369682D01*
X0145398Y0369787D01*
X0145440Y0369893D01*
X0145479Y0370001D01*
X0145515Y0370110D01*
X0145547Y0370220D01*
X0145577Y0370331D01*
X0145602Y0370443D01*
X0145625Y0370555D01*
X0145644Y0370668D01*
X0145659Y0370782D01*
X0145671Y0370896D01*
X0145680Y0371010D01*
X0145685Y0371124D01*
X0145687Y0371239D01*
X0152103Y0368939D02*
X0153125Y0370983D01*
X0153380Y0370983D02*
X0154658Y0370983D01*
X0153380Y0370983D02*
X0153310Y0370985D01*
X0153239Y0370991D01*
X0153170Y0371000D01*
X0153101Y0371014D01*
X0153032Y0371031D01*
X0152965Y0371052D01*
X0152899Y0371077D01*
X0152835Y0371105D01*
X0152772Y0371137D01*
X0152711Y0371172D01*
X0152652Y0371211D01*
X0152595Y0371252D01*
X0152541Y0371297D01*
X0152489Y0371345D01*
X0152440Y0371395D01*
X0152393Y0371449D01*
X0152350Y0371504D01*
X0152310Y0371562D01*
X0152273Y0371622D01*
X0152240Y0371684D01*
X0152210Y0371748D01*
X0152183Y0371813D01*
X0152160Y0371879D01*
X0152141Y0371947D01*
X0152126Y0372016D01*
X0152114Y0372085D01*
X0152106Y0372155D01*
X0152102Y0372226D01*
X0152102Y0372296D01*
X0152106Y0372367D01*
X0152114Y0372437D01*
X0152126Y0372506D01*
X0152141Y0372575D01*
X0152160Y0372643D01*
X0152183Y0372709D01*
X0152210Y0372774D01*
X0152240Y0372838D01*
X0152273Y0372900D01*
X0152310Y0372960D01*
X0152350Y0373018D01*
X0152393Y0373073D01*
X0152440Y0373127D01*
X0152489Y0373177D01*
X0152541Y0373225D01*
X0152595Y0373270D01*
X0152652Y0373311D01*
X0152711Y0373350D01*
X0152772Y0373385D01*
X0152835Y0373417D01*
X0152899Y0373445D01*
X0152965Y0373470D01*
X0153032Y0373491D01*
X0153101Y0373508D01*
X0153170Y0373522D01*
X0153239Y0373531D01*
X0153310Y0373537D01*
X0153380Y0373539D01*
X0154658Y0373539D01*
X0154658Y0368939D01*
X0154658Y0377439D02*
X0154658Y0382039D01*
X0153380Y0382039D01*
X0153310Y0382037D01*
X0153239Y0382031D01*
X0153170Y0382022D01*
X0153101Y0382008D01*
X0153032Y0381991D01*
X0152965Y0381970D01*
X0152899Y0381945D01*
X0152835Y0381917D01*
X0152772Y0381885D01*
X0152711Y0381850D01*
X0152652Y0381811D01*
X0152595Y0381770D01*
X0152541Y0381725D01*
X0152489Y0381677D01*
X0152440Y0381627D01*
X0152393Y0381573D01*
X0152350Y0381518D01*
X0152310Y0381460D01*
X0152273Y0381400D01*
X0152240Y0381338D01*
X0152210Y0381274D01*
X0152183Y0381209D01*
X0152160Y0381143D01*
X0152141Y0381075D01*
X0152126Y0381006D01*
X0152114Y0380937D01*
X0152106Y0380867D01*
X0152102Y0380796D01*
X0152102Y0380726D01*
X0152106Y0380655D01*
X0152114Y0380585D01*
X0152126Y0380516D01*
X0152141Y0380447D01*
X0152160Y0380379D01*
X0152183Y0380313D01*
X0152210Y0380248D01*
X0152240Y0380184D01*
X0152273Y0380122D01*
X0152310Y0380062D01*
X0152350Y0380004D01*
X0152393Y0379949D01*
X0152440Y0379895D01*
X0152489Y0379845D01*
X0152541Y0379797D01*
X0152595Y0379752D01*
X0152652Y0379711D01*
X0152711Y0379672D01*
X0152772Y0379637D01*
X0152835Y0379605D01*
X0152899Y0379577D01*
X0152965Y0379552D01*
X0153032Y0379531D01*
X0153101Y0379514D01*
X0153170Y0379500D01*
X0153239Y0379491D01*
X0153310Y0379485D01*
X0153380Y0379483D01*
X0154658Y0379483D01*
X0153125Y0379483D02*
X0152103Y0377439D01*
X0150187Y0378461D02*
X0149165Y0382039D01*
X0148398Y0379483D02*
X0148398Y0377439D01*
X0147632Y0378461D02*
X0150187Y0378461D01*
X0145687Y0380505D02*
X0145687Y0380761D01*
X0145687Y0380505D02*
X0145685Y0380443D01*
X0145680Y0380382D01*
X0145670Y0380321D01*
X0145657Y0380260D01*
X0145641Y0380201D01*
X0145621Y0380143D01*
X0145597Y0380086D01*
X0145570Y0380030D01*
X0145540Y0379976D01*
X0145506Y0379924D01*
X0145470Y0379875D01*
X0145430Y0379827D01*
X0145388Y0379782D01*
X0145343Y0379740D01*
X0145295Y0379700D01*
X0145246Y0379664D01*
X0145194Y0379630D01*
X0145140Y0379600D01*
X0145084Y0379573D01*
X0145027Y0379549D01*
X0144969Y0379529D01*
X0144910Y0379513D01*
X0144849Y0379500D01*
X0144788Y0379490D01*
X0144727Y0379485D01*
X0144665Y0379483D01*
X0143132Y0379483D01*
X0143132Y0380761D01*
X0143131Y0380761D02*
X0143133Y0380831D01*
X0143139Y0380902D01*
X0143148Y0380971D01*
X0143162Y0381040D01*
X0143179Y0381109D01*
X0143200Y0381176D01*
X0143225Y0381242D01*
X0143253Y0381306D01*
X0143285Y0381369D01*
X0143320Y0381430D01*
X0143359Y0381489D01*
X0143400Y0381546D01*
X0143445Y0381600D01*
X0143493Y0381652D01*
X0143543Y0381701D01*
X0143597Y0381748D01*
X0143652Y0381791D01*
X0143710Y0381831D01*
X0143770Y0381868D01*
X0143832Y0381901D01*
X0143896Y0381931D01*
X0143961Y0381958D01*
X0144027Y0381981D01*
X0144095Y0382000D01*
X0144164Y0382015D01*
X0144233Y0382027D01*
X0144303Y0382035D01*
X0144374Y0382039D01*
X0144444Y0382039D01*
X0144515Y0382035D01*
X0144585Y0382027D01*
X0144654Y0382015D01*
X0144723Y0382000D01*
X0144791Y0381981D01*
X0144857Y0381958D01*
X0144922Y0381931D01*
X0144986Y0381901D01*
X0145048Y0381868D01*
X0145108Y0381831D01*
X0145166Y0381791D01*
X0145221Y0381748D01*
X0145275Y0381701D01*
X0145325Y0381652D01*
X0145373Y0381600D01*
X0145418Y0381546D01*
X0145459Y0381489D01*
X0145498Y0381430D01*
X0145533Y0381369D01*
X0145565Y0381306D01*
X0145593Y0381242D01*
X0145618Y0381176D01*
X0145639Y0381109D01*
X0145656Y0381040D01*
X0145670Y0380971D01*
X0145679Y0380902D01*
X0145685Y0380831D01*
X0145687Y0380761D01*
X0143132Y0379483D02*
X0143134Y0379394D01*
X0143140Y0379305D01*
X0143149Y0379216D01*
X0143163Y0379128D01*
X0143180Y0379041D01*
X0143202Y0378954D01*
X0143227Y0378868D01*
X0143255Y0378784D01*
X0143288Y0378701D01*
X0143324Y0378619D01*
X0143363Y0378539D01*
X0143406Y0378461D01*
X0143452Y0378385D01*
X0143502Y0378311D01*
X0143554Y0378239D01*
X0143610Y0378169D01*
X0143669Y0378102D01*
X0143731Y0378038D01*
X0143795Y0377976D01*
X0143862Y0377917D01*
X0143932Y0377861D01*
X0144004Y0377809D01*
X0144078Y0377759D01*
X0144154Y0377713D01*
X0144232Y0377670D01*
X0144312Y0377631D01*
X0144394Y0377595D01*
X0144477Y0377562D01*
X0144561Y0377534D01*
X0144647Y0377509D01*
X0144734Y0377487D01*
X0144821Y0377470D01*
X0144909Y0377456D01*
X0144998Y0377447D01*
X0145087Y0377441D01*
X0145176Y0377439D01*
X0148398Y0385939D02*
X0148398Y0387983D01*
X0147632Y0386961D02*
X0150187Y0386961D01*
X0149165Y0390539D01*
X0148398Y0394439D02*
X0148398Y0396483D01*
X0147632Y0395461D02*
X0150187Y0395461D01*
X0149165Y0399039D01*
X0145687Y0399039D02*
X0143132Y0399039D01*
X0144409Y0394439D01*
X0145687Y0398527D02*
X0145687Y0399039D01*
X0153380Y0399039D02*
X0154658Y0399039D01*
X0154658Y0394439D01*
X0154658Y0396483D02*
X0153380Y0396483D01*
X0153125Y0396483D02*
X0152103Y0394439D01*
X0153380Y0396483D02*
X0153310Y0396485D01*
X0153239Y0396491D01*
X0153170Y0396500D01*
X0153101Y0396514D01*
X0153032Y0396531D01*
X0152965Y0396552D01*
X0152899Y0396577D01*
X0152835Y0396605D01*
X0152772Y0396637D01*
X0152711Y0396672D01*
X0152652Y0396711D01*
X0152595Y0396752D01*
X0152541Y0396797D01*
X0152489Y0396845D01*
X0152440Y0396895D01*
X0152393Y0396949D01*
X0152350Y0397004D01*
X0152310Y0397062D01*
X0152273Y0397122D01*
X0152240Y0397184D01*
X0152210Y0397248D01*
X0152183Y0397313D01*
X0152160Y0397379D01*
X0152141Y0397447D01*
X0152126Y0397516D01*
X0152114Y0397585D01*
X0152106Y0397655D01*
X0152102Y0397726D01*
X0152102Y0397796D01*
X0152106Y0397867D01*
X0152114Y0397937D01*
X0152126Y0398006D01*
X0152141Y0398075D01*
X0152160Y0398143D01*
X0152183Y0398209D01*
X0152210Y0398274D01*
X0152240Y0398338D01*
X0152273Y0398400D01*
X0152310Y0398460D01*
X0152350Y0398518D01*
X0152393Y0398573D01*
X0152440Y0398627D01*
X0152489Y0398677D01*
X0152541Y0398725D01*
X0152595Y0398770D01*
X0152652Y0398811D01*
X0152711Y0398850D01*
X0152772Y0398885D01*
X0152835Y0398917D01*
X0152899Y0398945D01*
X0152965Y0398970D01*
X0153032Y0398991D01*
X0153101Y0399008D01*
X0153170Y0399022D01*
X0153239Y0399031D01*
X0153310Y0399037D01*
X0153380Y0399039D01*
X0153380Y0390539D02*
X0154658Y0390539D01*
X0154658Y0385939D01*
X0154658Y0387983D02*
X0153380Y0387983D01*
X0153125Y0387983D02*
X0152103Y0385939D01*
X0153380Y0387983D02*
X0153310Y0387985D01*
X0153239Y0387991D01*
X0153170Y0388000D01*
X0153101Y0388014D01*
X0153032Y0388031D01*
X0152965Y0388052D01*
X0152899Y0388077D01*
X0152835Y0388105D01*
X0152772Y0388137D01*
X0152711Y0388172D01*
X0152652Y0388211D01*
X0152595Y0388252D01*
X0152541Y0388297D01*
X0152489Y0388345D01*
X0152440Y0388395D01*
X0152393Y0388449D01*
X0152350Y0388504D01*
X0152310Y0388562D01*
X0152273Y0388622D01*
X0152240Y0388684D01*
X0152210Y0388748D01*
X0152183Y0388813D01*
X0152160Y0388879D01*
X0152141Y0388947D01*
X0152126Y0389016D01*
X0152114Y0389085D01*
X0152106Y0389155D01*
X0152102Y0389226D01*
X0152102Y0389296D01*
X0152106Y0389367D01*
X0152114Y0389437D01*
X0152126Y0389506D01*
X0152141Y0389575D01*
X0152160Y0389643D01*
X0152183Y0389709D01*
X0152210Y0389774D01*
X0152240Y0389838D01*
X0152273Y0389900D01*
X0152310Y0389960D01*
X0152350Y0390018D01*
X0152393Y0390073D01*
X0152440Y0390127D01*
X0152489Y0390177D01*
X0152541Y0390225D01*
X0152595Y0390270D01*
X0152652Y0390311D01*
X0152711Y0390350D01*
X0152772Y0390385D01*
X0152835Y0390417D01*
X0152899Y0390445D01*
X0152965Y0390470D01*
X0153032Y0390491D01*
X0153101Y0390508D01*
X0153170Y0390522D01*
X0153239Y0390531D01*
X0153310Y0390537D01*
X0153380Y0390539D01*
X0145431Y0389516D02*
X0145429Y0389453D01*
X0145423Y0389390D01*
X0145414Y0389328D01*
X0145400Y0389267D01*
X0145383Y0389206D01*
X0145362Y0389147D01*
X0145337Y0389089D01*
X0145309Y0389032D01*
X0145278Y0388978D01*
X0145243Y0388926D01*
X0145205Y0388875D01*
X0145164Y0388827D01*
X0145120Y0388782D01*
X0145074Y0388740D01*
X0145025Y0388700D01*
X0144974Y0388664D01*
X0144920Y0388631D01*
X0144865Y0388601D01*
X0144807Y0388575D01*
X0144749Y0388552D01*
X0144689Y0388533D01*
X0144628Y0388518D01*
X0144566Y0388506D01*
X0144503Y0388498D01*
X0144440Y0388494D01*
X0144378Y0388494D01*
X0144315Y0388498D01*
X0144252Y0388506D01*
X0144190Y0388518D01*
X0144129Y0388533D01*
X0144069Y0388552D01*
X0144011Y0388575D01*
X0143953Y0388601D01*
X0143898Y0388631D01*
X0143844Y0388664D01*
X0143793Y0388700D01*
X0143744Y0388740D01*
X0143698Y0388782D01*
X0143654Y0388827D01*
X0143613Y0388875D01*
X0143575Y0388926D01*
X0143540Y0388978D01*
X0143509Y0389032D01*
X0143481Y0389089D01*
X0143456Y0389147D01*
X0143435Y0389206D01*
X0143418Y0389267D01*
X0143404Y0389328D01*
X0143395Y0389390D01*
X0143389Y0389453D01*
X0143387Y0389516D01*
X0143389Y0389579D01*
X0143395Y0389642D01*
X0143404Y0389704D01*
X0143418Y0389765D01*
X0143435Y0389826D01*
X0143456Y0389885D01*
X0143481Y0389943D01*
X0143509Y0390000D01*
X0143540Y0390054D01*
X0143575Y0390106D01*
X0143613Y0390157D01*
X0143654Y0390205D01*
X0143698Y0390250D01*
X0143744Y0390292D01*
X0143793Y0390332D01*
X0143844Y0390368D01*
X0143898Y0390401D01*
X0143953Y0390431D01*
X0144011Y0390457D01*
X0144069Y0390480D01*
X0144129Y0390499D01*
X0144190Y0390514D01*
X0144252Y0390526D01*
X0144315Y0390534D01*
X0144378Y0390538D01*
X0144440Y0390538D01*
X0144503Y0390534D01*
X0144566Y0390526D01*
X0144628Y0390514D01*
X0144689Y0390499D01*
X0144749Y0390480D01*
X0144807Y0390457D01*
X0144865Y0390431D01*
X0144920Y0390401D01*
X0144974Y0390368D01*
X0145025Y0390332D01*
X0145074Y0390292D01*
X0145120Y0390250D01*
X0145164Y0390205D01*
X0145205Y0390157D01*
X0145243Y0390106D01*
X0145278Y0390054D01*
X0145309Y0390000D01*
X0145337Y0389943D01*
X0145362Y0389885D01*
X0145383Y0389826D01*
X0145400Y0389765D01*
X0145414Y0389704D01*
X0145423Y0389642D01*
X0145429Y0389579D01*
X0145431Y0389516D01*
X0145687Y0387216D02*
X0145685Y0387146D01*
X0145679Y0387075D01*
X0145670Y0387006D01*
X0145656Y0386937D01*
X0145639Y0386868D01*
X0145618Y0386801D01*
X0145593Y0386735D01*
X0145565Y0386671D01*
X0145533Y0386608D01*
X0145498Y0386547D01*
X0145459Y0386488D01*
X0145418Y0386431D01*
X0145373Y0386377D01*
X0145325Y0386325D01*
X0145275Y0386276D01*
X0145221Y0386229D01*
X0145166Y0386186D01*
X0145108Y0386146D01*
X0145048Y0386109D01*
X0144986Y0386076D01*
X0144922Y0386046D01*
X0144857Y0386019D01*
X0144791Y0385996D01*
X0144723Y0385977D01*
X0144654Y0385962D01*
X0144585Y0385950D01*
X0144515Y0385942D01*
X0144444Y0385938D01*
X0144374Y0385938D01*
X0144303Y0385942D01*
X0144233Y0385950D01*
X0144164Y0385962D01*
X0144095Y0385977D01*
X0144027Y0385996D01*
X0143961Y0386019D01*
X0143896Y0386046D01*
X0143832Y0386076D01*
X0143770Y0386109D01*
X0143710Y0386146D01*
X0143652Y0386186D01*
X0143597Y0386229D01*
X0143543Y0386276D01*
X0143493Y0386325D01*
X0143445Y0386377D01*
X0143400Y0386431D01*
X0143359Y0386488D01*
X0143320Y0386547D01*
X0143285Y0386608D01*
X0143253Y0386671D01*
X0143225Y0386735D01*
X0143200Y0386801D01*
X0143179Y0386868D01*
X0143162Y0386937D01*
X0143148Y0387006D01*
X0143139Y0387075D01*
X0143133Y0387146D01*
X0143131Y0387216D01*
X0143133Y0387286D01*
X0143139Y0387357D01*
X0143148Y0387426D01*
X0143162Y0387495D01*
X0143179Y0387564D01*
X0143200Y0387631D01*
X0143225Y0387697D01*
X0143253Y0387761D01*
X0143285Y0387824D01*
X0143320Y0387885D01*
X0143359Y0387944D01*
X0143400Y0388001D01*
X0143445Y0388055D01*
X0143493Y0388107D01*
X0143543Y0388156D01*
X0143597Y0388203D01*
X0143652Y0388246D01*
X0143710Y0388286D01*
X0143770Y0388323D01*
X0143832Y0388356D01*
X0143896Y0388386D01*
X0143961Y0388413D01*
X0144027Y0388436D01*
X0144095Y0388455D01*
X0144164Y0388470D01*
X0144233Y0388482D01*
X0144303Y0388490D01*
X0144374Y0388494D01*
X0144444Y0388494D01*
X0144515Y0388490D01*
X0144585Y0388482D01*
X0144654Y0388470D01*
X0144723Y0388455D01*
X0144791Y0388436D01*
X0144857Y0388413D01*
X0144922Y0388386D01*
X0144986Y0388356D01*
X0145048Y0388323D01*
X0145108Y0388286D01*
X0145166Y0388246D01*
X0145221Y0388203D01*
X0145275Y0388156D01*
X0145325Y0388107D01*
X0145373Y0388055D01*
X0145418Y0388001D01*
X0145459Y0387944D01*
X0145498Y0387885D01*
X0145533Y0387824D01*
X0145565Y0387761D01*
X0145593Y0387697D01*
X0145618Y0387631D01*
X0145639Y0387564D01*
X0145656Y0387495D01*
X0145670Y0387426D01*
X0145679Y0387357D01*
X0145685Y0387286D01*
X0145687Y0387216D01*
X0198694Y0385317D02*
X0201249Y0385317D01*
X0199971Y0385317D02*
X0199971Y0389917D01*
X0201249Y0388894D01*
X0202938Y0389917D02*
X0206005Y0385317D01*
X0202938Y0385317D02*
X0206005Y0389917D01*
X0306380Y0225039D02*
X0306380Y0220439D01*
X0305103Y0220439D02*
X0307658Y0220439D01*
X0307658Y0224016D02*
X0306380Y0225039D01*
X0382603Y0220439D02*
X0385158Y0220439D01*
X0383880Y0220439D02*
X0383880Y0225039D01*
X0385158Y0224016D01*
X0430103Y0220439D02*
X0432658Y0220439D01*
X0431380Y0220439D02*
X0431380Y0225039D01*
X0432658Y0224016D01*
X0531558Y0255939D02*
X0531558Y0258494D01*
X0531558Y0257216D02*
X0536158Y0257216D01*
X0535136Y0255939D01*
X0535136Y0320939D02*
X0536158Y0322216D01*
X0531558Y0322216D01*
X0531558Y0320939D02*
X0531558Y0323494D01*
D13*
X0535858Y0333739D02*
X0535858Y0343739D01*
X0536858Y0343739D01*
X0536858Y0333739D02*
X0535858Y0333739D01*
X0513858Y0333739D02*
X0512858Y0333739D01*
X0513858Y0333739D02*
X0513858Y0343239D01*
X0512858Y0343239D01*
X0535858Y0278739D02*
X0536858Y0278739D01*
X0535858Y0278739D02*
X0535858Y0268739D01*
X0536858Y0268739D01*
X0513858Y0268739D02*
X0512858Y0268739D01*
X0513858Y0268739D02*
X0513858Y0278239D01*
X0512858Y0278239D01*
X0419858Y0225739D02*
X0419858Y0224739D01*
X0409858Y0224739D01*
X0409858Y0225739D01*
X0410358Y0202739D02*
X0410358Y0201739D01*
X0410358Y0202739D02*
X0419858Y0202739D01*
X0419858Y0201739D01*
X0372358Y0201739D02*
X0372358Y0202739D01*
X0362858Y0202739D01*
X0362858Y0201739D01*
X0362358Y0224739D02*
X0362358Y0225739D01*
X0362358Y0224739D02*
X0372358Y0224739D01*
X0372358Y0225739D01*
X0294858Y0225739D02*
X0294858Y0224739D01*
X0284858Y0224739D01*
X0284858Y0225739D01*
X0285358Y0202739D02*
X0285358Y0201739D01*
X0285358Y0202739D02*
X0294858Y0202739D01*
X0294858Y0201739D01*
X0179358Y0271239D02*
X0178358Y0271239D01*
X0178358Y0281239D01*
X0179358Y0281239D01*
X0156358Y0280739D02*
X0156358Y0271239D01*
X0155358Y0271239D01*
X0155358Y0280739D02*
X0156358Y0280739D01*
X0156358Y0333739D02*
X0155358Y0333739D01*
X0156358Y0333739D02*
X0156358Y0343239D01*
X0155358Y0343239D01*
X0178358Y0343739D02*
X0178358Y0333739D01*
X0179358Y0333739D01*
X0179358Y0343739D02*
X0178358Y0343739D01*
D14*
X0194983Y0335989D02*
X0197108Y0333489D01*
X0194608Y0333489D01*
X0197108Y0336988D02*
X0197084Y0337057D01*
X0197056Y0337124D01*
X0197025Y0337190D01*
X0196991Y0337254D01*
X0196954Y0337316D01*
X0196913Y0337377D01*
X0196870Y0337435D01*
X0196824Y0337491D01*
X0196774Y0337545D01*
X0196723Y0337596D01*
X0196669Y0337644D01*
X0196612Y0337690D01*
X0196553Y0337733D01*
X0196492Y0337772D01*
X0196430Y0337809D01*
X0196365Y0337842D01*
X0196299Y0337873D01*
X0196231Y0337899D01*
X0196163Y0337923D01*
X0196093Y0337943D01*
X0196022Y0337959D01*
X0195950Y0337972D01*
X0195878Y0337981D01*
X0195806Y0337986D01*
X0195733Y0337988D01*
X0195733Y0337989D02*
X0195668Y0337987D01*
X0195602Y0337981D01*
X0195538Y0337972D01*
X0195474Y0337959D01*
X0195410Y0337942D01*
X0195348Y0337921D01*
X0195287Y0337897D01*
X0195228Y0337869D01*
X0195171Y0337838D01*
X0195115Y0337804D01*
X0195061Y0337766D01*
X0195010Y0337726D01*
X0194961Y0337682D01*
X0194915Y0337636D01*
X0194871Y0337587D01*
X0194831Y0337536D01*
X0194793Y0337482D01*
X0194759Y0337427D01*
X0194728Y0337369D01*
X0194700Y0337310D01*
X0194676Y0337249D01*
X0194655Y0337187D01*
X0194638Y0337123D01*
X0194625Y0337059D01*
X0194616Y0336995D01*
X0194610Y0336929D01*
X0194608Y0336864D01*
X0194609Y0336864D02*
X0194611Y0336799D01*
X0194616Y0336734D01*
X0194625Y0336669D01*
X0194637Y0336605D01*
X0194653Y0336542D01*
X0194672Y0336480D01*
X0194694Y0336418D01*
X0194720Y0336358D01*
X0194749Y0336300D01*
X0194781Y0336243D01*
X0194816Y0336188D01*
X0194854Y0336135D01*
X0194894Y0336084D01*
X0194938Y0336035D01*
X0194984Y0335989D01*
X0199108Y0333489D02*
X0201608Y0333489D01*
X0200358Y0333489D02*
X0200358Y0337989D01*
X0201608Y0336989D01*
X0203308Y0337989D02*
X0205808Y0337989D01*
X0204558Y0337989D02*
X0204558Y0333489D01*
X0204558Y0325489D02*
X0204558Y0320989D01*
X0201608Y0320989D02*
X0199108Y0320989D01*
X0200358Y0320989D02*
X0200358Y0325489D01*
X0201608Y0324489D01*
X0203308Y0325489D02*
X0205808Y0325489D01*
X0197108Y0325489D02*
X0195608Y0325489D01*
X0195546Y0325487D01*
X0195485Y0325481D01*
X0195424Y0325472D01*
X0195364Y0325459D01*
X0195305Y0325442D01*
X0195247Y0325421D01*
X0195190Y0325397D01*
X0195135Y0325370D01*
X0195082Y0325339D01*
X0195030Y0325305D01*
X0194981Y0325268D01*
X0194934Y0325228D01*
X0194890Y0325185D01*
X0194849Y0325140D01*
X0194810Y0325092D01*
X0194774Y0325041D01*
X0194742Y0324989D01*
X0194713Y0324935D01*
X0194687Y0324879D01*
X0194665Y0324821D01*
X0194646Y0324763D01*
X0194631Y0324703D01*
X0194620Y0324642D01*
X0194612Y0324581D01*
X0194608Y0324520D01*
X0194608Y0324458D01*
X0194612Y0324397D01*
X0194620Y0324336D01*
X0194631Y0324275D01*
X0194646Y0324215D01*
X0194665Y0324157D01*
X0194687Y0324099D01*
X0194713Y0324043D01*
X0194742Y0323989D01*
X0194774Y0323937D01*
X0194810Y0323886D01*
X0194849Y0323838D01*
X0194890Y0323793D01*
X0194934Y0323750D01*
X0194981Y0323710D01*
X0195030Y0323673D01*
X0195082Y0323639D01*
X0195135Y0323608D01*
X0195190Y0323581D01*
X0195247Y0323557D01*
X0195305Y0323536D01*
X0195364Y0323519D01*
X0195424Y0323506D01*
X0195485Y0323497D01*
X0195546Y0323491D01*
X0195608Y0323489D01*
X0196608Y0323489D01*
X0195858Y0323489D02*
X0195789Y0323487D01*
X0195720Y0323481D01*
X0195652Y0323472D01*
X0195585Y0323459D01*
X0195518Y0323442D01*
X0195452Y0323421D01*
X0195388Y0323397D01*
X0195325Y0323369D01*
X0195263Y0323338D01*
X0195203Y0323304D01*
X0195146Y0323266D01*
X0195090Y0323225D01*
X0195037Y0323182D01*
X0194986Y0323135D01*
X0194938Y0323086D01*
X0194893Y0323034D01*
X0194851Y0322979D01*
X0194812Y0322923D01*
X0194775Y0322864D01*
X0194743Y0322803D01*
X0194713Y0322741D01*
X0194687Y0322677D01*
X0194665Y0322612D01*
X0194646Y0322546D01*
X0194631Y0322479D01*
X0194620Y0322411D01*
X0194612Y0322342D01*
X0194608Y0322273D01*
X0194608Y0322205D01*
X0194612Y0322136D01*
X0194620Y0322067D01*
X0194631Y0321999D01*
X0194646Y0321932D01*
X0194665Y0321866D01*
X0194687Y0321801D01*
X0194713Y0321737D01*
X0194743Y0321675D01*
X0194775Y0321614D01*
X0194812Y0321555D01*
X0194851Y0321499D01*
X0194893Y0321444D01*
X0194938Y0321392D01*
X0194986Y0321343D01*
X0195037Y0321296D01*
X0195090Y0321253D01*
X0195146Y0321212D01*
X0195203Y0321174D01*
X0195263Y0321140D01*
X0195325Y0321109D01*
X0195388Y0321081D01*
X0195452Y0321057D01*
X0195518Y0321036D01*
X0195585Y0321019D01*
X0195652Y0321006D01*
X0195720Y0320997D01*
X0195789Y0320991D01*
X0195858Y0320989D01*
X0197108Y0320989D01*
X0152483Y0338114D02*
X0151108Y0337364D01*
X0151608Y0335488D02*
X0151696Y0335490D01*
X0151783Y0335495D01*
X0151871Y0335504D01*
X0151958Y0335517D01*
X0152044Y0335533D01*
X0152129Y0335553D01*
X0152214Y0335577D01*
X0152298Y0335604D01*
X0152380Y0335634D01*
X0152461Y0335668D01*
X0152541Y0335705D01*
X0152619Y0335745D01*
X0152695Y0335789D01*
X0152769Y0335836D01*
X0152841Y0335885D01*
X0152912Y0335938D01*
X0152980Y0335994D01*
X0153045Y0336052D01*
X0153108Y0336113D01*
X0151108Y0337364D02*
X0151056Y0337331D01*
X0151005Y0337295D01*
X0150957Y0337256D01*
X0150912Y0337214D01*
X0150869Y0337169D01*
X0150829Y0337121D01*
X0150792Y0337072D01*
X0150758Y0337020D01*
X0150727Y0336966D01*
X0150699Y0336910D01*
X0150675Y0336853D01*
X0150655Y0336794D01*
X0150638Y0336735D01*
X0150625Y0336674D01*
X0150616Y0336613D01*
X0150610Y0336551D01*
X0150608Y0336489D01*
X0150610Y0336429D01*
X0150615Y0336368D01*
X0150624Y0336309D01*
X0150637Y0336250D01*
X0150653Y0336191D01*
X0150673Y0336134D01*
X0150696Y0336079D01*
X0150723Y0336024D01*
X0150752Y0335972D01*
X0150785Y0335921D01*
X0150821Y0335872D01*
X0150859Y0335826D01*
X0150901Y0335782D01*
X0150945Y0335740D01*
X0150991Y0335702D01*
X0151040Y0335666D01*
X0151091Y0335633D01*
X0151143Y0335604D01*
X0151198Y0335577D01*
X0151253Y0335554D01*
X0151310Y0335534D01*
X0151369Y0335518D01*
X0151428Y0335505D01*
X0151487Y0335496D01*
X0151548Y0335491D01*
X0151608Y0335489D01*
X0150858Y0339614D02*
X0150923Y0339661D01*
X0150991Y0339705D01*
X0151060Y0339746D01*
X0151131Y0339784D01*
X0151203Y0339819D01*
X0151277Y0339851D01*
X0151352Y0339880D01*
X0151428Y0339905D01*
X0151506Y0339927D01*
X0151584Y0339946D01*
X0151663Y0339961D01*
X0151742Y0339973D01*
X0151822Y0339982D01*
X0151903Y0339987D01*
X0151983Y0339989D01*
X0152043Y0339987D01*
X0152104Y0339982D01*
X0152163Y0339973D01*
X0152222Y0339960D01*
X0152281Y0339944D01*
X0152338Y0339924D01*
X0152393Y0339901D01*
X0152448Y0339874D01*
X0152500Y0339845D01*
X0152551Y0339812D01*
X0152600Y0339776D01*
X0152646Y0339738D01*
X0152690Y0339696D01*
X0152732Y0339652D01*
X0152770Y0339606D01*
X0152806Y0339557D01*
X0152839Y0339506D01*
X0152868Y0339454D01*
X0152895Y0339399D01*
X0152918Y0339344D01*
X0152938Y0339287D01*
X0152954Y0339228D01*
X0152967Y0339169D01*
X0152976Y0339110D01*
X0152981Y0339049D01*
X0152983Y0338989D01*
X0152984Y0338989D02*
X0152982Y0338927D01*
X0152976Y0338865D01*
X0152967Y0338804D01*
X0152954Y0338743D01*
X0152937Y0338684D01*
X0152917Y0338625D01*
X0152893Y0338568D01*
X0152865Y0338512D01*
X0152834Y0338458D01*
X0152800Y0338406D01*
X0152763Y0338357D01*
X0152723Y0338309D01*
X0152680Y0338264D01*
X0152635Y0338222D01*
X0152587Y0338183D01*
X0152536Y0338147D01*
X0152484Y0338114D01*
X0148758Y0336489D02*
X0147758Y0339989D01*
X0147008Y0337489D02*
X0147008Y0335489D01*
X0146258Y0336489D02*
X0148758Y0336489D01*
X0183608Y0278989D02*
X0183695Y0278987D01*
X0183782Y0278981D01*
X0183869Y0278972D01*
X0183955Y0278959D01*
X0184041Y0278942D01*
X0184126Y0278921D01*
X0184209Y0278896D01*
X0184292Y0278868D01*
X0184373Y0278837D01*
X0184453Y0278802D01*
X0184531Y0278763D01*
X0184608Y0278721D01*
X0184683Y0278676D01*
X0184755Y0278627D01*
X0184826Y0278576D01*
X0184894Y0278521D01*
X0184959Y0278464D01*
X0185022Y0278403D01*
X0185083Y0278340D01*
X0185140Y0278275D01*
X0185195Y0278207D01*
X0185246Y0278136D01*
X0185295Y0278064D01*
X0185340Y0277989D01*
X0185382Y0277912D01*
X0185421Y0277834D01*
X0185456Y0277754D01*
X0185487Y0277673D01*
X0185515Y0277590D01*
X0185540Y0277507D01*
X0185561Y0277422D01*
X0185578Y0277336D01*
X0185591Y0277250D01*
X0185600Y0277163D01*
X0185606Y0277076D01*
X0185608Y0276989D01*
X0185608Y0275739D01*
X0185608Y0276989D02*
X0184108Y0276989D01*
X0184048Y0276987D01*
X0183987Y0276982D01*
X0183928Y0276973D01*
X0183869Y0276960D01*
X0183810Y0276944D01*
X0183753Y0276924D01*
X0183698Y0276901D01*
X0183643Y0276874D01*
X0183591Y0276845D01*
X0183540Y0276812D01*
X0183491Y0276776D01*
X0183445Y0276738D01*
X0183401Y0276696D01*
X0183359Y0276652D01*
X0183321Y0276606D01*
X0183285Y0276557D01*
X0183252Y0276506D01*
X0183223Y0276454D01*
X0183196Y0276399D01*
X0183173Y0276344D01*
X0183153Y0276287D01*
X0183137Y0276228D01*
X0183124Y0276169D01*
X0183115Y0276110D01*
X0183110Y0276049D01*
X0183108Y0275989D01*
X0183108Y0275739D01*
X0183110Y0275670D01*
X0183116Y0275601D01*
X0183125Y0275533D01*
X0183138Y0275466D01*
X0183155Y0275399D01*
X0183176Y0275333D01*
X0183200Y0275269D01*
X0183228Y0275206D01*
X0183259Y0275144D01*
X0183293Y0275084D01*
X0183331Y0275027D01*
X0183372Y0274971D01*
X0183415Y0274918D01*
X0183462Y0274867D01*
X0183511Y0274819D01*
X0183563Y0274774D01*
X0183618Y0274732D01*
X0183674Y0274693D01*
X0183733Y0274656D01*
X0183794Y0274624D01*
X0183856Y0274594D01*
X0183920Y0274568D01*
X0183985Y0274546D01*
X0184051Y0274527D01*
X0184118Y0274512D01*
X0184186Y0274501D01*
X0184255Y0274493D01*
X0184324Y0274489D01*
X0184392Y0274489D01*
X0184461Y0274493D01*
X0184530Y0274501D01*
X0184598Y0274512D01*
X0184665Y0274527D01*
X0184731Y0274546D01*
X0184796Y0274568D01*
X0184860Y0274594D01*
X0184922Y0274624D01*
X0184983Y0274656D01*
X0185042Y0274693D01*
X0185098Y0274732D01*
X0185153Y0274774D01*
X0185205Y0274819D01*
X0185254Y0274867D01*
X0185301Y0274918D01*
X0185344Y0274971D01*
X0185385Y0275027D01*
X0185423Y0275084D01*
X0185457Y0275144D01*
X0185488Y0275206D01*
X0185516Y0275269D01*
X0185540Y0275333D01*
X0185561Y0275399D01*
X0185578Y0275466D01*
X0185591Y0275533D01*
X0185600Y0275601D01*
X0185606Y0275670D01*
X0185608Y0275739D01*
X0187958Y0276364D02*
X0189333Y0277114D01*
X0188833Y0278989D02*
X0188753Y0278987D01*
X0188672Y0278982D01*
X0188592Y0278973D01*
X0188513Y0278961D01*
X0188434Y0278946D01*
X0188356Y0278927D01*
X0188278Y0278905D01*
X0188202Y0278880D01*
X0188127Y0278851D01*
X0188053Y0278819D01*
X0187981Y0278784D01*
X0187910Y0278746D01*
X0187841Y0278705D01*
X0187773Y0278661D01*
X0187708Y0278614D01*
X0189334Y0277114D02*
X0189386Y0277147D01*
X0189437Y0277183D01*
X0189485Y0277222D01*
X0189530Y0277264D01*
X0189573Y0277309D01*
X0189613Y0277357D01*
X0189650Y0277406D01*
X0189684Y0277458D01*
X0189715Y0277512D01*
X0189743Y0277568D01*
X0189767Y0277625D01*
X0189787Y0277684D01*
X0189804Y0277743D01*
X0189817Y0277804D01*
X0189826Y0277865D01*
X0189832Y0277927D01*
X0189834Y0277989D01*
X0189833Y0277989D02*
X0189831Y0278049D01*
X0189826Y0278110D01*
X0189817Y0278169D01*
X0189804Y0278228D01*
X0189788Y0278287D01*
X0189768Y0278344D01*
X0189745Y0278399D01*
X0189718Y0278454D01*
X0189689Y0278506D01*
X0189656Y0278557D01*
X0189620Y0278606D01*
X0189582Y0278652D01*
X0189540Y0278696D01*
X0189496Y0278738D01*
X0189450Y0278776D01*
X0189401Y0278812D01*
X0189350Y0278845D01*
X0189298Y0278874D01*
X0189243Y0278901D01*
X0189188Y0278924D01*
X0189131Y0278944D01*
X0189072Y0278960D01*
X0189013Y0278973D01*
X0188954Y0278982D01*
X0188893Y0278987D01*
X0188833Y0278989D01*
X0189958Y0275113D02*
X0189895Y0275052D01*
X0189830Y0274994D01*
X0189762Y0274938D01*
X0189691Y0274885D01*
X0189619Y0274836D01*
X0189545Y0274789D01*
X0189469Y0274745D01*
X0189391Y0274705D01*
X0189311Y0274668D01*
X0189230Y0274634D01*
X0189148Y0274604D01*
X0189064Y0274577D01*
X0188979Y0274553D01*
X0188894Y0274533D01*
X0188808Y0274517D01*
X0188721Y0274504D01*
X0188633Y0274495D01*
X0188546Y0274490D01*
X0188458Y0274488D01*
X0188458Y0274489D02*
X0188398Y0274491D01*
X0188337Y0274496D01*
X0188278Y0274505D01*
X0188219Y0274518D01*
X0188160Y0274534D01*
X0188103Y0274554D01*
X0188048Y0274577D01*
X0187993Y0274604D01*
X0187941Y0274633D01*
X0187890Y0274666D01*
X0187841Y0274702D01*
X0187795Y0274740D01*
X0187751Y0274782D01*
X0187709Y0274826D01*
X0187671Y0274872D01*
X0187635Y0274921D01*
X0187602Y0274972D01*
X0187573Y0275024D01*
X0187546Y0275079D01*
X0187523Y0275134D01*
X0187503Y0275191D01*
X0187487Y0275250D01*
X0187474Y0275309D01*
X0187465Y0275368D01*
X0187460Y0275429D01*
X0187458Y0275489D01*
X0187460Y0275551D01*
X0187466Y0275613D01*
X0187475Y0275674D01*
X0187488Y0275735D01*
X0187505Y0275794D01*
X0187525Y0275853D01*
X0187549Y0275910D01*
X0187577Y0275966D01*
X0187608Y0276020D01*
X0187642Y0276072D01*
X0187679Y0276121D01*
X0187719Y0276169D01*
X0187762Y0276214D01*
X0187807Y0276256D01*
X0187855Y0276295D01*
X0187906Y0276331D01*
X0187958Y0276364D01*
X0262108Y0216489D02*
X0263358Y0211989D01*
X0266958Y0213864D02*
X0268333Y0214614D01*
X0267833Y0216489D02*
X0267753Y0216487D01*
X0267672Y0216482D01*
X0267592Y0216473D01*
X0267513Y0216461D01*
X0267434Y0216446D01*
X0267356Y0216427D01*
X0267278Y0216405D01*
X0267202Y0216380D01*
X0267127Y0216351D01*
X0267053Y0216319D01*
X0266981Y0216284D01*
X0266910Y0216246D01*
X0266841Y0216205D01*
X0266773Y0216161D01*
X0266708Y0216114D01*
X0268334Y0214614D02*
X0268386Y0214647D01*
X0268437Y0214683D01*
X0268485Y0214722D01*
X0268530Y0214764D01*
X0268573Y0214809D01*
X0268613Y0214857D01*
X0268650Y0214906D01*
X0268684Y0214958D01*
X0268715Y0215012D01*
X0268743Y0215068D01*
X0268767Y0215125D01*
X0268787Y0215184D01*
X0268804Y0215243D01*
X0268817Y0215304D01*
X0268826Y0215365D01*
X0268832Y0215427D01*
X0268834Y0215489D01*
X0268833Y0215489D02*
X0268831Y0215549D01*
X0268826Y0215610D01*
X0268817Y0215669D01*
X0268804Y0215728D01*
X0268788Y0215787D01*
X0268768Y0215844D01*
X0268745Y0215899D01*
X0268718Y0215954D01*
X0268689Y0216006D01*
X0268656Y0216057D01*
X0268620Y0216106D01*
X0268582Y0216152D01*
X0268540Y0216196D01*
X0268496Y0216238D01*
X0268450Y0216276D01*
X0268401Y0216312D01*
X0268350Y0216345D01*
X0268298Y0216374D01*
X0268243Y0216401D01*
X0268188Y0216424D01*
X0268131Y0216444D01*
X0268072Y0216460D01*
X0268013Y0216473D01*
X0267954Y0216482D01*
X0267893Y0216487D01*
X0267833Y0216489D01*
X0268958Y0212613D02*
X0268895Y0212552D01*
X0268830Y0212494D01*
X0268762Y0212438D01*
X0268691Y0212385D01*
X0268619Y0212336D01*
X0268545Y0212289D01*
X0268469Y0212245D01*
X0268391Y0212205D01*
X0268311Y0212168D01*
X0268230Y0212134D01*
X0268148Y0212104D01*
X0268064Y0212077D01*
X0267979Y0212053D01*
X0267894Y0212033D01*
X0267808Y0212017D01*
X0267721Y0212004D01*
X0267633Y0211995D01*
X0267546Y0211990D01*
X0267458Y0211988D01*
X0267458Y0211989D02*
X0267398Y0211991D01*
X0267337Y0211996D01*
X0267278Y0212005D01*
X0267219Y0212018D01*
X0267160Y0212034D01*
X0267103Y0212054D01*
X0267048Y0212077D01*
X0266993Y0212104D01*
X0266941Y0212133D01*
X0266890Y0212166D01*
X0266841Y0212202D01*
X0266795Y0212240D01*
X0266751Y0212282D01*
X0266709Y0212326D01*
X0266671Y0212372D01*
X0266635Y0212421D01*
X0266602Y0212472D01*
X0266573Y0212524D01*
X0266546Y0212579D01*
X0266523Y0212634D01*
X0266503Y0212691D01*
X0266487Y0212750D01*
X0266474Y0212809D01*
X0266465Y0212868D01*
X0266460Y0212929D01*
X0266458Y0212989D01*
X0266460Y0213051D01*
X0266466Y0213113D01*
X0266475Y0213174D01*
X0266488Y0213235D01*
X0266505Y0213294D01*
X0266525Y0213353D01*
X0266549Y0213410D01*
X0266577Y0213466D01*
X0266608Y0213520D01*
X0266642Y0213572D01*
X0266679Y0213621D01*
X0266719Y0213669D01*
X0266762Y0213714D01*
X0266807Y0213756D01*
X0266855Y0213795D01*
X0266906Y0213831D01*
X0266958Y0213864D01*
X0264608Y0215989D02*
X0264608Y0216489D01*
X0262108Y0216489D01*
X0336108Y0212489D02*
X0338608Y0212489D01*
X0337358Y0212489D02*
X0337358Y0216989D01*
X0338608Y0215989D01*
X0340958Y0214364D02*
X0342333Y0215114D01*
X0341833Y0216989D02*
X0341753Y0216987D01*
X0341672Y0216982D01*
X0341592Y0216973D01*
X0341513Y0216961D01*
X0341434Y0216946D01*
X0341356Y0216927D01*
X0341278Y0216905D01*
X0341202Y0216880D01*
X0341127Y0216851D01*
X0341053Y0216819D01*
X0340981Y0216784D01*
X0340910Y0216746D01*
X0340841Y0216705D01*
X0340773Y0216661D01*
X0340708Y0216614D01*
X0342334Y0215114D02*
X0342386Y0215147D01*
X0342437Y0215183D01*
X0342485Y0215222D01*
X0342530Y0215264D01*
X0342573Y0215309D01*
X0342613Y0215357D01*
X0342650Y0215406D01*
X0342684Y0215458D01*
X0342715Y0215512D01*
X0342743Y0215568D01*
X0342767Y0215625D01*
X0342787Y0215684D01*
X0342804Y0215743D01*
X0342817Y0215804D01*
X0342826Y0215865D01*
X0342832Y0215927D01*
X0342834Y0215989D01*
X0342833Y0215989D02*
X0342831Y0216049D01*
X0342826Y0216110D01*
X0342817Y0216169D01*
X0342804Y0216228D01*
X0342788Y0216287D01*
X0342768Y0216344D01*
X0342745Y0216399D01*
X0342718Y0216454D01*
X0342689Y0216506D01*
X0342656Y0216557D01*
X0342620Y0216606D01*
X0342582Y0216652D01*
X0342540Y0216696D01*
X0342496Y0216738D01*
X0342450Y0216776D01*
X0342401Y0216812D01*
X0342350Y0216845D01*
X0342298Y0216874D01*
X0342243Y0216901D01*
X0342188Y0216924D01*
X0342131Y0216944D01*
X0342072Y0216960D01*
X0342013Y0216973D01*
X0341954Y0216982D01*
X0341893Y0216987D01*
X0341833Y0216989D01*
X0342958Y0213113D02*
X0342895Y0213052D01*
X0342830Y0212994D01*
X0342762Y0212938D01*
X0342691Y0212885D01*
X0342619Y0212836D01*
X0342545Y0212789D01*
X0342469Y0212745D01*
X0342391Y0212705D01*
X0342311Y0212668D01*
X0342230Y0212634D01*
X0342148Y0212604D01*
X0342064Y0212577D01*
X0341979Y0212553D01*
X0341894Y0212533D01*
X0341808Y0212517D01*
X0341721Y0212504D01*
X0341633Y0212495D01*
X0341546Y0212490D01*
X0341458Y0212488D01*
X0341458Y0212489D02*
X0341398Y0212491D01*
X0341337Y0212496D01*
X0341278Y0212505D01*
X0341219Y0212518D01*
X0341160Y0212534D01*
X0341103Y0212554D01*
X0341048Y0212577D01*
X0340993Y0212604D01*
X0340941Y0212633D01*
X0340890Y0212666D01*
X0340841Y0212702D01*
X0340795Y0212740D01*
X0340751Y0212782D01*
X0340709Y0212826D01*
X0340671Y0212872D01*
X0340635Y0212921D01*
X0340602Y0212972D01*
X0340573Y0213024D01*
X0340546Y0213079D01*
X0340523Y0213134D01*
X0340503Y0213191D01*
X0340487Y0213250D01*
X0340474Y0213309D01*
X0340465Y0213368D01*
X0340460Y0213429D01*
X0340458Y0213489D01*
X0340460Y0213551D01*
X0340466Y0213613D01*
X0340475Y0213674D01*
X0340488Y0213735D01*
X0340505Y0213794D01*
X0340525Y0213853D01*
X0340549Y0213910D01*
X0340577Y0213966D01*
X0340608Y0214020D01*
X0340642Y0214072D01*
X0340679Y0214121D01*
X0340719Y0214169D01*
X0340762Y0214214D01*
X0340807Y0214256D01*
X0340855Y0214295D01*
X0340906Y0214331D01*
X0340958Y0214364D01*
X0435608Y0210989D02*
X0438108Y0210989D01*
X0435983Y0213489D01*
X0436733Y0215488D02*
X0436806Y0215486D01*
X0436878Y0215481D01*
X0436950Y0215472D01*
X0437022Y0215459D01*
X0437093Y0215443D01*
X0437163Y0215423D01*
X0437231Y0215399D01*
X0437299Y0215373D01*
X0437365Y0215342D01*
X0437430Y0215309D01*
X0437492Y0215272D01*
X0437553Y0215233D01*
X0437612Y0215190D01*
X0437669Y0215144D01*
X0437723Y0215096D01*
X0437774Y0215045D01*
X0437824Y0214991D01*
X0437870Y0214935D01*
X0437913Y0214877D01*
X0437954Y0214816D01*
X0437991Y0214754D01*
X0438025Y0214690D01*
X0438056Y0214624D01*
X0438084Y0214557D01*
X0438108Y0214488D01*
X0435984Y0213489D02*
X0435938Y0213535D01*
X0435894Y0213584D01*
X0435854Y0213635D01*
X0435816Y0213688D01*
X0435781Y0213743D01*
X0435749Y0213800D01*
X0435720Y0213858D01*
X0435694Y0213918D01*
X0435672Y0213980D01*
X0435653Y0214042D01*
X0435637Y0214105D01*
X0435625Y0214169D01*
X0435616Y0214234D01*
X0435611Y0214299D01*
X0435609Y0214364D01*
X0435608Y0214364D02*
X0435610Y0214429D01*
X0435616Y0214495D01*
X0435625Y0214559D01*
X0435638Y0214623D01*
X0435655Y0214687D01*
X0435676Y0214749D01*
X0435700Y0214810D01*
X0435728Y0214869D01*
X0435759Y0214927D01*
X0435793Y0214982D01*
X0435831Y0215036D01*
X0435871Y0215087D01*
X0435915Y0215136D01*
X0435961Y0215182D01*
X0436010Y0215226D01*
X0436061Y0215266D01*
X0436115Y0215304D01*
X0436171Y0215338D01*
X0436228Y0215369D01*
X0436287Y0215397D01*
X0436348Y0215421D01*
X0436410Y0215442D01*
X0436474Y0215459D01*
X0436538Y0215472D01*
X0436602Y0215481D01*
X0436668Y0215487D01*
X0436733Y0215489D01*
X0440458Y0212864D02*
X0441833Y0213614D01*
X0441333Y0215489D02*
X0441253Y0215487D01*
X0441172Y0215482D01*
X0441092Y0215473D01*
X0441013Y0215461D01*
X0440934Y0215446D01*
X0440856Y0215427D01*
X0440778Y0215405D01*
X0440702Y0215380D01*
X0440627Y0215351D01*
X0440553Y0215319D01*
X0440481Y0215284D01*
X0440410Y0215246D01*
X0440341Y0215205D01*
X0440273Y0215161D01*
X0440208Y0215114D01*
X0441834Y0213614D02*
X0441886Y0213647D01*
X0441937Y0213683D01*
X0441985Y0213722D01*
X0442030Y0213764D01*
X0442073Y0213809D01*
X0442113Y0213857D01*
X0442150Y0213906D01*
X0442184Y0213958D01*
X0442215Y0214012D01*
X0442243Y0214068D01*
X0442267Y0214125D01*
X0442287Y0214184D01*
X0442304Y0214243D01*
X0442317Y0214304D01*
X0442326Y0214365D01*
X0442332Y0214427D01*
X0442334Y0214489D01*
X0442333Y0214489D02*
X0442331Y0214549D01*
X0442326Y0214610D01*
X0442317Y0214669D01*
X0442304Y0214728D01*
X0442288Y0214787D01*
X0442268Y0214844D01*
X0442245Y0214899D01*
X0442218Y0214954D01*
X0442189Y0215006D01*
X0442156Y0215057D01*
X0442120Y0215106D01*
X0442082Y0215152D01*
X0442040Y0215196D01*
X0441996Y0215238D01*
X0441950Y0215276D01*
X0441901Y0215312D01*
X0441850Y0215345D01*
X0441798Y0215374D01*
X0441743Y0215401D01*
X0441688Y0215424D01*
X0441631Y0215444D01*
X0441572Y0215460D01*
X0441513Y0215473D01*
X0441454Y0215482D01*
X0441393Y0215487D01*
X0441333Y0215489D01*
X0442458Y0211613D02*
X0442395Y0211552D01*
X0442330Y0211494D01*
X0442262Y0211438D01*
X0442191Y0211385D01*
X0442119Y0211336D01*
X0442045Y0211289D01*
X0441969Y0211245D01*
X0441891Y0211205D01*
X0441811Y0211168D01*
X0441730Y0211134D01*
X0441648Y0211104D01*
X0441564Y0211077D01*
X0441479Y0211053D01*
X0441394Y0211033D01*
X0441308Y0211017D01*
X0441221Y0211004D01*
X0441133Y0210995D01*
X0441046Y0210990D01*
X0440958Y0210988D01*
X0440958Y0210989D02*
X0440898Y0210991D01*
X0440837Y0210996D01*
X0440778Y0211005D01*
X0440719Y0211018D01*
X0440660Y0211034D01*
X0440603Y0211054D01*
X0440548Y0211077D01*
X0440493Y0211104D01*
X0440441Y0211133D01*
X0440390Y0211166D01*
X0440341Y0211202D01*
X0440295Y0211240D01*
X0440251Y0211282D01*
X0440209Y0211326D01*
X0440171Y0211372D01*
X0440135Y0211421D01*
X0440102Y0211472D01*
X0440073Y0211524D01*
X0440046Y0211579D01*
X0440023Y0211634D01*
X0440003Y0211691D01*
X0439987Y0211750D01*
X0439974Y0211809D01*
X0439965Y0211868D01*
X0439960Y0211929D01*
X0439958Y0211989D01*
X0439960Y0212051D01*
X0439966Y0212113D01*
X0439975Y0212174D01*
X0439988Y0212235D01*
X0440005Y0212294D01*
X0440025Y0212353D01*
X0440049Y0212410D01*
X0440077Y0212466D01*
X0440108Y0212520D01*
X0440142Y0212572D01*
X0440179Y0212621D01*
X0440219Y0212669D01*
X0440262Y0212714D01*
X0440307Y0212756D01*
X0440355Y0212795D01*
X0440406Y0212831D01*
X0440458Y0212864D01*
X0539758Y0269489D02*
X0539758Y0269989D01*
X0539760Y0270049D01*
X0539765Y0270110D01*
X0539774Y0270169D01*
X0539787Y0270228D01*
X0539803Y0270287D01*
X0539823Y0270344D01*
X0539846Y0270399D01*
X0539873Y0270454D01*
X0539902Y0270506D01*
X0539935Y0270557D01*
X0539971Y0270606D01*
X0540009Y0270652D01*
X0540051Y0270696D01*
X0540095Y0270738D01*
X0540141Y0270776D01*
X0540190Y0270812D01*
X0540241Y0270845D01*
X0540293Y0270874D01*
X0540348Y0270901D01*
X0540403Y0270924D01*
X0540460Y0270944D01*
X0540519Y0270960D01*
X0540578Y0270973D01*
X0540637Y0270982D01*
X0540698Y0270987D01*
X0540758Y0270989D01*
X0542258Y0270989D01*
X0542258Y0272989D01*
X0539758Y0272989D01*
X0539758Y0269489D02*
X0539760Y0269429D01*
X0539765Y0269368D01*
X0539774Y0269309D01*
X0539787Y0269250D01*
X0539803Y0269191D01*
X0539823Y0269134D01*
X0539846Y0269079D01*
X0539873Y0269024D01*
X0539902Y0268972D01*
X0539935Y0268921D01*
X0539971Y0268872D01*
X0540009Y0268826D01*
X0540051Y0268782D01*
X0540095Y0268740D01*
X0540141Y0268702D01*
X0540190Y0268666D01*
X0540241Y0268633D01*
X0540293Y0268604D01*
X0540348Y0268577D01*
X0540403Y0268554D01*
X0540460Y0268534D01*
X0540519Y0268518D01*
X0540578Y0268505D01*
X0540637Y0268496D01*
X0540698Y0268491D01*
X0540758Y0268489D01*
X0542258Y0268489D01*
X0544608Y0270364D02*
X0545983Y0271114D01*
X0545483Y0272989D02*
X0545403Y0272987D01*
X0545322Y0272982D01*
X0545242Y0272973D01*
X0545163Y0272961D01*
X0545084Y0272946D01*
X0545006Y0272927D01*
X0544928Y0272905D01*
X0544852Y0272880D01*
X0544777Y0272851D01*
X0544703Y0272819D01*
X0544631Y0272784D01*
X0544560Y0272746D01*
X0544491Y0272705D01*
X0544423Y0272661D01*
X0544358Y0272614D01*
X0545984Y0271114D02*
X0546036Y0271147D01*
X0546087Y0271183D01*
X0546135Y0271222D01*
X0546180Y0271264D01*
X0546223Y0271309D01*
X0546263Y0271357D01*
X0546300Y0271406D01*
X0546334Y0271458D01*
X0546365Y0271512D01*
X0546393Y0271568D01*
X0546417Y0271625D01*
X0546437Y0271684D01*
X0546454Y0271743D01*
X0546467Y0271804D01*
X0546476Y0271865D01*
X0546482Y0271927D01*
X0546484Y0271989D01*
X0546483Y0271989D02*
X0546481Y0272049D01*
X0546476Y0272110D01*
X0546467Y0272169D01*
X0546454Y0272228D01*
X0546438Y0272287D01*
X0546418Y0272344D01*
X0546395Y0272399D01*
X0546368Y0272454D01*
X0546339Y0272506D01*
X0546306Y0272557D01*
X0546270Y0272606D01*
X0546232Y0272652D01*
X0546190Y0272696D01*
X0546146Y0272738D01*
X0546100Y0272776D01*
X0546051Y0272812D01*
X0546000Y0272845D01*
X0545948Y0272874D01*
X0545893Y0272901D01*
X0545838Y0272924D01*
X0545781Y0272944D01*
X0545722Y0272960D01*
X0545663Y0272973D01*
X0545604Y0272982D01*
X0545543Y0272987D01*
X0545483Y0272989D01*
X0546608Y0269113D02*
X0546545Y0269052D01*
X0546480Y0268994D01*
X0546412Y0268938D01*
X0546341Y0268885D01*
X0546269Y0268836D01*
X0546195Y0268789D01*
X0546119Y0268745D01*
X0546041Y0268705D01*
X0545961Y0268668D01*
X0545880Y0268634D01*
X0545798Y0268604D01*
X0545714Y0268577D01*
X0545629Y0268553D01*
X0545544Y0268533D01*
X0545458Y0268517D01*
X0545371Y0268504D01*
X0545283Y0268495D01*
X0545196Y0268490D01*
X0545108Y0268488D01*
X0545108Y0268489D02*
X0545048Y0268491D01*
X0544987Y0268496D01*
X0544928Y0268505D01*
X0544869Y0268518D01*
X0544810Y0268534D01*
X0544753Y0268554D01*
X0544698Y0268577D01*
X0544643Y0268604D01*
X0544591Y0268633D01*
X0544540Y0268666D01*
X0544491Y0268702D01*
X0544445Y0268740D01*
X0544401Y0268782D01*
X0544359Y0268826D01*
X0544321Y0268872D01*
X0544285Y0268921D01*
X0544252Y0268972D01*
X0544223Y0269024D01*
X0544196Y0269079D01*
X0544173Y0269134D01*
X0544153Y0269191D01*
X0544137Y0269250D01*
X0544124Y0269309D01*
X0544115Y0269368D01*
X0544110Y0269429D01*
X0544108Y0269489D01*
X0544110Y0269551D01*
X0544116Y0269613D01*
X0544125Y0269674D01*
X0544138Y0269735D01*
X0544155Y0269794D01*
X0544175Y0269853D01*
X0544199Y0269910D01*
X0544227Y0269966D01*
X0544258Y0270020D01*
X0544292Y0270072D01*
X0544329Y0270121D01*
X0544369Y0270169D01*
X0544412Y0270214D01*
X0544457Y0270256D01*
X0544505Y0270295D01*
X0544556Y0270331D01*
X0544608Y0270364D01*
X0542258Y0335989D02*
X0541008Y0335989D01*
X0540939Y0335991D01*
X0540870Y0335997D01*
X0540802Y0336006D01*
X0540735Y0336019D01*
X0540668Y0336036D01*
X0540602Y0336057D01*
X0540538Y0336081D01*
X0540475Y0336109D01*
X0540413Y0336140D01*
X0540353Y0336174D01*
X0540296Y0336212D01*
X0540240Y0336253D01*
X0540187Y0336296D01*
X0540136Y0336343D01*
X0540088Y0336392D01*
X0540043Y0336444D01*
X0540001Y0336499D01*
X0539962Y0336555D01*
X0539925Y0336614D01*
X0539893Y0336675D01*
X0539863Y0336737D01*
X0539837Y0336801D01*
X0539815Y0336866D01*
X0539796Y0336932D01*
X0539781Y0336999D01*
X0539770Y0337067D01*
X0539762Y0337136D01*
X0539758Y0337205D01*
X0539758Y0337273D01*
X0539762Y0337342D01*
X0539770Y0337411D01*
X0539781Y0337479D01*
X0539796Y0337546D01*
X0539815Y0337612D01*
X0539837Y0337677D01*
X0539863Y0337741D01*
X0539893Y0337803D01*
X0539925Y0337864D01*
X0539962Y0337923D01*
X0540001Y0337979D01*
X0540043Y0338034D01*
X0540088Y0338086D01*
X0540136Y0338135D01*
X0540187Y0338182D01*
X0540240Y0338225D01*
X0540296Y0338266D01*
X0540353Y0338304D01*
X0540413Y0338338D01*
X0540475Y0338369D01*
X0540538Y0338397D01*
X0540602Y0338421D01*
X0540668Y0338442D01*
X0540735Y0338459D01*
X0540802Y0338472D01*
X0540870Y0338481D01*
X0540939Y0338487D01*
X0541008Y0338489D01*
X0540758Y0338489D02*
X0541758Y0338489D01*
X0540758Y0338489D02*
X0540696Y0338491D01*
X0540635Y0338497D01*
X0540574Y0338506D01*
X0540514Y0338519D01*
X0540455Y0338536D01*
X0540397Y0338557D01*
X0540340Y0338581D01*
X0540285Y0338608D01*
X0540232Y0338639D01*
X0540180Y0338673D01*
X0540131Y0338710D01*
X0540084Y0338750D01*
X0540040Y0338793D01*
X0539999Y0338838D01*
X0539960Y0338886D01*
X0539924Y0338937D01*
X0539892Y0338989D01*
X0539863Y0339043D01*
X0539837Y0339099D01*
X0539815Y0339157D01*
X0539796Y0339215D01*
X0539781Y0339275D01*
X0539770Y0339336D01*
X0539762Y0339397D01*
X0539758Y0339458D01*
X0539758Y0339520D01*
X0539762Y0339581D01*
X0539770Y0339642D01*
X0539781Y0339703D01*
X0539796Y0339763D01*
X0539815Y0339821D01*
X0539837Y0339879D01*
X0539863Y0339935D01*
X0539892Y0339989D01*
X0539924Y0340041D01*
X0539960Y0340092D01*
X0539999Y0340140D01*
X0540040Y0340185D01*
X0540084Y0340228D01*
X0540131Y0340268D01*
X0540180Y0340305D01*
X0540232Y0340339D01*
X0540285Y0340370D01*
X0540340Y0340397D01*
X0540397Y0340421D01*
X0540455Y0340442D01*
X0540514Y0340459D01*
X0540574Y0340472D01*
X0540635Y0340481D01*
X0540696Y0340487D01*
X0540758Y0340489D01*
X0542258Y0340489D01*
X0545984Y0338614D02*
X0546036Y0338647D01*
X0546087Y0338683D01*
X0546135Y0338722D01*
X0546180Y0338764D01*
X0546223Y0338809D01*
X0546263Y0338857D01*
X0546300Y0338906D01*
X0546334Y0338958D01*
X0546365Y0339012D01*
X0546393Y0339068D01*
X0546417Y0339125D01*
X0546437Y0339184D01*
X0546454Y0339243D01*
X0546467Y0339304D01*
X0546476Y0339365D01*
X0546482Y0339427D01*
X0546484Y0339489D01*
X0546483Y0339489D02*
X0546481Y0339549D01*
X0546476Y0339610D01*
X0546467Y0339669D01*
X0546454Y0339728D01*
X0546438Y0339787D01*
X0546418Y0339844D01*
X0546395Y0339899D01*
X0546368Y0339954D01*
X0546339Y0340006D01*
X0546306Y0340057D01*
X0546270Y0340106D01*
X0546232Y0340152D01*
X0546190Y0340196D01*
X0546146Y0340238D01*
X0546100Y0340276D01*
X0546051Y0340312D01*
X0546000Y0340345D01*
X0545948Y0340374D01*
X0545893Y0340401D01*
X0545838Y0340424D01*
X0545781Y0340444D01*
X0545722Y0340460D01*
X0545663Y0340473D01*
X0545604Y0340482D01*
X0545543Y0340487D01*
X0545483Y0340489D01*
X0545403Y0340487D01*
X0545322Y0340482D01*
X0545242Y0340473D01*
X0545163Y0340461D01*
X0545084Y0340446D01*
X0545006Y0340427D01*
X0544928Y0340405D01*
X0544852Y0340380D01*
X0544777Y0340351D01*
X0544703Y0340319D01*
X0544631Y0340284D01*
X0544560Y0340246D01*
X0544491Y0340205D01*
X0544423Y0340161D01*
X0544358Y0340114D01*
X0546608Y0336613D02*
X0546545Y0336552D01*
X0546480Y0336494D01*
X0546412Y0336438D01*
X0546341Y0336385D01*
X0546269Y0336336D01*
X0546195Y0336289D01*
X0546119Y0336245D01*
X0546041Y0336205D01*
X0545961Y0336168D01*
X0545880Y0336134D01*
X0545798Y0336104D01*
X0545714Y0336077D01*
X0545629Y0336053D01*
X0545544Y0336033D01*
X0545458Y0336017D01*
X0545371Y0336004D01*
X0545283Y0335995D01*
X0545196Y0335990D01*
X0545108Y0335988D01*
X0545108Y0335989D02*
X0545048Y0335991D01*
X0544987Y0335996D01*
X0544928Y0336005D01*
X0544869Y0336018D01*
X0544810Y0336034D01*
X0544753Y0336054D01*
X0544698Y0336077D01*
X0544643Y0336104D01*
X0544591Y0336133D01*
X0544540Y0336166D01*
X0544491Y0336202D01*
X0544445Y0336240D01*
X0544401Y0336282D01*
X0544359Y0336326D01*
X0544321Y0336372D01*
X0544285Y0336421D01*
X0544252Y0336472D01*
X0544223Y0336524D01*
X0544196Y0336579D01*
X0544173Y0336634D01*
X0544153Y0336691D01*
X0544137Y0336750D01*
X0544124Y0336809D01*
X0544115Y0336868D01*
X0544110Y0336929D01*
X0544108Y0336989D01*
X0544608Y0337864D02*
X0545983Y0338614D01*
X0544608Y0337864D02*
X0544556Y0337831D01*
X0544505Y0337795D01*
X0544457Y0337756D01*
X0544412Y0337714D01*
X0544369Y0337669D01*
X0544329Y0337621D01*
X0544292Y0337572D01*
X0544258Y0337520D01*
X0544227Y0337466D01*
X0544199Y0337410D01*
X0544175Y0337353D01*
X0544155Y0337294D01*
X0544138Y0337235D01*
X0544125Y0337174D01*
X0544116Y0337113D01*
X0544110Y0337051D01*
X0544108Y0336989D01*
D15*
X0235276Y0294113D02*
X0235276Y0394113D01*
X0232520Y0394113D01*
X0232520Y0392932D01*
X0231339Y0392932D01*
X0231339Y0295294D01*
X0231339Y0294113D01*
X0229764Y0294113D01*
X0231339Y0295294D02*
X0232520Y0295294D01*
X0232520Y0294113D01*
X0235276Y0294113D01*
X0217953Y0294113D02*
X0214016Y0294113D01*
X0214016Y0298837D01*
X0232520Y0386632D02*
X0232520Y0388207D01*
X0234094Y0387420D01*
X0232520Y0386632D01*
X0232520Y0387374D02*
X0234003Y0387374D01*
X0232589Y0388173D02*
X0232520Y0388173D01*
X0231339Y0392932D02*
X0231339Y0394113D01*
X0229764Y0394113D01*
X0217953Y0394113D02*
X0214016Y0394113D01*
X0214016Y0389388D01*
M02*
