G75*
%MOIN*%
%OFA0B0*%
%FSLAX25Y25*%
%IPPOS*%
%LPD*%
%AMOC8*
5,1,8,0,0,1.08239X$1,22.5*
%
%ADD10OC8,0.08500*%
%ADD11C,0.05250*%
%ADD12R,0.00787X0.03937*%
%ADD13R,0.03937X0.00787*%
%ADD14R,0.05118X0.05906*%
%ADD15R,0.03937X0.04331*%
%ADD16C,0.00600*%
%ADD17C,0.02700*%
D10*
X0048800Y0061300D03*
D11*
X0036300Y0061300D03*
X0023800Y0061300D03*
X0011300Y0061300D03*
X0011300Y0051300D03*
X0011300Y0041300D03*
X0011300Y0031300D03*
X0063800Y0061300D03*
X0076300Y0061300D03*
X0076300Y0051300D03*
X0076300Y0041300D03*
X0076300Y0031300D03*
X0076300Y0021300D03*
X0076300Y0011300D03*
X0091300Y0011300D03*
X0091300Y0021300D03*
X0091300Y0031300D03*
X0091300Y0041300D03*
X0091300Y0051300D03*
X0091300Y0061300D03*
D12*
X0059627Y0043032D03*
X0057658Y0043032D03*
X0055690Y0043032D03*
X0053721Y0043032D03*
X0051753Y0043032D03*
X0049784Y0043032D03*
X0047816Y0043032D03*
X0045847Y0043032D03*
X0043879Y0043032D03*
X0041910Y0043032D03*
X0039942Y0043032D03*
X0037973Y0043032D03*
X0037973Y0009568D03*
X0039942Y0009568D03*
X0041910Y0009568D03*
X0043879Y0009568D03*
X0045847Y0009568D03*
X0047816Y0009568D03*
X0049784Y0009568D03*
X0051753Y0009568D03*
X0053721Y0009568D03*
X0055690Y0009568D03*
X0057658Y0009568D03*
X0059627Y0009568D03*
D13*
X0065532Y0015473D03*
X0065532Y0017442D03*
X0065532Y0019410D03*
X0065532Y0021379D03*
X0065532Y0023347D03*
X0065532Y0025316D03*
X0065532Y0027284D03*
X0065532Y0029253D03*
X0065532Y0031221D03*
X0065532Y0033190D03*
X0065532Y0035158D03*
X0065532Y0037127D03*
X0032068Y0037127D03*
X0032068Y0035158D03*
X0032068Y0033190D03*
X0032068Y0031221D03*
X0032068Y0029253D03*
X0032068Y0027284D03*
X0032068Y0025316D03*
X0032068Y0023347D03*
X0032068Y0021379D03*
X0032068Y0019410D03*
X0032068Y0017442D03*
X0032068Y0015473D03*
D14*
X0020040Y0021300D03*
X0012560Y0021300D03*
D15*
X0012954Y0011300D03*
X0019646Y0011300D03*
D16*
X0002200Y0002200D02*
X0002200Y0071300D01*
X0100321Y0071300D01*
X0100321Y0002200D01*
X0002200Y0002200D01*
X0002200Y0002497D02*
X0100321Y0002497D01*
X0100321Y0003096D02*
X0002200Y0003096D01*
X0002200Y0003694D02*
X0100321Y0003694D01*
X0100321Y0004293D02*
X0002200Y0004293D01*
X0002200Y0004891D02*
X0040042Y0004891D01*
X0040116Y0004818D02*
X0051131Y0004818D01*
X0051955Y0005642D01*
X0052659Y0006346D01*
X0052659Y0006346D01*
X0054186Y0004818D01*
X0071534Y0004818D01*
X0074657Y0007941D01*
X0075558Y0007568D01*
X0077042Y0007568D01*
X0078414Y0008136D01*
X0079464Y0009186D01*
X0080032Y0010558D01*
X0080032Y0012042D01*
X0079464Y0013414D01*
X0078914Y0013964D01*
X0086549Y0013964D01*
X0087832Y0012681D01*
X0087568Y0012042D01*
X0087568Y0010558D01*
X0088136Y0009186D01*
X0089186Y0008136D01*
X0090558Y0007568D01*
X0092042Y0007568D01*
X0093414Y0008136D01*
X0094464Y0009186D01*
X0095032Y0010558D01*
X0095032Y0012042D01*
X0094464Y0013414D01*
X0093414Y0014464D01*
X0092042Y0015032D01*
X0090558Y0015032D01*
X0089782Y0014711D01*
X0087715Y0016778D01*
X0068608Y0016778D01*
X0068608Y0018185D01*
X0074137Y0018185D01*
X0074186Y0018136D01*
X0075558Y0017568D01*
X0077042Y0017568D01*
X0078414Y0018136D01*
X0079464Y0019186D01*
X0080032Y0020558D01*
X0080032Y0022042D01*
X0079464Y0023414D01*
X0079065Y0023813D01*
X0086549Y0023813D01*
X0087788Y0022575D01*
X0087568Y0022042D01*
X0087568Y0020558D01*
X0088136Y0019186D01*
X0089186Y0018136D01*
X0090558Y0017568D01*
X0092042Y0017568D01*
X0093414Y0018136D01*
X0094464Y0019186D01*
X0095032Y0020558D01*
X0095032Y0022042D01*
X0094464Y0023414D01*
X0093414Y0024464D01*
X0092042Y0025032D01*
X0090558Y0025032D01*
X0089676Y0024667D01*
X0087715Y0026628D01*
X0073886Y0026628D01*
X0073061Y0025803D01*
X0071775Y0024517D01*
X0068608Y0024517D01*
X0068608Y0025924D01*
X0072941Y0025924D01*
X0074870Y0027853D01*
X0075558Y0027568D01*
X0077042Y0027568D01*
X0078414Y0028136D01*
X0079464Y0029186D01*
X0080032Y0030558D01*
X0080032Y0032042D01*
X0079464Y0033414D01*
X0079215Y0033663D01*
X0086549Y0033663D01*
X0087744Y0032468D01*
X0087568Y0032042D01*
X0087568Y0030558D01*
X0088136Y0029186D01*
X0089186Y0028136D01*
X0090558Y0027568D01*
X0092042Y0027568D01*
X0093414Y0028136D01*
X0094464Y0029186D01*
X0095032Y0030558D01*
X0095032Y0032042D01*
X0094464Y0033414D01*
X0093414Y0034464D01*
X0092042Y0035032D01*
X0090558Y0035032D01*
X0089569Y0034623D01*
X0087715Y0036477D01*
X0073886Y0036477D01*
X0073061Y0035653D01*
X0070368Y0032959D01*
X0068608Y0032959D01*
X0068608Y0033663D01*
X0070830Y0033663D01*
X0074976Y0037809D01*
X0075558Y0037568D01*
X0077042Y0037568D01*
X0078414Y0038136D01*
X0079464Y0039186D01*
X0080032Y0040558D01*
X0080032Y0042042D01*
X0079464Y0043414D01*
X0078414Y0044464D01*
X0077314Y0044920D01*
X0085142Y0044920D01*
X0087700Y0042362D01*
X0087568Y0042042D01*
X0087568Y0040558D01*
X0088136Y0039186D01*
X0089186Y0038136D01*
X0090558Y0037568D01*
X0092042Y0037568D01*
X0093414Y0038136D01*
X0094464Y0039186D01*
X0095032Y0040558D01*
X0095032Y0042042D01*
X0094464Y0043414D01*
X0093414Y0044464D01*
X0092042Y0045032D01*
X0090558Y0045032D01*
X0089463Y0044579D01*
X0086308Y0047734D01*
X0077443Y0047734D01*
X0078414Y0048136D01*
X0079464Y0049186D01*
X0080032Y0050558D01*
X0080032Y0052042D01*
X0079464Y0053414D01*
X0078812Y0054066D01*
X0086549Y0054066D01*
X0087862Y0052753D01*
X0087568Y0052042D01*
X0087568Y0050558D01*
X0088136Y0049186D01*
X0089186Y0048136D01*
X0090558Y0047568D01*
X0092042Y0047568D01*
X0093414Y0048136D01*
X0094464Y0049186D01*
X0095032Y0050558D01*
X0095032Y0052042D01*
X0094464Y0053414D01*
X0093414Y0054464D01*
X0092042Y0055032D01*
X0090558Y0055032D01*
X0089854Y0054741D01*
X0088067Y0056528D01*
X0089532Y0057993D01*
X0090558Y0057568D01*
X0092042Y0057568D01*
X0093414Y0058136D01*
X0094464Y0059186D01*
X0095032Y0060558D01*
X0095032Y0062042D01*
X0094464Y0063414D01*
X0093414Y0064464D01*
X0092042Y0065032D01*
X0090558Y0065032D01*
X0089186Y0064464D01*
X0088136Y0063414D01*
X0087568Y0062042D01*
X0087568Y0060558D01*
X0087729Y0060170D01*
X0085846Y0058287D01*
X0078565Y0058287D01*
X0079464Y0059186D01*
X0080032Y0060558D01*
X0080032Y0062042D01*
X0079464Y0063414D01*
X0078414Y0064464D01*
X0077042Y0065032D01*
X0075558Y0065032D01*
X0074186Y0064464D01*
X0073136Y0063414D01*
X0072568Y0062042D01*
X0072568Y0060558D01*
X0073136Y0059186D01*
X0074035Y0058287D01*
X0066065Y0058287D01*
X0066964Y0059186D01*
X0067532Y0060558D01*
X0067532Y0062042D01*
X0066964Y0063414D01*
X0065914Y0064464D01*
X0064542Y0065032D01*
X0063058Y0065032D01*
X0061686Y0064464D01*
X0060636Y0063414D01*
X0060261Y0062508D01*
X0056297Y0062508D01*
X0055473Y0061684D01*
X0054157Y0060368D01*
X0054157Y0063519D01*
X0051019Y0066657D01*
X0046581Y0066657D01*
X0043443Y0063519D01*
X0043443Y0063212D01*
X0039548Y0063212D01*
X0039464Y0063414D01*
X0038414Y0064464D01*
X0037042Y0065032D01*
X0035558Y0065032D01*
X0034835Y0064733D01*
X0031432Y0068137D01*
X0021120Y0068137D01*
X0020296Y0067312D01*
X0016778Y0063795D01*
X0016778Y0044337D01*
X0017602Y0043513D01*
X0029017Y0032098D01*
X0028992Y0032074D01*
X0028992Y0030369D01*
X0029007Y0030354D01*
X0028888Y0030148D01*
X0028799Y0029818D01*
X0028799Y0029253D01*
X0032068Y0029253D01*
X0031552Y0029442D01*
X0029442Y0029442D01*
X0015371Y0043513D01*
X0015371Y0062508D01*
X0012557Y0065322D01*
X0009743Y0065322D01*
X0004114Y0059694D01*
X0004114Y0038588D01*
X0011150Y0031552D01*
X0011300Y0031300D01*
X0011853Y0030849D01*
X0012557Y0030145D01*
X0012557Y0021703D01*
X0012560Y0021300D01*
X0012557Y0020999D01*
X0012557Y0011853D01*
X0012954Y0011300D01*
X0012557Y0011150D01*
X0016778Y0006928D01*
X0028035Y0006928D01*
X0035774Y0014667D01*
X0035774Y0020296D01*
X0035070Y0020999D01*
X0032256Y0020999D01*
X0032068Y0021379D01*
X0035336Y0021379D01*
X0035336Y0021944D01*
X0035248Y0022274D01*
X0035129Y0022480D01*
X0035143Y0022495D01*
X0035143Y0024200D01*
X0035011Y0024331D01*
X0035143Y0024463D01*
X0035143Y0026118D01*
X0036356Y0027331D01*
X0037181Y0028155D01*
X0037181Y0039412D01*
X0037301Y0039291D01*
X0038709Y0037884D01*
X0041281Y0037884D01*
X0042105Y0038709D01*
X0042106Y0038709D01*
X0042106Y0038709D01*
X0042930Y0037884D01*
X0044799Y0037884D01*
X0045623Y0038709D01*
X0046447Y0037884D01*
X0049020Y0037884D01*
X0049844Y0038709D01*
X0050669Y0037884D01*
X0052538Y0037884D01*
X0053362Y0038709D01*
X0057704Y0034367D01*
X0060398Y0034367D01*
X0060398Y0033784D01*
X0061222Y0032959D01*
X0060398Y0032135D01*
X0060398Y0030266D01*
X0061222Y0029442D01*
X0060398Y0028617D01*
X0060398Y0026045D01*
X0061222Y0025220D01*
X0061222Y0025220D01*
X0060398Y0024396D01*
X0060398Y0020175D01*
X0054769Y0014547D01*
X0054649Y0014667D01*
X0052779Y0014667D01*
X0051372Y0013260D01*
X0050696Y0012584D01*
X0050637Y0012643D01*
X0048932Y0012643D01*
X0048800Y0012511D01*
X0048668Y0012643D01*
X0046963Y0012643D01*
X0046831Y0012511D01*
X0046700Y0012643D01*
X0044995Y0012643D01*
X0044863Y0012511D01*
X0044731Y0012643D01*
X0043026Y0012643D01*
X0042894Y0012511D01*
X0042763Y0012643D01*
X0041058Y0012643D01*
X0040926Y0012511D01*
X0040794Y0012643D01*
X0039089Y0012643D01*
X0038957Y0012511D01*
X0038825Y0012643D01*
X0037121Y0012643D01*
X0036472Y0011995D01*
X0036472Y0007141D01*
X0037121Y0006492D01*
X0038588Y0006492D01*
X0038588Y0006346D01*
X0039291Y0005642D01*
X0040116Y0004818D01*
X0039444Y0005490D02*
X0002200Y0005490D01*
X0002200Y0006088D02*
X0038845Y0006088D01*
X0039995Y0006928D02*
X0040698Y0006225D01*
X0042809Y0006225D01*
X0047030Y0006225D01*
X0050548Y0006225D01*
X0051955Y0007632D01*
X0051955Y0009039D01*
X0051753Y0009568D01*
X0051955Y0009743D01*
X0051955Y0011853D01*
X0053362Y0013260D01*
X0054066Y0013260D01*
X0054769Y0012557D01*
X0061805Y0019592D01*
X0061805Y0018889D01*
X0063212Y0017481D01*
X0065322Y0017481D01*
X0065532Y0017442D01*
X0065532Y0015473D02*
X0066026Y0015371D01*
X0087132Y0015371D01*
X0090650Y0011853D01*
X0091300Y0011300D01*
X0087829Y0012672D02*
X0079771Y0012672D01*
X0079523Y0013270D02*
X0087243Y0013270D01*
X0086644Y0013869D02*
X0079009Y0013869D01*
X0080019Y0012073D02*
X0087581Y0012073D01*
X0087568Y0011475D02*
X0080032Y0011475D01*
X0080032Y0010876D02*
X0087568Y0010876D01*
X0087684Y0010278D02*
X0079916Y0010278D01*
X0079668Y0009679D02*
X0087932Y0009679D01*
X0088241Y0009081D02*
X0079359Y0009081D01*
X0078760Y0008482D02*
X0088840Y0008482D01*
X0089795Y0007884D02*
X0077805Y0007884D01*
X0074795Y0007884D02*
X0074600Y0007884D01*
X0074001Y0007285D02*
X0100321Y0007285D01*
X0100321Y0006687D02*
X0073402Y0006687D01*
X0072804Y0006088D02*
X0100321Y0006088D01*
X0100321Y0005490D02*
X0072205Y0005490D01*
X0071607Y0004891D02*
X0100321Y0004891D01*
X0100321Y0007884D02*
X0092805Y0007884D01*
X0093760Y0008482D02*
X0100321Y0008482D01*
X0100321Y0009081D02*
X0094359Y0009081D01*
X0094668Y0009679D02*
X0100321Y0009679D01*
X0100321Y0010278D02*
X0094916Y0010278D01*
X0095032Y0010876D02*
X0100321Y0010876D01*
X0100321Y0011475D02*
X0095032Y0011475D01*
X0095019Y0012073D02*
X0100321Y0012073D01*
X0100321Y0012672D02*
X0094771Y0012672D01*
X0094523Y0013270D02*
X0100321Y0013270D01*
X0100321Y0013869D02*
X0094009Y0013869D01*
X0093406Y0014467D02*
X0100321Y0014467D01*
X0100321Y0015066D02*
X0089427Y0015066D01*
X0088829Y0015664D02*
X0100321Y0015664D01*
X0100321Y0016263D02*
X0088230Y0016263D01*
X0089374Y0018058D02*
X0078226Y0018058D01*
X0078935Y0018657D02*
X0088665Y0018657D01*
X0088107Y0019255D02*
X0079493Y0019255D01*
X0079741Y0019854D02*
X0087859Y0019854D01*
X0087612Y0020452D02*
X0079988Y0020452D01*
X0080032Y0021051D02*
X0087568Y0021051D01*
X0087568Y0021649D02*
X0080032Y0021649D01*
X0079947Y0022248D02*
X0087653Y0022248D01*
X0087516Y0022846D02*
X0079699Y0022846D01*
X0079433Y0023445D02*
X0086918Y0023445D01*
X0087132Y0025220D02*
X0090650Y0021703D01*
X0091300Y0021300D01*
X0093935Y0018657D02*
X0100321Y0018657D01*
X0100321Y0019255D02*
X0094493Y0019255D01*
X0094741Y0019854D02*
X0100321Y0019854D01*
X0100321Y0020452D02*
X0094988Y0020452D01*
X0095032Y0021051D02*
X0100321Y0021051D01*
X0100321Y0021649D02*
X0095032Y0021649D01*
X0094947Y0022248D02*
X0100321Y0022248D01*
X0100321Y0022846D02*
X0094699Y0022846D01*
X0094433Y0023445D02*
X0100321Y0023445D01*
X0100321Y0024043D02*
X0093835Y0024043D01*
X0092984Y0024642D02*
X0100321Y0024642D01*
X0100321Y0025240D02*
X0089102Y0025240D01*
X0088504Y0025839D02*
X0100321Y0025839D01*
X0100321Y0026437D02*
X0087905Y0026437D01*
X0087132Y0025220D02*
X0074469Y0025220D01*
X0072358Y0023110D01*
X0066026Y0023110D01*
X0065532Y0023347D01*
X0065322Y0025220D02*
X0063212Y0025220D01*
X0061805Y0026628D01*
X0061805Y0028035D01*
X0063212Y0029442D01*
X0061805Y0030849D01*
X0061805Y0031552D01*
X0063212Y0032959D01*
X0061805Y0034367D01*
X0061805Y0035774D01*
X0058287Y0035774D01*
X0053362Y0040698D01*
X0051955Y0039291D01*
X0051252Y0039291D01*
X0049844Y0040698D01*
X0048437Y0039291D01*
X0047030Y0039291D01*
X0045623Y0040698D01*
X0045623Y0042809D01*
X0045847Y0043032D01*
X0044216Y0043513D02*
X0043879Y0043032D01*
X0044216Y0043513D02*
X0044216Y0045623D01*
X0048437Y0049844D01*
X0047030Y0052659D02*
X0053362Y0052659D01*
X0057583Y0056880D01*
X0086429Y0056880D01*
X0090650Y0061101D01*
X0091300Y0061300D01*
X0094782Y0059954D02*
X0100321Y0059954D01*
X0100321Y0059356D02*
X0094534Y0059356D01*
X0094035Y0058757D02*
X0100321Y0058757D01*
X0100321Y0058159D02*
X0093437Y0058159D01*
X0095030Y0060553D02*
X0100321Y0060553D01*
X0100321Y0061151D02*
X0095032Y0061151D01*
X0095032Y0061750D02*
X0100321Y0061750D01*
X0100321Y0062348D02*
X0094905Y0062348D01*
X0094658Y0062947D02*
X0100321Y0062947D01*
X0100321Y0063545D02*
X0094333Y0063545D01*
X0093734Y0064144D02*
X0100321Y0064144D01*
X0100321Y0064742D02*
X0092742Y0064742D01*
X0089858Y0064742D02*
X0077742Y0064742D01*
X0078734Y0064144D02*
X0088866Y0064144D01*
X0088267Y0063545D02*
X0079333Y0063545D01*
X0079658Y0062947D02*
X0087942Y0062947D01*
X0087695Y0062348D02*
X0079905Y0062348D01*
X0080032Y0061750D02*
X0087568Y0061750D01*
X0087568Y0061151D02*
X0080032Y0061151D01*
X0080030Y0060553D02*
X0087570Y0060553D01*
X0087513Y0059954D02*
X0079782Y0059954D01*
X0079534Y0059356D02*
X0086915Y0059356D01*
X0086316Y0058757D02*
X0079035Y0058757D01*
X0078909Y0053969D02*
X0086646Y0053969D01*
X0087245Y0053370D02*
X0079482Y0053370D01*
X0079730Y0052772D02*
X0087843Y0052772D01*
X0087622Y0052173D02*
X0079978Y0052173D01*
X0080032Y0051575D02*
X0087568Y0051575D01*
X0087568Y0050976D02*
X0080032Y0050976D01*
X0079958Y0050378D02*
X0087642Y0050378D01*
X0087890Y0049779D02*
X0079710Y0049779D01*
X0079459Y0049181D02*
X0088141Y0049181D01*
X0088740Y0048582D02*
X0078860Y0048582D01*
X0078047Y0047984D02*
X0089553Y0047984D01*
X0087854Y0046188D02*
X0100321Y0046188D01*
X0100321Y0045590D02*
X0088452Y0045590D01*
X0089051Y0044991D02*
X0090459Y0044991D01*
X0087255Y0046787D02*
X0100321Y0046787D01*
X0100321Y0047385D02*
X0086656Y0047385D01*
X0085725Y0046327D02*
X0090650Y0041402D01*
X0091300Y0041300D01*
X0095032Y0041400D02*
X0100321Y0041400D01*
X0100321Y0040802D02*
X0095032Y0040802D01*
X0094885Y0040203D02*
X0100321Y0040203D01*
X0100321Y0039605D02*
X0094637Y0039605D01*
X0094284Y0039006D02*
X0100321Y0039006D01*
X0100321Y0038408D02*
X0093686Y0038408D01*
X0092625Y0037809D02*
X0100321Y0037809D01*
X0100321Y0037211D02*
X0074378Y0037211D01*
X0073779Y0036612D02*
X0100321Y0036612D01*
X0100321Y0036014D02*
X0088179Y0036014D01*
X0088777Y0035415D02*
X0100321Y0035415D01*
X0100321Y0034817D02*
X0092562Y0034817D01*
X0093660Y0034218D02*
X0100321Y0034218D01*
X0100321Y0033620D02*
X0094258Y0033620D01*
X0094627Y0033021D02*
X0100321Y0033021D01*
X0100321Y0032423D02*
X0094875Y0032423D01*
X0095032Y0031824D02*
X0100321Y0031824D01*
X0100321Y0031226D02*
X0095032Y0031226D01*
X0095032Y0030627D02*
X0100321Y0030627D01*
X0100321Y0030029D02*
X0094813Y0030029D01*
X0094565Y0029430D02*
X0100321Y0029430D01*
X0100321Y0028832D02*
X0094109Y0028832D01*
X0093511Y0028233D02*
X0100321Y0028233D01*
X0100321Y0027634D02*
X0092203Y0027634D01*
X0090397Y0027634D02*
X0077203Y0027634D01*
X0078511Y0028233D02*
X0089089Y0028233D01*
X0088491Y0028832D02*
X0079109Y0028832D01*
X0079565Y0029430D02*
X0088035Y0029430D01*
X0087787Y0030029D02*
X0079813Y0030029D01*
X0080032Y0030627D02*
X0087568Y0030627D01*
X0087568Y0031226D02*
X0080032Y0031226D01*
X0080032Y0031824D02*
X0087568Y0031824D01*
X0087725Y0032423D02*
X0079875Y0032423D01*
X0079627Y0033021D02*
X0087191Y0033021D01*
X0086593Y0033620D02*
X0079258Y0033620D01*
X0076300Y0031300D02*
X0075876Y0030849D01*
X0072358Y0027331D01*
X0066026Y0027331D01*
X0065532Y0027284D01*
X0065532Y0029253D02*
X0065322Y0029442D01*
X0063212Y0029442D01*
X0061222Y0029442D02*
X0061222Y0029442D01*
X0061210Y0029430D02*
X0037181Y0029430D01*
X0037181Y0028832D02*
X0060612Y0028832D01*
X0060398Y0028233D02*
X0037181Y0028233D01*
X0036660Y0027634D02*
X0060398Y0027634D01*
X0060398Y0027036D02*
X0036061Y0027036D01*
X0035463Y0026437D02*
X0060398Y0026437D01*
X0060603Y0025839D02*
X0035143Y0025839D01*
X0035143Y0025240D02*
X0061202Y0025240D01*
X0060643Y0024642D02*
X0035143Y0024642D01*
X0035143Y0024043D02*
X0060398Y0024043D01*
X0060398Y0023445D02*
X0035143Y0023445D01*
X0035143Y0022846D02*
X0060398Y0022846D01*
X0060398Y0022248D02*
X0035255Y0022248D01*
X0035336Y0021649D02*
X0060398Y0021649D01*
X0060398Y0021051D02*
X0035336Y0021051D01*
X0035336Y0020814D02*
X0035336Y0021379D01*
X0032068Y0021379D01*
X0032068Y0021379D01*
X0031552Y0019592D02*
X0032068Y0019410D01*
X0031552Y0019592D02*
X0029442Y0019592D01*
X0013260Y0035774D01*
X0009039Y0035774D01*
X0005521Y0039291D01*
X0005521Y0055473D01*
X0011150Y0061101D01*
X0011300Y0061300D01*
X0007875Y0059816D02*
X0004114Y0056056D01*
X0004114Y0038709D01*
X0004938Y0037884D01*
X0008456Y0034367D01*
X0008825Y0034367D01*
X0008798Y0034349D01*
X0008251Y0033802D01*
X0007822Y0033159D01*
X0007526Y0032445D01*
X0007375Y0031687D01*
X0007375Y0031600D01*
X0011000Y0031600D01*
X0011000Y0031000D01*
X0007375Y0031000D01*
X0007375Y0030913D01*
X0007526Y0030155D01*
X0007822Y0029441D01*
X0008251Y0028798D01*
X0008798Y0028251D01*
X0009441Y0027822D01*
X0010155Y0027526D01*
X0010913Y0027375D01*
X0011000Y0027375D01*
X0011000Y0031000D01*
X0011600Y0031000D01*
X0011600Y0031600D01*
X0015225Y0031600D01*
X0015225Y0031687D01*
X0015192Y0031852D01*
X0018088Y0028956D01*
X0017497Y0028711D01*
X0016806Y0028019D01*
X0016431Y0027116D01*
X0016431Y0026139D01*
X0016806Y0025236D01*
X0016852Y0025189D01*
X0016374Y0024711D01*
X0016374Y0024591D01*
X0016330Y0024755D01*
X0016159Y0025051D01*
X0015917Y0025293D01*
X0015621Y0025464D01*
X0015290Y0025553D01*
X0012860Y0025553D01*
X0012860Y0021600D01*
X0012260Y0021600D01*
X0012260Y0025553D01*
X0009830Y0025553D01*
X0009499Y0025464D01*
X0009203Y0025293D01*
X0008961Y0025051D01*
X0008789Y0024755D01*
X0008701Y0024424D01*
X0008701Y0021600D01*
X0012260Y0021600D01*
X0012260Y0021000D01*
X0012860Y0021000D01*
X0012860Y0017047D01*
X0015290Y0017047D01*
X0015621Y0017136D01*
X0015917Y0017307D01*
X0016159Y0017549D01*
X0016330Y0017845D01*
X0016374Y0018009D01*
X0016374Y0017889D01*
X0017023Y0017240D01*
X0023058Y0017240D01*
X0023706Y0017889D01*
X0023706Y0023338D01*
X0028859Y0018185D01*
X0028992Y0018185D01*
X0028992Y0016778D01*
X0023231Y0016778D01*
X0021025Y0014572D01*
X0017219Y0014572D01*
X0016571Y0013924D01*
X0016571Y0008676D01*
X0017219Y0008028D01*
X0022074Y0008028D01*
X0022722Y0008676D01*
X0022722Y0012290D01*
X0024396Y0013964D01*
X0031125Y0013964D01*
X0031255Y0013877D01*
X0031691Y0013964D01*
X0032135Y0013964D01*
X0032144Y0013972D01*
X0034495Y0013972D01*
X0035143Y0014621D01*
X0035143Y0016325D01*
X0035011Y0016457D01*
X0035143Y0016589D01*
X0035143Y0018294D01*
X0035011Y0018426D01*
X0035143Y0018558D01*
X0035143Y0020263D01*
X0035129Y0020277D01*
X0035248Y0020483D01*
X0035336Y0020814D01*
X0035230Y0020452D02*
X0060398Y0020452D01*
X0060077Y0019854D02*
X0035143Y0019854D01*
X0035143Y0019255D02*
X0059478Y0019255D01*
X0058880Y0018657D02*
X0035143Y0018657D01*
X0035143Y0018058D02*
X0058281Y0018058D01*
X0057683Y0017460D02*
X0035143Y0017460D01*
X0035143Y0016861D02*
X0057084Y0016861D01*
X0056485Y0016263D02*
X0035143Y0016263D01*
X0035143Y0015664D02*
X0055887Y0015664D01*
X0055288Y0015066D02*
X0035143Y0015066D01*
X0034990Y0014467D02*
X0052579Y0014467D01*
X0051981Y0013869D02*
X0024301Y0013869D01*
X0023703Y0013270D02*
X0051382Y0013270D01*
X0050784Y0012672D02*
X0023104Y0012672D01*
X0022722Y0012073D02*
X0036551Y0012073D01*
X0036472Y0011475D02*
X0022722Y0011475D01*
X0022722Y0010876D02*
X0036472Y0010876D01*
X0036472Y0010278D02*
X0022722Y0010278D01*
X0022722Y0009679D02*
X0036472Y0009679D01*
X0036472Y0009081D02*
X0022722Y0009081D01*
X0022528Y0008482D02*
X0036472Y0008482D01*
X0036472Y0007884D02*
X0015276Y0007884D01*
X0015424Y0007923D02*
X0015720Y0008094D01*
X0015962Y0008336D01*
X0016133Y0008633D01*
X0016222Y0008963D01*
X0016222Y0011000D01*
X0013254Y0011000D01*
X0013254Y0011600D01*
X0016222Y0011600D01*
X0016222Y0013637D01*
X0016133Y0013967D01*
X0015962Y0014264D01*
X0015720Y0014506D01*
X0015424Y0014677D01*
X0015093Y0014765D01*
X0013254Y0014765D01*
X0013254Y0011600D01*
X0012654Y0011600D01*
X0012654Y0014765D01*
X0010814Y0014765D01*
X0010483Y0014677D01*
X0010187Y0014506D01*
X0009945Y0014264D01*
X0009774Y0013967D01*
X0009685Y0013637D01*
X0009685Y0011600D01*
X0012653Y0011600D01*
X0012653Y0011000D01*
X0009685Y0011000D01*
X0009685Y0008963D01*
X0009774Y0008633D01*
X0009945Y0008336D01*
X0010187Y0008094D01*
X0010483Y0007923D01*
X0010814Y0007835D01*
X0012654Y0007835D01*
X0012654Y0011000D01*
X0013254Y0011000D01*
X0013254Y0007835D01*
X0015093Y0007835D01*
X0015424Y0007923D01*
X0016046Y0008482D02*
X0016765Y0008482D01*
X0016571Y0009081D02*
X0016222Y0009081D01*
X0016222Y0009679D02*
X0016571Y0009679D01*
X0016571Y0010278D02*
X0016222Y0010278D01*
X0016222Y0010876D02*
X0016571Y0010876D01*
X0016571Y0011475D02*
X0013254Y0011475D01*
X0013254Y0012073D02*
X0012654Y0012073D01*
X0012653Y0011475D02*
X0002200Y0011475D01*
X0002200Y0012073D02*
X0009685Y0012073D01*
X0009685Y0012672D02*
X0002200Y0012672D01*
X0002200Y0013270D02*
X0009685Y0013270D01*
X0009747Y0013869D02*
X0002200Y0013869D01*
X0002200Y0014467D02*
X0010148Y0014467D01*
X0012654Y0014467D02*
X0013254Y0014467D01*
X0013254Y0013869D02*
X0012654Y0013869D01*
X0012654Y0013270D02*
X0013254Y0013270D01*
X0013254Y0012672D02*
X0012654Y0012672D01*
X0012654Y0010876D02*
X0013254Y0010876D01*
X0013254Y0010278D02*
X0012654Y0010278D01*
X0012654Y0009679D02*
X0013254Y0009679D01*
X0013254Y0009081D02*
X0012654Y0009081D01*
X0012654Y0008482D02*
X0013254Y0008482D01*
X0013254Y0007884D02*
X0012654Y0007884D01*
X0010631Y0007884D02*
X0002200Y0007884D01*
X0002200Y0008482D02*
X0009861Y0008482D01*
X0009685Y0009081D02*
X0002200Y0009081D01*
X0002200Y0009679D02*
X0009685Y0009679D01*
X0009685Y0010278D02*
X0002200Y0010278D01*
X0002200Y0010876D02*
X0009685Y0010876D01*
X0009830Y0017047D02*
X0012260Y0017047D01*
X0012260Y0021000D01*
X0008701Y0021000D01*
X0008701Y0018176D01*
X0008789Y0017845D01*
X0008961Y0017549D01*
X0009203Y0017307D01*
X0009499Y0017136D01*
X0009830Y0017047D01*
X0009050Y0017460D02*
X0002200Y0017460D01*
X0002200Y0018058D02*
X0008732Y0018058D01*
X0008701Y0018657D02*
X0002200Y0018657D01*
X0002200Y0019255D02*
X0008701Y0019255D01*
X0008701Y0019854D02*
X0002200Y0019854D01*
X0002200Y0020452D02*
X0008701Y0020452D01*
X0008701Y0021649D02*
X0002200Y0021649D01*
X0002200Y0021051D02*
X0012260Y0021051D01*
X0012260Y0021649D02*
X0012860Y0021649D01*
X0012860Y0022248D02*
X0012260Y0022248D01*
X0012260Y0022846D02*
X0012860Y0022846D01*
X0012860Y0023445D02*
X0012260Y0023445D01*
X0012260Y0024043D02*
X0012860Y0024043D01*
X0012860Y0024642D02*
X0012260Y0024642D01*
X0012260Y0025240D02*
X0012860Y0025240D01*
X0012445Y0027526D02*
X0013159Y0027822D01*
X0013802Y0028251D01*
X0014349Y0028798D01*
X0014778Y0029441D01*
X0015074Y0030155D01*
X0015225Y0030913D01*
X0015225Y0031000D01*
X0011600Y0031000D01*
X0011600Y0027375D01*
X0011687Y0027375D01*
X0012445Y0027526D01*
X0012707Y0027634D02*
X0016646Y0027634D01*
X0016431Y0027036D02*
X0002200Y0027036D01*
X0002200Y0027634D02*
X0009893Y0027634D01*
X0011000Y0027634D02*
X0011600Y0027634D01*
X0011600Y0028233D02*
X0011000Y0028233D01*
X0011000Y0028832D02*
X0011600Y0028832D01*
X0011600Y0029430D02*
X0011000Y0029430D01*
X0011000Y0030029D02*
X0011600Y0030029D01*
X0011600Y0030627D02*
X0011000Y0030627D01*
X0011000Y0031226D02*
X0002200Y0031226D01*
X0002200Y0031824D02*
X0007402Y0031824D01*
X0007521Y0032423D02*
X0002200Y0032423D01*
X0002200Y0033021D02*
X0007765Y0033021D01*
X0008129Y0033620D02*
X0002200Y0033620D01*
X0002200Y0034218D02*
X0008667Y0034218D01*
X0008006Y0034817D02*
X0002200Y0034817D01*
X0002200Y0035415D02*
X0007408Y0035415D01*
X0006809Y0036014D02*
X0002200Y0036014D01*
X0002200Y0036612D02*
X0006211Y0036612D01*
X0005612Y0037211D02*
X0002200Y0037211D01*
X0002200Y0037809D02*
X0005013Y0037809D01*
X0004415Y0038408D02*
X0002200Y0038408D01*
X0002200Y0039006D02*
X0004114Y0039006D01*
X0004114Y0039605D02*
X0002200Y0039605D01*
X0002200Y0040203D02*
X0004114Y0040203D01*
X0004114Y0040802D02*
X0002200Y0040802D01*
X0002200Y0041400D02*
X0004114Y0041400D01*
X0004114Y0041999D02*
X0002200Y0041999D01*
X0002200Y0042597D02*
X0004114Y0042597D01*
X0004114Y0043196D02*
X0002200Y0043196D01*
X0002200Y0043794D02*
X0004114Y0043794D01*
X0004114Y0044393D02*
X0002200Y0044393D01*
X0002200Y0044991D02*
X0004114Y0044991D01*
X0004114Y0045590D02*
X0002200Y0045590D01*
X0002200Y0046188D02*
X0004114Y0046188D01*
X0004114Y0046787D02*
X0002200Y0046787D01*
X0002200Y0047385D02*
X0004114Y0047385D01*
X0004114Y0047984D02*
X0002200Y0047984D01*
X0002200Y0048582D02*
X0004114Y0048582D01*
X0004114Y0049181D02*
X0002200Y0049181D01*
X0002200Y0049779D02*
X0004114Y0049779D01*
X0004114Y0050378D02*
X0002200Y0050378D01*
X0002200Y0050976D02*
X0004114Y0050976D01*
X0004114Y0051575D02*
X0002200Y0051575D01*
X0002200Y0052173D02*
X0004114Y0052173D01*
X0004114Y0052772D02*
X0002200Y0052772D01*
X0002200Y0053370D02*
X0004114Y0053370D01*
X0004114Y0053969D02*
X0002200Y0053969D01*
X0002200Y0054568D02*
X0004114Y0054568D01*
X0004114Y0055166D02*
X0002200Y0055166D01*
X0002200Y0055765D02*
X0004114Y0055765D01*
X0004422Y0056363D02*
X0002200Y0056363D01*
X0002200Y0056962D02*
X0005020Y0056962D01*
X0005619Y0057560D02*
X0002200Y0057560D01*
X0002200Y0058159D02*
X0006217Y0058159D01*
X0006816Y0058757D02*
X0002200Y0058757D01*
X0002200Y0059356D02*
X0007414Y0059356D01*
X0007875Y0059816D02*
X0007568Y0060558D01*
X0007568Y0062042D01*
X0008136Y0063414D01*
X0009186Y0064464D01*
X0010558Y0065032D01*
X0012042Y0065032D01*
X0013414Y0064464D01*
X0014464Y0063414D01*
X0015032Y0062042D01*
X0015032Y0060558D01*
X0014464Y0059186D01*
X0013414Y0058136D01*
X0012042Y0057568D01*
X0010558Y0057568D01*
X0009885Y0057847D01*
X0006928Y0054890D01*
X0006928Y0049020D01*
X0007831Y0049923D01*
X0007568Y0050558D01*
X0007568Y0052042D01*
X0008136Y0053414D01*
X0009186Y0054464D01*
X0010558Y0055032D01*
X0012042Y0055032D01*
X0013414Y0054464D01*
X0014464Y0053414D01*
X0015032Y0052042D01*
X0015032Y0050558D01*
X0014464Y0049186D01*
X0013414Y0048136D01*
X0012042Y0047568D01*
X0010558Y0047568D01*
X0009779Y0047891D01*
X0008335Y0046447D01*
X0008335Y0043613D01*
X0009186Y0044464D01*
X0010558Y0045032D01*
X0012042Y0045032D01*
X0013414Y0044464D01*
X0014464Y0043414D01*
X0015032Y0042042D01*
X0015032Y0040558D01*
X0014931Y0040314D01*
X0028617Y0026628D01*
X0028992Y0026628D01*
X0028992Y0028137D01*
X0029007Y0028151D01*
X0028888Y0028357D01*
X0028799Y0028688D01*
X0028799Y0029253D01*
X0032068Y0029253D01*
X0032068Y0029253D01*
X0032256Y0027331D02*
X0032068Y0027284D01*
X0032256Y0027331D02*
X0034367Y0027331D01*
X0035774Y0028738D01*
X0035774Y0049141D01*
X0023813Y0061101D01*
X0023800Y0061300D01*
X0022406Y0065322D02*
X0025220Y0065322D01*
X0037884Y0052659D01*
X0039291Y0054066D01*
X0049844Y0054066D01*
X0056880Y0061101D01*
X0063212Y0061101D01*
X0063800Y0061300D01*
X0067282Y0059954D02*
X0072818Y0059954D01*
X0073066Y0059356D02*
X0067034Y0059356D01*
X0066535Y0058757D02*
X0073565Y0058757D01*
X0072570Y0060553D02*
X0067530Y0060553D01*
X0067532Y0061151D02*
X0072568Y0061151D01*
X0072568Y0061750D02*
X0067532Y0061750D01*
X0067405Y0062348D02*
X0072695Y0062348D01*
X0072942Y0062947D02*
X0067158Y0062947D01*
X0066833Y0063545D02*
X0073267Y0063545D01*
X0073866Y0064144D02*
X0066234Y0064144D01*
X0065242Y0064742D02*
X0074858Y0064742D01*
X0087132Y0055473D02*
X0090650Y0051955D01*
X0091300Y0051300D01*
X0093909Y0053969D02*
X0100321Y0053969D01*
X0100321Y0054568D02*
X0093164Y0054568D01*
X0094482Y0053370D02*
X0100321Y0053370D01*
X0100321Y0052772D02*
X0094730Y0052772D01*
X0094978Y0052173D02*
X0100321Y0052173D01*
X0100321Y0051575D02*
X0095032Y0051575D01*
X0095032Y0050976D02*
X0100321Y0050976D01*
X0100321Y0050378D02*
X0094958Y0050378D01*
X0094710Y0049779D02*
X0100321Y0049779D01*
X0100321Y0049181D02*
X0094459Y0049181D01*
X0093860Y0048582D02*
X0100321Y0048582D01*
X0100321Y0047984D02*
X0093047Y0047984D01*
X0092141Y0044991D02*
X0100321Y0044991D01*
X0100321Y0044393D02*
X0093485Y0044393D01*
X0094084Y0043794D02*
X0100321Y0043794D01*
X0100321Y0043196D02*
X0094554Y0043196D01*
X0094802Y0042597D02*
X0100321Y0042597D01*
X0100321Y0041999D02*
X0095032Y0041999D01*
X0089975Y0037809D02*
X0077625Y0037809D01*
X0078686Y0038408D02*
X0088914Y0038408D01*
X0088316Y0039006D02*
X0079284Y0039006D01*
X0079637Y0039605D02*
X0087963Y0039605D01*
X0087715Y0040203D02*
X0079885Y0040203D01*
X0080032Y0040802D02*
X0087568Y0040802D01*
X0087568Y0041400D02*
X0080032Y0041400D01*
X0080032Y0041999D02*
X0087568Y0041999D01*
X0087465Y0042597D02*
X0079802Y0042597D01*
X0079554Y0043196D02*
X0086866Y0043196D01*
X0086268Y0043794D02*
X0079084Y0043794D01*
X0078485Y0044393D02*
X0085669Y0044393D01*
X0085725Y0046327D02*
X0056880Y0046327D01*
X0055473Y0044920D01*
X0055473Y0043513D01*
X0055690Y0043032D01*
X0053721Y0043032D02*
X0053362Y0042809D01*
X0053362Y0040698D01*
X0051753Y0043032D02*
X0051955Y0043513D01*
X0051955Y0045623D01*
X0057583Y0051252D01*
X0075876Y0051252D01*
X0076300Y0051300D01*
X0087132Y0055473D02*
X0058287Y0055473D01*
X0047734Y0044920D01*
X0047734Y0043513D01*
X0047816Y0043032D01*
X0049784Y0043032D02*
X0049844Y0042809D01*
X0049844Y0040698D01*
X0049844Y0038709D02*
X0049844Y0038709D01*
X0049544Y0038408D02*
X0050145Y0038408D01*
X0053061Y0038408D02*
X0053663Y0038408D01*
X0053362Y0038709D02*
X0053362Y0038709D01*
X0054262Y0037809D02*
X0037181Y0037809D01*
X0037181Y0037211D02*
X0054860Y0037211D01*
X0055459Y0036612D02*
X0037181Y0036612D01*
X0037181Y0036014D02*
X0056057Y0036014D01*
X0056656Y0035415D02*
X0037181Y0035415D01*
X0037181Y0034817D02*
X0057254Y0034817D01*
X0060398Y0034218D02*
X0037181Y0034218D01*
X0037181Y0033620D02*
X0060562Y0033620D01*
X0061160Y0033021D02*
X0037181Y0033021D01*
X0037181Y0032423D02*
X0060685Y0032423D01*
X0060398Y0031824D02*
X0037181Y0031824D01*
X0037181Y0031226D02*
X0060398Y0031226D01*
X0060398Y0030627D02*
X0037181Y0030627D01*
X0037181Y0030029D02*
X0060635Y0030029D01*
X0061222Y0032959D02*
X0061222Y0032959D01*
X0063212Y0032959D02*
X0065322Y0032959D01*
X0065532Y0033190D01*
X0066026Y0031552D02*
X0065532Y0031221D01*
X0066026Y0031552D02*
X0070951Y0031552D01*
X0074469Y0035070D01*
X0087132Y0035070D01*
X0090650Y0031552D01*
X0091300Y0031300D01*
X0090038Y0034817D02*
X0089376Y0034817D01*
X0100321Y0027036D02*
X0074053Y0027036D01*
X0073696Y0026437D02*
X0073454Y0026437D01*
X0073097Y0025839D02*
X0068608Y0025839D01*
X0068608Y0025240D02*
X0072499Y0025240D01*
X0071900Y0024642D02*
X0068608Y0024642D01*
X0065532Y0025316D02*
X0065322Y0025220D01*
X0063212Y0025220D02*
X0061805Y0023813D01*
X0061805Y0020296D01*
X0062508Y0020999D01*
X0065322Y0020999D01*
X0065532Y0021379D01*
X0066026Y0019592D02*
X0065532Y0019410D01*
X0066026Y0019592D02*
X0074469Y0019592D01*
X0075876Y0020999D01*
X0076300Y0021300D01*
X0074374Y0018058D02*
X0068608Y0018058D01*
X0068608Y0017460D02*
X0100321Y0017460D01*
X0100321Y0018058D02*
X0093226Y0018058D01*
X0100321Y0016861D02*
X0068608Y0016861D01*
X0061805Y0019592D02*
X0061805Y0020296D01*
X0054769Y0012557D02*
X0055473Y0011853D01*
X0055473Y0009743D01*
X0055690Y0009568D01*
X0054066Y0009039D02*
X0053721Y0009568D01*
X0054066Y0009039D02*
X0054066Y0006928D01*
X0054769Y0006225D01*
X0070951Y0006225D01*
X0075876Y0011150D01*
X0076300Y0011300D01*
X0075397Y0027634D02*
X0074651Y0027634D01*
X0070430Y0033021D02*
X0068608Y0033021D01*
X0068608Y0033620D02*
X0071028Y0033620D01*
X0071385Y0034218D02*
X0071627Y0034218D01*
X0071984Y0034817D02*
X0072225Y0034817D01*
X0072582Y0035415D02*
X0072824Y0035415D01*
X0073181Y0036014D02*
X0073422Y0036014D01*
X0070247Y0035070D02*
X0075876Y0040698D01*
X0076300Y0041300D01*
X0070247Y0035070D02*
X0066026Y0035070D01*
X0065532Y0035158D01*
X0065532Y0037127D02*
X0065322Y0037181D01*
X0063212Y0037181D01*
X0061805Y0035774D01*
X0045924Y0038408D02*
X0045322Y0038408D01*
X0044216Y0039291D02*
X0045623Y0040698D01*
X0044216Y0039291D02*
X0043513Y0039291D01*
X0042106Y0040698D01*
X0040698Y0039291D01*
X0039291Y0039291D01*
X0037884Y0040698D01*
X0037884Y0042809D01*
X0037973Y0043032D01*
X0037884Y0043513D01*
X0037884Y0052659D01*
X0031552Y0047734D02*
X0019592Y0059694D01*
X0019592Y0062508D01*
X0022406Y0065322D01*
X0021703Y0066730D02*
X0030849Y0066730D01*
X0035774Y0061805D01*
X0036300Y0061300D01*
X0036477Y0061805D01*
X0048437Y0061805D01*
X0048800Y0061300D01*
X0054157Y0061151D02*
X0054940Y0061151D01*
X0055473Y0061684D02*
X0055473Y0061684D01*
X0055538Y0061750D02*
X0054157Y0061750D01*
X0054157Y0062348D02*
X0056137Y0062348D01*
X0054157Y0062947D02*
X0060442Y0062947D01*
X0060767Y0063545D02*
X0054131Y0063545D01*
X0053532Y0064144D02*
X0061366Y0064144D01*
X0062358Y0064742D02*
X0052934Y0064742D01*
X0052335Y0065341D02*
X0100321Y0065341D01*
X0100321Y0065939D02*
X0051737Y0065939D01*
X0051138Y0066538D02*
X0100321Y0066538D01*
X0100321Y0067136D02*
X0032432Y0067136D01*
X0033031Y0066538D02*
X0046462Y0066538D01*
X0045863Y0065939D02*
X0033629Y0065939D01*
X0034228Y0065341D02*
X0045265Y0065341D01*
X0044666Y0064742D02*
X0037742Y0064742D01*
X0038734Y0064144D02*
X0044068Y0064144D01*
X0043469Y0063545D02*
X0039333Y0063545D01*
X0034858Y0064742D02*
X0034826Y0064742D01*
X0031833Y0067735D02*
X0100321Y0067735D01*
X0100321Y0068333D02*
X0002200Y0068333D01*
X0002200Y0067735D02*
X0020718Y0067735D01*
X0020120Y0067136D02*
X0002200Y0067136D01*
X0002200Y0066538D02*
X0019521Y0066538D01*
X0018923Y0065939D02*
X0002200Y0065939D01*
X0002200Y0065341D02*
X0018324Y0065341D01*
X0017726Y0064742D02*
X0012742Y0064742D01*
X0013734Y0064144D02*
X0017127Y0064144D01*
X0016778Y0063545D02*
X0014333Y0063545D01*
X0014658Y0062947D02*
X0016778Y0062947D01*
X0016778Y0062348D02*
X0014905Y0062348D01*
X0015032Y0061750D02*
X0016778Y0061750D01*
X0016778Y0061151D02*
X0015032Y0061151D01*
X0015030Y0060553D02*
X0016778Y0060553D01*
X0016778Y0059954D02*
X0014782Y0059954D01*
X0014534Y0059356D02*
X0016778Y0059356D01*
X0016778Y0058757D02*
X0014035Y0058757D01*
X0013437Y0058159D02*
X0016778Y0058159D01*
X0016778Y0057560D02*
X0009598Y0057560D01*
X0009000Y0056962D02*
X0016778Y0056962D01*
X0016778Y0056363D02*
X0008401Y0056363D01*
X0007803Y0055765D02*
X0016778Y0055765D01*
X0016778Y0055166D02*
X0007204Y0055166D01*
X0006928Y0054568D02*
X0009436Y0054568D01*
X0008691Y0053969D02*
X0006928Y0053969D01*
X0006928Y0053370D02*
X0008118Y0053370D01*
X0007870Y0052772D02*
X0006928Y0052772D01*
X0006928Y0052173D02*
X0007622Y0052173D01*
X0007568Y0051575D02*
X0006928Y0051575D01*
X0006928Y0050976D02*
X0007568Y0050976D01*
X0007642Y0050378D02*
X0006928Y0050378D01*
X0006928Y0049779D02*
X0007688Y0049779D01*
X0007089Y0049181D02*
X0006928Y0049181D01*
X0009273Y0047385D02*
X0016778Y0047385D01*
X0016778Y0046787D02*
X0008675Y0046787D01*
X0008335Y0046188D02*
X0016778Y0046188D01*
X0016778Y0045590D02*
X0008335Y0045590D01*
X0008335Y0044991D02*
X0010459Y0044991D01*
X0009115Y0044393D02*
X0008335Y0044393D01*
X0008335Y0043794D02*
X0008516Y0043794D01*
X0006928Y0047030D02*
X0011150Y0051252D01*
X0011300Y0051300D01*
X0013909Y0053969D02*
X0016778Y0053969D01*
X0016778Y0054568D02*
X0013164Y0054568D01*
X0014482Y0053370D02*
X0016778Y0053370D01*
X0016778Y0052772D02*
X0014730Y0052772D01*
X0014978Y0052173D02*
X0016778Y0052173D01*
X0016778Y0051575D02*
X0015032Y0051575D01*
X0015032Y0050976D02*
X0016778Y0050976D01*
X0016778Y0050378D02*
X0014958Y0050378D01*
X0014710Y0049779D02*
X0016778Y0049779D01*
X0016778Y0049181D02*
X0014459Y0049181D01*
X0013860Y0048582D02*
X0016778Y0048582D01*
X0016778Y0047984D02*
X0013047Y0047984D01*
X0012141Y0044991D02*
X0016778Y0044991D01*
X0016778Y0044393D02*
X0013485Y0044393D01*
X0014084Y0043794D02*
X0017320Y0043794D01*
X0017919Y0043196D02*
X0014554Y0043196D01*
X0014802Y0042597D02*
X0018518Y0042597D01*
X0019116Y0041999D02*
X0015032Y0041999D01*
X0015032Y0041400D02*
X0019715Y0041400D01*
X0020313Y0040802D02*
X0015032Y0040802D01*
X0015042Y0040203D02*
X0020912Y0040203D01*
X0021510Y0039605D02*
X0015640Y0039605D01*
X0016239Y0039006D02*
X0022109Y0039006D01*
X0022707Y0038408D02*
X0016837Y0038408D01*
X0017436Y0037809D02*
X0023306Y0037809D01*
X0023904Y0037211D02*
X0018034Y0037211D01*
X0018633Y0036612D02*
X0024503Y0036612D01*
X0025101Y0036014D02*
X0019231Y0036014D01*
X0019830Y0035415D02*
X0025700Y0035415D01*
X0026298Y0034817D02*
X0020428Y0034817D01*
X0021027Y0034218D02*
X0026897Y0034218D01*
X0027495Y0033620D02*
X0021625Y0033620D01*
X0022224Y0033021D02*
X0028094Y0033021D01*
X0028692Y0032423D02*
X0022822Y0032423D01*
X0023421Y0031824D02*
X0028992Y0031824D01*
X0028992Y0031226D02*
X0024019Y0031226D01*
X0024618Y0030627D02*
X0028992Y0030627D01*
X0028856Y0030029D02*
X0025216Y0030029D01*
X0025815Y0029430D02*
X0028799Y0029430D01*
X0028799Y0028832D02*
X0026413Y0028832D01*
X0027012Y0028233D02*
X0028960Y0028233D01*
X0028992Y0027634D02*
X0027611Y0027634D01*
X0028209Y0027036D02*
X0028992Y0027036D01*
X0028035Y0025220D02*
X0011853Y0041402D01*
X0011300Y0041300D01*
X0009743Y0037181D02*
X0006928Y0039995D01*
X0006928Y0047030D01*
X0009743Y0037181D02*
X0013964Y0037181D01*
X0028035Y0023110D01*
X0031552Y0023110D01*
X0032068Y0023347D01*
X0031552Y0025220D02*
X0032068Y0025316D01*
X0031552Y0025220D02*
X0028035Y0025220D01*
X0024796Y0022248D02*
X0023706Y0022248D01*
X0023706Y0022846D02*
X0024198Y0022846D01*
X0023706Y0021649D02*
X0025395Y0021649D01*
X0025993Y0021051D02*
X0023706Y0021051D01*
X0023706Y0020452D02*
X0026592Y0020452D01*
X0027190Y0019854D02*
X0023706Y0019854D01*
X0023706Y0019255D02*
X0027789Y0019255D01*
X0028387Y0018657D02*
X0023706Y0018657D01*
X0023706Y0018058D02*
X0028992Y0018058D01*
X0028992Y0017460D02*
X0023277Y0017460D01*
X0022715Y0016263D02*
X0002200Y0016263D01*
X0002200Y0016861D02*
X0028992Y0016861D01*
X0031552Y0015371D02*
X0032068Y0015473D01*
X0031552Y0015371D02*
X0023813Y0015371D01*
X0020296Y0011853D01*
X0019646Y0011300D01*
X0016571Y0012073D02*
X0016222Y0012073D01*
X0016222Y0012672D02*
X0016571Y0012672D01*
X0016571Y0013270D02*
X0016222Y0013270D01*
X0016160Y0013869D02*
X0016571Y0013869D01*
X0017114Y0014467D02*
X0015759Y0014467D01*
X0016070Y0017460D02*
X0016803Y0017460D01*
X0012860Y0017460D02*
X0012260Y0017460D01*
X0012260Y0018058D02*
X0012860Y0018058D01*
X0012860Y0018657D02*
X0012260Y0018657D01*
X0012260Y0019255D02*
X0012860Y0019255D01*
X0012860Y0019854D02*
X0012260Y0019854D01*
X0012260Y0020452D02*
X0012860Y0020452D01*
X0008701Y0022248D02*
X0002200Y0022248D01*
X0002200Y0022846D02*
X0008701Y0022846D01*
X0008701Y0023445D02*
X0002200Y0023445D01*
X0002200Y0024043D02*
X0008701Y0024043D01*
X0008759Y0024642D02*
X0002200Y0024642D01*
X0002200Y0025240D02*
X0009150Y0025240D01*
X0008825Y0028233D02*
X0002200Y0028233D01*
X0002200Y0028832D02*
X0008229Y0028832D01*
X0007829Y0029430D02*
X0002200Y0029430D01*
X0002200Y0030029D02*
X0007578Y0030029D01*
X0007432Y0030627D02*
X0002200Y0030627D01*
X0002200Y0026437D02*
X0016431Y0026437D01*
X0016556Y0025839D02*
X0002200Y0025839D01*
X0011600Y0031226D02*
X0015818Y0031226D01*
X0015220Y0031824D02*
X0015198Y0031824D01*
X0015168Y0030627D02*
X0016417Y0030627D01*
X0017015Y0030029D02*
X0015022Y0030029D01*
X0014771Y0029430D02*
X0017614Y0029430D01*
X0017789Y0028832D02*
X0014371Y0028832D01*
X0013775Y0028233D02*
X0017019Y0028233D01*
X0018889Y0026628D02*
X0019592Y0025924D01*
X0019592Y0021703D01*
X0020040Y0021300D01*
X0016374Y0024642D02*
X0016360Y0024642D01*
X0015970Y0025240D02*
X0016804Y0025240D01*
X0022117Y0015664D02*
X0002200Y0015664D01*
X0002200Y0015066D02*
X0021518Y0015066D01*
X0036472Y0007285D02*
X0002200Y0007285D01*
X0002200Y0006687D02*
X0036926Y0006687D01*
X0039995Y0006928D02*
X0039995Y0009039D01*
X0039942Y0009568D01*
X0043513Y0009039D02*
X0043513Y0006928D01*
X0042809Y0006225D01*
X0043513Y0009039D02*
X0043879Y0009568D01*
X0047734Y0009039D02*
X0047734Y0006928D01*
X0047030Y0006225D01*
X0047734Y0009039D02*
X0047816Y0009568D01*
X0051803Y0005490D02*
X0053515Y0005490D01*
X0052916Y0006088D02*
X0052401Y0006088D01*
X0051955Y0005642D02*
X0051955Y0005642D01*
X0051204Y0004891D02*
X0054113Y0004891D01*
X0032068Y0033190D02*
X0031552Y0032959D01*
X0030145Y0032959D01*
X0018185Y0044920D01*
X0018185Y0063212D01*
X0021703Y0066730D01*
X0009858Y0064742D02*
X0002200Y0064742D01*
X0002200Y0064144D02*
X0008866Y0064144D01*
X0008267Y0063545D02*
X0002200Y0063545D01*
X0002200Y0062947D02*
X0007942Y0062947D01*
X0007695Y0062348D02*
X0002200Y0062348D01*
X0002200Y0061750D02*
X0007568Y0061750D01*
X0007568Y0061151D02*
X0002200Y0061151D01*
X0002200Y0060553D02*
X0007570Y0060553D01*
X0007818Y0059954D02*
X0002200Y0059954D01*
X0002200Y0068932D02*
X0100321Y0068932D01*
X0100321Y0069530D02*
X0002200Y0069530D01*
X0002200Y0070129D02*
X0100321Y0070129D01*
X0100321Y0070727D02*
X0002200Y0070727D01*
X0031552Y0047734D02*
X0031552Y0037181D01*
X0032068Y0037127D01*
X0037181Y0038408D02*
X0038185Y0038408D01*
X0037587Y0039006D02*
X0037181Y0039006D01*
X0041805Y0038408D02*
X0042406Y0038408D01*
X0042106Y0040698D02*
X0042106Y0042809D01*
X0041910Y0043032D01*
X0039942Y0043032D02*
X0039995Y0043513D01*
X0039995Y0045623D01*
X0047030Y0052659D01*
X0054157Y0060553D02*
X0054341Y0060553D01*
X0088232Y0056363D02*
X0100321Y0056363D01*
X0100321Y0055765D02*
X0088830Y0055765D01*
X0089429Y0055166D02*
X0100321Y0055166D01*
X0100321Y0056962D02*
X0088500Y0056962D01*
X0089099Y0057560D02*
X0100321Y0057560D01*
D17*
X0048437Y0049844D03*
X0018889Y0026628D03*
M02*
