G75*
%MOIN*%
%OFA0B0*%
%FSLAX25Y25*%
%IPPOS*%
%LPD*%
%AMOC8*
5,1,8,0,0,1.08239X$1,22.5*
%
%ADD10C,0.00000*%
%ADD11C,0.00600*%
%ADD12C,0.01000*%
%ADD13C,0.00400*%
%ADD14C,0.00300*%
D10*
X0001300Y0001300D02*
X0001300Y0072501D01*
X0101221Y0072501D01*
X0101221Y0001300D01*
X0001300Y0001300D01*
D11*
X0046800Y0055800D02*
X0050800Y0055800D01*
X0054300Y0059300D01*
X0054300Y0063300D01*
X0050800Y0066800D01*
X0046800Y0066800D01*
X0043300Y0063300D01*
X0043300Y0059300D01*
X0046800Y0055800D01*
D12*
X0036595Y0039587D02*
X0061005Y0039587D01*
X0062087Y0038505D01*
X0062087Y0014095D01*
X0061005Y0013013D01*
X0036595Y0013013D01*
X0035513Y0014095D01*
X0035513Y0038505D01*
X0036595Y0039587D01*
X0054312Y0034174D02*
X0054314Y0034271D01*
X0054320Y0034368D01*
X0054330Y0034464D01*
X0054344Y0034560D01*
X0054362Y0034656D01*
X0054383Y0034750D01*
X0054409Y0034844D01*
X0054438Y0034936D01*
X0054472Y0035027D01*
X0054508Y0035117D01*
X0054549Y0035205D01*
X0054593Y0035291D01*
X0054641Y0035376D01*
X0054692Y0035458D01*
X0054746Y0035539D01*
X0054804Y0035617D01*
X0054865Y0035692D01*
X0054928Y0035765D01*
X0054995Y0035836D01*
X0055065Y0035903D01*
X0055137Y0035968D01*
X0055212Y0036029D01*
X0055290Y0036088D01*
X0055369Y0036143D01*
X0055451Y0036195D01*
X0055535Y0036243D01*
X0055621Y0036288D01*
X0055709Y0036330D01*
X0055798Y0036368D01*
X0055889Y0036402D01*
X0055981Y0036432D01*
X0056074Y0036459D01*
X0056169Y0036481D01*
X0056264Y0036500D01*
X0056360Y0036515D01*
X0056456Y0036526D01*
X0056553Y0036533D01*
X0056650Y0036536D01*
X0056747Y0036535D01*
X0056844Y0036530D01*
X0056940Y0036521D01*
X0057036Y0036508D01*
X0057132Y0036491D01*
X0057227Y0036470D01*
X0057320Y0036446D01*
X0057413Y0036417D01*
X0057505Y0036385D01*
X0057595Y0036349D01*
X0057683Y0036310D01*
X0057770Y0036266D01*
X0057855Y0036220D01*
X0057938Y0036169D01*
X0058019Y0036116D01*
X0058097Y0036059D01*
X0058174Y0035999D01*
X0058247Y0035936D01*
X0058318Y0035870D01*
X0058386Y0035801D01*
X0058452Y0035729D01*
X0058514Y0035655D01*
X0058573Y0035578D01*
X0058629Y0035499D01*
X0058682Y0035417D01*
X0058732Y0035334D01*
X0058777Y0035248D01*
X0058820Y0035161D01*
X0058859Y0035072D01*
X0058894Y0034982D01*
X0058925Y0034890D01*
X0058952Y0034797D01*
X0058976Y0034703D01*
X0058996Y0034608D01*
X0059012Y0034512D01*
X0059024Y0034416D01*
X0059032Y0034319D01*
X0059036Y0034222D01*
X0059036Y0034126D01*
X0059032Y0034029D01*
X0059024Y0033932D01*
X0059012Y0033836D01*
X0058996Y0033740D01*
X0058976Y0033645D01*
X0058952Y0033551D01*
X0058925Y0033458D01*
X0058894Y0033366D01*
X0058859Y0033276D01*
X0058820Y0033187D01*
X0058777Y0033100D01*
X0058732Y0033014D01*
X0058682Y0032931D01*
X0058629Y0032849D01*
X0058573Y0032770D01*
X0058514Y0032693D01*
X0058452Y0032619D01*
X0058386Y0032547D01*
X0058318Y0032478D01*
X0058247Y0032412D01*
X0058174Y0032349D01*
X0058097Y0032289D01*
X0058019Y0032232D01*
X0057938Y0032179D01*
X0057855Y0032128D01*
X0057770Y0032082D01*
X0057683Y0032038D01*
X0057595Y0031999D01*
X0057505Y0031963D01*
X0057413Y0031931D01*
X0057320Y0031902D01*
X0057227Y0031878D01*
X0057132Y0031857D01*
X0057036Y0031840D01*
X0056940Y0031827D01*
X0056844Y0031818D01*
X0056747Y0031813D01*
X0056650Y0031812D01*
X0056553Y0031815D01*
X0056456Y0031822D01*
X0056360Y0031833D01*
X0056264Y0031848D01*
X0056169Y0031867D01*
X0056074Y0031889D01*
X0055981Y0031916D01*
X0055889Y0031946D01*
X0055798Y0031980D01*
X0055709Y0032018D01*
X0055621Y0032060D01*
X0055535Y0032105D01*
X0055451Y0032153D01*
X0055369Y0032205D01*
X0055290Y0032260D01*
X0055212Y0032319D01*
X0055137Y0032380D01*
X0055065Y0032445D01*
X0054995Y0032512D01*
X0054928Y0032583D01*
X0054865Y0032656D01*
X0054804Y0032731D01*
X0054746Y0032809D01*
X0054692Y0032890D01*
X0054641Y0032972D01*
X0054593Y0033057D01*
X0054549Y0033143D01*
X0054508Y0033231D01*
X0054472Y0033321D01*
X0054438Y0033412D01*
X0054409Y0033504D01*
X0054383Y0033598D01*
X0054362Y0033692D01*
X0054344Y0033788D01*
X0054330Y0033884D01*
X0054320Y0033980D01*
X0054314Y0034077D01*
X0054312Y0034174D01*
D13*
X0052861Y0021104D02*
X0052861Y0017267D01*
X0052094Y0016500D01*
X0050559Y0016500D01*
X0049792Y0017267D01*
X0049792Y0021104D01*
X0054396Y0019569D02*
X0055931Y0021104D01*
X0055931Y0016500D01*
X0057465Y0016500D02*
X0054396Y0016500D01*
D14*
X0027938Y0018250D02*
X0026003Y0018250D01*
X0026971Y0018250D02*
X0026971Y0021152D01*
X0026003Y0020185D01*
X0024992Y0020669D02*
X0024508Y0021152D01*
X0023541Y0021152D01*
X0023057Y0020669D01*
X0023057Y0018734D01*
X0023541Y0018250D01*
X0024508Y0018250D01*
X0024992Y0018734D01*
X0024508Y0011152D02*
X0024992Y0010669D01*
X0024992Y0009701D01*
X0024508Y0009217D01*
X0023057Y0009217D01*
X0023057Y0008250D02*
X0023057Y0011152D01*
X0024508Y0011152D01*
X0026003Y0010185D02*
X0026971Y0011152D01*
X0026971Y0008250D01*
X0027938Y0008250D02*
X0026003Y0008250D01*
X0024992Y0008250D02*
X0024024Y0009217D01*
M02*
